<?xml version="1.0" encoding="utf-8" standalone="no"?>
<!DOCTYPE svg PUBLIC "-//W3C//DTD SVG 1.1//EN"
  "http://www.w3.org/Graphics/SVG/1.1/DTD/svg11.dtd">
<svg xmlns:xlink="http://www.w3.org/1999/xlink" width="496.8pt" height="180pt" viewBox="0 0 496.8 180" xmlns="http://www.w3.org/2000/svg" version="1.1">
 <metadata>
  <rdf:RDF xmlns:dc="http://purl.org/dc/elements/1.1/" xmlns:cc="http://creativecommons.org/ns#" xmlns:rdf="http://www.w3.org/1999/02/22-rdf-syntax-ns#">
   <cc:Work>
    <dc:type rdf:resource="http://purl.org/dc/dcmitype/StillImage"/>
    <dc:date>2026-07-06T19:24:55.763945</dc:date>
    <dc:format>image/svg+xml</dc:format>
    <dc:creator>
     <cc:Agent>
      <dc:title>Matplotlib v3.10.8, https://matplotlib.org/</dc:title>
     </cc:Agent>
    </dc:creator>
   </cc:Work>
  </rdf:RDF>
 </metadata>
 <defs>
  <style type="text/css">*{stroke-linejoin: round; stroke-linecap: butt}</style>
 </defs>
 <g id="figure_1">
  <g id="patch_1">
   <path d="M 0 180 
L 496.8 180 
L 496.8 0 
L 0 0 
z
" style="fill: #ffffff"/>
  </g>
  <g id="axes_1">
   <g id="patch_2">
    <path d="M 45.21 142.44 
L 161.66 142.44 
L 161.66 29.74 
L 45.21 29.74 
z
" style="fill: #ffffff"/>
   </g>
   <g id="matplotlib.axis_1">
    <g id="xtick_1">
     <g id="line2d_1">
      <defs>
       <path id="mc5bbc2babc" d="M 0 0 
L 0 -4 
" style="stroke: #1a1a1a"/>
      </defs>
      <g>
       <use xlink:href="#mc5bbc2babc" x="48.342699" y="142.44" style="fill: #1a1a1a; stroke: #1a1a1a"/>
      </g>
     </g>
     <g id="text_1">
      <!-- 0 -->
      <g style="fill: #1a1a1a" transform="translate(45.633559 152.803906) scale(0.09 -0.09)">
       <defs>
        <path id="Menlo-Regular-30" d="M 1925 4734 
Q 2672 4734 3055 4125 
Q 3438 3516 3438 2322 
Q 3438 1128 3055 518 
Q 2672 -91 1925 -91 
Q 1178 -91 797 518 
Q 416 1128 416 2322 
Q 416 3516 797 4125 
Q 1178 4734 1925 4734 
z
M 1925 409 
Q 2369 409 2586 881 
Q 2803 1353 2803 2322 
Q 2803 2838 2741 3253 
L 1253 925 
Q 1488 409 1925 409 
z
M 1925 4234 
Q 1484 4234 1267 3762 
Q 1050 3291 1050 2322 
Q 1050 1881 1109 1497 
L 2566 3819 
Q 2328 4234 1925 4234 
z
" transform="scale(0.015625)"/>
       </defs>
       <use xlink:href="#Menlo-Regular-30"/>
      </g>
     </g>
    </g>
    <g id="xtick_2">
     <g id="line2d_2">
      <g>
       <use xlink:href="#mc5bbc2babc" x="91.552347" y="142.44" style="fill: #1a1a1a; stroke: #1a1a1a"/>
      </g>
     </g>
     <g id="text_2">
      <!-- 20 -->
      <g style="fill: #1a1a1a" transform="translate(86.134066 152.803906) scale(0.09 -0.09)">
       <defs>
        <path id="Menlo-Regular-32" d="M 1166 531 
L 3309 531 
L 3309 0 
L 475 0 
L 475 531 
Q 1059 1147 1496 1619 
Q 1934 2091 2100 2284 
Q 2413 2666 2522 2902 
Q 2631 3138 2631 3384 
Q 2631 3775 2401 3997 
Q 2172 4219 1772 4219 
Q 1488 4219 1175 4116 
Q 863 4013 513 3803 
L 513 4441 
Q 834 4594 1145 4672 
Q 1456 4750 1759 4750 
Q 2444 4750 2861 4386 
Q 3278 4022 3278 3431 
Q 3278 3131 3139 2831 
Q 3000 2531 2688 2169 
Q 2513 1966 2180 1606 
Q 1847 1247 1166 531 
z
" transform="scale(0.015625)"/>
       </defs>
       <use xlink:href="#Menlo-Regular-32"/>
       <use xlink:href="#Menlo-Regular-30" transform="translate(60.205078 0)"/>
      </g>
     </g>
    </g>
    <g id="xtick_3">
     <g id="line2d_3">
      <g>
       <use xlink:href="#mc5bbc2babc" x="134.761994" y="142.44" style="fill: #1a1a1a; stroke: #1a1a1a"/>
      </g>
     </g>
     <g id="text_3">
      <!-- 40 -->
      <g style="fill: #1a1a1a" transform="translate(129.343713 152.803906) scale(0.09 -0.09)">
       <defs>
        <path id="Menlo-Regular-34" d="M 2297 4091 
L 825 1625 
L 2297 1625 
L 2297 4091 
z
M 2194 4666 
L 2925 4666 
L 2925 1625 
L 3547 1625 
L 3547 1113 
L 2925 1113 
L 2925 0 
L 2297 0 
L 2297 1113 
L 319 1113 
L 319 1709 
L 2194 4666 
z
" transform="scale(0.015625)"/>
       </defs>
       <use xlink:href="#Menlo-Regular-34"/>
       <use xlink:href="#Menlo-Regular-30" transform="translate(60.205078 0)"/>
      </g>
     </g>
    </g>
    <g id="text_4">
     <!-- epoch -->
     <g style="fill: #1a1a1a" transform="translate(88.384219 166.302188) scale(0.1 -0.1)">
      <defs>
       <path id="Menlo-Regular-65" d="M 3500 2038 
L 3500 1756 
L 1009 1756 
L 1009 1738 
Q 984 1022 1282 709 
Q 1581 397 2125 397 
Q 2400 397 2700 484 
Q 3000 572 3341 750 
L 3341 178 
Q 3013 44 2708 -23 
Q 2403 -91 2119 -91 
Q 1303 -91 843 398 
Q 384 888 384 1747 
Q 384 2584 834 3084 
Q 1284 3584 2034 3584 
Q 2703 3584 3089 3131 
Q 3475 2678 3500 2038 
z
M 2925 2206 
Q 2888 2569 2661 2833 
Q 2434 3097 2009 3097 
Q 1594 3097 1325 2822 
Q 1056 2547 1031 2203 
L 2925 2206 
z
" transform="scale(0.015625)"/>
       <path id="Menlo-Regular-70" d="M 1172 441 
L 1172 -1331 
L 594 -1331 
L 594 3500 
L 1172 3500 
L 1172 3053 
Q 1316 3313 1555 3448 
Q 1794 3584 2106 3584 
Q 2741 3584 3102 3093 
Q 3463 2603 3463 1734 
Q 3463 881 3100 395 
Q 2738 -91 2106 -91 
Q 1788 -91 1548 45 
Q 1309 181 1172 441 
z
M 2859 1747 
Q 2859 2416 2648 2756 
Q 2438 3097 2022 3097 
Q 1603 3097 1387 2755 
Q 1172 2413 1172 1747 
Q 1172 1084 1387 740 
Q 1603 397 2022 397 
Q 2438 397 2648 737 
Q 2859 1078 2859 1747 
z
" transform="scale(0.015625)"/>
       <path id="Menlo-Regular-6f" d="M 1925 3097 
Q 1488 3097 1263 2756 
Q 1038 2416 1038 1747 
Q 1038 1081 1263 739 
Q 1488 397 1925 397 
Q 2366 397 2591 739 
Q 2816 1081 2816 1747 
Q 2816 2416 2591 2756 
Q 2366 3097 1925 3097 
z
M 1925 3584 
Q 2653 3584 3039 3112 
Q 3425 2641 3425 1747 
Q 3425 850 3040 379 
Q 2656 -91 1925 -91 
Q 1197 -91 812 379 
Q 428 850 428 1747 
Q 428 2641 812 3112 
Q 1197 3584 1925 3584 
z
" transform="scale(0.015625)"/>
       <path id="Menlo-Regular-63" d="M 3316 178 
Q 3084 44 2839 -23 
Q 2594 -91 2338 -91 
Q 1525 -91 1067 396 
Q 609 884 609 1747 
Q 609 2609 1067 3096 
Q 1525 3584 2338 3584 
Q 2591 3584 2831 3518 
Q 3072 3453 3316 3316 
L 3316 2713 
Q 3088 2916 2858 3006 
Q 2628 3097 2338 3097 
Q 1797 3097 1506 2747 
Q 1216 2397 1216 1747 
Q 1216 1100 1508 748 
Q 1800 397 2338 397 
Q 2638 397 2875 489 
Q 3113 581 3316 775 
L 3316 178 
z
" transform="scale(0.015625)"/>
       <path id="Menlo-Regular-68" d="M 3284 2169 
L 3284 0 
L 2706 0 
L 2706 2169 
Q 2706 2641 2540 2862 
Q 2375 3084 2022 3084 
Q 1619 3084 1401 2798 
Q 1184 2513 1184 1978 
L 1184 0 
L 609 0 
L 609 4863 
L 1184 4863 
L 1184 2975 
Q 1338 3275 1600 3429 
Q 1863 3584 2222 3584 
Q 2756 3584 3020 3232 
Q 3284 2881 3284 2169 
z
" transform="scale(0.015625)"/>
      </defs>
      <use xlink:href="#Menlo-Regular-65"/>
      <use xlink:href="#Menlo-Regular-70" transform="translate(60.205078 0)"/>
      <use xlink:href="#Menlo-Regular-6f" transform="translate(120.410156 0)"/>
      <use xlink:href="#Menlo-Regular-63" transform="translate(180.615234 0)"/>
      <use xlink:href="#Menlo-Regular-68" transform="translate(240.820312 0)"/>
     </g>
    </g>
   </g>
   <g id="matplotlib.axis_2">
    <g id="ytick_1">
     <g id="line2d_4">
      <defs>
       <path id="md3b842946d" d="M 0 0 
L 4 0 
" style="stroke: #1a1a1a"/>
      </defs>
      <g>
       <use xlink:href="#md3b842946d" x="45.21" y="119.185073" style="fill: #1a1a1a; stroke: #1a1a1a"/>
      </g>
     </g>
     <g id="text_5">
      <!-- 0.5 -->
      <g style="fill: #1a1a1a" transform="translate(25.455156 122.617026) scale(0.09 -0.09)">
       <defs>
        <path id="Menlo-Regular-2e" d="M 1216 1263 
L 2316 1263 
L 2316 0 
L 1216 0 
L 1216 1263 
z
" transform="scale(0.015625)"/>
        <path id="Menlo-Regular-35" d="M 647 4666 
L 3009 4666 
L 3009 4134 
L 1222 4134 
L 1222 2988 
Q 1356 3038 1492 3061 
Q 1628 3084 1766 3084 
Q 2491 3084 2916 2656 
Q 3341 2228 3341 1497 
Q 3341 759 2895 334 
Q 2450 -91 1678 -91 
Q 1306 -91 998 -41 
Q 691 9 447 109 
L 447 750 
Q 734 594 1025 517 
Q 1316 441 1619 441 
Q 2141 441 2423 716 
Q 2706 991 2706 1497 
Q 2706 1997 2414 2275 
Q 2122 2553 1600 2553 
Q 1347 2553 1106 2495 
Q 866 2438 647 2322 
L 647 4666 
z
" transform="scale(0.015625)"/>
       </defs>
       <use xlink:href="#Menlo-Regular-30"/>
       <use xlink:href="#Menlo-Regular-2e" transform="translate(60.205078 0)"/>
       <use xlink:href="#Menlo-Regular-35" transform="translate(120.410156 0)"/>
      </g>
     </g>
    </g>
    <g id="ytick_2">
     <g id="line2d_5">
      <g>
       <use xlink:href="#md3b842946d" x="45.21" y="88.695056" style="fill: #1a1a1a; stroke: #1a1a1a"/>
      </g>
     </g>
     <g id="text_6">
      <!-- 1.0 -->
      <g style="fill: #1a1a1a" transform="translate(25.455156 92.127009) scale(0.09 -0.09)">
       <defs>
        <path id="Menlo-Regular-31" d="M 844 528 
L 1825 528 
L 1825 4053 
L 650 3488 
L 650 4094 
L 1819 4650 
L 2450 4650 
L 2450 528 
L 3419 528 
L 3419 0 
L 844 0 
L 844 528 
z
" transform="scale(0.015625)"/>
       </defs>
       <use xlink:href="#Menlo-Regular-31"/>
       <use xlink:href="#Menlo-Regular-2e" transform="translate(60.205078 0)"/>
       <use xlink:href="#Menlo-Regular-30" transform="translate(120.410156 0)"/>
      </g>
     </g>
    </g>
    <g id="ytick_3">
     <g id="line2d_6">
      <g>
       <use xlink:href="#md3b842946d" x="45.21" y="58.205039" style="fill: #1a1a1a; stroke: #1a1a1a"/>
      </g>
     </g>
     <g id="text_7">
      <!-- 1.5 -->
      <g style="fill: #1a1a1a" transform="translate(25.455156 61.636992) scale(0.09 -0.09)">
       <use xlink:href="#Menlo-Regular-31"/>
       <use xlink:href="#Menlo-Regular-2e" transform="translate(60.205078 0)"/>
       <use xlink:href="#Menlo-Regular-35" transform="translate(120.410156 0)"/>
      </g>
     </g>
    </g>
    <g id="text_8">
     <!-- loss -->
     <g style="fill: #1a1a1a" transform="translate(19.375469 98.130625) rotate(-90) scale(0.1 -0.1)">
      <defs>
       <path id="Menlo-Regular-6c" d="M 2247 1266 
Q 2247 878 2389 681 
Q 2531 484 2809 484 
L 3481 484 
L 3481 0 
L 2753 0 
Q 2238 0 1955 329 
Q 1672 659 1672 1266 
L 1672 4431 
L 750 4431 
L 750 4881 
L 2247 4881 
L 2247 1266 
z
" transform="scale(0.015625)"/>
       <path id="Menlo-Regular-73" d="M 3041 3378 
L 3041 2816 
Q 2794 2959 2544 3031 
Q 2294 3103 2034 3103 
Q 1644 3103 1451 2976 
Q 1259 2850 1259 2591 
Q 1259 2356 1403 2240 
Q 1547 2125 2119 2016 
L 2350 1972 
Q 2778 1891 2998 1647 
Q 3219 1403 3219 1013 
Q 3219 494 2850 201 
Q 2481 -91 1825 -91 
Q 1566 -91 1281 -36 
Q 997 19 666 128 
L 666 722 
Q 988 556 1281 473 
Q 1575 391 1838 391 
Q 2219 391 2428 545 
Q 2638 700 2638 978 
Q 2638 1378 1872 1531 
L 1847 1538 
L 1631 1581 
Q 1134 1678 906 1908 
Q 678 2138 678 2534 
Q 678 3038 1018 3311 
Q 1359 3584 1991 3584 
Q 2272 3584 2531 3532 
Q 2791 3481 3041 3378 
z
" transform="scale(0.015625)"/>
      </defs>
      <use xlink:href="#Menlo-Regular-6c"/>
      <use xlink:href="#Menlo-Regular-6f" transform="translate(60.205078 0)"/>
      <use xlink:href="#Menlo-Regular-73" transform="translate(120.410156 0)"/>
      <use xlink:href="#Menlo-Regular-73" transform="translate(180.615234 0)"/>
     </g>
    </g>
   </g>
   <g id="line2d_7">
    <path d="M 50.503182 35.203621 
L 52.663664 105.013966 
L 54.824147 119.91451 
L 56.984629 124.374333 
L 59.145111 126.345433 
L 61.305594 127.780987 
L 63.466076 128.788453 
L 65.626558 129.760555 
L 67.787041 130.516988 
L 69.947523 131.252146 
L 72.108006 130.996025 
L 74.268488 131.592328 
L 76.42897 131.991061 
L 78.589453 132.117871 
L 80.749935 132.608077 
L 82.910417 132.897979 
L 85.0709 133.670442 
L 87.231382 133.47246 
L 89.391865 133.564735 
L 91.552347 134.016367 
L 93.712829 133.950921 
L 95.873312 134.37122 
L 98.033794 134.790434 
L 100.194276 134.408902 
L 102.354759 134.890185 
L 104.515241 134.853999 
L 106.675724 135.235192 
L 108.836206 135.00495 
L 110.996688 135.284666 
L 113.157171 135.36704 
L 115.317653 135.366097 
L 117.478135 136.007218 
L 119.638618 135.918769 
L 121.7991 136.164204 
L 123.959583 136.065092 
L 126.120065 135.946505 
L 128.280547 136.076917 
L 130.44103 136.295078 
L 132.601512 136.431729 
L 134.761994 136.368285 
L 136.922477 136.692617 
L 139.082959 136.691891 
L 141.243442 136.913325 
L 143.403924 136.879901 
L 145.564406 136.770566 
L 147.724889 137.22856 
L 149.885371 137.096242 
L 152.045853 137.170565 
L 154.206336 137.113725 
L 156.366818 137.253094 
" clip-path="url(#pd526cf8d88)" style="fill: none; stroke: #c8102e; stroke-opacity: 0.8; stroke-width: 1.2; stroke-linejoin: miter"/>
   </g>
   <g id="line2d_8">
    <path d="M 50.503182 84.733611 
L 52.663664 115.422592 
L 54.824147 121.228637 
L 56.984629 123.740366 
L 59.145111 124.381937 
L 61.305594 125.760845 
L 63.466076 126.142876 
L 65.626558 126.616328 
L 67.787041 126.803226 
L 69.947523 127.126634 
L 72.108006 127.077866 
L 74.268488 127.643416 
L 76.42897 127.733331 
L 78.589453 127.670278 
L 80.749935 128.080202 
L 82.910417 127.92223 
L 85.0709 128.239289 
L 87.231382 128.09789 
L 89.391865 128.195799 
L 91.552347 128.022613 
L 93.712829 128.083045 
L 95.873312 128.17985 
L 98.033794 128.353192 
L 100.194276 128.500121 
L 102.354759 128.448435 
L 104.515241 128.410364 
L 106.675724 128.675696 
L 108.836206 128.439312 
L 110.996688 128.778882 
L 113.157171 128.647496 
L 115.317653 128.708265 
L 117.478135 128.933497 
L 119.638618 128.228691 
L 121.7991 128.385517 
L 123.959583 128.897104 
L 126.120065 128.516339 
L 128.280547 128.641169 
L 130.44103 128.891261 
L 132.601512 129.166185 
L 134.761994 129.39048 
L 136.922477 129.177693 
L 139.082959 129.241605 
L 141.243442 128.960311 
L 143.403924 128.764635 
L 145.564406 128.881436 
L 147.724889 129.211654 
L 149.885371 129.293156 
L 152.045853 129.328347 
L 154.206336 129.151916 
L 156.366818 129.47146 
" clip-path="url(#pd526cf8d88)" style="fill: none; stroke-dasharray: 3.7,1.6; stroke-dashoffset: 0; stroke: #c8102e; stroke-opacity: 0.6"/>
   </g>
   <g id="line2d_9">
    <path d="M 50.503182 35.733254 
L 52.663664 104.825301 
L 54.824147 119.926326 
L 56.984629 124.427351 
L 59.145111 126.309773 
L 61.305594 127.821743 
L 63.466076 128.793662 
L 65.626558 129.778671 
L 67.787041 130.540586 
L 69.947523 131.269017 
L 72.108006 131.041352 
L 74.268488 131.602798 
L 76.42897 132.017388 
L 78.589453 132.169767 
L 80.749935 132.637513 
L 82.910417 132.925402 
L 85.0709 133.706294 
L 87.231382 133.518608 
L 89.391865 133.589864 
L 91.552347 134.058202 
L 93.712829 133.973343 
L 95.873312 134.41214 
L 98.033794 134.810769 
L 100.194276 134.436623 
L 102.354759 134.949817 
L 104.515241 134.890493 
L 106.675724 135.292775 
L 108.836206 135.051856 
L 110.996688 135.318377 
L 113.157171 135.425823 
L 115.317653 135.401278 
L 117.478135 136.067071 
L 119.638618 135.986601 
L 121.7991 136.2082 
L 123.959583 136.109675 
L 126.120065 136.00998 
L 128.280547 136.122249 
L 130.44103 136.354485 
L 132.601512 136.497367 
L 134.761994 136.409353 
L 136.922477 136.7336 
L 139.082959 136.755088 
L 141.243442 136.987892 
L 143.403924 136.940786 
L 145.564406 136.847718 
L 147.724889 137.301619 
L 149.885371 137.145312 
L 152.045853 137.212325 
L 154.206336 137.157213 
L 156.366818 137.317273 
" clip-path="url(#pd526cf8d88)" style="fill: none; stroke: #c8102e; stroke-opacity: 0.8; stroke-width: 1.2; stroke-linejoin: miter"/>
   </g>
   <g id="line2d_10">
    <path d="M 50.503182 83.858851 
L 52.663664 115.289012 
L 54.824147 121.326789 
L 56.984629 123.793585 
L 59.145111 124.295467 
L 61.305594 125.707897 
L 63.466076 126.077883 
L 65.626558 126.658465 
L 67.787041 126.759559 
L 69.947523 127.059584 
L 72.108006 127.057972 
L 74.268488 127.633688 
L 76.42897 127.635559 
L 78.589453 127.58004 
L 80.749935 128.051385 
L 82.910417 127.871822 
L 85.0709 128.21202 
L 87.231382 128.016988 
L 89.391865 128.134223 
L 91.552347 127.922211 
L 93.712829 127.997782 
L 95.873312 128.136423 
L 98.033794 128.335165 
L 100.194276 128.449805 
L 102.354759 128.375768 
L 104.515241 128.255507 
L 106.675724 128.51655 
L 108.836206 128.340482 
L 110.996688 128.706429 
L 113.157171 128.577337 
L 115.317653 128.631555 
L 117.478135 128.842206 
L 119.638618 128.197771 
L 121.7991 128.337129 
L 123.959583 128.740892 
L 126.120065 128.413427 
L 128.280547 128.567354 
L 130.44103 128.718309 
L 132.601512 129.120249 
L 134.761994 129.279913 
L 136.922477 129.101596 
L 139.082959 129.092823 
L 141.243442 128.828873 
L 143.403924 128.628686 
L 145.564406 128.725936 
L 147.724889 129.037835 
L 149.885371 129.145128 
L 152.045853 129.158842 
L 154.206336 128.953536 
L 156.366818 129.319974 
" clip-path="url(#pd526cf8d88)" style="fill: none; stroke-dasharray: 3.7,1.6; stroke-dashoffset: 0; stroke: #c8102e; stroke-opacity: 0.6"/>
   </g>
   <g id="line2d_11">
    <path d="M 50.503182 34.862727 
L 52.663664 104.602102 
L 54.824147 119.764198 
L 56.984629 124.224394 
L 59.145111 126.165028 
L 61.305594 127.697579 
L 63.466076 128.675277 
L 65.626558 129.678364 
L 67.787041 130.409202 
L 69.947523 131.146644 
L 72.108006 130.912236 
L 74.268488 131.49836 
L 76.42897 131.924408 
L 78.589453 132.087402 
L 80.749935 132.560559 
L 82.910417 132.819674 
L 85.0709 133.58432 
L 87.231382 133.426768 
L 89.391865 133.512907 
L 91.552347 133.992347 
L 93.712829 133.905082 
L 95.873312 134.323881 
L 98.033794 134.733215 
L 100.194276 134.377071 
L 102.354759 134.884637 
L 104.515241 134.826342 
L 106.675724 135.217374 
L 108.836206 135.000229 
L 110.996688 135.263786 
L 113.157171 135.344336 
L 115.317653 135.354182 
L 117.478135 136.0153 
L 119.638618 135.940092 
L 121.7991 136.143403 
L 123.959583 136.058467 
L 126.120065 135.947251 
L 128.280547 136.058248 
L 130.44103 136.309521 
L 132.601512 136.453184 
L 134.761994 136.392506 
L 136.922477 136.699277 
L 139.082959 136.722712 
L 141.243442 136.894379 
L 143.403924 136.878932 
L 145.564406 136.799549 
L 147.724889 137.256289 
L 149.885371 137.118329 
L 152.045853 137.160729 
L 154.206336 137.117477 
L 156.366818 137.275345 
" clip-path="url(#pd526cf8d88)" style="fill: none; stroke: #c8102e; stroke-opacity: 0.8; stroke-width: 1.2; stroke-linejoin: miter"/>
   </g>
   <g id="line2d_12">
    <path d="M 50.503182 83.993683 
L 52.663664 115.388368 
L 54.824147 121.183315 
L 56.984629 123.792516 
L 59.145111 124.389815 
L 61.305594 125.778461 
L 63.466076 126.194669 
L 65.626558 126.707282 
L 67.787041 126.896489 
L 69.947523 127.236119 
L 72.108006 127.168766 
L 74.268488 127.765483 
L 76.42897 127.805985 
L 78.589453 127.74975 
L 80.749935 128.205035 
L 82.910417 128.036585 
L 85.0709 128.364954 
L 87.231382 128.195596 
L 89.391865 128.313833 
L 91.552347 128.101956 
L 93.712829 128.173375 
L 95.873312 128.346432 
L 98.033794 128.50518 
L 100.194276 128.655886 
L 102.354759 128.588272 
L 104.515241 128.443814 
L 106.675724 128.750853 
L 108.836206 128.588603 
L 110.996688 128.887215 
L 113.157171 128.780504 
L 115.317653 128.831109 
L 117.478135 129.043075 
L 119.638618 128.382934 
L 121.7991 128.543475 
L 123.959583 128.869437 
L 126.120065 128.526114 
L 128.280547 128.797021 
L 130.44103 128.909759 
L 132.601512 129.261674 
L 134.761994 129.390402 
L 136.922477 129.260894 
L 139.082959 129.281936 
L 141.243442 128.977367 
L 143.403924 128.844409 
L 145.564406 128.946667 
L 147.724889 129.252898 
L 149.885371 129.312434 
L 152.045853 129.320676 
L 154.206336 129.163688 
L 156.366818 129.513895 
" clip-path="url(#pd526cf8d88)" style="fill: none; stroke-dasharray: 3.7,1.6; stroke-dashoffset: 0; stroke: #c8102e; stroke-opacity: 0.6"/>
   </g>
   <g id="patch_3">
    <path d="M 45.21 142.44 
L 45.21 29.74 
" style="fill: none; stroke: #1a1a1a; stroke-width: 1.4; stroke-linejoin: miter; stroke-linecap: square"/>
   </g>
   <g id="patch_4">
    <path d="M 45.21 142.44 
L 161.66 142.44 
" style="fill: none; stroke: #1a1a1a; stroke-width: 1.4; stroke-linejoin: miter; stroke-linecap: square"/>
   </g>
   <g id="text_9">
    <!-- loss -->
    <g style="fill: #1a1a1a" transform="translate(45.21 19.74) scale(0.11 -0.11)">
     <use xlink:href="#Menlo-Regular-6c"/>
     <use xlink:href="#Menlo-Regular-6f" transform="translate(60.205078 0)"/>
     <use xlink:href="#Menlo-Regular-73" transform="translate(120.410156 0)"/>
     <use xlink:href="#Menlo-Regular-73" transform="translate(180.615234 0)"/>
    </g>
   </g>
   <g id="legend_1">
    <g id="line2d_13">
     <path d="M 100.368594 42.453906 
L 109.368594 42.453906 
L 118.368594 42.453906 
" style="fill: none; stroke: #c8102e; stroke-width: 2; stroke-linejoin: miter"/>
    </g>
    <g id="text_10">
     <!-- train -->
     <g style="fill: #1a1a1a" transform="translate(125.568594 45.603906) scale(0.09 -0.09)">
      <defs>
       <path id="Menlo-Regular-74" d="M 1919 4494 
L 1919 3500 
L 3225 3500 
L 3225 3053 
L 1919 3053 
L 1919 1153 
Q 1919 766 2066 612 
Q 2213 459 2578 459 
L 3225 459 
L 3225 0 
L 2522 0 
Q 1875 0 1609 259 
Q 1344 519 1344 1153 
L 1344 3053 
L 409 3053 
L 409 3500 
L 1344 3500 
L 1344 4494 
L 1919 4494 
z
" transform="scale(0.015625)"/>
       <path id="Menlo-Regular-72" d="M 3609 2778 
Q 3425 2922 3234 2987 
Q 3044 3053 2816 3053 
Q 2278 3053 1993 2715 
Q 1709 2378 1709 1741 
L 1709 0 
L 1131 0 
L 1131 3500 
L 1709 3500 
L 1709 2816 
Q 1853 3188 2151 3386 
Q 2450 3584 2859 3584 
Q 3072 3584 3256 3531 
Q 3441 3478 3609 3366 
L 3609 2778 
z
" transform="scale(0.015625)"/>
       <path id="Menlo-Regular-61" d="M 2194 1759 
L 2003 1759 
Q 1500 1759 1245 1582 
Q 991 1406 991 1056 
Q 991 741 1181 566 
Q 1372 391 1709 391 
Q 2184 391 2456 720 
Q 2728 1050 2731 1631 
L 2731 1759 
L 2194 1759 
z
M 3309 1997 
L 3309 0 
L 2731 0 
L 2731 519 
Q 2547 206 2267 57 
Q 1988 -91 1588 -91 
Q 1053 -91 734 211 
Q 416 513 416 1019 
Q 416 1603 808 1906 
Q 1200 2209 1959 2209 
L 2731 2209 
L 2731 2300 
Q 2728 2719 2518 2908 
Q 2309 3097 1850 3097 
Q 1556 3097 1256 3012 
Q 956 2928 672 2766 
L 672 3341 
Q 991 3463 1283 3523 
Q 1575 3584 1850 3584 
Q 2284 3584 2592 3456 
Q 2900 3328 3091 3072 
Q 3209 2916 3259 2686 
Q 3309 2456 3309 1997 
z
" transform="scale(0.015625)"/>
       <path id="Menlo-Regular-69" d="M 988 3488 
L 2459 3488 
L 2459 447 
L 3600 447 
L 3600 0 
L 744 0 
L 744 447 
L 1884 447 
L 1884 3041 
L 988 3041 
L 988 3488 
z
M 1884 4847 
L 2459 4847 
L 2459 4122 
L 1884 4122 
L 1884 4847 
z
" transform="scale(0.015625)"/>
       <path id="Menlo-Regular-6e" d="M 3284 2169 
L 3284 0 
L 2706 0 
L 2706 2169 
Q 2706 2641 2540 2862 
Q 2375 3084 2022 3084 
Q 1619 3084 1401 2798 
Q 1184 2513 1184 1978 
L 1184 0 
L 609 0 
L 609 3500 
L 1184 3500 
L 1184 2975 
Q 1338 3275 1600 3429 
Q 1863 3584 2222 3584 
Q 2756 3584 3020 3232 
Q 3284 2881 3284 2169 
z
" transform="scale(0.015625)"/>
      </defs>
      <use xlink:href="#Menlo-Regular-74"/>
      <use xlink:href="#Menlo-Regular-72" transform="translate(60.205078 0)"/>
      <use xlink:href="#Menlo-Regular-61" transform="translate(120.410156 0)"/>
      <use xlink:href="#Menlo-Regular-69" transform="translate(180.615234 0)"/>
      <use xlink:href="#Menlo-Regular-6e" transform="translate(240.820312 0)"/>
     </g>
    </g>
    <g id="line2d_14">
     <path d="M 100.368594 55.689531 
L 109.368594 55.689531 
L 118.368594 55.689531 
" style="fill: none; stroke-dasharray: 7.4,3.2; stroke-dashoffset: 0; stroke: #c8102e; stroke-width: 2"/>
    </g>
    <g id="text_11">
     <!-- test -->
     <g style="fill: #1a1a1a" transform="translate(125.568594 58.839531) scale(0.09 -0.09)">
      <use xlink:href="#Menlo-Regular-74"/>
      <use xlink:href="#Menlo-Regular-65" transform="translate(60.205078 0)"/>
      <use xlink:href="#Menlo-Regular-73" transform="translate(120.410156 0)"/>
      <use xlink:href="#Menlo-Regular-74" transform="translate(180.615234 0)"/>
     </g>
    </g>
   </g>
  </g>
  <g id="axes_2">
   <g id="patch_5">
    <path d="M 207.11 142.44 
L 323.56 142.44 
L 323.56 29.74 
L 207.11 29.74 
z
" style="fill: #ffffff"/>
   </g>
   <g id="matplotlib.axis_3">
    <g id="xtick_4">
     <g id="line2d_15">
      <g>
       <use xlink:href="#mc5bbc2babc" x="210.242699" y="142.44" style="fill: #1a1a1a; stroke: #1a1a1a"/>
      </g>
     </g>
     <g id="text_12">
      <!-- 0 -->
      <g style="fill: #1a1a1a" transform="translate(207.533559 152.803906) scale(0.09 -0.09)">
       <use xlink:href="#Menlo-Regular-30"/>
      </g>
     </g>
    </g>
    <g id="xtick_5">
     <g id="line2d_16">
      <g>
       <use xlink:href="#mc5bbc2babc" x="253.452347" y="142.44" style="fill: #1a1a1a; stroke: #1a1a1a"/>
      </g>
     </g>
     <g id="text_13">
      <!-- 20 -->
      <g style="fill: #1a1a1a" transform="translate(248.034066 152.803906) scale(0.09 -0.09)">
       <use xlink:href="#Menlo-Regular-32"/>
       <use xlink:href="#Menlo-Regular-30" transform="translate(60.205078 0)"/>
      </g>
     </g>
    </g>
    <g id="xtick_6">
     <g id="line2d_17">
      <g>
       <use xlink:href="#mc5bbc2babc" x="296.661994" y="142.44" style="fill: #1a1a1a; stroke: #1a1a1a"/>
      </g>
     </g>
     <g id="text_14">
      <!-- 40 -->
      <g style="fill: #1a1a1a" transform="translate(291.243713 152.803906) scale(0.09 -0.09)">
       <use xlink:href="#Menlo-Regular-34"/>
       <use xlink:href="#Menlo-Regular-30" transform="translate(60.205078 0)"/>
      </g>
     </g>
    </g>
    <g id="text_15">
     <!-- epoch -->
     <g style="fill: #1a1a1a" transform="translate(250.284219 166.302188) scale(0.1 -0.1)">
      <use xlink:href="#Menlo-Regular-65"/>
      <use xlink:href="#Menlo-Regular-70" transform="translate(60.205078 0)"/>
      <use xlink:href="#Menlo-Regular-6f" transform="translate(120.410156 0)"/>
      <use xlink:href="#Menlo-Regular-63" transform="translate(180.615234 0)"/>
      <use xlink:href="#Menlo-Regular-68" transform="translate(240.820312 0)"/>
     </g>
    </g>
   </g>
   <g id="matplotlib.axis_4">
    <g id="ytick_4">
     <g id="line2d_18">
      <g>
       <use xlink:href="#md3b842946d" x="207.11" y="142.44" style="fill: #1a1a1a; stroke: #1a1a1a"/>
      </g>
     </g>
     <g id="text_16">
      <!-- 0 -->
      <g style="fill: #1a1a1a" transform="translate(198.191719 145.871953) scale(0.09 -0.09)">
       <use xlink:href="#Menlo-Regular-30"/>
      </g>
     </g>
    </g>
    <g id="ytick_5">
     <g id="line2d_19">
      <g>
       <use xlink:href="#md3b842946d" x="207.11" y="119.9" style="fill: #1a1a1a; stroke: #1a1a1a"/>
      </g>
     </g>
     <g id="text_17">
      <!-- 20 -->
      <g style="fill: #1a1a1a" transform="translate(192.773438 123.331953) scale(0.09 -0.09)">
       <use xlink:href="#Menlo-Regular-32"/>
       <use xlink:href="#Menlo-Regular-30" transform="translate(60.205078 0)"/>
      </g>
     </g>
    </g>
    <g id="ytick_6">
     <g id="line2d_20">
      <g>
       <use xlink:href="#md3b842946d" x="207.11" y="97.36" style="fill: #1a1a1a; stroke: #1a1a1a"/>
      </g>
     </g>
     <g id="text_18">
      <!-- 40 -->
      <g style="fill: #1a1a1a" transform="translate(192.773438 100.791953) scale(0.09 -0.09)">
       <use xlink:href="#Menlo-Regular-34"/>
       <use xlink:href="#Menlo-Regular-30" transform="translate(60.205078 0)"/>
      </g>
     </g>
    </g>
    <g id="ytick_7">
     <g id="line2d_21">
      <g>
       <use xlink:href="#md3b842946d" x="207.11" y="74.82" style="fill: #1a1a1a; stroke: #1a1a1a"/>
      </g>
     </g>
     <g id="text_19">
      <!-- 60 -->
      <g style="fill: #1a1a1a" transform="translate(192.773438 78.251953) scale(0.09 -0.09)">
       <defs>
        <path id="Menlo-Regular-36" d="M 3097 4563 
L 3097 3981 
Q 2900 4097 2678 4158 
Q 2456 4219 2216 4219 
Q 1616 4219 1306 3767 
Q 997 3316 997 2438 
Q 1147 2750 1412 2917 
Q 1678 3084 2022 3084 
Q 2697 3084 3067 2670 
Q 3438 2256 3438 1497 
Q 3438 741 3056 325 
Q 2675 -91 1984 -91 
Q 1172 -91 794 492 
Q 416 1075 416 2328 
Q 416 3509 870 4129 
Q 1325 4750 2188 4750 
Q 2419 4750 2650 4701 
Q 2881 4653 3097 4563 
z
M 1972 2591 
Q 1569 2591 1337 2300 
Q 1106 2009 1106 1497 
Q 1106 984 1337 693 
Q 1569 403 1972 403 
Q 2391 403 2603 679 
Q 2816 956 2816 1497 
Q 2816 2041 2603 2316 
Q 2391 2591 1972 2591 
z
" transform="scale(0.015625)"/>
       </defs>
       <use xlink:href="#Menlo-Regular-36"/>
       <use xlink:href="#Menlo-Regular-30" transform="translate(60.205078 0)"/>
      </g>
     </g>
    </g>
    <g id="ytick_8">
     <g id="line2d_22">
      <g>
       <use xlink:href="#md3b842946d" x="207.11" y="52.28" style="fill: #1a1a1a; stroke: #1a1a1a"/>
      </g>
     </g>
     <g id="text_20">
      <!-- 80 -->
      <g style="fill: #1a1a1a" transform="translate(192.773438 55.711953) scale(0.09 -0.09)">
       <defs>
        <path id="Menlo-Regular-38" d="M 1925 2216 
Q 1503 2216 1273 1980 
Q 1044 1744 1044 1313 
Q 1044 881 1276 642 
Q 1509 403 1925 403 
Q 2350 403 2579 639 
Q 2809 875 2809 1313 
Q 2809 1741 2576 1978 
Q 2344 2216 1925 2216 
z
M 1375 2478 
Q 972 2581 745 2862 
Q 519 3144 519 3541 
Q 519 4097 897 4423 
Q 1275 4750 1925 4750 
Q 2578 4750 2956 4423 
Q 3334 4097 3334 3541 
Q 3334 3144 3107 2862 
Q 2881 2581 2478 2478 
Q 2947 2375 3195 2062 
Q 3444 1750 3444 1253 
Q 3444 622 3041 265 
Q 2638 -91 1925 -91 
Q 1213 -91 811 264 
Q 409 619 409 1247 
Q 409 1747 657 2061 
Q 906 2375 1375 2478 
z
M 1147 3481 
Q 1147 3106 1347 2909 
Q 1547 2713 1925 2713 
Q 2306 2713 2506 2909 
Q 2706 3106 2706 3481 
Q 2706 3863 2507 4063 
Q 2309 4263 1925 4263 
Q 1547 4263 1347 4061 
Q 1147 3859 1147 3481 
z
" transform="scale(0.015625)"/>
       </defs>
       <use xlink:href="#Menlo-Regular-38"/>
       <use xlink:href="#Menlo-Regular-30" transform="translate(60.205078 0)"/>
      </g>
     </g>
    </g>
    <g id="ytick_9">
     <g id="line2d_23">
      <g>
       <use xlink:href="#md3b842946d" x="207.11" y="29.74" style="fill: #1a1a1a; stroke: #1a1a1a"/>
      </g>
     </g>
     <g id="text_21">
      <!-- 100 -->
      <g style="fill: #1a1a1a" transform="translate(187.355156 33.171953) scale(0.09 -0.09)">
       <use xlink:href="#Menlo-Regular-31"/>
       <use xlink:href="#Menlo-Regular-30" transform="translate(60.205078 0)"/>
       <use xlink:href="#Menlo-Regular-30" transform="translate(120.410156 0)"/>
      </g>
     </g>
    </g>
    <g id="text_22">
     <!-- accuracy (%) -->
     <g style="fill: #1a1a1a" transform="translate(181.275469 122.211875) rotate(-90) scale(0.1 -0.1)">
      <defs>
       <path id="Menlo-Regular-75" d="M 609 1325 
L 609 3494 
L 1184 3494 
L 1184 1325 
Q 1184 853 1351 631 
Q 1519 409 1869 409 
Q 2275 409 2490 695 
Q 2706 981 2706 1516 
L 2706 3494 
L 3284 3494 
L 3284 0 
L 2706 0 
L 2706 525 
Q 2553 222 2289 65 
Q 2025 -91 1672 -91 
Q 1134 -91 871 261 
Q 609 613 609 1325 
z
" transform="scale(0.015625)"/>
       <path id="Menlo-Regular-79" d="M 2681 1125 
Q 2538 759 2316 163 
Q 2006 -663 1900 -844 
Q 1756 -1088 1540 -1209 
Q 1325 -1331 1038 -1331 
L 575 -1331 
L 575 -850 
L 916 -850 
Q 1169 -850 1312 -703 
Q 1456 -556 1678 56 
L 325 3500 
L 934 3500 
L 1972 763 
L 2994 3500 
L 3603 3500 
L 2681 1125 
z
" transform="scale(0.015625)"/>
       <path id="Menlo-Regular-20" transform="scale(0.015625)"/>
       <path id="Menlo-Regular-28" d="M 2672 5169 
Q 2256 4456 2051 3748 
Q 1847 3041 1847 2322 
Q 1847 1606 2051 897 
Q 2256 188 2672 -531 
L 2172 -531 
Q 1700 213 1469 917 
Q 1238 1622 1238 2322 
Q 1238 3019 1469 3725 
Q 1700 4431 2172 5169 
L 2672 5169 
z
" transform="scale(0.015625)"/>
       <path id="Menlo-Regular-25" d="M 2175 997 
Q 2175 753 2339 587 
Q 2503 422 2747 422 
Q 2988 422 3155 589 
Q 3322 756 3322 997 
Q 3322 1238 3153 1406 
Q 2984 1575 2747 1575 
Q 2503 1575 2339 1409 
Q 2175 1244 2175 997 
z
M 1753 997 
Q 1753 1419 2040 1708 
Q 2328 1997 2747 1997 
Q 2947 1997 3126 1922 
Q 3306 1847 3450 1703 
Q 3594 1556 3672 1375 
Q 3750 1194 3750 997 
Q 3750 581 3459 290 
Q 3169 0 2747 0 
Q 2322 0 2037 286 
Q 1753 572 1753 997 
z
M 259 1375 
L 122 1728 
L 3606 3122 
L 3763 2769 
L 259 1375 
z
M 525 3475 
Q 525 3228 689 3064 
Q 853 2900 1100 2900 
Q 1341 2900 1509 3067 
Q 1678 3234 1678 3475 
Q 1678 3716 1509 3883 
Q 1341 4050 1100 4050 
Q 859 4050 692 3884 
Q 525 3719 525 3475 
z
M 103 3475 
Q 103 3897 390 4186 
Q 678 4475 1100 4475 
Q 1300 4475 1483 4400 
Q 1666 4325 1806 4184 
Q 1947 4044 2023 3861 
Q 2100 3678 2100 3475 
Q 2100 3056 1809 2767 
Q 1519 2478 1100 2478 
Q 678 2478 390 2765 
Q 103 3053 103 3475 
z
" transform="scale(0.015625)"/>
       <path id="Menlo-Regular-29" d="M 1088 5169 
L 1588 5169 
Q 2059 4431 2290 3725 
Q 2522 3019 2522 2322 
Q 2522 1619 2290 912 
Q 2059 206 1588 -531 
L 1088 -531 
Q 1503 194 1708 903 
Q 1913 1613 1913 2322 
Q 1913 3034 1708 3743 
Q 1503 4453 1088 5169 
z
" transform="scale(0.015625)"/>
      </defs>
      <use xlink:href="#Menlo-Regular-61"/>
      <use xlink:href="#Menlo-Regular-63" transform="translate(60.205078 0)"/>
      <use xlink:href="#Menlo-Regular-63" transform="translate(120.410156 0)"/>
      <use xlink:href="#Menlo-Regular-75" transform="translate(180.615234 0)"/>
      <use xlink:href="#Menlo-Regular-72" transform="translate(240.820312 0)"/>
      <use xlink:href="#Menlo-Regular-61" transform="translate(301.025391 0)"/>
      <use xlink:href="#Menlo-Regular-63" transform="translate(361.230469 0)"/>
      <use xlink:href="#Menlo-Regular-79" transform="translate(421.435547 0)"/>
      <use xlink:href="#Menlo-Regular-20" transform="translate(481.640625 0)"/>
      <use xlink:href="#Menlo-Regular-28" transform="translate(541.845703 0)"/>
      <use xlink:href="#Menlo-Regular-25" transform="translate(602.050781 0)"/>
      <use xlink:href="#Menlo-Regular-29" transform="translate(662.255859 0)"/>
     </g>
    </g>
   </g>
   <g id="line2d_24">
    <path d="M 212.403182 59.6055 
L 214.563664 46.0815 
L 216.724147 44.874 
L 218.884629 42.7005 
L 221.045111 42.781 
L 223.205594 41.493 
L 225.366076 41.8955 
L 227.526558 41.7345 
L 229.687041 41.2515 
L 231.847523 41.332 
L 234.008006 41.493 
L 236.168488 41.0905 
L 238.32897 40.7685 
L 240.489453 41.493 
L 242.649935 41.171 
L 244.810417 41.0905 
L 246.9709 40.527 
L 249.131382 41.4125 
L 251.291865 41.0905 
L 253.452347 41.815 
L 255.612829 41.493 
L 257.773312 41.01 
L 259.933794 41.332 
L 262.094276 41.4125 
L 264.254759 41.332 
L 266.415241 41.654 
L 268.575724 41.0905 
L 270.736206 41.332 
L 272.896688 41.0905 
L 275.057171 41.2515 
L 277.217653 40.527 
L 279.378135 41.01 
L 281.538618 41.654 
L 283.6991 41.332 
L 285.859583 40.527 
L 288.020065 41.01 
L 290.180547 40.9295 
L 292.34103 41.2515 
L 294.501512 40.849 
L 296.661994 40.205 
L 298.822477 40.6075 
L 300.982959 40.527 
L 303.143442 40.849 
L 305.303924 41.01 
L 307.464406 40.849 
L 309.624889 40.849 
L 311.785371 40.527 
L 313.945853 40.6075 
L 316.106336 40.688 
L 318.266818 40.4465 
" clip-path="url(#p6869e4dcc1)" style="fill: none; stroke: #c8102e; stroke-opacity: 0.85; stroke-width: 1.2; stroke-linejoin: miter"/>
   </g>
   <g id="line2d_25">
    <path d="M 212.403182 62.8255 
L 214.563664 46.0815 
L 216.724147 44.391 
L 218.884629 42.5395 
L 221.045111 42.459 
L 223.205594 41.5735 
L 225.366076 42.2175 
L 227.526558 41.654 
L 229.687041 41.5735 
L 231.847523 41.171 
L 234.008006 41.815 
L 236.168488 41.332 
L 238.32897 41.01 
L 240.489453 41.4125 
L 242.649935 40.849 
L 244.810417 40.9295 
L 246.9709 40.849 
L 249.131382 41.4125 
L 251.291865 40.688 
L 253.452347 41.493 
L 255.612829 41.171 
L 257.773312 41.2515 
L 259.933794 41.0905 
L 262.094276 41.0905 
L 264.254759 41.5735 
L 266.415241 41.5735 
L 268.575724 41.0905 
L 270.736206 41.332 
L 272.896688 41.0905 
L 275.057171 41.654 
L 277.217653 40.4465 
L 279.378135 40.9295 
L 281.538618 41.5735 
L 283.6991 41.2515 
L 285.859583 41.0905 
L 288.020065 40.7685 
L 290.180547 41.01 
L 292.34103 41.171 
L 294.501512 40.9295 
L 296.661994 40.2855 
L 298.822477 40.527 
L 300.982959 40.849 
L 303.143442 40.7685 
L 305.303924 41.01 
L 307.464406 41.5735 
L 309.624889 40.849 
L 311.785371 40.6075 
L 313.945853 40.688 
L 316.106336 41.171 
L 318.266818 40.4465 
" clip-path="url(#p6869e4dcc1)" style="fill: none; stroke: #c8102e; stroke-opacity: 0.85; stroke-width: 1.2; stroke-linejoin: miter"/>
   </g>
   <g id="line2d_26">
    <path d="M 212.403182 60.33 
L 214.563664 46.2425 
L 216.724147 44.391 
L 218.884629 42.62 
L 221.045111 42.5395 
L 223.205594 41.4125 
L 225.366076 41.493 
L 227.526558 41.5735 
L 229.687041 41.01 
L 231.847523 41.4125 
L 234.008006 41.5735 
L 236.168488 41.01 
L 238.32897 40.688 
L 240.489453 41.4125 
L 242.649935 41.01 
L 244.810417 40.849 
L 246.9709 40.688 
L 249.131382 41.171 
L 251.291865 40.9295 
L 253.452347 41.4125 
L 255.612829 41.4125 
L 257.773312 41.01 
L 259.933794 40.688 
L 262.094276 41.0905 
L 264.254759 41.2515 
L 266.415241 40.9295 
L 268.575724 41.0905 
L 270.736206 41.2515 
L 272.896688 41.171 
L 275.057171 41.493 
L 277.217653 40.6075 
L 279.378135 40.4465 
L 281.538618 41.493 
L 283.6991 41.171 
L 285.859583 40.4465 
L 288.020065 41.2515 
L 290.180547 41.01 
L 292.34103 41.0905 
L 294.501512 40.527 
L 296.661994 40.1245 
L 298.822477 40.688 
L 300.982959 40.527 
L 303.143442 41.0905 
L 305.303924 40.9295 
L 307.464406 41.0905 
L 309.624889 40.7685 
L 311.785371 40.527 
L 313.945853 40.527 
L 316.106336 41.0905 
L 318.266818 40.2855 
" clip-path="url(#p6869e4dcc1)" style="fill: none; stroke: #c8102e; stroke-opacity: 0.85; stroke-width: 1.2; stroke-linejoin: miter"/>
   </g>
   <g id="patch_6">
    <path d="M 207.11 142.44 
L 207.11 29.74 
" style="fill: none; stroke: #1a1a1a; stroke-width: 1.4; stroke-linejoin: miter; stroke-linecap: square"/>
   </g>
   <g id="patch_7">
    <path d="M 207.11 142.44 
L 323.56 142.44 
" style="fill: none; stroke: #1a1a1a; stroke-width: 1.4; stroke-linejoin: miter; stroke-linecap: square"/>
   </g>
   <g id="text_23">
    <!-- test accuracy -->
    <g style="fill: #1a1a1a" transform="translate(207.11 19.74) scale(0.11 -0.11)">
     <use xlink:href="#Menlo-Regular-74"/>
     <use xlink:href="#Menlo-Regular-65" transform="translate(60.205078 0)"/>
     <use xlink:href="#Menlo-Regular-73" transform="translate(120.410156 0)"/>
     <use xlink:href="#Menlo-Regular-74" transform="translate(180.615234 0)"/>
     <use xlink:href="#Menlo-Regular-20" transform="translate(240.820312 0)"/>
     <use xlink:href="#Menlo-Regular-61" transform="translate(301.025391 0)"/>
     <use xlink:href="#Menlo-Regular-63" transform="translate(361.230469 0)"/>
     <use xlink:href="#Menlo-Regular-63" transform="translate(421.435547 0)"/>
     <use xlink:href="#Menlo-Regular-75" transform="translate(481.640625 0)"/>
     <use xlink:href="#Menlo-Regular-72" transform="translate(541.845703 0)"/>
     <use xlink:href="#Menlo-Regular-61" transform="translate(602.050781 0)"/>
     <use xlink:href="#Menlo-Regular-63" transform="translate(662.255859 0)"/>
     <use xlink:href="#Menlo-Regular-79" transform="translate(722.460938 0)"/>
    </g>
   </g>
  </g>
  <g id="axes_3">
   <g id="patch_8">
    <path d="M 369.01 142.44 
L 485.46 142.44 
L 485.46 29.74 
L 369.01 29.74 
z
" style="fill: #ffffff"/>
   </g>
   <g id="matplotlib.axis_5">
    <g id="xtick_7">
     <g id="line2d_27">
      <g>
       <use xlink:href="#mc5bbc2babc" x="372.142699" y="142.44" style="fill: #1a1a1a; stroke: #1a1a1a"/>
      </g>
     </g>
     <g id="text_24">
      <!-- 0 -->
      <g style="fill: #1a1a1a" transform="translate(369.433559 152.803906) scale(0.09 -0.09)">
       <use xlink:href="#Menlo-Regular-30"/>
      </g>
     </g>
    </g>
    <g id="xtick_8">
     <g id="line2d_28">
      <g>
       <use xlink:href="#mc5bbc2babc" x="415.352347" y="142.44" style="fill: #1a1a1a; stroke: #1a1a1a"/>
      </g>
     </g>
     <g id="text_25">
      <!-- 20 -->
      <g style="fill: #1a1a1a" transform="translate(409.934066 152.803906) scale(0.09 -0.09)">
       <use xlink:href="#Menlo-Regular-32"/>
       <use xlink:href="#Menlo-Regular-30" transform="translate(60.205078 0)"/>
      </g>
     </g>
    </g>
    <g id="xtick_9">
     <g id="line2d_29">
      <g>
       <use xlink:href="#mc5bbc2babc" x="458.561994" y="142.44" style="fill: #1a1a1a; stroke: #1a1a1a"/>
      </g>
     </g>
     <g id="text_26">
      <!-- 40 -->
      <g style="fill: #1a1a1a" transform="translate(453.143713 152.803906) scale(0.09 -0.09)">
       <use xlink:href="#Menlo-Regular-34"/>
       <use xlink:href="#Menlo-Regular-30" transform="translate(60.205078 0)"/>
      </g>
     </g>
    </g>
    <g id="text_27">
     <!-- epoch -->
     <g style="fill: #1a1a1a" transform="translate(412.184219 166.302188) scale(0.1 -0.1)">
      <use xlink:href="#Menlo-Regular-65"/>
      <use xlink:href="#Menlo-Regular-70" transform="translate(60.205078 0)"/>
      <use xlink:href="#Menlo-Regular-6f" transform="translate(120.410156 0)"/>
      <use xlink:href="#Menlo-Regular-63" transform="translate(180.615234 0)"/>
      <use xlink:href="#Menlo-Regular-68" transform="translate(240.820312 0)"/>
     </g>
    </g>
   </g>
   <g id="matplotlib.axis_6">
    <g id="ytick_10">
     <g id="line2d_30">
      <g>
       <use xlink:href="#md3b842946d" x="369.01" y="121.717633" style="fill: #1a1a1a; stroke: #1a1a1a"/>
      </g>
     </g>
     <g id="text_28">
      <!-- 60 -->
      <g style="fill: #1a1a1a" transform="translate(354.673437 125.149586) scale(0.09 -0.09)">
       <use xlink:href="#Menlo-Regular-36"/>
       <use xlink:href="#Menlo-Regular-30" transform="translate(60.205078 0)"/>
      </g>
     </g>
    </g>
    <g id="ytick_11">
     <g id="line2d_31">
      <g>
       <use xlink:href="#md3b842946d" x="369.01" y="100.899163" style="fill: #1a1a1a; stroke: #1a1a1a"/>
      </g>
     </g>
     <g id="text_29">
      <!-- 80 -->
      <g style="fill: #1a1a1a" transform="translate(354.673437 104.331116) scale(0.09 -0.09)">
       <use xlink:href="#Menlo-Regular-38"/>
       <use xlink:href="#Menlo-Regular-30" transform="translate(60.205078 0)"/>
      </g>
     </g>
    </g>
    <g id="ytick_12">
     <g id="line2d_32">
      <g>
       <use xlink:href="#md3b842946d" x="369.01" y="80.080692" style="fill: #1a1a1a; stroke: #1a1a1a"/>
      </g>
     </g>
     <g id="text_30">
      <!-- 100 -->
      <g style="fill: #1a1a1a" transform="translate(349.255156 83.512646) scale(0.09 -0.09)">
       <use xlink:href="#Menlo-Regular-31"/>
       <use xlink:href="#Menlo-Regular-30" transform="translate(60.205078 0)"/>
       <use xlink:href="#Menlo-Regular-30" transform="translate(120.410156 0)"/>
      </g>
     </g>
    </g>
    <g id="ytick_13">
     <g id="line2d_33">
      <g>
       <use xlink:href="#md3b842946d" x="369.01" y="59.262222" style="fill: #1a1a1a; stroke: #1a1a1a"/>
      </g>
     </g>
     <g id="text_31">
      <!-- 120 -->
      <g style="fill: #1a1a1a" transform="translate(349.255156 62.694175) scale(0.09 -0.09)">
       <use xlink:href="#Menlo-Regular-31"/>
       <use xlink:href="#Menlo-Regular-32" transform="translate(60.205078 0)"/>
       <use xlink:href="#Menlo-Regular-30" transform="translate(120.410156 0)"/>
      </g>
     </g>
    </g>
    <g id="ytick_14">
     <g id="line2d_34">
      <g>
       <use xlink:href="#md3b842946d" x="369.01" y="38.443752" style="fill: #1a1a1a; stroke: #1a1a1a"/>
      </g>
     </g>
     <g id="text_32">
      <!-- 140 -->
      <g style="fill: #1a1a1a" transform="translate(349.255156 41.875705) scale(0.09 -0.09)">
       <use xlink:href="#Menlo-Regular-31"/>
       <use xlink:href="#Menlo-Regular-34" transform="translate(60.205078 0)"/>
       <use xlink:href="#Menlo-Regular-30" transform="translate(120.410156 0)"/>
      </g>
     </g>
    </g>
    <g id="text_33">
     <!-- rate (Hz) -->
     <g style="fill: #1a1a1a" transform="translate(343.175469 113.181406) rotate(-90) scale(0.1 -0.1)">
      <defs>
       <path id="Menlo-Regular-48" d="M 428 4666 
L 1063 4666 
L 1063 2878 
L 2791 2878 
L 2791 4666 
L 3425 4666 
L 3425 0 
L 2791 0 
L 2791 2347 
L 1063 2347 
L 1063 0 
L 428 0 
L 428 4666 
z
" transform="scale(0.015625)"/>
       <path id="Menlo-Regular-7a" d="M 709 3506 
L 3250 3506 
L 3250 2981 
L 1241 469 
L 3250 469 
L 3250 0 
L 634 0 
L 634 531 
L 2644 3047 
L 709 3047 
L 709 3506 
z
" transform="scale(0.015625)"/>
      </defs>
      <use xlink:href="#Menlo-Regular-72"/>
      <use xlink:href="#Menlo-Regular-61" transform="translate(60.205078 0)"/>
      <use xlink:href="#Menlo-Regular-74" transform="translate(120.410156 0)"/>
      <use xlink:href="#Menlo-Regular-65" transform="translate(180.615234 0)"/>
      <use xlink:href="#Menlo-Regular-20" transform="translate(240.820312 0)"/>
      <use xlink:href="#Menlo-Regular-28" transform="translate(301.025391 0)"/>
      <use xlink:href="#Menlo-Regular-48" transform="translate(361.230469 0)"/>
      <use xlink:href="#Menlo-Regular-7a" transform="translate(421.435547 0)"/>
      <use xlink:href="#Menlo-Regular-29" transform="translate(481.640625 0)"/>
     </g>
    </g>
   </g>
   <g id="line2d_35">
    <path d="M 374.303182 137.230843 
L 376.463664 99.925225 
L 378.624147 89.491731 
L 380.784629 85.281756 
L 382.945111 82.455296 
L 385.105594 80.233204 
L 387.266076 78.495934 
L 389.426558 76.511383 
L 391.587041 74.636559 
L 393.747523 72.959541 
L 395.908006 71.43353 
L 398.068488 70.315863 
L 400.22897 69.065466 
L 402.389453 67.641475 
L 404.549935 66.668238 
L 406.710417 65.286494 
L 408.8709 64.291765 
L 411.031382 63.070415 
L 413.191865 61.572704 
L 415.352347 60.656995 
L 417.512829 59.507172 
L 419.673312 58.933441 
L 421.833794 57.725215 
L 423.994276 56.761624 
L 426.154759 55.69287 
L 428.315241 54.557177 
L 430.475724 53.530986 
L 432.636206 52.712957 
L 434.796688 51.762084 
L 436.957171 50.550935 
L 439.117653 49.622745 
L 441.278135 49.432037 
L 443.438618 48.35999 
L 445.5991 47.482197 
L 447.759583 46.619975 
L 449.920065 45.490675 
L 452.080547 44.735981 
L 454.24103 44.016091 
L 456.401512 43.155753 
L 458.561994 42.362946 
L 460.722477 41.803032 
L 462.882959 40.979885 
L 465.043442 39.993186 
L 467.203924 39.067827 
L 469.364406 38.65956 
L 471.524889 37.828136 
L 473.685371 36.971255 
L 475.845853 36.370828 
L 478.006336 35.584904 
L 480.166818 34.862727 
" clip-path="url(#p503cd11d96)" style="fill: none; stroke: #c8102e; stroke-opacity: 0.85; stroke-width: 1.2; stroke-linejoin: miter"/>
   </g>
   <g id="line2d_36">
    <path d="M 374.303182 136.375079 
L 376.463664 100.665863 
L 378.624147 90.166476 
L 380.784629 85.826331 
L 382.945111 82.829995 
L 385.105594 80.63898 
L 387.266076 78.889403 
L 389.426558 76.958928 
L 391.587041 75.112221 
L 393.747523 73.554376 
L 395.908006 72.024699 
L 398.068488 70.845789 
L 400.22897 69.605463 
L 402.389453 68.32266 
L 404.549935 67.403836 
L 406.710417 66.011293 
L 408.8709 65.007984 
L 411.031382 64.000719 
L 413.191865 62.578354 
L 415.352347 61.675471 
L 417.512829 60.61075 
L 419.673312 60.060058 
L 421.833794 58.901235 
L 423.994276 58.017583 
L 426.154759 57.021089 
L 428.315241 55.924467 
L 430.475724 54.842073 
L 432.636206 54.045751 
L 434.796688 53.168467 
L 436.957171 51.94223 
L 439.117653 51.049306 
L 441.278135 50.80636 
L 443.438618 49.71967 
L 445.5991 48.841373 
L 447.759583 48.048479 
L 449.920065 46.986865 
L 452.080547 46.208115 
L 454.24103 45.580616 
L 456.401512 44.86692 
L 458.561994 44.094545 
L 460.722477 43.520494 
L 462.882959 42.796338 
L 465.043442 41.789679 
L 467.203924 40.896424 
L 469.364406 40.499681 
L 471.524889 39.700894 
L 473.685371 38.832882 
L 475.845853 38.200871 
L 478.006336 37.467196 
L 480.166818 36.732008 
" clip-path="url(#p503cd11d96)" style="fill: none; stroke: #c8102e; stroke-opacity: 0.85; stroke-width: 1.2; stroke-linejoin: miter"/>
   </g>
   <g id="line2d_37">
    <path d="M 374.303182 137.317273 
L 376.463664 99.581795 
L 378.624147 89.161868 
L 380.784629 85.022407 
L 382.945111 82.291751 
L 385.105594 80.170706 
L 387.266076 78.408019 
L 389.426558 76.554383 
L 391.587041 74.710385 
L 393.747523 73.12917 
L 395.908006 71.528735 
L 398.068488 70.443408 
L 400.22897 69.129097 
L 402.389453 67.714846 
L 404.549935 66.816981 
L 406.710417 65.313523 
L 408.8709 64.33806 
L 411.031382 63.300825 
L 413.191865 61.717657 
L 415.352347 60.769314 
L 417.512829 59.604567 
L 419.673312 59.052211 
L 421.833794 57.79692 
L 423.994276 56.906218 
L 426.154759 55.824517 
L 428.315241 54.693213 
L 430.475724 53.714759 
L 432.636206 52.841348 
L 434.796688 51.870656 
L 436.957171 50.673271 
L 439.117653 49.745316 
L 441.278135 49.44026 
L 443.438618 48.252089 
L 445.5991 47.428288 
L 447.759583 46.656131 
L 449.920065 45.459646 
L 452.080547 44.760003 
L 454.24103 44.1208 
L 456.401512 43.271419 
L 458.561994 42.536939 
L 460.722477 41.901762 
L 462.882959 41.155225 
L 465.043442 40.157449 
L 467.203924 39.214766 
L 469.364406 38.781551 
L 471.524889 37.97331 
L 473.685371 37.135307 
L 475.845853 36.486945 
L 478.006336 35.766688 
L 480.166818 35.023048 
" clip-path="url(#p503cd11d96)" style="fill: none; stroke: #c8102e; stroke-opacity: 0.85; stroke-width: 1.2; stroke-linejoin: miter"/>
   </g>
   <g id="patch_9">
    <path d="M 369.01 142.44 
L 369.01 29.74 
" style="fill: none; stroke: #1a1a1a; stroke-width: 1.4; stroke-linejoin: miter; stroke-linecap: square"/>
   </g>
   <g id="patch_10">
    <path d="M 369.01 142.44 
L 485.46 142.44 
" style="fill: none; stroke: #1a1a1a; stroke-width: 1.4; stroke-linejoin: miter; stroke-linecap: square"/>
   </g>
   <g id="text_34">
    <!-- firing rate -->
    <g style="fill: #1a1a1a" transform="translate(369.01 19.74) scale(0.11 -0.11)">
     <defs>
      <path id="Menlo-Regular-66" d="M 3322 4863 
L 3322 4384 
L 2669 4384 
Q 2359 4384 2239 4257 
Q 2119 4131 2119 3809 
L 2119 3500 
L 3322 3500 
L 3322 3053 
L 2119 3053 
L 2119 0 
L 1544 0 
L 1544 3053 
L 609 3053 
L 609 3500 
L 1544 3500 
L 1544 3744 
Q 1544 4319 1808 4591 
Q 2072 4863 2631 4863 
L 3322 4863 
z
" transform="scale(0.015625)"/>
      <path id="Menlo-Regular-67" d="M 2681 1778 
Q 2681 2425 2470 2761 
Q 2259 3097 1856 3097 
Q 1434 3097 1212 2761 
Q 991 2425 991 1778 
Q 991 1131 1214 792 
Q 1438 453 1863 453 
Q 2259 453 2470 793 
Q 2681 1134 2681 1778 
z
M 3256 225 
Q 3256 -563 2884 -969 
Q 2513 -1375 1791 -1375 
Q 1553 -1375 1293 -1331 
Q 1034 -1288 775 -1203 
L 775 -634 
Q 1081 -778 1331 -847 
Q 1581 -916 1791 -916 
Q 2256 -916 2468 -662 
Q 2681 -409 2681 141 
L 2681 166 
L 2681 556 
Q 2544 263 2306 119 
Q 2069 -25 1728 -25 
Q 1116 -25 750 465 
Q 384 956 384 1778 
Q 384 2603 750 3093 
Q 1116 3584 1728 3584 
Q 2066 3584 2300 3450 
Q 2534 3316 2681 3034 
L 2681 3488 
L 3256 3488 
L 3256 225 
z
" transform="scale(0.015625)"/>
     </defs>
     <use xlink:href="#Menlo-Regular-66"/>
     <use xlink:href="#Menlo-Regular-69" transform="translate(60.205078 0)"/>
     <use xlink:href="#Menlo-Regular-72" transform="translate(120.410156 0)"/>
     <use xlink:href="#Menlo-Regular-69" transform="translate(180.615234 0)"/>
     <use xlink:href="#Menlo-Regular-6e" transform="translate(240.820312 0)"/>
     <use xlink:href="#Menlo-Regular-67" transform="translate(301.025391 0)"/>
     <use xlink:href="#Menlo-Regular-20" transform="translate(361.230469 0)"/>
     <use xlink:href="#Menlo-Regular-72" transform="translate(421.435547 0)"/>
     <use xlink:href="#Menlo-Regular-61" transform="translate(481.640625 0)"/>
     <use xlink:href="#Menlo-Regular-74" transform="translate(541.845703 0)"/>
     <use xlink:href="#Menlo-Regular-65" transform="translate(602.050781 0)"/>
    </g>
   </g>
  </g>
  <g id="text_35">
   <!-- r003 -->
   <g style="fill: #888888" transform="translate(475.051 177.43625) scale(0.08 -0.08)">
    <defs>
     <path id="Menlo-Regular-33" d="M 2425 2497 
Q 2884 2375 3128 2064 
Q 3372 1753 3372 1288 
Q 3372 644 2939 276 
Q 2506 -91 1741 -91 
Q 1419 -91 1084 -31 
Q 750 28 428 141 
L 428 769 
Q 747 603 1056 522 
Q 1366 441 1672 441 
Q 2191 441 2469 675 
Q 2747 909 2747 1350 
Q 2747 1756 2469 1995 
Q 2191 2234 1716 2234 
L 1234 2234 
L 1234 2753 
L 1716 2753 
Q 2150 2753 2394 2943 
Q 2638 3134 2638 3475 
Q 2638 3834 2411 4026 
Q 2184 4219 1766 4219 
Q 1488 4219 1191 4156 
Q 894 4094 569 3969 
L 569 4550 
Q 947 4650 1242 4700 
Q 1538 4750 1766 4750 
Q 2447 4750 2855 4408 
Q 3263 4066 3263 3500 
Q 3263 3116 3048 2859 
Q 2834 2603 2425 2497 
z
" transform="scale(0.015625)"/>
    </defs>
    <use xlink:href="#Menlo-Regular-72"/>
    <use xlink:href="#Menlo-Regular-30" transform="translate(60.205078 0)"/>
    <use xlink:href="#Menlo-Regular-30" transform="translate(120.410156 0)"/>
    <use xlink:href="#Menlo-Regular-33" transform="translate(180.615234 0)"/>
   </g>
  </g>
 </g>
 <defs>
  <clipPath id="pd526cf8d88">
   <rect x="45.21" y="29.74" width="116.45" height="112.7"/>
  </clipPath>
  <clipPath id="p6869e4dcc1">
   <rect x="207.11" y="29.74" width="116.45" height="112.7"/>
  </clipPath>
  <clipPath id="p503cd11d96">
   <rect x="369.01" y="29.74" width="116.45" height="112.7"/>
  </clipPath>
 </defs>
</svg>
