<?xml version="1.0" encoding="utf-8" standalone="no"?>
<!DOCTYPE svg PUBLIC "-//W3C//DTD SVG 1.1//EN"
  "http://www.w3.org/Graphics/SVG/1.1/DTD/svg11.dtd">
<svg xmlns:xlink="http://www.w3.org/1999/xlink" width="496.8pt" height="180pt" viewBox="0 0 496.8 180" xmlns="http://www.w3.org/2000/svg" version="1.1">
 <metadata>
  <rdf:RDF xmlns:dc="http://purl.org/dc/elements/1.1/" xmlns:cc="http://creativecommons.org/ns#" xmlns:rdf="http://www.w3.org/1999/02/22-rdf-syntax-ns#">
   <cc:Work>
    <dc:type rdf:resource="http://purl.org/dc/dcmitype/StillImage"/>
    <dc:date>2026-07-06T19:24:55.830671</dc:date>
    <dc:format>image/svg+xml</dc:format>
    <dc:creator>
     <cc:Agent>
      <dc:title>Matplotlib v3.10.8, https://matplotlib.org/</dc:title>
     </cc:Agent>
    </dc:creator>
   </cc:Work>
  </rdf:RDF>
 </metadata>
 <defs>
  <style type="text/css">*{stroke-linejoin: round; stroke-linecap: butt}</style>
 </defs>
 <g id="figure_1">
  <g id="patch_1">
   <path d="M 0 180 
L 496.8 180 
L 496.8 0 
L 0 0 
z
" style="fill: #ffffff"/>
  </g>
  <g id="axes_1">
   <g id="patch_2">
    <path d="M 45.21 142.44 
L 161.66 142.44 
L 161.66 29.74 
L 45.21 29.74 
z
" style="fill: #ffffff"/>
   </g>
   <g id="matplotlib.axis_1">
    <g id="xtick_1">
     <g id="line2d_1">
      <defs>
       <path id="m80e29120bd" d="M 0 0 
L 0 -4 
" style="stroke: #1a1a1a"/>
      </defs>
      <g>
       <use xlink:href="#m80e29120bd" x="48.342699" y="142.44" style="fill: #1a1a1a; stroke: #1a1a1a"/>
      </g>
     </g>
     <g id="text_1">
      <!-- 0 -->
      <g style="fill: #1a1a1a" transform="translate(45.633559 152.803906) scale(0.09 -0.09)">
       <defs>
        <path id="Menlo-Regular-30" d="M 1925 4734 
Q 2672 4734 3055 4125 
Q 3438 3516 3438 2322 
Q 3438 1128 3055 518 
Q 2672 -91 1925 -91 
Q 1178 -91 797 518 
Q 416 1128 416 2322 
Q 416 3516 797 4125 
Q 1178 4734 1925 4734 
z
M 1925 409 
Q 2369 409 2586 881 
Q 2803 1353 2803 2322 
Q 2803 2838 2741 3253 
L 1253 925 
Q 1488 409 1925 409 
z
M 1925 4234 
Q 1484 4234 1267 3762 
Q 1050 3291 1050 2322 
Q 1050 1881 1109 1497 
L 2566 3819 
Q 2328 4234 1925 4234 
z
" transform="scale(0.015625)"/>
       </defs>
       <use xlink:href="#Menlo-Regular-30"/>
      </g>
     </g>
    </g>
    <g id="xtick_2">
     <g id="line2d_2">
      <g>
       <use xlink:href="#m80e29120bd" x="91.552347" y="142.44" style="fill: #1a1a1a; stroke: #1a1a1a"/>
      </g>
     </g>
     <g id="text_2">
      <!-- 20 -->
      <g style="fill: #1a1a1a" transform="translate(86.134066 152.803906) scale(0.09 -0.09)">
       <defs>
        <path id="Menlo-Regular-32" d="M 1166 531 
L 3309 531 
L 3309 0 
L 475 0 
L 475 531 
Q 1059 1147 1496 1619 
Q 1934 2091 2100 2284 
Q 2413 2666 2522 2902 
Q 2631 3138 2631 3384 
Q 2631 3775 2401 3997 
Q 2172 4219 1772 4219 
Q 1488 4219 1175 4116 
Q 863 4013 513 3803 
L 513 4441 
Q 834 4594 1145 4672 
Q 1456 4750 1759 4750 
Q 2444 4750 2861 4386 
Q 3278 4022 3278 3431 
Q 3278 3131 3139 2831 
Q 3000 2531 2688 2169 
Q 2513 1966 2180 1606 
Q 1847 1247 1166 531 
z
" transform="scale(0.015625)"/>
       </defs>
       <use xlink:href="#Menlo-Regular-32"/>
       <use xlink:href="#Menlo-Regular-30" transform="translate(60.205078 0)"/>
      </g>
     </g>
    </g>
    <g id="xtick_3">
     <g id="line2d_3">
      <g>
       <use xlink:href="#m80e29120bd" x="134.761994" y="142.44" style="fill: #1a1a1a; stroke: #1a1a1a"/>
      </g>
     </g>
     <g id="text_3">
      <!-- 40 -->
      <g style="fill: #1a1a1a" transform="translate(129.343713 152.803906) scale(0.09 -0.09)">
       <defs>
        <path id="Menlo-Regular-34" d="M 2297 4091 
L 825 1625 
L 2297 1625 
L 2297 4091 
z
M 2194 4666 
L 2925 4666 
L 2925 1625 
L 3547 1625 
L 3547 1113 
L 2925 1113 
L 2925 0 
L 2297 0 
L 2297 1113 
L 319 1113 
L 319 1709 
L 2194 4666 
z
" transform="scale(0.015625)"/>
       </defs>
       <use xlink:href="#Menlo-Regular-34"/>
       <use xlink:href="#Menlo-Regular-30" transform="translate(60.205078 0)"/>
      </g>
     </g>
    </g>
    <g id="text_4">
     <!-- epoch -->
     <g style="fill: #1a1a1a" transform="translate(88.384219 166.302188) scale(0.1 -0.1)">
      <defs>
       <path id="Menlo-Regular-65" d="M 3500 2038 
L 3500 1756 
L 1009 1756 
L 1009 1738 
Q 984 1022 1282 709 
Q 1581 397 2125 397 
Q 2400 397 2700 484 
Q 3000 572 3341 750 
L 3341 178 
Q 3013 44 2708 -23 
Q 2403 -91 2119 -91 
Q 1303 -91 843 398 
Q 384 888 384 1747 
Q 384 2584 834 3084 
Q 1284 3584 2034 3584 
Q 2703 3584 3089 3131 
Q 3475 2678 3500 2038 
z
M 2925 2206 
Q 2888 2569 2661 2833 
Q 2434 3097 2009 3097 
Q 1594 3097 1325 2822 
Q 1056 2547 1031 2203 
L 2925 2206 
z
" transform="scale(0.015625)"/>
       <path id="Menlo-Regular-70" d="M 1172 441 
L 1172 -1331 
L 594 -1331 
L 594 3500 
L 1172 3500 
L 1172 3053 
Q 1316 3313 1555 3448 
Q 1794 3584 2106 3584 
Q 2741 3584 3102 3093 
Q 3463 2603 3463 1734 
Q 3463 881 3100 395 
Q 2738 -91 2106 -91 
Q 1788 -91 1548 45 
Q 1309 181 1172 441 
z
M 2859 1747 
Q 2859 2416 2648 2756 
Q 2438 3097 2022 3097 
Q 1603 3097 1387 2755 
Q 1172 2413 1172 1747 
Q 1172 1084 1387 740 
Q 1603 397 2022 397 
Q 2438 397 2648 737 
Q 2859 1078 2859 1747 
z
" transform="scale(0.015625)"/>
       <path id="Menlo-Regular-6f" d="M 1925 3097 
Q 1488 3097 1263 2756 
Q 1038 2416 1038 1747 
Q 1038 1081 1263 739 
Q 1488 397 1925 397 
Q 2366 397 2591 739 
Q 2816 1081 2816 1747 
Q 2816 2416 2591 2756 
Q 2366 3097 1925 3097 
z
M 1925 3584 
Q 2653 3584 3039 3112 
Q 3425 2641 3425 1747 
Q 3425 850 3040 379 
Q 2656 -91 1925 -91 
Q 1197 -91 812 379 
Q 428 850 428 1747 
Q 428 2641 812 3112 
Q 1197 3584 1925 3584 
z
" transform="scale(0.015625)"/>
       <path id="Menlo-Regular-63" d="M 3316 178 
Q 3084 44 2839 -23 
Q 2594 -91 2338 -91 
Q 1525 -91 1067 396 
Q 609 884 609 1747 
Q 609 2609 1067 3096 
Q 1525 3584 2338 3584 
Q 2591 3584 2831 3518 
Q 3072 3453 3316 3316 
L 3316 2713 
Q 3088 2916 2858 3006 
Q 2628 3097 2338 3097 
Q 1797 3097 1506 2747 
Q 1216 2397 1216 1747 
Q 1216 1100 1508 748 
Q 1800 397 2338 397 
Q 2638 397 2875 489 
Q 3113 581 3316 775 
L 3316 178 
z
" transform="scale(0.015625)"/>
       <path id="Menlo-Regular-68" d="M 3284 2169 
L 3284 0 
L 2706 0 
L 2706 2169 
Q 2706 2641 2540 2862 
Q 2375 3084 2022 3084 
Q 1619 3084 1401 2798 
Q 1184 2513 1184 1978 
L 1184 0 
L 609 0 
L 609 4863 
L 1184 4863 
L 1184 2975 
Q 1338 3275 1600 3429 
Q 1863 3584 2222 3584 
Q 2756 3584 3020 3232 
Q 3284 2881 3284 2169 
z
" transform="scale(0.015625)"/>
      </defs>
      <use xlink:href="#Menlo-Regular-65"/>
      <use xlink:href="#Menlo-Regular-70" transform="translate(60.205078 0)"/>
      <use xlink:href="#Menlo-Regular-6f" transform="translate(120.410156 0)"/>
      <use xlink:href="#Menlo-Regular-63" transform="translate(180.615234 0)"/>
      <use xlink:href="#Menlo-Regular-68" transform="translate(240.820312 0)"/>
     </g>
    </g>
   </g>
   <g id="matplotlib.axis_2">
    <g id="ytick_1">
     <g id="line2d_4">
      <defs>
       <path id="mea73332953" d="M 0 0 
L 4 0 
" style="stroke: #1a1a1a"/>
      </defs>
      <g>
       <use xlink:href="#mea73332953" x="45.21" y="129.71194" style="fill: #1a1a1a; stroke: #1a1a1a"/>
      </g>
     </g>
     <g id="text_5">
      <!-- 0.25 -->
      <g style="fill: #1a1a1a" transform="translate(20.036875 133.143893) scale(0.09 -0.09)">
       <defs>
        <path id="Menlo-Regular-2e" d="M 1216 1263 
L 2316 1263 
L 2316 0 
L 1216 0 
L 1216 1263 
z
" transform="scale(0.015625)"/>
        <path id="Menlo-Regular-35" d="M 647 4666 
L 3009 4666 
L 3009 4134 
L 1222 4134 
L 1222 2988 
Q 1356 3038 1492 3061 
Q 1628 3084 1766 3084 
Q 2491 3084 2916 2656 
Q 3341 2228 3341 1497 
Q 3341 759 2895 334 
Q 2450 -91 1678 -91 
Q 1306 -91 998 -41 
Q 691 9 447 109 
L 447 750 
Q 734 594 1025 517 
Q 1316 441 1619 441 
Q 2141 441 2423 716 
Q 2706 991 2706 1497 
Q 2706 1997 2414 2275 
Q 2122 2553 1600 2553 
Q 1347 2553 1106 2495 
Q 866 2438 647 2322 
L 647 4666 
z
" transform="scale(0.015625)"/>
       </defs>
       <use xlink:href="#Menlo-Regular-30"/>
       <use xlink:href="#Menlo-Regular-2e" transform="translate(60.205078 0)"/>
       <use xlink:href="#Menlo-Regular-32" transform="translate(120.410156 0)"/>
       <use xlink:href="#Menlo-Regular-35" transform="translate(180.615234 0)"/>
      </g>
     </g>
    </g>
    <g id="ytick_2">
     <g id="line2d_5">
      <g>
       <use xlink:href="#mea73332953" x="45.21" y="107.877943" style="fill: #1a1a1a; stroke: #1a1a1a"/>
      </g>
     </g>
     <g id="text_6">
      <!-- 0.50 -->
      <g style="fill: #1a1a1a" transform="translate(20.036875 111.309896) scale(0.09 -0.09)">
       <use xlink:href="#Menlo-Regular-30"/>
       <use xlink:href="#Menlo-Regular-2e" transform="translate(60.205078 0)"/>
       <use xlink:href="#Menlo-Regular-35" transform="translate(120.410156 0)"/>
       <use xlink:href="#Menlo-Regular-30" transform="translate(180.615234 0)"/>
      </g>
     </g>
    </g>
    <g id="ytick_3">
     <g id="line2d_6">
      <g>
       <use xlink:href="#mea73332953" x="45.21" y="86.043946" style="fill: #1a1a1a; stroke: #1a1a1a"/>
      </g>
     </g>
     <g id="text_7">
      <!-- 0.75 -->
      <g style="fill: #1a1a1a" transform="translate(20.036875 89.475899) scale(0.09 -0.09)">
       <defs>
        <path id="Menlo-Regular-37" d="M 434 4666 
L 3372 4666 
L 3372 4397 
L 1703 0 
L 1044 0 
L 2669 4134 
L 434 4134 
L 434 4666 
z
" transform="scale(0.015625)"/>
       </defs>
       <use xlink:href="#Menlo-Regular-30"/>
       <use xlink:href="#Menlo-Regular-2e" transform="translate(60.205078 0)"/>
       <use xlink:href="#Menlo-Regular-37" transform="translate(120.410156 0)"/>
       <use xlink:href="#Menlo-Regular-35" transform="translate(180.615234 0)"/>
      </g>
     </g>
    </g>
    <g id="ytick_4">
     <g id="line2d_7">
      <g>
       <use xlink:href="#mea73332953" x="45.21" y="64.209949" style="fill: #1a1a1a; stroke: #1a1a1a"/>
      </g>
     </g>
     <g id="text_8">
      <!-- 1.00 -->
      <g style="fill: #1a1a1a" transform="translate(20.036875 67.641902) scale(0.09 -0.09)">
       <defs>
        <path id="Menlo-Regular-31" d="M 844 528 
L 1825 528 
L 1825 4053 
L 650 3488 
L 650 4094 
L 1819 4650 
L 2450 4650 
L 2450 528 
L 3419 528 
L 3419 0 
L 844 0 
L 844 528 
z
" transform="scale(0.015625)"/>
       </defs>
       <use xlink:href="#Menlo-Regular-31"/>
       <use xlink:href="#Menlo-Regular-2e" transform="translate(60.205078 0)"/>
       <use xlink:href="#Menlo-Regular-30" transform="translate(120.410156 0)"/>
       <use xlink:href="#Menlo-Regular-30" transform="translate(180.615234 0)"/>
      </g>
     </g>
    </g>
    <g id="ytick_5">
     <g id="line2d_8">
      <g>
       <use xlink:href="#mea73332953" x="45.21" y="42.375952" style="fill: #1a1a1a; stroke: #1a1a1a"/>
      </g>
     </g>
     <g id="text_9">
      <!-- 1.25 -->
      <g style="fill: #1a1a1a" transform="translate(20.036875 45.807905) scale(0.09 -0.09)">
       <use xlink:href="#Menlo-Regular-31"/>
       <use xlink:href="#Menlo-Regular-2e" transform="translate(60.205078 0)"/>
       <use xlink:href="#Menlo-Regular-32" transform="translate(120.410156 0)"/>
       <use xlink:href="#Menlo-Regular-35" transform="translate(180.615234 0)"/>
      </g>
     </g>
    </g>
    <g id="text_10">
     <!-- loss -->
     <g style="fill: #1a1a1a" transform="translate(13.957188 98.130625) rotate(-90) scale(0.1 -0.1)">
      <defs>
       <path id="Menlo-Regular-6c" d="M 2247 1266 
Q 2247 878 2389 681 
Q 2531 484 2809 484 
L 3481 484 
L 3481 0 
L 2753 0 
Q 2238 0 1955 329 
Q 1672 659 1672 1266 
L 1672 4431 
L 750 4431 
L 750 4881 
L 2247 4881 
L 2247 1266 
z
" transform="scale(0.015625)"/>
       <path id="Menlo-Regular-73" d="M 3041 3378 
L 3041 2816 
Q 2794 2959 2544 3031 
Q 2294 3103 2034 3103 
Q 1644 3103 1451 2976 
Q 1259 2850 1259 2591 
Q 1259 2356 1403 2240 
Q 1547 2125 2119 2016 
L 2350 1972 
Q 2778 1891 2998 1647 
Q 3219 1403 3219 1013 
Q 3219 494 2850 201 
Q 2481 -91 1825 -91 
Q 1566 -91 1281 -36 
Q 997 19 666 128 
L 666 722 
Q 988 556 1281 473 
Q 1575 391 1838 391 
Q 2219 391 2428 545 
Q 2638 700 2638 978 
Q 2638 1378 1872 1531 
L 1847 1538 
L 1631 1581 
Q 1134 1678 906 1908 
Q 678 2138 678 2534 
Q 678 3038 1018 3311 
Q 1359 3584 1991 3584 
Q 2272 3584 2531 3532 
Q 2791 3481 3041 3378 
z
" transform="scale(0.015625)"/>
      </defs>
      <use xlink:href="#Menlo-Regular-6c"/>
      <use xlink:href="#Menlo-Regular-6f" transform="translate(60.205078 0)"/>
      <use xlink:href="#Menlo-Regular-73" transform="translate(120.410156 0)"/>
      <use xlink:href="#Menlo-Regular-73" transform="translate(180.615234 0)"/>
     </g>
    </g>
   </g>
   <g id="line2d_9">
    <path d="M 50.503182 37.132461 
L 52.663664 105.045087 
L 54.824147 114.272463 
L 56.984629 118.871181 
L 59.145111 121.691408 
L 61.305594 123.545142 
L 63.466076 124.652873 
L 65.626558 126.137702 
L 67.787041 126.985519 
L 69.947523 128.411894 
L 72.108006 128.970501 
L 74.268488 128.909303 
L 76.42897 129.441291 
L 78.589453 129.948548 
L 80.749935 130.673392 
L 82.910417 130.667288 
L 85.0709 131.992529 
L 87.231382 131.163699 
L 89.391865 132.194734 
L 91.552347 132.418515 
L 93.712829 132.630277 
L 95.873312 132.674626 
L 98.033794 133.981957 
L 100.194276 133.799132 
L 102.354759 133.294533 
L 104.515241 134.366429 
L 106.675724 134.342631 
L 108.836206 134.350942 
L 110.996688 134.819802 
L 113.157171 134.368762 
L 115.317653 134.960972 
L 117.478135 134.775702 
L 119.638618 134.905534 
L 121.7991 134.923293 
L 123.959583 135.52458 
L 126.120065 135.272581 
L 128.280547 135.212225 
L 130.44103 135.553741 
L 132.601512 135.715788 
L 134.761994 135.405222 
L 136.922477 136.073797 
L 139.082959 136.661374 
L 141.243442 136.278172 
L 143.403924 136.369813 
L 145.564406 136.140303 
L 147.724889 136.918095 
L 149.885371 136.460607 
L 152.045853 136.691367 
L 154.206336 136.474398 
L 156.366818 136.304225 
" clip-path="url(#p0e2b2a16f6)" style="fill: none; stroke: #1a1a1a; stroke-opacity: 0.8; stroke-width: 1.2; stroke-linejoin: miter"/>
   </g>
   <g id="line2d_10">
    <path d="M 50.503182 91.083132 
L 52.663664 109.810735 
L 54.824147 114.300091 
L 56.984629 116.524142 
L 59.145111 118.12337 
L 61.305594 119.577451 
L 63.466076 120.199329 
L 65.626558 120.629503 
L 67.787041 120.514439 
L 69.947523 121.646069 
L 72.108006 121.370963 
L 74.268488 121.875865 
L 76.42897 122.409605 
L 78.589453 122.220476 
L 80.749935 122.218483 
L 82.910417 122.379563 
L 85.0709 122.454568 
L 87.231382 122.751502 
L 89.391865 122.634866 
L 91.552347 122.644813 
L 93.712829 121.824611 
L 95.873312 123.591551 
L 98.033794 123.223873 
L 100.194276 122.928447 
L 102.354759 124.347963 
L 104.515241 124.322467 
L 106.675724 124.436214 
L 108.836206 123.647143 
L 110.996688 123.711088 
L 113.157171 124.410005 
L 115.317653 124.224684 
L 117.478135 124.638845 
L 119.638618 123.468482 
L 121.7991 124.575053 
L 123.959583 124.749842 
L 126.120065 123.528893 
L 128.280547 124.338542 
L 130.44103 125.079125 
L 132.601512 124.875997 
L 134.761994 124.917364 
L 136.922477 124.9623 
L 139.082959 125.052706 
L 141.243442 124.974236 
L 143.403924 124.574708 
L 145.564406 124.413088 
L 147.724889 125.403388 
L 149.885371 124.907446 
L 152.045853 125.085223 
L 154.206336 125.121357 
L 156.366818 125.697044 
" clip-path="url(#p0e2b2a16f6)" style="fill: none; stroke-dasharray: 3.7,1.6; stroke-dashoffset: 0; stroke: #1a1a1a; stroke-opacity: 0.6"/>
   </g>
   <g id="line2d_11">
    <path d="M 50.503182 34.936365 
L 52.663664 103.249256 
L 54.824147 113.976731 
L 56.984629 118.905792 
L 59.145111 121.410755 
L 61.305594 123.320535 
L 63.466076 124.863181 
L 65.626558 125.89322 
L 67.787041 127.208226 
L 69.947523 128.465968 
L 72.108006 128.797929 
L 74.268488 129.035736 
L 76.42897 129.674178 
L 78.589453 130.243449 
L 80.749935 131.047953 
L 82.910417 130.853852 
L 85.0709 132.404298 
L 87.231382 131.430262 
L 89.391865 132.396889 
L 91.552347 132.42744 
L 93.712829 132.769272 
L 95.873312 132.72369 
L 98.033794 134.187831 
L 100.194276 133.959052 
L 102.354759 133.196851 
L 104.515241 134.423486 
L 106.675724 134.333037 
L 108.836206 134.519988 
L 110.996688 135.235981 
L 113.157171 134.638831 
L 115.317653 134.931491 
L 117.478135 135.421949 
L 119.638618 135.212182 
L 121.7991 135.049939 
L 123.959583 135.66659 
L 126.120065 135.589006 
L 128.280547 135.141788 
L 130.44103 135.874125 
L 132.601512 135.605527 
L 134.761994 136.110171 
L 136.922477 136.467871 
L 139.082959 136.894938 
L 141.243442 136.729232 
L 143.403924 136.611343 
L 145.564406 136.813789 
L 147.724889 137.087486 
L 149.885371 136.94103 
L 152.045853 137.317273 
L 154.206336 136.414977 
L 156.366818 136.577573 
" clip-path="url(#p0e2b2a16f6)" style="fill: none; stroke: #1a1a1a; stroke-opacity: 0.8; stroke-width: 1.2; stroke-linejoin: miter"/>
   </g>
   <g id="line2d_12">
    <path d="M 50.503182 89.240494 
L 52.663664 109.016623 
L 54.824147 113.853671 
L 56.984629 116.807975 
L 59.145111 118.145926 
L 61.305594 119.034954 
L 63.466076 119.407153 
L 65.626558 120.180234 
L 67.787041 120.501955 
L 69.947523 121.340114 
L 72.108006 122.034392 
L 74.268488 121.794892 
L 76.42897 122.374964 
L 78.589453 122.346008 
L 80.749935 122.496501 
L 82.910417 121.850522 
L 85.0709 123.951066 
L 87.231382 122.93515 
L 89.391865 122.43211 
L 91.552347 123.200283 
L 93.712829 122.408447 
L 95.873312 123.281738 
L 98.033794 123.271205 
L 100.194276 123.773805 
L 102.354759 123.848639 
L 104.515241 124.368128 
L 106.675724 124.026224 
L 108.836206 123.703533 
L 110.996688 124.922496 
L 113.157171 123.787266 
L 115.317653 125.152254 
L 117.478135 125.062109 
L 119.638618 123.984968 
L 121.7991 124.965592 
L 123.959583 124.976355 
L 126.120065 124.506984 
L 128.280547 124.539554 
L 130.44103 125.098205 
L 132.601512 124.869543 
L 134.761994 124.738534 
L 136.922477 124.695494 
L 139.082959 124.592175 
L 141.243442 124.893911 
L 143.403924 125.064908 
L 145.564406 124.564164 
L 147.724889 125.585591 
L 149.885371 125.37309 
L 152.045853 124.963256 
L 154.206336 125.013387 
L 156.366818 125.143027 
" clip-path="url(#p0e2b2a16f6)" style="fill: none; stroke-dasharray: 3.7,1.6; stroke-dashoffset: 0; stroke: #1a1a1a; stroke-opacity: 0.6"/>
   </g>
   <g id="line2d_13">
    <path d="M 50.503182 34.862727 
L 52.663664 103.928821 
L 54.824147 114.13871 
L 56.984629 118.63554 
L 59.145111 121.479538 
L 61.305594 123.332846 
L 63.466076 125.206733 
L 65.626558 126.217093 
L 67.787041 127.299351 
L 69.947523 128.245513 
L 72.108006 129.016203 
L 74.268488 129.047426 
L 76.42897 129.399567 
L 78.589453 129.940248 
L 80.749935 130.929415 
L 82.910417 130.788552 
L 85.0709 131.945081 
L 87.231382 131.231763 
L 89.391865 132.315944 
L 91.552347 132.574273 
L 93.712829 132.664035 
L 95.873312 132.693842 
L 98.033794 134.181362 
L 100.194276 133.690682 
L 102.354759 133.143679 
L 104.515241 134.536789 
L 106.675724 134.19354 
L 108.836206 134.35495 
L 110.996688 135.140902 
L 113.157171 134.446068 
L 115.317653 134.624522 
L 117.478135 134.924798 
L 119.638618 135.056987 
L 121.7991 135.116966 
L 123.959583 135.542843 
L 126.120065 135.496811 
L 128.280547 135.262998 
L 130.44103 135.571203 
L 132.601512 135.764451 
L 134.761994 135.831326 
L 136.922477 136.273124 
L 139.082959 136.786755 
L 141.243442 136.338626 
L 143.403924 136.288828 
L 145.564406 136.013125 
L 147.724889 137.064304 
L 149.885371 136.881067 
L 152.045853 136.882859 
L 154.206336 136.093581 
L 156.366818 136.5955 
" clip-path="url(#p0e2b2a16f6)" style="fill: none; stroke: #1a1a1a; stroke-opacity: 0.8; stroke-width: 1.2; stroke-linejoin: miter"/>
   </g>
   <g id="line2d_14">
    <path d="M 50.503182 90.294561 
L 52.663664 108.832868 
L 54.824147 114.30435 
L 56.984629 116.697796 
L 59.145111 117.867302 
L 61.305594 119.165349 
L 63.466076 119.850954 
L 65.626558 120.415405 
L 67.787041 120.749244 
L 69.947523 121.216352 
L 72.108006 121.391028 
L 74.268488 122.422134 
L 76.42897 122.248769 
L 78.589453 123.45418 
L 80.749935 123.388115 
L 82.910417 122.476242 
L 85.0709 123.27389 
L 87.231382 122.765294 
L 89.391865 123.353318 
L 91.552347 123.156757 
L 93.712829 122.714227 
L 95.873312 122.835613 
L 98.033794 122.932537 
L 100.194276 123.908871 
L 102.354759 124.142192 
L 104.515241 124.678462 
L 106.675724 125.276825 
L 108.836206 124.796271 
L 110.996688 125.322984 
L 113.157171 124.654278 
L 115.317653 124.78151 
L 117.478135 125.178925 
L 119.638618 123.768063 
L 121.7991 124.542169 
L 123.959583 125.472548 
L 126.120065 125.236976 
L 128.280547 124.607973 
L 130.44103 125.283429 
L 132.601512 125.746214 
L 134.761994 125.390628 
L 136.922477 124.942747 
L 139.082959 124.482059 
L 141.243442 124.197863 
L 143.403924 125.022714 
L 145.564406 125.165339 
L 147.724889 125.609134 
L 149.885371 125.457618 
L 152.045853 125.426429 
L 154.206336 125.212998 
L 156.366818 125.273085 
" clip-path="url(#p0e2b2a16f6)" style="fill: none; stroke-dasharray: 3.7,1.6; stroke-dashoffset: 0; stroke: #1a1a1a; stroke-opacity: 0.6"/>
   </g>
   <g id="patch_3">
    <path d="M 45.21 142.44 
L 45.21 29.74 
" style="fill: none; stroke: #1a1a1a; stroke-width: 1.4; stroke-linejoin: miter; stroke-linecap: square"/>
   </g>
   <g id="patch_4">
    <path d="M 45.21 142.44 
L 161.66 142.44 
" style="fill: none; stroke: #1a1a1a; stroke-width: 1.4; stroke-linejoin: miter; stroke-linecap: square"/>
   </g>
   <g id="text_11">
    <!-- loss -->
    <g style="fill: #1a1a1a" transform="translate(45.21 19.74) scale(0.11 -0.11)">
     <use xlink:href="#Menlo-Regular-6c"/>
     <use xlink:href="#Menlo-Regular-6f" transform="translate(60.205078 0)"/>
     <use xlink:href="#Menlo-Regular-73" transform="translate(120.410156 0)"/>
     <use xlink:href="#Menlo-Regular-73" transform="translate(180.615234 0)"/>
    </g>
   </g>
   <g id="legend_1">
    <g id="line2d_15">
     <path d="M 100.368594 42.453906 
L 109.368594 42.453906 
L 118.368594 42.453906 
" style="fill: none; stroke: #1a1a1a; stroke-width: 2; stroke-linejoin: miter"/>
    </g>
    <g id="text_12">
     <!-- train -->
     <g style="fill: #1a1a1a" transform="translate(125.568594 45.603906) scale(0.09 -0.09)">
      <defs>
       <path id="Menlo-Regular-74" d="M 1919 4494 
L 1919 3500 
L 3225 3500 
L 3225 3053 
L 1919 3053 
L 1919 1153 
Q 1919 766 2066 612 
Q 2213 459 2578 459 
L 3225 459 
L 3225 0 
L 2522 0 
Q 1875 0 1609 259 
Q 1344 519 1344 1153 
L 1344 3053 
L 409 3053 
L 409 3500 
L 1344 3500 
L 1344 4494 
L 1919 4494 
z
" transform="scale(0.015625)"/>
       <path id="Menlo-Regular-72" d="M 3609 2778 
Q 3425 2922 3234 2987 
Q 3044 3053 2816 3053 
Q 2278 3053 1993 2715 
Q 1709 2378 1709 1741 
L 1709 0 
L 1131 0 
L 1131 3500 
L 1709 3500 
L 1709 2816 
Q 1853 3188 2151 3386 
Q 2450 3584 2859 3584 
Q 3072 3584 3256 3531 
Q 3441 3478 3609 3366 
L 3609 2778 
z
" transform="scale(0.015625)"/>
       <path id="Menlo-Regular-61" d="M 2194 1759 
L 2003 1759 
Q 1500 1759 1245 1582 
Q 991 1406 991 1056 
Q 991 741 1181 566 
Q 1372 391 1709 391 
Q 2184 391 2456 720 
Q 2728 1050 2731 1631 
L 2731 1759 
L 2194 1759 
z
M 3309 1997 
L 3309 0 
L 2731 0 
L 2731 519 
Q 2547 206 2267 57 
Q 1988 -91 1588 -91 
Q 1053 -91 734 211 
Q 416 513 416 1019 
Q 416 1603 808 1906 
Q 1200 2209 1959 2209 
L 2731 2209 
L 2731 2300 
Q 2728 2719 2518 2908 
Q 2309 3097 1850 3097 
Q 1556 3097 1256 3012 
Q 956 2928 672 2766 
L 672 3341 
Q 991 3463 1283 3523 
Q 1575 3584 1850 3584 
Q 2284 3584 2592 3456 
Q 2900 3328 3091 3072 
Q 3209 2916 3259 2686 
Q 3309 2456 3309 1997 
z
" transform="scale(0.015625)"/>
       <path id="Menlo-Regular-69" d="M 988 3488 
L 2459 3488 
L 2459 447 
L 3600 447 
L 3600 0 
L 744 0 
L 744 447 
L 1884 447 
L 1884 3041 
L 988 3041 
L 988 3488 
z
M 1884 4847 
L 2459 4847 
L 2459 4122 
L 1884 4122 
L 1884 4847 
z
" transform="scale(0.015625)"/>
       <path id="Menlo-Regular-6e" d="M 3284 2169 
L 3284 0 
L 2706 0 
L 2706 2169 
Q 2706 2641 2540 2862 
Q 2375 3084 2022 3084 
Q 1619 3084 1401 2798 
Q 1184 2513 1184 1978 
L 1184 0 
L 609 0 
L 609 3500 
L 1184 3500 
L 1184 2975 
Q 1338 3275 1600 3429 
Q 1863 3584 2222 3584 
Q 2756 3584 3020 3232 
Q 3284 2881 3284 2169 
z
" transform="scale(0.015625)"/>
      </defs>
      <use xlink:href="#Menlo-Regular-74"/>
      <use xlink:href="#Menlo-Regular-72" transform="translate(60.205078 0)"/>
      <use xlink:href="#Menlo-Regular-61" transform="translate(120.410156 0)"/>
      <use xlink:href="#Menlo-Regular-69" transform="translate(180.615234 0)"/>
      <use xlink:href="#Menlo-Regular-6e" transform="translate(240.820312 0)"/>
     </g>
    </g>
    <g id="line2d_16">
     <path d="M 100.368594 55.689531 
L 109.368594 55.689531 
L 118.368594 55.689531 
" style="fill: none; stroke-dasharray: 7.4,3.2; stroke-dashoffset: 0; stroke: #1a1a1a; stroke-width: 2"/>
    </g>
    <g id="text_13">
     <!-- test -->
     <g style="fill: #1a1a1a" transform="translate(125.568594 58.839531) scale(0.09 -0.09)">
      <use xlink:href="#Menlo-Regular-74"/>
      <use xlink:href="#Menlo-Regular-65" transform="translate(60.205078 0)"/>
      <use xlink:href="#Menlo-Regular-73" transform="translate(120.410156 0)"/>
      <use xlink:href="#Menlo-Regular-74" transform="translate(180.615234 0)"/>
     </g>
    </g>
   </g>
  </g>
  <g id="axes_2">
   <g id="patch_5">
    <path d="M 207.11 142.44 
L 323.56 142.44 
L 323.56 29.74 
L 207.11 29.74 
z
" style="fill: #ffffff"/>
   </g>
   <g id="matplotlib.axis_3">
    <g id="xtick_4">
     <g id="line2d_17">
      <g>
       <use xlink:href="#m80e29120bd" x="210.242699" y="142.44" style="fill: #1a1a1a; stroke: #1a1a1a"/>
      </g>
     </g>
     <g id="text_14">
      <!-- 0 -->
      <g style="fill: #1a1a1a" transform="translate(207.533559 152.803906) scale(0.09 -0.09)">
       <use xlink:href="#Menlo-Regular-30"/>
      </g>
     </g>
    </g>
    <g id="xtick_5">
     <g id="line2d_18">
      <g>
       <use xlink:href="#m80e29120bd" x="253.452347" y="142.44" style="fill: #1a1a1a; stroke: #1a1a1a"/>
      </g>
     </g>
     <g id="text_15">
      <!-- 20 -->
      <g style="fill: #1a1a1a" transform="translate(248.034066 152.803906) scale(0.09 -0.09)">
       <use xlink:href="#Menlo-Regular-32"/>
       <use xlink:href="#Menlo-Regular-30" transform="translate(60.205078 0)"/>
      </g>
     </g>
    </g>
    <g id="xtick_6">
     <g id="line2d_19">
      <g>
       <use xlink:href="#m80e29120bd" x="296.661994" y="142.44" style="fill: #1a1a1a; stroke: #1a1a1a"/>
      </g>
     </g>
     <g id="text_16">
      <!-- 40 -->
      <g style="fill: #1a1a1a" transform="translate(291.243713 152.803906) scale(0.09 -0.09)">
       <use xlink:href="#Menlo-Regular-34"/>
       <use xlink:href="#Menlo-Regular-30" transform="translate(60.205078 0)"/>
      </g>
     </g>
    </g>
    <g id="text_17">
     <!-- epoch -->
     <g style="fill: #1a1a1a" transform="translate(250.284219 166.302188) scale(0.1 -0.1)">
      <use xlink:href="#Menlo-Regular-65"/>
      <use xlink:href="#Menlo-Regular-70" transform="translate(60.205078 0)"/>
      <use xlink:href="#Menlo-Regular-6f" transform="translate(120.410156 0)"/>
      <use xlink:href="#Menlo-Regular-63" transform="translate(180.615234 0)"/>
      <use xlink:href="#Menlo-Regular-68" transform="translate(240.820312 0)"/>
     </g>
    </g>
   </g>
   <g id="matplotlib.axis_4">
    <g id="ytick_6">
     <g id="line2d_20">
      <g>
       <use xlink:href="#mea73332953" x="207.11" y="142.44" style="fill: #1a1a1a; stroke: #1a1a1a"/>
      </g>
     </g>
     <g id="text_18">
      <!-- 0 -->
      <g style="fill: #1a1a1a" transform="translate(198.191719 145.871953) scale(0.09 -0.09)">
       <use xlink:href="#Menlo-Regular-30"/>
      </g>
     </g>
    </g>
    <g id="ytick_7">
     <g id="line2d_21">
      <g>
       <use xlink:href="#mea73332953" x="207.11" y="119.9" style="fill: #1a1a1a; stroke: #1a1a1a"/>
      </g>
     </g>
     <g id="text_19">
      <!-- 20 -->
      <g style="fill: #1a1a1a" transform="translate(192.773438 123.331953) scale(0.09 -0.09)">
       <use xlink:href="#Menlo-Regular-32"/>
       <use xlink:href="#Menlo-Regular-30" transform="translate(60.205078 0)"/>
      </g>
     </g>
    </g>
    <g id="ytick_8">
     <g id="line2d_22">
      <g>
       <use xlink:href="#mea73332953" x="207.11" y="97.36" style="fill: #1a1a1a; stroke: #1a1a1a"/>
      </g>
     </g>
     <g id="text_20">
      <!-- 40 -->
      <g style="fill: #1a1a1a" transform="translate(192.773438 100.791953) scale(0.09 -0.09)">
       <use xlink:href="#Menlo-Regular-34"/>
       <use xlink:href="#Menlo-Regular-30" transform="translate(60.205078 0)"/>
      </g>
     </g>
    </g>
    <g id="ytick_9">
     <g id="line2d_23">
      <g>
       <use xlink:href="#mea73332953" x="207.11" y="74.82" style="fill: #1a1a1a; stroke: #1a1a1a"/>
      </g>
     </g>
     <g id="text_21">
      <!-- 60 -->
      <g style="fill: #1a1a1a" transform="translate(192.773438 78.251953) scale(0.09 -0.09)">
       <defs>
        <path id="Menlo-Regular-36" d="M 3097 4563 
L 3097 3981 
Q 2900 4097 2678 4158 
Q 2456 4219 2216 4219 
Q 1616 4219 1306 3767 
Q 997 3316 997 2438 
Q 1147 2750 1412 2917 
Q 1678 3084 2022 3084 
Q 2697 3084 3067 2670 
Q 3438 2256 3438 1497 
Q 3438 741 3056 325 
Q 2675 -91 1984 -91 
Q 1172 -91 794 492 
Q 416 1075 416 2328 
Q 416 3509 870 4129 
Q 1325 4750 2188 4750 
Q 2419 4750 2650 4701 
Q 2881 4653 3097 4563 
z
M 1972 2591 
Q 1569 2591 1337 2300 
Q 1106 2009 1106 1497 
Q 1106 984 1337 693 
Q 1569 403 1972 403 
Q 2391 403 2603 679 
Q 2816 956 2816 1497 
Q 2816 2041 2603 2316 
Q 2391 2591 1972 2591 
z
" transform="scale(0.015625)"/>
       </defs>
       <use xlink:href="#Menlo-Regular-36"/>
       <use xlink:href="#Menlo-Regular-30" transform="translate(60.205078 0)"/>
      </g>
     </g>
    </g>
    <g id="ytick_10">
     <g id="line2d_24">
      <g>
       <use xlink:href="#mea73332953" x="207.11" y="52.28" style="fill: #1a1a1a; stroke: #1a1a1a"/>
      </g>
     </g>
     <g id="text_22">
      <!-- 80 -->
      <g style="fill: #1a1a1a" transform="translate(192.773438 55.711953) scale(0.09 -0.09)">
       <defs>
        <path id="Menlo-Regular-38" d="M 1925 2216 
Q 1503 2216 1273 1980 
Q 1044 1744 1044 1313 
Q 1044 881 1276 642 
Q 1509 403 1925 403 
Q 2350 403 2579 639 
Q 2809 875 2809 1313 
Q 2809 1741 2576 1978 
Q 2344 2216 1925 2216 
z
M 1375 2478 
Q 972 2581 745 2862 
Q 519 3144 519 3541 
Q 519 4097 897 4423 
Q 1275 4750 1925 4750 
Q 2578 4750 2956 4423 
Q 3334 4097 3334 3541 
Q 3334 3144 3107 2862 
Q 2881 2581 2478 2478 
Q 2947 2375 3195 2062 
Q 3444 1750 3444 1253 
Q 3444 622 3041 265 
Q 2638 -91 1925 -91 
Q 1213 -91 811 264 
Q 409 619 409 1247 
Q 409 1747 657 2061 
Q 906 2375 1375 2478 
z
M 1147 3481 
Q 1147 3106 1347 2909 
Q 1547 2713 1925 2713 
Q 2306 2713 2506 2909 
Q 2706 3106 2706 3481 
Q 2706 3863 2507 4063 
Q 2309 4263 1925 4263 
Q 1547 4263 1347 4061 
Q 1147 3859 1147 3481 
z
" transform="scale(0.015625)"/>
       </defs>
       <use xlink:href="#Menlo-Regular-38"/>
       <use xlink:href="#Menlo-Regular-30" transform="translate(60.205078 0)"/>
      </g>
     </g>
    </g>
    <g id="ytick_11">
     <g id="line2d_25">
      <g>
       <use xlink:href="#mea73332953" x="207.11" y="29.74" style="fill: #1a1a1a; stroke: #1a1a1a"/>
      </g>
     </g>
     <g id="text_23">
      <!-- 100 -->
      <g style="fill: #1a1a1a" transform="translate(187.355156 33.171953) scale(0.09 -0.09)">
       <use xlink:href="#Menlo-Regular-31"/>
       <use xlink:href="#Menlo-Regular-30" transform="translate(60.205078 0)"/>
       <use xlink:href="#Menlo-Regular-30" transform="translate(120.410156 0)"/>
      </g>
     </g>
    </g>
    <g id="text_24">
     <!-- accuracy (%) -->
     <g style="fill: #1a1a1a" transform="translate(181.275469 122.211875) rotate(-90) scale(0.1 -0.1)">
      <defs>
       <path id="Menlo-Regular-75" d="M 609 1325 
L 609 3494 
L 1184 3494 
L 1184 1325 
Q 1184 853 1351 631 
Q 1519 409 1869 409 
Q 2275 409 2490 695 
Q 2706 981 2706 1516 
L 2706 3494 
L 3284 3494 
L 3284 0 
L 2706 0 
L 2706 525 
Q 2553 222 2289 65 
Q 2025 -91 1672 -91 
Q 1134 -91 871 261 
Q 609 613 609 1325 
z
" transform="scale(0.015625)"/>
       <path id="Menlo-Regular-79" d="M 2681 1125 
Q 2538 759 2316 163 
Q 2006 -663 1900 -844 
Q 1756 -1088 1540 -1209 
Q 1325 -1331 1038 -1331 
L 575 -1331 
L 575 -850 
L 916 -850 
Q 1169 -850 1312 -703 
Q 1456 -556 1678 56 
L 325 3500 
L 934 3500 
L 1972 763 
L 2994 3500 
L 3603 3500 
L 2681 1125 
z
" transform="scale(0.015625)"/>
       <path id="Menlo-Regular-20" transform="scale(0.015625)"/>
       <path id="Menlo-Regular-28" d="M 2672 5169 
Q 2256 4456 2051 3748 
Q 1847 3041 1847 2322 
Q 1847 1606 2051 897 
Q 2256 188 2672 -531 
L 2172 -531 
Q 1700 213 1469 917 
Q 1238 1622 1238 2322 
Q 1238 3019 1469 3725 
Q 1700 4431 2172 5169 
L 2672 5169 
z
" transform="scale(0.015625)"/>
       <path id="Menlo-Regular-25" d="M 2175 997 
Q 2175 753 2339 587 
Q 2503 422 2747 422 
Q 2988 422 3155 589 
Q 3322 756 3322 997 
Q 3322 1238 3153 1406 
Q 2984 1575 2747 1575 
Q 2503 1575 2339 1409 
Q 2175 1244 2175 997 
z
M 1753 997 
Q 1753 1419 2040 1708 
Q 2328 1997 2747 1997 
Q 2947 1997 3126 1922 
Q 3306 1847 3450 1703 
Q 3594 1556 3672 1375 
Q 3750 1194 3750 997 
Q 3750 581 3459 290 
Q 3169 0 2747 0 
Q 2322 0 2037 286 
Q 1753 572 1753 997 
z
M 259 1375 
L 122 1728 
L 3606 3122 
L 3763 2769 
L 259 1375 
z
M 525 3475 
Q 525 3228 689 3064 
Q 853 2900 1100 2900 
Q 1341 2900 1509 3067 
Q 1678 3234 1678 3475 
Q 1678 3716 1509 3883 
Q 1341 4050 1100 4050 
Q 859 4050 692 3884 
Q 525 3719 525 3475 
z
M 103 3475 
Q 103 3897 390 4186 
Q 678 4475 1100 4475 
Q 1300 4475 1483 4400 
Q 1666 4325 1806 4184 
Q 1947 4044 2023 3861 
Q 2100 3678 2100 3475 
Q 2100 3056 1809 2767 
Q 1519 2478 1100 2478 
Q 678 2478 390 2765 
Q 103 3053 103 3475 
z
" transform="scale(0.015625)"/>
       <path id="Menlo-Regular-29" d="M 1088 5169 
L 1588 5169 
Q 2059 4431 2290 3725 
Q 2522 3019 2522 2322 
Q 2522 1619 2290 912 
Q 2059 206 1588 -531 
L 1088 -531 
Q 1503 194 1708 903 
Q 1913 1613 1913 2322 
Q 1913 3034 1708 3743 
Q 1503 4453 1088 5169 
z
" transform="scale(0.015625)"/>
      </defs>
      <use xlink:href="#Menlo-Regular-61"/>
      <use xlink:href="#Menlo-Regular-63" transform="translate(60.205078 0)"/>
      <use xlink:href="#Menlo-Regular-63" transform="translate(120.410156 0)"/>
      <use xlink:href="#Menlo-Regular-75" transform="translate(180.615234 0)"/>
      <use xlink:href="#Menlo-Regular-72" transform="translate(240.820312 0)"/>
      <use xlink:href="#Menlo-Regular-61" transform="translate(301.025391 0)"/>
      <use xlink:href="#Menlo-Regular-63" transform="translate(361.230469 0)"/>
      <use xlink:href="#Menlo-Regular-79" transform="translate(421.435547 0)"/>
      <use xlink:href="#Menlo-Regular-20" transform="translate(481.640625 0)"/>
      <use xlink:href="#Menlo-Regular-28" transform="translate(541.845703 0)"/>
      <use xlink:href="#Menlo-Regular-25" transform="translate(602.050781 0)"/>
      <use xlink:href="#Menlo-Regular-29" transform="translate(662.255859 0)"/>
     </g>
    </g>
   </g>
   <g id="line2d_26">
    <path d="M 212.403182 52.0385 
L 214.563664 45.679 
L 216.724147 43.908 
L 218.884629 43.3445 
L 221.045111 42.5395 
L 223.205594 42.298 
L 225.366076 41.654 
L 227.526558 41.976 
L 229.687041 42.459 
L 231.847523 41.7345 
L 234.008006 41.4125 
L 236.168488 41.5735 
L 238.32897 41.171 
L 240.489453 41.171 
L 242.649935 41.493 
L 244.810417 41.4125 
L 246.9709 40.366 
L 249.131382 41.4125 
L 251.291865 40.849 
L 253.452347 40.7685 
L 255.612829 40.849 
L 257.773312 40.1245 
L 259.933794 40.7685 
L 262.094276 40.4465 
L 264.254759 40.6075 
L 266.415241 40.1245 
L 268.575724 39.8025 
L 270.736206 39.9635 
L 272.896688 40.4465 
L 275.057171 39.8025 
L 277.217653 40.1245 
L 279.378135 39.4 
L 281.538618 40.205 
L 283.6991 40.044 
L 285.859583 40.1245 
L 288.020065 40.527 
L 290.180547 40.6075 
L 292.34103 40.044 
L 294.501512 40.044 
L 296.661994 40.2855 
L 298.822477 39.6415 
L 300.982959 39.883 
L 303.143442 40.1245 
L 305.303924 40.4465 
L 307.464406 40.044 
L 309.624889 40.1245 
L 311.785371 40.6075 
L 313.945853 39.6415 
L 316.106336 39.4805 
L 318.266818 39.883 
" clip-path="url(#p9d5af36d5c)" style="fill: none; stroke: #1a1a1a; stroke-opacity: 0.85; stroke-width: 1.2; stroke-linejoin: miter"/>
   </g>
   <g id="line2d_27">
    <path d="M 212.403182 53.6485 
L 214.563664 45.7595 
L 216.724147 43.747 
L 218.884629 42.7005 
L 221.045111 41.976 
L 223.205594 42.7005 
L 225.366076 41.8955 
L 227.526558 42.298 
L 229.687041 42.2175 
L 231.847523 42.3785 
L 234.008006 41.4125 
L 236.168488 41.332 
L 238.32897 40.849 
L 240.489453 41.01 
L 242.649935 41.171 
L 244.810417 41.7345 
L 246.9709 40.2855 
L 249.131382 40.4465 
L 251.291865 40.849 
L 253.452347 40.688 
L 255.612829 40.366 
L 257.773312 40.1245 
L 259.933794 40.1245 
L 262.094276 40.7685 
L 264.254759 40.1245 
L 266.415241 39.9635 
L 268.575724 39.561 
L 270.736206 39.9635 
L 272.896688 39.6415 
L 275.057171 39.6415 
L 277.217653 39.4805 
L 279.378135 39.239 
L 281.538618 40.044 
L 283.6991 40.1245 
L 285.859583 40.044 
L 288.020065 39.883 
L 290.180547 40.1245 
L 292.34103 40.205 
L 294.501512 39.722 
L 296.661994 40.1245 
L 298.822477 40.205 
L 300.982959 40.205 
L 303.143442 40.4465 
L 305.303924 40.6075 
L 307.464406 40.4465 
L 309.624889 40.205 
L 311.785371 40.2855 
L 313.945853 40.527 
L 316.106336 39.9635 
L 318.266818 39.722 
" clip-path="url(#p9d5af36d5c)" style="fill: none; stroke: #1a1a1a; stroke-opacity: 0.85; stroke-width: 1.2; stroke-linejoin: miter"/>
   </g>
   <g id="line2d_28">
    <path d="M 212.403182 51.8775 
L 214.563664 46.162 
L 216.724147 44.3105 
L 218.884629 42.5395 
L 221.045111 42.8615 
L 223.205594 42.298 
L 225.366076 41.7345 
L 227.526558 41.8955 
L 229.687041 41.5735 
L 231.847523 41.976 
L 234.008006 41.976 
L 236.168488 41.171 
L 238.32897 41.2515 
L 240.489453 40.688 
L 242.649935 40.849 
L 244.810417 41.01 
L 246.9709 40.688 
L 249.131382 40.7685 
L 251.291865 40.205 
L 253.452347 40.849 
L 255.612829 40.6075 
L 257.773312 41.171 
L 259.933794 41.332 
L 262.094276 39.8025 
L 264.254759 40.527 
L 266.415241 39.078 
L 268.575724 39.561 
L 270.736206 39.883 
L 272.896688 39.239 
L 275.057171 39.561 
L 277.217653 39.561 
L 279.378135 40.205 
L 281.538618 40.366 
L 283.6991 40.205 
L 285.859583 39.722 
L 288.020065 39.8025 
L 290.180547 40.6075 
L 292.34103 40.7685 
L 294.501512 39.883 
L 296.661994 40.366 
L 298.822477 39.9635 
L 300.982959 39.9635 
L 303.143442 40.9295 
L 305.303924 40.2855 
L 307.464406 40.2855 
L 309.624889 39.722 
L 311.785371 40.6075 
L 313.945853 40.2855 
L 316.106336 40.044 
L 318.266818 39.8025 
" clip-path="url(#p9d5af36d5c)" style="fill: none; stroke: #1a1a1a; stroke-opacity: 0.85; stroke-width: 1.2; stroke-linejoin: miter"/>
   </g>
   <g id="patch_6">
    <path d="M 207.11 142.44 
L 207.11 29.74 
" style="fill: none; stroke: #1a1a1a; stroke-width: 1.4; stroke-linejoin: miter; stroke-linecap: square"/>
   </g>
   <g id="patch_7">
    <path d="M 207.11 142.44 
L 323.56 142.44 
" style="fill: none; stroke: #1a1a1a; stroke-width: 1.4; stroke-linejoin: miter; stroke-linecap: square"/>
   </g>
   <g id="text_25">
    <!-- test accuracy -->
    <g style="fill: #1a1a1a" transform="translate(207.11 19.74) scale(0.11 -0.11)">
     <use xlink:href="#Menlo-Regular-74"/>
     <use xlink:href="#Menlo-Regular-65" transform="translate(60.205078 0)"/>
     <use xlink:href="#Menlo-Regular-73" transform="translate(120.410156 0)"/>
     <use xlink:href="#Menlo-Regular-74" transform="translate(180.615234 0)"/>
     <use xlink:href="#Menlo-Regular-20" transform="translate(240.820312 0)"/>
     <use xlink:href="#Menlo-Regular-61" transform="translate(301.025391 0)"/>
     <use xlink:href="#Menlo-Regular-63" transform="translate(361.230469 0)"/>
     <use xlink:href="#Menlo-Regular-63" transform="translate(421.435547 0)"/>
     <use xlink:href="#Menlo-Regular-75" transform="translate(481.640625 0)"/>
     <use xlink:href="#Menlo-Regular-72" transform="translate(541.845703 0)"/>
     <use xlink:href="#Menlo-Regular-61" transform="translate(602.050781 0)"/>
     <use xlink:href="#Menlo-Regular-63" transform="translate(662.255859 0)"/>
     <use xlink:href="#Menlo-Regular-79" transform="translate(722.460938 0)"/>
    </g>
   </g>
  </g>
  <g id="axes_3">
   <g id="patch_8">
    <path d="M 369.01 142.44 
L 485.46 142.44 
L 485.46 29.74 
L 369.01 29.74 
z
" style="fill: #ffffff"/>
   </g>
   <g id="matplotlib.axis_5">
    <g id="xtick_7">
     <g id="line2d_29">
      <g>
       <use xlink:href="#m80e29120bd" x="372.142699" y="142.44" style="fill: #1a1a1a; stroke: #1a1a1a"/>
      </g>
     </g>
     <g id="text_26">
      <!-- 0 -->
      <g style="fill: #1a1a1a" transform="translate(369.433559 152.803906) scale(0.09 -0.09)">
       <use xlink:href="#Menlo-Regular-30"/>
      </g>
     </g>
    </g>
    <g id="xtick_8">
     <g id="line2d_30">
      <g>
       <use xlink:href="#m80e29120bd" x="415.352347" y="142.44" style="fill: #1a1a1a; stroke: #1a1a1a"/>
      </g>
     </g>
     <g id="text_27">
      <!-- 20 -->
      <g style="fill: #1a1a1a" transform="translate(409.934066 152.803906) scale(0.09 -0.09)">
       <use xlink:href="#Menlo-Regular-32"/>
       <use xlink:href="#Menlo-Regular-30" transform="translate(60.205078 0)"/>
      </g>
     </g>
    </g>
    <g id="xtick_9">
     <g id="line2d_31">
      <g>
       <use xlink:href="#m80e29120bd" x="458.561994" y="142.44" style="fill: #1a1a1a; stroke: #1a1a1a"/>
      </g>
     </g>
     <g id="text_28">
      <!-- 40 -->
      <g style="fill: #1a1a1a" transform="translate(453.143713 152.803906) scale(0.09 -0.09)">
       <use xlink:href="#Menlo-Regular-34"/>
       <use xlink:href="#Menlo-Regular-30" transform="translate(60.205078 0)"/>
      </g>
     </g>
    </g>
    <g id="text_29">
     <!-- epoch -->
     <g style="fill: #1a1a1a" transform="translate(412.184219 166.302188) scale(0.1 -0.1)">
      <use xlink:href="#Menlo-Regular-65"/>
      <use xlink:href="#Menlo-Regular-70" transform="translate(60.205078 0)"/>
      <use xlink:href="#Menlo-Regular-6f" transform="translate(120.410156 0)"/>
      <use xlink:href="#Menlo-Regular-63" transform="translate(180.615234 0)"/>
      <use xlink:href="#Menlo-Regular-68" transform="translate(240.820312 0)"/>
     </g>
    </g>
   </g>
   <g id="matplotlib.axis_6">
    <g id="ytick_12">
     <g id="line2d_32">
      <g>
       <use xlink:href="#mea73332953" x="369.01" y="109.879057" style="fill: #1a1a1a; stroke: #1a1a1a"/>
      </g>
     </g>
     <g id="text_30">
      <!-- 20 -->
      <g style="fill: #1a1a1a" transform="translate(354.673437 113.31101) scale(0.09 -0.09)">
       <use xlink:href="#Menlo-Regular-32"/>
       <use xlink:href="#Menlo-Regular-30" transform="translate(60.205078 0)"/>
      </g>
     </g>
    </g>
    <g id="ytick_13">
     <g id="line2d_33">
      <g>
       <use xlink:href="#mea73332953" x="369.01" y="74.208713" style="fill: #1a1a1a; stroke: #1a1a1a"/>
      </g>
     </g>
     <g id="text_31">
      <!-- 40 -->
      <g style="fill: #1a1a1a" transform="translate(354.673437 77.640666) scale(0.09 -0.09)">
       <use xlink:href="#Menlo-Regular-34"/>
       <use xlink:href="#Menlo-Regular-30" transform="translate(60.205078 0)"/>
      </g>
     </g>
    </g>
    <g id="ytick_14">
     <g id="line2d_34">
      <g>
       <use xlink:href="#mea73332953" x="369.01" y="38.53837" style="fill: #1a1a1a; stroke: #1a1a1a"/>
      </g>
     </g>
     <g id="text_32">
      <!-- 60 -->
      <g style="fill: #1a1a1a" transform="translate(354.673437 41.970323) scale(0.09 -0.09)">
       <use xlink:href="#Menlo-Regular-36"/>
       <use xlink:href="#Menlo-Regular-30" transform="translate(60.205078 0)"/>
      </g>
     </g>
    </g>
    <g id="text_33">
     <!-- rate (Hz) -->
     <g style="fill: #1a1a1a" transform="translate(348.59375 113.181406) rotate(-90) scale(0.1 -0.1)">
      <defs>
       <path id="Menlo-Regular-48" d="M 428 4666 
L 1063 4666 
L 1063 2878 
L 2791 2878 
L 2791 4666 
L 3425 4666 
L 3425 0 
L 2791 0 
L 2791 2347 
L 1063 2347 
L 1063 0 
L 428 0 
L 428 4666 
z
" transform="scale(0.015625)"/>
       <path id="Menlo-Regular-7a" d="M 709 3506 
L 3250 3506 
L 3250 2981 
L 1241 469 
L 3250 469 
L 3250 0 
L 634 0 
L 634 531 
L 2644 3047 
L 709 3047 
L 709 3506 
z
" transform="scale(0.015625)"/>
      </defs>
      <use xlink:href="#Menlo-Regular-72"/>
      <use xlink:href="#Menlo-Regular-61" transform="translate(60.205078 0)"/>
      <use xlink:href="#Menlo-Regular-74" transform="translate(120.410156 0)"/>
      <use xlink:href="#Menlo-Regular-65" transform="translate(180.615234 0)"/>
      <use xlink:href="#Menlo-Regular-20" transform="translate(240.820312 0)"/>
      <use xlink:href="#Menlo-Regular-28" transform="translate(301.025391 0)"/>
      <use xlink:href="#Menlo-Regular-48" transform="translate(361.230469 0)"/>
      <use xlink:href="#Menlo-Regular-7a" transform="translate(421.435547 0)"/>
      <use xlink:href="#Menlo-Regular-29" transform="translate(481.640625 0)"/>
     </g>
    </g>
   </g>
   <g id="line2d_35">
    <path d="M 374.303182 137.187266 
L 376.463664 135.902147 
L 378.624147 135.055922 
L 380.784629 134.455447 
L 382.945111 133.932391 
L 385.105594 133.53513 
L 387.266076 133.170987 
L 389.426558 132.802365 
L 391.587041 132.496321 
L 393.747523 132.194668 
L 395.908006 131.964911 
L 398.068488 131.695094 
L 400.22897 131.454271 
L 402.389453 131.301921 
L 404.549935 131.107943 
L 406.710417 130.912989 
L 408.8709 130.751681 
L 411.031382 130.563806 
L 413.191865 130.382015 
L 415.352347 130.227232 
L 417.512829 130.089469 
L 419.673312 129.967088 
L 421.833794 129.803298 
L 423.994276 129.689378 
L 426.154759 129.549543 
L 428.315241 129.396403 
L 430.475724 129.263615 
L 432.636206 129.131232 
L 434.796688 129.007272 
L 436.957171 128.919172 
L 439.117653 128.814296 
L 441.278135 128.68559 
L 443.438618 128.526558 
L 445.5991 128.425452 
L 447.759583 128.365369 
L 449.920065 128.214654 
L 452.080547 128.088262 
L 454.24103 127.979535 
L 456.401512 127.903802 
L 458.561994 127.808318 
L 460.722477 127.707448 
L 462.882959 127.616319 
L 465.043442 127.533731 
L 467.203924 127.41418 
L 469.364406 127.364168 
L 471.524889 127.284895 
L 473.685371 127.183994 
L 475.845853 127.100354 
L 478.006336 126.975884 
L 480.166818 126.935097 
" clip-path="url(#pf0f9bce838)" style="fill: none; stroke: #1a1a1a; stroke-opacity: 0.85; stroke-width: 1.2; stroke-linejoin: miter"/>
   </g>
   <g id="line2d_36">
    <path d="M 374.303182 106.342353 
L 376.463664 94.501695 
L 378.624147 89.109865 
L 380.784629 85.057514 
L 382.945111 81.778709 
L 385.105594 79.435877 
L 387.266076 77.002774 
L 389.426558 74.615504 
L 391.587041 72.383519 
L 393.747523 70.559594 
L 395.908006 68.741119 
L 398.068488 67.251155 
L 400.22897 65.620312 
L 402.389453 64.230024 
L 404.549935 63.238814 
L 406.710417 61.905157 
L 408.8709 60.611162 
L 411.031382 59.449138 
L 413.191865 58.15691 
L 415.352347 57.123848 
L 417.512829 56.061401 
L 419.673312 55.167553 
L 421.833794 54.043897 
L 423.994276 53.104814 
L 426.154759 52.478219 
L 428.315241 51.453642 
L 430.475724 50.586516 
L 432.636206 49.457611 
L 434.796688 49.001704 
L 436.957171 48.441892 
L 439.117653 47.718308 
L 441.278135 46.88848 
L 443.438618 45.647482 
L 445.5991 45.101653 
L 447.759583 44.8238 
L 449.920065 43.799298 
L 452.080547 43.130454 
L 454.24103 42.09045 
L 456.401512 41.739121 
L 458.561994 41.180926 
L 460.722477 40.147069 
L 462.882959 39.818556 
L 465.043442 38.86942 
L 467.203924 38.282288 
L 469.364406 37.805058 
L 471.524889 37.127928 
L 473.685371 36.605961 
L 475.845853 36.267471 
L 478.006336 35.505595 
L 480.166818 34.862727 
" clip-path="url(#pf0f9bce838)" style="fill: none; stroke-dasharray: 3.7,1.6; stroke-dashoffset: 0; stroke: #1a1a1a; stroke-opacity: 0.85"/>
   </g>
   <g id="line2d_37">
    <path d="M 374.303182 137.276716 
L 376.463664 136.019931 
L 378.624147 135.18912 
L 380.784629 134.540044 
L 382.945111 134.073644 
L 385.105594 133.680987 
L 387.266076 133.291495 
L 389.426558 132.925909 
L 391.587041 132.606012 
L 393.747523 132.342465 
L 395.908006 132.060034 
L 398.068488 131.867331 
L 400.22897 131.595294 
L 402.389453 131.397647 
L 404.549935 131.220104 
L 406.710417 131.016951 
L 408.8709 130.850748 
L 411.031382 130.712213 
L 413.191865 130.540859 
L 415.352347 130.323754 
L 417.512829 130.177811 
L 419.673312 130.041864 
L 421.833794 129.867045 
L 423.994276 129.772364 
L 426.154759 129.64688 
L 428.315241 129.521489 
L 430.475724 129.379838 
L 432.636206 129.246279 
L 434.796688 129.140445 
L 436.957171 129.050187 
L 439.117653 128.927246 
L 441.278135 128.781241 
L 443.438618 128.658848 
L 445.5991 128.563259 
L 447.759583 128.488042 
L 449.920065 128.354751 
L 452.080547 128.240749 
L 454.24103 128.151219 
L 456.401512 128.079802 
L 458.561994 127.944763 
L 460.722477 127.852334 
L 462.882959 127.796487 
L 465.043442 127.656913 
L 467.203924 127.581373 
L 469.364406 127.511175 
L 471.524889 127.413478 
L 473.685371 127.367708 
L 475.845853 127.223152 
L 478.006336 127.127618 
L 480.166818 127.052973 
" clip-path="url(#pf0f9bce838)" style="fill: none; stroke: #1a1a1a; stroke-opacity: 0.85; stroke-width: 1.2; stroke-linejoin: miter"/>
   </g>
   <g id="line2d_38">
    <path d="M 374.303182 107.294723 
L 376.463664 95.450258 
L 378.624147 89.784631 
L 380.784629 85.825859 
L 382.945111 82.752228 
L 385.105594 80.397702 
L 387.266076 77.819863 
L 389.426558 75.294101 
L 391.587041 73.25179 
L 393.747523 71.433165 
L 395.908006 69.601078 
L 398.068488 68.207084 
L 400.22897 66.56793 
L 402.389453 65.227754 
L 404.549935 63.709002 
L 406.710417 62.511846 
L 408.8709 61.372391 
L 411.031382 60.395885 
L 413.191865 59.183402 
L 415.352347 57.909138 
L 417.512829 56.950597 
L 419.673312 55.880586 
L 421.833794 54.656309 
L 423.994276 53.93611 
L 426.154759 53.095707 
L 428.315241 52.122759 
L 430.475724 51.288005 
L 432.636206 50.486591 
L 434.796688 49.883883 
L 436.957171 49.132805 
L 439.117653 48.59683 
L 441.278135 47.559364 
L 443.438618 46.806072 
L 445.5991 46.073705 
L 447.759583 45.500332 
L 449.920065 44.969084 
L 452.080547 43.826419 
L 454.24103 43.304576 
L 456.401512 42.687585 
L 458.561994 42.127076 
L 460.722477 41.589259 
L 462.882959 41.285404 
L 465.043442 40.212259 
L 467.203924 39.599946 
L 469.364406 39.131126 
L 471.524889 38.400675 
L 473.685371 38.101373 
L 475.845853 37.048332 
L 478.006336 36.258638 
L 480.166818 35.772376 
" clip-path="url(#pf0f9bce838)" style="fill: none; stroke-dasharray: 3.7,1.6; stroke-dashoffset: 0; stroke: #1a1a1a; stroke-opacity: 0.85"/>
   </g>
   <g id="line2d_39">
    <path d="M 374.303182 137.317273 
L 376.463664 136.089438 
L 378.624147 135.257121 
L 380.784629 134.68916 
L 382.945111 134.232109 
L 385.105594 133.825729 
L 387.266076 133.498697 
L 389.426558 133.148214 
L 391.587041 132.817033 
L 393.747523 132.518466 
L 395.908006 132.233602 
L 398.068488 132.026605 
L 400.22897 131.773584 
L 402.389453 131.583158 
L 404.549935 131.357002 
L 406.710417 131.166956 
L 408.8709 131.015589 
L 411.031382 130.840242 
L 413.191865 130.699654 
L 415.352347 130.473822 
L 417.512829 130.381872 
L 419.673312 130.257028 
L 421.833794 130.115377 
L 423.994276 129.953391 
L 426.154759 129.837449 
L 428.315241 129.702304 
L 430.475724 129.569523 
L 432.636206 129.423984 
L 434.796688 129.326852 
L 436.957171 129.225839 
L 439.117653 129.082508 
L 441.278135 128.942766 
L 443.438618 128.817357 
L 445.5991 128.711466 
L 447.759583 128.602783 
L 449.920065 128.479302 
L 452.080547 128.342279 
L 454.24103 128.265836 
L 456.401512 128.145023 
L 458.561994 128.035507 
L 460.722477 127.95688 
L 462.882959 127.876954 
L 465.043442 127.761572 
L 467.203924 127.654407 
L 469.364406 127.594666 
L 471.524889 127.507872 
L 473.685371 127.413757 
L 475.845853 127.299855 
L 478.006336 127.216838 
L 480.166818 127.162179 
" clip-path="url(#pf0f9bce838)" style="fill: none; stroke: #1a1a1a; stroke-opacity: 0.85; stroke-width: 1.2; stroke-linejoin: miter"/>
   </g>
   <g id="line2d_40">
    <path d="M 374.303182 107.649387 
L 376.463664 95.488651 
L 378.624147 90.205952 
L 380.784629 86.662381 
L 382.945111 83.613606 
L 385.105594 81.144077 
L 387.266076 79.126921 
L 389.426558 76.664234 
L 391.587041 74.692388 
L 393.747523 72.77339 
L 395.908006 70.491941 
L 398.068488 69.250322 
L 400.22897 67.742543 
L 402.389453 66.324413 
L 404.549935 65.044227 
L 406.710417 63.602708 
L 408.8709 62.569149 
L 411.031382 61.256542 
L 413.191865 60.268541 
L 415.352347 58.796592 
L 417.512829 58.210505 
L 419.673312 57.679679 
L 421.833794 56.475731 
L 423.994276 55.368646 
L 426.154759 54.579923 
L 428.315241 53.638849 
L 430.475724 52.667419 
L 432.636206 51.610844 
L 434.796688 50.923961 
L 436.957171 50.355938 
L 439.117653 49.54492 
L 441.278135 48.903819 
L 443.438618 47.965557 
L 445.5991 47.434483 
L 447.759583 46.437201 
L 449.920065 45.574927 
L 452.080547 44.661223 
L 454.24103 44.18892 
L 456.401512 43.518956 
L 458.561994 42.559271 
L 460.722477 42.108987 
L 462.882959 41.948302 
L 465.043442 40.784213 
L 467.203924 40.07638 
L 469.364406 39.506217 
L 471.524889 38.969818 
L 473.685371 38.26828 
L 475.845853 37.838524 
L 478.006336 36.961769 
L 480.166818 36.790757 
" clip-path="url(#pf0f9bce838)" style="fill: none; stroke-dasharray: 3.7,1.6; stroke-dashoffset: 0; stroke: #1a1a1a; stroke-opacity: 0.85"/>
   </g>
   <g id="patch_9">
    <path d="M 369.01 142.44 
L 369.01 29.74 
" style="fill: none; stroke: #1a1a1a; stroke-width: 1.4; stroke-linejoin: miter; stroke-linecap: square"/>
   </g>
   <g id="patch_10">
    <path d="M 369.01 142.44 
L 485.46 142.44 
" style="fill: none; stroke: #1a1a1a; stroke-width: 1.4; stroke-linejoin: miter; stroke-linecap: square"/>
   </g>
   <g id="text_34">
    <!-- firing rate -->
    <g style="fill: #1a1a1a" transform="translate(369.01 19.74) scale(0.11 -0.11)">
     <defs>
      <path id="Menlo-Regular-66" d="M 3322 4863 
L 3322 4384 
L 2669 4384 
Q 2359 4384 2239 4257 
Q 2119 4131 2119 3809 
L 2119 3500 
L 3322 3500 
L 3322 3053 
L 2119 3053 
L 2119 0 
L 1544 0 
L 1544 3053 
L 609 3053 
L 609 3500 
L 1544 3500 
L 1544 3744 
Q 1544 4319 1808 4591 
Q 2072 4863 2631 4863 
L 3322 4863 
z
" transform="scale(0.015625)"/>
      <path id="Menlo-Regular-67" d="M 2681 1778 
Q 2681 2425 2470 2761 
Q 2259 3097 1856 3097 
Q 1434 3097 1212 2761 
Q 991 2425 991 1778 
Q 991 1131 1214 792 
Q 1438 453 1863 453 
Q 2259 453 2470 793 
Q 2681 1134 2681 1778 
z
M 3256 225 
Q 3256 -563 2884 -969 
Q 2513 -1375 1791 -1375 
Q 1553 -1375 1293 -1331 
Q 1034 -1288 775 -1203 
L 775 -634 
Q 1081 -778 1331 -847 
Q 1581 -916 1791 -916 
Q 2256 -916 2468 -662 
Q 2681 -409 2681 141 
L 2681 166 
L 2681 556 
Q 2544 263 2306 119 
Q 2069 -25 1728 -25 
Q 1116 -25 750 465 
Q 384 956 384 1778 
Q 384 2603 750 3093 
Q 1116 3584 1728 3584 
Q 2066 3584 2300 3450 
Q 2534 3316 2681 3034 
L 2681 3488 
L 3256 3488 
L 3256 225 
z
" transform="scale(0.015625)"/>
     </defs>
     <use xlink:href="#Menlo-Regular-66"/>
     <use xlink:href="#Menlo-Regular-69" transform="translate(60.205078 0)"/>
     <use xlink:href="#Menlo-Regular-72" transform="translate(120.410156 0)"/>
     <use xlink:href="#Menlo-Regular-69" transform="translate(180.615234 0)"/>
     <use xlink:href="#Menlo-Regular-6e" transform="translate(240.820312 0)"/>
     <use xlink:href="#Menlo-Regular-67" transform="translate(301.025391 0)"/>
     <use xlink:href="#Menlo-Regular-20" transform="translate(361.230469 0)"/>
     <use xlink:href="#Menlo-Regular-72" transform="translate(421.435547 0)"/>
     <use xlink:href="#Menlo-Regular-61" transform="translate(481.640625 0)"/>
     <use xlink:href="#Menlo-Regular-74" transform="translate(541.845703 0)"/>
     <use xlink:href="#Menlo-Regular-65" transform="translate(602.050781 0)"/>
    </g>
   </g>
   <g id="legend_2">
    <g id="line2d_41">
     <path d="M 445.841719 78.818281 
L 454.841719 78.818281 
L 463.841719 78.818281 
" style="fill: none; stroke: #1a1a1a; stroke-width: 2; stroke-linejoin: miter"/>
    </g>
    <g id="text_35">
     <!-- E -->
     <g style="fill: #1a1a1a" transform="translate(471.041719 81.968281) scale(0.09 -0.09)">
      <defs>
       <path id="Menlo-Regular-45" d="M 616 4666 
L 3384 4666 
L 3384 4134 
L 1247 4134 
L 1247 2878 
L 3291 2878 
L 3291 2347 
L 1247 2347 
L 1247 531 
L 3444 531 
L 3444 0 
L 616 0 
L 616 4666 
z
" transform="scale(0.015625)"/>
      </defs>
      <use xlink:href="#Menlo-Regular-45"/>
     </g>
    </g>
    <g id="line2d_42">
     <path d="M 445.841719 92.053906 
L 454.841719 92.053906 
L 463.841719 92.053906 
" style="fill: none; stroke-dasharray: 7.4,3.2; stroke-dashoffset: 0; stroke: #1a1a1a; stroke-width: 2"/>
    </g>
    <g id="text_36">
     <!-- I -->
     <g style="fill: #1a1a1a" transform="translate(471.041719 95.203906) scale(0.09 -0.09)">
      <defs>
       <path id="Menlo-Regular-49" d="M 628 4666 
L 3219 4666 
L 3219 4134 
L 2241 4134 
L 2241 531 
L 3219 531 
L 3219 0 
L 628 0 
L 628 531 
L 1606 531 
L 1606 4134 
L 628 4134 
L 628 4666 
z
" transform="scale(0.015625)"/>
      </defs>
      <use xlink:href="#Menlo-Regular-49"/>
     </g>
    </g>
   </g>
  </g>
  <g id="text_37">
   <!-- r003 -->
   <g style="fill: #888888" transform="translate(475.051 177.43625) scale(0.08 -0.08)">
    <defs>
     <path id="Menlo-Regular-33" d="M 2425 2497 
Q 2884 2375 3128 2064 
Q 3372 1753 3372 1288 
Q 3372 644 2939 276 
Q 2506 -91 1741 -91 
Q 1419 -91 1084 -31 
Q 750 28 428 141 
L 428 769 
Q 747 603 1056 522 
Q 1366 441 1672 441 
Q 2191 441 2469 675 
Q 2747 909 2747 1350 
Q 2747 1756 2469 1995 
Q 2191 2234 1716 2234 
L 1234 2234 
L 1234 2753 
L 1716 2753 
Q 2150 2753 2394 2943 
Q 2638 3134 2638 3475 
Q 2638 3834 2411 4026 
Q 2184 4219 1766 4219 
Q 1488 4219 1191 4156 
Q 894 4094 569 3969 
L 569 4550 
Q 947 4650 1242 4700 
Q 1538 4750 1766 4750 
Q 2447 4750 2855 4408 
Q 3263 4066 3263 3500 
Q 3263 3116 3048 2859 
Q 2834 2603 2425 2497 
z
" transform="scale(0.015625)"/>
    </defs>
    <use xlink:href="#Menlo-Regular-72"/>
    <use xlink:href="#Menlo-Regular-30" transform="translate(60.205078 0)"/>
    <use xlink:href="#Menlo-Regular-30" transform="translate(120.410156 0)"/>
    <use xlink:href="#Menlo-Regular-33" transform="translate(180.615234 0)"/>
   </g>
  </g>
 </g>
 <defs>
  <clipPath id="p0e2b2a16f6">
   <rect x="45.21" y="29.74" width="116.45" height="112.7"/>
  </clipPath>
  <clipPath id="p9d5af36d5c">
   <rect x="207.11" y="29.74" width="116.45" height="112.7"/>
  </clipPath>
  <clipPath id="pf0f9bce838">
   <rect x="369.01" y="29.74" width="116.45" height="112.7"/>
  </clipPath>
 </defs>
</svg>
