<?xml version="1.0" encoding="utf-8" standalone="no"?>
<!DOCTYPE svg PUBLIC "-//W3C//DTD SVG 1.1//EN"
  "http://www.w3.org/Graphics/SVG/1.1/DTD/svg11.dtd">
<svg xmlns:xlink="http://www.w3.org/1999/xlink" width="381.931656pt" height="294.719297pt" viewBox="0 0 381.931656 294.719297" xmlns="http://www.w3.org/2000/svg" version="1.1">
 <metadata>
  <rdf:RDF xmlns:dc="http://purl.org/dc/elements/1.1/" xmlns:cc="http://creativecommons.org/ns#" xmlns:rdf="http://www.w3.org/1999/02/22-rdf-syntax-ns#">
   <cc:Work>
    <dc:type rdf:resource="http://purl.org/dc/dcmitype/StillImage"/>
    <dc:date>2026-07-06T21:21:13.699761</dc:date>
    <dc:format>image/svg+xml</dc:format>
    <dc:creator>
     <cc:Agent>
      <dc:title>Matplotlib v3.10.8, https://matplotlib.org/</dc:title>
     </cc:Agent>
    </dc:creator>
   </cc:Work>
  </rdf:RDF>
 </metadata>
 <defs>
  <style type="text/css">*{stroke-linejoin: round; stroke-linecap: butt}</style>
 </defs>
 <g id="figure_1">
  <g id="patch_1">
   <path d="M 0 294.719297 
L 381.931656 294.719297 
L 381.931656 0 
L 0 0 
z
" style="fill: #ffffff"/>
  </g>
  <g id="axes_1">
   <g id="patch_2">
    <path d="M 29.707656 122.46725 
L 342.187656 122.46725 
L 342.187656 4.109297 
L 29.707656 4.109297 
z
" style="fill: #ffffff"/>
   </g>
   <g id="matplotlib.axis_1">
    <g id="xtick_1">
     <g id="line2d_1">
      <path d="M 38.11389 122.46725 
L 38.11389 4.109297 
" clip-path="url(#p24ab27a429)" style="fill: none; stroke: #1a1a1a; stroke-opacity: 0.15; stroke-width: 0.4; stroke-linejoin: miter"/>
     </g>
     <g id="line2d_2">
      <defs>
       <path id="me43d0c3a0f" d="M 0 0 
L 0 -3 
" style="stroke: #1a1a1a; stroke-width: 0.8"/>
      </defs>
      <g>
       <use xlink:href="#me43d0c3a0f" x="38.11389" y="122.46725" style="fill: #1a1a1a; stroke: #1a1a1a; stroke-width: 0.8"/>
      </g>
     </g>
    </g>
    <g id="xtick_2">
     <g id="line2d_3">
      <path d="M 96.087916 122.46725 
L 96.087916 4.109297 
" clip-path="url(#p24ab27a429)" style="fill: none; stroke: #1a1a1a; stroke-opacity: 0.15; stroke-width: 0.4; stroke-linejoin: miter"/>
     </g>
     <g id="line2d_4">
      <g>
       <use xlink:href="#me43d0c3a0f" x="96.087916" y="122.46725" style="fill: #1a1a1a; stroke: #1a1a1a; stroke-width: 0.8"/>
      </g>
     </g>
    </g>
    <g id="xtick_3">
     <g id="line2d_5">
      <path d="M 154.061942 122.46725 
L 154.061942 4.109297 
" clip-path="url(#p24ab27a429)" style="fill: none; stroke: #1a1a1a; stroke-opacity: 0.15; stroke-width: 0.4; stroke-linejoin: miter"/>
     </g>
     <g id="line2d_6">
      <g>
       <use xlink:href="#me43d0c3a0f" x="154.061942" y="122.46725" style="fill: #1a1a1a; stroke: #1a1a1a; stroke-width: 0.8"/>
      </g>
     </g>
    </g>
    <g id="xtick_4">
     <g id="line2d_7">
      <path d="M 212.035968 122.46725 
L 212.035968 4.109297 
" clip-path="url(#p24ab27a429)" style="fill: none; stroke: #1a1a1a; stroke-opacity: 0.15; stroke-width: 0.4; stroke-linejoin: miter"/>
     </g>
     <g id="line2d_8">
      <g>
       <use xlink:href="#me43d0c3a0f" x="212.035968" y="122.46725" style="fill: #1a1a1a; stroke: #1a1a1a; stroke-width: 0.8"/>
      </g>
     </g>
    </g>
    <g id="xtick_5">
     <g id="line2d_9">
      <path d="M 270.009994 122.46725 
L 270.009994 4.109297 
" clip-path="url(#p24ab27a429)" style="fill: none; stroke: #1a1a1a; stroke-opacity: 0.15; stroke-width: 0.4; stroke-linejoin: miter"/>
     </g>
     <g id="line2d_10">
      <g>
       <use xlink:href="#me43d0c3a0f" x="270.009994" y="122.46725" style="fill: #1a1a1a; stroke: #1a1a1a; stroke-width: 0.8"/>
      </g>
     </g>
    </g>
    <g id="xtick_6">
     <g id="line2d_11">
      <path d="M 327.98402 122.46725 
L 327.98402 4.109297 
" clip-path="url(#p24ab27a429)" style="fill: none; stroke: #1a1a1a; stroke-opacity: 0.15; stroke-width: 0.4; stroke-linejoin: miter"/>
     </g>
     <g id="line2d_12">
      <g>
       <use xlink:href="#me43d0c3a0f" x="327.98402" y="122.46725" style="fill: #1a1a1a; stroke: #1a1a1a; stroke-width: 0.8"/>
      </g>
     </g>
    </g>
   </g>
   <g id="matplotlib.axis_2">
    <g id="ytick_1">
     <g id="line2d_13">
      <path d="M 29.707656 122.46725 
L 342.187656 122.46725 
" clip-path="url(#p24ab27a429)" style="fill: none; stroke: #1a1a1a; stroke-opacity: 0.15; stroke-width: 0.4; stroke-linejoin: miter"/>
     </g>
     <g id="line2d_14">
      <defs>
       <path id="mfd12bfccef" d="M 0 0 
L 3 0 
" style="stroke: #1a1a1a; stroke-width: 0.8"/>
      </defs>
      <g>
       <use xlink:href="#mfd12bfccef" x="29.707656" y="122.46725" style="fill: #1a1a1a; stroke: #1a1a1a; stroke-width: 0.8"/>
      </g>
     </g>
     <g id="text_1">
      <!-- 0 -->
      <g style="fill: #1a1a1a" transform="translate(21.993438 125.136547) scale(0.07 -0.07)">
       <defs>
        <path id="Menlo-Regular-30" d="M 1925 4734 
Q 2672 4734 3055 4125 
Q 3438 3516 3438 2322 
Q 3438 1128 3055 518 
Q 2672 -91 1925 -91 
Q 1178 -91 797 518 
Q 416 1128 416 2322 
Q 416 3516 797 4125 
Q 1178 4734 1925 4734 
z
M 1925 409 
Q 2369 409 2586 881 
Q 2803 1353 2803 2322 
Q 2803 2838 2741 3253 
L 1253 925 
Q 1488 409 1925 409 
z
M 1925 4234 
Q 1484 4234 1267 3762 
Q 1050 3291 1050 2322 
Q 1050 1881 1109 1497 
L 2566 3819 
Q 2328 4234 1925 4234 
z
" transform="scale(0.015625)"/>
       </defs>
       <use xlink:href="#Menlo-Regular-30"/>
      </g>
     </g>
    </g>
    <g id="ytick_2">
     <g id="line2d_15">
      <path d="M 29.707656 98.79566 
L 342.187656 98.79566 
" clip-path="url(#p24ab27a429)" style="fill: none; stroke: #1a1a1a; stroke-opacity: 0.15; stroke-width: 0.4; stroke-linejoin: miter"/>
     </g>
     <g id="line2d_16">
      <g>
       <use xlink:href="#mfd12bfccef" x="29.707656" y="98.79566" style="fill: #1a1a1a; stroke: #1a1a1a; stroke-width: 0.8"/>
      </g>
     </g>
     <g id="text_2">
      <!-- 20 -->
      <g style="fill: #1a1a1a" transform="translate(17.779219 101.464957) scale(0.07 -0.07)">
       <defs>
        <path id="Menlo-Regular-32" d="M 1166 531 
L 3309 531 
L 3309 0 
L 475 0 
L 475 531 
Q 1059 1147 1496 1619 
Q 1934 2091 2100 2284 
Q 2413 2666 2522 2902 
Q 2631 3138 2631 3384 
Q 2631 3775 2401 3997 
Q 2172 4219 1772 4219 
Q 1488 4219 1175 4116 
Q 863 4013 513 3803 
L 513 4441 
Q 834 4594 1145 4672 
Q 1456 4750 1759 4750 
Q 2444 4750 2861 4386 
Q 3278 4022 3278 3431 
Q 3278 3131 3139 2831 
Q 3000 2531 2688 2169 
Q 2513 1966 2180 1606 
Q 1847 1247 1166 531 
z
" transform="scale(0.015625)"/>
       </defs>
       <use xlink:href="#Menlo-Regular-32"/>
       <use xlink:href="#Menlo-Regular-30" transform="translate(60.205078 0)"/>
      </g>
     </g>
    </g>
    <g id="ytick_3">
     <g id="line2d_17">
      <path d="M 29.707656 75.124069 
L 342.187656 75.124069 
" clip-path="url(#p24ab27a429)" style="fill: none; stroke: #1a1a1a; stroke-opacity: 0.15; stroke-width: 0.4; stroke-linejoin: miter"/>
     </g>
     <g id="line2d_18">
      <g>
       <use xlink:href="#mfd12bfccef" x="29.707656" y="75.124069" style="fill: #1a1a1a; stroke: #1a1a1a; stroke-width: 0.8"/>
      </g>
     </g>
     <g id="text_3">
      <!-- 40 -->
      <g style="fill: #1a1a1a" transform="translate(17.779219 77.793366) scale(0.07 -0.07)">
       <defs>
        <path id="Menlo-Regular-34" d="M 2297 4091 
L 825 1625 
L 2297 1625 
L 2297 4091 
z
M 2194 4666 
L 2925 4666 
L 2925 1625 
L 3547 1625 
L 3547 1113 
L 2925 1113 
L 2925 0 
L 2297 0 
L 2297 1113 
L 319 1113 
L 319 1709 
L 2194 4666 
z
" transform="scale(0.015625)"/>
       </defs>
       <use xlink:href="#Menlo-Regular-34"/>
       <use xlink:href="#Menlo-Regular-30" transform="translate(60.205078 0)"/>
      </g>
     </g>
    </g>
    <g id="ytick_4">
     <g id="line2d_19">
      <path d="M 29.707656 51.452478 
L 342.187656 51.452478 
" clip-path="url(#p24ab27a429)" style="fill: none; stroke: #1a1a1a; stroke-opacity: 0.15; stroke-width: 0.4; stroke-linejoin: miter"/>
     </g>
     <g id="line2d_20">
      <g>
       <use xlink:href="#mfd12bfccef" x="29.707656" y="51.452478" style="fill: #1a1a1a; stroke: #1a1a1a; stroke-width: 0.8"/>
      </g>
     </g>
     <g id="text_4">
      <!-- 60 -->
      <g style="fill: #1a1a1a" transform="translate(17.779219 54.121775) scale(0.07 -0.07)">
       <defs>
        <path id="Menlo-Regular-36" d="M 3097 4563 
L 3097 3981 
Q 2900 4097 2678 4158 
Q 2456 4219 2216 4219 
Q 1616 4219 1306 3767 
Q 997 3316 997 2438 
Q 1147 2750 1412 2917 
Q 1678 3084 2022 3084 
Q 2697 3084 3067 2670 
Q 3438 2256 3438 1497 
Q 3438 741 3056 325 
Q 2675 -91 1984 -91 
Q 1172 -91 794 492 
Q 416 1075 416 2328 
Q 416 3509 870 4129 
Q 1325 4750 2188 4750 
Q 2419 4750 2650 4701 
Q 2881 4653 3097 4563 
z
M 1972 2591 
Q 1569 2591 1337 2300 
Q 1106 2009 1106 1497 
Q 1106 984 1337 693 
Q 1569 403 1972 403 
Q 2391 403 2603 679 
Q 2816 956 2816 1497 
Q 2816 2041 2603 2316 
Q 2391 2591 1972 2591 
z
" transform="scale(0.015625)"/>
       </defs>
       <use xlink:href="#Menlo-Regular-36"/>
       <use xlink:href="#Menlo-Regular-30" transform="translate(60.205078 0)"/>
      </g>
     </g>
    </g>
    <g id="ytick_5">
     <g id="line2d_21">
      <path d="M 29.707656 27.780888 
L 342.187656 27.780888 
" clip-path="url(#p24ab27a429)" style="fill: none; stroke: #1a1a1a; stroke-opacity: 0.15; stroke-width: 0.4; stroke-linejoin: miter"/>
     </g>
     <g id="line2d_22">
      <g>
       <use xlink:href="#mfd12bfccef" x="29.707656" y="27.780888" style="fill: #1a1a1a; stroke: #1a1a1a; stroke-width: 0.8"/>
      </g>
     </g>
     <g id="text_5">
      <!-- 80 -->
      <g style="fill: #1a1a1a" transform="translate(17.779219 30.450184) scale(0.07 -0.07)">
       <defs>
        <path id="Menlo-Regular-38" d="M 1925 2216 
Q 1503 2216 1273 1980 
Q 1044 1744 1044 1313 
Q 1044 881 1276 642 
Q 1509 403 1925 403 
Q 2350 403 2579 639 
Q 2809 875 2809 1313 
Q 2809 1741 2576 1978 
Q 2344 2216 1925 2216 
z
M 1375 2478 
Q 972 2581 745 2862 
Q 519 3144 519 3541 
Q 519 4097 897 4423 
Q 1275 4750 1925 4750 
Q 2578 4750 2956 4423 
Q 3334 4097 3334 3541 
Q 3334 3144 3107 2862 
Q 2881 2581 2478 2478 
Q 2947 2375 3195 2062 
Q 3444 1750 3444 1253 
Q 3444 622 3041 265 
Q 2638 -91 1925 -91 
Q 1213 -91 811 264 
Q 409 619 409 1247 
Q 409 1747 657 2061 
Q 906 2375 1375 2478 
z
M 1147 3481 
Q 1147 3106 1347 2909 
Q 1547 2713 1925 2713 
Q 2306 2713 2506 2909 
Q 2706 3106 2706 3481 
Q 2706 3863 2507 4063 
Q 2309 4263 1925 4263 
Q 1547 4263 1347 4061 
Q 1147 3859 1147 3481 
z
" transform="scale(0.015625)"/>
       </defs>
       <use xlink:href="#Menlo-Regular-38"/>
       <use xlink:href="#Menlo-Regular-30" transform="translate(60.205078 0)"/>
      </g>
     </g>
    </g>
    <g id="ytick_6">
     <g id="line2d_23">
      <path d="M 29.707656 4.109297 
L 342.187656 4.109297 
" clip-path="url(#p24ab27a429)" style="fill: none; stroke: #1a1a1a; stroke-opacity: 0.15; stroke-width: 0.4; stroke-linejoin: miter"/>
     </g>
     <g id="line2d_24">
      <g>
       <use xlink:href="#mfd12bfccef" x="29.707656" y="4.109297" style="fill: #1a1a1a; stroke: #1a1a1a; stroke-width: 0.8"/>
      </g>
     </g>
     <g id="text_6">
      <!-- 100 -->
      <g style="fill: #1a1a1a" transform="translate(13.565 6.778594) scale(0.07 -0.07)">
       <defs>
        <path id="Menlo-Regular-31" d="M 844 528 
L 1825 528 
L 1825 4053 
L 650 3488 
L 650 4094 
L 1819 4650 
L 2450 4650 
L 2450 528 
L 3419 528 
L 3419 0 
L 844 0 
L 844 528 
z
" transform="scale(0.015625)"/>
       </defs>
       <use xlink:href="#Menlo-Regular-31"/>
       <use xlink:href="#Menlo-Regular-30" transform="translate(60.205078 0)"/>
       <use xlink:href="#Menlo-Regular-30" transform="translate(120.410156 0)"/>
      </g>
     </g>
    </g>
    <g id="text_7">
     <!-- Test accuracy (%) -->
     <g style="fill: #1a1a1a" transform="translate(7.90125 104.226399) rotate(-90) scale(0.08 -0.08)">
      <defs>
       <path id="Menlo-Regular-54" d="M 147 4666 
L 3706 4666 
L 3706 4134 
L 2247 4134 
L 2247 0 
L 1613 0 
L 1613 4134 
L 147 4134 
L 147 4666 
z
" transform="scale(0.015625)"/>
       <path id="Menlo-Regular-65" d="M 3500 2038 
L 3500 1756 
L 1009 1756 
L 1009 1738 
Q 984 1022 1282 709 
Q 1581 397 2125 397 
Q 2400 397 2700 484 
Q 3000 572 3341 750 
L 3341 178 
Q 3013 44 2708 -23 
Q 2403 -91 2119 -91 
Q 1303 -91 843 398 
Q 384 888 384 1747 
Q 384 2584 834 3084 
Q 1284 3584 2034 3584 
Q 2703 3584 3089 3131 
Q 3475 2678 3500 2038 
z
M 2925 2206 
Q 2888 2569 2661 2833 
Q 2434 3097 2009 3097 
Q 1594 3097 1325 2822 
Q 1056 2547 1031 2203 
L 2925 2206 
z
" transform="scale(0.015625)"/>
       <path id="Menlo-Regular-73" d="M 3041 3378 
L 3041 2816 
Q 2794 2959 2544 3031 
Q 2294 3103 2034 3103 
Q 1644 3103 1451 2976 
Q 1259 2850 1259 2591 
Q 1259 2356 1403 2240 
Q 1547 2125 2119 2016 
L 2350 1972 
Q 2778 1891 2998 1647 
Q 3219 1403 3219 1013 
Q 3219 494 2850 201 
Q 2481 -91 1825 -91 
Q 1566 -91 1281 -36 
Q 997 19 666 128 
L 666 722 
Q 988 556 1281 473 
Q 1575 391 1838 391 
Q 2219 391 2428 545 
Q 2638 700 2638 978 
Q 2638 1378 1872 1531 
L 1847 1538 
L 1631 1581 
Q 1134 1678 906 1908 
Q 678 2138 678 2534 
Q 678 3038 1018 3311 
Q 1359 3584 1991 3584 
Q 2272 3584 2531 3532 
Q 2791 3481 3041 3378 
z
" transform="scale(0.015625)"/>
       <path id="Menlo-Regular-74" d="M 1919 4494 
L 1919 3500 
L 3225 3500 
L 3225 3053 
L 1919 3053 
L 1919 1153 
Q 1919 766 2066 612 
Q 2213 459 2578 459 
L 3225 459 
L 3225 0 
L 2522 0 
Q 1875 0 1609 259 
Q 1344 519 1344 1153 
L 1344 3053 
L 409 3053 
L 409 3500 
L 1344 3500 
L 1344 4494 
L 1919 4494 
z
" transform="scale(0.015625)"/>
       <path id="Menlo-Regular-20" transform="scale(0.015625)"/>
       <path id="Menlo-Regular-61" d="M 2194 1759 
L 2003 1759 
Q 1500 1759 1245 1582 
Q 991 1406 991 1056 
Q 991 741 1181 566 
Q 1372 391 1709 391 
Q 2184 391 2456 720 
Q 2728 1050 2731 1631 
L 2731 1759 
L 2194 1759 
z
M 3309 1997 
L 3309 0 
L 2731 0 
L 2731 519 
Q 2547 206 2267 57 
Q 1988 -91 1588 -91 
Q 1053 -91 734 211 
Q 416 513 416 1019 
Q 416 1603 808 1906 
Q 1200 2209 1959 2209 
L 2731 2209 
L 2731 2300 
Q 2728 2719 2518 2908 
Q 2309 3097 1850 3097 
Q 1556 3097 1256 3012 
Q 956 2928 672 2766 
L 672 3341 
Q 991 3463 1283 3523 
Q 1575 3584 1850 3584 
Q 2284 3584 2592 3456 
Q 2900 3328 3091 3072 
Q 3209 2916 3259 2686 
Q 3309 2456 3309 1997 
z
" transform="scale(0.015625)"/>
       <path id="Menlo-Regular-63" d="M 3316 178 
Q 3084 44 2839 -23 
Q 2594 -91 2338 -91 
Q 1525 -91 1067 396 
Q 609 884 609 1747 
Q 609 2609 1067 3096 
Q 1525 3584 2338 3584 
Q 2591 3584 2831 3518 
Q 3072 3453 3316 3316 
L 3316 2713 
Q 3088 2916 2858 3006 
Q 2628 3097 2338 3097 
Q 1797 3097 1506 2747 
Q 1216 2397 1216 1747 
Q 1216 1100 1508 748 
Q 1800 397 2338 397 
Q 2638 397 2875 489 
Q 3113 581 3316 775 
L 3316 178 
z
" transform="scale(0.015625)"/>
       <path id="Menlo-Regular-75" d="M 609 1325 
L 609 3494 
L 1184 3494 
L 1184 1325 
Q 1184 853 1351 631 
Q 1519 409 1869 409 
Q 2275 409 2490 695 
Q 2706 981 2706 1516 
L 2706 3494 
L 3284 3494 
L 3284 0 
L 2706 0 
L 2706 525 
Q 2553 222 2289 65 
Q 2025 -91 1672 -91 
Q 1134 -91 871 261 
Q 609 613 609 1325 
z
" transform="scale(0.015625)"/>
       <path id="Menlo-Regular-72" d="M 3609 2778 
Q 3425 2922 3234 2987 
Q 3044 3053 2816 3053 
Q 2278 3053 1993 2715 
Q 1709 2378 1709 1741 
L 1709 0 
L 1131 0 
L 1131 3500 
L 1709 3500 
L 1709 2816 
Q 1853 3188 2151 3386 
Q 2450 3584 2859 3584 
Q 3072 3584 3256 3531 
Q 3441 3478 3609 3366 
L 3609 2778 
z
" transform="scale(0.015625)"/>
       <path id="Menlo-Regular-79" d="M 2681 1125 
Q 2538 759 2316 163 
Q 2006 -663 1900 -844 
Q 1756 -1088 1540 -1209 
Q 1325 -1331 1038 -1331 
L 575 -1331 
L 575 -850 
L 916 -850 
Q 1169 -850 1312 -703 
Q 1456 -556 1678 56 
L 325 3500 
L 934 3500 
L 1972 763 
L 2994 3500 
L 3603 3500 
L 2681 1125 
z
" transform="scale(0.015625)"/>
       <path id="Menlo-Regular-28" d="M 2672 5169 
Q 2256 4456 2051 3748 
Q 1847 3041 1847 2322 
Q 1847 1606 2051 897 
Q 2256 188 2672 -531 
L 2172 -531 
Q 1700 213 1469 917 
Q 1238 1622 1238 2322 
Q 1238 3019 1469 3725 
Q 1700 4431 2172 5169 
L 2672 5169 
z
" transform="scale(0.015625)"/>
       <path id="Menlo-Regular-25" d="M 2175 997 
Q 2175 753 2339 587 
Q 2503 422 2747 422 
Q 2988 422 3155 589 
Q 3322 756 3322 997 
Q 3322 1238 3153 1406 
Q 2984 1575 2747 1575 
Q 2503 1575 2339 1409 
Q 2175 1244 2175 997 
z
M 1753 997 
Q 1753 1419 2040 1708 
Q 2328 1997 2747 1997 
Q 2947 1997 3126 1922 
Q 3306 1847 3450 1703 
Q 3594 1556 3672 1375 
Q 3750 1194 3750 997 
Q 3750 581 3459 290 
Q 3169 0 2747 0 
Q 2322 0 2037 286 
Q 1753 572 1753 997 
z
M 259 1375 
L 122 1728 
L 3606 3122 
L 3763 2769 
L 259 1375 
z
M 525 3475 
Q 525 3228 689 3064 
Q 853 2900 1100 2900 
Q 1341 2900 1509 3067 
Q 1678 3234 1678 3475 
Q 1678 3716 1509 3883 
Q 1341 4050 1100 4050 
Q 859 4050 692 3884 
Q 525 3719 525 3475 
z
M 103 3475 
Q 103 3897 390 4186 
Q 678 4475 1100 4475 
Q 1300 4475 1483 4400 
Q 1666 4325 1806 4184 
Q 1947 4044 2023 3861 
Q 2100 3678 2100 3475 
Q 2100 3056 1809 2767 
Q 1519 2478 1100 2478 
Q 678 2478 390 2765 
Q 103 3053 103 3475 
z
" transform="scale(0.015625)"/>
       <path id="Menlo-Regular-29" d="M 1088 5169 
L 1588 5169 
Q 2059 4431 2290 3725 
Q 2522 3019 2522 2322 
Q 2522 1619 2290 912 
Q 2059 206 1588 -531 
L 1088 -531 
Q 1503 194 1708 903 
Q 1913 1613 1913 2322 
Q 1913 3034 1708 3743 
Q 1503 4453 1088 5169 
z
" transform="scale(0.015625)"/>
      </defs>
      <use xlink:href="#Menlo-Regular-54"/>
      <use xlink:href="#Menlo-Regular-65" transform="translate(60.205078 0)"/>
      <use xlink:href="#Menlo-Regular-73" transform="translate(120.410156 0)"/>
      <use xlink:href="#Menlo-Regular-74" transform="translate(180.615234 0)"/>
      <use xlink:href="#Menlo-Regular-20" transform="translate(240.820312 0)"/>
      <use xlink:href="#Menlo-Regular-61" transform="translate(301.025391 0)"/>
      <use xlink:href="#Menlo-Regular-63" transform="translate(361.230469 0)"/>
      <use xlink:href="#Menlo-Regular-63" transform="translate(421.435547 0)"/>
      <use xlink:href="#Menlo-Regular-75" transform="translate(481.640625 0)"/>
      <use xlink:href="#Menlo-Regular-72" transform="translate(541.845703 0)"/>
      <use xlink:href="#Menlo-Regular-61" transform="translate(602.050781 0)"/>
      <use xlink:href="#Menlo-Regular-63" transform="translate(662.255859 0)"/>
      <use xlink:href="#Menlo-Regular-79" transform="translate(722.460938 0)"/>
      <use xlink:href="#Menlo-Regular-20" transform="translate(782.666016 0)"/>
      <use xlink:href="#Menlo-Regular-28" transform="translate(842.871094 0)"/>
      <use xlink:href="#Menlo-Regular-25" transform="translate(903.076172 0)"/>
      <use xlink:href="#Menlo-Regular-29" transform="translate(963.28125 0)"/>
     </g>
    </g>
   </g>
   <g id="line2d_25">
    <path d="M 43.911293 92.624138 
L 49.708695 73.940489 
L 55.506098 52.805141 
L 61.3035 34.206034 
L 67.100903 26.259142 
L 72.898306 21.693907 
L 78.695708 20.003079 
L 84.493111 18.650417 
L 90.290513 17.297755 
L 96.087916 18.988582 
L 101.885319 17.720462 
L 107.682721 17.889544 
L 113.480124 17.297755 
L 119.277526 16.959589 
L 125.074929 16.705965 
L 130.872332 17.213213 
L 136.669734 17.466837 
L 142.467137 17.466837 
L 148.264539 16.114175 
L 154.061942 16.283258 
L 159.859345 16.452341 
L 165.656747 17.551379 
L 171.45415 16.959589 
L 177.251552 16.705965 
L 183.048955 17.213213 
L 188.846358 16.367799 
L 194.64376 15.691468 
L 200.441163 15.945092 
L 206.238565 16.536882 
L 212.035968 15.860551 
L 217.833371 16.705965 
L 223.630773 16.705965 
L 229.428176 16.452341 
L 235.225578 16.959589 
L 241.022981 16.621423 
L 246.820384 17.297755 
L 252.617786 16.536882 
L 258.415189 17.213213 
L 264.212591 16.536882 
L 270.009994 16.959589 
L 275.807397 16.114175 
L 281.604799 15.860551 
L 287.402202 16.283258 
L 293.199604 16.198716 
L 298.997007 15.776009 
L 304.794409 16.452341 
L 310.591812 15.18422 
L 316.389215 16.029634 
L 322.186617 16.114175 
L 327.98402 15.691468 
" clip-path="url(#p24ab27a429)" style="fill: none; stroke: #440154; stroke-opacity: 0.85; stroke-linejoin: miter"/>
   </g>
   <g id="line2d_26">
    <path d="M 43.911293 83.155502 
L 49.708695 63.119191 
L 55.506098 45.619122 
L 61.3035 29.809881 
L 67.100903 22.792945 
L 72.898306 21.102117 
L 78.695708 18.650417 
L 84.493111 18.312251 
L 90.290513 17.720462 
L 96.087916 18.734958 
L 101.885319 16.875048 
L 107.682721 17.128672 
L 113.480124 17.466837 
L 119.277526 17.805003 
L 125.074929 16.959589 
L 130.872332 17.720462 
L 136.669734 18.058627 
L 142.467137 17.720462 
L 148.264539 16.959589 
L 154.061942 17.297755 
L 159.859345 17.720462 
L 165.656747 17.63592 
L 171.45415 17.551379 
L 177.251552 16.452341 
L 183.048955 16.875048 
L 188.846358 16.790506 
L 194.64376 16.790506 
L 200.441163 17.04413 
L 206.238565 16.705965 
L 212.035968 17.04413 
L 217.833371 17.297755 
L 223.630773 16.536882 
L 229.428176 17.213213 
L 235.225578 17.805003 
L 241.022981 17.382296 
L 246.820384 17.04413 
L 252.617786 16.790506 
L 258.415189 16.790506 
L 264.212591 15.776009 
L 270.009994 16.283258 
L 275.807397 16.029634 
L 281.604799 16.452341 
L 287.402202 16.536882 
L 293.199604 16.283258 
L 298.997007 16.114175 
L 304.794409 16.283258 
L 310.591812 15.18422 
L 316.389215 15.522385 
L 322.186617 15.606927 
L 327.98402 15.437844 
" clip-path="url(#p24ab27a429)" style="fill: none; stroke: #440154; stroke-opacity: 0.85; stroke-linejoin: miter"/>
   </g>
   <g id="line2d_27">
    <path d="M 43.911293 75.039528 
L 49.708695 41.053887 
L 55.506098 30.063505 
L 61.3035 25.920977 
L 67.100903 22.032073 
L 72.898306 19.664914 
L 78.695708 18.734958 
L 84.493111 17.974086 
L 90.290513 17.382296 
L 96.087916 18.8195 
L 101.885319 17.974086 
L 107.682721 17.889544 
L 113.480124 17.297755 
L 119.277526 16.705965 
L 125.074929 17.213213 
L 130.872332 16.959589 
L 136.669734 16.536882 
L 142.467137 17.04413 
L 148.264539 17.297755 
L 154.061942 17.213213 
L 159.859345 16.790506 
L 165.656747 17.551379 
L 171.45415 16.705965 
L 177.251552 15.945092 
L 183.048955 16.452341 
L 188.846358 15.945092 
L 194.64376 16.198716 
L 200.441163 16.452341 
L 206.238565 15.860551 
L 212.035968 15.606927 
L 217.833371 16.367799 
L 223.630773 16.283258 
L 229.428176 16.621423 
L 235.225578 16.367799 
L 241.022981 15.945092 
L 246.820384 15.606927 
L 252.617786 15.945092 
L 258.415189 15.776009 
L 264.212591 15.776009 
L 270.009994 15.860551 
L 275.807397 16.029634 
L 281.604799 16.198716 
L 287.402202 15.606927 
L 293.199604 16.114175 
L 298.997007 15.860551 
L 304.794409 15.945092 
L 310.591812 15.099678 
L 316.389215 15.606927 
L 322.186617 15.268761 
L 327.98402 15.18422 
" clip-path="url(#p24ab27a429)" style="fill: none; stroke: #440154; stroke-opacity: 0.85; stroke-linejoin: miter"/>
   </g>
   <g id="line2d_28">
    <path d="M 43.911293 27.780888 
L 49.708695 20.67941 
L 55.506098 19.073124 
L 61.3035 17.805003 
L 67.100903 17.297755 
L 72.898306 17.128672 
L 78.695708 16.875048 
L 84.493111 17.128672 
L 90.290513 17.551379 
L 96.087916 17.889544 
L 101.885319 16.621423 
L 107.682721 16.705965 
L 113.480124 16.283258 
L 119.277526 16.790506 
L 125.074929 16.875048 
L 130.872332 16.790506 
L 136.669734 16.283258 
L 142.467137 16.198716 
L 148.264539 15.437844 
L 154.061942 15.268761 
L 159.859345 15.18422 
L 165.656747 15.18422 
L 171.45415 15.860551 
L 177.251552 15.268761 
L 183.048955 14.930595 
L 188.846358 14.59243 
L 194.64376 14.676971 
L 200.441163 14.930595 
L 206.238565 14.930595 
L 212.035968 15.437844 
L 217.833371 14.761513 
L 223.630773 15.18422 
L 229.428176 15.099678 
L 235.225578 14.507889 
L 241.022981 14.761513 
L 246.820384 15.099678 
L 252.617786 14.846054 
L 258.415189 14.846054 
L 264.212591 14.846054 
L 270.009994 14.846054 
L 275.807397 15.268761 
L 281.604799 14.338806 
L 287.402202 15.522385 
L 293.199604 15.522385 
L 298.997007 14.930595 
L 304.794409 14.846054 
L 310.591812 14.761513 
L 316.389215 14.254264 
L 322.186617 14.254264 
L 327.98402 14.761513 
" clip-path="url(#p24ab27a429)" style="fill: none; stroke: #3b528b; stroke-opacity: 0.85; stroke-linejoin: miter"/>
   </g>
   <g id="line2d_29">
    <path d="M 43.911293 28.54176 
L 49.708695 21.017576 
L 55.506098 19.495831 
L 61.3035 17.805003 
L 67.100903 16.790506 
L 72.898306 17.128672 
L 78.695708 16.621423 
L 84.493111 16.790506 
L 90.290513 17.04413 
L 96.087916 17.297755 
L 101.885319 15.860551 
L 107.682721 15.945092 
L 113.480124 15.268761 
L 119.277526 15.099678 
L 125.074929 15.776009 
L 130.872332 16.029634 
L 136.669734 15.099678 
L 142.467137 15.18422 
L 148.264539 15.691468 
L 154.061942 15.437844 
L 159.859345 15.522385 
L 165.656747 15.691468 
L 171.45415 15.268761 
L 177.251552 15.353302 
L 183.048955 15.437844 
L 188.846358 15.268761 
L 194.64376 14.761513 
L 200.441163 14.846054 
L 206.238565 15.606927 
L 212.035968 14.59243 
L 217.833371 14.676971 
L 223.630773 14.676971 
L 229.428176 14.846054 
L 235.225578 15.606927 
L 241.022981 15.268761 
L 246.820384 15.268761 
L 252.617786 15.268761 
L 258.415189 15.268761 
L 264.212591 14.761513 
L 270.009994 15.353302 
L 275.807397 15.353302 
L 281.604799 14.59243 
L 287.402202 15.522385 
L 293.199604 14.761513 
L 298.997007 15.015137 
L 304.794409 15.18422 
L 310.591812 15.099678 
L 316.389215 14.930595 
L 322.186617 14.59243 
L 327.98402 14.761513 
" clip-path="url(#p24ab27a429)" style="fill: none; stroke: #3b528b; stroke-opacity: 0.85; stroke-linejoin: miter"/>
   </g>
   <g id="line2d_30">
    <path d="M 43.911293 27.442722 
L 49.708695 20.425786 
L 55.506098 18.734958 
L 61.3035 17.551379 
L 67.100903 17.466837 
L 72.898306 17.128672 
L 78.695708 15.945092 
L 84.493111 16.959589 
L 90.290513 16.536882 
L 96.087916 17.213213 
L 101.885319 16.452341 
L 107.682721 15.860551 
L 113.480124 15.945092 
L 119.277526 15.860551 
L 125.074929 15.606927 
L 130.872332 16.283258 
L 136.669734 15.860551 
L 142.467137 15.776009 
L 148.264539 15.522385 
L 154.061942 15.606927 
L 159.859345 15.945092 
L 165.656747 16.114175 
L 171.45415 15.691468 
L 177.251552 14.423347 
L 183.048955 14.930595 
L 188.846358 14.676971 
L 194.64376 14.676971 
L 200.441163 15.099678 
L 206.238565 14.507889 
L 212.035968 14.423347 
L 217.833371 14.423347 
L 223.630773 14.761513 
L 229.428176 15.18422 
L 235.225578 14.930595 
L 241.022981 14.930595 
L 246.820384 14.846054 
L 252.617786 15.353302 
L 258.415189 14.59243 
L 264.212591 14.59243 
L 270.009994 15.015137 
L 275.807397 13.916099 
L 281.604799 14.676971 
L 287.402202 14.676971 
L 293.199604 15.606927 
L 298.997007 14.761513 
L 304.794409 15.522385 
L 310.591812 15.015137 
L 316.389215 14.676971 
L 322.186617 14.676971 
L 327.98402 14.423347 
" clip-path="url(#p24ab27a429)" style="fill: none; stroke: #3b528b; stroke-opacity: 0.85; stroke-linejoin: miter"/>
   </g>
   <g id="line2d_31">
    <path d="M 43.911293 24.90648 
L 49.708695 21.186659 
L 55.506098 19.580372 
L 61.3035 18.143169 
L 67.100903 17.128672 
L 72.898306 17.297755 
L 78.695708 17.63592 
L 84.493111 17.63592 
L 90.290513 16.875048 
L 96.087916 17.63592 
L 101.885319 17.889544 
L 107.682721 18.143169 
L 113.480124 17.466837 
L 119.277526 17.297755 
L 125.074929 16.536882 
L 130.872332 17.805003 
L 136.669734 17.213213 
L 142.467137 17.551379 
L 148.264539 16.959589 
L 154.061942 16.621423 
L 159.859345 16.621423 
L 165.656747 16.959589 
L 171.45415 17.551379 
L 177.251552 16.536882 
L 183.048955 16.790506 
L 188.846358 16.114175 
L 194.64376 16.029634 
L 200.441163 16.452341 
L 206.238565 15.945092 
L 212.035968 16.283258 
L 217.833371 15.945092 
L 223.630773 16.621423 
L 229.428176 15.353302 
L 235.225578 15.353302 
L 241.022981 15.776009 
L 246.820384 15.353302 
L 252.617786 16.452341 
L 258.415189 15.606927 
L 264.212591 16.705965 
L 270.009994 15.691468 
L 275.807397 15.522385 
L 281.604799 16.029634 
L 287.402202 16.536882 
L 293.199604 15.606927 
L 298.997007 16.114175 
L 304.794409 15.18422 
L 310.591812 15.860551 
L 316.389215 15.606927 
L 322.186617 15.353302 
L 327.98402 14.930595 
" clip-path="url(#p24ab27a429)" style="fill: none; stroke: #21918c; stroke-opacity: 0.85; stroke-linejoin: miter"/>
   </g>
   <g id="line2d_32">
    <path d="M 43.911293 26.09006 
L 49.708695 21.524824 
L 55.506098 19.749455 
L 61.3035 18.396793 
L 67.100903 17.128672 
L 72.898306 17.128672 
L 78.695708 17.213213 
L 84.493111 18.312251 
L 90.290513 17.04413 
L 96.087916 17.382296 
L 101.885319 17.466837 
L 107.682721 17.974086 
L 113.480124 17.297755 
L 119.277526 16.959589 
L 125.074929 16.283258 
L 130.872332 17.974086 
L 136.669734 16.029634 
L 142.467137 16.959589 
L 148.264539 16.536882 
L 154.061942 16.790506 
L 159.859345 17.213213 
L 165.656747 16.790506 
L 171.45415 16.875048 
L 177.251552 16.198716 
L 183.048955 16.536882 
L 188.846358 15.606927 
L 194.64376 16.536882 
L 200.441163 16.367799 
L 206.238565 16.114175 
L 212.035968 15.437844 
L 217.833371 15.099678 
L 223.630773 15.776009 
L 229.428176 15.860551 
L 235.225578 15.353302 
L 241.022981 15.945092 
L 246.820384 14.761513 
L 252.617786 15.353302 
L 258.415189 15.18422 
L 264.212591 15.437844 
L 270.009994 15.522385 
L 275.807397 15.522385 
L 281.604799 15.860551 
L 287.402202 16.029634 
L 293.199604 15.353302 
L 298.997007 15.18422 
L 304.794409 15.860551 
L 310.591812 15.691468 
L 316.389215 15.099678 
L 322.186617 16.198716 
L 327.98402 15.437844 
" clip-path="url(#p24ab27a429)" style="fill: none; stroke: #21918c; stroke-opacity: 0.85; stroke-linejoin: miter"/>
   </g>
   <g id="line2d_33">
    <path d="M 43.911293 25.751894 
L 49.708695 20.67941 
L 55.506098 19.833996 
L 61.3035 18.734958 
L 67.100903 17.63592 
L 72.898306 17.720462 
L 78.695708 17.297755 
L 84.493111 16.536882 
L 90.290513 17.213213 
L 96.087916 17.466837 
L 101.885319 17.63592 
L 107.682721 18.143169 
L 113.480124 17.382296 
L 119.277526 18.143169 
L 125.074929 17.213213 
L 130.872332 18.143169 
L 136.669734 17.297755 
L 142.467137 17.805003 
L 148.264539 16.705965 
L 154.061942 16.790506 
L 159.859345 17.128672 
L 165.656747 16.790506 
L 171.45415 16.705965 
L 177.251552 16.114175 
L 183.048955 16.875048 
L 188.846358 15.860551 
L 194.64376 15.691468 
L 200.441163 16.367799 
L 206.238565 16.283258 
L 212.035968 16.452341 
L 217.833371 15.860551 
L 223.630773 15.522385 
L 229.428176 15.860551 
L 235.225578 15.268761 
L 241.022981 15.437844 
L 246.820384 15.18422 
L 252.617786 16.367799 
L 258.415189 14.846054 
L 264.212591 15.268761 
L 270.009994 14.930595 
L 275.807397 15.522385 
L 281.604799 15.691468 
L 287.402202 16.536882 
L 293.199604 15.18422 
L 298.997007 15.691468 
L 304.794409 15.522385 
L 310.591812 15.606927 
L 316.389215 15.945092 
L 322.186617 15.776009 
L 327.98402 15.691468 
" clip-path="url(#p24ab27a429)" style="fill: none; stroke: #21918c; stroke-opacity: 0.85; stroke-linejoin: miter"/>
   </g>
   <g id="line2d_34">
    <path d="M 43.911293 25.582811 
L 49.708695 19.833996 
L 55.506098 18.481334 
L 61.3035 17.382296 
L 67.100903 16.705965 
L 72.898306 17.128672 
L 78.695708 17.720462 
L 84.493111 17.466837 
L 90.290513 16.536882 
L 96.087916 16.621423 
L 101.885319 16.705965 
L 107.682721 16.198716 
L 113.480124 16.114175 
L 119.277526 16.114175 
L 125.074929 15.606927 
L 130.872332 16.283258 
L 136.669734 16.621423 
L 142.467137 16.536882 
L 148.264539 17.466837 
L 154.061942 16.621423 
L 159.859345 17.213213 
L 165.656747 16.959589 
L 171.45415 16.114175 
L 177.251552 16.198716 
L 183.048955 16.875048 
L 188.846358 16.621423 
L 194.64376 16.536882 
L 200.441163 16.029634 
L 206.238565 15.691468 
L 212.035968 16.536882 
L 217.833371 16.029634 
L 223.630773 16.029634 
L 229.428176 16.452341 
L 235.225578 16.198716 
L 241.022981 15.860551 
L 246.820384 15.945092 
L 252.617786 16.705965 
L 258.415189 16.536882 
L 264.212591 15.522385 
L 270.009994 15.860551 
L 275.807397 15.18422 
L 281.604799 15.691468 
L 287.402202 15.099678 
L 293.199604 16.029634 
L 298.997007 16.114175 
L 304.794409 16.029634 
L 310.591812 16.198716 
L 316.389215 16.114175 
L 322.186617 16.536882 
L 327.98402 15.268761 
" clip-path="url(#p24ab27a429)" style="fill: none; stroke: #5ec962; stroke-opacity: 0.85; stroke-linejoin: miter"/>
   </g>
   <g id="line2d_35">
    <path d="M 43.911293 26.09006 
L 49.708695 20.087621 
L 55.506098 17.889544 
L 61.3035 16.705965 
L 67.100903 16.621423 
L 72.898306 17.466837 
L 78.695708 17.04413 
L 84.493111 17.382296 
L 90.290513 15.945092 
L 96.087916 16.705965 
L 101.885319 16.283258 
L 107.682721 16.283258 
L 113.480124 16.114175 
L 119.277526 16.452341 
L 125.074929 15.268761 
L 130.872332 16.114175 
L 136.669734 16.452341 
L 142.467137 16.367799 
L 148.264539 17.04413 
L 154.061942 16.114175 
L 159.859345 16.790506 
L 165.656747 16.621423 
L 171.45415 15.606927 
L 177.251552 16.198716 
L 183.048955 16.029634 
L 188.846358 15.860551 
L 194.64376 16.536882 
L 200.441163 15.606927 
L 206.238565 15.945092 
L 212.035968 16.114175 
L 217.833371 15.522385 
L 223.630773 15.437844 
L 229.428176 15.945092 
L 235.225578 16.283258 
L 241.022981 15.353302 
L 246.820384 15.606927 
L 252.617786 15.522385 
L 258.415189 16.198716 
L 264.212591 15.353302 
L 270.009994 15.860551 
L 275.807397 15.268761 
L 281.604799 16.114175 
L 287.402202 15.691468 
L 293.199604 14.930595 
L 298.997007 15.353302 
L 304.794409 15.353302 
L 310.591812 16.198716 
L 316.389215 16.367799 
L 322.186617 15.945092 
L 327.98402 15.522385 
" clip-path="url(#p24ab27a429)" style="fill: none; stroke: #5ec962; stroke-opacity: 0.85; stroke-linejoin: miter"/>
   </g>
   <g id="line2d_36">
    <path d="M 43.911293 25.582811 
L 49.708695 19.749455 
L 55.506098 18.565875 
L 61.3035 17.63592 
L 67.100903 15.945092 
L 72.898306 17.63592 
L 78.695708 17.466837 
L 84.493111 17.297755 
L 90.290513 16.959589 
L 96.087916 17.297755 
L 101.885319 16.114175 
L 107.682721 15.945092 
L 113.480124 15.268761 
L 119.277526 16.114175 
L 125.074929 15.606927 
L 130.872332 16.029634 
L 136.669734 15.945092 
L 142.467137 15.268761 
L 148.264539 16.705965 
L 154.061942 16.536882 
L 159.859345 16.875048 
L 165.656747 16.959589 
L 171.45415 16.283258 
L 177.251552 16.367799 
L 183.048955 16.114175 
L 188.846358 15.776009 
L 194.64376 16.367799 
L 200.441163 15.18422 
L 206.238565 15.776009 
L 212.035968 15.18422 
L 217.833371 16.029634 
L 223.630773 15.099678 
L 229.428176 15.437844 
L 235.225578 16.536882 
L 241.022981 15.353302 
L 246.820384 15.776009 
L 252.617786 16.029634 
L 258.415189 15.437844 
L 264.212591 15.353302 
L 270.009994 15.268761 
L 275.807397 15.522385 
L 281.604799 16.283258 
L 287.402202 15.522385 
L 293.199604 15.437844 
L 298.997007 16.029634 
L 304.794409 15.776009 
L 310.591812 16.536882 
L 316.389215 16.198716 
L 322.186617 16.114175 
L 327.98402 15.606927 
" clip-path="url(#p24ab27a429)" style="fill: none; stroke: #5ec962; stroke-opacity: 0.85; stroke-linejoin: miter"/>
   </g>
   <g id="line2d_37">
    <path d="M 43.911293 26.512767 
L 49.708695 21.778449 
L 55.506098 19.157665 
L 61.3035 19.326748 
L 67.100903 17.889544 
L 72.898306 18.22771 
L 78.695708 18.396793 
L 84.493111 18.734958 
L 90.290513 16.705965 
L 96.087916 17.889544 
L 101.885319 18.734958 
L 107.682721 18.143169 
L 113.480124 17.551379 
L 119.277526 17.297755 
L 125.074929 16.790506 
L 130.872332 17.297755 
L 136.669734 17.04413 
L 142.467137 17.974086 
L 148.264539 18.058627 
L 154.061942 17.297755 
L 159.859345 17.213213 
L 165.656747 17.128672 
L 171.45415 17.297755 
L 177.251552 16.959589 
L 183.048955 16.959589 
L 188.846358 16.875048 
L 194.64376 17.04413 
L 200.441163 16.452341 
L 206.238565 16.198716 
L 212.035968 16.283258 
L 217.833371 15.437844 
L 223.630773 15.015137 
L 229.428176 16.283258 
L 235.225578 16.621423 
L 241.022981 15.437844 
L 246.820384 15.945092 
L 252.617786 16.367799 
L 258.415189 16.198716 
L 264.212591 16.875048 
L 270.009994 16.029634 
L 275.807397 15.776009 
L 281.604799 16.452341 
L 287.402202 15.268761 
L 293.199604 15.945092 
L 298.997007 16.452341 
L 304.794409 16.367799 
L 310.591812 16.452341 
L 316.389215 16.790506 
L 322.186617 16.959589 
L 327.98402 16.367799 
" clip-path="url(#p24ab27a429)" style="fill: none; stroke: #fde725; stroke-opacity: 0.85; stroke-linejoin: miter"/>
   </g>
   <g id="line2d_38">
    <path d="M 43.911293 25.160104 
L 49.708695 20.67941 
L 55.506098 18.22771 
L 61.3035 18.396793 
L 67.100903 17.63592 
L 72.898306 18.22771 
L 78.695708 17.805003 
L 84.493111 18.565875 
L 90.290513 17.974086 
L 96.087916 17.974086 
L 101.885319 17.805003 
L 107.682721 17.720462 
L 113.480124 17.382296 
L 119.277526 17.720462 
L 125.074929 16.790506 
L 130.872332 17.04413 
L 136.669734 17.128672 
L 142.467137 18.565875 
L 148.264539 17.63592 
L 154.061942 17.04413 
L 159.859345 17.382296 
L 165.656747 17.466837 
L 171.45415 17.213213 
L 177.251552 16.536882 
L 183.048955 16.875048 
L 188.846358 16.875048 
L 194.64376 16.452341 
L 200.441163 16.283258 
L 206.238565 16.029634 
L 212.035968 16.029634 
L 217.833371 15.437844 
L 223.630773 15.606927 
L 229.428176 15.860551 
L 235.225578 15.606927 
L 241.022981 15.437844 
L 246.820384 15.691468 
L 252.617786 16.029634 
L 258.415189 15.776009 
L 264.212591 16.198716 
L 270.009994 15.691468 
L 275.807397 15.776009 
L 281.604799 16.452341 
L 287.402202 15.776009 
L 293.199604 16.198716 
L 298.997007 16.029634 
L 304.794409 16.367799 
L 310.591812 16.367799 
L 316.389215 16.283258 
L 322.186617 16.875048 
L 327.98402 16.452341 
" clip-path="url(#p24ab27a429)" style="fill: none; stroke: #fde725; stroke-opacity: 0.85; stroke-linejoin: miter"/>
   </g>
   <g id="line2d_39">
    <path d="M 43.911293 26.597308 
L 49.708695 20.172162 
L 55.506098 19.749455 
L 61.3035 19.411289 
L 67.100903 18.22771 
L 72.898306 18.8195 
L 78.695708 17.720462 
L 84.493111 18.22771 
L 90.290513 17.382296 
L 96.087916 17.466837 
L 101.885319 18.058627 
L 107.682721 17.551379 
L 113.480124 17.63592 
L 119.277526 17.63592 
L 125.074929 17.04413 
L 130.872332 17.551379 
L 136.669734 16.283258 
L 142.467137 17.63592 
L 148.264539 18.396793 
L 154.061942 17.63592 
L 159.859345 17.128672 
L 165.656747 17.04413 
L 171.45415 17.974086 
L 177.251552 17.382296 
L 183.048955 17.04413 
L 188.846358 17.297755 
L 194.64376 16.452341 
L 200.441163 16.283258 
L 206.238565 16.114175 
L 212.035968 16.283258 
L 217.833371 16.114175 
L 223.630773 15.522385 
L 229.428176 16.283258 
L 235.225578 15.606927 
L 241.022981 15.776009 
L 246.820384 15.437844 
L 252.617786 16.029634 
L 258.415189 15.437844 
L 264.212591 15.945092 
L 270.009994 15.437844 
L 275.807397 15.691468 
L 281.604799 15.945092 
L 287.402202 16.114175 
L 293.199604 16.283258 
L 298.997007 16.198716 
L 304.794409 15.860551 
L 310.591812 17.04413 
L 316.389215 15.776009 
L 322.186617 16.705965 
L 327.98402 16.621423 
" clip-path="url(#p24ab27a429)" style="fill: none; stroke: #fde725; stroke-opacity: 0.85; stroke-linejoin: miter"/>
   </g>
   <g id="patch_3">
    <path d="M 29.707656 122.46725 
L 29.707656 4.109297 
" style="fill: none; stroke: #1a1a1a; stroke-width: 0.8; stroke-linejoin: miter; stroke-linecap: square"/>
   </g>
   <g id="patch_4">
    <path d="M 29.707656 122.46725 
L 342.187656 122.46725 
" style="fill: none; stroke: #1a1a1a; stroke-width: 0.8; stroke-linejoin: miter; stroke-linecap: square"/>
   </g>
   <g id="legend_1">
    <g id="line2d_40">
     <path d="M 191.360625 91.672719 
L 196.960625 91.672719 
L 202.560625 91.672719 
" style="fill: none; stroke: #440154; stroke-opacity: 0.85; stroke-linejoin: miter"/>
    </g>
    <g id="text_8">
     <!-- Δt = 0.05 ms -->
     <g style="fill: #1a1a1a" transform="translate(208.160625 94.122719) scale(0.07 -0.07)">
      <defs>
       <path id="Menlo-Regular-394" d="M 2931 531 
L 1925 4109 
L 919 531 
L 2931 531 
z
M 3738 0 
L 116 0 
L 1544 4666 
L 2309 4666 
L 3738 0 
z
" transform="scale(0.015625)"/>
       <path id="Menlo-Regular-3d" d="M 275 1563 
L 3578 1563 
L 3578 1034 
L 275 1034 
L 275 1563 
z
M 275 3034 
L 3578 3034 
L 3578 2506 
L 275 2506 
L 275 3034 
z
" transform="scale(0.015625)"/>
       <path id="Menlo-Regular-2e" d="M 1216 1263 
L 2316 1263 
L 2316 0 
L 1216 0 
L 1216 1263 
z
" transform="scale(0.015625)"/>
       <path id="Menlo-Regular-35" d="M 647 4666 
L 3009 4666 
L 3009 4134 
L 1222 4134 
L 1222 2988 
Q 1356 3038 1492 3061 
Q 1628 3084 1766 3084 
Q 2491 3084 2916 2656 
Q 3341 2228 3341 1497 
Q 3341 759 2895 334 
Q 2450 -91 1678 -91 
Q 1306 -91 998 -41 
Q 691 9 447 109 
L 447 750 
Q 734 594 1025 517 
Q 1316 441 1619 441 
Q 2141 441 2423 716 
Q 2706 991 2706 1497 
Q 2706 1997 2414 2275 
Q 2122 2553 1600 2553 
Q 1347 2553 1106 2495 
Q 866 2438 647 2322 
L 647 4666 
z
" transform="scale(0.015625)"/>
       <path id="Menlo-Regular-6d" d="M 2113 3144 
Q 2219 3369 2383 3476 
Q 2547 3584 2778 3584 
Q 3200 3584 3373 3257 
Q 3547 2931 3547 2028 
L 3547 0 
L 3022 0 
L 3022 2003 
Q 3022 2744 2939 2923 
Q 2856 3103 2638 3103 
Q 2388 3103 2295 2911 
Q 2203 2719 2203 2003 
L 2203 0 
L 1678 0 
L 1678 2003 
Q 1678 2753 1589 2928 
Q 1500 3103 1269 3103 
Q 1041 3103 952 2911 
Q 863 2719 863 2003 
L 863 0 
L 341 0 
L 341 3500 
L 863 3500 
L 863 3200 
Q 966 3388 1120 3486 
Q 1275 3584 1472 3584 
Q 1709 3584 1867 3475 
Q 2025 3366 2113 3144 
z
" transform="scale(0.015625)"/>
      </defs>
      <use xlink:href="#Menlo-Regular-394"/>
      <use xlink:href="#Menlo-Regular-74" transform="translate(60.205078 0)"/>
      <use xlink:href="#Menlo-Regular-20" transform="translate(120.410156 0)"/>
      <use xlink:href="#Menlo-Regular-3d" transform="translate(180.615234 0)"/>
      <use xlink:href="#Menlo-Regular-20" transform="translate(240.820312 0)"/>
      <use xlink:href="#Menlo-Regular-30" transform="translate(301.025391 0)"/>
      <use xlink:href="#Menlo-Regular-2e" transform="translate(361.230469 0)"/>
      <use xlink:href="#Menlo-Regular-30" transform="translate(421.435547 0)"/>
      <use xlink:href="#Menlo-Regular-35" transform="translate(481.640625 0)"/>
      <use xlink:href="#Menlo-Regular-20" transform="translate(541.845703 0)"/>
      <use xlink:href="#Menlo-Regular-6d" transform="translate(602.050781 0)"/>
      <use xlink:href="#Menlo-Regular-73" transform="translate(662.255859 0)"/>
     </g>
    </g>
    <g id="line2d_41">
     <path d="M 191.360625 101.967094 
L 196.960625 101.967094 
L 202.560625 101.967094 
" style="fill: none; stroke: #3b528b; stroke-opacity: 0.85; stroke-linejoin: miter"/>
    </g>
    <g id="text_9">
     <!-- Δt = 0.1 ms -->
     <g style="fill: #1a1a1a" transform="translate(208.160625 104.417094) scale(0.07 -0.07)">
      <use xlink:href="#Menlo-Regular-394"/>
      <use xlink:href="#Menlo-Regular-74" transform="translate(60.205078 0)"/>
      <use xlink:href="#Menlo-Regular-20" transform="translate(120.410156 0)"/>
      <use xlink:href="#Menlo-Regular-3d" transform="translate(180.615234 0)"/>
      <use xlink:href="#Menlo-Regular-20" transform="translate(240.820312 0)"/>
      <use xlink:href="#Menlo-Regular-30" transform="translate(301.025391 0)"/>
      <use xlink:href="#Menlo-Regular-2e" transform="translate(361.230469 0)"/>
      <use xlink:href="#Menlo-Regular-31" transform="translate(421.435547 0)"/>
      <use xlink:href="#Menlo-Regular-20" transform="translate(481.640625 0)"/>
      <use xlink:href="#Menlo-Regular-6d" transform="translate(541.845703 0)"/>
      <use xlink:href="#Menlo-Regular-73" transform="translate(602.050781 0)"/>
     </g>
    </g>
    <g id="line2d_42">
     <path d="M 191.360625 112.261469 
L 196.960625 112.261469 
L 202.560625 112.261469 
" style="fill: none; stroke: #21918c; stroke-opacity: 0.85; stroke-linejoin: miter"/>
    </g>
    <g id="text_10">
     <!-- Δt = 0.25 ms -->
     <g style="fill: #1a1a1a" transform="translate(208.160625 114.711469) scale(0.07 -0.07)">
      <use xlink:href="#Menlo-Regular-394"/>
      <use xlink:href="#Menlo-Regular-74" transform="translate(60.205078 0)"/>
      <use xlink:href="#Menlo-Regular-20" transform="translate(120.410156 0)"/>
      <use xlink:href="#Menlo-Regular-3d" transform="translate(180.615234 0)"/>
      <use xlink:href="#Menlo-Regular-20" transform="translate(240.820312 0)"/>
      <use xlink:href="#Menlo-Regular-30" transform="translate(301.025391 0)"/>
      <use xlink:href="#Menlo-Regular-2e" transform="translate(361.230469 0)"/>
      <use xlink:href="#Menlo-Regular-32" transform="translate(421.435547 0)"/>
      <use xlink:href="#Menlo-Regular-35" transform="translate(481.640625 0)"/>
      <use xlink:href="#Menlo-Regular-20" transform="translate(541.845703 0)"/>
      <use xlink:href="#Menlo-Regular-6d" transform="translate(602.050781 0)"/>
      <use xlink:href="#Menlo-Regular-73" transform="translate(662.255859 0)"/>
     </g>
    </g>
    <g id="line2d_43">
     <path d="M 272.73125 91.672719 
L 278.33125 91.672719 
L 283.93125 91.672719 
" style="fill: none; stroke: #5ec962; stroke-opacity: 0.85; stroke-linejoin: miter"/>
    </g>
    <g id="text_11">
     <!-- Δt = 0.5 ms -->
     <g style="fill: #1a1a1a" transform="translate(289.53125 94.122719) scale(0.07 -0.07)">
      <use xlink:href="#Menlo-Regular-394"/>
      <use xlink:href="#Menlo-Regular-74" transform="translate(60.205078 0)"/>
      <use xlink:href="#Menlo-Regular-20" transform="translate(120.410156 0)"/>
      <use xlink:href="#Menlo-Regular-3d" transform="translate(180.615234 0)"/>
      <use xlink:href="#Menlo-Regular-20" transform="translate(240.820312 0)"/>
      <use xlink:href="#Menlo-Regular-30" transform="translate(301.025391 0)"/>
      <use xlink:href="#Menlo-Regular-2e" transform="translate(361.230469 0)"/>
      <use xlink:href="#Menlo-Regular-35" transform="translate(421.435547 0)"/>
      <use xlink:href="#Menlo-Regular-20" transform="translate(481.640625 0)"/>
      <use xlink:href="#Menlo-Regular-6d" transform="translate(541.845703 0)"/>
      <use xlink:href="#Menlo-Regular-73" transform="translate(602.050781 0)"/>
     </g>
    </g>
    <g id="line2d_44">
     <path d="M 272.73125 101.967094 
L 278.33125 101.967094 
L 283.93125 101.967094 
" style="fill: none; stroke: #fde725; stroke-opacity: 0.85; stroke-linejoin: miter"/>
    </g>
    <g id="text_12">
     <!-- Δt = 1 ms -->
     <g style="fill: #1a1a1a" transform="translate(289.53125 104.417094) scale(0.07 -0.07)">
      <use xlink:href="#Menlo-Regular-394"/>
      <use xlink:href="#Menlo-Regular-74" transform="translate(60.205078 0)"/>
      <use xlink:href="#Menlo-Regular-20" transform="translate(120.410156 0)"/>
      <use xlink:href="#Menlo-Regular-3d" transform="translate(180.615234 0)"/>
      <use xlink:href="#Menlo-Regular-20" transform="translate(240.820312 0)"/>
      <use xlink:href="#Menlo-Regular-31" transform="translate(301.025391 0)"/>
      <use xlink:href="#Menlo-Regular-20" transform="translate(361.230469 0)"/>
      <use xlink:href="#Menlo-Regular-6d" transform="translate(421.435547 0)"/>
      <use xlink:href="#Menlo-Regular-73" transform="translate(481.640625 0)"/>
     </g>
    </g>
   </g>
  </g>
  <g id="axes_2">
   <g id="patch_5">
    <path d="M 29.707656 258.578897 
L 342.187656 258.578897 
L 342.187656 140.220943 
L 29.707656 140.220943 
z
" style="fill: #ffffff"/>
   </g>
   <g id="matplotlib.axis_3">
    <g id="xtick_7">
     <g id="line2d_45">
      <path d="M 38.11389 258.578897 
L 38.11389 140.220943 
" clip-path="url(#p1c45af92f4)" style="fill: none; stroke: #1a1a1a; stroke-opacity: 0.15; stroke-width: 0.4; stroke-linejoin: miter"/>
     </g>
     <g id="line2d_46">
      <g>
       <use xlink:href="#me43d0c3a0f" x="38.11389" y="258.578897" style="fill: #1a1a1a; stroke: #1a1a1a; stroke-width: 0.8"/>
      </g>
     </g>
     <g id="text_13">
      <!-- 0 -->
      <g style="fill: #1a1a1a" transform="translate(36.006781 267.417491) scale(0.07 -0.07)">
       <use xlink:href="#Menlo-Regular-30"/>
      </g>
     </g>
    </g>
    <g id="xtick_8">
     <g id="line2d_47">
      <path d="M 96.087916 258.578897 
L 96.087916 140.220943 
" clip-path="url(#p1c45af92f4)" style="fill: none; stroke: #1a1a1a; stroke-opacity: 0.15; stroke-width: 0.4; stroke-linejoin: miter"/>
     </g>
     <g id="line2d_48">
      <g>
       <use xlink:href="#me43d0c3a0f" x="96.087916" y="258.578897" style="fill: #1a1a1a; stroke: #1a1a1a; stroke-width: 0.8"/>
      </g>
     </g>
     <g id="text_14">
      <!-- 10 -->
      <g style="fill: #1a1a1a" transform="translate(91.873697 267.417491) scale(0.07 -0.07)">
       <use xlink:href="#Menlo-Regular-31"/>
       <use xlink:href="#Menlo-Regular-30" transform="translate(60.205078 0)"/>
      </g>
     </g>
    </g>
    <g id="xtick_9">
     <g id="line2d_49">
      <path d="M 154.061942 258.578897 
L 154.061942 140.220943 
" clip-path="url(#p1c45af92f4)" style="fill: none; stroke: #1a1a1a; stroke-opacity: 0.15; stroke-width: 0.4; stroke-linejoin: miter"/>
     </g>
     <g id="line2d_50">
      <g>
       <use xlink:href="#me43d0c3a0f" x="154.061942" y="258.578897" style="fill: #1a1a1a; stroke: #1a1a1a; stroke-width: 0.8"/>
      </g>
     </g>
     <g id="text_15">
      <!-- 20 -->
      <g style="fill: #1a1a1a" transform="translate(149.847723 267.417491) scale(0.07 -0.07)">
       <use xlink:href="#Menlo-Regular-32"/>
       <use xlink:href="#Menlo-Regular-30" transform="translate(60.205078 0)"/>
      </g>
     </g>
    </g>
    <g id="xtick_10">
     <g id="line2d_51">
      <path d="M 212.035968 258.578897 
L 212.035968 140.220943 
" clip-path="url(#p1c45af92f4)" style="fill: none; stroke: #1a1a1a; stroke-opacity: 0.15; stroke-width: 0.4; stroke-linejoin: miter"/>
     </g>
     <g id="line2d_52">
      <g>
       <use xlink:href="#me43d0c3a0f" x="212.035968" y="258.578897" style="fill: #1a1a1a; stroke: #1a1a1a; stroke-width: 0.8"/>
      </g>
     </g>
     <g id="text_16">
      <!-- 30 -->
      <g style="fill: #1a1a1a" transform="translate(207.821749 267.417491) scale(0.07 -0.07)">
       <defs>
        <path id="Menlo-Regular-33" d="M 2425 2497 
Q 2884 2375 3128 2064 
Q 3372 1753 3372 1288 
Q 3372 644 2939 276 
Q 2506 -91 1741 -91 
Q 1419 -91 1084 -31 
Q 750 28 428 141 
L 428 769 
Q 747 603 1056 522 
Q 1366 441 1672 441 
Q 2191 441 2469 675 
Q 2747 909 2747 1350 
Q 2747 1756 2469 1995 
Q 2191 2234 1716 2234 
L 1234 2234 
L 1234 2753 
L 1716 2753 
Q 2150 2753 2394 2943 
Q 2638 3134 2638 3475 
Q 2638 3834 2411 4026 
Q 2184 4219 1766 4219 
Q 1488 4219 1191 4156 
Q 894 4094 569 3969 
L 569 4550 
Q 947 4650 1242 4700 
Q 1538 4750 1766 4750 
Q 2447 4750 2855 4408 
Q 3263 4066 3263 3500 
Q 3263 3116 3048 2859 
Q 2834 2603 2425 2497 
z
" transform="scale(0.015625)"/>
       </defs>
       <use xlink:href="#Menlo-Regular-33"/>
       <use xlink:href="#Menlo-Regular-30" transform="translate(60.205078 0)"/>
      </g>
     </g>
    </g>
    <g id="xtick_11">
     <g id="line2d_53">
      <path d="M 270.009994 258.578897 
L 270.009994 140.220943 
" clip-path="url(#p1c45af92f4)" style="fill: none; stroke: #1a1a1a; stroke-opacity: 0.15; stroke-width: 0.4; stroke-linejoin: miter"/>
     </g>
     <g id="line2d_54">
      <g>
       <use xlink:href="#me43d0c3a0f" x="270.009994" y="258.578897" style="fill: #1a1a1a; stroke: #1a1a1a; stroke-width: 0.8"/>
      </g>
     </g>
     <g id="text_17">
      <!-- 40 -->
      <g style="fill: #1a1a1a" transform="translate(265.795775 267.417491) scale(0.07 -0.07)">
       <use xlink:href="#Menlo-Regular-34"/>
       <use xlink:href="#Menlo-Regular-30" transform="translate(60.205078 0)"/>
      </g>
     </g>
    </g>
    <g id="xtick_12">
     <g id="line2d_55">
      <path d="M 327.98402 258.578897 
L 327.98402 140.220943 
" clip-path="url(#p1c45af92f4)" style="fill: none; stroke: #1a1a1a; stroke-opacity: 0.15; stroke-width: 0.4; stroke-linejoin: miter"/>
     </g>
     <g id="line2d_56">
      <g>
       <use xlink:href="#me43d0c3a0f" x="327.98402" y="258.578897" style="fill: #1a1a1a; stroke: #1a1a1a; stroke-width: 0.8"/>
      </g>
     </g>
     <g id="text_18">
      <!-- 50 -->
      <g style="fill: #1a1a1a" transform="translate(323.769801 267.417491) scale(0.07 -0.07)">
       <use xlink:href="#Menlo-Regular-35"/>
       <use xlink:href="#Menlo-Regular-30" transform="translate(60.205078 0)"/>
      </g>
     </g>
    </g>
    <g id="text_19">
     <!-- Epoch -->
     <g style="fill: #1a1a1a" transform="translate(173.907031 278.974522) scale(0.08 -0.08)">
      <defs>
       <path id="Menlo-Regular-45" d="M 616 4666 
L 3384 4666 
L 3384 4134 
L 1247 4134 
L 1247 2878 
L 3291 2878 
L 3291 2347 
L 1247 2347 
L 1247 531 
L 3444 531 
L 3444 0 
L 616 0 
L 616 4666 
z
" transform="scale(0.015625)"/>
       <path id="Menlo-Regular-70" d="M 1172 441 
L 1172 -1331 
L 594 -1331 
L 594 3500 
L 1172 3500 
L 1172 3053 
Q 1316 3313 1555 3448 
Q 1794 3584 2106 3584 
Q 2741 3584 3102 3093 
Q 3463 2603 3463 1734 
Q 3463 881 3100 395 
Q 2738 -91 2106 -91 
Q 1788 -91 1548 45 
Q 1309 181 1172 441 
z
M 2859 1747 
Q 2859 2416 2648 2756 
Q 2438 3097 2022 3097 
Q 1603 3097 1387 2755 
Q 1172 2413 1172 1747 
Q 1172 1084 1387 740 
Q 1603 397 2022 397 
Q 2438 397 2648 737 
Q 2859 1078 2859 1747 
z
" transform="scale(0.015625)"/>
       <path id="Menlo-Regular-6f" d="M 1925 3097 
Q 1488 3097 1263 2756 
Q 1038 2416 1038 1747 
Q 1038 1081 1263 739 
Q 1488 397 1925 397 
Q 2366 397 2591 739 
Q 2816 1081 2816 1747 
Q 2816 2416 2591 2756 
Q 2366 3097 1925 3097 
z
M 1925 3584 
Q 2653 3584 3039 3112 
Q 3425 2641 3425 1747 
Q 3425 850 3040 379 
Q 2656 -91 1925 -91 
Q 1197 -91 812 379 
Q 428 850 428 1747 
Q 428 2641 812 3112 
Q 1197 3584 1925 3584 
z
" transform="scale(0.015625)"/>
       <path id="Menlo-Regular-68" d="M 3284 2169 
L 3284 0 
L 2706 0 
L 2706 2169 
Q 2706 2641 2540 2862 
Q 2375 3084 2022 3084 
Q 1619 3084 1401 2798 
Q 1184 2513 1184 1978 
L 1184 0 
L 609 0 
L 609 4863 
L 1184 4863 
L 1184 2975 
Q 1338 3275 1600 3429 
Q 1863 3584 2222 3584 
Q 2756 3584 3020 3232 
Q 3284 2881 3284 2169 
z
" transform="scale(0.015625)"/>
      </defs>
      <use xlink:href="#Menlo-Regular-45"/>
      <use xlink:href="#Menlo-Regular-70" transform="translate(60.205078 0)"/>
      <use xlink:href="#Menlo-Regular-6f" transform="translate(120.410156 0)"/>
      <use xlink:href="#Menlo-Regular-63" transform="translate(180.615234 0)"/>
      <use xlink:href="#Menlo-Regular-68" transform="translate(240.820312 0)"/>
     </g>
    </g>
   </g>
   <g id="matplotlib.axis_4">
    <g id="ytick_7">
     <g id="line2d_57">
      <path d="M 29.707656 254.725554 
L 342.187656 254.725554 
" clip-path="url(#p1c45af92f4)" style="fill: none; stroke: #1a1a1a; stroke-opacity: 0.15; stroke-width: 0.4; stroke-linejoin: miter"/>
     </g>
     <g id="line2d_58">
      <g>
       <use xlink:href="#mfd12bfccef" x="29.707656" y="254.725554" style="fill: #1a1a1a; stroke: #1a1a1a; stroke-width: 0.8"/>
      </g>
     </g>
     <g id="text_20">
      <!-- 4 -->
      <g style="fill: #1a1a1a" transform="translate(21.993438 257.394851) scale(0.07 -0.07)">
       <use xlink:href="#Menlo-Regular-34"/>
      </g>
     </g>
    </g>
    <g id="ytick_8">
     <g id="line2d_59">
      <path d="M 29.707656 235.377719 
L 342.187656 235.377719 
" clip-path="url(#p1c45af92f4)" style="fill: none; stroke: #1a1a1a; stroke-opacity: 0.15; stroke-width: 0.4; stroke-linejoin: miter"/>
     </g>
     <g id="line2d_60">
      <g>
       <use xlink:href="#mfd12bfccef" x="29.707656" y="235.377719" style="fill: #1a1a1a; stroke: #1a1a1a; stroke-width: 0.8"/>
      </g>
     </g>
     <g id="text_21">
      <!-- 6 -->
      <g style="fill: #1a1a1a" transform="translate(21.993438 238.047016) scale(0.07 -0.07)">
       <use xlink:href="#Menlo-Regular-36"/>
      </g>
     </g>
    </g>
    <g id="ytick_9">
     <g id="line2d_61">
      <path d="M 29.707656 216.029884 
L 342.187656 216.029884 
" clip-path="url(#p1c45af92f4)" style="fill: none; stroke: #1a1a1a; stroke-opacity: 0.15; stroke-width: 0.4; stroke-linejoin: miter"/>
     </g>
     <g id="line2d_62">
      <g>
       <use xlink:href="#mfd12bfccef" x="29.707656" y="216.029884" style="fill: #1a1a1a; stroke: #1a1a1a; stroke-width: 0.8"/>
      </g>
     </g>
     <g id="text_22">
      <!-- 8 -->
      <g style="fill: #1a1a1a" transform="translate(21.993438 218.699181) scale(0.07 -0.07)">
       <use xlink:href="#Menlo-Regular-38"/>
      </g>
     </g>
    </g>
    <g id="ytick_10">
     <g id="line2d_63">
      <path d="M 29.707656 196.682049 
L 342.187656 196.682049 
" clip-path="url(#p1c45af92f4)" style="fill: none; stroke: #1a1a1a; stroke-opacity: 0.15; stroke-width: 0.4; stroke-linejoin: miter"/>
     </g>
     <g id="line2d_64">
      <g>
       <use xlink:href="#mfd12bfccef" x="29.707656" y="196.682049" style="fill: #1a1a1a; stroke: #1a1a1a; stroke-width: 0.8"/>
      </g>
     </g>
     <g id="text_23">
      <!-- 10 -->
      <g style="fill: #1a1a1a" transform="translate(17.779219 199.351346) scale(0.07 -0.07)">
       <use xlink:href="#Menlo-Regular-31"/>
       <use xlink:href="#Menlo-Regular-30" transform="translate(60.205078 0)"/>
      </g>
     </g>
    </g>
    <g id="ytick_11">
     <g id="line2d_65">
      <path d="M 29.707656 177.334215 
L 342.187656 177.334215 
" clip-path="url(#p1c45af92f4)" style="fill: none; stroke: #1a1a1a; stroke-opacity: 0.15; stroke-width: 0.4; stroke-linejoin: miter"/>
     </g>
     <g id="line2d_66">
      <g>
       <use xlink:href="#mfd12bfccef" x="29.707656" y="177.334215" style="fill: #1a1a1a; stroke: #1a1a1a; stroke-width: 0.8"/>
      </g>
     </g>
     <g id="text_24">
      <!-- 12 -->
      <g style="fill: #1a1a1a" transform="translate(17.779219 180.003511) scale(0.07 -0.07)">
       <use xlink:href="#Menlo-Regular-31"/>
       <use xlink:href="#Menlo-Regular-32" transform="translate(60.205078 0)"/>
      </g>
     </g>
    </g>
    <g id="ytick_12">
     <g id="line2d_67">
      <path d="M 29.707656 157.98638 
L 342.187656 157.98638 
" clip-path="url(#p1c45af92f4)" style="fill: none; stroke: #1a1a1a; stroke-opacity: 0.15; stroke-width: 0.4; stroke-linejoin: miter"/>
     </g>
     <g id="line2d_68">
      <g>
       <use xlink:href="#mfd12bfccef" x="29.707656" y="157.98638" style="fill: #1a1a1a; stroke: #1a1a1a; stroke-width: 0.8"/>
      </g>
     </g>
     <g id="text_25">
      <!-- 14 -->
      <g style="fill: #1a1a1a" transform="translate(17.779219 160.655677) scale(0.07 -0.07)">
       <use xlink:href="#Menlo-Regular-31"/>
       <use xlink:href="#Menlo-Regular-34" transform="translate(60.205078 0)"/>
      </g>
     </g>
    </g>
    <g id="text_26">
     <!-- Test E rate (Hz) -->
     <g style="fill: #1a1a1a" transform="translate(12.115469 237.92992) rotate(-90) scale(0.08 -0.08)">
      <defs>
       <path id="Menlo-Regular-48" d="M 428 4666 
L 1063 4666 
L 1063 2878 
L 2791 2878 
L 2791 4666 
L 3425 4666 
L 3425 0 
L 2791 0 
L 2791 2347 
L 1063 2347 
L 1063 0 
L 428 0 
L 428 4666 
z
" transform="scale(0.015625)"/>
       <path id="Menlo-Regular-7a" d="M 709 3506 
L 3250 3506 
L 3250 2981 
L 1241 469 
L 3250 469 
L 3250 0 
L 634 0 
L 634 531 
L 2644 3047 
L 709 3047 
L 709 3506 
z
" transform="scale(0.015625)"/>
      </defs>
      <use xlink:href="#Menlo-Regular-54"/>
      <use xlink:href="#Menlo-Regular-65" transform="translate(60.205078 0)"/>
      <use xlink:href="#Menlo-Regular-73" transform="translate(120.410156 0)"/>
      <use xlink:href="#Menlo-Regular-74" transform="translate(180.615234 0)"/>
      <use xlink:href="#Menlo-Regular-20" transform="translate(240.820312 0)"/>
      <use xlink:href="#Menlo-Regular-45" transform="translate(301.025391 0)"/>
      <use xlink:href="#Menlo-Regular-20" transform="translate(361.230469 0)"/>
      <use xlink:href="#Menlo-Regular-72" transform="translate(421.435547 0)"/>
      <use xlink:href="#Menlo-Regular-61" transform="translate(481.640625 0)"/>
      <use xlink:href="#Menlo-Regular-74" transform="translate(541.845703 0)"/>
      <use xlink:href="#Menlo-Regular-65" transform="translate(602.050781 0)"/>
      <use xlink:href="#Menlo-Regular-20" transform="translate(662.255859 0)"/>
      <use xlink:href="#Menlo-Regular-28" transform="translate(722.460938 0)"/>
      <use xlink:href="#Menlo-Regular-48" transform="translate(782.666016 0)"/>
      <use xlink:href="#Menlo-Regular-7a" transform="translate(842.871094 0)"/>
      <use xlink:href="#Menlo-Regular-29" transform="translate(903.076172 0)"/>
     </g>
    </g>
   </g>
   <g id="line2d_69">
    <path d="M 43.911293 253.19899 
L 49.708695 252.228595 
L 55.506098 251.710181 
L 61.3035 249.658522 
L 67.100903 246.673516 
L 72.898306 241.490486 
L 78.695708 237.529079 
L 84.493111 234.244563 
L 90.290513 231.987799 
L 96.087916 229.59702 
L 101.885319 227.942582 
L 107.682721 226.73314 
L 113.480124 225.674684 
L 119.277526 224.44574 
L 125.074929 223.49947 
L 130.872332 222.559947 
L 136.669734 221.819423 
L 142.467137 221.067798 
L 148.264539 220.280375 
L 154.061942 219.302085 
L 159.859345 218.574011 
L 165.656747 217.890676 
L 171.45415 217.053014 
L 177.251552 216.41651 
L 183.048955 215.913852 
L 188.846358 215.174442 
L 194.64376 214.579775 
L 200.441163 214.028734 
L 206.238565 213.533466 
L 212.035968 212.897265 
L 217.833371 212.092331 
L 223.630773 211.464734 
L 229.428176 210.870776 
L 235.225578 210.308568 
L 241.022981 209.923865 
L 246.820384 209.548643 
L 252.617786 209.08293 
L 258.415189 208.583815 
L 264.212591 208.14442 
L 270.009994 207.783335 
L 275.807397 207.217752 
L 281.604799 206.793506 
L 287.402202 206.267906 
L 293.199604 205.859348 
L 298.997007 205.571783 
L 304.794409 204.972663 
L 310.591812 204.834531 
L 316.389215 204.383934 
L 322.186617 203.949128 
L 327.98402 203.445593 
" clip-path="url(#p1c45af92f4)" style="fill: none; stroke: #440154; stroke-opacity: 0.85; stroke-linejoin: miter"/>
   </g>
   <g id="line2d_70">
    <path d="M 43.911293 251.857827 
L 49.708695 251.743955 
L 55.506098 249.903204 
L 61.3035 246.66805 
L 67.100903 243.104437 
L 72.898306 238.259886 
L 78.695708 234.702313 
L 84.493111 231.931521 
L 90.290513 230.087903 
L 96.087916 228.371822 
L 101.885319 226.925053 
L 107.682721 225.699213 
L 113.480124 224.520947 
L 119.277526 223.389106 
L 125.074929 222.562039 
L 130.872332 221.444133 
L 136.669734 220.542265 
L 142.467137 219.839664 
L 148.264539 219.189394 
L 154.061942 218.357401 
L 159.859345 217.366526 
L 165.656747 216.862788 
L 171.45415 216.031571 
L 177.251552 215.410621 
L 183.048955 214.767976 
L 188.846358 214.212583 
L 194.64376 213.569567 
L 200.441163 212.914034 
L 206.238565 212.267172 
L 212.035968 211.576987 
L 217.833371 210.849655 
L 223.630773 210.401184 
L 229.428176 209.878586 
L 235.225578 209.356629 
L 241.022981 209.04504 
L 246.820384 208.566642 
L 252.617786 208.102852 
L 258.415189 207.632045 
L 264.212591 207.096997 
L 270.009994 206.665733 
L 275.807397 206.074103 
L 281.604799 205.697937 
L 287.402202 205.227905 
L 293.199604 204.810947 
L 298.997007 204.520952 
L 304.794409 204.071874 
L 310.591812 203.705627 
L 316.389215 203.18539 
L 322.186617 202.794682 
L 327.98402 202.207607 
" clip-path="url(#p1c45af92f4)" style="fill: none; stroke: #440154; stroke-opacity: 0.85; stroke-linejoin: miter"/>
   </g>
   <g id="line2d_71">
    <path d="M 43.911293 251.037879 
L 49.708695 250.114518 
L 55.506098 248.100041 
L 61.3035 244.715856 
L 67.100903 240.620502 
L 72.898306 236.320143 
L 78.695708 233.163636 
L 84.493111 230.952961 
L 90.290513 228.988352 
L 96.087916 227.671313 
L 101.885319 226.314697 
L 107.682721 225.329018 
L 113.480124 224.143936 
L 119.277526 223.149654 
L 125.074929 222.11846 
L 130.872332 221.20765 
L 136.669734 220.238065 
L 142.467137 219.453848 
L 148.264539 218.813598 
L 154.061942 218.047769 
L 159.859345 217.308594 
L 165.656747 216.76916 
L 171.45415 215.874815 
L 177.251552 215.314192 
L 183.048955 214.541345 
L 188.846358 213.822684 
L 194.64376 213.274275 
L 200.441163 212.767501 
L 206.238565 212.254047 
L 212.035968 211.569058 
L 217.833371 210.968825 
L 223.630773 210.4661 
L 229.428176 209.814784 
L 235.225578 209.399344 
L 241.022981 208.832445 
L 246.820384 208.281944 
L 252.617786 207.84707 
L 258.415189 207.511796 
L 264.212591 207.016629 
L 270.009994 206.600885 
L 275.807397 206.084124 
L 281.604799 205.596481 
L 287.402202 205.15415 
L 293.199604 204.729465 
L 298.997007 204.394158 
L 304.794409 204.02845 
L 310.591812 203.557846 
L 316.389215 203.200135 
L 322.186617 202.82083 
L 327.98402 202.374889 
" clip-path="url(#p1c45af92f4)" style="fill: none; stroke: #440154; stroke-opacity: 0.85; stroke-linejoin: miter"/>
   </g>
   <g id="line2d_72">
    <path d="M 43.911293 248.125818 
L 49.708695 241.241182 
L 55.506098 236.532536 
L 61.3035 233.519491 
L 67.100903 230.604394 
L 72.898306 228.348608 
L 78.695708 226.398102 
L 84.493111 224.399044 
L 90.290513 222.75682 
L 96.087916 221.156163 
L 101.885319 219.710541 
L 107.682721 218.475558 
L 113.480124 217.2095 
L 119.277526 216.010754 
L 125.074929 214.864743 
L 130.872332 213.985176 
L 136.669734 212.891597 
L 142.467137 212.015235 
L 148.264539 211.043255 
L 154.061942 210.090135 
L 159.859345 209.35862 
L 165.656747 208.552606 
L 171.45415 207.786777 
L 177.251552 207.15034 
L 183.048955 206.378809 
L 188.846358 205.594186 
L 194.64376 204.791884 
L 200.441163 204.248469 
L 206.238565 203.577583 
L 212.035968 203.043514 
L 217.833371 202.465785 
L 223.630773 201.888629 
L 229.428176 201.298956 
L 235.225578 200.682021 
L 241.022981 200.288546 
L 246.820384 199.438367 
L 252.617786 198.844274 
L 258.415189 198.246436 
L 264.212591 197.621842 
L 270.009994 197.12573 
L 275.807397 196.651818 
L 281.604799 196.1109 
L 287.402202 195.623594 
L 293.199604 195.079402 
L 298.997007 194.656134 
L 304.794409 194.047466 
L 310.591812 193.443048 
L 316.389215 193.023087 
L 322.186617 192.660147 
L 327.98402 192.285363 
" clip-path="url(#p1c45af92f4)" style="fill: none; stroke: #3b528b; stroke-opacity: 0.85; stroke-linejoin: miter"/>
   </g>
   <g id="line2d_73">
    <path d="M 43.911293 248.254839 
L 49.708695 241.383396 
L 55.506098 236.99808 
L 61.3035 233.616156 
L 67.100903 230.927724 
L 72.898306 228.715227 
L 78.695708 226.85845 
L 84.493111 224.772478 
L 90.290513 222.950926 
L 96.087916 221.374899 
L 101.885319 219.928265 
L 107.682721 218.692 
L 113.480124 217.471862 
L 119.277526 216.316336 
L 125.074929 215.268812 
L 130.872332 214.006027 
L 136.669734 213.210304 
L 142.467137 212.456925 
L 148.264539 211.427958 
L 154.061942 210.396663 
L 159.859345 209.749193 
L 165.656747 208.813315 
L 171.45415 207.928113 
L 177.251552 207.576914 
L 183.048955 206.720729 
L 188.846358 206.195601 
L 194.64376 205.397955 
L 200.441163 204.657835 
L 206.238565 204.05966 
L 212.035968 203.519922 
L 217.833371 202.915302 
L 223.630773 202.200825 
L 229.428176 201.642564 
L 235.225578 201.099283 
L 241.022981 200.744912 
L 246.820384 200.055572 
L 252.617786 199.514889 
L 258.415189 198.71758 
L 264.212591 198.321136 
L 270.009994 197.830186 
L 275.807397 197.27071 
L 281.604799 196.665888 
L 287.402202 196.096391 
L 293.199604 195.530033 
L 298.997007 194.948154 
L 304.794409 194.558963 
L 310.591812 194.108029 
L 316.389215 193.484076 
L 322.186617 193.118031 
L 327.98402 192.724556 
" clip-path="url(#p1c45af92f4)" style="fill: none; stroke: #3b528b; stroke-opacity: 0.85; stroke-linejoin: miter"/>
   </g>
   <g id="line2d_74">
    <path d="M 43.911293 248.777336 
L 49.708695 241.62106 
L 55.506098 237.211519 
L 61.3035 234.070701 
L 67.100903 231.616187 
L 72.898306 229.429198 
L 78.695708 227.634334 
L 84.493111 225.794562 
L 90.290513 223.886366 
L 96.087916 222.409028 
L 101.885319 221.015501 
L 107.682721 219.858693 
L 113.480124 218.467494 
L 119.277526 217.391426 
L 125.074929 216.415161 
L 130.872332 215.17542 
L 136.669734 214.338804 
L 142.467137 213.357782 
L 148.264539 212.484389 
L 154.061942 211.628373 
L 159.859345 210.755959 
L 165.656747 210.045835 
L 171.45415 209.455284 
L 177.251552 208.472642 
L 183.048955 207.804423 
L 188.846358 207.165624 
L 194.64376 206.245333 
L 200.441163 205.668077 
L 206.238565 205.062917 
L 212.035968 204.515891 
L 217.833371 203.659841 
L 223.630773 203.022663 
L 229.428176 202.392198 
L 235.225578 201.792943 
L 241.022981 201.207217 
L 246.820384 200.592644 
L 252.617786 199.899221 
L 258.415189 199.367715 
L 264.212591 198.687147 
L 270.009994 198.210705 
L 275.807397 197.771951 
L 281.604799 197.255426 
L 287.402202 196.665281 
L 293.199604 196.179257 
L 298.997007 195.506212 
L 304.794409 195.150053 
L 310.591812 194.683059 
L 316.389215 194.167782 
L 322.186617 193.779267 
L 327.98402 193.3284 
" clip-path="url(#p1c45af92f4)" style="fill: none; stroke: #3b528b; stroke-opacity: 0.85; stroke-linejoin: miter"/>
   </g>
   <g id="line2d_75">
    <path d="M 43.911293 246.107933 
L 49.708695 237.499962 
L 55.506098 232.436507 
L 61.3035 228.919994 
L 67.100903 225.525587 
L 72.898306 223.005551 
L 78.695708 220.758099 
L 84.493111 218.579949 
L 90.290513 216.768991 
L 96.087916 214.752017 
L 101.885319 213.166847 
L 107.682721 211.808679 
L 113.480124 210.537831 
L 119.277526 209.379606 
L 125.074929 208.411067 
L 130.872332 207.088191 
L 136.669734 205.877568 
L 142.467137 204.819146 
L 148.264539 203.853914 
L 154.061942 202.647103 
L 159.859345 201.68511 
L 165.656747 200.834998 
L 171.45415 199.937583 
L 177.251552 199.240313 
L 183.048955 198.574793 
L 188.846358 197.570557 
L 194.64376 196.678169 
L 200.441163 196.067443 
L 206.238565 195.759532 
L 212.035968 195.121644 
L 217.833371 194.362496 
L 223.630773 193.741714 
L 229.428176 192.823785 
L 235.225578 192.440601 
L 241.022981 192.303077 
L 246.820384 191.469295 
L 252.617786 190.731807 
L 258.415189 190.092942 
L 264.212591 189.468415 
L 270.009994 188.858566 
L 275.807397 188.294265 
L 281.604799 187.84026 
L 287.402202 187.386121 
L 293.199604 186.75542 
L 298.997007 186.288358 
L 304.794409 185.895152 
L 310.591812 185.485077 
L 316.389215 184.633481 
L 322.186617 183.765757 
L 327.98402 183.523774 
" clip-path="url(#p1c45af92f4)" style="fill: none; stroke: #21918c; stroke-opacity: 0.85; stroke-linejoin: miter"/>
   </g>
   <g id="line2d_76">
    <path d="M 43.911293 246.124465 
L 49.708695 237.475095 
L 55.506098 232.508811 
L 61.3035 228.915068 
L 67.100903 225.6069 
L 72.898306 222.997925 
L 78.695708 220.640617 
L 84.493111 218.658159 
L 90.290513 216.748376 
L 96.087916 214.785926 
L 101.885319 213.192119 
L 107.682721 211.894514 
L 113.480124 210.670665 
L 119.277526 209.348902 
L 125.074929 208.095902 
L 130.872332 207.051988 
L 136.669734 206.02464 
L 142.467137 204.930454 
L 148.264539 203.740817 
L 154.061942 202.789418 
L 159.859345 202.012252 
L 165.656747 200.946947 
L 171.45415 200.096701 
L 177.251552 199.380165 
L 183.048955 198.624222 
L 188.846358 197.836867 
L 194.64376 197.068338 
L 200.441163 196.220993 
L 206.238565 195.606217 
L 212.035968 194.937762 
L 217.833371 194.322109 
L 223.630773 193.582934 
L 229.428176 192.771455 
L 235.225578 192.44411 
L 241.022981 192.205906 
L 246.820384 191.365039 
L 252.617786 190.941467 
L 258.415189 190.390832 
L 264.212591 189.832672 
L 270.009994 188.6899 
L 275.807397 188.121651 
L 281.604799 187.722845 
L 287.402202 187.377348 
L 293.199604 186.544849 
L 298.997007 186.200161 
L 304.794409 185.931288 
L 310.591812 185.551207 
L 316.389215 184.531654 
L 322.186617 184.115134 
L 327.98402 183.303857 
" clip-path="url(#p1c45af92f4)" style="fill: none; stroke: #21918c; stroke-opacity: 0.85; stroke-linejoin: miter"/>
   </g>
   <g id="line2d_77">
    <path d="M 43.911293 246.290736 
L 49.708695 237.698319 
L 55.506098 232.855827 
L 61.3035 229.317519 
L 67.100903 225.827965 
L 72.898306 223.415187 
L 78.695708 221.07269 
L 84.493111 218.926931 
L 90.290513 217.262911 
L 96.087916 215.371078 
L 101.885319 213.707597 
L 107.682721 212.328949 
L 113.480124 210.928202 
L 119.277526 209.80456 
L 125.074929 208.748837 
L 130.872332 207.371067 
L 136.669734 206.420815 
L 142.467137 205.414791 
L 148.264539 204.279644 
L 154.061942 203.117539 
L 159.859345 202.183516 
L 165.656747 201.395351 
L 171.45415 200.360041 
L 177.251552 199.85826 
L 183.048955 199.164837 
L 188.846358 198.118055 
L 194.64376 197.227759 
L 200.441163 196.360541 
L 206.238565 195.909911 
L 212.035968 195.431006 
L 217.833371 194.775169 
L 223.630773 194.35757 
L 229.428176 193.355223 
L 235.225578 192.604847 
L 241.022981 192.27018 
L 246.820384 191.798698 
L 252.617786 191.11155 
L 258.415189 190.632106 
L 264.212591 189.957577 
L 270.009994 189.238646 
L 275.807397 188.732311 
L 281.604799 188.233263 
L 287.402202 187.666061 
L 293.199604 187.065456 
L 298.997007 186.650117 
L 304.794409 186.198036 
L 310.591812 185.777602 
L 316.389215 184.957013 
L 322.186617 184.626362 
L 327.98402 184.001464 
" clip-path="url(#p1c45af92f4)" style="fill: none; stroke: #21918c; stroke-opacity: 0.85; stroke-linejoin: miter"/>
   </g>
   <g id="line2d_78">
    <path d="M 43.911293 243.168374 
L 49.708695 233.037618 
L 55.506098 227.002351 
L 61.3035 223.305161 
L 67.100903 220.398971 
L 72.898306 217.394665 
L 78.695708 214.646985 
L 84.493111 211.366383 
L 90.290513 209.48258 
L 96.087916 207.390096 
L 101.885319 205.626847 
L 107.682721 203.812751 
L 113.480124 202.268608 
L 119.277526 200.795792 
L 125.074929 199.535369 
L 130.872332 198.163166 
L 136.669734 197.474904 
L 142.467137 195.998984 
L 148.264539 194.670777 
L 154.061942 193.389233 
L 159.859345 192.569487 
L 165.656747 191.45725 
L 171.45415 190.323655 
L 177.251552 189.464737 
L 183.048955 188.512191 
L 188.846358 187.496585 
L 194.64376 186.772627 
L 200.441163 186.360392 
L 206.238565 185.795957 
L 212.035968 184.950738 
L 217.833371 184.234506 
L 223.630773 183.471443 
L 229.428176 182.594441 
L 235.225578 182.021807 
L 241.022981 181.347986 
L 246.820384 180.348643 
L 252.617786 179.779214 
L 258.415189 179.40001 
L 264.212591 179.241163 
L 270.009994 178.519735 
L 275.807397 177.943187 
L 281.604799 177.135756 
L 287.402202 176.06566 
L 293.199604 175.319029 
L 298.997007 174.913981 
L 304.794409 174.313039 
L 310.591812 174.395263 
L 316.389215 173.594142 
L 322.186617 172.857835 
L 327.98402 172.481533 
" clip-path="url(#p1c45af92f4)" style="fill: none; stroke: #5ec962; stroke-opacity: 0.85; stroke-linejoin: miter"/>
   </g>
   <g id="line2d_79">
    <path d="M 43.911293 243.398615 
L 49.708695 232.918246 
L 55.506098 227.168723 
L 61.3035 223.151037 
L 67.100903 220.43703 
L 72.898306 217.382181 
L 78.695708 214.58072 
L 84.493111 211.464093 
L 90.290513 209.267589 
L 96.087916 207.483556 
L 101.885319 205.581871 
L 107.682721 203.983711 
L 113.480124 202.329543 
L 119.277526 200.855917 
L 125.074929 199.801375 
L 130.872332 198.42826 
L 136.669734 197.591138 
L 142.467137 196.596147 
L 148.264539 195.274014 
L 154.061942 194.231213 
L 159.859345 193.401514 
L 165.656747 192.174966 
L 171.45415 191.116342 
L 177.251552 190.156204 
L 183.048955 189.050546 
L 188.846358 188.009297 
L 194.64376 187.388786 
L 200.441163 186.575012 
L 206.238565 186.141049 
L 212.035968 185.430486 
L 217.833371 184.378576 
L 223.630773 183.744332 
L 229.428176 182.861762 
L 235.225578 182.301511 
L 241.022981 181.592702 
L 246.820384 180.997293 
L 252.617786 180.670083 
L 258.415189 179.95149 
L 264.212591 179.475352 
L 270.009994 178.843571 
L 275.807397 178.183685 
L 281.604799 177.316231 
L 287.402202 176.462442 
L 293.199604 175.524336 
L 298.997007 175.270983 
L 304.794409 174.408725 
L 310.591812 173.90212 
L 316.389215 173.559221 
L 322.186617 172.94431 
L 327.98402 172.695039 
" clip-path="url(#p1c45af92f4)" style="fill: none; stroke: #5ec962; stroke-opacity: 0.85; stroke-linejoin: miter"/>
   </g>
   <g id="line2d_80">
    <path d="M 43.911293 243.502366 
L 49.708695 232.958936 
L 55.506098 227.156812 
L 61.3035 223.348281 
L 67.100903 220.511089 
L 72.898306 217.346383 
L 78.695708 214.734371 
L 84.493111 211.700341 
L 90.290513 209.74781 
L 96.087916 207.716294 
L 101.885319 205.945824 
L 107.682721 204.3341 
L 113.480124 202.602836 
L 119.277526 200.8905 
L 125.074929 199.810485 
L 130.872332 198.695278 
L 136.669734 197.928605 
L 142.467137 196.493949 
L 148.264539 195.718268 
L 154.061942 194.641592 
L 159.859345 193.541873 
L 165.656747 192.567733 
L 171.45415 191.121369 
L 177.251552 190.430881 
L 183.048955 189.578036 
L 188.846358 188.566513 
L 194.64376 187.848392 
L 200.441163 187.228623 
L 206.238565 186.914942 
L 212.035968 185.627021 
L 217.833371 184.928503 
L 223.630773 184.243177 
L 229.428176 183.395832 
L 235.225578 182.980831 
L 241.022981 182.174345 
L 246.820384 181.547389 
L 252.617786 181.128305 
L 258.415189 180.505533 
L 264.212591 180.186455 
L 270.009994 179.431152 
L 275.807397 179.071248 
L 281.604799 178.129161 
L 287.402202 177.191191 
L 293.199604 176.042346 
L 298.997007 175.635408 
L 304.794409 174.898258 
L 310.591812 174.632016 
L 316.389215 174.099363 
L 322.186617 173.511985 
L 327.98402 173.219257 
" clip-path="url(#p1c45af92f4)" style="fill: none; stroke: #5ec962; stroke-opacity: 0.85; stroke-linejoin: miter"/>
   </g>
   <g id="line2d_81">
    <path d="M 43.911293 236.564488 
L 49.708695 223.222161 
L 55.506098 217.045592 
L 61.3035 211.559274 
L 67.100903 207.558054 
L 72.898306 203.91559 
L 78.695708 200.974243 
L 84.493111 197.43418 
L 90.290513 195.45928 
L 96.087916 192.630051 
L 101.885319 190.418971 
L 107.682721 188.574408 
L 113.480124 186.188487 
L 119.277526 184.532227 
L 125.074929 183.486188 
L 130.872332 181.785593 
L 136.669734 179.287319 
L 142.467137 178.004222 
L 148.264539 176.20116 
L 154.061942 175.058961 
L 159.859345 173.042999 
L 165.656747 172.388073 
L 171.45415 170.976057 
L 177.251552 170.357536 
L 183.048955 169.421455 
L 188.846358 167.962742 
L 194.64376 166.868218 
L 200.441163 165.886521 
L 206.238565 165.13277 
L 212.035968 163.880445 
L 217.833371 163.579349 
L 223.630773 162.66331 
L 229.428176 161.324509 
L 235.225578 160.291392 
L 241.022981 159.229427 
L 246.820384 158.034797 
L 252.617786 157.056743 
L 258.415189 155.942616 
L 264.212591 154.71239 
L 270.009994 153.749014 
L 275.807397 152.394861 
L 281.604799 151.798777 
L 287.402202 151.039763 
L 293.199604 149.808188 
L 298.997007 149.063176 
L 304.794409 148.404741 
L 310.591812 147.153563 
L 316.389215 146.593176 
L 322.186617 145.811421 
L 327.98402 145.60085 
" clip-path="url(#p1c45af92f4)" style="fill: none; stroke: #fde725; stroke-opacity: 0.85; stroke-linejoin: miter"/>
   </g>
   <g id="line2d_82">
    <path d="M 43.911293 236.55197 
L 49.708695 222.988377 
L 55.506098 216.370928 
L 61.3035 211.36952 
L 67.100903 207.515238 
L 72.898306 203.772398 
L 78.695708 200.660799 
L 84.493111 197.586617 
L 90.290513 195.628722 
L 96.087916 192.688724 
L 101.885319 190.688384 
L 107.682721 188.786834 
L 113.480124 186.777115 
L 119.277526 184.469134 
L 125.074929 183.070309 
L 130.872332 181.446136 
L 136.669734 178.797921 
L 142.467137 177.584734 
L 148.264539 175.675188 
L 154.061942 174.300217 
L 159.859345 172.750744 
L 165.656747 171.839867 
L 171.45415 170.174294 
L 177.251552 169.832205 
L 183.048955 168.840419 
L 188.846358 167.042283 
L 194.64376 165.878052 
L 200.441163 165.198732 
L 206.238565 164.459895 
L 212.035968 163.683167 
L 217.833371 163.171872 
L 223.630773 162.63868 
L 229.428176 161.337499 
L 235.225578 160.015331 
L 241.022981 159.442427 
L 246.820384 158.172017 
L 252.617786 157.04851 
L 258.415189 156.128253 
L 264.212591 155.173177 
L 270.009994 154.172956 
L 275.807397 153.028733 
L 281.604799 152.368814 
L 287.402202 151.823036 
L 293.199604 150.510417 
L 298.997007 149.692089 
L 304.794409 148.5922 
L 310.591812 148.062888 
L 316.389215 146.909319 
L 322.186617 146.470666 
L 327.98402 145.88899 
" clip-path="url(#p1c45af92f4)" style="fill: none; stroke: #fde725; stroke-opacity: 0.85; stroke-linejoin: miter"/>
   </g>
   <g id="line2d_83">
    <path d="M 43.911293 236.705082 
L 49.708695 222.982405 
L 55.506098 216.550188 
L 61.3035 211.41986 
L 67.100903 207.692136 
L 72.898306 204.146203 
L 78.695708 201.307526 
L 84.493111 198.116065 
L 90.290513 196.458995 
L 96.087916 194.044328 
L 101.885319 191.917294 
L 107.682721 189.638397 
L 113.480124 187.823694 
L 119.277526 186.000084 
L 125.074929 184.028928 
L 130.872332 182.475406 
L 136.669734 180.588028 
L 142.467137 178.952821 
L 148.264539 177.329862 
L 154.061942 175.843786 
L 159.859345 173.952763 
L 165.656747 173.068946 
L 171.45415 171.493324 
L 177.251552 170.912794 
L 183.048955 170.25861 
L 188.846358 168.722464 
L 194.64376 167.52031 
L 200.441163 166.733765 
L 206.238565 165.920261 
L 212.035968 164.804717 
L 217.833371 164.607743 
L 223.630773 164.13923 
L 229.428176 162.545119 
L 235.225578 161.694062 
L 241.022981 160.695529 
L 246.820384 159.066665 
L 252.617786 158.509788 
L 258.415189 157.712783 
L 264.212591 156.573924 
L 270.009994 155.731269 
L 275.807397 154.842188 
L 281.604799 153.372645 
L 287.402202 152.952751 
L 293.199604 151.510841 
L 298.997007 150.966413 
L 304.794409 149.613205 
L 310.591812 148.847612 
L 316.389215 148.386994 
L 322.186617 147.485699 
L 327.98402 147.101839 
" clip-path="url(#p1c45af92f4)" style="fill: none; stroke: #fde725; stroke-opacity: 0.85; stroke-linejoin: miter"/>
   </g>
   <g id="patch_6">
    <path d="M 29.707656 258.578897 
L 29.707656 140.220943 
" style="fill: none; stroke: #1a1a1a; stroke-width: 0.8; stroke-linejoin: miter; stroke-linecap: square"/>
   </g>
   <g id="patch_7">
    <path d="M 29.707656 258.578897 
L 342.187656 258.578897 
" style="fill: none; stroke: #1a1a1a; stroke-width: 0.8; stroke-linejoin: miter; stroke-linecap: square"/>
   </g>
  </g>
  <g id="text_27">
   <!-- r003 -->
   <g style="fill: #888888" transform="translate(364.838844 291.9275) scale(0.065 -0.065)">
    <use xlink:href="#Menlo-Regular-72"/>
    <use xlink:href="#Menlo-Regular-30" transform="translate(60.205078 0)"/>
    <use xlink:href="#Menlo-Regular-30" transform="translate(120.410156 0)"/>
    <use xlink:href="#Menlo-Regular-33" transform="translate(180.615234 0)"/>
   </g>
  </g>
 </g>
 <defs>
  <clipPath id="p24ab27a429">
   <rect x="29.707656" y="4.109297" width="312.48" height="118.357953"/>
  </clipPath>
  <clipPath id="p1c45af92f4">
   <rect x="29.707656" y="140.220943" width="312.48" height="118.357953"/>
  </clipPath>
 </defs>
</svg>
