<?xml version="1.0" encoding="utf-8" standalone="no"?>
<!DOCTYPE svg PUBLIC "-//W3C//DTD SVG 1.1//EN"
  "http://www.w3.org/Graphics/SVG/1.1/DTD/svg11.dtd">
<svg xmlns:xlink="http://www.w3.org/1999/xlink" width="567.687766pt" height="315.489375pt" viewBox="0 0 567.687766 315.489375" xmlns="http://www.w3.org/2000/svg" version="1.1">
 <metadata>
  <rdf:RDF xmlns:dc="http://purl.org/dc/elements/1.1/" xmlns:cc="http://creativecommons.org/ns#" xmlns:rdf="http://www.w3.org/1999/02/22-rdf-syntax-ns#">
   <cc:Work>
    <dc:type rdf:resource="http://purl.org/dc/dcmitype/StillImage"/>
    <dc:date>2026-07-11T19:22:35.796370</dc:date>
    <dc:format>image/svg+xml</dc:format>
    <dc:creator>
     <cc:Agent>
      <dc:title>Matplotlib v3.10.8, https://matplotlib.org/</dc:title>
     </cc:Agent>
    </dc:creator>
   </cc:Work>
  </rdf:RDF>
 </metadata>
 <defs>
  <style type="text/css">*{stroke-linejoin: round; stroke-linecap: butt}</style>
 </defs>
 <g id="figure_1">
  <g id="patch_1">
   <path d="M 0 315.489375 
L 567.687766 315.489375 
L 567.687766 0 
L 0 0 
z
" style="fill: #ffffff"/>
  </g>
  <g id="axes_1">
   <g id="patch_2">
    <path d="M 43.31 282.3 
L 560.487766 282.3 
L 560.487766 7.2 
L 43.31 7.2 
z
" style="fill: #ffffff"/>
   </g>
   <g id="matplotlib.axis_1">
    <g id="xtick_1">
     <g id="line2d_1">
      <defs>
       <path id="m4ff2ad1532" d="M 0 0 
L 0 -4 
" style="stroke: #1a1a1a"/>
      </defs>
      <g>
       <use xlink:href="#m4ff2ad1532" x="50.605611" y="282.3" style="fill: #1a1a1a; stroke: #1a1a1a"/>
      </g>
     </g>
     <g id="text_1">
      <!-- 0 -->
      <g style="fill: #1a1a1a" transform="translate(47.89647 292.686406) scale(0.09 -0.09)">
       <defs>
        <path id="DejaVuSansMono-30" d="M 1509 2344 
Q 1509 2516 1629 2641 
Q 1750 2766 1919 2766 
Q 2094 2766 2219 2641 
Q 2344 2516 2344 2344 
Q 2344 2169 2220 2047 
Q 2097 1925 1919 1925 
Q 1744 1925 1626 2044 
Q 1509 2163 1509 2344 
z
M 1925 4250 
Q 1484 4250 1267 3775 
Q 1050 3300 1050 2328 
Q 1050 1359 1267 884 
Q 1484 409 1925 409 
Q 2369 409 2586 884 
Q 2803 1359 2803 2328 
Q 2803 3300 2586 3775 
Q 2369 4250 1925 4250 
z
M 1925 4750 
Q 2672 4750 3055 4137 
Q 3438 3525 3438 2328 
Q 3438 1134 3055 521 
Q 2672 -91 1925 -91 
Q 1178 -91 797 521 
Q 416 1134 416 2328 
Q 416 3525 797 4137 
Q 1178 4750 1925 4750 
z
" transform="scale(0.015625)"/>
       </defs>
       <use xlink:href="#DejaVuSansMono-30"/>
      </g>
     </g>
    </g>
    <g id="xtick_2">
     <g id="line2d_2">
      <g>
       <use xlink:href="#m4ff2ad1532" x="131.667957" y="282.3" style="fill: #1a1a1a; stroke: #1a1a1a"/>
      </g>
     </g>
     <g id="text_2">
      <!-- 5 -->
      <g style="fill: #1a1a1a" transform="translate(128.958816 292.686406) scale(0.09 -0.09)">
       <defs>
        <path id="DejaVuSansMono-35" d="M 647 4666 
L 3009 4666 
L 3009 4134 
L 1222 4134 
L 1222 2988 
Q 1356 3038 1492 3061 
Q 1628 3084 1766 3084 
Q 2491 3084 2916 2656 
Q 3341 2228 3341 1497 
Q 3341 759 2895 334 
Q 2450 -91 1678 -91 
Q 1306 -91 998 -41 
Q 691 9 447 109 
L 447 750 
Q 734 594 1025 517 
Q 1316 441 1619 441 
Q 2141 441 2423 716 
Q 2706 991 2706 1497 
Q 2706 1997 2414 2275 
Q 2122 2553 1600 2553 
Q 1347 2553 1106 2495 
Q 866 2438 647 2322 
L 647 4666 
z
" transform="scale(0.015625)"/>
       </defs>
       <use xlink:href="#DejaVuSansMono-35"/>
      </g>
     </g>
    </g>
    <g id="xtick_3">
     <g id="line2d_3">
      <g>
       <use xlink:href="#m4ff2ad1532" x="212.730303" y="282.3" style="fill: #1a1a1a; stroke: #1a1a1a"/>
      </g>
     </g>
     <g id="text_3">
      <!-- 10 -->
      <g style="fill: #1a1a1a" transform="translate(207.312021 292.686406) scale(0.09 -0.09)">
       <defs>
        <path id="DejaVuSansMono-31" d="M 844 531 
L 1825 531 
L 1825 4097 
L 769 3859 
L 769 4434 
L 1819 4666 
L 2450 4666 
L 2450 531 
L 3419 531 
L 3419 0 
L 844 0 
L 844 531 
z
" transform="scale(0.015625)"/>
       </defs>
       <use xlink:href="#DejaVuSansMono-31"/>
       <use xlink:href="#DejaVuSansMono-30" transform="translate(60.205078 0)"/>
      </g>
     </g>
    </g>
    <g id="xtick_4">
     <g id="line2d_4">
      <g>
       <use xlink:href="#m4ff2ad1532" x="293.792648" y="282.3" style="fill: #1a1a1a; stroke: #1a1a1a"/>
      </g>
     </g>
     <g id="text_4">
      <!-- 15 -->
      <g style="fill: #1a1a1a" transform="translate(288.374367 292.686406) scale(0.09 -0.09)">
       <use xlink:href="#DejaVuSansMono-31"/>
       <use xlink:href="#DejaVuSansMono-35" transform="translate(60.205078 0)"/>
      </g>
     </g>
    </g>
    <g id="xtick_5">
     <g id="line2d_5">
      <g>
       <use xlink:href="#m4ff2ad1532" x="374.854994" y="282.3" style="fill: #1a1a1a; stroke: #1a1a1a"/>
      </g>
     </g>
     <g id="text_5">
      <!-- 20 -->
      <g style="fill: #1a1a1a" transform="translate(369.436713 292.686406) scale(0.09 -0.09)">
       <defs>
        <path id="DejaVuSansMono-32" d="M 1166 531 
L 3309 531 
L 3309 0 
L 475 0 
L 475 531 
Q 1059 1147 1496 1619 
Q 1934 2091 2100 2284 
Q 2413 2666 2522 2902 
Q 2631 3138 2631 3384 
Q 2631 3775 2401 3997 
Q 2172 4219 1772 4219 
Q 1488 4219 1175 4116 
Q 863 4013 513 3803 
L 513 4441 
Q 834 4594 1145 4672 
Q 1456 4750 1759 4750 
Q 2444 4750 2861 4386 
Q 3278 4022 3278 3431 
Q 3278 3131 3139 2831 
Q 3000 2531 2688 2169 
Q 2513 1966 2180 1606 
Q 1847 1247 1166 531 
z
" transform="scale(0.015625)"/>
       </defs>
       <use xlink:href="#DejaVuSansMono-32"/>
       <use xlink:href="#DejaVuSansMono-30" transform="translate(60.205078 0)"/>
      </g>
     </g>
    </g>
    <g id="xtick_6">
     <g id="line2d_6">
      <g>
       <use xlink:href="#m4ff2ad1532" x="455.91734" y="282.3" style="fill: #1a1a1a; stroke: #1a1a1a"/>
      </g>
     </g>
     <g id="text_6">
      <!-- 25 -->
      <g style="fill: #1a1a1a" transform="translate(450.499059 292.686406) scale(0.09 -0.09)">
       <use xlink:href="#DejaVuSansMono-32"/>
       <use xlink:href="#DejaVuSansMono-35" transform="translate(60.205078 0)"/>
      </g>
     </g>
    </g>
    <g id="xtick_7">
     <g id="line2d_7">
      <g>
       <use xlink:href="#m4ff2ad1532" x="536.979686" y="282.3" style="fill: #1a1a1a; stroke: #1a1a1a"/>
      </g>
     </g>
     <g id="text_7">
      <!-- 30 -->
      <g style="fill: #1a1a1a" transform="translate(531.561404 292.686406) scale(0.09 -0.09)">
       <defs>
        <path id="DejaVuSansMono-33" d="M 2425 2497 
Q 2884 2375 3128 2064 
Q 3372 1753 3372 1288 
Q 3372 644 2939 276 
Q 2506 -91 1741 -91 
Q 1419 -91 1084 -31 
Q 750 28 428 141 
L 428 769 
Q 747 603 1056 522 
Q 1366 441 1672 441 
Q 2191 441 2469 675 
Q 2747 909 2747 1350 
Q 2747 1756 2469 1995 
Q 2191 2234 1716 2234 
L 1234 2234 
L 1234 2753 
L 1716 2753 
Q 2150 2753 2394 2943 
Q 2638 3134 2638 3475 
Q 2638 3834 2411 4026 
Q 2184 4219 1766 4219 
Q 1488 4219 1191 4156 
Q 894 4094 569 3969 
L 569 4550 
Q 947 4650 1242 4700 
Q 1538 4750 1766 4750 
Q 2447 4750 2855 4408 
Q 3263 4066 3263 3500 
Q 3263 3116 3048 2859 
Q 2834 2603 2425 2497 
z
" transform="scale(0.015625)"/>
       </defs>
       <use xlink:href="#DejaVuSansMono-33"/>
       <use xlink:href="#DejaVuSansMono-30" transform="translate(60.205078 0)"/>
      </g>
     </g>
    </g>
    <g id="text_8">
     <!-- epoch -->
     <g style="fill: #1a1a1a" transform="translate(286.848102 306.209687) scale(0.1 -0.1)">
      <defs>
       <path id="DejaVuSansMono-65" d="M 3475 1894 
L 3475 1613 
L 984 1613 
L 984 1594 
Q 984 1022 1282 709 
Q 1581 397 2125 397 
Q 2400 397 2700 484 
Q 3000 572 3341 750 
L 3341 178 
Q 3013 44 2708 -23 
Q 2403 -91 2119 -91 
Q 1303 -91 843 398 
Q 384 888 384 1747 
Q 384 2584 834 3084 
Q 1284 3584 2034 3584 
Q 2703 3584 3089 3131 
Q 3475 2678 3475 1894 
z
M 2900 2063 
Q 2888 2569 2661 2833 
Q 2434 3097 2009 3097 
Q 1594 3097 1325 2822 
Q 1056 2547 1006 2059 
L 2900 2063 
z
" transform="scale(0.015625)"/>
       <path id="DejaVuSansMono-70" d="M 1172 441 
L 1172 -1331 
L 594 -1331 
L 594 3500 
L 1172 3500 
L 1172 3053 
Q 1316 3313 1555 3448 
Q 1794 3584 2106 3584 
Q 2741 3584 3102 3093 
Q 3463 2603 3463 1734 
Q 3463 881 3100 395 
Q 2738 -91 2106 -91 
Q 1788 -91 1548 45 
Q 1309 181 1172 441 
z
M 2859 1747 
Q 2859 2416 2648 2756 
Q 2438 3097 2022 3097 
Q 1603 3097 1387 2755 
Q 1172 2413 1172 1747 
Q 1172 1084 1387 740 
Q 1603 397 2022 397 
Q 2438 397 2648 737 
Q 2859 1078 2859 1747 
z
" transform="scale(0.015625)"/>
       <path id="DejaVuSansMono-6f" d="M 1925 3097 
Q 1488 3097 1263 2756 
Q 1038 2416 1038 1747 
Q 1038 1081 1263 739 
Q 1488 397 1925 397 
Q 2366 397 2591 739 
Q 2816 1081 2816 1747 
Q 2816 2416 2591 2756 
Q 2366 3097 1925 3097 
z
M 1925 3584 
Q 2653 3584 3039 3112 
Q 3425 2641 3425 1747 
Q 3425 850 3040 379 
Q 2656 -91 1925 -91 
Q 1197 -91 812 379 
Q 428 850 428 1747 
Q 428 2641 812 3112 
Q 1197 3584 1925 3584 
z
" transform="scale(0.015625)"/>
       <path id="DejaVuSansMono-63" d="M 3316 178 
Q 3084 44 2839 -23 
Q 2594 -91 2338 -91 
Q 1525 -91 1067 396 
Q 609 884 609 1747 
Q 609 2609 1067 3096 
Q 1525 3584 2338 3584 
Q 2591 3584 2831 3518 
Q 3072 3453 3316 3316 
L 3316 2713 
Q 3088 2916 2858 3006 
Q 2628 3097 2338 3097 
Q 1797 3097 1506 2747 
Q 1216 2397 1216 1747 
Q 1216 1100 1508 748 
Q 1800 397 2338 397 
Q 2638 397 2875 489 
Q 3113 581 3316 775 
L 3316 178 
z
" transform="scale(0.015625)"/>
       <path id="DejaVuSansMono-68" d="M 3284 2169 
L 3284 0 
L 2706 0 
L 2706 2169 
Q 2706 2641 2540 2862 
Q 2375 3084 2022 3084 
Q 1619 3084 1401 2798 
Q 1184 2513 1184 1978 
L 1184 0 
L 609 0 
L 609 4863 
L 1184 4863 
L 1184 2975 
Q 1338 3275 1600 3429 
Q 1863 3584 2222 3584 
Q 2756 3584 3020 3232 
Q 3284 2881 3284 2169 
z
" transform="scale(0.015625)"/>
      </defs>
      <use xlink:href="#DejaVuSansMono-65"/>
      <use xlink:href="#DejaVuSansMono-70" transform="translate(60.205078 0)"/>
      <use xlink:href="#DejaVuSansMono-6f" transform="translate(120.410156 0)"/>
      <use xlink:href="#DejaVuSansMono-63" transform="translate(180.615234 0)"/>
      <use xlink:href="#DejaVuSansMono-68" transform="translate(240.820312 0)"/>
     </g>
    </g>
   </g>
   <g id="matplotlib.axis_2">
    <g id="ytick_1">
     <g id="line2d_8">
      <defs>
       <path id="mda2dce6f94" d="M 0 0 
L 4 0 
" style="stroke: #1a1a1a"/>
      </defs>
      <g>
       <use xlink:href="#mda2dce6f94" x="43.31" y="250.777042" style="fill: #1a1a1a; stroke: #1a1a1a"/>
      </g>
     </g>
     <g id="text_9">
      <!-- $\mathdefault{10^{3}}$ -->
      <g style="fill: #1a1a1a" transform="translate(24.78 254.220245) scale(0.09 -0.09)">
       <use xlink:href="#DejaVuSansMono-31" transform="translate(0 0.765625)"/>
       <use xlink:href="#DejaVuSansMono-30" transform="translate(60.205078 0.765625)"/>
       <use xlink:href="#DejaVuSansMono-33" transform="translate(121.367188 39.046875) scale(0.7)"/>
      </g>
     </g>
    </g>
    <g id="ytick_2">
     <g id="line2d_9">
      <g>
       <use xlink:href="#mda2dce6f94" x="43.31" y="219.217314" style="fill: #1a1a1a; stroke: #1a1a1a"/>
      </g>
     </g>
     <g id="text_10">
      <!-- $\mathdefault{10^{5}}$ -->
      <g style="fill: #1a1a1a" transform="translate(24.78 222.660517) scale(0.09 -0.09)">
       <use xlink:href="#DejaVuSansMono-31" transform="translate(0 0.684375)"/>
       <use xlink:href="#DejaVuSansMono-30" transform="translate(60.205078 0.684375)"/>
       <use xlink:href="#DejaVuSansMono-35" transform="translate(121.367188 38.965625) scale(0.7)"/>
      </g>
     </g>
    </g>
    <g id="ytick_3">
     <g id="line2d_10">
      <g>
       <use xlink:href="#mda2dce6f94" x="43.31" y="187.657586" style="fill: #1a1a1a; stroke: #1a1a1a"/>
      </g>
     </g>
     <g id="text_11">
      <!-- $\mathdefault{10^{7}}$ -->
      <g style="fill: #1a1a1a" transform="translate(24.78 191.100789) scale(0.09 -0.09)">
       <defs>
        <path id="DejaVuSansMono-37" d="M 434 4666 
L 3372 4666 
L 3372 4397 
L 1703 0 
L 1044 0 
L 2669 4134 
L 434 4134 
L 434 4666 
z
" transform="scale(0.015625)"/>
       </defs>
       <use xlink:href="#DejaVuSansMono-31" transform="translate(0 0.684375)"/>
       <use xlink:href="#DejaVuSansMono-30" transform="translate(60.205078 0.684375)"/>
       <use xlink:href="#DejaVuSansMono-37" transform="translate(121.367188 38.965625) scale(0.7)"/>
      </g>
     </g>
    </g>
    <g id="ytick_4">
     <g id="line2d_11">
      <g>
       <use xlink:href="#mda2dce6f94" x="43.31" y="156.097858" style="fill: #1a1a1a; stroke: #1a1a1a"/>
      </g>
     </g>
     <g id="text_12">
      <!-- $\mathdefault{10^{9}}$ -->
      <g style="fill: #1a1a1a" transform="translate(24.78 159.541061) scale(0.09 -0.09)">
       <defs>
        <path id="DejaVuSansMono-39" d="M 1863 2069 
Q 2266 2069 2495 2359 
Q 2725 2650 2725 3163 
Q 2725 3675 2495 3965 
Q 2266 4256 1863 4256 
Q 1444 4256 1231 3979 
Q 1019 3703 1019 3163 
Q 1019 2619 1230 2344 
Q 1441 2069 1863 2069 
z
M 738 97 
L 738 678 
Q 934 563 1156 502 
Q 1378 441 1619 441 
Q 2219 441 2526 892 
Q 2834 1344 2834 2222 
Q 2688 1909 2422 1742 
Q 2156 1575 1813 1575 
Q 1138 1575 767 1990 
Q 397 2406 397 3169 
Q 397 3922 776 4336 
Q 1156 4750 1850 4750 
Q 2663 4750 3041 4165 
Q 3419 3581 3419 2328 
Q 3419 1150 2964 529 
Q 2509 -91 1644 -91 
Q 1416 -91 1184 -42 
Q 953 6 738 97 
z
" transform="scale(0.015625)"/>
       </defs>
       <use xlink:href="#DejaVuSansMono-31" transform="translate(0 0.765625)"/>
       <use xlink:href="#DejaVuSansMono-30" transform="translate(60.205078 0.765625)"/>
       <use xlink:href="#DejaVuSansMono-39" transform="translate(121.367188 39.046875) scale(0.7)"/>
      </g>
     </g>
    </g>
    <g id="ytick_5">
     <g id="line2d_12">
      <g>
       <use xlink:href="#mda2dce6f94" x="43.31" y="124.53813" style="fill: #1a1a1a; stroke: #1a1a1a"/>
      </g>
     </g>
     <g id="text_13">
      <!-- $\mathdefault{10^{11}}$ -->
      <g style="fill: #1a1a1a" transform="translate(21 127.981333) scale(0.09 -0.09)">
       <use xlink:href="#DejaVuSansMono-31" transform="translate(0 0.684375)"/>
       <use xlink:href="#DejaVuSansMono-30" transform="translate(60.205078 0.684375)"/>
       <use xlink:href="#DejaVuSansMono-31" transform="translate(121.367188 38.965625) scale(0.7)"/>
       <use xlink:href="#DejaVuSansMono-31" transform="translate(163.510742 38.965625) scale(0.7)"/>
      </g>
     </g>
    </g>
    <g id="ytick_6">
     <g id="line2d_13">
      <g>
       <use xlink:href="#mda2dce6f94" x="43.31" y="92.978402" style="fill: #1a1a1a; stroke: #1a1a1a"/>
      </g>
     </g>
     <g id="text_14">
      <!-- $\mathdefault{10^{13}}$ -->
      <g style="fill: #1a1a1a" transform="translate(21 96.421605) scale(0.09 -0.09)">
       <use xlink:href="#DejaVuSansMono-31" transform="translate(0 0.765625)"/>
       <use xlink:href="#DejaVuSansMono-30" transform="translate(60.205078 0.765625)"/>
       <use xlink:href="#DejaVuSansMono-31" transform="translate(121.367188 39.046875) scale(0.7)"/>
       <use xlink:href="#DejaVuSansMono-33" transform="translate(163.510742 39.046875) scale(0.7)"/>
      </g>
     </g>
    </g>
    <g id="ytick_7">
     <g id="line2d_14">
      <g>
       <use xlink:href="#mda2dce6f94" x="43.31" y="61.418674" style="fill: #1a1a1a; stroke: #1a1a1a"/>
      </g>
     </g>
     <g id="text_15">
      <!-- $\mathdefault{10^{15}}$ -->
      <g style="fill: #1a1a1a" transform="translate(21 64.861877) scale(0.09 -0.09)">
       <use xlink:href="#DejaVuSansMono-31" transform="translate(0 0.684375)"/>
       <use xlink:href="#DejaVuSansMono-30" transform="translate(60.205078 0.684375)"/>
       <use xlink:href="#DejaVuSansMono-31" transform="translate(121.367188 38.965625) scale(0.7)"/>
       <use xlink:href="#DejaVuSansMono-35" transform="translate(163.510742 38.965625) scale(0.7)"/>
      </g>
     </g>
    </g>
    <g id="ytick_8">
     <g id="line2d_15">
      <g>
       <use xlink:href="#mda2dce6f94" x="43.31" y="29.858946" style="fill: #1a1a1a; stroke: #1a1a1a"/>
      </g>
     </g>
     <g id="text_16">
      <!-- $\mathdefault{10^{17}}$ -->
      <g style="fill: #1a1a1a" transform="translate(21 33.302149) scale(0.09 -0.09)">
       <use xlink:href="#DejaVuSansMono-31" transform="translate(0 0.684375)"/>
       <use xlink:href="#DejaVuSansMono-30" transform="translate(60.205078 0.684375)"/>
       <use xlink:href="#DejaVuSansMono-31" transform="translate(121.367188 38.965625) scale(0.7)"/>
       <use xlink:href="#DejaVuSansMono-37" transform="translate(163.510742 38.965625) scale(0.7)"/>
      </g>
     </g>
    </g>
    <g id="text_17">
     <!-- max pre-clip grad norm -->
     <g style="fill: #1a1a1a" transform="translate(14.851562 210.973437) rotate(-90) scale(0.1 -0.1)">
      <defs>
       <path id="DejaVuSansMono-6d" d="M 2113 3144 
Q 2219 3369 2383 3476 
Q 2547 3584 2778 3584 
Q 3200 3584 3373 3257 
Q 3547 2931 3547 2028 
L 3547 0 
L 3022 0 
L 3022 2003 
Q 3022 2744 2939 2923 
Q 2856 3103 2638 3103 
Q 2388 3103 2295 2911 
Q 2203 2719 2203 2003 
L 2203 0 
L 1678 0 
L 1678 2003 
Q 1678 2753 1589 2928 
Q 1500 3103 1269 3103 
Q 1041 3103 952 2911 
Q 863 2719 863 2003 
L 863 0 
L 341 0 
L 341 3500 
L 863 3500 
L 863 3200 
Q 966 3388 1120 3486 
Q 1275 3584 1472 3584 
Q 1709 3584 1867 3475 
Q 2025 3366 2113 3144 
z
" transform="scale(0.015625)"/>
       <path id="DejaVuSansMono-61" d="M 2194 1759 
L 2003 1759 
Q 1500 1759 1245 1582 
Q 991 1406 991 1056 
Q 991 741 1181 566 
Q 1372 391 1709 391 
Q 2184 391 2456 720 
Q 2728 1050 2731 1631 
L 2731 1759 
L 2194 1759 
z
M 3309 1997 
L 3309 0 
L 2731 0 
L 2731 519 
Q 2547 206 2267 57 
Q 1988 -91 1588 -91 
Q 1053 -91 734 211 
Q 416 513 416 1019 
Q 416 1603 808 1906 
Q 1200 2209 1959 2209 
L 2731 2209 
L 2731 2300 
Q 2728 2719 2518 2908 
Q 2309 3097 1850 3097 
Q 1556 3097 1256 3012 
Q 956 2928 672 2766 
L 672 3341 
Q 991 3463 1283 3523 
Q 1575 3584 1850 3584 
Q 2284 3584 2592 3456 
Q 2900 3328 3091 3072 
Q 3209 2916 3259 2686 
Q 3309 2456 3309 1997 
z
" transform="scale(0.015625)"/>
       <path id="DejaVuSansMono-78" d="M 3494 3500 
L 2241 1825 
L 3616 0 
L 2950 0 
L 1925 1403 
L 903 0 
L 238 0 
L 1613 1825 
L 359 3500 
L 997 3500 
L 1925 2234 
L 2847 3500 
L 3494 3500 
z
" transform="scale(0.015625)"/>
       <path id="DejaVuSansMono-20" transform="scale(0.015625)"/>
       <path id="DejaVuSansMono-72" d="M 3609 2778 
Q 3425 2922 3234 2987 
Q 3044 3053 2816 3053 
Q 2278 3053 1993 2715 
Q 1709 2378 1709 1741 
L 1709 0 
L 1131 0 
L 1131 3500 
L 1709 3500 
L 1709 2816 
Q 1853 3188 2151 3386 
Q 2450 3584 2859 3584 
Q 3072 3584 3256 3531 
Q 3441 3478 3609 3366 
L 3609 2778 
z
" transform="scale(0.015625)"/>
       <path id="DejaVuSansMono-2d" d="M 1113 2009 
L 2741 2009 
L 2741 1497 
L 1113 1497 
L 1113 2009 
z
" transform="scale(0.015625)"/>
       <path id="DejaVuSansMono-6c" d="M 1997 1269 
Q 1997 881 2139 684 
Q 2281 488 2559 488 
L 3231 488 
L 3231 0 
L 2503 0 
Q 1988 0 1705 331 
Q 1422 663 1422 1269 
L 1422 4447 
L 500 4447 
L 500 4897 
L 1997 4897 
L 1997 1269 
z
" transform="scale(0.015625)"/>
       <path id="DejaVuSansMono-69" d="M 800 3500 
L 2272 3500 
L 2272 447 
L 3413 447 
L 3413 0 
L 556 0 
L 556 447 
L 1697 447 
L 1697 3053 
L 800 3053 
L 800 3500 
z
M 1697 4863 
L 2272 4863 
L 2272 4134 
L 1697 4134 
L 1697 4863 
z
" transform="scale(0.015625)"/>
       <path id="DejaVuSansMono-67" d="M 2681 1778 
Q 2681 2425 2470 2761 
Q 2259 3097 1856 3097 
Q 1434 3097 1212 2761 
Q 991 2425 991 1778 
Q 991 1131 1214 792 
Q 1438 453 1863 453 
Q 2259 453 2470 793 
Q 2681 1134 2681 1778 
z
M 3256 225 
Q 3256 -563 2884 -969 
Q 2513 -1375 1791 -1375 
Q 1553 -1375 1293 -1331 
Q 1034 -1288 775 -1203 
L 775 -634 
Q 1081 -778 1331 -847 
Q 1581 -916 1791 -916 
Q 2256 -916 2468 -662 
Q 2681 -409 2681 141 
L 2681 166 
L 2681 556 
Q 2544 263 2306 119 
Q 2069 -25 1728 -25 
Q 1116 -25 750 465 
Q 384 956 384 1778 
Q 384 2603 750 3093 
Q 1116 3584 1728 3584 
Q 2066 3584 2300 3450 
Q 2534 3316 2681 3034 
L 2681 3488 
L 3256 3488 
L 3256 225 
z
" transform="scale(0.015625)"/>
       <path id="DejaVuSansMono-64" d="M 2681 3053 
L 2681 4863 
L 3256 4863 
L 3256 0 
L 2681 0 
L 2681 441 
Q 2538 181 2298 45 
Q 2059 -91 1747 -91 
Q 1113 -91 748 401 
Q 384 894 384 1759 
Q 384 2613 750 3098 
Q 1116 3584 1747 3584 
Q 2063 3584 2303 3448 
Q 2544 3313 2681 3053 
z
M 991 1747 
Q 991 1078 1203 737 
Q 1416 397 1831 397 
Q 2247 397 2464 740 
Q 2681 1084 2681 1747 
Q 2681 2413 2464 2755 
Q 2247 3097 1831 3097 
Q 1416 3097 1203 2756 
Q 991 2416 991 1747 
z
" transform="scale(0.015625)"/>
       <path id="DejaVuSansMono-6e" d="M 3284 2169 
L 3284 0 
L 2706 0 
L 2706 2169 
Q 2706 2641 2540 2862 
Q 2375 3084 2022 3084 
Q 1619 3084 1401 2798 
Q 1184 2513 1184 1978 
L 1184 0 
L 609 0 
L 609 3500 
L 1184 3500 
L 1184 2975 
Q 1338 3275 1600 3429 
Q 1863 3584 2222 3584 
Q 2756 3584 3020 3232 
Q 3284 2881 3284 2169 
z
" transform="scale(0.015625)"/>
      </defs>
      <use xlink:href="#DejaVuSansMono-6d"/>
      <use xlink:href="#DejaVuSansMono-61" transform="translate(60.205078 0)"/>
      <use xlink:href="#DejaVuSansMono-78" transform="translate(120.410156 0)"/>
      <use xlink:href="#DejaVuSansMono-20" transform="translate(180.615234 0)"/>
      <use xlink:href="#DejaVuSansMono-70" transform="translate(240.820312 0)"/>
      <use xlink:href="#DejaVuSansMono-72" transform="translate(301.025391 0)"/>
      <use xlink:href="#DejaVuSansMono-65" transform="translate(361.230469 0)"/>
      <use xlink:href="#DejaVuSansMono-2d" transform="translate(421.435547 0)"/>
      <use xlink:href="#DejaVuSansMono-63" transform="translate(481.640625 0)"/>
      <use xlink:href="#DejaVuSansMono-6c" transform="translate(541.845703 0)"/>
      <use xlink:href="#DejaVuSansMono-69" transform="translate(602.050781 0)"/>
      <use xlink:href="#DejaVuSansMono-70" transform="translate(662.255859 0)"/>
      <use xlink:href="#DejaVuSansMono-20" transform="translate(722.460938 0)"/>
      <use xlink:href="#DejaVuSansMono-67" transform="translate(782.666016 0)"/>
      <use xlink:href="#DejaVuSansMono-72" transform="translate(842.871094 0)"/>
      <use xlink:href="#DejaVuSansMono-61" transform="translate(903.076172 0)"/>
      <use xlink:href="#DejaVuSansMono-64" transform="translate(963.28125 0)"/>
      <use xlink:href="#DejaVuSansMono-20" transform="translate(1023.486328 0)"/>
      <use xlink:href="#DejaVuSansMono-6e" transform="translate(1083.691406 0)"/>
      <use xlink:href="#DejaVuSansMono-6f" transform="translate(1143.896484 0)"/>
      <use xlink:href="#DejaVuSansMono-72" transform="translate(1204.101562 0)"/>
      <use xlink:href="#DejaVuSansMono-6d" transform="translate(1264.306641 0)"/>
     </g>
    </g>
   </g>
   <g id="line2d_16">
    <path d="M 66.81808 262.168529 
L 83.030549 252.049916 
L 99.243019 262.292602 
L 115.455488 269.465392 
L 131.667957 250.467969 
L 147.880426 227.433842 
L 164.092895 258.03282 
L 180.305364 269.795455 
L 196.517834 269.605225 
L 212.730303 239.598057 
L 228.942772 255.35515 
L 245.155241 255.800941 
L 261.36771 253.979778 
L 277.580179 246.179855 
L 293.792648 252.52549 
L 310.005118 261.878481 
L 326.217587 262.543133 
L 342.430056 246.327492 
L 358.642525 241.781688 
L 374.854994 250.033889 
L 391.067463 244.053795 
L 407.279933 229.42455 
L 423.492402 241.136192 
L 439.704871 258.221222 
L 455.91734 235.849363 
L 472.129809 242.971805 
L 488.342278 248.054626 
L 504.554747 251.122786 
L 520.767217 243.752681 
L 536.979686 255.02995 
" clip-path="url(#p3a348a8c43)" style="fill: none; stroke: #c8102e; stroke-width: 1.8; stroke-linejoin: miter"/>
   </g>
   <g id="line2d_17">
    <path d="M 66.81808 250.883003 
L 83.030549 258.331623 
L 99.243019 189.404261 
L 115.455488 247.168669 
L 131.667957 265.623053 
L 147.880426 264.451378 
L 164.092895 237.275948 
L 180.305364 258.624539 
L 196.517834 264.42683 
L 212.730303 254.899804 
L 228.942772 231.344768 
L 245.155241 247.87082 
L 261.36771 257.300032 
L 277.580179 97.517879 
L 293.792648 207.320375 
L 310.005118 255.236478 
L 326.217587 254.676147 
L 342.430056 238.878316 
L 358.642525 250.70351 
L 374.854994 269.574153 
L 391.067463 231.465937 
L 407.279933 239.10622 
L 423.492402 236.836771 
L 439.704871 234.213814 
L 455.91734 235.068482 
L 472.129809 240.149601 
L 488.342278 233.188724 
L 504.554747 243.183891 
L 520.767217 260.208463 
L 536.979686 245.170782 
" clip-path="url(#p3a348a8c43)" style="fill: none; stroke: #e89400; stroke-width: 1.8; stroke-linejoin: miter"/>
   </g>
   <g id="line2d_18">
    <path d="M 66.81808 85.244796 
L 83.030549 251.066404 
L 99.243019 245.449374 
L 115.455488 215.150338 
L 131.667957 210.520325 
L 147.880426 241.146639 
L 164.092895 221.328766 
L 180.305364 19.704545 
L 196.517834 237.954879 
L 212.730303 174.970038 
L 228.942772 216.770073 
L 245.155241 241.491136 
L 261.36771 212.079265 
L 277.580179 149.339002 
L 293.792648 149.47568 
L 310.005118 152.327739 
L 326.217587 252.985662 
L 342.430056 219.442051 
L 358.642525 224.314971 
L 374.854994 225.179408 
L 391.067463 203.519803 
L 407.279933 236.632617 
L 423.492402 242.354648 
L 439.704871 237.034771 
L 455.91734 231.14626 
L 472.129809 233.723917 
L 488.342278 191.695207 
L 504.554747 238.238365 
L 520.767217 191.973524 
L 536.979686 199.00449 
" clip-path="url(#p3a348a8c43)" style="fill: none; stroke: #1a1a1a; stroke-width: 1.8; stroke-linejoin: miter"/>
   </g>
   <g id="patch_3">
    <path d="M 43.31 282.3 
L 43.31 7.2 
" style="fill: none; stroke: #1a1a1a; stroke-width: 1.4; stroke-linejoin: miter; stroke-linecap: square"/>
   </g>
   <g id="patch_4">
    <path d="M 43.31 282.3 
L 560.487766 282.3 
" style="fill: none; stroke: #1a1a1a; stroke-width: 1.4; stroke-linejoin: miter; stroke-linecap: square"/>
   </g>
   <g id="legend_1">
    <g id="line2d_19">
     <path d="M 461.268391 19.936406 
L 470.268391 19.936406 
L 479.268391 19.936406 
" style="fill: none; stroke: #c8102e; stroke-width: 1.8; stroke-linejoin: miter"/>
    </g>
    <g id="text_18">
     <!-- Δt = 1 ms -->
     <g style="fill: #1a1a1a" transform="translate(486.468391 23.086406) scale(0.09 -0.09)">
      <defs>
       <path id="DejaVuSansMono-394" d="M 2931 531 
L 1925 4109 
L 919 531 
L 2931 531 
z
M 3738 0 
L 116 0 
L 1544 4666 
L 2309 4666 
L 3738 0 
z
" transform="scale(0.015625)"/>
       <path id="DejaVuSansMono-74" d="M 1919 4494 
L 1919 3500 
L 3225 3500 
L 3225 3053 
L 1919 3053 
L 1919 1153 
Q 1919 766 2066 612 
Q 2213 459 2578 459 
L 3225 459 
L 3225 0 
L 2522 0 
Q 1875 0 1609 259 
Q 1344 519 1344 1153 
L 1344 3053 
L 409 3053 
L 409 3500 
L 1344 3500 
L 1344 4494 
L 1919 4494 
z
" transform="scale(0.015625)"/>
       <path id="DejaVuSansMono-3d" d="M 275 1638 
L 3578 1638 
L 3578 1100 
L 275 1100 
L 275 1638 
z
M 275 2906 
L 3578 2906 
L 3578 2375 
L 275 2375 
L 275 2906 
z
" transform="scale(0.015625)"/>
       <path id="DejaVuSansMono-73" d="M 3041 3378 
L 3041 2816 
Q 2794 2959 2544 3031 
Q 2294 3103 2034 3103 
Q 1644 3103 1451 2976 
Q 1259 2850 1259 2591 
Q 1259 2356 1403 2240 
Q 1547 2125 2119 2016 
L 2350 1972 
Q 2778 1891 2998 1647 
Q 3219 1403 3219 1013 
Q 3219 494 2850 201 
Q 2481 -91 1825 -91 
Q 1566 -91 1281 -36 
Q 997 19 666 128 
L 666 722 
Q 988 556 1281 473 
Q 1575 391 1838 391 
Q 2219 391 2428 545 
Q 2638 700 2638 978 
Q 2638 1378 1872 1531 
L 1847 1538 
L 1631 1581 
Q 1134 1678 906 1908 
Q 678 2138 678 2534 
Q 678 3038 1018 3311 
Q 1359 3584 1991 3584 
Q 2272 3584 2531 3532 
Q 2791 3481 3041 3378 
z
" transform="scale(0.015625)"/>
      </defs>
      <use xlink:href="#DejaVuSansMono-394"/>
      <use xlink:href="#DejaVuSansMono-74" transform="translate(60.205078 0)"/>
      <use xlink:href="#DejaVuSansMono-20" transform="translate(120.410156 0)"/>
      <use xlink:href="#DejaVuSansMono-3d" transform="translate(180.615234 0)"/>
      <use xlink:href="#DejaVuSansMono-20" transform="translate(240.820312 0)"/>
      <use xlink:href="#DejaVuSansMono-31" transform="translate(301.025391 0)"/>
      <use xlink:href="#DejaVuSansMono-20" transform="translate(361.230469 0)"/>
      <use xlink:href="#DejaVuSansMono-6d" transform="translate(421.435547 0)"/>
      <use xlink:href="#DejaVuSansMono-73" transform="translate(481.640625 0)"/>
     </g>
    </g>
    <g id="line2d_20">
     <path d="M 461.268391 33.194531 
L 470.268391 33.194531 
L 479.268391 33.194531 
" style="fill: none; stroke: #e89400; stroke-width: 1.8; stroke-linejoin: miter"/>
    </g>
    <g id="text_19">
     <!-- Δt = 0.5 ms -->
     <g style="fill: #1a1a1a" transform="translate(486.468391 36.344531) scale(0.09 -0.09)">
      <defs>
       <path id="DejaVuSansMono-2e" d="M 1528 953 
L 2316 953 
L 2316 0 
L 1528 0 
L 1528 953 
z
" transform="scale(0.015625)"/>
      </defs>
      <use xlink:href="#DejaVuSansMono-394"/>
      <use xlink:href="#DejaVuSansMono-74" transform="translate(60.205078 0)"/>
      <use xlink:href="#DejaVuSansMono-20" transform="translate(120.410156 0)"/>
      <use xlink:href="#DejaVuSansMono-3d" transform="translate(180.615234 0)"/>
      <use xlink:href="#DejaVuSansMono-20" transform="translate(240.820312 0)"/>
      <use xlink:href="#DejaVuSansMono-30" transform="translate(301.025391 0)"/>
      <use xlink:href="#DejaVuSansMono-2e" transform="translate(361.230469 0)"/>
      <use xlink:href="#DejaVuSansMono-35" transform="translate(421.435547 0)"/>
      <use xlink:href="#DejaVuSansMono-20" transform="translate(481.640625 0)"/>
      <use xlink:href="#DejaVuSansMono-6d" transform="translate(541.845703 0)"/>
      <use xlink:href="#DejaVuSansMono-73" transform="translate(602.050781 0)"/>
     </g>
    </g>
    <g id="line2d_21">
     <path d="M 461.268391 46.452656 
L 470.268391 46.452656 
L 479.268391 46.452656 
" style="fill: none; stroke: #1a1a1a; stroke-width: 1.8; stroke-linejoin: miter"/>
    </g>
    <g id="text_20">
     <!-- Δt = 0.25 ms -->
     <g style="fill: #1a1a1a" transform="translate(486.468391 49.602656) scale(0.09 -0.09)">
      <use xlink:href="#DejaVuSansMono-394"/>
      <use xlink:href="#DejaVuSansMono-74" transform="translate(60.205078 0)"/>
      <use xlink:href="#DejaVuSansMono-20" transform="translate(120.410156 0)"/>
      <use xlink:href="#DejaVuSansMono-3d" transform="translate(180.615234 0)"/>
      <use xlink:href="#DejaVuSansMono-20" transform="translate(240.820312 0)"/>
      <use xlink:href="#DejaVuSansMono-30" transform="translate(301.025391 0)"/>
      <use xlink:href="#DejaVuSansMono-2e" transform="translate(361.230469 0)"/>
      <use xlink:href="#DejaVuSansMono-32" transform="translate(421.435547 0)"/>
      <use xlink:href="#DejaVuSansMono-35" transform="translate(481.640625 0)"/>
      <use xlink:href="#DejaVuSansMono-20" transform="translate(541.845703 0)"/>
      <use xlink:href="#DejaVuSansMono-6d" transform="translate(602.050781 0)"/>
      <use xlink:href="#DejaVuSansMono-73" transform="translate(662.255859 0)"/>
     </g>
    </g>
   </g>
  </g>
 </g>
 <defs>
  <clipPath id="p3a348a8c43">
   <rect x="43.31" y="7.2" width="517.177766" height="275.1"/>
  </clipPath>
 </defs>
</svg>
