<?xml version="1.0" encoding="utf-8" standalone="no"?>
<!DOCTYPE svg PUBLIC "-//W3C//DTD SVG 1.1//EN"
  "http://www.w3.org/Graphics/SVG/1.1/DTD/svg11.dtd">
<svg xmlns:xlink="http://www.w3.org/1999/xlink" width="468pt" height="263.52pt" viewBox="0 0 468 263.52" xmlns="http://www.w3.org/2000/svg" version="1.1">
 <metadata>
  <rdf:RDF xmlns:dc="http://purl.org/dc/elements/1.1/" xmlns:cc="http://creativecommons.org/ns#" xmlns:rdf="http://www.w3.org/1999/02/22-rdf-syntax-ns#">
   <cc:Work>
    <dc:type rdf:resource="http://purl.org/dc/dcmitype/StillImage"/>
    <dc:date>2026-07-08T12:22:01.634268</dc:date>
    <dc:format>image/svg+xml</dc:format>
    <dc:creator>
     <cc:Agent>
      <dc:title>Matplotlib v3.10.8, https://matplotlib.org/</dc:title>
     </cc:Agent>
    </dc:creator>
   </cc:Work>
  </rdf:RDF>
 </metadata>
 <defs>
  <style type="text/css">*{stroke-linejoin: round; stroke-linecap: butt}</style>
 </defs>
 <g id="figure_1">
  <g id="patch_1">
   <path d="M 0 263.52 
L 468 263.52 
L 468 0 
L 0 0 
z
" style="fill: #ffffff"/>
  </g>
  <g id="axes_1">
   <g id="patch_2">
    <path d="M 45.48 225.24 
L 456.66 225.24 
L 456.66 14.94 
L 45.48 14.94 
z
" style="fill: #ffffff"/>
   </g>
   <g id="matplotlib.axis_1">
    <g id="xtick_1">
     <g id="line2d_1">
      <defs>
       <path id="md3f6e72a8c" d="M 0 0 
L 0 -4 
" style="stroke: #1a1a1a"/>
      </defs>
      <g>
       <use xlink:href="#md3f6e72a8c" x="56.541429" y="225.24" style="fill: #1a1a1a; stroke: #1a1a1a"/>
      </g>
     </g>
     <g id="text_1">
      <!-- 0 -->
      <g style="fill: #1a1a1a" transform="translate(53.832288 235.603906) scale(0.09 -0.09)">
       <defs>
        <path id="Menlo-Regular-30" d="M 1925 4734 
Q 2672 4734 3055 4125 
Q 3438 3516 3438 2322 
Q 3438 1128 3055 518 
Q 2672 -91 1925 -91 
Q 1178 -91 797 518 
Q 416 1128 416 2322 
Q 416 3516 797 4125 
Q 1178 4734 1925 4734 
z
M 1925 409 
Q 2369 409 2586 881 
Q 2803 1353 2803 2322 
Q 2803 2838 2741 3253 
L 1253 925 
Q 1488 409 1925 409 
z
M 1925 4234 
Q 1484 4234 1267 3762 
Q 1050 3291 1050 2322 
Q 1050 1881 1109 1497 
L 2566 3819 
Q 2328 4234 1925 4234 
z
" transform="scale(0.015625)"/>
       </defs>
       <use xlink:href="#Menlo-Regular-30"/>
      </g>
     </g>
    </g>
    <g id="xtick_2">
     <g id="line2d_2">
      <g>
       <use xlink:href="#md3f6e72a8c" x="132.827143" y="225.24" style="fill: #1a1a1a; stroke: #1a1a1a"/>
      </g>
     </g>
     <g id="text_2">
      <!-- 10 -->
      <g style="fill: #1a1a1a" transform="translate(127.408862 235.603906) scale(0.09 -0.09)">
       <defs>
        <path id="Menlo-Regular-31" d="M 844 528 
L 1825 528 
L 1825 4053 
L 650 3488 
L 650 4094 
L 1819 4650 
L 2450 4650 
L 2450 528 
L 3419 528 
L 3419 0 
L 844 0 
L 844 528 
z
" transform="scale(0.015625)"/>
       </defs>
       <use xlink:href="#Menlo-Regular-31"/>
       <use xlink:href="#Menlo-Regular-30" transform="translate(60.205078 0)"/>
      </g>
     </g>
    </g>
    <g id="xtick_3">
     <g id="line2d_3">
      <g>
       <use xlink:href="#md3f6e72a8c" x="209.112857" y="225.24" style="fill: #1a1a1a; stroke: #1a1a1a"/>
      </g>
     </g>
     <g id="text_3">
      <!-- 20 -->
      <g style="fill: #1a1a1a" transform="translate(203.694576 235.603906) scale(0.09 -0.09)">
       <defs>
        <path id="Menlo-Regular-32" d="M 1166 531 
L 3309 531 
L 3309 0 
L 475 0 
L 475 531 
Q 1059 1147 1496 1619 
Q 1934 2091 2100 2284 
Q 2413 2666 2522 2902 
Q 2631 3138 2631 3384 
Q 2631 3775 2401 3997 
Q 2172 4219 1772 4219 
Q 1488 4219 1175 4116 
Q 863 4013 513 3803 
L 513 4441 
Q 834 4594 1145 4672 
Q 1456 4750 1759 4750 
Q 2444 4750 2861 4386 
Q 3278 4022 3278 3431 
Q 3278 3131 3139 2831 
Q 3000 2531 2688 2169 
Q 2513 1966 2180 1606 
Q 1847 1247 1166 531 
z
" transform="scale(0.015625)"/>
       </defs>
       <use xlink:href="#Menlo-Regular-32"/>
       <use xlink:href="#Menlo-Regular-30" transform="translate(60.205078 0)"/>
      </g>
     </g>
    </g>
    <g id="xtick_4">
     <g id="line2d_4">
      <g>
       <use xlink:href="#md3f6e72a8c" x="285.398571" y="225.24" style="fill: #1a1a1a; stroke: #1a1a1a"/>
      </g>
     </g>
     <g id="text_4">
      <!-- 30 -->
      <g style="fill: #1a1a1a" transform="translate(279.98029 235.603906) scale(0.09 -0.09)">
       <defs>
        <path id="Menlo-Regular-33" d="M 2425 2497 
Q 2884 2375 3128 2064 
Q 3372 1753 3372 1288 
Q 3372 644 2939 276 
Q 2506 -91 1741 -91 
Q 1419 -91 1084 -31 
Q 750 28 428 141 
L 428 769 
Q 747 603 1056 522 
Q 1366 441 1672 441 
Q 2191 441 2469 675 
Q 2747 909 2747 1350 
Q 2747 1756 2469 1995 
Q 2191 2234 1716 2234 
L 1234 2234 
L 1234 2753 
L 1716 2753 
Q 2150 2753 2394 2943 
Q 2638 3134 2638 3475 
Q 2638 3834 2411 4026 
Q 2184 4219 1766 4219 
Q 1488 4219 1191 4156 
Q 894 4094 569 3969 
L 569 4550 
Q 947 4650 1242 4700 
Q 1538 4750 1766 4750 
Q 2447 4750 2855 4408 
Q 3263 4066 3263 3500 
Q 3263 3116 3048 2859 
Q 2834 2603 2425 2497 
z
" transform="scale(0.015625)"/>
       </defs>
       <use xlink:href="#Menlo-Regular-33"/>
       <use xlink:href="#Menlo-Regular-30" transform="translate(60.205078 0)"/>
      </g>
     </g>
    </g>
    <g id="xtick_5">
     <g id="line2d_5">
      <g>
       <use xlink:href="#md3f6e72a8c" x="361.684286" y="225.24" style="fill: #1a1a1a; stroke: #1a1a1a"/>
      </g>
     </g>
     <g id="text_5">
      <!-- 40 -->
      <g style="fill: #1a1a1a" transform="translate(356.266004 235.603906) scale(0.09 -0.09)">
       <defs>
        <path id="Menlo-Regular-34" d="M 2297 4091 
L 825 1625 
L 2297 1625 
L 2297 4091 
z
M 2194 4666 
L 2925 4666 
L 2925 1625 
L 3547 1625 
L 3547 1113 
L 2925 1113 
L 2925 0 
L 2297 0 
L 2297 1113 
L 319 1113 
L 319 1709 
L 2194 4666 
z
" transform="scale(0.015625)"/>
       </defs>
       <use xlink:href="#Menlo-Regular-34"/>
       <use xlink:href="#Menlo-Regular-30" transform="translate(60.205078 0)"/>
      </g>
     </g>
    </g>
    <g id="xtick_6">
     <g id="line2d_6">
      <g>
       <use xlink:href="#md3f6e72a8c" x="437.97" y="225.24" style="fill: #1a1a1a; stroke: #1a1a1a"/>
      </g>
     </g>
     <g id="text_6">
      <!-- 50 -->
      <g style="fill: #1a1a1a" transform="translate(432.551719 235.603906) scale(0.09 -0.09)">
       <defs>
        <path id="Menlo-Regular-35" d="M 647 4666 
L 3009 4666 
L 3009 4134 
L 1222 4134 
L 1222 2988 
Q 1356 3038 1492 3061 
Q 1628 3084 1766 3084 
Q 2491 3084 2916 2656 
Q 3341 2228 3341 1497 
Q 3341 759 2895 334 
Q 2450 -91 1678 -91 
Q 1306 -91 998 -41 
Q 691 9 447 109 
L 447 750 
Q 734 594 1025 517 
Q 1316 441 1619 441 
Q 2141 441 2423 716 
Q 2706 991 2706 1497 
Q 2706 1997 2414 2275 
Q 2122 2553 1600 2553 
Q 1347 2553 1106 2495 
Q 866 2438 647 2322 
L 647 4666 
z
" transform="scale(0.015625)"/>
       </defs>
       <use xlink:href="#Menlo-Regular-35"/>
       <use xlink:href="#Menlo-Regular-30" transform="translate(60.205078 0)"/>
      </g>
     </g>
    </g>
    <g id="text_7">
     <!-- epoch -->
     <g style="fill: #1a1a1a" transform="translate(236.019219 249.102187) scale(0.1 -0.1)">
      <defs>
       <path id="Menlo-Regular-65" d="M 3500 2038 
L 3500 1756 
L 1009 1756 
L 1009 1738 
Q 984 1022 1282 709 
Q 1581 397 2125 397 
Q 2400 397 2700 484 
Q 3000 572 3341 750 
L 3341 178 
Q 3013 44 2708 -23 
Q 2403 -91 2119 -91 
Q 1303 -91 843 398 
Q 384 888 384 1747 
Q 384 2584 834 3084 
Q 1284 3584 2034 3584 
Q 2703 3584 3089 3131 
Q 3475 2678 3500 2038 
z
M 2925 2206 
Q 2888 2569 2661 2833 
Q 2434 3097 2009 3097 
Q 1594 3097 1325 2822 
Q 1056 2547 1031 2203 
L 2925 2206 
z
" transform="scale(0.015625)"/>
       <path id="Menlo-Regular-70" d="M 1172 441 
L 1172 -1331 
L 594 -1331 
L 594 3500 
L 1172 3500 
L 1172 3053 
Q 1316 3313 1555 3448 
Q 1794 3584 2106 3584 
Q 2741 3584 3102 3093 
Q 3463 2603 3463 1734 
Q 3463 881 3100 395 
Q 2738 -91 2106 -91 
Q 1788 -91 1548 45 
Q 1309 181 1172 441 
z
M 2859 1747 
Q 2859 2416 2648 2756 
Q 2438 3097 2022 3097 
Q 1603 3097 1387 2755 
Q 1172 2413 1172 1747 
Q 1172 1084 1387 740 
Q 1603 397 2022 397 
Q 2438 397 2648 737 
Q 2859 1078 2859 1747 
z
" transform="scale(0.015625)"/>
       <path id="Menlo-Regular-6f" d="M 1925 3097 
Q 1488 3097 1263 2756 
Q 1038 2416 1038 1747 
Q 1038 1081 1263 739 
Q 1488 397 1925 397 
Q 2366 397 2591 739 
Q 2816 1081 2816 1747 
Q 2816 2416 2591 2756 
Q 2366 3097 1925 3097 
z
M 1925 3584 
Q 2653 3584 3039 3112 
Q 3425 2641 3425 1747 
Q 3425 850 3040 379 
Q 2656 -91 1925 -91 
Q 1197 -91 812 379 
Q 428 850 428 1747 
Q 428 2641 812 3112 
Q 1197 3584 1925 3584 
z
" transform="scale(0.015625)"/>
       <path id="Menlo-Regular-63" d="M 3316 178 
Q 3084 44 2839 -23 
Q 2594 -91 2338 -91 
Q 1525 -91 1067 396 
Q 609 884 609 1747 
Q 609 2609 1067 3096 
Q 1525 3584 2338 3584 
Q 2591 3584 2831 3518 
Q 3072 3453 3316 3316 
L 3316 2713 
Q 3088 2916 2858 3006 
Q 2628 3097 2338 3097 
Q 1797 3097 1506 2747 
Q 1216 2397 1216 1747 
Q 1216 1100 1508 748 
Q 1800 397 2338 397 
Q 2638 397 2875 489 
Q 3113 581 3316 775 
L 3316 178 
z
" transform="scale(0.015625)"/>
       <path id="Menlo-Regular-68" d="M 3284 2169 
L 3284 0 
L 2706 0 
L 2706 2169 
Q 2706 2641 2540 2862 
Q 2375 3084 2022 3084 
Q 1619 3084 1401 2798 
Q 1184 2513 1184 1978 
L 1184 0 
L 609 0 
L 609 4863 
L 1184 4863 
L 1184 2975 
Q 1338 3275 1600 3429 
Q 1863 3584 2222 3584 
Q 2756 3584 3020 3232 
Q 3284 2881 3284 2169 
z
" transform="scale(0.015625)"/>
      </defs>
      <use xlink:href="#Menlo-Regular-65"/>
      <use xlink:href="#Menlo-Regular-70" transform="translate(60.205078 0)"/>
      <use xlink:href="#Menlo-Regular-6f" transform="translate(120.410156 0)"/>
      <use xlink:href="#Menlo-Regular-63" transform="translate(180.615234 0)"/>
      <use xlink:href="#Menlo-Regular-68" transform="translate(240.820312 0)"/>
     </g>
    </g>
   </g>
   <g id="matplotlib.axis_2">
    <g id="ytick_1">
     <g id="line2d_7">
      <defs>
       <path id="mcf076836ce" d="M 0 0 
L 4 0 
" style="stroke: #1a1a1a"/>
      </defs>
      <g>
       <use xlink:href="#mcf076836ce" x="45.48" y="225.24" style="fill: #1a1a1a; stroke: #1a1a1a"/>
      </g>
     </g>
     <g id="text_8">
      <!-- 0 -->
      <g style="fill: #1a1a1a" transform="translate(36.561719 228.671953) scale(0.09 -0.09)">
       <use xlink:href="#Menlo-Regular-30"/>
      </g>
     </g>
    </g>
    <g id="ytick_2">
     <g id="line2d_8">
      <g>
       <use xlink:href="#mcf076836ce" x="45.48" y="183.18" style="fill: #1a1a1a; stroke: #1a1a1a"/>
      </g>
     </g>
     <g id="text_9">
      <!-- 20 -->
      <g style="fill: #1a1a1a" transform="translate(31.143438 186.611953) scale(0.09 -0.09)">
       <use xlink:href="#Menlo-Regular-32"/>
       <use xlink:href="#Menlo-Regular-30" transform="translate(60.205078 0)"/>
      </g>
     </g>
    </g>
    <g id="ytick_3">
     <g id="line2d_9">
      <g>
       <use xlink:href="#mcf076836ce" x="45.48" y="141.12" style="fill: #1a1a1a; stroke: #1a1a1a"/>
      </g>
     </g>
     <g id="text_10">
      <!-- 40 -->
      <g style="fill: #1a1a1a" transform="translate(31.143438 144.551953) scale(0.09 -0.09)">
       <use xlink:href="#Menlo-Regular-34"/>
       <use xlink:href="#Menlo-Regular-30" transform="translate(60.205078 0)"/>
      </g>
     </g>
    </g>
    <g id="ytick_4">
     <g id="line2d_10">
      <g>
       <use xlink:href="#mcf076836ce" x="45.48" y="99.06" style="fill: #1a1a1a; stroke: #1a1a1a"/>
      </g>
     </g>
     <g id="text_11">
      <!-- 60 -->
      <g style="fill: #1a1a1a" transform="translate(31.143438 102.491953) scale(0.09 -0.09)">
       <defs>
        <path id="Menlo-Regular-36" d="M 3097 4563 
L 3097 3981 
Q 2900 4097 2678 4158 
Q 2456 4219 2216 4219 
Q 1616 4219 1306 3767 
Q 997 3316 997 2438 
Q 1147 2750 1412 2917 
Q 1678 3084 2022 3084 
Q 2697 3084 3067 2670 
Q 3438 2256 3438 1497 
Q 3438 741 3056 325 
Q 2675 -91 1984 -91 
Q 1172 -91 794 492 
Q 416 1075 416 2328 
Q 416 3509 870 4129 
Q 1325 4750 2188 4750 
Q 2419 4750 2650 4701 
Q 2881 4653 3097 4563 
z
M 1972 2591 
Q 1569 2591 1337 2300 
Q 1106 2009 1106 1497 
Q 1106 984 1337 693 
Q 1569 403 1972 403 
Q 2391 403 2603 679 
Q 2816 956 2816 1497 
Q 2816 2041 2603 2316 
Q 2391 2591 1972 2591 
z
" transform="scale(0.015625)"/>
       </defs>
       <use xlink:href="#Menlo-Regular-36"/>
       <use xlink:href="#Menlo-Regular-30" transform="translate(60.205078 0)"/>
      </g>
     </g>
    </g>
    <g id="ytick_5">
     <g id="line2d_11">
      <g>
       <use xlink:href="#mcf076836ce" x="45.48" y="57" style="fill: #1a1a1a; stroke: #1a1a1a"/>
      </g>
     </g>
     <g id="text_12">
      <!-- 80 -->
      <g style="fill: #1a1a1a" transform="translate(31.143438 60.431953) scale(0.09 -0.09)">
       <defs>
        <path id="Menlo-Regular-38" d="M 1925 2216 
Q 1503 2216 1273 1980 
Q 1044 1744 1044 1313 
Q 1044 881 1276 642 
Q 1509 403 1925 403 
Q 2350 403 2579 639 
Q 2809 875 2809 1313 
Q 2809 1741 2576 1978 
Q 2344 2216 1925 2216 
z
M 1375 2478 
Q 972 2581 745 2862 
Q 519 3144 519 3541 
Q 519 4097 897 4423 
Q 1275 4750 1925 4750 
Q 2578 4750 2956 4423 
Q 3334 4097 3334 3541 
Q 3334 3144 3107 2862 
Q 2881 2581 2478 2478 
Q 2947 2375 3195 2062 
Q 3444 1750 3444 1253 
Q 3444 622 3041 265 
Q 2638 -91 1925 -91 
Q 1213 -91 811 264 
Q 409 619 409 1247 
Q 409 1747 657 2061 
Q 906 2375 1375 2478 
z
M 1147 3481 
Q 1147 3106 1347 2909 
Q 1547 2713 1925 2713 
Q 2306 2713 2506 2909 
Q 2706 3106 2706 3481 
Q 2706 3863 2507 4063 
Q 2309 4263 1925 4263 
Q 1547 4263 1347 4061 
Q 1147 3859 1147 3481 
z
" transform="scale(0.015625)"/>
       </defs>
       <use xlink:href="#Menlo-Regular-38"/>
       <use xlink:href="#Menlo-Regular-30" transform="translate(60.205078 0)"/>
      </g>
     </g>
    </g>
    <g id="ytick_6">
     <g id="line2d_12">
      <g>
       <use xlink:href="#mcf076836ce" x="45.48" y="14.94" style="fill: #1a1a1a; stroke: #1a1a1a"/>
      </g>
     </g>
     <g id="text_13">
      <!-- 100 -->
      <g style="fill: #1a1a1a" transform="translate(25.725156 18.371953) scale(0.09 -0.09)">
       <use xlink:href="#Menlo-Regular-31"/>
       <use xlink:href="#Menlo-Regular-30" transform="translate(60.205078 0)"/>
       <use xlink:href="#Menlo-Regular-30" transform="translate(120.410156 0)"/>
      </g>
     </g>
    </g>
    <g id="text_14">
     <!-- test accuracy (%) -->
     <g style="fill: #1a1a1a" transform="translate(19.645469 171.262656) rotate(-90) scale(0.1 -0.1)">
      <defs>
       <path id="Menlo-Regular-74" d="M 1919 4494 
L 1919 3500 
L 3225 3500 
L 3225 3053 
L 1919 3053 
L 1919 1153 
Q 1919 766 2066 612 
Q 2213 459 2578 459 
L 3225 459 
L 3225 0 
L 2522 0 
Q 1875 0 1609 259 
Q 1344 519 1344 1153 
L 1344 3053 
L 409 3053 
L 409 3500 
L 1344 3500 
L 1344 4494 
L 1919 4494 
z
" transform="scale(0.015625)"/>
       <path id="Menlo-Regular-73" d="M 3041 3378 
L 3041 2816 
Q 2794 2959 2544 3031 
Q 2294 3103 2034 3103 
Q 1644 3103 1451 2976 
Q 1259 2850 1259 2591 
Q 1259 2356 1403 2240 
Q 1547 2125 2119 2016 
L 2350 1972 
Q 2778 1891 2998 1647 
Q 3219 1403 3219 1013 
Q 3219 494 2850 201 
Q 2481 -91 1825 -91 
Q 1566 -91 1281 -36 
Q 997 19 666 128 
L 666 722 
Q 988 556 1281 473 
Q 1575 391 1838 391 
Q 2219 391 2428 545 
Q 2638 700 2638 978 
Q 2638 1378 1872 1531 
L 1847 1538 
L 1631 1581 
Q 1134 1678 906 1908 
Q 678 2138 678 2534 
Q 678 3038 1018 3311 
Q 1359 3584 1991 3584 
Q 2272 3584 2531 3532 
Q 2791 3481 3041 3378 
z
" transform="scale(0.015625)"/>
       <path id="Menlo-Regular-20" transform="scale(0.015625)"/>
       <path id="Menlo-Regular-61" d="M 2194 1759 
L 2003 1759 
Q 1500 1759 1245 1582 
Q 991 1406 991 1056 
Q 991 741 1181 566 
Q 1372 391 1709 391 
Q 2184 391 2456 720 
Q 2728 1050 2731 1631 
L 2731 1759 
L 2194 1759 
z
M 3309 1997 
L 3309 0 
L 2731 0 
L 2731 519 
Q 2547 206 2267 57 
Q 1988 -91 1588 -91 
Q 1053 -91 734 211 
Q 416 513 416 1019 
Q 416 1603 808 1906 
Q 1200 2209 1959 2209 
L 2731 2209 
L 2731 2300 
Q 2728 2719 2518 2908 
Q 2309 3097 1850 3097 
Q 1556 3097 1256 3012 
Q 956 2928 672 2766 
L 672 3341 
Q 991 3463 1283 3523 
Q 1575 3584 1850 3584 
Q 2284 3584 2592 3456 
Q 2900 3328 3091 3072 
Q 3209 2916 3259 2686 
Q 3309 2456 3309 1997 
z
" transform="scale(0.015625)"/>
       <path id="Menlo-Regular-75" d="M 609 1325 
L 609 3494 
L 1184 3494 
L 1184 1325 
Q 1184 853 1351 631 
Q 1519 409 1869 409 
Q 2275 409 2490 695 
Q 2706 981 2706 1516 
L 2706 3494 
L 3284 3494 
L 3284 0 
L 2706 0 
L 2706 525 
Q 2553 222 2289 65 
Q 2025 -91 1672 -91 
Q 1134 -91 871 261 
Q 609 613 609 1325 
z
" transform="scale(0.015625)"/>
       <path id="Menlo-Regular-72" d="M 3609 2778 
Q 3425 2922 3234 2987 
Q 3044 3053 2816 3053 
Q 2278 3053 1993 2715 
Q 1709 2378 1709 1741 
L 1709 0 
L 1131 0 
L 1131 3500 
L 1709 3500 
L 1709 2816 
Q 1853 3188 2151 3386 
Q 2450 3584 2859 3584 
Q 3072 3584 3256 3531 
Q 3441 3478 3609 3366 
L 3609 2778 
z
" transform="scale(0.015625)"/>
       <path id="Menlo-Regular-79" d="M 2681 1125 
Q 2538 759 2316 163 
Q 2006 -663 1900 -844 
Q 1756 -1088 1540 -1209 
Q 1325 -1331 1038 -1331 
L 575 -1331 
L 575 -850 
L 916 -850 
Q 1169 -850 1312 -703 
Q 1456 -556 1678 56 
L 325 3500 
L 934 3500 
L 1972 763 
L 2994 3500 
L 3603 3500 
L 2681 1125 
z
" transform="scale(0.015625)"/>
       <path id="Menlo-Regular-28" d="M 2672 5169 
Q 2256 4456 2051 3748 
Q 1847 3041 1847 2322 
Q 1847 1606 2051 897 
Q 2256 188 2672 -531 
L 2172 -531 
Q 1700 213 1469 917 
Q 1238 1622 1238 2322 
Q 1238 3019 1469 3725 
Q 1700 4431 2172 5169 
L 2672 5169 
z
" transform="scale(0.015625)"/>
       <path id="Menlo-Regular-25" d="M 2175 997 
Q 2175 753 2339 587 
Q 2503 422 2747 422 
Q 2988 422 3155 589 
Q 3322 756 3322 997 
Q 3322 1238 3153 1406 
Q 2984 1575 2747 1575 
Q 2503 1575 2339 1409 
Q 2175 1244 2175 997 
z
M 1753 997 
Q 1753 1419 2040 1708 
Q 2328 1997 2747 1997 
Q 2947 1997 3126 1922 
Q 3306 1847 3450 1703 
Q 3594 1556 3672 1375 
Q 3750 1194 3750 997 
Q 3750 581 3459 290 
Q 3169 0 2747 0 
Q 2322 0 2037 286 
Q 1753 572 1753 997 
z
M 259 1375 
L 122 1728 
L 3606 3122 
L 3763 2769 
L 259 1375 
z
M 525 3475 
Q 525 3228 689 3064 
Q 853 2900 1100 2900 
Q 1341 2900 1509 3067 
Q 1678 3234 1678 3475 
Q 1678 3716 1509 3883 
Q 1341 4050 1100 4050 
Q 859 4050 692 3884 
Q 525 3719 525 3475 
z
M 103 3475 
Q 103 3897 390 4186 
Q 678 4475 1100 4475 
Q 1300 4475 1483 4400 
Q 1666 4325 1806 4184 
Q 1947 4044 2023 3861 
Q 2100 3678 2100 3475 
Q 2100 3056 1809 2767 
Q 1519 2478 1100 2478 
Q 678 2478 390 2765 
Q 103 3053 103 3475 
z
" transform="scale(0.015625)"/>
       <path id="Menlo-Regular-29" d="M 1088 5169 
L 1588 5169 
Q 2059 4431 2290 3725 
Q 2522 3019 2522 2322 
Q 2522 1619 2290 912 
Q 2059 206 1588 -531 
L 1088 -531 
Q 1503 194 1708 903 
Q 1913 1613 1913 2322 
Q 1913 3034 1708 3743 
Q 1503 4453 1088 5169 
z
" transform="scale(0.015625)"/>
      </defs>
      <use xlink:href="#Menlo-Regular-74"/>
      <use xlink:href="#Menlo-Regular-65" transform="translate(60.205078 0)"/>
      <use xlink:href="#Menlo-Regular-73" transform="translate(120.410156 0)"/>
      <use xlink:href="#Menlo-Regular-74" transform="translate(180.615234 0)"/>
      <use xlink:href="#Menlo-Regular-20" transform="translate(240.820312 0)"/>
      <use xlink:href="#Menlo-Regular-61" transform="translate(301.025391 0)"/>
      <use xlink:href="#Menlo-Regular-63" transform="translate(361.230469 0)"/>
      <use xlink:href="#Menlo-Regular-63" transform="translate(421.435547 0)"/>
      <use xlink:href="#Menlo-Regular-75" transform="translate(481.640625 0)"/>
      <use xlink:href="#Menlo-Regular-72" transform="translate(541.845703 0)"/>
      <use xlink:href="#Menlo-Regular-61" transform="translate(602.050781 0)"/>
      <use xlink:href="#Menlo-Regular-63" transform="translate(662.255859 0)"/>
      <use xlink:href="#Menlo-Regular-79" transform="translate(722.460938 0)"/>
      <use xlink:href="#Menlo-Regular-20" transform="translate(782.666016 0)"/>
      <use xlink:href="#Menlo-Regular-28" transform="translate(842.871094 0)"/>
      <use xlink:href="#Menlo-Regular-25" transform="translate(903.076172 0)"/>
      <use xlink:href="#Menlo-Regular-29" transform="translate(963.28125 0)"/>
     </g>
    </g>
   </g>
   <g id="line2d_13">
    <path d="M 64.17 172.214357 
L 71.798571 139.017 
L 79.427143 101.463429 
L 87.055714 68.416286 
L 94.684286 54.296143 
L 102.312857 46.184571 
L 109.941429 43.180286 
L 117.57 40.776857 
L 125.198571 38.373429 
L 132.827143 41.377714 
L 140.455714 39.1245 
L 148.084286 39.424929 
L 155.712857 38.373429 
L 163.341429 37.772571 
L 170.97 37.321929 
L 178.598571 38.223214 
L 186.227143 38.673857 
L 193.855714 38.673857 
L 201.484286 36.270429 
L 209.112857 36.570857 
L 216.741429 36.871286 
L 224.37 38.824071 
L 231.998571 37.772571 
L 239.627143 37.321929 
L 247.255714 38.223214 
L 254.884286 36.721071 
L 262.512857 35.519357 
L 270.141429 35.97 
L 277.77 37.0215 
L 285.398571 35.819786 
L 293.027143 37.321929 
L 300.655714 37.321929 
L 308.284286 36.871286 
L 315.912857 37.772571 
L 323.541429 37.171714 
L 331.17 38.373429 
L 338.798571 37.0215 
L 346.427143 38.223214 
L 354.055714 37.0215 
L 361.684286 37.772571 
L 369.312857 36.270429 
L 376.941429 35.819786 
L 384.57 36.570857 
L 392.198571 36.420643 
L 399.827143 35.669571 
L 407.455714 36.871286 
L 415.084286 34.618071 
L 422.712857 36.120214 
L 430.341429 36.270429 
L 437.97 35.519357 
" clip-path="url(#pff9e1a18f4)" style="fill: none; stroke: #440154; stroke-opacity: 0.85; stroke-width: 1.1; stroke-linejoin: miter"/>
   </g>
   <g id="line2d_14">
    <path d="M 64.17 155.390357 
L 71.798571 119.789571 
L 79.427143 88.695214 
L 87.055714 60.605143 
L 94.684286 48.137357 
L 102.312857 45.133071 
L 109.941429 40.776857 
L 117.57 40.176 
L 125.198571 39.1245 
L 132.827143 40.927071 
L 140.455714 37.622357 
L 148.084286 38.073 
L 155.712857 38.673857 
L 163.341429 39.274714 
L 170.97 37.772571 
L 178.598571 39.1245 
L 186.227143 39.725357 
L 193.855714 39.1245 
L 201.484286 37.772571 
L 209.112857 38.373429 
L 216.741429 39.1245 
L 224.37 38.974286 
L 231.998571 38.824071 
L 239.627143 36.871286 
L 247.255714 37.622357 
L 254.884286 37.472143 
L 262.512857 37.472143 
L 270.141429 37.922786 
L 277.77 37.321929 
L 285.398571 37.922786 
L 293.027143 38.373429 
L 300.655714 37.0215 
L 308.284286 38.223214 
L 315.912857 39.274714 
L 323.541429 38.523643 
L 331.17 37.922786 
L 338.798571 37.472143 
L 346.427143 37.472143 
L 354.055714 35.669571 
L 361.684286 36.570857 
L 369.312857 36.120214 
L 376.941429 36.871286 
L 384.57 37.0215 
L 392.198571 36.570857 
L 399.827143 36.270429 
L 407.455714 36.570857 
L 415.084286 34.618071 
L 422.712857 35.218929 
L 430.341429 35.369143 
L 437.97 35.068714 
" clip-path="url(#pff9e1a18f4)" style="fill: none; stroke: #440154; stroke-opacity: 0.85; stroke-width: 1.1; stroke-linejoin: miter"/>
   </g>
   <g id="line2d_15">
    <path d="M 64.17 140.969786 
L 71.798571 80.583643 
L 79.427143 61.055786 
L 87.055714 53.695286 
L 94.684286 46.785429 
L 102.312857 42.579429 
L 109.941429 40.927071 
L 117.57 39.575143 
L 125.198571 38.523643 
L 132.827143 41.077286 
L 140.455714 39.575143 
L 148.084286 39.424929 
L 155.712857 38.373429 
L 163.341429 37.321929 
L 170.97 38.223214 
L 178.598571 37.772571 
L 186.227143 37.0215 
L 193.855714 37.922786 
L 201.484286 38.373429 
L 209.112857 38.223214 
L 216.741429 37.472143 
L 224.37 38.824071 
L 231.998571 37.321929 
L 239.627143 35.97 
L 247.255714 36.871286 
L 254.884286 35.97 
L 262.512857 36.420643 
L 270.141429 36.871286 
L 277.77 35.819786 
L 285.398571 35.369143 
L 293.027143 36.721071 
L 300.655714 36.570857 
L 308.284286 37.171714 
L 315.912857 36.721071 
L 323.541429 35.97 
L 331.17 35.369143 
L 338.798571 35.97 
L 346.427143 35.669571 
L 354.055714 35.669571 
L 361.684286 35.819786 
L 369.312857 36.120214 
L 376.941429 36.420643 
L 384.57 35.369143 
L 392.198571 36.270429 
L 399.827143 35.819786 
L 407.455714 35.97 
L 415.084286 34.467857 
L 422.712857 35.369143 
L 430.341429 34.768286 
L 437.97 34.618071 
" clip-path="url(#pff9e1a18f4)" style="fill: none; stroke: #440154; stroke-opacity: 0.85; stroke-width: 1.1; stroke-linejoin: miter"/>
   </g>
   <g id="line2d_16">
    <path d="M 64.17 57 
L 71.798571 44.382 
L 79.427143 41.527929 
L 87.055714 39.274714 
L 94.684286 38.373429 
L 102.312857 38.073 
L 109.941429 37.622357 
L 117.57 38.073 
L 125.198571 38.824071 
L 132.827143 39.424929 
L 140.455714 37.171714 
L 148.084286 37.321929 
L 155.712857 36.570857 
L 163.341429 37.472143 
L 170.97 37.622357 
L 178.598571 37.472143 
L 186.227143 36.570857 
L 193.855714 36.420643 
L 201.484286 35.068714 
L 209.112857 34.768286 
L 216.741429 34.618071 
L 224.37 34.618071 
L 231.998571 35.819786 
L 239.627143 34.768286 
L 247.255714 34.167429 
L 254.884286 33.566571 
L 262.512857 33.716786 
L 270.141429 34.167429 
L 277.77 34.167429 
L 285.398571 35.068714 
L 293.027143 33.867 
L 300.655714 34.618071 
L 308.284286 34.467857 
L 315.912857 33.416357 
L 323.541429 33.867 
L 331.17 34.467857 
L 338.798571 34.017214 
L 346.427143 34.017214 
L 354.055714 34.017214 
L 361.684286 34.017214 
L 369.312857 34.768286 
L 376.941429 33.115929 
L 384.57 35.218929 
L 392.198571 35.218929 
L 399.827143 34.167429 
L 407.455714 34.017214 
L 415.084286 33.867 
L 422.712857 32.965714 
L 430.341429 32.965714 
L 437.97 33.867 
" clip-path="url(#pff9e1a18f4)" style="fill: none; stroke: #3b528b; stroke-opacity: 0.85; stroke-width: 1.1; stroke-linejoin: miter"/>
   </g>
   <g id="line2d_17">
    <path d="M 64.17 58.351929 
L 71.798571 44.982857 
L 79.427143 42.279 
L 87.055714 39.274714 
L 94.684286 37.472143 
L 102.312857 38.073 
L 109.941429 37.171714 
L 117.57 37.472143 
L 125.198571 37.922786 
L 132.827143 38.373429 
L 140.455714 35.819786 
L 148.084286 35.97 
L 155.712857 34.768286 
L 163.341429 34.467857 
L 170.97 35.669571 
L 178.598571 36.120214 
L 186.227143 34.467857 
L 193.855714 34.618071 
L 201.484286 35.519357 
L 209.112857 35.068714 
L 216.741429 35.218929 
L 224.37 35.519357 
L 231.998571 34.768286 
L 239.627143 34.9185 
L 247.255714 35.068714 
L 254.884286 34.768286 
L 262.512857 33.867 
L 270.141429 34.017214 
L 277.77 35.369143 
L 285.398571 33.566571 
L 293.027143 33.716786 
L 300.655714 33.716786 
L 308.284286 34.017214 
L 315.912857 35.369143 
L 323.541429 34.768286 
L 331.17 34.768286 
L 338.798571 34.768286 
L 346.427143 34.768286 
L 354.055714 33.867 
L 361.684286 34.9185 
L 369.312857 34.9185 
L 376.941429 33.566571 
L 384.57 35.218929 
L 392.198571 33.867 
L 399.827143 34.317643 
L 407.455714 34.618071 
L 415.084286 34.467857 
L 422.712857 34.167429 
L 430.341429 33.566571 
L 437.97 33.867 
" clip-path="url(#pff9e1a18f4)" style="fill: none; stroke: #3b528b; stroke-opacity: 0.85; stroke-width: 1.1; stroke-linejoin: miter"/>
   </g>
   <g id="line2d_18">
    <path d="M 64.17 56.399143 
L 71.798571 43.931357 
L 79.427143 40.927071 
L 87.055714 38.824071 
L 94.684286 38.673857 
L 102.312857 38.073 
L 109.941429 35.97 
L 117.57 37.772571 
L 125.198571 37.0215 
L 132.827143 38.223214 
L 140.455714 36.871286 
L 148.084286 35.819786 
L 155.712857 35.97 
L 163.341429 35.819786 
L 170.97 35.369143 
L 178.598571 36.570857 
L 186.227143 35.819786 
L 193.855714 35.669571 
L 201.484286 35.218929 
L 209.112857 35.369143 
L 216.741429 35.97 
L 224.37 36.270429 
L 231.998571 35.519357 
L 239.627143 33.266143 
L 247.255714 34.167429 
L 254.884286 33.716786 
L 262.512857 33.716786 
L 270.141429 34.467857 
L 277.77 33.416357 
L 285.398571 33.266143 
L 293.027143 33.266143 
L 300.655714 33.867 
L 308.284286 34.618071 
L 315.912857 34.167429 
L 323.541429 34.167429 
L 331.17 34.017214 
L 338.798571 34.9185 
L 346.427143 33.566571 
L 354.055714 33.566571 
L 361.684286 34.317643 
L 369.312857 32.364857 
L 376.941429 33.716786 
L 384.57 33.716786 
L 392.198571 35.369143 
L 399.827143 33.867 
L 407.455714 35.218929 
L 415.084286 34.317643 
L 422.712857 33.716786 
L 430.341429 33.716786 
L 437.97 33.266143 
" clip-path="url(#pff9e1a18f4)" style="fill: none; stroke: #3b528b; stroke-opacity: 0.85; stroke-width: 1.1; stroke-linejoin: miter"/>
   </g>
   <g id="line2d_19">
    <path d="M 64.17 51.892714 
L 71.798571 45.283286 
L 79.427143 42.429214 
L 87.055714 39.875571 
L 94.684286 38.073 
L 102.312857 38.373429 
L 109.941429 38.974286 
L 117.57 38.974286 
L 125.198571 37.622357 
L 132.827143 38.974286 
L 140.455714 39.424929 
L 148.084286 39.875571 
L 155.712857 38.673857 
L 163.341429 38.373429 
L 170.97 37.0215 
L 178.598571 39.274714 
L 186.227143 38.223214 
L 193.855714 38.824071 
L 201.484286 37.772571 
L 209.112857 37.171714 
L 216.741429 37.171714 
L 224.37 37.772571 
L 231.998571 38.824071 
L 239.627143 37.0215 
L 247.255714 37.472143 
L 254.884286 36.270429 
L 262.512857 36.120214 
L 270.141429 36.871286 
L 277.77 35.97 
L 285.398571 36.570857 
L 293.027143 35.97 
L 300.655714 37.171714 
L 308.284286 34.9185 
L 315.912857 34.9185 
L 323.541429 35.669571 
L 331.17 34.9185 
L 338.798571 36.871286 
L 346.427143 35.369143 
L 354.055714 37.321929 
L 361.684286 35.519357 
L 369.312857 35.218929 
L 376.941429 36.120214 
L 384.57 37.0215 
L 392.198571 35.369143 
L 399.827143 36.270429 
L 407.455714 34.618071 
L 415.084286 35.819786 
L 422.712857 35.369143 
L 430.341429 34.9185 
L 437.97 34.167429 
" clip-path="url(#pff9e1a18f4)" style="fill: none; stroke: #21918c; stroke-opacity: 0.85; stroke-width: 1.1; stroke-linejoin: miter"/>
   </g>
   <g id="line2d_20">
    <path d="M 64.17 53.995714 
L 71.798571 45.884143 
L 79.427143 42.729643 
L 87.055714 40.326214 
L 94.684286 38.073 
L 102.312857 38.073 
L 109.941429 38.223214 
L 117.57 40.176 
L 125.198571 37.922786 
L 132.827143 38.523643 
L 140.455714 38.673857 
L 148.084286 39.575143 
L 155.712857 38.373429 
L 163.341429 37.772571 
L 170.97 36.570857 
L 178.598571 39.575143 
L 186.227143 36.120214 
L 193.855714 37.772571 
L 201.484286 37.0215 
L 209.112857 37.472143 
L 216.741429 38.223214 
L 224.37 37.472143 
L 231.998571 37.622357 
L 239.627143 36.420643 
L 247.255714 37.0215 
L 254.884286 35.369143 
L 262.512857 37.0215 
L 270.141429 36.721071 
L 277.77 36.270429 
L 285.398571 35.068714 
L 293.027143 34.467857 
L 300.655714 35.669571 
L 308.284286 35.819786 
L 315.912857 34.9185 
L 323.541429 35.97 
L 331.17 33.867 
L 338.798571 34.9185 
L 346.427143 34.618071 
L 354.055714 35.068714 
L 361.684286 35.218929 
L 369.312857 35.218929 
L 376.941429 35.819786 
L 384.57 36.120214 
L 392.198571 34.9185 
L 399.827143 34.618071 
L 407.455714 35.819786 
L 415.084286 35.519357 
L 422.712857 34.467857 
L 430.341429 36.420643 
L 437.97 35.068714 
" clip-path="url(#pff9e1a18f4)" style="fill: none; stroke: #21918c; stroke-opacity: 0.85; stroke-width: 1.1; stroke-linejoin: miter"/>
   </g>
   <g id="line2d_21">
    <path d="M 64.17 53.394857 
L 71.798571 44.382 
L 79.427143 42.879857 
L 87.055714 40.927071 
L 94.684286 38.974286 
L 102.312857 39.1245 
L 109.941429 38.373429 
L 117.57 37.0215 
L 125.198571 38.223214 
L 132.827143 38.673857 
L 140.455714 38.974286 
L 148.084286 39.875571 
L 155.712857 38.523643 
L 163.341429 39.875571 
L 170.97 38.223214 
L 178.598571 39.875571 
L 186.227143 38.373429 
L 193.855714 39.274714 
L 201.484286 37.321929 
L 209.112857 37.472143 
L 216.741429 38.073 
L 224.37 37.472143 
L 231.998571 37.321929 
L 239.627143 36.270429 
L 247.255714 37.622357 
L 254.884286 35.819786 
L 262.512857 35.519357 
L 270.141429 36.721071 
L 277.77 36.570857 
L 285.398571 36.871286 
L 293.027143 35.819786 
L 300.655714 35.218929 
L 308.284286 35.819786 
L 315.912857 34.768286 
L 323.541429 35.068714 
L 331.17 34.618071 
L 338.798571 36.721071 
L 346.427143 34.017214 
L 354.055714 34.768286 
L 361.684286 34.167429 
L 369.312857 35.218929 
L 376.941429 35.519357 
L 384.57 37.0215 
L 392.198571 34.618071 
L 399.827143 35.519357 
L 407.455714 35.218929 
L 415.084286 35.369143 
L 422.712857 35.97 
L 430.341429 35.669571 
L 437.97 35.519357 
" clip-path="url(#pff9e1a18f4)" style="fill: none; stroke: #21918c; stroke-opacity: 0.85; stroke-width: 1.1; stroke-linejoin: miter"/>
   </g>
   <g id="line2d_22">
    <path d="M 64.17 53.094429 
L 71.798571 42.879857 
L 79.427143 40.476429 
L 87.055714 38.523643 
L 94.684286 37.321929 
L 102.312857 38.073 
L 109.941429 39.1245 
L 117.57 38.673857 
L 125.198571 37.0215 
L 132.827143 37.171714 
L 140.455714 37.321929 
L 148.084286 36.420643 
L 155.712857 36.270429 
L 163.341429 36.270429 
L 170.97 35.369143 
L 178.598571 36.570857 
L 186.227143 37.171714 
L 193.855714 37.0215 
L 201.484286 38.673857 
L 209.112857 37.171714 
L 216.741429 38.223214 
L 224.37 37.772571 
L 231.998571 36.270429 
L 239.627143 36.420643 
L 247.255714 37.622357 
L 254.884286 37.171714 
L 262.512857 37.0215 
L 270.141429 36.120214 
L 277.77 35.519357 
L 285.398571 37.0215 
L 293.027143 36.120214 
L 300.655714 36.120214 
L 308.284286 36.871286 
L 315.912857 36.420643 
L 323.541429 35.819786 
L 331.17 35.97 
L 338.798571 37.321929 
L 346.427143 37.0215 
L 354.055714 35.218929 
L 361.684286 35.819786 
L 369.312857 34.618071 
L 376.941429 35.519357 
L 384.57 34.467857 
L 392.198571 36.120214 
L 399.827143 36.270429 
L 407.455714 36.120214 
L 415.084286 36.420643 
L 422.712857 36.270429 
L 430.341429 37.0215 
L 437.97 34.768286 
" clip-path="url(#pff9e1a18f4)" style="fill: none; stroke: #5ec962; stroke-opacity: 0.85; stroke-width: 1.1; stroke-linejoin: miter"/>
   </g>
   <g id="line2d_23">
    <path d="M 64.17 53.995714 
L 71.798571 43.3305 
L 79.427143 39.424929 
L 87.055714 37.321929 
L 94.684286 37.171714 
L 102.312857 38.673857 
L 109.941429 37.922786 
L 117.57 38.523643 
L 125.198571 35.97 
L 132.827143 37.321929 
L 140.455714 36.570857 
L 148.084286 36.570857 
L 155.712857 36.270429 
L 163.341429 36.871286 
L 170.97 34.768286 
L 178.598571 36.270429 
L 186.227143 36.871286 
L 193.855714 36.721071 
L 201.484286 37.922786 
L 209.112857 36.270429 
L 216.741429 37.472143 
L 224.37 37.171714 
L 231.998571 35.369143 
L 239.627143 36.420643 
L 247.255714 36.120214 
L 254.884286 35.819786 
L 262.512857 37.0215 
L 270.141429 35.369143 
L 277.77 35.97 
L 285.398571 36.270429 
L 293.027143 35.218929 
L 300.655714 35.068714 
L 308.284286 35.97 
L 315.912857 36.570857 
L 323.541429 34.9185 
L 331.17 35.369143 
L 338.798571 35.218929 
L 346.427143 36.420643 
L 354.055714 34.9185 
L 361.684286 35.819786 
L 369.312857 34.768286 
L 376.941429 36.270429 
L 384.57 35.519357 
L 392.198571 34.167429 
L 399.827143 34.9185 
L 407.455714 34.9185 
L 415.084286 36.420643 
L 422.712857 36.721071 
L 430.341429 35.97 
L 437.97 35.218929 
" clip-path="url(#pff9e1a18f4)" style="fill: none; stroke: #5ec962; stroke-opacity: 0.85; stroke-width: 1.1; stroke-linejoin: miter"/>
   </g>
   <g id="line2d_24">
    <path d="M 64.17 53.094429 
L 71.798571 42.729643 
L 79.427143 40.626643 
L 87.055714 38.974286 
L 94.684286 35.97 
L 102.312857 38.974286 
L 109.941429 38.673857 
L 117.57 38.373429 
L 125.198571 37.772571 
L 132.827143 38.373429 
L 140.455714 36.270429 
L 148.084286 35.97 
L 155.712857 34.768286 
L 163.341429 36.270429 
L 170.97 35.369143 
L 178.598571 36.120214 
L 186.227143 35.97 
L 193.855714 34.768286 
L 201.484286 37.321929 
L 209.112857 37.0215 
L 216.741429 37.622357 
L 224.37 37.772571 
L 231.998571 36.570857 
L 239.627143 36.721071 
L 247.255714 36.270429 
L 254.884286 35.669571 
L 262.512857 36.721071 
L 270.141429 34.618071 
L 277.77 35.669571 
L 285.398571 34.618071 
L 293.027143 36.120214 
L 300.655714 34.467857 
L 308.284286 35.068714 
L 315.912857 37.0215 
L 323.541429 34.9185 
L 331.17 35.669571 
L 338.798571 36.120214 
L 346.427143 35.068714 
L 354.055714 34.9185 
L 361.684286 34.768286 
L 369.312857 35.218929 
L 376.941429 36.570857 
L 384.57 35.218929 
L 392.198571 35.068714 
L 399.827143 36.120214 
L 407.455714 35.669571 
L 415.084286 37.0215 
L 422.712857 36.420643 
L 430.341429 36.270429 
L 437.97 35.369143 
" clip-path="url(#pff9e1a18f4)" style="fill: none; stroke: #5ec962; stroke-opacity: 0.85; stroke-width: 1.1; stroke-linejoin: miter"/>
   </g>
   <g id="line2d_25">
    <path d="M 64.17 54.746786 
L 71.798571 46.334786 
L 79.427143 41.678143 
L 87.055714 41.978571 
L 94.684286 39.424929 
L 102.312857 40.025786 
L 109.941429 40.326214 
L 117.57 40.927071 
L 125.198571 37.321929 
L 132.827143 39.424929 
L 140.455714 40.927071 
L 148.084286 39.875571 
L 155.712857 38.824071 
L 163.341429 38.373429 
L 170.97 37.472143 
L 178.598571 38.373429 
L 186.227143 37.922786 
L 193.855714 39.575143 
L 201.484286 39.725357 
L 209.112857 38.373429 
L 216.741429 38.223214 
L 224.37 38.073 
L 231.998571 38.373429 
L 239.627143 37.772571 
L 247.255714 37.772571 
L 254.884286 37.622357 
L 262.512857 37.922786 
L 270.141429 36.871286 
L 277.77 36.420643 
L 285.398571 36.570857 
L 293.027143 35.068714 
L 300.655714 34.317643 
L 308.284286 36.570857 
L 315.912857 37.171714 
L 323.541429 35.068714 
L 331.17 35.97 
L 338.798571 36.721071 
L 346.427143 36.420643 
L 354.055714 37.622357 
L 361.684286 36.120214 
L 369.312857 35.669571 
L 376.941429 36.871286 
L 384.57 34.768286 
L 392.198571 35.97 
L 399.827143 36.871286 
L 407.455714 36.721071 
L 415.084286 36.871286 
L 422.712857 37.472143 
L 430.341429 37.772571 
L 437.97 36.721071 
" clip-path="url(#pff9e1a18f4)" style="fill: none; stroke: #fde725; stroke-opacity: 0.85; stroke-width: 1.1; stroke-linejoin: miter"/>
   </g>
   <g id="line2d_26">
    <path d="M 64.17 52.343357 
L 71.798571 44.382 
L 79.427143 40.025786 
L 87.055714 40.326214 
L 94.684286 38.974286 
L 102.312857 40.025786 
L 109.941429 39.274714 
L 117.57 40.626643 
L 125.198571 39.575143 
L 132.827143 39.575143 
L 140.455714 39.274714 
L 148.084286 39.1245 
L 155.712857 38.523643 
L 163.341429 39.1245 
L 170.97 37.472143 
L 178.598571 37.922786 
L 186.227143 38.073 
L 193.855714 40.626643 
L 201.484286 38.974286 
L 209.112857 37.922786 
L 216.741429 38.523643 
L 224.37 38.673857 
L 231.998571 38.223214 
L 239.627143 37.0215 
L 247.255714 37.622357 
L 254.884286 37.622357 
L 262.512857 36.871286 
L 270.141429 36.570857 
L 277.77 36.120214 
L 285.398571 36.120214 
L 293.027143 35.068714 
L 300.655714 35.369143 
L 308.284286 35.819786 
L 315.912857 35.369143 
L 323.541429 35.068714 
L 331.17 35.519357 
L 338.798571 36.120214 
L 346.427143 35.669571 
L 354.055714 36.420643 
L 361.684286 35.519357 
L 369.312857 35.669571 
L 376.941429 36.871286 
L 384.57 35.669571 
L 392.198571 36.420643 
L 399.827143 36.120214 
L 407.455714 36.721071 
L 415.084286 36.721071 
L 422.712857 36.570857 
L 430.341429 37.622357 
L 437.97 36.871286 
" clip-path="url(#pff9e1a18f4)" style="fill: none; stroke: #fde725; stroke-opacity: 0.85; stroke-width: 1.1; stroke-linejoin: miter"/>
   </g>
   <g id="line2d_27">
    <path d="M 64.17 54.897 
L 71.798571 43.480714 
L 79.427143 42.729643 
L 87.055714 42.128786 
L 94.684286 40.025786 
L 102.312857 41.077286 
L 109.941429 39.1245 
L 117.57 40.025786 
L 125.198571 38.523643 
L 132.827143 38.673857 
L 140.455714 39.725357 
L 148.084286 38.824071 
L 155.712857 38.974286 
L 163.341429 38.974286 
L 170.97 37.922786 
L 178.598571 38.824071 
L 186.227143 36.570857 
L 193.855714 38.974286 
L 201.484286 40.326214 
L 209.112857 38.974286 
L 216.741429 38.073 
L 224.37 37.922786 
L 231.998571 39.575143 
L 239.627143 38.523643 
L 247.255714 37.922786 
L 254.884286 38.373429 
L 262.512857 36.871286 
L 270.141429 36.570857 
L 277.77 36.270429 
L 285.398571 36.570857 
L 293.027143 36.270429 
L 300.655714 35.218929 
L 308.284286 36.570857 
L 315.912857 35.369143 
L 323.541429 35.669571 
L 331.17 35.068714 
L 338.798571 36.120214 
L 346.427143 35.068714 
L 354.055714 35.97 
L 361.684286 35.068714 
L 369.312857 35.519357 
L 376.941429 35.97 
L 384.57 36.270429 
L 392.198571 36.570857 
L 399.827143 36.420643 
L 407.455714 35.819786 
L 415.084286 37.922786 
L 422.712857 35.669571 
L 430.341429 37.321929 
L 437.97 37.171714 
" clip-path="url(#pff9e1a18f4)" style="fill: none; stroke: #fde725; stroke-opacity: 0.85; stroke-width: 1.1; stroke-linejoin: miter"/>
   </g>
   <g id="patch_3">
    <path d="M 45.48 225.24 
L 45.48 14.94 
" style="fill: none; stroke: #1a1a1a; stroke-width: 1.4; stroke-linejoin: miter; stroke-linecap: square"/>
   </g>
   <g id="patch_4">
    <path d="M 45.48 225.24 
L 456.66 225.24 
" style="fill: none; stroke: #1a1a1a; stroke-width: 1.4; stroke-linejoin: miter; stroke-linecap: square"/>
   </g>
   <g id="legend_1">
    <g id="text_15">
     <!-- swept value -->
     <g transform="translate(343.473867 174.349453) scale(0.105 -0.105)">
      <defs>
       <path id="Menlo-Regular-77" d="M 0 3500 
L 569 3500 
L 1178 672 
L 1678 2478 
L 2169 2478 
L 2675 672 
L 3284 3500 
L 3853 3500 
L 3034 0 
L 2484 0 
L 1925 1919 
L 1369 0 
L 819 0 
L 0 3500 
z
" transform="scale(0.015625)"/>
       <path id="Menlo-Regular-76" d="M 313 3500 
L 909 3500 
L 1925 563 
L 2944 3500 
L 3541 3500 
L 2297 0 
L 1556 0 
L 313 3500 
z
" transform="scale(0.015625)"/>
       <path id="Menlo-Regular-6c" d="M 2247 1266 
Q 2247 878 2389 681 
Q 2531 484 2809 484 
L 3481 484 
L 3481 0 
L 2753 0 
Q 2238 0 1955 329 
Q 1672 659 1672 1266 
L 1672 4431 
L 750 4431 
L 750 4881 
L 2247 4881 
L 2247 1266 
z
" transform="scale(0.015625)"/>
      </defs>
      <use xlink:href="#Menlo-Regular-73"/>
      <use xlink:href="#Menlo-Regular-77" transform="translate(60.205078 0)"/>
      <use xlink:href="#Menlo-Regular-65" transform="translate(120.410156 0)"/>
      <use xlink:href="#Menlo-Regular-70" transform="translate(180.615234 0)"/>
      <use xlink:href="#Menlo-Regular-74" transform="translate(240.820312 0)"/>
      <use xlink:href="#Menlo-Regular-20" transform="translate(301.025391 0)"/>
      <use xlink:href="#Menlo-Regular-76" transform="translate(361.230469 0)"/>
      <use xlink:href="#Menlo-Regular-61" transform="translate(421.435547 0)"/>
      <use xlink:href="#Menlo-Regular-6c" transform="translate(481.640625 0)"/>
      <use xlink:href="#Menlo-Regular-75" transform="translate(541.845703 0)"/>
      <use xlink:href="#Menlo-Regular-65" transform="translate(602.050781 0)"/>
     </g>
    </g>
    <g id="line2d_28">
     <path d="M 308.822344 184.747031 
L 317.822344 184.747031 
L 326.822344 184.747031 
" style="fill: none; stroke: #440154; stroke-width: 2.4; stroke-linejoin: miter"/>
    </g>
    <g id="text_16">
     <!-- dt=0.05 -->
     <g style="fill: #1a1a1a" transform="translate(334.022344 187.897031) scale(0.09 -0.09)">
      <defs>
       <path id="Menlo-Regular-64" d="M 2681 3053 
L 2681 4863 
L 3256 4863 
L 3256 0 
L 2681 0 
L 2681 441 
Q 2538 181 2298 45 
Q 2059 -91 1747 -91 
Q 1113 -91 748 401 
Q 384 894 384 1759 
Q 384 2613 750 3098 
Q 1116 3584 1747 3584 
Q 2063 3584 2303 3448 
Q 2544 3313 2681 3053 
z
M 991 1747 
Q 991 1078 1203 737 
Q 1416 397 1831 397 
Q 2247 397 2464 740 
Q 2681 1084 2681 1747 
Q 2681 2413 2464 2755 
Q 2247 3097 1831 3097 
Q 1416 3097 1203 2756 
Q 991 2416 991 1747 
z
" transform="scale(0.015625)"/>
       <path id="Menlo-Regular-3d" d="M 275 1563 
L 3578 1563 
L 3578 1034 
L 275 1034 
L 275 1563 
z
M 275 3034 
L 3578 3034 
L 3578 2506 
L 275 2506 
L 275 3034 
z
" transform="scale(0.015625)"/>
       <path id="Menlo-Regular-2e" d="M 1216 1263 
L 2316 1263 
L 2316 0 
L 1216 0 
L 1216 1263 
z
" transform="scale(0.015625)"/>
      </defs>
      <use xlink:href="#Menlo-Regular-64"/>
      <use xlink:href="#Menlo-Regular-74" transform="translate(60.205078 0)"/>
      <use xlink:href="#Menlo-Regular-3d" transform="translate(120.410156 0)"/>
      <use xlink:href="#Menlo-Regular-30" transform="translate(180.615234 0)"/>
      <use xlink:href="#Menlo-Regular-2e" transform="translate(240.820312 0)"/>
      <use xlink:href="#Menlo-Regular-30" transform="translate(301.025391 0)"/>
      <use xlink:href="#Menlo-Regular-35" transform="translate(361.230469 0)"/>
     </g>
    </g>
    <g id="line2d_29">
     <path d="M 308.822344 197.982656 
L 317.822344 197.982656 
L 326.822344 197.982656 
" style="fill: none; stroke: #3b528b; stroke-width: 2.4; stroke-linejoin: miter"/>
    </g>
    <g id="text_17">
     <!-- dt=0.1 -->
     <g style="fill: #1a1a1a" transform="translate(334.022344 201.132656) scale(0.09 -0.09)">
      <use xlink:href="#Menlo-Regular-64"/>
      <use xlink:href="#Menlo-Regular-74" transform="translate(60.205078 0)"/>
      <use xlink:href="#Menlo-Regular-3d" transform="translate(120.410156 0)"/>
      <use xlink:href="#Menlo-Regular-30" transform="translate(180.615234 0)"/>
      <use xlink:href="#Menlo-Regular-2e" transform="translate(240.820312 0)"/>
      <use xlink:href="#Menlo-Regular-31" transform="translate(301.025391 0)"/>
     </g>
    </g>
    <g id="line2d_30">
     <path d="M 308.822344 211.218281 
L 317.822344 211.218281 
L 326.822344 211.218281 
" style="fill: none; stroke: #21918c; stroke-width: 2.4; stroke-linejoin: miter"/>
    </g>
    <g id="text_18">
     <!-- dt=0.25 -->
     <g style="fill: #1a1a1a" transform="translate(334.022344 214.368281) scale(0.09 -0.09)">
      <use xlink:href="#Menlo-Regular-64"/>
      <use xlink:href="#Menlo-Regular-74" transform="translate(60.205078 0)"/>
      <use xlink:href="#Menlo-Regular-3d" transform="translate(120.410156 0)"/>
      <use xlink:href="#Menlo-Regular-30" transform="translate(180.615234 0)"/>
      <use xlink:href="#Menlo-Regular-2e" transform="translate(240.820312 0)"/>
      <use xlink:href="#Menlo-Regular-32" transform="translate(301.025391 0)"/>
      <use xlink:href="#Menlo-Regular-35" transform="translate(361.230469 0)"/>
     </g>
    </g>
    <g id="line2d_31">
     <path d="M 389.950312 184.747031 
L 398.950312 184.747031 
L 407.950312 184.747031 
" style="fill: none; stroke: #5ec962; stroke-width: 2.4; stroke-linejoin: miter"/>
    </g>
    <g id="text_19">
     <!-- dt=0.5 -->
     <g style="fill: #1a1a1a" transform="translate(415.150312 187.897031) scale(0.09 -0.09)">
      <use xlink:href="#Menlo-Regular-64"/>
      <use xlink:href="#Menlo-Regular-74" transform="translate(60.205078 0)"/>
      <use xlink:href="#Menlo-Regular-3d" transform="translate(120.410156 0)"/>
      <use xlink:href="#Menlo-Regular-30" transform="translate(180.615234 0)"/>
      <use xlink:href="#Menlo-Regular-2e" transform="translate(240.820312 0)"/>
      <use xlink:href="#Menlo-Regular-35" transform="translate(301.025391 0)"/>
     </g>
    </g>
    <g id="line2d_32">
     <path d="M 389.950312 197.982656 
L 398.950312 197.982656 
L 407.950312 197.982656 
" style="fill: none; stroke: #fde725; stroke-width: 2.4; stroke-linejoin: miter"/>
    </g>
    <g id="text_20">
     <!-- dt=1 -->
     <g style="fill: #1a1a1a" transform="translate(415.150312 201.132656) scale(0.09 -0.09)">
      <use xlink:href="#Menlo-Regular-64"/>
      <use xlink:href="#Menlo-Regular-74" transform="translate(60.205078 0)"/>
      <use xlink:href="#Menlo-Regular-3d" transform="translate(120.410156 0)"/>
      <use xlink:href="#Menlo-Regular-31" transform="translate(180.615234 0)"/>
     </g>
    </g>
   </g>
   <g id="legend_2">
    <g id="text_21">
     <!-- swept value -->
     <g transform="translate(343.473867 174.349453) scale(0.105 -0.105)">
      <use xlink:href="#Menlo-Regular-73"/>
      <use xlink:href="#Menlo-Regular-77" transform="translate(60.205078 0)"/>
      <use xlink:href="#Menlo-Regular-65" transform="translate(120.410156 0)"/>
      <use xlink:href="#Menlo-Regular-70" transform="translate(180.615234 0)"/>
      <use xlink:href="#Menlo-Regular-74" transform="translate(240.820312 0)"/>
      <use xlink:href="#Menlo-Regular-20" transform="translate(301.025391 0)"/>
      <use xlink:href="#Menlo-Regular-76" transform="translate(361.230469 0)"/>
      <use xlink:href="#Menlo-Regular-61" transform="translate(421.435547 0)"/>
      <use xlink:href="#Menlo-Regular-6c" transform="translate(481.640625 0)"/>
      <use xlink:href="#Menlo-Regular-75" transform="translate(541.845703 0)"/>
      <use xlink:href="#Menlo-Regular-65" transform="translate(602.050781 0)"/>
     </g>
    </g>
    <g id="line2d_33">
     <path d="M 308.822344 184.747031 
L 317.822344 184.747031 
L 326.822344 184.747031 
" style="fill: none; stroke: #440154; stroke-width: 2.4; stroke-linejoin: miter"/>
    </g>
    <g id="text_22">
     <!-- dt=0.05 -->
     <g style="fill: #1a1a1a" transform="translate(334.022344 187.897031) scale(0.09 -0.09)">
      <use xlink:href="#Menlo-Regular-64"/>
      <use xlink:href="#Menlo-Regular-74" transform="translate(60.205078 0)"/>
      <use xlink:href="#Menlo-Regular-3d" transform="translate(120.410156 0)"/>
      <use xlink:href="#Menlo-Regular-30" transform="translate(180.615234 0)"/>
      <use xlink:href="#Menlo-Regular-2e" transform="translate(240.820312 0)"/>
      <use xlink:href="#Menlo-Regular-30" transform="translate(301.025391 0)"/>
      <use xlink:href="#Menlo-Regular-35" transform="translate(361.230469 0)"/>
     </g>
    </g>
    <g id="line2d_34">
     <path d="M 308.822344 197.982656 
L 317.822344 197.982656 
L 326.822344 197.982656 
" style="fill: none; stroke: #3b528b; stroke-width: 2.4; stroke-linejoin: miter"/>
    </g>
    <g id="text_23">
     <!-- dt=0.1 -->
     <g style="fill: #1a1a1a" transform="translate(334.022344 201.132656) scale(0.09 -0.09)">
      <use xlink:href="#Menlo-Regular-64"/>
      <use xlink:href="#Menlo-Regular-74" transform="translate(60.205078 0)"/>
      <use xlink:href="#Menlo-Regular-3d" transform="translate(120.410156 0)"/>
      <use xlink:href="#Menlo-Regular-30" transform="translate(180.615234 0)"/>
      <use xlink:href="#Menlo-Regular-2e" transform="translate(240.820312 0)"/>
      <use xlink:href="#Menlo-Regular-31" transform="translate(301.025391 0)"/>
     </g>
    </g>
    <g id="line2d_35">
     <path d="M 308.822344 211.218281 
L 317.822344 211.218281 
L 326.822344 211.218281 
" style="fill: none; stroke: #21918c; stroke-width: 2.4; stroke-linejoin: miter"/>
    </g>
    <g id="text_24">
     <!-- dt=0.25 -->
     <g style="fill: #1a1a1a" transform="translate(334.022344 214.368281) scale(0.09 -0.09)">
      <use xlink:href="#Menlo-Regular-64"/>
      <use xlink:href="#Menlo-Regular-74" transform="translate(60.205078 0)"/>
      <use xlink:href="#Menlo-Regular-3d" transform="translate(120.410156 0)"/>
      <use xlink:href="#Menlo-Regular-30" transform="translate(180.615234 0)"/>
      <use xlink:href="#Menlo-Regular-2e" transform="translate(240.820312 0)"/>
      <use xlink:href="#Menlo-Regular-32" transform="translate(301.025391 0)"/>
      <use xlink:href="#Menlo-Regular-35" transform="translate(361.230469 0)"/>
     </g>
    </g>
    <g id="line2d_36">
     <path d="M 389.950312 184.747031 
L 398.950312 184.747031 
L 407.950312 184.747031 
" style="fill: none; stroke: #5ec962; stroke-width: 2.4; stroke-linejoin: miter"/>
    </g>
    <g id="text_25">
     <!-- dt=0.5 -->
     <g style="fill: #1a1a1a" transform="translate(415.150312 187.897031) scale(0.09 -0.09)">
      <use xlink:href="#Menlo-Regular-64"/>
      <use xlink:href="#Menlo-Regular-74" transform="translate(60.205078 0)"/>
      <use xlink:href="#Menlo-Regular-3d" transform="translate(120.410156 0)"/>
      <use xlink:href="#Menlo-Regular-30" transform="translate(180.615234 0)"/>
      <use xlink:href="#Menlo-Regular-2e" transform="translate(240.820312 0)"/>
      <use xlink:href="#Menlo-Regular-35" transform="translate(301.025391 0)"/>
     </g>
    </g>
    <g id="line2d_37">
     <path d="M 389.950312 197.982656 
L 398.950312 197.982656 
L 407.950312 197.982656 
" style="fill: none; stroke: #fde725; stroke-width: 2.4; stroke-linejoin: miter"/>
    </g>
    <g id="text_26">
     <!-- dt=1 -->
     <g style="fill: #1a1a1a" transform="translate(415.150312 201.132656) scale(0.09 -0.09)">
      <use xlink:href="#Menlo-Regular-64"/>
      <use xlink:href="#Menlo-Regular-74" transform="translate(60.205078 0)"/>
      <use xlink:href="#Menlo-Regular-3d" transform="translate(120.410156 0)"/>
      <use xlink:href="#Menlo-Regular-31" transform="translate(180.615234 0)"/>
     </g>
    </g>
   </g>
  </g>
  <g id="text_27">
   <!-- r007 -->
   <g style="fill: #888888" transform="translate(446.395 260.53865) scale(0.08 -0.08)">
    <defs>
     <path id="Menlo-Regular-37" d="M 434 4666 
L 3372 4666 
L 3372 4397 
L 1703 0 
L 1044 0 
L 2669 4134 
L 434 4134 
L 434 4666 
z
" transform="scale(0.015625)"/>
    </defs>
    <use xlink:href="#Menlo-Regular-72"/>
    <use xlink:href="#Menlo-Regular-30" transform="translate(60.205078 0)"/>
    <use xlink:href="#Menlo-Regular-30" transform="translate(120.410156 0)"/>
    <use xlink:href="#Menlo-Regular-37" transform="translate(180.615234 0)"/>
   </g>
  </g>
 </g>
 <defs>
  <clipPath id="pff9e1a18f4">
   <rect x="45.48" y="14.94" width="411.18" height="210.3"/>
  </clipPath>
 </defs>
</svg>
