<?xml version="1.0" encoding="utf-8" standalone="no"?>
<!DOCTYPE svg PUBLIC "-//W3C//DTD SVG 1.1//EN"
  "http://www.w3.org/Graphics/SVG/1.1/DTD/svg11.dtd">
<svg xmlns:xlink="http://www.w3.org/1999/xlink" width="468pt" height="263.52pt" viewBox="0 0 468 263.52" xmlns="http://www.w3.org/2000/svg" version="1.1">
 <metadata>
  <rdf:RDF xmlns:dc="http://purl.org/dc/elements/1.1/" xmlns:cc="http://creativecommons.org/ns#" xmlns:rdf="http://www.w3.org/1999/02/22-rdf-syntax-ns#">
   <cc:Work>
    <dc:type rdf:resource="http://purl.org/dc/dcmitype/StillImage"/>
    <dc:date>2026-07-06T12:35:54.093358</dc:date>
    <dc:format>image/svg+xml</dc:format>
    <dc:creator>
     <cc:Agent>
      <dc:title>Matplotlib v3.10.8, https://matplotlib.org/</dc:title>
     </cc:Agent>
    </dc:creator>
   </cc:Work>
  </rdf:RDF>
 </metadata>
 <defs>
  <style type="text/css">*{stroke-linejoin: round; stroke-linecap: butt}</style>
 </defs>
 <g id="figure_1">
  <g id="patch_1">
   <path d="M 0 263.52 
L 468 263.52 
L 468 0 
L 0 0 
z
" style="fill: #ffffff"/>
  </g>
  <g id="axes_1">
   <g id="patch_2">
    <path d="M 45.66 225.96 
L 456.66 225.96 
L 456.66 14.76 
L 45.66 14.76 
z
" style="fill: #ffffff"/>
   </g>
   <g id="matplotlib.axis_1">
    <g id="xtick_1">
     <g id="line2d_1">
      <defs>
       <path id="m58930bc2dd" d="M 0 0 
L 0 -4 
" style="stroke: #1a1a1a"/>
      </defs>
      <g>
       <use xlink:href="#m58930bc2dd" x="56.716586" y="225.96" style="fill: #1a1a1a; stroke: #1a1a1a"/>
      </g>
     </g>
     <g id="text_1">
      <!-- 0 -->
      <g style="fill: #1a1a1a" transform="translate(54.007446 236.323906) scale(0.09 -0.09)">
       <defs>
        <path id="Menlo-Regular-30" d="M 1925 4734 
Q 2672 4734 3055 4125 
Q 3438 3516 3438 2322 
Q 3438 1128 3055 518 
Q 2672 -91 1925 -91 
Q 1178 -91 797 518 
Q 416 1128 416 2322 
Q 416 3516 797 4125 
Q 1178 4734 1925 4734 
z
M 1925 409 
Q 2369 409 2586 881 
Q 2803 1353 2803 2322 
Q 2803 2838 2741 3253 
L 1253 925 
Q 1488 409 1925 409 
z
M 1925 4234 
Q 1484 4234 1267 3762 
Q 1050 3291 1050 2322 
Q 1050 1881 1109 1497 
L 2566 3819 
Q 2328 4234 1925 4234 
z
" transform="scale(0.015625)"/>
       </defs>
       <use xlink:href="#Menlo-Regular-30"/>
      </g>
     </g>
    </g>
    <g id="xtick_2">
     <g id="line2d_2">
      <g>
       <use xlink:href="#m58930bc2dd" x="132.968905" y="225.96" style="fill: #1a1a1a; stroke: #1a1a1a"/>
      </g>
     </g>
     <g id="text_2">
      <!-- 10 -->
      <g style="fill: #1a1a1a" transform="translate(127.550624 236.323906) scale(0.09 -0.09)">
       <defs>
        <path id="Menlo-Regular-31" d="M 844 528 
L 1825 528 
L 1825 4053 
L 650 3488 
L 650 4094 
L 1819 4650 
L 2450 4650 
L 2450 528 
L 3419 528 
L 3419 0 
L 844 0 
L 844 528 
z
" transform="scale(0.015625)"/>
       </defs>
       <use xlink:href="#Menlo-Regular-31"/>
       <use xlink:href="#Menlo-Regular-30" transform="translate(60.205078 0)"/>
      </g>
     </g>
    </g>
    <g id="xtick_3">
     <g id="line2d_3">
      <g>
       <use xlink:href="#m58930bc2dd" x="209.221224" y="225.96" style="fill: #1a1a1a; stroke: #1a1a1a"/>
      </g>
     </g>
     <g id="text_3">
      <!-- 20 -->
      <g style="fill: #1a1a1a" transform="translate(203.802943 236.323906) scale(0.09 -0.09)">
       <defs>
        <path id="Menlo-Regular-32" d="M 1166 531 
L 3309 531 
L 3309 0 
L 475 0 
L 475 531 
Q 1059 1147 1496 1619 
Q 1934 2091 2100 2284 
Q 2413 2666 2522 2902 
Q 2631 3138 2631 3384 
Q 2631 3775 2401 3997 
Q 2172 4219 1772 4219 
Q 1488 4219 1175 4116 
Q 863 4013 513 3803 
L 513 4441 
Q 834 4594 1145 4672 
Q 1456 4750 1759 4750 
Q 2444 4750 2861 4386 
Q 3278 4022 3278 3431 
Q 3278 3131 3139 2831 
Q 3000 2531 2688 2169 
Q 2513 1966 2180 1606 
Q 1847 1247 1166 531 
z
" transform="scale(0.015625)"/>
       </defs>
       <use xlink:href="#Menlo-Regular-32"/>
       <use xlink:href="#Menlo-Regular-30" transform="translate(60.205078 0)"/>
      </g>
     </g>
    </g>
    <g id="xtick_4">
     <g id="line2d_4">
      <g>
       <use xlink:href="#m58930bc2dd" x="285.473544" y="225.96" style="fill: #1a1a1a; stroke: #1a1a1a"/>
      </g>
     </g>
     <g id="text_4">
      <!-- 30 -->
      <g style="fill: #1a1a1a" transform="translate(280.055262 236.323906) scale(0.09 -0.09)">
       <defs>
        <path id="Menlo-Regular-33" d="M 2425 2497 
Q 2884 2375 3128 2064 
Q 3372 1753 3372 1288 
Q 3372 644 2939 276 
Q 2506 -91 1741 -91 
Q 1419 -91 1084 -31 
Q 750 28 428 141 
L 428 769 
Q 747 603 1056 522 
Q 1366 441 1672 441 
Q 2191 441 2469 675 
Q 2747 909 2747 1350 
Q 2747 1756 2469 1995 
Q 2191 2234 1716 2234 
L 1234 2234 
L 1234 2753 
L 1716 2753 
Q 2150 2753 2394 2943 
Q 2638 3134 2638 3475 
Q 2638 3834 2411 4026 
Q 2184 4219 1766 4219 
Q 1488 4219 1191 4156 
Q 894 4094 569 3969 
L 569 4550 
Q 947 4650 1242 4700 
Q 1538 4750 1766 4750 
Q 2447 4750 2855 4408 
Q 3263 4066 3263 3500 
Q 3263 3116 3048 2859 
Q 2834 2603 2425 2497 
z
" transform="scale(0.015625)"/>
       </defs>
       <use xlink:href="#Menlo-Regular-33"/>
       <use xlink:href="#Menlo-Regular-30" transform="translate(60.205078 0)"/>
      </g>
     </g>
    </g>
    <g id="xtick_5">
     <g id="line2d_5">
      <g>
       <use xlink:href="#m58930bc2dd" x="361.725863" y="225.96" style="fill: #1a1a1a; stroke: #1a1a1a"/>
      </g>
     </g>
     <g id="text_5">
      <!-- 40 -->
      <g style="fill: #1a1a1a" transform="translate(356.307581 236.323906) scale(0.09 -0.09)">
       <defs>
        <path id="Menlo-Regular-34" d="M 2297 4091 
L 825 1625 
L 2297 1625 
L 2297 4091 
z
M 2194 4666 
L 2925 4666 
L 2925 1625 
L 3547 1625 
L 3547 1113 
L 2925 1113 
L 2925 0 
L 2297 0 
L 2297 1113 
L 319 1113 
L 319 1709 
L 2194 4666 
z
" transform="scale(0.015625)"/>
       </defs>
       <use xlink:href="#Menlo-Regular-34"/>
       <use xlink:href="#Menlo-Regular-30" transform="translate(60.205078 0)"/>
      </g>
     </g>
    </g>
    <g id="xtick_6">
     <g id="line2d_6">
      <g>
       <use xlink:href="#m58930bc2dd" x="437.978182" y="225.96" style="fill: #1a1a1a; stroke: #1a1a1a"/>
      </g>
     </g>
     <g id="text_6">
      <!-- 50 -->
      <g style="fill: #1a1a1a" transform="translate(432.559901 236.323906) scale(0.09 -0.09)">
       <defs>
        <path id="Menlo-Regular-35" d="M 647 4666 
L 3009 4666 
L 3009 4134 
L 1222 4134 
L 1222 2988 
Q 1356 3038 1492 3061 
Q 1628 3084 1766 3084 
Q 2491 3084 2916 2656 
Q 3341 2228 3341 1497 
Q 3341 759 2895 334 
Q 2450 -91 1678 -91 
Q 1306 -91 998 -41 
Q 691 9 447 109 
L 447 750 
Q 734 594 1025 517 
Q 1316 441 1619 441 
Q 2141 441 2423 716 
Q 2706 991 2706 1497 
Q 2706 1997 2414 2275 
Q 2122 2553 1600 2553 
Q 1347 2553 1106 2495 
Q 866 2438 647 2322 
L 647 4666 
z
" transform="scale(0.015625)"/>
       </defs>
       <use xlink:href="#Menlo-Regular-35"/>
       <use xlink:href="#Menlo-Regular-30" transform="translate(60.205078 0)"/>
      </g>
     </g>
    </g>
    <g id="text_7">
     <!-- epoch -->
     <g style="fill: #1a1a1a" transform="translate(236.109219 249.822187) scale(0.1 -0.1)">
      <defs>
       <path id="Menlo-Regular-65" d="M 3500 2038 
L 3500 1756 
L 1009 1756 
L 1009 1738 
Q 984 1022 1282 709 
Q 1581 397 2125 397 
Q 2400 397 2700 484 
Q 3000 572 3341 750 
L 3341 178 
Q 3013 44 2708 -23 
Q 2403 -91 2119 -91 
Q 1303 -91 843 398 
Q 384 888 384 1747 
Q 384 2584 834 3084 
Q 1284 3584 2034 3584 
Q 2703 3584 3089 3131 
Q 3475 2678 3500 2038 
z
M 2925 2206 
Q 2888 2569 2661 2833 
Q 2434 3097 2009 3097 
Q 1594 3097 1325 2822 
Q 1056 2547 1031 2203 
L 2925 2206 
z
" transform="scale(0.015625)"/>
       <path id="Menlo-Regular-70" d="M 1172 441 
L 1172 -1331 
L 594 -1331 
L 594 3500 
L 1172 3500 
L 1172 3053 
Q 1316 3313 1555 3448 
Q 1794 3584 2106 3584 
Q 2741 3584 3102 3093 
Q 3463 2603 3463 1734 
Q 3463 881 3100 395 
Q 2738 -91 2106 -91 
Q 1788 -91 1548 45 
Q 1309 181 1172 441 
z
M 2859 1747 
Q 2859 2416 2648 2756 
Q 2438 3097 2022 3097 
Q 1603 3097 1387 2755 
Q 1172 2413 1172 1747 
Q 1172 1084 1387 740 
Q 1603 397 2022 397 
Q 2438 397 2648 737 
Q 2859 1078 2859 1747 
z
" transform="scale(0.015625)"/>
       <path id="Menlo-Regular-6f" d="M 1925 3097 
Q 1488 3097 1263 2756 
Q 1038 2416 1038 1747 
Q 1038 1081 1263 739 
Q 1488 397 1925 397 
Q 2366 397 2591 739 
Q 2816 1081 2816 1747 
Q 2816 2416 2591 2756 
Q 2366 3097 1925 3097 
z
M 1925 3584 
Q 2653 3584 3039 3112 
Q 3425 2641 3425 1747 
Q 3425 850 3040 379 
Q 2656 -91 1925 -91 
Q 1197 -91 812 379 
Q 428 850 428 1747 
Q 428 2641 812 3112 
Q 1197 3584 1925 3584 
z
" transform="scale(0.015625)"/>
       <path id="Menlo-Regular-63" d="M 3316 178 
Q 3084 44 2839 -23 
Q 2594 -91 2338 -91 
Q 1525 -91 1067 396 
Q 609 884 609 1747 
Q 609 2609 1067 3096 
Q 1525 3584 2338 3584 
Q 2591 3584 2831 3518 
Q 3072 3453 3316 3316 
L 3316 2713 
Q 3088 2916 2858 3006 
Q 2628 3097 2338 3097 
Q 1797 3097 1506 2747 
Q 1216 2397 1216 1747 
Q 1216 1100 1508 748 
Q 1800 397 2338 397 
Q 2638 397 2875 489 
Q 3113 581 3316 775 
L 3316 178 
z
" transform="scale(0.015625)"/>
       <path id="Menlo-Regular-68" d="M 3284 2169 
L 3284 0 
L 2706 0 
L 2706 2169 
Q 2706 2641 2540 2862 
Q 2375 3084 2022 3084 
Q 1619 3084 1401 2798 
Q 1184 2513 1184 1978 
L 1184 0 
L 609 0 
L 609 4863 
L 1184 4863 
L 1184 2975 
Q 1338 3275 1600 3429 
Q 1863 3584 2222 3584 
Q 2756 3584 3020 3232 
Q 3284 2881 3284 2169 
z
" transform="scale(0.015625)"/>
      </defs>
      <use xlink:href="#Menlo-Regular-65"/>
      <use xlink:href="#Menlo-Regular-70" transform="translate(60.205078 0)"/>
      <use xlink:href="#Menlo-Regular-6f" transform="translate(120.410156 0)"/>
      <use xlink:href="#Menlo-Regular-63" transform="translate(180.615234 0)"/>
      <use xlink:href="#Menlo-Regular-68" transform="translate(240.820312 0)"/>
     </g>
    </g>
   </g>
   <g id="matplotlib.axis_2">
    <g id="ytick_1">
     <g id="line2d_7">
      <defs>
       <path id="mcb8b739c1c" d="M 0 0 
L 4 0 
" style="stroke: #1a1a1a"/>
      </defs>
      <g>
       <use xlink:href="#mcb8b739c1c" x="45.66" y="225.96" style="fill: #1a1a1a; stroke: #1a1a1a"/>
      </g>
     </g>
     <g id="text_8">
      <!-- 0 -->
      <g style="fill: #1a1a1a" transform="translate(36.741719 229.391953) scale(0.09 -0.09)">
       <use xlink:href="#Menlo-Regular-30"/>
      </g>
     </g>
    </g>
    <g id="ytick_2">
     <g id="line2d_8">
      <g>
       <use xlink:href="#mcb8b739c1c" x="45.66" y="183.72" style="fill: #1a1a1a; stroke: #1a1a1a"/>
      </g>
     </g>
     <g id="text_9">
      <!-- 20 -->
      <g style="fill: #1a1a1a" transform="translate(31.323438 187.151953) scale(0.09 -0.09)">
       <use xlink:href="#Menlo-Regular-32"/>
       <use xlink:href="#Menlo-Regular-30" transform="translate(60.205078 0)"/>
      </g>
     </g>
    </g>
    <g id="ytick_3">
     <g id="line2d_9">
      <g>
       <use xlink:href="#mcb8b739c1c" x="45.66" y="141.48" style="fill: #1a1a1a; stroke: #1a1a1a"/>
      </g>
     </g>
     <g id="text_10">
      <!-- 40 -->
      <g style="fill: #1a1a1a" transform="translate(31.323438 144.911953) scale(0.09 -0.09)">
       <use xlink:href="#Menlo-Regular-34"/>
       <use xlink:href="#Menlo-Regular-30" transform="translate(60.205078 0)"/>
      </g>
     </g>
    </g>
    <g id="ytick_4">
     <g id="line2d_10">
      <g>
       <use xlink:href="#mcb8b739c1c" x="45.66" y="99.24" style="fill: #1a1a1a; stroke: #1a1a1a"/>
      </g>
     </g>
     <g id="text_11">
      <!-- 60 -->
      <g style="fill: #1a1a1a" transform="translate(31.323438 102.671953) scale(0.09 -0.09)">
       <defs>
        <path id="Menlo-Regular-36" d="M 3097 4563 
L 3097 3981 
Q 2900 4097 2678 4158 
Q 2456 4219 2216 4219 
Q 1616 4219 1306 3767 
Q 997 3316 997 2438 
Q 1147 2750 1412 2917 
Q 1678 3084 2022 3084 
Q 2697 3084 3067 2670 
Q 3438 2256 3438 1497 
Q 3438 741 3056 325 
Q 2675 -91 1984 -91 
Q 1172 -91 794 492 
Q 416 1075 416 2328 
Q 416 3509 870 4129 
Q 1325 4750 2188 4750 
Q 2419 4750 2650 4701 
Q 2881 4653 3097 4563 
z
M 1972 2591 
Q 1569 2591 1337 2300 
Q 1106 2009 1106 1497 
Q 1106 984 1337 693 
Q 1569 403 1972 403 
Q 2391 403 2603 679 
Q 2816 956 2816 1497 
Q 2816 2041 2603 2316 
Q 2391 2591 1972 2591 
z
" transform="scale(0.015625)"/>
       </defs>
       <use xlink:href="#Menlo-Regular-36"/>
       <use xlink:href="#Menlo-Regular-30" transform="translate(60.205078 0)"/>
      </g>
     </g>
    </g>
    <g id="ytick_5">
     <g id="line2d_11">
      <g>
       <use xlink:href="#mcb8b739c1c" x="45.66" y="57" style="fill: #1a1a1a; stroke: #1a1a1a"/>
      </g>
     </g>
     <g id="text_12">
      <!-- 80 -->
      <g style="fill: #1a1a1a" transform="translate(31.323438 60.431953) scale(0.09 -0.09)">
       <defs>
        <path id="Menlo-Regular-38" d="M 1925 2216 
Q 1503 2216 1273 1980 
Q 1044 1744 1044 1313 
Q 1044 881 1276 642 
Q 1509 403 1925 403 
Q 2350 403 2579 639 
Q 2809 875 2809 1313 
Q 2809 1741 2576 1978 
Q 2344 2216 1925 2216 
z
M 1375 2478 
Q 972 2581 745 2862 
Q 519 3144 519 3541 
Q 519 4097 897 4423 
Q 1275 4750 1925 4750 
Q 2578 4750 2956 4423 
Q 3334 4097 3334 3541 
Q 3334 3144 3107 2862 
Q 2881 2581 2478 2478 
Q 2947 2375 3195 2062 
Q 3444 1750 3444 1253 
Q 3444 622 3041 265 
Q 2638 -91 1925 -91 
Q 1213 -91 811 264 
Q 409 619 409 1247 
Q 409 1747 657 2061 
Q 906 2375 1375 2478 
z
M 1147 3481 
Q 1147 3106 1347 2909 
Q 1547 2713 1925 2713 
Q 2306 2713 2506 2909 
Q 2706 3106 2706 3481 
Q 2706 3863 2507 4063 
Q 2309 4263 1925 4263 
Q 1547 4263 1347 4061 
Q 1147 3859 1147 3481 
z
" transform="scale(0.015625)"/>
       </defs>
       <use xlink:href="#Menlo-Regular-38"/>
       <use xlink:href="#Menlo-Regular-30" transform="translate(60.205078 0)"/>
      </g>
     </g>
    </g>
    <g id="ytick_6">
     <g id="line2d_12">
      <g>
       <use xlink:href="#mcb8b739c1c" x="45.66" y="14.76" style="fill: #1a1a1a; stroke: #1a1a1a"/>
      </g>
     </g>
     <g id="text_13">
      <!-- 100 -->
      <g style="fill: #1a1a1a" transform="translate(25.905156 18.191953) scale(0.09 -0.09)">
       <use xlink:href="#Menlo-Regular-31"/>
       <use xlink:href="#Menlo-Regular-30" transform="translate(60.205078 0)"/>
       <use xlink:href="#Menlo-Regular-30" transform="translate(120.410156 0)"/>
      </g>
     </g>
    </g>
    <g id="text_14">
     <!-- test accuracy (%) -->
     <g style="fill: #1a1a1a" transform="translate(19.825469 171.532656) rotate(-90) scale(0.1 -0.1)">
      <defs>
       <path id="Menlo-Regular-74" d="M 1919 4494 
L 1919 3500 
L 3225 3500 
L 3225 3053 
L 1919 3053 
L 1919 1153 
Q 1919 766 2066 612 
Q 2213 459 2578 459 
L 3225 459 
L 3225 0 
L 2522 0 
Q 1875 0 1609 259 
Q 1344 519 1344 1153 
L 1344 3053 
L 409 3053 
L 409 3500 
L 1344 3500 
L 1344 4494 
L 1919 4494 
z
" transform="scale(0.015625)"/>
       <path id="Menlo-Regular-73" d="M 3041 3378 
L 3041 2816 
Q 2794 2959 2544 3031 
Q 2294 3103 2034 3103 
Q 1644 3103 1451 2976 
Q 1259 2850 1259 2591 
Q 1259 2356 1403 2240 
Q 1547 2125 2119 2016 
L 2350 1972 
Q 2778 1891 2998 1647 
Q 3219 1403 3219 1013 
Q 3219 494 2850 201 
Q 2481 -91 1825 -91 
Q 1566 -91 1281 -36 
Q 997 19 666 128 
L 666 722 
Q 988 556 1281 473 
Q 1575 391 1838 391 
Q 2219 391 2428 545 
Q 2638 700 2638 978 
Q 2638 1378 1872 1531 
L 1847 1538 
L 1631 1581 
Q 1134 1678 906 1908 
Q 678 2138 678 2534 
Q 678 3038 1018 3311 
Q 1359 3584 1991 3584 
Q 2272 3584 2531 3532 
Q 2791 3481 3041 3378 
z
" transform="scale(0.015625)"/>
       <path id="Menlo-Regular-20" transform="scale(0.015625)"/>
       <path id="Menlo-Regular-61" d="M 2194 1759 
L 2003 1759 
Q 1500 1759 1245 1582 
Q 991 1406 991 1056 
Q 991 741 1181 566 
Q 1372 391 1709 391 
Q 2184 391 2456 720 
Q 2728 1050 2731 1631 
L 2731 1759 
L 2194 1759 
z
M 3309 1997 
L 3309 0 
L 2731 0 
L 2731 519 
Q 2547 206 2267 57 
Q 1988 -91 1588 -91 
Q 1053 -91 734 211 
Q 416 513 416 1019 
Q 416 1603 808 1906 
Q 1200 2209 1959 2209 
L 2731 2209 
L 2731 2300 
Q 2728 2719 2518 2908 
Q 2309 3097 1850 3097 
Q 1556 3097 1256 3012 
Q 956 2928 672 2766 
L 672 3341 
Q 991 3463 1283 3523 
Q 1575 3584 1850 3584 
Q 2284 3584 2592 3456 
Q 2900 3328 3091 3072 
Q 3209 2916 3259 2686 
Q 3309 2456 3309 1997 
z
" transform="scale(0.015625)"/>
       <path id="Menlo-Regular-75" d="M 609 1325 
L 609 3494 
L 1184 3494 
L 1184 1325 
Q 1184 853 1351 631 
Q 1519 409 1869 409 
Q 2275 409 2490 695 
Q 2706 981 2706 1516 
L 2706 3494 
L 3284 3494 
L 3284 0 
L 2706 0 
L 2706 525 
Q 2553 222 2289 65 
Q 2025 -91 1672 -91 
Q 1134 -91 871 261 
Q 609 613 609 1325 
z
" transform="scale(0.015625)"/>
       <path id="Menlo-Regular-72" d="M 3609 2778 
Q 3425 2922 3234 2987 
Q 3044 3053 2816 3053 
Q 2278 3053 1993 2715 
Q 1709 2378 1709 1741 
L 1709 0 
L 1131 0 
L 1131 3500 
L 1709 3500 
L 1709 2816 
Q 1853 3188 2151 3386 
Q 2450 3584 2859 3584 
Q 3072 3584 3256 3531 
Q 3441 3478 3609 3366 
L 3609 2778 
z
" transform="scale(0.015625)"/>
       <path id="Menlo-Regular-79" d="M 2681 1125 
Q 2538 759 2316 163 
Q 2006 -663 1900 -844 
Q 1756 -1088 1540 -1209 
Q 1325 -1331 1038 -1331 
L 575 -1331 
L 575 -850 
L 916 -850 
Q 1169 -850 1312 -703 
Q 1456 -556 1678 56 
L 325 3500 
L 934 3500 
L 1972 763 
L 2994 3500 
L 3603 3500 
L 2681 1125 
z
" transform="scale(0.015625)"/>
       <path id="Menlo-Regular-28" d="M 2672 5169 
Q 2256 4456 2051 3748 
Q 1847 3041 1847 2322 
Q 1847 1606 2051 897 
Q 2256 188 2672 -531 
L 2172 -531 
Q 1700 213 1469 917 
Q 1238 1622 1238 2322 
Q 1238 3019 1469 3725 
Q 1700 4431 2172 5169 
L 2672 5169 
z
" transform="scale(0.015625)"/>
       <path id="Menlo-Regular-25" d="M 2175 997 
Q 2175 753 2339 587 
Q 2503 422 2747 422 
Q 2988 422 3155 589 
Q 3322 756 3322 997 
Q 3322 1238 3153 1406 
Q 2984 1575 2747 1575 
Q 2503 1575 2339 1409 
Q 2175 1244 2175 997 
z
M 1753 997 
Q 1753 1419 2040 1708 
Q 2328 1997 2747 1997 
Q 2947 1997 3126 1922 
Q 3306 1847 3450 1703 
Q 3594 1556 3672 1375 
Q 3750 1194 3750 997 
Q 3750 581 3459 290 
Q 3169 0 2747 0 
Q 2322 0 2037 286 
Q 1753 572 1753 997 
z
M 259 1375 
L 122 1728 
L 3606 3122 
L 3763 2769 
L 259 1375 
z
M 525 3475 
Q 525 3228 689 3064 
Q 853 2900 1100 2900 
Q 1341 2900 1509 3067 
Q 1678 3234 1678 3475 
Q 1678 3716 1509 3883 
Q 1341 4050 1100 4050 
Q 859 4050 692 3884 
Q 525 3719 525 3475 
z
M 103 3475 
Q 103 3897 390 4186 
Q 678 4475 1100 4475 
Q 1300 4475 1483 4400 
Q 1666 4325 1806 4184 
Q 1947 4044 2023 3861 
Q 2100 3678 2100 3475 
Q 2100 3056 1809 2767 
Q 1519 2478 1100 2478 
Q 678 2478 390 2765 
Q 103 3053 103 3475 
z
" transform="scale(0.015625)"/>
       <path id="Menlo-Regular-29" d="M 1088 5169 
L 1588 5169 
Q 2059 4431 2290 3725 
Q 2522 3019 2522 2322 
Q 2522 1619 2290 912 
Q 2059 206 1588 -531 
L 1088 -531 
Q 1503 194 1708 903 
Q 1913 1613 1913 2322 
Q 1913 3034 1708 3743 
Q 1503 4453 1088 5169 
z
" transform="scale(0.015625)"/>
      </defs>
      <use xlink:href="#Menlo-Regular-74"/>
      <use xlink:href="#Menlo-Regular-65" transform="translate(60.205078 0)"/>
      <use xlink:href="#Menlo-Regular-73" transform="translate(120.410156 0)"/>
      <use xlink:href="#Menlo-Regular-74" transform="translate(180.615234 0)"/>
      <use xlink:href="#Menlo-Regular-20" transform="translate(240.820312 0)"/>
      <use xlink:href="#Menlo-Regular-61" transform="translate(301.025391 0)"/>
      <use xlink:href="#Menlo-Regular-63" transform="translate(361.230469 0)"/>
      <use xlink:href="#Menlo-Regular-63" transform="translate(421.435547 0)"/>
      <use xlink:href="#Menlo-Regular-75" transform="translate(481.640625 0)"/>
      <use xlink:href="#Menlo-Regular-72" transform="translate(541.845703 0)"/>
      <use xlink:href="#Menlo-Regular-61" transform="translate(602.050781 0)"/>
      <use xlink:href="#Menlo-Regular-63" transform="translate(662.255859 0)"/>
      <use xlink:href="#Menlo-Regular-79" transform="translate(722.460938 0)"/>
      <use xlink:href="#Menlo-Regular-20" transform="translate(782.666016 0)"/>
      <use xlink:href="#Menlo-Regular-28" transform="translate(842.871094 0)"/>
      <use xlink:href="#Menlo-Regular-25" transform="translate(903.076172 0)"/>
      <use xlink:href="#Menlo-Regular-29" transform="translate(963.28125 0)"/>
     </g>
    </g>
   </g>
   <g id="line2d_13">
    <path d="M 64.341818 52.323429 
L 71.96705 42.668571 
L 79.592282 40.254857 
L 87.217514 39.198857 
L 94.842746 38.746286 
L 102.467978 38.444571 
L 110.09321 37.992 
L 117.718442 37.841143 
L 125.343673 36.030857 
L 132.968905 35.276571 
L 140.594137 35.578286 
L 148.219369 37.237714 
L 155.844601 35.125714 
L 163.469833 36.181714 
L 171.095065 34.974857 
L 178.720297 34.220571 
L 186.345529 35.125714 
L 193.970761 36.332571 
L 201.595993 36.483429 
L 209.221224 33.768 
L 216.846456 34.069714 
L 224.471688 33.315429 
L 232.09692 33.466286 
L 239.722152 32.108571 
L 247.347384 32.712 
L 254.972616 33.466286 
L 262.597848 32.561143 
L 270.22308 33.013714 
L 277.848312 32.259429 
L 285.473544 31.656 
L 293.098776 31.806857 
L 300.724007 32.410286 
L 308.349239 32.561143 
L 315.974471 32.259429 
L 323.599703 32.259429 
L 331.224935 33.164571 
L 338.850167 34.371429 
L 346.475399 33.617143 
L 354.100631 33.013714 
L 361.725863 33.466286 
L 369.351095 33.617143 
L 376.976327 34.220571 
L 384.601558 34.220571 
L 392.22679 33.918857 
L 399.852022 33.315429 
L 407.477254 33.013714 
L 415.102486 33.918857 
L 422.727718 33.466286 
L 430.35295 33.013714 
L 437.978182 32.712 
" clip-path="url(#p83598643c2)" style="fill: none; stroke: #440154; stroke-opacity: 0.85; stroke-width: 1.1; stroke-linejoin: miter"/>
   </g>
   <g id="line2d_14">
    <path d="M 64.341818 54.737143 
L 71.96705 41.461714 
L 79.592282 39.651429 
L 87.217514 39.802286 
L 94.842746 38.897143 
L 102.467978 37.841143 
L 110.09321 37.388571 
L 117.718442 38.293714 
L 125.343673 36.483429 
L 132.968905 35.276571 
L 140.594137 36.030857 
L 148.219369 35.578286 
L 155.844601 34.824 
L 163.469833 34.371429 
L 171.095065 34.522286 
L 178.720297 35.125714 
L 186.345529 34.220571 
L 193.970761 35.88 
L 201.595993 35.125714 
L 209.221224 34.220571 
L 216.846456 34.220571 
L 224.471688 34.673143 
L 232.09692 34.220571 
L 239.722152 33.918857 
L 247.347384 33.918857 
L 254.972616 33.164571 
L 262.597848 31.806857 
L 270.22308 31.505143 
L 277.848312 31.354286 
L 285.473544 32.862857 
L 293.098776 32.259429 
L 300.724007 31.656 
L 308.349239 33.315429 
L 315.974471 33.013714 
L 323.599703 31.957714 
L 331.224935 32.862857 
L 338.850167 34.371429 
L 346.475399 32.862857 
L 354.100631 32.410286 
L 361.725863 33.466286 
L 369.351095 31.806857 
L 376.976327 32.561143 
L 384.601558 33.164571 
L 392.22679 31.957714 
L 399.852022 33.617143 
L 407.477254 33.466286 
L 415.102486 33.164571 
L 422.727718 33.315429 
L 430.35295 32.259429 
L 437.978182 33.315429 
" clip-path="url(#p83598643c2)" style="fill: none; stroke: #440154; stroke-opacity: 0.85; stroke-width: 1.1; stroke-linejoin: miter"/>
   </g>
   <g id="line2d_15">
    <path d="M 64.341818 53.530286 
L 71.96705 42.065143 
L 79.592282 40.707429 
L 87.217514 40.707429 
L 94.842746 39.651429 
L 102.467978 39.349714 
L 110.09321 38.444571 
L 117.718442 38.595429 
L 125.343673 35.125714 
L 132.968905 34.974857 
L 140.594137 35.276571 
L 148.219369 35.276571 
L 155.844601 35.578286 
L 163.469833 33.768 
L 171.095065 33.918857 
L 178.720297 34.974857 
L 186.345529 33.768 
L 193.970761 35.427429 
L 201.595993 34.824 
L 209.221224 34.220571 
L 216.846456 35.276571 
L 224.471688 35.125714 
L 232.09692 34.069714 
L 239.722152 33.013714 
L 247.347384 33.918857 
L 254.972616 32.410286 
L 262.597848 31.806857 
L 270.22308 32.712 
L 277.848312 31.203429 
L 285.473544 31.806857 
L 293.098776 32.561143 
L 300.724007 31.505143 
L 308.349239 32.410286 
L 315.974471 31.806857 
L 323.599703 32.862857 
L 331.224935 33.617143 
L 338.850167 34.220571 
L 346.475399 33.617143 
L 354.100631 32.561143 
L 361.725863 34.220571 
L 369.351095 32.108571 
L 376.976327 32.259429 
L 384.601558 32.561143 
L 392.22679 32.259429 
L 399.852022 32.410286 
L 407.477254 32.259429 
L 415.102486 34.069714 
L 422.727718 34.069714 
L 430.35295 34.069714 
L 437.978182 31.505143 
" clip-path="url(#p83598643c2)" style="fill: none; stroke: #440154; stroke-opacity: 0.85; stroke-width: 1.1; stroke-linejoin: miter"/>
   </g>
   <g id="line2d_16">
    <path d="M 64.341818 55.944 
L 71.96705 44.478857 
L 79.592282 40.556571 
L 87.217514 39.802286 
L 94.842746 37.690286 
L 102.467978 37.690286 
L 110.09321 38.142857 
L 117.718442 37.539429 
L 125.343673 37.841143 
L 132.968905 38.142857 
L 140.594137 37.237714 
L 148.219369 36.634286 
L 155.844601 36.936 
L 163.469833 36.332571 
L 171.095065 36.030857 
L 178.720297 36.936 
L 186.345529 35.276571 
L 193.970761 35.427429 
L 201.595993 35.729143 
L 209.221224 35.427429 
L 216.846456 35.88 
L 224.471688 35.427429 
L 232.09692 34.371429 
L 239.722152 34.522286 
L 247.347384 35.578286 
L 254.972616 33.768 
L 262.597848 33.617143 
L 270.22308 33.013714 
L 277.848312 33.918857 
L 285.473544 33.315429 
L 293.098776 33.617143 
L 300.724007 32.712 
L 308.349239 33.315429 
L 315.974471 34.522286 
L 323.599703 33.768 
L 331.224935 34.220571 
L 338.850167 34.069714 
L 346.475399 33.768 
L 354.100631 33.164571 
L 361.725863 33.315429 
L 369.351095 32.862857 
L 376.976327 33.315429 
L 384.601558 34.673143 
L 392.22679 34.220571 
L 399.852022 34.522286 
L 407.477254 34.522286 
L 415.102486 33.617143 
L 422.727718 33.315429 
L 430.35295 34.371429 
L 437.978182 32.108571 
" clip-path="url(#p83598643c2)" style="fill: none; stroke: #414487; stroke-opacity: 0.85; stroke-width: 1.1; stroke-linejoin: miter"/>
   </g>
   <g id="line2d_17">
    <path d="M 64.341818 59.413714 
L 71.96705 46.590857 
L 79.592282 41.009143 
L 87.217514 38.897143 
L 94.842746 37.841143 
L 102.467978 38.142857 
L 110.09321 38.444571 
L 117.718442 38.595429 
L 125.343673 37.690286 
L 132.968905 37.841143 
L 140.594137 36.332571 
L 148.219369 35.125714 
L 155.844601 35.578286 
L 163.469833 35.276571 
L 171.095065 36.785143 
L 178.720297 36.634286 
L 186.345529 35.88 
L 193.970761 34.974857 
L 201.595993 34.522286 
L 209.221224 34.220571 
L 216.846456 34.974857 
L 224.471688 34.522286 
L 232.09692 35.276571 
L 239.722152 35.276571 
L 247.347384 34.371429 
L 254.972616 34.673143 
L 262.597848 34.069714 
L 270.22308 34.824 
L 277.848312 34.069714 
L 285.473544 32.561143 
L 293.098776 34.069714 
L 300.724007 34.824 
L 308.349239 33.617143 
L 315.974471 35.125714 
L 323.599703 33.918857 
L 331.224935 35.276571 
L 338.850167 34.522286 
L 346.475399 33.768 
L 354.100631 33.315429 
L 361.725863 34.220571 
L 369.351095 34.069714 
L 376.976327 36.332571 
L 384.601558 34.522286 
L 392.22679 35.276571 
L 399.852022 34.371429 
L 407.477254 34.522286 
L 415.102486 33.768 
L 422.727718 33.768 
L 430.35295 35.276571 
L 437.978182 33.768 
" clip-path="url(#p83598643c2)" style="fill: none; stroke: #414487; stroke-opacity: 0.85; stroke-width: 1.1; stroke-linejoin: miter"/>
   </g>
   <g id="line2d_18">
    <path d="M 64.341818 56.396571 
L 71.96705 46.741714 
L 79.592282 41.461714 
L 87.217514 39.651429 
L 94.842746 38.746286 
L 102.467978 38.595429 
L 110.09321 37.539429 
L 117.718442 37.086857 
L 125.343673 36.332571 
L 132.968905 37.841143 
L 140.594137 37.539429 
L 148.219369 36.332571 
L 155.844601 36.181714 
L 163.469833 35.276571 
L 171.095065 35.125714 
L 178.720297 36.936 
L 186.345529 36.332571 
L 193.970761 35.729143 
L 201.595993 34.974857 
L 209.221224 34.673143 
L 216.846456 36.483429 
L 224.471688 36.181714 
L 232.09692 35.125714 
L 239.722152 36.030857 
L 247.347384 33.768 
L 254.972616 33.617143 
L 262.597848 34.220571 
L 270.22308 34.522286 
L 277.848312 33.617143 
L 285.473544 32.561143 
L 293.098776 33.013714 
L 300.724007 34.974857 
L 308.349239 32.862857 
L 315.974471 33.013714 
L 323.599703 32.561143 
L 331.224935 33.315429 
L 338.850167 33.918857 
L 346.475399 33.617143 
L 354.100631 32.862857 
L 361.725863 33.013714 
L 369.351095 33.617143 
L 376.976327 33.013714 
L 384.601558 35.125714 
L 392.22679 35.125714 
L 399.852022 35.276571 
L 407.477254 33.466286 
L 415.102486 35.578286 
L 422.727718 33.617143 
L 430.35295 35.125714 
L 437.978182 33.617143 
" clip-path="url(#p83598643c2)" style="fill: none; stroke: #414487; stroke-opacity: 0.85; stroke-width: 1.1; stroke-linejoin: miter"/>
   </g>
   <g id="line2d_19">
    <path d="M 64.341818 61.374857 
L 71.96705 46.892571 
L 79.592282 44.026286 
L 87.217514 41.612571 
L 94.842746 41.612571 
L 102.467978 41.16 
L 110.09321 41.763429 
L 117.718442 39.651429 
L 125.343673 40.254857 
L 132.968905 39.198857 
L 140.594137 39.651429 
L 148.219369 39.048 
L 155.844601 39.048 
L 163.469833 39.048 
L 171.095065 38.444571 
L 178.720297 38.595429 
L 186.345529 37.086857 
L 193.970761 37.086857 
L 201.595993 37.539429 
L 209.221224 37.237714 
L 216.846456 38.444571 
L 224.471688 37.237714 
L 232.09692 37.992 
L 239.722152 36.483429 
L 247.347384 36.332571 
L 254.972616 37.690286 
L 262.597848 38.142857 
L 270.22308 36.936 
L 277.848312 36.785143 
L 285.473544 37.690286 
L 293.098776 37.841143 
L 300.724007 37.690286 
L 308.349239 37.690286 
L 315.974471 37.237714 
L 323.599703 37.841143 
L 331.224935 36.181714 
L 338.850167 36.181714 
L 346.475399 36.634286 
L 354.100631 37.237714 
L 361.725863 38.293714 
L 369.351095 36.181714 
L 376.976327 39.048 
L 384.601558 37.992 
L 392.22679 38.142857 
L 399.852022 38.444571 
L 407.477254 37.237714 
L 415.102486 37.388571 
L 422.727718 37.237714 
L 430.35295 36.634286 
L 437.978182 35.125714 
" clip-path="url(#p83598643c2)" style="fill: none; stroke: #2a788e; stroke-opacity: 0.85; stroke-width: 1.1; stroke-linejoin: miter"/>
   </g>
   <g id="line2d_20">
    <path d="M 64.341818 61.224 
L 71.96705 47.345143 
L 79.592282 43.875429 
L 87.217514 42.668571 
L 94.842746 40.254857 
L 102.467978 40.707429 
L 110.09321 42.216 
L 117.718442 40.707429 
L 125.343673 40.254857 
L 132.968905 39.349714 
L 140.594137 38.746286 
L 148.219369 39.349714 
L 155.844601 39.048 
L 163.469833 38.293714 
L 171.095065 39.500571 
L 178.720297 39.349714 
L 186.345529 37.388571 
L 193.970761 37.539429 
L 201.595993 36.936 
L 209.221224 36.785143 
L 216.846456 38.897143 
L 224.471688 37.841143 
L 232.09692 36.483429 
L 239.722152 36.634286 
L 247.347384 37.388571 
L 254.972616 37.690286 
L 262.597848 37.388571 
L 270.22308 36.030857 
L 277.848312 37.690286 
L 285.473544 37.841143 
L 293.098776 37.086857 
L 300.724007 37.388571 
L 308.349239 36.483429 
L 315.974471 37.388571 
L 323.599703 37.086857 
L 331.224935 36.936 
L 338.850167 36.030857 
L 346.475399 36.634286 
L 354.100631 36.030857 
L 361.725863 37.388571 
L 369.351095 38.897143 
L 376.976327 38.595429 
L 384.601558 36.483429 
L 392.22679 38.595429 
L 399.852022 37.539429 
L 407.477254 36.936 
L 415.102486 36.483429 
L 422.727718 34.974857 
L 430.35295 36.030857 
L 437.978182 35.578286 
" clip-path="url(#p83598643c2)" style="fill: none; stroke: #2a788e; stroke-opacity: 0.85; stroke-width: 1.1; stroke-linejoin: miter"/>
   </g>
   <g id="line2d_21">
    <path d="M 64.341818 60.620571 
L 71.96705 48.099429 
L 79.592282 44.478857 
L 87.217514 43.573714 
L 94.842746 42.366857 
L 102.467978 40.556571 
L 110.09321 41.763429 
L 117.718442 40.104 
L 125.343673 37.992 
L 132.968905 39.953143 
L 140.594137 40.104 
L 148.219369 39.048 
L 155.844601 39.048 
L 163.469833 39.953143 
L 171.095065 38.444571 
L 178.720297 37.992 
L 186.345529 37.388571 
L 193.970761 37.690286 
L 201.595993 38.595429 
L 209.221224 36.483429 
L 216.846456 37.992 
L 224.471688 37.690286 
L 232.09692 37.992 
L 239.722152 36.785143 
L 247.347384 37.690286 
L 254.972616 38.444571 
L 262.597848 36.936 
L 270.22308 35.88 
L 277.848312 36.181714 
L 285.473544 36.785143 
L 293.098776 37.539429 
L 300.724007 38.746286 
L 308.349239 39.198857 
L 315.974471 38.142857 
L 323.599703 37.841143 
L 331.224935 36.785143 
L 338.850167 37.841143 
L 346.475399 37.841143 
L 354.100631 36.634286 
L 361.725863 36.785143 
L 369.351095 36.181714 
L 376.976327 36.936 
L 384.601558 37.690286 
L 392.22679 36.936 
L 399.852022 37.841143 
L 407.477254 38.897143 
L 415.102486 37.086857 
L 422.727718 36.785143 
L 430.35295 36.181714 
L 437.978182 36.785143 
" clip-path="url(#p83598643c2)" style="fill: none; stroke: #2a788e; stroke-opacity: 0.85; stroke-width: 1.1; stroke-linejoin: miter"/>
   </g>
   <g id="line2d_22">
    <path d="M 64.341818 66.805714 
L 71.96705 54.284571 
L 79.592282 48.099429 
L 87.217514 44.328 
L 94.842746 44.629714 
L 102.467978 43.422857 
L 110.09321 42.366857 
L 117.718442 42.216 
L 125.343673 41.763429 
L 132.968905 40.405714 
L 140.594137 40.707429 
L 148.219369 39.953143 
L 155.844601 40.405714 
L 163.469833 39.802286 
L 171.095065 40.104 
L 178.720297 41.009143 
L 186.345529 40.104 
L 193.970761 40.556571 
L 201.595993 40.104 
L 209.221224 40.104 
L 216.846456 40.707429 
L 224.471688 41.310857 
L 232.09692 42.366857 
L 239.722152 41.310857 
L 247.347384 41.009143 
L 254.972616 41.461714 
L 262.597848 41.310857 
L 270.22308 40.707429 
L 277.848312 39.953143 
L 285.473544 42.065143 
L 293.098776 41.612571 
L 300.724007 40.405714 
L 308.349239 40.858286 
L 315.974471 42.065143 
L 323.599703 40.405714 
L 331.224935 39.953143 
L 338.850167 39.651429 
L 346.475399 40.707429 
L 354.100631 40.104 
L 361.725863 38.444571 
L 369.351095 39.198857 
L 376.976327 38.746286 
L 384.601558 37.690286 
L 392.22679 37.841143 
L 399.852022 37.539429 
L 407.477254 39.651429 
L 415.102486 37.690286 
L 422.727718 37.388571 
L 430.35295 38.293714 
L 437.978182 37.388571 
" clip-path="url(#p83598643c2)" style="fill: none; stroke: #22a884; stroke-opacity: 0.85; stroke-width: 1.1; stroke-linejoin: miter"/>
   </g>
   <g id="line2d_23">
    <path d="M 64.341818 67.409143 
L 71.96705 52.474286 
L 79.592282 46.590857 
L 87.217514 45.082286 
L 94.842746 45.836571 
L 102.467978 44.780571 
L 110.09321 42.819429 
L 117.718442 42.366857 
L 125.343673 40.254857 
L 132.968905 42.517714 
L 140.594137 41.009143 
L 148.219369 40.405714 
L 155.844601 39.802286 
L 163.469833 40.405714 
L 171.095065 40.254857 
L 178.720297 42.366857 
L 186.345529 39.651429 
L 193.970761 41.009143 
L 201.595993 39.953143 
L 209.221224 39.802286 
L 216.846456 40.104 
L 224.471688 41.009143 
L 232.09692 41.763429 
L 239.722152 41.461714 
L 247.347384 41.612571 
L 254.972616 40.254857 
L 262.597848 41.763429 
L 270.22308 42.366857 
L 277.848312 41.16 
L 285.473544 40.405714 
L 293.098776 39.953143 
L 300.724007 40.556571 
L 308.349239 40.405714 
L 315.974471 40.254857 
L 323.599703 38.746286 
L 331.224935 39.198857 
L 338.850167 40.707429 
L 346.475399 39.349714 
L 354.100631 39.349714 
L 361.725863 37.690286 
L 369.351095 39.048 
L 376.976327 38.142857 
L 384.601558 39.349714 
L 392.22679 37.690286 
L 399.852022 37.992 
L 407.477254 36.181714 
L 415.102486 38.595429 
L 422.727718 39.500571 
L 430.35295 38.142857 
L 437.978182 38.595429 
" clip-path="url(#p83598643c2)" style="fill: none; stroke: #22a884; stroke-opacity: 0.85; stroke-width: 1.1; stroke-linejoin: miter"/>
   </g>
   <g id="line2d_24">
    <path d="M 64.341818 65.448 
L 71.96705 53.077714 
L 79.592282 49.004571 
L 87.217514 45.082286 
L 94.842746 43.422857 
L 102.467978 43.724571 
L 110.09321 42.216 
L 117.718442 41.612571 
L 125.343673 40.556571 
L 132.968905 39.953143 
L 140.594137 40.405714 
L 148.219369 40.707429 
L 155.844601 39.651429 
L 163.469833 40.556571 
L 171.095065 40.556571 
L 178.720297 40.556571 
L 186.345529 38.746286 
L 193.970761 39.500571 
L 201.595993 39.349714 
L 209.221224 40.556571 
L 216.846456 41.763429 
L 224.471688 41.16 
L 232.09692 40.858286 
L 239.722152 40.104 
L 247.347384 41.310857 
L 254.972616 41.009143 
L 262.597848 41.009143 
L 270.22308 41.461714 
L 277.848312 38.746286 
L 285.473544 41.009143 
L 293.098776 41.310857 
L 300.724007 40.858286 
L 308.349239 41.310857 
L 315.974471 40.556571 
L 323.599703 39.651429 
L 331.224935 39.802286 
L 338.850167 39.651429 
L 346.475399 40.858286 
L 354.100631 39.048 
L 361.725863 38.746286 
L 369.351095 40.254857 
L 376.976327 37.237714 
L 384.601558 37.388571 
L 392.22679 37.237714 
L 399.852022 36.483429 
L 407.477254 37.539429 
L 415.102486 36.181714 
L 422.727718 37.237714 
L 430.35295 37.690286 
L 437.978182 37.237714 
" clip-path="url(#p83598643c2)" style="fill: none; stroke: #22a884; stroke-opacity: 0.85; stroke-width: 1.1; stroke-linejoin: miter"/>
   </g>
   <g id="line2d_25">
    <path d="M 64.341818 68.766857 
L 71.96705 57.452571 
L 79.592282 52.021714 
L 87.217514 50.060571 
L 94.842746 50.060571 
L 102.467978 49.758857 
L 110.09321 47.646857 
L 117.718442 44.931429 
L 125.343673 45.685714 
L 132.968905 47.646857 
L 140.594137 47.345143 
L 148.219369 48.552 
L 155.844601 47.797714 
L 163.469833 46.44 
L 171.095065 44.478857 
L 178.720297 44.780571 
L 186.345529 45.836571 
L 193.970761 44.931429 
L 201.595993 43.121143 
L 209.221224 43.573714 
L 216.846456 44.629714 
L 224.471688 44.026286 
L 232.09692 45.384 
L 239.722152 43.422857 
L 247.347384 42.216 
L 254.972616 43.422857 
L 262.597848 41.914286 
L 270.22308 42.366857 
L 277.848312 42.668571 
L 285.473544 40.405714 
L 293.098776 41.310857 
L 300.724007 41.310857 
L 308.349239 41.16 
L 315.974471 41.763429 
L 323.599703 41.612571 
L 331.224935 41.914286 
L 338.850167 42.216 
L 346.475399 43.121143 
L 354.100631 41.612571 
L 361.725863 42.366857 
L 369.351095 41.914286 
L 376.976327 41.914286 
L 384.601558 41.461714 
L 392.22679 42.216 
L 399.852022 42.366857 
L 407.477254 42.668571 
L 415.102486 42.366857 
L 422.727718 41.612571 
L 430.35295 41.612571 
L 437.978182 42.216 
" clip-path="url(#p83598643c2)" style="fill: none; stroke: #7ad151; stroke-opacity: 0.85; stroke-width: 1.1; stroke-linejoin: miter"/>
   </g>
   <g id="line2d_26">
    <path d="M 64.341818 73.141714 
L 71.96705 55.491429 
L 79.592282 52.323429 
L 87.217514 51.569143 
L 94.842746 48.552 
L 102.467978 46.590857 
L 110.09321 46.289143 
L 117.718442 47.797714 
L 125.343673 47.646857 
L 132.968905 45.233143 
L 140.594137 45.836571 
L 148.219369 45.384 
L 155.844601 45.987429 
L 163.469833 43.875429 
L 171.095065 45.836571 
L 178.720297 44.177143 
L 186.345529 43.724571 
L 193.970761 43.272 
L 201.595993 42.970286 
L 209.221224 42.668571 
L 216.846456 44.026286 
L 224.471688 44.026286 
L 232.09692 41.914286 
L 239.722152 43.573714 
L 247.347384 42.517714 
L 254.972616 41.612571 
L 262.597848 42.065143 
L 270.22308 40.405714 
L 277.848312 41.16 
L 285.473544 41.310857 
L 293.098776 41.16 
L 300.724007 40.858286 
L 308.349239 42.216 
L 315.974471 41.310857 
L 323.599703 41.763429 
L 331.224935 42.216 
L 338.850167 42.366857 
L 346.475399 41.009143 
L 354.100631 42.216 
L 361.725863 40.858286 
L 369.351095 42.517714 
L 376.976327 42.819429 
L 384.601558 41.009143 
L 392.22679 41.612571 
L 399.852022 42.970286 
L 407.477254 42.366857 
L 415.102486 42.970286 
L 422.727718 41.461714 
L 430.35295 41.612571 
L 437.978182 41.009143 
" clip-path="url(#p83598643c2)" style="fill: none; stroke: #7ad151; stroke-opacity: 0.85; stroke-width: 1.1; stroke-linejoin: miter"/>
   </g>
   <g id="line2d_27">
    <path d="M 64.341818 81.891429 
L 71.96705 58.961143 
L 79.592282 51.418286 
L 87.217514 50.513143 
L 94.842746 50.060571 
L 102.467978 50.814857 
L 110.09321 49.909714 
L 117.718442 48.401143 
L 125.343673 46.590857 
L 132.968905 44.177143 
L 140.594137 47.948571 
L 148.219369 47.496 
L 155.844601 45.233143 
L 163.469833 46.138286 
L 171.095065 45.685714 
L 178.720297 44.780571 
L 186.345529 44.629714 
L 193.970761 44.931429 
L 201.595993 43.724571 
L 209.221224 43.272 
L 216.846456 43.875429 
L 224.471688 43.121143 
L 232.09692 43.724571 
L 239.722152 44.177143 
L 247.347384 43.422857 
L 254.972616 41.310857 
L 262.597848 42.668571 
L 270.22308 41.612571 
L 277.848312 43.422857 
L 285.473544 41.009143 
L 293.098776 42.517714 
L 300.724007 40.254857 
L 308.349239 41.16 
L 315.974471 41.763429 
L 323.599703 40.556571 
L 331.224935 40.405714 
L 338.850167 41.009143 
L 346.475399 42.517714 
L 354.100631 42.366857 
L 361.725863 41.914286 
L 369.351095 41.461714 
L 376.976327 42.517714 
L 384.601558 42.517714 
L 392.22679 41.612571 
L 399.852022 40.254857 
L 407.477254 41.310857 
L 415.102486 42.065143 
L 422.727718 42.065143 
L 430.35295 41.612571 
L 437.978182 42.970286 
" clip-path="url(#p83598643c2)" style="fill: none; stroke: #7ad151; stroke-opacity: 0.85; stroke-width: 1.1; stroke-linejoin: miter"/>
   </g>
   <g id="line2d_28">
    <path d="M 64.341818 106.028571 
L 71.96705 68.766857 
L 79.592282 60.469714 
L 87.217514 56.849143 
L 94.842746 54.435429 
L 102.467978 52.776 
L 110.09321 50.211429 
L 117.718442 51.267429 
L 125.343673 51.116571 
L 132.968905 52.625143 
L 140.594137 51.418286 
L 148.219369 51.418286 
L 155.844601 51.116571 
L 163.469833 51.116571 
L 171.095065 49.608 
L 178.720297 51.116571 
L 186.345529 50.965714 
L 193.970761 52.323429 
L 201.595993 52.474286 
L 209.221224 52.776 
L 216.846456 53.379429 
L 224.471688 52.776 
L 232.09692 50.664 
L 239.722152 51.267429 
L 247.347384 50.513143 
L 254.972616 48.401143 
L 262.597848 47.797714 
L 270.22308 47.496 
L 277.848312 46.289143 
L 285.473544 47.948571 
L 293.098776 47.043429 
L 300.724007 47.345143 
L 308.349239 48.250286 
L 315.974471 50.060571 
L 323.599703 48.552 
L 331.224935 47.797714 
L 338.850167 48.552 
L 346.475399 48.552 
L 354.100631 48.250286 
L 361.725863 47.797714 
L 369.351095 49.155429 
L 376.976327 47.194286 
L 384.601558 47.948571 
L 392.22679 46.741714 
L 399.852022 46.138286 
L 407.477254 44.931429 
L 415.102486 44.931429 
L 422.727718 46.590857 
L 430.35295 45.987429 
L 437.978182 45.685714 
" clip-path="url(#p83598643c2)" style="fill: none; stroke: #fde725; stroke-opacity: 0.85; stroke-width: 1.1; stroke-linejoin: miter"/>
   </g>
   <g id="line2d_29">
    <path d="M 64.341818 100.296 
L 71.96705 69.219429 
L 79.592282 63.336 
L 87.217514 60.017143 
L 94.842746 56.698286 
L 102.467978 53.832 
L 110.09321 52.926857 
L 117.718442 50.965714 
L 125.343673 51.870857 
L 132.968905 51.267429 
L 140.594137 49.608 
L 148.219369 51.569143 
L 155.844601 49.608 
L 163.469833 50.814857 
L 171.095065 48.401143 
L 178.720297 49.758857 
L 186.345529 50.965714 
L 193.970761 52.323429 
L 201.595993 51.418286 
L 209.221224 52.474286 
L 216.846456 52.021714 
L 224.471688 52.926857 
L 232.09692 50.965714 
L 239.722152 50.513143 
L 247.347384 51.418286 
L 254.972616 49.306286 
L 262.597848 50.211429 
L 270.22308 48.552 
L 277.848312 48.401143 
L 285.473544 48.552 
L 293.098776 48.250286 
L 300.724007 47.345143 
L 308.349239 47.043429 
L 315.974471 48.250286 
L 323.599703 47.043429 
L 331.224935 47.948571 
L 338.850167 49.004571 
L 346.475399 49.004571 
L 354.100631 47.345143 
L 361.725863 46.590857 
L 369.351095 47.043429 
L 376.976327 46.289143 
L 384.601558 47.496 
L 392.22679 47.496 
L 399.852022 49.004571 
L 407.477254 47.948571 
L 415.102486 47.948571 
L 422.727718 45.987429 
L 430.35295 46.289143 
L 437.978182 45.836571 
" clip-path="url(#p83598643c2)" style="fill: none; stroke: #fde725; stroke-opacity: 0.85; stroke-width: 1.1; stroke-linejoin: miter"/>
   </g>
   <g id="line2d_30">
    <path d="M 64.341818 94.714286 
L 71.96705 67.861714 
L 79.592282 59.715429 
L 87.217514 57.905143 
L 94.842746 55.642286 
L 102.467978 53.681143 
L 110.09321 52.474286 
L 117.718442 49.457143 
L 125.343673 49.909714 
L 132.968905 49.758857 
L 140.594137 49.608 
L 148.219369 51.72 
L 155.844601 49.155429 
L 163.469833 50.362286 
L 171.095065 49.758857 
L 178.720297 50.664 
L 186.345529 49.306286 
L 193.970761 51.870857 
L 201.595993 52.323429 
L 209.221224 53.832 
L 216.846456 51.418286 
L 224.471688 53.228571 
L 232.09692 51.870857 
L 239.722152 52.474286 
L 247.347384 50.211429 
L 254.972616 48.552 
L 262.597848 48.702857 
L 270.22308 50.362286 
L 277.848312 48.250286 
L 285.473544 48.250286 
L 293.098776 47.948571 
L 300.724007 47.948571 
L 308.349239 48.250286 
L 315.974471 47.948571 
L 323.599703 48.099429 
L 331.224935 48.552 
L 338.850167 47.646857 
L 346.475399 46.892571 
L 354.100631 47.194286 
L 361.725863 47.345143 
L 369.351095 46.289143 
L 376.976327 47.043429 
L 384.601558 47.345143 
L 392.22679 46.741714 
L 399.852022 45.685714 
L 407.477254 47.646857 
L 415.102486 46.590857 
L 422.727718 46.892571 
L 430.35295 44.780571 
L 437.978182 45.233143 
" clip-path="url(#p83598643c2)" style="fill: none; stroke: #fde725; stroke-opacity: 0.85; stroke-width: 1.1; stroke-linejoin: miter"/>
   </g>
   <g id="patch_3">
    <path d="M 45.66 225.96 
L 45.66 14.76 
" style="fill: none; stroke: #1a1a1a; stroke-width: 1.4; stroke-linejoin: miter; stroke-linecap: square"/>
   </g>
   <g id="patch_4">
    <path d="M 45.66 225.96 
L 456.66 225.96 
" style="fill: none; stroke: #1a1a1a; stroke-width: 1.4; stroke-linejoin: miter; stroke-linecap: square"/>
   </g>
   <g id="legend_1">
    <g id="text_15">
     <!-- swept value -->
     <g transform="translate(354.31043 175.069453) scale(0.105 -0.105)">
      <defs>
       <path id="Menlo-Regular-77" d="M 0 3500 
L 569 3500 
L 1178 672 
L 1678 2478 
L 2169 2478 
L 2675 672 
L 3284 3500 
L 3853 3500 
L 3034 0 
L 2484 0 
L 1925 1919 
L 1369 0 
L 819 0 
L 0 3500 
z
" transform="scale(0.015625)"/>
       <path id="Menlo-Regular-76" d="M 313 3500 
L 909 3500 
L 1925 563 
L 2944 3500 
L 3541 3500 
L 2297 0 
L 1556 0 
L 313 3500 
z
" transform="scale(0.015625)"/>
       <path id="Menlo-Regular-6c" d="M 2247 1266 
Q 2247 878 2389 681 
Q 2531 484 2809 484 
L 3481 484 
L 3481 0 
L 2753 0 
Q 2238 0 1955 329 
Q 1672 659 1672 1266 
L 1672 4431 
L 750 4431 
L 750 4881 
L 2247 4881 
L 2247 1266 
z
" transform="scale(0.015625)"/>
      </defs>
      <use xlink:href="#Menlo-Regular-73"/>
      <use xlink:href="#Menlo-Regular-77" transform="translate(60.205078 0)"/>
      <use xlink:href="#Menlo-Regular-65" transform="translate(120.410156 0)"/>
      <use xlink:href="#Menlo-Regular-70" transform="translate(180.615234 0)"/>
      <use xlink:href="#Menlo-Regular-74" transform="translate(240.820312 0)"/>
      <use xlink:href="#Menlo-Regular-20" transform="translate(301.025391 0)"/>
      <use xlink:href="#Menlo-Regular-76" transform="translate(361.230469 0)"/>
      <use xlink:href="#Menlo-Regular-61" transform="translate(421.435547 0)"/>
      <use xlink:href="#Menlo-Regular-6c" transform="translate(481.640625 0)"/>
      <use xlink:href="#Menlo-Regular-75" transform="translate(541.845703 0)"/>
      <use xlink:href="#Menlo-Regular-65" transform="translate(602.050781 0)"/>
     </g>
    </g>
    <g id="line2d_31">
     <path d="M 330.495469 185.467031 
L 339.495469 185.467031 
L 348.495469 185.467031 
" style="fill: none; stroke: #440154; stroke-width: 2.4; stroke-linejoin: miter"/>
    </g>
    <g id="text_16">
     <!-- τ=4.5 -->
     <g style="fill: #1a1a1a" transform="translate(355.695469 188.617031) scale(0.09 -0.09)">
      <defs>
       <path id="Menlo-Regular-3c4" d="M 2319 638 
Q 2431 488 2769 488 
L 3047 488 
L 3047 0 
L 2700 0 
Q 2138 0 1881 300 
Q 1625 606 1625 1269 
L 1625 2925 
L 500 2925 
L 500 3494 
L 3356 3494 
L 3356 2925 
L 2213 2925 
L 2213 1234 
Q 2213 781 2319 638 
z
" transform="scale(0.015625)"/>
       <path id="Menlo-Regular-3d" d="M 275 1563 
L 3578 1563 
L 3578 1034 
L 275 1034 
L 275 1563 
z
M 275 3034 
L 3578 3034 
L 3578 2506 
L 275 2506 
L 275 3034 
z
" transform="scale(0.015625)"/>
       <path id="Menlo-Regular-2e" d="M 1216 1263 
L 2316 1263 
L 2316 0 
L 1216 0 
L 1216 1263 
z
" transform="scale(0.015625)"/>
      </defs>
      <use xlink:href="#Menlo-Regular-3c4"/>
      <use xlink:href="#Menlo-Regular-3d" transform="translate(60.205078 0)"/>
      <use xlink:href="#Menlo-Regular-34" transform="translate(120.410156 0)"/>
      <use xlink:href="#Menlo-Regular-2e" transform="translate(180.615234 0)"/>
      <use xlink:href="#Menlo-Regular-35" transform="translate(240.820312 0)"/>
     </g>
    </g>
    <g id="line2d_32">
     <path d="M 330.495469 198.702656 
L 339.495469 198.702656 
L 348.495469 198.702656 
" style="fill: none; stroke: #414487; stroke-width: 2.4; stroke-linejoin: miter"/>
    </g>
    <g id="text_17">
     <!-- τ=6 -->
     <g style="fill: #1a1a1a" transform="translate(355.695469 201.852656) scale(0.09 -0.09)">
      <use xlink:href="#Menlo-Regular-3c4"/>
      <use xlink:href="#Menlo-Regular-3d" transform="translate(60.205078 0)"/>
      <use xlink:href="#Menlo-Regular-36" transform="translate(120.410156 0)"/>
     </g>
    </g>
    <g id="line2d_33">
     <path d="M 330.495469 211.938281 
L 339.495469 211.938281 
L 348.495469 211.938281 
" style="fill: none; stroke: #2a788e; stroke-width: 2.4; stroke-linejoin: miter"/>
    </g>
    <g id="text_18">
     <!-- τ=9 -->
     <g style="fill: #1a1a1a" transform="translate(355.695469 215.088281) scale(0.09 -0.09)">
      <defs>
       <path id="Menlo-Regular-39" d="M 1863 2069 
Q 2266 2069 2495 2359 
Q 2725 2650 2725 3163 
Q 2725 3675 2495 3965 
Q 2266 4256 1863 4256 
Q 1444 4256 1231 3979 
Q 1019 3703 1019 3163 
Q 1019 2619 1230 2344 
Q 1441 2069 1863 2069 
z
M 738 97 
L 738 678 
Q 934 563 1156 502 
Q 1378 441 1619 441 
Q 2219 441 2526 892 
Q 2834 1344 2834 2222 
Q 2688 1909 2422 1742 
Q 2156 1575 1813 1575 
Q 1138 1575 767 1990 
Q 397 2406 397 3169 
Q 397 3922 776 4336 
Q 1156 4750 1850 4750 
Q 2663 4750 3041 4165 
Q 3419 3581 3419 2328 
Q 3419 1150 2964 529 
Q 2509 -91 1644 -91 
Q 1416 -91 1184 -42 
Q 953 6 738 97 
z
" transform="scale(0.015625)"/>
      </defs>
      <use xlink:href="#Menlo-Regular-3c4"/>
      <use xlink:href="#Menlo-Regular-3d" transform="translate(60.205078 0)"/>
      <use xlink:href="#Menlo-Regular-39" transform="translate(120.410156 0)"/>
     </g>
    </g>
    <g id="line2d_34">
     <path d="M 400.786875 185.467031 
L 409.786875 185.467031 
L 418.786875 185.467031 
" style="fill: none; stroke: #22a884; stroke-width: 2.4; stroke-linejoin: miter"/>
    </g>
    <g id="text_19">
     <!-- τ=12 -->
     <g style="fill: #1a1a1a" transform="translate(425.986875 188.617031) scale(0.09 -0.09)">
      <use xlink:href="#Menlo-Regular-3c4"/>
      <use xlink:href="#Menlo-Regular-3d" transform="translate(60.205078 0)"/>
      <use xlink:href="#Menlo-Regular-31" transform="translate(120.410156 0)"/>
      <use xlink:href="#Menlo-Regular-32" transform="translate(180.615234 0)"/>
     </g>
    </g>
    <g id="line2d_35">
     <path d="M 400.786875 198.702656 
L 409.786875 198.702656 
L 418.786875 198.702656 
" style="fill: none; stroke: #7ad151; stroke-width: 2.4; stroke-linejoin: miter"/>
    </g>
    <g id="text_20">
     <!-- τ=18 -->
     <g style="fill: #1a1a1a" transform="translate(425.986875 201.852656) scale(0.09 -0.09)">
      <use xlink:href="#Menlo-Regular-3c4"/>
      <use xlink:href="#Menlo-Regular-3d" transform="translate(60.205078 0)"/>
      <use xlink:href="#Menlo-Regular-31" transform="translate(120.410156 0)"/>
      <use xlink:href="#Menlo-Regular-38" transform="translate(180.615234 0)"/>
     </g>
    </g>
    <g id="line2d_36">
     <path d="M 400.786875 211.938281 
L 409.786875 211.938281 
L 418.786875 211.938281 
" style="fill: none; stroke: #fde725; stroke-width: 2.4; stroke-linejoin: miter"/>
    </g>
    <g id="text_21">
     <!-- τ=27 -->
     <g style="fill: #1a1a1a" transform="translate(425.986875 215.088281) scale(0.09 -0.09)">
      <defs>
       <path id="Menlo-Regular-37" d="M 434 4666 
L 3372 4666 
L 3372 4397 
L 1703 0 
L 1044 0 
L 2669 4134 
L 434 4134 
L 434 4666 
z
" transform="scale(0.015625)"/>
      </defs>
      <use xlink:href="#Menlo-Regular-3c4"/>
      <use xlink:href="#Menlo-Regular-3d" transform="translate(60.205078 0)"/>
      <use xlink:href="#Menlo-Regular-32" transform="translate(120.410156 0)"/>
      <use xlink:href="#Menlo-Regular-37" transform="translate(180.615234 0)"/>
     </g>
    </g>
   </g>
   <g id="legend_2">
    <g id="text_22">
     <!-- swept value -->
     <g transform="translate(354.31043 175.069453) scale(0.105 -0.105)">
      <use xlink:href="#Menlo-Regular-73"/>
      <use xlink:href="#Menlo-Regular-77" transform="translate(60.205078 0)"/>
      <use xlink:href="#Menlo-Regular-65" transform="translate(120.410156 0)"/>
      <use xlink:href="#Menlo-Regular-70" transform="translate(180.615234 0)"/>
      <use xlink:href="#Menlo-Regular-74" transform="translate(240.820312 0)"/>
      <use xlink:href="#Menlo-Regular-20" transform="translate(301.025391 0)"/>
      <use xlink:href="#Menlo-Regular-76" transform="translate(361.230469 0)"/>
      <use xlink:href="#Menlo-Regular-61" transform="translate(421.435547 0)"/>
      <use xlink:href="#Menlo-Regular-6c" transform="translate(481.640625 0)"/>
      <use xlink:href="#Menlo-Regular-75" transform="translate(541.845703 0)"/>
      <use xlink:href="#Menlo-Regular-65" transform="translate(602.050781 0)"/>
     </g>
    </g>
    <g id="line2d_37">
     <path d="M 330.495469 185.467031 
L 339.495469 185.467031 
L 348.495469 185.467031 
" style="fill: none; stroke: #440154; stroke-width: 2.4; stroke-linejoin: miter"/>
    </g>
    <g id="text_23">
     <!-- τ=4.5 -->
     <g style="fill: #1a1a1a" transform="translate(355.695469 188.617031) scale(0.09 -0.09)">
      <use xlink:href="#Menlo-Regular-3c4"/>
      <use xlink:href="#Menlo-Regular-3d" transform="translate(60.205078 0)"/>
      <use xlink:href="#Menlo-Regular-34" transform="translate(120.410156 0)"/>
      <use xlink:href="#Menlo-Regular-2e" transform="translate(180.615234 0)"/>
      <use xlink:href="#Menlo-Regular-35" transform="translate(240.820312 0)"/>
     </g>
    </g>
    <g id="line2d_38">
     <path d="M 330.495469 198.702656 
L 339.495469 198.702656 
L 348.495469 198.702656 
" style="fill: none; stroke: #414487; stroke-width: 2.4; stroke-linejoin: miter"/>
    </g>
    <g id="text_24">
     <!-- τ=6 -->
     <g style="fill: #1a1a1a" transform="translate(355.695469 201.852656) scale(0.09 -0.09)">
      <use xlink:href="#Menlo-Regular-3c4"/>
      <use xlink:href="#Menlo-Regular-3d" transform="translate(60.205078 0)"/>
      <use xlink:href="#Menlo-Regular-36" transform="translate(120.410156 0)"/>
     </g>
    </g>
    <g id="line2d_39">
     <path d="M 330.495469 211.938281 
L 339.495469 211.938281 
L 348.495469 211.938281 
" style="fill: none; stroke: #2a788e; stroke-width: 2.4; stroke-linejoin: miter"/>
    </g>
    <g id="text_25">
     <!-- τ=9 -->
     <g style="fill: #1a1a1a" transform="translate(355.695469 215.088281) scale(0.09 -0.09)">
      <use xlink:href="#Menlo-Regular-3c4"/>
      <use xlink:href="#Menlo-Regular-3d" transform="translate(60.205078 0)"/>
      <use xlink:href="#Menlo-Regular-39" transform="translate(120.410156 0)"/>
     </g>
    </g>
    <g id="line2d_40">
     <path d="M 400.786875 185.467031 
L 409.786875 185.467031 
L 418.786875 185.467031 
" style="fill: none; stroke: #22a884; stroke-width: 2.4; stroke-linejoin: miter"/>
    </g>
    <g id="text_26">
     <!-- τ=12 -->
     <g style="fill: #1a1a1a" transform="translate(425.986875 188.617031) scale(0.09 -0.09)">
      <use xlink:href="#Menlo-Regular-3c4"/>
      <use xlink:href="#Menlo-Regular-3d" transform="translate(60.205078 0)"/>
      <use xlink:href="#Menlo-Regular-31" transform="translate(120.410156 0)"/>
      <use xlink:href="#Menlo-Regular-32" transform="translate(180.615234 0)"/>
     </g>
    </g>
    <g id="line2d_41">
     <path d="M 400.786875 198.702656 
L 409.786875 198.702656 
L 418.786875 198.702656 
" style="fill: none; stroke: #7ad151; stroke-width: 2.4; stroke-linejoin: miter"/>
    </g>
    <g id="text_27">
     <!-- τ=18 -->
     <g style="fill: #1a1a1a" transform="translate(425.986875 201.852656) scale(0.09 -0.09)">
      <use xlink:href="#Menlo-Regular-3c4"/>
      <use xlink:href="#Menlo-Regular-3d" transform="translate(60.205078 0)"/>
      <use xlink:href="#Menlo-Regular-31" transform="translate(120.410156 0)"/>
      <use xlink:href="#Menlo-Regular-38" transform="translate(180.615234 0)"/>
     </g>
    </g>
    <g id="line2d_42">
     <path d="M 400.786875 211.938281 
L 409.786875 211.938281 
L 418.786875 211.938281 
" style="fill: none; stroke: #fde725; stroke-width: 2.4; stroke-linejoin: miter"/>
    </g>
    <g id="text_28">
     <!-- τ=27 -->
     <g style="fill: #1a1a1a" transform="translate(425.986875 215.088281) scale(0.09 -0.09)">
      <use xlink:href="#Menlo-Regular-3c4"/>
      <use xlink:href="#Menlo-Regular-3d" transform="translate(60.205078 0)"/>
      <use xlink:href="#Menlo-Regular-32" transform="translate(120.410156 0)"/>
      <use xlink:href="#Menlo-Regular-37" transform="translate(180.615234 0)"/>
     </g>
    </g>
   </g>
  </g>
  <g id="text_29">
   <!-- r005 -->
   <g style="fill: #888888" transform="translate(446.395 260.53865) scale(0.08 -0.08)">
    <use xlink:href="#Menlo-Regular-72"/>
    <use xlink:href="#Menlo-Regular-30" transform="translate(60.205078 0)"/>
    <use xlink:href="#Menlo-Regular-30" transform="translate(120.410156 0)"/>
    <use xlink:href="#Menlo-Regular-35" transform="translate(180.615234 0)"/>
   </g>
  </g>
 </g>
 <defs>
  <clipPath id="p83598643c2">
   <rect x="45.66" y="14.76" width="411" height="211.2"/>
  </clipPath>
 </defs>
</svg>
