<?xml version="1.0" encoding="utf-8" standalone="no"?>
<!DOCTYPE svg PUBLIC "-//W3C//DTD SVG 1.1//EN"
  "http://www.w3.org/Graphics/SVG/1.1/DTD/svg11.dtd">
<svg xmlns:xlink="http://www.w3.org/1999/xlink" width="468pt" height="263.52pt" viewBox="0 0 468 263.52" xmlns="http://www.w3.org/2000/svg" version="1.1">
 <metadata>
  <rdf:RDF xmlns:dc="http://purl.org/dc/elements/1.1/" xmlns:cc="http://creativecommons.org/ns#" xmlns:rdf="http://www.w3.org/1999/02/22-rdf-syntax-ns#">
   <cc:Work>
    <dc:type rdf:resource="http://purl.org/dc/dcmitype/StillImage"/>
    <dc:date>2026-07-08T12:22:01.552767</dc:date>
    <dc:format>image/svg+xml</dc:format>
    <dc:creator>
     <cc:Agent>
      <dc:title>Matplotlib v3.10.8, https://matplotlib.org/</dc:title>
     </cc:Agent>
    </dc:creator>
   </cc:Work>
  </rdf:RDF>
 </metadata>
 <defs>
  <style type="text/css">*{stroke-linejoin: round; stroke-linecap: butt}</style>
 </defs>
 <g id="figure_1">
  <g id="patch_1">
   <path d="M 0 263.52 
L 468 263.52 
L 468 0 
L 0 0 
z
" style="fill: #ffffff"/>
  </g>
  <g id="axes_1">
   <g id="patch_2">
    <path d="M 45.48 225.24 
L 456.66 225.24 
L 456.66 14.94 
L 45.48 14.94 
z
" style="fill: #ffffff"/>
   </g>
   <g id="matplotlib.axis_1">
    <g id="xtick_1">
     <g id="line2d_1">
      <defs>
       <path id="m4c3cf88c4b" d="M 0 0 
L 0 -4 
" style="stroke: #1a1a1a"/>
      </defs>
      <g>
       <use xlink:href="#m4c3cf88c4b" x="56.541429" y="225.24" style="fill: #1a1a1a; stroke: #1a1a1a"/>
      </g>
     </g>
     <g id="text_1">
      <!-- 0 -->
      <g style="fill: #1a1a1a" transform="translate(53.832288 235.603906) scale(0.09 -0.09)">
       <defs>
        <path id="Menlo-Regular-30" d="M 1925 4734 
Q 2672 4734 3055 4125 
Q 3438 3516 3438 2322 
Q 3438 1128 3055 518 
Q 2672 -91 1925 -91 
Q 1178 -91 797 518 
Q 416 1128 416 2322 
Q 416 3516 797 4125 
Q 1178 4734 1925 4734 
z
M 1925 409 
Q 2369 409 2586 881 
Q 2803 1353 2803 2322 
Q 2803 2838 2741 3253 
L 1253 925 
Q 1488 409 1925 409 
z
M 1925 4234 
Q 1484 4234 1267 3762 
Q 1050 3291 1050 2322 
Q 1050 1881 1109 1497 
L 2566 3819 
Q 2328 4234 1925 4234 
z
" transform="scale(0.015625)"/>
       </defs>
       <use xlink:href="#Menlo-Regular-30"/>
      </g>
     </g>
    </g>
    <g id="xtick_2">
     <g id="line2d_2">
      <g>
       <use xlink:href="#m4c3cf88c4b" x="132.827143" y="225.24" style="fill: #1a1a1a; stroke: #1a1a1a"/>
      </g>
     </g>
     <g id="text_2">
      <!-- 10 -->
      <g style="fill: #1a1a1a" transform="translate(127.408862 235.603906) scale(0.09 -0.09)">
       <defs>
        <path id="Menlo-Regular-31" d="M 844 528 
L 1825 528 
L 1825 4053 
L 650 3488 
L 650 4094 
L 1819 4650 
L 2450 4650 
L 2450 528 
L 3419 528 
L 3419 0 
L 844 0 
L 844 528 
z
" transform="scale(0.015625)"/>
       </defs>
       <use xlink:href="#Menlo-Regular-31"/>
       <use xlink:href="#Menlo-Regular-30" transform="translate(60.205078 0)"/>
      </g>
     </g>
    </g>
    <g id="xtick_3">
     <g id="line2d_3">
      <g>
       <use xlink:href="#m4c3cf88c4b" x="209.112857" y="225.24" style="fill: #1a1a1a; stroke: #1a1a1a"/>
      </g>
     </g>
     <g id="text_3">
      <!-- 20 -->
      <g style="fill: #1a1a1a" transform="translate(203.694576 235.603906) scale(0.09 -0.09)">
       <defs>
        <path id="Menlo-Regular-32" d="M 1166 531 
L 3309 531 
L 3309 0 
L 475 0 
L 475 531 
Q 1059 1147 1496 1619 
Q 1934 2091 2100 2284 
Q 2413 2666 2522 2902 
Q 2631 3138 2631 3384 
Q 2631 3775 2401 3997 
Q 2172 4219 1772 4219 
Q 1488 4219 1175 4116 
Q 863 4013 513 3803 
L 513 4441 
Q 834 4594 1145 4672 
Q 1456 4750 1759 4750 
Q 2444 4750 2861 4386 
Q 3278 4022 3278 3431 
Q 3278 3131 3139 2831 
Q 3000 2531 2688 2169 
Q 2513 1966 2180 1606 
Q 1847 1247 1166 531 
z
" transform="scale(0.015625)"/>
       </defs>
       <use xlink:href="#Menlo-Regular-32"/>
       <use xlink:href="#Menlo-Regular-30" transform="translate(60.205078 0)"/>
      </g>
     </g>
    </g>
    <g id="xtick_4">
     <g id="line2d_4">
      <g>
       <use xlink:href="#m4c3cf88c4b" x="285.398571" y="225.24" style="fill: #1a1a1a; stroke: #1a1a1a"/>
      </g>
     </g>
     <g id="text_4">
      <!-- 30 -->
      <g style="fill: #1a1a1a" transform="translate(279.98029 235.603906) scale(0.09 -0.09)">
       <defs>
        <path id="Menlo-Regular-33" d="M 2425 2497 
Q 2884 2375 3128 2064 
Q 3372 1753 3372 1288 
Q 3372 644 2939 276 
Q 2506 -91 1741 -91 
Q 1419 -91 1084 -31 
Q 750 28 428 141 
L 428 769 
Q 747 603 1056 522 
Q 1366 441 1672 441 
Q 2191 441 2469 675 
Q 2747 909 2747 1350 
Q 2747 1756 2469 1995 
Q 2191 2234 1716 2234 
L 1234 2234 
L 1234 2753 
L 1716 2753 
Q 2150 2753 2394 2943 
Q 2638 3134 2638 3475 
Q 2638 3834 2411 4026 
Q 2184 4219 1766 4219 
Q 1488 4219 1191 4156 
Q 894 4094 569 3969 
L 569 4550 
Q 947 4650 1242 4700 
Q 1538 4750 1766 4750 
Q 2447 4750 2855 4408 
Q 3263 4066 3263 3500 
Q 3263 3116 3048 2859 
Q 2834 2603 2425 2497 
z
" transform="scale(0.015625)"/>
       </defs>
       <use xlink:href="#Menlo-Regular-33"/>
       <use xlink:href="#Menlo-Regular-30" transform="translate(60.205078 0)"/>
      </g>
     </g>
    </g>
    <g id="xtick_5">
     <g id="line2d_5">
      <g>
       <use xlink:href="#m4c3cf88c4b" x="361.684286" y="225.24" style="fill: #1a1a1a; stroke: #1a1a1a"/>
      </g>
     </g>
     <g id="text_5">
      <!-- 40 -->
      <g style="fill: #1a1a1a" transform="translate(356.266004 235.603906) scale(0.09 -0.09)">
       <defs>
        <path id="Menlo-Regular-34" d="M 2297 4091 
L 825 1625 
L 2297 1625 
L 2297 4091 
z
M 2194 4666 
L 2925 4666 
L 2925 1625 
L 3547 1625 
L 3547 1113 
L 2925 1113 
L 2925 0 
L 2297 0 
L 2297 1113 
L 319 1113 
L 319 1709 
L 2194 4666 
z
" transform="scale(0.015625)"/>
       </defs>
       <use xlink:href="#Menlo-Regular-34"/>
       <use xlink:href="#Menlo-Regular-30" transform="translate(60.205078 0)"/>
      </g>
     </g>
    </g>
    <g id="xtick_6">
     <g id="line2d_6">
      <g>
       <use xlink:href="#m4c3cf88c4b" x="437.97" y="225.24" style="fill: #1a1a1a; stroke: #1a1a1a"/>
      </g>
     </g>
     <g id="text_6">
      <!-- 50 -->
      <g style="fill: #1a1a1a" transform="translate(432.551719 235.603906) scale(0.09 -0.09)">
       <defs>
        <path id="Menlo-Regular-35" d="M 647 4666 
L 3009 4666 
L 3009 4134 
L 1222 4134 
L 1222 2988 
Q 1356 3038 1492 3061 
Q 1628 3084 1766 3084 
Q 2491 3084 2916 2656 
Q 3341 2228 3341 1497 
Q 3341 759 2895 334 
Q 2450 -91 1678 -91 
Q 1306 -91 998 -41 
Q 691 9 447 109 
L 447 750 
Q 734 594 1025 517 
Q 1316 441 1619 441 
Q 2141 441 2423 716 
Q 2706 991 2706 1497 
Q 2706 1997 2414 2275 
Q 2122 2553 1600 2553 
Q 1347 2553 1106 2495 
Q 866 2438 647 2322 
L 647 4666 
z
" transform="scale(0.015625)"/>
       </defs>
       <use xlink:href="#Menlo-Regular-35"/>
       <use xlink:href="#Menlo-Regular-30" transform="translate(60.205078 0)"/>
      </g>
     </g>
    </g>
    <g id="text_7">
     <!-- epoch -->
     <g style="fill: #1a1a1a" transform="translate(236.019219 249.102187) scale(0.1 -0.1)">
      <defs>
       <path id="Menlo-Regular-65" d="M 3500 2038 
L 3500 1756 
L 1009 1756 
L 1009 1738 
Q 984 1022 1282 709 
Q 1581 397 2125 397 
Q 2400 397 2700 484 
Q 3000 572 3341 750 
L 3341 178 
Q 3013 44 2708 -23 
Q 2403 -91 2119 -91 
Q 1303 -91 843 398 
Q 384 888 384 1747 
Q 384 2584 834 3084 
Q 1284 3584 2034 3584 
Q 2703 3584 3089 3131 
Q 3475 2678 3500 2038 
z
M 2925 2206 
Q 2888 2569 2661 2833 
Q 2434 3097 2009 3097 
Q 1594 3097 1325 2822 
Q 1056 2547 1031 2203 
L 2925 2206 
z
" transform="scale(0.015625)"/>
       <path id="Menlo-Regular-70" d="M 1172 441 
L 1172 -1331 
L 594 -1331 
L 594 3500 
L 1172 3500 
L 1172 3053 
Q 1316 3313 1555 3448 
Q 1794 3584 2106 3584 
Q 2741 3584 3102 3093 
Q 3463 2603 3463 1734 
Q 3463 881 3100 395 
Q 2738 -91 2106 -91 
Q 1788 -91 1548 45 
Q 1309 181 1172 441 
z
M 2859 1747 
Q 2859 2416 2648 2756 
Q 2438 3097 2022 3097 
Q 1603 3097 1387 2755 
Q 1172 2413 1172 1747 
Q 1172 1084 1387 740 
Q 1603 397 2022 397 
Q 2438 397 2648 737 
Q 2859 1078 2859 1747 
z
" transform="scale(0.015625)"/>
       <path id="Menlo-Regular-6f" d="M 1925 3097 
Q 1488 3097 1263 2756 
Q 1038 2416 1038 1747 
Q 1038 1081 1263 739 
Q 1488 397 1925 397 
Q 2366 397 2591 739 
Q 2816 1081 2816 1747 
Q 2816 2416 2591 2756 
Q 2366 3097 1925 3097 
z
M 1925 3584 
Q 2653 3584 3039 3112 
Q 3425 2641 3425 1747 
Q 3425 850 3040 379 
Q 2656 -91 1925 -91 
Q 1197 -91 812 379 
Q 428 850 428 1747 
Q 428 2641 812 3112 
Q 1197 3584 1925 3584 
z
" transform="scale(0.015625)"/>
       <path id="Menlo-Regular-63" d="M 3316 178 
Q 3084 44 2839 -23 
Q 2594 -91 2338 -91 
Q 1525 -91 1067 396 
Q 609 884 609 1747 
Q 609 2609 1067 3096 
Q 1525 3584 2338 3584 
Q 2591 3584 2831 3518 
Q 3072 3453 3316 3316 
L 3316 2713 
Q 3088 2916 2858 3006 
Q 2628 3097 2338 3097 
Q 1797 3097 1506 2747 
Q 1216 2397 1216 1747 
Q 1216 1100 1508 748 
Q 1800 397 2338 397 
Q 2638 397 2875 489 
Q 3113 581 3316 775 
L 3316 178 
z
" transform="scale(0.015625)"/>
       <path id="Menlo-Regular-68" d="M 3284 2169 
L 3284 0 
L 2706 0 
L 2706 2169 
Q 2706 2641 2540 2862 
Q 2375 3084 2022 3084 
Q 1619 3084 1401 2798 
Q 1184 2513 1184 1978 
L 1184 0 
L 609 0 
L 609 4863 
L 1184 4863 
L 1184 2975 
Q 1338 3275 1600 3429 
Q 1863 3584 2222 3584 
Q 2756 3584 3020 3232 
Q 3284 2881 3284 2169 
z
" transform="scale(0.015625)"/>
      </defs>
      <use xlink:href="#Menlo-Regular-65"/>
      <use xlink:href="#Menlo-Regular-70" transform="translate(60.205078 0)"/>
      <use xlink:href="#Menlo-Regular-6f" transform="translate(120.410156 0)"/>
      <use xlink:href="#Menlo-Regular-63" transform="translate(180.615234 0)"/>
      <use xlink:href="#Menlo-Regular-68" transform="translate(240.820312 0)"/>
     </g>
    </g>
   </g>
   <g id="matplotlib.axis_2">
    <g id="ytick_1">
     <g id="line2d_7">
      <defs>
       <path id="m3630ffa155" d="M 0 0 
L 4 0 
" style="stroke: #1a1a1a"/>
      </defs>
      <g>
       <use xlink:href="#m3630ffa155" x="45.48" y="225.24" style="fill: #1a1a1a; stroke: #1a1a1a"/>
      </g>
     </g>
     <g id="text_8">
      <!-- 0 -->
      <g style="fill: #1a1a1a" transform="translate(36.561719 228.671953) scale(0.09 -0.09)">
       <use xlink:href="#Menlo-Regular-30"/>
      </g>
     </g>
    </g>
    <g id="ytick_2">
     <g id="line2d_8">
      <g>
       <use xlink:href="#m3630ffa155" x="45.48" y="183.18" style="fill: #1a1a1a; stroke: #1a1a1a"/>
      </g>
     </g>
     <g id="text_9">
      <!-- 20 -->
      <g style="fill: #1a1a1a" transform="translate(31.143438 186.611953) scale(0.09 -0.09)">
       <use xlink:href="#Menlo-Regular-32"/>
       <use xlink:href="#Menlo-Regular-30" transform="translate(60.205078 0)"/>
      </g>
     </g>
    </g>
    <g id="ytick_3">
     <g id="line2d_9">
      <g>
       <use xlink:href="#m3630ffa155" x="45.48" y="141.12" style="fill: #1a1a1a; stroke: #1a1a1a"/>
      </g>
     </g>
     <g id="text_10">
      <!-- 40 -->
      <g style="fill: #1a1a1a" transform="translate(31.143438 144.551953) scale(0.09 -0.09)">
       <use xlink:href="#Menlo-Regular-34"/>
       <use xlink:href="#Menlo-Regular-30" transform="translate(60.205078 0)"/>
      </g>
     </g>
    </g>
    <g id="ytick_4">
     <g id="line2d_10">
      <g>
       <use xlink:href="#m3630ffa155" x="45.48" y="99.06" style="fill: #1a1a1a; stroke: #1a1a1a"/>
      </g>
     </g>
     <g id="text_11">
      <!-- 60 -->
      <g style="fill: #1a1a1a" transform="translate(31.143438 102.491953) scale(0.09 -0.09)">
       <defs>
        <path id="Menlo-Regular-36" d="M 3097 4563 
L 3097 3981 
Q 2900 4097 2678 4158 
Q 2456 4219 2216 4219 
Q 1616 4219 1306 3767 
Q 997 3316 997 2438 
Q 1147 2750 1412 2917 
Q 1678 3084 2022 3084 
Q 2697 3084 3067 2670 
Q 3438 2256 3438 1497 
Q 3438 741 3056 325 
Q 2675 -91 1984 -91 
Q 1172 -91 794 492 
Q 416 1075 416 2328 
Q 416 3509 870 4129 
Q 1325 4750 2188 4750 
Q 2419 4750 2650 4701 
Q 2881 4653 3097 4563 
z
M 1972 2591 
Q 1569 2591 1337 2300 
Q 1106 2009 1106 1497 
Q 1106 984 1337 693 
Q 1569 403 1972 403 
Q 2391 403 2603 679 
Q 2816 956 2816 1497 
Q 2816 2041 2603 2316 
Q 2391 2591 1972 2591 
z
" transform="scale(0.015625)"/>
       </defs>
       <use xlink:href="#Menlo-Regular-36"/>
       <use xlink:href="#Menlo-Regular-30" transform="translate(60.205078 0)"/>
      </g>
     </g>
    </g>
    <g id="ytick_5">
     <g id="line2d_11">
      <g>
       <use xlink:href="#m3630ffa155" x="45.48" y="57" style="fill: #1a1a1a; stroke: #1a1a1a"/>
      </g>
     </g>
     <g id="text_12">
      <!-- 80 -->
      <g style="fill: #1a1a1a" transform="translate(31.143438 60.431953) scale(0.09 -0.09)">
       <defs>
        <path id="Menlo-Regular-38" d="M 1925 2216 
Q 1503 2216 1273 1980 
Q 1044 1744 1044 1313 
Q 1044 881 1276 642 
Q 1509 403 1925 403 
Q 2350 403 2579 639 
Q 2809 875 2809 1313 
Q 2809 1741 2576 1978 
Q 2344 2216 1925 2216 
z
M 1375 2478 
Q 972 2581 745 2862 
Q 519 3144 519 3541 
Q 519 4097 897 4423 
Q 1275 4750 1925 4750 
Q 2578 4750 2956 4423 
Q 3334 4097 3334 3541 
Q 3334 3144 3107 2862 
Q 2881 2581 2478 2478 
Q 2947 2375 3195 2062 
Q 3444 1750 3444 1253 
Q 3444 622 3041 265 
Q 2638 -91 1925 -91 
Q 1213 -91 811 264 
Q 409 619 409 1247 
Q 409 1747 657 2061 
Q 906 2375 1375 2478 
z
M 1147 3481 
Q 1147 3106 1347 2909 
Q 1547 2713 1925 2713 
Q 2306 2713 2506 2909 
Q 2706 3106 2706 3481 
Q 2706 3863 2507 4063 
Q 2309 4263 1925 4263 
Q 1547 4263 1347 4061 
Q 1147 3859 1147 3481 
z
" transform="scale(0.015625)"/>
       </defs>
       <use xlink:href="#Menlo-Regular-38"/>
       <use xlink:href="#Menlo-Regular-30" transform="translate(60.205078 0)"/>
      </g>
     </g>
    </g>
    <g id="ytick_6">
     <g id="line2d_12">
      <g>
       <use xlink:href="#m3630ffa155" x="45.48" y="14.94" style="fill: #1a1a1a; stroke: #1a1a1a"/>
      </g>
     </g>
     <g id="text_13">
      <!-- 100 -->
      <g style="fill: #1a1a1a" transform="translate(25.725156 18.371953) scale(0.09 -0.09)">
       <use xlink:href="#Menlo-Regular-31"/>
       <use xlink:href="#Menlo-Regular-30" transform="translate(60.205078 0)"/>
       <use xlink:href="#Menlo-Regular-30" transform="translate(120.410156 0)"/>
      </g>
     </g>
    </g>
    <g id="text_14">
     <!-- test accuracy (%) -->
     <g style="fill: #1a1a1a" transform="translate(19.645469 171.262656) rotate(-90) scale(0.1 -0.1)">
      <defs>
       <path id="Menlo-Regular-74" d="M 1919 4494 
L 1919 3500 
L 3225 3500 
L 3225 3053 
L 1919 3053 
L 1919 1153 
Q 1919 766 2066 612 
Q 2213 459 2578 459 
L 3225 459 
L 3225 0 
L 2522 0 
Q 1875 0 1609 259 
Q 1344 519 1344 1153 
L 1344 3053 
L 409 3053 
L 409 3500 
L 1344 3500 
L 1344 4494 
L 1919 4494 
z
" transform="scale(0.015625)"/>
       <path id="Menlo-Regular-73" d="M 3041 3378 
L 3041 2816 
Q 2794 2959 2544 3031 
Q 2294 3103 2034 3103 
Q 1644 3103 1451 2976 
Q 1259 2850 1259 2591 
Q 1259 2356 1403 2240 
Q 1547 2125 2119 2016 
L 2350 1972 
Q 2778 1891 2998 1647 
Q 3219 1403 3219 1013 
Q 3219 494 2850 201 
Q 2481 -91 1825 -91 
Q 1566 -91 1281 -36 
Q 997 19 666 128 
L 666 722 
Q 988 556 1281 473 
Q 1575 391 1838 391 
Q 2219 391 2428 545 
Q 2638 700 2638 978 
Q 2638 1378 1872 1531 
L 1847 1538 
L 1631 1581 
Q 1134 1678 906 1908 
Q 678 2138 678 2534 
Q 678 3038 1018 3311 
Q 1359 3584 1991 3584 
Q 2272 3584 2531 3532 
Q 2791 3481 3041 3378 
z
" transform="scale(0.015625)"/>
       <path id="Menlo-Regular-20" transform="scale(0.015625)"/>
       <path id="Menlo-Regular-61" d="M 2194 1759 
L 2003 1759 
Q 1500 1759 1245 1582 
Q 991 1406 991 1056 
Q 991 741 1181 566 
Q 1372 391 1709 391 
Q 2184 391 2456 720 
Q 2728 1050 2731 1631 
L 2731 1759 
L 2194 1759 
z
M 3309 1997 
L 3309 0 
L 2731 0 
L 2731 519 
Q 2547 206 2267 57 
Q 1988 -91 1588 -91 
Q 1053 -91 734 211 
Q 416 513 416 1019 
Q 416 1603 808 1906 
Q 1200 2209 1959 2209 
L 2731 2209 
L 2731 2300 
Q 2728 2719 2518 2908 
Q 2309 3097 1850 3097 
Q 1556 3097 1256 3012 
Q 956 2928 672 2766 
L 672 3341 
Q 991 3463 1283 3523 
Q 1575 3584 1850 3584 
Q 2284 3584 2592 3456 
Q 2900 3328 3091 3072 
Q 3209 2916 3259 2686 
Q 3309 2456 3309 1997 
z
" transform="scale(0.015625)"/>
       <path id="Menlo-Regular-75" d="M 609 1325 
L 609 3494 
L 1184 3494 
L 1184 1325 
Q 1184 853 1351 631 
Q 1519 409 1869 409 
Q 2275 409 2490 695 
Q 2706 981 2706 1516 
L 2706 3494 
L 3284 3494 
L 3284 0 
L 2706 0 
L 2706 525 
Q 2553 222 2289 65 
Q 2025 -91 1672 -91 
Q 1134 -91 871 261 
Q 609 613 609 1325 
z
" transform="scale(0.015625)"/>
       <path id="Menlo-Regular-72" d="M 3609 2778 
Q 3425 2922 3234 2987 
Q 3044 3053 2816 3053 
Q 2278 3053 1993 2715 
Q 1709 2378 1709 1741 
L 1709 0 
L 1131 0 
L 1131 3500 
L 1709 3500 
L 1709 2816 
Q 1853 3188 2151 3386 
Q 2450 3584 2859 3584 
Q 3072 3584 3256 3531 
Q 3441 3478 3609 3366 
L 3609 2778 
z
" transform="scale(0.015625)"/>
       <path id="Menlo-Regular-79" d="M 2681 1125 
Q 2538 759 2316 163 
Q 2006 -663 1900 -844 
Q 1756 -1088 1540 -1209 
Q 1325 -1331 1038 -1331 
L 575 -1331 
L 575 -850 
L 916 -850 
Q 1169 -850 1312 -703 
Q 1456 -556 1678 56 
L 325 3500 
L 934 3500 
L 1972 763 
L 2994 3500 
L 3603 3500 
L 2681 1125 
z
" transform="scale(0.015625)"/>
       <path id="Menlo-Regular-28" d="M 2672 5169 
Q 2256 4456 2051 3748 
Q 1847 3041 1847 2322 
Q 1847 1606 2051 897 
Q 2256 188 2672 -531 
L 2172 -531 
Q 1700 213 1469 917 
Q 1238 1622 1238 2322 
Q 1238 3019 1469 3725 
Q 1700 4431 2172 5169 
L 2672 5169 
z
" transform="scale(0.015625)"/>
       <path id="Menlo-Regular-25" d="M 2175 997 
Q 2175 753 2339 587 
Q 2503 422 2747 422 
Q 2988 422 3155 589 
Q 3322 756 3322 997 
Q 3322 1238 3153 1406 
Q 2984 1575 2747 1575 
Q 2503 1575 2339 1409 
Q 2175 1244 2175 997 
z
M 1753 997 
Q 1753 1419 2040 1708 
Q 2328 1997 2747 1997 
Q 2947 1997 3126 1922 
Q 3306 1847 3450 1703 
Q 3594 1556 3672 1375 
Q 3750 1194 3750 997 
Q 3750 581 3459 290 
Q 3169 0 2747 0 
Q 2322 0 2037 286 
Q 1753 572 1753 997 
z
M 259 1375 
L 122 1728 
L 3606 3122 
L 3763 2769 
L 259 1375 
z
M 525 3475 
Q 525 3228 689 3064 
Q 853 2900 1100 2900 
Q 1341 2900 1509 3067 
Q 1678 3234 1678 3475 
Q 1678 3716 1509 3883 
Q 1341 4050 1100 4050 
Q 859 4050 692 3884 
Q 525 3719 525 3475 
z
M 103 3475 
Q 103 3897 390 4186 
Q 678 4475 1100 4475 
Q 1300 4475 1483 4400 
Q 1666 4325 1806 4184 
Q 1947 4044 2023 3861 
Q 2100 3678 2100 3475 
Q 2100 3056 1809 2767 
Q 1519 2478 1100 2478 
Q 678 2478 390 2765 
Q 103 3053 103 3475 
z
" transform="scale(0.015625)"/>
       <path id="Menlo-Regular-29" d="M 1088 5169 
L 1588 5169 
Q 2059 4431 2290 3725 
Q 2522 3019 2522 2322 
Q 2522 1619 2290 912 
Q 2059 206 1588 -531 
L 1088 -531 
Q 1503 194 1708 903 
Q 1913 1613 1913 2322 
Q 1913 3034 1708 3743 
Q 1503 4453 1088 5169 
z
" transform="scale(0.015625)"/>
      </defs>
      <use xlink:href="#Menlo-Regular-74"/>
      <use xlink:href="#Menlo-Regular-65" transform="translate(60.205078 0)"/>
      <use xlink:href="#Menlo-Regular-73" transform="translate(120.410156 0)"/>
      <use xlink:href="#Menlo-Regular-74" transform="translate(180.615234 0)"/>
      <use xlink:href="#Menlo-Regular-20" transform="translate(240.820312 0)"/>
      <use xlink:href="#Menlo-Regular-61" transform="translate(301.025391 0)"/>
      <use xlink:href="#Menlo-Regular-63" transform="translate(361.230469 0)"/>
      <use xlink:href="#Menlo-Regular-63" transform="translate(421.435547 0)"/>
      <use xlink:href="#Menlo-Regular-75" transform="translate(481.640625 0)"/>
      <use xlink:href="#Menlo-Regular-72" transform="translate(541.845703 0)"/>
      <use xlink:href="#Menlo-Regular-61" transform="translate(602.050781 0)"/>
      <use xlink:href="#Menlo-Regular-63" transform="translate(662.255859 0)"/>
      <use xlink:href="#Menlo-Regular-79" transform="translate(722.460938 0)"/>
      <use xlink:href="#Menlo-Regular-20" transform="translate(782.666016 0)"/>
      <use xlink:href="#Menlo-Regular-28" transform="translate(842.871094 0)"/>
      <use xlink:href="#Menlo-Regular-25" transform="translate(903.076172 0)"/>
      <use xlink:href="#Menlo-Regular-29" transform="translate(963.28125 0)"/>
     </g>
    </g>
   </g>
   <g id="line2d_13">
    <path d="M 64.17 70.6695 
L 71.798571 45.4335 
L 79.427143 43.180286 
L 87.055714 39.1245 
L 94.684286 39.274714 
L 102.312857 36.871286 
L 109.941429 37.622357 
L 117.57 37.321929 
L 125.198571 36.420643 
L 132.827143 36.570857 
L 140.455714 36.871286 
L 148.084286 36.120214 
L 155.712857 35.519357 
L 163.341429 36.871286 
L 170.97 36.270429 
L 178.598571 36.120214 
L 186.227143 35.068714 
L 193.855714 36.721071 
L 201.484286 36.120214 
L 209.112857 37.472143 
L 216.741429 36.871286 
L 224.37 35.97 
L 231.998571 36.570857 
L 239.627143 36.721071 
L 247.255714 36.570857 
L 254.884286 37.171714 
L 262.512857 36.120214 
L 270.141429 36.570857 
L 277.77 36.120214 
L 285.398571 36.420643 
L 293.027143 35.068714 
L 300.655714 35.97 
L 308.284286 37.171714 
L 315.912857 36.570857 
L 323.541429 35.068714 
L 331.17 35.97 
L 338.798571 35.819786 
L 346.427143 36.420643 
L 354.055714 35.669571 
L 361.684286 34.467857 
L 369.312857 35.218929 
L 376.941429 35.068714 
L 384.57 35.669571 
L 392.198571 35.97 
L 399.827143 35.669571 
L 407.455714 35.669571 
L 415.084286 35.068714 
L 422.712857 35.218929 
L 430.341429 35.369143 
L 437.97 34.9185 
" clip-path="url(#p85d0e4384a)" style="fill: none; stroke-dasharray: 4.07,1.76; stroke-dashoffset: 0; stroke: #440154; stroke-opacity: 0.85; stroke-width: 1.1"/>
   </g>
   <g id="line2d_14">
    <path d="M 64.17 76.678071 
L 71.798571 45.4335 
L 79.427143 42.279 
L 87.055714 38.824071 
L 94.684286 38.673857 
L 102.312857 37.0215 
L 109.941429 38.223214 
L 117.57 37.171714 
L 125.198571 37.0215 
L 132.827143 36.270429 
L 140.455714 37.472143 
L 148.084286 36.570857 
L 155.712857 35.97 
L 163.341429 36.721071 
L 170.97 35.669571 
L 178.598571 35.819786 
L 186.227143 35.669571 
L 193.855714 36.721071 
L 201.484286 35.369143 
L 209.112857 36.871286 
L 216.741429 36.270429 
L 224.37 36.420643 
L 231.998571 36.120214 
L 239.627143 36.120214 
L 247.255714 37.0215 
L 254.884286 37.0215 
L 262.512857 36.120214 
L 270.141429 36.570857 
L 277.77 36.120214 
L 285.398571 37.171714 
L 293.027143 34.9185 
L 300.655714 35.819786 
L 308.284286 37.0215 
L 315.912857 36.420643 
L 323.541429 36.120214 
L 331.17 35.519357 
L 338.798571 35.97 
L 346.427143 36.270429 
L 354.055714 35.819786 
L 361.684286 34.618071 
L 369.312857 35.068714 
L 376.941429 35.669571 
L 384.57 35.519357 
L 392.198571 35.97 
L 399.827143 37.0215 
L 407.455714 35.669571 
L 415.084286 35.218929 
L 422.712857 35.369143 
L 430.341429 36.270429 
L 437.97 34.9185 
" clip-path="url(#p85d0e4384a)" style="fill: none; stroke-dasharray: 4.07,1.76; stroke-dashoffset: 0; stroke: #440154; stroke-opacity: 0.85; stroke-width: 1.1"/>
   </g>
   <g id="line2d_15">
    <path d="M 64.17 72.021429 
L 71.798571 45.733929 
L 79.427143 42.279 
L 87.055714 38.974286 
L 94.684286 38.824071 
L 102.312857 36.721071 
L 109.941429 36.871286 
L 117.57 37.0215 
L 125.198571 35.97 
L 132.827143 36.721071 
L 140.455714 37.0215 
L 148.084286 35.97 
L 155.712857 35.369143 
L 163.341429 36.721071 
L 170.97 35.97 
L 178.598571 35.669571 
L 186.227143 35.369143 
L 193.855714 36.270429 
L 201.484286 35.819786 
L 209.112857 36.721071 
L 216.741429 36.721071 
L 224.37 35.97 
L 231.998571 35.369143 
L 239.627143 36.120214 
L 247.255714 36.420643 
L 254.884286 35.819786 
L 262.512857 36.120214 
L 270.141429 36.420643 
L 277.77 36.270429 
L 285.398571 36.871286 
L 293.027143 35.218929 
L 300.655714 34.9185 
L 308.284286 36.871286 
L 315.912857 36.270429 
L 323.541429 34.9185 
L 331.17 36.420643 
L 338.798571 35.97 
L 346.427143 36.120214 
L 354.055714 35.068714 
L 361.684286 34.317643 
L 369.312857 35.369143 
L 376.941429 35.068714 
L 384.57 36.120214 
L 392.198571 35.819786 
L 399.827143 36.120214 
L 407.455714 35.519357 
L 415.084286 35.068714 
L 422.712857 35.068714 
L 430.341429 36.120214 
L 437.97 34.618071 
" clip-path="url(#p85d0e4384a)" style="fill: none; stroke-dasharray: 4.07,1.76; stroke-dashoffset: 0; stroke: #440154; stroke-opacity: 0.85; stroke-width: 1.1"/>
   </g>
   <g id="line2d_16">
    <path d="M 64.17 78.781071 
L 71.798571 62.557929 
L 79.427143 58.502143 
L 87.055714 54.897 
L 94.684286 53.695286 
L 102.312857 53.244643 
L 109.941429 53.695286 
L 117.57 53.545071 
L 125.198571 53.545071 
L 132.827143 53.094429 
L 140.455714 53.394857 
L 148.084286 52.944214 
L 155.712857 52.042929 
L 163.341429 51.141643 
L 170.97 51.592286 
L 178.598571 52.493571 
L 186.227143 51.592286 
L 193.855714 50.090143 
L 201.484286 49.939929 
L 209.112857 48.738214 
L 216.741429 49.339071 
L 224.37 49.939929 
L 231.998571 47.836929 
L 239.627143 48.738214 
L 247.255714 48.588 
L 254.884286 48.588 
L 262.512857 48.137357 
L 270.141429 49.038643 
L 277.77 48.888429 
L 285.398571 49.789714 
L 293.027143 49.038643 
L 300.655714 47.5365 
L 308.284286 48.437786 
L 315.912857 50.090143 
L 323.541429 49.038643 
L 331.17 47.686714 
L 338.798571 48.588 
L 346.427143 48.137357 
L 354.055714 47.686714 
L 361.684286 48.888429 
L 369.312857 46.635214 
L 376.941429 47.236071 
L 384.57 49.038643 
L 392.198571 47.085857 
L 399.827143 48.137357 
L 407.455714 47.686714 
L 415.084286 46.785429 
L 422.712857 46.635214 
L 430.341429 45.733929 
L 437.97 46.485 
" clip-path="url(#p85d0e4384a)" style="fill: none; stroke-dasharray: 4.07,1.76; stroke-dashoffset: 0; stroke: #414487; stroke-opacity: 0.85; stroke-width: 1.1"/>
   </g>
   <g id="line2d_17">
    <path d="M 64.17 85.3905 
L 71.798571 67.064357 
L 79.427143 59.703857 
L 87.055714 55.9485 
L 94.684286 54.296143 
L 102.312857 53.695286 
L 109.941429 54.296143 
L 117.57 52.042929 
L 125.198571 53.244643 
L 132.827143 54.145929 
L 140.455714 54.446357 
L 148.084286 52.193143 
L 155.712857 52.794 
L 163.341429 51.892714 
L 170.97 52.944214 
L 178.598571 52.193143 
L 186.227143 52.042929 
L 193.855714 51.141643 
L 201.484286 51.442071 
L 209.112857 48.738214 
L 216.741429 49.6395 
L 224.37 49.6395 
L 231.998571 48.137357 
L 239.627143 49.489286 
L 247.255714 48.137357 
L 254.884286 48.137357 
L 262.512857 47.386286 
L 270.141429 47.386286 
L 277.77 48.588 
L 285.398571 48.437786 
L 293.027143 48.437786 
L 300.655714 47.5365 
L 308.284286 47.836929 
L 315.912857 49.188857 
L 323.541429 48.588 
L 331.17 48.738214 
L 338.798571 47.836929 
L 346.427143 47.836929 
L 354.055714 47.5365 
L 361.684286 48.137357 
L 369.312857 46.635214 
L 376.941429 47.686714 
L 384.57 47.836929 
L 392.198571 47.236071 
L 399.827143 47.236071 
L 407.455714 46.184571 
L 415.084286 46.184571 
L 422.712857 46.485 
L 430.341429 45.884143 
L 437.97 46.034357 
" clip-path="url(#p85d0e4384a)" style="fill: none; stroke-dasharray: 4.07,1.76; stroke-dashoffset: 0; stroke: #414487; stroke-opacity: 0.85; stroke-width: 1.1"/>
   </g>
   <g id="line2d_18">
    <path d="M 64.17 70.969929 
L 71.798571 60.755357 
L 79.427143 58.351929 
L 87.055714 54.746786 
L 94.684286 53.695286 
L 102.312857 52.944214 
L 109.941429 53.695286 
L 117.57 53.394857 
L 125.198571 53.244643 
L 132.827143 53.394857 
L 140.455714 54.145929 
L 148.084286 52.643786 
L 155.712857 53.244643 
L 163.341429 51.442071 
L 170.97 51.7425 
L 178.598571 52.643786 
L 186.227143 51.442071 
L 193.855714 50.540786 
L 201.484286 50.841214 
L 209.112857 48.437786 
L 216.741429 49.6395 
L 224.37 48.738214 
L 231.998571 48.287571 
L 239.627143 48.888429 
L 247.255714 49.038643 
L 254.884286 48.588 
L 262.512857 48.437786 
L 270.141429 48.287571 
L 277.77 48.588 
L 285.398571 49.188857 
L 293.027143 48.738214 
L 300.655714 47.236071 
L 308.284286 48.137357 
L 315.912857 49.339071 
L 323.541429 49.188857 
L 331.17 47.686714 
L 338.798571 47.386286 
L 346.427143 48.437786 
L 354.055714 48.287571 
L 361.684286 47.5365 
L 369.312857 46.635214 
L 376.941429 46.635214 
L 384.57 47.836929 
L 392.198571 48.437786 
L 399.827143 47.5365 
L 407.455714 47.836929 
L 415.084286 47.686714 
L 422.712857 46.785429 
L 430.341429 46.935643 
L 437.97 47.085857 
" clip-path="url(#p85d0e4384a)" style="fill: none; stroke-dasharray: 4.07,1.76; stroke-dashoffset: 0; stroke: #414487; stroke-opacity: 0.85; stroke-width: 1.1"/>
   </g>
   <g id="line2d_19">
    <path d="M 64.17 89.896929 
L 71.798571 75.326143 
L 79.427143 72.321857 
L 87.055714 71.270357 
L 94.684286 70.369071 
L 102.312857 70.068643 
L 109.941429 72.171643 
L 117.57 71.120143 
L 125.198571 70.068643 
L 132.827143 70.969929 
L 140.455714 70.218857 
L 148.084286 69.918429 
L 155.712857 69.467786 
L 163.341429 68.5665 
L 170.97 67.815429 
L 178.598571 69.017143 
L 186.227143 67.364786 
L 193.855714 65.862643 
L 201.484286 66.763929 
L 209.112857 64.961357 
L 216.741429 66.012857 
L 224.37 67.364786 
L 231.998571 64.961357 
L 239.627143 63.008571 
L 247.255714 65.261786 
L 254.884286 64.510714 
L 262.512857 65.111571 
L 270.141429 63.909857 
L 277.77 64.811143 
L 285.398571 63.609429 
L 293.027143 63.309 
L 300.655714 64.660929 
L 308.284286 61.957071 
L 315.912857 62.2575 
L 323.541429 61.206 
L 331.17 63.008571 
L 338.798571 63.909857 
L 346.427143 61.656643 
L 354.055714 61.806857 
L 361.684286 63.459214 
L 369.312857 62.557929 
L 376.941429 61.806857 
L 384.57 63.909857 
L 392.198571 63.609429 
L 399.827143 64.060071 
L 407.455714 62.708143 
L 415.084286 63.158786 
L 422.712857 63.158786 
L 430.341429 61.957071 
L 437.97 63.609429 
" clip-path="url(#p85d0e4384a)" style="fill: none; stroke-dasharray: 4.07,1.76; stroke-dashoffset: 0; stroke: #2a788e; stroke-opacity: 0.85; stroke-width: 1.1"/>
   </g>
   <g id="line2d_20">
    <path d="M 64.17 90.197357 
L 71.798571 78.781071 
L 79.427143 75.476357 
L 87.055714 73.974214 
L 94.684286 73.673786 
L 102.312857 73.223143 
L 109.941429 74.124429 
L 117.57 69.317571 
L 125.198571 70.819714 
L 132.827143 71.420571 
L 140.455714 71.570786 
L 148.084286 71.420571 
L 155.712857 69.017143 
L 163.341429 68.5665 
L 170.97 69.017143 
L 178.598571 70.369071 
L 186.227143 67.515 
L 193.855714 66.763929 
L 201.484286 68.115857 
L 209.112857 65.712429 
L 216.741429 66.313286 
L 224.37 67.064357 
L 231.998571 67.515 
L 239.627143 64.811143 
L 247.255714 66.163071 
L 254.884286 66.313286 
L 262.512857 66.313286 
L 270.141429 64.210286 
L 277.77 64.660929 
L 285.398571 64.961357 
L 293.027143 64.510714 
L 300.655714 64.510714 
L 308.284286 63.459214 
L 315.912857 63.909857 
L 323.541429 63.158786 
L 331.17 63.609429 
L 338.798571 64.961357 
L 346.427143 63.609429 
L 354.055714 62.557929 
L 361.684286 63.309 
L 369.312857 63.309 
L 376.941429 62.708143 
L 384.57 64.660929 
L 392.198571 64.510714 
L 399.827143 63.459214 
L 407.455714 63.759643 
L 415.084286 62.407714 
L 422.712857 63.008571 
L 430.341429 62.858357 
L 437.97 62.708143 
" clip-path="url(#p85d0e4384a)" style="fill: none; stroke-dasharray: 4.07,1.76; stroke-dashoffset: 0; stroke: #2a788e; stroke-opacity: 0.85; stroke-width: 1.1"/>
   </g>
   <g id="line2d_21">
    <path d="M 64.17 87.343286 
L 71.798571 77.278929 
L 79.427143 71.270357 
L 87.055714 66.914143 
L 94.684286 68.266071 
L 102.312857 67.965643 
L 109.941429 69.768214 
L 117.57 67.665214 
L 125.198571 67.515 
L 132.827143 66.914143 
L 140.455714 68.115857 
L 148.084286 67.515 
L 155.712857 68.866929 
L 163.341429 66.4635 
L 170.97 66.613714 
L 178.598571 67.064357 
L 186.227143 69.167357 
L 193.855714 66.163071 
L 201.484286 67.064357 
L 209.112857 65.261786 
L 216.741429 66.313286 
L 224.37 66.012857 
L 231.998571 66.313286 
L 239.627143 65.862643 
L 247.255714 65.412 
L 254.884286 65.261786 
L 262.512857 64.510714 
L 270.141429 65.562214 
L 277.77 65.712429 
L 285.398571 64.811143 
L 293.027143 64.811143 
L 300.655714 64.210286 
L 308.284286 63.759643 
L 315.912857 64.811143 
L 323.541429 63.158786 
L 331.17 63.759643 
L 338.798571 63.759643 
L 346.427143 62.2575 
L 354.055714 63.459214 
L 361.684286 63.609429 
L 369.312857 61.806857 
L 376.941429 63.158786 
L 384.57 63.759643 
L 392.198571 63.008571 
L 399.827143 62.557929 
L 407.455714 63.158786 
L 415.084286 63.008571 
L 422.712857 63.759643 
L 430.341429 62.557929 
L 437.97 63.008571 
" clip-path="url(#p85d0e4384a)" style="fill: none; stroke-dasharray: 4.07,1.76; stroke-dashoffset: 0; stroke: #2a788e; stroke-opacity: 0.85; stroke-width: 1.1"/>
   </g>
   <g id="line2d_22">
    <path d="M 64.17 96.055714 
L 71.798571 87.643714 
L 79.427143 82.536429 
L 87.055714 80.283214 
L 94.684286 81.334714 
L 102.312857 78.781071 
L 109.941429 82.536429 
L 117.57 82.236 
L 125.198571 82.987071 
L 132.827143 80.583643 
L 140.455714 81.935571 
L 148.084286 81.334714 
L 155.712857 82.386214 
L 163.341429 84.038571 
L 170.97 81.334714 
L 178.598571 82.536429 
L 186.227143 82.085786 
L 193.855714 82.836857 
L 201.484286 82.987071 
L 209.112857 82.236 
L 216.741429 82.686643 
L 224.37 81.635143 
L 231.998571 82.836857 
L 239.627143 81.1845 
L 247.255714 83.587929 
L 254.884286 83.137286 
L 262.512857 84.489214 
L 270.141429 82.085786 
L 277.77 83.137286 
L 285.398571 82.836857 
L 293.027143 83.738143 
L 300.655714 82.836857 
L 308.284286 82.085786 
L 315.912857 82.386214 
L 323.541429 82.236 
L 331.17 82.536429 
L 338.798571 83.888357 
L 346.427143 83.888357 
L 354.055714 82.386214 
L 361.684286 84.339 
L 369.312857 82.236 
L 376.941429 82.085786 
L 384.57 82.536429 
L 392.198571 82.686643 
L 399.827143 83.137286 
L 407.455714 82.085786 
L 415.084286 83.2875 
L 422.712857 82.536429 
L 430.341429 82.836857 
L 437.97 81.334714 
" clip-path="url(#p85d0e4384a)" style="fill: none; stroke-dasharray: 4.07,1.76; stroke-dashoffset: 0; stroke: #22a884; stroke-opacity: 0.85; stroke-width: 1.1"/>
   </g>
   <g id="line2d_23">
    <path d="M 64.17 100.411929 
L 71.798571 85.3905 
L 79.427143 84.038571 
L 87.055714 82.536429 
L 94.684286 83.888357 
L 102.312857 82.987071 
L 109.941429 86.141571 
L 117.57 81.334714 
L 125.198571 82.536429 
L 132.827143 83.587929 
L 140.455714 85.090071 
L 148.084286 85.3905 
L 155.712857 83.2875 
L 163.341429 83.2875 
L 170.97 80.733857 
L 178.598571 84.038571 
L 186.227143 82.236 
L 193.855714 82.386214 
L 201.484286 82.386214 
L 209.112857 80.884071 
L 216.741429 82.536429 
L 224.37 81.935571 
L 231.998571 81.935571 
L 239.627143 82.236 
L 247.255714 82.836857 
L 254.884286 84.339 
L 262.512857 84.038571 
L 270.141429 84.188786 
L 277.77 83.738143 
L 285.398571 83.137286 
L 293.027143 83.437714 
L 300.655714 82.987071 
L 308.284286 81.785357 
L 315.912857 83.2875 
L 323.541429 82.987071 
L 331.17 84.939857 
L 338.798571 83.137286 
L 346.427143 83.437714 
L 354.055714 82.836857 
L 361.684286 83.137286 
L 369.312857 82.085786 
L 376.941429 83.437714 
L 384.57 81.935571 
L 392.198571 81.484929 
L 399.827143 84.038571 
L 407.455714 83.437714 
L 415.084286 83.2875 
L 422.712857 84.038571 
L 430.341429 83.137286 
L 437.97 83.587929 
" clip-path="url(#p85d0e4384a)" style="fill: none; stroke-dasharray: 4.07,1.76; stroke-dashoffset: 0; stroke: #22a884; stroke-opacity: 0.85; stroke-width: 1.1"/>
   </g>
   <g id="line2d_24">
    <path d="M 64.17 93.351857 
L 71.798571 80.583643 
L 79.427143 76.9785 
L 87.055714 76.678071 
L 94.684286 77.729571 
L 102.312857 81.034286 
L 109.941429 82.987071 
L 117.57 78.781071 
L 125.198571 80.884071 
L 132.827143 84.038571 
L 140.455714 83.888357 
L 148.084286 81.484929 
L 155.712857 83.437714 
L 163.341429 82.386214 
L 170.97 83.437714 
L 178.598571 84.339 
L 186.227143 83.888357 
L 193.855714 81.334714 
L 201.484286 83.2875 
L 209.112857 82.686643 
L 216.741429 83.2875 
L 224.37 82.686643 
L 231.998571 82.386214 
L 239.627143 82.836857 
L 247.255714 84.489214 
L 254.884286 83.888357 
L 262.512857 83.888357 
L 270.141429 81.034286 
L 277.77 81.484929 
L 285.398571 81.785357 
L 293.027143 80.583643 
L 300.655714 81.334714 
L 308.284286 81.034286 
L 315.912857 82.236 
L 323.541429 80.884071 
L 331.17 81.1845 
L 338.798571 80.884071 
L 346.427143 81.635143 
L 354.055714 81.635143 
L 361.684286 82.386214 
L 369.312857 81.334714 
L 376.941429 80.283214 
L 384.57 80.133 
L 392.198571 79.832571 
L 399.827143 82.085786 
L 407.455714 81.034286 
L 415.084286 79.682357 
L 422.712857 81.1845 
L 430.341429 82.386214 
L 437.97 82.686643 
" clip-path="url(#p85d0e4384a)" style="fill: none; stroke-dasharray: 4.07,1.76; stroke-dashoffset: 0; stroke: #22a884; stroke-opacity: 0.85; stroke-width: 1.1"/>
   </g>
   <g id="line2d_25">
    <path d="M 64.17 101.613643 
L 71.798571 92.300357 
L 79.427143 89.446286 
L 87.055714 86.742429 
L 94.684286 87.042857 
L 102.312857 89.296071 
L 109.941429 90.948429 
L 117.57 90.497786 
L 125.198571 90.197357 
L 132.827143 91.098643 
L 140.455714 89.896929 
L 148.084286 90.047143 
L 155.712857 91.248857 
L 163.341429 92.150143 
L 170.97 90.197357 
L 178.598571 91.399071 
L 186.227143 93.502071 
L 193.855714 93.502071 
L 201.484286 93.502071 
L 209.112857 91.999929 
L 216.741429 91.549286 
L 224.37 92.150143 
L 231.998571 93.8025 
L 239.627143 91.399071 
L 247.255714 94.102929 
L 254.884286 92.901214 
L 262.512857 94.553571 
L 270.141429 92.450571 
L 277.77 94.253143 
L 285.398571 95.004214 
L 293.027143 93.952714 
L 300.655714 93.8025 
L 308.284286 94.854 
L 315.912857 92.600786 
L 323.541429 92.150143 
L 331.17 93.652286 
L 338.798571 94.403357 
L 346.427143 93.652286 
L 354.055714 91.6995 
L 361.684286 91.999929 
L 369.312857 91.849714 
L 376.941429 93.351857 
L 384.57 92.751 
L 392.198571 91.248857 
L 399.827143 91.999929 
L 407.455714 92.300357 
L 415.084286 92.450571 
L 422.712857 91.6995 
L 430.341429 93.8025 
L 437.97 92.901214 
" clip-path="url(#p85d0e4384a)" style="fill: none; stroke-dasharray: 4.07,1.76; stroke-dashoffset: 0; stroke: #7ad151; stroke-opacity: 0.85; stroke-width: 1.1"/>
   </g>
   <g id="line2d_26">
    <path d="M 64.17 101.463429 
L 71.798571 89.896929 
L 79.427143 92.600786 
L 87.055714 91.6995 
L 94.684286 88.845429 
L 102.312857 87.793929 
L 109.941429 89.746714 
L 117.57 88.545 
L 125.198571 88.695214 
L 132.827143 88.545 
L 140.455714 90.648 
L 148.084286 89.5965 
L 155.712857 90.197357 
L 163.341429 87.4935 
L 170.97 88.394786 
L 178.598571 91.098643 
L 186.227143 91.248857 
L 193.855714 90.497786 
L 201.484286 90.948429 
L 209.112857 88.695214 
L 216.741429 92.450571 
L 224.37 90.497786 
L 231.998571 91.248857 
L 239.627143 92.901214 
L 247.255714 93.952714 
L 254.884286 93.051429 
L 262.512857 90.347571 
L 270.141429 90.648 
L 277.77 91.849714 
L 285.398571 91.849714 
L 293.027143 90.948429 
L 300.655714 91.849714 
L 308.284286 92.901214 
L 315.912857 93.8025 
L 323.541429 92.300357 
L 331.17 92.901214 
L 338.798571 93.351857 
L 346.427143 96.205929 
L 354.055714 94.253143 
L 361.684286 92.901214 
L 369.312857 93.502071 
L 376.941429 93.351857 
L 384.57 92.901214 
L 392.198571 90.798214 
L 399.827143 91.549286 
L 407.455714 90.497786 
L 415.084286 91.549286 
L 422.712857 90.648 
L 430.341429 88.244571 
L 437.97 89.145857 
" clip-path="url(#p85d0e4384a)" style="fill: none; stroke-dasharray: 4.07,1.76; stroke-dashoffset: 0; stroke: #7ad151; stroke-opacity: 0.85; stroke-width: 1.1"/>
   </g>
   <g id="line2d_27">
    <path d="M 64.17 100.562143 
L 71.798571 86.291786 
L 79.427143 89.746714 
L 87.055714 86.592214 
L 94.684286 88.394786 
L 102.312857 85.690929 
L 109.941429 91.549286 
L 117.57 89.145857 
L 125.198571 90.948429 
L 132.827143 89.896929 
L 140.455714 91.6995 
L 148.084286 90.347571 
L 155.712857 92.901214 
L 163.341429 91.999929 
L 170.97 93.652286 
L 178.598571 92.450571 
L 186.227143 95.755286 
L 193.855714 93.051429 
L 201.484286 93.652286 
L 209.112857 92.450571 
L 216.741429 93.952714 
L 224.37 93.652286 
L 231.998571 92.450571 
L 239.627143 91.549286 
L 247.255714 92.751 
L 254.884286 94.703786 
L 262.512857 94.403357 
L 270.141429 91.399071 
L 277.77 91.399071 
L 285.398571 92.450571 
L 293.027143 91.098643 
L 300.655714 92.600786 
L 308.284286 93.051429 
L 315.912857 90.798214 
L 323.541429 93.351857 
L 331.17 93.502071 
L 338.798571 94.403357 
L 346.427143 92.300357 
L 354.055714 91.248857 
L 361.684286 93.8025 
L 369.312857 91.849714 
L 376.941429 92.901214 
L 384.57 91.098643 
L 392.198571 91.999929 
L 399.827143 91.849714 
L 407.455714 92.600786 
L 415.084286 91.999929 
L 422.712857 91.098643 
L 430.341429 92.300357 
L 437.97 90.648 
" clip-path="url(#p85d0e4384a)" style="fill: none; stroke-dasharray: 4.07,1.76; stroke-dashoffset: 0; stroke: #7ad151; stroke-opacity: 0.85; stroke-width: 1.1"/>
   </g>
   <g id="line2d_28">
    <path d="M 64.17 108.072857 
L 71.798571 99.360429 
L 79.427143 102.2145 
L 87.055714 102.514929 
L 94.684286 101.313214 
L 102.312857 101.763857 
L 109.941429 105.068571 
L 117.57 102.364714 
L 125.198571 102.2145 
L 132.827143 103.716643 
L 140.455714 101.463429 
L 148.084286 100.1115 
L 155.712857 102.965571 
L 163.341429 102.665143 
L 170.97 101.763857 
L 178.598571 103.866857 
L 186.227143 103.866857 
L 193.855714 103.416214 
L 201.484286 104.017071 
L 209.112857 99.961286 
L 216.741429 103.866857 
L 224.37 104.768143 
L 231.998571 103.716643 
L 239.627143 102.965571 
L 247.255714 102.514929 
L 254.884286 105.218786 
L 262.512857 102.064286 
L 270.141429 102.064286 
L 277.77 104.017071 
L 285.398571 105.819643 
L 293.027143 104.467714 
L 300.655714 102.514929 
L 308.284286 103.416214 
L 315.912857 104.768143 
L 323.541429 102.665143 
L 331.17 103.716643 
L 338.798571 103.115786 
L 346.427143 102.064286 
L 354.055714 103.716643 
L 361.684286 102.064286 
L 369.312857 102.965571 
L 376.941429 104.017071 
L 384.57 104.918357 
L 392.198571 103.266 
L 399.827143 102.364714 
L 407.455714 102.2145 
L 415.084286 102.364714 
L 422.712857 101.163 
L 430.341429 101.914071 
L 437.97 101.763857 
" clip-path="url(#p85d0e4384a)" style="fill: none; stroke-dasharray: 4.07,1.76; stroke-dashoffset: 0; stroke: #fde725; stroke-opacity: 0.85; stroke-width: 1.1"/>
   </g>
   <g id="line2d_29">
    <path d="M 64.17 105.519214 
L 71.798571 99.660857 
L 79.427143 101.613643 
L 87.055714 102.364714 
L 94.684286 101.463429 
L 102.312857 103.115786 
L 109.941429 103.566429 
L 117.57 106.570714 
L 125.198571 103.416214 
L 132.827143 100.261714 
L 140.455714 101.463429 
L 148.084286 102.965571 
L 155.712857 104.467714 
L 163.341429 104.167286 
L 170.97 103.566429 
L 178.598571 103.866857 
L 186.227143 107.622214 
L 193.855714 103.866857 
L 201.484286 103.716643 
L 209.112857 100.712357 
L 216.741429 106.720929 
L 224.37 104.167286 
L 231.998571 105.369 
L 239.627143 105.519214 
L 247.255714 101.613643 
L 254.884286 103.866857 
L 262.512857 102.965571 
L 270.141429 103.416214 
L 277.77 104.768143 
L 285.398571 104.918357 
L 293.027143 103.115786 
L 300.655714 104.167286 
L 308.284286 104.3175 
L 315.912857 103.866857 
L 323.541429 102.965571 
L 331.17 104.3175 
L 338.798571 103.566429 
L 346.427143 104.918357 
L 354.055714 103.566429 
L 361.684286 102.364714 
L 369.312857 101.012786 
L 376.941429 101.012786 
L 384.57 101.313214 
L 392.198571 103.115786 
L 399.827143 103.866857 
L 407.455714 100.562143 
L 415.084286 102.965571 
L 422.712857 101.914071 
L 430.341429 102.064286 
L 437.97 101.613643 
" clip-path="url(#p85d0e4384a)" style="fill: none; stroke-dasharray: 4.07,1.76; stroke-dashoffset: 0; stroke: #fde725; stroke-opacity: 0.85; stroke-width: 1.1"/>
   </g>
   <g id="line2d_30">
    <path d="M 64.17 107.171571 
L 71.798571 100.261714 
L 79.427143 98.459143 
L 87.055714 97.257429 
L 94.684286 100.1115 
L 102.312857 102.514929 
L 109.941429 101.914071 
L 117.57 100.411929 
L 125.198571 102.815357 
L 132.827143 101.012786 
L 140.455714 103.266 
L 148.084286 102.064286 
L 155.712857 103.416214 
L 163.341429 102.815357 
L 170.97 102.064286 
L 178.598571 103.416214 
L 186.227143 104.167286 
L 193.855714 103.716643 
L 201.484286 104.617929 
L 209.112857 103.115786 
L 216.741429 104.617929 
L 224.37 103.866857 
L 231.998571 102.665143 
L 239.627143 104.017071 
L 247.255714 103.115786 
L 254.884286 104.3175 
L 262.512857 105.519214 
L 270.141429 105.669429 
L 277.77 102.514929 
L 285.398571 103.716643 
L 293.027143 103.266 
L 300.655714 102.665143 
L 308.284286 104.3175 
L 315.912857 102.815357 
L 323.541429 101.914071 
L 331.17 102.064286 
L 338.798571 101.613643 
L 346.427143 102.965571 
L 354.055714 102.364714 
L 361.684286 102.064286 
L 369.312857 102.665143 
L 376.941429 101.763857 
L 384.57 104.918357 
L 392.198571 102.514929 
L 399.827143 103.266 
L 407.455714 102.665143 
L 415.084286 103.566429 
L 422.712857 100.712357 
L 430.341429 101.613643 
L 437.97 104.467714 
" clip-path="url(#p85d0e4384a)" style="fill: none; stroke-dasharray: 4.07,1.76; stroke-dashoffset: 0; stroke: #fde725; stroke-opacity: 0.85; stroke-width: 1.1"/>
   </g>
   <g id="line2d_31">
    <path d="M 64.17 56.549357 
L 71.798571 44.682429 
L 79.427143 41.377714 
L 87.055714 40.326214 
L 94.684286 38.824071 
L 102.312857 38.373429 
L 109.941429 37.171714 
L 117.57 37.772571 
L 125.198571 38.673857 
L 132.827143 37.321929 
L 140.455714 36.721071 
L 148.084286 37.0215 
L 155.712857 36.270429 
L 163.341429 36.270429 
L 170.97 36.871286 
L 178.598571 36.721071 
L 186.227143 34.768286 
L 193.855714 36.721071 
L 201.484286 35.669571 
L 209.112857 35.519357 
L 216.741429 35.669571 
L 224.37 34.317643 
L 231.998571 35.519357 
L 239.627143 34.9185 
L 247.255714 35.218929 
L 254.884286 34.317643 
L 262.512857 33.716786 
L 270.141429 34.017214 
L 277.77 34.9185 
L 285.398571 33.716786 
L 293.027143 34.317643 
L 300.655714 32.965714 
L 308.284286 34.467857 
L 315.912857 34.167429 
L 323.541429 34.317643 
L 331.17 35.068714 
L 338.798571 35.218929 
L 346.427143 34.167429 
L 354.055714 34.167429 
L 361.684286 34.618071 
L 369.312857 33.416357 
L 376.941429 33.867 
L 384.57 34.317643 
L 392.198571 34.9185 
L 399.827143 34.167429 
L 407.455714 34.317643 
L 415.084286 35.218929 
L 422.712857 33.416357 
L 430.341429 33.115929 
L 437.97 33.867 
" clip-path="url(#p85d0e4384a)" style="fill: none; stroke: #440154; stroke-opacity: 0.85; stroke-width: 1.1; stroke-linejoin: miter"/>
   </g>
   <g id="line2d_32">
    <path d="M 64.17 59.553643 
L 71.798571 44.832643 
L 79.427143 41.077286 
L 87.055714 39.1245 
L 94.684286 37.772571 
L 102.312857 39.1245 
L 109.941429 37.622357 
L 117.57 38.373429 
L 125.198571 38.223214 
L 132.827143 38.523643 
L 140.455714 36.721071 
L 148.084286 36.570857 
L 155.712857 35.669571 
L 163.341429 35.97 
L 170.97 36.270429 
L 178.598571 37.321929 
L 186.227143 34.618071 
L 193.855714 34.9185 
L 201.484286 35.669571 
L 209.112857 35.369143 
L 216.741429 34.768286 
L 224.37 34.317643 
L 231.998571 34.317643 
L 239.627143 35.519357 
L 247.255714 34.317643 
L 254.884286 34.017214 
L 262.512857 33.266143 
L 270.141429 34.017214 
L 277.77 33.416357 
L 285.398571 33.416357 
L 293.027143 33.115929 
L 300.655714 32.665286 
L 308.284286 34.167429 
L 315.912857 34.317643 
L 323.541429 34.167429 
L 331.17 33.867 
L 338.798571 34.317643 
L 346.427143 34.467857 
L 354.055714 33.566571 
L 361.684286 34.317643 
L 369.312857 34.467857 
L 376.941429 34.467857 
L 384.57 34.9185 
L 392.198571 35.218929 
L 399.827143 34.9185 
L 407.455714 34.467857 
L 415.084286 34.618071 
L 422.712857 35.068714 
L 430.341429 34.017214 
L 437.97 33.566571 
" clip-path="url(#p85d0e4384a)" style="fill: none; stroke: #440154; stroke-opacity: 0.85; stroke-width: 1.1; stroke-linejoin: miter"/>
   </g>
   <g id="line2d_33">
    <path d="M 64.17 56.248929 
L 71.798571 45.583714 
L 79.427143 42.128786 
L 87.055714 38.824071 
L 94.684286 39.424929 
L 102.312857 38.373429 
L 109.941429 37.321929 
L 117.57 37.622357 
L 125.198571 37.0215 
L 132.827143 37.772571 
L 140.455714 37.772571 
L 148.084286 36.270429 
L 155.712857 36.420643 
L 163.341429 35.369143 
L 170.97 35.669571 
L 178.598571 35.97 
L 186.227143 35.369143 
L 193.855714 35.519357 
L 201.484286 34.467857 
L 209.112857 35.669571 
L 216.741429 35.218929 
L 224.37 36.270429 
L 231.998571 36.570857 
L 239.627143 33.716786 
L 247.255714 35.068714 
L 254.884286 32.364857 
L 262.512857 33.266143 
L 270.141429 33.867 
L 277.77 32.665286 
L 285.398571 33.266143 
L 293.027143 33.266143 
L 300.655714 34.467857 
L 308.284286 34.768286 
L 315.912857 34.467857 
L 323.541429 33.566571 
L 331.17 33.716786 
L 338.798571 35.218929 
L 346.427143 35.519357 
L 354.055714 33.867 
L 361.684286 34.768286 
L 369.312857 34.017214 
L 376.941429 34.017214 
L 384.57 35.819786 
L 392.198571 34.618071 
L 399.827143 34.618071 
L 407.455714 33.566571 
L 415.084286 35.218929 
L 422.712857 34.618071 
L 430.341429 34.167429 
L 437.97 33.716786 
" clip-path="url(#p85d0e4384a)" style="fill: none; stroke: #440154; stroke-opacity: 0.85; stroke-width: 1.1; stroke-linejoin: miter"/>
   </g>
   <g id="line2d_34">
    <path d="M 64.17 56.549357 
L 71.798571 44.682429 
L 79.427143 41.2275 
L 87.055714 40.176 
L 94.684286 39.424929 
L 102.312857 38.673857 
L 109.941429 38.523643 
L 117.57 37.0215 
L 125.198571 37.622357 
L 132.827143 38.073 
L 140.455714 36.120214 
L 148.084286 36.420643 
L 155.712857 37.622357 
L 163.341429 35.97 
L 170.97 37.772571 
L 178.598571 37.0215 
L 186.227143 35.519357 
L 193.855714 35.369143 
L 201.484286 35.819786 
L 209.112857 34.768286 
L 216.741429 36.420643 
L 224.37 35.819786 
L 231.998571 35.97 
L 239.627143 33.115929 
L 247.255714 34.768286 
L 254.884286 34.467857 
L 262.512857 33.867 
L 270.141429 34.317643 
L 277.77 34.167429 
L 285.398571 34.9185 
L 293.027143 34.017214 
L 300.655714 34.618071 
L 308.284286 34.167429 
L 315.912857 35.369143 
L 323.541429 34.9185 
L 331.17 34.467857 
L 338.798571 34.618071 
L 346.427143 34.167429 
L 354.055714 33.566571 
L 361.684286 33.416357 
L 369.312857 32.965714 
L 376.941429 33.867 
L 384.57 35.218929 
L 392.198571 34.467857 
L 399.827143 34.317643 
L 407.455714 35.369143 
L 415.084286 34.467857 
L 422.712857 34.017214 
L 430.341429 34.017214 
L 437.97 33.416357 
" clip-path="url(#p85d0e4384a)" style="fill: none; stroke: #414487; stroke-opacity: 0.85; stroke-width: 1.1; stroke-linejoin: miter"/>
   </g>
   <g id="line2d_35">
    <path d="M 64.17 59.553643 
L 71.798571 44.832643 
L 79.427143 41.077286 
L 87.055714 39.1245 
L 94.684286 37.772571 
L 102.312857 39.1245 
L 109.941429 37.622357 
L 117.57 38.223214 
L 125.198571 38.373429 
L 132.827143 38.373429 
L 140.455714 37.171714 
L 148.084286 35.519357 
L 155.712857 35.369143 
L 163.341429 36.721071 
L 170.97 34.9185 
L 178.598571 37.171714 
L 186.227143 34.618071 
L 193.855714 34.768286 
L 201.484286 36.570857 
L 209.112857 35.218929 
L 216.741429 35.97 
L 224.37 34.768286 
L 231.998571 34.768286 
L 239.627143 34.467857 
L 247.255714 34.317643 
L 254.884286 34.317643 
L 262.512857 34.618071 
L 270.141429 34.017214 
L 277.77 34.467857 
L 285.398571 33.266143 
L 293.027143 34.017214 
L 300.655714 32.8155 
L 308.284286 33.115929 
L 315.912857 34.467857 
L 323.541429 34.467857 
L 331.17 34.618071 
L 338.798571 33.716786 
L 346.427143 34.167429 
L 354.055714 33.115929 
L 361.684286 33.566571 
L 369.312857 33.566571 
L 376.941429 34.017214 
L 384.57 33.867 
L 392.198571 34.467857 
L 399.827143 34.167429 
L 407.455714 35.068714 
L 415.084286 35.669571 
L 422.712857 34.017214 
L 430.341429 35.519357 
L 437.97 34.167429 
" clip-path="url(#p85d0e4384a)" style="fill: none; stroke: #414487; stroke-opacity: 0.85; stroke-width: 1.1; stroke-linejoin: miter"/>
   </g>
   <g id="line2d_36">
    <path d="M 64.17 56.248929 
L 71.798571 45.583714 
L 79.427143 42.128786 
L 87.055714 38.824071 
L 94.684286 39.424929 
L 102.312857 38.824071 
L 109.941429 37.321929 
L 117.57 37.622357 
L 125.198571 37.321929 
L 132.827143 37.472143 
L 140.455714 37.922786 
L 148.084286 37.171714 
L 155.712857 36.270429 
L 163.341429 35.519357 
L 170.97 35.068714 
L 178.598571 36.721071 
L 186.227143 35.97 
L 193.855714 35.819786 
L 201.484286 35.519357 
L 209.112857 34.467857 
L 216.741429 36.871286 
L 224.37 35.97 
L 231.998571 34.768286 
L 239.627143 34.9185 
L 247.255714 35.218929 
L 254.884286 34.317643 
L 262.512857 33.416357 
L 270.141429 34.618071 
L 277.77 33.867 
L 285.398571 32.965714 
L 293.027143 32.665286 
L 300.655714 33.566571 
L 308.284286 33.716786 
L 315.912857 33.716786 
L 323.541429 32.515071 
L 331.17 33.867 
L 338.798571 34.017214 
L 346.427143 34.768286 
L 354.055714 33.115929 
L 361.684286 34.618071 
L 369.312857 33.867 
L 376.941429 32.515071 
L 384.57 33.867 
L 392.198571 35.068714 
L 399.827143 35.068714 
L 407.455714 33.416357 
L 415.084286 34.167429 
L 422.712857 34.317643 
L 430.341429 35.218929 
L 437.97 33.716786 
" clip-path="url(#p85d0e4384a)" style="fill: none; stroke: #414487; stroke-opacity: 0.85; stroke-width: 1.1; stroke-linejoin: miter"/>
   </g>
   <g id="line2d_37">
    <path d="M 64.17 55.197429 
L 71.798571 44.682429 
L 79.427143 41.2275 
L 87.055714 40.927071 
L 94.684286 38.673857 
L 102.312857 38.223214 
L 109.941429 37.772571 
L 117.57 37.772571 
L 125.198571 35.819786 
L 132.827143 37.772571 
L 140.455714 37.321929 
L 148.084286 37.171714 
L 155.712857 37.622357 
L 163.341429 36.270429 
L 170.97 37.321929 
L 178.598571 37.171714 
L 186.227143 35.97 
L 193.855714 37.622357 
L 201.484286 36.420643 
L 209.112857 35.97 
L 216.741429 36.871286 
L 224.37 38.073 
L 231.998571 38.073 
L 239.627143 36.570857 
L 247.255714 37.171714 
L 254.884286 37.321929 
L 262.512857 35.218929 
L 270.141429 37.0215 
L 277.77 34.9185 
L 285.398571 35.218929 
L 293.027143 34.467857 
L 300.655714 34.9185 
L 308.284286 34.618071 
L 315.912857 35.369143 
L 323.541429 34.9185 
L 331.17 33.566571 
L 338.798571 34.9185 
L 346.427143 34.017214 
L 354.055714 33.716786 
L 361.684286 34.017214 
L 369.312857 34.9185 
L 376.941429 34.618071 
L 384.57 34.768286 
L 392.198571 34.167429 
L 399.827143 34.768286 
L 407.455714 34.467857 
L 415.084286 35.519357 
L 422.712857 34.317643 
L 430.341429 33.115929 
L 437.97 32.364857 
" clip-path="url(#p85d0e4384a)" style="fill: none; stroke: #2a788e; stroke-opacity: 0.85; stroke-width: 1.1; stroke-linejoin: miter"/>
   </g>
   <g id="line2d_38">
    <path d="M 64.17 56.849786 
L 71.798571 45.583714 
L 79.427143 41.377714 
L 87.055714 40.326214 
L 94.684286 39.1245 
L 102.312857 38.673857 
L 109.941429 38.523643 
L 117.57 37.171714 
L 125.198571 37.171714 
L 132.827143 38.373429 
L 140.455714 37.922786 
L 148.084286 38.223214 
L 155.712857 37.472143 
L 163.341429 39.1245 
L 170.97 36.871286 
L 178.598571 37.622357 
L 186.227143 37.0215 
L 193.855714 37.622357 
L 201.484286 36.721071 
L 209.112857 34.9185 
L 216.741429 36.721071 
L 224.37 37.321929 
L 231.998571 38.073 
L 239.627143 35.97 
L 247.255714 36.420643 
L 254.884286 35.369143 
L 262.512857 34.9185 
L 270.141429 35.519357 
L 277.77 34.017214 
L 285.398571 35.369143 
L 293.027143 35.819786 
L 300.655714 33.416357 
L 308.284286 35.068714 
L 315.912857 35.369143 
L 323.541429 34.467857 
L 331.17 34.317643 
L 338.798571 34.768286 
L 346.427143 34.618071 
L 354.055714 34.618071 
L 361.684286 35.068714 
L 369.312857 34.9185 
L 376.941429 33.716786 
L 384.57 33.867 
L 392.198571 33.867 
L 399.827143 33.867 
L 407.455714 35.218929 
L 415.084286 33.867 
L 422.712857 32.8155 
L 430.341429 34.017214 
L 437.97 32.665286 
" clip-path="url(#p85d0e4384a)" style="fill: none; stroke: #2a788e; stroke-opacity: 0.85; stroke-width: 1.1; stroke-linejoin: miter"/>
   </g>
   <g id="line2d_39">
    <path d="M 64.17 56.248929 
L 71.798571 45.283286 
L 79.427143 42.279 
L 87.055714 40.326214 
L 94.684286 38.073 
L 102.312857 38.974286 
L 109.941429 37.922786 
L 117.57 37.772571 
L 125.198571 36.270429 
L 132.827143 37.171714 
L 140.455714 37.0215 
L 148.084286 37.321929 
L 155.712857 36.570857 
L 163.341429 37.922786 
L 170.97 36.721071 
L 178.598571 36.721071 
L 186.227143 35.97 
L 193.855714 36.721071 
L 201.484286 35.97 
L 209.112857 36.270429 
L 216.741429 36.570857 
L 224.37 36.270429 
L 231.998571 36.420643 
L 239.627143 35.519357 
L 247.255714 35.97 
L 254.884286 35.819786 
L 262.512857 35.068714 
L 270.141429 35.068714 
L 277.77 33.566571 
L 285.398571 35.068714 
L 293.027143 34.618071 
L 300.655714 34.618071 
L 308.284286 35.218929 
L 315.912857 35.519357 
L 323.541429 35.218929 
L 331.17 34.317643 
L 338.798571 35.669571 
L 346.427143 35.669571 
L 354.055714 33.867 
L 361.684286 34.317643 
L 369.312857 33.867 
L 376.941429 33.716786 
L 384.57 33.266143 
L 392.198571 33.867 
L 399.827143 34.317643 
L 407.455714 34.317643 
L 415.084286 34.167429 
L 422.712857 34.467857 
L 430.341429 33.115929 
L 437.97 32.965714 
" clip-path="url(#p85d0e4384a)" style="fill: none; stroke: #2a788e; stroke-opacity: 0.85; stroke-width: 1.1; stroke-linejoin: miter"/>
   </g>
   <g id="line2d_40">
    <path d="M 64.17 55.347643 
L 71.798571 46.184571 
L 79.427143 42.729643 
L 87.055714 40.927071 
L 94.684286 40.626643 
L 102.312857 40.626643 
L 109.941429 39.725357 
L 117.57 38.974286 
L 125.198571 38.824071 
L 132.827143 39.274714 
L 140.455714 37.772571 
L 148.084286 38.523643 
L 155.712857 37.922786 
L 163.341429 37.922786 
L 170.97 38.073 
L 178.598571 38.824071 
L 186.227143 37.472143 
L 193.855714 37.321929 
L 201.484286 37.772571 
L 209.112857 37.0215 
L 216.741429 37.171714 
L 224.37 37.772571 
L 231.998571 36.420643 
L 239.627143 37.622357 
L 247.255714 37.622357 
L 254.884286 35.819786 
L 262.512857 36.120214 
L 270.141429 36.721071 
L 277.77 35.669571 
L 285.398571 37.171714 
L 293.027143 36.871286 
L 300.655714 37.472143 
L 308.284286 36.721071 
L 315.912857 36.270429 
L 323.541429 35.669571 
L 331.17 36.420643 
L 338.798571 37.321929 
L 346.427143 36.570857 
L 354.055714 36.871286 
L 361.684286 36.871286 
L 369.312857 37.0215 
L 376.941429 36.721071 
L 384.57 36.570857 
L 392.198571 36.120214 
L 399.827143 36.871286 
L 407.455714 36.721071 
L 415.084286 36.420643 
L 422.712857 35.819786 
L 430.341429 36.721071 
L 437.97 36.120214 
" clip-path="url(#p85d0e4384a)" style="fill: none; stroke: #22a884; stroke-opacity: 0.85; stroke-width: 1.1; stroke-linejoin: miter"/>
   </g>
   <g id="line2d_41">
    <path d="M 64.17 54.446357 
L 71.798571 46.635214 
L 79.427143 42.429214 
L 87.055714 40.176 
L 94.684286 40.476429 
L 102.312857 39.424929 
L 109.941429 38.824071 
L 117.57 38.523643 
L 125.198571 38.673857 
L 132.827143 40.176 
L 140.455714 38.824071 
L 148.084286 38.673857 
L 155.712857 38.824071 
L 163.341429 37.472143 
L 170.97 38.523643 
L 178.598571 37.622357 
L 186.227143 37.922786 
L 193.855714 37.772571 
L 201.484286 38.373429 
L 209.112857 38.373429 
L 216.741429 37.622357 
L 224.37 37.772571 
L 231.998571 37.171714 
L 239.627143 37.772571 
L 247.255714 38.373429 
L 254.884286 36.570857 
L 262.512857 37.171714 
L 270.141429 36.721071 
L 277.77 37.321929 
L 285.398571 37.171714 
L 293.027143 37.622357 
L 300.655714 36.420643 
L 308.284286 36.570857 
L 315.912857 37.171714 
L 323.541429 36.570857 
L 331.17 36.570857 
L 338.798571 37.772571 
L 346.427143 36.120214 
L 354.055714 36.871286 
L 361.684286 36.420643 
L 369.312857 36.120214 
L 376.941429 35.97 
L 384.57 36.270429 
L 392.198571 35.519357 
L 399.827143 35.669571 
L 407.455714 35.669571 
L 415.084286 37.171714 
L 422.712857 35.369143 
L 430.341429 35.819786 
L 437.97 35.519357 
" clip-path="url(#p85d0e4384a)" style="fill: none; stroke: #22a884; stroke-opacity: 0.85; stroke-width: 1.1; stroke-linejoin: miter"/>
   </g>
   <g id="line2d_42">
    <path d="M 64.17 53.995714 
L 71.798571 46.334786 
L 79.427143 43.480714 
L 87.055714 40.927071 
L 94.684286 41.377714 
L 102.312857 40.626643 
L 109.941429 40.326214 
L 117.57 40.326214 
L 125.198571 40.326214 
L 132.827143 38.974286 
L 140.455714 38.824071 
L 148.084286 37.922786 
L 155.712857 38.373429 
L 163.341429 37.622357 
L 170.97 37.922786 
L 178.598571 37.622357 
L 186.227143 36.570857 
L 193.855714 37.0215 
L 201.484286 37.472143 
L 209.112857 37.0215 
L 216.741429 36.570857 
L 224.37 37.0215 
L 231.998571 35.819786 
L 239.627143 37.0215 
L 247.255714 37.0215 
L 254.884286 35.669571 
L 262.512857 36.270429 
L 270.141429 35.218929 
L 277.77 36.270429 
L 285.398571 34.768286 
L 293.027143 36.721071 
L 300.655714 36.270429 
L 308.284286 36.270429 
L 315.912857 36.270429 
L 323.541429 36.570857 
L 331.17 35.97 
L 338.798571 37.321929 
L 346.427143 35.97 
L 354.055714 36.871286 
L 361.684286 36.871286 
L 369.312857 36.570857 
L 376.941429 36.420643 
L 384.57 35.369143 
L 392.198571 35.369143 
L 399.827143 36.270429 
L 407.455714 35.819786 
L 415.084286 37.0215 
L 422.712857 35.819786 
L 430.341429 36.270429 
L 437.97 35.369143 
" clip-path="url(#p85d0e4384a)" style="fill: none; stroke: #22a884; stroke-opacity: 0.85; stroke-width: 1.1; stroke-linejoin: miter"/>
   </g>
   <g id="line2d_43">
    <path d="M 64.17 57.450643 
L 71.798571 51.442071 
L 79.427143 45.884143 
L 87.055714 45.283286 
L 94.684286 44.231786 
L 102.312857 42.579429 
L 109.941429 44.532214 
L 117.57 43.180286 
L 125.198571 43.030071 
L 132.827143 41.678143 
L 140.455714 40.476429 
L 148.084286 41.527929 
L 155.712857 42.579429 
L 163.341429 40.776857 
L 170.97 41.377714 
L 178.598571 42.579429 
L 186.227143 41.828357 
L 193.855714 42.879857 
L 201.484286 41.077286 
L 209.112857 40.476429 
L 216.741429 41.077286 
L 224.37 40.326214 
L 231.998571 41.527929 
L 239.627143 41.527929 
L 247.255714 41.828357 
L 254.884286 41.978571 
L 262.512857 41.527929 
L 270.141429 41.828357 
L 277.77 42.128786 
L 285.398571 41.377714 
L 293.027143 41.828357 
L 300.655714 41.678143 
L 308.284286 41.527929 
L 315.912857 41.828357 
L 323.541429 42.429214 
L 331.17 41.978571 
L 338.798571 42.279 
L 346.427143 40.776857 
L 354.055714 40.326214 
L 361.684286 40.476429 
L 369.312857 41.678143 
L 376.941429 41.678143 
L 384.57 42.279 
L 392.198571 40.626643 
L 399.827143 40.176 
L 407.455714 41.2275 
L 415.084286 41.377714 
L 422.712857 40.626643 
L 430.341429 40.476429 
L 437.97 41.678143 
" clip-path="url(#p85d0e4384a)" style="fill: none; stroke: #7ad151; stroke-opacity: 0.85; stroke-width: 1.1; stroke-linejoin: miter"/>
   </g>
   <g id="line2d_44">
    <path d="M 64.17 58.952786 
L 71.798571 48.888429 
L 79.427143 46.034357 
L 87.055714 44.231786 
L 94.684286 44.081571 
L 102.312857 43.030071 
L 109.941429 43.931357 
L 117.57 43.030071 
L 125.198571 43.030071 
L 132.827143 43.781143 
L 140.455714 42.279 
L 148.084286 43.030071 
L 155.712857 41.2275 
L 163.341429 41.2275 
L 170.97 43.180286 
L 178.598571 43.030071 
L 186.227143 42.279 
L 193.855714 42.729643 
L 201.484286 41.2275 
L 209.112857 42.429214 
L 216.741429 43.180286 
L 224.37 41.077286 
L 231.998571 41.978571 
L 239.627143 39.875571 
L 247.255714 42.128786 
L 254.884286 42.128786 
L 262.512857 41.077286 
L 270.141429 41.678143 
L 277.77 40.476429 
L 285.398571 41.527929 
L 293.027143 41.2275 
L 300.655714 41.678143 
L 308.284286 41.077286 
L 315.912857 42.279 
L 323.541429 41.678143 
L 331.17 41.828357 
L 338.798571 42.729643 
L 346.427143 41.828357 
L 354.055714 41.828357 
L 361.684286 41.377714 
L 369.312857 42.879857 
L 376.941429 42.879857 
L 384.57 41.377714 
L 392.198571 41.377714 
L 399.827143 41.828357 
L 407.455714 41.678143 
L 415.084286 41.377714 
L 422.712857 41.527929 
L 430.341429 41.828357 
L 437.97 42.128786 
" clip-path="url(#p85d0e4384a)" style="fill: none; stroke: #7ad151; stroke-opacity: 0.85; stroke-width: 1.1; stroke-linejoin: miter"/>
   </g>
   <g id="line2d_45">
    <path d="M 64.17 56.849786 
L 71.798571 50.991429 
L 79.427143 47.386286 
L 87.055714 45.884143 
L 94.684286 42.879857 
L 102.312857 43.630929 
L 109.941429 43.480714 
L 117.57 43.030071 
L 125.198571 42.429214 
L 132.827143 43.180286 
L 140.455714 40.776857 
L 148.084286 41.828357 
L 155.712857 43.180286 
L 163.341429 43.030071 
L 170.97 42.429214 
L 178.598571 43.180286 
L 186.227143 41.678143 
L 193.855714 42.729643 
L 201.484286 42.729643 
L 209.112857 42.279 
L 216.741429 42.729643 
L 224.37 42.279 
L 231.998571 41.377714 
L 239.627143 40.326214 
L 247.255714 41.978571 
L 254.884286 40.927071 
L 262.512857 40.927071 
L 270.141429 41.527929 
L 277.77 41.828357 
L 285.398571 42.279 
L 293.027143 42.128786 
L 300.655714 42.429214 
L 308.284286 41.077286 
L 315.912857 41.828357 
L 323.541429 43.3305 
L 331.17 42.429214 
L 338.798571 42.729643 
L 346.427143 40.927071 
L 354.055714 40.476429 
L 361.684286 41.527929 
L 369.312857 42.429214 
L 376.941429 41.678143 
L 384.57 41.2275 
L 392.198571 41.2275 
L 399.827143 41.828357 
L 407.455714 43.030071 
L 415.084286 43.180286 
L 422.712857 41.527929 
L 430.341429 42.429214 
L 437.97 41.978571 
" clip-path="url(#p85d0e4384a)" style="fill: none; stroke: #7ad151; stroke-opacity: 0.85; stroke-width: 1.1; stroke-linejoin: miter"/>
   </g>
   <g id="line2d_46">
    <path d="M 64.17 60.454929 
L 71.798571 50.991429 
L 79.427143 48.588 
L 87.055714 48.738214 
L 94.684286 47.236071 
L 102.312857 45.884143 
L 109.941429 47.5365 
L 117.57 48.137357 
L 125.198571 46.034357 
L 132.827143 46.935643 
L 140.455714 46.184571 
L 148.084286 47.236071 
L 155.712857 45.733929 
L 163.341429 48.137357 
L 170.97 45.133071 
L 178.598571 47.236071 
L 186.227143 47.085857 
L 193.855714 47.386286 
L 201.484286 46.034357 
L 209.112857 46.785429 
L 216.741429 46.334786 
L 224.37 45.884143 
L 231.998571 47.836929 
L 239.627143 47.386286 
L 247.255714 45.733929 
L 254.884286 45.733929 
L 262.512857 46.034357 
L 270.141429 44.982857 
L 277.77 44.982857 
L 285.398571 46.785429 
L 293.027143 46.184571 
L 300.655714 46.334786 
L 308.284286 47.987143 
L 315.912857 46.334786 
L 323.541429 45.733929 
L 331.17 46.635214 
L 338.798571 48.588 
L 346.427143 46.334786 
L 354.055714 46.184571 
L 361.684286 45.283286 
L 369.312857 46.334786 
L 376.941429 45.884143 
L 384.57 45.133071 
L 392.198571 45.4335 
L 399.827143 45.283286 
L 407.455714 46.485 
L 415.084286 46.184571 
L 422.712857 44.982857 
L 430.341429 44.682429 
L 437.97 44.231786 
" clip-path="url(#p85d0e4384a)" style="fill: none; stroke: #fde725; stroke-opacity: 0.85; stroke-width: 1.1; stroke-linejoin: miter"/>
   </g>
   <g id="line2d_47">
    <path d="M 64.17 60.605143 
L 71.798571 51.7425 
L 79.427143 47.836929 
L 87.055714 46.785429 
L 94.684286 46.334786 
L 102.312857 45.733929 
L 109.941429 44.832643 
L 117.57 46.034357 
L 125.198571 44.832643 
L 132.827143 46.485 
L 140.455714 45.583714 
L 148.084286 44.982857 
L 155.712857 46.034357 
L 163.341429 46.184571 
L 170.97 45.4335 
L 178.598571 44.231786 
L 186.227143 45.283286 
L 193.855714 45.133071 
L 201.484286 45.583714 
L 209.112857 46.935643 
L 216.741429 45.583714 
L 224.37 44.982857 
L 231.998571 46.334786 
L 239.627143 46.034357 
L 247.255714 46.184571 
L 254.884286 44.532214 
L 262.512857 43.180286 
L 270.141429 44.081571 
L 277.77 43.931357 
L 285.398571 44.081571 
L 293.027143 43.630929 
L 300.655714 44.682429 
L 308.284286 43.480714 
L 315.912857 44.532214 
L 323.541429 46.184571 
L 331.17 45.733929 
L 338.798571 44.832643 
L 346.427143 45.283286 
L 354.055714 44.231786 
L 361.684286 44.382 
L 369.312857 44.682429 
L 376.941429 44.982857 
L 384.57 44.532214 
L 392.198571 43.180286 
L 399.827143 43.931357 
L 407.455714 44.532214 
L 415.084286 43.931357 
L 422.712857 43.630929 
L 430.341429 45.4335 
L 437.97 43.3305 
" clip-path="url(#p85d0e4384a)" style="fill: none; stroke: #fde725; stroke-opacity: 0.85; stroke-width: 1.1; stroke-linejoin: miter"/>
   </g>
   <g id="line2d_48">
    <path d="M 64.17 58.201714 
L 71.798571 50.841214 
L 79.427143 50.691 
L 87.055714 50.540786 
L 94.684286 46.935643 
L 102.312857 45.884143 
L 109.941429 47.987143 
L 117.57 46.485 
L 125.198571 46.635214 
L 132.827143 47.085857 
L 140.455714 46.034357 
L 148.084286 44.081571 
L 155.712857 44.382 
L 163.341429 45.884143 
L 170.97 45.884143 
L 178.598571 46.935643 
L 186.227143 44.982857 
L 193.855714 45.884143 
L 201.484286 46.785429 
L 209.112857 46.334786 
L 216.741429 44.832643 
L 224.37 46.334786 
L 231.998571 44.382 
L 239.627143 43.3305 
L 247.255714 44.231786 
L 254.884286 44.081571 
L 262.512857 45.884143 
L 270.141429 44.982857 
L 277.77 46.334786 
L 285.398571 45.884143 
L 293.027143 45.133071 
L 300.655714 45.133071 
L 308.284286 45.4335 
L 315.912857 44.382 
L 323.541429 44.682429 
L 331.17 43.630929 
L 338.798571 45.583714 
L 346.427143 45.133071 
L 354.055714 42.879857 
L 361.684286 44.682429 
L 369.312857 45.4335 
L 376.941429 45.283286 
L 384.57 44.832643 
L 392.198571 45.884143 
L 399.827143 44.081571 
L 407.455714 45.733929 
L 415.084286 45.583714 
L 422.712857 44.682429 
L 430.341429 45.133071 
L 437.97 44.231786 
" clip-path="url(#p85d0e4384a)" style="fill: none; stroke: #fde725; stroke-opacity: 0.85; stroke-width: 1.1; stroke-linejoin: miter"/>
   </g>
   <g id="patch_3">
    <path d="M 45.48 225.24 
L 45.48 14.94 
" style="fill: none; stroke: #1a1a1a; stroke-width: 1.4; stroke-linejoin: miter; stroke-linecap: square"/>
   </g>
   <g id="patch_4">
    <path d="M 45.48 225.24 
L 456.66 225.24 
" style="fill: none; stroke: #1a1a1a; stroke-width: 1.4; stroke-linejoin: miter; stroke-linecap: square"/>
   </g>
   <g id="legend_1">
    <g id="text_15">
     <!-- swept value -->
     <g transform="translate(362.437852 174.349453) scale(0.105 -0.105)">
      <defs>
       <path id="Menlo-Regular-77" d="M 0 3500 
L 569 3500 
L 1178 672 
L 1678 2478 
L 2169 2478 
L 2675 672 
L 3284 3500 
L 3853 3500 
L 3034 0 
L 2484 0 
L 1925 1919 
L 1369 0 
L 819 0 
L 0 3500 
z
" transform="scale(0.015625)"/>
       <path id="Menlo-Regular-76" d="M 313 3500 
L 909 3500 
L 1925 563 
L 2944 3500 
L 3541 3500 
L 2297 0 
L 1556 0 
L 313 3500 
z
" transform="scale(0.015625)"/>
       <path id="Menlo-Regular-6c" d="M 2247 1266 
Q 2247 878 2389 681 
Q 2531 484 2809 484 
L 3481 484 
L 3481 0 
L 2753 0 
Q 2238 0 1955 329 
Q 1672 659 1672 1266 
L 1672 4431 
L 750 4431 
L 750 4881 
L 2247 4881 
L 2247 1266 
z
" transform="scale(0.015625)"/>
      </defs>
      <use xlink:href="#Menlo-Regular-73"/>
      <use xlink:href="#Menlo-Regular-77" transform="translate(60.205078 0)"/>
      <use xlink:href="#Menlo-Regular-65" transform="translate(120.410156 0)"/>
      <use xlink:href="#Menlo-Regular-70" transform="translate(180.615234 0)"/>
      <use xlink:href="#Menlo-Regular-74" transform="translate(240.820312 0)"/>
      <use xlink:href="#Menlo-Regular-20" transform="translate(301.025391 0)"/>
      <use xlink:href="#Menlo-Regular-76" transform="translate(361.230469 0)"/>
      <use xlink:href="#Menlo-Regular-61" transform="translate(421.435547 0)"/>
      <use xlink:href="#Menlo-Regular-6c" transform="translate(481.640625 0)"/>
      <use xlink:href="#Menlo-Regular-75" transform="translate(541.845703 0)"/>
      <use xlink:href="#Menlo-Regular-65" transform="translate(602.050781 0)"/>
     </g>
    </g>
    <g id="line2d_49">
     <path d="M 346.750312 184.747031 
L 355.750312 184.747031 
L 364.750312 184.747031 
" style="fill: none; stroke: #440154; stroke-width: 2.4; stroke-linejoin: miter"/>
    </g>
    <g id="text_16">
     <!-- off -->
     <g style="fill: #1a1a1a" transform="translate(371.950312 187.897031) scale(0.09 -0.09)">
      <defs>
       <path id="Menlo-Regular-66" d="M 3322 4863 
L 3322 4384 
L 2669 4384 
Q 2359 4384 2239 4257 
Q 2119 4131 2119 3809 
L 2119 3500 
L 3322 3500 
L 3322 3053 
L 2119 3053 
L 2119 0 
L 1544 0 
L 1544 3053 
L 609 3053 
L 609 3500 
L 1544 3500 
L 1544 3744 
Q 1544 4319 1808 4591 
Q 2072 4863 2631 4863 
L 3322 4863 
z
" transform="scale(0.015625)"/>
      </defs>
      <use xlink:href="#Menlo-Regular-6f"/>
      <use xlink:href="#Menlo-Regular-66" transform="translate(60.205078 0)"/>
      <use xlink:href="#Menlo-Regular-66" transform="translate(120.410156 0)"/>
     </g>
    </g>
    <g id="line2d_50">
     <path d="M 346.750312 197.982656 
L 355.750312 197.982656 
L 364.750312 197.982656 
" style="fill: none; stroke: #414487; stroke-width: 2.4; stroke-linejoin: miter"/>
    </g>
    <g id="text_17">
     <!-- 5 -->
     <g style="fill: #1a1a1a" transform="translate(371.950312 201.132656) scale(0.09 -0.09)">
      <use xlink:href="#Menlo-Regular-35"/>
     </g>
    </g>
    <g id="line2d_51">
     <path d="M 346.750312 211.218281 
L 355.750312 211.218281 
L 364.750312 211.218281 
" style="fill: none; stroke: #2a788e; stroke-width: 2.4; stroke-linejoin: miter"/>
    </g>
    <g id="text_18">
     <!-- 2 -->
     <g style="fill: #1a1a1a" transform="translate(371.950312 214.368281) scale(0.09 -0.09)">
      <use xlink:href="#Menlo-Regular-32"/>
     </g>
    </g>
    <g id="line2d_52">
     <path d="M 406.205156 184.747031 
L 415.205156 184.747031 
L 424.205156 184.747031 
" style="fill: none; stroke: #22a884; stroke-width: 2.4; stroke-linejoin: miter"/>
    </g>
    <g id="text_19">
     <!-- 1 -->
     <g style="fill: #1a1a1a" transform="translate(431.405156 187.897031) scale(0.09 -0.09)">
      <use xlink:href="#Menlo-Regular-31"/>
     </g>
    </g>
    <g id="line2d_53">
     <path d="M 406.205156 197.982656 
L 415.205156 197.982656 
L 424.205156 197.982656 
" style="fill: none; stroke: #7ad151; stroke-width: 2.4; stroke-linejoin: miter"/>
    </g>
    <g id="text_20">
     <!-- 0.5 -->
     <g style="fill: #1a1a1a" transform="translate(431.405156 201.132656) scale(0.09 -0.09)">
      <defs>
       <path id="Menlo-Regular-2e" d="M 1216 1263 
L 2316 1263 
L 2316 0 
L 1216 0 
L 1216 1263 
z
" transform="scale(0.015625)"/>
      </defs>
      <use xlink:href="#Menlo-Regular-30"/>
      <use xlink:href="#Menlo-Regular-2e" transform="translate(60.205078 0)"/>
      <use xlink:href="#Menlo-Regular-35" transform="translate(120.410156 0)"/>
     </g>
    </g>
    <g id="line2d_54">
     <path d="M 406.205156 211.218281 
L 415.205156 211.218281 
L 424.205156 211.218281 
" style="fill: none; stroke: #fde725; stroke-width: 2.4; stroke-linejoin: miter"/>
    </g>
    <g id="text_21">
     <!-- 0.2 -->
     <g style="fill: #1a1a1a" transform="translate(431.405156 214.368281) scale(0.09 -0.09)">
      <use xlink:href="#Menlo-Regular-30"/>
      <use xlink:href="#Menlo-Regular-2e" transform="translate(60.205078 0)"/>
      <use xlink:href="#Menlo-Regular-32" transform="translate(120.410156 0)"/>
     </g>
    </g>
   </g>
   <g id="legend_2">
    <g id="text_22">
     <!-- model -->
     <g transform="translate(235.26668 187.523203) scale(0.105 -0.105)">
      <defs>
       <path id="Menlo-Regular-6d" d="M 2113 3144 
Q 2219 3369 2383 3476 
Q 2547 3584 2778 3584 
Q 3200 3584 3373 3257 
Q 3547 2931 3547 2028 
L 3547 0 
L 3022 0 
L 3022 2003 
Q 3022 2744 2939 2923 
Q 2856 3103 2638 3103 
Q 2388 3103 2295 2911 
Q 2203 2719 2203 2003 
L 2203 0 
L 1678 0 
L 1678 2003 
Q 1678 2753 1589 2928 
Q 1500 3103 1269 3103 
Q 1041 3103 952 2911 
Q 863 2719 863 2003 
L 863 0 
L 341 0 
L 341 3500 
L 863 3500 
L 863 3200 
Q 966 3388 1120 3486 
Q 1275 3584 1472 3584 
Q 1709 3584 1867 3475 
Q 2025 3366 2113 3144 
z
" transform="scale(0.015625)"/>
       <path id="Menlo-Regular-64" d="M 2681 3053 
L 2681 4863 
L 3256 4863 
L 3256 0 
L 2681 0 
L 2681 441 
Q 2538 181 2298 45 
Q 2059 -91 1747 -91 
Q 1113 -91 748 401 
Q 384 894 384 1759 
Q 384 2613 750 3098 
Q 1116 3584 1747 3584 
Q 2063 3584 2303 3448 
Q 2544 3313 2681 3053 
z
M 991 1747 
Q 991 1078 1203 737 
Q 1416 397 1831 397 
Q 2247 397 2464 740 
Q 2681 1084 2681 1747 
Q 2681 2413 2464 2755 
Q 2247 3097 1831 3097 
Q 1416 3097 1203 2756 
Q 991 2416 991 1747 
z
" transform="scale(0.015625)"/>
      </defs>
      <use xlink:href="#Menlo-Regular-6d"/>
      <use xlink:href="#Menlo-Regular-6f" transform="translate(60.205078 0)"/>
      <use xlink:href="#Menlo-Regular-64" transform="translate(120.410156 0)"/>
      <use xlink:href="#Menlo-Regular-65" transform="translate(180.615234 0)"/>
      <use xlink:href="#Menlo-Regular-6c" transform="translate(240.820312 0)"/>
     </g>
    </g>
    <g id="line2d_55">
     <path d="M 227.633438 197.920781 
L 236.633438 197.920781 
L 245.633438 197.920781 
" style="fill: none; stroke-dasharray: 7.4,3.2; stroke-dashoffset: 0; stroke: #666666; stroke-width: 2"/>
    </g>
    <g id="text_23">
     <!-- coba -->
     <g style="fill: #1a1a1a" transform="translate(252.833438 201.070781) scale(0.09 -0.09)">
      <defs>
       <path id="Menlo-Regular-62" d="M 2869 1747 
Q 2869 2416 2656 2756 
Q 2444 3097 2028 3097 
Q 1609 3097 1393 2755 
Q 1178 2413 1178 1747 
Q 1178 1084 1393 740 
Q 1609 397 2028 397 
Q 2444 397 2656 737 
Q 2869 1078 2869 1747 
z
M 1178 3053 
Q 1316 3309 1558 3446 
Q 1800 3584 2119 3584 
Q 2750 3584 3112 3098 
Q 3475 2613 3475 1759 
Q 3475 894 3111 401 
Q 2747 -91 2113 -91 
Q 1800 -91 1561 45 
Q 1322 181 1178 441 
L 1178 0 
L 603 0 
L 603 4863 
L 1178 4863 
L 1178 3053 
z
" transform="scale(0.015625)"/>
      </defs>
      <use xlink:href="#Menlo-Regular-63"/>
      <use xlink:href="#Menlo-Regular-6f" transform="translate(60.205078 0)"/>
      <use xlink:href="#Menlo-Regular-62" transform="translate(120.410156 0)"/>
      <use xlink:href="#Menlo-Regular-61" transform="translate(180.615234 0)"/>
     </g>
    </g>
    <g id="line2d_56">
     <path d="M 227.633438 211.156406 
L 236.633438 211.156406 
L 245.633438 211.156406 
" style="fill: none; stroke: #666666; stroke-width: 2; stroke-linejoin: miter"/>
    </g>
    <g id="text_24">
     <!-- ping -->
     <g style="fill: #1a1a1a" transform="translate(252.833438 214.306406) scale(0.09 -0.09)">
      <defs>
       <path id="Menlo-Regular-69" d="M 988 3488 
L 2459 3488 
L 2459 447 
L 3600 447 
L 3600 0 
L 744 0 
L 744 447 
L 1884 447 
L 1884 3041 
L 988 3041 
L 988 3488 
z
M 1884 4847 
L 2459 4847 
L 2459 4122 
L 1884 4122 
L 1884 4847 
z
" transform="scale(0.015625)"/>
       <path id="Menlo-Regular-6e" d="M 3284 2169 
L 3284 0 
L 2706 0 
L 2706 2169 
Q 2706 2641 2540 2862 
Q 2375 3084 2022 3084 
Q 1619 3084 1401 2798 
Q 1184 2513 1184 1978 
L 1184 0 
L 609 0 
L 609 3500 
L 1184 3500 
L 1184 2975 
Q 1338 3275 1600 3429 
Q 1863 3584 2222 3584 
Q 2756 3584 3020 3232 
Q 3284 2881 3284 2169 
z
" transform="scale(0.015625)"/>
       <path id="Menlo-Regular-67" d="M 2681 1778 
Q 2681 2425 2470 2761 
Q 2259 3097 1856 3097 
Q 1434 3097 1212 2761 
Q 991 2425 991 1778 
Q 991 1131 1214 792 
Q 1438 453 1863 453 
Q 2259 453 2470 793 
Q 2681 1134 2681 1778 
z
M 3256 225 
Q 3256 -563 2884 -969 
Q 2513 -1375 1791 -1375 
Q 1553 -1375 1293 -1331 
Q 1034 -1288 775 -1203 
L 775 -634 
Q 1081 -778 1331 -847 
Q 1581 -916 1791 -916 
Q 2256 -916 2468 -662 
Q 2681 -409 2681 141 
L 2681 166 
L 2681 556 
Q 2544 263 2306 119 
Q 2069 -25 1728 -25 
Q 1116 -25 750 465 
Q 384 956 384 1778 
Q 384 2603 750 3093 
Q 1116 3584 1728 3584 
Q 2066 3584 2300 3450 
Q 2534 3316 2681 3034 
L 2681 3488 
L 3256 3488 
L 3256 225 
z
" transform="scale(0.015625)"/>
      </defs>
      <use xlink:href="#Menlo-Regular-70"/>
      <use xlink:href="#Menlo-Regular-69" transform="translate(60.205078 0)"/>
      <use xlink:href="#Menlo-Regular-6e" transform="translate(120.410156 0)"/>
      <use xlink:href="#Menlo-Regular-67" transform="translate(180.615234 0)"/>
     </g>
    </g>
   </g>
  </g>
  <g id="text_25">
   <!-- r007 -->
   <g style="fill: #888888" transform="translate(446.395 260.53865) scale(0.08 -0.08)">
    <defs>
     <path id="Menlo-Regular-37" d="M 434 4666 
L 3372 4666 
L 3372 4397 
L 1703 0 
L 1044 0 
L 2669 4134 
L 434 4134 
L 434 4666 
z
" transform="scale(0.015625)"/>
    </defs>
    <use xlink:href="#Menlo-Regular-72"/>
    <use xlink:href="#Menlo-Regular-30" transform="translate(60.205078 0)"/>
    <use xlink:href="#Menlo-Regular-30" transform="translate(120.410156 0)"/>
    <use xlink:href="#Menlo-Regular-37" transform="translate(180.615234 0)"/>
   </g>
  </g>
 </g>
 <defs>
  <clipPath id="p85d0e4384a">
   <rect x="45.48" y="14.94" width="411.18" height="210.3"/>
  </clipPath>
 </defs>
</svg>
