<?xml version="1.0" encoding="utf-8" standalone="no"?>
<!DOCTYPE svg PUBLIC "-//W3C//DTD SVG 1.1//EN"
  "http://www.w3.org/Graphics/SVG/1.1/DTD/svg11.dtd">
<svg xmlns:xlink="http://www.w3.org/1999/xlink" width="468pt" height="263.52pt" viewBox="0 0 468 263.52" xmlns="http://www.w3.org/2000/svg" version="1.1">
 <metadata>
  <rdf:RDF xmlns:dc="http://purl.org/dc/elements/1.1/" xmlns:cc="http://creativecommons.org/ns#" xmlns:rdf="http://www.w3.org/1999/02/22-rdf-syntax-ns#">
   <cc:Work>
    <dc:type rdf:resource="http://purl.org/dc/dcmitype/StillImage"/>
    <dc:date>2026-07-06T12:35:54.054035</dc:date>
    <dc:format>image/svg+xml</dc:format>
    <dc:creator>
     <cc:Agent>
      <dc:title>Matplotlib v3.10.8, https://matplotlib.org/</dc:title>
     </cc:Agent>
    </dc:creator>
   </cc:Work>
  </rdf:RDF>
 </metadata>
 <defs>
  <style type="text/css">*{stroke-linejoin: round; stroke-linecap: butt}</style>
 </defs>
 <g id="figure_1">
  <g id="patch_1">
   <path d="M 0 263.52 
L 468 263.52 
L 468 0 
L 0 0 
z
" style="fill: #ffffff"/>
  </g>
  <g id="axes_1">
   <g id="patch_2">
    <path d="M 45.66 225.96 
L 456.66 225.96 
L 456.66 14.76 
L 45.66 14.76 
z
" style="fill: #ffffff"/>
   </g>
   <g id="matplotlib.axis_1">
    <g id="xtick_1">
     <g id="line2d_1">
      <defs>
       <path id="m7ef5af42c6" d="M 0 0 
L 0 -4 
" style="stroke: #1a1a1a"/>
      </defs>
      <g>
       <use xlink:href="#m7ef5af42c6" x="56.716586" y="225.96" style="fill: #1a1a1a; stroke: #1a1a1a"/>
      </g>
     </g>
     <g id="text_1">
      <!-- 0 -->
      <g style="fill: #1a1a1a" transform="translate(54.007446 236.323906) scale(0.09 -0.09)">
       <defs>
        <path id="Menlo-Regular-30" d="M 1925 4734 
Q 2672 4734 3055 4125 
Q 3438 3516 3438 2322 
Q 3438 1128 3055 518 
Q 2672 -91 1925 -91 
Q 1178 -91 797 518 
Q 416 1128 416 2322 
Q 416 3516 797 4125 
Q 1178 4734 1925 4734 
z
M 1925 409 
Q 2369 409 2586 881 
Q 2803 1353 2803 2322 
Q 2803 2838 2741 3253 
L 1253 925 
Q 1488 409 1925 409 
z
M 1925 4234 
Q 1484 4234 1267 3762 
Q 1050 3291 1050 2322 
Q 1050 1881 1109 1497 
L 2566 3819 
Q 2328 4234 1925 4234 
z
" transform="scale(0.015625)"/>
       </defs>
       <use xlink:href="#Menlo-Regular-30"/>
      </g>
     </g>
    </g>
    <g id="xtick_2">
     <g id="line2d_2">
      <g>
       <use xlink:href="#m7ef5af42c6" x="132.968905" y="225.96" style="fill: #1a1a1a; stroke: #1a1a1a"/>
      </g>
     </g>
     <g id="text_2">
      <!-- 10 -->
      <g style="fill: #1a1a1a" transform="translate(127.550624 236.323906) scale(0.09 -0.09)">
       <defs>
        <path id="Menlo-Regular-31" d="M 844 528 
L 1825 528 
L 1825 4053 
L 650 3488 
L 650 4094 
L 1819 4650 
L 2450 4650 
L 2450 528 
L 3419 528 
L 3419 0 
L 844 0 
L 844 528 
z
" transform="scale(0.015625)"/>
       </defs>
       <use xlink:href="#Menlo-Regular-31"/>
       <use xlink:href="#Menlo-Regular-30" transform="translate(60.205078 0)"/>
      </g>
     </g>
    </g>
    <g id="xtick_3">
     <g id="line2d_3">
      <g>
       <use xlink:href="#m7ef5af42c6" x="209.221224" y="225.96" style="fill: #1a1a1a; stroke: #1a1a1a"/>
      </g>
     </g>
     <g id="text_3">
      <!-- 20 -->
      <g style="fill: #1a1a1a" transform="translate(203.802943 236.323906) scale(0.09 -0.09)">
       <defs>
        <path id="Menlo-Regular-32" d="M 1166 531 
L 3309 531 
L 3309 0 
L 475 0 
L 475 531 
Q 1059 1147 1496 1619 
Q 1934 2091 2100 2284 
Q 2413 2666 2522 2902 
Q 2631 3138 2631 3384 
Q 2631 3775 2401 3997 
Q 2172 4219 1772 4219 
Q 1488 4219 1175 4116 
Q 863 4013 513 3803 
L 513 4441 
Q 834 4594 1145 4672 
Q 1456 4750 1759 4750 
Q 2444 4750 2861 4386 
Q 3278 4022 3278 3431 
Q 3278 3131 3139 2831 
Q 3000 2531 2688 2169 
Q 2513 1966 2180 1606 
Q 1847 1247 1166 531 
z
" transform="scale(0.015625)"/>
       </defs>
       <use xlink:href="#Menlo-Regular-32"/>
       <use xlink:href="#Menlo-Regular-30" transform="translate(60.205078 0)"/>
      </g>
     </g>
    </g>
    <g id="xtick_4">
     <g id="line2d_4">
      <g>
       <use xlink:href="#m7ef5af42c6" x="285.473544" y="225.96" style="fill: #1a1a1a; stroke: #1a1a1a"/>
      </g>
     </g>
     <g id="text_4">
      <!-- 30 -->
      <g style="fill: #1a1a1a" transform="translate(280.055262 236.323906) scale(0.09 -0.09)">
       <defs>
        <path id="Menlo-Regular-33" d="M 2425 2497 
Q 2884 2375 3128 2064 
Q 3372 1753 3372 1288 
Q 3372 644 2939 276 
Q 2506 -91 1741 -91 
Q 1419 -91 1084 -31 
Q 750 28 428 141 
L 428 769 
Q 747 603 1056 522 
Q 1366 441 1672 441 
Q 2191 441 2469 675 
Q 2747 909 2747 1350 
Q 2747 1756 2469 1995 
Q 2191 2234 1716 2234 
L 1234 2234 
L 1234 2753 
L 1716 2753 
Q 2150 2753 2394 2943 
Q 2638 3134 2638 3475 
Q 2638 3834 2411 4026 
Q 2184 4219 1766 4219 
Q 1488 4219 1191 4156 
Q 894 4094 569 3969 
L 569 4550 
Q 947 4650 1242 4700 
Q 1538 4750 1766 4750 
Q 2447 4750 2855 4408 
Q 3263 4066 3263 3500 
Q 3263 3116 3048 2859 
Q 2834 2603 2425 2497 
z
" transform="scale(0.015625)"/>
       </defs>
       <use xlink:href="#Menlo-Regular-33"/>
       <use xlink:href="#Menlo-Regular-30" transform="translate(60.205078 0)"/>
      </g>
     </g>
    </g>
    <g id="xtick_5">
     <g id="line2d_5">
      <g>
       <use xlink:href="#m7ef5af42c6" x="361.725863" y="225.96" style="fill: #1a1a1a; stroke: #1a1a1a"/>
      </g>
     </g>
     <g id="text_5">
      <!-- 40 -->
      <g style="fill: #1a1a1a" transform="translate(356.307581 236.323906) scale(0.09 -0.09)">
       <defs>
        <path id="Menlo-Regular-34" d="M 2297 4091 
L 825 1625 
L 2297 1625 
L 2297 4091 
z
M 2194 4666 
L 2925 4666 
L 2925 1625 
L 3547 1625 
L 3547 1113 
L 2925 1113 
L 2925 0 
L 2297 0 
L 2297 1113 
L 319 1113 
L 319 1709 
L 2194 4666 
z
" transform="scale(0.015625)"/>
       </defs>
       <use xlink:href="#Menlo-Regular-34"/>
       <use xlink:href="#Menlo-Regular-30" transform="translate(60.205078 0)"/>
      </g>
     </g>
    </g>
    <g id="xtick_6">
     <g id="line2d_6">
      <g>
       <use xlink:href="#m7ef5af42c6" x="437.978182" y="225.96" style="fill: #1a1a1a; stroke: #1a1a1a"/>
      </g>
     </g>
     <g id="text_6">
      <!-- 50 -->
      <g style="fill: #1a1a1a" transform="translate(432.559901 236.323906) scale(0.09 -0.09)">
       <defs>
        <path id="Menlo-Regular-35" d="M 647 4666 
L 3009 4666 
L 3009 4134 
L 1222 4134 
L 1222 2988 
Q 1356 3038 1492 3061 
Q 1628 3084 1766 3084 
Q 2491 3084 2916 2656 
Q 3341 2228 3341 1497 
Q 3341 759 2895 334 
Q 2450 -91 1678 -91 
Q 1306 -91 998 -41 
Q 691 9 447 109 
L 447 750 
Q 734 594 1025 517 
Q 1316 441 1619 441 
Q 2141 441 2423 716 
Q 2706 991 2706 1497 
Q 2706 1997 2414 2275 
Q 2122 2553 1600 2553 
Q 1347 2553 1106 2495 
Q 866 2438 647 2322 
L 647 4666 
z
" transform="scale(0.015625)"/>
       </defs>
       <use xlink:href="#Menlo-Regular-35"/>
       <use xlink:href="#Menlo-Regular-30" transform="translate(60.205078 0)"/>
      </g>
     </g>
    </g>
    <g id="text_7">
     <!-- epoch -->
     <g style="fill: #1a1a1a" transform="translate(236.109219 249.822187) scale(0.1 -0.1)">
      <defs>
       <path id="Menlo-Regular-65" d="M 3500 2038 
L 3500 1756 
L 1009 1756 
L 1009 1738 
Q 984 1022 1282 709 
Q 1581 397 2125 397 
Q 2400 397 2700 484 
Q 3000 572 3341 750 
L 3341 178 
Q 3013 44 2708 -23 
Q 2403 -91 2119 -91 
Q 1303 -91 843 398 
Q 384 888 384 1747 
Q 384 2584 834 3084 
Q 1284 3584 2034 3584 
Q 2703 3584 3089 3131 
Q 3475 2678 3500 2038 
z
M 2925 2206 
Q 2888 2569 2661 2833 
Q 2434 3097 2009 3097 
Q 1594 3097 1325 2822 
Q 1056 2547 1031 2203 
L 2925 2206 
z
" transform="scale(0.015625)"/>
       <path id="Menlo-Regular-70" d="M 1172 441 
L 1172 -1331 
L 594 -1331 
L 594 3500 
L 1172 3500 
L 1172 3053 
Q 1316 3313 1555 3448 
Q 1794 3584 2106 3584 
Q 2741 3584 3102 3093 
Q 3463 2603 3463 1734 
Q 3463 881 3100 395 
Q 2738 -91 2106 -91 
Q 1788 -91 1548 45 
Q 1309 181 1172 441 
z
M 2859 1747 
Q 2859 2416 2648 2756 
Q 2438 3097 2022 3097 
Q 1603 3097 1387 2755 
Q 1172 2413 1172 1747 
Q 1172 1084 1387 740 
Q 1603 397 2022 397 
Q 2438 397 2648 737 
Q 2859 1078 2859 1747 
z
" transform="scale(0.015625)"/>
       <path id="Menlo-Regular-6f" d="M 1925 3097 
Q 1488 3097 1263 2756 
Q 1038 2416 1038 1747 
Q 1038 1081 1263 739 
Q 1488 397 1925 397 
Q 2366 397 2591 739 
Q 2816 1081 2816 1747 
Q 2816 2416 2591 2756 
Q 2366 3097 1925 3097 
z
M 1925 3584 
Q 2653 3584 3039 3112 
Q 3425 2641 3425 1747 
Q 3425 850 3040 379 
Q 2656 -91 1925 -91 
Q 1197 -91 812 379 
Q 428 850 428 1747 
Q 428 2641 812 3112 
Q 1197 3584 1925 3584 
z
" transform="scale(0.015625)"/>
       <path id="Menlo-Regular-63" d="M 3316 178 
Q 3084 44 2839 -23 
Q 2594 -91 2338 -91 
Q 1525 -91 1067 396 
Q 609 884 609 1747 
Q 609 2609 1067 3096 
Q 1525 3584 2338 3584 
Q 2591 3584 2831 3518 
Q 3072 3453 3316 3316 
L 3316 2713 
Q 3088 2916 2858 3006 
Q 2628 3097 2338 3097 
Q 1797 3097 1506 2747 
Q 1216 2397 1216 1747 
Q 1216 1100 1508 748 
Q 1800 397 2338 397 
Q 2638 397 2875 489 
Q 3113 581 3316 775 
L 3316 178 
z
" transform="scale(0.015625)"/>
       <path id="Menlo-Regular-68" d="M 3284 2169 
L 3284 0 
L 2706 0 
L 2706 2169 
Q 2706 2641 2540 2862 
Q 2375 3084 2022 3084 
Q 1619 3084 1401 2798 
Q 1184 2513 1184 1978 
L 1184 0 
L 609 0 
L 609 4863 
L 1184 4863 
L 1184 2975 
Q 1338 3275 1600 3429 
Q 1863 3584 2222 3584 
Q 2756 3584 3020 3232 
Q 3284 2881 3284 2169 
z
" transform="scale(0.015625)"/>
      </defs>
      <use xlink:href="#Menlo-Regular-65"/>
      <use xlink:href="#Menlo-Regular-70" transform="translate(60.205078 0)"/>
      <use xlink:href="#Menlo-Regular-6f" transform="translate(120.410156 0)"/>
      <use xlink:href="#Menlo-Regular-63" transform="translate(180.615234 0)"/>
      <use xlink:href="#Menlo-Regular-68" transform="translate(240.820312 0)"/>
     </g>
    </g>
   </g>
   <g id="matplotlib.axis_2">
    <g id="ytick_1">
     <g id="line2d_7">
      <defs>
       <path id="medaebfc4c7" d="M 0 0 
L 4 0 
" style="stroke: #1a1a1a"/>
      </defs>
      <g>
       <use xlink:href="#medaebfc4c7" x="45.66" y="225.96" style="fill: #1a1a1a; stroke: #1a1a1a"/>
      </g>
     </g>
     <g id="text_8">
      <!-- 0 -->
      <g style="fill: #1a1a1a" transform="translate(36.741719 229.391953) scale(0.09 -0.09)">
       <use xlink:href="#Menlo-Regular-30"/>
      </g>
     </g>
    </g>
    <g id="ytick_2">
     <g id="line2d_8">
      <g>
       <use xlink:href="#medaebfc4c7" x="45.66" y="183.72" style="fill: #1a1a1a; stroke: #1a1a1a"/>
      </g>
     </g>
     <g id="text_9">
      <!-- 20 -->
      <g style="fill: #1a1a1a" transform="translate(31.323438 187.151953) scale(0.09 -0.09)">
       <use xlink:href="#Menlo-Regular-32"/>
       <use xlink:href="#Menlo-Regular-30" transform="translate(60.205078 0)"/>
      </g>
     </g>
    </g>
    <g id="ytick_3">
     <g id="line2d_9">
      <g>
       <use xlink:href="#medaebfc4c7" x="45.66" y="141.48" style="fill: #1a1a1a; stroke: #1a1a1a"/>
      </g>
     </g>
     <g id="text_10">
      <!-- 40 -->
      <g style="fill: #1a1a1a" transform="translate(31.323438 144.911953) scale(0.09 -0.09)">
       <use xlink:href="#Menlo-Regular-34"/>
       <use xlink:href="#Menlo-Regular-30" transform="translate(60.205078 0)"/>
      </g>
     </g>
    </g>
    <g id="ytick_4">
     <g id="line2d_10">
      <g>
       <use xlink:href="#medaebfc4c7" x="45.66" y="99.24" style="fill: #1a1a1a; stroke: #1a1a1a"/>
      </g>
     </g>
     <g id="text_11">
      <!-- 60 -->
      <g style="fill: #1a1a1a" transform="translate(31.323438 102.671953) scale(0.09 -0.09)">
       <defs>
        <path id="Menlo-Regular-36" d="M 3097 4563 
L 3097 3981 
Q 2900 4097 2678 4158 
Q 2456 4219 2216 4219 
Q 1616 4219 1306 3767 
Q 997 3316 997 2438 
Q 1147 2750 1412 2917 
Q 1678 3084 2022 3084 
Q 2697 3084 3067 2670 
Q 3438 2256 3438 1497 
Q 3438 741 3056 325 
Q 2675 -91 1984 -91 
Q 1172 -91 794 492 
Q 416 1075 416 2328 
Q 416 3509 870 4129 
Q 1325 4750 2188 4750 
Q 2419 4750 2650 4701 
Q 2881 4653 3097 4563 
z
M 1972 2591 
Q 1569 2591 1337 2300 
Q 1106 2009 1106 1497 
Q 1106 984 1337 693 
Q 1569 403 1972 403 
Q 2391 403 2603 679 
Q 2816 956 2816 1497 
Q 2816 2041 2603 2316 
Q 2391 2591 1972 2591 
z
" transform="scale(0.015625)"/>
       </defs>
       <use xlink:href="#Menlo-Regular-36"/>
       <use xlink:href="#Menlo-Regular-30" transform="translate(60.205078 0)"/>
      </g>
     </g>
    </g>
    <g id="ytick_5">
     <g id="line2d_11">
      <g>
       <use xlink:href="#medaebfc4c7" x="45.66" y="57" style="fill: #1a1a1a; stroke: #1a1a1a"/>
      </g>
     </g>
     <g id="text_12">
      <!-- 80 -->
      <g style="fill: #1a1a1a" transform="translate(31.323438 60.431953) scale(0.09 -0.09)">
       <defs>
        <path id="Menlo-Regular-38" d="M 1925 2216 
Q 1503 2216 1273 1980 
Q 1044 1744 1044 1313 
Q 1044 881 1276 642 
Q 1509 403 1925 403 
Q 2350 403 2579 639 
Q 2809 875 2809 1313 
Q 2809 1741 2576 1978 
Q 2344 2216 1925 2216 
z
M 1375 2478 
Q 972 2581 745 2862 
Q 519 3144 519 3541 
Q 519 4097 897 4423 
Q 1275 4750 1925 4750 
Q 2578 4750 2956 4423 
Q 3334 4097 3334 3541 
Q 3334 3144 3107 2862 
Q 2881 2581 2478 2478 
Q 2947 2375 3195 2062 
Q 3444 1750 3444 1253 
Q 3444 622 3041 265 
Q 2638 -91 1925 -91 
Q 1213 -91 811 264 
Q 409 619 409 1247 
Q 409 1747 657 2061 
Q 906 2375 1375 2478 
z
M 1147 3481 
Q 1147 3106 1347 2909 
Q 1547 2713 1925 2713 
Q 2306 2713 2506 2909 
Q 2706 3106 2706 3481 
Q 2706 3863 2507 4063 
Q 2309 4263 1925 4263 
Q 1547 4263 1347 4061 
Q 1147 3859 1147 3481 
z
" transform="scale(0.015625)"/>
       </defs>
       <use xlink:href="#Menlo-Regular-38"/>
       <use xlink:href="#Menlo-Regular-30" transform="translate(60.205078 0)"/>
      </g>
     </g>
    </g>
    <g id="ytick_6">
     <g id="line2d_12">
      <g>
       <use xlink:href="#medaebfc4c7" x="45.66" y="14.76" style="fill: #1a1a1a; stroke: #1a1a1a"/>
      </g>
     </g>
     <g id="text_13">
      <!-- 100 -->
      <g style="fill: #1a1a1a" transform="translate(25.905156 18.191953) scale(0.09 -0.09)">
       <use xlink:href="#Menlo-Regular-31"/>
       <use xlink:href="#Menlo-Regular-30" transform="translate(60.205078 0)"/>
       <use xlink:href="#Menlo-Regular-30" transform="translate(120.410156 0)"/>
      </g>
     </g>
    </g>
    <g id="text_14">
     <!-- test accuracy (%) -->
     <g style="fill: #1a1a1a" transform="translate(19.825469 171.532656) rotate(-90) scale(0.1 -0.1)">
      <defs>
       <path id="Menlo-Regular-74" d="M 1919 4494 
L 1919 3500 
L 3225 3500 
L 3225 3053 
L 1919 3053 
L 1919 1153 
Q 1919 766 2066 612 
Q 2213 459 2578 459 
L 3225 459 
L 3225 0 
L 2522 0 
Q 1875 0 1609 259 
Q 1344 519 1344 1153 
L 1344 3053 
L 409 3053 
L 409 3500 
L 1344 3500 
L 1344 4494 
L 1919 4494 
z
" transform="scale(0.015625)"/>
       <path id="Menlo-Regular-73" d="M 3041 3378 
L 3041 2816 
Q 2794 2959 2544 3031 
Q 2294 3103 2034 3103 
Q 1644 3103 1451 2976 
Q 1259 2850 1259 2591 
Q 1259 2356 1403 2240 
Q 1547 2125 2119 2016 
L 2350 1972 
Q 2778 1891 2998 1647 
Q 3219 1403 3219 1013 
Q 3219 494 2850 201 
Q 2481 -91 1825 -91 
Q 1566 -91 1281 -36 
Q 997 19 666 128 
L 666 722 
Q 988 556 1281 473 
Q 1575 391 1838 391 
Q 2219 391 2428 545 
Q 2638 700 2638 978 
Q 2638 1378 1872 1531 
L 1847 1538 
L 1631 1581 
Q 1134 1678 906 1908 
Q 678 2138 678 2534 
Q 678 3038 1018 3311 
Q 1359 3584 1991 3584 
Q 2272 3584 2531 3532 
Q 2791 3481 3041 3378 
z
" transform="scale(0.015625)"/>
       <path id="Menlo-Regular-20" transform="scale(0.015625)"/>
       <path id="Menlo-Regular-61" d="M 2194 1759 
L 2003 1759 
Q 1500 1759 1245 1582 
Q 991 1406 991 1056 
Q 991 741 1181 566 
Q 1372 391 1709 391 
Q 2184 391 2456 720 
Q 2728 1050 2731 1631 
L 2731 1759 
L 2194 1759 
z
M 3309 1997 
L 3309 0 
L 2731 0 
L 2731 519 
Q 2547 206 2267 57 
Q 1988 -91 1588 -91 
Q 1053 -91 734 211 
Q 416 513 416 1019 
Q 416 1603 808 1906 
Q 1200 2209 1959 2209 
L 2731 2209 
L 2731 2300 
Q 2728 2719 2518 2908 
Q 2309 3097 1850 3097 
Q 1556 3097 1256 3012 
Q 956 2928 672 2766 
L 672 3341 
Q 991 3463 1283 3523 
Q 1575 3584 1850 3584 
Q 2284 3584 2592 3456 
Q 2900 3328 3091 3072 
Q 3209 2916 3259 2686 
Q 3309 2456 3309 1997 
z
" transform="scale(0.015625)"/>
       <path id="Menlo-Regular-75" d="M 609 1325 
L 609 3494 
L 1184 3494 
L 1184 1325 
Q 1184 853 1351 631 
Q 1519 409 1869 409 
Q 2275 409 2490 695 
Q 2706 981 2706 1516 
L 2706 3494 
L 3284 3494 
L 3284 0 
L 2706 0 
L 2706 525 
Q 2553 222 2289 65 
Q 2025 -91 1672 -91 
Q 1134 -91 871 261 
Q 609 613 609 1325 
z
" transform="scale(0.015625)"/>
       <path id="Menlo-Regular-72" d="M 3609 2778 
Q 3425 2922 3234 2987 
Q 3044 3053 2816 3053 
Q 2278 3053 1993 2715 
Q 1709 2378 1709 1741 
L 1709 0 
L 1131 0 
L 1131 3500 
L 1709 3500 
L 1709 2816 
Q 1853 3188 2151 3386 
Q 2450 3584 2859 3584 
Q 3072 3584 3256 3531 
Q 3441 3478 3609 3366 
L 3609 2778 
z
" transform="scale(0.015625)"/>
       <path id="Menlo-Regular-79" d="M 2681 1125 
Q 2538 759 2316 163 
Q 2006 -663 1900 -844 
Q 1756 -1088 1540 -1209 
Q 1325 -1331 1038 -1331 
L 575 -1331 
L 575 -850 
L 916 -850 
Q 1169 -850 1312 -703 
Q 1456 -556 1678 56 
L 325 3500 
L 934 3500 
L 1972 763 
L 2994 3500 
L 3603 3500 
L 2681 1125 
z
" transform="scale(0.015625)"/>
       <path id="Menlo-Regular-28" d="M 2672 5169 
Q 2256 4456 2051 3748 
Q 1847 3041 1847 2322 
Q 1847 1606 2051 897 
Q 2256 188 2672 -531 
L 2172 -531 
Q 1700 213 1469 917 
Q 1238 1622 1238 2322 
Q 1238 3019 1469 3725 
Q 1700 4431 2172 5169 
L 2672 5169 
z
" transform="scale(0.015625)"/>
       <path id="Menlo-Regular-25" d="M 2175 997 
Q 2175 753 2339 587 
Q 2503 422 2747 422 
Q 2988 422 3155 589 
Q 3322 756 3322 997 
Q 3322 1238 3153 1406 
Q 2984 1575 2747 1575 
Q 2503 1575 2339 1409 
Q 2175 1244 2175 997 
z
M 1753 997 
Q 1753 1419 2040 1708 
Q 2328 1997 2747 1997 
Q 2947 1997 3126 1922 
Q 3306 1847 3450 1703 
Q 3594 1556 3672 1375 
Q 3750 1194 3750 997 
Q 3750 581 3459 290 
Q 3169 0 2747 0 
Q 2322 0 2037 286 
Q 1753 572 1753 997 
z
M 259 1375 
L 122 1728 
L 3606 3122 
L 3763 2769 
L 259 1375 
z
M 525 3475 
Q 525 3228 689 3064 
Q 853 2900 1100 2900 
Q 1341 2900 1509 3067 
Q 1678 3234 1678 3475 
Q 1678 3716 1509 3883 
Q 1341 4050 1100 4050 
Q 859 4050 692 3884 
Q 525 3719 525 3475 
z
M 103 3475 
Q 103 3897 390 4186 
Q 678 4475 1100 4475 
Q 1300 4475 1483 4400 
Q 1666 4325 1806 4184 
Q 1947 4044 2023 3861 
Q 2100 3678 2100 3475 
Q 2100 3056 1809 2767 
Q 1519 2478 1100 2478 
Q 678 2478 390 2765 
Q 103 3053 103 3475 
z
" transform="scale(0.015625)"/>
       <path id="Menlo-Regular-29" d="M 1088 5169 
L 1588 5169 
Q 2059 4431 2290 3725 
Q 2522 3019 2522 2322 
Q 2522 1619 2290 912 
Q 2059 206 1588 -531 
L 1088 -531 
Q 1503 194 1708 903 
Q 1913 1613 1913 2322 
Q 1913 3034 1708 3743 
Q 1503 4453 1088 5169 
z
" transform="scale(0.015625)"/>
      </defs>
      <use xlink:href="#Menlo-Regular-74"/>
      <use xlink:href="#Menlo-Regular-65" transform="translate(60.205078 0)"/>
      <use xlink:href="#Menlo-Regular-73" transform="translate(120.410156 0)"/>
      <use xlink:href="#Menlo-Regular-74" transform="translate(180.615234 0)"/>
      <use xlink:href="#Menlo-Regular-20" transform="translate(240.820312 0)"/>
      <use xlink:href="#Menlo-Regular-61" transform="translate(301.025391 0)"/>
      <use xlink:href="#Menlo-Regular-63" transform="translate(361.230469 0)"/>
      <use xlink:href="#Menlo-Regular-63" transform="translate(421.435547 0)"/>
      <use xlink:href="#Menlo-Regular-75" transform="translate(481.640625 0)"/>
      <use xlink:href="#Menlo-Regular-72" transform="translate(541.845703 0)"/>
      <use xlink:href="#Menlo-Regular-61" transform="translate(602.050781 0)"/>
      <use xlink:href="#Menlo-Regular-63" transform="translate(662.255859 0)"/>
      <use xlink:href="#Menlo-Regular-79" transform="translate(722.460938 0)"/>
      <use xlink:href="#Menlo-Regular-20" transform="translate(782.666016 0)"/>
      <use xlink:href="#Menlo-Regular-28" transform="translate(842.871094 0)"/>
      <use xlink:href="#Menlo-Regular-25" transform="translate(903.076172 0)"/>
      <use xlink:href="#Menlo-Regular-29" transform="translate(963.28125 0)"/>
     </g>
    </g>
   </g>
   <g id="line2d_13">
    <path d="M 64.341818 70.728 
L 71.96705 45.384 
L 79.592282 43.121143 
L 87.217514 39.048 
L 94.842746 39.198857 
L 102.467978 36.785143 
L 110.09321 37.539429 
L 117.718442 37.237714 
L 125.343673 36.332571 
L 132.968905 36.483429 
L 140.594137 36.785143 
L 148.219369 36.030857 
L 155.844601 35.427429 
L 163.469833 36.785143 
L 171.095065 36.181714 
L 178.720297 36.030857 
L 186.345529 34.974857 
L 193.970761 36.634286 
L 201.595993 36.030857 
L 209.221224 37.388571 
L 216.846456 36.785143 
L 224.471688 35.88 
L 232.09692 36.483429 
L 239.722152 36.634286 
L 247.347384 36.483429 
L 254.972616 37.086857 
L 262.597848 36.030857 
L 270.22308 36.483429 
L 277.848312 36.030857 
L 285.473544 36.332571 
L 293.098776 34.974857 
L 300.724007 35.88 
L 308.349239 37.086857 
L 315.974471 36.483429 
L 323.599703 34.974857 
L 331.224935 35.88 
L 338.850167 35.729143 
L 346.475399 36.332571 
L 354.100631 35.578286 
L 361.725863 34.371429 
L 369.351095 35.125714 
L 376.976327 34.974857 
L 384.601558 35.578286 
L 392.22679 35.88 
L 399.852022 35.578286 
L 407.477254 35.578286 
L 415.102486 34.974857 
L 422.727718 35.125714 
L 430.35295 35.276571 
L 437.978182 34.824 
" clip-path="url(#p990ea1743c)" style="fill: none; stroke-dasharray: 4.07,1.76; stroke-dashoffset: 0; stroke: #440154; stroke-opacity: 0.85; stroke-width: 1.1"/>
   </g>
   <g id="line2d_14">
    <path d="M 64.341818 76.762286 
L 71.96705 45.384 
L 79.592282 42.216 
L 87.217514 38.746286 
L 94.842746 38.595429 
L 102.467978 36.936 
L 110.09321 38.142857 
L 117.718442 37.086857 
L 125.343673 36.936 
L 132.968905 36.181714 
L 140.594137 37.388571 
L 148.219369 36.483429 
L 155.844601 35.88 
L 163.469833 36.634286 
L 171.095065 35.578286 
L 178.720297 35.729143 
L 186.345529 35.578286 
L 193.970761 36.634286 
L 201.595993 35.276571 
L 209.221224 36.785143 
L 216.846456 36.181714 
L 224.471688 36.332571 
L 232.09692 36.030857 
L 239.722152 36.030857 
L 247.347384 36.936 
L 254.972616 36.936 
L 262.597848 36.030857 
L 270.22308 36.483429 
L 277.848312 36.030857 
L 285.473544 37.086857 
L 293.098776 34.824 
L 300.724007 35.729143 
L 308.349239 36.936 
L 315.974471 36.332571 
L 323.599703 36.030857 
L 331.224935 35.427429 
L 338.850167 35.88 
L 346.475399 36.181714 
L 354.100631 35.729143 
L 361.725863 34.522286 
L 369.351095 34.974857 
L 376.976327 35.578286 
L 384.601558 35.427429 
L 392.22679 35.88 
L 399.852022 36.936 
L 407.477254 35.578286 
L 415.102486 35.125714 
L 422.727718 35.276571 
L 430.35295 36.181714 
L 437.978182 34.824 
" clip-path="url(#p990ea1743c)" style="fill: none; stroke-dasharray: 4.07,1.76; stroke-dashoffset: 0; stroke: #440154; stroke-opacity: 0.85; stroke-width: 1.1"/>
   </g>
   <g id="line2d_15">
    <path d="M 64.341818 72.085714 
L 71.96705 45.685714 
L 79.592282 42.216 
L 87.217514 38.897143 
L 94.842746 38.746286 
L 102.467978 36.634286 
L 110.09321 36.785143 
L 117.718442 36.936 
L 125.343673 35.88 
L 132.968905 36.634286 
L 140.594137 36.936 
L 148.219369 35.88 
L 155.844601 35.276571 
L 163.469833 36.634286 
L 171.095065 35.88 
L 178.720297 35.578286 
L 186.345529 35.276571 
L 193.970761 36.181714 
L 201.595993 35.729143 
L 209.221224 36.634286 
L 216.846456 36.634286 
L 224.471688 35.88 
L 232.09692 35.276571 
L 239.722152 36.030857 
L 247.347384 36.332571 
L 254.972616 35.729143 
L 262.597848 36.030857 
L 270.22308 36.332571 
L 277.848312 36.181714 
L 285.473544 36.785143 
L 293.098776 35.125714 
L 300.724007 34.824 
L 308.349239 36.785143 
L 315.974471 36.181714 
L 323.599703 34.824 
L 331.224935 36.332571 
L 338.850167 35.88 
L 346.475399 36.030857 
L 354.100631 34.974857 
L 361.725863 34.220571 
L 369.351095 35.276571 
L 376.976327 34.974857 
L 384.601558 36.030857 
L 392.22679 35.729143 
L 399.852022 36.030857 
L 407.477254 35.427429 
L 415.102486 34.974857 
L 422.727718 34.974857 
L 430.35295 36.030857 
L 437.978182 34.522286 
" clip-path="url(#p990ea1743c)" style="fill: none; stroke-dasharray: 4.07,1.76; stroke-dashoffset: 0; stroke: #440154; stroke-opacity: 0.85; stroke-width: 1.1"/>
   </g>
   <g id="line2d_16">
    <path d="M 64.341818 78.874286 
L 71.96705 62.581714 
L 79.592282 58.508571 
L 87.217514 54.888 
L 94.842746 53.681143 
L 102.467978 53.228571 
L 110.09321 53.681143 
L 117.718442 53.530286 
L 125.343673 53.530286 
L 132.968905 53.077714 
L 140.594137 53.379429 
L 148.219369 52.926857 
L 155.844601 52.021714 
L 163.469833 51.116571 
L 171.095065 51.569143 
L 178.720297 52.474286 
L 186.345529 51.569143 
L 193.970761 50.060571 
L 201.595993 49.909714 
L 209.221224 48.702857 
L 216.846456 49.306286 
L 224.471688 49.909714 
L 232.09692 47.797714 
L 239.722152 48.702857 
L 247.347384 48.552 
L 254.972616 48.552 
L 262.597848 48.099429 
L 270.22308 49.004571 
L 277.848312 48.853714 
L 285.473544 49.758857 
L 293.098776 49.004571 
L 300.724007 47.496 
L 308.349239 48.401143 
L 315.974471 50.060571 
L 323.599703 49.004571 
L 331.224935 47.646857 
L 338.850167 48.552 
L 346.475399 48.099429 
L 354.100631 47.646857 
L 361.725863 48.853714 
L 369.351095 46.590857 
L 376.976327 47.194286 
L 384.601558 49.004571 
L 392.22679 47.043429 
L 399.852022 48.099429 
L 407.477254 47.646857 
L 415.102486 46.741714 
L 422.727718 46.590857 
L 430.35295 45.685714 
L 437.978182 46.44 
" clip-path="url(#p990ea1743c)" style="fill: none; stroke-dasharray: 4.07,1.76; stroke-dashoffset: 0; stroke: #414487; stroke-opacity: 0.85; stroke-width: 1.1"/>
   </g>
   <g id="line2d_17">
    <path d="M 64.341818 85.512 
L 71.96705 67.107429 
L 79.592282 59.715429 
L 87.217514 55.944 
L 94.842746 54.284571 
L 102.467978 53.681143 
L 110.09321 54.284571 
L 117.718442 52.021714 
L 125.343673 53.228571 
L 132.968905 54.133714 
L 140.594137 54.435429 
L 148.219369 52.172571 
L 155.844601 52.776 
L 163.469833 51.870857 
L 171.095065 52.926857 
L 178.720297 52.172571 
L 186.345529 52.021714 
L 193.970761 51.116571 
L 201.595993 51.418286 
L 209.221224 48.702857 
L 216.846456 49.608 
L 224.471688 49.608 
L 232.09692 48.099429 
L 239.722152 49.457143 
L 247.347384 48.099429 
L 254.972616 48.099429 
L 262.597848 47.345143 
L 270.22308 47.345143 
L 277.848312 48.552 
L 285.473544 48.401143 
L 293.098776 48.401143 
L 300.724007 47.496 
L 308.349239 47.797714 
L 315.974471 49.155429 
L 323.599703 48.552 
L 331.224935 48.702857 
L 338.850167 47.797714 
L 346.475399 47.797714 
L 354.100631 47.496 
L 361.725863 48.099429 
L 369.351095 46.590857 
L 376.976327 47.646857 
L 384.601558 47.797714 
L 392.22679 47.194286 
L 399.852022 47.194286 
L 407.477254 46.138286 
L 415.102486 46.138286 
L 422.727718 46.44 
L 430.35295 45.836571 
L 437.978182 45.987429 
" clip-path="url(#p990ea1743c)" style="fill: none; stroke-dasharray: 4.07,1.76; stroke-dashoffset: 0; stroke: #414487; stroke-opacity: 0.85; stroke-width: 1.1"/>
   </g>
   <g id="line2d_18">
    <path d="M 64.341818 71.029714 
L 71.96705 60.771429 
L 79.592282 58.357714 
L 87.217514 54.737143 
L 94.842746 53.681143 
L 102.467978 52.926857 
L 110.09321 53.681143 
L 117.718442 53.379429 
L 125.343673 53.228571 
L 132.968905 53.379429 
L 140.594137 54.133714 
L 148.219369 52.625143 
L 155.844601 53.228571 
L 163.469833 51.418286 
L 171.095065 51.72 
L 178.720297 52.625143 
L 186.345529 51.418286 
L 193.970761 50.513143 
L 201.595993 50.814857 
L 209.221224 48.401143 
L 216.846456 49.608 
L 224.471688 48.702857 
L 232.09692 48.250286 
L 239.722152 48.853714 
L 247.347384 49.004571 
L 254.972616 48.552 
L 262.597848 48.401143 
L 270.22308 48.250286 
L 277.848312 48.552 
L 285.473544 49.155429 
L 293.098776 48.702857 
L 300.724007 47.194286 
L 308.349239 48.099429 
L 315.974471 49.306286 
L 323.599703 49.155429 
L 331.224935 47.646857 
L 338.850167 47.345143 
L 346.475399 48.401143 
L 354.100631 48.250286 
L 361.725863 47.496 
L 369.351095 46.590857 
L 376.976327 46.590857 
L 384.601558 47.797714 
L 392.22679 48.401143 
L 399.852022 47.496 
L 407.477254 47.797714 
L 415.102486 47.646857 
L 422.727718 46.741714 
L 430.35295 46.892571 
L 437.978182 47.043429 
" clip-path="url(#p990ea1743c)" style="fill: none; stroke-dasharray: 4.07,1.76; stroke-dashoffset: 0; stroke: #414487; stroke-opacity: 0.85; stroke-width: 1.1"/>
   </g>
   <g id="line2d_19">
    <path d="M 64.341818 90.037714 
L 71.96705 75.404571 
L 79.592282 72.387429 
L 87.217514 71.331429 
L 94.842746 70.426286 
L 102.467978 70.124571 
L 110.09321 72.236571 
L 117.718442 71.180571 
L 125.343673 70.124571 
L 132.968905 71.029714 
L 140.594137 70.275429 
L 148.219369 69.973714 
L 155.844601 69.521143 
L 163.469833 68.616 
L 171.095065 67.861714 
L 178.720297 69.068571 
L 186.345529 67.409143 
L 193.970761 65.900571 
L 201.595993 66.805714 
L 209.221224 64.995429 
L 216.846456 66.051429 
L 224.471688 67.409143 
L 232.09692 64.995429 
L 239.722152 63.034286 
L 247.347384 65.297143 
L 254.972616 64.542857 
L 262.597848 65.146286 
L 270.22308 63.939429 
L 277.848312 64.844571 
L 285.473544 63.637714 
L 293.098776 63.336 
L 300.724007 64.693714 
L 308.349239 61.978286 
L 315.974471 62.28 
L 323.599703 61.224 
L 331.224935 63.034286 
L 338.850167 63.939429 
L 346.475399 61.676571 
L 354.100631 61.827429 
L 361.725863 63.486857 
L 369.351095 62.581714 
L 376.976327 61.827429 
L 384.601558 63.939429 
L 392.22679 63.637714 
L 399.852022 64.090286 
L 407.477254 62.732571 
L 415.102486 63.185143 
L 422.727718 63.185143 
L 430.35295 61.978286 
L 437.978182 63.637714 
" clip-path="url(#p990ea1743c)" style="fill: none; stroke-dasharray: 4.07,1.76; stroke-dashoffset: 0; stroke: #2a788e; stroke-opacity: 0.85; stroke-width: 1.1"/>
   </g>
   <g id="line2d_20">
    <path d="M 64.341818 90.339429 
L 71.96705 78.874286 
L 79.592282 75.555429 
L 87.217514 74.046857 
L 94.842746 73.745143 
L 102.467978 73.292571 
L 110.09321 74.197714 
L 117.718442 69.370286 
L 125.343673 70.878857 
L 132.968905 71.482286 
L 140.594137 71.633143 
L 148.219369 71.482286 
L 155.844601 69.068571 
L 163.469833 68.616 
L 171.095065 69.068571 
L 178.720297 70.426286 
L 186.345529 67.56 
L 193.970761 66.805714 
L 201.595993 68.163429 
L 209.221224 65.749714 
L 216.846456 66.353143 
L 224.471688 67.107429 
L 232.09692 67.56 
L 239.722152 64.844571 
L 247.347384 66.202286 
L 254.972616 66.353143 
L 262.597848 66.353143 
L 270.22308 64.241143 
L 277.848312 64.693714 
L 285.473544 64.995429 
L 293.098776 64.542857 
L 300.724007 64.542857 
L 308.349239 63.486857 
L 315.974471 63.939429 
L 323.599703 63.185143 
L 331.224935 63.637714 
L 338.850167 64.995429 
L 346.475399 63.637714 
L 354.100631 62.581714 
L 361.725863 63.336 
L 369.351095 63.336 
L 376.976327 62.732571 
L 384.601558 64.693714 
L 392.22679 64.542857 
L 399.852022 63.486857 
L 407.477254 63.788571 
L 415.102486 62.430857 
L 422.727718 63.034286 
L 430.35295 62.883429 
L 437.978182 62.732571 
" clip-path="url(#p990ea1743c)" style="fill: none; stroke-dasharray: 4.07,1.76; stroke-dashoffset: 0; stroke: #2a788e; stroke-opacity: 0.85; stroke-width: 1.1"/>
   </g>
   <g id="line2d_21">
    <path d="M 64.341818 87.473143 
L 71.96705 77.365714 
L 79.592282 71.331429 
L 87.217514 66.956571 
L 94.842746 68.314286 
L 102.467978 68.012571 
L 110.09321 69.822857 
L 117.718442 67.710857 
L 125.343673 67.56 
L 132.968905 66.956571 
L 140.594137 68.163429 
L 148.219369 67.56 
L 155.844601 68.917714 
L 163.469833 66.504 
L 171.095065 66.654857 
L 178.720297 67.107429 
L 186.345529 69.219429 
L 193.970761 66.202286 
L 201.595993 67.107429 
L 209.221224 65.297143 
L 216.846456 66.353143 
L 224.471688 66.051429 
L 232.09692 66.353143 
L 239.722152 65.900571 
L 247.347384 65.448 
L 254.972616 65.297143 
L 262.597848 64.542857 
L 270.22308 65.598857 
L 277.848312 65.749714 
L 285.473544 64.844571 
L 293.098776 64.844571 
L 300.724007 64.241143 
L 308.349239 63.788571 
L 315.974471 64.844571 
L 323.599703 63.185143 
L 331.224935 63.788571 
L 338.850167 63.788571 
L 346.475399 62.28 
L 354.100631 63.486857 
L 361.725863 63.637714 
L 369.351095 61.827429 
L 376.976327 63.185143 
L 384.601558 63.788571 
L 392.22679 63.034286 
L 399.852022 62.581714 
L 407.477254 63.185143 
L 415.102486 63.034286 
L 422.727718 63.788571 
L 430.35295 62.581714 
L 437.978182 63.034286 
" clip-path="url(#p990ea1743c)" style="fill: none; stroke-dasharray: 4.07,1.76; stroke-dashoffset: 0; stroke: #2a788e; stroke-opacity: 0.85; stroke-width: 1.1"/>
   </g>
   <g id="line2d_22">
    <path d="M 64.341818 96.222857 
L 71.96705 87.774857 
L 79.592282 82.645714 
L 87.217514 80.382857 
L 94.842746 81.438857 
L 102.467978 78.874286 
L 110.09321 82.645714 
L 117.718442 82.344 
L 125.343673 83.098286 
L 132.968905 80.684571 
L 140.594137 82.042286 
L 148.219369 81.438857 
L 155.844601 82.494857 
L 163.469833 84.154286 
L 171.095065 81.438857 
L 178.720297 82.645714 
L 186.345529 82.193143 
L 193.970761 82.947429 
L 201.595993 83.098286 
L 209.221224 82.344 
L 216.846456 82.796571 
L 224.471688 81.740571 
L 232.09692 82.947429 
L 239.722152 81.288 
L 247.347384 83.701714 
L 254.972616 83.249143 
L 262.597848 84.606857 
L 270.22308 82.193143 
L 277.848312 83.249143 
L 285.473544 82.947429 
L 293.098776 83.852571 
L 300.724007 82.947429 
L 308.349239 82.193143 
L 315.974471 82.494857 
L 323.599703 82.344 
L 331.224935 82.645714 
L 338.850167 84.003429 
L 346.475399 84.003429 
L 354.100631 82.494857 
L 361.725863 84.456 
L 369.351095 82.344 
L 376.976327 82.193143 
L 384.601558 82.645714 
L 392.22679 82.796571 
L 399.852022 83.249143 
L 407.477254 82.193143 
L 415.102486 83.4 
L 422.727718 82.645714 
L 430.35295 82.947429 
L 437.978182 81.438857 
" clip-path="url(#p990ea1743c)" style="fill: none; stroke-dasharray: 4.07,1.76; stroke-dashoffset: 0; stroke: #22a884; stroke-opacity: 0.85; stroke-width: 1.1"/>
   </g>
   <g id="line2d_23">
    <path d="M 64.341818 100.597714 
L 71.96705 85.512 
L 79.592282 84.154286 
L 87.217514 82.645714 
L 94.842746 84.003429 
L 102.467978 83.098286 
L 110.09321 86.266286 
L 117.718442 81.438857 
L 125.343673 82.645714 
L 132.968905 83.701714 
L 140.594137 85.210286 
L 148.219369 85.512 
L 155.844601 83.4 
L 163.469833 83.4 
L 171.095065 80.835429 
L 178.720297 84.154286 
L 186.345529 82.344 
L 193.970761 82.494857 
L 201.595993 82.494857 
L 209.221224 80.986286 
L 216.846456 82.645714 
L 224.471688 82.042286 
L 232.09692 82.042286 
L 239.722152 82.344 
L 247.347384 82.947429 
L 254.972616 84.456 
L 262.597848 84.154286 
L 270.22308 84.305143 
L 277.848312 83.852571 
L 285.473544 83.249143 
L 293.098776 83.550857 
L 300.724007 83.098286 
L 308.349239 81.891429 
L 315.974471 83.4 
L 323.599703 83.098286 
L 331.224935 85.059429 
L 338.850167 83.249143 
L 346.475399 83.550857 
L 354.100631 82.947429 
L 361.725863 83.249143 
L 369.351095 82.193143 
L 376.976327 83.550857 
L 384.601558 82.042286 
L 392.22679 81.589714 
L 399.852022 84.154286 
L 407.477254 83.550857 
L 415.102486 83.4 
L 422.727718 84.154286 
L 430.35295 83.249143 
L 437.978182 83.701714 
" clip-path="url(#p990ea1743c)" style="fill: none; stroke-dasharray: 4.07,1.76; stroke-dashoffset: 0; stroke: #22a884; stroke-opacity: 0.85; stroke-width: 1.1"/>
   </g>
   <g id="line2d_24">
    <path d="M 64.341818 93.507429 
L 71.96705 80.684571 
L 79.592282 77.064 
L 87.217514 76.762286 
L 94.842746 77.818286 
L 102.467978 81.137143 
L 110.09321 83.098286 
L 117.718442 78.874286 
L 125.343673 80.986286 
L 132.968905 84.154286 
L 140.594137 84.003429 
L 148.219369 81.589714 
L 155.844601 83.550857 
L 163.469833 82.494857 
L 171.095065 83.550857 
L 178.720297 84.456 
L 186.345529 84.003429 
L 193.970761 81.438857 
L 201.595993 83.4 
L 209.221224 82.796571 
L 216.846456 83.4 
L 224.471688 82.796571 
L 232.09692 82.494857 
L 239.722152 82.947429 
L 247.347384 84.606857 
L 254.972616 84.003429 
L 262.597848 84.003429 
L 270.22308 81.137143 
L 277.848312 81.589714 
L 285.473544 81.891429 
L 293.098776 80.684571 
L 300.724007 81.438857 
L 308.349239 81.137143 
L 315.974471 82.344 
L 323.599703 80.986286 
L 331.224935 81.288 
L 338.850167 80.986286 
L 346.475399 81.740571 
L 354.100631 81.740571 
L 361.725863 82.494857 
L 369.351095 81.438857 
L 376.976327 80.382857 
L 384.601558 80.232 
L 392.22679 79.930286 
L 399.852022 82.193143 
L 407.477254 81.137143 
L 415.102486 79.779429 
L 422.727718 81.288 
L 430.35295 82.494857 
L 437.978182 82.796571 
" clip-path="url(#p990ea1743c)" style="fill: none; stroke-dasharray: 4.07,1.76; stroke-dashoffset: 0; stroke: #22a884; stroke-opacity: 0.85; stroke-width: 1.1"/>
   </g>
   <g id="line2d_25">
    <path d="M 64.341818 101.804571 
L 71.96705 92.451429 
L 79.592282 89.585143 
L 87.217514 86.869714 
L 94.842746 87.171429 
L 102.467978 89.434286 
L 110.09321 91.093714 
L 117.718442 90.641143 
L 125.343673 90.339429 
L 132.968905 91.244571 
L 140.594137 90.037714 
L 148.219369 90.188571 
L 155.844601 91.395429 
L 163.469833 92.300571 
L 171.095065 90.339429 
L 178.720297 91.546286 
L 186.345529 93.658286 
L 193.970761 93.658286 
L 201.595993 93.658286 
L 209.221224 92.149714 
L 216.846456 91.697143 
L 224.471688 92.300571 
L 232.09692 93.96 
L 239.722152 91.546286 
L 247.347384 94.261714 
L 254.972616 93.054857 
L 262.597848 94.714286 
L 270.22308 92.602286 
L 277.848312 94.412571 
L 285.473544 95.166857 
L 293.098776 94.110857 
L 300.724007 93.96 
L 308.349239 95.016 
L 315.974471 92.753143 
L 323.599703 92.300571 
L 331.224935 93.809143 
L 338.850167 94.563429 
L 346.475399 93.809143 
L 354.100631 91.848 
L 361.725863 92.149714 
L 369.351095 91.998857 
L 376.976327 93.507429 
L 384.601558 92.904 
L 392.22679 91.395429 
L 399.852022 92.149714 
L 407.477254 92.451429 
L 415.102486 92.602286 
L 422.727718 91.848 
L 430.35295 93.96 
L 437.978182 93.054857 
" clip-path="url(#p990ea1743c)" style="fill: none; stroke-dasharray: 4.07,1.76; stroke-dashoffset: 0; stroke: #7ad151; stroke-opacity: 0.85; stroke-width: 1.1"/>
   </g>
   <g id="line2d_26">
    <path d="M 64.341818 101.653714 
L 71.96705 90.037714 
L 79.592282 92.753143 
L 87.217514 91.848 
L 94.842746 88.981714 
L 102.467978 87.925714 
L 110.09321 89.886857 
L 117.718442 88.68 
L 125.343673 88.830857 
L 132.968905 88.68 
L 140.594137 90.792 
L 148.219369 89.736 
L 155.844601 90.339429 
L 163.469833 87.624 
L 171.095065 88.529143 
L 178.720297 91.244571 
L 186.345529 91.395429 
L 193.970761 90.641143 
L 201.595993 91.093714 
L 209.221224 88.830857 
L 216.846456 92.602286 
L 224.471688 90.641143 
L 232.09692 91.395429 
L 239.722152 93.054857 
L 247.347384 94.110857 
L 254.972616 93.205714 
L 262.597848 90.490286 
L 270.22308 90.792 
L 277.848312 91.998857 
L 285.473544 91.998857 
L 293.098776 91.093714 
L 300.724007 91.998857 
L 308.349239 93.054857 
L 315.974471 93.96 
L 323.599703 92.451429 
L 331.224935 93.054857 
L 338.850167 93.507429 
L 346.475399 96.373714 
L 354.100631 94.412571 
L 361.725863 93.054857 
L 369.351095 93.658286 
L 376.976327 93.507429 
L 384.601558 93.054857 
L 392.22679 90.942857 
L 399.852022 91.697143 
L 407.477254 90.641143 
L 415.102486 91.697143 
L 422.727718 90.792 
L 430.35295 88.378286 
L 437.978182 89.283429 
" clip-path="url(#p990ea1743c)" style="fill: none; stroke-dasharray: 4.07,1.76; stroke-dashoffset: 0; stroke: #7ad151; stroke-opacity: 0.85; stroke-width: 1.1"/>
   </g>
   <g id="line2d_27">
    <path d="M 64.341818 100.748571 
L 71.96705 86.417143 
L 79.592282 89.886857 
L 87.217514 86.718857 
L 94.842746 88.529143 
L 102.467978 85.813714 
L 110.09321 91.697143 
L 117.718442 89.283429 
L 125.343673 91.093714 
L 132.968905 90.037714 
L 140.594137 91.848 
L 148.219369 90.490286 
L 155.844601 93.054857 
L 163.469833 92.149714 
L 171.095065 93.809143 
L 178.720297 92.602286 
L 186.345529 95.921143 
L 193.970761 93.205714 
L 201.595993 93.809143 
L 209.221224 92.602286 
L 216.846456 94.110857 
L 224.471688 93.809143 
L 232.09692 92.602286 
L 239.722152 91.697143 
L 247.347384 92.904 
L 254.972616 94.865143 
L 262.597848 94.563429 
L 270.22308 91.546286 
L 277.848312 91.546286 
L 285.473544 92.602286 
L 293.098776 91.244571 
L 300.724007 92.753143 
L 308.349239 93.205714 
L 315.974471 90.942857 
L 323.599703 93.507429 
L 331.224935 93.658286 
L 338.850167 94.563429 
L 346.475399 92.451429 
L 354.100631 91.395429 
L 361.725863 93.96 
L 369.351095 91.998857 
L 376.976327 93.054857 
L 384.601558 91.244571 
L 392.22679 92.149714 
L 399.852022 91.998857 
L 407.477254 92.753143 
L 415.102486 92.149714 
L 422.727718 91.244571 
L 430.35295 92.451429 
L 437.978182 90.792 
" clip-path="url(#p990ea1743c)" style="fill: none; stroke-dasharray: 4.07,1.76; stroke-dashoffset: 0; stroke: #7ad151; stroke-opacity: 0.85; stroke-width: 1.1"/>
   </g>
   <g id="line2d_28">
    <path d="M 64.341818 108.291429 
L 71.96705 99.541714 
L 79.592282 102.408 
L 87.217514 102.709714 
L 94.842746 101.502857 
L 102.467978 101.955429 
L 110.09321 105.274286 
L 117.718442 102.558857 
L 125.343673 102.408 
L 132.968905 103.916571 
L 140.594137 101.653714 
L 148.219369 100.296 
L 155.844601 103.162286 
L 163.469833 102.860571 
L 171.095065 101.955429 
L 178.720297 104.067429 
L 186.345529 104.067429 
L 193.970761 103.614857 
L 201.595993 104.218286 
L 209.221224 100.145143 
L 216.846456 104.067429 
L 224.471688 104.972571 
L 232.09692 103.916571 
L 239.722152 103.162286 
L 247.347384 102.709714 
L 254.972616 105.425143 
L 262.597848 102.257143 
L 270.22308 102.257143 
L 277.848312 104.218286 
L 285.473544 106.028571 
L 293.098776 104.670857 
L 300.724007 102.709714 
L 308.349239 103.614857 
L 315.974471 104.972571 
L 323.599703 102.860571 
L 331.224935 103.916571 
L 338.850167 103.313143 
L 346.475399 102.257143 
L 354.100631 103.916571 
L 361.725863 102.257143 
L 369.351095 103.162286 
L 376.976327 104.218286 
L 384.601558 105.123429 
L 392.22679 103.464 
L 399.852022 102.558857 
L 407.477254 102.408 
L 415.102486 102.558857 
L 422.727718 101.352 
L 430.35295 102.106286 
L 437.978182 101.955429 
" clip-path="url(#p990ea1743c)" style="fill: none; stroke-dasharray: 4.07,1.76; stroke-dashoffset: 0; stroke: #fde725; stroke-opacity: 0.85; stroke-width: 1.1"/>
   </g>
   <g id="line2d_29">
    <path d="M 64.341818 105.726857 
L 71.96705 99.843429 
L 79.592282 101.804571 
L 87.217514 102.558857 
L 94.842746 101.653714 
L 102.467978 103.313143 
L 110.09321 103.765714 
L 117.718442 106.782857 
L 125.343673 103.614857 
L 132.968905 100.446857 
L 140.594137 101.653714 
L 148.219369 103.162286 
L 155.844601 104.670857 
L 163.469833 104.369143 
L 171.095065 103.765714 
L 178.720297 104.067429 
L 186.345529 107.838857 
L 193.970761 104.067429 
L 201.595993 103.916571 
L 209.221224 100.899429 
L 216.846456 106.933714 
L 224.471688 104.369143 
L 232.09692 105.576 
L 239.722152 105.726857 
L 247.347384 101.804571 
L 254.972616 104.067429 
L 262.597848 103.162286 
L 270.22308 103.614857 
L 277.848312 104.972571 
L 285.473544 105.123429 
L 293.098776 103.313143 
L 300.724007 104.369143 
L 308.349239 104.52 
L 315.974471 104.067429 
L 323.599703 103.162286 
L 331.224935 104.52 
L 338.850167 103.765714 
L 346.475399 105.123429 
L 354.100631 103.765714 
L 361.725863 102.558857 
L 369.351095 101.201143 
L 376.976327 101.201143 
L 384.601558 101.502857 
L 392.22679 103.313143 
L 399.852022 104.067429 
L 407.477254 100.748571 
L 415.102486 103.162286 
L 422.727718 102.106286 
L 430.35295 102.257143 
L 437.978182 101.804571 
" clip-path="url(#p990ea1743c)" style="fill: none; stroke-dasharray: 4.07,1.76; stroke-dashoffset: 0; stroke: #fde725; stroke-opacity: 0.85; stroke-width: 1.1"/>
   </g>
   <g id="line2d_30">
    <path d="M 64.341818 107.386286 
L 71.96705 100.446857 
L 79.592282 98.636571 
L 87.217514 97.429714 
L 94.842746 100.296 
L 102.467978 102.709714 
L 110.09321 102.106286 
L 117.718442 100.597714 
L 125.343673 103.011429 
L 132.968905 101.201143 
L 140.594137 103.464 
L 148.219369 102.257143 
L 155.844601 103.614857 
L 163.469833 103.011429 
L 171.095065 102.257143 
L 178.720297 103.614857 
L 186.345529 104.369143 
L 193.970761 103.916571 
L 201.595993 104.821714 
L 209.221224 103.313143 
L 216.846456 104.821714 
L 224.471688 104.067429 
L 232.09692 102.860571 
L 239.722152 104.218286 
L 247.347384 103.313143 
L 254.972616 104.52 
L 262.597848 105.726857 
L 270.22308 105.877714 
L 277.848312 102.709714 
L 285.473544 103.916571 
L 293.098776 103.464 
L 300.724007 102.860571 
L 308.349239 104.52 
L 315.974471 103.011429 
L 323.599703 102.106286 
L 331.224935 102.257143 
L 338.850167 101.804571 
L 346.475399 103.162286 
L 354.100631 102.558857 
L 361.725863 102.257143 
L 369.351095 102.860571 
L 376.976327 101.955429 
L 384.601558 105.123429 
L 392.22679 102.709714 
L 399.852022 103.464 
L 407.477254 102.860571 
L 415.102486 103.765714 
L 422.727718 100.899429 
L 430.35295 101.804571 
L 437.978182 104.670857 
" clip-path="url(#p990ea1743c)" style="fill: none; stroke-dasharray: 4.07,1.76; stroke-dashoffset: 0; stroke: #fde725; stroke-opacity: 0.85; stroke-width: 1.1"/>
   </g>
   <g id="line2d_31">
    <path d="M 64.341818 56.547429 
L 71.96705 44.629714 
L 79.592282 41.310857 
L 87.217514 40.254857 
L 94.842746 38.746286 
L 102.467978 38.293714 
L 110.09321 37.086857 
L 117.718442 37.690286 
L 125.343673 38.595429 
L 132.968905 37.237714 
L 140.594137 36.634286 
L 148.219369 36.936 
L 155.844601 36.181714 
L 163.469833 36.181714 
L 171.095065 36.785143 
L 178.720297 36.634286 
L 186.345529 34.673143 
L 193.970761 36.634286 
L 201.595993 35.578286 
L 209.221224 35.427429 
L 216.846456 35.578286 
L 224.471688 34.220571 
L 232.09692 35.427429 
L 239.722152 34.824 
L 247.347384 35.125714 
L 254.972616 34.220571 
L 262.597848 33.617143 
L 270.22308 33.918857 
L 277.848312 34.824 
L 285.473544 33.617143 
L 293.098776 34.220571 
L 300.724007 32.862857 
L 308.349239 34.371429 
L 315.974471 34.069714 
L 323.599703 34.220571 
L 331.224935 34.974857 
L 338.850167 35.125714 
L 346.475399 34.069714 
L 354.100631 34.069714 
L 361.725863 34.522286 
L 369.351095 33.315429 
L 376.976327 33.768 
L 384.601558 34.220571 
L 392.22679 34.824 
L 399.852022 34.069714 
L 407.477254 34.220571 
L 415.102486 35.125714 
L 422.727718 33.315429 
L 430.35295 33.013714 
L 437.978182 33.768 
" clip-path="url(#p990ea1743c)" style="fill: none; stroke: #440154; stroke-opacity: 0.85; stroke-width: 1.1; stroke-linejoin: miter"/>
   </g>
   <g id="line2d_32">
    <path d="M 64.341818 59.564571 
L 71.96705 44.780571 
L 79.592282 41.009143 
L 87.217514 39.048 
L 94.842746 37.690286 
L 102.467978 39.048 
L 110.09321 37.539429 
L 117.718442 38.293714 
L 125.343673 38.142857 
L 132.968905 38.444571 
L 140.594137 36.634286 
L 148.219369 36.483429 
L 155.844601 35.578286 
L 163.469833 35.88 
L 171.095065 36.181714 
L 178.720297 37.237714 
L 186.345529 34.522286 
L 193.970761 34.824 
L 201.595993 35.578286 
L 209.221224 35.276571 
L 216.846456 34.673143 
L 224.471688 34.220571 
L 232.09692 34.220571 
L 239.722152 35.427429 
L 247.347384 34.220571 
L 254.972616 33.918857 
L 262.597848 33.164571 
L 270.22308 33.918857 
L 277.848312 33.315429 
L 285.473544 33.315429 
L 293.098776 33.013714 
L 300.724007 32.561143 
L 308.349239 34.069714 
L 315.974471 34.220571 
L 323.599703 34.069714 
L 331.224935 33.768 
L 338.850167 34.220571 
L 346.475399 34.371429 
L 354.100631 33.466286 
L 361.725863 34.220571 
L 369.351095 34.371429 
L 376.976327 34.371429 
L 384.601558 34.824 
L 392.22679 35.125714 
L 399.852022 34.824 
L 407.477254 34.371429 
L 415.102486 34.522286 
L 422.727718 34.974857 
L 430.35295 33.918857 
L 437.978182 33.466286 
" clip-path="url(#p990ea1743c)" style="fill: none; stroke: #440154; stroke-opacity: 0.85; stroke-width: 1.1; stroke-linejoin: miter"/>
   </g>
   <g id="line2d_33">
    <path d="M 64.341818 56.245714 
L 71.96705 45.534857 
L 79.592282 42.065143 
L 87.217514 38.746286 
L 94.842746 39.349714 
L 102.467978 38.293714 
L 110.09321 37.237714 
L 117.718442 37.539429 
L 125.343673 36.936 
L 132.968905 37.690286 
L 140.594137 37.690286 
L 148.219369 36.181714 
L 155.844601 36.332571 
L 163.469833 35.276571 
L 171.095065 35.578286 
L 178.720297 35.88 
L 186.345529 35.276571 
L 193.970761 35.427429 
L 201.595993 34.371429 
L 209.221224 35.578286 
L 216.846456 35.125714 
L 224.471688 36.181714 
L 232.09692 36.483429 
L 239.722152 33.617143 
L 247.347384 34.974857 
L 254.972616 32.259429 
L 262.597848 33.164571 
L 270.22308 33.768 
L 277.848312 32.561143 
L 285.473544 33.164571 
L 293.098776 33.164571 
L 300.724007 34.371429 
L 308.349239 34.673143 
L 315.974471 34.371429 
L 323.599703 33.466286 
L 331.224935 33.617143 
L 338.850167 35.125714 
L 346.475399 35.427429 
L 354.100631 33.768 
L 361.725863 34.673143 
L 369.351095 33.918857 
L 376.976327 33.918857 
L 384.601558 35.729143 
L 392.22679 34.522286 
L 399.852022 34.522286 
L 407.477254 33.466286 
L 415.102486 35.125714 
L 422.727718 34.522286 
L 430.35295 34.069714 
L 437.978182 33.617143 
" clip-path="url(#p990ea1743c)" style="fill: none; stroke: #440154; stroke-opacity: 0.85; stroke-width: 1.1; stroke-linejoin: miter"/>
   </g>
   <g id="line2d_34">
    <path d="M 64.341818 56.547429 
L 71.96705 44.629714 
L 79.592282 41.16 
L 87.217514 40.104 
L 94.842746 39.349714 
L 102.467978 38.595429 
L 110.09321 38.444571 
L 117.718442 36.936 
L 125.343673 37.539429 
L 132.968905 37.992 
L 140.594137 36.030857 
L 148.219369 36.332571 
L 155.844601 37.539429 
L 163.469833 35.88 
L 171.095065 37.690286 
L 178.720297 36.936 
L 186.345529 35.427429 
L 193.970761 35.276571 
L 201.595993 35.729143 
L 209.221224 34.673143 
L 216.846456 36.332571 
L 224.471688 35.729143 
L 232.09692 35.88 
L 239.722152 33.013714 
L 247.347384 34.673143 
L 254.972616 34.371429 
L 262.597848 33.768 
L 270.22308 34.220571 
L 277.848312 34.069714 
L 285.473544 34.824 
L 293.098776 33.918857 
L 300.724007 34.522286 
L 308.349239 34.069714 
L 315.974471 35.276571 
L 323.599703 34.824 
L 331.224935 34.371429 
L 338.850167 34.522286 
L 346.475399 34.069714 
L 354.100631 33.466286 
L 361.725863 33.315429 
L 369.351095 32.862857 
L 376.976327 33.768 
L 384.601558 35.125714 
L 392.22679 34.371429 
L 399.852022 34.220571 
L 407.477254 35.276571 
L 415.102486 34.371429 
L 422.727718 33.918857 
L 430.35295 33.918857 
L 437.978182 33.315429 
" clip-path="url(#p990ea1743c)" style="fill: none; stroke: #414487; stroke-opacity: 0.85; stroke-width: 1.1; stroke-linejoin: miter"/>
   </g>
   <g id="line2d_35">
    <path d="M 64.341818 59.564571 
L 71.96705 44.780571 
L 79.592282 41.009143 
L 87.217514 39.048 
L 94.842746 37.690286 
L 102.467978 39.048 
L 110.09321 37.539429 
L 117.718442 38.142857 
L 125.343673 38.293714 
L 132.968905 38.293714 
L 140.594137 37.086857 
L 148.219369 35.427429 
L 155.844601 35.276571 
L 163.469833 36.634286 
L 171.095065 34.824 
L 178.720297 37.086857 
L 186.345529 34.522286 
L 193.970761 34.673143 
L 201.595993 36.483429 
L 209.221224 35.125714 
L 216.846456 35.88 
L 224.471688 34.673143 
L 232.09692 34.673143 
L 239.722152 34.371429 
L 247.347384 34.220571 
L 254.972616 34.220571 
L 262.597848 34.522286 
L 270.22308 33.918857 
L 277.848312 34.371429 
L 285.473544 33.164571 
L 293.098776 33.918857 
L 300.724007 32.712 
L 308.349239 33.013714 
L 315.974471 34.371429 
L 323.599703 34.371429 
L 331.224935 34.522286 
L 338.850167 33.617143 
L 346.475399 34.069714 
L 354.100631 33.013714 
L 361.725863 33.466286 
L 369.351095 33.466286 
L 376.976327 33.918857 
L 384.601558 33.768 
L 392.22679 34.371429 
L 399.852022 34.069714 
L 407.477254 34.974857 
L 415.102486 35.578286 
L 422.727718 33.918857 
L 430.35295 35.427429 
L 437.978182 34.069714 
" clip-path="url(#p990ea1743c)" style="fill: none; stroke: #414487; stroke-opacity: 0.85; stroke-width: 1.1; stroke-linejoin: miter"/>
   </g>
   <g id="line2d_36">
    <path d="M 64.341818 56.245714 
L 71.96705 45.534857 
L 79.592282 42.065143 
L 87.217514 38.746286 
L 94.842746 39.349714 
L 102.467978 38.746286 
L 110.09321 37.237714 
L 117.718442 37.539429 
L 125.343673 37.237714 
L 132.968905 37.388571 
L 140.594137 37.841143 
L 148.219369 37.086857 
L 155.844601 36.181714 
L 163.469833 35.427429 
L 171.095065 34.974857 
L 178.720297 36.634286 
L 186.345529 35.88 
L 193.970761 35.729143 
L 201.595993 35.427429 
L 209.221224 34.371429 
L 216.846456 36.785143 
L 224.471688 35.88 
L 232.09692 34.673143 
L 239.722152 34.824 
L 247.347384 35.125714 
L 254.972616 34.220571 
L 262.597848 33.315429 
L 270.22308 34.522286 
L 277.848312 33.768 
L 285.473544 32.862857 
L 293.098776 32.561143 
L 300.724007 33.466286 
L 308.349239 33.617143 
L 315.974471 33.617143 
L 323.599703 32.410286 
L 331.224935 33.768 
L 338.850167 33.918857 
L 346.475399 34.673143 
L 354.100631 33.013714 
L 361.725863 34.522286 
L 369.351095 33.768 
L 376.976327 32.410286 
L 384.601558 33.768 
L 392.22679 34.974857 
L 399.852022 34.974857 
L 407.477254 33.315429 
L 415.102486 34.069714 
L 422.727718 34.220571 
L 430.35295 35.125714 
L 437.978182 33.617143 
" clip-path="url(#p990ea1743c)" style="fill: none; stroke: #414487; stroke-opacity: 0.85; stroke-width: 1.1; stroke-linejoin: miter"/>
   </g>
   <g id="line2d_37">
    <path d="M 64.341818 55.189714 
L 71.96705 44.629714 
L 79.592282 41.16 
L 87.217514 40.858286 
L 94.842746 38.595429 
L 102.467978 38.142857 
L 110.09321 37.690286 
L 117.718442 37.690286 
L 125.343673 35.729143 
L 132.968905 37.690286 
L 140.594137 37.237714 
L 148.219369 37.086857 
L 155.844601 37.539429 
L 163.469833 36.181714 
L 171.095065 37.237714 
L 178.720297 37.086857 
L 186.345529 35.88 
L 193.970761 37.539429 
L 201.595993 36.332571 
L 209.221224 35.88 
L 216.846456 36.785143 
L 224.471688 37.992 
L 232.09692 37.992 
L 239.722152 36.483429 
L 247.347384 37.086857 
L 254.972616 37.237714 
L 262.597848 35.125714 
L 270.22308 36.936 
L 277.848312 34.824 
L 285.473544 35.125714 
L 293.098776 34.371429 
L 300.724007 34.824 
L 308.349239 34.522286 
L 315.974471 35.276571 
L 323.599703 34.824 
L 331.224935 33.466286 
L 338.850167 34.824 
L 346.475399 33.918857 
L 354.100631 33.617143 
L 361.725863 33.918857 
L 369.351095 34.824 
L 376.976327 34.522286 
L 384.601558 34.673143 
L 392.22679 34.069714 
L 399.852022 34.673143 
L 407.477254 34.371429 
L 415.102486 35.427429 
L 422.727718 34.220571 
L 430.35295 33.013714 
L 437.978182 32.259429 
" clip-path="url(#p990ea1743c)" style="fill: none; stroke: #2a788e; stroke-opacity: 0.85; stroke-width: 1.1; stroke-linejoin: miter"/>
   </g>
   <g id="line2d_38">
    <path d="M 64.341818 56.849143 
L 71.96705 45.534857 
L 79.592282 41.310857 
L 87.217514 40.254857 
L 94.842746 39.048 
L 102.467978 38.595429 
L 110.09321 38.444571 
L 117.718442 37.086857 
L 125.343673 37.086857 
L 132.968905 38.293714 
L 140.594137 37.841143 
L 148.219369 38.142857 
L 155.844601 37.388571 
L 163.469833 39.048 
L 171.095065 36.785143 
L 178.720297 37.539429 
L 186.345529 36.936 
L 193.970761 37.539429 
L 201.595993 36.634286 
L 209.221224 34.824 
L 216.846456 36.634286 
L 224.471688 37.237714 
L 232.09692 37.992 
L 239.722152 35.88 
L 247.347384 36.332571 
L 254.972616 35.276571 
L 262.597848 34.824 
L 270.22308 35.427429 
L 277.848312 33.918857 
L 285.473544 35.276571 
L 293.098776 35.729143 
L 300.724007 33.315429 
L 308.349239 34.974857 
L 315.974471 35.276571 
L 323.599703 34.371429 
L 331.224935 34.220571 
L 338.850167 34.673143 
L 346.475399 34.522286 
L 354.100631 34.522286 
L 361.725863 34.974857 
L 369.351095 34.824 
L 376.976327 33.617143 
L 384.601558 33.768 
L 392.22679 33.768 
L 399.852022 33.768 
L 407.477254 35.125714 
L 415.102486 33.768 
L 422.727718 32.712 
L 430.35295 33.918857 
L 437.978182 32.561143 
" clip-path="url(#p990ea1743c)" style="fill: none; stroke: #2a788e; stroke-opacity: 0.85; stroke-width: 1.1; stroke-linejoin: miter"/>
   </g>
   <g id="line2d_39">
    <path d="M 64.341818 56.245714 
L 71.96705 45.233143 
L 79.592282 42.216 
L 87.217514 40.254857 
L 94.842746 37.992 
L 102.467978 38.897143 
L 110.09321 37.841143 
L 117.718442 37.690286 
L 125.343673 36.181714 
L 132.968905 37.086857 
L 140.594137 36.936 
L 148.219369 37.237714 
L 155.844601 36.483429 
L 163.469833 37.841143 
L 171.095065 36.634286 
L 178.720297 36.634286 
L 186.345529 35.88 
L 193.970761 36.634286 
L 201.595993 35.88 
L 209.221224 36.181714 
L 216.846456 36.483429 
L 224.471688 36.181714 
L 232.09692 36.332571 
L 239.722152 35.427429 
L 247.347384 35.88 
L 254.972616 35.729143 
L 262.597848 34.974857 
L 270.22308 34.974857 
L 277.848312 33.466286 
L 285.473544 34.974857 
L 293.098776 34.522286 
L 300.724007 34.522286 
L 308.349239 35.125714 
L 315.974471 35.427429 
L 323.599703 35.125714 
L 331.224935 34.220571 
L 338.850167 35.578286 
L 346.475399 35.578286 
L 354.100631 33.768 
L 361.725863 34.220571 
L 369.351095 33.768 
L 376.976327 33.617143 
L 384.601558 33.164571 
L 392.22679 33.768 
L 399.852022 34.220571 
L 407.477254 34.220571 
L 415.102486 34.069714 
L 422.727718 34.371429 
L 430.35295 33.013714 
L 437.978182 32.862857 
" clip-path="url(#p990ea1743c)" style="fill: none; stroke: #2a788e; stroke-opacity: 0.85; stroke-width: 1.1; stroke-linejoin: miter"/>
   </g>
   <g id="line2d_40">
    <path d="M 64.341818 55.340571 
L 71.96705 46.138286 
L 79.592282 42.668571 
L 87.217514 40.858286 
L 94.842746 40.556571 
L 102.467978 40.556571 
L 110.09321 39.651429 
L 117.718442 38.897143 
L 125.343673 38.746286 
L 132.968905 39.198857 
L 140.594137 37.690286 
L 148.219369 38.444571 
L 155.844601 37.841143 
L 163.469833 37.841143 
L 171.095065 37.992 
L 178.720297 38.746286 
L 186.345529 37.388571 
L 193.970761 37.237714 
L 201.595993 37.690286 
L 209.221224 36.936 
L 216.846456 37.086857 
L 224.471688 37.690286 
L 232.09692 36.332571 
L 239.722152 37.539429 
L 247.347384 37.539429 
L 254.972616 35.729143 
L 262.597848 36.030857 
L 270.22308 36.634286 
L 277.848312 35.578286 
L 285.473544 37.086857 
L 293.098776 36.785143 
L 300.724007 37.388571 
L 308.349239 36.634286 
L 315.974471 36.181714 
L 323.599703 35.578286 
L 331.224935 36.332571 
L 338.850167 37.237714 
L 346.475399 36.483429 
L 354.100631 36.785143 
L 361.725863 36.785143 
L 369.351095 36.936 
L 376.976327 36.634286 
L 384.601558 36.483429 
L 392.22679 36.030857 
L 399.852022 36.785143 
L 407.477254 36.634286 
L 415.102486 36.332571 
L 422.727718 35.729143 
L 430.35295 36.634286 
L 437.978182 36.030857 
" clip-path="url(#p990ea1743c)" style="fill: none; stroke: #22a884; stroke-opacity: 0.85; stroke-width: 1.1; stroke-linejoin: miter"/>
   </g>
   <g id="line2d_41">
    <path d="M 64.341818 54.435429 
L 71.96705 46.590857 
L 79.592282 42.366857 
L 87.217514 40.104 
L 94.842746 40.405714 
L 102.467978 39.349714 
L 110.09321 38.746286 
L 117.718442 38.444571 
L 125.343673 38.595429 
L 132.968905 40.104 
L 140.594137 38.746286 
L 148.219369 38.595429 
L 155.844601 38.746286 
L 163.469833 37.388571 
L 171.095065 38.444571 
L 178.720297 37.539429 
L 186.345529 37.841143 
L 193.970761 37.690286 
L 201.595993 38.293714 
L 209.221224 38.293714 
L 216.846456 37.539429 
L 224.471688 37.690286 
L 232.09692 37.086857 
L 239.722152 37.690286 
L 247.347384 38.293714 
L 254.972616 36.483429 
L 262.597848 37.086857 
L 270.22308 36.634286 
L 277.848312 37.237714 
L 285.473544 37.086857 
L 293.098776 37.539429 
L 300.724007 36.332571 
L 308.349239 36.483429 
L 315.974471 37.086857 
L 323.599703 36.483429 
L 331.224935 36.483429 
L 338.850167 37.690286 
L 346.475399 36.030857 
L 354.100631 36.785143 
L 361.725863 36.332571 
L 369.351095 36.030857 
L 376.976327 35.88 
L 384.601558 36.181714 
L 392.22679 35.427429 
L 399.852022 35.578286 
L 407.477254 35.578286 
L 415.102486 37.086857 
L 422.727718 35.276571 
L 430.35295 35.729143 
L 437.978182 35.427429 
" clip-path="url(#p990ea1743c)" style="fill: none; stroke: #22a884; stroke-opacity: 0.85; stroke-width: 1.1; stroke-linejoin: miter"/>
   </g>
   <g id="line2d_42">
    <path d="M 64.341818 53.982857 
L 71.96705 46.289143 
L 79.592282 43.422857 
L 87.217514 40.858286 
L 94.842746 41.310857 
L 102.467978 40.556571 
L 110.09321 40.254857 
L 117.718442 40.254857 
L 125.343673 40.254857 
L 132.968905 38.897143 
L 140.594137 38.746286 
L 148.219369 37.841143 
L 155.844601 38.293714 
L 163.469833 37.539429 
L 171.095065 37.841143 
L 178.720297 37.539429 
L 186.345529 36.483429 
L 193.970761 36.936 
L 201.595993 37.388571 
L 209.221224 36.936 
L 216.846456 36.483429 
L 224.471688 36.936 
L 232.09692 35.729143 
L 239.722152 36.936 
L 247.347384 36.936 
L 254.972616 35.578286 
L 262.597848 36.181714 
L 270.22308 35.125714 
L 277.848312 36.181714 
L 285.473544 34.673143 
L 293.098776 36.634286 
L 300.724007 36.181714 
L 308.349239 36.181714 
L 315.974471 36.181714 
L 323.599703 36.483429 
L 331.224935 35.88 
L 338.850167 37.237714 
L 346.475399 35.88 
L 354.100631 36.785143 
L 361.725863 36.785143 
L 369.351095 36.483429 
L 376.976327 36.332571 
L 384.601558 35.276571 
L 392.22679 35.276571 
L 399.852022 36.181714 
L 407.477254 35.729143 
L 415.102486 36.936 
L 422.727718 35.729143 
L 430.35295 36.181714 
L 437.978182 35.276571 
" clip-path="url(#p990ea1743c)" style="fill: none; stroke: #22a884; stroke-opacity: 0.85; stroke-width: 1.1; stroke-linejoin: miter"/>
   </g>
   <g id="line2d_43">
    <path d="M 64.341818 57.452571 
L 71.96705 51.418286 
L 79.592282 45.836571 
L 87.217514 45.233143 
L 94.842746 44.177143 
L 102.467978 42.517714 
L 110.09321 44.478857 
L 117.718442 43.121143 
L 125.343673 42.970286 
L 132.968905 41.612571 
L 140.594137 40.405714 
L 148.219369 41.461714 
L 155.844601 42.517714 
L 163.469833 40.707429 
L 171.095065 41.310857 
L 178.720297 42.517714 
L 186.345529 41.763429 
L 193.970761 42.819429 
L 201.595993 41.009143 
L 209.221224 40.405714 
L 216.846456 41.009143 
L 224.471688 40.254857 
L 232.09692 41.461714 
L 239.722152 41.461714 
L 247.347384 41.763429 
L 254.972616 41.914286 
L 262.597848 41.461714 
L 270.22308 41.763429 
L 277.848312 42.065143 
L 285.473544 41.310857 
L 293.098776 41.763429 
L 300.724007 41.612571 
L 308.349239 41.461714 
L 315.974471 41.763429 
L 323.599703 42.366857 
L 331.224935 41.914286 
L 338.850167 42.216 
L 346.475399 40.707429 
L 354.100631 40.254857 
L 361.725863 40.405714 
L 369.351095 41.612571 
L 376.976327 41.612571 
L 384.601558 42.216 
L 392.22679 40.556571 
L 399.852022 40.104 
L 407.477254 41.16 
L 415.102486 41.310857 
L 422.727718 40.556571 
L 430.35295 40.405714 
L 437.978182 41.612571 
" clip-path="url(#p990ea1743c)" style="fill: none; stroke: #7ad151; stroke-opacity: 0.85; stroke-width: 1.1; stroke-linejoin: miter"/>
   </g>
   <g id="line2d_44">
    <path d="M 64.341818 58.961143 
L 71.96705 48.853714 
L 79.592282 45.987429 
L 87.217514 44.177143 
L 94.842746 44.026286 
L 102.467978 42.970286 
L 110.09321 43.875429 
L 117.718442 42.970286 
L 125.343673 42.970286 
L 132.968905 43.724571 
L 140.594137 42.216 
L 148.219369 42.970286 
L 155.844601 41.16 
L 163.469833 41.16 
L 171.095065 43.121143 
L 178.720297 42.970286 
L 186.345529 42.216 
L 193.970761 42.668571 
L 201.595993 41.16 
L 209.221224 42.366857 
L 216.846456 43.121143 
L 224.471688 41.009143 
L 232.09692 41.914286 
L 239.722152 39.802286 
L 247.347384 42.065143 
L 254.972616 42.065143 
L 262.597848 41.009143 
L 270.22308 41.612571 
L 277.848312 40.405714 
L 285.473544 41.461714 
L 293.098776 41.16 
L 300.724007 41.612571 
L 308.349239 41.009143 
L 315.974471 42.216 
L 323.599703 41.612571 
L 331.224935 41.763429 
L 338.850167 42.668571 
L 346.475399 41.763429 
L 354.100631 41.763429 
L 361.725863 41.310857 
L 369.351095 42.819429 
L 376.976327 42.819429 
L 384.601558 41.310857 
L 392.22679 41.310857 
L 399.852022 41.763429 
L 407.477254 41.612571 
L 415.102486 41.310857 
L 422.727718 41.461714 
L 430.35295 41.763429 
L 437.978182 42.065143 
" clip-path="url(#p990ea1743c)" style="fill: none; stroke: #7ad151; stroke-opacity: 0.85; stroke-width: 1.1; stroke-linejoin: miter"/>
   </g>
   <g id="line2d_45">
    <path d="M 64.341818 56.849143 
L 71.96705 50.965714 
L 79.592282 47.345143 
L 87.217514 45.836571 
L 94.842746 42.819429 
L 102.467978 43.573714 
L 110.09321 43.422857 
L 117.718442 42.970286 
L 125.343673 42.366857 
L 132.968905 43.121143 
L 140.594137 40.707429 
L 148.219369 41.763429 
L 155.844601 43.121143 
L 163.469833 42.970286 
L 171.095065 42.366857 
L 178.720297 43.121143 
L 186.345529 41.612571 
L 193.970761 42.668571 
L 201.595993 42.668571 
L 209.221224 42.216 
L 216.846456 42.668571 
L 224.471688 42.216 
L 232.09692 41.310857 
L 239.722152 40.254857 
L 247.347384 41.914286 
L 254.972616 40.858286 
L 262.597848 40.858286 
L 270.22308 41.461714 
L 277.848312 41.763429 
L 285.473544 42.216 
L 293.098776 42.065143 
L 300.724007 42.366857 
L 308.349239 41.009143 
L 315.974471 41.763429 
L 323.599703 43.272 
L 331.224935 42.366857 
L 338.850167 42.668571 
L 346.475399 40.858286 
L 354.100631 40.405714 
L 361.725863 41.461714 
L 369.351095 42.366857 
L 376.976327 41.612571 
L 384.601558 41.16 
L 392.22679 41.16 
L 399.852022 41.763429 
L 407.477254 42.970286 
L 415.102486 43.121143 
L 422.727718 41.461714 
L 430.35295 42.366857 
L 437.978182 41.914286 
" clip-path="url(#p990ea1743c)" style="fill: none; stroke: #7ad151; stroke-opacity: 0.85; stroke-width: 1.1; stroke-linejoin: miter"/>
   </g>
   <g id="line2d_46">
    <path d="M 64.341818 60.469714 
L 71.96705 50.965714 
L 79.592282 48.552 
L 87.217514 48.702857 
L 94.842746 47.194286 
L 102.467978 45.836571 
L 110.09321 47.496 
L 117.718442 48.099429 
L 125.343673 45.987429 
L 132.968905 46.892571 
L 140.594137 46.138286 
L 148.219369 47.194286 
L 155.844601 45.685714 
L 163.469833 48.099429 
L 171.095065 45.082286 
L 178.720297 47.194286 
L 186.345529 47.043429 
L 193.970761 47.345143 
L 201.595993 45.987429 
L 209.221224 46.741714 
L 216.846456 46.289143 
L 224.471688 45.836571 
L 232.09692 47.797714 
L 239.722152 47.345143 
L 247.347384 45.685714 
L 254.972616 45.685714 
L 262.597848 45.987429 
L 270.22308 44.931429 
L 277.848312 44.931429 
L 285.473544 46.741714 
L 293.098776 46.138286 
L 300.724007 46.289143 
L 308.349239 47.948571 
L 315.974471 46.289143 
L 323.599703 45.685714 
L 331.224935 46.590857 
L 338.850167 48.552 
L 346.475399 46.289143 
L 354.100631 46.138286 
L 361.725863 45.233143 
L 369.351095 46.289143 
L 376.976327 45.836571 
L 384.601558 45.082286 
L 392.22679 45.384 
L 399.852022 45.233143 
L 407.477254 46.44 
L 415.102486 46.138286 
L 422.727718 44.931429 
L 430.35295 44.629714 
L 437.978182 44.177143 
" clip-path="url(#p990ea1743c)" style="fill: none; stroke: #fde725; stroke-opacity: 0.85; stroke-width: 1.1; stroke-linejoin: miter"/>
   </g>
   <g id="line2d_47">
    <path d="M 64.341818 60.620571 
L 71.96705 51.72 
L 79.592282 47.797714 
L 87.217514 46.741714 
L 94.842746 46.289143 
L 102.467978 45.685714 
L 110.09321 44.780571 
L 117.718442 45.987429 
L 125.343673 44.780571 
L 132.968905 46.44 
L 140.594137 45.534857 
L 148.219369 44.931429 
L 155.844601 45.987429 
L 163.469833 46.138286 
L 171.095065 45.384 
L 178.720297 44.177143 
L 186.345529 45.233143 
L 193.970761 45.082286 
L 201.595993 45.534857 
L 209.221224 46.892571 
L 216.846456 45.534857 
L 224.471688 44.931429 
L 232.09692 46.289143 
L 239.722152 45.987429 
L 247.347384 46.138286 
L 254.972616 44.478857 
L 262.597848 43.121143 
L 270.22308 44.026286 
L 277.848312 43.875429 
L 285.473544 44.026286 
L 293.098776 43.573714 
L 300.724007 44.629714 
L 308.349239 43.422857 
L 315.974471 44.478857 
L 323.599703 46.138286 
L 331.224935 45.685714 
L 338.850167 44.780571 
L 346.475399 45.233143 
L 354.100631 44.177143 
L 361.725863 44.328 
L 369.351095 44.629714 
L 376.976327 44.931429 
L 384.601558 44.478857 
L 392.22679 43.121143 
L 399.852022 43.875429 
L 407.477254 44.478857 
L 415.102486 43.875429 
L 422.727718 43.573714 
L 430.35295 45.384 
L 437.978182 43.272 
" clip-path="url(#p990ea1743c)" style="fill: none; stroke: #fde725; stroke-opacity: 0.85; stroke-width: 1.1; stroke-linejoin: miter"/>
   </g>
   <g id="line2d_48">
    <path d="M 64.341818 58.206857 
L 71.96705 50.814857 
L 79.592282 50.664 
L 87.217514 50.513143 
L 94.842746 46.892571 
L 102.467978 45.836571 
L 110.09321 47.948571 
L 117.718442 46.44 
L 125.343673 46.590857 
L 132.968905 47.043429 
L 140.594137 45.987429 
L 148.219369 44.026286 
L 155.844601 44.328 
L 163.469833 45.836571 
L 171.095065 45.836571 
L 178.720297 46.892571 
L 186.345529 44.931429 
L 193.970761 45.836571 
L 201.595993 46.741714 
L 209.221224 46.289143 
L 216.846456 44.780571 
L 224.471688 46.289143 
L 232.09692 44.328 
L 239.722152 43.272 
L 247.347384 44.177143 
L 254.972616 44.026286 
L 262.597848 45.836571 
L 270.22308 44.931429 
L 277.848312 46.289143 
L 285.473544 45.836571 
L 293.098776 45.082286 
L 300.724007 45.082286 
L 308.349239 45.384 
L 315.974471 44.328 
L 323.599703 44.629714 
L 331.224935 43.573714 
L 338.850167 45.534857 
L 346.475399 45.082286 
L 354.100631 42.819429 
L 361.725863 44.629714 
L 369.351095 45.384 
L 376.976327 45.233143 
L 384.601558 44.780571 
L 392.22679 45.836571 
L 399.852022 44.026286 
L 407.477254 45.685714 
L 415.102486 45.534857 
L 422.727718 44.629714 
L 430.35295 45.082286 
L 437.978182 44.177143 
" clip-path="url(#p990ea1743c)" style="fill: none; stroke: #fde725; stroke-opacity: 0.85; stroke-width: 1.1; stroke-linejoin: miter"/>
   </g>
   <g id="patch_3">
    <path d="M 45.66 225.96 
L 45.66 14.76 
" style="fill: none; stroke: #1a1a1a; stroke-width: 1.4; stroke-linejoin: miter; stroke-linecap: square"/>
   </g>
   <g id="patch_4">
    <path d="M 45.66 225.96 
L 456.66 225.96 
" style="fill: none; stroke: #1a1a1a; stroke-width: 1.4; stroke-linejoin: miter; stroke-linecap: square"/>
   </g>
   <g id="legend_1">
    <g id="text_15">
     <!-- swept value -->
     <g transform="translate(362.437852 175.069453) scale(0.105 -0.105)">
      <defs>
       <path id="Menlo-Regular-77" d="M 0 3500 
L 569 3500 
L 1178 672 
L 1678 2478 
L 2169 2478 
L 2675 672 
L 3284 3500 
L 3853 3500 
L 3034 0 
L 2484 0 
L 1925 1919 
L 1369 0 
L 819 0 
L 0 3500 
z
" transform="scale(0.015625)"/>
       <path id="Menlo-Regular-76" d="M 313 3500 
L 909 3500 
L 1925 563 
L 2944 3500 
L 3541 3500 
L 2297 0 
L 1556 0 
L 313 3500 
z
" transform="scale(0.015625)"/>
       <path id="Menlo-Regular-6c" d="M 2247 1266 
Q 2247 878 2389 681 
Q 2531 484 2809 484 
L 3481 484 
L 3481 0 
L 2753 0 
Q 2238 0 1955 329 
Q 1672 659 1672 1266 
L 1672 4431 
L 750 4431 
L 750 4881 
L 2247 4881 
L 2247 1266 
z
" transform="scale(0.015625)"/>
      </defs>
      <use xlink:href="#Menlo-Regular-73"/>
      <use xlink:href="#Menlo-Regular-77" transform="translate(60.205078 0)"/>
      <use xlink:href="#Menlo-Regular-65" transform="translate(120.410156 0)"/>
      <use xlink:href="#Menlo-Regular-70" transform="translate(180.615234 0)"/>
      <use xlink:href="#Menlo-Regular-74" transform="translate(240.820312 0)"/>
      <use xlink:href="#Menlo-Regular-20" transform="translate(301.025391 0)"/>
      <use xlink:href="#Menlo-Regular-76" transform="translate(361.230469 0)"/>
      <use xlink:href="#Menlo-Regular-61" transform="translate(421.435547 0)"/>
      <use xlink:href="#Menlo-Regular-6c" transform="translate(481.640625 0)"/>
      <use xlink:href="#Menlo-Regular-75" transform="translate(541.845703 0)"/>
      <use xlink:href="#Menlo-Regular-65" transform="translate(602.050781 0)"/>
     </g>
    </g>
    <g id="line2d_49">
     <path d="M 346.750313 185.467031 
L 355.750313 185.467031 
L 364.750313 185.467031 
" style="fill: none; stroke: #440154; stroke-width: 2.4; stroke-linejoin: miter"/>
    </g>
    <g id="text_16">
     <!-- off -->
     <g style="fill: #1a1a1a" transform="translate(371.950312 188.617031) scale(0.09 -0.09)">
      <defs>
       <path id="Menlo-Regular-66" d="M 3322 4863 
L 3322 4384 
L 2669 4384 
Q 2359 4384 2239 4257 
Q 2119 4131 2119 3809 
L 2119 3500 
L 3322 3500 
L 3322 3053 
L 2119 3053 
L 2119 0 
L 1544 0 
L 1544 3053 
L 609 3053 
L 609 3500 
L 1544 3500 
L 1544 3744 
Q 1544 4319 1808 4591 
Q 2072 4863 2631 4863 
L 3322 4863 
z
" transform="scale(0.015625)"/>
      </defs>
      <use xlink:href="#Menlo-Regular-6f"/>
      <use xlink:href="#Menlo-Regular-66" transform="translate(60.205078 0)"/>
      <use xlink:href="#Menlo-Regular-66" transform="translate(120.410156 0)"/>
     </g>
    </g>
    <g id="line2d_50">
     <path d="M 346.750313 198.702656 
L 355.750313 198.702656 
L 364.750313 198.702656 
" style="fill: none; stroke: #414487; stroke-width: 2.4; stroke-linejoin: miter"/>
    </g>
    <g id="text_17">
     <!-- 5 -->
     <g style="fill: #1a1a1a" transform="translate(371.950312 201.852656) scale(0.09 -0.09)">
      <use xlink:href="#Menlo-Regular-35"/>
     </g>
    </g>
    <g id="line2d_51">
     <path d="M 346.750313 211.938281 
L 355.750313 211.938281 
L 364.750313 211.938281 
" style="fill: none; stroke: #2a788e; stroke-width: 2.4; stroke-linejoin: miter"/>
    </g>
    <g id="text_18">
     <!-- 2 -->
     <g style="fill: #1a1a1a" transform="translate(371.950312 215.088281) scale(0.09 -0.09)">
      <use xlink:href="#Menlo-Regular-32"/>
     </g>
    </g>
    <g id="line2d_52">
     <path d="M 406.205156 185.467031 
L 415.205156 185.467031 
L 424.205156 185.467031 
" style="fill: none; stroke: #22a884; stroke-width: 2.4; stroke-linejoin: miter"/>
    </g>
    <g id="text_19">
     <!-- 1 -->
     <g style="fill: #1a1a1a" transform="translate(431.405156 188.617031) scale(0.09 -0.09)">
      <use xlink:href="#Menlo-Regular-31"/>
     </g>
    </g>
    <g id="line2d_53">
     <path d="M 406.205156 198.702656 
L 415.205156 198.702656 
L 424.205156 198.702656 
" style="fill: none; stroke: #7ad151; stroke-width: 2.4; stroke-linejoin: miter"/>
    </g>
    <g id="text_20">
     <!-- 0.5 -->
     <g style="fill: #1a1a1a" transform="translate(431.405156 201.852656) scale(0.09 -0.09)">
      <defs>
       <path id="Menlo-Regular-2e" d="M 1216 1263 
L 2316 1263 
L 2316 0 
L 1216 0 
L 1216 1263 
z
" transform="scale(0.015625)"/>
      </defs>
      <use xlink:href="#Menlo-Regular-30"/>
      <use xlink:href="#Menlo-Regular-2e" transform="translate(60.205078 0)"/>
      <use xlink:href="#Menlo-Regular-35" transform="translate(120.410156 0)"/>
     </g>
    </g>
    <g id="line2d_54">
     <path d="M 406.205156 211.938281 
L 415.205156 211.938281 
L 424.205156 211.938281 
" style="fill: none; stroke: #fde725; stroke-width: 2.4; stroke-linejoin: miter"/>
    </g>
    <g id="text_21">
     <!-- 0.2 -->
     <g style="fill: #1a1a1a" transform="translate(431.405156 215.088281) scale(0.09 -0.09)">
      <use xlink:href="#Menlo-Regular-30"/>
      <use xlink:href="#Menlo-Regular-2e" transform="translate(60.205078 0)"/>
      <use xlink:href="#Menlo-Regular-32" transform="translate(120.410156 0)"/>
     </g>
    </g>
   </g>
   <g id="legend_2">
    <g id="text_22">
     <!-- model -->
     <g transform="translate(235.35668 188.243203) scale(0.105 -0.105)">
      <defs>
       <path id="Menlo-Regular-6d" d="M 2113 3144 
Q 2219 3369 2383 3476 
Q 2547 3584 2778 3584 
Q 3200 3584 3373 3257 
Q 3547 2931 3547 2028 
L 3547 0 
L 3022 0 
L 3022 2003 
Q 3022 2744 2939 2923 
Q 2856 3103 2638 3103 
Q 2388 3103 2295 2911 
Q 2203 2719 2203 2003 
L 2203 0 
L 1678 0 
L 1678 2003 
Q 1678 2753 1589 2928 
Q 1500 3103 1269 3103 
Q 1041 3103 952 2911 
Q 863 2719 863 2003 
L 863 0 
L 341 0 
L 341 3500 
L 863 3500 
L 863 3200 
Q 966 3388 1120 3486 
Q 1275 3584 1472 3584 
Q 1709 3584 1867 3475 
Q 2025 3366 2113 3144 
z
" transform="scale(0.015625)"/>
       <path id="Menlo-Regular-64" d="M 2681 3053 
L 2681 4863 
L 3256 4863 
L 3256 0 
L 2681 0 
L 2681 441 
Q 2538 181 2298 45 
Q 2059 -91 1747 -91 
Q 1113 -91 748 401 
Q 384 894 384 1759 
Q 384 2613 750 3098 
Q 1116 3584 1747 3584 
Q 2063 3584 2303 3448 
Q 2544 3313 2681 3053 
z
M 991 1747 
Q 991 1078 1203 737 
Q 1416 397 1831 397 
Q 2247 397 2464 740 
Q 2681 1084 2681 1747 
Q 2681 2413 2464 2755 
Q 2247 3097 1831 3097 
Q 1416 3097 1203 2756 
Q 991 2416 991 1747 
z
" transform="scale(0.015625)"/>
      </defs>
      <use xlink:href="#Menlo-Regular-6d"/>
      <use xlink:href="#Menlo-Regular-6f" transform="translate(60.205078 0)"/>
      <use xlink:href="#Menlo-Regular-64" transform="translate(120.410156 0)"/>
      <use xlink:href="#Menlo-Regular-65" transform="translate(180.615234 0)"/>
      <use xlink:href="#Menlo-Regular-6c" transform="translate(240.820312 0)"/>
     </g>
    </g>
    <g id="line2d_55">
     <path d="M 227.723437 198.640781 
L 236.723437 198.640781 
L 245.723437 198.640781 
" style="fill: none; stroke-dasharray: 7.4,3.2; stroke-dashoffset: 0; stroke: #666666; stroke-width: 2"/>
    </g>
    <g id="text_23">
     <!-- coba -->
     <g style="fill: #1a1a1a" transform="translate(252.923437 201.790781) scale(0.09 -0.09)">
      <defs>
       <path id="Menlo-Regular-62" d="M 2869 1747 
Q 2869 2416 2656 2756 
Q 2444 3097 2028 3097 
Q 1609 3097 1393 2755 
Q 1178 2413 1178 1747 
Q 1178 1084 1393 740 
Q 1609 397 2028 397 
Q 2444 397 2656 737 
Q 2869 1078 2869 1747 
z
M 1178 3053 
Q 1316 3309 1558 3446 
Q 1800 3584 2119 3584 
Q 2750 3584 3112 3098 
Q 3475 2613 3475 1759 
Q 3475 894 3111 401 
Q 2747 -91 2113 -91 
Q 1800 -91 1561 45 
Q 1322 181 1178 441 
L 1178 0 
L 603 0 
L 603 4863 
L 1178 4863 
L 1178 3053 
z
" transform="scale(0.015625)"/>
      </defs>
      <use xlink:href="#Menlo-Regular-63"/>
      <use xlink:href="#Menlo-Regular-6f" transform="translate(60.205078 0)"/>
      <use xlink:href="#Menlo-Regular-62" transform="translate(120.410156 0)"/>
      <use xlink:href="#Menlo-Regular-61" transform="translate(180.615234 0)"/>
     </g>
    </g>
    <g id="line2d_56">
     <path d="M 227.723437 211.876406 
L 236.723437 211.876406 
L 245.723437 211.876406 
" style="fill: none; stroke: #666666; stroke-width: 2; stroke-linejoin: miter"/>
    </g>
    <g id="text_24">
     <!-- ping -->
     <g style="fill: #1a1a1a" transform="translate(252.923437 215.026406) scale(0.09 -0.09)">
      <defs>
       <path id="Menlo-Regular-69" d="M 988 3488 
L 2459 3488 
L 2459 447 
L 3600 447 
L 3600 0 
L 744 0 
L 744 447 
L 1884 447 
L 1884 3041 
L 988 3041 
L 988 3488 
z
M 1884 4847 
L 2459 4847 
L 2459 4122 
L 1884 4122 
L 1884 4847 
z
" transform="scale(0.015625)"/>
       <path id="Menlo-Regular-6e" d="M 3284 2169 
L 3284 0 
L 2706 0 
L 2706 2169 
Q 2706 2641 2540 2862 
Q 2375 3084 2022 3084 
Q 1619 3084 1401 2798 
Q 1184 2513 1184 1978 
L 1184 0 
L 609 0 
L 609 3500 
L 1184 3500 
L 1184 2975 
Q 1338 3275 1600 3429 
Q 1863 3584 2222 3584 
Q 2756 3584 3020 3232 
Q 3284 2881 3284 2169 
z
" transform="scale(0.015625)"/>
       <path id="Menlo-Regular-67" d="M 2681 1778 
Q 2681 2425 2470 2761 
Q 2259 3097 1856 3097 
Q 1434 3097 1212 2761 
Q 991 2425 991 1778 
Q 991 1131 1214 792 
Q 1438 453 1863 453 
Q 2259 453 2470 793 
Q 2681 1134 2681 1778 
z
M 3256 225 
Q 3256 -563 2884 -969 
Q 2513 -1375 1791 -1375 
Q 1553 -1375 1293 -1331 
Q 1034 -1288 775 -1203 
L 775 -634 
Q 1081 -778 1331 -847 
Q 1581 -916 1791 -916 
Q 2256 -916 2468 -662 
Q 2681 -409 2681 141 
L 2681 166 
L 2681 556 
Q 2544 263 2306 119 
Q 2069 -25 1728 -25 
Q 1116 -25 750 465 
Q 384 956 384 1778 
Q 384 2603 750 3093 
Q 1116 3584 1728 3584 
Q 2066 3584 2300 3450 
Q 2534 3316 2681 3034 
L 2681 3488 
L 3256 3488 
L 3256 225 
z
" transform="scale(0.015625)"/>
      </defs>
      <use xlink:href="#Menlo-Regular-70"/>
      <use xlink:href="#Menlo-Regular-69" transform="translate(60.205078 0)"/>
      <use xlink:href="#Menlo-Regular-6e" transform="translate(120.410156 0)"/>
      <use xlink:href="#Menlo-Regular-67" transform="translate(180.615234 0)"/>
     </g>
    </g>
   </g>
  </g>
  <g id="text_25">
   <!-- r005 -->
   <g style="fill: #888888" transform="translate(446.395 260.53865) scale(0.08 -0.08)">
    <use xlink:href="#Menlo-Regular-72"/>
    <use xlink:href="#Menlo-Regular-30" transform="translate(60.205078 0)"/>
    <use xlink:href="#Menlo-Regular-30" transform="translate(120.410156 0)"/>
    <use xlink:href="#Menlo-Regular-35" transform="translate(180.615234 0)"/>
   </g>
  </g>
 </g>
 <defs>
  <clipPath id="p990ea1743c">
   <rect x="45.66" y="14.76" width="411" height="211.2"/>
  </clipPath>
 </defs>
</svg>
