<?xml version="1.0" encoding="utf-8" standalone="no"?>
<!DOCTYPE svg PUBLIC "-//W3C//DTD SVG 1.1//EN"
  "http://www.w3.org/Graphics/SVG/1.1/DTD/svg11.dtd">
<svg xmlns:xlink="http://www.w3.org/1999/xlink" width="404.385875pt" height="172.062pt" viewBox="0 0 404.385875 172.062" xmlns="http://www.w3.org/2000/svg" version="1.1">
 <metadata>
  <rdf:RDF xmlns:dc="http://purl.org/dc/elements/1.1/" xmlns:cc="http://creativecommons.org/ns#" xmlns:rdf="http://www.w3.org/1999/02/22-rdf-syntax-ns#">
   <cc:Work>
    <dc:type rdf:resource="http://purl.org/dc/dcmitype/StillImage"/>
    <dc:date>2026-06-29T14:17:26.125042</dc:date>
    <dc:format>image/svg+xml</dc:format>
    <dc:creator>
     <cc:Agent>
      <dc:title>Matplotlib v3.10.8, https://matplotlib.org/</dc:title>
     </cc:Agent>
    </dc:creator>
   </cc:Work>
  </rdf:RDF>
 </metadata>
 <defs>
  <style type="text/css">*{stroke-linejoin: round; stroke-linecap: butt}</style>
 </defs>
 <g id="figure_1">
  <g id="patch_1">
   <path d="M 0 172.062 
L 404.385875 172.062 
L 404.385875 0 
L 0 0 
z
" style="fill: #ffffff"/>
  </g>
  <g id="axes_1">
   <g id="patch_2">
    <path d="M 33.561875 134.7576 
L 194.206662 134.7576 
L 194.206662 24.6096 
L 33.561875 24.6096 
z
" style="fill: #ffffff"/>
   </g>
   <g id="matplotlib.axis_1">
    <g id="xtick_1">
     <g id="line2d_1">
      <defs>
       <path id="m22c18a8cb1" d="M 0 0 
L 0 -3 
" style="stroke: #1a1a1a; stroke-width: 0.8"/>
      </defs>
      <g>
       <use xlink:href="#m22c18a8cb1" x="33.561875" y="134.7576" style="fill: #1a1a1a; stroke: #1a1a1a; stroke-width: 0.8"/>
      </g>
     </g>
     <g id="text_1">
      <!-- 0.0 -->
      <g style="fill: #1a1a1a" transform="translate(27.240547 143.596194) scale(0.07 -0.07)">
       <defs>
        <path id="Menlo-Regular-30" d="M 1925 4734 
Q 2672 4734 3055 4125 
Q 3438 3516 3438 2322 
Q 3438 1128 3055 518 
Q 2672 -91 1925 -91 
Q 1178 -91 797 518 
Q 416 1128 416 2322 
Q 416 3516 797 4125 
Q 1178 4734 1925 4734 
z
M 1925 409 
Q 2369 409 2586 881 
Q 2803 1353 2803 2322 
Q 2803 2838 2741 3253 
L 1253 925 
Q 1488 409 1925 409 
z
M 1925 4234 
Q 1484 4234 1267 3762 
Q 1050 3291 1050 2322 
Q 1050 1881 1109 1497 
L 2566 3819 
Q 2328 4234 1925 4234 
z
" transform="scale(0.015625)"/>
        <path id="Menlo-Regular-2e" d="M 1216 1263 
L 2316 1263 
L 2316 0 
L 1216 0 
L 1216 1263 
z
" transform="scale(0.015625)"/>
       </defs>
       <use xlink:href="#Menlo-Regular-30"/>
       <use xlink:href="#Menlo-Regular-2e" transform="translate(60.205078 0)"/>
       <use xlink:href="#Menlo-Regular-30" transform="translate(120.410156 0)"/>
      </g>
     </g>
    </g>
    <g id="xtick_2">
     <g id="line2d_2">
      <g>
       <use xlink:href="#m22c18a8cb1" x="57.901994" y="134.7576" style="fill: #1a1a1a; stroke: #1a1a1a; stroke-width: 0.8"/>
      </g>
     </g>
     <g id="text_2">
      <!-- 2.5 -->
      <g style="fill: #1a1a1a" transform="translate(51.580666 143.596194) scale(0.07 -0.07)">
       <defs>
        <path id="Menlo-Regular-32" d="M 1166 531 
L 3309 531 
L 3309 0 
L 475 0 
L 475 531 
Q 1059 1147 1496 1619 
Q 1934 2091 2100 2284 
Q 2413 2666 2522 2902 
Q 2631 3138 2631 3384 
Q 2631 3775 2401 3997 
Q 2172 4219 1772 4219 
Q 1488 4219 1175 4116 
Q 863 4013 513 3803 
L 513 4441 
Q 834 4594 1145 4672 
Q 1456 4750 1759 4750 
Q 2444 4750 2861 4386 
Q 3278 4022 3278 3431 
Q 3278 3131 3139 2831 
Q 3000 2531 2688 2169 
Q 2513 1966 2180 1606 
Q 1847 1247 1166 531 
z
" transform="scale(0.015625)"/>
        <path id="Menlo-Regular-35" d="M 647 4666 
L 3009 4666 
L 3009 4134 
L 1222 4134 
L 1222 2988 
Q 1356 3038 1492 3061 
Q 1628 3084 1766 3084 
Q 2491 3084 2916 2656 
Q 3341 2228 3341 1497 
Q 3341 759 2895 334 
Q 2450 -91 1678 -91 
Q 1306 -91 998 -41 
Q 691 9 447 109 
L 447 750 
Q 734 594 1025 517 
Q 1316 441 1619 441 
Q 2141 441 2423 716 
Q 2706 991 2706 1497 
Q 2706 1997 2414 2275 
Q 2122 2553 1600 2553 
Q 1347 2553 1106 2495 
Q 866 2438 647 2322 
L 647 4666 
z
" transform="scale(0.015625)"/>
       </defs>
       <use xlink:href="#Menlo-Regular-32"/>
       <use xlink:href="#Menlo-Regular-2e" transform="translate(60.205078 0)"/>
       <use xlink:href="#Menlo-Regular-35" transform="translate(120.410156 0)"/>
      </g>
     </g>
    </g>
    <g id="xtick_3">
     <g id="line2d_3">
      <g>
       <use xlink:href="#m22c18a8cb1" x="82.242113" y="134.7576" style="fill: #1a1a1a; stroke: #1a1a1a; stroke-width: 0.8"/>
      </g>
     </g>
     <g id="text_3">
      <!-- 5.0 -->
      <g style="fill: #1a1a1a" transform="translate(75.920785 143.596194) scale(0.07 -0.07)">
       <use xlink:href="#Menlo-Regular-35"/>
       <use xlink:href="#Menlo-Regular-2e" transform="translate(60.205078 0)"/>
       <use xlink:href="#Menlo-Regular-30" transform="translate(120.410156 0)"/>
      </g>
     </g>
    </g>
    <g id="xtick_4">
     <g id="line2d_4">
      <g>
       <use xlink:href="#m22c18a8cb1" x="106.582233" y="134.7576" style="fill: #1a1a1a; stroke: #1a1a1a; stroke-width: 0.8"/>
      </g>
     </g>
     <g id="text_4">
      <!-- 7.5 -->
      <g style="fill: #1a1a1a" transform="translate(100.260904 143.596194) scale(0.07 -0.07)">
       <defs>
        <path id="Menlo-Regular-37" d="M 434 4666 
L 3372 4666 
L 3372 4397 
L 1703 0 
L 1044 0 
L 2669 4134 
L 434 4134 
L 434 4666 
z
" transform="scale(0.015625)"/>
       </defs>
       <use xlink:href="#Menlo-Regular-37"/>
       <use xlink:href="#Menlo-Regular-2e" transform="translate(60.205078 0)"/>
       <use xlink:href="#Menlo-Regular-35" transform="translate(120.410156 0)"/>
      </g>
     </g>
    </g>
    <g id="xtick_5">
     <g id="line2d_5">
      <g>
       <use xlink:href="#m22c18a8cb1" x="130.922352" y="134.7576" style="fill: #1a1a1a; stroke: #1a1a1a; stroke-width: 0.8"/>
      </g>
     </g>
     <g id="text_5">
      <!-- 10.0 -->
      <g style="fill: #1a1a1a" transform="translate(122.493914 143.596194) scale(0.07 -0.07)">
       <defs>
        <path id="Menlo-Regular-31" d="M 844 528 
L 1825 528 
L 1825 4053 
L 650 3488 
L 650 4094 
L 1819 4650 
L 2450 4650 
L 2450 528 
L 3419 528 
L 3419 0 
L 844 0 
L 844 528 
z
" transform="scale(0.015625)"/>
       </defs>
       <use xlink:href="#Menlo-Regular-31"/>
       <use xlink:href="#Menlo-Regular-30" transform="translate(60.205078 0)"/>
       <use xlink:href="#Menlo-Regular-2e" transform="translate(120.410156 0)"/>
       <use xlink:href="#Menlo-Regular-30" transform="translate(180.615234 0)"/>
      </g>
     </g>
    </g>
    <g id="xtick_6">
     <g id="line2d_6">
      <g>
       <use xlink:href="#m22c18a8cb1" x="155.262471" y="134.7576" style="fill: #1a1a1a; stroke: #1a1a1a; stroke-width: 0.8"/>
      </g>
     </g>
     <g id="text_6">
      <!-- 12.5 -->
      <g style="fill: #1a1a1a" transform="translate(146.834033 143.596194) scale(0.07 -0.07)">
       <use xlink:href="#Menlo-Regular-31"/>
       <use xlink:href="#Menlo-Regular-32" transform="translate(60.205078 0)"/>
       <use xlink:href="#Menlo-Regular-2e" transform="translate(120.410156 0)"/>
       <use xlink:href="#Menlo-Regular-35" transform="translate(180.615234 0)"/>
      </g>
     </g>
    </g>
    <g id="xtick_7">
     <g id="line2d_7">
      <g>
       <use xlink:href="#m22c18a8cb1" x="179.60259" y="134.7576" style="fill: #1a1a1a; stroke: #1a1a1a; stroke-width: 0.8"/>
      </g>
     </g>
     <g id="text_7">
      <!-- 15.0 -->
      <g style="fill: #1a1a1a" transform="translate(171.174153 143.596194) scale(0.07 -0.07)">
       <use xlink:href="#Menlo-Regular-31"/>
       <use xlink:href="#Menlo-Regular-35" transform="translate(60.205078 0)"/>
       <use xlink:href="#Menlo-Regular-2e" transform="translate(120.410156 0)"/>
       <use xlink:href="#Menlo-Regular-30" transform="translate(180.615234 0)"/>
      </g>
     </g>
    </g>
    <g id="text_8">
     <!-- per-synapse $W^{IE}$  (μS) -->
     <g style="fill: #1a1a1a" transform="translate(63.564268 156.251975) scale(0.08 -0.08)">
      <defs>
       <path id="Menlo-Regular-70" d="M 1172 441 
L 1172 -1331 
L 594 -1331 
L 594 3500 
L 1172 3500 
L 1172 3053 
Q 1316 3313 1555 3448 
Q 1794 3584 2106 3584 
Q 2741 3584 3102 3093 
Q 3463 2603 3463 1734 
Q 3463 881 3100 395 
Q 2738 -91 2106 -91 
Q 1788 -91 1548 45 
Q 1309 181 1172 441 
z
M 2859 1747 
Q 2859 2416 2648 2756 
Q 2438 3097 2022 3097 
Q 1603 3097 1387 2755 
Q 1172 2413 1172 1747 
Q 1172 1084 1387 740 
Q 1603 397 2022 397 
Q 2438 397 2648 737 
Q 2859 1078 2859 1747 
z
" transform="scale(0.015625)"/>
       <path id="Menlo-Regular-65" d="M 3500 2038 
L 3500 1756 
L 1009 1756 
L 1009 1738 
Q 984 1022 1282 709 
Q 1581 397 2125 397 
Q 2400 397 2700 484 
Q 3000 572 3341 750 
L 3341 178 
Q 3013 44 2708 -23 
Q 2403 -91 2119 -91 
Q 1303 -91 843 398 
Q 384 888 384 1747 
Q 384 2584 834 3084 
Q 1284 3584 2034 3584 
Q 2703 3584 3089 3131 
Q 3475 2678 3500 2038 
z
M 2925 2206 
Q 2888 2569 2661 2833 
Q 2434 3097 2009 3097 
Q 1594 3097 1325 2822 
Q 1056 2547 1031 2203 
L 2925 2206 
z
" transform="scale(0.015625)"/>
       <path id="Menlo-Regular-72" d="M 3609 2778 
Q 3425 2922 3234 2987 
Q 3044 3053 2816 3053 
Q 2278 3053 1993 2715 
Q 1709 2378 1709 1741 
L 1709 0 
L 1131 0 
L 1131 3500 
L 1709 3500 
L 1709 2816 
Q 1853 3188 2151 3386 
Q 2450 3584 2859 3584 
Q 3072 3584 3256 3531 
Q 3441 3478 3609 3366 
L 3609 2778 
z
" transform="scale(0.015625)"/>
       <path id="Menlo-Regular-2d" d="M 319 2263 
L 3631 2263 
L 3631 1734 
L 319 1734 
L 319 2263 
z
" transform="scale(0.015625)"/>
       <path id="Menlo-Regular-73" d="M 3041 3378 
L 3041 2816 
Q 2794 2959 2544 3031 
Q 2294 3103 2034 3103 
Q 1644 3103 1451 2976 
Q 1259 2850 1259 2591 
Q 1259 2356 1403 2240 
Q 1547 2125 2119 2016 
L 2350 1972 
Q 2778 1891 2998 1647 
Q 3219 1403 3219 1013 
Q 3219 494 2850 201 
Q 2481 -91 1825 -91 
Q 1566 -91 1281 -36 
Q 997 19 666 128 
L 666 722 
Q 988 556 1281 473 
Q 1575 391 1838 391 
Q 2219 391 2428 545 
Q 2638 700 2638 978 
Q 2638 1378 1872 1531 
L 1847 1538 
L 1631 1581 
Q 1134 1678 906 1908 
Q 678 2138 678 2534 
Q 678 3038 1018 3311 
Q 1359 3584 1991 3584 
Q 2272 3584 2531 3532 
Q 2791 3481 3041 3378 
z
" transform="scale(0.015625)"/>
       <path id="Menlo-Regular-79" d="M 2681 1125 
Q 2538 759 2316 163 
Q 2006 -663 1900 -844 
Q 1756 -1088 1540 -1209 
Q 1325 -1331 1038 -1331 
L 575 -1331 
L 575 -850 
L 916 -850 
Q 1169 -850 1312 -703 
Q 1456 -556 1678 56 
L 325 3500 
L 934 3500 
L 1972 763 
L 2994 3500 
L 3603 3500 
L 2681 1125 
z
" transform="scale(0.015625)"/>
       <path id="Menlo-Regular-6e" d="M 3284 2169 
L 3284 0 
L 2706 0 
L 2706 2169 
Q 2706 2641 2540 2862 
Q 2375 3084 2022 3084 
Q 1619 3084 1401 2798 
Q 1184 2513 1184 1978 
L 1184 0 
L 609 0 
L 609 3500 
L 1184 3500 
L 1184 2975 
Q 1338 3275 1600 3429 
Q 1863 3584 2222 3584 
Q 2756 3584 3020 3232 
Q 3284 2881 3284 2169 
z
" transform="scale(0.015625)"/>
       <path id="Menlo-Regular-61" d="M 2194 1759 
L 2003 1759 
Q 1500 1759 1245 1582 
Q 991 1406 991 1056 
Q 991 741 1181 566 
Q 1372 391 1709 391 
Q 2184 391 2456 720 
Q 2728 1050 2731 1631 
L 2731 1759 
L 2194 1759 
z
M 3309 1997 
L 3309 0 
L 2731 0 
L 2731 519 
Q 2547 206 2267 57 
Q 1988 -91 1588 -91 
Q 1053 -91 734 211 
Q 416 513 416 1019 
Q 416 1603 808 1906 
Q 1200 2209 1959 2209 
L 2731 2209 
L 2731 2300 
Q 2728 2719 2518 2908 
Q 2309 3097 1850 3097 
Q 1556 3097 1256 3012 
Q 956 2928 672 2766 
L 672 3341 
Q 991 3463 1283 3523 
Q 1575 3584 1850 3584 
Q 2284 3584 2592 3456 
Q 2900 3328 3091 3072 
Q 3209 2916 3259 2686 
Q 3309 2456 3309 1997 
z
" transform="scale(0.015625)"/>
       <path id="Menlo-Regular-20" transform="scale(0.015625)"/>
       <path id="DejaVuSans-Oblique-57" d="M 616 4666 
L 1228 4666 
L 1453 697 
L 3213 4666 
L 3916 4666 
L 4147 697 
L 5888 4666 
L 6528 4666 
L 4453 0 
L 3659 0 
L 3444 3891 
L 1697 0 
L 903 0 
L 616 4666 
z
" transform="scale(0.015625)"/>
       <path id="DejaVuSans-Oblique-49" d="M 1081 4666 
L 1716 4666 
L 806 0 
L 172 0 
L 1081 4666 
z
" transform="scale(0.015625)"/>
       <path id="DejaVuSans-Oblique-45" d="M 1081 4666 
L 4031 4666 
L 3928 4134 
L 1606 4134 
L 1338 2753 
L 3566 2753 
L 3463 2222 
L 1234 2222 
L 909 531 
L 3284 531 
L 3181 0 
L 172 0 
L 1081 4666 
z
" transform="scale(0.015625)"/>
       <path id="Menlo-Regular-28" d="M 2672 5169 
Q 2256 4456 2051 3748 
Q 1847 3041 1847 2322 
Q 1847 1606 2051 897 
Q 2256 188 2672 -531 
L 2172 -531 
Q 1700 213 1469 917 
Q 1238 1622 1238 2322 
Q 1238 3019 1469 3725 
Q 1700 4431 2172 5169 
L 2672 5169 
z
" transform="scale(0.015625)"/>
       <path id="Menlo-Regular-3bc" d="M 609 -1338 
L 609 3500 
L 1184 3500 
L 1184 1325 
Q 1184 881 1371 645 
Q 1559 409 1906 409 
Q 2303 409 2504 675 
Q 2706 941 2706 1459 
L 2706 3500 
L 3284 3500 
L 3284 800 
Q 3284 616 3334 528 
Q 3384 441 3488 441 
Q 3516 441 3561 456 
Q 3606 472 3694 513 
L 3694 50 
Q 3575 -22 3469 -56 
Q 3363 -91 3256 -91 
Q 3063 -91 2945 32 
Q 2828 156 2791 403 
Q 2647 153 2439 31 
Q 2231 -91 1953 -91 
Q 1666 -91 1467 28 
Q 1269 147 1131 397 
L 1131 -1338 
L 609 -1338 
z
" transform="scale(0.015625)"/>
       <path id="Menlo-Regular-53" d="M 3163 4506 
L 3163 3866 
Q 2875 4050 2586 4144 
Q 2297 4238 2003 4238 
Q 1556 4238 1297 4030 
Q 1038 3822 1038 3469 
Q 1038 3159 1208 2996 
Q 1378 2834 1844 2725 
L 2175 2650 
Q 2831 2497 3131 2169 
Q 3431 1841 3431 1275 
Q 3431 609 3018 259 
Q 2606 -91 1819 -91 
Q 1491 -91 1159 -20 
Q 828 50 494 191 
L 494 863 
Q 853 634 1173 528 
Q 1494 422 1819 422 
Q 2297 422 2562 636 
Q 2828 850 2828 1234 
Q 2828 1584 2645 1768 
Q 2463 1953 2009 2053 
L 1672 2131 
Q 1022 2278 728 2575 
Q 434 2872 434 3372 
Q 434 3997 854 4373 
Q 1275 4750 1972 4750 
Q 2241 4750 2537 4689 
Q 2834 4628 3163 4506 
z
" transform="scale(0.015625)"/>
       <path id="Menlo-Regular-29" d="M 1088 5169 
L 1588 5169 
Q 2059 4431 2290 3725 
Q 2522 3019 2522 2322 
Q 2522 1619 2290 912 
Q 2059 206 1588 -531 
L 1088 -531 
Q 1503 194 1708 903 
Q 1913 1613 1913 2322 
Q 1913 3034 1708 3743 
Q 1503 4453 1088 5169 
z
" transform="scale(0.015625)"/>
      </defs>
      <use xlink:href="#Menlo-Regular-70" transform="translate(0 0.684375)"/>
      <use xlink:href="#Menlo-Regular-65" transform="translate(60.205078 0.684375)"/>
      <use xlink:href="#Menlo-Regular-72" transform="translate(120.410156 0.684375)"/>
      <use xlink:href="#Menlo-Regular-2d" transform="translate(180.615234 0.684375)"/>
      <use xlink:href="#Menlo-Regular-73" transform="translate(240.820312 0.684375)"/>
      <use xlink:href="#Menlo-Regular-79" transform="translate(301.025391 0.684375)"/>
      <use xlink:href="#Menlo-Regular-6e" transform="translate(361.230469 0.684375)"/>
      <use xlink:href="#Menlo-Regular-61" transform="translate(421.435547 0.684375)"/>
      <use xlink:href="#Menlo-Regular-70" transform="translate(481.640625 0.684375)"/>
      <use xlink:href="#Menlo-Regular-73" transform="translate(541.845703 0.684375)"/>
      <use xlink:href="#Menlo-Regular-65" transform="translate(602.050781 0.684375)"/>
      <use xlink:href="#Menlo-Regular-20" transform="translate(662.255859 0.684375)"/>
      <use xlink:href="#DejaVuSans-Oblique-57" transform="translate(722.460938 0.684375)"/>
      <use xlink:href="#DejaVuSans-Oblique-49" transform="translate(828.354661 38.965625) scale(0.7)"/>
      <use xlink:href="#DejaVuSans-Oblique-45" transform="translate(848.999193 38.965625) scale(0.7)"/>
      <use xlink:href="#Menlo-Regular-20" transform="translate(895.962083 0.684375)"/>
      <use xlink:href="#Menlo-Regular-20" transform="translate(956.167161 0.684375)"/>
      <use xlink:href="#Menlo-Regular-28" transform="translate(1016.37224 0.684375)"/>
      <use xlink:href="#Menlo-Regular-3bc" transform="translate(1076.577318 0.684375)"/>
      <use xlink:href="#Menlo-Regular-53" transform="translate(1136.782396 0.684375)"/>
      <use xlink:href="#Menlo-Regular-29" transform="translate(1196.987474 0.684375)"/>
     </g>
    </g>
   </g>
   <g id="matplotlib.axis_2">
    <g id="ytick_1">
     <g id="line2d_8">
      <defs>
       <path id="mc5328f9de8" d="M 0 0 
L 3 0 
" style="stroke: #1a1a1a; stroke-width: 0.8"/>
      </defs>
      <g>
       <use xlink:href="#mc5328f9de8" x="33.561875" y="134.7576" style="fill: #1a1a1a; stroke: #1a1a1a; stroke-width: 0.8"/>
      </g>
     </g>
     <g id="text_9">
      <!-- 0.0 -->
      <g style="fill: #1a1a1a" transform="translate(17.419219 137.426897) scale(0.07 -0.07)">
       <use xlink:href="#Menlo-Regular-30"/>
       <use xlink:href="#Menlo-Regular-2e" transform="translate(60.205078 0)"/>
       <use xlink:href="#Menlo-Regular-30" transform="translate(120.410156 0)"/>
      </g>
     </g>
    </g>
    <g id="ytick_2">
     <g id="line2d_9">
      <g>
       <use xlink:href="#mc5328f9de8" x="33.561875" y="115.946389" style="fill: #1a1a1a; stroke: #1a1a1a; stroke-width: 0.8"/>
      </g>
     </g>
     <g id="text_10">
      <!-- 2.5 -->
      <g style="fill: #1a1a1a" transform="translate(17.419219 118.615686) scale(0.07 -0.07)">
       <use xlink:href="#Menlo-Regular-32"/>
       <use xlink:href="#Menlo-Regular-2e" transform="translate(60.205078 0)"/>
       <use xlink:href="#Menlo-Regular-35" transform="translate(120.410156 0)"/>
      </g>
     </g>
    </g>
    <g id="ytick_3">
     <g id="line2d_10">
      <g>
       <use xlink:href="#mc5328f9de8" x="33.561875" y="97.135178" style="fill: #1a1a1a; stroke: #1a1a1a; stroke-width: 0.8"/>
      </g>
     </g>
     <g id="text_11">
      <!-- 5.0 -->
      <g style="fill: #1a1a1a" transform="translate(17.419219 99.804474) scale(0.07 -0.07)">
       <use xlink:href="#Menlo-Regular-35"/>
       <use xlink:href="#Menlo-Regular-2e" transform="translate(60.205078 0)"/>
       <use xlink:href="#Menlo-Regular-30" transform="translate(120.410156 0)"/>
      </g>
     </g>
    </g>
    <g id="ytick_4">
     <g id="line2d_11">
      <g>
       <use xlink:href="#mc5328f9de8" x="33.561875" y="78.323966" style="fill: #1a1a1a; stroke: #1a1a1a; stroke-width: 0.8"/>
      </g>
     </g>
     <g id="text_12">
      <!-- 7.5 -->
      <g style="fill: #1a1a1a" transform="translate(17.419219 80.993263) scale(0.07 -0.07)">
       <use xlink:href="#Menlo-Regular-37"/>
       <use xlink:href="#Menlo-Regular-2e" transform="translate(60.205078 0)"/>
       <use xlink:href="#Menlo-Regular-35" transform="translate(120.410156 0)"/>
      </g>
     </g>
    </g>
    <g id="ytick_5">
     <g id="line2d_12">
      <g>
       <use xlink:href="#mc5328f9de8" x="33.561875" y="59.512755" style="fill: #1a1a1a; stroke: #1a1a1a; stroke-width: 0.8"/>
      </g>
     </g>
     <g id="text_13">
      <!-- 10.0 -->
      <g style="fill: #1a1a1a" transform="translate(13.205 62.182052) scale(0.07 -0.07)">
       <use xlink:href="#Menlo-Regular-31"/>
       <use xlink:href="#Menlo-Regular-30" transform="translate(60.205078 0)"/>
       <use xlink:href="#Menlo-Regular-2e" transform="translate(120.410156 0)"/>
       <use xlink:href="#Menlo-Regular-30" transform="translate(180.615234 0)"/>
      </g>
     </g>
    </g>
    <g id="ytick_6">
     <g id="line2d_13">
      <g>
       <use xlink:href="#mc5328f9de8" x="33.561875" y="40.701544" style="fill: #1a1a1a; stroke: #1a1a1a; stroke-width: 0.8"/>
      </g>
     </g>
     <g id="text_14">
      <!-- 12.5 -->
      <g style="fill: #1a1a1a" transform="translate(13.205 43.370841) scale(0.07 -0.07)">
       <use xlink:href="#Menlo-Regular-31"/>
       <use xlink:href="#Menlo-Regular-32" transform="translate(60.205078 0)"/>
       <use xlink:href="#Menlo-Regular-2e" transform="translate(120.410156 0)"/>
       <use xlink:href="#Menlo-Regular-35" transform="translate(180.615234 0)"/>
      </g>
     </g>
    </g>
    <g id="text_15">
     <!-- E rate  (Hz / cell) -->
     <g style="fill: #1a1a1a" transform="translate(7.54125 125.437975) rotate(-90) scale(0.08 -0.08)">
      <defs>
       <path id="Menlo-Regular-45" d="M 616 4666 
L 3384 4666 
L 3384 4134 
L 1247 4134 
L 1247 2878 
L 3291 2878 
L 3291 2347 
L 1247 2347 
L 1247 531 
L 3444 531 
L 3444 0 
L 616 0 
L 616 4666 
z
" transform="scale(0.015625)"/>
       <path id="Menlo-Regular-74" d="M 1919 4494 
L 1919 3500 
L 3225 3500 
L 3225 3053 
L 1919 3053 
L 1919 1153 
Q 1919 766 2066 612 
Q 2213 459 2578 459 
L 3225 459 
L 3225 0 
L 2522 0 
Q 1875 0 1609 259 
Q 1344 519 1344 1153 
L 1344 3053 
L 409 3053 
L 409 3500 
L 1344 3500 
L 1344 4494 
L 1919 4494 
z
" transform="scale(0.015625)"/>
       <path id="Menlo-Regular-48" d="M 428 4666 
L 1063 4666 
L 1063 2878 
L 2791 2878 
L 2791 4666 
L 3425 4666 
L 3425 0 
L 2791 0 
L 2791 2347 
L 1063 2347 
L 1063 0 
L 428 0 
L 428 4666 
z
" transform="scale(0.015625)"/>
       <path id="Menlo-Regular-7a" d="M 709 3506 
L 3250 3506 
L 3250 2981 
L 1241 469 
L 3250 469 
L 3250 0 
L 634 0 
L 634 531 
L 2644 3047 
L 709 3047 
L 709 3506 
z
" transform="scale(0.015625)"/>
       <path id="Menlo-Regular-2f" d="M 2778 4666 
L 3372 4666 
L 916 -594 
L 319 -594 
L 2778 4666 
z
" transform="scale(0.015625)"/>
       <path id="Menlo-Regular-63" d="M 3316 178 
Q 3084 44 2839 -23 
Q 2594 -91 2338 -91 
Q 1525 -91 1067 396 
Q 609 884 609 1747 
Q 609 2609 1067 3096 
Q 1525 3584 2338 3584 
Q 2591 3584 2831 3518 
Q 3072 3453 3316 3316 
L 3316 2713 
Q 3088 2916 2858 3006 
Q 2628 3097 2338 3097 
Q 1797 3097 1506 2747 
Q 1216 2397 1216 1747 
Q 1216 1100 1508 748 
Q 1800 397 2338 397 
Q 2638 397 2875 489 
Q 3113 581 3316 775 
L 3316 178 
z
" transform="scale(0.015625)"/>
       <path id="Menlo-Regular-6c" d="M 2247 1266 
Q 2247 878 2389 681 
Q 2531 484 2809 484 
L 3481 484 
L 3481 0 
L 2753 0 
Q 2238 0 1955 329 
Q 1672 659 1672 1266 
L 1672 4431 
L 750 4431 
L 750 4881 
L 2247 4881 
L 2247 1266 
z
" transform="scale(0.015625)"/>
      </defs>
      <use xlink:href="#Menlo-Regular-45"/>
      <use xlink:href="#Menlo-Regular-20" transform="translate(60.205078 0)"/>
      <use xlink:href="#Menlo-Regular-72" transform="translate(120.410156 0)"/>
      <use xlink:href="#Menlo-Regular-61" transform="translate(180.615234 0)"/>
      <use xlink:href="#Menlo-Regular-74" transform="translate(240.820312 0)"/>
      <use xlink:href="#Menlo-Regular-65" transform="translate(301.025391 0)"/>
      <use xlink:href="#Menlo-Regular-20" transform="translate(361.230469 0)"/>
      <use xlink:href="#Menlo-Regular-20" transform="translate(421.435547 0)"/>
      <use xlink:href="#Menlo-Regular-28" transform="translate(481.640625 0)"/>
      <use xlink:href="#Menlo-Regular-48" transform="translate(541.845703 0)"/>
      <use xlink:href="#Menlo-Regular-7a" transform="translate(602.050781 0)"/>
      <use xlink:href="#Menlo-Regular-20" transform="translate(662.255859 0)"/>
      <use xlink:href="#Menlo-Regular-2f" transform="translate(722.460938 0)"/>
      <use xlink:href="#Menlo-Regular-20" transform="translate(782.666016 0)"/>
      <use xlink:href="#Menlo-Regular-63" transform="translate(842.871094 0)"/>
      <use xlink:href="#Menlo-Regular-65" transform="translate(903.076172 0)"/>
      <use xlink:href="#Menlo-Regular-6c" transform="translate(963.28125 0)"/>
      <use xlink:href="#Menlo-Regular-6c" transform="translate(1023.486328 0)"/>
      <use xlink:href="#Menlo-Regular-29" transform="translate(1083.691406 0)"/>
     </g>
    </g>
   </g>
   <g id="line2d_14">
    <path d="M 38.429899 28.430168 
L 43.297923 41.087321 
L 53.03397 48.931449 
L 72.506066 54.745656 
L 111.450256 61.680453 
L 189.338638 63.177635 
" clip-path="url(#p0330662a1f)" style="fill: none; stroke: #c8102e; stroke-width: 1.6; stroke-linejoin: miter"/>
    <defs>
     <path id="m456ad079e9" d="M -3 3 
L 3 3 
L 3 -3 
L -3 -3 
z
" style="stroke: #c8102e; stroke-linejoin: miter"/>
    </defs>
    <g clip-path="url(#p0330662a1f)">
     <use xlink:href="#m456ad079e9" x="38.429899" y="28.430168" style="fill: #c8102e; stroke: #c8102e; stroke-linejoin: miter"/>
     <use xlink:href="#m456ad079e9" x="43.297923" y="41.087321" style="fill: #c8102e; stroke: #c8102e; stroke-linejoin: miter"/>
     <use xlink:href="#m456ad079e9" x="53.03397" y="48.931449" style="fill: #c8102e; stroke: #c8102e; stroke-linejoin: miter"/>
     <use xlink:href="#m456ad079e9" x="72.506066" y="54.745656" style="fill: #c8102e; stroke: #c8102e; stroke-linejoin: miter"/>
     <use xlink:href="#m456ad079e9" x="111.450256" y="61.680453" style="fill: #c8102e; stroke: #c8102e; stroke-linejoin: miter"/>
     <use xlink:href="#m456ad079e9" x="189.338638" y="63.177635" style="fill: #c8102e; stroke: #c8102e; stroke-linejoin: miter"/>
    </g>
   </g>
   <g id="line2d_15">
    <path d="M 38.429899 26.446173 
L 43.297923 41.078136 
L 53.03397 45.790124 
L 72.506066 55.296766 
L 111.450256 61.735564 
L 189.338638 62.828599 
" clip-path="url(#p0330662a1f)" style="fill: none; stroke: #e89400; stroke-width: 1.6; stroke-linejoin: miter"/>
    <defs>
     <path id="mdade76d9a0" d="M 0 -3 
L -3 3 
L 3 3 
z
" style="stroke: #e89400; stroke-linejoin: miter"/>
    </defs>
    <g clip-path="url(#p0330662a1f)">
     <use xlink:href="#mdade76d9a0" x="38.429899" y="26.446173" style="fill: #e89400; stroke: #e89400; stroke-linejoin: miter"/>
     <use xlink:href="#mdade76d9a0" x="43.297923" y="41.078136" style="fill: #e89400; stroke: #e89400; stroke-linejoin: miter"/>
     <use xlink:href="#mdade76d9a0" x="53.03397" y="45.790124" style="fill: #e89400; stroke: #e89400; stroke-linejoin: miter"/>
     <use xlink:href="#mdade76d9a0" x="72.506066" y="55.296766" style="fill: #e89400; stroke: #e89400; stroke-linejoin: miter"/>
     <use xlink:href="#mdade76d9a0" x="111.450256" y="61.735564" style="fill: #e89400; stroke: #e89400; stroke-linejoin: miter"/>
     <use xlink:href="#mdade76d9a0" x="189.338638" y="62.828599" style="fill: #e89400; stroke: #e89400; stroke-linejoin: miter"/>
    </g>
   </g>
   <g id="line2d_16">
    <path d="M 38.429899 28.871056 
L 43.297923 40.012657 
L 53.03397 46.589233 
L 72.506066 55.49884 
L 111.450256 59.053497 
L 189.338638 61.634528 
" clip-path="url(#p0330662a1f)" style="fill: none; stroke: #1a1a1a; stroke-width: 1.6; stroke-linejoin: miter"/>
    <defs>
     <path id="m21a28ba23c" d="M 0 3 
C 0.795609 3 1.55874 2.683901 2.12132 2.12132 
C 2.683901 1.55874 3 0.795609 3 0 
C 3 -0.795609 2.683901 -1.55874 2.12132 -2.12132 
C 1.55874 -2.683901 0.795609 -3 0 -3 
C -0.795609 -3 -1.55874 -2.683901 -2.12132 -2.12132 
C -2.683901 -1.55874 -3 -0.795609 -3 0 
C -3 0.795609 -2.683901 1.55874 -2.12132 2.12132 
C -1.55874 2.683901 -0.795609 3 0 3 
z
" style="stroke: #1a1a1a"/>
    </defs>
    <g clip-path="url(#p0330662a1f)">
     <use xlink:href="#m21a28ba23c" x="38.429899" y="28.871056" style="fill: #1a1a1a; stroke: #1a1a1a"/>
     <use xlink:href="#m21a28ba23c" x="43.297923" y="40.012657" style="fill: #1a1a1a; stroke: #1a1a1a"/>
     <use xlink:href="#m21a28ba23c" x="53.03397" y="46.589233" style="fill: #1a1a1a; stroke: #1a1a1a"/>
     <use xlink:href="#m21a28ba23c" x="72.506066" y="55.49884" style="fill: #1a1a1a; stroke: #1a1a1a"/>
     <use xlink:href="#m21a28ba23c" x="111.450256" y="59.053497" style="fill: #1a1a1a; stroke: #1a1a1a"/>
     <use xlink:href="#m21a28ba23c" x="189.338638" y="61.634528" style="fill: #1a1a1a; stroke: #1a1a1a"/>
    </g>
   </g>
   <g id="line2d_17">
    <path d="M 53.03397 134.7576 
L 53.03397 24.6096 
" clip-path="url(#p0330662a1f)" style="fill: none; stroke-dasharray: 0.8,1.32; stroke-dashoffset: 0; stroke: #6a6a6a; stroke-width: 0.8"/>
   </g>
   <g id="patch_3">
    <path d="M 33.561875 134.7576 
L 33.561875 24.6096 
" style="fill: none; stroke: #1a1a1a; stroke-width: 0.8; stroke-linejoin: miter; stroke-linecap: square"/>
   </g>
   <g id="patch_4">
    <path d="M 33.561875 134.7576 
L 194.206662 134.7576 
" style="fill: none; stroke: #1a1a1a; stroke-width: 0.8; stroke-linejoin: miter; stroke-linecap: square"/>
   </g>
   <g id="text_16">
    <!-- default -->
    <g style="fill: #3a3a3a" transform="translate(56.928389 127.004892) scale(0.055 -0.055)">
     <defs>
      <path id="Menlo-Regular-64" d="M 2681 3053 
L 2681 4863 
L 3256 4863 
L 3256 0 
L 2681 0 
L 2681 441 
Q 2538 181 2298 45 
Q 2059 -91 1747 -91 
Q 1113 -91 748 401 
Q 384 894 384 1759 
Q 384 2613 750 3098 
Q 1116 3584 1747 3584 
Q 2063 3584 2303 3448 
Q 2544 3313 2681 3053 
z
M 991 1747 
Q 991 1078 1203 737 
Q 1416 397 1831 397 
Q 2247 397 2464 740 
Q 2681 1084 2681 1747 
Q 2681 2413 2464 2755 
Q 2247 3097 1831 3097 
Q 1416 3097 1203 2756 
Q 991 2416 991 1747 
z
" transform="scale(0.015625)"/>
      <path id="Menlo-Regular-66" d="M 3322 4863 
L 3322 4384 
L 2669 4384 
Q 2359 4384 2239 4257 
Q 2119 4131 2119 3809 
L 2119 3500 
L 3322 3500 
L 3322 3053 
L 2119 3053 
L 2119 0 
L 1544 0 
L 1544 3053 
L 609 3053 
L 609 3500 
L 1544 3500 
L 1544 3744 
Q 1544 4319 1808 4591 
Q 2072 4863 2631 4863 
L 3322 4863 
z
" transform="scale(0.015625)"/>
      <path id="Menlo-Regular-75" d="M 609 1325 
L 609 3494 
L 1184 3494 
L 1184 1325 
Q 1184 853 1351 631 
Q 1519 409 1869 409 
Q 2275 409 2490 695 
Q 2706 981 2706 1516 
L 2706 3494 
L 3284 3494 
L 3284 0 
L 2706 0 
L 2706 525 
Q 2553 222 2289 65 
Q 2025 -91 1672 -91 
Q 1134 -91 871 261 
Q 609 613 609 1325 
z
" transform="scale(0.015625)"/>
     </defs>
     <use xlink:href="#Menlo-Regular-64"/>
     <use xlink:href="#Menlo-Regular-65" transform="translate(60.205078 0)"/>
     <use xlink:href="#Menlo-Regular-66" transform="translate(120.410156 0)"/>
     <use xlink:href="#Menlo-Regular-61" transform="translate(180.615234 0)"/>
     <use xlink:href="#Menlo-Regular-75" transform="translate(240.820312 0)"/>
     <use xlink:href="#Menlo-Regular-6c" transform="translate(301.025391 0)"/>
     <use xlink:href="#Menlo-Regular-74" transform="translate(361.230469 0)"/>
    </g>
   </g>
   <g id="patch_5">
    <path d="M 114.16781 58.129361 
Q 113.755135 58.269697 114.189263 58.122066 
" style="fill: none; stroke: #6a6a6a; stroke-width: 0.8; stroke-linecap: round"/>
    <path d="M 116.626274 58.455196 
L 114.189263 58.122066 
L 115.917973 56.372335 
" style="fill: none; stroke: #6a6a6a; stroke-width: 0.8; stroke-linecap: round"/>
   </g>
   <g id="text_17">
    <!-- all $N_I$ overlap: -->
    <g style="fill: #3a3a3a" transform="translate(91.978161 46.83466) scale(0.055 -0.055)">
     <defs>
      <path id="DejaVuSans-Oblique-4e" d="M 1081 4666 
L 1931 4666 
L 3219 666 
L 4000 4666 
L 4616 4666 
L 3706 0 
L 2853 0 
L 1569 4025 
L 788 0 
L 172 0 
L 1081 4666 
z
" transform="scale(0.015625)"/>
      <path id="Menlo-Regular-6f" d="M 1925 3097 
Q 1488 3097 1263 2756 
Q 1038 2416 1038 1747 
Q 1038 1081 1263 739 
Q 1488 397 1925 397 
Q 2366 397 2591 739 
Q 2816 1081 2816 1747 
Q 2816 2416 2591 2756 
Q 2366 3097 1925 3097 
z
M 1925 3584 
Q 2653 3584 3039 3112 
Q 3425 2641 3425 1747 
Q 3425 850 3040 379 
Q 2656 -91 1925 -91 
Q 1197 -91 812 379 
Q 428 850 428 1747 
Q 428 2641 812 3112 
Q 1197 3584 1925 3584 
z
" transform="scale(0.015625)"/>
      <path id="Menlo-Regular-76" d="M 313 3500 
L 909 3500 
L 1925 563 
L 2944 3500 
L 3541 3500 
L 2297 0 
L 1556 0 
L 313 3500 
z
" transform="scale(0.015625)"/>
      <path id="Menlo-Regular-3a" d="M 1341 3497 
L 2316 3497 
L 2316 2369 
L 1341 2369 
L 1341 3497 
z
M 1341 1138 
L 2316 1138 
L 2316 0 
L 1341 0 
L 1341 1138 
z
" transform="scale(0.015625)"/>
     </defs>
     <use xlink:href="#Menlo-Regular-61" transform="translate(0 0.734375)"/>
     <use xlink:href="#Menlo-Regular-6c" transform="translate(60.205078 0.734375)"/>
     <use xlink:href="#Menlo-Regular-6c" transform="translate(120.410156 0.734375)"/>
     <use xlink:href="#Menlo-Regular-20" transform="translate(180.615234 0.734375)"/>
     <use xlink:href="#DejaVuSans-Oblique-4e" transform="translate(240.820312 0.734375)"/>
     <use xlink:href="#DejaVuSans-Oblique-49" transform="translate(315.625 -15.671875) scale(0.7)"/>
     <use xlink:href="#Menlo-Regular-20" transform="translate(339.003906 0.734375)"/>
     <use xlink:href="#Menlo-Regular-6f" transform="translate(399.208984 0.734375)"/>
     <use xlink:href="#Menlo-Regular-76" transform="translate(459.414062 0.734375)"/>
     <use xlink:href="#Menlo-Regular-65" transform="translate(519.619141 0.734375)"/>
     <use xlink:href="#Menlo-Regular-72" transform="translate(579.824219 0.734375)"/>
     <use xlink:href="#Menlo-Regular-6c" transform="translate(640.029297 0.734375)"/>
     <use xlink:href="#Menlo-Regular-61" transform="translate(700.234375 0.734375)"/>
     <use xlink:href="#Menlo-Regular-70" transform="translate(760.439453 0.734375)"/>
     <use xlink:href="#Menlo-Regular-3a" transform="translate(820.644531 0.734375)"/>
    </g>
    <!-- rate set by $W^{IE}$, not pool size -->
    <g style="fill: #3a3a3a" transform="translate(91.978161 53.92966) scale(0.055 -0.055)">
     <defs>
      <path id="Menlo-Regular-62" d="M 2869 1747 
Q 2869 2416 2656 2756 
Q 2444 3097 2028 3097 
Q 1609 3097 1393 2755 
Q 1178 2413 1178 1747 
Q 1178 1084 1393 740 
Q 1609 397 2028 397 
Q 2444 397 2656 737 
Q 2869 1078 2869 1747 
z
M 1178 3053 
Q 1316 3309 1558 3446 
Q 1800 3584 2119 3584 
Q 2750 3584 3112 3098 
Q 3475 2613 3475 1759 
Q 3475 894 3111 401 
Q 2747 -91 2113 -91 
Q 1800 -91 1561 45 
Q 1322 181 1178 441 
L 1178 0 
L 603 0 
L 603 4863 
L 1178 4863 
L 1178 3053 
z
" transform="scale(0.015625)"/>
      <path id="Menlo-Regular-2c" d="M 1381 1128 
L 2356 1128 
L 2356 300 
L 1663 -1047 
L 1038 -1050 
L 1381 300 
L 1381 1128 
z
" transform="scale(0.015625)"/>
      <path id="Menlo-Regular-69" d="M 988 3488 
L 2459 3488 
L 2459 447 
L 3600 447 
L 3600 0 
L 744 0 
L 744 447 
L 1884 447 
L 1884 3041 
L 988 3041 
L 988 3488 
z
M 1884 4847 
L 2459 4847 
L 2459 4122 
L 1884 4122 
L 1884 4847 
z
" transform="scale(0.015625)"/>
     </defs>
     <use xlink:href="#Menlo-Regular-72" transform="translate(0 0.684375)"/>
     <use xlink:href="#Menlo-Regular-61" transform="translate(60.205078 0.684375)"/>
     <use xlink:href="#Menlo-Regular-74" transform="translate(120.410156 0.684375)"/>
     <use xlink:href="#Menlo-Regular-65" transform="translate(180.615234 0.684375)"/>
     <use xlink:href="#Menlo-Regular-20" transform="translate(240.820312 0.684375)"/>
     <use xlink:href="#Menlo-Regular-73" transform="translate(301.025391 0.684375)"/>
     <use xlink:href="#Menlo-Regular-65" transform="translate(361.230469 0.684375)"/>
     <use xlink:href="#Menlo-Regular-74" transform="translate(421.435547 0.684375)"/>
     <use xlink:href="#Menlo-Regular-20" transform="translate(481.640625 0.684375)"/>
     <use xlink:href="#Menlo-Regular-62" transform="translate(541.845703 0.684375)"/>
     <use xlink:href="#Menlo-Regular-79" transform="translate(602.050781 0.684375)"/>
     <use xlink:href="#Menlo-Regular-20" transform="translate(662.255859 0.684375)"/>
     <use xlink:href="#DejaVuSans-Oblique-57" transform="translate(722.460938 0.684375)"/>
     <use xlink:href="#DejaVuSans-Oblique-49" transform="translate(828.354661 38.965625) scale(0.7)"/>
     <use xlink:href="#DejaVuSans-Oblique-45" transform="translate(848.999193 38.965625) scale(0.7)"/>
     <use xlink:href="#Menlo-Regular-2c" transform="translate(895.962083 0.684375)"/>
     <use xlink:href="#Menlo-Regular-20" transform="translate(956.167161 0.684375)"/>
     <use xlink:href="#Menlo-Regular-6e" transform="translate(1016.37224 0.684375)"/>
     <use xlink:href="#Menlo-Regular-6f" transform="translate(1076.577318 0.684375)"/>
     <use xlink:href="#Menlo-Regular-74" transform="translate(1136.782396 0.684375)"/>
     <use xlink:href="#Menlo-Regular-20" transform="translate(1196.987474 0.684375)"/>
     <use xlink:href="#Menlo-Regular-70" transform="translate(1257.192552 0.684375)"/>
     <use xlink:href="#Menlo-Regular-6f" transform="translate(1317.39763 0.684375)"/>
     <use xlink:href="#Menlo-Regular-6f" transform="translate(1377.602708 0.684375)"/>
     <use xlink:href="#Menlo-Regular-6c" transform="translate(1437.807786 0.684375)"/>
     <use xlink:href="#Menlo-Regular-20" transform="translate(1498.012865 0.684375)"/>
     <use xlink:href="#Menlo-Regular-73" transform="translate(1558.217943 0.684375)"/>
     <use xlink:href="#Menlo-Regular-69" transform="translate(1618.423021 0.684375)"/>
     <use xlink:href="#Menlo-Regular-7a" transform="translate(1678.628099 0.684375)"/>
     <use xlink:href="#Menlo-Regular-65" transform="translate(1738.833177 0.684375)"/>
    </g>
   </g>
   <g id="legend_1">
    <g id="line2d_18">
     <path d="M 149.686662 32.485537 
L 154.486662 32.485537 
L 159.286662 32.485537 
" style="fill: none; stroke: #c8102e; stroke-width: 1.6; stroke-linejoin: miter"/>
     <g>
      <use xlink:href="#m456ad079e9" x="154.486662" y="32.485537" style="fill: #c8102e; stroke: #c8102e; stroke-linejoin: miter"/>
     </g>
    </g>
    <g id="text_18">
     <!-- $N_I = 16$ -->
     <g style="fill: #1a1a1a" transform="translate(164.086662 34.585537) scale(0.06 -0.06)">
      <defs>
       <path id="DejaVuSans-3d" d="M 678 2906 
L 4684 2906 
L 4684 2381 
L 678 2381 
L 678 2906 
z
M 678 1631 
L 4684 1631 
L 4684 1100 
L 678 1100 
L 678 1631 
z
" transform="scale(0.015625)"/>
       <path id="DejaVuSans-31" d="M 794 531 
L 1825 531 
L 1825 4091 
L 703 3866 
L 703 4441 
L 1819 4666 
L 2450 4666 
L 2450 531 
L 3481 531 
L 3481 0 
L 794 0 
L 794 531 
z
" transform="scale(0.015625)"/>
       <path id="DejaVuSans-36" d="M 2113 2584 
Q 1688 2584 1439 2293 
Q 1191 2003 1191 1497 
Q 1191 994 1439 701 
Q 1688 409 2113 409 
Q 2538 409 2786 701 
Q 3034 994 3034 1497 
Q 3034 2003 2786 2293 
Q 2538 2584 2113 2584 
z
M 3366 4563 
L 3366 3988 
Q 3128 4100 2886 4159 
Q 2644 4219 2406 4219 
Q 1781 4219 1451 3797 
Q 1122 3375 1075 2522 
Q 1259 2794 1537 2939 
Q 1816 3084 2150 3084 
Q 2853 3084 3261 2657 
Q 3669 2231 3669 1497 
Q 3669 778 3244 343 
Q 2819 -91 2113 -91 
Q 1303 -91 875 529 
Q 447 1150 447 2328 
Q 447 3434 972 4092 
Q 1497 4750 2381 4750 
Q 2619 4750 2861 4703 
Q 3103 4656 3366 4563 
z
" transform="scale(0.015625)"/>
      </defs>
      <use xlink:href="#DejaVuSans-Oblique-4e" transform="translate(0 0.78125)"/>
      <use xlink:href="#DejaVuSans-Oblique-49" transform="translate(74.804688 -15.625) scale(0.7)"/>
      <use xlink:href="#DejaVuSans-3d" transform="translate(117.666016 0.78125)"/>
      <use xlink:href="#DejaVuSans-31" transform="translate(220.9375 0.78125)"/>
      <use xlink:href="#DejaVuSans-36" transform="translate(284.560547 0.78125)"/>
     </g>
    </g>
    <g id="line2d_19">
     <path d="M 149.686662 41.309287 
L 154.486662 41.309287 
L 159.286662 41.309287 
" style="fill: none; stroke: #e89400; stroke-width: 1.6; stroke-linejoin: miter"/>
     <g>
      <use xlink:href="#mdade76d9a0" x="154.486662" y="41.309287" style="fill: #e89400; stroke: #e89400; stroke-linejoin: miter"/>
     </g>
    </g>
    <g id="text_19">
     <!-- $N_I = 64$ -->
     <g style="fill: #1a1a1a" transform="translate(164.086662 43.409287) scale(0.06 -0.06)">
      <defs>
       <path id="DejaVuSans-34" d="M 2419 4116 
L 825 1625 
L 2419 1625 
L 2419 4116 
z
M 2253 4666 
L 3047 4666 
L 3047 1625 
L 3713 1625 
L 3713 1100 
L 3047 1100 
L 3047 0 
L 2419 0 
L 2419 1100 
L 313 1100 
L 313 1709 
L 2253 4666 
z
" transform="scale(0.015625)"/>
      </defs>
      <use xlink:href="#DejaVuSans-Oblique-4e" transform="translate(0 0.78125)"/>
      <use xlink:href="#DejaVuSans-Oblique-49" transform="translate(74.804688 -15.625) scale(0.7)"/>
      <use xlink:href="#DejaVuSans-3d" transform="translate(117.666016 0.78125)"/>
      <use xlink:href="#DejaVuSans-36" transform="translate(220.9375 0.78125)"/>
      <use xlink:href="#DejaVuSans-34" transform="translate(284.560547 0.78125)"/>
     </g>
    </g>
    <g id="line2d_20">
     <path d="M 149.686662 50.133037 
L 154.486662 50.133037 
L 159.286662 50.133037 
" style="fill: none; stroke: #1a1a1a; stroke-width: 1.6; stroke-linejoin: miter"/>
     <g>
      <use xlink:href="#m21a28ba23c" x="154.486662" y="50.133037" style="fill: #1a1a1a; stroke: #1a1a1a"/>
     </g>
    </g>
    <g id="text_20">
     <!-- $N_I = 256$ -->
     <g style="fill: #1a1a1a" transform="translate(164.086662 52.233037) scale(0.06 -0.06)">
      <defs>
       <path id="DejaVuSans-32" d="M 1228 531 
L 3431 531 
L 3431 0 
L 469 0 
L 469 531 
Q 828 903 1448 1529 
Q 2069 2156 2228 2338 
Q 2531 2678 2651 2914 
Q 2772 3150 2772 3378 
Q 2772 3750 2511 3984 
Q 2250 4219 1831 4219 
Q 1534 4219 1204 4116 
Q 875 4013 500 3803 
L 500 4441 
Q 881 4594 1212 4672 
Q 1544 4750 1819 4750 
Q 2544 4750 2975 4387 
Q 3406 4025 3406 3419 
Q 3406 3131 3298 2873 
Q 3191 2616 2906 2266 
Q 2828 2175 2409 1742 
Q 1991 1309 1228 531 
z
" transform="scale(0.015625)"/>
       <path id="DejaVuSans-35" d="M 691 4666 
L 3169 4666 
L 3169 4134 
L 1269 4134 
L 1269 2991 
Q 1406 3038 1543 3061 
Q 1681 3084 1819 3084 
Q 2600 3084 3056 2656 
Q 3513 2228 3513 1497 
Q 3513 744 3044 326 
Q 2575 -91 1722 -91 
Q 1428 -91 1123 -41 
Q 819 9 494 109 
L 494 744 
Q 775 591 1075 516 
Q 1375 441 1709 441 
Q 2250 441 2565 725 
Q 2881 1009 2881 1497 
Q 2881 1984 2565 2268 
Q 2250 2553 1709 2553 
Q 1456 2553 1204 2497 
Q 953 2441 691 2322 
L 691 4666 
z
" transform="scale(0.015625)"/>
      </defs>
      <use xlink:href="#DejaVuSans-Oblique-4e" transform="translate(0 0.78125)"/>
      <use xlink:href="#DejaVuSans-Oblique-49" transform="translate(74.804688 -15.625) scale(0.7)"/>
      <use xlink:href="#DejaVuSans-3d" transform="translate(117.666016 0.78125)"/>
      <use xlink:href="#DejaVuSans-32" transform="translate(220.9375 0.78125)"/>
      <use xlink:href="#DejaVuSans-35" transform="translate(284.560547 0.78125)"/>
      <use xlink:href="#DejaVuSans-36" transform="translate(348.183594 0.78125)"/>
     </g>
    </g>
   </g>
  </g>
  <g id="axes_2">
   <g id="patch_6">
    <path d="M 235.677088 134.7576 
L 396.321875 134.7576 
L 396.321875 24.6096 
L 235.677088 24.6096 
z
" style="fill: #ffffff"/>
   </g>
   <g id="matplotlib.axis_3">
    <g id="xtick_8">
     <g id="line2d_21">
      <g>
       <use xlink:href="#m22c18a8cb1" x="235.677088" y="134.7576" style="fill: #1a1a1a; stroke: #1a1a1a; stroke-width: 0.8"/>
      </g>
     </g>
     <g id="text_21">
      <!-- 0.0 -->
      <g style="fill: #1a1a1a" transform="translate(229.35576 143.596194) scale(0.07 -0.07)">
       <use xlink:href="#Menlo-Regular-30"/>
       <use xlink:href="#Menlo-Regular-2e" transform="translate(60.205078 0)"/>
       <use xlink:href="#Menlo-Regular-30" transform="translate(120.410156 0)"/>
      </g>
     </g>
    </g>
    <g id="xtick_9">
     <g id="line2d_22">
      <g>
       <use xlink:href="#m22c18a8cb1" x="260.017208" y="134.7576" style="fill: #1a1a1a; stroke: #1a1a1a; stroke-width: 0.8"/>
      </g>
     </g>
     <g id="text_22">
      <!-- 2.5 -->
      <g style="fill: #1a1a1a" transform="translate(253.695879 143.596194) scale(0.07 -0.07)">
       <use xlink:href="#Menlo-Regular-32"/>
       <use xlink:href="#Menlo-Regular-2e" transform="translate(60.205078 0)"/>
       <use xlink:href="#Menlo-Regular-35" transform="translate(120.410156 0)"/>
      </g>
     </g>
    </g>
    <g id="xtick_10">
     <g id="line2d_23">
      <g>
       <use xlink:href="#m22c18a8cb1" x="284.357327" y="134.7576" style="fill: #1a1a1a; stroke: #1a1a1a; stroke-width: 0.8"/>
      </g>
     </g>
     <g id="text_23">
      <!-- 5.0 -->
      <g style="fill: #1a1a1a" transform="translate(278.035999 143.596194) scale(0.07 -0.07)">
       <use xlink:href="#Menlo-Regular-35"/>
       <use xlink:href="#Menlo-Regular-2e" transform="translate(60.205078 0)"/>
       <use xlink:href="#Menlo-Regular-30" transform="translate(120.410156 0)"/>
      </g>
     </g>
    </g>
    <g id="xtick_11">
     <g id="line2d_24">
      <g>
       <use xlink:href="#m22c18a8cb1" x="308.697446" y="134.7576" style="fill: #1a1a1a; stroke: #1a1a1a; stroke-width: 0.8"/>
      </g>
     </g>
     <g id="text_24">
      <!-- 7.5 -->
      <g style="fill: #1a1a1a" transform="translate(302.376118 143.596194) scale(0.07 -0.07)">
       <use xlink:href="#Menlo-Regular-37"/>
       <use xlink:href="#Menlo-Regular-2e" transform="translate(60.205078 0)"/>
       <use xlink:href="#Menlo-Regular-35" transform="translate(120.410156 0)"/>
      </g>
     </g>
    </g>
    <g id="xtick_12">
     <g id="line2d_25">
      <g>
       <use xlink:href="#m22c18a8cb1" x="333.037565" y="134.7576" style="fill: #1a1a1a; stroke: #1a1a1a; stroke-width: 0.8"/>
      </g>
     </g>
     <g id="text_25">
      <!-- 10.0 -->
      <g style="fill: #1a1a1a" transform="translate(324.609128 143.596194) scale(0.07 -0.07)">
       <use xlink:href="#Menlo-Regular-31"/>
       <use xlink:href="#Menlo-Regular-30" transform="translate(60.205078 0)"/>
       <use xlink:href="#Menlo-Regular-2e" transform="translate(120.410156 0)"/>
       <use xlink:href="#Menlo-Regular-30" transform="translate(180.615234 0)"/>
      </g>
     </g>
    </g>
    <g id="xtick_13">
     <g id="line2d_26">
      <g>
       <use xlink:href="#m22c18a8cb1" x="357.377684" y="134.7576" style="fill: #1a1a1a; stroke: #1a1a1a; stroke-width: 0.8"/>
      </g>
     </g>
     <g id="text_26">
      <!-- 12.5 -->
      <g style="fill: #1a1a1a" transform="translate(348.949247 143.596194) scale(0.07 -0.07)">
       <use xlink:href="#Menlo-Regular-31"/>
       <use xlink:href="#Menlo-Regular-32" transform="translate(60.205078 0)"/>
       <use xlink:href="#Menlo-Regular-2e" transform="translate(120.410156 0)"/>
       <use xlink:href="#Menlo-Regular-35" transform="translate(180.615234 0)"/>
      </g>
     </g>
    </g>
    <g id="xtick_14">
     <g id="line2d_27">
      <g>
       <use xlink:href="#m22c18a8cb1" x="381.717803" y="134.7576" style="fill: #1a1a1a; stroke: #1a1a1a; stroke-width: 0.8"/>
      </g>
     </g>
     <g id="text_27">
      <!-- 15.0 -->
      <g style="fill: #1a1a1a" transform="translate(373.289366 143.596194) scale(0.07 -0.07)">
       <use xlink:href="#Menlo-Regular-31"/>
       <use xlink:href="#Menlo-Regular-35" transform="translate(60.205078 0)"/>
       <use xlink:href="#Menlo-Regular-2e" transform="translate(120.410156 0)"/>
       <use xlink:href="#Menlo-Regular-30" transform="translate(180.615234 0)"/>
      </g>
     </g>
    </g>
    <g id="text_28">
     <!-- per-synapse $W^{IE}$  (μS) -->
     <g style="fill: #1a1a1a" transform="translate(265.679482 156.251975) scale(0.08 -0.08)">
      <use xlink:href="#Menlo-Regular-70" transform="translate(0 0.684375)"/>
      <use xlink:href="#Menlo-Regular-65" transform="translate(60.205078 0.684375)"/>
      <use xlink:href="#Menlo-Regular-72" transform="translate(120.410156 0.684375)"/>
      <use xlink:href="#Menlo-Regular-2d" transform="translate(180.615234 0.684375)"/>
      <use xlink:href="#Menlo-Regular-73" transform="translate(240.820312 0.684375)"/>
      <use xlink:href="#Menlo-Regular-79" transform="translate(301.025391 0.684375)"/>
      <use xlink:href="#Menlo-Regular-6e" transform="translate(361.230469 0.684375)"/>
      <use xlink:href="#Menlo-Regular-61" transform="translate(421.435547 0.684375)"/>
      <use xlink:href="#Menlo-Regular-70" transform="translate(481.640625 0.684375)"/>
      <use xlink:href="#Menlo-Regular-73" transform="translate(541.845703 0.684375)"/>
      <use xlink:href="#Menlo-Regular-65" transform="translate(602.050781 0.684375)"/>
      <use xlink:href="#Menlo-Regular-20" transform="translate(662.255859 0.684375)"/>
      <use xlink:href="#DejaVuSans-Oblique-57" transform="translate(722.460938 0.684375)"/>
      <use xlink:href="#DejaVuSans-Oblique-49" transform="translate(828.354661 38.965625) scale(0.7)"/>
      <use xlink:href="#DejaVuSans-Oblique-45" transform="translate(848.999193 38.965625) scale(0.7)"/>
      <use xlink:href="#Menlo-Regular-20" transform="translate(895.962083 0.684375)"/>
      <use xlink:href="#Menlo-Regular-20" transform="translate(956.167161 0.684375)"/>
      <use xlink:href="#Menlo-Regular-28" transform="translate(1016.37224 0.684375)"/>
      <use xlink:href="#Menlo-Regular-3bc" transform="translate(1076.577318 0.684375)"/>
      <use xlink:href="#Menlo-Regular-53" transform="translate(1136.782396 0.684375)"/>
      <use xlink:href="#Menlo-Regular-29" transform="translate(1196.987474 0.684375)"/>
     </g>
    </g>
   </g>
   <g id="matplotlib.axis_4">
    <g id="ytick_7">
     <g id="line2d_28">
      <g>
       <use xlink:href="#mc5328f9de8" x="235.677088" y="134.7576" style="fill: #1a1a1a; stroke: #1a1a1a; stroke-width: 0.8"/>
      </g>
     </g>
     <g id="text_29">
      <!-- 0 -->
      <g style="fill: #1a1a1a" transform="translate(227.96287 137.426897) scale(0.07 -0.07)">
       <use xlink:href="#Menlo-Regular-30"/>
      </g>
     </g>
    </g>
    <g id="ytick_8">
     <g id="line2d_29">
      <g>
       <use xlink:href="#mc5328f9de8" x="235.677088" y="109.285541" style="fill: #1a1a1a; stroke: #1a1a1a; stroke-width: 0.8"/>
      </g>
     </g>
     <g id="text_30">
      <!-- 10 -->
      <g style="fill: #1a1a1a" transform="translate(223.748651 111.954838) scale(0.07 -0.07)">
       <use xlink:href="#Menlo-Regular-31"/>
       <use xlink:href="#Menlo-Regular-30" transform="translate(60.205078 0)"/>
      </g>
     </g>
    </g>
    <g id="ytick_9">
     <g id="line2d_30">
      <g>
       <use xlink:href="#mc5328f9de8" x="235.677088" y="83.813481" style="fill: #1a1a1a; stroke: #1a1a1a; stroke-width: 0.8"/>
      </g>
     </g>
     <g id="text_31">
      <!-- 20 -->
      <g style="fill: #1a1a1a" transform="translate(223.748651 86.482778) scale(0.07 -0.07)">
       <use xlink:href="#Menlo-Regular-32"/>
       <use xlink:href="#Menlo-Regular-30" transform="translate(60.205078 0)"/>
      </g>
     </g>
    </g>
    <g id="ytick_10">
     <g id="line2d_31">
      <g>
       <use xlink:href="#mc5328f9de8" x="235.677088" y="58.341422" style="fill: #1a1a1a; stroke: #1a1a1a; stroke-width: 0.8"/>
      </g>
     </g>
     <g id="text_32">
      <!-- 30 -->
      <g style="fill: #1a1a1a" transform="translate(223.748651 61.010719) scale(0.07 -0.07)">
       <defs>
        <path id="Menlo-Regular-33" d="M 2425 2497 
Q 2884 2375 3128 2064 
Q 3372 1753 3372 1288 
Q 3372 644 2939 276 
Q 2506 -91 1741 -91 
Q 1419 -91 1084 -31 
Q 750 28 428 141 
L 428 769 
Q 747 603 1056 522 
Q 1366 441 1672 441 
Q 2191 441 2469 675 
Q 2747 909 2747 1350 
Q 2747 1756 2469 1995 
Q 2191 2234 1716 2234 
L 1234 2234 
L 1234 2753 
L 1716 2753 
Q 2150 2753 2394 2943 
Q 2638 3134 2638 3475 
Q 2638 3834 2411 4026 
Q 2184 4219 1766 4219 
Q 1488 4219 1191 4156 
Q 894 4094 569 3969 
L 569 4550 
Q 947 4650 1242 4700 
Q 1538 4750 1766 4750 
Q 2447 4750 2855 4408 
Q 3263 4066 3263 3500 
Q 3263 3116 3048 2859 
Q 2834 2603 2425 2497 
z
" transform="scale(0.015625)"/>
       </defs>
       <use xlink:href="#Menlo-Regular-33"/>
       <use xlink:href="#Menlo-Regular-30" transform="translate(60.205078 0)"/>
      </g>
     </g>
    </g>
    <g id="ytick_11">
     <g id="line2d_32">
      <g>
       <use xlink:href="#mc5328f9de8" x="235.677088" y="32.869363" style="fill: #1a1a1a; stroke: #1a1a1a; stroke-width: 0.8"/>
      </g>
     </g>
     <g id="text_33">
      <!-- 40 -->
      <g style="fill: #1a1a1a" transform="translate(223.748651 35.53866) scale(0.07 -0.07)">
       <defs>
        <path id="Menlo-Regular-34" d="M 2297 4091 
L 825 1625 
L 2297 1625 
L 2297 4091 
z
M 2194 4666 
L 2925 4666 
L 2925 1625 
L 3547 1625 
L 3547 1113 
L 2925 1113 
L 2925 0 
L 2297 0 
L 2297 1113 
L 319 1113 
L 319 1709 
L 2194 4666 
z
" transform="scale(0.015625)"/>
       </defs>
       <use xlink:href="#Menlo-Regular-34"/>
       <use xlink:href="#Menlo-Regular-30" transform="translate(60.205078 0)"/>
      </g>
     </g>
    </g>
    <g id="text_34">
     <!-- I rate  (Hz / cell) -->
     <g style="fill: #1a1a1a" transform="translate(218.084901 125.437975) rotate(-90) scale(0.08 -0.08)">
      <defs>
       <path id="Menlo-Regular-49" d="M 628 4666 
L 3219 4666 
L 3219 4134 
L 2241 4134 
L 2241 531 
L 3219 531 
L 3219 0 
L 628 0 
L 628 531 
L 1606 531 
L 1606 4134 
L 628 4134 
L 628 4666 
z
" transform="scale(0.015625)"/>
      </defs>
      <use xlink:href="#Menlo-Regular-49"/>
      <use xlink:href="#Menlo-Regular-20" transform="translate(60.205078 0)"/>
      <use xlink:href="#Menlo-Regular-72" transform="translate(120.410156 0)"/>
      <use xlink:href="#Menlo-Regular-61" transform="translate(180.615234 0)"/>
      <use xlink:href="#Menlo-Regular-74" transform="translate(240.820312 0)"/>
      <use xlink:href="#Menlo-Regular-65" transform="translate(301.025391 0)"/>
      <use xlink:href="#Menlo-Regular-20" transform="translate(361.230469 0)"/>
      <use xlink:href="#Menlo-Regular-20" transform="translate(421.435547 0)"/>
      <use xlink:href="#Menlo-Regular-28" transform="translate(481.640625 0)"/>
      <use xlink:href="#Menlo-Regular-48" transform="translate(541.845703 0)"/>
      <use xlink:href="#Menlo-Regular-7a" transform="translate(602.050781 0)"/>
      <use xlink:href="#Menlo-Regular-20" transform="translate(662.255859 0)"/>
      <use xlink:href="#Menlo-Regular-2f" transform="translate(722.460938 0)"/>
      <use xlink:href="#Menlo-Regular-20" transform="translate(782.666016 0)"/>
      <use xlink:href="#Menlo-Regular-63" transform="translate(842.871094 0)"/>
      <use xlink:href="#Menlo-Regular-65" transform="translate(903.076172 0)"/>
      <use xlink:href="#Menlo-Regular-6c" transform="translate(963.28125 0)"/>
      <use xlink:href="#Menlo-Regular-6c" transform="translate(1023.486328 0)"/>
      <use xlink:href="#Menlo-Regular-29" transform="translate(1083.691406 0)"/>
     </g>
    </g>
   </g>
   <g id="line2d_33">
    <path d="M 240.545112 26.700349 
L 245.413136 34.859368 
L 255.149184 54.162413 
L 274.621279 55.754416 
L 313.56547 60.928428 
L 391.453851 64.311436 
" clip-path="url(#p88b93cd826)" style="fill: none; stroke: #c8102e; stroke-width: 1.6; stroke-linejoin: miter"/>
    <g clip-path="url(#p88b93cd826)">
     <use xlink:href="#m456ad079e9" x="240.545112" y="26.700349" style="fill: #c8102e; stroke: #c8102e; stroke-linejoin: miter"/>
     <use xlink:href="#m456ad079e9" x="245.413136" y="34.859368" style="fill: #c8102e; stroke: #c8102e; stroke-linejoin: miter"/>
     <use xlink:href="#m456ad079e9" x="255.149184" y="54.162413" style="fill: #c8102e; stroke: #c8102e; stroke-linejoin: miter"/>
     <use xlink:href="#m456ad079e9" x="274.621279" y="55.754416" style="fill: #c8102e; stroke: #c8102e; stroke-linejoin: miter"/>
     <use xlink:href="#m456ad079e9" x="313.56547" y="60.928428" style="fill: #c8102e; stroke: #c8102e; stroke-linejoin: miter"/>
     <use xlink:href="#m456ad079e9" x="391.453851" y="64.311436" style="fill: #c8102e; stroke: #c8102e; stroke-linejoin: miter"/>
    </g>
   </g>
   <g id="line2d_34">
    <path d="M 240.545112 29.784856 
L 245.413136 36.202621 
L 255.149184 54.560413 
L 274.621279 56.450918 
L 313.56547 62.570182 
L 391.453851 67.047692 
" clip-path="url(#p88b93cd826)" style="fill: none; stroke: #e89400; stroke-width: 1.6; stroke-linejoin: miter"/>
    <g clip-path="url(#p88b93cd826)">
     <use xlink:href="#mdade76d9a0" x="240.545112" y="29.784856" style="fill: #e89400; stroke: #e89400; stroke-linejoin: miter"/>
     <use xlink:href="#mdade76d9a0" x="245.413136" y="36.202621" style="fill: #e89400; stroke: #e89400; stroke-linejoin: miter"/>
     <use xlink:href="#mdade76d9a0" x="255.149184" y="54.560413" style="fill: #e89400; stroke: #e89400; stroke-linejoin: miter"/>
     <use xlink:href="#mdade76d9a0" x="274.621279" y="56.450918" style="fill: #e89400; stroke: #e89400; stroke-linejoin: miter"/>
     <use xlink:href="#mdade76d9a0" x="313.56547" y="62.570182" style="fill: #e89400; stroke: #e89400; stroke-linejoin: miter"/>
     <use xlink:href="#mdade76d9a0" x="391.453851" y="67.047692" style="fill: #e89400; stroke: #e89400; stroke-linejoin: miter"/>
    </g>
   </g>
   <g id="line2d_35">
    <path d="M 240.545112 27.695351 
L 245.413136 40.13288 
L 255.149184 54.2246 
L 274.621279 58.913549 
L 313.56547 68.515321 
L 391.453851 65.679564 
" clip-path="url(#p88b93cd826)" style="fill: none; stroke: #1a1a1a; stroke-width: 1.6; stroke-linejoin: miter"/>
    <g clip-path="url(#p88b93cd826)">
     <use xlink:href="#m21a28ba23c" x="240.545112" y="27.695351" style="fill: #1a1a1a; stroke: #1a1a1a"/>
     <use xlink:href="#m21a28ba23c" x="245.413136" y="40.13288" style="fill: #1a1a1a; stroke: #1a1a1a"/>
     <use xlink:href="#m21a28ba23c" x="255.149184" y="54.2246" style="fill: #1a1a1a; stroke: #1a1a1a"/>
     <use xlink:href="#m21a28ba23c" x="274.621279" y="58.913549" style="fill: #1a1a1a; stroke: #1a1a1a"/>
     <use xlink:href="#m21a28ba23c" x="313.56547" y="68.515321" style="fill: #1a1a1a; stroke: #1a1a1a"/>
     <use xlink:href="#m21a28ba23c" x="391.453851" y="65.679564" style="fill: #1a1a1a; stroke: #1a1a1a"/>
    </g>
   </g>
   <g id="line2d_36">
    <path d="M 255.149184 134.7576 
L 255.149184 24.6096 
" clip-path="url(#p88b93cd826)" style="fill: none; stroke-dasharray: 0.8,1.32; stroke-dashoffset: 0; stroke: #6a6a6a; stroke-width: 0.8"/>
   </g>
   <g id="patch_7">
    <path d="M 235.677088 134.7576 
L 235.677088 24.6096 
" style="fill: none; stroke: #1a1a1a; stroke-width: 0.8; stroke-linejoin: miter; stroke-linecap: square"/>
   </g>
   <g id="patch_8">
    <path d="M 235.677088 134.7576 
L 396.321875 134.7576 
" style="fill: none; stroke: #1a1a1a; stroke-width: 0.8; stroke-linejoin: miter; stroke-linecap: square"/>
   </g>
  </g>
  <g id="text_35">
   <!-- Rate is set by the per-synapse weight, not the pool size -->
   <g transform="translate(60.078437 7.922578) scale(0.085 -0.085)">
    <defs>
     <path id="Menlo-Regular-52" d="M 2375 2203 
Q 2619 2141 2791 1967 
Q 2963 1794 3219 1275 
L 3853 0 
L 3175 0 
L 2619 1178 
Q 2378 1681 2186 1826 
Q 1994 1972 1684 1972 
L 1081 1972 
L 1081 0 
L 447 0 
L 447 4666 
L 1747 4666 
Q 2516 4666 2925 4319 
Q 3334 3972 3334 3316 
Q 3334 2853 3082 2561 
Q 2831 2269 2375 2203 
z
M 1081 4147 
L 1081 2491 
L 1772 2491 
Q 2225 2491 2447 2694 
Q 2669 2897 2669 3316 
Q 2669 3719 2433 3933 
Q 2197 4147 1747 4147 
L 1081 4147 
z
" transform="scale(0.015625)"/>
     <path id="Menlo-Regular-68" d="M 3284 2169 
L 3284 0 
L 2706 0 
L 2706 2169 
Q 2706 2641 2540 2862 
Q 2375 3084 2022 3084 
Q 1619 3084 1401 2798 
Q 1184 2513 1184 1978 
L 1184 0 
L 609 0 
L 609 4863 
L 1184 4863 
L 1184 2975 
Q 1338 3275 1600 3429 
Q 1863 3584 2222 3584 
Q 2756 3584 3020 3232 
Q 3284 2881 3284 2169 
z
" transform="scale(0.015625)"/>
     <path id="Menlo-Regular-77" d="M 0 3500 
L 569 3500 
L 1178 672 
L 1678 2478 
L 2169 2478 
L 2675 672 
L 3284 3500 
L 3853 3500 
L 3034 0 
L 2484 0 
L 1925 1919 
L 1369 0 
L 819 0 
L 0 3500 
z
" transform="scale(0.015625)"/>
     <path id="Menlo-Regular-67" d="M 2681 1778 
Q 2681 2425 2470 2761 
Q 2259 3097 1856 3097 
Q 1434 3097 1212 2761 
Q 991 2425 991 1778 
Q 991 1131 1214 792 
Q 1438 453 1863 453 
Q 2259 453 2470 793 
Q 2681 1134 2681 1778 
z
M 3256 225 
Q 3256 -563 2884 -969 
Q 2513 -1375 1791 -1375 
Q 1553 -1375 1293 -1331 
Q 1034 -1288 775 -1203 
L 775 -634 
Q 1081 -778 1331 -847 
Q 1581 -916 1791 -916 
Q 2256 -916 2468 -662 
Q 2681 -409 2681 141 
L 2681 166 
L 2681 556 
Q 2544 263 2306 119 
Q 2069 -25 1728 -25 
Q 1116 -25 750 465 
Q 384 956 384 1778 
Q 384 2603 750 3093 
Q 1116 3584 1728 3584 
Q 2066 3584 2300 3450 
Q 2534 3316 2681 3034 
L 2681 3488 
L 3256 3488 
L 3256 225 
z
" transform="scale(0.015625)"/>
    </defs>
    <use xlink:href="#Menlo-Regular-52"/>
    <use xlink:href="#Menlo-Regular-61" transform="translate(60.205078 0)"/>
    <use xlink:href="#Menlo-Regular-74" transform="translate(120.410156 0)"/>
    <use xlink:href="#Menlo-Regular-65" transform="translate(180.615234 0)"/>
    <use xlink:href="#Menlo-Regular-20" transform="translate(240.820312 0)"/>
    <use xlink:href="#Menlo-Regular-69" transform="translate(301.025391 0)"/>
    <use xlink:href="#Menlo-Regular-73" transform="translate(361.230469 0)"/>
    <use xlink:href="#Menlo-Regular-20" transform="translate(421.435547 0)"/>
    <use xlink:href="#Menlo-Regular-73" transform="translate(481.640625 0)"/>
    <use xlink:href="#Menlo-Regular-65" transform="translate(541.845703 0)"/>
    <use xlink:href="#Menlo-Regular-74" transform="translate(602.050781 0)"/>
    <use xlink:href="#Menlo-Regular-20" transform="translate(662.255859 0)"/>
    <use xlink:href="#Menlo-Regular-62" transform="translate(722.460938 0)"/>
    <use xlink:href="#Menlo-Regular-79" transform="translate(782.666016 0)"/>
    <use xlink:href="#Menlo-Regular-20" transform="translate(842.871094 0)"/>
    <use xlink:href="#Menlo-Regular-74" transform="translate(903.076172 0)"/>
    <use xlink:href="#Menlo-Regular-68" transform="translate(963.28125 0)"/>
    <use xlink:href="#Menlo-Regular-65" transform="translate(1023.486328 0)"/>
    <use xlink:href="#Menlo-Regular-20" transform="translate(1083.691406 0)"/>
    <use xlink:href="#Menlo-Regular-70" transform="translate(1143.896484 0)"/>
    <use xlink:href="#Menlo-Regular-65" transform="translate(1204.101562 0)"/>
    <use xlink:href="#Menlo-Regular-72" transform="translate(1264.306641 0)"/>
    <use xlink:href="#Menlo-Regular-2d" transform="translate(1324.511719 0)"/>
    <use xlink:href="#Menlo-Regular-73" transform="translate(1384.716797 0)"/>
    <use xlink:href="#Menlo-Regular-79" transform="translate(1444.921875 0)"/>
    <use xlink:href="#Menlo-Regular-6e" transform="translate(1505.126953 0)"/>
    <use xlink:href="#Menlo-Regular-61" transform="translate(1565.332031 0)"/>
    <use xlink:href="#Menlo-Regular-70" transform="translate(1625.537109 0)"/>
    <use xlink:href="#Menlo-Regular-73" transform="translate(1685.742188 0)"/>
    <use xlink:href="#Menlo-Regular-65" transform="translate(1745.947266 0)"/>
    <use xlink:href="#Menlo-Regular-20" transform="translate(1806.152344 0)"/>
    <use xlink:href="#Menlo-Regular-77" transform="translate(1866.357422 0)"/>
    <use xlink:href="#Menlo-Regular-65" transform="translate(1926.5625 0)"/>
    <use xlink:href="#Menlo-Regular-69" transform="translate(1986.767578 0)"/>
    <use xlink:href="#Menlo-Regular-67" transform="translate(2046.972656 0)"/>
    <use xlink:href="#Menlo-Regular-68" transform="translate(2107.177734 0)"/>
    <use xlink:href="#Menlo-Regular-74" transform="translate(2167.382812 0)"/>
    <use xlink:href="#Menlo-Regular-2c" transform="translate(2227.587891 0)"/>
    <use xlink:href="#Menlo-Regular-20" transform="translate(2287.792969 0)"/>
    <use xlink:href="#Menlo-Regular-6e" transform="translate(2347.998047 0)"/>
    <use xlink:href="#Menlo-Regular-6f" transform="translate(2408.203125 0)"/>
    <use xlink:href="#Menlo-Regular-74" transform="translate(2468.408203 0)"/>
    <use xlink:href="#Menlo-Regular-20" transform="translate(2528.613281 0)"/>
    <use xlink:href="#Menlo-Regular-74" transform="translate(2588.818359 0)"/>
    <use xlink:href="#Menlo-Regular-68" transform="translate(2649.023438 0)"/>
    <use xlink:href="#Menlo-Regular-65" transform="translate(2709.228516 0)"/>
    <use xlink:href="#Menlo-Regular-20" transform="translate(2769.433594 0)"/>
    <use xlink:href="#Menlo-Regular-70" transform="translate(2829.638672 0)"/>
    <use xlink:href="#Menlo-Regular-6f" transform="translate(2889.84375 0)"/>
    <use xlink:href="#Menlo-Regular-6f" transform="translate(2950.048828 0)"/>
    <use xlink:href="#Menlo-Regular-6c" transform="translate(3010.253906 0)"/>
    <use xlink:href="#Menlo-Regular-20" transform="translate(3070.458984 0)"/>
    <use xlink:href="#Menlo-Regular-73" transform="translate(3130.664062 0)"/>
    <use xlink:href="#Menlo-Regular-69" transform="translate(3190.869141 0)"/>
    <use xlink:href="#Menlo-Regular-7a" transform="translate(3251.074219 0)"/>
    <use xlink:href="#Menlo-Regular-65" transform="translate(3311.279297 0)"/>
   </g>
  </g>
  <g id="text_36">
   <!-- r013 -->
   <g style="fill: #888888" transform="translate(387.293063 169.270203) scale(0.065 -0.065)">
    <use xlink:href="#Menlo-Regular-72"/>
    <use xlink:href="#Menlo-Regular-30" transform="translate(60.205078 0)"/>
    <use xlink:href="#Menlo-Regular-31" transform="translate(120.410156 0)"/>
    <use xlink:href="#Menlo-Regular-33" transform="translate(180.615234 0)"/>
   </g>
  </g>
 </g>
 <defs>
  <clipPath id="p0330662a1f">
   <rect x="33.561875" y="24.6096" width="160.644787" height="110.148"/>
  </clipPath>
  <clipPath id="p88b93cd826">
   <rect x="235.677088" y="24.6096" width="160.644787" height="110.148"/>
  </clipPath>
 </defs>
</svg>
