<?xml version="1.0" encoding="UTF-8" standalone="no"?>
<!DOCTYPE svg PUBLIC "-//W3C//DTD SVG 1.1//EN"
 "http://www.w3.org/Graphics/SVG/1.1/DTD/svg11.dtd">
<!-- Generated by graphviz version 14.1.2 (20260124.0452)
 -->
<!-- Title: snnlang Pages: 1 -->
<svg width="809pt" height="328pt"
 viewBox="0.00 0.00 809.00 328.00" xmlns="http://www.w3.org/2000/svg" xmlns:xlink="http://www.w3.org/1999/xlink">
<g id="graph0" class="graph" transform="scale(1 1) rotate(0) translate(25.2 302.72)">
<title>snnlang</title>
<polygon fill="#ffffff" stroke="none" points="-25.2,25.2 -25.2,-302.72 784.08,-302.72 784.08,25.2 -25.2,25.2"/>
<!-- drive_A_110_Hz&#45;&gt;PING_A_E -->
<g id="e_n_PING_A_input_to_E" class="edge edge excitatory feedforward">
<title>drive_A_110_Hz&#45;&gt;PING_A_E</title>
<path fill="none" stroke="#243044" stroke-width="1.7" d="M137.51,-210.45C181.89,-210.45 239.84,-210.45 285.4,-210.45"/>
<polygon fill="#243044" stroke="#243044" stroke-width="1.7" points="285.15,-212.98 292.35,-210.46 285.15,-207.94 285.15,-212.98"/>
<text xml:space="preserve" text-anchor="middle" x="216.29" y="-211.65" font-family="Helvetica,sans-Serif" font-size="9.00" fill="#667085">PING_A_input_to_E</text>
</g>
<!-- drive_B_90_Hz&#45;&gt;PING_B_E -->
<g id="e_n_PING_B_input_to_E" class="edge edge excitatory feedforward">
<title>drive_B_90_Hz&#45;&gt;PING_B_E</title>
<path fill="none" stroke="#243044" stroke-width="1.7" d="M133.16,-38.45C178.08,-38.45 238.4,-38.45 285.48,-38.45"/>
<polygon fill="#243044" stroke="#243044" stroke-width="1.7" points="285.24,-40.98 292.44,-38.46 285.24,-35.94 285.24,-40.98"/>
<text xml:space="preserve" text-anchor="middle" x="216.29" y="-39.66" font-family="Helvetica,sans-Serif" font-size="9.00" fill="#667085">PING_B_input_to_E</text>
</g>
<!-- PING_A_E&#45;&gt;PING_A_I -->
<g id="e_n_PING_A_E_to_I" class="edge edge excitatory recurrent">
<title>PING_A_E&#45;&gt;PING_A_I</title>
<path fill="none" stroke="#243044" stroke-width="2.2" d="M426.14,-245.25C438.23,-250.31 450.99,-254.72 463.46,-257.45 518.81,-269.6 536.39,-272.74 590.96,-257.45 605.06,-253.5 619.15,-247.01 632.16,-239.67"/>
<polygon fill="#243044" stroke="#243044" stroke-width="2.2" points="633.18,-242 638.1,-236.17 630.62,-237.65 633.18,-242"/>
<text xml:space="preserve" text-anchor="middle" x="527.21" y="-268.97" font-family="Helvetica,sans-Serif" font-size="9.00" fill="#667085">PING_A_E_to_I</text>
</g>
<!-- PING_A_E&#45;&gt;PING_B_E -->
<g id="e_n_PING_A_E_to_PING_B_E_K_EE" class="edge edge excitatory feedback">
<title>PING_A_E&#45;&gt;PING_B_E</title>
<path fill="none" stroke="#243044" stroke-width="2.2" stroke-dasharray="5,2" d="M360.5,-171.58C360.5,-146.76 360.5,-114.37 360.5,-87.75"/>
<polygon fill="#243044" stroke="#243044" stroke-width="2.2" points="363.02,-88.01 360.5,-80.81 357.98,-88.01 363.02,-88.01"/>
<text xml:space="preserve" text-anchor="middle" x="352.62" y="-120.78" font-family="Helvetica,sans-Serif" font-size="9.00" fill="#667085">PING_A_E_to_PING_B_E_K_EE</text>
</g>
<!-- PING_A_E&#45;&gt;PING_B_I -->
<g id="e_n_PING_A_E_to_PING_B_I_K_EI" class="edge edge excitatory feedback">
<title>PING_A_E&#45;&gt;PING_B_I</title>
<path fill="none" stroke="#243044" stroke-width="2.2" stroke-dasharray="5,2" d="M426.02,-224.03C474.77,-230.73 541.51,-231.99 590.96,-202.45 619.69,-185.3 610.26,-165.21 628.96,-137.45 636.97,-125.56 646.12,-113.11 654.94,-101.59"/>
<polygon fill="#243044" stroke="#243044" stroke-width="2.2" points="656.84,-103.25 659.25,-96.02 652.85,-100.17 656.84,-103.25"/>
<text xml:space="preserve" text-anchor="middle" x="527.21" y="-229.17" font-family="Helvetica,sans-Serif" font-size="9.00" fill="#667085">PING_A_E_to_PING_B_I_K_EI</text>
</g>
<!-- PING_A_I&#45;&gt;PING_A_E -->
<g id="e_n_PING_A_I_to_E" class="edge edge inhibitory recurrent">
<title>PING_A_I&#45;&gt;PING_A_E</title>
<path fill="none" stroke="#c44a55" stroke-width="2.2" d="M628.49,-190.72C582.43,-188.24 519.01,-186.64 463.46,-191.7 452.41,-192.71 440.78,-194.32 429.48,-196.18"/>
<polygon fill="#c44a55" stroke="#c44a55" stroke-width="2.2" points="427.66,-200.14 426.47,-193.04 427.89,-192.8 429.08,-199.9 427.66,-200.14"/>
<polyline fill="none" stroke="#c44a55" stroke-width="2.2" points="426.36,-196.71 429.91,-196.11"/>
<text xml:space="preserve" text-anchor="middle" x="527.21" y="-192.9" font-family="Helvetica,sans-Serif" font-size="9.00" fill="#667085">PING_A_I_to_E</text>
</g>
<!-- PING_B_E&#45;&gt;PING_A_E -->
<g id="e_n_PING_B_E_to_PING_A_E_K_EE" class="edge edge excitatory feedback">
<title>PING_B_E&#45;&gt;PING_A_E</title>
<path fill="none" stroke="#243044" stroke-width="2.2" stroke-dasharray="5,2" d="M375.52,-77.37C376.77,-99.94 376.93,-135.3 375.99,-161.08"/>
<polygon fill="#243044" stroke="#243044" stroke-width="2.2" points="373.48,-160.85 375.67,-168.15 378.51,-161.08 373.48,-160.85"/>
<text xml:space="preserve" text-anchor="middle" x="368.37" y="-120.78" font-family="Helvetica,sans-Serif" font-size="9.00" fill="#667085">PING_B_E_to_PING_A_E_K_EE</text>
</g>
<!-- PING_B_E&#45;&gt;PING_A_I -->
<g id="e_n_PING_B_E_to_PING_A_I_K_EI" class="edge edge excitatory feedback">
<title>PING_B_E&#45;&gt;PING_A_I</title>
<path fill="none" stroke="#243044" stroke-width="2.2" stroke-dasharray="5,2" d="M425.79,-68.91C481.16,-95.14 561.07,-132.99 619.05,-160.46"/>
<polygon fill="#243044" stroke="#243044" stroke-width="2.2" points="617.93,-162.72 625.51,-163.52 620.09,-158.16 617.93,-162.72"/>
<text xml:space="preserve" text-anchor="middle" x="527.21" y="-145.87" font-family="Helvetica,sans-Serif" font-size="9.00" fill="#667085">PING_B_E_to_PING_A_I_K_EI</text>
</g>
<!-- PING_B_E&#45;&gt;PING_B_I -->
<g id="e_n_PING_B_E_to_I" class="edge edge excitatory recurrent">
<title>PING_B_E&#45;&gt;PING_B_I</title>
<path fill="none" stroke="#243044" stroke-width="2.2" d="M425.79,-41.56C480.93,-44.22 560.41,-48.06 618.33,-50.85"/>
<polygon fill="#243044" stroke="#243044" stroke-width="2.2" points="617.88,-53.36 625.2,-51.19 618.13,-48.32 617.88,-53.36"/>
<text xml:space="preserve" text-anchor="middle" x="527.21" y="-50.48" font-family="Helvetica,sans-Serif" font-size="9.00" fill="#667085">PING_B_E_to_I</text>
</g>
<!-- PING_B_I&#45;&gt;PING_B_E -->
<g id="e_n_PING_B_I_to_E" class="edge edge inhibitory recurrent">
<title>PING_B_I&#45;&gt;PING_B_E</title>
<path fill="none" stroke="#c44a55" stroke-width="2.2" d="M628.3,-31.88C616.04,-28.48 603.21,-25.51 590.96,-23.7 537.08,-15.76 475.45,-20.47 429.64,-26.61"/>
<polygon fill="#c44a55" stroke="#c44a55" stroke-width="2.2" points="427.66,-30.51 426.69,-23.37 428.12,-23.18 429.09,-30.32 427.66,-30.51"/>
<polyline fill="none" stroke="#c44a55" stroke-width="2.2" points="426.46,-27.04 430.03,-26.55"/>
<text xml:space="preserve" text-anchor="middle" x="527.21" y="-24.9" font-family="Helvetica,sans-Serif" font-size="9.00" fill="#667085">PING_B_I_to_E</text>
</g>
<!-- drive_A_110_Hz -->
<g id="n_drive_A_110_Hz" class="node node input">
<title>drive_A_110_Hz</title>
<path fill="#f5f7fa" stroke="#cbd5e1" d="M125.04,-247.47C125.04,-247.47 12,-247.47 12,-247.47 6,-247.47 0,-241.47 0,-235.47 0,-235.47 0,-185.44 0,-185.44 0,-179.44 6,-173.44 12,-173.44 12,-173.44 125.04,-173.44 125.04,-173.44 131.04,-173.44 137.04,-179.44 137.04,-185.44 137.04,-185.44 137.04,-235.47 137.04,-235.47 137.04,-241.47 131.04,-247.47 125.04,-247.47"/>
<text xml:space="preserve" text-anchor="start" x="11.52" y="-225.58" font-family="Helvetica,sans-Serif" font-weight="bold" font-size="15.00" fill="#243044">drive_A_110_Hz</text>
<text xml:space="preserve" text-anchor="start" x="11.52" y="-208.58" font-family="Helvetica,sans-Serif" font-size="10.00" fill="#667085">time × batch × 128</text>
<polygon fill="#f5f7fa" stroke="none" points="11.52,-182.08 11.52,-199.83 125.52,-199.83 125.52,-182.08 11.52,-182.08"/>
<text xml:space="preserve" text-anchor="start" x="15.52" y="-187.28" font-family="Helvetica,sans-Serif" font-size="9.00" fill="#243044">SPIKES</text>
</g>
<!-- drive_B_90_Hz -->
<g id="n_drive_B_90_Hz" class="node node input">
<title>drive_B_90_Hz</title>
<path fill="#f5f7fa" stroke="#cbd5e1" d="M120.91,-75.47C120.91,-75.47 16.13,-75.47 16.13,-75.47 10.13,-75.47 4.12,-69.47 4.12,-63.47 4.12,-63.47 4.12,-13.44 4.12,-13.44 4.12,-7.44 10.12,-1.44 16.12,-1.44 16.12,-1.44 120.91,-1.44 120.91,-1.44 126.91,-1.44 132.91,-7.44 132.91,-13.44 132.91,-13.44 132.91,-63.47 132.91,-63.47 132.91,-69.47 126.91,-75.47 120.91,-75.47"/>
<text xml:space="preserve" text-anchor="start" x="15.64" y="-53.58" font-family="Helvetica,sans-Serif" font-weight="bold" font-size="15.00" fill="#243044">drive_B_90_Hz</text>
<text xml:space="preserve" text-anchor="start" x="15.64" y="-36.58" font-family="Helvetica,sans-Serif" font-size="10.00" fill="#667085">time × batch × 128</text>
<polygon fill="#f5f7fa" stroke="none" points="15.64,-10.08 15.64,-27.83 121.39,-27.83 121.39,-10.08 15.64,-10.08"/>
<text xml:space="preserve" text-anchor="start" x="19.64" y="-15.28" font-family="Helvetica,sans-Serif" font-size="9.00" fill="#243044">SPIKES</text>
</g>
<!-- PING_A_E -->
<g id="n_PING_A_E" class="node node population spiking">
<title>PING_A_E</title>
<path fill="#ffffff" stroke="#b8c4d1" stroke-width="1.4" d="M413.46,-248.91C413.46,-248.91 307.54,-248.91 307.54,-248.91 301.54,-248.91 295.54,-242.91 295.54,-236.91 295.54,-236.91 295.54,-184 295.54,-184 295.54,-178 301.54,-172 307.54,-172 307.54,-172 413.46,-172 413.46,-172 419.46,-172 425.46,-178 425.46,-184 425.46,-184 425.46,-236.91 425.46,-236.91 425.46,-242.91 419.46,-248.91 413.46,-248.91"/>
<text xml:space="preserve" text-anchor="start" x="308.5" y="-225.58" font-family="Helvetica,sans-Serif" font-weight="bold" font-size="15.00" fill="#243044">PING_A_E</text>
<text xml:space="preserve" text-anchor="start" x="308.5" y="-208.58" font-family="Helvetica,sans-Serif" font-size="10.00" fill="#667085">80 units · coba_lif</text>
<polygon fill="#f5f7fa" stroke="none" points="308.5,-182.08 308.5,-199.83 412.5,-199.83 412.5,-182.08 308.5,-182.08"/>
<text xml:space="preserve" text-anchor="start" x="312.5" y="-187.28" font-family="Helvetica,sans-Serif" font-size="9.00" fill="#243044">SPIKING POPULATION</text>
</g>
<!-- PING_A_I -->
<g id="n_PING_A_I" class="node node population spiking">
<title>PING_A_I</title>
<path fill="#ffffff" stroke="#b8c4d1" stroke-width="1.4" d="M746.88,-233.91C746.88,-233.91 640.96,-233.91 640.96,-233.91 634.96,-233.91 628.96,-227.91 628.96,-221.91 628.96,-221.91 628.96,-169 628.96,-169 628.96,-163 634.96,-157 640.96,-157 640.96,-157 746.88,-157 746.88,-157 752.88,-157 758.88,-163 758.88,-169 758.88,-169 758.88,-221.91 758.88,-221.91 758.88,-227.91 752.88,-233.91 746.88,-233.91"/>
<text xml:space="preserve" text-anchor="start" x="641.92" y="-210.58" font-family="Helvetica,sans-Serif" font-weight="bold" font-size="15.00" fill="#243044">PING_A_I</text>
<text xml:space="preserve" text-anchor="start" x="641.92" y="-193.58" font-family="Helvetica,sans-Serif" font-size="10.00" fill="#667085">20 units · coba_lif</text>
<polygon fill="#f5f7fa" stroke="none" points="641.92,-167.08 641.92,-184.83 745.92,-184.83 745.92,-167.08 641.92,-167.08"/>
<text xml:space="preserve" text-anchor="start" x="645.92" y="-172.28" font-family="Helvetica,sans-Serif" font-size="9.00" fill="#243044">SPIKING POPULATION</text>
</g>
<!-- PING_B_E -->
<g id="n_PING_B_E" class="node node population spiking">
<title>PING_B_E</title>
<path fill="#ffffff" stroke="#b8c4d1" stroke-width="1.4" d="M413.46,-76.91C413.46,-76.91 307.54,-76.91 307.54,-76.91 301.54,-76.91 295.54,-70.91 295.54,-64.91 295.54,-64.91 295.54,-12 295.54,-12 295.54,-6 301.54,0 307.54,0 307.54,0 413.46,0 413.46,0 419.46,0 425.46,-6 425.46,-12 425.46,-12 425.46,-64.91 425.46,-64.91 425.46,-70.91 419.46,-76.91 413.46,-76.91"/>
<text xml:space="preserve" text-anchor="start" x="308.5" y="-53.58" font-family="Helvetica,sans-Serif" font-weight="bold" font-size="15.00" fill="#243044">PING_B_E</text>
<text xml:space="preserve" text-anchor="start" x="308.5" y="-36.58" font-family="Helvetica,sans-Serif" font-size="10.00" fill="#667085">80 units · coba_lif</text>
<polygon fill="#f5f7fa" stroke="none" points="308.5,-10.08 308.5,-27.83 412.5,-27.83 412.5,-10.08 308.5,-10.08"/>
<text xml:space="preserve" text-anchor="start" x="312.5" y="-15.28" font-family="Helvetica,sans-Serif" font-size="9.00" fill="#243044">SPIKING POPULATION</text>
</g>
<!-- PING_B_I -->
<g id="n_PING_B_I" class="node node population spiking">
<title>PING_B_I</title>
<path fill="#ffffff" stroke="#b8c4d1" stroke-width="1.4" d="M746.88,-92.91C746.88,-92.91 640.96,-92.91 640.96,-92.91 634.96,-92.91 628.96,-86.91 628.96,-80.91 628.96,-80.91 628.96,-28 628.96,-28 628.96,-22 634.96,-16 640.96,-16 640.96,-16 746.88,-16 746.88,-16 752.88,-16 758.88,-22 758.88,-28 758.88,-28 758.88,-80.91 758.88,-80.91 758.88,-86.91 752.88,-92.91 746.88,-92.91"/>
<text xml:space="preserve" text-anchor="start" x="641.92" y="-69.58" font-family="Helvetica,sans-Serif" font-weight="bold" font-size="15.00" fill="#243044">PING_B_I</text>
<text xml:space="preserve" text-anchor="start" x="641.92" y="-52.58" font-family="Helvetica,sans-Serif" font-size="10.00" fill="#667085">20 units · coba_lif</text>
<polygon fill="#f5f7fa" stroke="none" points="641.92,-26.08 641.92,-43.83 745.92,-43.83 745.92,-26.08 641.92,-26.08"/>
<text xml:space="preserve" text-anchor="start" x="645.92" y="-31.28" font-family="Helvetica,sans-Serif" font-size="9.00" fill="#243044">SPIKING POPULATION</text>
</g>
</g>
</svg>
