<svg viewBox="0 0 528.533162464 216.261228346" width="528.533162464pt" height="216.261228346pt" xmlns="http://www.w3.org/2000/svg" xmlns:xlink="http://www.w3.org/1999/xlink" xmlns:h5="http://www.w3.org/1999/xhtml"><path fill="#ffffff" fill-rule="nonzero" d="M 0 0v 216.261228346h 528.533162464v -216.261228346Z "/><g transform="translate(6 6)"><path fill="#ecece9" fill-rule="nonzero" transform="translate(112.042793182 59.573984252)" d="M 0 0m 0 130.960629921v -56.125984252l 67.277982657 -27.212598425l 53.822386126 -10.204724409l 40.366789594 -13.606299213l 53.822386126 -15.307086614l 80.733579189 -3.401574803l 59.204624738 -5.102362205v 130.960629921"/><path fill="none" stroke="#d4d4d4" stroke-width="1" stroke-linecap="butt" stroke-linejoin="miter" stroke-miterlimit="4" transform="translate(63.602645669 190.534614173)" d="M 0 0h 425.196850394"/><path fill="none" stroke="#d4d4d4" stroke-width="1" stroke-linecap="butt" stroke-linejoin="miter" stroke-miterlimit="4" transform="translate(63.602645669 148.014929134)" d="M 0 0h 425.196850394"/><path fill="none" stroke="#d4d4d4" stroke-width="1" stroke-linecap="butt" stroke-linejoin="miter" stroke-miterlimit="4" transform="translate(63.602645669 105.495244094)" d="M 0 0h 425.196850394"/><path fill="none" stroke="#d4d4d4" stroke-width="1" stroke-linecap="butt" stroke-linejoin="miter" stroke-miterlimit="4" transform="translate(63.602645669 62.975559055)" d="M 0 0h 425.196850394"/><path fill="none" stroke="#d4d4d4" stroke-width="1" stroke-linecap="butt" stroke-linejoin="miter" stroke-miterlimit="4" transform="translate(63.602645669 20.455874016)" d="M 0 0h 425.196850394"/><path fill="none" stroke="#000000" stroke-width="1" stroke-linecap="butt" stroke-linejoin="miter" stroke-miterlimit="4" transform="translate(60.768 190.534614173)" d="M 0 0h 443.115369171"/><path fill="none" stroke="#000000" stroke-width="1" stroke-linecap="butt" stroke-linejoin="miter" stroke-miterlimit="4" transform="translate(498.714078047 188.408629921)" d="M 0 0m 0 4.251968504l 5.669291339 -2.125984252l -5.669291339 -2.125984252"/><path fill="none" stroke="#000000" stroke-width="1" stroke-linecap="butt" stroke-linejoin="miter" stroke-miterlimit="4" transform="translate(85.13160012 187.699968504)" d="M 0 0m 0 5.669291339v -5.669291339"/><path fill="none" transform="translate(72.22360012 197.621228346)" d="M 0 0h 25.816v 6.64h -25.816v -6.64Z "/><g transform="translate(72.223599994 197.621228268)"><g transform="matrix(1 0 0 -1 0 5.264)"><use xlink:href="#g3427DB79E013EF0644448109D29171F6" x="0" y="0" fill="#000000" fill-rule="nonzero"/><use xlink:href="#g7CA707F1BCB16774F6BEEBBEACACFCA3" x="2.576" y="0" fill="#000000" fill-rule="nonzero"/><use xlink:href="#g9CB01113ED99ABC5A5F75E5016C1499E" x="6.824" y="0" fill="#000000" fill-rule="nonzero"/><use xlink:href="#gAD9C87F854BDA42EDABFFB35EC1FA84E" x="10.936" y="0" fill="#000000" fill-rule="nonzero"/><use xlink:href="#g97663EC9AEA74EADA07472643E1BE1B4" x="14.656" y="0" fill="#000000" fill-rule="nonzero"/><use xlink:href="#gAD9C87F854BDA42EDABFFB35EC1FA84E" x="18.376" y="0" fill="#000000" fill-rule="nonzero"/><use xlink:href="#gF821431C61A4D7F3ECEFEC074E9C0EFC" x="22.096" y="0" fill="#000000" fill-rule="nonzero"/></g></g><path fill="none" stroke="#000000" stroke-width="1" stroke-linecap="butt" stroke-linejoin="miter" stroke-miterlimit="4" transform="translate(219.687565434 187.699968504)" d="M 0 0m 0 5.669291339v -5.669291339"/><path fill="none" transform="translate(205.963565434 197.621228346)" d="M 0 0h 27.448v 6.64h -27.448v -6.64Z "/><g transform="translate(205.963565355 197.621228268)"><g transform="matrix(1 0 0 -1 0 5.264)"><use xlink:href="#g3427DB79E013EF0644448109D29171F6" x="0" y="0" fill="#000000" fill-rule="nonzero"/><use xlink:href="#g7CADDE05683A2F282E92796EAE7002E6" x="2.576" y="0" fill="#000000" fill-rule="nonzero"/><use xlink:href="#g737E31D6A5E93E22E9ED4AD10D42FE71" x="6.232" y="0" fill="#000000" fill-rule="nonzero"/><use xlink:href="#gAD9C87F854BDA42EDABFFB35EC1FA84E" x="12.568" y="0" fill="#000000" fill-rule="nonzero"/><use xlink:href="#g97663EC9AEA74EADA07472643E1BE1B4" x="16.288" y="0" fill="#000000" fill-rule="nonzero"/><use xlink:href="#gAD9C87F854BDA42EDABFFB35EC1FA84E" x="20.008" y="0" fill="#000000" fill-rule="nonzero"/><use xlink:href="#gD00C9D162D1CBC09F2F7551D594DBB72" x="23.728" y="0" fill="#000000" fill-rule="nonzero"/></g></g><path fill="none" stroke="#000000" stroke-width="1" stroke-linecap="butt" stroke-linejoin="miter" stroke-miterlimit="4" transform="translate(354.243530749 187.699968504)" d="M 0 0m 0 5.669291339v -5.669291339"/><path fill="none" transform="translate(341.335530749 197.621228346)" d="M 0 0h 25.816v 6.64h -25.816v -6.64Z "/><g transform="translate(341.335530623 197.621228268)"><g transform="matrix(1 0 0 -1 0 5.264)"><use xlink:href="#g3427DB79E013EF0644448109D29171F6" x="0" y="0" fill="#000000" fill-rule="nonzero"/><use xlink:href="#g7CA707F1BCB16774F6BEEBBEACACFCA3" x="2.576" y="0" fill="#000000" fill-rule="nonzero"/><use xlink:href="#g9CB01113ED99ABC5A5F75E5016C1499E" x="6.824" y="0" fill="#000000" fill-rule="nonzero"/><use xlink:href="#gAD9C87F854BDA42EDABFFB35EC1FA84E" x="10.936" y="0" fill="#000000" fill-rule="nonzero"/><use xlink:href="#g97663EC9AEA74EADA07472643E1BE1B4" x="14.656" y="0" fill="#000000" fill-rule="nonzero"/><use xlink:href="#gAD9C87F854BDA42EDABFFB35EC1FA84E" x="18.376" y="0" fill="#000000" fill-rule="nonzero"/><use xlink:href="#gD00C9D162D1CBC09F2F7551D594DBB72" x="22.096" y="0" fill="#000000" fill-rule="nonzero"/></g></g><path fill="none" stroke="#000000" stroke-width="1" stroke-linecap="butt" stroke-linejoin="miter" stroke-miterlimit="4" transform="translate(488.799496063 187.699968504)" d="M 0 0m 0 5.669291339v -5.669291339"/><path fill="none" transform="translate(475.075496063 197.621228346)" d="M 0 0h 27.448v 6.64h -27.448v -6.64Z "/><g transform="translate(475.075495984 197.621228268)"><g transform="matrix(1 0 0 -1 0 5.264)"><use xlink:href="#g3427DB79E013EF0644448109D29171F6" x="0" y="0" fill="#000000" fill-rule="nonzero"/><use xlink:href="#g7CADDE05683A2F282E92796EAE7002E6" x="2.576" y="0" fill="#000000" fill-rule="nonzero"/><use xlink:href="#g737E31D6A5E93E22E9ED4AD10D42FE71" x="6.232" y="0" fill="#000000" fill-rule="nonzero"/><use xlink:href="#gAD9C87F854BDA42EDABFFB35EC1FA84E" x="12.568" y="0" fill="#000000" fill-rule="nonzero"/><use xlink:href="#g97663EC9AEA74EADA07472643E1BE1B4" x="16.288" y="0" fill="#000000" fill-rule="nonzero"/><use xlink:href="#gAD9C87F854BDA42EDABFFB35EC1FA84E" x="20.008" y="0" fill="#000000" fill-rule="nonzero"/><use xlink:href="#gAFC6ADE0F4BA5C584B85DD0E8532505B" x="23.728" y="0" fill="#000000" fill-rule="nonzero"/></g></g><path fill="none" stroke="#000000" stroke-width="1" stroke-linecap="butt" stroke-linejoin="miter" stroke-miterlimit="4" transform="translate(63.602645669 5.372000908)" d="M 0 0m 0 187.997258935v -187.997258935"/><path fill="none" stroke="#000000" stroke-width="1" stroke-linecap="butt" stroke-linejoin="miter" stroke-miterlimit="4" transform="translate(61.476661417 4.872000693)" d="M 0 0m 4.251968504 5.669291339l -2.125984252 -5.669291339l -2.125984252 5.669291339"/><path fill="none" stroke="#000000" stroke-width="1" stroke-linecap="butt" stroke-linejoin="miter" stroke-miterlimit="4" transform="translate(60.768 190.534614173)" d="M 0 0h 5.669291339"/><path fill="none" transform="translate(52.796031496 187.862614173)" d="M 0 0h 3.72v 5.344h -3.72v -5.344Z "/><g transform="translate(52.796031402 187.862614094)"><g transform="matrix(1 0 0 -1 0 5.264)"><use xlink:href="#g97663EC9AEA74EADA07472643E1BE1B4" x="0" y="0" fill="#000000" fill-rule="nonzero"/></g></g><path fill="none" stroke="#000000" stroke-width="1" stroke-linecap="butt" stroke-linejoin="miter" stroke-miterlimit="4" transform="translate(60.768 148.014929134)" d="M 0 0h 5.669291339"/><path fill="none" transform="translate(49.076031496 145.338929134)" d="M 0 0h 7.44v 5.352h -7.44v -5.352Z "/><g transform="translate(49.076031449 145.338929087)"><g transform="matrix(1 0 0 -1 0 5.264)"><use xlink:href="#gAD9C87F854BDA42EDABFFB35EC1FA84E" x="0" y="0" fill="#000000" fill-rule="nonzero"/><use xlink:href="#gD00C9D162D1CBC09F2F7551D594DBB72" x="3.72" y="0" fill="#000000" fill-rule="nonzero"/></g></g><path fill="none" stroke="#000000" stroke-width="1" stroke-linecap="butt" stroke-linejoin="miter" stroke-miterlimit="4" transform="translate(60.768 105.495244094)" d="M 0 0h 5.669291339"/><path fill="none" transform="translate(49.076031496 102.819244094)" d="M 0 0h 7.44v 5.352h -7.44v -5.352Z "/><g transform="translate(49.076031449 102.819244047)"><g transform="matrix(1 0 0 -1 0 5.264)"><use xlink:href="#gD00C9D162D1CBC09F2F7551D594DBB72" x="0" y="0" fill="#000000" fill-rule="nonzero"/><use xlink:href="#g97663EC9AEA74EADA07472643E1BE1B4" x="3.72" y="0" fill="#000000" fill-rule="nonzero"/></g></g><path fill="none" stroke="#000000" stroke-width="1" stroke-linecap="butt" stroke-linejoin="miter" stroke-miterlimit="4" transform="translate(60.768 62.975559055)" d="M 0 0h 5.669291339"/><path fill="none" transform="translate(49.076031496 60.291559055)" d="M 0 0h 7.44v 5.368h -7.44v -5.368Z "/><g transform="translate(49.076031449 60.291558929)"><g transform="matrix(1 0 0 -1 0 5.264)"><use xlink:href="#g38EF10439C70019A2C0B1A54E582194C" x="0" y="0" fill="#000000" fill-rule="nonzero"/><use xlink:href="#gD00C9D162D1CBC09F2F7551D594DBB72" x="3.72" y="0" fill="#000000" fill-rule="nonzero"/></g></g><path fill="none" stroke="#000000" stroke-width="1" stroke-linecap="butt" stroke-linejoin="miter" stroke-miterlimit="4" transform="translate(60.768 20.455874016)" d="M 0 0h 5.669291339"/><path fill="none" transform="translate(45.356031496 17.783874016)" d="M 0 0h 11.16v 5.344h -11.16v -5.344Z "/><g transform="translate(45.356031496 17.783873937)"><g transform="matrix(1 0 0 -1 0 5.264)"><use xlink:href="#g8C50DFC0B8272CD73341C65811BD0E92" x="0" y="0" fill="#000000" fill-rule="nonzero"/><use xlink:href="#g97663EC9AEA74EADA07472643E1BE1B4" x="3.72" y="0" fill="#000000" fill-rule="nonzero"/><use xlink:href="#g97663EC9AEA74EADA07472643E1BE1B4" x="7.44" y="0" fill="#000000" fill-rule="nonzero"/></g></g><path fill="none" d="M 0 0h 60.768v 6.896h -60.768v -6.896Z "/><g transform="translate(-1.42e-7 -6.3e-8)"><g transform="matrix(1 0 0 -1 0 5.264)"><use xlink:href="#g177F9E273DA262FEAD295E221F7D9A5E" x="0" y="0" fill="#000000" fill-rule="nonzero"/><use xlink:href="#g86ABD9B98157573BF6882A43FA434742" x="2.376" y="0" fill="#000000" fill-rule="nonzero"/><use xlink:href="#g86ABD9B98157573BF6882A43FA434742" x="5.496" y="0" fill="#000000" fill-rule="nonzero"/><use xlink:href="#g7CA707F1BCB16774F6BEEBBEACACFCA3" x="8.616" y="0" fill="#000000" fill-rule="nonzero"/><use xlink:href="#g20EDBE1E989F56AA9FBFD4A2EF5BDC35" x="12.864" y="0" fill="#000000" fill-rule="nonzero"/><use xlink:href="#g86ABD9B98157573BF6882A43FA434742" x="16.44" y="0" fill="#000000" fill-rule="nonzero"/><use xlink:href="#gF14903D79C881A9B6AC2EE7D8BED6F03" x="21.56" y="0" fill="#000000" fill-rule="nonzero"/><use xlink:href="#g20EDBE1E989F56AA9FBFD4A2EF5BDC35" x="24.472" y="0" fill="#000000" fill-rule="nonzero"/><use xlink:href="#g86ABD9B98157573BF6882A43FA434742" x="28.048" y="0" fill="#000000" fill-rule="nonzero"/><use xlink:href="#g2B678EF10194558DA6DED0CDF87DA3E4" x="31.168" y="0" fill="#000000" fill-rule="nonzero"/><use xlink:href="#g9CB01113ED99ABC5A5F75E5016C1499E" x="35.2" y="0" fill="#000000" fill-rule="nonzero"/><use xlink:href="#g75898D78ABA7F2F9401043CAA2103564" x="37.312" y="0" fill="#000000" fill-rule="nonzero"/><use xlink:href="#g20EDBE1E989F56AA9FBFD4A2EF5BDC35" x="41.224" y="0" fill="#000000" fill-rule="nonzero"/><use xlink:href="#g13CDF673763F5DB9C25A9A976EDAD0A7" x="44.856" y="0" fill="#000000" fill-rule="nonzero"/><use xlink:href="#gB30BF778AB490C945CE3B0B01F2D3DE5" x="50.904" y="0" fill="#000000" fill-rule="nonzero"/><use xlink:href="#g7CDC5CF6E8BB436194E203BAC49A6B3C" x="53.288" y="0" fill="#000000" fill-rule="nonzero"/><use xlink:href="#g8BFB8D74D1A095ADA64D562E8FB553BF" x="58.384" y="0" fill="#000000" fill-rule="nonzero"/></g></g><path fill="none" stroke="#1a1a1a" stroke-width="2" stroke-linecap="butt" stroke-linejoin="miter" stroke-miterlimit="4" transform="translate(112.042793182 59.573984252)" d="M 0 0m 0 74.834645669l 67.277982657 -27.212598425l 53.822386126 -10.204724409l 40.366789594 -13.606299213l 53.822386126 -15.307086614l 80.733579189 -3.401574803l 59.204624738 -5.102362205"/><path fill="#1a1a1a" fill-rule="nonzero" transform="translate(110.200273497 132.566110236)" d="M 0 0m 1.842519685 0c -1.016672882 0 -1.842519685 0.825846803 -1.842519685 1.842519685c 0 1.016672882 0.825846803 1.842519685 1.842519685 1.842519685c 1.016672882 0 1.842519685 -0.825846803 1.842519685 -1.842519685c 0 -1.016672882 -0.825846803 -1.842519685 -1.842519685 -1.842519685Z "/><path fill="#1a1a1a" fill-rule="nonzero" transform="translate(177.478256155 105.353511811)" d="M 0 0m 1.842519685 0c -1.016672882 0 -1.842519685 0.825846803 -1.842519685 1.842519685c 0 1.016672882 0.825846803 1.842519685 1.842519685 1.842519685c 1.016672882 0 1.842519685 -0.825846803 1.842519685 -1.842519685c 0 -1.016672882 -0.825846803 -1.842519685 -1.842519685 -1.842519685Z "/><path fill="#1a1a1a" fill-rule="nonzero" transform="translate(231.30064228 95.148787402)" d="M 0 0m 1.842519685 0c -1.016672882 0 -1.842519685 0.825846803 -1.842519685 1.842519685c 0 1.016672882 0.825846803 1.842519685 1.842519685 1.842519685c 1.016672882 0 1.842519685 -0.825846803 1.842519685 -1.842519685c 0 -1.016672882 -0.825846803 -1.842519685 -1.842519685 -1.842519685Z "/><path fill="#1a1a1a" fill-rule="nonzero" transform="translate(271.667431875 81.542488189)" d="M 0 0m 1.842519685 0c -1.016672882 0 -1.842519685 0.825846803 -1.842519685 1.842519685c 0 1.016672882 0.825846803 1.842519685 1.842519685 1.842519685c 1.016672882 0 1.842519685 -0.825846803 1.842519685 -1.842519685c 0 -1.016672882 -0.825846803 -1.842519685 -1.842519685 -1.842519685Z "/><path fill="#1a1a1a" fill-rule="nonzero" transform="translate(325.489818001 66.235401575)" d="M 0 0m 1.842519685 0c -1.016672882 0 -1.842519685 0.825846803 -1.842519685 1.842519685c 0 1.016672882 0.825846803 1.842519685 1.842519685 1.842519685c 1.016672882 0 1.842519685 -0.825846803 1.842519685 -1.842519685c 0 -1.016672882 -0.825846803 -1.842519685 -1.842519685 -1.842519685Z "/><path fill="#1a1a1a" fill-rule="nonzero" transform="translate(406.223397189 62.833826772)" d="M 0 0m 1.842519685 0c -1.016672882 0 -1.842519685 0.825846803 -1.842519685 1.842519685c 0 1.016672882 0.825846803 1.842519685 1.842519685 1.842519685c 1.016672882 0 1.842519685 -0.825846803 1.842519685 -1.842519685c 0 -1.016672882 -0.825846803 -1.842519685 -1.842519685 -1.842519685Z "/><path fill="#1a1a1a" fill-rule="nonzero" transform="translate(465.428021928 57.731464567)" d="M 0 0m 1.842519685 0c -1.016672882 0 -1.842519685 0.825846803 -1.842519685 1.842519685c 0 1.016672882 0.825846803 1.842519685 1.842519685 1.842519685c 1.016672882 0 1.842519685 -0.825846803 1.842519685 -1.842519685c 0 -1.016672882 -0.825846803 -1.842519685 -1.842519685 -1.842519685Z "/><path fill="none" transform="translate(57.058179906 122.32383811)" d="M 0 0m 0 0.35856h 142.262658228v -0.35856h -142.262658228v 0.35856Z "/><g transform="translate(120.697008879 119.51511811)"><g transform="matrix(1 0 0 -1 0 5.805)"><use xlink:href="#gC1E819FDB02940505C1D5A4D188A5248" x="0" y="0" fill="#1a1a1a" fill-rule="nonzero"/><use xlink:href="#gC1E819FDB02940505C1D5A4D188A5248" x="4.626" y="0" fill="#1a1a1a" fill-rule="nonzero"/><use xlink:href="#g203B874B479F479336BD69DE3F0D6EB3" x="9.252" y="0" fill="#1a1a1a" fill-rule="nonzero"/></g></g><path fill="none" transform="translate(342.656580185 44.047777638)" d="M 0 0m 0 0.43824h 173.876582279v -0.43824h -173.876582279v 0.43824Z "/><g transform="translate(420.437371325 40.614897622)"><g transform="matrix(1 0 0 -1 0 7.095)"><use xlink:href="#g5436BD544ECE03432793975AD4760DBB" x="0" y="0" fill="#1a1a1a" fill-rule="nonzero"/><use xlink:href="#g5436BD544ECE03432793975AD4760DBB" x="5.654" y="0" fill="#1a1a1a" fill-rule="nonzero"/><use xlink:href="#g448714F2158E522A4751CDA009CF7F0D" x="11.308" y="0" fill="#1a1a1a" fill-rule="nonzero"/></g></g></g><defs><symbol id="g3427DB79E013EF0644448109D29171F6" overflow="visible"><path d="M 0 0m 1.808 4.184c 0 0.664 0.136 0.704 0.616 0.728c 0.048 0.048 0.048 0.216 0 0.264c -0.304 -0.008 -0.648 -0.016 -0.96 -0.016c -0.288 0 -0.712 0.008 -1.112 0.016c -0.048 -0.048 -0.048 -0.216 0 -0.264c 0.64 -0.024 0.776 -0.064 0.776 -0.728v -3.536c 0 -1.44 -0.416 -1.664 -0.68 -1.664c -0.152 0 -0.264 0.096 -0.32 0.216c -0.048 0.096 -0.12 0.2 -0.32 0.2c -0.112 0 -0.352 -0.168 -0.352 -0.344c 0 -0.288 0.424 -0.432 0.6 -0.432c 0.36 0 0.608 0.064 0.936 0.344c 0.352 0.296 0.816 0.712 0.816 1.856Z "/></symbol><symbol id="g7CA707F1BCB16774F6BEEBBEACACFCA3" overflow="visible"><path d="M 0 0m 1.736 -0.08c 0.312 0 0.688 0.16 1.08 0.48c 0.04 0.032 0.112 0.048 0.12 -0.008c 0.024 -0.2 0.088 -0.472 0.088 -0.472c 0.064 -0.024 0.104 -0.016 0.152 0c 0.176 0.144 0.456 0.264 0.944 0.32c 0.048 0.048 0.048 0.168 0 0.216c -0.512 0.04 -0.584 0.192 -0.584 0.584v 1.536c 0 0.24 0.032 0.824 0.032 0.824c 0 0.024 -0.024 0.048 -0.064 0.048c -0.04 -0.008 -0.16 -0.016 -0.28 -0.016c -0.256 0 -0.544 0.008 -0.816 0.016c -0.048 -0.048 -0.048 -0.216 0 -0.264c 0.392 -0.024 0.496 -0.12 0.496 -0.648v -1.544c 0 -0.152 -0.016 -0.216 -0.128 -0.312c -0.296 -0.256 -0.6 -0.384 -0.8 -0.384c -0.24 0 -0.64 0.112 -0.64 0.824v 1.456c 0 0.24 0.032 0.824 0.032 0.824c 0 0.024 -0.024 0.048 -0.064 0.048c -0.04 -0.008 -0.16 -0.016 -0.28 -0.016c -0.256 0 -0.544 0.008 -0.816 0.016c -0.048 -0.048 -0.048 -0.216 0 -0.264c 0.384 -0.032 0.496 -0.12 0.496 -0.64v -1.536c 0 -0.552 0.24 -1.088 1.032 -1.088Z "/></symbol><symbol id="g9CB01113ED99ABC5A5F75E5016C1499E" overflow="visible"><path d="M 0 0m 0.76 0.976c 0 -0.664 -0.088 -0.704 -0.576 -0.728c -0.048 -0.048 -0.048 -0.216 0 -0.264c 0.28 0.008 0.576 0.016 0.896 0.016c 0.32 0 0.624 -0.008 0.888 -0.016c 0.048 0.048 0.048 0.216 0 0.264c -0.488 0.024 -0.576 0.064 -0.576 0.728v 3.688c 0 0.52 0.032 0.84 0.032 0.84c 0 0.056 -0.032 0.08 -0.104 0.08c -0.2 -0.08 -0.8 -0.192 -1.12 -0.216c -0.016 -0.064 0 -0.192 0.048 -0.24c 0.464 -0.032 0.512 -0.056 0.512 -0.656Z "/></symbol><symbol id="gAD9C87F854BDA42EDABFFB35EC1FA84E" overflow="visible"><path d="M 0 0m 0.488 3.744c 0 -0.168 0.152 -0.312 0.32 -0.312c 0.136 0 0.376 0.144 0.376 0.32c 0 0.064 -0.016 0.112 -0.032 0.168c -0.016 0.056 -0.064 0.128 -0.064 0.192c 0 0.2 0.208 0.488 0.792 0.488c 0.288 0 0.696 -0.2 0.696 -0.968c 0 -0.512 -0.184 -0.928 -0.656 -1.408l -0.592 -0.584c -0.784 -0.8 -0.912 -1.184 -0.912 -1.656c 0 0 0.408 0.016 0.664 0.016h 1.4c 0.256 0 0.624 -0.016 0.624 -0.016c 0.104 0.424 0.184 1.024 0.192 1.264c -0.048 0.04 -0.152 0.056 -0.232 0.04c -0.136 -0.568 -0.272 -0.768 -0.56 -0.768h -1.424c 0 0.384 0.552 0.928 0.592 0.968l 0.808 0.776c 0.456 0.44 0.8 0.792 0.8 1.4c 0 0.864 -0.704 1.216 -1.352 1.216c -0.888 0 -1.44 -0.656 -1.44 -1.136Z "/></symbol><symbol id="g97663EC9AEA74EADA07472643E1BE1B4" overflow="visible"><path d="M 0 0m 1.824 -0.08c 0.616 0 1.552 0.624 1.552 2.504c 0 0.792 -0.192 1.472 -0.544 1.936c -0.208 0.28 -0.544 0.52 -0.976 0.52c -0.792 0 -1.544 -0.944 -1.544 -2.528c 0 -0.856 0.264 -1.656 0.704 -2.096c 0.224 -0.224 0.496 -0.336 0.808 -0.336Z m 0.032 4.68c 0.136 0 0.264 -0.048 0.36 -0.136c 0.248 -0.208 0.464 -0.816 0.464 -1.888c 0 -0.736 -0.024 -1.24 -0.136 -1.648c -0.176 -0.656 -0.568 -0.728 -0.712 -0.728c -0.744 0 -0.824 1.368 -0.824 2.064c 0 1.968 0.488 2.336 0.848 2.336Z "/></symbol><symbol id="gF821431C61A4D7F3ECEFEC074E9C0EFC" overflow="visible"><path d="M 0 0m 3.44 1.752h -0.664v 2.336c 0 0.4 0 0.712 0.016 0.776l -0.016 0.016h -0.256c -0.056 0 -0.096 -0.048 -0.128 -0.088c -0.504 -0.616 -1.432 -1.936 -2.168 -3.08c 0.024 -0.12 0.072 -0.336 0.312 -0.336h 1.632v -0.736c 0 -0.368 -0.304 -0.368 -0.648 -0.392c -0.048 -0.048 -0.048 -0.216 0 -0.264c 0.256 0.008 0.576 0.016 0.944 0.016c 0.312 0 0.616 -0.008 0.872 -0.016c 0.048 0.048 0.048 0.216 0 0.264c -0.392 0.032 -0.56 0.016 -0.56 0.392v 0.736h 0.552c 0.112 0 0.232 0.152 0.232 0.248c 0 0.08 -0.032 0.128 -0.12 0.128Z m -1.272 2.304v -2.304h -1.528c 0.408 0.656 0.976 1.552 1.528 2.304Z "/></symbol><symbol id="g7CADDE05683A2F282E92796EAE7002E6" overflow="visible"><path d="M 0 0m 2.344 0.384c 0.048 -0.248 0.136 -0.464 0.536 -0.464c 0.304 0 0.592 0.136 0.76 0.296c -0.016 0.096 -0.048 0.168 -0.136 0.216c -0.056 -0.048 -0.192 -0.128 -0.296 -0.128c -0.232 0 -0.24 0.312 -0.24 0.68v 1.176c 0 1.136 -0.624 1.352 -1.208 1.352c -0.656 0 -1.32 -0.432 -1.32 -0.888c 0 -0.192 0.096 -0.288 0.28 -0.288c 0.232 0 0.376 0.168 0.376 0.272c 0 0.056 -0.008 0.112 -0.024 0.144c -0.008 0.024 -0.016 0.072 -0.016 0.16c 0 0.248 0.336 0.336 0.64 0.336c 0.272 0 0.648 -0.136 0.648 -1.04c 0 -0.056 -0.024 -0.088 -0.048 -0.096l -0.688 -0.168c -0.768 -0.192 -1.32 -0.616 -1.32 -1.16c 0 -0.656 0.448 -0.864 1.008 -0.864c 0.28 0 0.52 0.064 0.872 0.336l 0.16 0.128Z m 0 1.48v -1.056c 0 -0.104 -0.048 -0.16 -0.112 -0.208c -0.208 -0.168 -0.48 -0.352 -0.704 -0.352c -0.4 0 -0.576 0.32 -0.576 0.568c 0 0.36 0.168 0.728 0.76 0.88Z "/></symbol><symbol id="g737E31D6A5E93E22E9ED4AD10D42FE71" overflow="visible"><path d="M 0 0m 1.472 2.864c -0.048 -0.056 -0.096 -0.072 -0.096 0c -0.008 0.216 -0.024 0.528 -0.064 0.608c -0.016 0.04 -0.032 0.064 -0.096 0.064c -0.224 -0.088 -0.432 -0.16 -0.984 -0.232c -0.016 -0.048 0 -0.176 0.016 -0.224c 0.432 -0.04 0.52 -0.08 0.52 -0.544v -1.56c 0 -0.656 -0.08 -0.688 -0.56 -0.728c -0.048 -0.048 -0.048 -0.216 0 -0.264c 0.24 0.008 0.56 0.016 0.88 0.016c 0.32 0 0.56 -0.008 0.8 -0.016c 0.048 0.048 0.048 0.216 0 0.264c -0.408 0.04 -0.488 0.072 -0.488 0.728v 1.312c 0 0.168 0.072 0.264 0.136 0.336c 0.304 0.296 0.664 0.472 0.976 0.472c 0.16 0 0.328 -0.104 0.424 -0.288c 0.08 -0.16 0.096 -0.376 0.096 -0.616v -1.216c 0 -0.656 -0.08 -0.688 -0.496 -0.728c -0.04 -0.048 -0.04 -0.216 0 -0.264c 0.24 0.008 0.496 0.016 0.816 0.016c 0.32 0 0.608 -0.008 0.848 -0.016c 0.04 0.048 0.04 0.216 0 0.264c -0.448 0.04 -0.536 0.072 -0.536 0.728v 1.192c 0 0.44 -0.032 0.824 -0.216 1.072c -0.136 0.176 -0.384 0.272 -0.664 0.272c -0.392 0 -0.84 -0.104 -1.312 -0.648Z "/></symbol><symbol id="gD00C9D162D1CBC09F2F7551D594DBB72" overflow="visible"><path d="M 0 0m 2.552 1.512c 0 -0.76 -0.4 -1.32 -0.88 -1.32c -0.304 0 -0.408 0.2 -0.528 0.36c -0.104 0.136 -0.24 0.256 -0.408 0.256c -0.152 0 -0.304 -0.136 -0.304 -0.296c 0 -0.328 0.68 -0.6 1.136 -0.6c 0.992 0 1.696 0.736 1.696 1.744c 0 0.776 -0.536 1.472 -1.432 1.472c -0.344 0 -0.64 -0.072 -0.784 -0.128l 0.16 1.336c 0.296 -0.032 0.552 -0.072 0.936 -0.072c 0.24 0 0.512 0.016 0.84 0.048l 0.128 0.544l -0.056 0.032c -0.456 -0.048 -0.888 -0.088 -1.312 -0.088c -0.296 0 -0.584 0.016 -0.864 0.04l -0.272 -2.304c 0.424 0.16 0.728 0.192 1.016 0.192c 0.52 0 0.928 -0.344 0.928 -1.216Z "/></symbol><symbol id="gAFC6ADE0F4BA5C584B85DD0E8532505B" overflow="visible"><path d="M 0 0m 1.152 2.744c 0.216 0.728 0.728 1.536 1.792 1.936c 0 0.096 -0.032 0.168 -0.096 0.208c -0.808 -0.24 -1.304 -0.576 -1.752 -1.096c -0.496 -0.576 -0.744 -1.304 -0.744 -1.936c 0 -1.624 0.92 -1.944 1.536 -1.944c 1.048 0 1.48 1.016 1.48 1.704c 0 0.688 -0.368 1.304 -1.456 1.304c -0.208 0 -0.52 -0.064 -0.76 -0.176Z m -0.072 -0.288c 0.264 0.176 0.528 0.184 0.664 0.184c 0.784 0 0.96 -0.768 0.96 -1.168c 0 -0.88 -0.336 -1.28 -0.728 -1.28c -0.504 0 -0.96 0.272 -0.96 1.64c 0 0.184 0.016 0.392 0.064 0.624Z "/></symbol><symbol id="g38EF10439C70019A2C0B1A54E582194C" overflow="visible"><path d="M 0 0m 1.36 4.28h 1.432c -0.624 -1.552 -1.256 -3.112 -1.8 -4.328l 0.064 -0.056l 0.544 0.024c 0.456 1.36 0.896 2.688 1.792 4.872l -0.128 0.096c -0.136 -0.04 -0.312 -0.088 -0.616 -0.088h -1.648c -0.272 0 -0.256 0.08 -0.4 0.112c -0.024 0 -0.032 0 -0.032 -0.024c -0.008 -0.384 -0.096 -0.864 -0.16 -1.28c 0.088 -0.024 0.168 -0.032 0.256 -0.024c 0.176 0.64 0.44 0.696 0.696 0.696Z "/></symbol><symbol id="g8C50DFC0B8272CD73341C65811BD0E92" overflow="visible"><path d="M 0 0m 2.304 0.976v 2.776c 0 0.48 0.008 0.968 0.024 1.072c 0 0.04 -0.016 0.04 -0.048 0.04c -0.44 -0.272 -0.864 -0.472 -1.568 -0.8c 0.016 -0.088 0.048 -0.168 0.12 -0.216c 0.368 0.152 0.544 0.2 0.696 0.2c 0.136 0 0.16 -0.192 0.16 -0.464v -2.608c 0 -0.664 -0.216 -0.704 -0.776 -0.728c -0.048 -0.048 -0.048 -0.216 0 -0.264c 0.392 0.008 0.68 0.016 1.112 0.016c 0.384 0 0.576 -0.008 0.976 -0.016c 0.048 0.048 0.048 0.216 0 0.264c -0.56 0.024 -0.696 0.064 -0.696 0.728Z "/></symbol><symbol id="g177F9E273DA262FEAD295E221F7D9A5E" overflow="visible"><path d="M 0 0m 1.528 0.976v 3.208c 0 0.664 0.136 0.704 0.696 0.728c 0.048 0.048 0.048 0.216 0 0.264c -0.352 -0.008 -0.728 -0.016 -1.04 -0.016c -0.264 0 -0.656 0.008 -1.032 0.016c -0.048 -0.048 -0.048 -0.216 0 -0.264c 0.56 -0.024 0.696 -0.064 0.696 -0.728v -3.208c 0 -0.664 -0.136 -0.704 -0.696 -0.728c -0.048 -0.048 -0.048 -0.216 0 -0.264c 0.36 0.008 0.752 0.016 1.04 0.016c 0.288 0 0.672 -0.008 1.032 -0.016c 0.048 0.048 0.048 0.216 0 0.264c -0.56 0.024 -0.696 0.064 -0.696 0.728Z "/></symbol><symbol id="g86ABD9B98157573BF6882A43FA434742" overflow="visible"><path d="M 0 0m 0.384 1.104c 0.032 -0.392 0.056 -0.768 0.056 -1.104c 0.08 0.016 0.16 0.024 0.2 0.024c 0.056 0 0.104 0 0.16 -0.016c 0.216 -0.056 0.432 -0.088 0.728 -0.088c 0.448 0 1.272 0.216 1.272 1.008c 0 0.544 -0.392 0.864 -0.936 1.064c -0.48 0.184 -0.8 0.304 -0.8 0.744c 0 0.328 0.288 0.512 0.56 0.512c 0.176 0 0.64 -0.064 0.744 -0.744c 0.048 -0.048 0.208 -0.04 0.256 0.008c 0.024 0.288 0.04 0.584 0.048 0.848c -0.248 0.04 -0.632 0.152 -1.048 0.152c -0.592 0 -1.128 -0.384 -1.128 -0.896c 0 -0.584 0.264 -0.832 0.88 -1.088c 0.664 -0.272 0.816 -0.44 0.816 -0.784c 0 -0.392 -0.384 -0.56 -0.68 -0.56c -0.312 0 -0.488 0.104 -0.568 0.192c -0.176 0.184 -0.264 0.536 -0.312 0.736c -0.048 0.048 -0.2 0.04 -0.248 -0.008Z "/></symbol><symbol id="g20EDBE1E989F56AA9FBFD4A2EF5BDC35" overflow="visible"><path d="M 0 0m 3.088 0.744c -0.296 -0.304 -0.528 -0.432 -0.992 -0.432c -0.288 0 -0.624 0.168 -0.872 0.576c -0.16 0.264 -0.256 0.632 -0.256 1.096l 2.128 -0.016c 0.096 0 0.152 0.048 0.152 0.136c 0 0.672 -0.24 1.392 -1.352 1.392c -0.696 0 -1.6 -0.664 -1.6 -1.88c 0 -0.448 0.112 -0.88 0.376 -1.184c 0.272 -0.32 0.648 -0.512 1.224 -0.512c 0.608 0 1.04 0.28 1.36 0.696c -0.024 0.08 -0.072 0.12 -0.168 0.128Z m -2.096 1.512c 0.152 0.904 0.712 0.976 0.904 0.976c 0.304 0 0.664 -0.168 0.664 -0.84c 0 -0.072 -0.032 -0.112 -0.12 -0.112Z "/></symbol><symbol id="gF14903D79C881A9B6AC2EE7D8BED6F03" overflow="visible"><path d="M 0 0m 1.408 2.864c -0.016 0.32 -0.024 0.528 -0.064 0.608c -0.016 0.04 -0.032 0.064 -0.096 0.064c -0.224 -0.088 -0.432 -0.16 -0.984 -0.232c -0.016 -0.048 0 -0.176 0.016 -0.224c 0.432 -0.04 0.52 -0.08 0.52 -0.544v -1.56c 0 -0.664 -0.096 -0.696 -0.592 -0.728c -0.048 -0.048 -0.048 -0.216 0 -0.264c 0.28 0.008 0.592 0.016 0.912 0.016c 0.32 0 0.688 -0.008 0.968 -0.016c 0.048 0.048 0.048 0.216 0 0.264c -0.56 0.04 -0.656 0.064 -0.656 0.728v 1.112c 0 0.208 0.096 0.392 0.192 0.536c 0.088 0.128 0.272 0.392 0.368 0.392c 0.072 0 0.144 -0.016 0.208 -0.104c 0.056 -0.08 0.152 -0.184 0.288 -0.184c 0.192 0 0.376 0.2 0.376 0.4c 0 0.152 -0.144 0.384 -0.48 0.384c -0.376 0 -0.704 -0.352 -0.888 -0.664c -0.048 -0.088 -0.088 -0.024 -0.088 0.016Z "/></symbol><symbol id="g2B678EF10194558DA6DED0CDF87DA3E4" overflow="visible"><path d="M 0 0m 0.328 1.64c 0 -0.816 0.544 -1.72 1.68 -1.72c 0.512 0 0.904 0.184 1.176 0.448c 0.36 0.352 0.52 0.856 0.52 1.344c 0 0.832 -0.456 1.8 -1.68 1.8c -0.528 0 -0.96 -0.216 -1.256 -0.56c -0.288 -0.344 -0.44 -0.808 -0.44 -1.312Z m 1.576 1.592c 0.688 0 1.112 -0.624 1.112 -1.776c 0 -1.008 -0.52 -1.256 -0.896 -1.256c -0.832 0 -1.104 1.008 -1.104 1.624c 0 0.696 0.168 1.408 0.888 1.408Z "/></symbol><symbol id="g75898D78ABA7F2F9401043CAA2103564" overflow="visible"><path d="M 0 0m 2.6 3.184c 0.432 -0.032 0.48 -0.128 0.312 -0.536l -0.648 -1.568c -0.128 -0.312 -0.168 -0.312 -0.296 0.024l -0.576 1.544c -0.144 0.384 -0.176 0.48 0.248 0.536c 0.048 0.048 0.048 0.216 0 0.264c -0.264 -0.008 -0.544 -0.016 -0.808 -0.016c -0.264 0 -0.504 0.008 -0.744 0.016c -0.048 -0.048 -0.048 -0.216 0 -0.264c 0.424 -0.048 0.48 -0.176 0.64 -0.584l 1.024 -2.528c 0.048 -0.12 0.096 -0.168 0.2 -0.168c 0.08 0 0.136 0.048 0.192 0.184l 1.064 2.504c 0.152 0.352 0.24 0.552 0.688 0.592c 0.048 0.048 0.048 0.216 0 0.264c -0.16 -0.008 -0.352 -0.016 -0.56 -0.016c -0.264 0 -0.536 0.008 -0.736 0.016c -0.048 -0.048 -0.048 -0.216 0 -0.264Z "/></symbol><symbol id="g13CDF673763F5DB9C25A9A976EDAD0A7" overflow="visible"><path d="M 0 0m 2.672 0.4c 0.04 0.032 0.112 0.048 0.12 -0.008c 0.024 -0.192 0.088 -0.472 0.088 -0.472c 0.064 -0.024 0.104 -0.016 0.152 0c 0.176 0.144 0.456 0.264 0.944 0.32c 0.048 0.048 0.048 0.168 0 0.216c -0.512 0.04 -0.584 0.192 -0.584 0.584v 3.624c 0 0.52 0.032 0.84 0.032 0.84c 0 0.056 -0.032 0.08 -0.104 0.08c -0.2 -0.08 -0.8 -0.192 -1.12 -0.216c -0.016 -0.064 0 -0.192 0.048 -0.24c 0.024 0 0.048 0 0.072 0c 0.352 -0.024 0.44 -0.024 0.44 -0.656v -1.024c 0 -0.056 -0.016 -0.072 -0.072 -0.072c -0.032 0 -0.36 0.136 -0.624 0.136c -0.528 0 -0.88 -0.176 -1.2 -0.48c -0.344 -0.344 -0.552 -0.816 -0.552 -1.408c 0 -0.984 0.496 -1.704 1.36 -1.704c 0.312 0 0.608 0.16 1 0.48Z m 0.088 0.592c 0 -0.152 -0.016 -0.216 -0.128 -0.312c -0.296 -0.256 -0.552 -0.384 -0.752 -0.384c -0.432 0 -0.88 0.472 -0.88 1.472c 0 0.576 0.112 0.896 0.232 1.064c 0.248 0.376 0.584 0.4 0.744 0.4c 0.288 0 0.488 -0.104 0.648 -0.288c 0.112 -0.128 0.136 -0.184 0.136 -0.432Z "/></symbol><symbol id="gB30BF778AB490C945CE3B0B01F2D3DE5" overflow="visible"><path d="M 0 0m 0.352 2.016c 0 -0.36 0.032 -2.208 1.696 -3.648c 0.08 0.016 0.144 0.072 0.168 0.136c -0.264 0.304 -1.2 1.408 -1.2 3.512c 0 2.104 0.944 3.208 1.2 3.496c -0.024 0.08 -0.08 0.136 -0.168 0.144c -0.952 -0.816 -1.696 -2.152 -1.696 -3.64Z "/></symbol><symbol id="g7CDC5CF6E8BB436194E203BAC49A6B3C" overflow="visible"><path d="M 0 0m 2.912 4.168c -0.144 0 -0.424 0 -0.856 0.2c -0.08 0.096 -0.312 0.2 -0.536 0.2c -0.576 0 -1.064 -0.568 -1.064 -1.272c 0 -0.408 0.24 -0.872 0.736 -0.872c 0.672 0 1.024 0.904 1.024 1.416c 0 0.072 -0.008 0.144 -0.024 0.2c 0.152 -0.088 0.456 -0.168 0.64 -0.168c 0.24 0 0.552 0.032 0.856 0.152l -2.872 -4l 0.272 -0.12l 3.28 4.568l -0.256 0.128c -0.248 -0.336 -0.864 -0.432 -1.2 -0.432Z m 0.112 -3.384c 0 -0.424 0.256 -0.88 0.744 -0.88c 0.664 0 1.016 0.88 1.016 1.416c 0 0.584 -0.368 0.728 -0.688 0.728c -0.592 0 -1.072 -0.608 -1.072 -1.264Z m -2.136 2.4c 0 0.464 0.328 1.136 0.72 1.136c 0.144 0 0.344 -0.088 0.344 -0.488c 0 -0.464 -0.272 -1.16 -0.712 -1.16c -0.144 0 -0.352 0.096 -0.352 0.512Z m 2.576 -2.52c 0 0.464 0.328 1.136 0.72 1.136c 0.112 0 0.336 -0.072 0.336 -0.488c 0 -0.448 -0.264 -1.16 -0.704 -1.16c -0.152 0 -0.352 0.096 -0.352 0.512Z "/></symbol><symbol id="g8BFB8D74D1A095ADA64D562E8FB553BF" overflow="visible"><path d="M 0 0m 2.032 2.016c 0 0.36 -0.032 2.208 -1.696 3.648c -0.08 -0.016 -0.144 -0.072 -0.168 -0.136c 0.264 -0.304 1.2 -1.408 1.2 -3.512c 0 -2.104 -0.944 -3.208 -1.2 -3.496c 0.024 -0.08 0.08 -0.136 0.168 -0.144c 0.952 0.816 1.696 2.152 1.696 3.64Z "/></symbol><symbol id="gC1E819FDB02940505C1D5A4D188A5248" overflow="visible"><path d="M 0 0m 2.232 5.112c 0.378 0 0.567 -0.216 0.567 -0.639c 0 -0.684 -0.549 -1.233 -1.377 -1.422l 0.063 -0.36c 0.189 0.054 0.297 0.072 0.432 0.072c 0.468 0 1.125 -0.135 1.125 -1.215c 0 -1.035 -0.612 -1.26 -0.945 -1.26c -0.351 0 -0.54 0.225 -0.657 0.378c -0.099 0.135 -0.252 0.333 -0.585 0.333c -0.279 0 -0.441 -0.234 -0.441 -0.387c 0 -0.189 0.099 -0.324 0.297 -0.423c 0.324 -0.162 0.801 -0.279 1.242 -0.279c 1.062 0 2.25 0.837 2.25 2.088c 0 0.648 -0.423 1.215 -1.179 1.269c 0.396 0.198 0.837 0.675 0.837 1.224c 0 0.396 -0.216 0.999 -1.458 0.999c -0.936 0 -1.314 -0.315 -1.602 -0.576c -0.198 -0.18 -0.252 -0.423 -0.252 -0.54c 0 -0.126 0.045 -0.333 0.342 -0.333c 0.396 0 0.504 0.207 0.558 0.495c 0.099 0.549 0.477 0.576 0.783 0.576Z "/></symbol><symbol id="g203B874B479F479336BD69DE3F0D6EB3" overflow="visible"><path d="M 0 0m 0.459 3.663c 0 -0.333 0.081 -0.558 0.207 -0.72c 0.153 -0.189 0.414 -0.27 0.702 -0.27c 0.711 0 1.197 0.711 1.197 1.602c 0 0.054 0 0.108 -0.009 0.162c 0.171 -0.09 0.441 -0.171 0.63 -0.171c 0.27 0 0.621 0.063 0.972 0.207l -3.294 -4.509l 0.486 -0.108l 3.699 5.076l -0.423 0.189c -0.369 -0.396 -0.972 -0.45 -1.35 -0.45c -0.153 0 -0.549 0.207 -0.927 0.225c -0.153 0.144 -0.378 0.198 -0.612 0.198c -0.801 0 -1.278 -0.711 -1.278 -1.431Z m 2.871 -2.844c 0 -0.333 0.081 -0.558 0.207 -0.72c 0.153 -0.189 0.414 -0.27 0.702 -0.27c 0.711 0 1.197 0.711 1.197 1.602c 0 0.648 -0.396 0.819 -0.828 0.819c -0.801 0 -1.278 -0.711 -1.278 -1.431Z m -2.034 2.502c 0 0.279 0.009 0.675 0.108 0.981c 0.09 0.27 0.252 0.468 0.432 0.468c 0.126 0 0.351 -0.045 0.351 -0.513c 0 -0.27 -0.072 -0.621 -0.225 -0.873c -0.126 -0.207 -0.297 -0.36 -0.486 -0.36c -0.153 0 -0.18 0.18 -0.18 0.297Z m 2.871 -2.844c 0 0.279 0.009 0.675 0.108 0.981c 0.09 0.27 0.252 0.468 0.432 0.468c 0.126 0 0.351 -0.045 0.351 -0.513c 0 -0.27 -0.072 -0.621 -0.225 -0.873c -0.126 -0.207 -0.297 -0.36 -0.486 -0.36c -0.153 0 -0.18 0.18 -0.18 0.297Z "/></symbol><symbol id="g5436BD544ECE03432793975AD4760DBB" overflow="visible"><path d="M 0 0m 2.024 5.478h 2.145c -0.726 -1.496 -1.98 -3.894 -2.838 -5.478l 0.066 -0.132l 1.122 0.11c 0.737 1.881 1.331 3.531 2.75 6.523l -0.066 0.099h -3.685c -0.374 0 -0.396 0.11 -0.594 0.154c -0.033 0 -0.044 0 -0.044 -0.033c -0.011 -0.528 -0.132 -1.595 -0.22 -2.167c 0.143 -0.044 0.253 -0.055 0.385 -0.033c 0.242 0.88 0.616 0.957 0.979 0.957Z "/></symbol><symbol id="g448714F2158E522A4751CDA009CF7F0D" overflow="visible"><path d="M 0 0m 0.561 4.477c 0 -0.407 0.099 -0.682 0.253 -0.88c 0.187 -0.231 0.506 -0.33 0.858 -0.33c 0.869 0 1.463 0.869 1.463 1.958c 0 0.066 0 0.132 -0.011 0.198c 0.209 -0.11 0.539 -0.209 0.77 -0.209c 0.33 0 0.759 0.077 1.188 0.253l -4.026 -5.511l 0.594 -0.132l 4.521 6.204l -0.517 0.231c -0.451 -0.484 -1.188 -0.55 -1.65 -0.55c -0.187 0 -0.671 0.253 -1.133 0.275c -0.187 0.176 -0.462 0.242 -0.748 0.242c -0.979 0 -1.562 -0.869 -1.562 -1.749Z m 3.509 -3.476c 0 -0.407 0.099 -0.682 0.253 -0.88c 0.187 -0.231 0.506 -0.33 0.858 -0.33c 0.869 0 1.463 0.869 1.463 1.958c 0 0.792 -0.484 1.001 -1.012 1.001c -0.979 0 -1.562 -0.869 -1.562 -1.749Z m -2.486 3.058c 0 0.341 0.011 0.825 0.132 1.199c 0.11 0.33 0.308 0.572 0.528 0.572c 0.154 0 0.429 -0.055 0.429 -0.627c 0 -0.33 -0.088 -0.759 -0.275 -1.067c -0.154 -0.253 -0.363 -0.44 -0.594 -0.44c -0.187 0 -0.22 0.22 -0.22 0.363Z m 3.509 -3.476c 0 0.341 0.011 0.825 0.132 1.199c 0.11 0.33 0.308 0.572 0.528 0.572c 0.154 0 0.429 -0.055 0.429 -0.627c 0 -0.33 -0.088 -0.759 -0.275 -1.067c -0.154 -0.253 -0.363 -0.44 -0.594 -0.44c -0.187 0 -0.22 0.22 -0.22 0.363Z "/></symbol></defs></svg>