<?xml version="1.0" encoding="utf-8" standalone="no"?>
<!DOCTYPE svg PUBLIC "-//W3C//DTD SVG 1.1//EN"
  "http://www.w3.org/Graphics/SVG/1.1/DTD/svg11.dtd">
<svg xmlns:xlink="http://www.w3.org/1999/xlink" width="395.486656pt" height="223.776pt" viewBox="0 0 395.486656 223.776" xmlns="http://www.w3.org/2000/svg" version="1.1">
 <metadata>
  <rdf:RDF xmlns:dc="http://purl.org/dc/elements/1.1/" xmlns:cc="http://creativecommons.org/ns#" xmlns:rdf="http://www.w3.org/1999/02/22-rdf-syntax-ns#">
   <cc:Work>
    <dc:type rdf:resource="http://purl.org/dc/dcmitype/StillImage"/>
    <dc:date>2026-07-07T17:56:24.779130</dc:date>
    <dc:format>image/svg+xml</dc:format>
    <dc:creator>
     <cc:Agent>
      <dc:title>Matplotlib v3.10.8, https://matplotlib.org/</dc:title>
     </cc:Agent>
    </dc:creator>
   </cc:Work>
  </rdf:RDF>
 </metadata>
 <defs>
  <style type="text/css">*{stroke-linejoin: round; stroke-linecap: butt}</style>
 </defs>
 <g id="figure_1">
  <g id="patch_1">
   <path d="M 0 223.776 
L 395.486656 223.776 
L 395.486656 0 
L 0 0 
z
" style="fill: #ffffff"/>
  </g>
  <g id="axes_1">
   <g id="patch_2">
    <path d="M 29.762656 191.4888 
L 387.422656 191.4888 
L 387.422656 24.9888 
L 29.762656 24.9888 
z
" style="fill: #ffffff"/>
   </g>
   <g id="matplotlib.axis_1">
    <g id="xtick_1">
     <g id="line2d_1">
      <defs>
       <path id="m2ce5de60b4" d="M 0 0 
L 0 -3 
" style="stroke: #1a1a1a; stroke-width: 0.8"/>
      </defs>
      <g>
       <use xlink:href="#m2ce5de60b4" x="46.019929" y="191.4888" style="fill: #1a1a1a; stroke: #1a1a1a; stroke-width: 0.8"/>
      </g>
     </g>
     <g id="text_1">
      <!-- 25 -->
      <g style="fill: #1a1a1a" transform="translate(41.80571 200.327394) scale(0.07 -0.07)">
       <defs>
        <path id="Menlo-Regular-32" d="M 1166 531 
L 3309 531 
L 3309 0 
L 475 0 
L 475 531 
Q 1059 1147 1496 1619 
Q 1934 2091 2100 2284 
Q 2413 2666 2522 2902 
Q 2631 3138 2631 3384 
Q 2631 3775 2401 3997 
Q 2172 4219 1772 4219 
Q 1488 4219 1175 4116 
Q 863 4013 513 3803 
L 513 4441 
Q 834 4594 1145 4672 
Q 1456 4750 1759 4750 
Q 2444 4750 2861 4386 
Q 3278 4022 3278 3431 
Q 3278 3131 3139 2831 
Q 3000 2531 2688 2169 
Q 2513 1966 2180 1606 
Q 1847 1247 1166 531 
z
" transform="scale(0.015625)"/>
        <path id="Menlo-Regular-35" d="M 647 4666 
L 3009 4666 
L 3009 4134 
L 1222 4134 
L 1222 2988 
Q 1356 3038 1492 3061 
Q 1628 3084 1766 3084 
Q 2491 3084 2916 2656 
Q 3341 2228 3341 1497 
Q 3341 759 2895 334 
Q 2450 -91 1678 -91 
Q 1306 -91 998 -41 
Q 691 9 447 109 
L 447 750 
Q 734 594 1025 517 
Q 1316 441 1619 441 
Q 2141 441 2423 716 
Q 2706 991 2706 1497 
Q 2706 1997 2414 2275 
Q 2122 2553 1600 2553 
Q 1347 2553 1106 2495 
Q 866 2438 647 2322 
L 647 4666 
z
" transform="scale(0.015625)"/>
       </defs>
       <use xlink:href="#Menlo-Regular-32"/>
       <use xlink:href="#Menlo-Regular-35" transform="translate(60.205078 0)"/>
      </g>
     </g>
    </g>
    <g id="xtick_2">
     <g id="line2d_2">
      <g>
       <use xlink:href="#m2ce5de60b4" x="92.46928" y="191.4888" style="fill: #1a1a1a; stroke: #1a1a1a; stroke-width: 0.8"/>
      </g>
     </g>
     <g id="text_2">
      <!-- 50 -->
      <g style="fill: #1a1a1a" transform="translate(88.255061 200.327394) scale(0.07 -0.07)">
       <defs>
        <path id="Menlo-Regular-30" d="M 1925 4734 
Q 2672 4734 3055 4125 
Q 3438 3516 3438 2322 
Q 3438 1128 3055 518 
Q 2672 -91 1925 -91 
Q 1178 -91 797 518 
Q 416 1128 416 2322 
Q 416 3516 797 4125 
Q 1178 4734 1925 4734 
z
M 1925 409 
Q 2369 409 2586 881 
Q 2803 1353 2803 2322 
Q 2803 2838 2741 3253 
L 1253 925 
Q 1488 409 1925 409 
z
M 1925 4234 
Q 1484 4234 1267 3762 
Q 1050 3291 1050 2322 
Q 1050 1881 1109 1497 
L 2566 3819 
Q 2328 4234 1925 4234 
z
" transform="scale(0.015625)"/>
       </defs>
       <use xlink:href="#Menlo-Regular-35"/>
       <use xlink:href="#Menlo-Regular-30" transform="translate(60.205078 0)"/>
      </g>
     </g>
    </g>
    <g id="xtick_3">
     <g id="line2d_3">
      <g>
       <use xlink:href="#m2ce5de60b4" x="185.367981" y="191.4888" style="fill: #1a1a1a; stroke: #1a1a1a; stroke-width: 0.8"/>
      </g>
     </g>
     <g id="text_3">
      <!-- 100 -->
      <g style="fill: #1a1a1a" transform="translate(179.046653 200.327394) scale(0.07 -0.07)">
       <defs>
        <path id="Menlo-Regular-31" d="M 844 528 
L 1825 528 
L 1825 4053 
L 650 3488 
L 650 4094 
L 1819 4650 
L 2450 4650 
L 2450 528 
L 3419 528 
L 3419 0 
L 844 0 
L 844 528 
z
" transform="scale(0.015625)"/>
       </defs>
       <use xlink:href="#Menlo-Regular-31"/>
       <use xlink:href="#Menlo-Regular-30" transform="translate(60.205078 0)"/>
       <use xlink:href="#Menlo-Regular-30" transform="translate(120.410156 0)"/>
      </g>
     </g>
    </g>
    <g id="xtick_4">
     <g id="line2d_4">
      <g>
       <use xlink:href="#m2ce5de60b4" x="371.165384" y="191.4888" style="fill: #1a1a1a; stroke: #1a1a1a; stroke-width: 0.8"/>
      </g>
     </g>
     <g id="text_4">
      <!-- 200 -->
      <g style="fill: #1a1a1a" transform="translate(364.844055 200.327394) scale(0.07 -0.07)">
       <use xlink:href="#Menlo-Regular-32"/>
       <use xlink:href="#Menlo-Regular-30" transform="translate(60.205078 0)"/>
       <use xlink:href="#Menlo-Regular-30" transform="translate(120.410156 0)"/>
      </g>
     </g>
    </g>
    <g id="text_5">
     <!-- Segment duration $\tau$ (ms) -->
     <g style="fill: #1a1a1a" transform="translate(153.192656 212.263175) scale(0.08 -0.08)">
      <defs>
       <path id="Menlo-Regular-53" d="M 3163 4506 
L 3163 3866 
Q 2875 4050 2586 4144 
Q 2297 4238 2003 4238 
Q 1556 4238 1297 4030 
Q 1038 3822 1038 3469 
Q 1038 3159 1208 2996 
Q 1378 2834 1844 2725 
L 2175 2650 
Q 2831 2497 3131 2169 
Q 3431 1841 3431 1275 
Q 3431 609 3018 259 
Q 2606 -91 1819 -91 
Q 1491 -91 1159 -20 
Q 828 50 494 191 
L 494 863 
Q 853 634 1173 528 
Q 1494 422 1819 422 
Q 2297 422 2562 636 
Q 2828 850 2828 1234 
Q 2828 1584 2645 1768 
Q 2463 1953 2009 2053 
L 1672 2131 
Q 1022 2278 728 2575 
Q 434 2872 434 3372 
Q 434 3997 854 4373 
Q 1275 4750 1972 4750 
Q 2241 4750 2537 4689 
Q 2834 4628 3163 4506 
z
" transform="scale(0.015625)"/>
       <path id="Menlo-Regular-65" d="M 3500 2038 
L 3500 1756 
L 1009 1756 
L 1009 1738 
Q 984 1022 1282 709 
Q 1581 397 2125 397 
Q 2400 397 2700 484 
Q 3000 572 3341 750 
L 3341 178 
Q 3013 44 2708 -23 
Q 2403 -91 2119 -91 
Q 1303 -91 843 398 
Q 384 888 384 1747 
Q 384 2584 834 3084 
Q 1284 3584 2034 3584 
Q 2703 3584 3089 3131 
Q 3475 2678 3500 2038 
z
M 2925 2206 
Q 2888 2569 2661 2833 
Q 2434 3097 2009 3097 
Q 1594 3097 1325 2822 
Q 1056 2547 1031 2203 
L 2925 2206 
z
" transform="scale(0.015625)"/>
       <path id="Menlo-Regular-67" d="M 2681 1778 
Q 2681 2425 2470 2761 
Q 2259 3097 1856 3097 
Q 1434 3097 1212 2761 
Q 991 2425 991 1778 
Q 991 1131 1214 792 
Q 1438 453 1863 453 
Q 2259 453 2470 793 
Q 2681 1134 2681 1778 
z
M 3256 225 
Q 3256 -563 2884 -969 
Q 2513 -1375 1791 -1375 
Q 1553 -1375 1293 -1331 
Q 1034 -1288 775 -1203 
L 775 -634 
Q 1081 -778 1331 -847 
Q 1581 -916 1791 -916 
Q 2256 -916 2468 -662 
Q 2681 -409 2681 141 
L 2681 166 
L 2681 556 
Q 2544 263 2306 119 
Q 2069 -25 1728 -25 
Q 1116 -25 750 465 
Q 384 956 384 1778 
Q 384 2603 750 3093 
Q 1116 3584 1728 3584 
Q 2066 3584 2300 3450 
Q 2534 3316 2681 3034 
L 2681 3488 
L 3256 3488 
L 3256 225 
z
" transform="scale(0.015625)"/>
       <path id="Menlo-Regular-6d" d="M 2113 3144 
Q 2219 3369 2383 3476 
Q 2547 3584 2778 3584 
Q 3200 3584 3373 3257 
Q 3547 2931 3547 2028 
L 3547 0 
L 3022 0 
L 3022 2003 
Q 3022 2744 2939 2923 
Q 2856 3103 2638 3103 
Q 2388 3103 2295 2911 
Q 2203 2719 2203 2003 
L 2203 0 
L 1678 0 
L 1678 2003 
Q 1678 2753 1589 2928 
Q 1500 3103 1269 3103 
Q 1041 3103 952 2911 
Q 863 2719 863 2003 
L 863 0 
L 341 0 
L 341 3500 
L 863 3500 
L 863 3200 
Q 966 3388 1120 3486 
Q 1275 3584 1472 3584 
Q 1709 3584 1867 3475 
Q 2025 3366 2113 3144 
z
" transform="scale(0.015625)"/>
       <path id="Menlo-Regular-6e" d="M 3284 2169 
L 3284 0 
L 2706 0 
L 2706 2169 
Q 2706 2641 2540 2862 
Q 2375 3084 2022 3084 
Q 1619 3084 1401 2798 
Q 1184 2513 1184 1978 
L 1184 0 
L 609 0 
L 609 3500 
L 1184 3500 
L 1184 2975 
Q 1338 3275 1600 3429 
Q 1863 3584 2222 3584 
Q 2756 3584 3020 3232 
Q 3284 2881 3284 2169 
z
" transform="scale(0.015625)"/>
       <path id="Menlo-Regular-74" d="M 1919 4494 
L 1919 3500 
L 3225 3500 
L 3225 3053 
L 1919 3053 
L 1919 1153 
Q 1919 766 2066 612 
Q 2213 459 2578 459 
L 3225 459 
L 3225 0 
L 2522 0 
Q 1875 0 1609 259 
Q 1344 519 1344 1153 
L 1344 3053 
L 409 3053 
L 409 3500 
L 1344 3500 
L 1344 4494 
L 1919 4494 
z
" transform="scale(0.015625)"/>
       <path id="Menlo-Regular-20" transform="scale(0.015625)"/>
       <path id="Menlo-Regular-64" d="M 2681 3053 
L 2681 4863 
L 3256 4863 
L 3256 0 
L 2681 0 
L 2681 441 
Q 2538 181 2298 45 
Q 2059 -91 1747 -91 
Q 1113 -91 748 401 
Q 384 894 384 1759 
Q 384 2613 750 3098 
Q 1116 3584 1747 3584 
Q 2063 3584 2303 3448 
Q 2544 3313 2681 3053 
z
M 991 1747 
Q 991 1078 1203 737 
Q 1416 397 1831 397 
Q 2247 397 2464 740 
Q 2681 1084 2681 1747 
Q 2681 2413 2464 2755 
Q 2247 3097 1831 3097 
Q 1416 3097 1203 2756 
Q 991 2416 991 1747 
z
" transform="scale(0.015625)"/>
       <path id="Menlo-Regular-75" d="M 609 1325 
L 609 3494 
L 1184 3494 
L 1184 1325 
Q 1184 853 1351 631 
Q 1519 409 1869 409 
Q 2275 409 2490 695 
Q 2706 981 2706 1516 
L 2706 3494 
L 3284 3494 
L 3284 0 
L 2706 0 
L 2706 525 
Q 2553 222 2289 65 
Q 2025 -91 1672 -91 
Q 1134 -91 871 261 
Q 609 613 609 1325 
z
" transform="scale(0.015625)"/>
       <path id="Menlo-Regular-72" d="M 3609 2778 
Q 3425 2922 3234 2987 
Q 3044 3053 2816 3053 
Q 2278 3053 1993 2715 
Q 1709 2378 1709 1741 
L 1709 0 
L 1131 0 
L 1131 3500 
L 1709 3500 
L 1709 2816 
Q 1853 3188 2151 3386 
Q 2450 3584 2859 3584 
Q 3072 3584 3256 3531 
Q 3441 3478 3609 3366 
L 3609 2778 
z
" transform="scale(0.015625)"/>
       <path id="Menlo-Regular-61" d="M 2194 1759 
L 2003 1759 
Q 1500 1759 1245 1582 
Q 991 1406 991 1056 
Q 991 741 1181 566 
Q 1372 391 1709 391 
Q 2184 391 2456 720 
Q 2728 1050 2731 1631 
L 2731 1759 
L 2194 1759 
z
M 3309 1997 
L 3309 0 
L 2731 0 
L 2731 519 
Q 2547 206 2267 57 
Q 1988 -91 1588 -91 
Q 1053 -91 734 211 
Q 416 513 416 1019 
Q 416 1603 808 1906 
Q 1200 2209 1959 2209 
L 2731 2209 
L 2731 2300 
Q 2728 2719 2518 2908 
Q 2309 3097 1850 3097 
Q 1556 3097 1256 3012 
Q 956 2928 672 2766 
L 672 3341 
Q 991 3463 1283 3523 
Q 1575 3584 1850 3584 
Q 2284 3584 2592 3456 
Q 2900 3328 3091 3072 
Q 3209 2916 3259 2686 
Q 3309 2456 3309 1997 
z
" transform="scale(0.015625)"/>
       <path id="Menlo-Regular-69" d="M 988 3488 
L 2459 3488 
L 2459 447 
L 3600 447 
L 3600 0 
L 744 0 
L 744 447 
L 1884 447 
L 1884 3041 
L 988 3041 
L 988 3488 
z
M 1884 4847 
L 2459 4847 
L 2459 4122 
L 1884 4122 
L 1884 4847 
z
" transform="scale(0.015625)"/>
       <path id="Menlo-Regular-6f" d="M 1925 3097 
Q 1488 3097 1263 2756 
Q 1038 2416 1038 1747 
Q 1038 1081 1263 739 
Q 1488 397 1925 397 
Q 2366 397 2591 739 
Q 2816 1081 2816 1747 
Q 2816 2416 2591 2756 
Q 2366 3097 1925 3097 
z
M 1925 3584 
Q 2653 3584 3039 3112 
Q 3425 2641 3425 1747 
Q 3425 850 3040 379 
Q 2656 -91 1925 -91 
Q 1197 -91 812 379 
Q 428 850 428 1747 
Q 428 2641 812 3112 
Q 1197 3584 1925 3584 
z
" transform="scale(0.015625)"/>
       <path id="DejaVuSans-Oblique-3c4" d="M 2103 638 
Q 2188 488 2525 488 
L 2800 488 
L 2706 0 
L 2363 0 
Q 1800 0 1600 300 
Q 1403 606 1534 1269 
L 1856 2925 
L 541 2925 
L 653 3500 
L 3881 3500 
L 3769 2925 
L 2444 2925 
L 2113 1234 
Q 2025 781 2103 638 
z
" transform="scale(0.015625)"/>
       <path id="Menlo-Regular-28" d="M 2672 5169 
Q 2256 4456 2051 3748 
Q 1847 3041 1847 2322 
Q 1847 1606 2051 897 
Q 2256 188 2672 -531 
L 2172 -531 
Q 1700 213 1469 917 
Q 1238 1622 1238 2322 
Q 1238 3019 1469 3725 
Q 1700 4431 2172 5169 
L 2672 5169 
z
" transform="scale(0.015625)"/>
       <path id="Menlo-Regular-73" d="M 3041 3378 
L 3041 2816 
Q 2794 2959 2544 3031 
Q 2294 3103 2034 3103 
Q 1644 3103 1451 2976 
Q 1259 2850 1259 2591 
Q 1259 2356 1403 2240 
Q 1547 2125 2119 2016 
L 2350 1972 
Q 2778 1891 2998 1647 
Q 3219 1403 3219 1013 
Q 3219 494 2850 201 
Q 2481 -91 1825 -91 
Q 1566 -91 1281 -36 
Q 997 19 666 128 
L 666 722 
Q 988 556 1281 473 
Q 1575 391 1838 391 
Q 2219 391 2428 545 
Q 2638 700 2638 978 
Q 2638 1378 1872 1531 
L 1847 1538 
L 1631 1581 
Q 1134 1678 906 1908 
Q 678 2138 678 2534 
Q 678 3038 1018 3311 
Q 1359 3584 1991 3584 
Q 2272 3584 2531 3532 
Q 2791 3481 3041 3378 
z
" transform="scale(0.015625)"/>
       <path id="Menlo-Regular-29" d="M 1088 5169 
L 1588 5169 
Q 2059 4431 2290 3725 
Q 2522 3019 2522 2322 
Q 2522 1619 2290 912 
Q 2059 206 1588 -531 
L 1088 -531 
Q 1503 194 1708 903 
Q 1913 1613 1913 2322 
Q 1913 3034 1708 3743 
Q 1503 4453 1088 5169 
z
" transform="scale(0.015625)"/>
      </defs>
      <use xlink:href="#Menlo-Regular-53" transform="translate(0 0.234375)"/>
      <use xlink:href="#Menlo-Regular-65" transform="translate(60.205078 0.234375)"/>
      <use xlink:href="#Menlo-Regular-67" transform="translate(120.410156 0.234375)"/>
      <use xlink:href="#Menlo-Regular-6d" transform="translate(180.615234 0.234375)"/>
      <use xlink:href="#Menlo-Regular-65" transform="translate(240.820312 0.234375)"/>
      <use xlink:href="#Menlo-Regular-6e" transform="translate(301.025391 0.234375)"/>
      <use xlink:href="#Menlo-Regular-74" transform="translate(361.230469 0.234375)"/>
      <use xlink:href="#Menlo-Regular-20" transform="translate(421.435547 0.234375)"/>
      <use xlink:href="#Menlo-Regular-64" transform="translate(481.640625 0.234375)"/>
      <use xlink:href="#Menlo-Regular-75" transform="translate(541.845703 0.234375)"/>
      <use xlink:href="#Menlo-Regular-72" transform="translate(602.050781 0.234375)"/>
      <use xlink:href="#Menlo-Regular-61" transform="translate(662.255859 0.234375)"/>
      <use xlink:href="#Menlo-Regular-74" transform="translate(722.460938 0.234375)"/>
      <use xlink:href="#Menlo-Regular-69" transform="translate(782.666016 0.234375)"/>
      <use xlink:href="#Menlo-Regular-6f" transform="translate(842.871094 0.234375)"/>
      <use xlink:href="#Menlo-Regular-6e" transform="translate(903.076172 0.234375)"/>
      <use xlink:href="#Menlo-Regular-20" transform="translate(963.28125 0.234375)"/>
      <use xlink:href="#DejaVuSans-Oblique-3c4" transform="translate(1023.486328 0.234375)"/>
      <use xlink:href="#Menlo-Regular-20" transform="translate(1083.691406 0.234375)"/>
      <use xlink:href="#Menlo-Regular-28" transform="translate(1143.896484 0.234375)"/>
      <use xlink:href="#Menlo-Regular-6d" transform="translate(1204.101562 0.234375)"/>
      <use xlink:href="#Menlo-Regular-73" transform="translate(1264.306641 0.234375)"/>
      <use xlink:href="#Menlo-Regular-29" transform="translate(1324.511719 0.234375)"/>
     </g>
    </g>
   </g>
   <g id="matplotlib.axis_2">
    <g id="ytick_1">
     <g id="line2d_5">
      <defs>
       <path id="m8b2f229438" d="M 0 0 
L 3 0 
" style="stroke: #1a1a1a; stroke-width: 0.8"/>
      </defs>
      <g>
       <use xlink:href="#m8b2f229438" x="29.762656" y="191.4888" style="fill: #1a1a1a; stroke: #1a1a1a; stroke-width: 0.8"/>
      </g>
     </g>
     <g id="text_6">
      <!-- 0 -->
      <g style="fill: #1a1a1a" transform="translate(22.048438 194.158097) scale(0.07 -0.07)">
       <use xlink:href="#Menlo-Regular-30"/>
      </g>
     </g>
    </g>
    <g id="ytick_2">
     <g id="line2d_6">
      <g>
       <use xlink:href="#m8b2f229438" x="29.762656" y="158.1888" style="fill: #1a1a1a; stroke: #1a1a1a; stroke-width: 0.8"/>
      </g>
     </g>
     <g id="text_7">
      <!-- 20 -->
      <g style="fill: #1a1a1a" transform="translate(17.834219 160.858097) scale(0.07 -0.07)">
       <use xlink:href="#Menlo-Regular-32"/>
       <use xlink:href="#Menlo-Regular-30" transform="translate(60.205078 0)"/>
      </g>
     </g>
    </g>
    <g id="ytick_3">
     <g id="line2d_7">
      <g>
       <use xlink:href="#m8b2f229438" x="29.762656" y="124.8888" style="fill: #1a1a1a; stroke: #1a1a1a; stroke-width: 0.8"/>
      </g>
     </g>
     <g id="text_8">
      <!-- 40 -->
      <g style="fill: #1a1a1a" transform="translate(17.834219 127.558097) scale(0.07 -0.07)">
       <defs>
        <path id="Menlo-Regular-34" d="M 2297 4091 
L 825 1625 
L 2297 1625 
L 2297 4091 
z
M 2194 4666 
L 2925 4666 
L 2925 1625 
L 3547 1625 
L 3547 1113 
L 2925 1113 
L 2925 0 
L 2297 0 
L 2297 1113 
L 319 1113 
L 319 1709 
L 2194 4666 
z
" transform="scale(0.015625)"/>
       </defs>
       <use xlink:href="#Menlo-Regular-34"/>
       <use xlink:href="#Menlo-Regular-30" transform="translate(60.205078 0)"/>
      </g>
     </g>
    </g>
    <g id="ytick_4">
     <g id="line2d_8">
      <g>
       <use xlink:href="#m8b2f229438" x="29.762656" y="91.5888" style="fill: #1a1a1a; stroke: #1a1a1a; stroke-width: 0.8"/>
      </g>
     </g>
     <g id="text_9">
      <!-- 60 -->
      <g style="fill: #1a1a1a" transform="translate(17.834219 94.258097) scale(0.07 -0.07)">
       <defs>
        <path id="Menlo-Regular-36" d="M 3097 4563 
L 3097 3981 
Q 2900 4097 2678 4158 
Q 2456 4219 2216 4219 
Q 1616 4219 1306 3767 
Q 997 3316 997 2438 
Q 1147 2750 1412 2917 
Q 1678 3084 2022 3084 
Q 2697 3084 3067 2670 
Q 3438 2256 3438 1497 
Q 3438 741 3056 325 
Q 2675 -91 1984 -91 
Q 1172 -91 794 492 
Q 416 1075 416 2328 
Q 416 3509 870 4129 
Q 1325 4750 2188 4750 
Q 2419 4750 2650 4701 
Q 2881 4653 3097 4563 
z
M 1972 2591 
Q 1569 2591 1337 2300 
Q 1106 2009 1106 1497 
Q 1106 984 1337 693 
Q 1569 403 1972 403 
Q 2391 403 2603 679 
Q 2816 956 2816 1497 
Q 2816 2041 2603 2316 
Q 2391 2591 1972 2591 
z
" transform="scale(0.015625)"/>
       </defs>
       <use xlink:href="#Menlo-Regular-36"/>
       <use xlink:href="#Menlo-Regular-30" transform="translate(60.205078 0)"/>
      </g>
     </g>
    </g>
    <g id="ytick_5">
     <g id="line2d_9">
      <g>
       <use xlink:href="#m8b2f229438" x="29.762656" y="58.2888" style="fill: #1a1a1a; stroke: #1a1a1a; stroke-width: 0.8"/>
      </g>
     </g>
     <g id="text_10">
      <!-- 80 -->
      <g style="fill: #1a1a1a" transform="translate(17.834219 60.958097) scale(0.07 -0.07)">
       <defs>
        <path id="Menlo-Regular-38" d="M 1925 2216 
Q 1503 2216 1273 1980 
Q 1044 1744 1044 1313 
Q 1044 881 1276 642 
Q 1509 403 1925 403 
Q 2350 403 2579 639 
Q 2809 875 2809 1313 
Q 2809 1741 2576 1978 
Q 2344 2216 1925 2216 
z
M 1375 2478 
Q 972 2581 745 2862 
Q 519 3144 519 3541 
Q 519 4097 897 4423 
Q 1275 4750 1925 4750 
Q 2578 4750 2956 4423 
Q 3334 4097 3334 3541 
Q 3334 3144 3107 2862 
Q 2881 2581 2478 2478 
Q 2947 2375 3195 2062 
Q 3444 1750 3444 1253 
Q 3444 622 3041 265 
Q 2638 -91 1925 -91 
Q 1213 -91 811 264 
Q 409 619 409 1247 
Q 409 1747 657 2061 
Q 906 2375 1375 2478 
z
M 1147 3481 
Q 1147 3106 1347 2909 
Q 1547 2713 1925 2713 
Q 2306 2713 2506 2909 
Q 2706 3106 2706 3481 
Q 2706 3863 2507 4063 
Q 2309 4263 1925 4263 
Q 1547 4263 1347 4061 
Q 1147 3859 1147 3481 
z
" transform="scale(0.015625)"/>
       </defs>
       <use xlink:href="#Menlo-Regular-38"/>
       <use xlink:href="#Menlo-Regular-30" transform="translate(60.205078 0)"/>
      </g>
     </g>
    </g>
    <g id="ytick_6">
     <g id="line2d_10">
      <g>
       <use xlink:href="#m8b2f229438" x="29.762656" y="24.9888" style="fill: #1a1a1a; stroke: #1a1a1a; stroke-width: 0.8"/>
      </g>
     </g>
     <g id="text_11">
      <!-- 100 -->
      <g style="fill: #1a1a1a" transform="translate(13.62 27.658097) scale(0.07 -0.07)">
       <use xlink:href="#Menlo-Regular-31"/>
       <use xlink:href="#Menlo-Regular-30" transform="translate(60.205078 0)"/>
       <use xlink:href="#Menlo-Regular-30" transform="translate(120.410156 0)"/>
      </g>
     </g>
    </g>
    <g id="text_12">
     <!-- Per-segment accuracy (%) -->
     <g style="fill: #1a1a1a" transform="translate(7.90125 166.0338) rotate(-90) scale(0.08 -0.08)">
      <defs>
       <path id="Menlo-Regular-50" d="M 1247 4147 
L 1247 2394 
L 1978 2394 
Q 2416 2394 2661 2625 
Q 2906 2856 2906 3272 
Q 2906 3688 2662 3917 
Q 2419 4147 1978 4147 
L 1247 4147 
z
M 616 4666 
L 1978 4666 
Q 2759 4666 3162 4311 
Q 3566 3956 3566 3272 
Q 3566 2581 3164 2228 
Q 2763 1875 1978 1875 
L 1247 1875 
L 1247 0 
L 616 0 
L 616 4666 
z
" transform="scale(0.015625)"/>
       <path id="Menlo-Regular-2d" d="M 319 2263 
L 3631 2263 
L 3631 1734 
L 319 1734 
L 319 2263 
z
" transform="scale(0.015625)"/>
       <path id="Menlo-Regular-63" d="M 3316 178 
Q 3084 44 2839 -23 
Q 2594 -91 2338 -91 
Q 1525 -91 1067 396 
Q 609 884 609 1747 
Q 609 2609 1067 3096 
Q 1525 3584 2338 3584 
Q 2591 3584 2831 3518 
Q 3072 3453 3316 3316 
L 3316 2713 
Q 3088 2916 2858 3006 
Q 2628 3097 2338 3097 
Q 1797 3097 1506 2747 
Q 1216 2397 1216 1747 
Q 1216 1100 1508 748 
Q 1800 397 2338 397 
Q 2638 397 2875 489 
Q 3113 581 3316 775 
L 3316 178 
z
" transform="scale(0.015625)"/>
       <path id="Menlo-Regular-79" d="M 2681 1125 
Q 2538 759 2316 163 
Q 2006 -663 1900 -844 
Q 1756 -1088 1540 -1209 
Q 1325 -1331 1038 -1331 
L 575 -1331 
L 575 -850 
L 916 -850 
Q 1169 -850 1312 -703 
Q 1456 -556 1678 56 
L 325 3500 
L 934 3500 
L 1972 763 
L 2994 3500 
L 3603 3500 
L 2681 1125 
z
" transform="scale(0.015625)"/>
       <path id="Menlo-Regular-25" d="M 2175 997 
Q 2175 753 2339 587 
Q 2503 422 2747 422 
Q 2988 422 3155 589 
Q 3322 756 3322 997 
Q 3322 1238 3153 1406 
Q 2984 1575 2747 1575 
Q 2503 1575 2339 1409 
Q 2175 1244 2175 997 
z
M 1753 997 
Q 1753 1419 2040 1708 
Q 2328 1997 2747 1997 
Q 2947 1997 3126 1922 
Q 3306 1847 3450 1703 
Q 3594 1556 3672 1375 
Q 3750 1194 3750 997 
Q 3750 581 3459 290 
Q 3169 0 2747 0 
Q 2322 0 2037 286 
Q 1753 572 1753 997 
z
M 259 1375 
L 122 1728 
L 3606 3122 
L 3763 2769 
L 259 1375 
z
M 525 3475 
Q 525 3228 689 3064 
Q 853 2900 1100 2900 
Q 1341 2900 1509 3067 
Q 1678 3234 1678 3475 
Q 1678 3716 1509 3883 
Q 1341 4050 1100 4050 
Q 859 4050 692 3884 
Q 525 3719 525 3475 
z
M 103 3475 
Q 103 3897 390 4186 
Q 678 4475 1100 4475 
Q 1300 4475 1483 4400 
Q 1666 4325 1806 4184 
Q 1947 4044 2023 3861 
Q 2100 3678 2100 3475 
Q 2100 3056 1809 2767 
Q 1519 2478 1100 2478 
Q 678 2478 390 2765 
Q 103 3053 103 3475 
z
" transform="scale(0.015625)"/>
      </defs>
      <use xlink:href="#Menlo-Regular-50"/>
      <use xlink:href="#Menlo-Regular-65" transform="translate(60.205078 0)"/>
      <use xlink:href="#Menlo-Regular-72" transform="translate(120.410156 0)"/>
      <use xlink:href="#Menlo-Regular-2d" transform="translate(180.615234 0)"/>
      <use xlink:href="#Menlo-Regular-73" transform="translate(240.820312 0)"/>
      <use xlink:href="#Menlo-Regular-65" transform="translate(301.025391 0)"/>
      <use xlink:href="#Menlo-Regular-67" transform="translate(361.230469 0)"/>
      <use xlink:href="#Menlo-Regular-6d" transform="translate(421.435547 0)"/>
      <use xlink:href="#Menlo-Regular-65" transform="translate(481.640625 0)"/>
      <use xlink:href="#Menlo-Regular-6e" transform="translate(541.845703 0)"/>
      <use xlink:href="#Menlo-Regular-74" transform="translate(602.050781 0)"/>
      <use xlink:href="#Menlo-Regular-20" transform="translate(662.255859 0)"/>
      <use xlink:href="#Menlo-Regular-61" transform="translate(722.460938 0)"/>
      <use xlink:href="#Menlo-Regular-63" transform="translate(782.666016 0)"/>
      <use xlink:href="#Menlo-Regular-63" transform="translate(842.871094 0)"/>
      <use xlink:href="#Menlo-Regular-75" transform="translate(903.076172 0)"/>
      <use xlink:href="#Menlo-Regular-72" transform="translate(963.28125 0)"/>
      <use xlink:href="#Menlo-Regular-61" transform="translate(1023.486328 0)"/>
      <use xlink:href="#Menlo-Regular-63" transform="translate(1083.691406 0)"/>
      <use xlink:href="#Menlo-Regular-79" transform="translate(1143.896484 0)"/>
      <use xlink:href="#Menlo-Regular-20" transform="translate(1204.101562 0)"/>
      <use xlink:href="#Menlo-Regular-28" transform="translate(1264.306641 0)"/>
      <use xlink:href="#Menlo-Regular-25" transform="translate(1324.511719 0)"/>
      <use xlink:href="#Menlo-Regular-29" transform="translate(1384.716797 0)"/>
     </g>
    </g>
   </g>
   <g id="LineCollection_1">
    <path d="M 46.019929 100.662418 
L 46.019929 89.730186 
" clip-path="url(#p63fa5a55f9)" style="fill: none; stroke: #1a1a1a; stroke-width: 1.5"/>
    <path d="M 92.46928 62.580088 
L 92.46928 60.657512 
" clip-path="url(#p63fa5a55f9)" style="fill: none; stroke: #1a1a1a; stroke-width: 1.5"/>
    <path d="M 185.367981 48.613913 
L 185.367981 42.433695 
" clip-path="url(#p63fa5a55f9)" style="fill: none; stroke: #1a1a1a; stroke-width: 1.5"/>
    <path d="M 371.165384 42.857665 
L 371.165384 37.089935 
" clip-path="url(#p63fa5a55f9)" style="fill: none; stroke: #1a1a1a; stroke-width: 1.5"/>
   </g>
   <g id="line2d_11">
    <defs>
     <path id="mdb485cc925" d="M 4 0 
L -4 -0 
" style="stroke: #1a1a1a"/>
    </defs>
    <g clip-path="url(#p63fa5a55f9)">
     <use xlink:href="#mdb485cc925" x="46.019929" y="100.662418" style="fill: #1a1a1a; stroke: #1a1a1a"/>
     <use xlink:href="#mdb485cc925" x="92.46928" y="62.580088" style="fill: #1a1a1a; stroke: #1a1a1a"/>
     <use xlink:href="#mdb485cc925" x="185.367981" y="48.613913" style="fill: #1a1a1a; stroke: #1a1a1a"/>
     <use xlink:href="#mdb485cc925" x="371.165384" y="42.857665" style="fill: #1a1a1a; stroke: #1a1a1a"/>
    </g>
   </g>
   <g id="line2d_12">
    <g clip-path="url(#p63fa5a55f9)">
     <use xlink:href="#mdb485cc925" x="46.019929" y="89.730186" style="fill: #1a1a1a; stroke: #1a1a1a"/>
     <use xlink:href="#mdb485cc925" x="92.46928" y="60.657512" style="fill: #1a1a1a; stroke: #1a1a1a"/>
     <use xlink:href="#mdb485cc925" x="185.367981" y="42.433695" style="fill: #1a1a1a; stroke: #1a1a1a"/>
     <use xlink:href="#mdb485cc925" x="371.165384" y="37.089935" style="fill: #1a1a1a; stroke: #1a1a1a"/>
    </g>
   </g>
   <g id="LineCollection_2">
    <path d="M 46.019929 44.581836 
L 46.019929 42.580755 
" clip-path="url(#p63fa5a55f9)" style="fill: none; stroke: #c8102e; stroke-width: 1.5"/>
    <path d="M 92.46928 40.696845 
L 92.46928 38.695764 
" clip-path="url(#p63fa5a55f9)" style="fill: none; stroke: #c8102e; stroke-width: 1.5"/>
    <path d="M 185.367981 44.177622 
L 185.367981 38.544987 
" clip-path="url(#p63fa5a55f9)" style="fill: none; stroke: #c8102e; stroke-width: 1.5"/>
    <path d="M 371.165384 42.857665 
L 371.165384 37.089935 
" clip-path="url(#p63fa5a55f9)" style="fill: none; stroke: #c8102e; stroke-width: 1.5"/>
   </g>
   <g id="line2d_13">
    <defs>
     <path id="mcbbf4a8bd9" d="M 4 0 
L -4 -0 
" style="stroke: #c8102e"/>
    </defs>
    <g clip-path="url(#p63fa5a55f9)">
     <use xlink:href="#mcbbf4a8bd9" x="46.019929" y="44.581836" style="fill: #c8102e; stroke: #c8102e"/>
     <use xlink:href="#mcbbf4a8bd9" x="92.46928" y="40.696845" style="fill: #c8102e; stroke: #c8102e"/>
     <use xlink:href="#mcbbf4a8bd9" x="185.367981" y="44.177622" style="fill: #c8102e; stroke: #c8102e"/>
     <use xlink:href="#mcbbf4a8bd9" x="371.165384" y="42.857665" style="fill: #c8102e; stroke: #c8102e"/>
    </g>
   </g>
   <g id="line2d_14">
    <g clip-path="url(#p63fa5a55f9)">
     <use xlink:href="#mcbbf4a8bd9" x="46.019929" y="42.580755" style="fill: #c8102e; stroke: #c8102e"/>
     <use xlink:href="#mcbbf4a8bd9" x="92.46928" y="38.695764" style="fill: #c8102e; stroke: #c8102e"/>
     <use xlink:href="#mcbbf4a8bd9" x="185.367981" y="38.544987" style="fill: #c8102e; stroke: #c8102e"/>
     <use xlink:href="#mcbbf4a8bd9" x="371.165384" y="37.089935" style="fill: #c8102e; stroke: #c8102e"/>
    </g>
   </g>
   <g id="line2d_15">
    <path d="M 29.762656 174.8388 
L 387.422656 174.8388 
" clip-path="url(#p63fa5a55f9)" style="fill: none; stroke-dasharray: 0.5,0.825; stroke-dashoffset: 0; stroke: #6a6a6a; stroke-opacity: 0.6; stroke-width: 0.5"/>
   </g>
   <g id="line2d_16">
    <path d="M 51.593851 191.4888 
L 51.593851 24.9888 
" clip-path="url(#p63fa5a55f9)" style="fill: none; stroke-dasharray: 2.59,1.12; stroke-dashoffset: 0; stroke: #e89400; stroke-opacity: 0.8; stroke-width: 0.7"/>
   </g>
   <g id="line2d_17">
    <path d="M 46.019929 95.196302 
L 92.46928 61.6188 
L 185.367981 45.523804 
L 371.165384 39.9738 
" clip-path="url(#p63fa5a55f9)" style="fill: none; stroke: #1a1a1a; stroke-width: 1.5; stroke-linejoin: miter"/>
    <defs>
     <path id="mac5d5591ee" d="M 0 3 
C 0.795609 3 1.55874 2.683901 2.12132 2.12132 
C 2.683901 1.55874 3 0.795609 3 0 
C 3 -0.795609 2.683901 -1.55874 2.12132 -2.12132 
C 1.55874 -2.683901 0.795609 -3 0 -3 
C -0.795609 -3 -1.55874 -2.683901 -2.12132 -2.12132 
C -2.683901 -1.55874 -3 -0.795609 -3 0 
C -3 0.795609 -2.683901 1.55874 -2.12132 2.12132 
C -1.55874 2.683901 -0.795609 3 0 3 
z
" style="stroke: #1a1a1a"/>
    </defs>
    <g clip-path="url(#p63fa5a55f9)">
     <use xlink:href="#mac5d5591ee" x="46.019929" y="95.196302" style="fill: #1a1a1a; stroke: #1a1a1a"/>
     <use xlink:href="#mac5d5591ee" x="92.46928" y="61.6188" style="fill: #1a1a1a; stroke: #1a1a1a"/>
     <use xlink:href="#mac5d5591ee" x="185.367981" y="45.523804" style="fill: #1a1a1a; stroke: #1a1a1a"/>
     <use xlink:href="#mac5d5591ee" x="371.165384" y="39.9738" style="fill: #1a1a1a; stroke: #1a1a1a"/>
    </g>
   </g>
   <g id="line2d_18">
    <path d="M 46.019929 43.581296 
L 92.46928 39.696304 
L 185.367981 41.361304 
L 371.165384 39.9738 
" clip-path="url(#p63fa5a55f9)" style="fill: none; stroke: #c8102e; stroke-width: 1.5; stroke-linejoin: miter"/>
    <defs>
     <path id="m0eebab9588" d="M -3 3 
L 3 3 
L 3 -3 
L -3 -3 
z
" style="stroke: #c8102e; stroke-linejoin: miter"/>
    </defs>
    <g clip-path="url(#p63fa5a55f9)">
     <use xlink:href="#m0eebab9588" x="46.019929" y="43.581296" style="fill: #c8102e; stroke: #c8102e; stroke-linejoin: miter"/>
     <use xlink:href="#m0eebab9588" x="92.46928" y="39.696304" style="fill: #c8102e; stroke: #c8102e; stroke-linejoin: miter"/>
     <use xlink:href="#m0eebab9588" x="185.367981" y="41.361304" style="fill: #c8102e; stroke: #c8102e; stroke-linejoin: miter"/>
     <use xlink:href="#m0eebab9588" x="371.165384" y="39.9738" style="fill: #c8102e; stroke: #c8102e; stroke-linejoin: miter"/>
    </g>
   </g>
   <g id="patch_3">
    <path d="M 29.762656 191.4888 
L 29.762656 24.9888 
" style="fill: none; stroke: #1a1a1a; stroke-width: 0.8; stroke-linejoin: miter; stroke-linecap: square"/>
   </g>
   <g id="patch_4">
    <path d="M 29.762656 191.4888 
L 387.422656 191.4888 
" style="fill: none; stroke: #1a1a1a; stroke-width: 0.8; stroke-linejoin: miter; stroke-linecap: square"/>
   </g>
   <g id="text_13">
    <!--  ≈ 1 gamma cycle -->
    <g style="fill: #e89400" transform="translate(51.593851 43.266066) scale(0.065 -0.065)">
     <defs>
      <path id="Menlo-Regular-2248" d="M 3578 3009 
L 3578 2463 
Q 3344 2278 3120 2192 
Q 2897 2106 2650 2106 
Q 2369 2106 2016 2266 
Q 1947 2297 1913 2309 
Q 1672 2416 1511 2453 
Q 1350 2491 1191 2491 
Q 944 2491 723 2398 
Q 503 2306 275 2106 
L 275 2650 
Q 519 2838 747 2923 
Q 975 3009 1234 3009 
Q 1400 3009 1556 2975 
Q 1713 2941 1947 2841 
Q 1978 2828 2047 2794 
Q 2409 2625 2700 2625 
Q 2919 2625 3133 2719 
Q 3347 2813 3578 3009 
z
M 3578 1863 
L 3578 1313 
Q 3344 1128 3120 1040 
Q 2897 953 2650 953 
Q 2369 953 2016 1113 
Q 1947 1144 1913 1159 
Q 1653 1272 1498 1308 
Q 1344 1344 1191 1344 
Q 947 1344 726 1250 
Q 506 1156 275 953 
L 275 1497 
Q 522 1691 750 1777 
Q 978 1863 1234 1863 
Q 1534 1863 1941 1691 
L 1944 1691 
Q 1978 1675 2047 1644 
Q 2409 1472 2700 1472 
Q 2913 1472 3128 1567 
Q 3344 1663 3578 1863 
z
" transform="scale(0.015625)"/>
      <path id="Menlo-Regular-6c" d="M 2247 1266 
Q 2247 878 2389 681 
Q 2531 484 2809 484 
L 3481 484 
L 3481 0 
L 2753 0 
Q 2238 0 1955 329 
Q 1672 659 1672 1266 
L 1672 4431 
L 750 4431 
L 750 4881 
L 2247 4881 
L 2247 1266 
z
" transform="scale(0.015625)"/>
     </defs>
     <use xlink:href="#Menlo-Regular-20"/>
     <use xlink:href="#Menlo-Regular-2248" transform="translate(60.205078 0)"/>
     <use xlink:href="#Menlo-Regular-20" transform="translate(120.410156 0)"/>
     <use xlink:href="#Menlo-Regular-31" transform="translate(180.615234 0)"/>
     <use xlink:href="#Menlo-Regular-20" transform="translate(240.820312 0)"/>
     <use xlink:href="#Menlo-Regular-67" transform="translate(301.025391 0)"/>
     <use xlink:href="#Menlo-Regular-61" transform="translate(361.230469 0)"/>
     <use xlink:href="#Menlo-Regular-6d" transform="translate(421.435547 0)"/>
     <use xlink:href="#Menlo-Regular-6d" transform="translate(481.640625 0)"/>
     <use xlink:href="#Menlo-Regular-61" transform="translate(541.845703 0)"/>
     <use xlink:href="#Menlo-Regular-20" transform="translate(602.050781 0)"/>
     <use xlink:href="#Menlo-Regular-63" transform="translate(662.255859 0)"/>
     <use xlink:href="#Menlo-Regular-79" transform="translate(722.460938 0)"/>
     <use xlink:href="#Menlo-Regular-63" transform="translate(782.666016 0)"/>
     <use xlink:href="#Menlo-Regular-6c" transform="translate(842.871094 0)"/>
     <use xlink:href="#Menlo-Regular-65" transform="translate(903.076172 0)"/>
    </g>
   </g>
   <g id="legend_1">
    <g id="LineCollection_3">
     <path d="M 243.362656 174.143019 
L 243.362656 167.143019 
" style="fill: none; stroke: #1a1a1a; stroke-width: 1.5"/>
    </g>
    <g id="line2d_19">
     <g>
      <use xlink:href="#mdb485cc925" x="243.362656" y="174.143019" style="fill: #1a1a1a; stroke: #1a1a1a"/>
     </g>
    </g>
    <g id="line2d_20">
     <g>
      <use xlink:href="#mdb485cc925" x="243.362656" y="167.143019" style="fill: #1a1a1a; stroke: #1a1a1a"/>
     </g>
    </g>
    <g id="line2d_21">
     <path d="M 237.762656 170.643019 
L 248.962656 170.643019 
" style="fill: none; stroke: #1a1a1a; stroke-width: 1.5; stroke-linejoin: miter"/>
    </g>
    <g id="line2d_22">
     <g>
      <use xlink:href="#mac5d5591ee" x="243.362656" y="170.643019" style="fill: #1a1a1a; stroke: #1a1a1a"/>
     </g>
    </g>
    <g id="text_14">
     <!-- constant input (25 Hz) -->
     <g style="fill: #1a1a1a" transform="translate(254.562656 173.093019) scale(0.07 -0.07)">
      <defs>
       <path id="Menlo-Regular-70" d="M 1172 441 
L 1172 -1331 
L 594 -1331 
L 594 3500 
L 1172 3500 
L 1172 3053 
Q 1316 3313 1555 3448 
Q 1794 3584 2106 3584 
Q 2741 3584 3102 3093 
Q 3463 2603 3463 1734 
Q 3463 881 3100 395 
Q 2738 -91 2106 -91 
Q 1788 -91 1548 45 
Q 1309 181 1172 441 
z
M 2859 1747 
Q 2859 2416 2648 2756 
Q 2438 3097 2022 3097 
Q 1603 3097 1387 2755 
Q 1172 2413 1172 1747 
Q 1172 1084 1387 740 
Q 1603 397 2022 397 
Q 2438 397 2648 737 
Q 2859 1078 2859 1747 
z
" transform="scale(0.015625)"/>
       <path id="Menlo-Regular-48" d="M 428 4666 
L 1063 4666 
L 1063 2878 
L 2791 2878 
L 2791 4666 
L 3425 4666 
L 3425 0 
L 2791 0 
L 2791 2347 
L 1063 2347 
L 1063 0 
L 428 0 
L 428 4666 
z
" transform="scale(0.015625)"/>
       <path id="Menlo-Regular-7a" d="M 709 3506 
L 3250 3506 
L 3250 2981 
L 1241 469 
L 3250 469 
L 3250 0 
L 634 0 
L 634 531 
L 2644 3047 
L 709 3047 
L 709 3506 
z
" transform="scale(0.015625)"/>
      </defs>
      <use xlink:href="#Menlo-Regular-63"/>
      <use xlink:href="#Menlo-Regular-6f" transform="translate(60.205078 0)"/>
      <use xlink:href="#Menlo-Regular-6e" transform="translate(120.410156 0)"/>
      <use xlink:href="#Menlo-Regular-73" transform="translate(180.615234 0)"/>
      <use xlink:href="#Menlo-Regular-74" transform="translate(240.820312 0)"/>
      <use xlink:href="#Menlo-Regular-61" transform="translate(301.025391 0)"/>
      <use xlink:href="#Menlo-Regular-6e" transform="translate(361.230469 0)"/>
      <use xlink:href="#Menlo-Regular-74" transform="translate(421.435547 0)"/>
      <use xlink:href="#Menlo-Regular-20" transform="translate(481.640625 0)"/>
      <use xlink:href="#Menlo-Regular-69" transform="translate(541.845703 0)"/>
      <use xlink:href="#Menlo-Regular-6e" transform="translate(602.050781 0)"/>
      <use xlink:href="#Menlo-Regular-70" transform="translate(662.255859 0)"/>
      <use xlink:href="#Menlo-Regular-75" transform="translate(722.460938 0)"/>
      <use xlink:href="#Menlo-Regular-74" transform="translate(782.666016 0)"/>
      <use xlink:href="#Menlo-Regular-20" transform="translate(842.871094 0)"/>
      <use xlink:href="#Menlo-Regular-28" transform="translate(903.076172 0)"/>
      <use xlink:href="#Menlo-Regular-32" transform="translate(963.28125 0)"/>
      <use xlink:href="#Menlo-Regular-35" transform="translate(1023.486328 0)"/>
      <use xlink:href="#Menlo-Regular-20" transform="translate(1083.691406 0)"/>
      <use xlink:href="#Menlo-Regular-48" transform="translate(1143.896484 0)"/>
      <use xlink:href="#Menlo-Regular-7a" transform="translate(1204.101562 0)"/>
      <use xlink:href="#Menlo-Regular-29" transform="translate(1264.306641 0)"/>
     </g>
    </g>
    <g id="LineCollection_4">
     <path d="M 243.362656 184.7688 
L 243.362656 177.7688 
" style="fill: none; stroke: #c8102e; stroke-width: 1.5"/>
    </g>
    <g id="line2d_23">
     <g>
      <use xlink:href="#mcbbf4a8bd9" x="243.362656" y="184.7688" style="fill: #c8102e; stroke: #c8102e"/>
     </g>
    </g>
    <g id="line2d_24">
     <g>
      <use xlink:href="#mcbbf4a8bd9" x="243.362656" y="177.7688" style="fill: #c8102e; stroke: #c8102e"/>
     </g>
    </g>
    <g id="line2d_25">
     <path d="M 237.762656 181.2688 
L 248.962656 181.2688 
" style="fill: none; stroke: #c8102e; stroke-width: 1.5; stroke-linejoin: miter"/>
    </g>
    <g id="line2d_26">
     <g>
      <use xlink:href="#m0eebab9588" x="243.362656" y="181.2688" style="fill: #c8102e; stroke: #c8102e; stroke-linejoin: miter"/>
     </g>
    </g>
    <g id="text_15">
     <!-- rate-compensated ($25 \cdot 200/\tau$ Hz) -->
     <g style="fill: #1a1a1a" transform="translate(254.562656 183.7188) scale(0.07 -0.07)">
      <defs>
       <path id="DejaVuSans-32" d="M 1228 531 
L 3431 531 
L 3431 0 
L 469 0 
L 469 531 
Q 828 903 1448 1529 
Q 2069 2156 2228 2338 
Q 2531 2678 2651 2914 
Q 2772 3150 2772 3378 
Q 2772 3750 2511 3984 
Q 2250 4219 1831 4219 
Q 1534 4219 1204 4116 
Q 875 4013 500 3803 
L 500 4441 
Q 881 4594 1212 4672 
Q 1544 4750 1819 4750 
Q 2544 4750 2975 4387 
Q 3406 4025 3406 3419 
Q 3406 3131 3298 2873 
Q 3191 2616 2906 2266 
Q 2828 2175 2409 1742 
Q 1991 1309 1228 531 
z
" transform="scale(0.015625)"/>
       <path id="DejaVuSans-35" d="M 691 4666 
L 3169 4666 
L 3169 4134 
L 1269 4134 
L 1269 2991 
Q 1406 3038 1543 3061 
Q 1681 3084 1819 3084 
Q 2600 3084 3056 2656 
Q 3513 2228 3513 1497 
Q 3513 744 3044 326 
Q 2575 -91 1722 -91 
Q 1428 -91 1123 -41 
Q 819 9 494 109 
L 494 744 
Q 775 591 1075 516 
Q 1375 441 1709 441 
Q 2250 441 2565 725 
Q 2881 1009 2881 1497 
Q 2881 1984 2565 2268 
Q 2250 2553 1709 2553 
Q 1456 2553 1204 2497 
Q 953 2441 691 2322 
L 691 4666 
z
" transform="scale(0.015625)"/>
       <path id="DejaVuSans-22c5" d="M 684 2619 
L 1344 2619 
L 1344 1825 
L 684 1825 
L 684 2619 
z
" transform="scale(0.015625)"/>
       <path id="DejaVuSans-30" d="M 2034 4250 
Q 1547 4250 1301 3770 
Q 1056 3291 1056 2328 
Q 1056 1369 1301 889 
Q 1547 409 2034 409 
Q 2525 409 2770 889 
Q 3016 1369 3016 2328 
Q 3016 3291 2770 3770 
Q 2525 4250 2034 4250 
z
M 2034 4750 
Q 2819 4750 3233 4129 
Q 3647 3509 3647 2328 
Q 3647 1150 3233 529 
Q 2819 -91 2034 -91 
Q 1250 -91 836 529 
Q 422 1150 422 2328 
Q 422 3509 836 4129 
Q 1250 4750 2034 4750 
z
" transform="scale(0.015625)"/>
       <path id="DejaVuSans-2f" d="M 1625 4666 
L 2156 4666 
L 531 -594 
L 0 -594 
L 1625 4666 
z
" transform="scale(0.015625)"/>
      </defs>
      <use xlink:href="#Menlo-Regular-72" transform="translate(0 0.234375)"/>
      <use xlink:href="#Menlo-Regular-61" transform="translate(60.205078 0.234375)"/>
      <use xlink:href="#Menlo-Regular-74" transform="translate(120.410156 0.234375)"/>
      <use xlink:href="#Menlo-Regular-65" transform="translate(180.615234 0.234375)"/>
      <use xlink:href="#Menlo-Regular-2d" transform="translate(240.820312 0.234375)"/>
      <use xlink:href="#Menlo-Regular-63" transform="translate(301.025391 0.234375)"/>
      <use xlink:href="#Menlo-Regular-6f" transform="translate(361.230469 0.234375)"/>
      <use xlink:href="#Menlo-Regular-6d" transform="translate(421.435547 0.234375)"/>
      <use xlink:href="#Menlo-Regular-70" transform="translate(481.640625 0.234375)"/>
      <use xlink:href="#Menlo-Regular-65" transform="translate(541.845703 0.234375)"/>
      <use xlink:href="#Menlo-Regular-6e" transform="translate(602.050781 0.234375)"/>
      <use xlink:href="#Menlo-Regular-73" transform="translate(662.255859 0.234375)"/>
      <use xlink:href="#Menlo-Regular-61" transform="translate(722.460938 0.234375)"/>
      <use xlink:href="#Menlo-Regular-74" transform="translate(782.666016 0.234375)"/>
      <use xlink:href="#Menlo-Regular-65" transform="translate(842.871094 0.234375)"/>
      <use xlink:href="#Menlo-Regular-64" transform="translate(903.076172 0.234375)"/>
      <use xlink:href="#Menlo-Regular-20" transform="translate(963.28125 0.234375)"/>
      <use xlink:href="#Menlo-Regular-28" transform="translate(1023.486328 0.234375)"/>
      <use xlink:href="#DejaVuSans-32" transform="translate(1083.691406 0.234375)"/>
      <use xlink:href="#DejaVuSans-35" transform="translate(1147.314453 0.234375)"/>
      <use xlink:href="#DejaVuSans-22c5" transform="translate(1230.419922 0.234375)"/>
      <use xlink:href="#DejaVuSans-32" transform="translate(1281.689453 0.234375)"/>
      <use xlink:href="#DejaVuSans-30" transform="translate(1345.3125 0.234375)"/>
      <use xlink:href="#DejaVuSans-30" transform="translate(1408.935547 0.234375)"/>
      <use xlink:href="#DejaVuSans-2f" transform="translate(1472.558594 0.234375)"/>
      <use xlink:href="#DejaVuSans-Oblique-3c4" transform="translate(1506.25 0.234375)"/>
      <use xlink:href="#Menlo-Regular-20" transform="translate(1566.455078 0.234375)"/>
      <use xlink:href="#Menlo-Regular-48" transform="translate(1626.660156 0.234375)"/>
      <use xlink:href="#Menlo-Regular-7a" transform="translate(1686.865234 0.234375)"/>
      <use xlink:href="#Menlo-Regular-29" transform="translate(1747.070312 0.234375)"/>
     </g>
    </g>
   </g>
  </g>
  <g id="text_16">
   <!-- Streaming accuracy vs digit duration on trained PING -->
   <g transform="translate(61.41375 7.898672) scale(0.085 -0.085)">
    <defs>
     <path id="Menlo-Regular-76" d="M 313 3500 
L 909 3500 
L 1925 563 
L 2944 3500 
L 3541 3500 
L 2297 0 
L 1556 0 
L 313 3500 
z
" transform="scale(0.015625)"/>
     <path id="Menlo-Regular-49" d="M 628 4666 
L 3219 4666 
L 3219 4134 
L 2241 4134 
L 2241 531 
L 3219 531 
L 3219 0 
L 628 0 
L 628 531 
L 1606 531 
L 1606 4134 
L 628 4134 
L 628 4666 
z
" transform="scale(0.015625)"/>
     <path id="Menlo-Regular-4e" d="M 59 4650 
L 922 4650 
L 2747 822 
L 2747 4650 
L 3419 4650 
L 3419 0 
L 2556 0 
L 731 3828 
L 731 0 
L 59 0 
L 59 4650 
z
" transform="scale(0.015625)"/>
     <path id="Menlo-Regular-47" d="M 3450 384 
Q 3197 150 2880 29 
Q 2563 -91 2194 -91 
Q 1306 -91 812 545 
Q 319 1181 319 2328 
Q 319 3472 819 4111 
Q 1319 4750 2209 4750 
Q 2503 4750 2772 4667 
Q 3041 4584 3291 4416 
L 3291 3769 
Q 3038 4009 2772 4123 
Q 2506 4238 2209 4238 
Q 1594 4238 1286 3761 
Q 978 3284 978 2328 
Q 978 1356 1276 889 
Q 1575 422 2194 422 
Q 2403 422 2561 470 
Q 2719 519 2847 622 
L 2847 1875 
L 2169 1875 
L 2169 2394 
L 3450 2394 
L 3450 384 
z
" transform="scale(0.015625)"/>
    </defs>
    <use xlink:href="#Menlo-Regular-53"/>
    <use xlink:href="#Menlo-Regular-74" transform="translate(60.205078 0)"/>
    <use xlink:href="#Menlo-Regular-72" transform="translate(120.410156 0)"/>
    <use xlink:href="#Menlo-Regular-65" transform="translate(180.615234 0)"/>
    <use xlink:href="#Menlo-Regular-61" transform="translate(240.820312 0)"/>
    <use xlink:href="#Menlo-Regular-6d" transform="translate(301.025391 0)"/>
    <use xlink:href="#Menlo-Regular-69" transform="translate(361.230469 0)"/>
    <use xlink:href="#Menlo-Regular-6e" transform="translate(421.435547 0)"/>
    <use xlink:href="#Menlo-Regular-67" transform="translate(481.640625 0)"/>
    <use xlink:href="#Menlo-Regular-20" transform="translate(541.845703 0)"/>
    <use xlink:href="#Menlo-Regular-61" transform="translate(602.050781 0)"/>
    <use xlink:href="#Menlo-Regular-63" transform="translate(662.255859 0)"/>
    <use xlink:href="#Menlo-Regular-63" transform="translate(722.460938 0)"/>
    <use xlink:href="#Menlo-Regular-75" transform="translate(782.666016 0)"/>
    <use xlink:href="#Menlo-Regular-72" transform="translate(842.871094 0)"/>
    <use xlink:href="#Menlo-Regular-61" transform="translate(903.076172 0)"/>
    <use xlink:href="#Menlo-Regular-63" transform="translate(963.28125 0)"/>
    <use xlink:href="#Menlo-Regular-79" transform="translate(1023.486328 0)"/>
    <use xlink:href="#Menlo-Regular-20" transform="translate(1083.691406 0)"/>
    <use xlink:href="#Menlo-Regular-76" transform="translate(1143.896484 0)"/>
    <use xlink:href="#Menlo-Regular-73" transform="translate(1204.101562 0)"/>
    <use xlink:href="#Menlo-Regular-20" transform="translate(1264.306641 0)"/>
    <use xlink:href="#Menlo-Regular-64" transform="translate(1324.511719 0)"/>
    <use xlink:href="#Menlo-Regular-69" transform="translate(1384.716797 0)"/>
    <use xlink:href="#Menlo-Regular-67" transform="translate(1444.921875 0)"/>
    <use xlink:href="#Menlo-Regular-69" transform="translate(1505.126953 0)"/>
    <use xlink:href="#Menlo-Regular-74" transform="translate(1565.332031 0)"/>
    <use xlink:href="#Menlo-Regular-20" transform="translate(1625.537109 0)"/>
    <use xlink:href="#Menlo-Regular-64" transform="translate(1685.742188 0)"/>
    <use xlink:href="#Menlo-Regular-75" transform="translate(1745.947266 0)"/>
    <use xlink:href="#Menlo-Regular-72" transform="translate(1806.152344 0)"/>
    <use xlink:href="#Menlo-Regular-61" transform="translate(1866.357422 0)"/>
    <use xlink:href="#Menlo-Regular-74" transform="translate(1926.5625 0)"/>
    <use xlink:href="#Menlo-Regular-69" transform="translate(1986.767578 0)"/>
    <use xlink:href="#Menlo-Regular-6f" transform="translate(2046.972656 0)"/>
    <use xlink:href="#Menlo-Regular-6e" transform="translate(2107.177734 0)"/>
    <use xlink:href="#Menlo-Regular-20" transform="translate(2167.382812 0)"/>
    <use xlink:href="#Menlo-Regular-6f" transform="translate(2227.587891 0)"/>
    <use xlink:href="#Menlo-Regular-6e" transform="translate(2287.792969 0)"/>
    <use xlink:href="#Menlo-Regular-20" transform="translate(2347.998047 0)"/>
    <use xlink:href="#Menlo-Regular-74" transform="translate(2408.203125 0)"/>
    <use xlink:href="#Menlo-Regular-72" transform="translate(2468.408203 0)"/>
    <use xlink:href="#Menlo-Regular-61" transform="translate(2528.613281 0)"/>
    <use xlink:href="#Menlo-Regular-69" transform="translate(2588.818359 0)"/>
    <use xlink:href="#Menlo-Regular-6e" transform="translate(2649.023438 0)"/>
    <use xlink:href="#Menlo-Regular-65" transform="translate(2709.228516 0)"/>
    <use xlink:href="#Menlo-Regular-64" transform="translate(2769.433594 0)"/>
    <use xlink:href="#Menlo-Regular-20" transform="translate(2829.638672 0)"/>
    <use xlink:href="#Menlo-Regular-50" transform="translate(2889.84375 0)"/>
    <use xlink:href="#Menlo-Regular-49" transform="translate(2950.048828 0)"/>
    <use xlink:href="#Menlo-Regular-4e" transform="translate(3010.253906 0)"/>
    <use xlink:href="#Menlo-Regular-47" transform="translate(3070.458984 0)"/>
   </g>
  </g>
  <g id="text_17">
   <!-- r001 -->
   <g style="fill: #888888" transform="translate(378.393844 220.984203) scale(0.065 -0.065)">
    <use xlink:href="#Menlo-Regular-72"/>
    <use xlink:href="#Menlo-Regular-30" transform="translate(60.205078 0)"/>
    <use xlink:href="#Menlo-Regular-30" transform="translate(120.410156 0)"/>
    <use xlink:href="#Menlo-Regular-31" transform="translate(180.615234 0)"/>
   </g>
  </g>
 </g>
 <defs>
  <clipPath id="p63fa5a55f9">
   <rect x="29.762656" y="24.9888" width="357.66" height="166.5"/>
  </clipPath>
 </defs>
</svg>
