<?xml version="1.0" encoding="utf-8" standalone="no"?>
<!DOCTYPE svg PUBLIC "-//W3C//DTD SVG 1.1//EN"
  "http://www.w3.org/Graphics/SVG/1.1/DTD/svg11.dtd">
<svg xmlns:xlink="http://www.w3.org/1999/xlink" width="403.844156pt" height="228.195297pt" viewBox="0 0 403.844156 228.195297" xmlns="http://www.w3.org/2000/svg" version="1.1">
 <metadata>
  <rdf:RDF xmlns:dc="http://purl.org/dc/elements/1.1/" xmlns:cc="http://creativecommons.org/ns#" xmlns:rdf="http://www.w3.org/1999/02/22-rdf-syntax-ns#">
   <cc:Work>
    <dc:type rdf:resource="http://purl.org/dc/dcmitype/StillImage"/>
    <dc:date>2026-07-07T13:15:19.665457</dc:date>
    <dc:format>image/svg+xml</dc:format>
    <dc:creator>
     <cc:Agent>
      <dc:title>Matplotlib v3.10.8, https://matplotlib.org/</dc:title>
     </cc:Agent>
    </dc:creator>
   </cc:Work>
  </rdf:RDF>
 </metadata>
 <defs>
  <style type="text/css">*{stroke-linejoin: round; stroke-linecap: butt}</style>
 </defs>
 <g id="figure_1">
  <g id="patch_1">
   <path d="M 0 228.195297 
L 403.844156 228.195297 
L 403.844156 0 
L 0 0 
z
" style="fill: #ffffff"/>
  </g>
  <g id="axes_1">
   <g id="patch_2">
    <path d="M 31.202656 189.187537 
L 399.780156 189.187537 
L 399.780156 5.549297 
L 31.202656 5.549297 
z
" style="fill: #ffffff"/>
   </g>
   <g id="matplotlib.axis_1">
    <g id="xtick_1">
     <g id="line2d_1">
      <defs>
       <path id="m712d1f7885" d="M 0 0 
L 0 -3 
" style="stroke: #1a1a1a; stroke-width: 0.8"/>
      </defs>
      <g>
       <use xlink:href="#m712d1f7885" x="31.202656" y="189.187537" style="fill: #1a1a1a; stroke: #1a1a1a; stroke-width: 0.8"/>
      </g>
     </g>
     <g id="text_1">
      <!-- 0 -->
      <g style="fill: #1a1a1a" transform="translate(29.095547 198.026131) scale(0.07 -0.07)">
       <defs>
        <path id="Menlo-Regular-30" d="M 1925 4734 
Q 2672 4734 3055 4125 
Q 3438 3516 3438 2322 
Q 3438 1128 3055 518 
Q 2672 -91 1925 -91 
Q 1178 -91 797 518 
Q 416 1128 416 2322 
Q 416 3516 797 4125 
Q 1178 4734 1925 4734 
z
M 1925 409 
Q 2369 409 2586 881 
Q 2803 1353 2803 2322 
Q 2803 2838 2741 3253 
L 1253 925 
Q 1488 409 1925 409 
z
M 1925 4234 
Q 1484 4234 1267 3762 
Q 1050 3291 1050 2322 
Q 1050 1881 1109 1497 
L 2566 3819 
Q 2328 4234 1925 4234 
z
" transform="scale(0.015625)"/>
       </defs>
       <use xlink:href="#Menlo-Regular-30"/>
      </g>
     </g>
    </g>
    <g id="xtick_2">
     <g id="line2d_2">
      <g>
       <use xlink:href="#m712d1f7885" x="74.236949" y="189.187537" style="fill: #1a1a1a; stroke: #1a1a1a; stroke-width: 0.8"/>
      </g>
     </g>
     <g id="text_2">
      <!-- 10 -->
      <g style="fill: #1a1a1a" transform="translate(70.022731 198.026131) scale(0.07 -0.07)">
       <defs>
        <path id="Menlo-Regular-31" d="M 844 528 
L 1825 528 
L 1825 4053 
L 650 3488 
L 650 4094 
L 1819 4650 
L 2450 4650 
L 2450 528 
L 3419 528 
L 3419 0 
L 844 0 
L 844 528 
z
" transform="scale(0.015625)"/>
       </defs>
       <use xlink:href="#Menlo-Regular-31"/>
       <use xlink:href="#Menlo-Regular-30" transform="translate(60.205078 0)"/>
      </g>
     </g>
    </g>
    <g id="xtick_3">
     <g id="line2d_3">
      <g>
       <use xlink:href="#m712d1f7885" x="117.271243" y="189.187537" style="fill: #1a1a1a; stroke: #1a1a1a; stroke-width: 0.8"/>
      </g>
     </g>
     <g id="text_3">
      <!-- 20 -->
      <g style="fill: #1a1a1a" transform="translate(113.057024 198.026131) scale(0.07 -0.07)">
       <defs>
        <path id="Menlo-Regular-32" d="M 1166 531 
L 3309 531 
L 3309 0 
L 475 0 
L 475 531 
Q 1059 1147 1496 1619 
Q 1934 2091 2100 2284 
Q 2413 2666 2522 2902 
Q 2631 3138 2631 3384 
Q 2631 3775 2401 3997 
Q 2172 4219 1772 4219 
Q 1488 4219 1175 4116 
Q 863 4013 513 3803 
L 513 4441 
Q 834 4594 1145 4672 
Q 1456 4750 1759 4750 
Q 2444 4750 2861 4386 
Q 3278 4022 3278 3431 
Q 3278 3131 3139 2831 
Q 3000 2531 2688 2169 
Q 2513 1966 2180 1606 
Q 1847 1247 1166 531 
z
" transform="scale(0.015625)"/>
       </defs>
       <use xlink:href="#Menlo-Regular-32"/>
       <use xlink:href="#Menlo-Regular-30" transform="translate(60.205078 0)"/>
      </g>
     </g>
    </g>
    <g id="xtick_4">
     <g id="line2d_4">
      <g>
       <use xlink:href="#m712d1f7885" x="160.305536" y="189.187537" style="fill: #1a1a1a; stroke: #1a1a1a; stroke-width: 0.8"/>
      </g>
     </g>
     <g id="text_4">
      <!-- 30 -->
      <g style="fill: #1a1a1a" transform="translate(156.091317 198.026131) scale(0.07 -0.07)">
       <defs>
        <path id="Menlo-Regular-33" d="M 2425 2497 
Q 2884 2375 3128 2064 
Q 3372 1753 3372 1288 
Q 3372 644 2939 276 
Q 2506 -91 1741 -91 
Q 1419 -91 1084 -31 
Q 750 28 428 141 
L 428 769 
Q 747 603 1056 522 
Q 1366 441 1672 441 
Q 2191 441 2469 675 
Q 2747 909 2747 1350 
Q 2747 1756 2469 1995 
Q 2191 2234 1716 2234 
L 1234 2234 
L 1234 2753 
L 1716 2753 
Q 2150 2753 2394 2943 
Q 2638 3134 2638 3475 
Q 2638 3834 2411 4026 
Q 2184 4219 1766 4219 
Q 1488 4219 1191 4156 
Q 894 4094 569 3969 
L 569 4550 
Q 947 4650 1242 4700 
Q 1538 4750 1766 4750 
Q 2447 4750 2855 4408 
Q 3263 4066 3263 3500 
Q 3263 3116 3048 2859 
Q 2834 2603 2425 2497 
z
" transform="scale(0.015625)"/>
       </defs>
       <use xlink:href="#Menlo-Regular-33"/>
       <use xlink:href="#Menlo-Regular-30" transform="translate(60.205078 0)"/>
      </g>
     </g>
    </g>
    <g id="xtick_5">
     <g id="line2d_5">
      <g>
       <use xlink:href="#m712d1f7885" x="203.339829" y="189.187537" style="fill: #1a1a1a; stroke: #1a1a1a; stroke-width: 0.8"/>
      </g>
     </g>
     <g id="text_5">
      <!-- 40 -->
      <g style="fill: #1a1a1a" transform="translate(199.12561 198.026131) scale(0.07 -0.07)">
       <defs>
        <path id="Menlo-Regular-34" d="M 2297 4091 
L 825 1625 
L 2297 1625 
L 2297 4091 
z
M 2194 4666 
L 2925 4666 
L 2925 1625 
L 3547 1625 
L 3547 1113 
L 2925 1113 
L 2925 0 
L 2297 0 
L 2297 1113 
L 319 1113 
L 319 1709 
L 2194 4666 
z
" transform="scale(0.015625)"/>
       </defs>
       <use xlink:href="#Menlo-Regular-34"/>
       <use xlink:href="#Menlo-Regular-30" transform="translate(60.205078 0)"/>
      </g>
     </g>
    </g>
    <g id="xtick_6">
     <g id="line2d_6">
      <g>
       <use xlink:href="#m712d1f7885" x="246.374122" y="189.187537" style="fill: #1a1a1a; stroke: #1a1a1a; stroke-width: 0.8"/>
      </g>
     </g>
     <g id="text_6">
      <!-- 50 -->
      <g style="fill: #1a1a1a" transform="translate(242.159903 198.026131) scale(0.07 -0.07)">
       <defs>
        <path id="Menlo-Regular-35" d="M 647 4666 
L 3009 4666 
L 3009 4134 
L 1222 4134 
L 1222 2988 
Q 1356 3038 1492 3061 
Q 1628 3084 1766 3084 
Q 2491 3084 2916 2656 
Q 3341 2228 3341 1497 
Q 3341 759 2895 334 
Q 2450 -91 1678 -91 
Q 1306 -91 998 -41 
Q 691 9 447 109 
L 447 750 
Q 734 594 1025 517 
Q 1316 441 1619 441 
Q 2141 441 2423 716 
Q 2706 991 2706 1497 
Q 2706 1997 2414 2275 
Q 2122 2553 1600 2553 
Q 1347 2553 1106 2495 
Q 866 2438 647 2322 
L 647 4666 
z
" transform="scale(0.015625)"/>
       </defs>
       <use xlink:href="#Menlo-Regular-35"/>
       <use xlink:href="#Menlo-Regular-30" transform="translate(60.205078 0)"/>
      </g>
     </g>
    </g>
    <g id="xtick_7">
     <g id="line2d_7">
      <g>
       <use xlink:href="#m712d1f7885" x="289.408415" y="189.187537" style="fill: #1a1a1a; stroke: #1a1a1a; stroke-width: 0.8"/>
      </g>
     </g>
     <g id="text_7">
      <!-- 60 -->
      <g style="fill: #1a1a1a" transform="translate(285.194196 198.026131) scale(0.07 -0.07)">
       <defs>
        <path id="Menlo-Regular-36" d="M 3097 4563 
L 3097 3981 
Q 2900 4097 2678 4158 
Q 2456 4219 2216 4219 
Q 1616 4219 1306 3767 
Q 997 3316 997 2438 
Q 1147 2750 1412 2917 
Q 1678 3084 2022 3084 
Q 2697 3084 3067 2670 
Q 3438 2256 3438 1497 
Q 3438 741 3056 325 
Q 2675 -91 1984 -91 
Q 1172 -91 794 492 
Q 416 1075 416 2328 
Q 416 3509 870 4129 
Q 1325 4750 2188 4750 
Q 2419 4750 2650 4701 
Q 2881 4653 3097 4563 
z
M 1972 2591 
Q 1569 2591 1337 2300 
Q 1106 2009 1106 1497 
Q 1106 984 1337 693 
Q 1569 403 1972 403 
Q 2391 403 2603 679 
Q 2816 956 2816 1497 
Q 2816 2041 2603 2316 
Q 2391 2591 1972 2591 
z
" transform="scale(0.015625)"/>
       </defs>
       <use xlink:href="#Menlo-Regular-36"/>
       <use xlink:href="#Menlo-Regular-30" transform="translate(60.205078 0)"/>
      </g>
     </g>
    </g>
    <g id="xtick_8">
     <g id="line2d_8">
      <g>
       <use xlink:href="#m712d1f7885" x="332.442708" y="189.187537" style="fill: #1a1a1a; stroke: #1a1a1a; stroke-width: 0.8"/>
      </g>
     </g>
     <g id="text_8">
      <!-- 70 -->
      <g style="fill: #1a1a1a" transform="translate(328.22849 198.026131) scale(0.07 -0.07)">
       <defs>
        <path id="Menlo-Regular-37" d="M 434 4666 
L 3372 4666 
L 3372 4397 
L 1703 0 
L 1044 0 
L 2669 4134 
L 434 4134 
L 434 4666 
z
" transform="scale(0.015625)"/>
       </defs>
       <use xlink:href="#Menlo-Regular-37"/>
       <use xlink:href="#Menlo-Regular-30" transform="translate(60.205078 0)"/>
      </g>
     </g>
    </g>
    <g id="xtick_9">
     <g id="line2d_9">
      <g>
       <use xlink:href="#m712d1f7885" x="375.477001" y="189.187537" style="fill: #1a1a1a; stroke: #1a1a1a; stroke-width: 0.8"/>
      </g>
     </g>
     <g id="text_9">
      <!-- 80 -->
      <g style="fill: #1a1a1a" transform="translate(371.262783 198.026131) scale(0.07 -0.07)">
       <defs>
        <path id="Menlo-Regular-38" d="M 1925 2216 
Q 1503 2216 1273 1980 
Q 1044 1744 1044 1313 
Q 1044 881 1276 642 
Q 1509 403 1925 403 
Q 2350 403 2579 639 
Q 2809 875 2809 1313 
Q 2809 1741 2576 1978 
Q 2344 2216 1925 2216 
z
M 1375 2478 
Q 972 2581 745 2862 
Q 519 3144 519 3541 
Q 519 4097 897 4423 
Q 1275 4750 1925 4750 
Q 2578 4750 2956 4423 
Q 3334 4097 3334 3541 
Q 3334 3144 3107 2862 
Q 2881 2581 2478 2478 
Q 2947 2375 3195 2062 
Q 3444 1750 3444 1253 
Q 3444 622 3041 265 
Q 2638 -91 1925 -91 
Q 1213 -91 811 264 
Q 409 619 409 1247 
Q 409 1747 657 2061 
Q 906 2375 1375 2478 
z
M 1147 3481 
Q 1147 3106 1347 2909 
Q 1547 2713 1925 2713 
Q 2306 2713 2506 2909 
Q 2706 3106 2706 3481 
Q 2706 3863 2507 4063 
Q 2309 4263 1925 4263 
Q 1547 4263 1347 4061 
Q 1147 3859 1147 3481 
z
" transform="scale(0.015625)"/>
       </defs>
       <use xlink:href="#Menlo-Regular-38"/>
       <use xlink:href="#Menlo-Regular-30" transform="translate(60.205078 0)"/>
      </g>
     </g>
    </g>
    <g id="text_10">
     <!-- E firing rate (Hz) -->
     <g style="fill: #1a1a1a" transform="translate(172.145156 209.943162) scale(0.08 -0.08)">
      <defs>
       <path id="Menlo-Regular-45" d="M 616 4666 
L 3384 4666 
L 3384 4134 
L 1247 4134 
L 1247 2878 
L 3291 2878 
L 3291 2347 
L 1247 2347 
L 1247 531 
L 3444 531 
L 3444 0 
L 616 0 
L 616 4666 
z
" transform="scale(0.015625)"/>
       <path id="Menlo-Regular-20" transform="scale(0.015625)"/>
       <path id="Menlo-Regular-66" d="M 3322 4863 
L 3322 4384 
L 2669 4384 
Q 2359 4384 2239 4257 
Q 2119 4131 2119 3809 
L 2119 3500 
L 3322 3500 
L 3322 3053 
L 2119 3053 
L 2119 0 
L 1544 0 
L 1544 3053 
L 609 3053 
L 609 3500 
L 1544 3500 
L 1544 3744 
Q 1544 4319 1808 4591 
Q 2072 4863 2631 4863 
L 3322 4863 
z
" transform="scale(0.015625)"/>
       <path id="Menlo-Regular-69" d="M 988 3488 
L 2459 3488 
L 2459 447 
L 3600 447 
L 3600 0 
L 744 0 
L 744 447 
L 1884 447 
L 1884 3041 
L 988 3041 
L 988 3488 
z
M 1884 4847 
L 2459 4847 
L 2459 4122 
L 1884 4122 
L 1884 4847 
z
" transform="scale(0.015625)"/>
       <path id="Menlo-Regular-72" d="M 3609 2778 
Q 3425 2922 3234 2987 
Q 3044 3053 2816 3053 
Q 2278 3053 1993 2715 
Q 1709 2378 1709 1741 
L 1709 0 
L 1131 0 
L 1131 3500 
L 1709 3500 
L 1709 2816 
Q 1853 3188 2151 3386 
Q 2450 3584 2859 3584 
Q 3072 3584 3256 3531 
Q 3441 3478 3609 3366 
L 3609 2778 
z
" transform="scale(0.015625)"/>
       <path id="Menlo-Regular-6e" d="M 3284 2169 
L 3284 0 
L 2706 0 
L 2706 2169 
Q 2706 2641 2540 2862 
Q 2375 3084 2022 3084 
Q 1619 3084 1401 2798 
Q 1184 2513 1184 1978 
L 1184 0 
L 609 0 
L 609 3500 
L 1184 3500 
L 1184 2975 
Q 1338 3275 1600 3429 
Q 1863 3584 2222 3584 
Q 2756 3584 3020 3232 
Q 3284 2881 3284 2169 
z
" transform="scale(0.015625)"/>
       <path id="Menlo-Regular-67" d="M 2681 1778 
Q 2681 2425 2470 2761 
Q 2259 3097 1856 3097 
Q 1434 3097 1212 2761 
Q 991 2425 991 1778 
Q 991 1131 1214 792 
Q 1438 453 1863 453 
Q 2259 453 2470 793 
Q 2681 1134 2681 1778 
z
M 3256 225 
Q 3256 -563 2884 -969 
Q 2513 -1375 1791 -1375 
Q 1553 -1375 1293 -1331 
Q 1034 -1288 775 -1203 
L 775 -634 
Q 1081 -778 1331 -847 
Q 1581 -916 1791 -916 
Q 2256 -916 2468 -662 
Q 2681 -409 2681 141 
L 2681 166 
L 2681 556 
Q 2544 263 2306 119 
Q 2069 -25 1728 -25 
Q 1116 -25 750 465 
Q 384 956 384 1778 
Q 384 2603 750 3093 
Q 1116 3584 1728 3584 
Q 2066 3584 2300 3450 
Q 2534 3316 2681 3034 
L 2681 3488 
L 3256 3488 
L 3256 225 
z
" transform="scale(0.015625)"/>
       <path id="Menlo-Regular-61" d="M 2194 1759 
L 2003 1759 
Q 1500 1759 1245 1582 
Q 991 1406 991 1056 
Q 991 741 1181 566 
Q 1372 391 1709 391 
Q 2184 391 2456 720 
Q 2728 1050 2731 1631 
L 2731 1759 
L 2194 1759 
z
M 3309 1997 
L 3309 0 
L 2731 0 
L 2731 519 
Q 2547 206 2267 57 
Q 1988 -91 1588 -91 
Q 1053 -91 734 211 
Q 416 513 416 1019 
Q 416 1603 808 1906 
Q 1200 2209 1959 2209 
L 2731 2209 
L 2731 2300 
Q 2728 2719 2518 2908 
Q 2309 3097 1850 3097 
Q 1556 3097 1256 3012 
Q 956 2928 672 2766 
L 672 3341 
Q 991 3463 1283 3523 
Q 1575 3584 1850 3584 
Q 2284 3584 2592 3456 
Q 2900 3328 3091 3072 
Q 3209 2916 3259 2686 
Q 3309 2456 3309 1997 
z
" transform="scale(0.015625)"/>
       <path id="Menlo-Regular-74" d="M 1919 4494 
L 1919 3500 
L 3225 3500 
L 3225 3053 
L 1919 3053 
L 1919 1153 
Q 1919 766 2066 612 
Q 2213 459 2578 459 
L 3225 459 
L 3225 0 
L 2522 0 
Q 1875 0 1609 259 
Q 1344 519 1344 1153 
L 1344 3053 
L 409 3053 
L 409 3500 
L 1344 3500 
L 1344 4494 
L 1919 4494 
z
" transform="scale(0.015625)"/>
       <path id="Menlo-Regular-65" d="M 3500 2038 
L 3500 1756 
L 1009 1756 
L 1009 1738 
Q 984 1022 1282 709 
Q 1581 397 2125 397 
Q 2400 397 2700 484 
Q 3000 572 3341 750 
L 3341 178 
Q 3013 44 2708 -23 
Q 2403 -91 2119 -91 
Q 1303 -91 843 398 
Q 384 888 384 1747 
Q 384 2584 834 3084 
Q 1284 3584 2034 3584 
Q 2703 3584 3089 3131 
Q 3475 2678 3500 2038 
z
M 2925 2206 
Q 2888 2569 2661 2833 
Q 2434 3097 2009 3097 
Q 1594 3097 1325 2822 
Q 1056 2547 1031 2203 
L 2925 2206 
z
" transform="scale(0.015625)"/>
       <path id="Menlo-Regular-28" d="M 2672 5169 
Q 2256 4456 2051 3748 
Q 1847 3041 1847 2322 
Q 1847 1606 2051 897 
Q 2256 188 2672 -531 
L 2172 -531 
Q 1700 213 1469 917 
Q 1238 1622 1238 2322 
Q 1238 3019 1469 3725 
Q 1700 4431 2172 5169 
L 2672 5169 
z
" transform="scale(0.015625)"/>
       <path id="Menlo-Regular-48" d="M 428 4666 
L 1063 4666 
L 1063 2878 
L 2791 2878 
L 2791 4666 
L 3425 4666 
L 3425 0 
L 2791 0 
L 2791 2347 
L 1063 2347 
L 1063 0 
L 428 0 
L 428 4666 
z
" transform="scale(0.015625)"/>
       <path id="Menlo-Regular-7a" d="M 709 3506 
L 3250 3506 
L 3250 2981 
L 1241 469 
L 3250 469 
L 3250 0 
L 634 0 
L 634 531 
L 2644 3047 
L 709 3047 
L 709 3506 
z
" transform="scale(0.015625)"/>
       <path id="Menlo-Regular-29" d="M 1088 5169 
L 1588 5169 
Q 2059 4431 2290 3725 
Q 2522 3019 2522 2322 
Q 2522 1619 2290 912 
Q 2059 206 1588 -531 
L 1088 -531 
Q 1503 194 1708 903 
Q 1913 1613 1913 2322 
Q 1913 3034 1708 3743 
Q 1503 4453 1088 5169 
z
" transform="scale(0.015625)"/>
      </defs>
      <use xlink:href="#Menlo-Regular-45"/>
      <use xlink:href="#Menlo-Regular-20" transform="translate(60.205078 0)"/>
      <use xlink:href="#Menlo-Regular-66" transform="translate(120.410156 0)"/>
      <use xlink:href="#Menlo-Regular-69" transform="translate(180.615234 0)"/>
      <use xlink:href="#Menlo-Regular-72" transform="translate(240.820312 0)"/>
      <use xlink:href="#Menlo-Regular-69" transform="translate(301.025391 0)"/>
      <use xlink:href="#Menlo-Regular-6e" transform="translate(361.230469 0)"/>
      <use xlink:href="#Menlo-Regular-67" transform="translate(421.435547 0)"/>
      <use xlink:href="#Menlo-Regular-20" transform="translate(481.640625 0)"/>
      <use xlink:href="#Menlo-Regular-72" transform="translate(541.845703 0)"/>
      <use xlink:href="#Menlo-Regular-61" transform="translate(602.050781 0)"/>
      <use xlink:href="#Menlo-Regular-74" transform="translate(662.255859 0)"/>
      <use xlink:href="#Menlo-Regular-65" transform="translate(722.460938 0)"/>
      <use xlink:href="#Menlo-Regular-20" transform="translate(782.666016 0)"/>
      <use xlink:href="#Menlo-Regular-28" transform="translate(842.871094 0)"/>
      <use xlink:href="#Menlo-Regular-48" transform="translate(903.076172 0)"/>
      <use xlink:href="#Menlo-Regular-7a" transform="translate(963.28125 0)"/>
      <use xlink:href="#Menlo-Regular-29" transform="translate(1023.486328 0)"/>
     </g>
    </g>
   </g>
   <g id="matplotlib.axis_2">
    <g id="ytick_1">
     <g id="line2d_10">
      <defs>
       <path id="m654dd7b6ca" d="M 0 0 
L 3 0 
" style="stroke: #1a1a1a; stroke-width: 0.8"/>
      </defs>
      <g>
       <use xlink:href="#m654dd7b6ca" x="31.202656" y="189.187537" style="fill: #1a1a1a; stroke: #1a1a1a; stroke-width: 0.8"/>
      </g>
     </g>
     <g id="text_11">
      <!-- 0.0 -->
      <g style="fill: #1a1a1a" transform="translate(15.06 191.856834) scale(0.07 -0.07)">
       <defs>
        <path id="Menlo-Regular-2e" d="M 1216 1263 
L 2316 1263 
L 2316 0 
L 1216 0 
L 1216 1263 
z
" transform="scale(0.015625)"/>
       </defs>
       <use xlink:href="#Menlo-Regular-30"/>
       <use xlink:href="#Menlo-Regular-2e" transform="translate(60.205078 0)"/>
       <use xlink:href="#Menlo-Regular-30" transform="translate(120.410156 0)"/>
      </g>
     </g>
    </g>
    <g id="ytick_2">
     <g id="line2d_11">
      <g>
       <use xlink:href="#m654dd7b6ca" x="31.202656" y="152.459889" style="fill: #1a1a1a; stroke: #1a1a1a; stroke-width: 0.8"/>
      </g>
     </g>
     <g id="text_12">
      <!-- 0.2 -->
      <g style="fill: #1a1a1a" transform="translate(15.06 155.129186) scale(0.07 -0.07)">
       <use xlink:href="#Menlo-Regular-30"/>
       <use xlink:href="#Menlo-Regular-2e" transform="translate(60.205078 0)"/>
       <use xlink:href="#Menlo-Regular-32" transform="translate(120.410156 0)"/>
      </g>
     </g>
    </g>
    <g id="ytick_3">
     <g id="line2d_12">
      <g>
       <use xlink:href="#m654dd7b6ca" x="31.202656" y="115.732241" style="fill: #1a1a1a; stroke: #1a1a1a; stroke-width: 0.8"/>
      </g>
     </g>
     <g id="text_13">
      <!-- 0.4 -->
      <g style="fill: #1a1a1a" transform="translate(15.06 118.401538) scale(0.07 -0.07)">
       <use xlink:href="#Menlo-Regular-30"/>
       <use xlink:href="#Menlo-Regular-2e" transform="translate(60.205078 0)"/>
       <use xlink:href="#Menlo-Regular-34" transform="translate(120.410156 0)"/>
      </g>
     </g>
    </g>
    <g id="ytick_4">
     <g id="line2d_13">
      <g>
       <use xlink:href="#m654dd7b6ca" x="31.202656" y="79.004593" style="fill: #1a1a1a; stroke: #1a1a1a; stroke-width: 0.8"/>
      </g>
     </g>
     <g id="text_14">
      <!-- 0.6 -->
      <g style="fill: #1a1a1a" transform="translate(15.06 81.67389) scale(0.07 -0.07)">
       <use xlink:href="#Menlo-Regular-30"/>
       <use xlink:href="#Menlo-Regular-2e" transform="translate(60.205078 0)"/>
       <use xlink:href="#Menlo-Regular-36" transform="translate(120.410156 0)"/>
      </g>
     </g>
    </g>
    <g id="ytick_5">
     <g id="line2d_14">
      <g>
       <use xlink:href="#m654dd7b6ca" x="31.202656" y="42.276945" style="fill: #1a1a1a; stroke: #1a1a1a; stroke-width: 0.8"/>
      </g>
     </g>
     <g id="text_15">
      <!-- 0.8 -->
      <g style="fill: #1a1a1a" transform="translate(15.06 44.946242) scale(0.07 -0.07)">
       <use xlink:href="#Menlo-Regular-30"/>
       <use xlink:href="#Menlo-Regular-2e" transform="translate(60.205078 0)"/>
       <use xlink:href="#Menlo-Regular-38" transform="translate(120.410156 0)"/>
      </g>
     </g>
    </g>
    <g id="ytick_6">
     <g id="line2d_15">
      <g>
       <use xlink:href="#m654dd7b6ca" x="31.202656" y="5.549297" style="fill: #1a1a1a; stroke: #1a1a1a; stroke-width: 0.8"/>
      </g>
     </g>
     <g id="text_16">
      <!-- 1.0 -->
      <g style="fill: #1a1a1a" transform="translate(15.06 8.218594) scale(0.07 -0.07)">
       <use xlink:href="#Menlo-Regular-31"/>
       <use xlink:href="#Menlo-Regular-2e" transform="translate(60.205078 0)"/>
       <use xlink:href="#Menlo-Regular-30" transform="translate(120.410156 0)"/>
      </g>
     </g>
    </g>
    <g id="text_17">
     <!-- pingness  (lobe–trough contrast) -->
     <g style="fill: #1a1a1a" transform="translate(9.34125 174.428417) rotate(-90) scale(0.08 -0.08)">
      <defs>
       <path id="Menlo-Regular-70" d="M 1172 441 
L 1172 -1331 
L 594 -1331 
L 594 3500 
L 1172 3500 
L 1172 3053 
Q 1316 3313 1555 3448 
Q 1794 3584 2106 3584 
Q 2741 3584 3102 3093 
Q 3463 2603 3463 1734 
Q 3463 881 3100 395 
Q 2738 -91 2106 -91 
Q 1788 -91 1548 45 
Q 1309 181 1172 441 
z
M 2859 1747 
Q 2859 2416 2648 2756 
Q 2438 3097 2022 3097 
Q 1603 3097 1387 2755 
Q 1172 2413 1172 1747 
Q 1172 1084 1387 740 
Q 1603 397 2022 397 
Q 2438 397 2648 737 
Q 2859 1078 2859 1747 
z
" transform="scale(0.015625)"/>
       <path id="Menlo-Regular-73" d="M 3041 3378 
L 3041 2816 
Q 2794 2959 2544 3031 
Q 2294 3103 2034 3103 
Q 1644 3103 1451 2976 
Q 1259 2850 1259 2591 
Q 1259 2356 1403 2240 
Q 1547 2125 2119 2016 
L 2350 1972 
Q 2778 1891 2998 1647 
Q 3219 1403 3219 1013 
Q 3219 494 2850 201 
Q 2481 -91 1825 -91 
Q 1566 -91 1281 -36 
Q 997 19 666 128 
L 666 722 
Q 988 556 1281 473 
Q 1575 391 1838 391 
Q 2219 391 2428 545 
Q 2638 700 2638 978 
Q 2638 1378 1872 1531 
L 1847 1538 
L 1631 1581 
Q 1134 1678 906 1908 
Q 678 2138 678 2534 
Q 678 3038 1018 3311 
Q 1359 3584 1991 3584 
Q 2272 3584 2531 3532 
Q 2791 3481 3041 3378 
z
" transform="scale(0.015625)"/>
       <path id="Menlo-Regular-6c" d="M 2247 1266 
Q 2247 878 2389 681 
Q 2531 484 2809 484 
L 3481 484 
L 3481 0 
L 2753 0 
Q 2238 0 1955 329 
Q 1672 659 1672 1266 
L 1672 4431 
L 750 4431 
L 750 4881 
L 2247 4881 
L 2247 1266 
z
" transform="scale(0.015625)"/>
       <path id="Menlo-Regular-6f" d="M 1925 3097 
Q 1488 3097 1263 2756 
Q 1038 2416 1038 1747 
Q 1038 1081 1263 739 
Q 1488 397 1925 397 
Q 2366 397 2591 739 
Q 2816 1081 2816 1747 
Q 2816 2416 2591 2756 
Q 2366 3097 1925 3097 
z
M 1925 3584 
Q 2653 3584 3039 3112 
Q 3425 2641 3425 1747 
Q 3425 850 3040 379 
Q 2656 -91 1925 -91 
Q 1197 -91 812 379 
Q 428 850 428 1747 
Q 428 2641 812 3112 
Q 1197 3584 1925 3584 
z
" transform="scale(0.015625)"/>
       <path id="Menlo-Regular-62" d="M 2869 1747 
Q 2869 2416 2656 2756 
Q 2444 3097 2028 3097 
Q 1609 3097 1393 2755 
Q 1178 2413 1178 1747 
Q 1178 1084 1393 740 
Q 1609 397 2028 397 
Q 2444 397 2656 737 
Q 2869 1078 2869 1747 
z
M 1178 3053 
Q 1316 3309 1558 3446 
Q 1800 3584 2119 3584 
Q 2750 3584 3112 3098 
Q 3475 2613 3475 1759 
Q 3475 894 3111 401 
Q 2747 -91 2113 -91 
Q 1800 -91 1561 45 
Q 1322 181 1178 441 
L 1178 0 
L 603 0 
L 603 4863 
L 1178 4863 
L 1178 3053 
z
" transform="scale(0.015625)"/>
       <path id="Menlo-Regular-2013" d="M 0 2259 
L 3853 2259 
L 3853 1725 
L 0 1725 
L 0 2259 
z
" transform="scale(0.015625)"/>
       <path id="Menlo-Regular-75" d="M 609 1325 
L 609 3494 
L 1184 3494 
L 1184 1325 
Q 1184 853 1351 631 
Q 1519 409 1869 409 
Q 2275 409 2490 695 
Q 2706 981 2706 1516 
L 2706 3494 
L 3284 3494 
L 3284 0 
L 2706 0 
L 2706 525 
Q 2553 222 2289 65 
Q 2025 -91 1672 -91 
Q 1134 -91 871 261 
Q 609 613 609 1325 
z
" transform="scale(0.015625)"/>
       <path id="Menlo-Regular-68" d="M 3284 2169 
L 3284 0 
L 2706 0 
L 2706 2169 
Q 2706 2641 2540 2862 
Q 2375 3084 2022 3084 
Q 1619 3084 1401 2798 
Q 1184 2513 1184 1978 
L 1184 0 
L 609 0 
L 609 4863 
L 1184 4863 
L 1184 2975 
Q 1338 3275 1600 3429 
Q 1863 3584 2222 3584 
Q 2756 3584 3020 3232 
Q 3284 2881 3284 2169 
z
" transform="scale(0.015625)"/>
       <path id="Menlo-Regular-63" d="M 3316 178 
Q 3084 44 2839 -23 
Q 2594 -91 2338 -91 
Q 1525 -91 1067 396 
Q 609 884 609 1747 
Q 609 2609 1067 3096 
Q 1525 3584 2338 3584 
Q 2591 3584 2831 3518 
Q 3072 3453 3316 3316 
L 3316 2713 
Q 3088 2916 2858 3006 
Q 2628 3097 2338 3097 
Q 1797 3097 1506 2747 
Q 1216 2397 1216 1747 
Q 1216 1100 1508 748 
Q 1800 397 2338 397 
Q 2638 397 2875 489 
Q 3113 581 3316 775 
L 3316 178 
z
" transform="scale(0.015625)"/>
      </defs>
      <use xlink:href="#Menlo-Regular-70"/>
      <use xlink:href="#Menlo-Regular-69" transform="translate(60.205078 0)"/>
      <use xlink:href="#Menlo-Regular-6e" transform="translate(120.410156 0)"/>
      <use xlink:href="#Menlo-Regular-67" transform="translate(180.615234 0)"/>
      <use xlink:href="#Menlo-Regular-6e" transform="translate(240.820312 0)"/>
      <use xlink:href="#Menlo-Regular-65" transform="translate(301.025391 0)"/>
      <use xlink:href="#Menlo-Regular-73" transform="translate(361.230469 0)"/>
      <use xlink:href="#Menlo-Regular-73" transform="translate(421.435547 0)"/>
      <use xlink:href="#Menlo-Regular-20" transform="translate(481.640625 0)"/>
      <use xlink:href="#Menlo-Regular-20" transform="translate(541.845703 0)"/>
      <use xlink:href="#Menlo-Regular-28" transform="translate(602.050781 0)"/>
      <use xlink:href="#Menlo-Regular-6c" transform="translate(662.255859 0)"/>
      <use xlink:href="#Menlo-Regular-6f" transform="translate(722.460938 0)"/>
      <use xlink:href="#Menlo-Regular-62" transform="translate(782.666016 0)"/>
      <use xlink:href="#Menlo-Regular-65" transform="translate(842.871094 0)"/>
      <use xlink:href="#Menlo-Regular-2013" transform="translate(903.076172 0)"/>
      <use xlink:href="#Menlo-Regular-74" transform="translate(963.28125 0)"/>
      <use xlink:href="#Menlo-Regular-72" transform="translate(1023.486328 0)"/>
      <use xlink:href="#Menlo-Regular-6f" transform="translate(1083.691406 0)"/>
      <use xlink:href="#Menlo-Regular-75" transform="translate(1143.896484 0)"/>
      <use xlink:href="#Menlo-Regular-67" transform="translate(1204.101562 0)"/>
      <use xlink:href="#Menlo-Regular-68" transform="translate(1264.306641 0)"/>
      <use xlink:href="#Menlo-Regular-20" transform="translate(1324.511719 0)"/>
      <use xlink:href="#Menlo-Regular-63" transform="translate(1384.716797 0)"/>
      <use xlink:href="#Menlo-Regular-6f" transform="translate(1444.921875 0)"/>
      <use xlink:href="#Menlo-Regular-6e" transform="translate(1505.126953 0)"/>
      <use xlink:href="#Menlo-Regular-74" transform="translate(1565.332031 0)"/>
      <use xlink:href="#Menlo-Regular-72" transform="translate(1625.537109 0)"/>
      <use xlink:href="#Menlo-Regular-61" transform="translate(1685.742188 0)"/>
      <use xlink:href="#Menlo-Regular-73" transform="translate(1745.947266 0)"/>
      <use xlink:href="#Menlo-Regular-74" transform="translate(1806.152344 0)"/>
      <use xlink:href="#Menlo-Regular-29" transform="translate(1866.357422 0)"/>
     </g>
    </g>
   </g>
   <g id="patch_3">
    <path d="M 31.202656 189.187537 
L 31.202656 5.549297 
" style="fill: none; stroke: #1a1a1a; stroke-width: 0.8; stroke-linejoin: miter; stroke-linecap: square"/>
   </g>
   <g id="patch_4">
    <path d="M 31.202656 189.187537 
L 399.780156 189.187537 
" style="fill: none; stroke: #1a1a1a; stroke-width: 0.8; stroke-linejoin: miter; stroke-linecap: square"/>
   </g>
   <g id="text_18">
    <!-- PING basin -->
    <g style="fill: #666666" transform="translate(38.574206 17.159694) scale(0.08 -0.08)">
     <defs>
      <path id="Menlo-Regular-50" d="M 1247 4147 
L 1247 2394 
L 1978 2394 
Q 2416 2394 2661 2625 
Q 2906 2856 2906 3272 
Q 2906 3688 2662 3917 
Q 2419 4147 1978 4147 
L 1247 4147 
z
M 616 4666 
L 1978 4666 
Q 2759 4666 3162 4311 
Q 3566 3956 3566 3272 
Q 3566 2581 3164 2228 
Q 2763 1875 1978 1875 
L 1247 1875 
L 1247 0 
L 616 0 
L 616 4666 
z
" transform="scale(0.015625)"/>
      <path id="Menlo-Regular-49" d="M 628 4666 
L 3219 4666 
L 3219 4134 
L 2241 4134 
L 2241 531 
L 3219 531 
L 3219 0 
L 628 0 
L 628 531 
L 1606 531 
L 1606 4134 
L 628 4134 
L 628 4666 
z
" transform="scale(0.015625)"/>
      <path id="Menlo-Regular-4e" d="M 59 4650 
L 922 4650 
L 2747 822 
L 2747 4650 
L 3419 4650 
L 3419 0 
L 2556 0 
L 731 3828 
L 731 0 
L 59 0 
L 59 4650 
z
" transform="scale(0.015625)"/>
      <path id="Menlo-Regular-47" d="M 3450 384 
Q 3197 150 2880 29 
Q 2563 -91 2194 -91 
Q 1306 -91 812 545 
Q 319 1181 319 2328 
Q 319 3472 819 4111 
Q 1319 4750 2209 4750 
Q 2503 4750 2772 4667 
Q 3041 4584 3291 4416 
L 3291 3769 
Q 3038 4009 2772 4123 
Q 2506 4238 2209 4238 
Q 1594 4238 1286 3761 
Q 978 3284 978 2328 
Q 978 1356 1276 889 
Q 1575 422 2194 422 
Q 2403 422 2561 470 
Q 2719 519 2847 622 
L 2847 1875 
L 2169 1875 
L 2169 2394 
L 3450 2394 
L 3450 384 
z
" transform="scale(0.015625)"/>
     </defs>
     <use xlink:href="#Menlo-Regular-50"/>
     <use xlink:href="#Menlo-Regular-49" transform="translate(60.205078 0)"/>
     <use xlink:href="#Menlo-Regular-4e" transform="translate(120.410156 0)"/>
     <use xlink:href="#Menlo-Regular-47" transform="translate(180.615234 0)"/>
     <use xlink:href="#Menlo-Regular-20" transform="translate(240.820312 0)"/>
     <use xlink:href="#Menlo-Regular-62" transform="translate(301.025391 0)"/>
     <use xlink:href="#Menlo-Regular-61" transform="translate(361.230469 0)"/>
     <use xlink:href="#Menlo-Regular-73" transform="translate(421.435547 0)"/>
     <use xlink:href="#Menlo-Regular-69" transform="translate(481.640625 0)"/>
     <use xlink:href="#Menlo-Regular-6e" transform="translate(541.845703 0)"/>
    </g>
    <!-- (loop active) -->
    <g style="fill: #666666" transform="translate(38.574206 26.576944) scale(0.08 -0.08)">
     <defs>
      <path id="Menlo-Regular-76" d="M 313 3500 
L 909 3500 
L 1925 563 
L 2944 3500 
L 3541 3500 
L 2297 0 
L 1556 0 
L 313 3500 
z
" transform="scale(0.015625)"/>
     </defs>
     <use xlink:href="#Menlo-Regular-28"/>
     <use xlink:href="#Menlo-Regular-6c" transform="translate(60.205078 0)"/>
     <use xlink:href="#Menlo-Regular-6f" transform="translate(120.410156 0)"/>
     <use xlink:href="#Menlo-Regular-6f" transform="translate(180.615234 0)"/>
     <use xlink:href="#Menlo-Regular-70" transform="translate(240.820312 0)"/>
     <use xlink:href="#Menlo-Regular-20" transform="translate(301.025391 0)"/>
     <use xlink:href="#Menlo-Regular-61" transform="translate(361.230469 0)"/>
     <use xlink:href="#Menlo-Regular-63" transform="translate(421.435547 0)"/>
     <use xlink:href="#Menlo-Regular-74" transform="translate(481.640625 0)"/>
     <use xlink:href="#Menlo-Regular-69" transform="translate(541.845703 0)"/>
     <use xlink:href="#Menlo-Regular-76" transform="translate(602.050781 0)"/>
     <use xlink:href="#Menlo-Regular-65" transform="translate(662.255859 0)"/>
     <use xlink:href="#Menlo-Regular-29" transform="translate(722.460938 0)"/>
    </g>
   </g>
   <g id="text_19">
    <!-- COBA basin -->
    <g style="fill: #c8102e" transform="translate(344.246106 170.761007) scale(0.08 -0.08)">
     <defs>
      <path id="Menlo-Regular-43" d="M 3353 166 
Q 3113 38 2859 -26 
Q 2606 -91 2322 -91 
Q 1425 -91 929 543 
Q 434 1178 434 2328 
Q 434 3472 932 4111 
Q 1431 4750 2322 4750 
Q 2606 4750 2859 4686 
Q 3113 4622 3353 4494 
L 3353 3847 
Q 3122 4038 2856 4138 
Q 2591 4238 2322 4238 
Q 1706 4238 1400 3763 
Q 1094 3288 1094 2328 
Q 1094 1372 1400 897 
Q 1706 422 2322 422 
Q 2597 422 2861 522 
Q 3125 622 3353 813 
L 3353 166 
z
" transform="scale(0.015625)"/>
      <path id="Menlo-Regular-4f" d="M 2828 2328 
Q 2828 3356 2617 3797 
Q 2406 4238 1925 4238 
Q 1447 4238 1236 3797 
Q 1025 3356 1025 2328 
Q 1025 1303 1236 862 
Q 1447 422 1925 422 
Q 2406 422 2617 861 
Q 2828 1300 2828 2328 
z
M 3488 2328 
Q 3488 1109 3102 509 
Q 2716 -91 1925 -91 
Q 1134 -91 750 506 
Q 366 1103 366 2328 
Q 366 3550 752 4150 
Q 1138 4750 1925 4750 
Q 2716 4750 3102 4150 
Q 3488 3550 3488 2328 
z
" transform="scale(0.015625)"/>
      <path id="Menlo-Regular-42" d="M 1153 2353 
L 1153 519 
L 1900 519 
Q 2450 519 2684 711 
Q 2919 903 2919 1344 
Q 2919 1925 2672 2139 
Q 2425 2353 1900 2353 
L 1153 2353 
z
M 1153 4147 
L 1153 2866 
L 1888 2866 
Q 2344 2866 2548 3041 
Q 2753 3216 2753 3481 
Q 2753 3834 2551 3990 
Q 2350 4147 1888 4147 
L 1153 4147 
z
M 519 4666 
L 1900 4666 
Q 2616 4666 3003 4356 
Q 3391 4047 3391 3481 
Q 3391 3178 3186 2931 
Q 2981 2684 2572 2622 
Q 3031 2553 3292 2229 
Q 3553 1906 3553 1281 
Q 3553 647 3137 323 
Q 2722 0 1900 0 
L 519 0 
L 519 4666 
z
" transform="scale(0.015625)"/>
      <path id="Menlo-Regular-41" d="M 1925 4109 
L 1259 1722 
L 2591 1722 
L 1925 4109 
z
M 1544 4666 
L 2309 4666 
L 3738 0 
L 3084 0 
L 2741 1216 
L 1106 1216 
L 769 0 
L 116 0 
L 1544 4666 
z
" transform="scale(0.015625)"/>
     </defs>
     <use xlink:href="#Menlo-Regular-43"/>
     <use xlink:href="#Menlo-Regular-4f" transform="translate(60.205078 0)"/>
     <use xlink:href="#Menlo-Regular-42" transform="translate(120.410156 0)"/>
     <use xlink:href="#Menlo-Regular-41" transform="translate(180.615234 0)"/>
     <use xlink:href="#Menlo-Regular-20" transform="translate(240.820312 0)"/>
     <use xlink:href="#Menlo-Regular-62" transform="translate(301.025391 0)"/>
     <use xlink:href="#Menlo-Regular-61" transform="translate(361.230469 0)"/>
     <use xlink:href="#Menlo-Regular-73" transform="translate(421.435547 0)"/>
     <use xlink:href="#Menlo-Regular-69" transform="translate(481.640625 0)"/>
     <use xlink:href="#Menlo-Regular-6e" transform="translate(541.845703 0)"/>
    </g>
    <!-- (loop pruned) -->
    <g style="fill: #c8102e" transform="translate(329.797356 180.178257) scale(0.08 -0.08)">
     <defs>
      <path id="Menlo-Regular-64" d="M 2681 3053 
L 2681 4863 
L 3256 4863 
L 3256 0 
L 2681 0 
L 2681 441 
Q 2538 181 2298 45 
Q 2059 -91 1747 -91 
Q 1113 -91 748 401 
Q 384 894 384 1759 
Q 384 2613 750 3098 
Q 1116 3584 1747 3584 
Q 2063 3584 2303 3448 
Q 2544 3313 2681 3053 
z
M 991 1747 
Q 991 1078 1203 737 
Q 1416 397 1831 397 
Q 2247 397 2464 740 
Q 2681 1084 2681 1747 
Q 2681 2413 2464 2755 
Q 2247 3097 1831 3097 
Q 1416 3097 1203 2756 
Q 991 2416 991 1747 
z
" transform="scale(0.015625)"/>
     </defs>
     <use xlink:href="#Menlo-Regular-28"/>
     <use xlink:href="#Menlo-Regular-6c" transform="translate(60.205078 0)"/>
     <use xlink:href="#Menlo-Regular-6f" transform="translate(120.410156 0)"/>
     <use xlink:href="#Menlo-Regular-6f" transform="translate(180.615234 0)"/>
     <use xlink:href="#Menlo-Regular-70" transform="translate(240.820312 0)"/>
     <use xlink:href="#Menlo-Regular-20" transform="translate(301.025391 0)"/>
     <use xlink:href="#Menlo-Regular-70" transform="translate(361.230469 0)"/>
     <use xlink:href="#Menlo-Regular-72" transform="translate(421.435547 0)"/>
     <use xlink:href="#Menlo-Regular-75" transform="translate(481.640625 0)"/>
     <use xlink:href="#Menlo-Regular-6e" transform="translate(541.845703 0)"/>
     <use xlink:href="#Menlo-Regular-65" transform="translate(602.050781 0)"/>
     <use xlink:href="#Menlo-Regular-64" transform="translate(662.255859 0)"/>
     <use xlink:href="#Menlo-Regular-29" transform="translate(722.460938 0)"/>
    </g>
   </g>
   <g id="text_20">
    <!-- ○ epoch 0   ● final epoch -->
    <g style="fill: #6a6a6a" transform="translate(301.950078 223.526921) scale(0.065 -0.065)">
     <defs>
      <path id="Menlo-Regular-25cb" d="M 1163 2981 
Q 400 2544 400 1662 
Q 400 781 1163 344 
Q 1544 122 1925 122 
Q 2306 122 2688 344 
Q 3453 784 3453 1662 
Q 3453 2541 2688 2981 
Q 2306 3203 1925 3203 
Q 1544 3203 1163 2981 
z
M 972 13 
Q 19 563 19 1663 
Q 19 2763 972 3313 
Q 1447 3588 1925 3588 
Q 2400 3588 2878 3313 
Q 3834 2763 3834 1663 
Q 3834 563 2878 13 
Q 2400 -263 1925 -263 
Q 1447 -263 972 13 
z
" transform="scale(0.015625)"/>
      <path id="Menlo-Regular-25cf" d="M 972 13 
Q 19 563 19 1663 
Q 19 2763 972 3313 
Q 1447 3588 1925 3588 
Q 2400 3588 2878 3313 
Q 3834 2763 3834 1663 
Q 3834 563 2878 13 
Q 2400 -263 1925 -263 
Q 1447 -263 972 13 
z
" transform="scale(0.015625)"/>
     </defs>
     <use xlink:href="#Menlo-Regular-25cb"/>
     <use xlink:href="#Menlo-Regular-20" transform="translate(60.205078 0)"/>
     <use xlink:href="#Menlo-Regular-65" transform="translate(120.410156 0)"/>
     <use xlink:href="#Menlo-Regular-70" transform="translate(180.615234 0)"/>
     <use xlink:href="#Menlo-Regular-6f" transform="translate(240.820312 0)"/>
     <use xlink:href="#Menlo-Regular-63" transform="translate(301.025391 0)"/>
     <use xlink:href="#Menlo-Regular-68" transform="translate(361.230469 0)"/>
     <use xlink:href="#Menlo-Regular-20" transform="translate(421.435547 0)"/>
     <use xlink:href="#Menlo-Regular-30" transform="translate(481.640625 0)"/>
     <use xlink:href="#Menlo-Regular-20" transform="translate(541.845703 0)"/>
     <use xlink:href="#Menlo-Regular-20" transform="translate(602.050781 0)"/>
     <use xlink:href="#Menlo-Regular-20" transform="translate(662.255859 0)"/>
     <use xlink:href="#Menlo-Regular-25cf" transform="translate(722.460938 0)"/>
     <use xlink:href="#Menlo-Regular-20" transform="translate(782.666016 0)"/>
     <use xlink:href="#Menlo-Regular-66" transform="translate(842.871094 0)"/>
     <use xlink:href="#Menlo-Regular-69" transform="translate(903.076172 0)"/>
     <use xlink:href="#Menlo-Regular-6e" transform="translate(963.28125 0)"/>
     <use xlink:href="#Menlo-Regular-61" transform="translate(1023.486328 0)"/>
     <use xlink:href="#Menlo-Regular-6c" transform="translate(1083.691406 0)"/>
     <use xlink:href="#Menlo-Regular-20" transform="translate(1143.896484 0)"/>
     <use xlink:href="#Menlo-Regular-65" transform="translate(1204.101562 0)"/>
     <use xlink:href="#Menlo-Regular-70" transform="translate(1264.306641 0)"/>
     <use xlink:href="#Menlo-Regular-6f" transform="translate(1324.511719 0)"/>
     <use xlink:href="#Menlo-Regular-63" transform="translate(1384.716797 0)"/>
     <use xlink:href="#Menlo-Regular-68" transform="translate(1444.921875 0)"/>
    </g>
   </g>
   <g id="LineCollection_1">
    <path d="M 135.744279 172.694031 
L 144.286779 167.649714 
" clip-path="url(#pd1ade5c259)" style="fill: none; stroke: #1a1a1a; stroke-opacity: 0.22; stroke-width: 1.6"/>
    <path d="M 144.286779 167.649714 
L 153.762028 166.616896 
" clip-path="url(#pd1ade5c259)" style="fill: none; stroke: #1a1a1a; stroke-opacity: 0.23625; stroke-width: 1.6"/>
    <path d="M 153.762028 166.616896 
L 146.903387 162.02932 
" clip-path="url(#pd1ade5c259)" style="fill: none; stroke: #1a1a1a; stroke-opacity: 0.2525; stroke-width: 1.6"/>
    <path d="M 146.903387 162.02932 
L 158.102985 165.178103 
" clip-path="url(#pd1ade5c259)" style="fill: none; stroke: #1a1a1a; stroke-opacity: 0.26875; stroke-width: 1.6"/>
    <path d="M 158.102985 165.178103 
L 160.37755 162.883191 
" clip-path="url(#pd1ade5c259)" style="fill: none; stroke: #1a1a1a; stroke-opacity: 0.285; stroke-width: 1.6"/>
    <path d="M 160.37755 162.883191 
L 154.56749 162.001089 
" clip-path="url(#pd1ade5c259)" style="fill: none; stroke: #1a1a1a; stroke-opacity: 0.30125; stroke-width: 1.6"/>
    <path d="M 154.56749 162.001089 
L 157.034507 161.534437 
" clip-path="url(#pd1ade5c259)" style="fill: none; stroke: #1a1a1a; stroke-opacity: 0.3175; stroke-width: 1.6"/>
    <path d="M 157.034507 161.534437 
L 146.194844 159.784025 
" clip-path="url(#pd1ade5c259)" style="fill: none; stroke: #1a1a1a; stroke-opacity: 0.33375; stroke-width: 1.6"/>
    <path d="M 146.194844 159.784025 
L 153.476438 160.679982 
" clip-path="url(#pd1ade5c259)" style="fill: none; stroke: #1a1a1a; stroke-opacity: 0.35; stroke-width: 1.6"/>
    <path d="M 153.476438 160.679982 
L 161.341369 160.673608 
" clip-path="url(#pd1ade5c259)" style="fill: none; stroke: #1a1a1a; stroke-opacity: 0.36625; stroke-width: 1.6"/>
    <path d="M 161.341369 160.673608 
L 161.508095 162.645868 
" clip-path="url(#pd1ade5c259)" style="fill: none; stroke: #1a1a1a; stroke-opacity: 0.3825; stroke-width: 1.6"/>
    <path d="M 161.508095 162.645868 
L 154.743873 160.328254 
" clip-path="url(#pd1ade5c259)" style="fill: none; stroke: #1a1a1a; stroke-opacity: 0.39875; stroke-width: 1.6"/>
    <path d="M 154.743873 160.328254 
L 158.121356 160.852466 
" clip-path="url(#pd1ade5c259)" style="fill: none; stroke: #1a1a1a; stroke-opacity: 0.415; stroke-width: 1.6"/>
    <path d="M 158.121356 160.852466 
L 156.186049 158.427596 
" clip-path="url(#pd1ade5c259)" style="fill: none; stroke: #1a1a1a; stroke-opacity: 0.43125; stroke-width: 1.6"/>
    <path d="M 156.186049 158.427596 
L 153.905786 159.81508 
" clip-path="url(#pd1ade5c259)" style="fill: none; stroke: #1a1a1a; stroke-opacity: 0.4475; stroke-width: 1.6"/>
    <path d="M 153.905786 159.81508 
L 145.77917 157.863085 
" clip-path="url(#pd1ade5c259)" style="fill: none; stroke: #1a1a1a; stroke-opacity: 0.46375; stroke-width: 1.6"/>
    <path d="M 145.77917 157.863085 
L 160.989519 161.117113 
" clip-path="url(#pd1ade5c259)" style="fill: none; stroke: #1a1a1a; stroke-opacity: 0.48; stroke-width: 1.6"/>
    <path d="M 160.989519 161.117113 
L 160.741087 159.457485 
" clip-path="url(#pd1ade5c259)" style="fill: none; stroke: #1a1a1a; stroke-opacity: 0.49625; stroke-width: 1.6"/>
    <path d="M 160.741087 159.457485 
L 162.081381 159.967366 
" clip-path="url(#pd1ade5c259)" style="fill: none; stroke: #1a1a1a; stroke-opacity: 0.5125; stroke-width: 1.6"/>
    <path d="M 162.081381 159.967366 
L 166.419866 164.877585 
" clip-path="url(#pd1ade5c259)" style="fill: none; stroke: #1a1a1a; stroke-opacity: 0.52875; stroke-width: 1.6"/>
    <path d="M 166.419866 164.877585 
L 160.592306 161.241084 
" clip-path="url(#pd1ade5c259)" style="fill: none; stroke: #1a1a1a; stroke-opacity: 0.545; stroke-width: 1.6"/>
    <path d="M 160.592306 161.241084 
L 159.301933 161.825885 
" clip-path="url(#pd1ade5c259)" style="fill: none; stroke: #1a1a1a; stroke-opacity: 0.56125; stroke-width: 1.6"/>
    <path d="M 159.301933 161.825885 
L 160.660307 161.357526 
" clip-path="url(#pd1ade5c259)" style="fill: none; stroke: #1a1a1a; stroke-opacity: 0.5775; stroke-width: 1.6"/>
    <path d="M 160.660307 161.357526 
L 159.834223 160.98406 
" clip-path="url(#pd1ade5c259)" style="fill: none; stroke: #1a1a1a; stroke-opacity: 0.59375; stroke-width: 1.6"/>
    <path d="M 159.834223 160.98406 
L 170.522463 164.332425 
" clip-path="url(#pd1ade5c259)" style="fill: none; stroke: #1a1a1a; stroke-opacity: 0.61; stroke-width: 1.6"/>
    <path d="M 170.522463 164.332425 
L 165.97549 163.735236 
" clip-path="url(#pd1ade5c259)" style="fill: none; stroke: #1a1a1a; stroke-opacity: 0.62625; stroke-width: 1.6"/>
    <path d="M 165.97549 163.735236 
L 175.828285 164.872595 
" clip-path="url(#pd1ade5c259)" style="fill: none; stroke: #1a1a1a; stroke-opacity: 0.6425; stroke-width: 1.6"/>
    <path d="M 175.828285 164.872595 
L 169.865051 162.937641 
" clip-path="url(#pd1ade5c259)" style="fill: none; stroke: #1a1a1a; stroke-opacity: 0.65875; stroke-width: 1.6"/>
    <path d="M 169.865051 162.937641 
L 169.767852 164.48279 
" clip-path="url(#pd1ade5c259)" style="fill: none; stroke: #1a1a1a; stroke-opacity: 0.675; stroke-width: 1.6"/>
    <path d="M 169.767852 164.48279 
L 171.088864 163.986069 
" clip-path="url(#pd1ade5c259)" style="fill: none; stroke: #1a1a1a; stroke-opacity: 0.69125; stroke-width: 1.6"/>
    <path d="M 171.088864 163.986069 
L 169.849492 164.397339 
" clip-path="url(#pd1ade5c259)" style="fill: none; stroke: #1a1a1a; stroke-opacity: 0.7075; stroke-width: 1.6"/>
    <path d="M 169.849492 164.397339 
L 164.144261 163.933036 
" clip-path="url(#pd1ade5c259)" style="fill: none; stroke: #1a1a1a; stroke-opacity: 0.72375; stroke-width: 1.6"/>
    <path d="M 164.144261 163.933036 
L 182.433666 165.698604 
" clip-path="url(#pd1ade5c259)" style="fill: none; stroke: #1a1a1a; stroke-opacity: 0.74; stroke-width: 1.6"/>
    <path d="M 182.433666 165.698604 
L 171.102683 164.10205 
" clip-path="url(#pd1ade5c259)" style="fill: none; stroke: #1a1a1a; stroke-opacity: 0.75625; stroke-width: 1.6"/>
    <path d="M 171.102683 164.10205 
L 176.624191 165.106606 
" clip-path="url(#pd1ade5c259)" style="fill: none; stroke: #1a1a1a; stroke-opacity: 0.7725; stroke-width: 1.6"/>
    <path d="M 176.624191 165.106606 
L 176.914413 162.776382 
" clip-path="url(#pd1ade5c259)" style="fill: none; stroke: #1a1a1a; stroke-opacity: 0.78875; stroke-width: 1.6"/>
    <path d="M 176.914413 162.776382 
L 191.429822 166.991443 
" clip-path="url(#pd1ade5c259)" style="fill: none; stroke: #1a1a1a; stroke-opacity: 0.805; stroke-width: 1.6"/>
    <path d="M 191.429822 166.991443 
L 190.147078 166.443942 
" clip-path="url(#pd1ade5c259)" style="fill: none; stroke: #1a1a1a; stroke-opacity: 0.82125; stroke-width: 1.6"/>
    <path d="M 190.147078 166.443942 
L 178.976673 166.141114 
" clip-path="url(#pd1ade5c259)" style="fill: none; stroke: #1a1a1a; stroke-opacity: 0.8375; stroke-width: 1.6"/>
    <path d="M 178.976673 166.141114 
L 186.547519 164.972184 
" clip-path="url(#pd1ade5c259)" style="fill: none; stroke: #1a1a1a; stroke-opacity: 0.85375; stroke-width: 1.6"/>
    <path d="M 186.547519 164.972184 
L 181.446322 163.701174 
" clip-path="url(#pd1ade5c259)" style="fill: none; stroke: #1a1a1a; stroke-opacity: 0.87; stroke-width: 1.6"/>
    <path d="M 181.446322 163.701174 
L 193.592593 166.499016 
" clip-path="url(#pd1ade5c259)" style="fill: none; stroke: #1a1a1a; stroke-opacity: 0.88625; stroke-width: 1.6"/>
    <path d="M 193.592593 166.499016 
L 192.216228 166.596802 
" clip-path="url(#pd1ade5c259)" style="fill: none; stroke: #1a1a1a; stroke-opacity: 0.9025; stroke-width: 1.6"/>
    <path d="M 192.216228 166.596802 
L 193.211551 166.847518 
" clip-path="url(#pd1ade5c259)" style="fill: none; stroke: #1a1a1a; stroke-opacity: 0.91875; stroke-width: 1.6"/>
    <path d="M 193.211551 166.847518 
L 184.464666 165.25744 
" clip-path="url(#pd1ade5c259)" style="fill: none; stroke: #1a1a1a; stroke-opacity: 0.935; stroke-width: 1.6"/>
    <path d="M 184.464666 165.25744 
L 178.916957 167.192597 
" clip-path="url(#pd1ade5c259)" style="fill: none; stroke: #1a1a1a; stroke-opacity: 0.95125; stroke-width: 1.6"/>
    <path d="M 178.916957 167.192597 
L 194.542469 168.841095 
" clip-path="url(#pd1ade5c259)" style="fill: none; stroke: #1a1a1a; stroke-opacity: 0.9675; stroke-width: 1.6"/>
    <path d="M 194.542469 168.841095 
L 205.474923 171.25945 
" clip-path="url(#pd1ade5c259)" style="fill: none; stroke: #1a1a1a; stroke-opacity: 0.98375; stroke-width: 1.6"/>
    <path d="M 205.474923 171.25945 
L 196.791048 165.582584 
" clip-path="url(#pd1ade5c259)" style="fill: none; stroke: #1a1a1a; stroke-width: 1.6"/>
   </g>
   <g id="LineCollection_2">
    <path d="M 163.428674 177.675906 
L 219.126734 179.348164 
" clip-path="url(#pd1ade5c259)" style="fill: none; stroke: #c8102e; stroke-opacity: 0.22; stroke-width: 1.6"/>
    <path d="M 219.126734 179.348164 
L 245.394318 179.504614 
" clip-path="url(#pd1ade5c259)" style="fill: none; stroke: #c8102e; stroke-opacity: 0.23625; stroke-width: 1.6"/>
    <path d="M 245.394318 179.504614 
L 258.907835 179.782624 
" clip-path="url(#pd1ade5c259)" style="fill: none; stroke: #c8102e; stroke-opacity: 0.2525; stroke-width: 1.6"/>
    <path d="M 258.907835 179.782624 
L 268.374244 180.100386 
" clip-path="url(#pd1ade5c259)" style="fill: none; stroke: #c8102e; stroke-opacity: 0.26875; stroke-width: 1.6"/>
    <path d="M 268.374244 180.100386 
L 274.71061 180.496248 
" clip-path="url(#pd1ade5c259)" style="fill: none; stroke: #c8102e; stroke-opacity: 0.285; stroke-width: 1.6"/>
    <path d="M 274.71061 180.496248 
L 279.714627 180.822208 
" clip-path="url(#pd1ade5c259)" style="fill: none; stroke: #c8102e; stroke-opacity: 0.30125; stroke-width: 1.6"/>
    <path d="M 279.714627 180.822208 
L 283.858384 181.106198 
" clip-path="url(#pd1ade5c259)" style="fill: none; stroke: #c8102e; stroke-opacity: 0.3175; stroke-width: 1.6"/>
    <path d="M 283.858384 181.106198 
L 286.925798 181.085054 
" clip-path="url(#pd1ade5c259)" style="fill: none; stroke: #c8102e; stroke-opacity: 0.33375; stroke-width: 1.6"/>
    <path d="M 286.925798 181.085054 
L 289.231362 181.336692 
" clip-path="url(#pd1ade5c259)" style="fill: none; stroke: #c8102e; stroke-opacity: 0.35; stroke-width: 1.6"/>
    <path d="M 289.231362 181.336692 
L 293.32738 181.417048 
" clip-path="url(#pd1ade5c259)" style="fill: none; stroke: #c8102e; stroke-opacity: 0.36625; stroke-width: 1.6"/>
    <path d="M 293.32738 181.417048 
L 295.591323 181.483715 
" clip-path="url(#pd1ade5c259)" style="fill: none; stroke: #c8102e; stroke-opacity: 0.3825; stroke-width: 1.6"/>
    <path d="M 295.591323 181.483715 
L 297.81288 181.529334 
" clip-path="url(#pd1ade5c259)" style="fill: none; stroke: #c8102e; stroke-opacity: 0.39875; stroke-width: 1.6"/>
    <path d="M 297.81288 181.529334 
L 300.405914 181.763205 
" clip-path="url(#pd1ade5c259)" style="fill: none; stroke: #c8102e; stroke-opacity: 0.415; stroke-width: 1.6"/>
    <path d="M 300.405914 181.763205 
L 301.411624 181.873573 
" clip-path="url(#pd1ade5c259)" style="fill: none; stroke: #c8102e; stroke-opacity: 0.43125; stroke-width: 1.6"/>
    <path d="M 301.411624 181.873573 
L 303.341583 181.882349 
" clip-path="url(#pd1ade5c259)" style="fill: none; stroke: #c8102e; stroke-opacity: 0.4475; stroke-width: 1.6"/>
    <path d="M 303.341583 181.882349 
L 305.665113 181.886582 
" clip-path="url(#pd1ade5c259)" style="fill: none; stroke: #c8102e; stroke-opacity: 0.46375; stroke-width: 1.6"/>
    <path d="M 305.665113 181.886582 
L 306.919104 182.011918 
" clip-path="url(#pd1ade5c259)" style="fill: none; stroke: #c8102e; stroke-opacity: 0.48; stroke-width: 1.6"/>
    <path d="M 306.919104 182.011918 
L 310.151694 181.990145 
" clip-path="url(#pd1ade5c259)" style="fill: none; stroke: #c8102e; stroke-opacity: 0.49625; stroke-width: 1.6"/>
    <path d="M 310.151694 181.990145 
L 312.057438 182.007005 
" clip-path="url(#pd1ade5c259)" style="fill: none; stroke: #c8102e; stroke-opacity: 0.5125; stroke-width: 1.6"/>
    <path d="M 312.057438 182.007005 
L 314.414333 182.096468 
" clip-path="url(#pd1ade5c259)" style="fill: none; stroke: #c8102e; stroke-opacity: 0.52875; stroke-width: 1.6"/>
    <path d="M 314.414333 182.096468 
L 315.778082 182.13103 
" clip-path="url(#pd1ade5c259)" style="fill: none; stroke: #c8102e; stroke-opacity: 0.545; stroke-width: 1.6"/>
    <path d="M 315.778082 182.13103 
L 317.504576 182.221413 
" clip-path="url(#pd1ade5c259)" style="fill: none; stroke: #c8102e; stroke-opacity: 0.56125; stroke-width: 1.6"/>
    <path d="M 317.504576 182.221413 
L 319.258958 182.429613 
" clip-path="url(#pd1ade5c259)" style="fill: none; stroke: #c8102e; stroke-opacity: 0.5775; stroke-width: 1.6"/>
    <path d="M 319.258958 182.429613 
L 321.718411 182.703599 
" clip-path="url(#pd1ade5c259)" style="fill: none; stroke: #c8102e; stroke-opacity: 0.59375; stroke-width: 1.6"/>
    <path d="M 321.718411 182.703599 
L 323.801589 182.446887 
" clip-path="url(#pd1ade5c259)" style="fill: none; stroke: #c8102e; stroke-opacity: 0.61; stroke-width: 1.6"/>
    <path d="M 323.801589 182.446887 
L 325.843822 182.212608 
" clip-path="url(#pd1ade5c259)" style="fill: none; stroke: #c8102e; stroke-opacity: 0.62625; stroke-width: 1.6"/>
    <path d="M 325.843822 182.212608 
L 328.117301 182.626225 
" clip-path="url(#pd1ade5c259)" style="fill: none; stroke: #c8102e; stroke-opacity: 0.6425; stroke-width: 1.6"/>
    <path d="M 328.117301 182.626225 
L 330.320587 182.558497 
" clip-path="url(#pd1ade5c259)" style="fill: none; stroke: #c8102e; stroke-opacity: 0.65875; stroke-width: 1.6"/>
    <path d="M 330.320587 182.558497 
L 332.919555 182.815632 
" clip-path="url(#pd1ade5c259)" style="fill: none; stroke: #c8102e; stroke-opacity: 0.675; stroke-width: 1.6"/>
    <path d="M 332.919555 182.815632 
L 335.288912 182.643861 
" clip-path="url(#pd1ade5c259)" style="fill: none; stroke: #c8102e; stroke-opacity: 0.69125; stroke-width: 1.6"/>
    <path d="M 335.288912 182.643861 
L 336.556307 182.668562 
" clip-path="url(#pd1ade5c259)" style="fill: none; stroke: #c8102e; stroke-opacity: 0.7075; stroke-width: 1.6"/>
    <path d="M 336.556307 182.668562 
L 338.727979 182.562451 
" clip-path="url(#pd1ade5c259)" style="fill: none; stroke: #c8102e; stroke-opacity: 0.72375; stroke-width: 1.6"/>
    <path d="M 338.727979 182.562451 
L 340.627209 182.588806 
" clip-path="url(#pd1ade5c259)" style="fill: none; stroke: #c8102e; stroke-opacity: 0.74; stroke-width: 1.6"/>
    <path d="M 340.627209 182.588806 
L 342.004991 182.767796 
" clip-path="url(#pd1ade5c259)" style="fill: none; stroke: #c8102e; stroke-opacity: 0.75625; stroke-width: 1.6"/>
    <path d="M 342.004991 182.767796 
L 344.406338 182.777234 
" clip-path="url(#pd1ade5c259)" style="fill: none; stroke: #c8102e; stroke-opacity: 0.7725; stroke-width: 1.6"/>
    <path d="M 344.406338 182.777234 
L 346.502338 182.921975 
" clip-path="url(#pd1ade5c259)" style="fill: none; stroke: #c8102e; stroke-opacity: 0.78875; stroke-width: 1.6"/>
    <path d="M 346.502338 182.921975 
L 348.72333 182.949733 
" clip-path="url(#pd1ade5c259)" style="fill: none; stroke: #c8102e; stroke-opacity: 0.805; stroke-width: 1.6"/>
    <path d="M 348.72333 182.949733 
L 350.652434 183.069691 
" clip-path="url(#pd1ade5c259)" style="fill: none; stroke: #c8102e; stroke-opacity: 0.82125; stroke-width: 1.6"/>
    <path d="M 350.652434 183.069691 
L 353.245924 183.137693 
" clip-path="url(#pd1ade5c259)" style="fill: none; stroke: #c8102e; stroke-opacity: 0.8375; stroke-width: 1.6"/>
    <path d="M 353.245924 183.137693 
L 355.521629 183.015408 
" clip-path="url(#pd1ade5c259)" style="fill: none; stroke: #c8102e; stroke-opacity: 0.85375; stroke-width: 1.6"/>
    <path d="M 355.521629 183.015408 
L 356.875987 183.189223 
" clip-path="url(#pd1ade5c259)" style="fill: none; stroke: #c8102e; stroke-opacity: 0.87; stroke-width: 1.6"/>
    <path d="M 356.875987 183.189223 
L 358.604363 183.179316 
" clip-path="url(#pd1ade5c259)" style="fill: none; stroke: #c8102e; stroke-opacity: 0.88625; stroke-width: 1.6"/>
    <path d="M 358.604363 183.179316 
L 361.142568 183.107771 
" clip-path="url(#pd1ade5c259)" style="fill: none; stroke: #c8102e; stroke-opacity: 0.9025; stroke-width: 1.6"/>
    <path d="M 361.142568 183.107771 
L 362.813484 183.125062 
" clip-path="url(#pd1ade5c259)" style="fill: none; stroke: #c8102e; stroke-opacity: 0.91875; stroke-width: 1.6"/>
    <path d="M 362.813484 183.125062 
L 364.949735 183.135004 
" clip-path="url(#pd1ade5c259)" style="fill: none; stroke: #c8102e; stroke-opacity: 0.935; stroke-width: 1.6"/>
    <path d="M 364.949735 183.135004 
L 367.398966 183.20083 
" clip-path="url(#pd1ade5c259)" style="fill: none; stroke: #c8102e; stroke-opacity: 0.95125; stroke-width: 1.6"/>
    <path d="M 367.398966 183.20083 
L 368.978886 183.197447 
" clip-path="url(#pd1ade5c259)" style="fill: none; stroke: #c8102e; stroke-opacity: 0.9675; stroke-width: 1.6"/>
    <path d="M 368.978886 183.197447 
L 371.207548 183.369729 
" clip-path="url(#pd1ade5c259)" style="fill: none; stroke: #c8102e; stroke-opacity: 0.98375; stroke-width: 1.6"/>
    <path d="M 371.207548 183.369729 
L 372.478119 183.319335 
" clip-path="url(#pd1ade5c259)" style="fill: none; stroke: #c8102e; stroke-width: 1.6"/>
   </g>
   <g id="LineCollection_3">
    <path d="M 132.459692 174.193946 
L 179.320524 175.307933 
" clip-path="url(#pd1ade5c259)" style="fill: none; stroke: #e89400; stroke-opacity: 0.22; stroke-width: 1.6"/>
    <path d="M 179.320524 175.307933 
L 189.704763 173.913883 
" clip-path="url(#pd1ade5c259)" style="fill: none; stroke: #e89400; stroke-opacity: 0.23625; stroke-width: 1.6"/>
    <path d="M 189.704763 173.913883 
L 206.866904 174.328554 
" clip-path="url(#pd1ade5c259)" style="fill: none; stroke: #e89400; stroke-opacity: 0.2525; stroke-width: 1.6"/>
    <path d="M 206.866904 174.328554 
L 187.048265 169.75203 
" clip-path="url(#pd1ade5c259)" style="fill: none; stroke: #e89400; stroke-opacity: 0.26875; stroke-width: 1.6"/>
    <path d="M 187.048265 169.75203 
L 205.480667 172.926009 
" clip-path="url(#pd1ade5c259)" style="fill: none; stroke: #e89400; stroke-opacity: 0.285; stroke-width: 1.6"/>
    <path d="M 205.480667 172.926009 
L 202.448925 170.391015 
" clip-path="url(#pd1ade5c259)" style="fill: none; stroke: #e89400; stroke-opacity: 0.30125; stroke-width: 1.6"/>
    <path d="M 202.448925 170.391015 
L 207.635604 171.499996 
" clip-path="url(#pd1ade5c259)" style="fill: none; stroke: #e89400; stroke-opacity: 0.3175; stroke-width: 1.6"/>
    <path d="M 207.635604 171.499996 
L 209.025673 170.582527 
" clip-path="url(#pd1ade5c259)" style="fill: none; stroke: #e89400; stroke-opacity: 0.33375; stroke-width: 1.6"/>
    <path d="M 209.025673 170.582527 
L 219.69197 172.942115 
" clip-path="url(#pd1ade5c259)" style="fill: none; stroke: #e89400; stroke-opacity: 0.35; stroke-width: 1.6"/>
    <path d="M 219.69197 172.942115 
L 218.412348 171.580543 
" clip-path="url(#pd1ade5c259)" style="fill: none; stroke: #e89400; stroke-opacity: 0.36625; stroke-width: 1.6"/>
    <path d="M 218.412348 171.580543 
L 219.648008 172.371015 
" clip-path="url(#pd1ade5c259)" style="fill: none; stroke: #e89400; stroke-opacity: 0.3825; stroke-width: 1.6"/>
    <path d="M 219.648008 172.371015 
L 209.519414 170.11848 
" clip-path="url(#pd1ade5c259)" style="fill: none; stroke: #e89400; stroke-opacity: 0.39875; stroke-width: 1.6"/>
    <path d="M 209.519414 170.11848 
L 213.715438 169.85202 
" clip-path="url(#pd1ade5c259)" style="fill: none; stroke: #e89400; stroke-opacity: 0.415; stroke-width: 1.6"/>
    <path d="M 213.715438 169.85202 
L 218.17106 170.496583 
" clip-path="url(#pd1ade5c259)" style="fill: none; stroke: #e89400; stroke-opacity: 0.43125; stroke-width: 1.6"/>
    <path d="M 218.17106 170.496583 
L 209.230708 169.188261 
" clip-path="url(#pd1ade5c259)" style="fill: none; stroke: #e89400; stroke-opacity: 0.4475; stroke-width: 1.6"/>
    <path d="M 209.230708 169.188261 
L 202.754856 167.801801 
" clip-path="url(#pd1ade5c259)" style="fill: none; stroke: #e89400; stroke-opacity: 0.46375; stroke-width: 1.6"/>
    <path d="M 202.754856 167.801801 
L 219.059543 170.488803 
" clip-path="url(#pd1ade5c259)" style="fill: none; stroke: #e89400; stroke-opacity: 0.48; stroke-width: 1.6"/>
    <path d="M 219.059543 170.488803 
L 216.521493 170.522027 
" clip-path="url(#pd1ade5c259)" style="fill: none; stroke: #e89400; stroke-opacity: 0.49625; stroke-width: 1.6"/>
    <path d="M 216.521493 170.522027 
L 218.626359 169.050705 
" clip-path="url(#pd1ade5c259)" style="fill: none; stroke: #e89400; stroke-opacity: 0.5125; stroke-width: 1.6"/>
    <path d="M 218.626359 169.050705 
L 213.53875 167.40271 
" clip-path="url(#pd1ade5c259)" style="fill: none; stroke: #e89400; stroke-opacity: 0.52875; stroke-width: 1.6"/>
    <path d="M 213.53875 167.40271 
L 219.918893 170.393335 
" clip-path="url(#pd1ade5c259)" style="fill: none; stroke: #e89400; stroke-opacity: 0.545; stroke-width: 1.6"/>
    <path d="M 219.918893 170.393335 
L 224.210886 169.38471 
" clip-path="url(#pd1ade5c259)" style="fill: none; stroke: #e89400; stroke-opacity: 0.56125; stroke-width: 1.6"/>
    <path d="M 224.210886 169.38471 
L 227.479433 170.283424 
" clip-path="url(#pd1ade5c259)" style="fill: none; stroke: #e89400; stroke-opacity: 0.5775; stroke-width: 1.6"/>
    <path d="M 227.479433 170.283424 
L 210.174565 167.947915 
" clip-path="url(#pd1ade5c259)" style="fill: none; stroke: #e89400; stroke-opacity: 0.59375; stroke-width: 1.6"/>
    <path d="M 210.174565 167.947915 
L 232.657106 171.543038 
" clip-path="url(#pd1ade5c259)" style="fill: none; stroke: #e89400; stroke-opacity: 0.61; stroke-width: 1.6"/>
    <path d="M 232.657106 171.543038 
L 229.788338 170.887731 
" clip-path="url(#pd1ade5c259)" style="fill: none; stroke: #e89400; stroke-opacity: 0.62625; stroke-width: 1.6"/>
    <path d="M 229.788338 170.887731 
L 239.621301 170.284686 
" clip-path="url(#pd1ade5c259)" style="fill: none; stroke: #e89400; stroke-opacity: 0.6425; stroke-width: 1.6"/>
    <path d="M 239.621301 170.284686 
L 244.630187 171.264942 
" clip-path="url(#pd1ade5c259)" style="fill: none; stroke: #e89400; stroke-opacity: 0.65875; stroke-width: 1.6"/>
    <path d="M 244.630187 171.264942 
L 230.11034 169.612523 
" clip-path="url(#pd1ade5c259)" style="fill: none; stroke: #e89400; stroke-opacity: 0.675; stroke-width: 1.6"/>
    <path d="M 230.11034 169.612523 
L 230.889011 169.437328 
" clip-path="url(#pd1ade5c259)" style="fill: none; stroke: #e89400; stroke-opacity: 0.69125; stroke-width: 1.6"/>
    <path d="M 230.889011 169.437328 
L 236.105143 170.387731 
" clip-path="url(#pd1ade5c259)" style="fill: none; stroke: #e89400; stroke-opacity: 0.7075; stroke-width: 1.6"/>
    <path d="M 236.105143 170.387731 
L 237.437007 170.662243 
" clip-path="url(#pd1ade5c259)" style="fill: none; stroke: #e89400; stroke-opacity: 0.72375; stroke-width: 1.6"/>
    <path d="M 237.437007 170.662243 
L 250.113452 171.446164 
" clip-path="url(#pd1ade5c259)" style="fill: none; stroke: #e89400; stroke-opacity: 0.74; stroke-width: 1.6"/>
    <path d="M 250.113452 171.446164 
L 238.389058 172.224218 
" clip-path="url(#pd1ade5c259)" style="fill: none; stroke: #e89400; stroke-opacity: 0.75625; stroke-width: 1.6"/>
    <path d="M 238.389058 172.224218 
L 256.779665 171.447962 
" clip-path="url(#pd1ade5c259)" style="fill: none; stroke: #e89400; stroke-opacity: 0.7725; stroke-width: 1.6"/>
    <path d="M 256.779665 171.447962 
L 237.535727 168.273127 
" clip-path="url(#pd1ade5c259)" style="fill: none; stroke: #e89400; stroke-opacity: 0.78875; stroke-width: 1.6"/>
    <path d="M 237.535727 168.273127 
L 254.327266 170.52313 
" clip-path="url(#pd1ade5c259)" style="fill: none; stroke: #e89400; stroke-opacity: 0.805; stroke-width: 1.6"/>
    <path d="M 254.327266 170.52313 
L 252.89237 171.955261 
" clip-path="url(#pd1ade5c259)" style="fill: none; stroke: #e89400; stroke-opacity: 0.82125; stroke-width: 1.6"/>
    <path d="M 252.89237 171.955261 
L 245.383177 170.008141 
" clip-path="url(#pd1ade5c259)" style="fill: none; stroke: #e89400; stroke-opacity: 0.8375; stroke-width: 1.6"/>
    <path d="M 245.383177 170.008141 
L 247.656445 172.532462 
" clip-path="url(#pd1ade5c259)" style="fill: none; stroke: #e89400; stroke-opacity: 0.85375; stroke-width: 1.6"/>
    <path d="M 247.656445 172.532462 
L 242.20573 170.158488 
" clip-path="url(#pd1ade5c259)" style="fill: none; stroke: #e89400; stroke-opacity: 0.87; stroke-width: 1.6"/>
    <path d="M 242.20573 170.158488 
L 256.047132 173.373886 
" clip-path="url(#pd1ade5c259)" style="fill: none; stroke: #e89400; stroke-opacity: 0.88625; stroke-width: 1.6"/>
    <path d="M 256.047132 173.373886 
L 233.63796 168.606977 
" clip-path="url(#pd1ade5c259)" style="fill: none; stroke: #e89400; stroke-opacity: 0.9025; stroke-width: 1.6"/>
    <path d="M 233.63796 168.606977 
L 264.752036 173.33573 
" clip-path="url(#pd1ade5c259)" style="fill: none; stroke: #e89400; stroke-opacity: 0.91875; stroke-width: 1.6"/>
    <path d="M 264.752036 173.33573 
L 257.020442 172.316107 
" clip-path="url(#pd1ade5c259)" style="fill: none; stroke: #e89400; stroke-opacity: 0.935; stroke-width: 1.6"/>
    <path d="M 257.020442 172.316107 
L 275.87997 172.401842 
" clip-path="url(#pd1ade5c259)" style="fill: none; stroke: #e89400; stroke-opacity: 0.95125; stroke-width: 1.6"/>
    <path d="M 275.87997 172.401842 
L 260.362113 171.880127 
" clip-path="url(#pd1ade5c259)" style="fill: none; stroke: #e89400; stroke-opacity: 0.9675; stroke-width: 1.6"/>
    <path d="M 260.362113 171.880127 
L 282.891829 172.825719 
" clip-path="url(#pd1ade5c259)" style="fill: none; stroke: #e89400; stroke-opacity: 0.98375; stroke-width: 1.6"/>
    <path d="M 282.891829 172.825719 
L 255.189988 171.019685 
" clip-path="url(#pd1ade5c259)" style="fill: none; stroke: #e89400; stroke-width: 1.6"/>
   </g>
   <g id="legend_1">
    <g id="text_21">
     <!-- condition · final acc -->
     <g transform="translate(284.232812 81.384979) scale(0.06 -0.06)">
      <defs>
       <path id="Menlo-Regular-b7" d="M 1528 2700 
L 2316 2700 
L 2316 1747 
L 1528 1747 
L 1528 2700 
z
" transform="scale(0.015625)"/>
      </defs>
      <use xlink:href="#Menlo-Regular-63"/>
      <use xlink:href="#Menlo-Regular-6f" transform="translate(60.205078 0)"/>
      <use xlink:href="#Menlo-Regular-6e" transform="translate(120.410156 0)"/>
      <use xlink:href="#Menlo-Regular-64" transform="translate(180.615234 0)"/>
      <use xlink:href="#Menlo-Regular-69" transform="translate(240.820312 0)"/>
      <use xlink:href="#Menlo-Regular-74" transform="translate(301.025391 0)"/>
      <use xlink:href="#Menlo-Regular-69" transform="translate(361.230469 0)"/>
      <use xlink:href="#Menlo-Regular-6f" transform="translate(421.435547 0)"/>
      <use xlink:href="#Menlo-Regular-6e" transform="translate(481.640625 0)"/>
      <use xlink:href="#Menlo-Regular-20" transform="translate(541.845703 0)"/>
      <use xlink:href="#Menlo-Regular-b7" transform="translate(602.050781 0)"/>
      <use xlink:href="#Menlo-Regular-20" transform="translate(662.255859 0)"/>
      <use xlink:href="#Menlo-Regular-66" transform="translate(722.460938 0)"/>
      <use xlink:href="#Menlo-Regular-69" transform="translate(782.666016 0)"/>
      <use xlink:href="#Menlo-Regular-6e" transform="translate(842.871094 0)"/>
      <use xlink:href="#Menlo-Regular-61" transform="translate(903.076172 0)"/>
      <use xlink:href="#Menlo-Regular-6c" transform="translate(963.28125 0)"/>
      <use xlink:href="#Menlo-Regular-20" transform="translate(1023.486328 0)"/>
      <use xlink:href="#Menlo-Regular-61" transform="translate(1083.691406 0)"/>
      <use xlink:href="#Menlo-Regular-63" transform="translate(1143.896484 0)"/>
      <use xlink:href="#Menlo-Regular-63" transform="translate(1204.101562 0)"/>
     </g>
    </g>
    <g id="PathCollection_1">
     <defs>
      <path id="mec3a6096bf" d="M 0 6.519202 
C 1.728913 6.519202 3.387246 5.832298 4.609772 4.609772 
C 5.832298 3.387246 6.519202 1.728913 6.519202 0 
C 6.519202 -1.728913 5.832298 -3.387246 4.609772 -4.609772 
C 3.387246 -5.832298 1.728913 -6.519202 0 -6.519202 
C -1.728913 -6.519202 -3.387246 -5.832298 -4.609772 -4.609772 
C -5.832298 -3.387246 -6.519202 -1.728913 -6.519202 0 
C -6.519202 1.728913 -5.832298 3.387246 -4.609772 4.609772 
C -3.387246 5.832298 -1.728913 6.519202 0 6.519202 
z
" style="stroke: #ffffff; stroke-width: 1.3"/>
     </defs>
     <g>
      <use xlink:href="#mec3a6096bf" x="254.741406" y="88.633729" style="fill: #666666; stroke: #ffffff; stroke-width: 1.3"/>
     </g>
    </g>
    <g id="text_22">
     <!-- Frozen PING (control)  ·  91.1% -->
     <g style="fill: #1a1a1a" transform="translate(264.341406 90.208729) scale(0.06 -0.06)">
      <defs>
       <path id="Menlo-Regular-46" d="M 728 4666 
L 3475 4666 
L 3475 4134 
L 1363 4134 
L 1363 2884 
L 3278 2884 
L 3278 2353 
L 1363 2353 
L 1363 0 
L 728 0 
L 728 4666 
z
" transform="scale(0.015625)"/>
       <path id="Menlo-Regular-39" d="M 1863 2069 
Q 2266 2069 2495 2359 
Q 2725 2650 2725 3163 
Q 2725 3675 2495 3965 
Q 2266 4256 1863 4256 
Q 1444 4256 1231 3979 
Q 1019 3703 1019 3163 
Q 1019 2619 1230 2344 
Q 1441 2069 1863 2069 
z
M 738 97 
L 738 678 
Q 934 563 1156 502 
Q 1378 441 1619 441 
Q 2219 441 2526 892 
Q 2834 1344 2834 2222 
Q 2688 1909 2422 1742 
Q 2156 1575 1813 1575 
Q 1138 1575 767 1990 
Q 397 2406 397 3169 
Q 397 3922 776 4336 
Q 1156 4750 1850 4750 
Q 2663 4750 3041 4165 
Q 3419 3581 3419 2328 
Q 3419 1150 2964 529 
Q 2509 -91 1644 -91 
Q 1416 -91 1184 -42 
Q 953 6 738 97 
z
" transform="scale(0.015625)"/>
       <path id="Menlo-Regular-25" d="M 2175 997 
Q 2175 753 2339 587 
Q 2503 422 2747 422 
Q 2988 422 3155 589 
Q 3322 756 3322 997 
Q 3322 1238 3153 1406 
Q 2984 1575 2747 1575 
Q 2503 1575 2339 1409 
Q 2175 1244 2175 997 
z
M 1753 997 
Q 1753 1419 2040 1708 
Q 2328 1997 2747 1997 
Q 2947 1997 3126 1922 
Q 3306 1847 3450 1703 
Q 3594 1556 3672 1375 
Q 3750 1194 3750 997 
Q 3750 581 3459 290 
Q 3169 0 2747 0 
Q 2322 0 2037 286 
Q 1753 572 1753 997 
z
M 259 1375 
L 122 1728 
L 3606 3122 
L 3763 2769 
L 259 1375 
z
M 525 3475 
Q 525 3228 689 3064 
Q 853 2900 1100 2900 
Q 1341 2900 1509 3067 
Q 1678 3234 1678 3475 
Q 1678 3716 1509 3883 
Q 1341 4050 1100 4050 
Q 859 4050 692 3884 
Q 525 3719 525 3475 
z
M 103 3475 
Q 103 3897 390 4186 
Q 678 4475 1100 4475 
Q 1300 4475 1483 4400 
Q 1666 4325 1806 4184 
Q 1947 4044 2023 3861 
Q 2100 3678 2100 3475 
Q 2100 3056 1809 2767 
Q 1519 2478 1100 2478 
Q 678 2478 390 2765 
Q 103 3053 103 3475 
z
" transform="scale(0.015625)"/>
      </defs>
      <use xlink:href="#Menlo-Regular-46"/>
      <use xlink:href="#Menlo-Regular-72" transform="translate(60.205078 0)"/>
      <use xlink:href="#Menlo-Regular-6f" transform="translate(120.410156 0)"/>
      <use xlink:href="#Menlo-Regular-7a" transform="translate(180.615234 0)"/>
      <use xlink:href="#Menlo-Regular-65" transform="translate(240.820312 0)"/>
      <use xlink:href="#Menlo-Regular-6e" transform="translate(301.025391 0)"/>
      <use xlink:href="#Menlo-Regular-20" transform="translate(361.230469 0)"/>
      <use xlink:href="#Menlo-Regular-50" transform="translate(421.435547 0)"/>
      <use xlink:href="#Menlo-Regular-49" transform="translate(481.640625 0)"/>
      <use xlink:href="#Menlo-Regular-4e" transform="translate(541.845703 0)"/>
      <use xlink:href="#Menlo-Regular-47" transform="translate(602.050781 0)"/>
      <use xlink:href="#Menlo-Regular-20" transform="translate(662.255859 0)"/>
      <use xlink:href="#Menlo-Regular-28" transform="translate(722.460938 0)"/>
      <use xlink:href="#Menlo-Regular-63" transform="translate(782.666016 0)"/>
      <use xlink:href="#Menlo-Regular-6f" transform="translate(842.871094 0)"/>
      <use xlink:href="#Menlo-Regular-6e" transform="translate(903.076172 0)"/>
      <use xlink:href="#Menlo-Regular-74" transform="translate(963.28125 0)"/>
      <use xlink:href="#Menlo-Regular-72" transform="translate(1023.486328 0)"/>
      <use xlink:href="#Menlo-Regular-6f" transform="translate(1083.691406 0)"/>
      <use xlink:href="#Menlo-Regular-6c" transform="translate(1143.896484 0)"/>
      <use xlink:href="#Menlo-Regular-29" transform="translate(1204.101562 0)"/>
      <use xlink:href="#Menlo-Regular-20" transform="translate(1264.306641 0)"/>
      <use xlink:href="#Menlo-Regular-20" transform="translate(1324.511719 0)"/>
      <use xlink:href="#Menlo-Regular-b7" transform="translate(1384.716797 0)"/>
      <use xlink:href="#Menlo-Regular-20" transform="translate(1444.921875 0)"/>
      <use xlink:href="#Menlo-Regular-20" transform="translate(1505.126953 0)"/>
      <use xlink:href="#Menlo-Regular-39" transform="translate(1565.332031 0)"/>
      <use xlink:href="#Menlo-Regular-31" transform="translate(1625.537109 0)"/>
      <use xlink:href="#Menlo-Regular-2e" transform="translate(1685.742188 0)"/>
      <use xlink:href="#Menlo-Regular-31" transform="translate(1745.947266 0)"/>
      <use xlink:href="#Menlo-Regular-25" transform="translate(1806.152344 0)"/>
     </g>
    </g>
    <g id="PathCollection_2">
     <defs>
      <path id="m6f6557c616" d="M -4.1833 4.1833 
L 4.1833 4.1833 
L 4.1833 -4.1833 
L -4.1833 -4.1833 
z
" style="stroke: #ffffff; stroke-width: 0.9"/>
     </defs>
     <g>
      <use xlink:href="#m6f6557c616" x="254.741406" y="97.457479" style="fill: #1a1a1a; stroke: #ffffff; stroke-width: 0.9"/>
     </g>
    </g>
    <g id="text_23">
     <!-- Trainable, PING init  ·  86.5% -->
     <g style="fill: #1a1a1a" transform="translate(264.341406 99.032479) scale(0.06 -0.06)">
      <defs>
       <path id="Menlo-Regular-54" d="M 147 4666 
L 3706 4666 
L 3706 4134 
L 2247 4134 
L 2247 0 
L 1613 0 
L 1613 4134 
L 147 4134 
L 147 4666 
z
" transform="scale(0.015625)"/>
       <path id="Menlo-Regular-2c" d="M 1381 1128 
L 2356 1128 
L 2356 300 
L 1663 -1047 
L 1038 -1050 
L 1381 300 
L 1381 1128 
z
" transform="scale(0.015625)"/>
      </defs>
      <use xlink:href="#Menlo-Regular-54"/>
      <use xlink:href="#Menlo-Regular-72" transform="translate(60.205078 0)"/>
      <use xlink:href="#Menlo-Regular-61" transform="translate(120.410156 0)"/>
      <use xlink:href="#Menlo-Regular-69" transform="translate(180.615234 0)"/>
      <use xlink:href="#Menlo-Regular-6e" transform="translate(240.820312 0)"/>
      <use xlink:href="#Menlo-Regular-61" transform="translate(301.025391 0)"/>
      <use xlink:href="#Menlo-Regular-62" transform="translate(361.230469 0)"/>
      <use xlink:href="#Menlo-Regular-6c" transform="translate(421.435547 0)"/>
      <use xlink:href="#Menlo-Regular-65" transform="translate(481.640625 0)"/>
      <use xlink:href="#Menlo-Regular-2c" transform="translate(541.845703 0)"/>
      <use xlink:href="#Menlo-Regular-20" transform="translate(602.050781 0)"/>
      <use xlink:href="#Menlo-Regular-50" transform="translate(662.255859 0)"/>
      <use xlink:href="#Menlo-Regular-49" transform="translate(722.460938 0)"/>
      <use xlink:href="#Menlo-Regular-4e" transform="translate(782.666016 0)"/>
      <use xlink:href="#Menlo-Regular-47" transform="translate(842.871094 0)"/>
      <use xlink:href="#Menlo-Regular-20" transform="translate(903.076172 0)"/>
      <use xlink:href="#Menlo-Regular-69" transform="translate(963.28125 0)"/>
      <use xlink:href="#Menlo-Regular-6e" transform="translate(1023.486328 0)"/>
      <use xlink:href="#Menlo-Regular-69" transform="translate(1083.691406 0)"/>
      <use xlink:href="#Menlo-Regular-74" transform="translate(1143.896484 0)"/>
      <use xlink:href="#Menlo-Regular-20" transform="translate(1204.101562 0)"/>
      <use xlink:href="#Menlo-Regular-20" transform="translate(1264.306641 0)"/>
      <use xlink:href="#Menlo-Regular-b7" transform="translate(1324.511719 0)"/>
      <use xlink:href="#Menlo-Regular-20" transform="translate(1384.716797 0)"/>
      <use xlink:href="#Menlo-Regular-20" transform="translate(1444.921875 0)"/>
      <use xlink:href="#Menlo-Regular-38" transform="translate(1505.126953 0)"/>
      <use xlink:href="#Menlo-Regular-36" transform="translate(1565.332031 0)"/>
      <use xlink:href="#Menlo-Regular-2e" transform="translate(1625.537109 0)"/>
      <use xlink:href="#Menlo-Regular-35" transform="translate(1685.742188 0)"/>
      <use xlink:href="#Menlo-Regular-25" transform="translate(1745.947266 0)"/>
     </g>
    </g>
    <g id="PathCollection_3">
     <defs>
      <path id="mb06f83fd40" d="M 0 -4.1833 
L -4.1833 4.1833 
L 4.1833 4.1833 
z
" style="stroke: #ffffff; stroke-width: 0.9"/>
     </defs>
     <g>
      <use xlink:href="#mb06f83fd40" x="254.741406" y="106.281229" style="fill: #c8102e; stroke: #ffffff; stroke-width: 0.9"/>
     </g>
    </g>
    <g id="text_24">
     <!-- Trainable, zero init  ·  89.3% -->
     <g style="fill: #1a1a1a" transform="translate(264.341406 107.856229) scale(0.06 -0.06)">
      <use xlink:href="#Menlo-Regular-54"/>
      <use xlink:href="#Menlo-Regular-72" transform="translate(60.205078 0)"/>
      <use xlink:href="#Menlo-Regular-61" transform="translate(120.410156 0)"/>
      <use xlink:href="#Menlo-Regular-69" transform="translate(180.615234 0)"/>
      <use xlink:href="#Menlo-Regular-6e" transform="translate(240.820312 0)"/>
      <use xlink:href="#Menlo-Regular-61" transform="translate(301.025391 0)"/>
      <use xlink:href="#Menlo-Regular-62" transform="translate(361.230469 0)"/>
      <use xlink:href="#Menlo-Regular-6c" transform="translate(421.435547 0)"/>
      <use xlink:href="#Menlo-Regular-65" transform="translate(481.640625 0)"/>
      <use xlink:href="#Menlo-Regular-2c" transform="translate(541.845703 0)"/>
      <use xlink:href="#Menlo-Regular-20" transform="translate(602.050781 0)"/>
      <use xlink:href="#Menlo-Regular-7a" transform="translate(662.255859 0)"/>
      <use xlink:href="#Menlo-Regular-65" transform="translate(722.460938 0)"/>
      <use xlink:href="#Menlo-Regular-72" transform="translate(782.666016 0)"/>
      <use xlink:href="#Menlo-Regular-6f" transform="translate(842.871094 0)"/>
      <use xlink:href="#Menlo-Regular-20" transform="translate(903.076172 0)"/>
      <use xlink:href="#Menlo-Regular-69" transform="translate(963.28125 0)"/>
      <use xlink:href="#Menlo-Regular-6e" transform="translate(1023.486328 0)"/>
      <use xlink:href="#Menlo-Regular-69" transform="translate(1083.691406 0)"/>
      <use xlink:href="#Menlo-Regular-74" transform="translate(1143.896484 0)"/>
      <use xlink:href="#Menlo-Regular-20" transform="translate(1204.101562 0)"/>
      <use xlink:href="#Menlo-Regular-20" transform="translate(1264.306641 0)"/>
      <use xlink:href="#Menlo-Regular-b7" transform="translate(1324.511719 0)"/>
      <use xlink:href="#Menlo-Regular-20" transform="translate(1384.716797 0)"/>
      <use xlink:href="#Menlo-Regular-20" transform="translate(1444.921875 0)"/>
      <use xlink:href="#Menlo-Regular-38" transform="translate(1505.126953 0)"/>
      <use xlink:href="#Menlo-Regular-39" transform="translate(1565.332031 0)"/>
      <use xlink:href="#Menlo-Regular-2e" transform="translate(1625.537109 0)"/>
      <use xlink:href="#Menlo-Regular-33" transform="translate(1685.742188 0)"/>
      <use xlink:href="#Menlo-Regular-25" transform="translate(1745.947266 0)"/>
     </g>
    </g>
    <g id="PathCollection_4">
     <defs>
      <path id="m2b40d17292" d="M -0 5.91608 
L 5.91608 0 
L 0 -5.91608 
L -5.91608 -0 
z
" style="stroke: #ffffff; stroke-width: 0.9"/>
     </defs>
     <g>
      <use xlink:href="#m2b40d17292" x="254.741406" y="115.104979" style="fill: #e89400; stroke: #ffffff; stroke-width: 0.9"/>
     </g>
    </g>
    <g id="text_25">
     <!-- Trainable, small seed init  ·  83.0% -->
     <g style="fill: #1a1a1a" transform="translate(264.341406 116.679979) scale(0.06 -0.06)">
      <defs>
       <path id="Menlo-Regular-6d" d="M 2113 3144 
Q 2219 3369 2383 3476 
Q 2547 3584 2778 3584 
Q 3200 3584 3373 3257 
Q 3547 2931 3547 2028 
L 3547 0 
L 3022 0 
L 3022 2003 
Q 3022 2744 2939 2923 
Q 2856 3103 2638 3103 
Q 2388 3103 2295 2911 
Q 2203 2719 2203 2003 
L 2203 0 
L 1678 0 
L 1678 2003 
Q 1678 2753 1589 2928 
Q 1500 3103 1269 3103 
Q 1041 3103 952 2911 
Q 863 2719 863 2003 
L 863 0 
L 341 0 
L 341 3500 
L 863 3500 
L 863 3200 
Q 966 3388 1120 3486 
Q 1275 3584 1472 3584 
Q 1709 3584 1867 3475 
Q 2025 3366 2113 3144 
z
" transform="scale(0.015625)"/>
      </defs>
      <use xlink:href="#Menlo-Regular-54"/>
      <use xlink:href="#Menlo-Regular-72" transform="translate(60.205078 0)"/>
      <use xlink:href="#Menlo-Regular-61" transform="translate(120.410156 0)"/>
      <use xlink:href="#Menlo-Regular-69" transform="translate(180.615234 0)"/>
      <use xlink:href="#Menlo-Regular-6e" transform="translate(240.820312 0)"/>
      <use xlink:href="#Menlo-Regular-61" transform="translate(301.025391 0)"/>
      <use xlink:href="#Menlo-Regular-62" transform="translate(361.230469 0)"/>
      <use xlink:href="#Menlo-Regular-6c" transform="translate(421.435547 0)"/>
      <use xlink:href="#Menlo-Regular-65" transform="translate(481.640625 0)"/>
      <use xlink:href="#Menlo-Regular-2c" transform="translate(541.845703 0)"/>
      <use xlink:href="#Menlo-Regular-20" transform="translate(602.050781 0)"/>
      <use xlink:href="#Menlo-Regular-73" transform="translate(662.255859 0)"/>
      <use xlink:href="#Menlo-Regular-6d" transform="translate(722.460938 0)"/>
      <use xlink:href="#Menlo-Regular-61" transform="translate(782.666016 0)"/>
      <use xlink:href="#Menlo-Regular-6c" transform="translate(842.871094 0)"/>
      <use xlink:href="#Menlo-Regular-6c" transform="translate(903.076172 0)"/>
      <use xlink:href="#Menlo-Regular-20" transform="translate(963.28125 0)"/>
      <use xlink:href="#Menlo-Regular-73" transform="translate(1023.486328 0)"/>
      <use xlink:href="#Menlo-Regular-65" transform="translate(1083.691406 0)"/>
      <use xlink:href="#Menlo-Regular-65" transform="translate(1143.896484 0)"/>
      <use xlink:href="#Menlo-Regular-64" transform="translate(1204.101562 0)"/>
      <use xlink:href="#Menlo-Regular-20" transform="translate(1264.306641 0)"/>
      <use xlink:href="#Menlo-Regular-69" transform="translate(1324.511719 0)"/>
      <use xlink:href="#Menlo-Regular-6e" transform="translate(1384.716797 0)"/>
      <use xlink:href="#Menlo-Regular-69" transform="translate(1444.921875 0)"/>
      <use xlink:href="#Menlo-Regular-74" transform="translate(1505.126953 0)"/>
      <use xlink:href="#Menlo-Regular-20" transform="translate(1565.332031 0)"/>
      <use xlink:href="#Menlo-Regular-20" transform="translate(1625.537109 0)"/>
      <use xlink:href="#Menlo-Regular-b7" transform="translate(1685.742188 0)"/>
      <use xlink:href="#Menlo-Regular-20" transform="translate(1745.947266 0)"/>
      <use xlink:href="#Menlo-Regular-20" transform="translate(1806.152344 0)"/>
      <use xlink:href="#Menlo-Regular-38" transform="translate(1866.357422 0)"/>
      <use xlink:href="#Menlo-Regular-33" transform="translate(1926.5625 0)"/>
      <use xlink:href="#Menlo-Regular-2e" transform="translate(1986.767578 0)"/>
      <use xlink:href="#Menlo-Regular-30" transform="translate(2046.972656 0)"/>
      <use xlink:href="#Menlo-Regular-25" transform="translate(2107.177734 0)"/>
     </g>
    </g>
   </g>
   <g id="PathCollection_5">
    <defs>
     <path id="C0_0_4ee472420b" d="M 0 3.708099 
C 0.983399 3.708099 1.926654 3.317391 2.622022 2.622022 
C 3.317391 1.926654 3.708099 0.983399 3.708099 -0 
C 3.708099 -0.983399 3.317391 -1.926654 2.622022 -2.622022 
C 1.926654 -3.317391 0.983399 -3.708099 0 -3.708099 
C -0.983399 -3.708099 -1.926654 -3.317391 -2.622022 -2.622022 
C -3.317391 -1.926654 -3.708099 -0.983399 -3.708099 0 
C -3.708099 0.983399 -3.317391 1.926654 -2.622022 2.622022 
C -1.926654 3.317391 -0.983399 3.708099 0 3.708099 
z
"/>
    </defs>
    <g clip-path="url(#pd1ade5c259)">
     <use xlink:href="#C0_0_4ee472420b" x="76.192809" y="5.549297" style="fill: #666666; fill-opacity: 0.4"/>
    </g>
    <g clip-path="url(#pd1ade5c259)">
     <use xlink:href="#C0_0_4ee472420b" x="75.997435" y="5.840565" style="fill: #666666; fill-opacity: 0.4"/>
    </g>
    <g clip-path="url(#pd1ade5c259)">
     <use xlink:href="#C0_0_4ee472420b" x="75.728816" y="5.549297" style="fill: #666666; fill-opacity: 0.4"/>
    </g>
   </g>
   <g id="PathCollection_6">
    <g clip-path="url(#pd1ade5c259)">
     <use xlink:href="#mec3a6096bf" x="75.97302" y="5.646386" style="fill: #666666; stroke: #ffffff; stroke-width: 1.3"/>
    </g>
   </g>
   <g id="PathCollection_7">
    <defs>
     <path id="md04c30ebcc" d="M -4.1833 4.1833 
L 4.1833 4.1833 
L 4.1833 -4.1833 
L -4.1833 -4.1833 
z
" style="stroke: #1a1a1a; stroke-width: 1.4"/>
    </defs>
    <g clip-path="url(#pd1ade5c259)">
     <use xlink:href="#md04c30ebcc" x="135.744279" y="172.694031" style="fill: #ffffff; stroke: #1a1a1a; stroke-width: 1.4"/>
    </g>
   </g>
   <g id="PathCollection_8">
    <g clip-path="url(#pd1ade5c259)">
     <use xlink:href="#m6f6557c616" x="196.791048" y="165.582584" style="fill: #1a1a1a; stroke: #ffffff; stroke-width: 0.9"/>
    </g>
   </g>
   <g id="PathCollection_9">
    <defs>
     <path id="ma35016d7ab" d="M 0 -4.1833 
L -4.1833 4.1833 
L 4.1833 4.1833 
z
" style="stroke: #c8102e; stroke-width: 1.4"/>
    </defs>
    <g clip-path="url(#pd1ade5c259)">
     <use xlink:href="#ma35016d7ab" x="163.428674" y="177.675906" style="fill: #ffffff; stroke: #c8102e; stroke-width: 1.4"/>
    </g>
   </g>
   <g id="PathCollection_10">
    <g clip-path="url(#pd1ade5c259)">
     <use xlink:href="#mb06f83fd40" x="372.478119" y="183.319335" style="fill: #c8102e; stroke: #ffffff; stroke-width: 0.9"/>
    </g>
   </g>
   <g id="PathCollection_11">
    <defs>
     <path id="m10e7a31c57" d="M -0 5.91608 
L 5.91608 0 
L 0 -5.91608 
L -5.91608 -0 
z
" style="stroke: #e89400; stroke-width: 1.4"/>
    </defs>
    <g clip-path="url(#pd1ade5c259)">
     <use xlink:href="#m10e7a31c57" x="132.459692" y="174.193946" style="fill: #ffffff; stroke: #e89400; stroke-width: 1.4"/>
    </g>
   </g>
   <g id="PathCollection_12">
    <g clip-path="url(#pd1ade5c259)">
     <use xlink:href="#m2b40d17292" x="255.189988" y="171.019685" style="fill: #e89400; stroke: #ffffff; stroke-width: 0.9"/>
    </g>
   </g>
  </g>
  <g id="text_26">
   <!-- r002 -->
   <g style="fill: #888888" transform="translate(385.311344 223.9635) scale(0.065 -0.065)">
    <use xlink:href="#Menlo-Regular-72"/>
    <use xlink:href="#Menlo-Regular-30" transform="translate(60.205078 0)"/>
    <use xlink:href="#Menlo-Regular-30" transform="translate(120.410156 0)"/>
    <use xlink:href="#Menlo-Regular-32" transform="translate(180.615234 0)"/>
   </g>
  </g>
 </g>
 <defs>
  <clipPath id="pd1ade5c259">
   <rect x="31.202656" y="5.549297" width="368.5775" height="183.63824"/>
  </clipPath>
 </defs>
</svg>
