<?xml version="1.0" encoding="utf-8" standalone="no"?>
<!DOCTYPE svg PUBLIC "-//W3C//DTD SVG 1.1//EN"
  "http://www.w3.org/Graphics/SVG/1.1/DTD/svg11.dtd">
<svg xmlns:xlink="http://www.w3.org/1999/xlink" width="508.864323pt" height="207.9816pt" viewBox="0 0 508.864323 207.9816" xmlns="http://www.w3.org/2000/svg" version="1.1">
 <metadata>
  <rdf:RDF xmlns:dc="http://purl.org/dc/elements/1.1/" xmlns:cc="http://creativecommons.org/ns#" xmlns:rdf="http://www.w3.org/1999/02/22-rdf-syntax-ns#">
   <cc:Work>
    <dc:type rdf:resource="http://purl.org/dc/dcmitype/StillImage"/>
    <dc:date>2026-07-14T12:25:50.409467</dc:date>
    <dc:format>image/svg+xml</dc:format>
    <dc:creator>
     <cc:Agent>
      <dc:title>Matplotlib v3.10.8, https://matplotlib.org/</dc:title>
     </cc:Agent>
    </dc:creator>
   </cc:Work>
  </rdf:RDF>
 </metadata>
 <defs>
  <style type="text/css">*{stroke-linejoin: round; stroke-linecap: butt}</style>
 </defs>
 <g id="figure_1">
  <g id="patch_1">
   <path d="M 0 207.9816 
L 508.864323 207.9816 
L 508.864323 0 
L 0 0 
z
" style="fill: #ffffff"/>
  </g>
  <g id="axes_1">
   <g id="text_1">
    <!-- Frozen PING (control) -->
    <g style="fill: #666666" transform="translate(44.990313 10.240869) scale(0.095 -0.095)">
     <defs>
      <path id="Menlo-Regular-46" d="M 728 4666 
L 3475 4666 
L 3475 4134 
L 1363 4134 
L 1363 2884 
L 3278 2884 
L 3278 2353 
L 1363 2353 
L 1363 0 
L 728 0 
L 728 4666 
z
" transform="scale(0.015625)"/>
      <path id="Menlo-Regular-72" d="M 3609 2778 
Q 3425 2922 3234 2987 
Q 3044 3053 2816 3053 
Q 2278 3053 1993 2715 
Q 1709 2378 1709 1741 
L 1709 0 
L 1131 0 
L 1131 3500 
L 1709 3500 
L 1709 2816 
Q 1853 3188 2151 3386 
Q 2450 3584 2859 3584 
Q 3072 3584 3256 3531 
Q 3441 3478 3609 3366 
L 3609 2778 
z
" transform="scale(0.015625)"/>
      <path id="Menlo-Regular-6f" d="M 1925 3097 
Q 1488 3097 1263 2756 
Q 1038 2416 1038 1747 
Q 1038 1081 1263 739 
Q 1488 397 1925 397 
Q 2366 397 2591 739 
Q 2816 1081 2816 1747 
Q 2816 2416 2591 2756 
Q 2366 3097 1925 3097 
z
M 1925 3584 
Q 2653 3584 3039 3112 
Q 3425 2641 3425 1747 
Q 3425 850 3040 379 
Q 2656 -91 1925 -91 
Q 1197 -91 812 379 
Q 428 850 428 1747 
Q 428 2641 812 3112 
Q 1197 3584 1925 3584 
z
" transform="scale(0.015625)"/>
      <path id="Menlo-Regular-7a" d="M 709 3506 
L 3250 3506 
L 3250 2981 
L 1241 469 
L 3250 469 
L 3250 0 
L 634 0 
L 634 531 
L 2644 3047 
L 709 3047 
L 709 3506 
z
" transform="scale(0.015625)"/>
      <path id="Menlo-Regular-65" d="M 3500 2038 
L 3500 1756 
L 1009 1756 
L 1009 1738 
Q 984 1022 1282 709 
Q 1581 397 2125 397 
Q 2400 397 2700 484 
Q 3000 572 3341 750 
L 3341 178 
Q 3013 44 2708 -23 
Q 2403 -91 2119 -91 
Q 1303 -91 843 398 
Q 384 888 384 1747 
Q 384 2584 834 3084 
Q 1284 3584 2034 3584 
Q 2703 3584 3089 3131 
Q 3475 2678 3500 2038 
z
M 2925 2206 
Q 2888 2569 2661 2833 
Q 2434 3097 2009 3097 
Q 1594 3097 1325 2822 
Q 1056 2547 1031 2203 
L 2925 2206 
z
" transform="scale(0.015625)"/>
      <path id="Menlo-Regular-6e" d="M 3284 2169 
L 3284 0 
L 2706 0 
L 2706 2169 
Q 2706 2641 2540 2862 
Q 2375 3084 2022 3084 
Q 1619 3084 1401 2798 
Q 1184 2513 1184 1978 
L 1184 0 
L 609 0 
L 609 3500 
L 1184 3500 
L 1184 2975 
Q 1338 3275 1600 3429 
Q 1863 3584 2222 3584 
Q 2756 3584 3020 3232 
Q 3284 2881 3284 2169 
z
" transform="scale(0.015625)"/>
      <path id="Menlo-Regular-20" transform="scale(0.015625)"/>
      <path id="Menlo-Regular-50" d="M 1247 4147 
L 1247 2394 
L 1978 2394 
Q 2416 2394 2661 2625 
Q 2906 2856 2906 3272 
Q 2906 3688 2662 3917 
Q 2419 4147 1978 4147 
L 1247 4147 
z
M 616 4666 
L 1978 4666 
Q 2759 4666 3162 4311 
Q 3566 3956 3566 3272 
Q 3566 2581 3164 2228 
Q 2763 1875 1978 1875 
L 1247 1875 
L 1247 0 
L 616 0 
L 616 4666 
z
" transform="scale(0.015625)"/>
      <path id="Menlo-Regular-49" d="M 628 4666 
L 3219 4666 
L 3219 4134 
L 2241 4134 
L 2241 531 
L 3219 531 
L 3219 0 
L 628 0 
L 628 531 
L 1606 531 
L 1606 4134 
L 628 4134 
L 628 4666 
z
" transform="scale(0.015625)"/>
      <path id="Menlo-Regular-4e" d="M 59 4650 
L 922 4650 
L 2747 822 
L 2747 4650 
L 3419 4650 
L 3419 0 
L 2556 0 
L 731 3828 
L 731 0 
L 59 0 
L 59 4650 
z
" transform="scale(0.015625)"/>
      <path id="Menlo-Regular-47" d="M 3450 384 
Q 3197 150 2880 29 
Q 2563 -91 2194 -91 
Q 1306 -91 812 545 
Q 319 1181 319 2328 
Q 319 3472 819 4111 
Q 1319 4750 2209 4750 
Q 2503 4750 2772 4667 
Q 3041 4584 3291 4416 
L 3291 3769 
Q 3038 4009 2772 4123 
Q 2506 4238 2209 4238 
Q 1594 4238 1286 3761 
Q 978 3284 978 2328 
Q 978 1356 1276 889 
Q 1575 422 2194 422 
Q 2403 422 2561 470 
Q 2719 519 2847 622 
L 2847 1875 
L 2169 1875 
L 2169 2394 
L 3450 2394 
L 3450 384 
z
" transform="scale(0.015625)"/>
      <path id="Menlo-Regular-28" d="M 2672 5169 
Q 2256 4456 2051 3748 
Q 1847 3041 1847 2322 
Q 1847 1606 2051 897 
Q 2256 188 2672 -531 
L 2172 -531 
Q 1700 213 1469 917 
Q 1238 1622 1238 2322 
Q 1238 3019 1469 3725 
Q 1700 4431 2172 5169 
L 2672 5169 
z
" transform="scale(0.015625)"/>
      <path id="Menlo-Regular-63" d="M 3316 178 
Q 3084 44 2839 -23 
Q 2594 -91 2338 -91 
Q 1525 -91 1067 396 
Q 609 884 609 1747 
Q 609 2609 1067 3096 
Q 1525 3584 2338 3584 
Q 2591 3584 2831 3518 
Q 3072 3453 3316 3316 
L 3316 2713 
Q 3088 2916 2858 3006 
Q 2628 3097 2338 3097 
Q 1797 3097 1506 2747 
Q 1216 2397 1216 1747 
Q 1216 1100 1508 748 
Q 1800 397 2338 397 
Q 2638 397 2875 489 
Q 3113 581 3316 775 
L 3316 178 
z
" transform="scale(0.015625)"/>
      <path id="Menlo-Regular-74" d="M 1919 4494 
L 1919 3500 
L 3225 3500 
L 3225 3053 
L 1919 3053 
L 1919 1153 
Q 1919 766 2066 612 
Q 2213 459 2578 459 
L 3225 459 
L 3225 0 
L 2522 0 
Q 1875 0 1609 259 
Q 1344 519 1344 1153 
L 1344 3053 
L 409 3053 
L 409 3500 
L 1344 3500 
L 1344 4494 
L 1919 4494 
z
" transform="scale(0.015625)"/>
      <path id="Menlo-Regular-6c" d="M 2247 1266 
Q 2247 878 2389 681 
Q 2531 484 2809 484 
L 3481 484 
L 3481 0 
L 2753 0 
Q 2238 0 1955 329 
Q 1672 659 1672 1266 
L 1672 4431 
L 750 4431 
L 750 4881 
L 2247 4881 
L 2247 1266 
z
" transform="scale(0.015625)"/>
      <path id="Menlo-Regular-29" d="M 1088 5169 
L 1588 5169 
Q 2059 4431 2290 3725 
Q 2522 3019 2522 2322 
Q 2522 1619 2290 912 
Q 2059 206 1588 -531 
L 1088 -531 
Q 1503 194 1708 903 
Q 1913 1613 1913 2322 
Q 1913 3034 1708 3743 
Q 1503 4453 1088 5169 
z
" transform="scale(0.015625)"/>
     </defs>
     <use xlink:href="#Menlo-Regular-46"/>
     <use xlink:href="#Menlo-Regular-72" transform="translate(60.205078 0)"/>
     <use xlink:href="#Menlo-Regular-6f" transform="translate(120.410156 0)"/>
     <use xlink:href="#Menlo-Regular-7a" transform="translate(180.615234 0)"/>
     <use xlink:href="#Menlo-Regular-65" transform="translate(240.820312 0)"/>
     <use xlink:href="#Menlo-Regular-6e" transform="translate(301.025391 0)"/>
     <use xlink:href="#Menlo-Regular-20" transform="translate(361.230469 0)"/>
     <use xlink:href="#Menlo-Regular-50" transform="translate(421.435547 0)"/>
     <use xlink:href="#Menlo-Regular-49" transform="translate(481.640625 0)"/>
     <use xlink:href="#Menlo-Regular-4e" transform="translate(541.845703 0)"/>
     <use xlink:href="#Menlo-Regular-47" transform="translate(602.050781 0)"/>
     <use xlink:href="#Menlo-Regular-20" transform="translate(662.255859 0)"/>
     <use xlink:href="#Menlo-Regular-28" transform="translate(722.460938 0)"/>
     <use xlink:href="#Menlo-Regular-63" transform="translate(782.666016 0)"/>
     <use xlink:href="#Menlo-Regular-6f" transform="translate(842.871094 0)"/>
     <use xlink:href="#Menlo-Regular-6e" transform="translate(903.076172 0)"/>
     <use xlink:href="#Menlo-Regular-74" transform="translate(963.28125 0)"/>
     <use xlink:href="#Menlo-Regular-72" transform="translate(1023.486328 0)"/>
     <use xlink:href="#Menlo-Regular-6f" transform="translate(1083.691406 0)"/>
     <use xlink:href="#Menlo-Regular-6c" transform="translate(1143.896484 0)"/>
     <use xlink:href="#Menlo-Regular-29" transform="translate(1204.101562 0)"/>
    </g>
   </g>
   <g id="text_2">
    <!-- Recurrent-weight distributions · pooled across 3 seeds · post-projection values -->
    <g style="fill: #888888" transform="translate(44.990313 23.04001) scale(0.065 -0.065)">
     <defs>
      <path id="Menlo-Regular-52" d="M 2375 2203 
Q 2619 2141 2791 1967 
Q 2963 1794 3219 1275 
L 3853 0 
L 3175 0 
L 2619 1178 
Q 2378 1681 2186 1826 
Q 1994 1972 1684 1972 
L 1081 1972 
L 1081 0 
L 447 0 
L 447 4666 
L 1747 4666 
Q 2516 4666 2925 4319 
Q 3334 3972 3334 3316 
Q 3334 2853 3082 2561 
Q 2831 2269 2375 2203 
z
M 1081 4147 
L 1081 2491 
L 1772 2491 
Q 2225 2491 2447 2694 
Q 2669 2897 2669 3316 
Q 2669 3719 2433 3933 
Q 2197 4147 1747 4147 
L 1081 4147 
z
" transform="scale(0.015625)"/>
      <path id="Menlo-Regular-75" d="M 609 1325 
L 609 3494 
L 1184 3494 
L 1184 1325 
Q 1184 853 1351 631 
Q 1519 409 1869 409 
Q 2275 409 2490 695 
Q 2706 981 2706 1516 
L 2706 3494 
L 3284 3494 
L 3284 0 
L 2706 0 
L 2706 525 
Q 2553 222 2289 65 
Q 2025 -91 1672 -91 
Q 1134 -91 871 261 
Q 609 613 609 1325 
z
" transform="scale(0.015625)"/>
      <path id="Menlo-Regular-2d" d="M 319 2263 
L 3631 2263 
L 3631 1734 
L 319 1734 
L 319 2263 
z
" transform="scale(0.015625)"/>
      <path id="Menlo-Regular-77" d="M 0 3500 
L 569 3500 
L 1178 672 
L 1678 2478 
L 2169 2478 
L 2675 672 
L 3284 3500 
L 3853 3500 
L 3034 0 
L 2484 0 
L 1925 1919 
L 1369 0 
L 819 0 
L 0 3500 
z
" transform="scale(0.015625)"/>
      <path id="Menlo-Regular-69" d="M 988 3488 
L 2459 3488 
L 2459 447 
L 3600 447 
L 3600 0 
L 744 0 
L 744 447 
L 1884 447 
L 1884 3041 
L 988 3041 
L 988 3488 
z
M 1884 4847 
L 2459 4847 
L 2459 4122 
L 1884 4122 
L 1884 4847 
z
" transform="scale(0.015625)"/>
      <path id="Menlo-Regular-67" d="M 2681 1778 
Q 2681 2425 2470 2761 
Q 2259 3097 1856 3097 
Q 1434 3097 1212 2761 
Q 991 2425 991 1778 
Q 991 1131 1214 792 
Q 1438 453 1863 453 
Q 2259 453 2470 793 
Q 2681 1134 2681 1778 
z
M 3256 225 
Q 3256 -563 2884 -969 
Q 2513 -1375 1791 -1375 
Q 1553 -1375 1293 -1331 
Q 1034 -1288 775 -1203 
L 775 -634 
Q 1081 -778 1331 -847 
Q 1581 -916 1791 -916 
Q 2256 -916 2468 -662 
Q 2681 -409 2681 141 
L 2681 166 
L 2681 556 
Q 2544 263 2306 119 
Q 2069 -25 1728 -25 
Q 1116 -25 750 465 
Q 384 956 384 1778 
Q 384 2603 750 3093 
Q 1116 3584 1728 3584 
Q 2066 3584 2300 3450 
Q 2534 3316 2681 3034 
L 2681 3488 
L 3256 3488 
L 3256 225 
z
" transform="scale(0.015625)"/>
      <path id="Menlo-Regular-68" d="M 3284 2169 
L 3284 0 
L 2706 0 
L 2706 2169 
Q 2706 2641 2540 2862 
Q 2375 3084 2022 3084 
Q 1619 3084 1401 2798 
Q 1184 2513 1184 1978 
L 1184 0 
L 609 0 
L 609 4863 
L 1184 4863 
L 1184 2975 
Q 1338 3275 1600 3429 
Q 1863 3584 2222 3584 
Q 2756 3584 3020 3232 
Q 3284 2881 3284 2169 
z
" transform="scale(0.015625)"/>
      <path id="Menlo-Regular-64" d="M 2681 3053 
L 2681 4863 
L 3256 4863 
L 3256 0 
L 2681 0 
L 2681 441 
Q 2538 181 2298 45 
Q 2059 -91 1747 -91 
Q 1113 -91 748 401 
Q 384 894 384 1759 
Q 384 2613 750 3098 
Q 1116 3584 1747 3584 
Q 2063 3584 2303 3448 
Q 2544 3313 2681 3053 
z
M 991 1747 
Q 991 1078 1203 737 
Q 1416 397 1831 397 
Q 2247 397 2464 740 
Q 2681 1084 2681 1747 
Q 2681 2413 2464 2755 
Q 2247 3097 1831 3097 
Q 1416 3097 1203 2756 
Q 991 2416 991 1747 
z
" transform="scale(0.015625)"/>
      <path id="Menlo-Regular-73" d="M 3041 3378 
L 3041 2816 
Q 2794 2959 2544 3031 
Q 2294 3103 2034 3103 
Q 1644 3103 1451 2976 
Q 1259 2850 1259 2591 
Q 1259 2356 1403 2240 
Q 1547 2125 2119 2016 
L 2350 1972 
Q 2778 1891 2998 1647 
Q 3219 1403 3219 1013 
Q 3219 494 2850 201 
Q 2481 -91 1825 -91 
Q 1566 -91 1281 -36 
Q 997 19 666 128 
L 666 722 
Q 988 556 1281 473 
Q 1575 391 1838 391 
Q 2219 391 2428 545 
Q 2638 700 2638 978 
Q 2638 1378 1872 1531 
L 1847 1538 
L 1631 1581 
Q 1134 1678 906 1908 
Q 678 2138 678 2534 
Q 678 3038 1018 3311 
Q 1359 3584 1991 3584 
Q 2272 3584 2531 3532 
Q 2791 3481 3041 3378 
z
" transform="scale(0.015625)"/>
      <path id="Menlo-Regular-62" d="M 2869 1747 
Q 2869 2416 2656 2756 
Q 2444 3097 2028 3097 
Q 1609 3097 1393 2755 
Q 1178 2413 1178 1747 
Q 1178 1084 1393 740 
Q 1609 397 2028 397 
Q 2444 397 2656 737 
Q 2869 1078 2869 1747 
z
M 1178 3053 
Q 1316 3309 1558 3446 
Q 1800 3584 2119 3584 
Q 2750 3584 3112 3098 
Q 3475 2613 3475 1759 
Q 3475 894 3111 401 
Q 2747 -91 2113 -91 
Q 1800 -91 1561 45 
Q 1322 181 1178 441 
L 1178 0 
L 603 0 
L 603 4863 
L 1178 4863 
L 1178 3053 
z
" transform="scale(0.015625)"/>
      <path id="Menlo-Regular-b7" d="M 1528 2700 
L 2316 2700 
L 2316 1747 
L 1528 1747 
L 1528 2700 
z
" transform="scale(0.015625)"/>
      <path id="Menlo-Regular-70" d="M 1172 441 
L 1172 -1331 
L 594 -1331 
L 594 3500 
L 1172 3500 
L 1172 3053 
Q 1316 3313 1555 3448 
Q 1794 3584 2106 3584 
Q 2741 3584 3102 3093 
Q 3463 2603 3463 1734 
Q 3463 881 3100 395 
Q 2738 -91 2106 -91 
Q 1788 -91 1548 45 
Q 1309 181 1172 441 
z
M 2859 1747 
Q 2859 2416 2648 2756 
Q 2438 3097 2022 3097 
Q 1603 3097 1387 2755 
Q 1172 2413 1172 1747 
Q 1172 1084 1387 740 
Q 1603 397 2022 397 
Q 2438 397 2648 737 
Q 2859 1078 2859 1747 
z
" transform="scale(0.015625)"/>
      <path id="Menlo-Regular-61" d="M 2194 1759 
L 2003 1759 
Q 1500 1759 1245 1582 
Q 991 1406 991 1056 
Q 991 741 1181 566 
Q 1372 391 1709 391 
Q 2184 391 2456 720 
Q 2728 1050 2731 1631 
L 2731 1759 
L 2194 1759 
z
M 3309 1997 
L 3309 0 
L 2731 0 
L 2731 519 
Q 2547 206 2267 57 
Q 1988 -91 1588 -91 
Q 1053 -91 734 211 
Q 416 513 416 1019 
Q 416 1603 808 1906 
Q 1200 2209 1959 2209 
L 2731 2209 
L 2731 2300 
Q 2728 2719 2518 2908 
Q 2309 3097 1850 3097 
Q 1556 3097 1256 3012 
Q 956 2928 672 2766 
L 672 3341 
Q 991 3463 1283 3523 
Q 1575 3584 1850 3584 
Q 2284 3584 2592 3456 
Q 2900 3328 3091 3072 
Q 3209 2916 3259 2686 
Q 3309 2456 3309 1997 
z
" transform="scale(0.015625)"/>
      <path id="Menlo-Regular-33" d="M 2425 2497 
Q 2884 2375 3128 2064 
Q 3372 1753 3372 1288 
Q 3372 644 2939 276 
Q 2506 -91 1741 -91 
Q 1419 -91 1084 -31 
Q 750 28 428 141 
L 428 769 
Q 747 603 1056 522 
Q 1366 441 1672 441 
Q 2191 441 2469 675 
Q 2747 909 2747 1350 
Q 2747 1756 2469 1995 
Q 2191 2234 1716 2234 
L 1234 2234 
L 1234 2753 
L 1716 2753 
Q 2150 2753 2394 2943 
Q 2638 3134 2638 3475 
Q 2638 3834 2411 4026 
Q 2184 4219 1766 4219 
Q 1488 4219 1191 4156 
Q 894 4094 569 3969 
L 569 4550 
Q 947 4650 1242 4700 
Q 1538 4750 1766 4750 
Q 2447 4750 2855 4408 
Q 3263 4066 3263 3500 
Q 3263 3116 3048 2859 
Q 2834 2603 2425 2497 
z
" transform="scale(0.015625)"/>
      <path id="Menlo-Regular-6a" d="M 1875 -63 
L 1875 3053 
L 884 3053 
L 884 3500 
L 2450 3500 
L 2450 -63 
Q 2450 -672 2170 -1001 
Q 1891 -1331 1375 -1331 
L 581 -1331 
L 581 -844 
L 1313 -844 
Q 1594 -844 1734 -648 
Q 1875 -453 1875 -63 
z
M 1875 4863 
L 2450 4863 
L 2450 4134 
L 1875 4134 
L 1875 4863 
z
" transform="scale(0.015625)"/>
      <path id="Menlo-Regular-76" d="M 313 3500 
L 909 3500 
L 1925 563 
L 2944 3500 
L 3541 3500 
L 2297 0 
L 1556 0 
L 313 3500 
z
" transform="scale(0.015625)"/>
     </defs>
     <use xlink:href="#Menlo-Regular-52"/>
     <use xlink:href="#Menlo-Regular-65" transform="translate(60.205078 0)"/>
     <use xlink:href="#Menlo-Regular-63" transform="translate(120.410156 0)"/>
     <use xlink:href="#Menlo-Regular-75" transform="translate(180.615234 0)"/>
     <use xlink:href="#Menlo-Regular-72" transform="translate(240.820312 0)"/>
     <use xlink:href="#Menlo-Regular-72" transform="translate(301.025391 0)"/>
     <use xlink:href="#Menlo-Regular-65" transform="translate(361.230469 0)"/>
     <use xlink:href="#Menlo-Regular-6e" transform="translate(421.435547 0)"/>
     <use xlink:href="#Menlo-Regular-74" transform="translate(481.640625 0)"/>
     <use xlink:href="#Menlo-Regular-2d" transform="translate(541.845703 0)"/>
     <use xlink:href="#Menlo-Regular-77" transform="translate(602.050781 0)"/>
     <use xlink:href="#Menlo-Regular-65" transform="translate(662.255859 0)"/>
     <use xlink:href="#Menlo-Regular-69" transform="translate(722.460938 0)"/>
     <use xlink:href="#Menlo-Regular-67" transform="translate(782.666016 0)"/>
     <use xlink:href="#Menlo-Regular-68" transform="translate(842.871094 0)"/>
     <use xlink:href="#Menlo-Regular-74" transform="translate(903.076172 0)"/>
     <use xlink:href="#Menlo-Regular-20" transform="translate(963.28125 0)"/>
     <use xlink:href="#Menlo-Regular-64" transform="translate(1023.486328 0)"/>
     <use xlink:href="#Menlo-Regular-69" transform="translate(1083.691406 0)"/>
     <use xlink:href="#Menlo-Regular-73" transform="translate(1143.896484 0)"/>
     <use xlink:href="#Menlo-Regular-74" transform="translate(1204.101562 0)"/>
     <use xlink:href="#Menlo-Regular-72" transform="translate(1264.306641 0)"/>
     <use xlink:href="#Menlo-Regular-69" transform="translate(1324.511719 0)"/>
     <use xlink:href="#Menlo-Regular-62" transform="translate(1384.716797 0)"/>
     <use xlink:href="#Menlo-Regular-75" transform="translate(1444.921875 0)"/>
     <use xlink:href="#Menlo-Regular-74" transform="translate(1505.126953 0)"/>
     <use xlink:href="#Menlo-Regular-69" transform="translate(1565.332031 0)"/>
     <use xlink:href="#Menlo-Regular-6f" transform="translate(1625.537109 0)"/>
     <use xlink:href="#Menlo-Regular-6e" transform="translate(1685.742188 0)"/>
     <use xlink:href="#Menlo-Regular-73" transform="translate(1745.947266 0)"/>
     <use xlink:href="#Menlo-Regular-20" transform="translate(1806.152344 0)"/>
     <use xlink:href="#Menlo-Regular-b7" transform="translate(1866.357422 0)"/>
     <use xlink:href="#Menlo-Regular-20" transform="translate(1926.5625 0)"/>
     <use xlink:href="#Menlo-Regular-70" transform="translate(1986.767578 0)"/>
     <use xlink:href="#Menlo-Regular-6f" transform="translate(2046.972656 0)"/>
     <use xlink:href="#Menlo-Regular-6f" transform="translate(2107.177734 0)"/>
     <use xlink:href="#Menlo-Regular-6c" transform="translate(2167.382812 0)"/>
     <use xlink:href="#Menlo-Regular-65" transform="translate(2227.587891 0)"/>
     <use xlink:href="#Menlo-Regular-64" transform="translate(2287.792969 0)"/>
     <use xlink:href="#Menlo-Regular-20" transform="translate(2347.998047 0)"/>
     <use xlink:href="#Menlo-Regular-61" transform="translate(2408.203125 0)"/>
     <use xlink:href="#Menlo-Regular-63" transform="translate(2468.408203 0)"/>
     <use xlink:href="#Menlo-Regular-72" transform="translate(2528.613281 0)"/>
     <use xlink:href="#Menlo-Regular-6f" transform="translate(2588.818359 0)"/>
     <use xlink:href="#Menlo-Regular-73" transform="translate(2649.023438 0)"/>
     <use xlink:href="#Menlo-Regular-73" transform="translate(2709.228516 0)"/>
     <use xlink:href="#Menlo-Regular-20" transform="translate(2769.433594 0)"/>
     <use xlink:href="#Menlo-Regular-33" transform="translate(2829.638672 0)"/>
     <use xlink:href="#Menlo-Regular-20" transform="translate(2889.84375 0)"/>
     <use xlink:href="#Menlo-Regular-73" transform="translate(2950.048828 0)"/>
     <use xlink:href="#Menlo-Regular-65" transform="translate(3010.253906 0)"/>
     <use xlink:href="#Menlo-Regular-65" transform="translate(3070.458984 0)"/>
     <use xlink:href="#Menlo-Regular-64" transform="translate(3130.664062 0)"/>
     <use xlink:href="#Menlo-Regular-73" transform="translate(3190.869141 0)"/>
     <use xlink:href="#Menlo-Regular-20" transform="translate(3251.074219 0)"/>
     <use xlink:href="#Menlo-Regular-b7" transform="translate(3311.279297 0)"/>
     <use xlink:href="#Menlo-Regular-20" transform="translate(3371.484375 0)"/>
     <use xlink:href="#Menlo-Regular-70" transform="translate(3431.689453 0)"/>
     <use xlink:href="#Menlo-Regular-6f" transform="translate(3491.894531 0)"/>
     <use xlink:href="#Menlo-Regular-73" transform="translate(3552.099609 0)"/>
     <use xlink:href="#Menlo-Regular-74" transform="translate(3612.304688 0)"/>
     <use xlink:href="#Menlo-Regular-2d" transform="translate(3672.509766 0)"/>
     <use xlink:href="#Menlo-Regular-70" transform="translate(3732.714844 0)"/>
     <use xlink:href="#Menlo-Regular-72" transform="translate(3792.919922 0)"/>
     <use xlink:href="#Menlo-Regular-6f" transform="translate(3853.125 0)"/>
     <use xlink:href="#Menlo-Regular-6a" transform="translate(3913.330078 0)"/>
     <use xlink:href="#Menlo-Regular-65" transform="translate(3973.535156 0)"/>
     <use xlink:href="#Menlo-Regular-63" transform="translate(4033.740234 0)"/>
     <use xlink:href="#Menlo-Regular-74" transform="translate(4093.945312 0)"/>
     <use xlink:href="#Menlo-Regular-69" transform="translate(4154.150391 0)"/>
     <use xlink:href="#Menlo-Regular-6f" transform="translate(4214.355469 0)"/>
     <use xlink:href="#Menlo-Regular-6e" transform="translate(4274.560547 0)"/>
     <use xlink:href="#Menlo-Regular-20" transform="translate(4334.765625 0)"/>
     <use xlink:href="#Menlo-Regular-76" transform="translate(4394.970703 0)"/>
     <use xlink:href="#Menlo-Regular-61" transform="translate(4455.175781 0)"/>
     <use xlink:href="#Menlo-Regular-6c" transform="translate(4515.380859 0)"/>
     <use xlink:href="#Menlo-Regular-75" transform="translate(4575.585938 0)"/>
     <use xlink:href="#Menlo-Regular-65" transform="translate(4635.791016 0)"/>
     <use xlink:href="#Menlo-Regular-73" transform="translate(4695.996094 0)"/>
    </g>
   </g>
  </g>
  <g id="axes_2">
   <g id="patch_2">
    <path d="M 44.990313 170.3472 
L 231.803536 170.3472 
L 231.803536 48.003871 
L 44.990313 48.003871 
z
" style="fill: #ffffff"/>
   </g>
   <g id="matplotlib.axis_1">
    <g id="xtick_1">
     <g id="line2d_1">
      <defs>
       <path id="me5ab178a7e" d="M 0 0 
L 0 3 
" style="stroke: #1a1a1a; stroke-width: 0.8"/>
      </defs>
      <g>
       <use xlink:href="#me5ab178a7e" x="44.990313" y="170.3472" style="fill: #1a1a1a; stroke: #1a1a1a; stroke-width: 0.8"/>
      </g>
     </g>
     <g id="text_3">
      <!-- 0.0000 -->
      <g style="fill: #1a1a1a" transform="translate(32.347656 182.185794) scale(0.07 -0.07)">
       <defs>
        <path id="Menlo-Regular-30" d="M 1925 4734 
Q 2672 4734 3055 4125 
Q 3438 3516 3438 2322 
Q 3438 1128 3055 518 
Q 2672 -91 1925 -91 
Q 1178 -91 797 518 
Q 416 1128 416 2322 
Q 416 3516 797 4125 
Q 1178 4734 1925 4734 
z
M 1925 409 
Q 2369 409 2586 881 
Q 2803 1353 2803 2322 
Q 2803 2838 2741 3253 
L 1253 925 
Q 1488 409 1925 409 
z
M 1925 4234 
Q 1484 4234 1267 3762 
Q 1050 3291 1050 2322 
Q 1050 1881 1109 1497 
L 2566 3819 
Q 2328 4234 1925 4234 
z
" transform="scale(0.015625)"/>
        <path id="Menlo-Regular-2e" d="M 1216 1263 
L 2316 1263 
L 2316 0 
L 1216 0 
L 1216 1263 
z
" transform="scale(0.015625)"/>
       </defs>
       <use xlink:href="#Menlo-Regular-30"/>
       <use xlink:href="#Menlo-Regular-2e" transform="translate(60.205078 0)"/>
       <use xlink:href="#Menlo-Regular-30" transform="translate(120.410156 0)"/>
       <use xlink:href="#Menlo-Regular-30" transform="translate(180.615234 0)"/>
       <use xlink:href="#Menlo-Regular-30" transform="translate(240.820312 0)"/>
       <use xlink:href="#Menlo-Regular-30" transform="translate(301.025391 0)"/>
      </g>
     </g>
    </g>
    <g id="xtick_2">
     <g id="line2d_2">
      <g>
       <use xlink:href="#me5ab178a7e" x="69.887176" y="170.3472" style="fill: #1a1a1a; stroke: #1a1a1a; stroke-width: 0.8"/>
      </g>
     </g>
     <g id="text_4">
      <!-- 0.0002 -->
      <g style="fill: #1a1a1a" transform="translate(57.24452 182.185794) scale(0.07 -0.07)">
       <defs>
        <path id="Menlo-Regular-32" d="M 1166 531 
L 3309 531 
L 3309 0 
L 475 0 
L 475 531 
Q 1059 1147 1496 1619 
Q 1934 2091 2100 2284 
Q 2413 2666 2522 2902 
Q 2631 3138 2631 3384 
Q 2631 3775 2401 3997 
Q 2172 4219 1772 4219 
Q 1488 4219 1175 4116 
Q 863 4013 513 3803 
L 513 4441 
Q 834 4594 1145 4672 
Q 1456 4750 1759 4750 
Q 2444 4750 2861 4386 
Q 3278 4022 3278 3431 
Q 3278 3131 3139 2831 
Q 3000 2531 2688 2169 
Q 2513 1966 2180 1606 
Q 1847 1247 1166 531 
z
" transform="scale(0.015625)"/>
       </defs>
       <use xlink:href="#Menlo-Regular-30"/>
       <use xlink:href="#Menlo-Regular-2e" transform="translate(60.205078 0)"/>
       <use xlink:href="#Menlo-Regular-30" transform="translate(120.410156 0)"/>
       <use xlink:href="#Menlo-Regular-30" transform="translate(180.615234 0)"/>
       <use xlink:href="#Menlo-Regular-30" transform="translate(240.820312 0)"/>
       <use xlink:href="#Menlo-Regular-32" transform="translate(301.025391 0)"/>
      </g>
     </g>
    </g>
    <g id="xtick_3">
     <g id="line2d_3">
      <g>
       <use xlink:href="#me5ab178a7e" x="94.784039" y="170.3472" style="fill: #1a1a1a; stroke: #1a1a1a; stroke-width: 0.8"/>
      </g>
     </g>
     <g id="text_5">
      <!-- 0.0004 -->
      <g style="fill: #1a1a1a" transform="translate(82.141383 182.185794) scale(0.07 -0.07)">
       <defs>
        <path id="Menlo-Regular-34" d="M 2297 4091 
L 825 1625 
L 2297 1625 
L 2297 4091 
z
M 2194 4666 
L 2925 4666 
L 2925 1625 
L 3547 1625 
L 3547 1113 
L 2925 1113 
L 2925 0 
L 2297 0 
L 2297 1113 
L 319 1113 
L 319 1709 
L 2194 4666 
z
" transform="scale(0.015625)"/>
       </defs>
       <use xlink:href="#Menlo-Regular-30"/>
       <use xlink:href="#Menlo-Regular-2e" transform="translate(60.205078 0)"/>
       <use xlink:href="#Menlo-Regular-30" transform="translate(120.410156 0)"/>
       <use xlink:href="#Menlo-Regular-30" transform="translate(180.615234 0)"/>
       <use xlink:href="#Menlo-Regular-30" transform="translate(240.820312 0)"/>
       <use xlink:href="#Menlo-Regular-34" transform="translate(301.025391 0)"/>
      </g>
     </g>
    </g>
    <g id="xtick_4">
     <g id="line2d_4">
      <g>
       <use xlink:href="#me5ab178a7e" x="119.680903" y="170.3472" style="fill: #1a1a1a; stroke: #1a1a1a; stroke-width: 0.8"/>
      </g>
     </g>
     <g id="text_6">
      <!-- 0.0006 -->
      <g style="fill: #1a1a1a" transform="translate(107.038247 182.185794) scale(0.07 -0.07)">
       <defs>
        <path id="Menlo-Regular-36" d="M 3097 4563 
L 3097 3981 
Q 2900 4097 2678 4158 
Q 2456 4219 2216 4219 
Q 1616 4219 1306 3767 
Q 997 3316 997 2438 
Q 1147 2750 1412 2917 
Q 1678 3084 2022 3084 
Q 2697 3084 3067 2670 
Q 3438 2256 3438 1497 
Q 3438 741 3056 325 
Q 2675 -91 1984 -91 
Q 1172 -91 794 492 
Q 416 1075 416 2328 
Q 416 3509 870 4129 
Q 1325 4750 2188 4750 
Q 2419 4750 2650 4701 
Q 2881 4653 3097 4563 
z
M 1972 2591 
Q 1569 2591 1337 2300 
Q 1106 2009 1106 1497 
Q 1106 984 1337 693 
Q 1569 403 1972 403 
Q 2391 403 2603 679 
Q 2816 956 2816 1497 
Q 2816 2041 2603 2316 
Q 2391 2591 1972 2591 
z
" transform="scale(0.015625)"/>
       </defs>
       <use xlink:href="#Menlo-Regular-30"/>
       <use xlink:href="#Menlo-Regular-2e" transform="translate(60.205078 0)"/>
       <use xlink:href="#Menlo-Regular-30" transform="translate(120.410156 0)"/>
       <use xlink:href="#Menlo-Regular-30" transform="translate(180.615234 0)"/>
       <use xlink:href="#Menlo-Regular-30" transform="translate(240.820312 0)"/>
       <use xlink:href="#Menlo-Regular-36" transform="translate(301.025391 0)"/>
      </g>
     </g>
    </g>
    <g id="xtick_5">
     <g id="line2d_5">
      <g>
       <use xlink:href="#me5ab178a7e" x="144.577766" y="170.3472" style="fill: #1a1a1a; stroke: #1a1a1a; stroke-width: 0.8"/>
      </g>
     </g>
     <g id="text_7">
      <!-- 0.0008 -->
      <g style="fill: #1a1a1a" transform="translate(131.93511 182.185794) scale(0.07 -0.07)">
       <defs>
        <path id="Menlo-Regular-38" d="M 1925 2216 
Q 1503 2216 1273 1980 
Q 1044 1744 1044 1313 
Q 1044 881 1276 642 
Q 1509 403 1925 403 
Q 2350 403 2579 639 
Q 2809 875 2809 1313 
Q 2809 1741 2576 1978 
Q 2344 2216 1925 2216 
z
M 1375 2478 
Q 972 2581 745 2862 
Q 519 3144 519 3541 
Q 519 4097 897 4423 
Q 1275 4750 1925 4750 
Q 2578 4750 2956 4423 
Q 3334 4097 3334 3541 
Q 3334 3144 3107 2862 
Q 2881 2581 2478 2478 
Q 2947 2375 3195 2062 
Q 3444 1750 3444 1253 
Q 3444 622 3041 265 
Q 2638 -91 1925 -91 
Q 1213 -91 811 264 
Q 409 619 409 1247 
Q 409 1747 657 2061 
Q 906 2375 1375 2478 
z
M 1147 3481 
Q 1147 3106 1347 2909 
Q 1547 2713 1925 2713 
Q 2306 2713 2506 2909 
Q 2706 3106 2706 3481 
Q 2706 3863 2507 4063 
Q 2309 4263 1925 4263 
Q 1547 4263 1347 4061 
Q 1147 3859 1147 3481 
z
" transform="scale(0.015625)"/>
       </defs>
       <use xlink:href="#Menlo-Regular-30"/>
       <use xlink:href="#Menlo-Regular-2e" transform="translate(60.205078 0)"/>
       <use xlink:href="#Menlo-Regular-30" transform="translate(120.410156 0)"/>
       <use xlink:href="#Menlo-Regular-30" transform="translate(180.615234 0)"/>
       <use xlink:href="#Menlo-Regular-30" transform="translate(240.820312 0)"/>
       <use xlink:href="#Menlo-Regular-38" transform="translate(301.025391 0)"/>
      </g>
     </g>
    </g>
    <g id="xtick_6">
     <g id="line2d_6">
      <g>
       <use xlink:href="#me5ab178a7e" x="169.47463" y="170.3472" style="fill: #1a1a1a; stroke: #1a1a1a; stroke-width: 0.8"/>
      </g>
     </g>
     <g id="text_8">
      <!-- 0.0010 -->
      <g style="fill: #1a1a1a" transform="translate(156.831974 182.185794) scale(0.07 -0.07)">
       <defs>
        <path id="Menlo-Regular-31" d="M 844 528 
L 1825 528 
L 1825 4053 
L 650 3488 
L 650 4094 
L 1819 4650 
L 2450 4650 
L 2450 528 
L 3419 528 
L 3419 0 
L 844 0 
L 844 528 
z
" transform="scale(0.015625)"/>
       </defs>
       <use xlink:href="#Menlo-Regular-30"/>
       <use xlink:href="#Menlo-Regular-2e" transform="translate(60.205078 0)"/>
       <use xlink:href="#Menlo-Regular-30" transform="translate(120.410156 0)"/>
       <use xlink:href="#Menlo-Regular-30" transform="translate(180.615234 0)"/>
       <use xlink:href="#Menlo-Regular-31" transform="translate(240.820312 0)"/>
       <use xlink:href="#Menlo-Regular-30" transform="translate(301.025391 0)"/>
      </g>
     </g>
    </g>
    <g id="xtick_7">
     <g id="line2d_7">
      <g>
       <use xlink:href="#me5ab178a7e" x="194.371493" y="170.3472" style="fill: #1a1a1a; stroke: #1a1a1a; stroke-width: 0.8"/>
      </g>
     </g>
     <g id="text_9">
      <!-- 0.0012 -->
      <g style="fill: #1a1a1a" transform="translate(181.728837 182.185794) scale(0.07 -0.07)">
       <use xlink:href="#Menlo-Regular-30"/>
       <use xlink:href="#Menlo-Regular-2e" transform="translate(60.205078 0)"/>
       <use xlink:href="#Menlo-Regular-30" transform="translate(120.410156 0)"/>
       <use xlink:href="#Menlo-Regular-30" transform="translate(180.615234 0)"/>
       <use xlink:href="#Menlo-Regular-31" transform="translate(240.820312 0)"/>
       <use xlink:href="#Menlo-Regular-32" transform="translate(301.025391 0)"/>
      </g>
     </g>
    </g>
    <g id="xtick_8">
     <g id="line2d_8">
      <g>
       <use xlink:href="#me5ab178a7e" x="219.268357" y="170.3472" style="fill: #1a1a1a; stroke: #1a1a1a; stroke-width: 0.8"/>
      </g>
     </g>
     <g id="text_10">
      <!-- 0.0014 -->
      <g style="fill: #1a1a1a" transform="translate(206.625701 182.185794) scale(0.07 -0.07)">
       <use xlink:href="#Menlo-Regular-30"/>
       <use xlink:href="#Menlo-Regular-2e" transform="translate(60.205078 0)"/>
       <use xlink:href="#Menlo-Regular-30" transform="translate(120.410156 0)"/>
       <use xlink:href="#Menlo-Regular-30" transform="translate(180.615234 0)"/>
       <use xlink:href="#Menlo-Regular-31" transform="translate(240.820312 0)"/>
       <use xlink:href="#Menlo-Regular-34" transform="translate(301.025391 0)"/>
      </g>
     </g>
    </g>
    <g id="text_11">
     <!-- conductance magnitude (surviving &gt; 0) -->
     <g style="fill: #1a1a1a" transform="translate(49.296299 194.102825) scale(0.08 -0.08)">
      <defs>
       <path id="Menlo-Regular-6d" d="M 2113 3144 
Q 2219 3369 2383 3476 
Q 2547 3584 2778 3584 
Q 3200 3584 3373 3257 
Q 3547 2931 3547 2028 
L 3547 0 
L 3022 0 
L 3022 2003 
Q 3022 2744 2939 2923 
Q 2856 3103 2638 3103 
Q 2388 3103 2295 2911 
Q 2203 2719 2203 2003 
L 2203 0 
L 1678 0 
L 1678 2003 
Q 1678 2753 1589 2928 
Q 1500 3103 1269 3103 
Q 1041 3103 952 2911 
Q 863 2719 863 2003 
L 863 0 
L 341 0 
L 341 3500 
L 863 3500 
L 863 3200 
Q 966 3388 1120 3486 
Q 1275 3584 1472 3584 
Q 1709 3584 1867 3475 
Q 2025 3366 2113 3144 
z
" transform="scale(0.015625)"/>
       <path id="Menlo-Regular-3e" d="M 275 3003 
L 275 3572 
L 3578 2266 
L 3578 1747 
L 275 441 
L 275 1013 
L 2931 2003 
L 275 3003 
z
" transform="scale(0.015625)"/>
      </defs>
      <use xlink:href="#Menlo-Regular-63"/>
      <use xlink:href="#Menlo-Regular-6f" transform="translate(60.205078 0)"/>
      <use xlink:href="#Menlo-Regular-6e" transform="translate(120.410156 0)"/>
      <use xlink:href="#Menlo-Regular-64" transform="translate(180.615234 0)"/>
      <use xlink:href="#Menlo-Regular-75" transform="translate(240.820312 0)"/>
      <use xlink:href="#Menlo-Regular-63" transform="translate(301.025391 0)"/>
      <use xlink:href="#Menlo-Regular-74" transform="translate(361.230469 0)"/>
      <use xlink:href="#Menlo-Regular-61" transform="translate(421.435547 0)"/>
      <use xlink:href="#Menlo-Regular-6e" transform="translate(481.640625 0)"/>
      <use xlink:href="#Menlo-Regular-63" transform="translate(541.845703 0)"/>
      <use xlink:href="#Menlo-Regular-65" transform="translate(602.050781 0)"/>
      <use xlink:href="#Menlo-Regular-20" transform="translate(662.255859 0)"/>
      <use xlink:href="#Menlo-Regular-6d" transform="translate(722.460938 0)"/>
      <use xlink:href="#Menlo-Regular-61" transform="translate(782.666016 0)"/>
      <use xlink:href="#Menlo-Regular-67" transform="translate(842.871094 0)"/>
      <use xlink:href="#Menlo-Regular-6e" transform="translate(903.076172 0)"/>
      <use xlink:href="#Menlo-Regular-69" transform="translate(963.28125 0)"/>
      <use xlink:href="#Menlo-Regular-74" transform="translate(1023.486328 0)"/>
      <use xlink:href="#Menlo-Regular-75" transform="translate(1083.691406 0)"/>
      <use xlink:href="#Menlo-Regular-64" transform="translate(1143.896484 0)"/>
      <use xlink:href="#Menlo-Regular-65" transform="translate(1204.101562 0)"/>
      <use xlink:href="#Menlo-Regular-20" transform="translate(1264.306641 0)"/>
      <use xlink:href="#Menlo-Regular-28" transform="translate(1324.511719 0)"/>
      <use xlink:href="#Menlo-Regular-73" transform="translate(1384.716797 0)"/>
      <use xlink:href="#Menlo-Regular-75" transform="translate(1444.921875 0)"/>
      <use xlink:href="#Menlo-Regular-72" transform="translate(1505.126953 0)"/>
      <use xlink:href="#Menlo-Regular-76" transform="translate(1565.332031 0)"/>
      <use xlink:href="#Menlo-Regular-69" transform="translate(1625.537109 0)"/>
      <use xlink:href="#Menlo-Regular-76" transform="translate(1685.742188 0)"/>
      <use xlink:href="#Menlo-Regular-69" transform="translate(1745.947266 0)"/>
      <use xlink:href="#Menlo-Regular-6e" transform="translate(1806.152344 0)"/>
      <use xlink:href="#Menlo-Regular-67" transform="translate(1866.357422 0)"/>
      <use xlink:href="#Menlo-Regular-20" transform="translate(1926.5625 0)"/>
      <use xlink:href="#Menlo-Regular-3e" transform="translate(1986.767578 0)"/>
      <use xlink:href="#Menlo-Regular-20" transform="translate(2046.972656 0)"/>
      <use xlink:href="#Menlo-Regular-30" transform="translate(2107.177734 0)"/>
      <use xlink:href="#Menlo-Regular-29" transform="translate(2167.382812 0)"/>
     </g>
    </g>
   </g>
   <g id="matplotlib.axis_2">
    <g id="ytick_1">
     <g id="line2d_9">
      <defs>
       <path id="m319c77264e" d="M 0 0 
L -3 0 
" style="stroke: #1a1a1a; stroke-width: 0.8"/>
      </defs>
      <g>
       <use xlink:href="#m319c77264e" x="44.990313" y="170.3472" style="fill: #1a1a1a; stroke: #1a1a1a; stroke-width: 0.8"/>
      </g>
     </g>
     <g id="text_12">
      <!-- 0 -->
      <g style="fill: #1a1a1a" transform="translate(34.276094 173.016497) scale(0.07 -0.07)">
       <use xlink:href="#Menlo-Regular-30"/>
      </g>
     </g>
    </g>
    <g id="ytick_2">
     <g id="line2d_10">
      <g>
       <use xlink:href="#m319c77264e" x="44.990313" y="146.464555" style="fill: #1a1a1a; stroke: #1a1a1a; stroke-width: 0.8"/>
      </g>
     </g>
     <g id="text_13">
      <!-- 20000 -->
      <g style="fill: #1a1a1a" transform="translate(17.419219 149.133851) scale(0.07 -0.07)">
       <use xlink:href="#Menlo-Regular-32"/>
       <use xlink:href="#Menlo-Regular-30" transform="translate(60.205078 0)"/>
       <use xlink:href="#Menlo-Regular-30" transform="translate(120.410156 0)"/>
       <use xlink:href="#Menlo-Regular-30" transform="translate(180.615234 0)"/>
       <use xlink:href="#Menlo-Regular-30" transform="translate(240.820312 0)"/>
      </g>
     </g>
    </g>
    <g id="ytick_3">
     <g id="line2d_11">
      <g>
       <use xlink:href="#m319c77264e" x="44.990313" y="122.581909" style="fill: #1a1a1a; stroke: #1a1a1a; stroke-width: 0.8"/>
      </g>
     </g>
     <g id="text_14">
      <!-- 40000 -->
      <g style="fill: #1a1a1a" transform="translate(17.419219 125.251206) scale(0.07 -0.07)">
       <use xlink:href="#Menlo-Regular-34"/>
       <use xlink:href="#Menlo-Regular-30" transform="translate(60.205078 0)"/>
       <use xlink:href="#Menlo-Regular-30" transform="translate(120.410156 0)"/>
       <use xlink:href="#Menlo-Regular-30" transform="translate(180.615234 0)"/>
       <use xlink:href="#Menlo-Regular-30" transform="translate(240.820312 0)"/>
      </g>
     </g>
    </g>
    <g id="ytick_4">
     <g id="line2d_12">
      <g>
       <use xlink:href="#m319c77264e" x="44.990313" y="98.699264" style="fill: #1a1a1a; stroke: #1a1a1a; stroke-width: 0.8"/>
      </g>
     </g>
     <g id="text_15">
      <!-- 60000 -->
      <g style="fill: #1a1a1a" transform="translate(17.419219 101.368561) scale(0.07 -0.07)">
       <use xlink:href="#Menlo-Regular-36"/>
       <use xlink:href="#Menlo-Regular-30" transform="translate(60.205078 0)"/>
       <use xlink:href="#Menlo-Regular-30" transform="translate(120.410156 0)"/>
       <use xlink:href="#Menlo-Regular-30" transform="translate(180.615234 0)"/>
       <use xlink:href="#Menlo-Regular-30" transform="translate(240.820312 0)"/>
      </g>
     </g>
    </g>
    <g id="ytick_5">
     <g id="line2d_13">
      <g>
       <use xlink:href="#m319c77264e" x="44.990313" y="74.816618" style="fill: #1a1a1a; stroke: #1a1a1a; stroke-width: 0.8"/>
      </g>
     </g>
     <g id="text_16">
      <!-- 80000 -->
      <g style="fill: #1a1a1a" transform="translate(17.419219 77.485915) scale(0.07 -0.07)">
       <use xlink:href="#Menlo-Regular-38"/>
       <use xlink:href="#Menlo-Regular-30" transform="translate(60.205078 0)"/>
       <use xlink:href="#Menlo-Regular-30" transform="translate(120.410156 0)"/>
       <use xlink:href="#Menlo-Regular-30" transform="translate(180.615234 0)"/>
       <use xlink:href="#Menlo-Regular-30" transform="translate(240.820312 0)"/>
      </g>
     </g>
    </g>
    <g id="ytick_6">
     <g id="line2d_14">
      <g>
       <use xlink:href="#m319c77264e" x="44.990313" y="50.933973" style="fill: #1a1a1a; stroke: #1a1a1a; stroke-width: 0.8"/>
      </g>
     </g>
     <g id="text_17">
      <!-- 100000 -->
      <g style="fill: #1a1a1a" transform="translate(13.205 53.60327) scale(0.07 -0.07)">
       <use xlink:href="#Menlo-Regular-31"/>
       <use xlink:href="#Menlo-Regular-30" transform="translate(60.205078 0)"/>
       <use xlink:href="#Menlo-Regular-30" transform="translate(120.410156 0)"/>
       <use xlink:href="#Menlo-Regular-30" transform="translate(180.615234 0)"/>
       <use xlink:href="#Menlo-Regular-30" transform="translate(240.820312 0)"/>
       <use xlink:href="#Menlo-Regular-30" transform="translate(301.025391 0)"/>
      </g>
     </g>
    </g>
    <g id="text_18">
     <!-- entry count -->
     <g style="fill: #1a1a1a" transform="translate(7.54125 135.664911) rotate(-90) scale(0.08 -0.08)">
      <defs>
       <path id="Menlo-Regular-79" d="M 2681 1125 
Q 2538 759 2316 163 
Q 2006 -663 1900 -844 
Q 1756 -1088 1540 -1209 
Q 1325 -1331 1038 -1331 
L 575 -1331 
L 575 -850 
L 916 -850 
Q 1169 -850 1312 -703 
Q 1456 -556 1678 56 
L 325 3500 
L 934 3500 
L 1972 763 
L 2994 3500 
L 3603 3500 
L 2681 1125 
z
" transform="scale(0.015625)"/>
      </defs>
      <use xlink:href="#Menlo-Regular-65"/>
      <use xlink:href="#Menlo-Regular-6e" transform="translate(60.205078 0)"/>
      <use xlink:href="#Menlo-Regular-74" transform="translate(120.410156 0)"/>
      <use xlink:href="#Menlo-Regular-72" transform="translate(180.615234 0)"/>
      <use xlink:href="#Menlo-Regular-79" transform="translate(240.820312 0)"/>
      <use xlink:href="#Menlo-Regular-20" transform="translate(301.025391 0)"/>
      <use xlink:href="#Menlo-Regular-63" transform="translate(361.230469 0)"/>
      <use xlink:href="#Menlo-Regular-6f" transform="translate(421.435547 0)"/>
      <use xlink:href="#Menlo-Regular-75" transform="translate(481.640625 0)"/>
      <use xlink:href="#Menlo-Regular-6e" transform="translate(541.845703 0)"/>
      <use xlink:href="#Menlo-Regular-74" transform="translate(602.050781 0)"/>
     </g>
    </g>
   </g>
   <g id="patch_3">
    <path d="M 44.990313 170.3472 
L 44.990313 170.3472 
L 48.802827 170.3472 
L 48.802827 170.3472 
L 52.615342 170.3472 
L 52.615342 170.3472 
L 56.427857 170.3472 
L 56.427857 170.3472 
L 60.240372 170.3472 
L 60.240372 170.3472 
L 64.052886 170.3472 
L 64.052886 170.3472 
L 67.865401 170.3472 
L 67.865401 170.3472 
L 71.677916 170.3472 
L 71.677916 170.3472 
L 75.490431 170.3472 
L 75.490431 170.3472 
L 79.302945 170.3472 
L 79.302945 170.3472 
L 83.11546 170.3472 
L 83.11546 170.3472 
L 86.927975 170.3472 
L 86.927975 170.3472 
L 90.74049 170.3472 
L 90.74049 170.3472 
L 94.553004 170.3472 
L 94.553004 170.3472 
L 98.365519 170.3472 
L 98.365519 170.3472 
L 102.178034 170.3472 
L 102.178034 170.3472 
L 105.990549 170.3472 
L 105.990549 170.346006 
L 109.803063 170.346006 
L 109.803063 170.343618 
L 113.615578 170.343618 
L 113.615578 170.3269 
L 117.428093 170.3269 
L 117.428093 170.261222 
L 121.240608 170.261222 
L 121.240608 170.13345 
L 125.053122 170.13345 
L 125.053122 169.702369 
L 128.865637 169.702369 
L 128.865637 168.794828 
L 132.678152 168.794828 
L 132.678152 166.499706 
L 136.490667 166.499706 
L 136.490667 162.049175 
L 140.303181 162.049175 
L 140.303181 154.357769 
L 144.115696 154.357769 
L 144.115696 141.925658 
L 147.928211 141.925658 
L 147.928211 124.762395 
L 151.740726 124.762395 
L 151.740726 103.305032 
L 155.55324 103.305032 
L 155.55324 81.865581 
L 159.365755 81.865581 
L 159.365755 63.779254 
L 163.17827 63.779254 
L 163.17827 53.829744 
L 166.990785 53.829744 
L 166.990785 56.103372 
L 170.8033 56.103372 
L 170.8033 67.158648 
L 174.615814 67.158648 
L 174.615814 86.288647 
L 178.428329 86.288647 
L 178.428329 108.186645 
L 182.240844 108.186645 
L 182.240844 129.032612 
L 186.053359 129.032612 
L 186.053359 145.08772 
L 189.865873 145.08772 
L 189.865873 156.609902 
L 193.678388 156.609902 
L 193.678388 163.597964 
L 197.490903 163.597964 
L 197.490903 167.212603 
L 201.303418 167.212603 
L 201.303418 169.093361 
L 205.115932 169.093361 
L 205.115932 169.8588 
L 208.928447 169.8588 
L 208.928447 170.170468 
L 212.740962 170.170468 
L 212.740962 170.300629 
L 216.553477 170.300629 
L 216.553477 170.331676 
L 220.365991 170.331676 
L 220.365991 170.343618 
L 224.178506 170.343618 
L 224.178506 170.3472 
L 227.991021 170.3472 
L 227.991021 170.3472 
L 231.803536 170.3472 
L 231.803536 170.3472 
L 227.991021 170.3472 
L 227.991021 170.3472 
L 224.178506 170.3472 
L 224.178506 170.3472 
L 220.365991 170.3472 
L 220.365991 170.3472 
L 216.553477 170.3472 
L 216.553477 170.3472 
L 212.740962 170.3472 
L 212.740962 170.3472 
L 208.928447 170.3472 
L 208.928447 170.3472 
L 205.115932 170.3472 
L 205.115932 170.3472 
L 201.303418 170.3472 
L 201.303418 170.3472 
L 197.490903 170.3472 
L 197.490903 170.3472 
L 193.678388 170.3472 
L 193.678388 170.3472 
L 189.865873 170.3472 
L 189.865873 170.3472 
L 186.053359 170.3472 
L 186.053359 170.3472 
L 182.240844 170.3472 
L 182.240844 170.3472 
L 178.428329 170.3472 
L 178.428329 170.3472 
L 174.615814 170.3472 
L 174.615814 170.3472 
L 170.8033 170.3472 
L 170.8033 170.3472 
L 166.990785 170.3472 
L 166.990785 170.3472 
L 163.17827 170.3472 
L 163.17827 170.3472 
L 159.365755 170.3472 
L 159.365755 170.3472 
L 155.55324 170.3472 
L 155.55324 170.3472 
L 151.740726 170.3472 
L 151.740726 170.3472 
L 147.928211 170.3472 
L 147.928211 170.3472 
L 144.115696 170.3472 
L 144.115696 170.3472 
L 140.303181 170.3472 
L 140.303181 170.3472 
L 136.490667 170.3472 
L 136.490667 170.3472 
L 132.678152 170.3472 
L 132.678152 170.3472 
L 128.865637 170.3472 
L 128.865637 170.3472 
L 125.053122 170.3472 
L 125.053122 170.3472 
L 121.240608 170.3472 
L 121.240608 170.3472 
L 117.428093 170.3472 
L 117.428093 170.3472 
L 113.615578 170.3472 
L 113.615578 170.3472 
L 109.803063 170.3472 
L 109.803063 170.3472 
L 105.990549 170.3472 
L 105.990549 170.3472 
L 102.178034 170.3472 
L 102.178034 170.3472 
L 98.365519 170.3472 
L 98.365519 170.3472 
L 94.553004 170.3472 
L 94.553004 170.3472 
L 90.74049 170.3472 
L 90.74049 170.3472 
L 86.927975 170.3472 
L 86.927975 170.3472 
L 83.11546 170.3472 
L 83.11546 170.3472 
L 79.302945 170.3472 
L 79.302945 170.3472 
L 75.490431 170.3472 
L 75.490431 170.3472 
L 71.677916 170.3472 
L 71.677916 170.3472 
L 67.865401 170.3472 
L 67.865401 170.3472 
L 64.052886 170.3472 
L 64.052886 170.3472 
L 60.240372 170.3472 
L 60.240372 170.3472 
L 56.427857 170.3472 
L 56.427857 170.3472 
L 52.615342 170.3472 
L 52.615342 170.3472 
L 48.802827 170.3472 
L 48.802827 170.3472 
z
" clip-path="url(#p7e15897f72)" style="fill: #1a1a1a; opacity: 0.32; stroke: #1a1a1a; stroke-width: 0.8; stroke-linejoin: miter"/>
   </g>
   <g id="patch_4">
    <path d="M 44.990313 170.3472 
L 44.990313 170.3472 
L 48.802827 170.3472 
L 48.802827 170.3472 
L 52.615342 170.3472 
L 52.615342 170.3472 
L 56.427857 170.3472 
L 56.427857 170.3472 
L 60.240372 170.3472 
L 60.240372 170.3472 
L 64.052886 170.3472 
L 64.052886 170.3472 
L 67.865401 170.3472 
L 67.865401 170.3472 
L 71.677916 170.3472 
L 71.677916 170.3472 
L 75.490431 170.3472 
L 75.490431 170.3472 
L 79.302945 170.3472 
L 79.302945 170.3472 
L 83.11546 170.3472 
L 83.11546 170.3472 
L 86.927975 170.3472 
L 86.927975 170.3472 
L 90.74049 170.3472 
L 90.74049 170.3472 
L 94.553004 170.3472 
L 94.553004 170.3472 
L 98.365519 170.3472 
L 98.365519 170.3472 
L 102.178034 170.3472 
L 102.178034 170.3472 
L 105.990549 170.3472 
L 105.990549 170.346006 
L 109.803063 170.346006 
L 109.803063 170.343618 
L 113.615578 170.343618 
L 113.615578 170.3269 
L 117.428093 170.3269 
L 117.428093 170.261222 
L 121.240608 170.261222 
L 121.240608 170.13345 
L 125.053122 170.13345 
L 125.053122 169.702369 
L 128.865637 169.702369 
L 128.865637 168.794828 
L 132.678152 168.794828 
L 132.678152 166.499706 
L 136.490667 166.499706 
L 136.490667 162.049175 
L 140.303181 162.049175 
L 140.303181 154.357769 
L 144.115696 154.357769 
L 144.115696 141.925658 
L 147.928211 141.925658 
L 147.928211 124.762395 
L 151.740726 124.762395 
L 151.740726 103.305032 
L 155.55324 103.305032 
L 155.55324 81.865581 
L 159.365755 81.865581 
L 159.365755 63.779254 
L 163.17827 63.779254 
L 163.17827 53.829744 
L 166.990785 53.829744 
L 166.990785 56.103372 
L 170.8033 56.103372 
L 170.8033 67.158648 
L 174.615814 67.158648 
L 174.615814 86.288647 
L 178.428329 86.288647 
L 178.428329 108.186645 
L 182.240844 108.186645 
L 182.240844 129.032612 
L 186.053359 129.032612 
L 186.053359 145.08772 
L 189.865873 145.08772 
L 189.865873 156.609902 
L 193.678388 156.609902 
L 193.678388 163.597964 
L 197.490903 163.597964 
L 197.490903 167.212603 
L 201.303418 167.212603 
L 201.303418 169.093361 
L 205.115932 169.093361 
L 205.115932 169.8588 
L 208.928447 169.8588 
L 208.928447 170.170468 
L 212.740962 170.170468 
L 212.740962 170.300629 
L 216.553477 170.300629 
L 216.553477 170.331676 
L 220.365991 170.331676 
L 220.365991 170.343618 
L 224.178506 170.343618 
L 224.178506 170.3472 
L 227.991021 170.3472 
L 227.991021 170.3472 
L 231.803536 170.3472 
L 231.803536 170.3472 
" clip-path="url(#p7e15897f72)" style="fill: none; stroke: #1a1a1a; stroke-width: 1.6; stroke-linejoin: miter"/>
   </g>
   <g id="line2d_15">
    <path d="M 166.557029 170.3472 
L 166.557029 48.003871 
" clip-path="url(#p7e15897f72)" style="fill: none; stroke-dasharray: 0.9,1.485; stroke-dashoffset: 0; stroke: #6a6a6a; stroke-width: 0.9"/>
   </g>
   <g id="patch_5">
    <path d="M 44.990313 170.3472 
L 44.990313 48.003871 
" style="fill: none; stroke: #1a1a1a; stroke-width: 0.8; stroke-linejoin: miter; stroke-linecap: square"/>
   </g>
   <g id="patch_6">
    <path d="M 44.990313 170.3472 
L 231.803536 170.3472 
" style="fill: none; stroke: #1a1a1a; stroke-width: 0.8; stroke-linejoin: miter; stroke-linecap: square"/>
   </g>
   <g id="text_19">
    <!--   canonical -->
    <g style="fill: #6a6a6a" transform="translate(171.514294 130.698153) rotate(-90) scale(0.065 -0.065)">
     <use xlink:href="#Menlo-Regular-20"/>
     <use xlink:href="#Menlo-Regular-20" transform="translate(60.205078 0)"/>
     <use xlink:href="#Menlo-Regular-63" transform="translate(120.410156 0)"/>
     <use xlink:href="#Menlo-Regular-61" transform="translate(180.615234 0)"/>
     <use xlink:href="#Menlo-Regular-6e" transform="translate(240.820312 0)"/>
     <use xlink:href="#Menlo-Regular-6f" transform="translate(301.025391 0)"/>
     <use xlink:href="#Menlo-Regular-6e" transform="translate(361.230469 0)"/>
     <use xlink:href="#Menlo-Regular-69" transform="translate(421.435547 0)"/>
     <use xlink:href="#Menlo-Regular-63" transform="translate(481.640625 0)"/>
     <use xlink:href="#Menlo-Regular-61" transform="translate(541.845703 0)"/>
     <use xlink:href="#Menlo-Regular-6c" transform="translate(602.050781 0)"/>
    </g>
   </g>
   <g id="text_20">
    <g id="patch_7">
     <path d="M 73.407278 91.128982 
L 229.935403 91.128982 
Q 232.535403 91.128982 232.535403 88.528982 
L 232.535403 74.919403 
Q 232.535403 72.319403 229.935403 72.319403 
L 73.407278 72.319403 
Q 70.807278 72.319403 70.807278 74.919403 
L 70.807278 88.528982 
Q 70.807278 91.128982 73.407278 91.128982 
z
" style="fill: #ffffff; opacity: 0.95; stroke: #6a6a6a; stroke-width: 0.5; stroke-linejoin: miter"/>
    </g>
    <!-- init     mean = 0.0010    pruned =  0.0% -->
    <g style="fill: #888888" transform="translate(73.407278 79.876669) scale(0.065 -0.065)">
     <defs>
      <path id="Menlo-Regular-3d" d="M 275 1563 
L 3578 1563 
L 3578 1034 
L 275 1034 
L 275 1563 
z
M 275 3034 
L 3578 3034 
L 3578 2506 
L 275 2506 
L 275 3034 
z
" transform="scale(0.015625)"/>
      <path id="Menlo-Regular-25" d="M 2175 997 
Q 2175 753 2339 587 
Q 2503 422 2747 422 
Q 2988 422 3155 589 
Q 3322 756 3322 997 
Q 3322 1238 3153 1406 
Q 2984 1575 2747 1575 
Q 2503 1575 2339 1409 
Q 2175 1244 2175 997 
z
M 1753 997 
Q 1753 1419 2040 1708 
Q 2328 1997 2747 1997 
Q 2947 1997 3126 1922 
Q 3306 1847 3450 1703 
Q 3594 1556 3672 1375 
Q 3750 1194 3750 997 
Q 3750 581 3459 290 
Q 3169 0 2747 0 
Q 2322 0 2037 286 
Q 1753 572 1753 997 
z
M 259 1375 
L 122 1728 
L 3606 3122 
L 3763 2769 
L 259 1375 
z
M 525 3475 
Q 525 3228 689 3064 
Q 853 2900 1100 2900 
Q 1341 2900 1509 3067 
Q 1678 3234 1678 3475 
Q 1678 3716 1509 3883 
Q 1341 4050 1100 4050 
Q 859 4050 692 3884 
Q 525 3719 525 3475 
z
M 103 3475 
Q 103 3897 390 4186 
Q 678 4475 1100 4475 
Q 1300 4475 1483 4400 
Q 1666 4325 1806 4184 
Q 1947 4044 2023 3861 
Q 2100 3678 2100 3475 
Q 2100 3056 1809 2767 
Q 1519 2478 1100 2478 
Q 678 2478 390 2765 
Q 103 3053 103 3475 
z
" transform="scale(0.015625)"/>
     </defs>
     <use xlink:href="#Menlo-Regular-69"/>
     <use xlink:href="#Menlo-Regular-6e" transform="translate(60.205078 0)"/>
     <use xlink:href="#Menlo-Regular-69" transform="translate(120.410156 0)"/>
     <use xlink:href="#Menlo-Regular-74" transform="translate(180.615234 0)"/>
     <use xlink:href="#Menlo-Regular-20" transform="translate(240.820312 0)"/>
     <use xlink:href="#Menlo-Regular-20" transform="translate(301.025391 0)"/>
     <use xlink:href="#Menlo-Regular-20" transform="translate(361.230469 0)"/>
     <use xlink:href="#Menlo-Regular-20" transform="translate(421.435547 0)"/>
     <use xlink:href="#Menlo-Regular-20" transform="translate(481.640625 0)"/>
     <use xlink:href="#Menlo-Regular-6d" transform="translate(541.845703 0)"/>
     <use xlink:href="#Menlo-Regular-65" transform="translate(602.050781 0)"/>
     <use xlink:href="#Menlo-Regular-61" transform="translate(662.255859 0)"/>
     <use xlink:href="#Menlo-Regular-6e" transform="translate(722.460938 0)"/>
     <use xlink:href="#Menlo-Regular-20" transform="translate(782.666016 0)"/>
     <use xlink:href="#Menlo-Regular-3d" transform="translate(842.871094 0)"/>
     <use xlink:href="#Menlo-Regular-20" transform="translate(903.076172 0)"/>
     <use xlink:href="#Menlo-Regular-30" transform="translate(963.28125 0)"/>
     <use xlink:href="#Menlo-Regular-2e" transform="translate(1023.486328 0)"/>
     <use xlink:href="#Menlo-Regular-30" transform="translate(1083.691406 0)"/>
     <use xlink:href="#Menlo-Regular-30" transform="translate(1143.896484 0)"/>
     <use xlink:href="#Menlo-Regular-31" transform="translate(1204.101562 0)"/>
     <use xlink:href="#Menlo-Regular-30" transform="translate(1264.306641 0)"/>
     <use xlink:href="#Menlo-Regular-20" transform="translate(1324.511719 0)"/>
     <use xlink:href="#Menlo-Regular-20" transform="translate(1384.716797 0)"/>
     <use xlink:href="#Menlo-Regular-20" transform="translate(1444.921875 0)"/>
     <use xlink:href="#Menlo-Regular-20" transform="translate(1505.126953 0)"/>
     <use xlink:href="#Menlo-Regular-70" transform="translate(1565.332031 0)"/>
     <use xlink:href="#Menlo-Regular-72" transform="translate(1625.537109 0)"/>
     <use xlink:href="#Menlo-Regular-75" transform="translate(1685.742188 0)"/>
     <use xlink:href="#Menlo-Regular-6e" transform="translate(1745.947266 0)"/>
     <use xlink:href="#Menlo-Regular-65" transform="translate(1806.152344 0)"/>
     <use xlink:href="#Menlo-Regular-64" transform="translate(1866.357422 0)"/>
     <use xlink:href="#Menlo-Regular-20" transform="translate(1926.5625 0)"/>
     <use xlink:href="#Menlo-Regular-3d" transform="translate(1986.767578 0)"/>
     <use xlink:href="#Menlo-Regular-20" transform="translate(2046.972656 0)"/>
     <use xlink:href="#Menlo-Regular-20" transform="translate(2107.177734 0)"/>
     <use xlink:href="#Menlo-Regular-30" transform="translate(2167.382812 0)"/>
     <use xlink:href="#Menlo-Regular-2e" transform="translate(2227.587891 0)"/>
     <use xlink:href="#Menlo-Regular-30" transform="translate(2287.792969 0)"/>
     <use xlink:href="#Menlo-Regular-25" transform="translate(2347.998047 0)"/>
    </g>
    <!-- trained  mean = 0.0010    pruned =  0.0% -->
    <g style="fill: #888888" transform="translate(73.407278 87.177185) scale(0.065 -0.065)">
     <use xlink:href="#Menlo-Regular-74"/>
     <use xlink:href="#Menlo-Regular-72" transform="translate(60.205078 0)"/>
     <use xlink:href="#Menlo-Regular-61" transform="translate(120.410156 0)"/>
     <use xlink:href="#Menlo-Regular-69" transform="translate(180.615234 0)"/>
     <use xlink:href="#Menlo-Regular-6e" transform="translate(240.820312 0)"/>
     <use xlink:href="#Menlo-Regular-65" transform="translate(301.025391 0)"/>
     <use xlink:href="#Menlo-Regular-64" transform="translate(361.230469 0)"/>
     <use xlink:href="#Menlo-Regular-20" transform="translate(421.435547 0)"/>
     <use xlink:href="#Menlo-Regular-20" transform="translate(481.640625 0)"/>
     <use xlink:href="#Menlo-Regular-6d" transform="translate(541.845703 0)"/>
     <use xlink:href="#Menlo-Regular-65" transform="translate(602.050781 0)"/>
     <use xlink:href="#Menlo-Regular-61" transform="translate(662.255859 0)"/>
     <use xlink:href="#Menlo-Regular-6e" transform="translate(722.460938 0)"/>
     <use xlink:href="#Menlo-Regular-20" transform="translate(782.666016 0)"/>
     <use xlink:href="#Menlo-Regular-3d" transform="translate(842.871094 0)"/>
     <use xlink:href="#Menlo-Regular-20" transform="translate(903.076172 0)"/>
     <use xlink:href="#Menlo-Regular-30" transform="translate(963.28125 0)"/>
     <use xlink:href="#Menlo-Regular-2e" transform="translate(1023.486328 0)"/>
     <use xlink:href="#Menlo-Regular-30" transform="translate(1083.691406 0)"/>
     <use xlink:href="#Menlo-Regular-30" transform="translate(1143.896484 0)"/>
     <use xlink:href="#Menlo-Regular-31" transform="translate(1204.101562 0)"/>
     <use xlink:href="#Menlo-Regular-30" transform="translate(1264.306641 0)"/>
     <use xlink:href="#Menlo-Regular-20" transform="translate(1324.511719 0)"/>
     <use xlink:href="#Menlo-Regular-20" transform="translate(1384.716797 0)"/>
     <use xlink:href="#Menlo-Regular-20" transform="translate(1444.921875 0)"/>
     <use xlink:href="#Menlo-Regular-20" transform="translate(1505.126953 0)"/>
     <use xlink:href="#Menlo-Regular-70" transform="translate(1565.332031 0)"/>
     <use xlink:href="#Menlo-Regular-72" transform="translate(1625.537109 0)"/>
     <use xlink:href="#Menlo-Regular-75" transform="translate(1685.742188 0)"/>
     <use xlink:href="#Menlo-Regular-6e" transform="translate(1745.947266 0)"/>
     <use xlink:href="#Menlo-Regular-65" transform="translate(1806.152344 0)"/>
     <use xlink:href="#Menlo-Regular-64" transform="translate(1866.357422 0)"/>
     <use xlink:href="#Menlo-Regular-20" transform="translate(1926.5625 0)"/>
     <use xlink:href="#Menlo-Regular-3d" transform="translate(1986.767578 0)"/>
     <use xlink:href="#Menlo-Regular-20" transform="translate(2046.972656 0)"/>
     <use xlink:href="#Menlo-Regular-20" transform="translate(2107.177734 0)"/>
     <use xlink:href="#Menlo-Regular-30" transform="translate(2167.382812 0)"/>
     <use xlink:href="#Menlo-Regular-2e" transform="translate(2227.587891 0)"/>
     <use xlink:href="#Menlo-Regular-30" transform="translate(2287.792969 0)"/>
     <use xlink:href="#Menlo-Regular-25" transform="translate(2347.998047 0)"/>
    </g>
   </g>
   <g id="text_21">
    <!-- $W^{EI}$  (1024 × 256) -->
    <g style="fill: #1a1a1a" transform="translate(44.990313 44.003871) scale(0.08 -0.08)">
     <defs>
      <path id="DejaVuSans-Oblique-57" d="M 616 4666 
L 1228 4666 
L 1453 697 
L 3213 4666 
L 3916 4666 
L 4147 697 
L 5888 4666 
L 6528 4666 
L 4453 0 
L 3659 0 
L 3444 3891 
L 1697 0 
L 903 0 
L 616 4666 
z
" transform="scale(0.015625)"/>
      <path id="DejaVuSans-Oblique-45" d="M 1081 4666 
L 4031 4666 
L 3928 4134 
L 1606 4134 
L 1338 2753 
L 3566 2753 
L 3463 2222 
L 1234 2222 
L 909 531 
L 3284 531 
L 3181 0 
L 172 0 
L 1081 4666 
z
" transform="scale(0.015625)"/>
      <path id="DejaVuSans-Oblique-49" d="M 1081 4666 
L 1716 4666 
L 806 0 
L 172 0 
L 1081 4666 
z
" transform="scale(0.015625)"/>
      <path id="Menlo-Regular-d7" d="M 469 916 
L 1563 2003 
L 469 3097 
L 831 3463 
L 1925 2369 
L 3022 3463 
L 3384 3097 
L 2291 2003 
L 3378 916 
L 3016 544 
L 1925 1638 
L 838 544 
L 469 916 
z
" transform="scale(0.015625)"/>
      <path id="Menlo-Regular-35" d="M 647 4666 
L 3009 4666 
L 3009 4134 
L 1222 4134 
L 1222 2988 
Q 1356 3038 1492 3061 
Q 1628 3084 1766 3084 
Q 2491 3084 2916 2656 
Q 3341 2228 3341 1497 
Q 3341 759 2895 334 
Q 2450 -91 1678 -91 
Q 1306 -91 998 -41 
Q 691 9 447 109 
L 447 750 
Q 734 594 1025 517 
Q 1316 441 1619 441 
Q 2141 441 2423 716 
Q 2706 991 2706 1497 
Q 2706 1997 2414 2275 
Q 2122 2553 1600 2553 
Q 1347 2553 1106 2495 
Q 866 2438 647 2322 
L 647 4666 
z
" transform="scale(0.015625)"/>
     </defs>
     <use xlink:href="#DejaVuSans-Oblique-57" transform="translate(0 0.684375)"/>
     <use xlink:href="#DejaVuSans-Oblique-45" transform="translate(105.893724 38.965625) scale(0.7)"/>
     <use xlink:href="#DejaVuSans-Oblique-49" transform="translate(150.12224 38.965625) scale(0.7)"/>
     <use xlink:href="#Menlo-Regular-20" transform="translate(173.501146 0.684375)"/>
     <use xlink:href="#Menlo-Regular-20" transform="translate(233.706224 0.684375)"/>
     <use xlink:href="#Menlo-Regular-28" transform="translate(293.911302 0.684375)"/>
     <use xlink:href="#Menlo-Regular-31" transform="translate(354.11638 0.684375)"/>
     <use xlink:href="#Menlo-Regular-30" transform="translate(414.321458 0.684375)"/>
     <use xlink:href="#Menlo-Regular-32" transform="translate(474.526536 0.684375)"/>
     <use xlink:href="#Menlo-Regular-34" transform="translate(534.731615 0.684375)"/>
     <use xlink:href="#Menlo-Regular-20" transform="translate(594.936693 0.684375)"/>
     <use xlink:href="#Menlo-Regular-d7" transform="translate(655.141771 0.684375)"/>
     <use xlink:href="#Menlo-Regular-20" transform="translate(715.346849 0.684375)"/>
     <use xlink:href="#Menlo-Regular-32" transform="translate(775.551927 0.684375)"/>
     <use xlink:href="#Menlo-Regular-35" transform="translate(835.757005 0.684375)"/>
     <use xlink:href="#Menlo-Regular-36" transform="translate(895.962083 0.684375)"/>
     <use xlink:href="#Menlo-Regular-29" transform="translate(956.167161 0.684375)"/>
    </g>
   </g>
   <g id="legend_1">
    <g id="patch_8">
     <path d="M 179.204004 152.297044 
L 190.404004 152.297044 
L 190.404004 147.397044 
L 179.204004 147.397044 
L 179.204004 152.297044 
z
" style="fill: none; stroke: #1a1a1a; stroke-width: 1.6; stroke-linejoin: miter"/>
    </g>
    <g id="text_22">
     <!-- init -->
     <g style="fill: #1a1a1a" transform="translate(196.004004 152.297044) scale(0.07 -0.07)">
      <use xlink:href="#Menlo-Regular-69"/>
      <use xlink:href="#Menlo-Regular-6e" transform="translate(60.205078 0)"/>
      <use xlink:href="#Menlo-Regular-69" transform="translate(120.410156 0)"/>
      <use xlink:href="#Menlo-Regular-74" transform="translate(180.615234 0)"/>
     </g>
    </g>
    <g id="patch_9">
     <path d="M 179.204004 162.591419 
L 190.404004 162.591419 
L 190.404004 157.691419 
L 179.204004 157.691419 
z
" style="fill: #1a1a1a; opacity: 0.32; stroke: #1a1a1a; stroke-width: 0.8; stroke-linejoin: miter"/>
    </g>
    <g id="text_23">
     <!-- trained -->
     <g style="fill: #1a1a1a" transform="translate(196.004004 162.591419) scale(0.07 -0.07)">
      <use xlink:href="#Menlo-Regular-74"/>
      <use xlink:href="#Menlo-Regular-72" transform="translate(60.205078 0)"/>
      <use xlink:href="#Menlo-Regular-61" transform="translate(120.410156 0)"/>
      <use xlink:href="#Menlo-Regular-69" transform="translate(180.615234 0)"/>
      <use xlink:href="#Menlo-Regular-6e" transform="translate(240.820312 0)"/>
      <use xlink:href="#Menlo-Regular-65" transform="translate(301.025391 0)"/>
      <use xlink:href="#Menlo-Regular-64" transform="translate(361.230469 0)"/>
     </g>
    </g>
   </g>
  </g>
  <g id="axes_3">
   <g id="patch_10">
    <path d="M 310.265089 170.3472 
L 497.078312 170.3472 
L 497.078312 48.003871 
L 310.265089 48.003871 
z
" style="fill: #ffffff"/>
   </g>
   <g id="matplotlib.axis_3">
    <g id="xtick_9">
     <g id="line2d_16">
      <g>
       <use xlink:href="#me5ab178a7e" x="310.265089" y="170.3472" style="fill: #1a1a1a; stroke: #1a1a1a; stroke-width: 0.8"/>
      </g>
     </g>
     <g id="text_24">
      <!-- 0.000 -->
      <g style="fill: #1a1a1a" transform="translate(299.729542 182.185794) scale(0.07 -0.07)">
       <use xlink:href="#Menlo-Regular-30"/>
       <use xlink:href="#Menlo-Regular-2e" transform="translate(60.205078 0)"/>
       <use xlink:href="#Menlo-Regular-30" transform="translate(120.410156 0)"/>
       <use xlink:href="#Menlo-Regular-30" transform="translate(180.615234 0)"/>
       <use xlink:href="#Menlo-Regular-30" transform="translate(240.820312 0)"/>
      </g>
     </g>
    </g>
    <g id="xtick_10">
     <g id="line2d_17">
      <g>
       <use xlink:href="#me5ab178a7e" x="341.369037" y="170.3472" style="fill: #1a1a1a; stroke: #1a1a1a; stroke-width: 0.8"/>
      </g>
     </g>
     <g id="text_25">
      <!-- 0.002 -->
      <g style="fill: #1a1a1a" transform="translate(330.83349 182.185794) scale(0.07 -0.07)">
       <use xlink:href="#Menlo-Regular-30"/>
       <use xlink:href="#Menlo-Regular-2e" transform="translate(60.205078 0)"/>
       <use xlink:href="#Menlo-Regular-30" transform="translate(120.410156 0)"/>
       <use xlink:href="#Menlo-Regular-30" transform="translate(180.615234 0)"/>
       <use xlink:href="#Menlo-Regular-32" transform="translate(240.820312 0)"/>
      </g>
     </g>
    </g>
    <g id="xtick_11">
     <g id="line2d_18">
      <g>
       <use xlink:href="#me5ab178a7e" x="372.472985" y="170.3472" style="fill: #1a1a1a; stroke: #1a1a1a; stroke-width: 0.8"/>
      </g>
     </g>
     <g id="text_26">
      <!-- 0.004 -->
      <g style="fill: #1a1a1a" transform="translate(361.937438 182.185794) scale(0.07 -0.07)">
       <use xlink:href="#Menlo-Regular-30"/>
       <use xlink:href="#Menlo-Regular-2e" transform="translate(60.205078 0)"/>
       <use xlink:href="#Menlo-Regular-30" transform="translate(120.410156 0)"/>
       <use xlink:href="#Menlo-Regular-30" transform="translate(180.615234 0)"/>
       <use xlink:href="#Menlo-Regular-34" transform="translate(240.820312 0)"/>
      </g>
     </g>
    </g>
    <g id="xtick_12">
     <g id="line2d_19">
      <g>
       <use xlink:href="#me5ab178a7e" x="403.576933" y="170.3472" style="fill: #1a1a1a; stroke: #1a1a1a; stroke-width: 0.8"/>
      </g>
     </g>
     <g id="text_27">
      <!-- 0.006 -->
      <g style="fill: #1a1a1a" transform="translate(393.041386 182.185794) scale(0.07 -0.07)">
       <use xlink:href="#Menlo-Regular-30"/>
       <use xlink:href="#Menlo-Regular-2e" transform="translate(60.205078 0)"/>
       <use xlink:href="#Menlo-Regular-30" transform="translate(120.410156 0)"/>
       <use xlink:href="#Menlo-Regular-30" transform="translate(180.615234 0)"/>
       <use xlink:href="#Menlo-Regular-36" transform="translate(240.820312 0)"/>
      </g>
     </g>
    </g>
    <g id="xtick_13">
     <g id="line2d_20">
      <g>
       <use xlink:href="#me5ab178a7e" x="434.68088" y="170.3472" style="fill: #1a1a1a; stroke: #1a1a1a; stroke-width: 0.8"/>
      </g>
     </g>
     <g id="text_28">
      <!-- 0.008 -->
      <g style="fill: #1a1a1a" transform="translate(424.145334 182.185794) scale(0.07 -0.07)">
       <use xlink:href="#Menlo-Regular-30"/>
       <use xlink:href="#Menlo-Regular-2e" transform="translate(60.205078 0)"/>
       <use xlink:href="#Menlo-Regular-30" transform="translate(120.410156 0)"/>
       <use xlink:href="#Menlo-Regular-30" transform="translate(180.615234 0)"/>
       <use xlink:href="#Menlo-Regular-38" transform="translate(240.820312 0)"/>
      </g>
     </g>
    </g>
    <g id="xtick_14">
     <g id="line2d_21">
      <g>
       <use xlink:href="#me5ab178a7e" x="465.784828" y="170.3472" style="fill: #1a1a1a; stroke: #1a1a1a; stroke-width: 0.8"/>
      </g>
     </g>
     <g id="text_29">
      <!-- 0.010 -->
      <g style="fill: #1a1a1a" transform="translate(455.249281 182.185794) scale(0.07 -0.07)">
       <use xlink:href="#Menlo-Regular-30"/>
       <use xlink:href="#Menlo-Regular-2e" transform="translate(60.205078 0)"/>
       <use xlink:href="#Menlo-Regular-30" transform="translate(120.410156 0)"/>
       <use xlink:href="#Menlo-Regular-31" transform="translate(180.615234 0)"/>
       <use xlink:href="#Menlo-Regular-30" transform="translate(240.820312 0)"/>
      </g>
     </g>
    </g>
    <g id="xtick_15">
     <g id="line2d_22">
      <g>
       <use xlink:href="#me5ab178a7e" x="496.888776" y="170.3472" style="fill: #1a1a1a; stroke: #1a1a1a; stroke-width: 0.8"/>
      </g>
     </g>
     <g id="text_30">
      <!-- 0.012 -->
      <g style="fill: #1a1a1a" transform="translate(486.353229 182.185794) scale(0.07 -0.07)">
       <use xlink:href="#Menlo-Regular-30"/>
       <use xlink:href="#Menlo-Regular-2e" transform="translate(60.205078 0)"/>
       <use xlink:href="#Menlo-Regular-30" transform="translate(120.410156 0)"/>
       <use xlink:href="#Menlo-Regular-31" transform="translate(180.615234 0)"/>
       <use xlink:href="#Menlo-Regular-32" transform="translate(240.820312 0)"/>
      </g>
     </g>
    </g>
    <g id="text_31">
     <!-- conductance magnitude (surviving &gt; 0) -->
     <g style="fill: #1a1a1a" transform="translate(314.571076 194.102825) scale(0.08 -0.08)">
      <use xlink:href="#Menlo-Regular-63"/>
      <use xlink:href="#Menlo-Regular-6f" transform="translate(60.205078 0)"/>
      <use xlink:href="#Menlo-Regular-6e" transform="translate(120.410156 0)"/>
      <use xlink:href="#Menlo-Regular-64" transform="translate(180.615234 0)"/>
      <use xlink:href="#Menlo-Regular-75" transform="translate(240.820312 0)"/>
      <use xlink:href="#Menlo-Regular-63" transform="translate(301.025391 0)"/>
      <use xlink:href="#Menlo-Regular-74" transform="translate(361.230469 0)"/>
      <use xlink:href="#Menlo-Regular-61" transform="translate(421.435547 0)"/>
      <use xlink:href="#Menlo-Regular-6e" transform="translate(481.640625 0)"/>
      <use xlink:href="#Menlo-Regular-63" transform="translate(541.845703 0)"/>
      <use xlink:href="#Menlo-Regular-65" transform="translate(602.050781 0)"/>
      <use xlink:href="#Menlo-Regular-20" transform="translate(662.255859 0)"/>
      <use xlink:href="#Menlo-Regular-6d" transform="translate(722.460938 0)"/>
      <use xlink:href="#Menlo-Regular-61" transform="translate(782.666016 0)"/>
      <use xlink:href="#Menlo-Regular-67" transform="translate(842.871094 0)"/>
      <use xlink:href="#Menlo-Regular-6e" transform="translate(903.076172 0)"/>
      <use xlink:href="#Menlo-Regular-69" transform="translate(963.28125 0)"/>
      <use xlink:href="#Menlo-Regular-74" transform="translate(1023.486328 0)"/>
      <use xlink:href="#Menlo-Regular-75" transform="translate(1083.691406 0)"/>
      <use xlink:href="#Menlo-Regular-64" transform="translate(1143.896484 0)"/>
      <use xlink:href="#Menlo-Regular-65" transform="translate(1204.101562 0)"/>
      <use xlink:href="#Menlo-Regular-20" transform="translate(1264.306641 0)"/>
      <use xlink:href="#Menlo-Regular-28" transform="translate(1324.511719 0)"/>
      <use xlink:href="#Menlo-Regular-73" transform="translate(1384.716797 0)"/>
      <use xlink:href="#Menlo-Regular-75" transform="translate(1444.921875 0)"/>
      <use xlink:href="#Menlo-Regular-72" transform="translate(1505.126953 0)"/>
      <use xlink:href="#Menlo-Regular-76" transform="translate(1565.332031 0)"/>
      <use xlink:href="#Menlo-Regular-69" transform="translate(1625.537109 0)"/>
      <use xlink:href="#Menlo-Regular-76" transform="translate(1685.742188 0)"/>
      <use xlink:href="#Menlo-Regular-69" transform="translate(1745.947266 0)"/>
      <use xlink:href="#Menlo-Regular-6e" transform="translate(1806.152344 0)"/>
      <use xlink:href="#Menlo-Regular-67" transform="translate(1866.357422 0)"/>
      <use xlink:href="#Menlo-Regular-20" transform="translate(1926.5625 0)"/>
      <use xlink:href="#Menlo-Regular-3e" transform="translate(1986.767578 0)"/>
      <use xlink:href="#Menlo-Regular-20" transform="translate(2046.972656 0)"/>
      <use xlink:href="#Menlo-Regular-30" transform="translate(2107.177734 0)"/>
      <use xlink:href="#Menlo-Regular-29" transform="translate(2167.382812 0)"/>
     </g>
    </g>
   </g>
   <g id="matplotlib.axis_4">
    <g id="ytick_7">
     <g id="line2d_23">
      <g>
       <use xlink:href="#m319c77264e" x="310.265089" y="170.3472" style="fill: #1a1a1a; stroke: #1a1a1a; stroke-width: 0.8"/>
      </g>
     </g>
     <g id="text_32">
      <!-- 0 -->
      <g style="fill: #1a1a1a" transform="translate(299.550871 173.016497) scale(0.07 -0.07)">
       <use xlink:href="#Menlo-Regular-30"/>
      </g>
     </g>
    </g>
    <g id="ytick_8">
     <g id="line2d_24">
      <g>
       <use xlink:href="#m319c77264e" x="310.265089" y="146.375867" style="fill: #1a1a1a; stroke: #1a1a1a; stroke-width: 0.8"/>
      </g>
     </g>
     <g id="text_33">
      <!-- 20000 -->
      <g style="fill: #1a1a1a" transform="translate(282.693996 149.045164) scale(0.07 -0.07)">
       <use xlink:href="#Menlo-Regular-32"/>
       <use xlink:href="#Menlo-Regular-30" transform="translate(60.205078 0)"/>
       <use xlink:href="#Menlo-Regular-30" transform="translate(120.410156 0)"/>
       <use xlink:href="#Menlo-Regular-30" transform="translate(180.615234 0)"/>
       <use xlink:href="#Menlo-Regular-30" transform="translate(240.820312 0)"/>
      </g>
     </g>
    </g>
    <g id="ytick_9">
     <g id="line2d_25">
      <g>
       <use xlink:href="#m319c77264e" x="310.265089" y="122.404535" style="fill: #1a1a1a; stroke: #1a1a1a; stroke-width: 0.8"/>
      </g>
     </g>
     <g id="text_34">
      <!-- 40000 -->
      <g style="fill: #1a1a1a" transform="translate(282.693996 125.073832) scale(0.07 -0.07)">
       <use xlink:href="#Menlo-Regular-34"/>
       <use xlink:href="#Menlo-Regular-30" transform="translate(60.205078 0)"/>
       <use xlink:href="#Menlo-Regular-30" transform="translate(120.410156 0)"/>
       <use xlink:href="#Menlo-Regular-30" transform="translate(180.615234 0)"/>
       <use xlink:href="#Menlo-Regular-30" transform="translate(240.820312 0)"/>
      </g>
     </g>
    </g>
    <g id="ytick_10">
     <g id="line2d_26">
      <g>
       <use xlink:href="#m319c77264e" x="310.265089" y="98.433202" style="fill: #1a1a1a; stroke: #1a1a1a; stroke-width: 0.8"/>
      </g>
     </g>
     <g id="text_35">
      <!-- 60000 -->
      <g style="fill: #1a1a1a" transform="translate(282.693996 101.102499) scale(0.07 -0.07)">
       <use xlink:href="#Menlo-Regular-36"/>
       <use xlink:href="#Menlo-Regular-30" transform="translate(60.205078 0)"/>
       <use xlink:href="#Menlo-Regular-30" transform="translate(120.410156 0)"/>
       <use xlink:href="#Menlo-Regular-30" transform="translate(180.615234 0)"/>
       <use xlink:href="#Menlo-Regular-30" transform="translate(240.820312 0)"/>
      </g>
     </g>
    </g>
    <g id="ytick_11">
     <g id="line2d_27">
      <g>
       <use xlink:href="#m319c77264e" x="310.265089" y="74.46187" style="fill: #1a1a1a; stroke: #1a1a1a; stroke-width: 0.8"/>
      </g>
     </g>
     <g id="text_36">
      <!-- 80000 -->
      <g style="fill: #1a1a1a" transform="translate(282.693996 77.131167) scale(0.07 -0.07)">
       <use xlink:href="#Menlo-Regular-38"/>
       <use xlink:href="#Menlo-Regular-30" transform="translate(60.205078 0)"/>
       <use xlink:href="#Menlo-Regular-30" transform="translate(120.410156 0)"/>
       <use xlink:href="#Menlo-Regular-30" transform="translate(180.615234 0)"/>
       <use xlink:href="#Menlo-Regular-30" transform="translate(240.820312 0)"/>
      </g>
     </g>
    </g>
    <g id="ytick_12">
     <g id="line2d_28">
      <g>
       <use xlink:href="#m319c77264e" x="310.265089" y="50.490537" style="fill: #1a1a1a; stroke: #1a1a1a; stroke-width: 0.8"/>
      </g>
     </g>
     <g id="text_37">
      <!-- 100000 -->
      <g style="fill: #1a1a1a" transform="translate(278.479777 53.159834) scale(0.07 -0.07)">
       <use xlink:href="#Menlo-Regular-31"/>
       <use xlink:href="#Menlo-Regular-30" transform="translate(60.205078 0)"/>
       <use xlink:href="#Menlo-Regular-30" transform="translate(120.410156 0)"/>
       <use xlink:href="#Menlo-Regular-30" transform="translate(180.615234 0)"/>
       <use xlink:href="#Menlo-Regular-30" transform="translate(240.820312 0)"/>
       <use xlink:href="#Menlo-Regular-30" transform="translate(301.025391 0)"/>
      </g>
     </g>
    </g>
    <g id="text_38">
     <!-- entry count -->
     <g style="fill: #1a1a1a" transform="translate(272.816027 135.664911) rotate(-90) scale(0.08 -0.08)">
      <use xlink:href="#Menlo-Regular-65"/>
      <use xlink:href="#Menlo-Regular-6e" transform="translate(60.205078 0)"/>
      <use xlink:href="#Menlo-Regular-74" transform="translate(120.410156 0)"/>
      <use xlink:href="#Menlo-Regular-72" transform="translate(180.615234 0)"/>
      <use xlink:href="#Menlo-Regular-79" transform="translate(240.820312 0)"/>
      <use xlink:href="#Menlo-Regular-20" transform="translate(301.025391 0)"/>
      <use xlink:href="#Menlo-Regular-63" transform="translate(361.230469 0)"/>
      <use xlink:href="#Menlo-Regular-6f" transform="translate(421.435547 0)"/>
      <use xlink:href="#Menlo-Regular-75" transform="translate(481.640625 0)"/>
      <use xlink:href="#Menlo-Regular-6e" transform="translate(541.845703 0)"/>
      <use xlink:href="#Menlo-Regular-74" transform="translate(602.050781 0)"/>
     </g>
    </g>
   </g>
   <g id="patch_11">
    <path d="M 310.265089 170.3472 
L 310.265089 170.3472 
L 314.077604 170.3472 
L 314.077604 170.3472 
L 317.890119 170.3472 
L 317.890119 170.3472 
L 321.702634 170.3472 
L 321.702634 170.3472 
L 325.515148 170.3472 
L 325.515148 170.3472 
L 329.327663 170.3472 
L 329.327663 170.3472 
L 333.140178 170.3472 
L 333.140178 170.3472 
L 336.952693 170.3472 
L 336.952693 170.3472 
L 340.765207 170.3472 
L 340.765207 170.3472 
L 344.577722 170.3472 
L 344.577722 170.3472 
L 348.390237 170.3472 
L 348.390237 170.3472 
L 352.202752 170.3472 
L 352.202752 170.3472 
L 356.015266 170.3472 
L 356.015266 170.3472 
L 359.827781 170.3472 
L 359.827781 170.3472 
L 363.640296 170.3472 
L 363.640296 170.3472 
L 367.452811 170.3472 
L 367.452811 170.3472 
L 371.265325 170.3472 
L 371.265325 170.3472 
L 375.07784 170.3472 
L 375.07784 170.346001 
L 378.890355 170.346001 
L 378.890355 170.33042 
L 382.70287 170.33042 
L 382.70287 170.270492 
L 386.515385 170.270492 
L 386.515385 170.151834 
L 390.327899 170.151834 
L 390.327899 169.662818 
L 394.140414 169.662818 
L 394.140414 168.682391 
L 397.952929 168.682391 
L 397.952929 166.310428 
L 401.765444 166.310428 
L 401.765444 161.904497 
L 405.577958 161.904497 
L 405.577958 153.896873 
L 409.390473 153.896873 
L 409.390473 141.261584 
L 413.202988 141.261584 
L 413.202988 123.864389 
L 417.015503 123.864389 
L 417.015503 102.837935 
L 420.828017 102.837935 
L 420.828017 80.817869 
L 424.640532 80.817869 
L 424.640532 63.040728 
L 428.453047 63.040728 
L 428.453047 53.829744 
L 432.265562 53.829744 
L 432.265562 55.417845 
L 436.078076 55.417845 
L 436.078076 68.045943 
L 439.890591 68.045943 
L 439.890591 86.215014 
L 443.703106 86.215014 
L 443.703106 108.776832 
L 447.515621 108.776832 
L 447.515621 129.062572 
L 451.328135 129.062572 
L 451.328135 145.559644 
L 455.14065 145.559644 
L 455.14065 156.743469 
L 458.953165 156.743469 
L 458.953165 163.342777 
L 462.76568 163.342777 
L 462.76568 167.299245 
L 466.578194 167.299245 
L 466.578194 169.076719 
L 470.390709 169.076719 
L 470.390709 169.894142 
L 474.203224 169.894142 
L 474.203224 170.215358 
L 478.015739 170.215358 
L 478.015739 170.293265 
L 481.828253 170.293265 
L 481.828253 170.33042 
L 485.640768 170.33042 
L 485.640768 170.343604 
L 489.453283 170.343604 
L 489.453283 170.3472 
L 493.265798 170.3472 
L 493.265798 170.3472 
L 497.078312 170.3472 
L 497.078312 170.3472 
L 493.265798 170.3472 
L 493.265798 170.3472 
L 489.453283 170.3472 
L 489.453283 170.3472 
L 485.640768 170.3472 
L 485.640768 170.3472 
L 481.828253 170.3472 
L 481.828253 170.3472 
L 478.015739 170.3472 
L 478.015739 170.3472 
L 474.203224 170.3472 
L 474.203224 170.3472 
L 470.390709 170.3472 
L 470.390709 170.3472 
L 466.578194 170.3472 
L 466.578194 170.3472 
L 462.76568 170.3472 
L 462.76568 170.3472 
L 458.953165 170.3472 
L 458.953165 170.3472 
L 455.14065 170.3472 
L 455.14065 170.3472 
L 451.328135 170.3472 
L 451.328135 170.3472 
L 447.515621 170.3472 
L 447.515621 170.3472 
L 443.703106 170.3472 
L 443.703106 170.3472 
L 439.890591 170.3472 
L 439.890591 170.3472 
L 436.078076 170.3472 
L 436.078076 170.3472 
L 432.265562 170.3472 
L 432.265562 170.3472 
L 428.453047 170.3472 
L 428.453047 170.3472 
L 424.640532 170.3472 
L 424.640532 170.3472 
L 420.828017 170.3472 
L 420.828017 170.3472 
L 417.015503 170.3472 
L 417.015503 170.3472 
L 413.202988 170.3472 
L 413.202988 170.3472 
L 409.390473 170.3472 
L 409.390473 170.3472 
L 405.577958 170.3472 
L 405.577958 170.3472 
L 401.765444 170.3472 
L 401.765444 170.3472 
L 397.952929 170.3472 
L 397.952929 170.3472 
L 394.140414 170.3472 
L 394.140414 170.3472 
L 390.327899 170.3472 
L 390.327899 170.3472 
L 386.515385 170.3472 
L 386.515385 170.3472 
L 382.70287 170.3472 
L 382.70287 170.3472 
L 378.890355 170.3472 
L 378.890355 170.3472 
L 375.07784 170.3472 
L 375.07784 170.3472 
L 371.265325 170.3472 
L 371.265325 170.3472 
L 367.452811 170.3472 
L 367.452811 170.3472 
L 363.640296 170.3472 
L 363.640296 170.3472 
L 359.827781 170.3472 
L 359.827781 170.3472 
L 356.015266 170.3472 
L 356.015266 170.3472 
L 352.202752 170.3472 
L 352.202752 170.3472 
L 348.390237 170.3472 
L 348.390237 170.3472 
L 344.577722 170.3472 
L 344.577722 170.3472 
L 340.765207 170.3472 
L 340.765207 170.3472 
L 336.952693 170.3472 
L 336.952693 170.3472 
L 333.140178 170.3472 
L 333.140178 170.3472 
L 329.327663 170.3472 
L 329.327663 170.3472 
L 325.515148 170.3472 
L 325.515148 170.3472 
L 321.702634 170.3472 
L 321.702634 170.3472 
L 317.890119 170.3472 
L 317.890119 170.3472 
L 314.077604 170.3472 
L 314.077604 170.3472 
z
" clip-path="url(#p82be43a2e4)" style="fill: #c8102e; opacity: 0.32; stroke: #c8102e; stroke-width: 0.8; stroke-linejoin: miter"/>
   </g>
   <g id="patch_12">
    <path d="M 310.265089 170.3472 
L 310.265089 170.3472 
L 314.077604 170.3472 
L 314.077604 170.3472 
L 317.890119 170.3472 
L 317.890119 170.3472 
L 321.702634 170.3472 
L 321.702634 170.3472 
L 325.515148 170.3472 
L 325.515148 170.3472 
L 329.327663 170.3472 
L 329.327663 170.3472 
L 333.140178 170.3472 
L 333.140178 170.3472 
L 336.952693 170.3472 
L 336.952693 170.3472 
L 340.765207 170.3472 
L 340.765207 170.3472 
L 344.577722 170.3472 
L 344.577722 170.3472 
L 348.390237 170.3472 
L 348.390237 170.3472 
L 352.202752 170.3472 
L 352.202752 170.3472 
L 356.015266 170.3472 
L 356.015266 170.3472 
L 359.827781 170.3472 
L 359.827781 170.3472 
L 363.640296 170.3472 
L 363.640296 170.3472 
L 367.452811 170.3472 
L 367.452811 170.3472 
L 371.265325 170.3472 
L 371.265325 170.3472 
L 375.07784 170.3472 
L 375.07784 170.346001 
L 378.890355 170.346001 
L 378.890355 170.33042 
L 382.70287 170.33042 
L 382.70287 170.270492 
L 386.515385 170.270492 
L 386.515385 170.151834 
L 390.327899 170.151834 
L 390.327899 169.662818 
L 394.140414 169.662818 
L 394.140414 168.682391 
L 397.952929 168.682391 
L 397.952929 166.310428 
L 401.765444 166.310428 
L 401.765444 161.904497 
L 405.577958 161.904497 
L 405.577958 153.896873 
L 409.390473 153.896873 
L 409.390473 141.261584 
L 413.202988 141.261584 
L 413.202988 123.864389 
L 417.015503 123.864389 
L 417.015503 102.837935 
L 420.828017 102.837935 
L 420.828017 80.817869 
L 424.640532 80.817869 
L 424.640532 63.040728 
L 428.453047 63.040728 
L 428.453047 53.829744 
L 432.265562 53.829744 
L 432.265562 55.417845 
L 436.078076 55.417845 
L 436.078076 68.045943 
L 439.890591 68.045943 
L 439.890591 86.215014 
L 443.703106 86.215014 
L 443.703106 108.776832 
L 447.515621 108.776832 
L 447.515621 129.062572 
L 451.328135 129.062572 
L 451.328135 145.559644 
L 455.14065 145.559644 
L 455.14065 156.743469 
L 458.953165 156.743469 
L 458.953165 163.342777 
L 462.76568 163.342777 
L 462.76568 167.299245 
L 466.578194 167.299245 
L 466.578194 169.076719 
L 470.390709 169.076719 
L 470.390709 169.894142 
L 474.203224 169.894142 
L 474.203224 170.215358 
L 478.015739 170.215358 
L 478.015739 170.293265 
L 481.828253 170.293265 
L 481.828253 170.33042 
L 485.640768 170.33042 
L 485.640768 170.343604 
L 489.453283 170.343604 
L 489.453283 170.3472 
L 493.265798 170.3472 
L 493.265798 170.3472 
L 497.078312 170.3472 
L 497.078312 170.3472 
" clip-path="url(#p82be43a2e4)" style="fill: none; stroke: #c8102e; stroke-width: 1.6; stroke-linejoin: miter"/>
   </g>
   <g id="line2d_29">
    <path d="M 431.764885 170.3472 
L 431.764885 48.003871 
" clip-path="url(#p82be43a2e4)" style="fill: none; stroke-dasharray: 0.9,1.485; stroke-dashoffset: 0; stroke: #6a6a6a; stroke-width: 0.9"/>
   </g>
   <g id="patch_13">
    <path d="M 310.265089 170.3472 
L 310.265089 48.003871 
" style="fill: none; stroke: #1a1a1a; stroke-width: 0.8; stroke-linejoin: miter; stroke-linecap: square"/>
   </g>
   <g id="patch_14">
    <path d="M 310.265089 170.3472 
L 497.078312 170.3472 
" style="fill: none; stroke: #1a1a1a; stroke-width: 0.8; stroke-linejoin: miter; stroke-linecap: square"/>
   </g>
   <g id="text_39">
    <!--   canonical -->
    <g style="fill: #6a6a6a" transform="translate(436.722151 130.698153) rotate(-90) scale(0.065 -0.065)">
     <use xlink:href="#Menlo-Regular-20"/>
     <use xlink:href="#Menlo-Regular-20" transform="translate(60.205078 0)"/>
     <use xlink:href="#Menlo-Regular-63" transform="translate(120.410156 0)"/>
     <use xlink:href="#Menlo-Regular-61" transform="translate(180.615234 0)"/>
     <use xlink:href="#Menlo-Regular-6e" transform="translate(240.820312 0)"/>
     <use xlink:href="#Menlo-Regular-6f" transform="translate(301.025391 0)"/>
     <use xlink:href="#Menlo-Regular-6e" transform="translate(361.230469 0)"/>
     <use xlink:href="#Menlo-Regular-69" transform="translate(421.435547 0)"/>
     <use xlink:href="#Menlo-Regular-63" transform="translate(481.640625 0)"/>
     <use xlink:href="#Menlo-Regular-61" transform="translate(541.845703 0)"/>
     <use xlink:href="#Menlo-Regular-6c" transform="translate(602.050781 0)"/>
    </g>
   </g>
   <g id="text_40">
    <g id="patch_15">
     <path d="M 338.682055 91.128982 
L 495.21018 91.128982 
Q 497.81018 91.128982 497.81018 88.528982 
L 497.81018 74.919403 
Q 497.81018 72.319403 495.21018 72.319403 
L 338.682055 72.319403 
Q 336.082055 72.319403 336.082055 74.919403 
L 336.082055 88.528982 
Q 336.082055 91.128982 338.682055 91.128982 
z
" style="fill: #ffffff; opacity: 0.95; stroke: #6a6a6a; stroke-width: 0.5; stroke-linejoin: miter"/>
    </g>
    <!-- init     mean = 0.0078    pruned =  0.0% -->
    <g style="fill: #888888" transform="translate(338.682055 79.876669) scale(0.065 -0.065)">
     <defs>
      <path id="Menlo-Regular-37" d="M 434 4666 
L 3372 4666 
L 3372 4397 
L 1703 0 
L 1044 0 
L 2669 4134 
L 434 4134 
L 434 4666 
z
" transform="scale(0.015625)"/>
     </defs>
     <use xlink:href="#Menlo-Regular-69"/>
     <use xlink:href="#Menlo-Regular-6e" transform="translate(60.205078 0)"/>
     <use xlink:href="#Menlo-Regular-69" transform="translate(120.410156 0)"/>
     <use xlink:href="#Menlo-Regular-74" transform="translate(180.615234 0)"/>
     <use xlink:href="#Menlo-Regular-20" transform="translate(240.820312 0)"/>
     <use xlink:href="#Menlo-Regular-20" transform="translate(301.025391 0)"/>
     <use xlink:href="#Menlo-Regular-20" transform="translate(361.230469 0)"/>
     <use xlink:href="#Menlo-Regular-20" transform="translate(421.435547 0)"/>
     <use xlink:href="#Menlo-Regular-20" transform="translate(481.640625 0)"/>
     <use xlink:href="#Menlo-Regular-6d" transform="translate(541.845703 0)"/>
     <use xlink:href="#Menlo-Regular-65" transform="translate(602.050781 0)"/>
     <use xlink:href="#Menlo-Regular-61" transform="translate(662.255859 0)"/>
     <use xlink:href="#Menlo-Regular-6e" transform="translate(722.460938 0)"/>
     <use xlink:href="#Menlo-Regular-20" transform="translate(782.666016 0)"/>
     <use xlink:href="#Menlo-Regular-3d" transform="translate(842.871094 0)"/>
     <use xlink:href="#Menlo-Regular-20" transform="translate(903.076172 0)"/>
     <use xlink:href="#Menlo-Regular-30" transform="translate(963.28125 0)"/>
     <use xlink:href="#Menlo-Regular-2e" transform="translate(1023.486328 0)"/>
     <use xlink:href="#Menlo-Regular-30" transform="translate(1083.691406 0)"/>
     <use xlink:href="#Menlo-Regular-30" transform="translate(1143.896484 0)"/>
     <use xlink:href="#Menlo-Regular-37" transform="translate(1204.101562 0)"/>
     <use xlink:href="#Menlo-Regular-38" transform="translate(1264.306641 0)"/>
     <use xlink:href="#Menlo-Regular-20" transform="translate(1324.511719 0)"/>
     <use xlink:href="#Menlo-Regular-20" transform="translate(1384.716797 0)"/>
     <use xlink:href="#Menlo-Regular-20" transform="translate(1444.921875 0)"/>
     <use xlink:href="#Menlo-Regular-20" transform="translate(1505.126953 0)"/>
     <use xlink:href="#Menlo-Regular-70" transform="translate(1565.332031 0)"/>
     <use xlink:href="#Menlo-Regular-72" transform="translate(1625.537109 0)"/>
     <use xlink:href="#Menlo-Regular-75" transform="translate(1685.742188 0)"/>
     <use xlink:href="#Menlo-Regular-6e" transform="translate(1745.947266 0)"/>
     <use xlink:href="#Menlo-Regular-65" transform="translate(1806.152344 0)"/>
     <use xlink:href="#Menlo-Regular-64" transform="translate(1866.357422 0)"/>
     <use xlink:href="#Menlo-Regular-20" transform="translate(1926.5625 0)"/>
     <use xlink:href="#Menlo-Regular-3d" transform="translate(1986.767578 0)"/>
     <use xlink:href="#Menlo-Regular-20" transform="translate(2046.972656 0)"/>
     <use xlink:href="#Menlo-Regular-20" transform="translate(2107.177734 0)"/>
     <use xlink:href="#Menlo-Regular-30" transform="translate(2167.382812 0)"/>
     <use xlink:href="#Menlo-Regular-2e" transform="translate(2227.587891 0)"/>
     <use xlink:href="#Menlo-Regular-30" transform="translate(2287.792969 0)"/>
     <use xlink:href="#Menlo-Regular-25" transform="translate(2347.998047 0)"/>
    </g>
    <!-- trained  mean = 0.0078    pruned =  0.0% -->
    <g style="fill: #888888" transform="translate(338.682055 87.177185) scale(0.065 -0.065)">
     <use xlink:href="#Menlo-Regular-74"/>
     <use xlink:href="#Menlo-Regular-72" transform="translate(60.205078 0)"/>
     <use xlink:href="#Menlo-Regular-61" transform="translate(120.410156 0)"/>
     <use xlink:href="#Menlo-Regular-69" transform="translate(180.615234 0)"/>
     <use xlink:href="#Menlo-Regular-6e" transform="translate(240.820312 0)"/>
     <use xlink:href="#Menlo-Regular-65" transform="translate(301.025391 0)"/>
     <use xlink:href="#Menlo-Regular-64" transform="translate(361.230469 0)"/>
     <use xlink:href="#Menlo-Regular-20" transform="translate(421.435547 0)"/>
     <use xlink:href="#Menlo-Regular-20" transform="translate(481.640625 0)"/>
     <use xlink:href="#Menlo-Regular-6d" transform="translate(541.845703 0)"/>
     <use xlink:href="#Menlo-Regular-65" transform="translate(602.050781 0)"/>
     <use xlink:href="#Menlo-Regular-61" transform="translate(662.255859 0)"/>
     <use xlink:href="#Menlo-Regular-6e" transform="translate(722.460938 0)"/>
     <use xlink:href="#Menlo-Regular-20" transform="translate(782.666016 0)"/>
     <use xlink:href="#Menlo-Regular-3d" transform="translate(842.871094 0)"/>
     <use xlink:href="#Menlo-Regular-20" transform="translate(903.076172 0)"/>
     <use xlink:href="#Menlo-Regular-30" transform="translate(963.28125 0)"/>
     <use xlink:href="#Menlo-Regular-2e" transform="translate(1023.486328 0)"/>
     <use xlink:href="#Menlo-Regular-30" transform="translate(1083.691406 0)"/>
     <use xlink:href="#Menlo-Regular-30" transform="translate(1143.896484 0)"/>
     <use xlink:href="#Menlo-Regular-37" transform="translate(1204.101562 0)"/>
     <use xlink:href="#Menlo-Regular-38" transform="translate(1264.306641 0)"/>
     <use xlink:href="#Menlo-Regular-20" transform="translate(1324.511719 0)"/>
     <use xlink:href="#Menlo-Regular-20" transform="translate(1384.716797 0)"/>
     <use xlink:href="#Menlo-Regular-20" transform="translate(1444.921875 0)"/>
     <use xlink:href="#Menlo-Regular-20" transform="translate(1505.126953 0)"/>
     <use xlink:href="#Menlo-Regular-70" transform="translate(1565.332031 0)"/>
     <use xlink:href="#Menlo-Regular-72" transform="translate(1625.537109 0)"/>
     <use xlink:href="#Menlo-Regular-75" transform="translate(1685.742188 0)"/>
     <use xlink:href="#Menlo-Regular-6e" transform="translate(1745.947266 0)"/>
     <use xlink:href="#Menlo-Regular-65" transform="translate(1806.152344 0)"/>
     <use xlink:href="#Menlo-Regular-64" transform="translate(1866.357422 0)"/>
     <use xlink:href="#Menlo-Regular-20" transform="translate(1926.5625 0)"/>
     <use xlink:href="#Menlo-Regular-3d" transform="translate(1986.767578 0)"/>
     <use xlink:href="#Menlo-Regular-20" transform="translate(2046.972656 0)"/>
     <use xlink:href="#Menlo-Regular-20" transform="translate(2107.177734 0)"/>
     <use xlink:href="#Menlo-Regular-30" transform="translate(2167.382812 0)"/>
     <use xlink:href="#Menlo-Regular-2e" transform="translate(2227.587891 0)"/>
     <use xlink:href="#Menlo-Regular-30" transform="translate(2287.792969 0)"/>
     <use xlink:href="#Menlo-Regular-25" transform="translate(2347.998047 0)"/>
    </g>
   </g>
   <g id="text_41">
    <!-- $W^{IE}$  (256 × 1024) -->
    <g style="fill: #1a1a1a" transform="translate(310.265089 44.003871) scale(0.08 -0.08)">
     <use xlink:href="#DejaVuSans-Oblique-57" transform="translate(0 0.684375)"/>
     <use xlink:href="#DejaVuSans-Oblique-49" transform="translate(105.893724 38.965625) scale(0.7)"/>
     <use xlink:href="#DejaVuSans-Oblique-45" transform="translate(126.538255 38.965625) scale(0.7)"/>
     <use xlink:href="#Menlo-Regular-20" transform="translate(173.501146 0.684375)"/>
     <use xlink:href="#Menlo-Regular-20" transform="translate(233.706224 0.684375)"/>
     <use xlink:href="#Menlo-Regular-28" transform="translate(293.911302 0.684375)"/>
     <use xlink:href="#Menlo-Regular-32" transform="translate(354.11638 0.684375)"/>
     <use xlink:href="#Menlo-Regular-35" transform="translate(414.321458 0.684375)"/>
     <use xlink:href="#Menlo-Regular-36" transform="translate(474.526536 0.684375)"/>
     <use xlink:href="#Menlo-Regular-20" transform="translate(534.731615 0.684375)"/>
     <use xlink:href="#Menlo-Regular-d7" transform="translate(594.936693 0.684375)"/>
     <use xlink:href="#Menlo-Regular-20" transform="translate(655.141771 0.684375)"/>
     <use xlink:href="#Menlo-Regular-31" transform="translate(715.346849 0.684375)"/>
     <use xlink:href="#Menlo-Regular-30" transform="translate(775.551927 0.684375)"/>
     <use xlink:href="#Menlo-Regular-32" transform="translate(835.757005 0.684375)"/>
     <use xlink:href="#Menlo-Regular-34" transform="translate(895.962083 0.684375)"/>
     <use xlink:href="#Menlo-Regular-29" transform="translate(956.167161 0.684375)"/>
    </g>
   </g>
   <g id="legend_2">
    <g id="patch_16">
     <path d="M 444.478781 152.297044 
L 455.678781 152.297044 
L 455.678781 147.397044 
L 444.478781 147.397044 
L 444.478781 152.297044 
z
" style="fill: none; stroke: #c8102e; stroke-width: 1.6; stroke-linejoin: miter"/>
    </g>
    <g id="text_42">
     <!-- init -->
     <g style="fill: #1a1a1a" transform="translate(461.278781 152.297044) scale(0.07 -0.07)">
      <use xlink:href="#Menlo-Regular-69"/>
      <use xlink:href="#Menlo-Regular-6e" transform="translate(60.205078 0)"/>
      <use xlink:href="#Menlo-Regular-69" transform="translate(120.410156 0)"/>
      <use xlink:href="#Menlo-Regular-74" transform="translate(180.615234 0)"/>
     </g>
    </g>
    <g id="patch_17">
     <path d="M 444.478781 162.591419 
L 455.678781 162.591419 
L 455.678781 157.691419 
L 444.478781 157.691419 
z
" style="fill: #c8102e; opacity: 0.32; stroke: #c8102e; stroke-width: 0.8; stroke-linejoin: miter"/>
    </g>
    <g id="text_43">
     <!-- trained -->
     <g style="fill: #1a1a1a" transform="translate(461.278781 162.591419) scale(0.07 -0.07)">
      <use xlink:href="#Menlo-Regular-74"/>
      <use xlink:href="#Menlo-Regular-72" transform="translate(60.205078 0)"/>
      <use xlink:href="#Menlo-Regular-61" transform="translate(120.410156 0)"/>
      <use xlink:href="#Menlo-Regular-69" transform="translate(180.615234 0)"/>
      <use xlink:href="#Menlo-Regular-6e" transform="translate(240.820312 0)"/>
      <use xlink:href="#Menlo-Regular-65" transform="translate(301.025391 0)"/>
      <use xlink:href="#Menlo-Regular-64" transform="translate(361.230469 0)"/>
     </g>
    </g>
   </g>
  </g>
  <g id="text_44">
   <!-- r007 -->
   <g style="fill: #888888" transform="translate(488.8775 205.189803) scale(0.065 -0.065)">
    <use xlink:href="#Menlo-Regular-72"/>
    <use xlink:href="#Menlo-Regular-30" transform="translate(60.205078 0)"/>
    <use xlink:href="#Menlo-Regular-30" transform="translate(120.410156 0)"/>
    <use xlink:href="#Menlo-Regular-37" transform="translate(180.615234 0)"/>
   </g>
  </g>
 </g>
 <defs>
  <clipPath id="p7e15897f72">
   <rect x="44.990313" y="48.003871" width="186.813223" height="122.343329"/>
  </clipPath>
  <clipPath id="p82be43a2e4">
   <rect x="310.265089" y="48.003871" width="186.813223" height="122.343329"/>
  </clipPath>
 </defs>
</svg>
