<?xml version="1.0" encoding="utf-8" standalone="no"?>
<!DOCTYPE svg PUBLIC "-//W3C//DTD SVG 1.1//EN"
  "http://www.w3.org/Graphics/SVG/1.1/DTD/svg11.dtd">
<svg xmlns:xlink="http://www.w3.org/1999/xlink" width="395.957437pt" height="219.571078pt" viewBox="0 0 395.957437 219.571078" xmlns="http://www.w3.org/2000/svg" version="1.1">
 <metadata>
  <rdf:RDF xmlns:dc="http://purl.org/dc/elements/1.1/" xmlns:cc="http://creativecommons.org/ns#" xmlns:rdf="http://www.w3.org/1999/02/22-rdf-syntax-ns#">
   <cc:Work>
    <dc:type rdf:resource="http://purl.org/dc/dcmitype/StillImage"/>
    <dc:date>2026-06-29T20:12:53.357597</dc:date>
    <dc:format>image/svg+xml</dc:format>
    <dc:creator>
     <cc:Agent>
      <dc:title>Matplotlib v3.10.8, https://matplotlib.org/</dc:title>
     </cc:Agent>
    </dc:creator>
   </cc:Work>
  </rdf:RDF>
 </metadata>
 <defs>
  <style type="text/css">*{stroke-linejoin: round; stroke-linecap: butt}</style>
 </defs>
 <g id="figure_1">
  <g id="patch_1">
   <path d="M 0 219.571078 
L 395.957437 219.571078 
L 395.957437 0 
L 0 0 
z
" style="fill: #ffffff"/>
  </g>
  <g id="axes_1">
   <g id="patch_2">
    <path d="M 25.133438 188.365078 
L 387.893438 188.365078 
L 387.893438 14.305078 
L 25.133438 14.305078 
z
" style="fill: #ffffff"/>
   </g>
   <g id="matplotlib.axis_1">
    <g id="xtick_1">
     <g id="line2d_1">
      <path d="M 25.133438 188.365078 
L 25.133438 14.305078 
" clip-path="url(#p371a163430)" style="fill: none; stroke: #1a1a1a; stroke-opacity: 0.15; stroke-width: 0.4; stroke-linejoin: miter"/>
     </g>
     <g id="line2d_2">
      <defs>
       <path id="m8de572e7fb" d="M 0 0 
L 0 -3 
" style="stroke: #1a1a1a; stroke-width: 0.8"/>
      </defs>
      <g>
       <use xlink:href="#m8de572e7fb" x="25.133438" y="188.365078" style="fill: #1a1a1a; stroke: #1a1a1a; stroke-width: 0.8"/>
      </g>
     </g>
     <g id="text_1">
      <!-- 0 -->
      <g style="fill: #1a1a1a" transform="translate(23.026328 197.203672) scale(0.07 -0.07)">
       <defs>
        <path id="Menlo-Regular-30" d="M 1925 4734 
Q 2672 4734 3055 4125 
Q 3438 3516 3438 2322 
Q 3438 1128 3055 518 
Q 2672 -91 1925 -91 
Q 1178 -91 797 518 
Q 416 1128 416 2322 
Q 416 3516 797 4125 
Q 1178 4734 1925 4734 
z
M 1925 409 
Q 2369 409 2586 881 
Q 2803 1353 2803 2322 
Q 2803 2838 2741 3253 
L 1253 925 
Q 1488 409 1925 409 
z
M 1925 4234 
Q 1484 4234 1267 3762 
Q 1050 3291 1050 2322 
Q 1050 1881 1109 1497 
L 2566 3819 
Q 2328 4234 1925 4234 
z
" transform="scale(0.015625)"/>
       </defs>
       <use xlink:href="#Menlo-Regular-30"/>
      </g>
     </g>
    </g>
    <g id="xtick_2">
     <g id="line2d_3">
      <path d="M 89.01761 188.365078 
L 89.01761 14.305078 
" clip-path="url(#p371a163430)" style="fill: none; stroke: #1a1a1a; stroke-opacity: 0.15; stroke-width: 0.4; stroke-linejoin: miter"/>
     </g>
     <g id="line2d_4">
      <g>
       <use xlink:href="#m8de572e7fb" x="89.01761" y="188.365078" style="fill: #1a1a1a; stroke: #1a1a1a; stroke-width: 0.8"/>
      </g>
     </g>
     <g id="text_2">
      <!-- 10 -->
      <g style="fill: #1a1a1a" transform="translate(84.803391 197.203672) scale(0.07 -0.07)">
       <defs>
        <path id="Menlo-Regular-31" d="M 844 528 
L 1825 528 
L 1825 4053 
L 650 3488 
L 650 4094 
L 1819 4650 
L 2450 4650 
L 2450 528 
L 3419 528 
L 3419 0 
L 844 0 
L 844 528 
z
" transform="scale(0.015625)"/>
       </defs>
       <use xlink:href="#Menlo-Regular-31"/>
       <use xlink:href="#Menlo-Regular-30" transform="translate(60.205078 0)"/>
      </g>
     </g>
    </g>
    <g id="xtick_3">
     <g id="line2d_5">
      <path d="M 152.901783 188.365078 
L 152.901783 14.305078 
" clip-path="url(#p371a163430)" style="fill: none; stroke: #1a1a1a; stroke-opacity: 0.15; stroke-width: 0.4; stroke-linejoin: miter"/>
     </g>
     <g id="line2d_6">
      <g>
       <use xlink:href="#m8de572e7fb" x="152.901783" y="188.365078" style="fill: #1a1a1a; stroke: #1a1a1a; stroke-width: 0.8"/>
      </g>
     </g>
     <g id="text_3">
      <!-- 20 -->
      <g style="fill: #1a1a1a" transform="translate(148.687564 197.203672) scale(0.07 -0.07)">
       <defs>
        <path id="Menlo-Regular-32" d="M 1166 531 
L 3309 531 
L 3309 0 
L 475 0 
L 475 531 
Q 1059 1147 1496 1619 
Q 1934 2091 2100 2284 
Q 2413 2666 2522 2902 
Q 2631 3138 2631 3384 
Q 2631 3775 2401 3997 
Q 2172 4219 1772 4219 
Q 1488 4219 1175 4116 
Q 863 4013 513 3803 
L 513 4441 
Q 834 4594 1145 4672 
Q 1456 4750 1759 4750 
Q 2444 4750 2861 4386 
Q 3278 4022 3278 3431 
Q 3278 3131 3139 2831 
Q 3000 2531 2688 2169 
Q 2513 1966 2180 1606 
Q 1847 1247 1166 531 
z
" transform="scale(0.015625)"/>
       </defs>
       <use xlink:href="#Menlo-Regular-32"/>
       <use xlink:href="#Menlo-Regular-30" transform="translate(60.205078 0)"/>
      </g>
     </g>
    </g>
    <g id="xtick_4">
     <g id="line2d_7">
      <path d="M 216.785956 188.365078 
L 216.785956 14.305078 
" clip-path="url(#p371a163430)" style="fill: none; stroke: #1a1a1a; stroke-opacity: 0.15; stroke-width: 0.4; stroke-linejoin: miter"/>
     </g>
     <g id="line2d_8">
      <g>
       <use xlink:href="#m8de572e7fb" x="216.785956" y="188.365078" style="fill: #1a1a1a; stroke: #1a1a1a; stroke-width: 0.8"/>
      </g>
     </g>
     <g id="text_4">
      <!-- 30 -->
      <g style="fill: #1a1a1a" transform="translate(212.571737 197.203672) scale(0.07 -0.07)">
       <defs>
        <path id="Menlo-Regular-33" d="M 2425 2497 
Q 2884 2375 3128 2064 
Q 3372 1753 3372 1288 
Q 3372 644 2939 276 
Q 2506 -91 1741 -91 
Q 1419 -91 1084 -31 
Q 750 28 428 141 
L 428 769 
Q 747 603 1056 522 
Q 1366 441 1672 441 
Q 2191 441 2469 675 
Q 2747 909 2747 1350 
Q 2747 1756 2469 1995 
Q 2191 2234 1716 2234 
L 1234 2234 
L 1234 2753 
L 1716 2753 
Q 2150 2753 2394 2943 
Q 2638 3134 2638 3475 
Q 2638 3834 2411 4026 
Q 2184 4219 1766 4219 
Q 1488 4219 1191 4156 
Q 894 4094 569 3969 
L 569 4550 
Q 947 4650 1242 4700 
Q 1538 4750 1766 4750 
Q 2447 4750 2855 4408 
Q 3263 4066 3263 3500 
Q 3263 3116 3048 2859 
Q 2834 2603 2425 2497 
z
" transform="scale(0.015625)"/>
       </defs>
       <use xlink:href="#Menlo-Regular-33"/>
       <use xlink:href="#Menlo-Regular-30" transform="translate(60.205078 0)"/>
      </g>
     </g>
    </g>
    <g id="xtick_5">
     <g id="line2d_9">
      <path d="M 280.670128 188.365078 
L 280.670128 14.305078 
" clip-path="url(#p371a163430)" style="fill: none; stroke: #1a1a1a; stroke-opacity: 0.15; stroke-width: 0.4; stroke-linejoin: miter"/>
     </g>
     <g id="line2d_10">
      <g>
       <use xlink:href="#m8de572e7fb" x="280.670128" y="188.365078" style="fill: #1a1a1a; stroke: #1a1a1a; stroke-width: 0.8"/>
      </g>
     </g>
     <g id="text_5">
      <!-- 40 -->
      <g style="fill: #1a1a1a" transform="translate(276.45591 197.203672) scale(0.07 -0.07)">
       <defs>
        <path id="Menlo-Regular-34" d="M 2297 4091 
L 825 1625 
L 2297 1625 
L 2297 4091 
z
M 2194 4666 
L 2925 4666 
L 2925 1625 
L 3547 1625 
L 3547 1113 
L 2925 1113 
L 2925 0 
L 2297 0 
L 2297 1113 
L 319 1113 
L 319 1709 
L 2194 4666 
z
" transform="scale(0.015625)"/>
       </defs>
       <use xlink:href="#Menlo-Regular-34"/>
       <use xlink:href="#Menlo-Regular-30" transform="translate(60.205078 0)"/>
      </g>
     </g>
    </g>
    <g id="xtick_6">
     <g id="line2d_11">
      <path d="M 344.554301 188.365078 
L 344.554301 14.305078 
" clip-path="url(#p371a163430)" style="fill: none; stroke: #1a1a1a; stroke-opacity: 0.15; stroke-width: 0.4; stroke-linejoin: miter"/>
     </g>
     <g id="line2d_12">
      <g>
       <use xlink:href="#m8de572e7fb" x="344.554301" y="188.365078" style="fill: #1a1a1a; stroke: #1a1a1a; stroke-width: 0.8"/>
      </g>
     </g>
     <g id="text_6">
      <!-- 50 -->
      <g style="fill: #1a1a1a" transform="translate(340.340082 197.203672) scale(0.07 -0.07)">
       <defs>
        <path id="Menlo-Regular-35" d="M 647 4666 
L 3009 4666 
L 3009 4134 
L 1222 4134 
L 1222 2988 
Q 1356 3038 1492 3061 
Q 1628 3084 1766 3084 
Q 2491 3084 2916 2656 
Q 3341 2228 3341 1497 
Q 3341 759 2895 334 
Q 2450 -91 1678 -91 
Q 1306 -91 998 -41 
Q 691 9 447 109 
L 447 750 
Q 734 594 1025 517 
Q 1316 441 1619 441 
Q 2141 441 2423 716 
Q 2706 991 2706 1497 
Q 2706 1997 2414 2275 
Q 2122 2553 1600 2553 
Q 1347 2553 1106 2495 
Q 866 2438 647 2322 
L 647 4666 
z
" transform="scale(0.015625)"/>
       </defs>
       <use xlink:href="#Menlo-Regular-35"/>
       <use xlink:href="#Menlo-Regular-30" transform="translate(60.205078 0)"/>
      </g>
     </g>
    </g>
    <g id="text_7">
     <!-- Measured f_γ (Hz) -->
     <g style="fill: #1a1a1a" transform="translate(165.575312 209.120703) scale(0.08 -0.08)">
      <defs>
       <path id="Menlo-Regular-4d" d="M 113 4650 
L 956 4650 
L 1763 2281 
L 2575 4650 
L 3422 4650 
L 3422 0 
L 2838 0 
L 2838 4109 
L 2006 1659 
L 1528 1659 
L 694 4109 
L 694 0 
L 113 0 
L 113 4650 
z
" transform="scale(0.015625)"/>
       <path id="Menlo-Regular-65" d="M 3500 2038 
L 3500 1756 
L 1009 1756 
L 1009 1738 
Q 984 1022 1282 709 
Q 1581 397 2125 397 
Q 2400 397 2700 484 
Q 3000 572 3341 750 
L 3341 178 
Q 3013 44 2708 -23 
Q 2403 -91 2119 -91 
Q 1303 -91 843 398 
Q 384 888 384 1747 
Q 384 2584 834 3084 
Q 1284 3584 2034 3584 
Q 2703 3584 3089 3131 
Q 3475 2678 3500 2038 
z
M 2925 2206 
Q 2888 2569 2661 2833 
Q 2434 3097 2009 3097 
Q 1594 3097 1325 2822 
Q 1056 2547 1031 2203 
L 2925 2206 
z
" transform="scale(0.015625)"/>
       <path id="Menlo-Regular-61" d="M 2194 1759 
L 2003 1759 
Q 1500 1759 1245 1582 
Q 991 1406 991 1056 
Q 991 741 1181 566 
Q 1372 391 1709 391 
Q 2184 391 2456 720 
Q 2728 1050 2731 1631 
L 2731 1759 
L 2194 1759 
z
M 3309 1997 
L 3309 0 
L 2731 0 
L 2731 519 
Q 2547 206 2267 57 
Q 1988 -91 1588 -91 
Q 1053 -91 734 211 
Q 416 513 416 1019 
Q 416 1603 808 1906 
Q 1200 2209 1959 2209 
L 2731 2209 
L 2731 2300 
Q 2728 2719 2518 2908 
Q 2309 3097 1850 3097 
Q 1556 3097 1256 3012 
Q 956 2928 672 2766 
L 672 3341 
Q 991 3463 1283 3523 
Q 1575 3584 1850 3584 
Q 2284 3584 2592 3456 
Q 2900 3328 3091 3072 
Q 3209 2916 3259 2686 
Q 3309 2456 3309 1997 
z
" transform="scale(0.015625)"/>
       <path id="Menlo-Regular-73" d="M 3041 3378 
L 3041 2816 
Q 2794 2959 2544 3031 
Q 2294 3103 2034 3103 
Q 1644 3103 1451 2976 
Q 1259 2850 1259 2591 
Q 1259 2356 1403 2240 
Q 1547 2125 2119 2016 
L 2350 1972 
Q 2778 1891 2998 1647 
Q 3219 1403 3219 1013 
Q 3219 494 2850 201 
Q 2481 -91 1825 -91 
Q 1566 -91 1281 -36 
Q 997 19 666 128 
L 666 722 
Q 988 556 1281 473 
Q 1575 391 1838 391 
Q 2219 391 2428 545 
Q 2638 700 2638 978 
Q 2638 1378 1872 1531 
L 1847 1538 
L 1631 1581 
Q 1134 1678 906 1908 
Q 678 2138 678 2534 
Q 678 3038 1018 3311 
Q 1359 3584 1991 3584 
Q 2272 3584 2531 3532 
Q 2791 3481 3041 3378 
z
" transform="scale(0.015625)"/>
       <path id="Menlo-Regular-75" d="M 609 1325 
L 609 3494 
L 1184 3494 
L 1184 1325 
Q 1184 853 1351 631 
Q 1519 409 1869 409 
Q 2275 409 2490 695 
Q 2706 981 2706 1516 
L 2706 3494 
L 3284 3494 
L 3284 0 
L 2706 0 
L 2706 525 
Q 2553 222 2289 65 
Q 2025 -91 1672 -91 
Q 1134 -91 871 261 
Q 609 613 609 1325 
z
" transform="scale(0.015625)"/>
       <path id="Menlo-Regular-72" d="M 3609 2778 
Q 3425 2922 3234 2987 
Q 3044 3053 2816 3053 
Q 2278 3053 1993 2715 
Q 1709 2378 1709 1741 
L 1709 0 
L 1131 0 
L 1131 3500 
L 1709 3500 
L 1709 2816 
Q 1853 3188 2151 3386 
Q 2450 3584 2859 3584 
Q 3072 3584 3256 3531 
Q 3441 3478 3609 3366 
L 3609 2778 
z
" transform="scale(0.015625)"/>
       <path id="Menlo-Regular-64" d="M 2681 3053 
L 2681 4863 
L 3256 4863 
L 3256 0 
L 2681 0 
L 2681 441 
Q 2538 181 2298 45 
Q 2059 -91 1747 -91 
Q 1113 -91 748 401 
Q 384 894 384 1759 
Q 384 2613 750 3098 
Q 1116 3584 1747 3584 
Q 2063 3584 2303 3448 
Q 2544 3313 2681 3053 
z
M 991 1747 
Q 991 1078 1203 737 
Q 1416 397 1831 397 
Q 2247 397 2464 740 
Q 2681 1084 2681 1747 
Q 2681 2413 2464 2755 
Q 2247 3097 1831 3097 
Q 1416 3097 1203 2756 
Q 991 2416 991 1747 
z
" transform="scale(0.015625)"/>
       <path id="Menlo-Regular-20" transform="scale(0.015625)"/>
       <path id="Menlo-Regular-66" d="M 3322 4863 
L 3322 4384 
L 2669 4384 
Q 2359 4384 2239 4257 
Q 2119 4131 2119 3809 
L 2119 3500 
L 3322 3500 
L 3322 3053 
L 2119 3053 
L 2119 0 
L 1544 0 
L 1544 3053 
L 609 3053 
L 609 3500 
L 1544 3500 
L 1544 3744 
Q 1544 4319 1808 4591 
Q 2072 4863 2631 4863 
L 3322 4863 
z
" transform="scale(0.015625)"/>
       <path id="Menlo-Regular-5f" d="M 3825 -594 
L 3825 -1125 
L 0 -1125 
L 0 -594 
L 3825 -594 
z
" transform="scale(0.015625)"/>
       <path id="Menlo-Regular-3b3" d="M 688 2613 
Q 547 3006 253 3006 
L 100 3006 
L 100 3500 
L 319 3500 
Q 925 3500 1128 2950 
L 1925 809 
L 2944 3500 
L 3541 3500 
L 2225 0 
L 2225 -1331 
L 1631 -1331 
L 1631 0 
L 688 2613 
z
" transform="scale(0.015625)"/>
       <path id="Menlo-Regular-28" d="M 2672 5169 
Q 2256 4456 2051 3748 
Q 1847 3041 1847 2322 
Q 1847 1606 2051 897 
Q 2256 188 2672 -531 
L 2172 -531 
Q 1700 213 1469 917 
Q 1238 1622 1238 2322 
Q 1238 3019 1469 3725 
Q 1700 4431 2172 5169 
L 2672 5169 
z
" transform="scale(0.015625)"/>
       <path id="Menlo-Regular-48" d="M 428 4666 
L 1063 4666 
L 1063 2878 
L 2791 2878 
L 2791 4666 
L 3425 4666 
L 3425 0 
L 2791 0 
L 2791 2347 
L 1063 2347 
L 1063 0 
L 428 0 
L 428 4666 
z
" transform="scale(0.015625)"/>
       <path id="Menlo-Regular-7a" d="M 709 3506 
L 3250 3506 
L 3250 2981 
L 1241 469 
L 3250 469 
L 3250 0 
L 634 0 
L 634 531 
L 2644 3047 
L 709 3047 
L 709 3506 
z
" transform="scale(0.015625)"/>
       <path id="Menlo-Regular-29" d="M 1088 5169 
L 1588 5169 
Q 2059 4431 2290 3725 
Q 2522 3019 2522 2322 
Q 2522 1619 2290 912 
Q 2059 206 1588 -531 
L 1088 -531 
Q 1503 194 1708 903 
Q 1913 1613 1913 2322 
Q 1913 3034 1708 3743 
Q 1503 4453 1088 5169 
z
" transform="scale(0.015625)"/>
      </defs>
      <use xlink:href="#Menlo-Regular-4d"/>
      <use xlink:href="#Menlo-Regular-65" transform="translate(60.205078 0)"/>
      <use xlink:href="#Menlo-Regular-61" transform="translate(120.410156 0)"/>
      <use xlink:href="#Menlo-Regular-73" transform="translate(180.615234 0)"/>
      <use xlink:href="#Menlo-Regular-75" transform="translate(240.820312 0)"/>
      <use xlink:href="#Menlo-Regular-72" transform="translate(301.025391 0)"/>
      <use xlink:href="#Menlo-Regular-65" transform="translate(361.230469 0)"/>
      <use xlink:href="#Menlo-Regular-64" transform="translate(421.435547 0)"/>
      <use xlink:href="#Menlo-Regular-20" transform="translate(481.640625 0)"/>
      <use xlink:href="#Menlo-Regular-66" transform="translate(541.845703 0)"/>
      <use xlink:href="#Menlo-Regular-5f" transform="translate(602.050781 0)"/>
      <use xlink:href="#Menlo-Regular-3b3" transform="translate(662.255859 0)"/>
      <use xlink:href="#Menlo-Regular-20" transform="translate(722.460938 0)"/>
      <use xlink:href="#Menlo-Regular-28" transform="translate(782.666016 0)"/>
      <use xlink:href="#Menlo-Regular-48" transform="translate(842.871094 0)"/>
      <use xlink:href="#Menlo-Regular-7a" transform="translate(903.076172 0)"/>
      <use xlink:href="#Menlo-Regular-29" transform="translate(963.28125 0)"/>
     </g>
    </g>
   </g>
   <g id="matplotlib.axis_2">
    <g id="ytick_1">
     <g id="line2d_13">
      <path d="M 25.133438 188.365078 
L 387.893438 188.365078 
" clip-path="url(#p371a163430)" style="fill: none; stroke: #1a1a1a; stroke-opacity: 0.15; stroke-width: 0.4; stroke-linejoin: miter"/>
     </g>
     <g id="line2d_14">
      <defs>
       <path id="me5c4e8a37b" d="M 0 0 
L 3 0 
" style="stroke: #1a1a1a; stroke-width: 0.8"/>
      </defs>
      <g>
       <use xlink:href="#me5c4e8a37b" x="25.133438" y="188.365078" style="fill: #1a1a1a; stroke: #1a1a1a; stroke-width: 0.8"/>
      </g>
     </g>
     <g id="text_8">
      <!-- 0 -->
      <g style="fill: #1a1a1a" transform="translate(17.419219 191.034375) scale(0.07 -0.07)">
       <use xlink:href="#Menlo-Regular-30"/>
      </g>
     </g>
    </g>
    <g id="ytick_2">
     <g id="line2d_15">
      <path d="M 25.133438 157.712087 
L 387.893438 157.712087 
" clip-path="url(#p371a163430)" style="fill: none; stroke: #1a1a1a; stroke-opacity: 0.15; stroke-width: 0.4; stroke-linejoin: miter"/>
     </g>
     <g id="line2d_16">
      <g>
       <use xlink:href="#me5c4e8a37b" x="25.133438" y="157.712087" style="fill: #1a1a1a; stroke: #1a1a1a; stroke-width: 0.8"/>
      </g>
     </g>
     <g id="text_9">
      <!-- 10 -->
      <g style="fill: #1a1a1a" transform="translate(13.205 160.381384) scale(0.07 -0.07)">
       <use xlink:href="#Menlo-Regular-31"/>
       <use xlink:href="#Menlo-Regular-30" transform="translate(60.205078 0)"/>
      </g>
     </g>
    </g>
    <g id="ytick_3">
     <g id="line2d_17">
      <path d="M 25.133438 127.059096 
L 387.893438 127.059096 
" clip-path="url(#p371a163430)" style="fill: none; stroke: #1a1a1a; stroke-opacity: 0.15; stroke-width: 0.4; stroke-linejoin: miter"/>
     </g>
     <g id="line2d_18">
      <g>
       <use xlink:href="#me5c4e8a37b" x="25.133438" y="127.059096" style="fill: #1a1a1a; stroke: #1a1a1a; stroke-width: 0.8"/>
      </g>
     </g>
     <g id="text_10">
      <!-- 20 -->
      <g style="fill: #1a1a1a" transform="translate(13.205 129.728393) scale(0.07 -0.07)">
       <use xlink:href="#Menlo-Regular-32"/>
       <use xlink:href="#Menlo-Regular-30" transform="translate(60.205078 0)"/>
      </g>
     </g>
    </g>
    <g id="ytick_4">
     <g id="line2d_19">
      <path d="M 25.133438 96.406104 
L 387.893438 96.406104 
" clip-path="url(#p371a163430)" style="fill: none; stroke: #1a1a1a; stroke-opacity: 0.15; stroke-width: 0.4; stroke-linejoin: miter"/>
     </g>
     <g id="line2d_20">
      <g>
       <use xlink:href="#me5c4e8a37b" x="25.133438" y="96.406104" style="fill: #1a1a1a; stroke: #1a1a1a; stroke-width: 0.8"/>
      </g>
     </g>
     <g id="text_11">
      <!-- 30 -->
      <g style="fill: #1a1a1a" transform="translate(13.205 99.075401) scale(0.07 -0.07)">
       <use xlink:href="#Menlo-Regular-33"/>
       <use xlink:href="#Menlo-Regular-30" transform="translate(60.205078 0)"/>
      </g>
     </g>
    </g>
    <g id="ytick_5">
     <g id="line2d_21">
      <path d="M 25.133438 65.753113 
L 387.893438 65.753113 
" clip-path="url(#p371a163430)" style="fill: none; stroke: #1a1a1a; stroke-opacity: 0.15; stroke-width: 0.4; stroke-linejoin: miter"/>
     </g>
     <g id="line2d_22">
      <g>
       <use xlink:href="#me5c4e8a37b" x="25.133438" y="65.753113" style="fill: #1a1a1a; stroke: #1a1a1a; stroke-width: 0.8"/>
      </g>
     </g>
     <g id="text_12">
      <!-- 40 -->
      <g style="fill: #1a1a1a" transform="translate(13.205 68.42241) scale(0.07 -0.07)">
       <use xlink:href="#Menlo-Regular-34"/>
       <use xlink:href="#Menlo-Regular-30" transform="translate(60.205078 0)"/>
      </g>
     </g>
    </g>
    <g id="ytick_6">
     <g id="line2d_23">
      <path d="M 25.133438 35.100122 
L 387.893438 35.100122 
" clip-path="url(#p371a163430)" style="fill: none; stroke: #1a1a1a; stroke-opacity: 0.15; stroke-width: 0.4; stroke-linejoin: miter"/>
     </g>
     <g id="line2d_24">
      <g>
       <use xlink:href="#me5c4e8a37b" x="25.133438" y="35.100122" style="fill: #1a1a1a; stroke: #1a1a1a; stroke-width: 0.8"/>
      </g>
     </g>
     <g id="text_13">
      <!-- 50 -->
      <g style="fill: #1a1a1a" transform="translate(13.205 37.769419) scale(0.07 -0.07)">
       <use xlink:href="#Menlo-Regular-35"/>
       <use xlink:href="#Menlo-Regular-30" transform="translate(60.205078 0)"/>
      </g>
     </g>
    </g>
    <g id="text_14">
     <!-- Per-cell E rate (Hz) -->
     <g style="fill: #1a1a1a" transform="translate(7.54125 149.497578) rotate(-90) scale(0.08 -0.08)">
      <defs>
       <path id="Menlo-Regular-50" d="M 1247 4147 
L 1247 2394 
L 1978 2394 
Q 2416 2394 2661 2625 
Q 2906 2856 2906 3272 
Q 2906 3688 2662 3917 
Q 2419 4147 1978 4147 
L 1247 4147 
z
M 616 4666 
L 1978 4666 
Q 2759 4666 3162 4311 
Q 3566 3956 3566 3272 
Q 3566 2581 3164 2228 
Q 2763 1875 1978 1875 
L 1247 1875 
L 1247 0 
L 616 0 
L 616 4666 
z
" transform="scale(0.015625)"/>
       <path id="Menlo-Regular-2d" d="M 319 2263 
L 3631 2263 
L 3631 1734 
L 319 1734 
L 319 2263 
z
" transform="scale(0.015625)"/>
       <path id="Menlo-Regular-63" d="M 3316 178 
Q 3084 44 2839 -23 
Q 2594 -91 2338 -91 
Q 1525 -91 1067 396 
Q 609 884 609 1747 
Q 609 2609 1067 3096 
Q 1525 3584 2338 3584 
Q 2591 3584 2831 3518 
Q 3072 3453 3316 3316 
L 3316 2713 
Q 3088 2916 2858 3006 
Q 2628 3097 2338 3097 
Q 1797 3097 1506 2747 
Q 1216 2397 1216 1747 
Q 1216 1100 1508 748 
Q 1800 397 2338 397 
Q 2638 397 2875 489 
Q 3113 581 3316 775 
L 3316 178 
z
" transform="scale(0.015625)"/>
       <path id="Menlo-Regular-6c" d="M 2247 1266 
Q 2247 878 2389 681 
Q 2531 484 2809 484 
L 3481 484 
L 3481 0 
L 2753 0 
Q 2238 0 1955 329 
Q 1672 659 1672 1266 
L 1672 4431 
L 750 4431 
L 750 4881 
L 2247 4881 
L 2247 1266 
z
" transform="scale(0.015625)"/>
       <path id="Menlo-Regular-45" d="M 616 4666 
L 3384 4666 
L 3384 4134 
L 1247 4134 
L 1247 2878 
L 3291 2878 
L 3291 2347 
L 1247 2347 
L 1247 531 
L 3444 531 
L 3444 0 
L 616 0 
L 616 4666 
z
" transform="scale(0.015625)"/>
       <path id="Menlo-Regular-74" d="M 1919 4494 
L 1919 3500 
L 3225 3500 
L 3225 3053 
L 1919 3053 
L 1919 1153 
Q 1919 766 2066 612 
Q 2213 459 2578 459 
L 3225 459 
L 3225 0 
L 2522 0 
Q 1875 0 1609 259 
Q 1344 519 1344 1153 
L 1344 3053 
L 409 3053 
L 409 3500 
L 1344 3500 
L 1344 4494 
L 1919 4494 
z
" transform="scale(0.015625)"/>
      </defs>
      <use xlink:href="#Menlo-Regular-50"/>
      <use xlink:href="#Menlo-Regular-65" transform="translate(60.205078 0)"/>
      <use xlink:href="#Menlo-Regular-72" transform="translate(120.410156 0)"/>
      <use xlink:href="#Menlo-Regular-2d" transform="translate(180.615234 0)"/>
      <use xlink:href="#Menlo-Regular-63" transform="translate(240.820312 0)"/>
      <use xlink:href="#Menlo-Regular-65" transform="translate(301.025391 0)"/>
      <use xlink:href="#Menlo-Regular-6c" transform="translate(361.230469 0)"/>
      <use xlink:href="#Menlo-Regular-6c" transform="translate(421.435547 0)"/>
      <use xlink:href="#Menlo-Regular-20" transform="translate(481.640625 0)"/>
      <use xlink:href="#Menlo-Regular-45" transform="translate(541.845703 0)"/>
      <use xlink:href="#Menlo-Regular-20" transform="translate(602.050781 0)"/>
      <use xlink:href="#Menlo-Regular-72" transform="translate(662.255859 0)"/>
      <use xlink:href="#Menlo-Regular-61" transform="translate(722.460938 0)"/>
      <use xlink:href="#Menlo-Regular-74" transform="translate(782.666016 0)"/>
      <use xlink:href="#Menlo-Regular-65" transform="translate(842.871094 0)"/>
      <use xlink:href="#Menlo-Regular-20" transform="translate(903.076172 0)"/>
      <use xlink:href="#Menlo-Regular-28" transform="translate(963.28125 0)"/>
      <use xlink:href="#Menlo-Regular-48" transform="translate(1023.486328 0)"/>
      <use xlink:href="#Menlo-Regular-7a" transform="translate(1083.691406 0)"/>
      <use xlink:href="#Menlo-Regular-29" transform="translate(1143.896484 0)"/>
     </g>
    </g>
   </g>
   <g id="PathCollection_1">
    <defs>
     <path id="mda354fe2e7" d="M 0 -3.872983 
L -3.872983 3.872983 
L 3.872983 3.872983 
z
" style="stroke: #222222; stroke-width: 0.5"/>
    </defs>
    <g clip-path="url(#p371a163430)">
     <use xlink:href="#mda354fe2e7" x="370.619152" y="63.95225" style="fill: #440154; stroke: #222222; stroke-width: 0.5"/>
     <use xlink:href="#mda354fe2e7" x="365.085215" y="56.902062" style="fill: #440154; stroke: #222222; stroke-width: 0.5"/>
     <use xlink:href="#mda354fe2e7" x="370.511307" y="37.858891" style="fill: #440154; stroke: #222222; stroke-width: 0.5"/>
    </g>
   </g>
   <g id="PathCollection_2">
    <defs>
     <path id="m5fdbf61e2c" d="M 0 3.162278 
C 0.838646 3.162278 1.643056 2.82908 2.236068 2.236068 
C 2.82908 1.643056 3.162278 0.838646 3.162278 0 
C 3.162278 -0.838646 2.82908 -1.643056 2.236068 -2.236068 
C 1.643056 -2.82908 0.838646 -3.162278 0 -3.162278 
C -0.838646 -3.162278 -1.643056 -2.82908 -2.236068 -2.236068 
C -2.82908 -1.643056 -3.162278 -0.838646 -3.162278 0 
C -3.162278 0.838646 -2.82908 1.643056 -2.236068 2.236068 
C -1.643056 2.82908 -0.838646 3.162278 0 3.162278 
z
" style="stroke: #222222; stroke-width: 0.5"/>
    </defs>
    <g clip-path="url(#p371a163430)">
     <use xlink:href="#m5fdbf61e2c" x="370.619152" y="159.857796" style="fill: #440154; stroke: #222222; stroke-width: 0.5"/>
     <use xlink:href="#m5fdbf61e2c" x="365.085215" y="158.669993" style="fill: #440154; stroke: #222222; stroke-width: 0.5"/>
     <use xlink:href="#m5fdbf61e2c" x="370.511307" y="158.976523" style="fill: #440154; stroke: #222222; stroke-width: 0.5"/>
    </g>
   </g>
   <g id="PathCollection_3">
    <defs>
     <path id="md22dd1667b" d="M 0 -3.872983 
L -3.872983 3.872983 
L 3.872983 3.872983 
z
" style="stroke: #222222; stroke-width: 0.5"/>
    </defs>
    <g clip-path="url(#p371a163430)">
     <use xlink:href="#md22dd1667b" x="287.259369" y="95.218301" style="fill: #414487; stroke: #222222; stroke-width: 0.5"/>
     <use xlink:href="#md22dd1667b" x="316.308896" y="69.316523" style="fill: #414487; stroke: #222222; stroke-width: 0.5"/>
     <use xlink:href="#md22dd1667b" x="314.210717" y="97.593908" style="fill: #414487; stroke: #222222; stroke-width: 0.5"/>
    </g>
   </g>
   <g id="PathCollection_4">
    <defs>
     <path id="m6a123b31e2" d="M 0 3.162278 
C 0.838646 3.162278 1.643056 2.82908 2.236068 2.236068 
C 2.82908 1.643056 3.162278 0.838646 3.162278 0 
C 3.162278 -0.838646 2.82908 -1.643056 2.236068 -2.236068 
C 1.643056 -2.82908 0.838646 -3.162278 0 -3.162278 
C -0.838646 -3.162278 -1.643056 -2.82908 -2.236068 -2.236068 
C -2.82908 -1.643056 -3.162278 -0.838646 -3.162278 0 
C -3.162278 0.838646 -2.82908 1.643056 -2.236068 2.236068 
C -1.643056 2.82908 -0.838646 3.162278 0 3.162278 
z
" style="stroke: #222222; stroke-width: 0.5"/>
    </defs>
    <g clip-path="url(#p371a163430)">
     <use xlink:href="#m6a123b31e2" x="287.259369" y="164.743117" style="fill: #414487; stroke: #222222; stroke-width: 0.5"/>
     <use xlink:href="#m6a123b31e2" x="316.308896" y="161.543711" style="fill: #414487; stroke: #222222; stroke-width: 0.5"/>
     <use xlink:href="#m6a123b31e2" x="314.210717" y="160.758228" style="fill: #414487; stroke: #222222; stroke-width: 0.5"/>
    </g>
   </g>
   <g id="PathCollection_5">
    <defs>
     <path id="md507278456" d="M 0 -3.872983 
L -3.872983 3.872983 
L 3.872983 3.872983 
z
" style="stroke: #222222; stroke-width: 0.5"/>
    </defs>
    <g clip-path="url(#p371a163430)">
     <use xlink:href="#md507278456" x="259.622219" y="102.191856" style="fill: #2a788e; stroke: #222222; stroke-width: 0.5"/>
     <use xlink:href="#md507278456" x="250.679929" y="102.689968" style="fill: #2a788e; stroke: #222222; stroke-width: 0.5"/>
     <use xlink:href="#md507278456" x="261.220906" y="105.410421" style="fill: #2a788e; stroke: #222222; stroke-width: 0.5"/>
    </g>
   </g>
   <g id="PathCollection_6">
    <defs>
     <path id="maf3112a0d2" d="M 0 3.162278 
C 0.838646 3.162278 1.643056 2.82908 2.236068 2.236068 
C 2.82908 1.643056 3.162278 0.838646 3.162278 0 
C 3.162278 -0.838646 2.82908 -1.643056 2.236068 -2.236068 
C 1.643056 -2.82908 0.838646 -3.162278 0 -3.162278 
C -0.838646 -3.162278 -1.643056 -2.82908 -2.236068 -2.236068 
C -2.82908 -1.643056 -3.162278 -0.838646 -3.162278 0 
C -3.162278 0.838646 -2.82908 1.643056 -2.236068 2.236068 
C -1.643056 2.82908 -0.838646 3.162278 0 3.162278 
z
" style="stroke: #222222; stroke-width: 0.5"/>
    </defs>
    <g clip-path="url(#p371a163430)">
     <use xlink:href="#maf3112a0d2" x="259.622219" y="164.015108" style="fill: #2a788e; stroke: #222222; stroke-width: 0.5"/>
     <use xlink:href="#maf3112a0d2" x="250.679929" y="165.758497" style="fill: #2a788e; stroke: #222222; stroke-width: 0.5"/>
     <use xlink:href="#maf3112a0d2" x="261.220906" y="164.494061" style="fill: #2a788e; stroke: #222222; stroke-width: 0.5"/>
    </g>
   </g>
   <g id="PathCollection_7">
    <defs>
     <path id="m734e67e890" d="M 0 -3.872983 
L -3.872983 3.872983 
L 3.872983 3.872983 
z
" style="stroke: #222222; stroke-width: 0.5"/>
    </defs>
    <g clip-path="url(#p371a163430)">
     <use xlink:href="#m734e67e890" x="208.594904" y="118.706156" style="fill: #22a884; stroke: #222222; stroke-width: 0.5"/>
     <use xlink:href="#m734e67e890" x="200.496288" y="127.748788" style="fill: #22a884; stroke: #222222; stroke-width: 0.5"/>
     <use xlink:href="#m734e67e890" x="202.275215" y="124.223694" style="fill: #22a884; stroke: #222222; stroke-width: 0.5"/>
    </g>
   </g>
   <g id="PathCollection_8">
    <defs>
     <path id="m07b6266e58" d="M 0 3.162278 
C 0.838646 3.162278 1.643056 2.82908 2.236068 2.236068 
C 2.82908 1.643056 3.162278 0.838646 3.162278 0 
C 3.162278 -0.838646 2.82908 -1.643056 2.236068 -2.236068 
C 1.643056 -2.82908 0.838646 -3.162278 0 -3.162278 
C -0.838646 -3.162278 -1.643056 -2.82908 -2.236068 -2.236068 
C -2.82908 -1.643056 -3.162278 -0.838646 -3.162278 0 
C -3.162278 0.838646 -2.82908 1.643056 -2.236068 2.236068 
C -1.643056 2.82908 -0.838646 3.162278 0 3.162278 
z
" style="stroke: #222222; stroke-width: 0.5"/>
    </defs>
    <g clip-path="url(#p371a163430)">
     <use xlink:href="#m07b6266e58" x="208.594904" y="168.996219" style="fill: #22a884; stroke: #222222; stroke-width: 0.5"/>
     <use xlink:href="#m07b6266e58" x="200.496288" y="168.804638" style="fill: #22a884; stroke: #222222; stroke-width: 0.5"/>
     <use xlink:href="#m07b6266e58" x="202.275215" y="169.111168" style="fill: #22a884; stroke: #222222; stroke-width: 0.5"/>
    </g>
   </g>
   <g id="PathCollection_9">
    <defs>
     <path id="m818e7bb8ee" d="M 0 -3.872983 
L -3.872983 3.872983 
L 3.872983 3.872983 
z
" style="stroke: #222222; stroke-width: 0.5"/>
    </defs>
    <g clip-path="url(#p371a163430)">
     <use xlink:href="#m818e7bb8ee" x="167.570722" y="130.430925" style="fill: #7ad151; stroke: #222222; stroke-width: 0.5"/>
     <use xlink:href="#m818e7bb8ee" x="175.988943" y="129.35807" style="fill: #7ad151; stroke: #222222; stroke-width: 0.5"/>
     <use xlink:href="#m818e7bb8ee" x="154.166379" y="140.929574" style="fill: #7ad151; stroke: #222222; stroke-width: 0.5"/>
    </g>
   </g>
   <g id="PathCollection_10">
    <defs>
     <path id="m6514964f6b" d="M 0 3.162278 
C 0.838646 3.162278 1.643056 2.82908 2.236068 2.236068 
C 2.82908 1.643056 3.162278 0.838646 3.162278 0 
C 3.162278 -0.838646 2.82908 -1.643056 2.236068 -2.236068 
C 1.643056 -2.82908 0.838646 -3.162278 0 -3.162278 
C -0.838646 -3.162278 -1.643056 -2.82908 -2.236068 -2.236068 
C -2.82908 -1.643056 -3.162278 -0.838646 -3.162278 0 
C -3.162278 0.838646 -2.82908 1.643056 -2.236068 2.236068 
C -1.643056 2.82908 -0.838646 3.162278 0 3.162278 
z
" style="stroke: #222222; stroke-width: 0.5"/>
    </defs>
    <g clip-path="url(#p371a163430)">
     <use xlink:href="#m6514964f6b" x="167.570722" y="171.448459" style="fill: #7ad151; stroke: #222222; stroke-width: 0.5"/>
     <use xlink:href="#m6514964f6b" x="175.988943" y="170.10739" style="fill: #7ad151; stroke: #222222; stroke-width: 0.5"/>
     <use xlink:href="#m6514964f6b" x="154.166379" y="172.636262" style="fill: #7ad151; stroke: #222222; stroke-width: 0.5"/>
    </g>
   </g>
   <g id="PathCollection_11">
    <defs>
     <path id="m7b03703baa" d="M 0 -3.872983 
L -3.872983 3.872983 
L 3.872983 3.872983 
z
" style="stroke: #222222; stroke-width: 0.5"/>
    </defs>
    <g clip-path="url(#p371a163430)">
     <use xlink:href="#m7b03703baa" x="116.769778" y="151.504856" style="fill: #fde725; stroke: #222222; stroke-width: 0.5"/>
     <use xlink:href="#m7b03703baa" x="110.502587" y="152.845925" style="fill: #fde725; stroke: #222222; stroke-width: 0.5"/>
     <use xlink:href="#m7b03703baa" x="123.291819" y="150.432001" style="fill: #fde725; stroke: #222222; stroke-width: 0.5"/>
    </g>
   </g>
   <g id="PathCollection_12">
    <defs>
     <path id="mffa57c6200" d="M 0 3.162278 
C 0.838646 3.162278 1.643056 2.82908 2.236068 2.236068 
C 2.82908 1.643056 3.162278 0.838646 3.162278 0 
C 3.162278 -0.838646 2.82908 -1.643056 2.236068 -2.236068 
C 1.643056 -2.82908 0.838646 -3.162278 0 -3.162278 
C -0.838646 -3.162278 -1.643056 -2.82908 -2.236068 -2.236068 
C -2.82908 -1.643056 -3.162278 -0.838646 -3.162278 0 
C -3.162278 0.838646 -2.82908 1.643056 -2.236068 2.236068 
C -1.643056 2.82908 -0.838646 3.162278 0 3.162278 
z
" style="stroke: #222222; stroke-width: 0.5"/>
    </defs>
    <g clip-path="url(#p371a163430)">
     <use xlink:href="#mffa57c6200" x="116.769778" y="177.042629" style="fill: #fde725; stroke: #222222; stroke-width: 0.5"/>
     <use xlink:href="#mffa57c6200" x="110.502587" y="177.598215" style="fill: #fde725; stroke: #222222; stroke-width: 0.5"/>
     <use xlink:href="#mffa57c6200" x="123.291819" y="175.222608" style="fill: #fde725; stroke: #222222; stroke-width: 0.5"/>
    </g>
   </g>
   <g id="line2d_25">
    <path d="M 25.133438 188.365078 
L 28.79768 186.606896 
L 32.461922 184.848714 
L 36.126165 183.090533 
L 39.790407 181.332351 
L 43.45465 179.574169 
L 47.118892 177.815987 
L 50.783134 176.057805 
L 54.447377 174.299624 
L 58.111619 172.541442 
L 61.775862 170.78326 
L 65.440104 169.025078 
L 69.104347 167.266896 
L 72.768589 165.508714 
L 76.432831 163.750533 
L 80.097074 161.992351 
L 83.761316 160.234169 
L 87.425559 158.475987 
L 91.089801 156.717805 
L 94.754044 154.959624 
L 98.418286 153.201442 
L 102.082528 151.44326 
L 105.746771 149.685078 
L 109.411013 147.926896 
L 113.075256 146.168714 
L 116.739498 144.410533 
L 120.403741 142.652351 
L 124.067983 140.894169 
L 127.732225 139.135987 
L 131.396468 137.377805 
L 135.06071 135.619624 
L 138.724953 133.861442 
L 142.389195 132.10326 
L 146.053438 130.345078 
L 149.71768 128.586896 
L 153.381922 126.828714 
L 157.046165 125.070533 
L 160.710407 123.312351 
L 164.37465 121.554169 
L 168.038892 119.795987 
L 171.703134 118.037805 
L 175.367377 116.279624 
L 179.031619 114.521442 
L 182.695862 112.76326 
L 186.360104 111.005078 
L 190.024347 109.246896 
L 193.688589 107.488714 
L 197.352831 105.730533 
L 201.017074 103.972351 
L 204.681316 102.214169 
L 208.345559 100.455987 
L 212.009801 98.697805 
L 215.674044 96.939624 
L 219.338286 95.181442 
L 223.002528 93.42326 
L 226.666771 91.665078 
L 230.331013 89.906896 
L 233.995256 88.148714 
L 237.659498 86.390533 
L 241.323741 84.632351 
L 244.987983 82.874169 
L 248.652225 81.115987 
L 252.316468 79.357805 
L 255.98071 77.599624 
L 259.644953 75.841442 
L 263.309195 74.08326 
L 266.973438 72.325078 
L 270.63768 70.566896 
L 274.301922 68.808714 
L 277.966165 67.050533 
L 281.630407 65.292351 
L 285.29465 63.534169 
L 288.958892 61.775987 
L 292.623134 60.017805 
L 296.287377 58.259624 
L 299.951619 56.501442 
L 303.615862 54.74326 
L 307.280104 52.985078 
L 310.944347 51.226896 
L 314.608589 49.468714 
L 318.272831 47.710533 
L 321.937074 45.952351 
L 325.601316 44.194169 
L 329.265559 42.435987 
L 332.929801 40.677805 
L 336.594044 38.919624 
L 340.258286 37.161442 
L 343.922528 35.40326 
L 347.586771 33.645078 
L 351.251013 31.886896 
L 354.915256 30.128714 
L 358.579498 28.370533 
L 362.243741 26.612351 
L 365.907983 24.854169 
L 369.572225 23.095987 
L 373.236468 21.337805 
L 376.90071 19.579624 
L 380.564953 17.821442 
L 384.229195 16.06326 
L 387.893438 14.305078 
" clip-path="url(#p371a163430)" style="fill: none; stroke-dasharray: 3.7,1.6; stroke-dashoffset: 0; stroke: #6a6a6a"/>
   </g>
   <g id="line2d_26">
    <path d="M 25.133438 188.365078 
L 28.79768 188.013442 
L 32.461922 187.661805 
L 36.126165 187.310169 
L 39.790407 186.958533 
L 43.45465 186.606896 
L 47.118892 186.25526 
L 50.783134 185.903624 
L 54.447377 185.551987 
L 58.111619 185.200351 
L 61.775862 184.848714 
L 65.440104 184.497078 
L 69.104347 184.145442 
L 72.768589 183.793805 
L 76.432831 183.442169 
L 80.097074 183.090533 
L 83.761316 182.738896 
L 87.425559 182.38726 
L 91.089801 182.035624 
L 94.754044 181.683987 
L 98.418286 181.332351 
L 102.082528 180.980714 
L 105.746771 180.629078 
L 109.411013 180.277442 
L 113.075256 179.925805 
L 116.739498 179.574169 
L 120.403741 179.222533 
L 124.067983 178.870896 
L 127.732225 178.51926 
L 131.396468 178.167624 
L 135.06071 177.815987 
L 138.724953 177.464351 
L 142.389195 177.112714 
L 146.053438 176.761078 
L 149.71768 176.409442 
L 153.381922 176.057805 
L 157.046165 175.706169 
L 160.710407 175.354533 
L 164.37465 175.002896 
L 168.038892 174.65126 
L 171.703134 174.299624 
L 175.367377 173.947987 
L 179.031619 173.596351 
L 182.695862 173.244714 
L 186.360104 172.893078 
L 190.024347 172.541442 
L 193.688589 172.189805 
L 197.352831 171.838169 
L 201.017074 171.486533 
L 204.681316 171.134896 
L 208.345559 170.78326 
L 212.009801 170.431624 
L 215.674044 170.079987 
L 219.338286 169.728351 
L 223.002528 169.376714 
L 226.666771 169.025078 
L 230.331013 168.673442 
L 233.995256 168.321805 
L 237.659498 167.970169 
L 241.323741 167.618533 
L 244.987983 167.266896 
L 248.652225 166.91526 
L 252.316468 166.563624 
L 255.98071 166.211987 
L 259.644953 165.860351 
L 263.309195 165.508714 
L 266.973438 165.157078 
L 270.63768 164.805442 
L 274.301922 164.453805 
L 277.966165 164.102169 
L 281.630407 163.750533 
L 285.29465 163.398896 
L 288.958892 163.04726 
L 292.623134 162.695624 
L 296.287377 162.343987 
L 299.951619 161.992351 
L 303.615862 161.640714 
L 307.280104 161.289078 
L 310.944347 160.937442 
L 314.608589 160.585805 
L 318.272831 160.234169 
L 321.937074 159.882533 
L 325.601316 159.530896 
L 329.265559 159.17926 
L 332.929801 158.827624 
L 336.594044 158.475987 
L 340.258286 158.124351 
L 343.922528 157.772714 
L 347.586771 157.421078 
L 351.251013 157.069442 
L 354.915256 156.717805 
L 358.579498 156.366169 
L 362.243741 156.014533 
L 365.907983 155.662896 
L 369.572225 155.31126 
L 373.236468 154.959624 
L 376.90071 154.607987 
L 380.564953 154.256351 
L 384.229195 153.904714 
L 387.893438 153.553078 
" clip-path="url(#p371a163430)" style="fill: none; stroke-dasharray: 1,1.65; stroke-dashoffset: 0; stroke: #666666"/>
   </g>
   <g id="patch_3">
    <path d="M 25.133438 188.365078 
L 25.133438 14.305078 
" style="fill: none; stroke: #1a1a1a; stroke-width: 0.8; stroke-linejoin: miter; stroke-linecap: square"/>
   </g>
   <g id="patch_4">
    <path d="M 25.133438 188.365078 
L 387.893438 188.365078 
" style="fill: none; stroke: #1a1a1a; stroke-width: 0.8; stroke-linejoin: miter; stroke-linecap: square"/>
   </g>
   <g id="text_15">
    <!-- Per-cell ceiling: max-cell rate = 0.79·f_γ  (R² = 0.948) -->
    <g style="fill: #1a1a1a" transform="translate(25.133438 8.305078) scale(0.085 -0.085)">
     <defs>
      <path id="Menlo-Regular-69" d="M 988 3488 
L 2459 3488 
L 2459 447 
L 3600 447 
L 3600 0 
L 744 0 
L 744 447 
L 1884 447 
L 1884 3041 
L 988 3041 
L 988 3488 
z
M 1884 4847 
L 2459 4847 
L 2459 4122 
L 1884 4122 
L 1884 4847 
z
" transform="scale(0.015625)"/>
      <path id="Menlo-Regular-6e" d="M 3284 2169 
L 3284 0 
L 2706 0 
L 2706 2169 
Q 2706 2641 2540 2862 
Q 2375 3084 2022 3084 
Q 1619 3084 1401 2798 
Q 1184 2513 1184 1978 
L 1184 0 
L 609 0 
L 609 3500 
L 1184 3500 
L 1184 2975 
Q 1338 3275 1600 3429 
Q 1863 3584 2222 3584 
Q 2756 3584 3020 3232 
Q 3284 2881 3284 2169 
z
" transform="scale(0.015625)"/>
      <path id="Menlo-Regular-67" d="M 2681 1778 
Q 2681 2425 2470 2761 
Q 2259 3097 1856 3097 
Q 1434 3097 1212 2761 
Q 991 2425 991 1778 
Q 991 1131 1214 792 
Q 1438 453 1863 453 
Q 2259 453 2470 793 
Q 2681 1134 2681 1778 
z
M 3256 225 
Q 3256 -563 2884 -969 
Q 2513 -1375 1791 -1375 
Q 1553 -1375 1293 -1331 
Q 1034 -1288 775 -1203 
L 775 -634 
Q 1081 -778 1331 -847 
Q 1581 -916 1791 -916 
Q 2256 -916 2468 -662 
Q 2681 -409 2681 141 
L 2681 166 
L 2681 556 
Q 2544 263 2306 119 
Q 2069 -25 1728 -25 
Q 1116 -25 750 465 
Q 384 956 384 1778 
Q 384 2603 750 3093 
Q 1116 3584 1728 3584 
Q 2066 3584 2300 3450 
Q 2534 3316 2681 3034 
L 2681 3488 
L 3256 3488 
L 3256 225 
z
" transform="scale(0.015625)"/>
      <path id="Menlo-Regular-3a" d="M 1341 3497 
L 2316 3497 
L 2316 2369 
L 1341 2369 
L 1341 3497 
z
M 1341 1138 
L 2316 1138 
L 2316 0 
L 1341 0 
L 1341 1138 
z
" transform="scale(0.015625)"/>
      <path id="Menlo-Regular-6d" d="M 2113 3144 
Q 2219 3369 2383 3476 
Q 2547 3584 2778 3584 
Q 3200 3584 3373 3257 
Q 3547 2931 3547 2028 
L 3547 0 
L 3022 0 
L 3022 2003 
Q 3022 2744 2939 2923 
Q 2856 3103 2638 3103 
Q 2388 3103 2295 2911 
Q 2203 2719 2203 2003 
L 2203 0 
L 1678 0 
L 1678 2003 
Q 1678 2753 1589 2928 
Q 1500 3103 1269 3103 
Q 1041 3103 952 2911 
Q 863 2719 863 2003 
L 863 0 
L 341 0 
L 341 3500 
L 863 3500 
L 863 3200 
Q 966 3388 1120 3486 
Q 1275 3584 1472 3584 
Q 1709 3584 1867 3475 
Q 2025 3366 2113 3144 
z
" transform="scale(0.015625)"/>
      <path id="Menlo-Regular-78" d="M 3494 3500 
L 2241 1825 
L 3616 0 
L 2950 0 
L 1925 1403 
L 903 0 
L 238 0 
L 1613 1825 
L 359 3500 
L 997 3500 
L 1925 2234 
L 2847 3500 
L 3494 3500 
z
" transform="scale(0.015625)"/>
      <path id="Menlo-Regular-3d" d="M 275 1563 
L 3578 1563 
L 3578 1034 
L 275 1034 
L 275 1563 
z
M 275 3034 
L 3578 3034 
L 3578 2506 
L 275 2506 
L 275 3034 
z
" transform="scale(0.015625)"/>
      <path id="Menlo-Regular-2e" d="M 1216 1263 
L 2316 1263 
L 2316 0 
L 1216 0 
L 1216 1263 
z
" transform="scale(0.015625)"/>
      <path id="Menlo-Regular-37" d="M 434 4666 
L 3372 4666 
L 3372 4397 
L 1703 0 
L 1044 0 
L 2669 4134 
L 434 4134 
L 434 4666 
z
" transform="scale(0.015625)"/>
      <path id="Menlo-Regular-39" d="M 1863 2069 
Q 2266 2069 2495 2359 
Q 2725 2650 2725 3163 
Q 2725 3675 2495 3965 
Q 2266 4256 1863 4256 
Q 1444 4256 1231 3979 
Q 1019 3703 1019 3163 
Q 1019 2619 1230 2344 
Q 1441 2069 1863 2069 
z
M 738 97 
L 738 678 
Q 934 563 1156 502 
Q 1378 441 1619 441 
Q 2219 441 2526 892 
Q 2834 1344 2834 2222 
Q 2688 1909 2422 1742 
Q 2156 1575 1813 1575 
Q 1138 1575 767 1990 
Q 397 2406 397 3169 
Q 397 3922 776 4336 
Q 1156 4750 1850 4750 
Q 2663 4750 3041 4165 
Q 3419 3581 3419 2328 
Q 3419 1150 2964 529 
Q 2509 -91 1644 -91 
Q 1416 -91 1184 -42 
Q 953 6 738 97 
z
" transform="scale(0.015625)"/>
      <path id="Menlo-Regular-b7" d="M 1528 2700 
L 2316 2700 
L 2316 1747 
L 1528 1747 
L 1528 2700 
z
" transform="scale(0.015625)"/>
      <path id="Menlo-Regular-52" d="M 2375 2203 
Q 2619 2141 2791 1967 
Q 2963 1794 3219 1275 
L 3853 0 
L 3175 0 
L 2619 1178 
Q 2378 1681 2186 1826 
Q 1994 1972 1684 1972 
L 1081 1972 
L 1081 0 
L 447 0 
L 447 4666 
L 1747 4666 
Q 2516 4666 2925 4319 
Q 3334 3972 3334 3316 
Q 3334 2853 3082 2561 
Q 2831 2269 2375 2203 
z
M 1081 4147 
L 1081 2491 
L 1772 2491 
Q 2225 2491 2447 2694 
Q 2669 2897 2669 3316 
Q 2669 3719 2433 3933 
Q 2197 4147 1747 4147 
L 1081 4147 
z
" transform="scale(0.015625)"/>
      <path id="Menlo-Regular-b2" d="M 1509 2444 
L 2791 2444 
L 2791 2088 
L 1006 2088 
L 1006 2431 
L 1728 3138 
Q 2044 3441 2170 3631 
Q 2297 3822 2297 3981 
Q 2297 4172 2140 4290 
Q 1984 4409 1728 4409 
Q 1575 4409 1398 4353 
Q 1222 4297 1025 4184 
L 1025 4575 
Q 1228 4663 1417 4706 
Q 1606 4750 1791 4750 
Q 2234 4750 2503 4542 
Q 2772 4334 2772 4000 
Q 2772 3822 2656 3636 
Q 2541 3450 2169 3084 
L 1509 2444 
z
" transform="scale(0.015625)"/>
      <path id="Menlo-Regular-38" d="M 1925 2216 
Q 1503 2216 1273 1980 
Q 1044 1744 1044 1313 
Q 1044 881 1276 642 
Q 1509 403 1925 403 
Q 2350 403 2579 639 
Q 2809 875 2809 1313 
Q 2809 1741 2576 1978 
Q 2344 2216 1925 2216 
z
M 1375 2478 
Q 972 2581 745 2862 
Q 519 3144 519 3541 
Q 519 4097 897 4423 
Q 1275 4750 1925 4750 
Q 2578 4750 2956 4423 
Q 3334 4097 3334 3541 
Q 3334 3144 3107 2862 
Q 2881 2581 2478 2478 
Q 2947 2375 3195 2062 
Q 3444 1750 3444 1253 
Q 3444 622 3041 265 
Q 2638 -91 1925 -91 
Q 1213 -91 811 264 
Q 409 619 409 1247 
Q 409 1747 657 2061 
Q 906 2375 1375 2478 
z
M 1147 3481 
Q 1147 3106 1347 2909 
Q 1547 2713 1925 2713 
Q 2306 2713 2506 2909 
Q 2706 3106 2706 3481 
Q 2706 3863 2507 4063 
Q 2309 4263 1925 4263 
Q 1547 4263 1347 4061 
Q 1147 3859 1147 3481 
z
" transform="scale(0.015625)"/>
     </defs>
     <use xlink:href="#Menlo-Regular-50"/>
     <use xlink:href="#Menlo-Regular-65" transform="translate(60.205078 0)"/>
     <use xlink:href="#Menlo-Regular-72" transform="translate(120.410156 0)"/>
     <use xlink:href="#Menlo-Regular-2d" transform="translate(180.615234 0)"/>
     <use xlink:href="#Menlo-Regular-63" transform="translate(240.820312 0)"/>
     <use xlink:href="#Menlo-Regular-65" transform="translate(301.025391 0)"/>
     <use xlink:href="#Menlo-Regular-6c" transform="translate(361.230469 0)"/>
     <use xlink:href="#Menlo-Regular-6c" transform="translate(421.435547 0)"/>
     <use xlink:href="#Menlo-Regular-20" transform="translate(481.640625 0)"/>
     <use xlink:href="#Menlo-Regular-63" transform="translate(541.845703 0)"/>
     <use xlink:href="#Menlo-Regular-65" transform="translate(602.050781 0)"/>
     <use xlink:href="#Menlo-Regular-69" transform="translate(662.255859 0)"/>
     <use xlink:href="#Menlo-Regular-6c" transform="translate(722.460938 0)"/>
     <use xlink:href="#Menlo-Regular-69" transform="translate(782.666016 0)"/>
     <use xlink:href="#Menlo-Regular-6e" transform="translate(842.871094 0)"/>
     <use xlink:href="#Menlo-Regular-67" transform="translate(903.076172 0)"/>
     <use xlink:href="#Menlo-Regular-3a" transform="translate(963.28125 0)"/>
     <use xlink:href="#Menlo-Regular-20" transform="translate(1023.486328 0)"/>
     <use xlink:href="#Menlo-Regular-6d" transform="translate(1083.691406 0)"/>
     <use xlink:href="#Menlo-Regular-61" transform="translate(1143.896484 0)"/>
     <use xlink:href="#Menlo-Regular-78" transform="translate(1204.101562 0)"/>
     <use xlink:href="#Menlo-Regular-2d" transform="translate(1264.306641 0)"/>
     <use xlink:href="#Menlo-Regular-63" transform="translate(1324.511719 0)"/>
     <use xlink:href="#Menlo-Regular-65" transform="translate(1384.716797 0)"/>
     <use xlink:href="#Menlo-Regular-6c" transform="translate(1444.921875 0)"/>
     <use xlink:href="#Menlo-Regular-6c" transform="translate(1505.126953 0)"/>
     <use xlink:href="#Menlo-Regular-20" transform="translate(1565.332031 0)"/>
     <use xlink:href="#Menlo-Regular-72" transform="translate(1625.537109 0)"/>
     <use xlink:href="#Menlo-Regular-61" transform="translate(1685.742188 0)"/>
     <use xlink:href="#Menlo-Regular-74" transform="translate(1745.947266 0)"/>
     <use xlink:href="#Menlo-Regular-65" transform="translate(1806.152344 0)"/>
     <use xlink:href="#Menlo-Regular-20" transform="translate(1866.357422 0)"/>
     <use xlink:href="#Menlo-Regular-3d" transform="translate(1926.5625 0)"/>
     <use xlink:href="#Menlo-Regular-20" transform="translate(1986.767578 0)"/>
     <use xlink:href="#Menlo-Regular-30" transform="translate(2046.972656 0)"/>
     <use xlink:href="#Menlo-Regular-2e" transform="translate(2107.177734 0)"/>
     <use xlink:href="#Menlo-Regular-37" transform="translate(2167.382812 0)"/>
     <use xlink:href="#Menlo-Regular-39" transform="translate(2227.587891 0)"/>
     <use xlink:href="#Menlo-Regular-b7" transform="translate(2287.792969 0)"/>
     <use xlink:href="#Menlo-Regular-66" transform="translate(2347.998047 0)"/>
     <use xlink:href="#Menlo-Regular-5f" transform="translate(2408.203125 0)"/>
     <use xlink:href="#Menlo-Regular-3b3" transform="translate(2468.408203 0)"/>
     <use xlink:href="#Menlo-Regular-20" transform="translate(2528.613281 0)"/>
     <use xlink:href="#Menlo-Regular-20" transform="translate(2588.818359 0)"/>
     <use xlink:href="#Menlo-Regular-28" transform="translate(2649.023438 0)"/>
     <use xlink:href="#Menlo-Regular-52" transform="translate(2709.228516 0)"/>
     <use xlink:href="#Menlo-Regular-b2" transform="translate(2769.433594 0)"/>
     <use xlink:href="#Menlo-Regular-20" transform="translate(2829.638672 0)"/>
     <use xlink:href="#Menlo-Regular-3d" transform="translate(2889.84375 0)"/>
     <use xlink:href="#Menlo-Regular-20" transform="translate(2950.048828 0)"/>
     <use xlink:href="#Menlo-Regular-30" transform="translate(3010.253906 0)"/>
     <use xlink:href="#Menlo-Regular-2e" transform="translate(3070.458984 0)"/>
     <use xlink:href="#Menlo-Regular-39" transform="translate(3130.664062 0)"/>
     <use xlink:href="#Menlo-Regular-34" transform="translate(3190.869141 0)"/>
     <use xlink:href="#Menlo-Regular-38" transform="translate(3251.074219 0)"/>
     <use xlink:href="#Menlo-Regular-29" transform="translate(3311.279297 0)"/>
    </g>
   </g>
   <g id="legend_1">
    <g id="PathCollection_13">
     <g>
      <use xlink:href="#mda354fe2e7" x="37.033438" y="24.106172" style="fill: #440154; stroke: #222222; stroke-width: 0.5"/>
     </g>
    </g>
    <g id="text_16">
     <!-- τ_GABA = 4.5 ms — max cell -->
     <g style="fill: #1a1a1a" transform="translate(48.233438 25.943672) scale(0.07 -0.07)">
      <defs>
       <path id="Menlo-Regular-3c4" d="M 2319 638 
Q 2431 488 2769 488 
L 3047 488 
L 3047 0 
L 2700 0 
Q 2138 0 1881 300 
Q 1625 606 1625 1269 
L 1625 2925 
L 500 2925 
L 500 3494 
L 3356 3494 
L 3356 2925 
L 2213 2925 
L 2213 1234 
Q 2213 781 2319 638 
z
" transform="scale(0.015625)"/>
       <path id="Menlo-Regular-47" d="M 3450 384 
Q 3197 150 2880 29 
Q 2563 -91 2194 -91 
Q 1306 -91 812 545 
Q 319 1181 319 2328 
Q 319 3472 819 4111 
Q 1319 4750 2209 4750 
Q 2503 4750 2772 4667 
Q 3041 4584 3291 4416 
L 3291 3769 
Q 3038 4009 2772 4123 
Q 2506 4238 2209 4238 
Q 1594 4238 1286 3761 
Q 978 3284 978 2328 
Q 978 1356 1276 889 
Q 1575 422 2194 422 
Q 2403 422 2561 470 
Q 2719 519 2847 622 
L 2847 1875 
L 2169 1875 
L 2169 2394 
L 3450 2394 
L 3450 384 
z
" transform="scale(0.015625)"/>
       <path id="Menlo-Regular-41" d="M 1925 4109 
L 1259 1722 
L 2591 1722 
L 1925 4109 
z
M 1544 4666 
L 2309 4666 
L 3738 0 
L 3084 0 
L 2741 1216 
L 1106 1216 
L 769 0 
L 116 0 
L 1544 4666 
z
" transform="scale(0.015625)"/>
       <path id="Menlo-Regular-42" d="M 1153 2353 
L 1153 519 
L 1900 519 
Q 2450 519 2684 711 
Q 2919 903 2919 1344 
Q 2919 1925 2672 2139 
Q 2425 2353 1900 2353 
L 1153 2353 
z
M 1153 4147 
L 1153 2866 
L 1888 2866 
Q 2344 2866 2548 3041 
Q 2753 3216 2753 3481 
Q 2753 3834 2551 3990 
Q 2350 4147 1888 4147 
L 1153 4147 
z
M 519 4666 
L 1900 4666 
Q 2616 4666 3003 4356 
Q 3391 4047 3391 3481 
Q 3391 3178 3186 2931 
Q 2981 2684 2572 2622 
Q 3031 2553 3292 2229 
Q 3553 1906 3553 1281 
Q 3553 647 3137 323 
Q 2722 0 1900 0 
L 519 0 
L 519 4666 
z
" transform="scale(0.015625)"/>
       <path id="Menlo-Regular-2014" d="M 0 2259 
L 3853 2259 
L 3853 1725 
L 0 1725 
L 0 2259 
z
" transform="scale(0.015625)"/>
      </defs>
      <use xlink:href="#Menlo-Regular-3c4"/>
      <use xlink:href="#Menlo-Regular-5f" transform="translate(60.205078 0)"/>
      <use xlink:href="#Menlo-Regular-47" transform="translate(120.410156 0)"/>
      <use xlink:href="#Menlo-Regular-41" transform="translate(180.615234 0)"/>
      <use xlink:href="#Menlo-Regular-42" transform="translate(240.820312 0)"/>
      <use xlink:href="#Menlo-Regular-41" transform="translate(301.025391 0)"/>
      <use xlink:href="#Menlo-Regular-20" transform="translate(361.230469 0)"/>
      <use xlink:href="#Menlo-Regular-3d" transform="translate(421.435547 0)"/>
      <use xlink:href="#Menlo-Regular-20" transform="translate(481.640625 0)"/>
      <use xlink:href="#Menlo-Regular-34" transform="translate(541.845703 0)"/>
      <use xlink:href="#Menlo-Regular-2e" transform="translate(602.050781 0)"/>
      <use xlink:href="#Menlo-Regular-35" transform="translate(662.255859 0)"/>
      <use xlink:href="#Menlo-Regular-20" transform="translate(722.460938 0)"/>
      <use xlink:href="#Menlo-Regular-6d" transform="translate(782.666016 0)"/>
      <use xlink:href="#Menlo-Regular-73" transform="translate(842.871094 0)"/>
      <use xlink:href="#Menlo-Regular-20" transform="translate(903.076172 0)"/>
      <use xlink:href="#Menlo-Regular-2014" transform="translate(963.28125 0)"/>
      <use xlink:href="#Menlo-Regular-20" transform="translate(1023.486328 0)"/>
      <use xlink:href="#Menlo-Regular-6d" transform="translate(1083.691406 0)"/>
      <use xlink:href="#Menlo-Regular-61" transform="translate(1143.896484 0)"/>
      <use xlink:href="#Menlo-Regular-78" transform="translate(1204.101562 0)"/>
      <use xlink:href="#Menlo-Regular-20" transform="translate(1264.306641 0)"/>
      <use xlink:href="#Menlo-Regular-63" transform="translate(1324.511719 0)"/>
      <use xlink:href="#Menlo-Regular-65" transform="translate(1384.716797 0)"/>
      <use xlink:href="#Menlo-Regular-6c" transform="translate(1444.921875 0)"/>
      <use xlink:href="#Menlo-Regular-6c" transform="translate(1505.126953 0)"/>
     </g>
    </g>
    <g id="PathCollection_14">
     <g>
      <use xlink:href="#m5fdbf61e2c" x="37.033438" y="34.400547" style="fill: #440154; stroke: #222222; stroke-width: 0.5"/>
     </g>
    </g>
    <g id="text_17">
     <!-- τ_GABA = 4.5 ms — median cell -->
     <g style="fill: #1a1a1a" transform="translate(48.233438 36.238047) scale(0.07 -0.07)">
      <use xlink:href="#Menlo-Regular-3c4"/>
      <use xlink:href="#Menlo-Regular-5f" transform="translate(60.205078 0)"/>
      <use xlink:href="#Menlo-Regular-47" transform="translate(120.410156 0)"/>
      <use xlink:href="#Menlo-Regular-41" transform="translate(180.615234 0)"/>
      <use xlink:href="#Menlo-Regular-42" transform="translate(240.820312 0)"/>
      <use xlink:href="#Menlo-Regular-41" transform="translate(301.025391 0)"/>
      <use xlink:href="#Menlo-Regular-20" transform="translate(361.230469 0)"/>
      <use xlink:href="#Menlo-Regular-3d" transform="translate(421.435547 0)"/>
      <use xlink:href="#Menlo-Regular-20" transform="translate(481.640625 0)"/>
      <use xlink:href="#Menlo-Regular-34" transform="translate(541.845703 0)"/>
      <use xlink:href="#Menlo-Regular-2e" transform="translate(602.050781 0)"/>
      <use xlink:href="#Menlo-Regular-35" transform="translate(662.255859 0)"/>
      <use xlink:href="#Menlo-Regular-20" transform="translate(722.460938 0)"/>
      <use xlink:href="#Menlo-Regular-6d" transform="translate(782.666016 0)"/>
      <use xlink:href="#Menlo-Regular-73" transform="translate(842.871094 0)"/>
      <use xlink:href="#Menlo-Regular-20" transform="translate(903.076172 0)"/>
      <use xlink:href="#Menlo-Regular-2014" transform="translate(963.28125 0)"/>
      <use xlink:href="#Menlo-Regular-20" transform="translate(1023.486328 0)"/>
      <use xlink:href="#Menlo-Regular-6d" transform="translate(1083.691406 0)"/>
      <use xlink:href="#Menlo-Regular-65" transform="translate(1143.896484 0)"/>
      <use xlink:href="#Menlo-Regular-64" transform="translate(1204.101562 0)"/>
      <use xlink:href="#Menlo-Regular-69" transform="translate(1264.306641 0)"/>
      <use xlink:href="#Menlo-Regular-61" transform="translate(1324.511719 0)"/>
      <use xlink:href="#Menlo-Regular-6e" transform="translate(1384.716797 0)"/>
      <use xlink:href="#Menlo-Regular-20" transform="translate(1444.921875 0)"/>
      <use xlink:href="#Menlo-Regular-63" transform="translate(1505.126953 0)"/>
      <use xlink:href="#Menlo-Regular-65" transform="translate(1565.332031 0)"/>
      <use xlink:href="#Menlo-Regular-6c" transform="translate(1625.537109 0)"/>
      <use xlink:href="#Menlo-Regular-6c" transform="translate(1685.742188 0)"/>
     </g>
    </g>
    <g id="line2d_27">
     <path d="M 31.433438 44.397422 
L 37.033438 44.397422 
L 42.633438 44.397422 
" style="fill: none; stroke-dasharray: 3.7,1.6; stroke-dashoffset: 0; stroke: #6a6a6a"/>
    </g>
    <g id="text_18">
     <!-- y = f_γ (1 spike / cycle ceiling) -->
     <g style="fill: #1a1a1a" transform="translate(48.233438 46.847422) scale(0.07 -0.07)">
      <defs>
       <path id="Menlo-Regular-79" d="M 2681 1125 
Q 2538 759 2316 163 
Q 2006 -663 1900 -844 
Q 1756 -1088 1540 -1209 
Q 1325 -1331 1038 -1331 
L 575 -1331 
L 575 -850 
L 916 -850 
Q 1169 -850 1312 -703 
Q 1456 -556 1678 56 
L 325 3500 
L 934 3500 
L 1972 763 
L 2994 3500 
L 3603 3500 
L 2681 1125 
z
" transform="scale(0.015625)"/>
       <path id="Menlo-Regular-70" d="M 1172 441 
L 1172 -1331 
L 594 -1331 
L 594 3500 
L 1172 3500 
L 1172 3053 
Q 1316 3313 1555 3448 
Q 1794 3584 2106 3584 
Q 2741 3584 3102 3093 
Q 3463 2603 3463 1734 
Q 3463 881 3100 395 
Q 2738 -91 2106 -91 
Q 1788 -91 1548 45 
Q 1309 181 1172 441 
z
M 2859 1747 
Q 2859 2416 2648 2756 
Q 2438 3097 2022 3097 
Q 1603 3097 1387 2755 
Q 1172 2413 1172 1747 
Q 1172 1084 1387 740 
Q 1603 397 2022 397 
Q 2438 397 2648 737 
Q 2859 1078 2859 1747 
z
" transform="scale(0.015625)"/>
       <path id="Menlo-Regular-6b" d="M 738 4863 
L 1331 4863 
L 1331 2047 
L 2841 3500 
L 3541 3500 
L 2163 2181 
L 3756 0 
L 3053 0 
L 1759 1806 
L 1331 1403 
L 1331 0 
L 738 0 
L 738 4863 
z
" transform="scale(0.015625)"/>
       <path id="Menlo-Regular-2f" d="M 2778 4666 
L 3372 4666 
L 916 -594 
L 319 -594 
L 2778 4666 
z
" transform="scale(0.015625)"/>
      </defs>
      <use xlink:href="#Menlo-Regular-79"/>
      <use xlink:href="#Menlo-Regular-20" transform="translate(60.205078 0)"/>
      <use xlink:href="#Menlo-Regular-3d" transform="translate(120.410156 0)"/>
      <use xlink:href="#Menlo-Regular-20" transform="translate(180.615234 0)"/>
      <use xlink:href="#Menlo-Regular-66" transform="translate(240.820312 0)"/>
      <use xlink:href="#Menlo-Regular-5f" transform="translate(301.025391 0)"/>
      <use xlink:href="#Menlo-Regular-3b3" transform="translate(361.230469 0)"/>
      <use xlink:href="#Menlo-Regular-20" transform="translate(421.435547 0)"/>
      <use xlink:href="#Menlo-Regular-28" transform="translate(481.640625 0)"/>
      <use xlink:href="#Menlo-Regular-31" transform="translate(541.845703 0)"/>
      <use xlink:href="#Menlo-Regular-20" transform="translate(602.050781 0)"/>
      <use xlink:href="#Menlo-Regular-73" transform="translate(662.255859 0)"/>
      <use xlink:href="#Menlo-Regular-70" transform="translate(722.460938 0)"/>
      <use xlink:href="#Menlo-Regular-69" transform="translate(782.666016 0)"/>
      <use xlink:href="#Menlo-Regular-6b" transform="translate(842.871094 0)"/>
      <use xlink:href="#Menlo-Regular-65" transform="translate(903.076172 0)"/>
      <use xlink:href="#Menlo-Regular-20" transform="translate(963.28125 0)"/>
      <use xlink:href="#Menlo-Regular-2f" transform="translate(1023.486328 0)"/>
      <use xlink:href="#Menlo-Regular-20" transform="translate(1083.691406 0)"/>
      <use xlink:href="#Menlo-Regular-63" transform="translate(1143.896484 0)"/>
      <use xlink:href="#Menlo-Regular-79" transform="translate(1204.101562 0)"/>
      <use xlink:href="#Menlo-Regular-63" transform="translate(1264.306641 0)"/>
      <use xlink:href="#Menlo-Regular-6c" transform="translate(1324.511719 0)"/>
      <use xlink:href="#Menlo-Regular-65" transform="translate(1384.716797 0)"/>
      <use xlink:href="#Menlo-Regular-20" transform="translate(1444.921875 0)"/>
      <use xlink:href="#Menlo-Regular-63" transform="translate(1505.126953 0)"/>
      <use xlink:href="#Menlo-Regular-65" transform="translate(1565.332031 0)"/>
      <use xlink:href="#Menlo-Regular-69" transform="translate(1625.537109 0)"/>
      <use xlink:href="#Menlo-Regular-6c" transform="translate(1685.742188 0)"/>
      <use xlink:href="#Menlo-Regular-69" transform="translate(1745.947266 0)"/>
      <use xlink:href="#Menlo-Regular-6e" transform="translate(1806.152344 0)"/>
      <use xlink:href="#Menlo-Regular-67" transform="translate(1866.357422 0)"/>
      <use xlink:href="#Menlo-Regular-29" transform="translate(1926.5625 0)"/>
     </g>
    </g>
    <g id="line2d_28">
     <path d="M 31.433438 55.054922 
L 37.033438 55.054922 
L 42.633438 55.054922 
" style="fill: none; stroke-dasharray: 1,1.65; stroke-dashoffset: 0; stroke: #666666"/>
    </g>
    <g id="text_19">
     <!-- y = 0.20 · f_γ (nb041 slope p) -->
     <g style="fill: #1a1a1a" transform="translate(48.233438 57.504922) scale(0.07 -0.07)">
      <defs>
       <path id="Menlo-Regular-62" d="M 2869 1747 
Q 2869 2416 2656 2756 
Q 2444 3097 2028 3097 
Q 1609 3097 1393 2755 
Q 1178 2413 1178 1747 
Q 1178 1084 1393 740 
Q 1609 397 2028 397 
Q 2444 397 2656 737 
Q 2869 1078 2869 1747 
z
M 1178 3053 
Q 1316 3309 1558 3446 
Q 1800 3584 2119 3584 
Q 2750 3584 3112 3098 
Q 3475 2613 3475 1759 
Q 3475 894 3111 401 
Q 2747 -91 2113 -91 
Q 1800 -91 1561 45 
Q 1322 181 1178 441 
L 1178 0 
L 603 0 
L 603 4863 
L 1178 4863 
L 1178 3053 
z
" transform="scale(0.015625)"/>
       <path id="Menlo-Regular-6f" d="M 1925 3097 
Q 1488 3097 1263 2756 
Q 1038 2416 1038 1747 
Q 1038 1081 1263 739 
Q 1488 397 1925 397 
Q 2366 397 2591 739 
Q 2816 1081 2816 1747 
Q 2816 2416 2591 2756 
Q 2366 3097 1925 3097 
z
M 1925 3584 
Q 2653 3584 3039 3112 
Q 3425 2641 3425 1747 
Q 3425 850 3040 379 
Q 2656 -91 1925 -91 
Q 1197 -91 812 379 
Q 428 850 428 1747 
Q 428 2641 812 3112 
Q 1197 3584 1925 3584 
z
" transform="scale(0.015625)"/>
      </defs>
      <use xlink:href="#Menlo-Regular-79"/>
      <use xlink:href="#Menlo-Regular-20" transform="translate(60.205078 0)"/>
      <use xlink:href="#Menlo-Regular-3d" transform="translate(120.410156 0)"/>
      <use xlink:href="#Menlo-Regular-20" transform="translate(180.615234 0)"/>
      <use xlink:href="#Menlo-Regular-30" transform="translate(240.820312 0)"/>
      <use xlink:href="#Menlo-Regular-2e" transform="translate(301.025391 0)"/>
      <use xlink:href="#Menlo-Regular-32" transform="translate(361.230469 0)"/>
      <use xlink:href="#Menlo-Regular-30" transform="translate(421.435547 0)"/>
      <use xlink:href="#Menlo-Regular-20" transform="translate(481.640625 0)"/>
      <use xlink:href="#Menlo-Regular-b7" transform="translate(541.845703 0)"/>
      <use xlink:href="#Menlo-Regular-20" transform="translate(602.050781 0)"/>
      <use xlink:href="#Menlo-Regular-66" transform="translate(662.255859 0)"/>
      <use xlink:href="#Menlo-Regular-5f" transform="translate(722.460938 0)"/>
      <use xlink:href="#Menlo-Regular-3b3" transform="translate(782.666016 0)"/>
      <use xlink:href="#Menlo-Regular-20" transform="translate(842.871094 0)"/>
      <use xlink:href="#Menlo-Regular-28" transform="translate(903.076172 0)"/>
      <use xlink:href="#Menlo-Regular-6e" transform="translate(963.28125 0)"/>
      <use xlink:href="#Menlo-Regular-62" transform="translate(1023.486328 0)"/>
      <use xlink:href="#Menlo-Regular-30" transform="translate(1083.691406 0)"/>
      <use xlink:href="#Menlo-Regular-34" transform="translate(1143.896484 0)"/>
      <use xlink:href="#Menlo-Regular-31" transform="translate(1204.101562 0)"/>
      <use xlink:href="#Menlo-Regular-20" transform="translate(1264.306641 0)"/>
      <use xlink:href="#Menlo-Regular-73" transform="translate(1324.511719 0)"/>
      <use xlink:href="#Menlo-Regular-6c" transform="translate(1384.716797 0)"/>
      <use xlink:href="#Menlo-Regular-6f" transform="translate(1444.921875 0)"/>
      <use xlink:href="#Menlo-Regular-70" transform="translate(1505.126953 0)"/>
      <use xlink:href="#Menlo-Regular-65" transform="translate(1565.332031 0)"/>
      <use xlink:href="#Menlo-Regular-20" transform="translate(1625.537109 0)"/>
      <use xlink:href="#Menlo-Regular-70" transform="translate(1685.742188 0)"/>
      <use xlink:href="#Menlo-Regular-29" transform="translate(1745.947266 0)"/>
     </g>
    </g>
   </g>
  </g>
  <g id="text_20">
   <!-- r005 -->
   <g style="fill: #888888" transform="translate(378.864625 216.779281) scale(0.065 -0.065)">
    <use xlink:href="#Menlo-Regular-72"/>
    <use xlink:href="#Menlo-Regular-30" transform="translate(60.205078 0)"/>
    <use xlink:href="#Menlo-Regular-30" transform="translate(120.410156 0)"/>
    <use xlink:href="#Menlo-Regular-35" transform="translate(180.615234 0)"/>
   </g>
  </g>
 </g>
 <defs>
  <clipPath id="p371a163430">
   <rect x="25.133438" y="14.305078" width="362.76" height="174.06"/>
  </clipPath>
 </defs>
</svg>
