<?xml version="1.0" encoding="utf-8" standalone="no"?>
<!DOCTYPE svg PUBLIC "-//W3C//DTD SVG 1.1//EN"
  "http://www.w3.org/Graphics/SVG/1.1/DTD/svg11.dtd">
<svg xmlns:xlink="http://www.w3.org/1999/xlink" width="719.159375pt" height="295.2pt" viewBox="0 0 719.159375 295.2" xmlns="http://www.w3.org/2000/svg" version="1.1">
 <metadata>
  <rdf:RDF xmlns:dc="http://purl.org/dc/elements/1.1/" xmlns:cc="http://creativecommons.org/ns#" xmlns:rdf="http://www.w3.org/1999/02/22-rdf-syntax-ns#">
   <cc:Work>
    <dc:type rdf:resource="http://purl.org/dc/dcmitype/StillImage"/>
    <dc:date>2026-06-30T19:31:26.235304</dc:date>
    <dc:format>image/svg+xml</dc:format>
    <dc:creator>
     <cc:Agent>
      <dc:title>Matplotlib v3.10.8, https://matplotlib.org/</dc:title>
     </cc:Agent>
    </dc:creator>
   </cc:Work>
  </rdf:RDF>
 </metadata>
 <defs>
  <style type="text/css">*{stroke-linejoin: round; stroke-linecap: butt}</style>
 </defs>
 <g id="figure_1">
  <g id="patch_1">
   <path d="M 0 295.2 
L 719.159375 295.2 
L 719.159375 0 
L 0 0 
z
" style="fill: #ffffff"/>
  </g>
  <g id="axes_1">
   <g id="patch_2">
    <path d="M 46.079375 251.16 
L 347.867547 251.16 
L 347.867547 53.56 
L 46.079375 53.56 
z
" style="fill: #ffffff"/>
   </g>
   <g id="matplotlib.axis_1">
    <g id="xtick_1">
     <g id="line2d_1">
      <defs>
       <path id="m889db5110e" d="M 0 0 
L 0 -4 
" style="stroke: #1a1a1a"/>
      </defs>
      <g>
       <use xlink:href="#m889db5110e" x="63.83162" y="251.16" style="fill: #1a1a1a; stroke: #1a1a1a"/>
      </g>
     </g>
     <g id="text_1">
      <!-- 0 -->
      <g style="fill: #1a1a1a" transform="translate(61.12248 261.523906) scale(0.09 -0.09)">
       <defs>
        <path id="Menlo-Regular-30" d="M 1925 4734 
Q 2672 4734 3055 4125 
Q 3438 3516 3438 2322 
Q 3438 1128 3055 518 
Q 2672 -91 1925 -91 
Q 1178 -91 797 518 
Q 416 1128 416 2322 
Q 416 3516 797 4125 
Q 1178 4734 1925 4734 
z
M 1925 409 
Q 2369 409 2586 881 
Q 2803 1353 2803 2322 
Q 2803 2838 2741 3253 
L 1253 925 
Q 1488 409 1925 409 
z
M 1925 4234 
Q 1484 4234 1267 3762 
Q 1050 3291 1050 2322 
Q 1050 1881 1109 1497 
L 2566 3819 
Q 2328 4234 1925 4234 
z
" transform="scale(0.015625)"/>
       </defs>
       <use xlink:href="#Menlo-Regular-30"/>
      </g>
     </g>
    </g>
    <g id="xtick_2">
     <g id="line2d_2">
      <g>
       <use xlink:href="#m889db5110e" x="104.177633" y="251.16" style="fill: #1a1a1a; stroke: #1a1a1a"/>
      </g>
     </g>
     <g id="text_2">
      <!-- 5 -->
      <g style="fill: #1a1a1a" transform="translate(101.468492 261.523906) scale(0.09 -0.09)">
       <defs>
        <path id="Menlo-Regular-35" d="M 647 4666 
L 3009 4666 
L 3009 4134 
L 1222 4134 
L 1222 2988 
Q 1356 3038 1492 3061 
Q 1628 3084 1766 3084 
Q 2491 3084 2916 2656 
Q 3341 2228 3341 1497 
Q 3341 759 2895 334 
Q 2450 -91 1678 -91 
Q 1306 -91 998 -41 
Q 691 9 447 109 
L 447 750 
Q 734 594 1025 517 
Q 1316 441 1619 441 
Q 2141 441 2423 716 
Q 2706 991 2706 1497 
Q 2706 1997 2414 2275 
Q 2122 2553 1600 2553 
Q 1347 2553 1106 2495 
Q 866 2438 647 2322 
L 647 4666 
z
" transform="scale(0.015625)"/>
       </defs>
       <use xlink:href="#Menlo-Regular-35"/>
      </g>
     </g>
    </g>
    <g id="xtick_3">
     <g id="line2d_3">
      <g>
       <use xlink:href="#m889db5110e" x="144.523645" y="251.16" style="fill: #1a1a1a; stroke: #1a1a1a"/>
      </g>
     </g>
     <g id="text_3">
      <!-- 10 -->
      <g style="fill: #1a1a1a" transform="translate(139.105364 261.523906) scale(0.09 -0.09)">
       <defs>
        <path id="Menlo-Regular-31" d="M 844 528 
L 1825 528 
L 1825 4053 
L 650 3488 
L 650 4094 
L 1819 4650 
L 2450 4650 
L 2450 528 
L 3419 528 
L 3419 0 
L 844 0 
L 844 528 
z
" transform="scale(0.015625)"/>
       </defs>
       <use xlink:href="#Menlo-Regular-31"/>
       <use xlink:href="#Menlo-Regular-30" transform="translate(60.205078 0)"/>
      </g>
     </g>
    </g>
    <g id="xtick_4">
     <g id="line2d_4">
      <g>
       <use xlink:href="#m889db5110e" x="184.869657" y="251.16" style="fill: #1a1a1a; stroke: #1a1a1a"/>
      </g>
     </g>
     <g id="text_4">
      <!-- 15 -->
      <g style="fill: #1a1a1a" transform="translate(179.451376 261.523906) scale(0.09 -0.09)">
       <use xlink:href="#Menlo-Regular-31"/>
       <use xlink:href="#Menlo-Regular-35" transform="translate(60.205078 0)"/>
      </g>
     </g>
    </g>
    <g id="xtick_5">
     <g id="line2d_5">
      <g>
       <use xlink:href="#m889db5110e" x="225.21567" y="251.16" style="fill: #1a1a1a; stroke: #1a1a1a"/>
      </g>
     </g>
     <g id="text_5">
      <!-- 20 -->
      <g style="fill: #1a1a1a" transform="translate(219.797388 261.523906) scale(0.09 -0.09)">
       <defs>
        <path id="Menlo-Regular-32" d="M 1166 531 
L 3309 531 
L 3309 0 
L 475 0 
L 475 531 
Q 1059 1147 1496 1619 
Q 1934 2091 2100 2284 
Q 2413 2666 2522 2902 
Q 2631 3138 2631 3384 
Q 2631 3775 2401 3997 
Q 2172 4219 1772 4219 
Q 1488 4219 1175 4116 
Q 863 4013 513 3803 
L 513 4441 
Q 834 4594 1145 4672 
Q 1456 4750 1759 4750 
Q 2444 4750 2861 4386 
Q 3278 4022 3278 3431 
Q 3278 3131 3139 2831 
Q 3000 2531 2688 2169 
Q 2513 1966 2180 1606 
Q 1847 1247 1166 531 
z
" transform="scale(0.015625)"/>
       </defs>
       <use xlink:href="#Menlo-Regular-32"/>
       <use xlink:href="#Menlo-Regular-30" transform="translate(60.205078 0)"/>
      </g>
     </g>
    </g>
    <g id="xtick_6">
     <g id="line2d_6">
      <g>
       <use xlink:href="#m889db5110e" x="265.561682" y="251.16" style="fill: #1a1a1a; stroke: #1a1a1a"/>
      </g>
     </g>
     <g id="text_6">
      <!-- 25 -->
      <g style="fill: #1a1a1a" transform="translate(260.143401 261.523906) scale(0.09 -0.09)">
       <use xlink:href="#Menlo-Regular-32"/>
       <use xlink:href="#Menlo-Regular-35" transform="translate(60.205078 0)"/>
      </g>
     </g>
    </g>
    <g id="xtick_7">
     <g id="line2d_7">
      <g>
       <use xlink:href="#m889db5110e" x="305.907694" y="251.16" style="fill: #1a1a1a; stroke: #1a1a1a"/>
      </g>
     </g>
     <g id="text_7">
      <!-- 30 -->
      <g style="fill: #1a1a1a" transform="translate(300.489413 261.523906) scale(0.09 -0.09)">
       <defs>
        <path id="Menlo-Regular-33" d="M 2425 2497 
Q 2884 2375 3128 2064 
Q 3372 1753 3372 1288 
Q 3372 644 2939 276 
Q 2506 -91 1741 -91 
Q 1419 -91 1084 -31 
Q 750 28 428 141 
L 428 769 
Q 747 603 1056 522 
Q 1366 441 1672 441 
Q 2191 441 2469 675 
Q 2747 909 2747 1350 
Q 2747 1756 2469 1995 
Q 2191 2234 1716 2234 
L 1234 2234 
L 1234 2753 
L 1716 2753 
Q 2150 2753 2394 2943 
Q 2638 3134 2638 3475 
Q 2638 3834 2411 4026 
Q 2184 4219 1766 4219 
Q 1488 4219 1191 4156 
Q 894 4094 569 3969 
L 569 4550 
Q 947 4650 1242 4700 
Q 1538 4750 1766 4750 
Q 2447 4750 2855 4408 
Q 3263 4066 3263 3500 
Q 3263 3116 3048 2859 
Q 2834 2603 2425 2497 
z
" transform="scale(0.015625)"/>
       </defs>
       <use xlink:href="#Menlo-Regular-33"/>
       <use xlink:href="#Menlo-Regular-30" transform="translate(60.205078 0)"/>
      </g>
     </g>
    </g>
    <g id="xtick_8">
     <g id="line2d_8">
      <g>
       <use xlink:href="#m889db5110e" x="346.253707" y="251.16" style="fill: #1a1a1a; stroke: #1a1a1a"/>
      </g>
     </g>
     <g id="text_8">
      <!-- 35 -->
      <g style="fill: #1a1a1a" transform="translate(340.835425 261.523906) scale(0.09 -0.09)">
       <use xlink:href="#Menlo-Regular-33"/>
       <use xlink:href="#Menlo-Regular-35" transform="translate(60.205078 0)"/>
      </g>
     </g>
    </g>
    <g id="text_9">
     <!-- spikes per trial -->
     <g style="fill: #1a1a1a" transform="translate(148.810961 275.022187) scale(0.1 -0.1)">
      <defs>
       <path id="Menlo-Regular-73" d="M 3041 3378 
L 3041 2816 
Q 2794 2959 2544 3031 
Q 2294 3103 2034 3103 
Q 1644 3103 1451 2976 
Q 1259 2850 1259 2591 
Q 1259 2356 1403 2240 
Q 1547 2125 2119 2016 
L 2350 1972 
Q 2778 1891 2998 1647 
Q 3219 1403 3219 1013 
Q 3219 494 2850 201 
Q 2481 -91 1825 -91 
Q 1566 -91 1281 -36 
Q 997 19 666 128 
L 666 722 
Q 988 556 1281 473 
Q 1575 391 1838 391 
Q 2219 391 2428 545 
Q 2638 700 2638 978 
Q 2638 1378 1872 1531 
L 1847 1538 
L 1631 1581 
Q 1134 1678 906 1908 
Q 678 2138 678 2534 
Q 678 3038 1018 3311 
Q 1359 3584 1991 3584 
Q 2272 3584 2531 3532 
Q 2791 3481 3041 3378 
z
" transform="scale(0.015625)"/>
       <path id="Menlo-Regular-70" d="M 1172 441 
L 1172 -1331 
L 594 -1331 
L 594 3500 
L 1172 3500 
L 1172 3053 
Q 1316 3313 1555 3448 
Q 1794 3584 2106 3584 
Q 2741 3584 3102 3093 
Q 3463 2603 3463 1734 
Q 3463 881 3100 395 
Q 2738 -91 2106 -91 
Q 1788 -91 1548 45 
Q 1309 181 1172 441 
z
M 2859 1747 
Q 2859 2416 2648 2756 
Q 2438 3097 2022 3097 
Q 1603 3097 1387 2755 
Q 1172 2413 1172 1747 
Q 1172 1084 1387 740 
Q 1603 397 2022 397 
Q 2438 397 2648 737 
Q 2859 1078 2859 1747 
z
" transform="scale(0.015625)"/>
       <path id="Menlo-Regular-69" d="M 988 3488 
L 2459 3488 
L 2459 447 
L 3600 447 
L 3600 0 
L 744 0 
L 744 447 
L 1884 447 
L 1884 3041 
L 988 3041 
L 988 3488 
z
M 1884 4847 
L 2459 4847 
L 2459 4122 
L 1884 4122 
L 1884 4847 
z
" transform="scale(0.015625)"/>
       <path id="Menlo-Regular-6b" d="M 738 4863 
L 1331 4863 
L 1331 2047 
L 2841 3500 
L 3541 3500 
L 2163 2181 
L 3756 0 
L 3053 0 
L 1759 1806 
L 1331 1403 
L 1331 0 
L 738 0 
L 738 4863 
z
" transform="scale(0.015625)"/>
       <path id="Menlo-Regular-65" d="M 3500 2038 
L 3500 1756 
L 1009 1756 
L 1009 1738 
Q 984 1022 1282 709 
Q 1581 397 2125 397 
Q 2400 397 2700 484 
Q 3000 572 3341 750 
L 3341 178 
Q 3013 44 2708 -23 
Q 2403 -91 2119 -91 
Q 1303 -91 843 398 
Q 384 888 384 1747 
Q 384 2584 834 3084 
Q 1284 3584 2034 3584 
Q 2703 3584 3089 3131 
Q 3475 2678 3500 2038 
z
M 2925 2206 
Q 2888 2569 2661 2833 
Q 2434 3097 2009 3097 
Q 1594 3097 1325 2822 
Q 1056 2547 1031 2203 
L 2925 2206 
z
" transform="scale(0.015625)"/>
       <path id="Menlo-Regular-20" transform="scale(0.015625)"/>
       <path id="Menlo-Regular-72" d="M 3609 2778 
Q 3425 2922 3234 2987 
Q 3044 3053 2816 3053 
Q 2278 3053 1993 2715 
Q 1709 2378 1709 1741 
L 1709 0 
L 1131 0 
L 1131 3500 
L 1709 3500 
L 1709 2816 
Q 1853 3188 2151 3386 
Q 2450 3584 2859 3584 
Q 3072 3584 3256 3531 
Q 3441 3478 3609 3366 
L 3609 2778 
z
" transform="scale(0.015625)"/>
       <path id="Menlo-Regular-74" d="M 1919 4494 
L 1919 3500 
L 3225 3500 
L 3225 3053 
L 1919 3053 
L 1919 1153 
Q 1919 766 2066 612 
Q 2213 459 2578 459 
L 3225 459 
L 3225 0 
L 2522 0 
Q 1875 0 1609 259 
Q 1344 519 1344 1153 
L 1344 3053 
L 409 3053 
L 409 3500 
L 1344 3500 
L 1344 4494 
L 1919 4494 
z
" transform="scale(0.015625)"/>
       <path id="Menlo-Regular-61" d="M 2194 1759 
L 2003 1759 
Q 1500 1759 1245 1582 
Q 991 1406 991 1056 
Q 991 741 1181 566 
Q 1372 391 1709 391 
Q 2184 391 2456 720 
Q 2728 1050 2731 1631 
L 2731 1759 
L 2194 1759 
z
M 3309 1997 
L 3309 0 
L 2731 0 
L 2731 519 
Q 2547 206 2267 57 
Q 1988 -91 1588 -91 
Q 1053 -91 734 211 
Q 416 513 416 1019 
Q 416 1603 808 1906 
Q 1200 2209 1959 2209 
L 2731 2209 
L 2731 2300 
Q 2728 2719 2518 2908 
Q 2309 3097 1850 3097 
Q 1556 3097 1256 3012 
Q 956 2928 672 2766 
L 672 3341 
Q 991 3463 1283 3523 
Q 1575 3584 1850 3584 
Q 2284 3584 2592 3456 
Q 2900 3328 3091 3072 
Q 3209 2916 3259 2686 
Q 3309 2456 3309 1997 
z
" transform="scale(0.015625)"/>
       <path id="Menlo-Regular-6c" d="M 2247 1266 
Q 2247 878 2389 681 
Q 2531 484 2809 484 
L 3481 484 
L 3481 0 
L 2753 0 
Q 2238 0 1955 329 
Q 1672 659 1672 1266 
L 1672 4431 
L 750 4431 
L 750 4881 
L 2247 4881 
L 2247 1266 
z
" transform="scale(0.015625)"/>
      </defs>
      <use xlink:href="#Menlo-Regular-73"/>
      <use xlink:href="#Menlo-Regular-70" transform="translate(60.205078 0)"/>
      <use xlink:href="#Menlo-Regular-69" transform="translate(120.410156 0)"/>
      <use xlink:href="#Menlo-Regular-6b" transform="translate(180.615234 0)"/>
      <use xlink:href="#Menlo-Regular-65" transform="translate(240.820312 0)"/>
      <use xlink:href="#Menlo-Regular-73" transform="translate(301.025391 0)"/>
      <use xlink:href="#Menlo-Regular-20" transform="translate(361.230469 0)"/>
      <use xlink:href="#Menlo-Regular-70" transform="translate(421.435547 0)"/>
      <use xlink:href="#Menlo-Regular-65" transform="translate(481.640625 0)"/>
      <use xlink:href="#Menlo-Regular-72" transform="translate(541.845703 0)"/>
      <use xlink:href="#Menlo-Regular-20" transform="translate(602.050781 0)"/>
      <use xlink:href="#Menlo-Regular-74" transform="translate(662.255859 0)"/>
      <use xlink:href="#Menlo-Regular-72" transform="translate(722.460938 0)"/>
      <use xlink:href="#Menlo-Regular-69" transform="translate(782.666016 0)"/>
      <use xlink:href="#Menlo-Regular-61" transform="translate(842.871094 0)"/>
      <use xlink:href="#Menlo-Regular-6c" transform="translate(903.076172 0)"/>
     </g>
    </g>
   </g>
   <g id="matplotlib.axis_2">
    <g id="ytick_1">
     <g id="line2d_9">
      <defs>
       <path id="m90938a5cec" d="M 0 0 
L 4 0 
" style="stroke: #1a1a1a"/>
      </defs>
      <g>
       <use xlink:href="#m90938a5cec" x="46.079375" y="251.16" style="fill: #1a1a1a; stroke: #1a1a1a"/>
      </g>
     </g>
     <g id="text_10">
      <!-- 0.00 -->
      <g style="fill: #1a1a1a" transform="translate(20.90625 254.591953) scale(0.09 -0.09)">
       <defs>
        <path id="Menlo-Regular-2e" d="M 1216 1263 
L 2316 1263 
L 2316 0 
L 1216 0 
L 1216 1263 
z
" transform="scale(0.015625)"/>
       </defs>
       <use xlink:href="#Menlo-Regular-30"/>
       <use xlink:href="#Menlo-Regular-2e" transform="translate(60.205078 0)"/>
       <use xlink:href="#Menlo-Regular-30" transform="translate(120.410156 0)"/>
       <use xlink:href="#Menlo-Regular-30" transform="translate(180.615234 0)"/>
      </g>
     </g>
    </g>
    <g id="ytick_2">
     <g id="line2d_10">
      <g>
       <use xlink:href="#m90938a5cec" x="46.079375" y="215.852218" style="fill: #1a1a1a; stroke: #1a1a1a"/>
      </g>
     </g>
     <g id="text_11">
      <!-- 0.05 -->
      <g style="fill: #1a1a1a" transform="translate(20.90625 219.284171) scale(0.09 -0.09)">
       <use xlink:href="#Menlo-Regular-30"/>
       <use xlink:href="#Menlo-Regular-2e" transform="translate(60.205078 0)"/>
       <use xlink:href="#Menlo-Regular-30" transform="translate(120.410156 0)"/>
       <use xlink:href="#Menlo-Regular-35" transform="translate(180.615234 0)"/>
      </g>
     </g>
    </g>
    <g id="ytick_3">
     <g id="line2d_11">
      <g>
       <use xlink:href="#m90938a5cec" x="46.079375" y="180.544437" style="fill: #1a1a1a; stroke: #1a1a1a"/>
      </g>
     </g>
     <g id="text_12">
      <!-- 0.10 -->
      <g style="fill: #1a1a1a" transform="translate(20.90625 183.97639) scale(0.09 -0.09)">
       <use xlink:href="#Menlo-Regular-30"/>
       <use xlink:href="#Menlo-Regular-2e" transform="translate(60.205078 0)"/>
       <use xlink:href="#Menlo-Regular-31" transform="translate(120.410156 0)"/>
       <use xlink:href="#Menlo-Regular-30" transform="translate(180.615234 0)"/>
      </g>
     </g>
    </g>
    <g id="ytick_4">
     <g id="line2d_12">
      <g>
       <use xlink:href="#m90938a5cec" x="46.079375" y="145.236655" style="fill: #1a1a1a; stroke: #1a1a1a"/>
      </g>
     </g>
     <g id="text_13">
      <!-- 0.15 -->
      <g style="fill: #1a1a1a" transform="translate(20.90625 148.668608) scale(0.09 -0.09)">
       <use xlink:href="#Menlo-Regular-30"/>
       <use xlink:href="#Menlo-Regular-2e" transform="translate(60.205078 0)"/>
       <use xlink:href="#Menlo-Regular-31" transform="translate(120.410156 0)"/>
       <use xlink:href="#Menlo-Regular-35" transform="translate(180.615234 0)"/>
      </g>
     </g>
    </g>
    <g id="ytick_5">
     <g id="line2d_13">
      <g>
       <use xlink:href="#m90938a5cec" x="46.079375" y="109.928873" style="fill: #1a1a1a; stroke: #1a1a1a"/>
      </g>
     </g>
     <g id="text_14">
      <!-- 0.20 -->
      <g style="fill: #1a1a1a" transform="translate(20.90625 113.360827) scale(0.09 -0.09)">
       <use xlink:href="#Menlo-Regular-30"/>
       <use xlink:href="#Menlo-Regular-2e" transform="translate(60.205078 0)"/>
       <use xlink:href="#Menlo-Regular-32" transform="translate(120.410156 0)"/>
       <use xlink:href="#Menlo-Regular-30" transform="translate(180.615234 0)"/>
      </g>
     </g>
    </g>
    <g id="ytick_6">
     <g id="line2d_14">
      <g>
       <use xlink:href="#m90938a5cec" x="46.079375" y="74.621092" style="fill: #1a1a1a; stroke: #1a1a1a"/>
      </g>
     </g>
     <g id="text_15">
      <!-- 0.25 -->
      <g style="fill: #1a1a1a" transform="translate(20.90625 78.053045) scale(0.09 -0.09)">
       <use xlink:href="#Menlo-Regular-30"/>
       <use xlink:href="#Menlo-Regular-2e" transform="translate(60.205078 0)"/>
       <use xlink:href="#Menlo-Regular-32" transform="translate(120.410156 0)"/>
       <use xlink:href="#Menlo-Regular-35" transform="translate(180.615234 0)"/>
      </g>
     </g>
    </g>
    <g id="text_16">
     <!-- probability -->
     <g style="fill: #1a1a1a" transform="translate(14.826562 185.471719) rotate(-90) scale(0.1 -0.1)">
      <defs>
       <path id="Menlo-Regular-6f" d="M 1925 3097 
Q 1488 3097 1263 2756 
Q 1038 2416 1038 1747 
Q 1038 1081 1263 739 
Q 1488 397 1925 397 
Q 2366 397 2591 739 
Q 2816 1081 2816 1747 
Q 2816 2416 2591 2756 
Q 2366 3097 1925 3097 
z
M 1925 3584 
Q 2653 3584 3039 3112 
Q 3425 2641 3425 1747 
Q 3425 850 3040 379 
Q 2656 -91 1925 -91 
Q 1197 -91 812 379 
Q 428 850 428 1747 
Q 428 2641 812 3112 
Q 1197 3584 1925 3584 
z
" transform="scale(0.015625)"/>
       <path id="Menlo-Regular-62" d="M 2869 1747 
Q 2869 2416 2656 2756 
Q 2444 3097 2028 3097 
Q 1609 3097 1393 2755 
Q 1178 2413 1178 1747 
Q 1178 1084 1393 740 
Q 1609 397 2028 397 
Q 2444 397 2656 737 
Q 2869 1078 2869 1747 
z
M 1178 3053 
Q 1316 3309 1558 3446 
Q 1800 3584 2119 3584 
Q 2750 3584 3112 3098 
Q 3475 2613 3475 1759 
Q 3475 894 3111 401 
Q 2747 -91 2113 -91 
Q 1800 -91 1561 45 
Q 1322 181 1178 441 
L 1178 0 
L 603 0 
L 603 4863 
L 1178 4863 
L 1178 3053 
z
" transform="scale(0.015625)"/>
       <path id="Menlo-Regular-79" d="M 2681 1125 
Q 2538 759 2316 163 
Q 2006 -663 1900 -844 
Q 1756 -1088 1540 -1209 
Q 1325 -1331 1038 -1331 
L 575 -1331 
L 575 -850 
L 916 -850 
Q 1169 -850 1312 -703 
Q 1456 -556 1678 56 
L 325 3500 
L 934 3500 
L 1972 763 
L 2994 3500 
L 3603 3500 
L 2681 1125 
z
" transform="scale(0.015625)"/>
      </defs>
      <use xlink:href="#Menlo-Regular-70"/>
      <use xlink:href="#Menlo-Regular-72" transform="translate(60.205078 0)"/>
      <use xlink:href="#Menlo-Regular-6f" transform="translate(120.410156 0)"/>
      <use xlink:href="#Menlo-Regular-62" transform="translate(180.615234 0)"/>
      <use xlink:href="#Menlo-Regular-61" transform="translate(240.820312 0)"/>
      <use xlink:href="#Menlo-Regular-62" transform="translate(301.025391 0)"/>
      <use xlink:href="#Menlo-Regular-69" transform="translate(361.230469 0)"/>
      <use xlink:href="#Menlo-Regular-6c" transform="translate(421.435547 0)"/>
      <use xlink:href="#Menlo-Regular-69" transform="translate(481.640625 0)"/>
      <use xlink:href="#Menlo-Regular-74" transform="translate(541.845703 0)"/>
      <use xlink:href="#Menlo-Regular-79" transform="translate(602.050781 0)"/>
     </g>
    </g>
   </g>
   <g id="patch_3">
    <path d="M 59.797019 251.16 
L 67.866222 251.16 
L 67.866222 190.077538 
L 59.797019 190.077538 
z
" clip-path="url(#p7e4da72719)" style="fill: #1a1a1a; opacity: 0.35"/>
   </g>
   <g id="patch_4">
    <path d="M 67.866222 251.16 
L 75.935424 251.16 
L 75.935424 108.163484 
L 67.866222 108.163484 
z
" clip-path="url(#p7e4da72719)" style="fill: #1a1a1a; opacity: 0.35"/>
   </g>
   <g id="patch_5">
    <path d="M 75.935424 251.16 
L 84.004627 251.16 
L 84.004627 62.969524 
L 75.935424 62.969524 
z
" clip-path="url(#p7e4da72719)" style="fill: #1a1a1a; opacity: 0.35"/>
   </g>
   <g id="patch_6">
    <path d="M 84.004627 251.16 
L 92.073829 251.16 
L 92.073829 108.86964 
L 84.004627 108.86964 
z
" clip-path="url(#p7e4da72719)" style="fill: #1a1a1a; opacity: 0.35"/>
   </g>
   <g id="patch_7">
    <path d="M 92.073829 251.16 
L 100.143031 251.16 
L 100.143031 157.947456 
L 92.073829 157.947456 
z
" clip-path="url(#p7e4da72719)" style="fill: #1a1a1a; opacity: 0.35"/>
   </g>
   <g id="patch_8">
    <path d="M 100.143031 251.16 
L 108.212234 251.16 
L 108.212234 204.553728 
L 100.143031 204.553728 
z
" clip-path="url(#p7e4da72719)" style="fill: #1a1a1a; opacity: 0.35"/>
   </g>
   <g id="patch_9">
    <path d="M 108.212234 251.16 
L 116.281436 251.16 
L 116.281436 231.387642 
L 108.212234 231.387642 
z
" clip-path="url(#p7e4da72719)" style="fill: #1a1a1a; opacity: 0.35"/>
   </g>
   <g id="patch_10">
    <path d="M 116.281436 251.16 
L 124.350639 251.16 
L 124.350639 240.920743 
L 116.281436 240.920743 
z
" clip-path="url(#p7e4da72719)" style="fill: #1a1a1a; opacity: 0.35"/>
   </g>
   <g id="patch_11">
    <path d="M 124.350639 251.16 
L 132.419841 251.16 
L 132.419841 249.394611 
L 124.350639 249.394611 
z
" clip-path="url(#p7e4da72719)" style="fill: #1a1a1a; opacity: 0.35"/>
   </g>
   <g id="patch_12">
    <path d="M 132.419841 251.16 
L 140.489044 251.16 
L 140.489044 251.16 
L 132.419841 251.16 
z
" clip-path="url(#p7e4da72719)" style="fill: #1a1a1a; opacity: 0.35"/>
   </g>
   <g id="patch_13">
    <path d="M 140.489044 251.16 
L 148.558246 251.16 
L 148.558246 251.16 
L 140.489044 251.16 
z
" clip-path="url(#p7e4da72719)" style="fill: #1a1a1a; opacity: 0.35"/>
   </g>
   <g id="patch_14">
    <path d="M 59.797019 251.16 
L 67.866222 251.16 
L 67.866222 247.629222 
L 59.797019 247.629222 
z
" clip-path="url(#p7e4da72719)" style="fill: #c8102e; opacity: 0.35"/>
   </g>
   <g id="patch_15">
    <path d="M 67.866222 251.16 
L 75.935424 251.16 
L 75.935424 229.975331 
L 67.866222 229.975331 
z
" clip-path="url(#p7e4da72719)" style="fill: #c8102e; opacity: 0.35"/>
   </g>
   <g id="patch_16">
    <path d="M 75.935424 251.16 
L 84.004627 251.16 
L 84.004627 199.257561 
L 75.935424 199.257561 
z
" clip-path="url(#p7e4da72719)" style="fill: #c8102e; opacity: 0.35"/>
   </g>
   <g id="patch_17">
    <path d="M 84.004627 251.16 
L 92.073829 251.16 
L 92.073829 147.002044 
L 84.004627 147.002044 
z
" clip-path="url(#p7e4da72719)" style="fill: #c8102e; opacity: 0.35"/>
   </g>
   <g id="patch_18">
    <path d="M 92.073829 251.16 
L 100.143031 251.16 
L 100.143031 125.11122 
L 92.073829 125.11122 
z
" clip-path="url(#p7e4da72719)" style="fill: #c8102e; opacity: 0.35"/>
   </g>
   <g id="patch_19">
    <path d="M 100.143031 251.16 
L 108.212234 251.16 
L 108.212234 126.876609 
L 100.143031 126.876609 
z
" clip-path="url(#p7e4da72719)" style="fill: #c8102e; opacity: 0.35"/>
   </g>
   <g id="patch_20">
    <path d="M 108.212234 251.16 
L 116.281436 251.16 
L 116.281436 143.824344 
L 108.212234 143.824344 
z
" clip-path="url(#p7e4da72719)" style="fill: #c8102e; opacity: 0.35"/>
   </g>
   <g id="patch_21">
    <path d="M 116.281436 251.16 
L 124.350639 251.16 
L 124.350639 175.954425 
L 116.281436 175.954425 
z
" clip-path="url(#p7e4da72719)" style="fill: #c8102e; opacity: 0.35"/>
   </g>
   <g id="patch_22">
    <path d="M 124.350639 251.16 
L 132.419841 251.16 
L 132.419841 205.966039 
L 124.350639 205.966039 
z
" clip-path="url(#p7e4da72719)" style="fill: #c8102e; opacity: 0.35"/>
   </g>
   <g id="patch_23">
    <path d="M 132.419841 251.16 
L 140.489044 251.16 
L 140.489044 225.385319 
L 132.419841 225.385319 
z
" clip-path="url(#p7e4da72719)" style="fill: #c8102e; opacity: 0.35"/>
   </g>
   <g id="patch_24">
    <path d="M 140.489044 251.16 
L 148.558246 251.16 
L 148.558246 239.508432 
L 140.489044 239.508432 
z
" clip-path="url(#p7e4da72719)" style="fill: #c8102e; opacity: 0.35"/>
   </g>
   <g id="patch_25">
    <path d="M 148.558246 251.16 
L 156.627449 251.16 
L 156.627449 245.157677 
L 148.558246 245.157677 
z
" clip-path="url(#p7e4da72719)" style="fill: #c8102e; opacity: 0.35"/>
   </g>
   <g id="patch_26">
    <path d="M 156.627449 251.16 
L 164.696651 251.16 
L 164.696651 249.041533 
L 156.627449 249.041533 
z
" clip-path="url(#p7e4da72719)" style="fill: #c8102e; opacity: 0.35"/>
   </g>
   <g id="patch_27">
    <path d="M 164.696651 251.16 
L 172.765854 251.16 
L 172.765854 250.100767 
L 164.696651 250.100767 
z
" clip-path="url(#p7e4da72719)" style="fill: #c8102e; opacity: 0.35"/>
   </g>
   <g id="patch_28">
    <path d="M 172.765854 251.16 
L 180.835056 251.16 
L 180.835056 250.806922 
L 172.765854 250.806922 
z
" clip-path="url(#p7e4da72719)" style="fill: #c8102e; opacity: 0.35"/>
   </g>
   <g id="patch_29">
    <path d="M 180.835056 251.16 
L 188.904259 251.16 
L 188.904259 250.806922 
L 180.835056 250.806922 
z
" clip-path="url(#p7e4da72719)" style="fill: #c8102e; opacity: 0.35"/>
   </g>
   <g id="patch_30">
    <path d="M 188.904259 251.16 
L 196.973461 251.16 
L 196.973461 251.16 
L 188.904259 251.16 
z
" clip-path="url(#p7e4da72719)" style="fill: #c8102e; opacity: 0.35"/>
   </g>
   <g id="patch_31">
    <path d="M 196.973461 251.16 
L 205.042664 251.16 
L 205.042664 251.16 
L 196.973461 251.16 
z
" clip-path="url(#p7e4da72719)" style="fill: #c8102e; opacity: 0.35"/>
   </g>
   <g id="patch_32">
    <path d="M 205.042664 251.16 
L 213.111866 251.16 
L 213.111866 251.16 
L 205.042664 251.16 
z
" clip-path="url(#p7e4da72719)" style="fill: #c8102e; opacity: 0.35"/>
   </g>
   <g id="patch_33">
    <path d="M 59.797019 251.16 
L 67.866222 251.16 
L 67.866222 251.16 
L 59.797019 251.16 
z
" clip-path="url(#p7e4da72719)" style="fill: #e89400; opacity: 0.35"/>
   </g>
   <g id="patch_34">
    <path d="M 67.866222 251.16 
L 75.935424 251.16 
L 75.935424 250.806922 
L 67.866222 250.806922 
z
" clip-path="url(#p7e4da72719)" style="fill: #e89400; opacity: 0.35"/>
   </g>
   <g id="patch_35">
    <path d="M 75.935424 251.16 
L 84.004627 251.16 
L 84.004627 250.806922 
L 75.935424 250.806922 
z
" clip-path="url(#p7e4da72719)" style="fill: #e89400; opacity: 0.35"/>
   </g>
   <g id="patch_36">
    <path d="M 84.004627 251.16 
L 92.073829 251.16 
L 92.073829 245.863833 
L 84.004627 245.863833 
z
" clip-path="url(#p7e4da72719)" style="fill: #e89400; opacity: 0.35"/>
   </g>
   <g id="patch_37">
    <path d="M 92.073829 251.16 
L 100.143031 251.16 
L 100.143031 239.155354 
L 92.073829 239.155354 
z
" clip-path="url(#p7e4da72719)" style="fill: #e89400; opacity: 0.35"/>
   </g>
   <g id="patch_38">
    <path d="M 100.143031 251.16 
L 108.212234 251.16 
L 108.212234 228.56302 
L 100.143031 228.56302 
z
" clip-path="url(#p7e4da72719)" style="fill: #e89400; opacity: 0.35"/>
   </g>
   <g id="patch_39">
    <path d="M 108.212234 251.16 
L 116.281436 251.16 
L 116.281436 207.378351 
L 108.212234 207.378351 
z
" clip-path="url(#p7e4da72719)" style="fill: #e89400; opacity: 0.35"/>
   </g>
   <g id="patch_40">
    <path d="M 116.281436 251.16 
L 124.350639 251.16 
L 124.350639 195.020627 
L 116.281436 195.020627 
z
" clip-path="url(#p7e4da72719)" style="fill: #e89400; opacity: 0.35"/>
   </g>
   <g id="patch_41">
    <path d="M 124.350639 251.16 
L 132.419841 251.16 
L 132.419841 170.30518 
L 124.350639 170.30518 
z
" clip-path="url(#p7e4da72719)" style="fill: #e89400; opacity: 0.35"/>
   </g>
   <g id="patch_42">
    <path d="M 132.419841 251.16 
L 140.489044 251.16 
L 140.489044 172.423647 
L 132.419841 172.423647 
z
" clip-path="url(#p7e4da72719)" style="fill: #e89400; opacity: 0.35"/>
   </g>
   <g id="patch_43">
    <path d="M 140.489044 251.16 
L 148.558246 251.16 
L 148.558246 156.888223 
L 140.489044 156.888223 
z
" clip-path="url(#p7e4da72719)" style="fill: #e89400; opacity: 0.35"/>
   </g>
   <g id="patch_44">
    <path d="M 148.558246 251.16 
L 156.627449 251.16 
L 156.627449 167.12748 
L 148.558246 167.12748 
z
" clip-path="url(#p7e4da72719)" style="fill: #e89400; opacity: 0.35"/>
   </g>
   <g id="patch_45">
    <path d="M 156.627449 251.16 
L 164.696651 251.16 
L 164.696651 174.895192 
L 156.627449 174.895192 
z
" clip-path="url(#p7e4da72719)" style="fill: #e89400; opacity: 0.35"/>
   </g>
   <g id="patch_46">
    <path d="M 164.696651 251.16 
L 172.765854 251.16 
L 172.765854 193.608316 
L 164.696651 193.608316 
z
" clip-path="url(#p7e4da72719)" style="fill: #e89400; opacity: 0.35"/>
   </g>
   <g id="patch_47">
    <path d="M 172.765854 251.16 
L 180.835056 251.16 
L 180.835056 214.086829 
L 172.765854 214.086829 
z
" clip-path="url(#p7e4da72719)" style="fill: #e89400; opacity: 0.35"/>
   </g>
   <g id="patch_48">
    <path d="M 180.835056 251.16 
L 188.904259 251.16 
L 188.904259 224.679164 
L 180.835056 224.679164 
z
" clip-path="url(#p7e4da72719)" style="fill: #e89400; opacity: 0.35"/>
   </g>
   <g id="patch_49">
    <path d="M 188.904259 251.16 
L 196.973461 251.16 
L 196.973461 237.036887 
L 188.904259 237.036887 
z
" clip-path="url(#p7e4da72719)" style="fill: #e89400; opacity: 0.35"/>
   </g>
   <g id="patch_50">
    <path d="M 196.973461 251.16 
L 205.042664 251.16 
L 205.042664 245.157677 
L 196.973461 245.157677 
z
" clip-path="url(#p7e4da72719)" style="fill: #e89400; opacity: 0.35"/>
   </g>
   <g id="patch_51">
    <path d="M 205.042664 251.16 
L 213.111866 251.16 
L 213.111866 246.569988 
L 205.042664 246.569988 
z
" clip-path="url(#p7e4da72719)" style="fill: #e89400; opacity: 0.35"/>
   </g>
   <g id="patch_52">
    <path d="M 213.111866 251.16 
L 221.181068 251.16 
L 221.181068 249.394611 
L 213.111866 249.394611 
z
" clip-path="url(#p7e4da72719)" style="fill: #e89400; opacity: 0.35"/>
   </g>
   <g id="patch_53">
    <path d="M 221.181068 251.16 
L 229.250271 251.16 
L 229.250271 249.041533 
L 221.181068 249.041533 
z
" clip-path="url(#p7e4da72719)" style="fill: #e89400; opacity: 0.35"/>
   </g>
   <g id="patch_54">
    <path d="M 229.250271 251.16 
L 237.319473 251.16 
L 237.319473 249.747689 
L 229.250271 249.747689 
z
" clip-path="url(#p7e4da72719)" style="fill: #e89400; opacity: 0.35"/>
   </g>
   <g id="patch_55">
    <path d="M 237.319473 251.16 
L 245.388676 251.16 
L 245.388676 251.16 
L 237.319473 251.16 
z
" clip-path="url(#p7e4da72719)" style="fill: #e89400; opacity: 0.35"/>
   </g>
   <g id="patch_56">
    <path d="M 245.388676 251.16 
L 253.457878 251.16 
L 253.457878 250.806922 
L 245.388676 250.806922 
z
" clip-path="url(#p7e4da72719)" style="fill: #e89400; opacity: 0.35"/>
   </g>
   <g id="patch_57">
    <path d="M 253.457878 251.16 
L 261.527081 251.16 
L 261.527081 251.16 
L 253.457878 251.16 
z
" clip-path="url(#p7e4da72719)" style="fill: #e89400; opacity: 0.35"/>
   </g>
   <g id="patch_58">
    <path d="M 261.527081 251.16 
L 269.596283 251.16 
L 269.596283 251.16 
L 261.527081 251.16 
z
" clip-path="url(#p7e4da72719)" style="fill: #e89400; opacity: 0.35"/>
   </g>
   <g id="patch_59">
    <path d="M 269.596283 251.16 
L 277.665486 251.16 
L 277.665486 251.16 
L 269.596283 251.16 
z
" clip-path="url(#p7e4da72719)" style="fill: #e89400; opacity: 0.35"/>
   </g>
   <g id="patch_60">
    <path d="M 277.665486 251.16 
L 285.734688 251.16 
L 285.734688 251.16 
L 277.665486 251.16 
z
" clip-path="url(#p7e4da72719)" style="fill: #e89400; opacity: 0.35"/>
   </g>
   <g id="patch_61">
    <path d="M 285.734688 251.16 
L 293.803891 251.16 
L 293.803891 251.16 
L 285.734688 251.16 
z
" clip-path="url(#p7e4da72719)" style="fill: #e89400; opacity: 0.35"/>
   </g>
   <g id="patch_62">
    <path d="M 293.803891 251.16 
L 301.873093 251.16 
L 301.873093 251.16 
L 293.803891 251.16 
z
" clip-path="url(#p7e4da72719)" style="fill: #e89400; opacity: 0.35"/>
   </g>
   <g id="patch_63">
    <path d="M 301.873093 251.16 
L 309.942296 251.16 
L 309.942296 251.16 
L 301.873093 251.16 
z
" clip-path="url(#p7e4da72719)" style="fill: #e89400; opacity: 0.35"/>
   </g>
   <g id="patch_64">
    <path d="M 309.942296 251.16 
L 318.011498 251.16 
L 318.011498 251.16 
L 309.942296 251.16 
z
" clip-path="url(#p7e4da72719)" style="fill: #e89400; opacity: 0.35"/>
   </g>
   <g id="patch_65">
    <path d="M 318.011498 251.16 
L 326.0807 251.16 
L 326.0807 251.16 
L 318.011498 251.16 
z
" clip-path="url(#p7e4da72719)" style="fill: #e89400; opacity: 0.35"/>
   </g>
   <g id="patch_66">
    <path d="M 326.0807 251.16 
L 334.149903 251.16 
L 334.149903 251.16 
L 326.0807 251.16 
z
" clip-path="url(#p7e4da72719)" style="fill: #e89400; opacity: 0.35"/>
   </g>
   <g id="line2d_15">
    <path d="M 63.83162 193.195216 
L 71.900823 106.24804 
L 79.970025 70.020049 
L 88.039228 100.210041 
L 96.10843 156.816276 
L 104.177633 203.988138 
L 112.246835 231.505057 
L 120.316038 244.140378 
L 128.38524 248.966368 
L 136.454443 250.550658 
L 144.523645 251.007664 
" clip-path="url(#p7e4da72719)" style="fill: none; stroke: #1a1a1a; stroke-width: 1.2; stroke-linejoin: miter"/>
    <defs>
     <path id="m66b0818f90" d="M 0 1.5 
C 0.397805 1.5 0.77937 1.341951 1.06066 1.06066 
C 1.341951 0.77937 1.5 0.397805 1.5 0 
C 1.5 -0.397805 1.341951 -0.77937 1.06066 -1.06066 
C 0.77937 -1.341951 0.397805 -1.5 0 -1.5 
C -0.397805 -1.5 -0.77937 -1.341951 -1.06066 -1.06066 
C -1.341951 -0.77937 -1.5 -0.397805 -1.5 0 
C -1.5 0.397805 -1.341951 0.77937 -1.06066 1.06066 
C -0.77937 1.341951 -0.397805 1.5 0 1.5 
z
" style="stroke: #1a1a1a"/>
    </defs>
    <g clip-path="url(#p7e4da72719)">
     <use xlink:href="#m66b0818f90" x="63.83162" y="193.195216" style="fill: #1a1a1a; stroke: #1a1a1a"/>
     <use xlink:href="#m66b0818f90" x="71.900823" y="106.24804" style="fill: #1a1a1a; stroke: #1a1a1a"/>
     <use xlink:href="#m66b0818f90" x="79.970025" y="70.020049" style="fill: #1a1a1a; stroke: #1a1a1a"/>
     <use xlink:href="#m66b0818f90" x="88.039228" y="100.210041" style="fill: #1a1a1a; stroke: #1a1a1a"/>
     <use xlink:href="#m66b0818f90" x="96.10843" y="156.816276" style="fill: #1a1a1a; stroke: #1a1a1a"/>
     <use xlink:href="#m66b0818f90" x="104.177633" y="203.988138" style="fill: #1a1a1a; stroke: #1a1a1a"/>
     <use xlink:href="#m66b0818f90" x="112.246835" y="231.505057" style="fill: #1a1a1a; stroke: #1a1a1a"/>
     <use xlink:href="#m66b0818f90" x="120.316038" y="244.140378" style="fill: #1a1a1a; stroke: #1a1a1a"/>
     <use xlink:href="#m66b0818f90" x="128.38524" y="248.966368" style="fill: #1a1a1a; stroke: #1a1a1a"/>
     <use xlink:href="#m66b0818f90" x="136.454443" y="250.550658" style="fill: #1a1a1a; stroke: #1a1a1a"/>
     <use xlink:href="#m66b0818f90" x="144.523645" y="251.007664" style="fill: #1a1a1a; stroke: #1a1a1a"/>
    </g>
   </g>
   <g id="line2d_16">
    <path d="M 63.83162 246.401961 
L 71.900823 227.369804 
L 79.970025 191.68451 
L 88.039228 152.034183 
L 96.10843 127.252728 
L 104.177633 127.252728 
L 112.246835 147.90394 
L 120.316038 177.405672 
L 128.38524 205.063545 
L 136.454443 225.550858 
L 144.523645 238.355429 
L 152.592848 245.339741 
L 160.66205 248.734892 
L 168.731252 250.227266 
L 176.800455 250.826881 
L 184.869657 251.04896 
L 192.93886 251.1253 
L 201.008062 251.149794 
L 209.077265 251.157165 
" clip-path="url(#p7e4da72719)" style="fill: none; stroke: #c8102e; stroke-width: 1.2; stroke-linejoin: miter"/>
    <defs>
     <path id="m39376a4259" d="M 0 1.5 
C 0.397805 1.5 0.77937 1.341951 1.06066 1.06066 
C 1.341951 0.77937 1.5 0.397805 1.5 0 
C 1.5 -0.397805 1.341951 -0.77937 1.06066 -1.06066 
C 0.77937 -1.341951 0.397805 -1.5 0 -1.5 
C -0.397805 -1.5 -0.77937 -1.341951 -1.06066 -1.06066 
C -1.341951 -0.77937 -1.5 -0.397805 -1.5 0 
C -1.5 0.397805 -1.341951 0.77937 -1.06066 1.06066 
C -0.77937 1.341951 -0.397805 1.5 0 1.5 
z
" style="stroke: #c8102e"/>
    </defs>
    <g clip-path="url(#p7e4da72719)">
     <use xlink:href="#m39376a4259" x="63.83162" y="246.401961" style="fill: #c8102e; stroke: #c8102e"/>
     <use xlink:href="#m39376a4259" x="71.900823" y="227.369804" style="fill: #c8102e; stroke: #c8102e"/>
     <use xlink:href="#m39376a4259" x="79.970025" y="191.68451" style="fill: #c8102e; stroke: #c8102e"/>
     <use xlink:href="#m39376a4259" x="88.039228" y="152.034183" style="fill: #c8102e; stroke: #c8102e"/>
     <use xlink:href="#m39376a4259" x="96.10843" y="127.252728" style="fill: #c8102e; stroke: #c8102e"/>
     <use xlink:href="#m39376a4259" x="104.177633" y="127.252728" style="fill: #c8102e; stroke: #c8102e"/>
     <use xlink:href="#m39376a4259" x="112.246835" y="147.90394" style="fill: #c8102e; stroke: #c8102e"/>
     <use xlink:href="#m39376a4259" x="120.316038" y="177.405672" style="fill: #c8102e; stroke: #c8102e"/>
     <use xlink:href="#m39376a4259" x="128.38524" y="205.063545" style="fill: #c8102e; stroke: #c8102e"/>
     <use xlink:href="#m39376a4259" x="136.454443" y="225.550858" style="fill: #c8102e; stroke: #c8102e"/>
     <use xlink:href="#m39376a4259" x="144.523645" y="238.355429" style="fill: #c8102e; stroke: #c8102e"/>
     <use xlink:href="#m39376a4259" x="152.592848" y="245.339741" style="fill: #c8102e; stroke: #c8102e"/>
     <use xlink:href="#m39376a4259" x="160.66205" y="248.734892" style="fill: #c8102e; stroke: #c8102e"/>
     <use xlink:href="#m39376a4259" x="168.731252" y="250.227266" style="fill: #c8102e; stroke: #c8102e"/>
     <use xlink:href="#m39376a4259" x="176.800455" y="250.826881" style="fill: #c8102e; stroke: #c8102e"/>
     <use xlink:href="#m39376a4259" x="184.869657" y="251.04896" style="fill: #c8102e; stroke: #c8102e"/>
     <use xlink:href="#m39376a4259" x="192.93886" y="251.1253" style="fill: #c8102e; stroke: #c8102e"/>
     <use xlink:href="#m39376a4259" x="201.008062" y="251.149794" style="fill: #c8102e; stroke: #c8102e"/>
     <use xlink:href="#m39376a4259" x="209.077265" y="251.157165" style="fill: #c8102e; stroke: #c8102e"/>
    </g>
   </g>
   <g id="line2d_17">
    <path d="M 63.83162 251.127941 
L 71.900823 250.839406 
L 79.970025 249.557029 
L 88.039228 245.816764 
L 96.10843 237.80191 
L 104.177633 224.44382 
L 112.246835 206.633033 
L 120.316038 187.550047 
L 128.38524 171.647559 
L 136.454443 162.812844 
L 144.523645 162.812844 
L 152.592848 170.844403 
L 160.66205 184.230336 
L 168.731252 199.675643 
L 176.800455 214.385459 
L 184.869657 226.64364 
L 192.93886 235.837275 
L 201.008062 242.146632 
L 209.077265 246.152573 
L 217.146467 248.524512 
L 225.21567 249.842256 
L 233.284872 250.532503 
L 241.354075 250.874774 
L 249.423277 251.035989 
L 257.49248 251.108329 
L 265.561682 251.139331 
L 273.630884 251.152051 
L 281.700087 251.157056 
L 289.769289 251.158948 
L 297.838492 251.159637 
L 305.907694 251.159879 
L 313.976897 251.159961 
L 322.046099 251.159988 
L 330.115302 251.159996 
" clip-path="url(#p7e4da72719)" style="fill: none; stroke: #e89400; stroke-width: 1.2; stroke-linejoin: miter"/>
    <defs>
     <path id="m57c7dee973" d="M 0 1.5 
C 0.397805 1.5 0.77937 1.341951 1.06066 1.06066 
C 1.341951 0.77937 1.5 0.397805 1.5 0 
C 1.5 -0.397805 1.341951 -0.77937 1.06066 -1.06066 
C 0.77937 -1.341951 0.397805 -1.5 0 -1.5 
C -0.397805 -1.5 -0.77937 -1.341951 -1.06066 -1.06066 
C -1.341951 -0.77937 -1.5 -0.397805 -1.5 0 
C -1.5 0.397805 -1.341951 0.77937 -1.06066 1.06066 
C -0.77937 1.341951 -0.397805 1.5 0 1.5 
z
" style="stroke: #e89400"/>
    </defs>
    <g clip-path="url(#p7e4da72719)">
     <use xlink:href="#m57c7dee973" x="63.83162" y="251.127941" style="fill: #e89400; stroke: #e89400"/>
     <use xlink:href="#m57c7dee973" x="71.900823" y="250.839406" style="fill: #e89400; stroke: #e89400"/>
     <use xlink:href="#m57c7dee973" x="79.970025" y="249.557029" style="fill: #e89400; stroke: #e89400"/>
     <use xlink:href="#m57c7dee973" x="88.039228" y="245.816764" style="fill: #e89400; stroke: #e89400"/>
     <use xlink:href="#m57c7dee973" x="96.10843" y="237.80191" style="fill: #e89400; stroke: #e89400"/>
     <use xlink:href="#m57c7dee973" x="104.177633" y="224.44382" style="fill: #e89400; stroke: #e89400"/>
     <use xlink:href="#m57c7dee973" x="112.246835" y="206.633033" style="fill: #e89400; stroke: #e89400"/>
     <use xlink:href="#m57c7dee973" x="120.316038" y="187.550047" style="fill: #e89400; stroke: #e89400"/>
     <use xlink:href="#m57c7dee973" x="128.38524" y="171.647559" style="fill: #e89400; stroke: #e89400"/>
     <use xlink:href="#m57c7dee973" x="136.454443" y="162.812844" style="fill: #e89400; stroke: #e89400"/>
     <use xlink:href="#m57c7dee973" x="144.523645" y="162.812844" style="fill: #e89400; stroke: #e89400"/>
     <use xlink:href="#m57c7dee973" x="152.592848" y="170.844403" style="fill: #e89400; stroke: #e89400"/>
     <use xlink:href="#m57c7dee973" x="160.66205" y="184.230336" style="fill: #e89400; stroke: #e89400"/>
     <use xlink:href="#m57c7dee973" x="168.731252" y="199.675643" style="fill: #e89400; stroke: #e89400"/>
     <use xlink:href="#m57c7dee973" x="176.800455" y="214.385459" style="fill: #e89400; stroke: #e89400"/>
     <use xlink:href="#m57c7dee973" x="184.869657" y="226.64364" style="fill: #e89400; stroke: #e89400"/>
     <use xlink:href="#m57c7dee973" x="192.93886" y="235.837275" style="fill: #e89400; stroke: #e89400"/>
     <use xlink:href="#m57c7dee973" x="201.008062" y="242.146632" style="fill: #e89400; stroke: #e89400"/>
     <use xlink:href="#m57c7dee973" x="209.077265" y="246.152573" style="fill: #e89400; stroke: #e89400"/>
     <use xlink:href="#m57c7dee973" x="217.146467" y="248.524512" style="fill: #e89400; stroke: #e89400"/>
     <use xlink:href="#m57c7dee973" x="225.21567" y="249.842256" style="fill: #e89400; stroke: #e89400"/>
     <use xlink:href="#m57c7dee973" x="233.284872" y="250.532503" style="fill: #e89400; stroke: #e89400"/>
     <use xlink:href="#m57c7dee973" x="241.354075" y="250.874774" style="fill: #e89400; stroke: #e89400"/>
     <use xlink:href="#m57c7dee973" x="249.423277" y="251.035989" style="fill: #e89400; stroke: #e89400"/>
     <use xlink:href="#m57c7dee973" x="257.49248" y="251.108329" style="fill: #e89400; stroke: #e89400"/>
     <use xlink:href="#m57c7dee973" x="265.561682" y="251.139331" style="fill: #e89400; stroke: #e89400"/>
     <use xlink:href="#m57c7dee973" x="273.630884" y="251.152051" style="fill: #e89400; stroke: #e89400"/>
     <use xlink:href="#m57c7dee973" x="281.700087" y="251.157056" style="fill: #e89400; stroke: #e89400"/>
     <use xlink:href="#m57c7dee973" x="289.769289" y="251.158948" style="fill: #e89400; stroke: #e89400"/>
     <use xlink:href="#m57c7dee973" x="297.838492" y="251.159637" style="fill: #e89400; stroke: #e89400"/>
     <use xlink:href="#m57c7dee973" x="305.907694" y="251.159879" style="fill: #e89400; stroke: #e89400"/>
     <use xlink:href="#m57c7dee973" x="313.976897" y="251.159961" style="fill: #e89400; stroke: #e89400"/>
     <use xlink:href="#m57c7dee973" x="322.046099" y="251.159988" style="fill: #e89400; stroke: #e89400"/>
     <use xlink:href="#m57c7dee973" x="330.115302" y="251.159996" style="fill: #e89400; stroke: #e89400"/>
    </g>
   </g>
   <g id="patch_67">
    <path d="M 46.079375 251.16 
L 46.079375 53.56 
" style="fill: none; stroke: #1a1a1a; stroke-width: 1.4; stroke-linejoin: miter; stroke-linecap: square"/>
   </g>
   <g id="patch_68">
    <path d="M 46.079375 251.16 
L 347.867547 251.16 
" style="fill: none; stroke: #1a1a1a; stroke-width: 1.4; stroke-linejoin: miter; stroke-linecap: square"/>
   </g>
   <g id="text_17">
    <!-- encoder output vs Poisson -->
    <g style="fill: #1a1a1a" transform="translate(46.079375 43.56) scale(0.11 -0.11)">
     <defs>
      <path id="Menlo-Regular-6e" d="M 3284 2169 
L 3284 0 
L 2706 0 
L 2706 2169 
Q 2706 2641 2540 2862 
Q 2375 3084 2022 3084 
Q 1619 3084 1401 2798 
Q 1184 2513 1184 1978 
L 1184 0 
L 609 0 
L 609 3500 
L 1184 3500 
L 1184 2975 
Q 1338 3275 1600 3429 
Q 1863 3584 2222 3584 
Q 2756 3584 3020 3232 
Q 3284 2881 3284 2169 
z
" transform="scale(0.015625)"/>
      <path id="Menlo-Regular-63" d="M 3316 178 
Q 3084 44 2839 -23 
Q 2594 -91 2338 -91 
Q 1525 -91 1067 396 
Q 609 884 609 1747 
Q 609 2609 1067 3096 
Q 1525 3584 2338 3584 
Q 2591 3584 2831 3518 
Q 3072 3453 3316 3316 
L 3316 2713 
Q 3088 2916 2858 3006 
Q 2628 3097 2338 3097 
Q 1797 3097 1506 2747 
Q 1216 2397 1216 1747 
Q 1216 1100 1508 748 
Q 1800 397 2338 397 
Q 2638 397 2875 489 
Q 3113 581 3316 775 
L 3316 178 
z
" transform="scale(0.015625)"/>
      <path id="Menlo-Regular-64" d="M 2681 3053 
L 2681 4863 
L 3256 4863 
L 3256 0 
L 2681 0 
L 2681 441 
Q 2538 181 2298 45 
Q 2059 -91 1747 -91 
Q 1113 -91 748 401 
Q 384 894 384 1759 
Q 384 2613 750 3098 
Q 1116 3584 1747 3584 
Q 2063 3584 2303 3448 
Q 2544 3313 2681 3053 
z
M 991 1747 
Q 991 1078 1203 737 
Q 1416 397 1831 397 
Q 2247 397 2464 740 
Q 2681 1084 2681 1747 
Q 2681 2413 2464 2755 
Q 2247 3097 1831 3097 
Q 1416 3097 1203 2756 
Q 991 2416 991 1747 
z
" transform="scale(0.015625)"/>
      <path id="Menlo-Regular-75" d="M 609 1325 
L 609 3494 
L 1184 3494 
L 1184 1325 
Q 1184 853 1351 631 
Q 1519 409 1869 409 
Q 2275 409 2490 695 
Q 2706 981 2706 1516 
L 2706 3494 
L 3284 3494 
L 3284 0 
L 2706 0 
L 2706 525 
Q 2553 222 2289 65 
Q 2025 -91 1672 -91 
Q 1134 -91 871 261 
Q 609 613 609 1325 
z
" transform="scale(0.015625)"/>
      <path id="Menlo-Regular-76" d="M 313 3500 
L 909 3500 
L 1925 563 
L 2944 3500 
L 3541 3500 
L 2297 0 
L 1556 0 
L 313 3500 
z
" transform="scale(0.015625)"/>
      <path id="Menlo-Regular-50" d="M 1247 4147 
L 1247 2394 
L 1978 2394 
Q 2416 2394 2661 2625 
Q 2906 2856 2906 3272 
Q 2906 3688 2662 3917 
Q 2419 4147 1978 4147 
L 1247 4147 
z
M 616 4666 
L 1978 4666 
Q 2759 4666 3162 4311 
Q 3566 3956 3566 3272 
Q 3566 2581 3164 2228 
Q 2763 1875 1978 1875 
L 1247 1875 
L 1247 0 
L 616 0 
L 616 4666 
z
" transform="scale(0.015625)"/>
     </defs>
     <use xlink:href="#Menlo-Regular-65"/>
     <use xlink:href="#Menlo-Regular-6e" transform="translate(60.205078 0)"/>
     <use xlink:href="#Menlo-Regular-63" transform="translate(120.410156 0)"/>
     <use xlink:href="#Menlo-Regular-6f" transform="translate(180.615234 0)"/>
     <use xlink:href="#Menlo-Regular-64" transform="translate(240.820312 0)"/>
     <use xlink:href="#Menlo-Regular-65" transform="translate(301.025391 0)"/>
     <use xlink:href="#Menlo-Regular-72" transform="translate(361.230469 0)"/>
     <use xlink:href="#Menlo-Regular-20" transform="translate(421.435547 0)"/>
     <use xlink:href="#Menlo-Regular-6f" transform="translate(481.640625 0)"/>
     <use xlink:href="#Menlo-Regular-75" transform="translate(541.845703 0)"/>
     <use xlink:href="#Menlo-Regular-74" transform="translate(602.050781 0)"/>
     <use xlink:href="#Menlo-Regular-70" transform="translate(662.255859 0)"/>
     <use xlink:href="#Menlo-Regular-75" transform="translate(722.460938 0)"/>
     <use xlink:href="#Menlo-Regular-74" transform="translate(782.666016 0)"/>
     <use xlink:href="#Menlo-Regular-20" transform="translate(842.871094 0)"/>
     <use xlink:href="#Menlo-Regular-76" transform="translate(903.076172 0)"/>
     <use xlink:href="#Menlo-Regular-73" transform="translate(963.28125 0)"/>
     <use xlink:href="#Menlo-Regular-20" transform="translate(1023.486328 0)"/>
     <use xlink:href="#Menlo-Regular-50" transform="translate(1083.691406 0)"/>
     <use xlink:href="#Menlo-Regular-6f" transform="translate(1143.896484 0)"/>
     <use xlink:href="#Menlo-Regular-69" transform="translate(1204.101562 0)"/>
     <use xlink:href="#Menlo-Regular-73" transform="translate(1264.306641 0)"/>
     <use xlink:href="#Menlo-Regular-73" transform="translate(1324.511719 0)"/>
     <use xlink:href="#Menlo-Regular-6f" transform="translate(1384.716797 0)"/>
     <use xlink:href="#Menlo-Regular-6e" transform="translate(1444.921875 0)"/>
    </g>
   </g>
   <g id="legend_1">
    <g id="line2d_18">
     <path d="M 194.46536 66.273906 
L 203.46536 66.273906 
L 212.46536 66.273906 
" style="fill: none; stroke: #1a1a1a; stroke-width: 1.2; stroke-linejoin: miter"/>
     <g>
      <use xlink:href="#m66b0818f90" x="203.46536" y="66.273906" style="fill: #1a1a1a; stroke: #1a1a1a"/>
     </g>
    </g>
    <g id="text_18">
     <!-- intensity 0.25 → λ=2.5 -->
     <g style="fill: #1a1a1a" transform="translate(219.66536 69.423906) scale(0.09 -0.09)">
      <defs>
       <path id="Menlo-Regular-2192" d="M 3647 1625 
L 2738 716 
L 2456 997 
L 2956 1497 
L 206 1497 
L 206 2009 
L 2956 2009 
L 2456 2509 
L 2738 2791 
L 3647 1881 
L 3647 1625 
z
" transform="scale(0.015625)"/>
       <path id="Menlo-Regular-3bb" d="M 2006 4316 
L 3619 0 
L 3009 0 
L 2028 2588 
L 822 0 
L 213 0 
L 1747 3356 
L 1516 3975 
Q 1369 4372 888 4369 
L 734 4369 
L 734 4863 
L 953 4856 
Q 1809 4834 2006 4316 
z
" transform="scale(0.015625)"/>
       <path id="Menlo-Regular-3d" d="M 275 1563 
L 3578 1563 
L 3578 1034 
L 275 1034 
L 275 1563 
z
M 275 3034 
L 3578 3034 
L 3578 2506 
L 275 2506 
L 275 3034 
z
" transform="scale(0.015625)"/>
      </defs>
      <use xlink:href="#Menlo-Regular-69"/>
      <use xlink:href="#Menlo-Regular-6e" transform="translate(60.205078 0)"/>
      <use xlink:href="#Menlo-Regular-74" transform="translate(120.410156 0)"/>
      <use xlink:href="#Menlo-Regular-65" transform="translate(180.615234 0)"/>
      <use xlink:href="#Menlo-Regular-6e" transform="translate(240.820312 0)"/>
      <use xlink:href="#Menlo-Regular-73" transform="translate(301.025391 0)"/>
      <use xlink:href="#Menlo-Regular-69" transform="translate(361.230469 0)"/>
      <use xlink:href="#Menlo-Regular-74" transform="translate(421.435547 0)"/>
      <use xlink:href="#Menlo-Regular-79" transform="translate(481.640625 0)"/>
      <use xlink:href="#Menlo-Regular-20" transform="translate(541.845703 0)"/>
      <use xlink:href="#Menlo-Regular-30" transform="translate(602.050781 0)"/>
      <use xlink:href="#Menlo-Regular-2e" transform="translate(662.255859 0)"/>
      <use xlink:href="#Menlo-Regular-32" transform="translate(722.460938 0)"/>
      <use xlink:href="#Menlo-Regular-35" transform="translate(782.666016 0)"/>
      <use xlink:href="#Menlo-Regular-20" transform="translate(842.871094 0)"/>
      <use xlink:href="#Menlo-Regular-2192" transform="translate(903.076172 0)"/>
      <use xlink:href="#Menlo-Regular-20" transform="translate(963.28125 0)"/>
      <use xlink:href="#Menlo-Regular-3bb" transform="translate(1023.486328 0)"/>
      <use xlink:href="#Menlo-Regular-3d" transform="translate(1083.691406 0)"/>
      <use xlink:href="#Menlo-Regular-32" transform="translate(1143.896484 0)"/>
      <use xlink:href="#Menlo-Regular-2e" transform="translate(1204.101562 0)"/>
      <use xlink:href="#Menlo-Regular-35" transform="translate(1264.306641 0)"/>
     </g>
    </g>
    <g id="line2d_19">
     <path d="M 194.46536 79.509531 
L 203.46536 79.509531 
L 212.46536 79.509531 
" style="fill: none; stroke: #c8102e; stroke-width: 1.2; stroke-linejoin: miter"/>
     <g>
      <use xlink:href="#m39376a4259" x="203.46536" y="79.509531" style="fill: #c8102e; stroke: #c8102e"/>
     </g>
    </g>
    <g id="text_19">
     <!-- intensity 0.5 → λ=5 -->
     <g style="fill: #1a1a1a" transform="translate(219.66536 82.659531) scale(0.09 -0.09)">
      <use xlink:href="#Menlo-Regular-69"/>
      <use xlink:href="#Menlo-Regular-6e" transform="translate(60.205078 0)"/>
      <use xlink:href="#Menlo-Regular-74" transform="translate(120.410156 0)"/>
      <use xlink:href="#Menlo-Regular-65" transform="translate(180.615234 0)"/>
      <use xlink:href="#Menlo-Regular-6e" transform="translate(240.820312 0)"/>
      <use xlink:href="#Menlo-Regular-73" transform="translate(301.025391 0)"/>
      <use xlink:href="#Menlo-Regular-69" transform="translate(361.230469 0)"/>
      <use xlink:href="#Menlo-Regular-74" transform="translate(421.435547 0)"/>
      <use xlink:href="#Menlo-Regular-79" transform="translate(481.640625 0)"/>
      <use xlink:href="#Menlo-Regular-20" transform="translate(541.845703 0)"/>
      <use xlink:href="#Menlo-Regular-30" transform="translate(602.050781 0)"/>
      <use xlink:href="#Menlo-Regular-2e" transform="translate(662.255859 0)"/>
      <use xlink:href="#Menlo-Regular-35" transform="translate(722.460938 0)"/>
      <use xlink:href="#Menlo-Regular-20" transform="translate(782.666016 0)"/>
      <use xlink:href="#Menlo-Regular-2192" transform="translate(842.871094 0)"/>
      <use xlink:href="#Menlo-Regular-20" transform="translate(903.076172 0)"/>
      <use xlink:href="#Menlo-Regular-3bb" transform="translate(963.28125 0)"/>
      <use xlink:href="#Menlo-Regular-3d" transform="translate(1023.486328 0)"/>
      <use xlink:href="#Menlo-Regular-35" transform="translate(1083.691406 0)"/>
     </g>
    </g>
    <g id="line2d_20">
     <path d="M 194.46536 92.745156 
L 203.46536 92.745156 
L 212.46536 92.745156 
" style="fill: none; stroke: #e89400; stroke-width: 1.2; stroke-linejoin: miter"/>
     <g>
      <use xlink:href="#m57c7dee973" x="203.46536" y="92.745156" style="fill: #e89400; stroke: #e89400"/>
     </g>
    </g>
    <g id="text_20">
     <!-- intensity 1 → λ=10 -->
     <g style="fill: #1a1a1a" transform="translate(219.66536 95.895156) scale(0.09 -0.09)">
      <use xlink:href="#Menlo-Regular-69"/>
      <use xlink:href="#Menlo-Regular-6e" transform="translate(60.205078 0)"/>
      <use xlink:href="#Menlo-Regular-74" transform="translate(120.410156 0)"/>
      <use xlink:href="#Menlo-Regular-65" transform="translate(180.615234 0)"/>
      <use xlink:href="#Menlo-Regular-6e" transform="translate(240.820312 0)"/>
      <use xlink:href="#Menlo-Regular-73" transform="translate(301.025391 0)"/>
      <use xlink:href="#Menlo-Regular-69" transform="translate(361.230469 0)"/>
      <use xlink:href="#Menlo-Regular-74" transform="translate(421.435547 0)"/>
      <use xlink:href="#Menlo-Regular-79" transform="translate(481.640625 0)"/>
      <use xlink:href="#Menlo-Regular-20" transform="translate(541.845703 0)"/>
      <use xlink:href="#Menlo-Regular-31" transform="translate(602.050781 0)"/>
      <use xlink:href="#Menlo-Regular-20" transform="translate(662.255859 0)"/>
      <use xlink:href="#Menlo-Regular-2192" transform="translate(722.460938 0)"/>
      <use xlink:href="#Menlo-Regular-20" transform="translate(782.666016 0)"/>
      <use xlink:href="#Menlo-Regular-3bb" transform="translate(842.871094 0)"/>
      <use xlink:href="#Menlo-Regular-3d" transform="translate(903.076172 0)"/>
      <use xlink:href="#Menlo-Regular-31" transform="translate(963.28125 0)"/>
      <use xlink:href="#Menlo-Regular-30" transform="translate(1023.486328 0)"/>
     </g>
    </g>
   </g>
  </g>
  <g id="axes_2">
   <g id="patch_69">
    <path d="M 402.431203 251.16 
L 704.219375 251.16 
L 704.219375 53.56 
L 402.431203 53.56 
z
" style="fill: #ffffff"/>
   </g>
   <g id="matplotlib.axis_3">
    <g id="xtick_9">
     <g id="line2d_21">
      <g>
       <use xlink:href="#m889db5110e" x="420.573894" y="251.16" style="fill: #1a1a1a; stroke: #1a1a1a"/>
      </g>
     </g>
     <g id="text_21">
      <!-- 0 -->
      <g style="fill: #1a1a1a" transform="translate(417.864753 261.523906) scale(0.09 -0.09)">
       <use xlink:href="#Menlo-Regular-30"/>
      </g>
     </g>
    </g>
    <g id="xtick_10">
     <g id="line2d_22">
      <g>
       <use xlink:href="#m889db5110e" x="464.824359" y="251.16" style="fill: #1a1a1a; stroke: #1a1a1a"/>
      </g>
     </g>
     <g id="text_22">
      <!-- 5 -->
      <g style="fill: #1a1a1a" transform="translate(462.115218 261.523906) scale(0.09 -0.09)">
       <use xlink:href="#Menlo-Regular-35"/>
      </g>
     </g>
    </g>
    <g id="xtick_11">
     <g id="line2d_23">
      <g>
       <use xlink:href="#m889db5110e" x="509.074824" y="251.16" style="fill: #1a1a1a; stroke: #1a1a1a"/>
      </g>
     </g>
     <g id="text_23">
      <!-- 10 -->
      <g style="fill: #1a1a1a" transform="translate(503.656543 261.523906) scale(0.09 -0.09)">
       <use xlink:href="#Menlo-Regular-31"/>
       <use xlink:href="#Menlo-Regular-30" transform="translate(60.205078 0)"/>
      </g>
     </g>
    </g>
    <g id="xtick_12">
     <g id="line2d_24">
      <g>
       <use xlink:href="#m889db5110e" x="553.325289" y="251.16" style="fill: #1a1a1a; stroke: #1a1a1a"/>
      </g>
     </g>
     <g id="text_24">
      <!-- 15 -->
      <g style="fill: #1a1a1a" transform="translate(547.907008 261.523906) scale(0.09 -0.09)">
       <use xlink:href="#Menlo-Regular-31"/>
       <use xlink:href="#Menlo-Regular-35" transform="translate(60.205078 0)"/>
      </g>
     </g>
    </g>
    <g id="xtick_13">
     <g id="line2d_25">
      <g>
       <use xlink:href="#m889db5110e" x="597.575754" y="251.16" style="fill: #1a1a1a; stroke: #1a1a1a"/>
      </g>
     </g>
     <g id="text_25">
      <!-- 20 -->
      <g style="fill: #1a1a1a" transform="translate(592.157473 261.523906) scale(0.09 -0.09)">
       <use xlink:href="#Menlo-Regular-32"/>
       <use xlink:href="#Menlo-Regular-30" transform="translate(60.205078 0)"/>
      </g>
     </g>
    </g>
    <g id="xtick_14">
     <g id="line2d_26">
      <g>
       <use xlink:href="#m889db5110e" x="641.826219" y="251.16" style="fill: #1a1a1a; stroke: #1a1a1a"/>
      </g>
     </g>
     <g id="text_26">
      <!-- 25 -->
      <g style="fill: #1a1a1a" transform="translate(636.407938 261.523906) scale(0.09 -0.09)">
       <use xlink:href="#Menlo-Regular-32"/>
       <use xlink:href="#Menlo-Regular-35" transform="translate(60.205078 0)"/>
      </g>
     </g>
    </g>
    <g id="xtick_15">
     <g id="line2d_27">
      <g>
       <use xlink:href="#m889db5110e" x="686.076684" y="251.16" style="fill: #1a1a1a; stroke: #1a1a1a"/>
      </g>
     </g>
     <g id="text_27">
      <!-- 30 -->
      <g style="fill: #1a1a1a" transform="translate(680.658403 261.523906) scale(0.09 -0.09)">
       <use xlink:href="#Menlo-Regular-33"/>
       <use xlink:href="#Menlo-Regular-30" transform="translate(60.205078 0)"/>
      </g>
     </g>
    </g>
    <g id="text_28">
     <!-- spikes per trial -->
     <g style="fill: #1a1a1a" transform="translate(505.162789 275.022187) scale(0.1 -0.1)">
      <use xlink:href="#Menlo-Regular-73"/>
      <use xlink:href="#Menlo-Regular-70" transform="translate(60.205078 0)"/>
      <use xlink:href="#Menlo-Regular-69" transform="translate(120.410156 0)"/>
      <use xlink:href="#Menlo-Regular-6b" transform="translate(180.615234 0)"/>
      <use xlink:href="#Menlo-Regular-65" transform="translate(240.820312 0)"/>
      <use xlink:href="#Menlo-Regular-73" transform="translate(301.025391 0)"/>
      <use xlink:href="#Menlo-Regular-20" transform="translate(361.230469 0)"/>
      <use xlink:href="#Menlo-Regular-70" transform="translate(421.435547 0)"/>
      <use xlink:href="#Menlo-Regular-65" transform="translate(481.640625 0)"/>
      <use xlink:href="#Menlo-Regular-72" transform="translate(541.845703 0)"/>
      <use xlink:href="#Menlo-Regular-20" transform="translate(602.050781 0)"/>
      <use xlink:href="#Menlo-Regular-74" transform="translate(662.255859 0)"/>
      <use xlink:href="#Menlo-Regular-72" transform="translate(722.460938 0)"/>
      <use xlink:href="#Menlo-Regular-69" transform="translate(782.666016 0)"/>
      <use xlink:href="#Menlo-Regular-61" transform="translate(842.871094 0)"/>
      <use xlink:href="#Menlo-Regular-6c" transform="translate(903.076172 0)"/>
     </g>
    </g>
   </g>
   <g id="matplotlib.axis_4">
    <g id="ytick_7">
     <g id="line2d_28">
      <g>
       <use xlink:href="#m90938a5cec" x="402.431203" y="251.16" style="fill: #1a1a1a; stroke: #1a1a1a"/>
      </g>
     </g>
     <g id="text_29">
      <!-- 0.00 -->
      <g style="fill: #1a1a1a" transform="translate(377.258078 254.591953) scale(0.09 -0.09)">
       <use xlink:href="#Menlo-Regular-30"/>
       <use xlink:href="#Menlo-Regular-2e" transform="translate(60.205078 0)"/>
       <use xlink:href="#Menlo-Regular-30" transform="translate(120.410156 0)"/>
       <use xlink:href="#Menlo-Regular-30" transform="translate(180.615234 0)"/>
      </g>
     </g>
    </g>
    <g id="ytick_8">
     <g id="line2d_29">
      <g>
       <use xlink:href="#m90938a5cec" x="402.431203" y="222.96667" style="fill: #1a1a1a; stroke: #1a1a1a"/>
      </g>
     </g>
     <g id="text_30">
      <!-- 0.02 -->
      <g style="fill: #1a1a1a" transform="translate(377.258078 226.398623) scale(0.09 -0.09)">
       <use xlink:href="#Menlo-Regular-30"/>
       <use xlink:href="#Menlo-Regular-2e" transform="translate(60.205078 0)"/>
       <use xlink:href="#Menlo-Regular-30" transform="translate(120.410156 0)"/>
       <use xlink:href="#Menlo-Regular-32" transform="translate(180.615234 0)"/>
      </g>
     </g>
    </g>
    <g id="ytick_9">
     <g id="line2d_30">
      <g>
       <use xlink:href="#m90938a5cec" x="402.431203" y="194.77334" style="fill: #1a1a1a; stroke: #1a1a1a"/>
      </g>
     </g>
     <g id="text_31">
      <!-- 0.04 -->
      <g style="fill: #1a1a1a" transform="translate(377.258078 198.205294) scale(0.09 -0.09)">
       <defs>
        <path id="Menlo-Regular-34" d="M 2297 4091 
L 825 1625 
L 2297 1625 
L 2297 4091 
z
M 2194 4666 
L 2925 4666 
L 2925 1625 
L 3547 1625 
L 3547 1113 
L 2925 1113 
L 2925 0 
L 2297 0 
L 2297 1113 
L 319 1113 
L 319 1709 
L 2194 4666 
z
" transform="scale(0.015625)"/>
       </defs>
       <use xlink:href="#Menlo-Regular-30"/>
       <use xlink:href="#Menlo-Regular-2e" transform="translate(60.205078 0)"/>
       <use xlink:href="#Menlo-Regular-30" transform="translate(120.410156 0)"/>
       <use xlink:href="#Menlo-Regular-34" transform="translate(180.615234 0)"/>
      </g>
     </g>
    </g>
    <g id="ytick_10">
     <g id="line2d_31">
      <g>
       <use xlink:href="#m90938a5cec" x="402.431203" y="166.580011" style="fill: #1a1a1a; stroke: #1a1a1a"/>
      </g>
     </g>
     <g id="text_32">
      <!-- 0.06 -->
      <g style="fill: #1a1a1a" transform="translate(377.258078 170.011964) scale(0.09 -0.09)">
       <defs>
        <path id="Menlo-Regular-36" d="M 3097 4563 
L 3097 3981 
Q 2900 4097 2678 4158 
Q 2456 4219 2216 4219 
Q 1616 4219 1306 3767 
Q 997 3316 997 2438 
Q 1147 2750 1412 2917 
Q 1678 3084 2022 3084 
Q 2697 3084 3067 2670 
Q 3438 2256 3438 1497 
Q 3438 741 3056 325 
Q 2675 -91 1984 -91 
Q 1172 -91 794 492 
Q 416 1075 416 2328 
Q 416 3509 870 4129 
Q 1325 4750 2188 4750 
Q 2419 4750 2650 4701 
Q 2881 4653 3097 4563 
z
M 1972 2591 
Q 1569 2591 1337 2300 
Q 1106 2009 1106 1497 
Q 1106 984 1337 693 
Q 1569 403 1972 403 
Q 2391 403 2603 679 
Q 2816 956 2816 1497 
Q 2816 2041 2603 2316 
Q 2391 2591 1972 2591 
z
" transform="scale(0.015625)"/>
       </defs>
       <use xlink:href="#Menlo-Regular-30"/>
       <use xlink:href="#Menlo-Regular-2e" transform="translate(60.205078 0)"/>
       <use xlink:href="#Menlo-Regular-30" transform="translate(120.410156 0)"/>
       <use xlink:href="#Menlo-Regular-36" transform="translate(180.615234 0)"/>
      </g>
     </g>
    </g>
    <g id="ytick_11">
     <g id="line2d_32">
      <g>
       <use xlink:href="#m90938a5cec" x="402.431203" y="138.386681" style="fill: #1a1a1a; stroke: #1a1a1a"/>
      </g>
     </g>
     <g id="text_33">
      <!-- 0.08 -->
      <g style="fill: #1a1a1a" transform="translate(377.258078 141.818634) scale(0.09 -0.09)">
       <defs>
        <path id="Menlo-Regular-38" d="M 1925 2216 
Q 1503 2216 1273 1980 
Q 1044 1744 1044 1313 
Q 1044 881 1276 642 
Q 1509 403 1925 403 
Q 2350 403 2579 639 
Q 2809 875 2809 1313 
Q 2809 1741 2576 1978 
Q 2344 2216 1925 2216 
z
M 1375 2478 
Q 972 2581 745 2862 
Q 519 3144 519 3541 
Q 519 4097 897 4423 
Q 1275 4750 1925 4750 
Q 2578 4750 2956 4423 
Q 3334 4097 3334 3541 
Q 3334 3144 3107 2862 
Q 2881 2581 2478 2478 
Q 2947 2375 3195 2062 
Q 3444 1750 3444 1253 
Q 3444 622 3041 265 
Q 2638 -91 1925 -91 
Q 1213 -91 811 264 
Q 409 619 409 1247 
Q 409 1747 657 2061 
Q 906 2375 1375 2478 
z
M 1147 3481 
Q 1147 3106 1347 2909 
Q 1547 2713 1925 2713 
Q 2306 2713 2506 2909 
Q 2706 3106 2706 3481 
Q 2706 3863 2507 4063 
Q 2309 4263 1925 4263 
Q 1547 4263 1347 4061 
Q 1147 3859 1147 3481 
z
" transform="scale(0.015625)"/>
       </defs>
       <use xlink:href="#Menlo-Regular-30"/>
       <use xlink:href="#Menlo-Regular-2e" transform="translate(60.205078 0)"/>
       <use xlink:href="#Menlo-Regular-30" transform="translate(120.410156 0)"/>
       <use xlink:href="#Menlo-Regular-38" transform="translate(180.615234 0)"/>
      </g>
     </g>
    </g>
    <g id="ytick_12">
     <g id="line2d_33">
      <g>
       <use xlink:href="#m90938a5cec" x="402.431203" y="110.193351" style="fill: #1a1a1a; stroke: #1a1a1a"/>
      </g>
     </g>
     <g id="text_34">
      <!-- 0.10 -->
      <g style="fill: #1a1a1a" transform="translate(377.258078 113.625304) scale(0.09 -0.09)">
       <use xlink:href="#Menlo-Regular-30"/>
       <use xlink:href="#Menlo-Regular-2e" transform="translate(60.205078 0)"/>
       <use xlink:href="#Menlo-Regular-31" transform="translate(120.410156 0)"/>
       <use xlink:href="#Menlo-Regular-30" transform="translate(180.615234 0)"/>
      </g>
     </g>
    </g>
    <g id="ytick_13">
     <g id="line2d_34">
      <g>
       <use xlink:href="#m90938a5cec" x="402.431203" y="82.000021" style="fill: #1a1a1a; stroke: #1a1a1a"/>
      </g>
     </g>
     <g id="text_35">
      <!-- 0.12 -->
      <g style="fill: #1a1a1a" transform="translate(377.258078 85.431975) scale(0.09 -0.09)">
       <use xlink:href="#Menlo-Regular-30"/>
       <use xlink:href="#Menlo-Regular-2e" transform="translate(60.205078 0)"/>
       <use xlink:href="#Menlo-Regular-31" transform="translate(120.410156 0)"/>
       <use xlink:href="#Menlo-Regular-32" transform="translate(180.615234 0)"/>
      </g>
     </g>
    </g>
    <g id="ytick_14">
     <g id="line2d_35">
      <g>
       <use xlink:href="#m90938a5cec" x="402.431203" y="53.806692" style="fill: #1a1a1a; stroke: #1a1a1a"/>
      </g>
     </g>
     <g id="text_36">
      <!-- 0.14 -->
      <g style="fill: #1a1a1a" transform="translate(377.258078 57.238645) scale(0.09 -0.09)">
       <use xlink:href="#Menlo-Regular-30"/>
       <use xlink:href="#Menlo-Regular-2e" transform="translate(60.205078 0)"/>
       <use xlink:href="#Menlo-Regular-31" transform="translate(120.410156 0)"/>
       <use xlink:href="#Menlo-Regular-34" transform="translate(180.615234 0)"/>
      </g>
     </g>
    </g>
    <g id="text_37">
     <!-- probability -->
     <g style="fill: #1a1a1a" transform="translate(371.17839 185.471719) rotate(-90) scale(0.1 -0.1)">
      <use xlink:href="#Menlo-Regular-70"/>
      <use xlink:href="#Menlo-Regular-72" transform="translate(60.205078 0)"/>
      <use xlink:href="#Menlo-Regular-6f" transform="translate(120.410156 0)"/>
      <use xlink:href="#Menlo-Regular-62" transform="translate(180.615234 0)"/>
      <use xlink:href="#Menlo-Regular-61" transform="translate(240.820312 0)"/>
      <use xlink:href="#Menlo-Regular-62" transform="translate(301.025391 0)"/>
      <use xlink:href="#Menlo-Regular-69" transform="translate(361.230469 0)"/>
      <use xlink:href="#Menlo-Regular-6c" transform="translate(421.435547 0)"/>
      <use xlink:href="#Menlo-Regular-69" transform="translate(481.640625 0)"/>
      <use xlink:href="#Menlo-Regular-74" transform="translate(541.845703 0)"/>
      <use xlink:href="#Menlo-Regular-79" transform="translate(602.050781 0)"/>
     </g>
    </g>
   </g>
   <g id="patch_70">
    <path d="M 416.148847 251.16 
L 416.148847 251.16 
L 424.99894 251.16 
L 424.99894 250.455167 
L 433.849033 250.455167 
L 433.849033 250.455167 
L 442.699126 250.455167 
L 442.699126 240.587501 
L 451.549219 240.587501 
L 451.549219 227.19567 
L 460.399312 227.19567 
L 460.399312 206.050672 
L 469.249405 206.050672 
L 469.249405 163.760678 
L 478.099498 163.760678 
L 478.099498 139.091514 
L 486.949591 139.091514 
L 486.949591 89.753187 
L 495.799684 89.753187 
L 495.799684 93.982187 
L 504.649777 93.982187 
L 504.649777 62.969524 
L 513.49987 62.969524 
L 513.49987 83.409688 
L 522.349963 83.409688 
L 522.349963 98.916019 
L 531.200056 98.916019 
L 531.200056 136.272181 
L 540.050149 136.272181 
L 540.050149 177.152509 
L 548.900242 177.152509 
L 548.900242 198.297507 
L 557.750335 198.297507 
L 557.750335 222.96667 
L 566.600428 222.96667 
L 566.600428 239.177835 
L 575.450522 239.177835 
L 575.450522 241.997168 
L 584.300615 241.997168 
L 584.300615 247.635834 
L 593.150708 247.635834 
L 593.150708 246.931001 
L 602.000801 246.931001 
L 602.000801 248.340667 
L 610.850894 248.340667 
L 610.850894 251.16 
L 619.700987 251.16 
L 619.700987 250.455167 
L 628.55108 250.455167 
L 628.55108 251.16 
L 637.401173 251.16 
L 637.401173 251.16 
L 646.251266 251.16 
L 646.251266 251.16 
L 655.101359 251.16 
L 655.101359 251.16 
L 663.951452 251.16 
L 663.951452 251.16 
L 672.801545 251.16 
L 672.801545 251.16 
L 681.651638 251.16 
L 681.651638 251.16 
L 690.501731 251.16 
L 690.501731 251.16 
" clip-path="url(#p2303cf87ef)" style="fill: none; stroke: #1a1a1a; stroke-width: 1.4; stroke-linejoin: miter"/>
   </g>
   <g id="patch_71">
    <path d="M 416.148847 251.16 
L 416.148847 251.16 
L 424.99894 251.16 
L 424.99894 251.16 
L 433.849033 251.16 
L 433.849033 247.635834 
L 442.699126 247.635834 
L 442.699126 238.473002 
L 451.549219 238.473002 
L 451.549219 220.147337 
L 460.399312 220.147337 
L 460.399312 194.77334 
L 469.249405 194.77334 
L 469.249405 173.628343 
L 478.099498 173.628343 
L 478.099498 129.928682 
L 486.949591 129.928682 
L 486.949591 99.620853 
L 495.799684 99.620853 
L 495.799684 77.066189 
L 504.649777 77.066189 
L 504.649777 80.590355 
L 513.49987 80.590355 
L 513.49987 93.277353 
L 522.349963 93.277353 
L 522.349963 119.356183 
L 531.200056 119.356183 
L 531.200056 138.386681 
L 540.050149 138.386681 
L 540.050149 165.170344 
L 548.900242 165.170344 
L 548.900242 200.412006 
L 557.750335 200.412006 
L 557.750335 217.328004 
L 566.600428 217.328004 
L 566.600428 230.719836 
L 575.450522 230.719836 
L 575.450522 241.997168 
L 584.300615 241.997168 
L 584.300615 246.931001 
L 593.150708 246.931001 
L 593.150708 249.0455 
L 602.000801 249.0455 
L 602.000801 250.455167 
L 610.850894 250.455167 
L 610.850894 250.455167 
L 619.700987 250.455167 
L 619.700987 250.455167 
L 628.55108 250.455167 
L 628.55108 251.16 
L 637.401173 251.16 
L 637.401173 251.16 
L 646.251266 251.16 
L 646.251266 251.16 
L 655.101359 251.16 
L 655.101359 251.16 
L 663.951452 251.16 
L 663.951452 251.16 
L 672.801545 251.16 
L 672.801545 251.16 
L 681.651638 251.16 
L 681.651638 251.16 
L 690.501731 251.16 
L 690.501731 251.16 
" clip-path="url(#p2303cf87ef)" style="fill: none; stroke: #c8102e; stroke-width: 1.4; stroke-linejoin: miter"/>
   </g>
   <g id="patch_72">
    <path d="M 416.148847 251.16 
L 416.148847 251.16 
L 424.99894 251.16 
L 424.99894 251.16 
L 433.849033 251.16 
L 433.849033 249.0455 
L 442.699126 249.0455 
L 442.699126 240.587501 
L 451.549219 240.587501 
L 451.549219 220.147337 
L 460.399312 220.147337 
L 460.399312 196.88784 
L 469.249405 196.88784 
L 469.249405 174.333176 
L 478.099498 174.333176 
L 478.099498 139.091514 
L 486.949591 139.091514 
L 486.949591 76.361355 
L 495.799684 76.361355 
L 495.799684 63.674357 
L 504.649777 63.674357 
L 504.649777 67.198523 
L 513.49987 67.198523 
L 513.49987 81.295188 
L 522.349963 81.295188 
L 522.349963 115.127184 
L 531.200056 115.127184 
L 531.200056 141.910847 
L 540.050149 141.910847 
L 540.050149 182.086342 
L 548.900242 182.086342 
L 548.900242 210.984505 
L 557.750335 210.984505 
L 557.750335 229.310169 
L 566.600428 229.310169 
L 566.600428 230.719836 
L 575.450522 230.719836 
L 575.450522 247.635834 
L 584.300615 247.635834 
L 584.300615 248.340667 
L 593.150708 248.340667 
L 593.150708 249.0455 
L 602.000801 249.0455 
L 602.000801 251.16 
L 610.850894 251.16 
L 610.850894 249.750334 
L 619.700987 249.750334 
L 619.700987 251.16 
L 628.55108 251.16 
L 628.55108 251.16 
L 637.401173 251.16 
L 637.401173 251.16 
L 646.251266 251.16 
L 646.251266 251.16 
L 655.101359 251.16 
L 655.101359 251.16 
L 663.951452 251.16 
L 663.951452 251.16 
L 672.801545 251.16 
L 672.801545 251.16 
L 681.651638 251.16 
L 681.651638 251.16 
L 690.501731 251.16 
L 690.501731 251.16 
" clip-path="url(#p2303cf87ef)" style="fill: none; stroke: #e89400; stroke-width: 1.4; stroke-linejoin: miter"/>
   </g>
   <g id="line2d_36">
    <path d="M 420.573894 251.096001 
L 429.423987 250.520012 
L 438.27408 247.960062 
L 447.124173 240.49354 
L 455.974266 224.49385 
L 464.824359 197.8277 
L 473.674452 162.272834 
L 482.524545 124.178334 
L 491.374638 92.432918 
L 500.224731 74.796575 
L 509.074824 74.796575 
L 517.924917 90.829614 
L 526.77501 117.551345 
L 535.625103 148.384111 
L 544.475196 177.748651 
L 553.325289 202.219101 
L 562.175382 220.571938 
L 571.025475 233.167022 
L 579.875568 241.163901 
L 588.725661 245.898895 
L 597.575754 248.529448 
L 606.425847 249.907356 
L 615.27594 250.590616 
L 624.126033 250.912442 
L 632.976126 251.056851 
L 641.826219 251.11874 
L 650.676312 251.144131 
L 659.526405 251.154123 
L 668.376498 251.157901 
L 677.226591 251.159276 
L 686.076684 251.159759 
" clip-path="url(#p2303cf87ef)" style="fill: none; stroke-dasharray: 3.7,1.6; stroke-dashoffset: 0; stroke: #6a6a6a"/>
   </g>
   <g id="patch_73">
    <path d="M 402.431203 251.16 
L 402.431203 53.56 
" style="fill: none; stroke: #1a1a1a; stroke-width: 1.4; stroke-linejoin: miter; stroke-linecap: square"/>
   </g>
   <g id="patch_74">
    <path d="M 402.431203 251.16 
L 704.219375 251.16 
" style="fill: none; stroke: #1a1a1a; stroke-width: 1.4; stroke-linejoin: miter; stroke-linecap: square"/>
   </g>
   <g id="text_38">
    <!-- dt-invariance -->
    <g style="fill: #1a1a1a" transform="translate(402.431203 43.56) scale(0.11 -0.11)">
     <defs>
      <path id="Menlo-Regular-2d" d="M 319 2263 
L 3631 2263 
L 3631 1734 
L 319 1734 
L 319 2263 
z
" transform="scale(0.015625)"/>
     </defs>
     <use xlink:href="#Menlo-Regular-64"/>
     <use xlink:href="#Menlo-Regular-74" transform="translate(60.205078 0)"/>
     <use xlink:href="#Menlo-Regular-2d" transform="translate(120.410156 0)"/>
     <use xlink:href="#Menlo-Regular-69" transform="translate(180.615234 0)"/>
     <use xlink:href="#Menlo-Regular-6e" transform="translate(240.820312 0)"/>
     <use xlink:href="#Menlo-Regular-76" transform="translate(301.025391 0)"/>
     <use xlink:href="#Menlo-Regular-61" transform="translate(361.230469 0)"/>
     <use xlink:href="#Menlo-Regular-72" transform="translate(421.435547 0)"/>
     <use xlink:href="#Menlo-Regular-69" transform="translate(481.640625 0)"/>
     <use xlink:href="#Menlo-Regular-61" transform="translate(541.845703 0)"/>
     <use xlink:href="#Menlo-Regular-6e" transform="translate(602.050781 0)"/>
     <use xlink:href="#Menlo-Regular-63" transform="translate(662.255859 0)"/>
     <use xlink:href="#Menlo-Regular-65" transform="translate(722.460938 0)"/>
    </g>
   </g>
   <g id="legend_2">
    <g id="patch_75">
     <path d="M 599.581719 69.423906 
L 617.581719 69.423906 
L 617.581719 63.123906 
L 599.581719 63.123906 
L 599.581719 69.423906 
z
" style="fill: none; stroke: #1a1a1a; stroke-width: 1.4; stroke-linejoin: miter"/>
    </g>
    <g id="text_39">
     <!-- dt = 0.1 ms -->
     <g style="fill: #1a1a1a" transform="translate(624.781719 69.423906) scale(0.09 -0.09)">
      <defs>
       <path id="Menlo-Regular-6d" d="M 2113 3144 
Q 2219 3369 2383 3476 
Q 2547 3584 2778 3584 
Q 3200 3584 3373 3257 
Q 3547 2931 3547 2028 
L 3547 0 
L 3022 0 
L 3022 2003 
Q 3022 2744 2939 2923 
Q 2856 3103 2638 3103 
Q 2388 3103 2295 2911 
Q 2203 2719 2203 2003 
L 2203 0 
L 1678 0 
L 1678 2003 
Q 1678 2753 1589 2928 
Q 1500 3103 1269 3103 
Q 1041 3103 952 2911 
Q 863 2719 863 2003 
L 863 0 
L 341 0 
L 341 3500 
L 863 3500 
L 863 3200 
Q 966 3388 1120 3486 
Q 1275 3584 1472 3584 
Q 1709 3584 1867 3475 
Q 2025 3366 2113 3144 
z
" transform="scale(0.015625)"/>
      </defs>
      <use xlink:href="#Menlo-Regular-64"/>
      <use xlink:href="#Menlo-Regular-74" transform="translate(60.205078 0)"/>
      <use xlink:href="#Menlo-Regular-20" transform="translate(120.410156 0)"/>
      <use xlink:href="#Menlo-Regular-3d" transform="translate(180.615234 0)"/>
      <use xlink:href="#Menlo-Regular-20" transform="translate(240.820312 0)"/>
      <use xlink:href="#Menlo-Regular-30" transform="translate(301.025391 0)"/>
      <use xlink:href="#Menlo-Regular-2e" transform="translate(361.230469 0)"/>
      <use xlink:href="#Menlo-Regular-31" transform="translate(421.435547 0)"/>
      <use xlink:href="#Menlo-Regular-20" transform="translate(481.640625 0)"/>
      <use xlink:href="#Menlo-Regular-6d" transform="translate(541.845703 0)"/>
      <use xlink:href="#Menlo-Regular-73" transform="translate(602.050781 0)"/>
     </g>
    </g>
    <g id="patch_76">
     <path d="M 599.581719 82.659531 
L 617.581719 82.659531 
L 617.581719 76.359531 
L 599.581719 76.359531 
L 599.581719 82.659531 
z
" style="fill: none; stroke: #c8102e; stroke-width: 1.4; stroke-linejoin: miter"/>
    </g>
    <g id="text_40">
     <!-- dt = 0.25 ms -->
     <g style="fill: #1a1a1a" transform="translate(624.781719 82.659531) scale(0.09 -0.09)">
      <use xlink:href="#Menlo-Regular-64"/>
      <use xlink:href="#Menlo-Regular-74" transform="translate(60.205078 0)"/>
      <use xlink:href="#Menlo-Regular-20" transform="translate(120.410156 0)"/>
      <use xlink:href="#Menlo-Regular-3d" transform="translate(180.615234 0)"/>
      <use xlink:href="#Menlo-Regular-20" transform="translate(240.820312 0)"/>
      <use xlink:href="#Menlo-Regular-30" transform="translate(301.025391 0)"/>
      <use xlink:href="#Menlo-Regular-2e" transform="translate(361.230469 0)"/>
      <use xlink:href="#Menlo-Regular-32" transform="translate(421.435547 0)"/>
      <use xlink:href="#Menlo-Regular-35" transform="translate(481.640625 0)"/>
      <use xlink:href="#Menlo-Regular-20" transform="translate(541.845703 0)"/>
      <use xlink:href="#Menlo-Regular-6d" transform="translate(602.050781 0)"/>
      <use xlink:href="#Menlo-Regular-73" transform="translate(662.255859 0)"/>
     </g>
    </g>
    <g id="patch_77">
     <path d="M 599.581719 95.895156 
L 617.581719 95.895156 
L 617.581719 89.595156 
L 599.581719 89.595156 
L 599.581719 95.895156 
z
" style="fill: none; stroke: #e89400; stroke-width: 1.4; stroke-linejoin: miter"/>
    </g>
    <g id="text_41">
     <!-- dt = 1 ms -->
     <g style="fill: #1a1a1a" transform="translate(624.781719 95.895156) scale(0.09 -0.09)">
      <use xlink:href="#Menlo-Regular-64"/>
      <use xlink:href="#Menlo-Regular-74" transform="translate(60.205078 0)"/>
      <use xlink:href="#Menlo-Regular-20" transform="translate(120.410156 0)"/>
      <use xlink:href="#Menlo-Regular-3d" transform="translate(180.615234 0)"/>
      <use xlink:href="#Menlo-Regular-20" transform="translate(240.820312 0)"/>
      <use xlink:href="#Menlo-Regular-31" transform="translate(301.025391 0)"/>
      <use xlink:href="#Menlo-Regular-20" transform="translate(361.230469 0)"/>
      <use xlink:href="#Menlo-Regular-6d" transform="translate(421.435547 0)"/>
      <use xlink:href="#Menlo-Regular-73" transform="translate(481.640625 0)"/>
     </g>
    </g>
    <g id="line2d_37">
     <path d="M 599.581719 105.980781 
L 608.581719 105.980781 
L 617.581719 105.980781 
" style="fill: none; stroke-dasharray: 3.7,1.6; stroke-dashoffset: 0; stroke: #6a6a6a"/>
    </g>
    <g id="text_42">
     <!-- Poisson(λ=10) -->
     <g style="fill: #1a1a1a" transform="translate(624.781719 109.130781) scale(0.09 -0.09)">
      <defs>
       <path id="Menlo-Regular-28" d="M 2672 5169 
Q 2256 4456 2051 3748 
Q 1847 3041 1847 2322 
Q 1847 1606 2051 897 
Q 2256 188 2672 -531 
L 2172 -531 
Q 1700 213 1469 917 
Q 1238 1622 1238 2322 
Q 1238 3019 1469 3725 
Q 1700 4431 2172 5169 
L 2672 5169 
z
" transform="scale(0.015625)"/>
       <path id="Menlo-Regular-29" d="M 1088 5169 
L 1588 5169 
Q 2059 4431 2290 3725 
Q 2522 3019 2522 2322 
Q 2522 1619 2290 912 
Q 2059 206 1588 -531 
L 1088 -531 
Q 1503 194 1708 903 
Q 1913 1613 1913 2322 
Q 1913 3034 1708 3743 
Q 1503 4453 1088 5169 
z
" transform="scale(0.015625)"/>
      </defs>
      <use xlink:href="#Menlo-Regular-50"/>
      <use xlink:href="#Menlo-Regular-6f" transform="translate(60.205078 0)"/>
      <use xlink:href="#Menlo-Regular-69" transform="translate(120.410156 0)"/>
      <use xlink:href="#Menlo-Regular-73" transform="translate(180.615234 0)"/>
      <use xlink:href="#Menlo-Regular-73" transform="translate(240.820312 0)"/>
      <use xlink:href="#Menlo-Regular-6f" transform="translate(301.025391 0)"/>
      <use xlink:href="#Menlo-Regular-6e" transform="translate(361.230469 0)"/>
      <use xlink:href="#Menlo-Regular-28" transform="translate(421.435547 0)"/>
      <use xlink:href="#Menlo-Regular-3bb" transform="translate(481.640625 0)"/>
      <use xlink:href="#Menlo-Regular-3d" transform="translate(541.845703 0)"/>
      <use xlink:href="#Menlo-Regular-31" transform="translate(602.050781 0)"/>
      <use xlink:href="#Menlo-Regular-30" transform="translate(662.255859 0)"/>
      <use xlink:href="#Menlo-Regular-29" transform="translate(722.460938 0)"/>
     </g>
    </g>
   </g>
  </g>
  <g id="text_43">
   <!-- The input encoder is a Poisson process — pixel intensity sets λ -->
   <g transform="translate(146.955547 15.589219) scale(0.11 -0.11)">
    <defs>
     <path id="Menlo-Regular-54" d="M 147 4666 
L 3706 4666 
L 3706 4134 
L 2247 4134 
L 2247 0 
L 1613 0 
L 1613 4134 
L 147 4134 
L 147 4666 
z
" transform="scale(0.015625)"/>
     <path id="Menlo-Regular-68" d="M 3284 2169 
L 3284 0 
L 2706 0 
L 2706 2169 
Q 2706 2641 2540 2862 
Q 2375 3084 2022 3084 
Q 1619 3084 1401 2798 
Q 1184 2513 1184 1978 
L 1184 0 
L 609 0 
L 609 4863 
L 1184 4863 
L 1184 2975 
Q 1338 3275 1600 3429 
Q 1863 3584 2222 3584 
Q 2756 3584 3020 3232 
Q 3284 2881 3284 2169 
z
" transform="scale(0.015625)"/>
     <path id="Menlo-Regular-2014" d="M 0 2259 
L 3853 2259 
L 3853 1725 
L 0 1725 
L 0 2259 
z
" transform="scale(0.015625)"/>
     <path id="Menlo-Regular-78" d="M 3494 3500 
L 2241 1825 
L 3616 0 
L 2950 0 
L 1925 1403 
L 903 0 
L 238 0 
L 1613 1825 
L 359 3500 
L 997 3500 
L 1925 2234 
L 2847 3500 
L 3494 3500 
z
" transform="scale(0.015625)"/>
    </defs>
    <use xlink:href="#Menlo-Regular-54"/>
    <use xlink:href="#Menlo-Regular-68" transform="translate(60.205078 0)"/>
    <use xlink:href="#Menlo-Regular-65" transform="translate(120.410156 0)"/>
    <use xlink:href="#Menlo-Regular-20" transform="translate(180.615234 0)"/>
    <use xlink:href="#Menlo-Regular-69" transform="translate(240.820312 0)"/>
    <use xlink:href="#Menlo-Regular-6e" transform="translate(301.025391 0)"/>
    <use xlink:href="#Menlo-Regular-70" transform="translate(361.230469 0)"/>
    <use xlink:href="#Menlo-Regular-75" transform="translate(421.435547 0)"/>
    <use xlink:href="#Menlo-Regular-74" transform="translate(481.640625 0)"/>
    <use xlink:href="#Menlo-Regular-20" transform="translate(541.845703 0)"/>
    <use xlink:href="#Menlo-Regular-65" transform="translate(602.050781 0)"/>
    <use xlink:href="#Menlo-Regular-6e" transform="translate(662.255859 0)"/>
    <use xlink:href="#Menlo-Regular-63" transform="translate(722.460938 0)"/>
    <use xlink:href="#Menlo-Regular-6f" transform="translate(782.666016 0)"/>
    <use xlink:href="#Menlo-Regular-64" transform="translate(842.871094 0)"/>
    <use xlink:href="#Menlo-Regular-65" transform="translate(903.076172 0)"/>
    <use xlink:href="#Menlo-Regular-72" transform="translate(963.28125 0)"/>
    <use xlink:href="#Menlo-Regular-20" transform="translate(1023.486328 0)"/>
    <use xlink:href="#Menlo-Regular-69" transform="translate(1083.691406 0)"/>
    <use xlink:href="#Menlo-Regular-73" transform="translate(1143.896484 0)"/>
    <use xlink:href="#Menlo-Regular-20" transform="translate(1204.101562 0)"/>
    <use xlink:href="#Menlo-Regular-61" transform="translate(1264.306641 0)"/>
    <use xlink:href="#Menlo-Regular-20" transform="translate(1324.511719 0)"/>
    <use xlink:href="#Menlo-Regular-50" transform="translate(1384.716797 0)"/>
    <use xlink:href="#Menlo-Regular-6f" transform="translate(1444.921875 0)"/>
    <use xlink:href="#Menlo-Regular-69" transform="translate(1505.126953 0)"/>
    <use xlink:href="#Menlo-Regular-73" transform="translate(1565.332031 0)"/>
    <use xlink:href="#Menlo-Regular-73" transform="translate(1625.537109 0)"/>
    <use xlink:href="#Menlo-Regular-6f" transform="translate(1685.742188 0)"/>
    <use xlink:href="#Menlo-Regular-6e" transform="translate(1745.947266 0)"/>
    <use xlink:href="#Menlo-Regular-20" transform="translate(1806.152344 0)"/>
    <use xlink:href="#Menlo-Regular-70" transform="translate(1866.357422 0)"/>
    <use xlink:href="#Menlo-Regular-72" transform="translate(1926.5625 0)"/>
    <use xlink:href="#Menlo-Regular-6f" transform="translate(1986.767578 0)"/>
    <use xlink:href="#Menlo-Regular-63" transform="translate(2046.972656 0)"/>
    <use xlink:href="#Menlo-Regular-65" transform="translate(2107.177734 0)"/>
    <use xlink:href="#Menlo-Regular-73" transform="translate(2167.382812 0)"/>
    <use xlink:href="#Menlo-Regular-73" transform="translate(2227.587891 0)"/>
    <use xlink:href="#Menlo-Regular-20" transform="translate(2287.792969 0)"/>
    <use xlink:href="#Menlo-Regular-2014" transform="translate(2347.998047 0)"/>
    <use xlink:href="#Menlo-Regular-20" transform="translate(2408.203125 0)"/>
    <use xlink:href="#Menlo-Regular-70" transform="translate(2468.408203 0)"/>
    <use xlink:href="#Menlo-Regular-69" transform="translate(2528.613281 0)"/>
    <use xlink:href="#Menlo-Regular-78" transform="translate(2588.818359 0)"/>
    <use xlink:href="#Menlo-Regular-65" transform="translate(2649.023438 0)"/>
    <use xlink:href="#Menlo-Regular-6c" transform="translate(2709.228516 0)"/>
    <use xlink:href="#Menlo-Regular-20" transform="translate(2769.433594 0)"/>
    <use xlink:href="#Menlo-Regular-69" transform="translate(2829.638672 0)"/>
    <use xlink:href="#Menlo-Regular-6e" transform="translate(2889.84375 0)"/>
    <use xlink:href="#Menlo-Regular-74" transform="translate(2950.048828 0)"/>
    <use xlink:href="#Menlo-Regular-65" transform="translate(3010.253906 0)"/>
    <use xlink:href="#Menlo-Regular-6e" transform="translate(3070.458984 0)"/>
    <use xlink:href="#Menlo-Regular-73" transform="translate(3130.664062 0)"/>
    <use xlink:href="#Menlo-Regular-69" transform="translate(3190.869141 0)"/>
    <use xlink:href="#Menlo-Regular-74" transform="translate(3251.074219 0)"/>
    <use xlink:href="#Menlo-Regular-79" transform="translate(3311.279297 0)"/>
    <use xlink:href="#Menlo-Regular-20" transform="translate(3371.484375 0)"/>
    <use xlink:href="#Menlo-Regular-73" transform="translate(3431.689453 0)"/>
    <use xlink:href="#Menlo-Regular-65" transform="translate(3491.894531 0)"/>
    <use xlink:href="#Menlo-Regular-74" transform="translate(3552.099609 0)"/>
    <use xlink:href="#Menlo-Regular-73" transform="translate(3612.304688 0)"/>
    <use xlink:href="#Menlo-Regular-20" transform="translate(3672.509766 0)"/>
    <use xlink:href="#Menlo-Regular-3bb" transform="translate(3732.714844 0)"/>
   </g>
  </g>
  <g id="text_44">
   <!-- r001 -->
   <g style="fill: #888888" transform="translate(692.694375 286.33625) scale(0.08 -0.08)">
    <use xlink:href="#Menlo-Regular-72"/>
    <use xlink:href="#Menlo-Regular-30" transform="translate(60.205078 0)"/>
    <use xlink:href="#Menlo-Regular-30" transform="translate(120.410156 0)"/>
    <use xlink:href="#Menlo-Regular-31" transform="translate(180.615234 0)"/>
   </g>
  </g>
 </g>
 <defs>
  <clipPath id="p7e4da72719">
   <rect x="46.079375" y="53.56" width="301.788172" height="197.6"/>
  </clipPath>
  <clipPath id="p2303cf87ef">
   <rect x="402.431203" y="53.56" width="301.788172" height="197.6"/>
  </clipPath>
 </defs>
</svg>
