<?xml version="1.0" encoding="utf-8" standalone="no"?>
<!DOCTYPE svg PUBLIC "-//W3C//DTD SVG 1.1//EN"
  "http://www.w3.org/Graphics/SVG/1.1/DTD/svg11.dtd">
<svg xmlns:xlink="http://www.w3.org/1999/xlink" width="575.747656pt" height="325.44pt" viewBox="0 0 575.747656 325.44" xmlns="http://www.w3.org/2000/svg" version="1.1">
 <metadata>
  <rdf:RDF xmlns:dc="http://purl.org/dc/elements/1.1/" xmlns:cc="http://creativecommons.org/ns#" xmlns:rdf="http://www.w3.org/1999/02/22-rdf-syntax-ns#">
   <cc:Work>
    <dc:type rdf:resource="http://purl.org/dc/dcmitype/StillImage"/>
    <dc:date>2026-07-06T17:13:23.546438</dc:date>
    <dc:format>image/svg+xml</dc:format>
    <dc:creator>
     <cc:Agent>
      <dc:title>Matplotlib v3.10.8, https://matplotlib.org/</dc:title>
     </cc:Agent>
    </dc:creator>
   </cc:Work>
  </rdf:RDF>
 </metadata>
 <defs>
  <style type="text/css">*{stroke-linejoin: round; stroke-linecap: butt}</style>
 </defs>
 <g id="figure_1">
  <g id="patch_1">
   <path d="M 0 325.44 
L 575.747656 325.44 
L 575.747656 0 
L 0 0 
z
" style="fill: #ffffff"/>
  </g>
  <g id="axes_1">
   <g id="patch_2">
    <path d="M 51.497656 282.3 
L 515.357656 282.3 
L 515.357656 7.2 
L 51.497656 7.2 
z
" style="fill: #ffffff"/>
   </g>
   <g id="matplotlib.axis_1">
    <g id="xtick_1">
     <g id="line2d_1">
      <defs>
       <path id="m13a8b934d0" d="M 0 0 
L 0 -4 
" style="stroke: #1a1a1a"/>
      </defs>
      <g>
       <use xlink:href="#m13a8b934d0" x="72.582202" y="282.3" style="fill: #1a1a1a; stroke: #1a1a1a"/>
      </g>
     </g>
     <g id="text_1">
      <!-- 0 -->
      <g style="fill: #1a1a1a" transform="translate(69.873061 292.663906) scale(0.09 -0.09)">
       <defs>
        <path id="Menlo-Regular-30" d="M 1925 4734 
Q 2672 4734 3055 4125 
Q 3438 3516 3438 2322 
Q 3438 1128 3055 518 
Q 2672 -91 1925 -91 
Q 1178 -91 797 518 
Q 416 1128 416 2322 
Q 416 3516 797 4125 
Q 1178 4734 1925 4734 
z
M 1925 409 
Q 2369 409 2586 881 
Q 2803 1353 2803 2322 
Q 2803 2838 2741 3253 
L 1253 925 
Q 1488 409 1925 409 
z
M 1925 4234 
Q 1484 4234 1267 3762 
Q 1050 3291 1050 2322 
Q 1050 1881 1109 1497 
L 2566 3819 
Q 2328 4234 1925 4234 
z
" transform="scale(0.015625)"/>
       </defs>
       <use xlink:href="#Menlo-Regular-30"/>
      </g>
     </g>
    </g>
    <g id="xtick_2">
     <g id="line2d_2">
      <g>
       <use xlink:href="#m13a8b934d0" x="150.662369" y="282.3" style="fill: #1a1a1a; stroke: #1a1a1a"/>
      </g>
     </g>
     <g id="text_2">
      <!-- 20 -->
      <g style="fill: #1a1a1a" transform="translate(145.244088 292.663906) scale(0.09 -0.09)">
       <defs>
        <path id="Menlo-Regular-32" d="M 1166 531 
L 3309 531 
L 3309 0 
L 475 0 
L 475 531 
Q 1059 1147 1496 1619 
Q 1934 2091 2100 2284 
Q 2413 2666 2522 2902 
Q 2631 3138 2631 3384 
Q 2631 3775 2401 3997 
Q 2172 4219 1772 4219 
Q 1488 4219 1175 4116 
Q 863 4013 513 3803 
L 513 4441 
Q 834 4594 1145 4672 
Q 1456 4750 1759 4750 
Q 2444 4750 2861 4386 
Q 3278 4022 3278 3431 
Q 3278 3131 3139 2831 
Q 3000 2531 2688 2169 
Q 2513 1966 2180 1606 
Q 1847 1247 1166 531 
z
" transform="scale(0.015625)"/>
       </defs>
       <use xlink:href="#Menlo-Regular-32"/>
       <use xlink:href="#Menlo-Regular-30" transform="translate(60.205078 0)"/>
      </g>
     </g>
    </g>
    <g id="xtick_3">
     <g id="line2d_3">
      <g>
       <use xlink:href="#m13a8b934d0" x="228.742537" y="282.3" style="fill: #1a1a1a; stroke: #1a1a1a"/>
      </g>
     </g>
     <g id="text_3">
      <!-- 40 -->
      <g style="fill: #1a1a1a" transform="translate(223.324256 292.663906) scale(0.09 -0.09)">
       <defs>
        <path id="Menlo-Regular-34" d="M 2297 4091 
L 825 1625 
L 2297 1625 
L 2297 4091 
z
M 2194 4666 
L 2925 4666 
L 2925 1625 
L 3547 1625 
L 3547 1113 
L 2925 1113 
L 2925 0 
L 2297 0 
L 2297 1113 
L 319 1113 
L 319 1709 
L 2194 4666 
z
" transform="scale(0.015625)"/>
       </defs>
       <use xlink:href="#Menlo-Regular-34"/>
       <use xlink:href="#Menlo-Regular-30" transform="translate(60.205078 0)"/>
      </g>
     </g>
    </g>
    <g id="xtick_4">
     <g id="line2d_4">
      <g>
       <use xlink:href="#m13a8b934d0" x="306.822704" y="282.3" style="fill: #1a1a1a; stroke: #1a1a1a"/>
      </g>
     </g>
     <g id="text_4">
      <!-- 60 -->
      <g style="fill: #1a1a1a" transform="translate(301.404423 292.663906) scale(0.09 -0.09)">
       <defs>
        <path id="Menlo-Regular-36" d="M 3097 4563 
L 3097 3981 
Q 2900 4097 2678 4158 
Q 2456 4219 2216 4219 
Q 1616 4219 1306 3767 
Q 997 3316 997 2438 
Q 1147 2750 1412 2917 
Q 1678 3084 2022 3084 
Q 2697 3084 3067 2670 
Q 3438 2256 3438 1497 
Q 3438 741 3056 325 
Q 2675 -91 1984 -91 
Q 1172 -91 794 492 
Q 416 1075 416 2328 
Q 416 3509 870 4129 
Q 1325 4750 2188 4750 
Q 2419 4750 2650 4701 
Q 2881 4653 3097 4563 
z
M 1972 2591 
Q 1569 2591 1337 2300 
Q 1106 2009 1106 1497 
Q 1106 984 1337 693 
Q 1569 403 1972 403 
Q 2391 403 2603 679 
Q 2816 956 2816 1497 
Q 2816 2041 2603 2316 
Q 2391 2591 1972 2591 
z
" transform="scale(0.015625)"/>
       </defs>
       <use xlink:href="#Menlo-Regular-36"/>
       <use xlink:href="#Menlo-Regular-30" transform="translate(60.205078 0)"/>
      </g>
     </g>
    </g>
    <g id="xtick_5">
     <g id="line2d_5">
      <g>
       <use xlink:href="#m13a8b934d0" x="384.902872" y="282.3" style="fill: #1a1a1a; stroke: #1a1a1a"/>
      </g>
     </g>
     <g id="text_5">
      <!-- 80 -->
      <g style="fill: #1a1a1a" transform="translate(379.484591 292.663906) scale(0.09 -0.09)">
       <defs>
        <path id="Menlo-Regular-38" d="M 1925 2216 
Q 1503 2216 1273 1980 
Q 1044 1744 1044 1313 
Q 1044 881 1276 642 
Q 1509 403 1925 403 
Q 2350 403 2579 639 
Q 2809 875 2809 1313 
Q 2809 1741 2576 1978 
Q 2344 2216 1925 2216 
z
M 1375 2478 
Q 972 2581 745 2862 
Q 519 3144 519 3541 
Q 519 4097 897 4423 
Q 1275 4750 1925 4750 
Q 2578 4750 2956 4423 
Q 3334 4097 3334 3541 
Q 3334 3144 3107 2862 
Q 2881 2581 2478 2478 
Q 2947 2375 3195 2062 
Q 3444 1750 3444 1253 
Q 3444 622 3041 265 
Q 2638 -91 1925 -91 
Q 1213 -91 811 264 
Q 409 619 409 1247 
Q 409 1747 657 2061 
Q 906 2375 1375 2478 
z
M 1147 3481 
Q 1147 3106 1347 2909 
Q 1547 2713 1925 2713 
Q 2306 2713 2506 2909 
Q 2706 3106 2706 3481 
Q 2706 3863 2507 4063 
Q 2309 4263 1925 4263 
Q 1547 4263 1347 4061 
Q 1147 3859 1147 3481 
z
" transform="scale(0.015625)"/>
       </defs>
       <use xlink:href="#Menlo-Regular-38"/>
       <use xlink:href="#Menlo-Regular-30" transform="translate(60.205078 0)"/>
      </g>
     </g>
    </g>
    <g id="xtick_6">
     <g id="line2d_6">
      <g>
       <use xlink:href="#m13a8b934d0" x="462.98304" y="282.3" style="fill: #1a1a1a; stroke: #1a1a1a"/>
      </g>
     </g>
     <g id="text_6">
      <!-- 100 -->
      <g style="fill: #1a1a1a" transform="translate(454.855618 292.663906) scale(0.09 -0.09)">
       <defs>
        <path id="Menlo-Regular-31" d="M 844 528 
L 1825 528 
L 1825 4053 
L 650 3488 
L 650 4094 
L 1819 4650 
L 2450 4650 
L 2450 528 
L 3419 528 
L 3419 0 
L 844 0 
L 844 528 
z
" transform="scale(0.015625)"/>
       </defs>
       <use xlink:href="#Menlo-Regular-31"/>
       <use xlink:href="#Menlo-Regular-30" transform="translate(60.205078 0)"/>
       <use xlink:href="#Menlo-Regular-30" transform="translate(120.410156 0)"/>
      </g>
     </g>
    </g>
    <g id="text_7">
     <!-- time (ms) -->
     <g style="fill: #1a1a1a" transform="translate(256.33625 306.162187) scale(0.1 -0.1)">
      <defs>
       <path id="Menlo-Regular-74" d="M 1919 4494 
L 1919 3500 
L 3225 3500 
L 3225 3053 
L 1919 3053 
L 1919 1153 
Q 1919 766 2066 612 
Q 2213 459 2578 459 
L 3225 459 
L 3225 0 
L 2522 0 
Q 1875 0 1609 259 
Q 1344 519 1344 1153 
L 1344 3053 
L 409 3053 
L 409 3500 
L 1344 3500 
L 1344 4494 
L 1919 4494 
z
" transform="scale(0.015625)"/>
       <path id="Menlo-Regular-69" d="M 988 3488 
L 2459 3488 
L 2459 447 
L 3600 447 
L 3600 0 
L 744 0 
L 744 447 
L 1884 447 
L 1884 3041 
L 988 3041 
L 988 3488 
z
M 1884 4847 
L 2459 4847 
L 2459 4122 
L 1884 4122 
L 1884 4847 
z
" transform="scale(0.015625)"/>
       <path id="Menlo-Regular-6d" d="M 2113 3144 
Q 2219 3369 2383 3476 
Q 2547 3584 2778 3584 
Q 3200 3584 3373 3257 
Q 3547 2931 3547 2028 
L 3547 0 
L 3022 0 
L 3022 2003 
Q 3022 2744 2939 2923 
Q 2856 3103 2638 3103 
Q 2388 3103 2295 2911 
Q 2203 2719 2203 2003 
L 2203 0 
L 1678 0 
L 1678 2003 
Q 1678 2753 1589 2928 
Q 1500 3103 1269 3103 
Q 1041 3103 952 2911 
Q 863 2719 863 2003 
L 863 0 
L 341 0 
L 341 3500 
L 863 3500 
L 863 3200 
Q 966 3388 1120 3486 
Q 1275 3584 1472 3584 
Q 1709 3584 1867 3475 
Q 2025 3366 2113 3144 
z
" transform="scale(0.015625)"/>
       <path id="Menlo-Regular-65" d="M 3500 2038 
L 3500 1756 
L 1009 1756 
L 1009 1738 
Q 984 1022 1282 709 
Q 1581 397 2125 397 
Q 2400 397 2700 484 
Q 3000 572 3341 750 
L 3341 178 
Q 3013 44 2708 -23 
Q 2403 -91 2119 -91 
Q 1303 -91 843 398 
Q 384 888 384 1747 
Q 384 2584 834 3084 
Q 1284 3584 2034 3584 
Q 2703 3584 3089 3131 
Q 3475 2678 3500 2038 
z
M 2925 2206 
Q 2888 2569 2661 2833 
Q 2434 3097 2009 3097 
Q 1594 3097 1325 2822 
Q 1056 2547 1031 2203 
L 2925 2206 
z
" transform="scale(0.015625)"/>
       <path id="Menlo-Regular-20" transform="scale(0.015625)"/>
       <path id="Menlo-Regular-28" d="M 2672 5169 
Q 2256 4456 2051 3748 
Q 1847 3041 1847 2322 
Q 1847 1606 2051 897 
Q 2256 188 2672 -531 
L 2172 -531 
Q 1700 213 1469 917 
Q 1238 1622 1238 2322 
Q 1238 3019 1469 3725 
Q 1700 4431 2172 5169 
L 2672 5169 
z
" transform="scale(0.015625)"/>
       <path id="Menlo-Regular-73" d="M 3041 3378 
L 3041 2816 
Q 2794 2959 2544 3031 
Q 2294 3103 2034 3103 
Q 1644 3103 1451 2976 
Q 1259 2850 1259 2591 
Q 1259 2356 1403 2240 
Q 1547 2125 2119 2016 
L 2350 1972 
Q 2778 1891 2998 1647 
Q 3219 1403 3219 1013 
Q 3219 494 2850 201 
Q 2481 -91 1825 -91 
Q 1566 -91 1281 -36 
Q 997 19 666 128 
L 666 722 
Q 988 556 1281 473 
Q 1575 391 1838 391 
Q 2219 391 2428 545 
Q 2638 700 2638 978 
Q 2638 1378 1872 1531 
L 1847 1538 
L 1631 1581 
Q 1134 1678 906 1908 
Q 678 2138 678 2534 
Q 678 3038 1018 3311 
Q 1359 3584 1991 3584 
Q 2272 3584 2531 3532 
Q 2791 3481 3041 3378 
z
" transform="scale(0.015625)"/>
       <path id="Menlo-Regular-29" d="M 1088 5169 
L 1588 5169 
Q 2059 4431 2290 3725 
Q 2522 3019 2522 2322 
Q 2522 1619 2290 912 
Q 2059 206 1588 -531 
L 1088 -531 
Q 1503 194 1708 903 
Q 1913 1613 1913 2322 
Q 1913 3034 1708 3743 
Q 1503 4453 1088 5169 
z
" transform="scale(0.015625)"/>
      </defs>
      <use xlink:href="#Menlo-Regular-74"/>
      <use xlink:href="#Menlo-Regular-69" transform="translate(60.205078 0)"/>
      <use xlink:href="#Menlo-Regular-6d" transform="translate(120.410156 0)"/>
      <use xlink:href="#Menlo-Regular-65" transform="translate(180.615234 0)"/>
      <use xlink:href="#Menlo-Regular-20" transform="translate(240.820312 0)"/>
      <use xlink:href="#Menlo-Regular-28" transform="translate(301.025391 0)"/>
      <use xlink:href="#Menlo-Regular-6d" transform="translate(361.230469 0)"/>
      <use xlink:href="#Menlo-Regular-73" transform="translate(421.435547 0)"/>
      <use xlink:href="#Menlo-Regular-29" transform="translate(481.640625 0)"/>
     </g>
    </g>
   </g>
   <g id="matplotlib.axis_2">
    <g id="ytick_1">
     <g id="line2d_7">
      <defs>
       <path id="md502ea0150" d="M 0 0 
L 4 0 
" style="stroke: #1a1a1a"/>
      </defs>
      <g>
       <use xlink:href="#md502ea0150" x="51.497656" y="280.598443" style="fill: #1a1a1a; stroke: #1a1a1a"/>
      </g>
     </g>
     <g id="text_8">
      <!-- 0.002 -->
      <g style="fill: #1a1a1a" transform="translate(20.90625 284.030396) scale(0.09 -0.09)">
       <defs>
        <path id="Menlo-Regular-2e" d="M 1216 1263 
L 2316 1263 
L 2316 0 
L 1216 0 
L 1216 1263 
z
" transform="scale(0.015625)"/>
       </defs>
       <use xlink:href="#Menlo-Regular-30"/>
       <use xlink:href="#Menlo-Regular-2e" transform="translate(60.205078 0)"/>
       <use xlink:href="#Menlo-Regular-30" transform="translate(120.410156 0)"/>
       <use xlink:href="#Menlo-Regular-30" transform="translate(180.615234 0)"/>
       <use xlink:href="#Menlo-Regular-32" transform="translate(240.820312 0)"/>
      </g>
     </g>
    </g>
    <g id="ytick_2">
     <g id="line2d_8">
      <g>
       <use xlink:href="#md502ea0150" x="51.497656" y="243.676087" style="fill: #1a1a1a; stroke: #1a1a1a"/>
      </g>
     </g>
     <g id="text_9">
      <!-- 0.003 -->
      <g style="fill: #1a1a1a" transform="translate(20.90625 247.108041) scale(0.09 -0.09)">
       <defs>
        <path id="Menlo-Regular-33" d="M 2425 2497 
Q 2884 2375 3128 2064 
Q 3372 1753 3372 1288 
Q 3372 644 2939 276 
Q 2506 -91 1741 -91 
Q 1419 -91 1084 -31 
Q 750 28 428 141 
L 428 769 
Q 747 603 1056 522 
Q 1366 441 1672 441 
Q 2191 441 2469 675 
Q 2747 909 2747 1350 
Q 2747 1756 2469 1995 
Q 2191 2234 1716 2234 
L 1234 2234 
L 1234 2753 
L 1716 2753 
Q 2150 2753 2394 2943 
Q 2638 3134 2638 3475 
Q 2638 3834 2411 4026 
Q 2184 4219 1766 4219 
Q 1488 4219 1191 4156 
Q 894 4094 569 3969 
L 569 4550 
Q 947 4650 1242 4700 
Q 1538 4750 1766 4750 
Q 2447 4750 2855 4408 
Q 3263 4066 3263 3500 
Q 3263 3116 3048 2859 
Q 2834 2603 2425 2497 
z
" transform="scale(0.015625)"/>
       </defs>
       <use xlink:href="#Menlo-Regular-30"/>
       <use xlink:href="#Menlo-Regular-2e" transform="translate(60.205078 0)"/>
       <use xlink:href="#Menlo-Regular-30" transform="translate(120.410156 0)"/>
       <use xlink:href="#Menlo-Regular-30" transform="translate(180.615234 0)"/>
       <use xlink:href="#Menlo-Regular-33" transform="translate(240.820312 0)"/>
      </g>
     </g>
    </g>
    <g id="ytick_3">
     <g id="line2d_9">
      <g>
       <use xlink:href="#md502ea0150" x="51.497656" y="206.753732" style="fill: #1a1a1a; stroke: #1a1a1a"/>
      </g>
     </g>
     <g id="text_10">
      <!-- 0.004 -->
      <g style="fill: #1a1a1a" transform="translate(20.90625 210.185685) scale(0.09 -0.09)">
       <use xlink:href="#Menlo-Regular-30"/>
       <use xlink:href="#Menlo-Regular-2e" transform="translate(60.205078 0)"/>
       <use xlink:href="#Menlo-Regular-30" transform="translate(120.410156 0)"/>
       <use xlink:href="#Menlo-Regular-30" transform="translate(180.615234 0)"/>
       <use xlink:href="#Menlo-Regular-34" transform="translate(240.820312 0)"/>
      </g>
     </g>
    </g>
    <g id="ytick_4">
     <g id="line2d_10">
      <g>
       <use xlink:href="#md502ea0150" x="51.497656" y="169.831377" style="fill: #1a1a1a; stroke: #1a1a1a"/>
      </g>
     </g>
     <g id="text_11">
      <!-- 0.005 -->
      <g style="fill: #1a1a1a" transform="translate(20.90625 173.26333) scale(0.09 -0.09)">
       <defs>
        <path id="Menlo-Regular-35" d="M 647 4666 
L 3009 4666 
L 3009 4134 
L 1222 4134 
L 1222 2988 
Q 1356 3038 1492 3061 
Q 1628 3084 1766 3084 
Q 2491 3084 2916 2656 
Q 3341 2228 3341 1497 
Q 3341 759 2895 334 
Q 2450 -91 1678 -91 
Q 1306 -91 998 -41 
Q 691 9 447 109 
L 447 750 
Q 734 594 1025 517 
Q 1316 441 1619 441 
Q 2141 441 2423 716 
Q 2706 991 2706 1497 
Q 2706 1997 2414 2275 
Q 2122 2553 1600 2553 
Q 1347 2553 1106 2495 
Q 866 2438 647 2322 
L 647 4666 
z
" transform="scale(0.015625)"/>
       </defs>
       <use xlink:href="#Menlo-Regular-30"/>
       <use xlink:href="#Menlo-Regular-2e" transform="translate(60.205078 0)"/>
       <use xlink:href="#Menlo-Regular-30" transform="translate(120.410156 0)"/>
       <use xlink:href="#Menlo-Regular-30" transform="translate(180.615234 0)"/>
       <use xlink:href="#Menlo-Regular-35" transform="translate(240.820312 0)"/>
      </g>
     </g>
    </g>
    <g id="ytick_5">
     <g id="line2d_11">
      <g>
       <use xlink:href="#md502ea0150" x="51.497656" y="132.909022" style="fill: #1a1a1a; stroke: #1a1a1a"/>
      </g>
     </g>
     <g id="text_12">
      <!-- 0.006 -->
      <g style="fill: #1a1a1a" transform="translate(20.90625 136.340975) scale(0.09 -0.09)">
       <use xlink:href="#Menlo-Regular-30"/>
       <use xlink:href="#Menlo-Regular-2e" transform="translate(60.205078 0)"/>
       <use xlink:href="#Menlo-Regular-30" transform="translate(120.410156 0)"/>
       <use xlink:href="#Menlo-Regular-30" transform="translate(180.615234 0)"/>
       <use xlink:href="#Menlo-Regular-36" transform="translate(240.820312 0)"/>
      </g>
     </g>
    </g>
    <g id="ytick_6">
     <g id="line2d_12">
      <g>
       <use xlink:href="#md502ea0150" x="51.497656" y="95.986667" style="fill: #1a1a1a; stroke: #1a1a1a"/>
      </g>
     </g>
     <g id="text_13">
      <!-- 0.007 -->
      <g style="fill: #1a1a1a" transform="translate(20.90625 99.41862) scale(0.09 -0.09)">
       <defs>
        <path id="Menlo-Regular-37" d="M 434 4666 
L 3372 4666 
L 3372 4397 
L 1703 0 
L 1044 0 
L 2669 4134 
L 434 4134 
L 434 4666 
z
" transform="scale(0.015625)"/>
       </defs>
       <use xlink:href="#Menlo-Regular-30"/>
       <use xlink:href="#Menlo-Regular-2e" transform="translate(60.205078 0)"/>
       <use xlink:href="#Menlo-Regular-30" transform="translate(120.410156 0)"/>
       <use xlink:href="#Menlo-Regular-30" transform="translate(180.615234 0)"/>
       <use xlink:href="#Menlo-Regular-37" transform="translate(240.820312 0)"/>
      </g>
     </g>
    </g>
    <g id="ytick_7">
     <g id="line2d_13">
      <g>
       <use xlink:href="#md502ea0150" x="51.497656" y="59.064311" style="fill: #1a1a1a; stroke: #1a1a1a"/>
      </g>
     </g>
     <g id="text_14">
      <!-- 0.008 -->
      <g style="fill: #1a1a1a" transform="translate(20.90625 62.496264) scale(0.09 -0.09)">
       <use xlink:href="#Menlo-Regular-30"/>
       <use xlink:href="#Menlo-Regular-2e" transform="translate(60.205078 0)"/>
       <use xlink:href="#Menlo-Regular-30" transform="translate(120.410156 0)"/>
       <use xlink:href="#Menlo-Regular-30" transform="translate(180.615234 0)"/>
       <use xlink:href="#Menlo-Regular-38" transform="translate(240.820312 0)"/>
      </g>
     </g>
    </g>
    <g id="ytick_8">
     <g id="line2d_14">
      <g>
       <use xlink:href="#md502ea0150" x="51.497656" y="22.141956" style="fill: #1a1a1a; stroke: #1a1a1a"/>
      </g>
     </g>
     <g id="text_15">
      <!-- 0.009 -->
      <g style="fill: #1a1a1a" transform="translate(20.90625 25.573909) scale(0.09 -0.09)">
       <defs>
        <path id="Menlo-Regular-39" d="M 1863 2069 
Q 2266 2069 2495 2359 
Q 2725 2650 2725 3163 
Q 2725 3675 2495 3965 
Q 2266 4256 1863 4256 
Q 1444 4256 1231 3979 
Q 1019 3703 1019 3163 
Q 1019 2619 1230 2344 
Q 1441 2069 1863 2069 
z
M 738 97 
L 738 678 
Q 934 563 1156 502 
Q 1378 441 1619 441 
Q 2219 441 2526 892 
Q 2834 1344 2834 2222 
Q 2688 1909 2422 1742 
Q 2156 1575 1813 1575 
Q 1138 1575 767 1990 
Q 397 2406 397 3169 
Q 397 3922 776 4336 
Q 1156 4750 1850 4750 
Q 2663 4750 3041 4165 
Q 3419 3581 3419 2328 
Q 3419 1150 2964 529 
Q 2509 -91 1644 -91 
Q 1416 -91 1184 -42 
Q 953 6 738 97 
z
" transform="scale(0.015625)"/>
       </defs>
       <use xlink:href="#Menlo-Regular-30"/>
       <use xlink:href="#Menlo-Regular-2e" transform="translate(60.205078 0)"/>
       <use xlink:href="#Menlo-Regular-30" transform="translate(120.410156 0)"/>
       <use xlink:href="#Menlo-Regular-30" transform="translate(180.615234 0)"/>
       <use xlink:href="#Menlo-Regular-39" transform="translate(240.820312 0)"/>
      </g>
     </g>
    </g>
    <g id="text_16">
     <!-- $E$ rate -->
     <g style="fill: #1a1a1a" transform="translate(14.826562 163) rotate(-90) scale(0.1 -0.1)">
      <defs>
       <path id="DejaVuSans-Oblique-45" d="M 1081 4666 
L 4031 4666 
L 3928 4134 
L 1606 4134 
L 1338 2753 
L 3566 2753 
L 3463 2222 
L 1234 2222 
L 909 531 
L 3284 531 
L 3181 0 
L 172 0 
L 1081 4666 
z
" transform="scale(0.015625)"/>
       <path id="Menlo-Regular-72" d="M 3609 2778 
Q 3425 2922 3234 2987 
Q 3044 3053 2816 3053 
Q 2278 3053 1993 2715 
Q 1709 2378 1709 1741 
L 1709 0 
L 1131 0 
L 1131 3500 
L 1709 3500 
L 1709 2816 
Q 1853 3188 2151 3386 
Q 2450 3584 2859 3584 
Q 3072 3584 3256 3531 
Q 3441 3478 3609 3366 
L 3609 2778 
z
" transform="scale(0.015625)"/>
       <path id="Menlo-Regular-61" d="M 2194 1759 
L 2003 1759 
Q 1500 1759 1245 1582 
Q 991 1406 991 1056 
Q 991 741 1181 566 
Q 1372 391 1709 391 
Q 2184 391 2456 720 
Q 2728 1050 2731 1631 
L 2731 1759 
L 2194 1759 
z
M 3309 1997 
L 3309 0 
L 2731 0 
L 2731 519 
Q 2547 206 2267 57 
Q 1988 -91 1588 -91 
Q 1053 -91 734 211 
Q 416 513 416 1019 
Q 416 1603 808 1906 
Q 1200 2209 1959 2209 
L 2731 2209 
L 2731 2300 
Q 2728 2719 2518 2908 
Q 2309 3097 1850 3097 
Q 1556 3097 1256 3012 
Q 956 2928 672 2766 
L 672 3341 
Q 991 3463 1283 3523 
Q 1575 3584 1850 3584 
Q 2284 3584 2592 3456 
Q 2900 3328 3091 3072 
Q 3209 2916 3259 2686 
Q 3309 2456 3309 1997 
z
" transform="scale(0.015625)"/>
      </defs>
      <use xlink:href="#DejaVuSans-Oblique-45" transform="translate(0 0.09375)"/>
      <use xlink:href="#Menlo-Regular-20" transform="translate(63.183594 0.09375)"/>
      <use xlink:href="#Menlo-Regular-72" transform="translate(123.388672 0.09375)"/>
      <use xlink:href="#Menlo-Regular-61" transform="translate(183.59375 0.09375)"/>
      <use xlink:href="#Menlo-Regular-74" transform="translate(243.798828 0.09375)"/>
      <use xlink:href="#Menlo-Regular-65" transform="translate(304.003906 0.09375)"/>
     </g>
    </g>
   </g>
   <g id="line2d_15">
    <path d="M 72.582202 244.285983 
L 74.270091 236.699363 
L 76.239294 226.761551 
L 78.489813 214.100679 
L 81.021646 198.389355 
L 83.834794 179.380885 
L 87.210572 154.849774 
L 91.430294 122.399441 
L 98.463165 68.043561 
L 100.713683 52.260985 
L 102.401572 41.655416 
L 103.808146 33.958571 
L 104.933406 28.753671 
L 106.058665 24.572544 
L 106.902609 22.212297 
L 107.746554 20.596795 
L 108.309183 19.965843 
L 108.871813 19.709946 
L 109.434443 19.838784 
L 109.997072 20.353964 
L 110.559702 21.246017 
L 111.403646 23.235324 
L 112.247591 25.87305 
L 113.654165 31.157421 
L 120.96835 59.966714 
L 125.188072 75.458844 
L 129.407795 90.135948 
L 133.627517 104.040903 
L 137.847239 117.214332 
L 142.066961 129.694718 
L 146.286683 141.518524 
L 150.506406 152.72029 
L 154.726128 163.332741 
L 159.227165 174.038035 
L 163.728202 184.143658 
L 168.229239 193.683201 
L 172.730276 202.688375 
L 177.231313 211.189113 
L 181.73235 219.213671 
L 186.233387 226.788723 
L 190.734424 233.939449 
L 195.235461 240.689617 
L 199.736499 247.061667 
L 204.51885 253.441285 
L 209.301202 259.437219 
L 213.23961 264.035997 
L 215.771443 266.668842 
L 217.459332 268.13321 
L 218.865906 269.068721 
L 219.991165 269.566281 
L 221.116425 269.788489 
L 221.960369 269.746149 
L 222.804313 269.504302 
L 223.648258 269.046702 
L 224.492202 268.359446 
L 225.336147 267.431177 
L 226.461406 265.80385 
L 227.586665 263.719125 
L 228.711925 261.170697 
L 230.118499 257.333818 
L 231.525073 252.784798 
L 233.212962 246.417088 
L 234.900851 239.106294 
L 236.870054 229.465539 
L 238.839258 218.727166 
L 241.089776 205.249529 
L 243.62161 188.745024 
L 246.716073 166.968519 
L 250.373165 139.51653 
L 261.344443 55.728907 
L 263.313647 43.040444 
L 264.720221 35.149796 
L 266.126795 28.552601 
L 267.252054 24.4191 
L 268.095999 22.099446 
L 268.939943 20.528479 
L 269.502573 19.92909 
L 270.065202 19.705833 
L 270.627832 19.867804 
L 271.190462 20.415783 
L 271.753091 21.339215 
L 272.597036 23.370077 
L 273.44098 26.039054 
L 274.847554 31.348879 
L 281.880425 59.08601 
L 286.100147 74.624474 
L 290.319869 89.345473 
L 294.539591 103.292014 
L 298.759314 116.504841 
L 302.979036 129.022553 
L 307.198758 140.881721 
L 311.41848 152.116988 
L 315.638203 162.761179 
L 320.13924 173.498489 
L 324.640277 183.634335 
L 329.141314 193.202409 
L 333.642351 202.234515 
L 338.143388 210.760676 
L 342.644425 218.809234 
L 347.145462 226.406941 
L 351.646499 233.579053 
L 356.147536 240.34941 
L 360.648573 246.740516 
L 365.430925 253.139225 
L 370.213277 259.153925 
L 374.151684 263.776536 
L 376.683518 266.444385 
L 378.371407 267.950298 
L 379.777981 268.935643 
L 380.90324 269.4842 
L 382.028499 269.767408 
L 382.872444 269.777051 
L 383.716388 269.59204 
L 384.560333 269.195544 
L 385.404277 268.572985 
L 386.248221 267.712289 
L 387.373481 266.178287 
L 388.49874 264.18909 
L 389.623999 261.736934 
L 391.030573 258.019558 
L 392.437147 253.587318 
L 393.843722 248.460509 
L 395.53161 241.431149 
L 397.500814 232.094585 
L 399.470018 221.632634 
L 401.720536 208.436082 
L 404.25237 192.203379 
L 407.065518 172.716227 
L 410.441296 147.754432 
L 415.504962 108.387851 
L 420.568629 69.402026 
L 423.100462 51.622842 
L 424.788351 41.091805 
L 426.194925 33.477308 
L 427.320185 28.353417 
L 428.445444 24.267861 
L 429.289388 21.989033 
L 429.852018 20.88378 
L 430.414648 20.132597 
L 430.977277 19.751977 
L 431.539907 19.753662 
L 432.102536 20.142232 
L 432.665166 20.912198 
L 433.227796 22.045018 
L 434.07174 24.346515 
L 435.196999 28.253862 
L 437.728833 38.358066 
L 442.22987 56.060315 
L 446.449592 71.757957 
L 450.669314 86.629762 
L 454.889037 100.719174 
L 459.108759 114.067355 
L 463.328481 126.713302 
L 467.548203 138.693956 
L 471.767926 150.04432 
L 475.987648 160.797552 
L 480.488685 171.644857 
L 484.989722 181.884537 
L 489.490759 191.550628 
L 493.991796 200.675261 
L 494.273111 201.228274 
L 494.273111 201.228274 
" clip-path="url(#p59e2ad4d43)" style="fill: none; stroke: #1a1a1a; stroke-width: 1.3; stroke-linejoin: miter"/>
   </g>
   <g id="patch_3">
    <path d="M 51.497656 282.3 
L 51.497656 7.2 
" style="fill: none; stroke: #1a1a1a; stroke-width: 1.4; stroke-linejoin: miter; stroke-linecap: square"/>
   </g>
   <g id="patch_4">
    <path d="M 515.357656 282.3 
L 515.357656 7.2 
" style="fill: none; stroke: #1a1a1a; stroke-width: 1.4; stroke-linejoin: miter; stroke-linecap: square"/>
   </g>
   <g id="patch_5">
    <path d="M 51.497656 282.3 
L 515.357656 282.3 
" style="fill: none; stroke: #1a1a1a; stroke-width: 1.4; stroke-linejoin: miter; stroke-linecap: square"/>
   </g>
   <g id="patch_6">
    <path d="M 51.497656 7.2 
L 515.357656 7.2 
" style="fill: none; stroke: #1a1a1a; stroke-width: 1.4; stroke-linejoin: miter; stroke-linecap: square"/>
   </g>
  </g>
  <g id="axes_2">
   <g id="matplotlib.axis_3">
    <g id="ytick_9">
     <g id="line2d_16">
      <defs>
       <path id="med4e05a7b5" d="M 0 0 
L -4 0 
" style="stroke: #1a1a1a"/>
      </defs>
      <g>
       <use xlink:href="#med4e05a7b5" x="515.357656" y="273.459547" style="fill: #1a1a1a; stroke: #1a1a1a"/>
      </g>
     </g>
     <g id="text_17">
      <!-- 0.000 -->
      <g style="fill: #1a1a1a" transform="translate(518.857656 276.8915) scale(0.09 -0.09)">
       <use xlink:href="#Menlo-Regular-30"/>
       <use xlink:href="#Menlo-Regular-2e" transform="translate(60.205078 0)"/>
       <use xlink:href="#Menlo-Regular-30" transform="translate(120.410156 0)"/>
       <use xlink:href="#Menlo-Regular-30" transform="translate(180.615234 0)"/>
       <use xlink:href="#Menlo-Regular-30" transform="translate(240.820312 0)"/>
      </g>
     </g>
    </g>
    <g id="ytick_10">
     <g id="line2d_17">
      <g>
       <use xlink:href="#med4e05a7b5" x="515.357656" y="214.0647" style="fill: #1a1a1a; stroke: #1a1a1a"/>
      </g>
     </g>
     <g id="text_18">
      <!-- 0.005 -->
      <g style="fill: #1a1a1a" transform="translate(518.857656 217.496654) scale(0.09 -0.09)">
       <use xlink:href="#Menlo-Regular-30"/>
       <use xlink:href="#Menlo-Regular-2e" transform="translate(60.205078 0)"/>
       <use xlink:href="#Menlo-Regular-30" transform="translate(120.410156 0)"/>
       <use xlink:href="#Menlo-Regular-30" transform="translate(180.615234 0)"/>
       <use xlink:href="#Menlo-Regular-35" transform="translate(240.820312 0)"/>
      </g>
     </g>
    </g>
    <g id="ytick_11">
     <g id="line2d_18">
      <g>
       <use xlink:href="#med4e05a7b5" x="515.357656" y="154.669854" style="fill: #1a1a1a; stroke: #1a1a1a"/>
      </g>
     </g>
     <g id="text_19">
      <!-- 0.010 -->
      <g style="fill: #1a1a1a" transform="translate(518.857656 158.101807) scale(0.09 -0.09)">
       <use xlink:href="#Menlo-Regular-30"/>
       <use xlink:href="#Menlo-Regular-2e" transform="translate(60.205078 0)"/>
       <use xlink:href="#Menlo-Regular-30" transform="translate(120.410156 0)"/>
       <use xlink:href="#Menlo-Regular-31" transform="translate(180.615234 0)"/>
       <use xlink:href="#Menlo-Regular-30" transform="translate(240.820312 0)"/>
      </g>
     </g>
    </g>
    <g id="ytick_12">
     <g id="line2d_19">
      <g>
       <use xlink:href="#med4e05a7b5" x="515.357656" y="95.275008" style="fill: #1a1a1a; stroke: #1a1a1a"/>
      </g>
     </g>
     <g id="text_20">
      <!-- 0.015 -->
      <g style="fill: #1a1a1a" transform="translate(518.857656 98.706961) scale(0.09 -0.09)">
       <use xlink:href="#Menlo-Regular-30"/>
       <use xlink:href="#Menlo-Regular-2e" transform="translate(60.205078 0)"/>
       <use xlink:href="#Menlo-Regular-30" transform="translate(120.410156 0)"/>
       <use xlink:href="#Menlo-Regular-31" transform="translate(180.615234 0)"/>
       <use xlink:href="#Menlo-Regular-35" transform="translate(240.820312 0)"/>
      </g>
     </g>
    </g>
    <g id="ytick_13">
     <g id="line2d_20">
      <g>
       <use xlink:href="#med4e05a7b5" x="515.357656" y="35.880162" style="fill: #1a1a1a; stroke: #1a1a1a"/>
      </g>
     </g>
     <g id="text_21">
      <!-- 0.020 -->
      <g style="fill: #1a1a1a" transform="translate(518.857656 39.312115) scale(0.09 -0.09)">
       <use xlink:href="#Menlo-Regular-30"/>
       <use xlink:href="#Menlo-Regular-2e" transform="translate(60.205078 0)"/>
       <use xlink:href="#Menlo-Regular-30" transform="translate(120.410156 0)"/>
       <use xlink:href="#Menlo-Regular-32" transform="translate(180.615234 0)"/>
       <use xlink:href="#Menlo-Regular-30" transform="translate(240.820312 0)"/>
      </g>
     </g>
    </g>
    <g id="text_22">
     <!-- $I$ rate -->
     <g style="fill: #c8102e" transform="translate(557.575625 161.3) rotate(-90) scale(0.1 -0.1)">
      <defs>
       <path id="DejaVuSans-Oblique-49" d="M 1081 4666 
L 1716 4666 
L 806 0 
L 172 0 
L 1081 4666 
z
" transform="scale(0.015625)"/>
      </defs>
      <use xlink:href="#DejaVuSans-Oblique-49" transform="translate(0 0.09375)"/>
      <use xlink:href="#Menlo-Regular-20" transform="translate(29.492188 0.09375)"/>
      <use xlink:href="#Menlo-Regular-72" transform="translate(89.697266 0.09375)"/>
      <use xlink:href="#Menlo-Regular-61" transform="translate(149.902344 0.09375)"/>
      <use xlink:href="#Menlo-Regular-74" transform="translate(210.107422 0.09375)"/>
      <use xlink:href="#Menlo-Regular-65" transform="translate(270.3125 0.09375)"/>
     </g>
    </g>
   </g>
   <g id="line2d_21">
    <path d="M 72.582202 268.49805 
L 76.520609 269.230555 
L 79.896387 269.649963 
L 82.709535 269.794849 
L 84.960054 269.704456 
L 86.929257 269.39208 
L 88.335831 268.974653 
L 89.742405 268.332732 
L 90.867665 267.608142 
L 91.992924 266.6449 
L 93.118183 265.386055 
L 94.243443 263.765115 
L 95.368702 261.706462 
L 96.493961 259.126669 
L 97.61922 255.936879 
L 98.74448 252.046337 
L 99.869739 247.367005 
L 100.994998 241.819055 
L 102.401572 233.564585 
L 103.808146 223.770292 
L 105.21472 212.421547 
L 106.902609 196.851086 
L 108.871813 176.378269 
L 111.684961 144.404121 
L 115.342054 102.95194 
L 117.311257 82.847128 
L 118.999146 67.548854 
L 120.687035 54.296298 
L 122.093609 44.909492 
L 123.500183 37.05837 
L 124.625443 31.878308 
L 125.750702 27.658933 
L 126.875961 24.374107 
L 127.719906 22.503919 
L 128.56385 21.124457 
L 129.407795 20.217928 
L 129.970424 19.86697 
L 130.533054 19.711892 
L 131.095683 19.746649 
L 131.658313 19.965067 
L 132.502257 20.623293 
L 133.346202 21.659081 
L 134.190146 23.050664 
L 135.315406 25.421789 
L 136.440665 28.334931 
L 137.847239 32.660914 
L 139.535128 38.728066 
L 141.504332 46.811285 
L 143.75485 57.082373 
L 146.567998 70.999206 
L 151.35035 95.984094 
L 157.257961 126.591405 
L 160.915054 144.373711 
L 164.009517 158.403372 
L 167.10398 171.381563 
L 169.917128 182.225357 
L 172.730276 192.155349 
L 175.26211 200.326603 
L 177.793943 207.79873 
L 180.325776 214.604959 
L 182.85761 220.783483 
L 185.389443 226.375381 
L 187.921276 231.422995 
L 190.45311 235.968697 
L 192.984943 240.053978 
L 195.516776 243.718791 
L 198.04861 247.001108 
L 200.580443 249.936643 
L 203.112276 252.558694 
L 205.925424 255.141828 
L 208.738573 257.414672 
L 211.551721 259.412311 
L 214.646184 261.329449 
L 217.740647 262.989032 
L 221.116425 264.543619 
L 224.773517 265.965983 
L 228.43061 267.151019 
L 232.369017 268.192031 
L 236.307425 269.004725 
L 239.964517 269.540589 
L 243.05898 269.777919 
L 245.590814 269.746171 
L 247.560017 269.500347 
L 249.247906 269.057647 
L 250.65448 268.457576 
L 251.779739 267.776181 
L 252.904999 266.866753 
L 254.030258 265.674309 
L 255.155517 264.134322 
L 256.280777 262.172992 
L 257.406036 259.70835 
L 258.531295 256.652413 
L 259.656554 252.914475 
L 260.781814 248.405506 
L 261.907073 243.043495 
L 263.313647 235.037955 
L 264.720221 225.501927 
L 266.126795 214.408593 
L 267.814684 199.120714 
L 269.783888 178.910798 
L 272.597036 147.112124 
L 276.535443 102.435522 
L 278.504647 82.384299 
L 280.192536 67.14165 
L 281.880425 53.949782 
L 283.286999 44.615337 
L 284.693573 36.816798 
L 285.818832 31.678262 
L 286.944091 27.499465 
L 288.069351 24.253926 
L 288.913295 22.412187 
L 289.75724 21.060196 
L 290.601184 20.180084 
L 291.163814 19.846121 
L 291.726443 19.707526 
L 292.289073 19.758243 
L 292.851703 19.992086 
L 293.695647 20.672433 
L 294.539591 21.729105 
L 295.383536 23.140327 
L 296.508795 25.535698 
L 297.634054 28.470886 
L 299.040629 32.821391 
L 300.728517 38.91366 
L 302.697721 47.020551 
L 304.94824 57.31184 
L 307.761388 71.244798 
L 312.825055 97.72226 
L 318.451351 126.832843 
L 322.108443 144.599583 
L 325.202906 158.613543 
L 328.297369 171.574852 
L 331.110518 182.402963 
L 333.923666 192.317428 
L 336.455499 200.475119 
L 338.987332 207.934254 
L 341.519166 214.728178 
L 344.050999 220.895157 
L 346.582832 226.476308 
L 349.114666 231.513984 
L 351.646499 236.050549 
L 354.178332 240.127467 
L 356.710166 243.784658 
L 359.241999 247.060055 
L 361.773832 249.989326 
L 364.305666 252.605723 
L 367.118814 255.183231 
L 369.931962 257.45108 
L 372.74511 259.444294 
L 375.839573 261.357152 
L 378.934036 263.012996 
L 382.309814 264.564031 
L 385.966907 265.983056 
L 389.623999 267.165168 
L 393.562407 268.203335 
L 397.500814 269.013228 
L 401.157907 269.546009 
L 404.25237 269.779544 
L 406.784203 269.742859 
L 408.753407 269.491098 
L 410.441296 269.040997 
L 411.84787 268.432449 
L 412.973129 267.742298 
L 414.098388 266.821955 
L 415.223648 265.616029 
L 416.348907 264.05959 
L 417.474166 262.078456 
L 418.599425 259.590348 
L 419.724685 256.507093 
L 420.849944 252.737959 
L 421.975203 248.1941 
L 423.100462 242.793936 
L 424.507036 234.737196 
L 425.913611 225.147893 
L 427.320185 214.001692 
L 429.008073 198.655041 
L 430.977277 178.38996 
L 433.790425 146.553211 
L 437.728833 101.920219 
L 439.698037 81.922956 
L 441.385925 66.736123 
L 443.073814 53.605041 
L 444.480388 44.322984 
L 445.886962 36.577017 
L 447.012222 31.479974 
L 448.137481 27.341707 
L 449.26274 24.135392 
L 450.106685 22.322049 
L 450.950629 20.99747 
L 451.794574 20.143714 
L 452.357203 19.826702 
L 452.919833 19.704545 
L 453.482462 19.771177 
L 454.045092 20.0204 
L 454.889037 20.722798 
L 455.732981 21.800284 
L 456.576925 23.231073 
L 457.702185 25.650595 
L 458.827444 28.607736 
L 460.234018 32.982648 
L 461.921907 39.099903 
L 463.891111 47.230323 
L 466.141629 57.541665 
L 469.236092 72.930525 
L 474.862388 102.421404 
L 479.926055 128.480248 
L 483.583148 146.139017 
L 486.677611 160.044861 
L 489.490759 171.767874 
L 492.303907 182.5803 
L 494.273111 189.604659 
L 494.273111 189.604659 
" clip-path="url(#p59e2ad4d43)" style="fill: none; stroke: #c8102e; stroke-width: 1.3; stroke-linejoin: miter"/>
   </g>
   <g id="patch_7">
    <path d="M 51.497656 282.3 
L 51.497656 7.2 
" style="fill: none; stroke: #1a1a1a; stroke-width: 1.4; stroke-linejoin: miter; stroke-linecap: square"/>
   </g>
   <g id="patch_8">
    <path d="M 515.357656 282.3 
L 515.357656 7.2 
" style="fill: none; stroke: #1a1a1a; stroke-width: 1.4; stroke-linejoin: miter; stroke-linecap: square"/>
   </g>
   <g id="patch_9">
    <path d="M 51.497656 282.3 
L 515.357656 282.3 
" style="fill: none; stroke: #1a1a1a; stroke-width: 1.4; stroke-linejoin: miter; stroke-linecap: square"/>
   </g>
   <g id="patch_10">
    <path d="M 51.497656 7.2 
L 515.357656 7.2 
" style="fill: none; stroke: #1a1a1a; stroke-width: 1.4; stroke-linejoin: miter; stroke-linecap: square"/>
   </g>
  </g>
  <g id="text_23">
   <!-- exp033-numerics -->
   <g style="fill: #888888" transform="translate(496.303906 316.57625) scale(0.08 -0.08)">
    <defs>
     <path id="Menlo-Regular-78" d="M 3494 3500 
L 2241 1825 
L 3616 0 
L 2950 0 
L 1925 1403 
L 903 0 
L 238 0 
L 1613 1825 
L 359 3500 
L 997 3500 
L 1925 2234 
L 2847 3500 
L 3494 3500 
z
" transform="scale(0.015625)"/>
     <path id="Menlo-Regular-70" d="M 1172 441 
L 1172 -1331 
L 594 -1331 
L 594 3500 
L 1172 3500 
L 1172 3053 
Q 1316 3313 1555 3448 
Q 1794 3584 2106 3584 
Q 2741 3584 3102 3093 
Q 3463 2603 3463 1734 
Q 3463 881 3100 395 
Q 2738 -91 2106 -91 
Q 1788 -91 1548 45 
Q 1309 181 1172 441 
z
M 2859 1747 
Q 2859 2416 2648 2756 
Q 2438 3097 2022 3097 
Q 1603 3097 1387 2755 
Q 1172 2413 1172 1747 
Q 1172 1084 1387 740 
Q 1603 397 2022 397 
Q 2438 397 2648 737 
Q 2859 1078 2859 1747 
z
" transform="scale(0.015625)"/>
     <path id="Menlo-Regular-2d" d="M 319 2263 
L 3631 2263 
L 3631 1734 
L 319 1734 
L 319 2263 
z
" transform="scale(0.015625)"/>
     <path id="Menlo-Regular-6e" d="M 3284 2169 
L 3284 0 
L 2706 0 
L 2706 2169 
Q 2706 2641 2540 2862 
Q 2375 3084 2022 3084 
Q 1619 3084 1401 2798 
Q 1184 2513 1184 1978 
L 1184 0 
L 609 0 
L 609 3500 
L 1184 3500 
L 1184 2975 
Q 1338 3275 1600 3429 
Q 1863 3584 2222 3584 
Q 2756 3584 3020 3232 
Q 3284 2881 3284 2169 
z
" transform="scale(0.015625)"/>
     <path id="Menlo-Regular-75" d="M 609 1325 
L 609 3494 
L 1184 3494 
L 1184 1325 
Q 1184 853 1351 631 
Q 1519 409 1869 409 
Q 2275 409 2490 695 
Q 2706 981 2706 1516 
L 2706 3494 
L 3284 3494 
L 3284 0 
L 2706 0 
L 2706 525 
Q 2553 222 2289 65 
Q 2025 -91 1672 -91 
Q 1134 -91 871 261 
Q 609 613 609 1325 
z
" transform="scale(0.015625)"/>
     <path id="Menlo-Regular-63" d="M 3316 178 
Q 3084 44 2839 -23 
Q 2594 -91 2338 -91 
Q 1525 -91 1067 396 
Q 609 884 609 1747 
Q 609 2609 1067 3096 
Q 1525 3584 2338 3584 
Q 2591 3584 2831 3518 
Q 3072 3453 3316 3316 
L 3316 2713 
Q 3088 2916 2858 3006 
Q 2628 3097 2338 3097 
Q 1797 3097 1506 2747 
Q 1216 2397 1216 1747 
Q 1216 1100 1508 748 
Q 1800 397 2338 397 
Q 2638 397 2875 489 
Q 3113 581 3316 775 
L 3316 178 
z
" transform="scale(0.015625)"/>
    </defs>
    <use xlink:href="#Menlo-Regular-65"/>
    <use xlink:href="#Menlo-Regular-78" transform="translate(60.205078 0)"/>
    <use xlink:href="#Menlo-Regular-70" transform="translate(120.410156 0)"/>
    <use xlink:href="#Menlo-Regular-30" transform="translate(180.615234 0)"/>
    <use xlink:href="#Menlo-Regular-33" transform="translate(240.820312 0)"/>
    <use xlink:href="#Menlo-Regular-33" transform="translate(301.025391 0)"/>
    <use xlink:href="#Menlo-Regular-2d" transform="translate(361.230469 0)"/>
    <use xlink:href="#Menlo-Regular-6e" transform="translate(421.435547 0)"/>
    <use xlink:href="#Menlo-Regular-75" transform="translate(481.640625 0)"/>
    <use xlink:href="#Menlo-Regular-6d" transform="translate(541.845703 0)"/>
    <use xlink:href="#Menlo-Regular-65" transform="translate(602.050781 0)"/>
    <use xlink:href="#Menlo-Regular-72" transform="translate(662.255859 0)"/>
    <use xlink:href="#Menlo-Regular-69" transform="translate(722.460938 0)"/>
    <use xlink:href="#Menlo-Regular-63" transform="translate(782.666016 0)"/>
    <use xlink:href="#Menlo-Regular-73" transform="translate(842.871094 0)"/>
   </g>
  </g>
 </g>
 <defs>
  <clipPath id="p59e2ad4d43">
   <rect x="51.497656" y="7.2" width="463.86" height="275.1"/>
  </clipPath>
 </defs>
</svg>
