<?xml version="1.0" encoding="utf-8" standalone="no"?>
<!DOCTYPE svg PUBLIC "-//W3C//DTD SVG 1.1//EN"
  "http://www.w3.org/Graphics/SVG/1.1/DTD/svg11.dtd">
<svg xmlns:xlink="http://www.w3.org/1999/xlink" width="575.397406pt" height="468.72pt" viewBox="0 0 575.397406 468.72" xmlns="http://www.w3.org/2000/svg" version="1.1">
 <metadata>
  <rdf:RDF xmlns:dc="http://purl.org/dc/elements/1.1/" xmlns:cc="http://creativecommons.org/ns#" xmlns:rdf="http://www.w3.org/1999/02/22-rdf-syntax-ns#">
   <cc:Work>
    <dc:type rdf:resource="http://purl.org/dc/dcmitype/StillImage"/>
    <dc:date>2026-07-06T17:13:24.239758</dc:date>
    <dc:format>image/svg+xml</dc:format>
    <dc:creator>
     <cc:Agent>
      <dc:title>Matplotlib v3.10.8, https://matplotlib.org/</dc:title>
     </cc:Agent>
    </dc:creator>
   </cc:Work>
  </rdf:RDF>
 </metadata>
 <defs>
  <style type="text/css">*{stroke-linejoin: round; stroke-linecap: butt}</style>
 </defs>
 <g id="figure_1">
  <g id="patch_1">
   <path d="M 0 468.72 
L 575.397406 468.72 
L 575.397406 0 
L 0 0 
z
" style="fill: #ffffff"/>
  </g>
  <g id="axes_1">
   <g id="patch_2">
    <path d="M 53.691406 99.873409 
L 559.737406 99.873409 
L 559.737406 7.2 
L 53.691406 7.2 
z
" style="fill: #ffffff"/>
   </g>
   <g id="matplotlib.axis_1">
    <g id="xtick_1">
     <g id="line2d_1">
      <defs>
       <path id="m2758400517" d="M 0 0 
L 0 -4 
" style="stroke: #1a1a1a"/>
      </defs>
      <g>
       <use xlink:href="#m2758400517" x="76.693497" y="99.873409" style="fill: #1a1a1a; stroke: #1a1a1a"/>
      </g>
     </g>
    </g>
    <g id="xtick_2">
     <g id="line2d_2">
      <g>
       <use xlink:href="#m2758400517" x="161.874708" y="99.873409" style="fill: #1a1a1a; stroke: #1a1a1a"/>
      </g>
     </g>
    </g>
    <g id="xtick_3">
     <g id="line2d_3">
      <g>
       <use xlink:href="#m2758400517" x="247.055919" y="99.873409" style="fill: #1a1a1a; stroke: #1a1a1a"/>
      </g>
     </g>
    </g>
    <g id="xtick_4">
     <g id="line2d_4">
      <g>
       <use xlink:href="#m2758400517" x="332.23713" y="99.873409" style="fill: #1a1a1a; stroke: #1a1a1a"/>
      </g>
     </g>
    </g>
    <g id="xtick_5">
     <g id="line2d_5">
      <g>
       <use xlink:href="#m2758400517" x="417.418341" y="99.873409" style="fill: #1a1a1a; stroke: #1a1a1a"/>
      </g>
     </g>
    </g>
    <g id="xtick_6">
     <g id="line2d_6">
      <g>
       <use xlink:href="#m2758400517" x="502.599552" y="99.873409" style="fill: #1a1a1a; stroke: #1a1a1a"/>
      </g>
     </g>
    </g>
   </g>
   <g id="matplotlib.axis_2">
    <g id="ytick_1">
     <g id="line2d_7">
      <defs>
       <path id="mcb21234c48" d="M 0 0 
L 4 0 
" style="stroke: #1a1a1a"/>
      </defs>
      <g>
       <use xlink:href="#mcb21234c48" x="53.691406" y="99.300203" style="fill: #1a1a1a; stroke: #1a1a1a"/>
      </g>
     </g>
     <g id="text_1">
      <!-- 0.002 -->
      <g style="fill: #1a1a1a" transform="translate(23.1 102.732156) scale(0.09 -0.09)">
       <defs>
        <path id="Menlo-Regular-30" d="M 1925 4734 
Q 2672 4734 3055 4125 
Q 3438 3516 3438 2322 
Q 3438 1128 3055 518 
Q 2672 -91 1925 -91 
Q 1178 -91 797 518 
Q 416 1128 416 2322 
Q 416 3516 797 4125 
Q 1178 4734 1925 4734 
z
M 1925 409 
Q 2369 409 2586 881 
Q 2803 1353 2803 2322 
Q 2803 2838 2741 3253 
L 1253 925 
Q 1488 409 1925 409 
z
M 1925 4234 
Q 1484 4234 1267 3762 
Q 1050 3291 1050 2322 
Q 1050 1881 1109 1497 
L 2566 3819 
Q 2328 4234 1925 4234 
z
" transform="scale(0.015625)"/>
        <path id="Menlo-Regular-2e" d="M 1216 1263 
L 2316 1263 
L 2316 0 
L 1216 0 
L 1216 1263 
z
" transform="scale(0.015625)"/>
        <path id="Menlo-Regular-32" d="M 1166 531 
L 3309 531 
L 3309 0 
L 475 0 
L 475 531 
Q 1059 1147 1496 1619 
Q 1934 2091 2100 2284 
Q 2413 2666 2522 2902 
Q 2631 3138 2631 3384 
Q 2631 3775 2401 3997 
Q 2172 4219 1772 4219 
Q 1488 4219 1175 4116 
Q 863 4013 513 3803 
L 513 4441 
Q 834 4594 1145 4672 
Q 1456 4750 1759 4750 
Q 2444 4750 2861 4386 
Q 3278 4022 3278 3431 
Q 3278 3131 3139 2831 
Q 3000 2531 2688 2169 
Q 2513 1966 2180 1606 
Q 1847 1247 1166 531 
z
" transform="scale(0.015625)"/>
       </defs>
       <use xlink:href="#Menlo-Regular-30"/>
       <use xlink:href="#Menlo-Regular-2e" transform="translate(60.205078 0)"/>
       <use xlink:href="#Menlo-Regular-30" transform="translate(120.410156 0)"/>
       <use xlink:href="#Menlo-Regular-30" transform="translate(180.615234 0)"/>
       <use xlink:href="#Menlo-Regular-32" transform="translate(240.820312 0)"/>
      </g>
     </g>
    </g>
    <g id="ytick_2">
     <g id="line2d_8">
      <g>
       <use xlink:href="#mcb21234c48" x="53.691406" y="74.424008" style="fill: #1a1a1a; stroke: #1a1a1a"/>
      </g>
     </g>
     <g id="text_2">
      <!-- 0.004 -->
      <g style="fill: #1a1a1a" transform="translate(23.1 77.855961) scale(0.09 -0.09)">
       <defs>
        <path id="Menlo-Regular-34" d="M 2297 4091 
L 825 1625 
L 2297 1625 
L 2297 4091 
z
M 2194 4666 
L 2925 4666 
L 2925 1625 
L 3547 1625 
L 3547 1113 
L 2925 1113 
L 2925 0 
L 2297 0 
L 2297 1113 
L 319 1113 
L 319 1709 
L 2194 4666 
z
" transform="scale(0.015625)"/>
       </defs>
       <use xlink:href="#Menlo-Regular-30"/>
       <use xlink:href="#Menlo-Regular-2e" transform="translate(60.205078 0)"/>
       <use xlink:href="#Menlo-Regular-30" transform="translate(120.410156 0)"/>
       <use xlink:href="#Menlo-Regular-30" transform="translate(180.615234 0)"/>
       <use xlink:href="#Menlo-Regular-34" transform="translate(240.820312 0)"/>
      </g>
     </g>
    </g>
    <g id="ytick_3">
     <g id="line2d_9">
      <g>
       <use xlink:href="#mcb21234c48" x="53.691406" y="49.547814" style="fill: #1a1a1a; stroke: #1a1a1a"/>
      </g>
     </g>
     <g id="text_3">
      <!-- 0.006 -->
      <g style="fill: #1a1a1a" transform="translate(23.1 52.979767) scale(0.09 -0.09)">
       <defs>
        <path id="Menlo-Regular-36" d="M 3097 4563 
L 3097 3981 
Q 2900 4097 2678 4158 
Q 2456 4219 2216 4219 
Q 1616 4219 1306 3767 
Q 997 3316 997 2438 
Q 1147 2750 1412 2917 
Q 1678 3084 2022 3084 
Q 2697 3084 3067 2670 
Q 3438 2256 3438 1497 
Q 3438 741 3056 325 
Q 2675 -91 1984 -91 
Q 1172 -91 794 492 
Q 416 1075 416 2328 
Q 416 3509 870 4129 
Q 1325 4750 2188 4750 
Q 2419 4750 2650 4701 
Q 2881 4653 3097 4563 
z
M 1972 2591 
Q 1569 2591 1337 2300 
Q 1106 2009 1106 1497 
Q 1106 984 1337 693 
Q 1569 403 1972 403 
Q 2391 403 2603 679 
Q 2816 956 2816 1497 
Q 2816 2041 2603 2316 
Q 2391 2591 1972 2591 
z
" transform="scale(0.015625)"/>
       </defs>
       <use xlink:href="#Menlo-Regular-30"/>
       <use xlink:href="#Menlo-Regular-2e" transform="translate(60.205078 0)"/>
       <use xlink:href="#Menlo-Regular-30" transform="translate(120.410156 0)"/>
       <use xlink:href="#Menlo-Regular-30" transform="translate(180.615234 0)"/>
       <use xlink:href="#Menlo-Regular-36" transform="translate(240.820312 0)"/>
      </g>
     </g>
    </g>
    <g id="ytick_4">
     <g id="line2d_10">
      <g>
       <use xlink:href="#mcb21234c48" x="53.691406" y="24.67162" style="fill: #1a1a1a; stroke: #1a1a1a"/>
      </g>
     </g>
     <g id="text_4">
      <!-- 0.008 -->
      <g style="fill: #1a1a1a" transform="translate(23.1 28.103573) scale(0.09 -0.09)">
       <defs>
        <path id="Menlo-Regular-38" d="M 1925 2216 
Q 1503 2216 1273 1980 
Q 1044 1744 1044 1313 
Q 1044 881 1276 642 
Q 1509 403 1925 403 
Q 2350 403 2579 639 
Q 2809 875 2809 1313 
Q 2809 1741 2576 1978 
Q 2344 2216 1925 2216 
z
M 1375 2478 
Q 972 2581 745 2862 
Q 519 3144 519 3541 
Q 519 4097 897 4423 
Q 1275 4750 1925 4750 
Q 2578 4750 2956 4423 
Q 3334 4097 3334 3541 
Q 3334 3144 3107 2862 
Q 2881 2581 2478 2478 
Q 2947 2375 3195 2062 
Q 3444 1750 3444 1253 
Q 3444 622 3041 265 
Q 2638 -91 1925 -91 
Q 1213 -91 811 264 
Q 409 619 409 1247 
Q 409 1747 657 2061 
Q 906 2375 1375 2478 
z
M 1147 3481 
Q 1147 3106 1347 2909 
Q 1547 2713 1925 2713 
Q 2306 2713 2506 2909 
Q 2706 3106 2706 3481 
Q 2706 3863 2507 4063 
Q 2309 4263 1925 4263 
Q 1547 4263 1347 4061 
Q 1147 3859 1147 3481 
z
" transform="scale(0.015625)"/>
       </defs>
       <use xlink:href="#Menlo-Regular-30"/>
       <use xlink:href="#Menlo-Regular-2e" transform="translate(60.205078 0)"/>
       <use xlink:href="#Menlo-Regular-30" transform="translate(120.410156 0)"/>
       <use xlink:href="#Menlo-Regular-30" transform="translate(180.615234 0)"/>
       <use xlink:href="#Menlo-Regular-38" transform="translate(240.820312 0)"/>
      </g>
     </g>
    </g>
    <g id="text_5">
     <!-- $E$ rate -->
     <g style="fill: #1a1a1a" transform="translate(17.020312 71.786705) rotate(-90) scale(0.1 -0.1)">
      <defs>
       <path id="DejaVuSans-Oblique-45" d="M 1081 4666 
L 4031 4666 
L 3928 4134 
L 1606 4134 
L 1338 2753 
L 3566 2753 
L 3463 2222 
L 1234 2222 
L 909 531 
L 3284 531 
L 3181 0 
L 172 0 
L 1081 4666 
z
" transform="scale(0.015625)"/>
       <path id="Menlo-Regular-20" transform="scale(0.015625)"/>
       <path id="Menlo-Regular-72" d="M 3609 2778 
Q 3425 2922 3234 2987 
Q 3044 3053 2816 3053 
Q 2278 3053 1993 2715 
Q 1709 2378 1709 1741 
L 1709 0 
L 1131 0 
L 1131 3500 
L 1709 3500 
L 1709 2816 
Q 1853 3188 2151 3386 
Q 2450 3584 2859 3584 
Q 3072 3584 3256 3531 
Q 3441 3478 3609 3366 
L 3609 2778 
z
" transform="scale(0.015625)"/>
       <path id="Menlo-Regular-61" d="M 2194 1759 
L 2003 1759 
Q 1500 1759 1245 1582 
Q 991 1406 991 1056 
Q 991 741 1181 566 
Q 1372 391 1709 391 
Q 2184 391 2456 720 
Q 2728 1050 2731 1631 
L 2731 1759 
L 2194 1759 
z
M 3309 1997 
L 3309 0 
L 2731 0 
L 2731 519 
Q 2547 206 2267 57 
Q 1988 -91 1588 -91 
Q 1053 -91 734 211 
Q 416 513 416 1019 
Q 416 1603 808 1906 
Q 1200 2209 1959 2209 
L 2731 2209 
L 2731 2300 
Q 2728 2719 2518 2908 
Q 2309 3097 1850 3097 
Q 1556 3097 1256 3012 
Q 956 2928 672 2766 
L 672 3341 
Q 991 3463 1283 3523 
Q 1575 3584 1850 3584 
Q 2284 3584 2592 3456 
Q 2900 3328 3091 3072 
Q 3209 2916 3259 2686 
Q 3309 2456 3309 1997 
z
" transform="scale(0.015625)"/>
       <path id="Menlo-Regular-74" d="M 1919 4494 
L 1919 3500 
L 3225 3500 
L 3225 3053 
L 1919 3053 
L 1919 1153 
Q 1919 766 2066 612 
Q 2213 459 2578 459 
L 3225 459 
L 3225 0 
L 2522 0 
Q 1875 0 1609 259 
Q 1344 519 1344 1153 
L 1344 3053 
L 409 3053 
L 409 3500 
L 1344 3500 
L 1344 4494 
L 1919 4494 
z
" transform="scale(0.015625)"/>
       <path id="Menlo-Regular-65" d="M 3500 2038 
L 3500 1756 
L 1009 1756 
L 1009 1738 
Q 984 1022 1282 709 
Q 1581 397 2125 397 
Q 2400 397 2700 484 
Q 3000 572 3341 750 
L 3341 178 
Q 3013 44 2708 -23 
Q 2403 -91 2119 -91 
Q 1303 -91 843 398 
Q 384 888 384 1747 
Q 384 2584 834 3084 
Q 1284 3584 2034 3584 
Q 2703 3584 3089 3131 
Q 3475 2678 3500 2038 
z
M 2925 2206 
Q 2888 2569 2661 2833 
Q 2434 3097 2009 3097 
Q 1594 3097 1325 2822 
Q 1056 2547 1031 2203 
L 2925 2206 
z
" transform="scale(0.015625)"/>
      </defs>
      <use xlink:href="#DejaVuSans-Oblique-45" transform="translate(0 0.09375)"/>
      <use xlink:href="#Menlo-Regular-20" transform="translate(63.183594 0.09375)"/>
      <use xlink:href="#Menlo-Regular-72" transform="translate(123.388672 0.09375)"/>
      <use xlink:href="#Menlo-Regular-61" transform="translate(183.59375 0.09375)"/>
      <use xlink:href="#Menlo-Regular-74" transform="translate(243.798828 0.09375)"/>
      <use xlink:href="#Menlo-Regular-65" transform="translate(304.003906 0.09375)"/>
     </g>
    </g>
   </g>
   <g id="line2d_11">
    <path d="M 76.693497 87.067562 
L 78.841791 84.057019 
L 80.990085 80.655563 
L 83.445278 76.335478 
L 86.207371 70.989101 
L 89.276362 64.536185 
L 92.959152 56.22734 
L 97.869538 44.52125 
L 104.621319 28.393255 
L 107.383412 22.379771 
L 109.531706 18.257131 
L 111.066201 15.746625 
L 112.293798 14.074119 
L 113.521395 12.760877 
L 114.442092 12.046789 
L 115.362789 11.591218 
L 116.283487 11.414247 
L 117.204184 11.528255 
L 118.124882 11.931706 
L 119.045579 12.601847 
L 120.273176 13.823662 
L 122.42147 16.413755 
L 128.252553 23.535621 
L 133.16294 29.173143 
L 138.380225 34.817403 
L 143.597511 40.126331 
L 148.814796 45.119849 
L 154.032082 49.816696 
L 159.556266 54.486038 
L 165.080451 58.862173 
L 170.604635 62.963513 
L 176.435719 67.013637 
L 182.266803 70.795786 
L 188.404786 74.506967 
L 194.542769 77.960136 
L 200.987651 81.327887 
L 207.432533 84.450232 
L 214.184314 87.477515 
L 221.242994 90.396004 
L 228.301675 93.073674 
L 232.905162 94.607714 
L 235.667254 95.302679 
L 237.815548 95.611823 
L 239.656943 95.644372 
L 241.191439 95.468514 
L 242.725935 95.08218 
L 244.26043 94.467683 
L 245.794926 93.614038 
L 247.329422 92.516477 
L 248.863917 91.175521 
L 250.705312 89.251976 
L 252.546707 86.998888 
L 254.695001 83.978376 
L 256.843295 80.567804 
L 259.298488 76.238393 
L 262.060581 70.882926 
L 265.129572 64.421645 
L 268.812362 56.105234 
L 273.722748 44.393929 
L 280.474529 28.273596 
L 283.236622 22.272135 
L 285.078017 18.711914 
L 286.612512 16.132877 
L 288.147008 14.01016 
L 289.374605 12.71359 
L 290.295302 12.013634 
L 291.215999 11.573466 
L 292.136697 11.412861 
L 293.057394 11.54359 
L 293.978092 11.963102 
L 294.898789 12.647241 
L 296.126386 13.88217 
L 298.27468 16.479437 
L 304.105764 23.597659 
L 309.01615 29.231705 
L 314.233435 34.872486 
L 319.450721 40.178142 
L 324.668006 45.168582 
L 329.885292 49.862534 
L 335.409476 54.528997 
L 340.933661 58.902434 
L 346.457846 63.001246 
L 352.288929 67.048873 
L 358.120013 70.828691 
L 364.257996 74.537585 
L 370.395979 77.988625 
L 376.840861 81.3543 
L 383.285743 84.474721 
L 390.037524 87.500137 
L 397.096204 90.416825 
L 404.154885 93.092541 
L 408.758372 94.623133 
L 411.520464 95.313087 
L 413.668758 95.616022 
L 415.510153 95.641587 
L 417.044649 95.458889 
L 418.579145 95.064998 
L 420.11364 94.44246 
L 421.648136 93.580512 
L 423.182632 92.474584 
L 424.717127 91.12536 
L 426.558522 89.192196 
L 428.399917 86.929961 
L 430.548211 83.899499 
L 432.696505 80.479833 
L 435.151698 76.141121 
L 437.913791 70.776592 
L 440.982782 64.306978 
L 444.665572 55.98304 
L 449.575958 44.266589 
L 456.327739 28.154103 
L 459.089832 22.164799 
L 460.931227 18.617191 
L 462.465722 16.052082 
L 463.693319 14.325988 
L 464.920915 12.949679 
L 465.841613 12.182007 
L 466.76231 11.667866 
L 467.683008 11.428406 
L 468.603705 11.478155 
L 469.524403 11.819252 
L 470.4451 12.434165 
L 471.672697 13.602743 
L 473.514091 15.779372 
L 480.265873 24.021158 
L 485.176259 29.631482 
L 490.393544 35.248512 
L 495.61083 40.531827 
L 500.828115 45.501254 
L 506.045401 50.175441 
L 511.569585 54.822256 
L 517.09377 59.177278 
L 522.617955 63.258832 
L 528.449038 67.289416 
L 534.280122 71.053318 
L 536.735315 72.562638 
L 536.735315 72.562638 
" clip-path="url(#p4d75b4dabb)" style="fill: none; stroke: #1a1a1a; stroke-width: 1.4; stroke-linejoin: miter"/>
   </g>
   <g id="patch_3">
    <path d="M 53.691406 99.873409 
L 53.691406 7.2 
" style="fill: none; stroke: #1a1a1a; stroke-width: 1.4; stroke-linejoin: miter; stroke-linecap: square"/>
   </g>
   <g id="patch_4">
    <path d="M 53.691406 99.873409 
L 559.737406 99.873409 
" style="fill: none; stroke: #1a1a1a; stroke-width: 1.4; stroke-linejoin: miter; stroke-linecap: square"/>
   </g>
  </g>
  <g id="axes_2">
   <g id="patch_5">
    <path d="M 53.691406 208.682273 
L 559.737406 208.682273 
L 559.737406 116.008864 
L 53.691406 116.008864 
z
" style="fill: #ffffff"/>
   </g>
   <g id="matplotlib.axis_3">
    <g id="xtick_7">
     <g id="line2d_12">
      <g>
       <use xlink:href="#m2758400517" x="76.693497" y="208.682273" style="fill: #1a1a1a; stroke: #1a1a1a"/>
      </g>
     </g>
    </g>
    <g id="xtick_8">
     <g id="line2d_13">
      <g>
       <use xlink:href="#m2758400517" x="161.874708" y="208.682273" style="fill: #1a1a1a; stroke: #1a1a1a"/>
      </g>
     </g>
    </g>
    <g id="xtick_9">
     <g id="line2d_14">
      <g>
       <use xlink:href="#m2758400517" x="247.055919" y="208.682273" style="fill: #1a1a1a; stroke: #1a1a1a"/>
      </g>
     </g>
    </g>
    <g id="xtick_10">
     <g id="line2d_15">
      <g>
       <use xlink:href="#m2758400517" x="332.23713" y="208.682273" style="fill: #1a1a1a; stroke: #1a1a1a"/>
      </g>
     </g>
    </g>
    <g id="xtick_11">
     <g id="line2d_16">
      <g>
       <use xlink:href="#m2758400517" x="417.418341" y="208.682273" style="fill: #1a1a1a; stroke: #1a1a1a"/>
      </g>
     </g>
    </g>
    <g id="xtick_12">
     <g id="line2d_17">
      <g>
       <use xlink:href="#m2758400517" x="502.599552" y="208.682273" style="fill: #1a1a1a; stroke: #1a1a1a"/>
      </g>
     </g>
    </g>
   </g>
   <g id="matplotlib.axis_4">
    <g id="ytick_5">
     <g id="line2d_18">
      <g>
       <use xlink:href="#mcb21234c48" x="53.691406" y="203.164885" style="fill: #1a1a1a; stroke: #1a1a1a"/>
      </g>
     </g>
     <g id="text_6">
      <!-- 0.005 -->
      <g style="fill: #1a1a1a" transform="translate(23.1 206.596838) scale(0.09 -0.09)">
       <defs>
        <path id="Menlo-Regular-35" d="M 647 4666 
L 3009 4666 
L 3009 4134 
L 1222 4134 
L 1222 2988 
Q 1356 3038 1492 3061 
Q 1628 3084 1766 3084 
Q 2491 3084 2916 2656 
Q 3341 2228 3341 1497 
Q 3341 759 2895 334 
Q 2450 -91 1678 -91 
Q 1306 -91 998 -41 
Q 691 9 447 109 
L 447 750 
Q 734 594 1025 517 
Q 1316 441 1619 441 
Q 2141 441 2423 716 
Q 2706 991 2706 1497 
Q 2706 1997 2414 2275 
Q 2122 2553 1600 2553 
Q 1347 2553 1106 2495 
Q 866 2438 647 2322 
L 647 4666 
z
" transform="scale(0.015625)"/>
       </defs>
       <use xlink:href="#Menlo-Regular-30"/>
       <use xlink:href="#Menlo-Regular-2e" transform="translate(60.205078 0)"/>
       <use xlink:href="#Menlo-Regular-30" transform="translate(120.410156 0)"/>
       <use xlink:href="#Menlo-Regular-30" transform="translate(180.615234 0)"/>
       <use xlink:href="#Menlo-Regular-35" transform="translate(240.820312 0)"/>
      </g>
     </g>
    </g>
    <g id="ytick_6">
     <g id="line2d_19">
      <g>
       <use xlink:href="#mcb21234c48" x="53.691406" y="168.63301" style="fill: #1a1a1a; stroke: #1a1a1a"/>
      </g>
     </g>
     <g id="text_7">
      <!-- 0.010 -->
      <g style="fill: #1a1a1a" transform="translate(23.1 172.064963) scale(0.09 -0.09)">
       <defs>
        <path id="Menlo-Regular-31" d="M 844 528 
L 1825 528 
L 1825 4053 
L 650 3488 
L 650 4094 
L 1819 4650 
L 2450 4650 
L 2450 528 
L 3419 528 
L 3419 0 
L 844 0 
L 844 528 
z
" transform="scale(0.015625)"/>
       </defs>
       <use xlink:href="#Menlo-Regular-30"/>
       <use xlink:href="#Menlo-Regular-2e" transform="translate(60.205078 0)"/>
       <use xlink:href="#Menlo-Regular-30" transform="translate(120.410156 0)"/>
       <use xlink:href="#Menlo-Regular-31" transform="translate(180.615234 0)"/>
       <use xlink:href="#Menlo-Regular-30" transform="translate(240.820312 0)"/>
      </g>
     </g>
    </g>
    <g id="ytick_7">
     <g id="line2d_20">
      <g>
       <use xlink:href="#mcb21234c48" x="53.691406" y="134.101135" style="fill: #1a1a1a; stroke: #1a1a1a"/>
      </g>
     </g>
     <g id="text_8">
      <!-- 0.015 -->
      <g style="fill: #1a1a1a" transform="translate(23.1 137.533088) scale(0.09 -0.09)">
       <use xlink:href="#Menlo-Regular-30"/>
       <use xlink:href="#Menlo-Regular-2e" transform="translate(60.205078 0)"/>
       <use xlink:href="#Menlo-Regular-30" transform="translate(120.410156 0)"/>
       <use xlink:href="#Menlo-Regular-31" transform="translate(180.615234 0)"/>
       <use xlink:href="#Menlo-Regular-35" transform="translate(240.820312 0)"/>
      </g>
     </g>
    </g>
    <g id="text_9">
     <!-- $g_e^I$ -->
     <g style="fill: #1a1a1a" transform="translate(16.2 167.845568) rotate(-90) scale(0.1 -0.1)">
      <defs>
       <path id="DejaVuSans-Oblique-67" d="M 3816 3500 
L 3219 434 
Q 3047 -456 2561 -893 
Q 2075 -1331 1253 -1331 
Q 950 -1331 690 -1286 
Q 431 -1241 206 -1147 
L 313 -588 
Q 525 -725 762 -790 
Q 1000 -856 1269 -856 
Q 1816 -856 2167 -557 
Q 2519 -259 2631 300 
L 2681 563 
Q 2441 288 2122 144 
Q 1803 0 1434 0 
Q 903 0 598 351 
Q 294 703 294 1319 
Q 294 1803 478 2267 
Q 663 2731 997 3091 
Q 1219 3328 1514 3456 
Q 1809 3584 2131 3584 
Q 2484 3584 2746 3420 
Q 3009 3256 3138 2956 
L 3238 3500 
L 3816 3500 
z
M 2950 2216 
Q 2950 2641 2750 2872 
Q 2550 3103 2181 3103 
Q 1953 3103 1747 3012 
Q 1541 2922 1394 2759 
Q 1156 2491 1023 2127 
Q 891 1763 891 1375 
Q 891 944 1092 712 
Q 1294 481 1672 481 
Q 2219 481 2584 976 
Q 2950 1472 2950 2216 
z
" transform="scale(0.015625)"/>
       <path id="DejaVuSans-Oblique-49" d="M 1081 4666 
L 1716 4666 
L 806 0 
L 172 0 
L 1081 4666 
z
" transform="scale(0.015625)"/>
       <path id="DejaVuSans-Oblique-65" d="M 3078 2063 
Q 3088 2113 3092 2166 
Q 3097 2219 3097 2272 
Q 3097 2653 2873 2875 
Q 2650 3097 2266 3097 
Q 1838 3097 1509 2826 
Q 1181 2556 1013 2059 
L 3078 2063 
z
M 3578 1613 
L 903 1613 
Q 884 1494 878 1425 
Q 872 1356 872 1306 
Q 872 872 1139 634 
Q 1406 397 1894 397 
Q 2269 397 2603 481 
Q 2938 566 3225 728 
L 3116 159 
Q 2806 34 2476 -28 
Q 2147 -91 1806 -91 
Q 1078 -91 686 257 
Q 294 606 294 1247 
Q 294 1794 489 2264 
Q 684 2734 1063 3103 
Q 1306 3334 1642 3459 
Q 1978 3584 2356 3584 
Q 2950 3584 3301 3228 
Q 3653 2872 3653 2272 
Q 3653 2128 3634 1964 
Q 3616 1800 3578 1613 
z
" transform="scale(0.015625)"/>
      </defs>
      <use xlink:href="#DejaVuSans-Oblique-67" transform="translate(0 0.684375)"/>
      <use xlink:href="#DejaVuSans-Oblique-49" transform="translate(68.126458 38.965625) scale(0.7)"/>
      <use xlink:href="#DejaVuSans-Oblique-65" transform="translate(63.476562 -26.659375) scale(0.7)"/>
     </g>
    </g>
   </g>
   <g id="line2d_21">
    <path d="M 76.693497 202.0499 
L 78.534892 200.687996 
L 80.376287 199.006174 
L 82.217682 197.006311 
L 84.059077 194.694825 
L 86.207371 191.617959 
L 88.355665 188.152117 
L 90.810858 183.74781 
L 93.57295 178.280223 
L 96.641942 171.650944 
L 100.017832 163.812935 
L 104.928218 151.764384 
L 110.452403 138.259195 
L 113.214495 132.108346 
L 115.05589 128.4768 
L 116.590386 125.853335 
L 118.124882 123.684529 
L 119.352478 122.323688 
L 120.580075 121.314921 
L 121.807671 120.650465 
L 123.035268 120.300814 
L 124.262865 120.226552 
L 125.490461 120.388615 
L 126.718058 120.752181 
L 128.252553 121.444349 
L 130.093948 122.55853 
L 132.242242 124.161199 
L 134.697436 126.284958 
L 138.073326 129.541147 
L 142.983712 134.643079 
L 156.794174 149.149015 
L 162.625258 154.888331 
L 168.149442 160.030105 
L 173.673627 164.876729 
L 179.197812 169.433508 
L 184.721996 173.711727 
L 190.55308 177.940769 
L 196.384164 181.892229 
L 202.215247 185.583367 
L 208.35323 189.205851 
L 214.491213 192.576795 
L 220.936095 195.864512 
L 227.687876 199.051299 
L 233.51896 201.578144 
L 237.508649 203.08209 
L 240.270741 203.891289 
L 242.419035 204.306724 
L 244.26043 204.463968 
L 246.101825 204.399224 
L 247.94322 204.080339 
L 249.477716 203.601319 
L 251.012211 202.915806 
L 252.546707 202.015467 
L 254.388102 200.644459 
L 256.229497 198.953516 
L 258.070892 196.944656 
L 259.912287 194.624414 
L 262.060581 191.537764 
L 264.208875 188.062717 
L 266.664068 183.648715 
L 269.42616 178.17141 
L 272.495152 171.532999 
L 275.871042 163.687321 
L 280.781429 151.633594 
L 286.305613 138.136472 
L 288.760806 132.644118 
L 290.9091 128.380377 
L 292.443596 125.771129 
L 293.978092 123.619244 
L 295.205688 122.273282 
L 296.433285 121.279589 
L 297.660881 120.629324 
L 298.888478 120.292286 
L 300.116075 120.228911 
L 301.343671 120.400274 
L 302.571268 120.771757 
L 304.105764 121.472155 
L 305.947158 122.594175 
L 308.095452 124.203731 
L 310.550646 126.333055 
L 313.926536 129.593971 
L 318.836922 134.698824 
L 332.340485 148.891787 
L 338.171569 154.644503 
L 343.695753 159.799826 
L 349.219938 164.65999 
L 354.744122 169.229897 
L 360.268307 173.52065 
L 366.099391 177.762199 
L 371.930475 181.725405 
L 377.761558 185.427546 
L 383.899541 189.060845 
L 390.037524 192.441862 
L 396.482406 195.739407 
L 403.234187 198.935879 
L 409.37217 201.599569 
L 413.361859 203.099701 
L 416.123951 203.903986 
L 418.272245 204.313961 
L 420.11364 204.465361 
L 421.955035 204.393789 
L 423.79643 204.067239 
L 425.330926 203.581324 
L 426.865421 202.888578 
L 428.399917 201.980777 
L 430.241312 200.600661 
L 432.082707 198.900599 
L 433.924102 196.882746 
L 435.765497 194.553757 
L 437.913791 191.457337 
L 440.062085 187.973099 
L 442.517278 183.549423 
L 445.27937 178.062426 
L 448.348362 171.414914 
L 451.724252 163.561612 
L 456.634639 151.502798 
L 462.158823 138.013929 
L 464.614016 132.532891 
L 466.76231 128.284392 
L 468.296806 125.689461 
L 469.831302 123.554578 
L 471.058898 122.223524 
L 472.286495 121.244888 
L 473.514091 120.608757 
L 474.741688 120.284259 
L 475.969285 120.231699 
L 477.196881 120.4123 
L 478.731377 120.913941 
L 480.265873 121.669112 
L 482.107268 122.843255 
L 484.255562 124.498546 
L 487.017654 126.951356 
L 490.393544 130.26848 
L 495.917729 136.060914 
L 507.272997 148.009851 
L 513.41098 154.104334 
L 519.242064 159.56892 
L 524.766249 164.442634 
L 530.290433 169.025694 
L 535.814618 173.329011 
L 536.735315 174.019976 
L 536.735315 174.019976 
" clip-path="url(#p95d24bf3e9)" style="fill: none; stroke: #1a1a1a; stroke-width: 1.4; stroke-linejoin: miter"/>
   </g>
   <g id="patch_6">
    <path d="M 53.691406 208.682273 
L 53.691406 116.008864 
" style="fill: none; stroke: #1a1a1a; stroke-width: 1.4; stroke-linejoin: miter; stroke-linecap: square"/>
   </g>
   <g id="patch_7">
    <path d="M 53.691406 208.682273 
L 559.737406 208.682273 
" style="fill: none; stroke: #1a1a1a; stroke-width: 1.4; stroke-linejoin: miter; stroke-linecap: square"/>
   </g>
  </g>
  <g id="axes_3">
   <g id="patch_8">
    <path d="M 53.691406 317.491136 
L 559.737406 317.491136 
L 559.737406 224.817727 
L 53.691406 224.817727 
z
" style="fill: #ffffff"/>
   </g>
   <g id="matplotlib.axis_5">
    <g id="xtick_13">
     <g id="line2d_22">
      <g>
       <use xlink:href="#m2758400517" x="76.693497" y="317.491136" style="fill: #1a1a1a; stroke: #1a1a1a"/>
      </g>
     </g>
    </g>
    <g id="xtick_14">
     <g id="line2d_23">
      <g>
       <use xlink:href="#m2758400517" x="161.874708" y="317.491136" style="fill: #1a1a1a; stroke: #1a1a1a"/>
      </g>
     </g>
    </g>
    <g id="xtick_15">
     <g id="line2d_24">
      <g>
       <use xlink:href="#m2758400517" x="247.055919" y="317.491136" style="fill: #1a1a1a; stroke: #1a1a1a"/>
      </g>
     </g>
    </g>
    <g id="xtick_16">
     <g id="line2d_25">
      <g>
       <use xlink:href="#m2758400517" x="332.23713" y="317.491136" style="fill: #1a1a1a; stroke: #1a1a1a"/>
      </g>
     </g>
    </g>
    <g id="xtick_17">
     <g id="line2d_26">
      <g>
       <use xlink:href="#m2758400517" x="417.418341" y="317.491136" style="fill: #1a1a1a; stroke: #1a1a1a"/>
      </g>
     </g>
    </g>
    <g id="xtick_18">
     <g id="line2d_27">
      <g>
       <use xlink:href="#m2758400517" x="502.599552" y="317.491136" style="fill: #1a1a1a; stroke: #1a1a1a"/>
      </g>
     </g>
    </g>
   </g>
   <g id="matplotlib.axis_6">
    <g id="ytick_8">
     <g id="line2d_28">
      <g>
       <use xlink:href="#mcb21234c48" x="53.691406" y="314.513038" style="fill: #1a1a1a; stroke: #1a1a1a"/>
      </g>
     </g>
     <g id="text_10">
      <!-- 0.000 -->
      <g style="fill: #1a1a1a" transform="translate(23.1 317.944991) scale(0.09 -0.09)">
       <use xlink:href="#Menlo-Regular-30"/>
       <use xlink:href="#Menlo-Regular-2e" transform="translate(60.205078 0)"/>
       <use xlink:href="#Menlo-Regular-30" transform="translate(120.410156 0)"/>
       <use xlink:href="#Menlo-Regular-30" transform="translate(180.615234 0)"/>
       <use xlink:href="#Menlo-Regular-30" transform="translate(240.820312 0)"/>
      </g>
     </g>
    </g>
    <g id="ytick_9">
     <g id="line2d_29">
      <g>
       <use xlink:href="#mcb21234c48" x="53.691406" y="294.504594" style="fill: #1a1a1a; stroke: #1a1a1a"/>
      </g>
     </g>
     <g id="text_11">
      <!-- 0.005 -->
      <g style="fill: #1a1a1a" transform="translate(23.1 297.936547) scale(0.09 -0.09)">
       <use xlink:href="#Menlo-Regular-30"/>
       <use xlink:href="#Menlo-Regular-2e" transform="translate(60.205078 0)"/>
       <use xlink:href="#Menlo-Regular-30" transform="translate(120.410156 0)"/>
       <use xlink:href="#Menlo-Regular-30" transform="translate(180.615234 0)"/>
       <use xlink:href="#Menlo-Regular-35" transform="translate(240.820312 0)"/>
      </g>
     </g>
    </g>
    <g id="ytick_10">
     <g id="line2d_30">
      <g>
       <use xlink:href="#mcb21234c48" x="53.691406" y="274.49615" style="fill: #1a1a1a; stroke: #1a1a1a"/>
      </g>
     </g>
     <g id="text_12">
      <!-- 0.010 -->
      <g style="fill: #1a1a1a" transform="translate(23.1 277.928103) scale(0.09 -0.09)">
       <use xlink:href="#Menlo-Regular-30"/>
       <use xlink:href="#Menlo-Regular-2e" transform="translate(60.205078 0)"/>
       <use xlink:href="#Menlo-Regular-30" transform="translate(120.410156 0)"/>
       <use xlink:href="#Menlo-Regular-31" transform="translate(180.615234 0)"/>
       <use xlink:href="#Menlo-Regular-30" transform="translate(240.820312 0)"/>
      </g>
     </g>
    </g>
    <g id="ytick_11">
     <g id="line2d_31">
      <g>
       <use xlink:href="#mcb21234c48" x="53.691406" y="254.487706" style="fill: #1a1a1a; stroke: #1a1a1a"/>
      </g>
     </g>
     <g id="text_13">
      <!-- 0.015 -->
      <g style="fill: #1a1a1a" transform="translate(23.1 257.919659) scale(0.09 -0.09)">
       <use xlink:href="#Menlo-Regular-30"/>
       <use xlink:href="#Menlo-Regular-2e" transform="translate(60.205078 0)"/>
       <use xlink:href="#Menlo-Regular-30" transform="translate(120.410156 0)"/>
       <use xlink:href="#Menlo-Regular-31" transform="translate(180.615234 0)"/>
       <use xlink:href="#Menlo-Regular-35" transform="translate(240.820312 0)"/>
      </g>
     </g>
    </g>
    <g id="ytick_12">
     <g id="line2d_32">
      <g>
       <use xlink:href="#mcb21234c48" x="53.691406" y="234.479262" style="fill: #1a1a1a; stroke: #1a1a1a"/>
      </g>
     </g>
     <g id="text_14">
      <!-- 0.020 -->
      <g style="fill: #1a1a1a" transform="translate(23.1 237.911216) scale(0.09 -0.09)">
       <use xlink:href="#Menlo-Regular-30"/>
       <use xlink:href="#Menlo-Regular-2e" transform="translate(60.205078 0)"/>
       <use xlink:href="#Menlo-Regular-30" transform="translate(120.410156 0)"/>
       <use xlink:href="#Menlo-Regular-32" transform="translate(180.615234 0)"/>
       <use xlink:href="#Menlo-Regular-30" transform="translate(240.820312 0)"/>
      </g>
     </g>
    </g>
    <g id="text_15">
     <!-- $I$ rate -->
     <g style="fill: #1a1a1a" transform="translate(17.020312 287.704432) rotate(-90) scale(0.1 -0.1)">
      <use xlink:href="#DejaVuSans-Oblique-49" transform="translate(0 0.09375)"/>
      <use xlink:href="#Menlo-Regular-20" transform="translate(29.492188 0.09375)"/>
      <use xlink:href="#Menlo-Regular-72" transform="translate(89.697266 0.09375)"/>
      <use xlink:href="#Menlo-Regular-61" transform="translate(149.902344 0.09375)"/>
      <use xlink:href="#Menlo-Regular-74" transform="translate(210.107422 0.09375)"/>
      <use xlink:href="#Menlo-Regular-65" transform="translate(270.3125 0.09375)"/>
     </g>
    </g>
   </g>
   <g id="line2d_33">
    <path d="M 76.693497 312.84165 
L 83.752177 313.201543 
L 88.969463 313.272941 
L 92.652253 313.119755 
L 95.414345 312.785959 
L 97.562639 312.307029 
L 99.404034 311.669175 
L 100.93853 310.920641 
L 102.473025 309.920035 
L 104.007521 308.610146 
L 105.235118 307.299533 
L 106.462714 305.723198 
L 107.99721 303.33857 
L 109.531706 300.455684 
L 111.066201 297.051113 
L 112.600697 293.125058 
L 114.442092 287.767433 
L 116.590386 280.76886 
L 119.966277 268.835598 
L 123.342167 257.073848 
L 125.490461 250.301105 
L 127.331856 245.147549 
L 129.173251 240.683138 
L 130.707747 237.520989 
L 132.242242 234.876168 
L 133.469839 233.131151 
L 134.697436 231.709763 
L 135.925032 230.603198 
L 137.152629 229.800203 
L 138.380225 229.287579 
L 139.607822 229.050628 
L 140.835418 229.073526 
L 142.063015 229.339655 
L 143.290612 229.83189 
L 144.518208 230.532842 
L 146.052704 231.675976 
L 147.5872 233.084241 
L 149.428594 235.077768 
L 151.576889 237.753212 
L 154.032082 241.172478 
L 157.407972 246.309875 
L 162.932157 255.226569 
L 169.377039 265.511706 
L 173.366728 271.471163 
L 177.049518 276.575842 
L 180.425408 280.881143 
L 183.801299 284.814516 
L 186.87029 288.068273 
L 189.939282 291.023809 
L 193.008273 293.694458 
L 196.384164 296.32301 
L 199.760054 298.651714 
L 203.135945 300.706519 
L 206.511835 302.513417 
L 210.194625 304.231443 
L 214.184314 305.829381 
L 218.174003 307.188776 
L 222.470591 308.423381 
L 227.074078 309.52216 
L 232.291364 310.534511 
L 238.122447 311.42797 
L 244.567329 312.18223 
L 251.62601 312.782353 
L 258.68469 313.170353 
L 264.208875 313.277639 
L 267.891664 313.160236 
L 270.653757 312.875272 
L 272.802051 312.455977 
L 274.643446 311.890411 
L 276.177941 311.220797 
L 277.712437 310.318793 
L 279.246933 309.128897 
L 280.781429 307.591984 
L 282.009025 306.07304 
L 283.543521 303.767401 
L 285.078017 300.969289 
L 286.612512 297.651882 
L 288.147008 293.811117 
L 289.988403 288.546437 
L 292.136697 281.631896 
L 295.205688 270.849455 
L 299.195377 256.899881 
L 301.343671 250.145191 
L 303.185066 245.010374 
L 305.026461 240.566406 
L 306.560957 237.421896 
L 308.095452 234.794789 
L 309.323049 233.063761 
L 310.550646 231.656043 
L 311.778242 230.562712 
L 313.005839 229.772423 
L 314.233435 229.271905 
L 315.461032 229.046403 
L 316.688628 229.080052 
L 317.916225 229.356209 
L 319.143822 229.857731 
L 320.678317 230.775047 
L 322.212813 231.983287 
L 324.054208 233.769939 
L 325.895603 235.870809 
L 328.043897 238.647425 
L 330.805989 242.610996 
L 334.488779 248.343305 
L 347.685442 269.305518 
L 351.368232 274.571194 
L 354.744122 279.036566 
L 358.120013 283.133826 
L 361.495904 286.858274 
L 364.564895 289.926648 
L 367.633887 292.70456 
L 370.702878 295.207538 
L 374.078769 297.664716 
L 377.454659 299.836538 
L 380.83055 301.749098 
L 384.513339 303.56994 
L 388.196129 305.144492 
L 392.185818 306.606584 
L 396.482406 307.935943 
L 401.085893 309.120238 
L 405.99628 310.154628 
L 411.520464 311.086884 
L 417.658447 311.89158 
L 424.410228 312.552116 
L 431.775808 313.047769 
L 438.22069 313.269801 
L 442.517278 313.222651 
L 445.586269 312.990061 
L 448.041462 312.587058 
L 449.882857 312.087217 
L 451.724252 311.346458 
L 453.258748 310.486671 
L 454.793244 309.348533 
L 456.327739 307.873275 
L 457.555336 306.410528 
L 459.089832 304.182661 
L 460.624327 301.468573 
L 462.158823 298.238208 
L 463.693319 294.483368 
L 465.534714 289.313516 
L 467.683008 282.486783 
L 470.4451 272.861135 
L 475.048587 256.72629 
L 477.196881 249.989778 
L 479.038276 244.873763 
L 480.879671 240.450273 
L 482.414167 237.32341 
L 483.948662 234.714013 
L 485.176259 232.996964 
L 486.403856 231.602898 
L 487.631452 230.522782 
L 488.859049 229.745175 
L 490.086645 229.256735 
L 491.314242 229.042652 
L 492.541838 229.087022 
L 493.769435 229.373175 
L 494.997032 229.883953 
L 496.531527 230.811788 
L 498.066023 232.029388 
L 499.907418 233.825773 
L 501.748813 235.934804 
L 503.897107 238.719065 
L 506.659199 242.689752 
L 510.341989 248.427413 
L 523.231753 268.927829 
L 526.914543 274.22028 
L 530.290433 278.712768 
L 533.666324 282.838107 
L 536.735315 286.264698 
L 536.735315 286.264698 
" clip-path="url(#pc80a1687c9)" style="fill: none; stroke: #1a1a1a; stroke-width: 1.4; stroke-linejoin: miter"/>
   </g>
   <g id="patch_9">
    <path d="M 53.691406 317.491136 
L 53.691406 224.817727 
" style="fill: none; stroke: #1a1a1a; stroke-width: 1.4; stroke-linejoin: miter; stroke-linecap: square"/>
   </g>
   <g id="patch_10">
    <path d="M 53.691406 317.491136 
L 559.737406 317.491136 
" style="fill: none; stroke: #1a1a1a; stroke-width: 1.4; stroke-linejoin: miter; stroke-linecap: square"/>
   </g>
  </g>
  <g id="axes_4">
   <g id="patch_11">
    <path d="M 53.691406 426.3 
L 559.737406 426.3 
L 559.737406 333.626591 
L 53.691406 333.626591 
z
" style="fill: #ffffff"/>
   </g>
   <g id="matplotlib.axis_7">
    <g id="xtick_19">
     <g id="line2d_34">
      <g>
       <use xlink:href="#m2758400517" x="76.693497" y="426.3" style="fill: #1a1a1a; stroke: #1a1a1a"/>
      </g>
     </g>
     <g id="text_16">
      <!-- 0 -->
      <g style="fill: #1a1a1a" transform="translate(73.984357 436.663906) scale(0.09 -0.09)">
       <use xlink:href="#Menlo-Regular-30"/>
      </g>
     </g>
    </g>
    <g id="xtick_20">
     <g id="line2d_35">
      <g>
       <use xlink:href="#m2758400517" x="161.874708" y="426.3" style="fill: #1a1a1a; stroke: #1a1a1a"/>
      </g>
     </g>
     <g id="text_17">
      <!-- 20 -->
      <g style="fill: #1a1a1a" transform="translate(156.456427 436.663906) scale(0.09 -0.09)">
       <use xlink:href="#Menlo-Regular-32"/>
       <use xlink:href="#Menlo-Regular-30" transform="translate(60.205078 0)"/>
      </g>
     </g>
    </g>
    <g id="xtick_21">
     <g id="line2d_36">
      <g>
       <use xlink:href="#m2758400517" x="247.055919" y="426.3" style="fill: #1a1a1a; stroke: #1a1a1a"/>
      </g>
     </g>
     <g id="text_18">
      <!-- 40 -->
      <g style="fill: #1a1a1a" transform="translate(241.637638 436.663906) scale(0.09 -0.09)">
       <use xlink:href="#Menlo-Regular-34"/>
       <use xlink:href="#Menlo-Regular-30" transform="translate(60.205078 0)"/>
      </g>
     </g>
    </g>
    <g id="xtick_22">
     <g id="line2d_37">
      <g>
       <use xlink:href="#m2758400517" x="332.23713" y="426.3" style="fill: #1a1a1a; stroke: #1a1a1a"/>
      </g>
     </g>
     <g id="text_19">
      <!-- 60 -->
      <g style="fill: #1a1a1a" transform="translate(326.818849 436.663906) scale(0.09 -0.09)">
       <use xlink:href="#Menlo-Regular-36"/>
       <use xlink:href="#Menlo-Regular-30" transform="translate(60.205078 0)"/>
      </g>
     </g>
    </g>
    <g id="xtick_23">
     <g id="line2d_38">
      <g>
       <use xlink:href="#m2758400517" x="417.418341" y="426.3" style="fill: #1a1a1a; stroke: #1a1a1a"/>
      </g>
     </g>
     <g id="text_20">
      <!-- 80 -->
      <g style="fill: #1a1a1a" transform="translate(412.000059 436.663906) scale(0.09 -0.09)">
       <use xlink:href="#Menlo-Regular-38"/>
       <use xlink:href="#Menlo-Regular-30" transform="translate(60.205078 0)"/>
      </g>
     </g>
    </g>
    <g id="xtick_24">
     <g id="line2d_39">
      <g>
       <use xlink:href="#m2758400517" x="502.599552" y="426.3" style="fill: #1a1a1a; stroke: #1a1a1a"/>
      </g>
     </g>
     <g id="text_21">
      <!-- 100 -->
      <g style="fill: #1a1a1a" transform="translate(494.47213 436.663906) scale(0.09 -0.09)">
       <use xlink:href="#Menlo-Regular-31"/>
       <use xlink:href="#Menlo-Regular-30" transform="translate(60.205078 0)"/>
       <use xlink:href="#Menlo-Regular-30" transform="translate(120.410156 0)"/>
      </g>
     </g>
    </g>
    <g id="text_22">
     <!-- time (ms) -->
     <g style="fill: #1a1a1a" transform="translate(279.623 450.162187) scale(0.1 -0.1)">
      <defs>
       <path id="Menlo-Regular-69" d="M 988 3488 
L 2459 3488 
L 2459 447 
L 3600 447 
L 3600 0 
L 744 0 
L 744 447 
L 1884 447 
L 1884 3041 
L 988 3041 
L 988 3488 
z
M 1884 4847 
L 2459 4847 
L 2459 4122 
L 1884 4122 
L 1884 4847 
z
" transform="scale(0.015625)"/>
       <path id="Menlo-Regular-6d" d="M 2113 3144 
Q 2219 3369 2383 3476 
Q 2547 3584 2778 3584 
Q 3200 3584 3373 3257 
Q 3547 2931 3547 2028 
L 3547 0 
L 3022 0 
L 3022 2003 
Q 3022 2744 2939 2923 
Q 2856 3103 2638 3103 
Q 2388 3103 2295 2911 
Q 2203 2719 2203 2003 
L 2203 0 
L 1678 0 
L 1678 2003 
Q 1678 2753 1589 2928 
Q 1500 3103 1269 3103 
Q 1041 3103 952 2911 
Q 863 2719 863 2003 
L 863 0 
L 341 0 
L 341 3500 
L 863 3500 
L 863 3200 
Q 966 3388 1120 3486 
Q 1275 3584 1472 3584 
Q 1709 3584 1867 3475 
Q 2025 3366 2113 3144 
z
" transform="scale(0.015625)"/>
       <path id="Menlo-Regular-28" d="M 2672 5169 
Q 2256 4456 2051 3748 
Q 1847 3041 1847 2322 
Q 1847 1606 2051 897 
Q 2256 188 2672 -531 
L 2172 -531 
Q 1700 213 1469 917 
Q 1238 1622 1238 2322 
Q 1238 3019 1469 3725 
Q 1700 4431 2172 5169 
L 2672 5169 
z
" transform="scale(0.015625)"/>
       <path id="Menlo-Regular-73" d="M 3041 3378 
L 3041 2816 
Q 2794 2959 2544 3031 
Q 2294 3103 2034 3103 
Q 1644 3103 1451 2976 
Q 1259 2850 1259 2591 
Q 1259 2356 1403 2240 
Q 1547 2125 2119 2016 
L 2350 1972 
Q 2778 1891 2998 1647 
Q 3219 1403 3219 1013 
Q 3219 494 2850 201 
Q 2481 -91 1825 -91 
Q 1566 -91 1281 -36 
Q 997 19 666 128 
L 666 722 
Q 988 556 1281 473 
Q 1575 391 1838 391 
Q 2219 391 2428 545 
Q 2638 700 2638 978 
Q 2638 1378 1872 1531 
L 1847 1538 
L 1631 1581 
Q 1134 1678 906 1908 
Q 678 2138 678 2534 
Q 678 3038 1018 3311 
Q 1359 3584 1991 3584 
Q 2272 3584 2531 3532 
Q 2791 3481 3041 3378 
z
" transform="scale(0.015625)"/>
       <path id="Menlo-Regular-29" d="M 1088 5169 
L 1588 5169 
Q 2059 4431 2290 3725 
Q 2522 3019 2522 2322 
Q 2522 1619 2290 912 
Q 2059 206 1588 -531 
L 1088 -531 
Q 1503 194 1708 903 
Q 1913 1613 1913 2322 
Q 1913 3034 1708 3743 
Q 1503 4453 1088 5169 
z
" transform="scale(0.015625)"/>
      </defs>
      <use xlink:href="#Menlo-Regular-74"/>
      <use xlink:href="#Menlo-Regular-69" transform="translate(60.205078 0)"/>
      <use xlink:href="#Menlo-Regular-6d" transform="translate(120.410156 0)"/>
      <use xlink:href="#Menlo-Regular-65" transform="translate(180.615234 0)"/>
      <use xlink:href="#Menlo-Regular-20" transform="translate(240.820312 0)"/>
      <use xlink:href="#Menlo-Regular-28" transform="translate(301.025391 0)"/>
      <use xlink:href="#Menlo-Regular-6d" transform="translate(361.230469 0)"/>
      <use xlink:href="#Menlo-Regular-73" transform="translate(421.435547 0)"/>
      <use xlink:href="#Menlo-Regular-29" transform="translate(481.640625 0)"/>
     </g>
    </g>
   </g>
   <g id="matplotlib.axis_8">
    <g id="ytick_13">
     <g id="line2d_40">
      <g>
       <use xlink:href="#mcb21234c48" x="53.691406" y="404.273119" style="fill: #1a1a1a; stroke: #1a1a1a"/>
      </g>
     </g>
     <g id="text_23">
      <!-- 0.05 -->
      <g style="fill: #1a1a1a" transform="translate(28.518281 407.705072) scale(0.09 -0.09)">
       <use xlink:href="#Menlo-Regular-30"/>
       <use xlink:href="#Menlo-Regular-2e" transform="translate(60.205078 0)"/>
       <use xlink:href="#Menlo-Regular-30" transform="translate(120.410156 0)"/>
       <use xlink:href="#Menlo-Regular-35" transform="translate(180.615234 0)"/>
      </g>
     </g>
    </g>
    <g id="ytick_14">
     <g id="line2d_41">
      <g>
       <use xlink:href="#mcb21234c48" x="53.691406" y="380.16543" style="fill: #1a1a1a; stroke: #1a1a1a"/>
      </g>
     </g>
     <g id="text_24">
      <!-- 0.10 -->
      <g style="fill: #1a1a1a" transform="translate(28.518281 383.597383) scale(0.09 -0.09)">
       <use xlink:href="#Menlo-Regular-30"/>
       <use xlink:href="#Menlo-Regular-2e" transform="translate(60.205078 0)"/>
       <use xlink:href="#Menlo-Regular-31" transform="translate(120.410156 0)"/>
       <use xlink:href="#Menlo-Regular-30" transform="translate(180.615234 0)"/>
      </g>
     </g>
    </g>
    <g id="ytick_15">
     <g id="line2d_42">
      <g>
       <use xlink:href="#mcb21234c48" x="53.691406" y="356.057741" style="fill: #1a1a1a; stroke: #1a1a1a"/>
      </g>
     </g>
     <g id="text_25">
      <!-- 0.15 -->
      <g style="fill: #1a1a1a" transform="translate(28.518281 359.489694) scale(0.09 -0.09)">
       <use xlink:href="#Menlo-Regular-30"/>
       <use xlink:href="#Menlo-Regular-2e" transform="translate(60.205078 0)"/>
       <use xlink:href="#Menlo-Regular-31" transform="translate(120.410156 0)"/>
       <use xlink:href="#Menlo-Regular-35" transform="translate(180.615234 0)"/>
      </g>
     </g>
    </g>
    <g id="text_26">
     <!-- $g_i^E$ -->
     <g style="fill: #1a1a1a" transform="translate(21.718281 385.763295) rotate(-90) scale(0.1 -0.1)">
      <defs>
       <path id="DejaVuSans-Oblique-69" d="M 1172 4863 
L 1747 4863 
L 1606 4134 
L 1031 4134 
L 1172 4863 
z
M 909 3500 
L 1484 3500 
L 800 0 
L 225 0 
L 909 3500 
z
" transform="scale(0.015625)"/>
      </defs>
      <use xlink:href="#DejaVuSans-Oblique-67" transform="translate(0 0.620313)"/>
      <use xlink:href="#DejaVuSans-Oblique-45" transform="translate(68.126458 38.965625) scale(0.7)"/>
      <use xlink:href="#DejaVuSans-Oblique-69" transform="translate(63.476562 -26.723437) scale(0.7)"/>
     </g>
    </g>
   </g>
   <g id="line2d_43">
    <path d="M 76.693497 416.043537 
L 81.296984 417.712862 
L 85.900472 419.156964 
L 90.503959 420.380814 
L 94.800547 421.301653 
L 98.483336 421.861401 
L 101.245429 422.072248 
L 103.700622 422.035494 
L 105.848916 421.761204 
L 107.690311 421.289311 
L 109.224807 420.689682 
L 110.759302 419.868729 
L 112.293798 418.795256 
L 113.828294 417.440599 
L 115.362789 415.780939 
L 116.897285 413.799647 
L 118.431781 411.489496 
L 120.273176 408.289602 
L 122.114571 404.651974 
L 124.262865 399.925547 
L 127.024957 393.259709 
L 131.321545 382.182081 
L 136.53883 368.867944 
L 139.607822 361.684877 
L 142.063015 356.48395 
L 144.211309 352.404318 
L 146.359603 348.806454 
L 148.200998 346.125716 
L 150.042393 343.826488 
L 151.883788 341.911225 
L 153.418283 340.606487 
L 154.952779 339.562176 
L 156.487275 338.772075 
L 158.021771 338.228269 
L 159.556266 337.921409 
L 161.090762 337.84097 
L 162.625258 337.975482 
L 164.159753 338.31275 
L 166.001148 338.967178 
L 167.842543 339.872647 
L 169.990837 341.215759 
L 172.139131 342.833126 
L 174.594324 344.971779 
L 177.356417 347.686853 
L 180.732307 351.353735 
L 184.721996 356.035792 
L 190.859979 363.624327 
L 200.680752 375.744021 
L 205.898037 381.80829 
L 210.501524 386.824604 
L 214.798112 391.184589 
L 219.0947 395.215962 
L 223.084389 398.66061 
L 227.074078 401.820638 
L 231.063767 404.704259 
L 235.053456 407.323323 
L 239.043145 409.692109 
L 243.339733 411.981214 
L 247.636321 414.018487 
L 252.239808 415.944413 
L 256.843295 417.626623 
L 261.446782 419.082873 
L 266.05027 420.31916 
L 270.346858 421.254148 
L 274.029647 421.831632 
L 276.79174 422.062596 
L 279.246933 422.051542 
L 281.395227 421.807886 
L 283.236622 421.369544 
L 284.771117 420.803531 
L 286.305613 420.021461 
L 287.840109 418.991926 
L 289.374605 417.685688 
L 290.9091 416.07796 
L 292.443596 414.150763 
L 293.978092 411.895172 
L 295.819487 408.758626 
L 297.660881 405.178822 
L 299.809175 400.509112 
L 302.571268 393.894971 
L 306.560957 383.64802 
L 312.085141 369.491386 
L 315.154133 362.25362 
L 317.609326 356.997214 
L 319.75762 352.86287 
L 321.905914 349.206368 
L 323.747309 346.473456 
L 325.588704 344.121247 
L 327.430099 342.153004 
L 328.964594 340.804628 
L 330.49909 339.717526 
L 332.033586 338.885789 
L 333.568081 338.301765 
L 335.102577 337.956326 
L 336.637073 337.839124 
L 338.171569 337.938829 
L 339.706064 338.243354 
L 341.547459 338.861314 
L 343.388854 339.733464 
L 345.230249 340.836921 
L 347.378543 342.386106 
L 349.833736 344.45808 
L 352.595828 347.111821 
L 355.66482 350.379966 
L 359.34761 354.626823 
L 364.564895 361.005827 
L 377.454659 376.902047 
L 382.365045 382.555171 
L 386.968533 387.52176 
L 391.265121 391.831562 
L 395.25481 395.538074 
L 399.244498 398.956865 
L 403.234187 402.091592 
L 407.223876 404.95085 
L 411.213565 407.546754 
L 415.203254 409.89375 
L 419.499842 412.16101 
L 423.79643 414.17813 
L 428.399917 416.084256 
L 433.003404 417.748276 
L 437.606892 419.187367 
L 442.210379 420.406061 
L 446.506967 421.320979 
L 449.882857 421.837903 
L 452.64495 422.064771 
L 455.100143 422.048485 
L 457.248437 421.798586 
L 459.089832 421.353397 
L 460.624327 420.780514 
L 462.158823 419.990487 
L 463.693319 418.951945 
L 465.227815 417.635765 
L 466.76231 416.017353 
L 468.296806 414.079006 
L 469.831302 411.812142 
L 471.672697 408.662473 
L 473.514091 405.07065 
L 475.662386 400.389101 
L 478.424478 393.764095 
L 482.414167 383.510859 
L 487.938351 369.362352 
L 491.007343 362.135754 
L 493.462536 356.890728 
L 495.61083 352.767635 
L 497.759124 349.12321 
L 499.600519 346.401057 
L 501.441914 344.059783 
L 503.283309 342.102484 
L 504.817804 340.763127 
L 506.3523 339.684875 
L 507.886796 338.861752 
L 509.421291 338.286053 
L 510.955787 337.948604 
L 512.490283 337.839018 
L 514.024779 337.945938 
L 515.559274 338.257252 
L 517.400669 338.882777 
L 519.242064 339.761844 
L 521.083459 340.871562 
L 523.231753 342.42723 
L 525.686946 344.505559 
L 528.449038 347.165161 
L 531.51803 350.438327 
L 535.507719 355.055525 
L 536.735315 356.534462 
L 536.735315 356.534462 
" clip-path="url(#p0628c2c8c1)" style="fill: none; stroke: #1a1a1a; stroke-width: 1.4; stroke-linejoin: miter"/>
   </g>
   <g id="patch_12">
    <path d="M 53.691406 426.3 
L 53.691406 333.626591 
" style="fill: none; stroke: #1a1a1a; stroke-width: 1.4; stroke-linejoin: miter; stroke-linecap: square"/>
   </g>
   <g id="patch_13">
    <path d="M 53.691406 426.3 
L 559.737406 426.3 
" style="fill: none; stroke: #1a1a1a; stroke-width: 1.4; stroke-linejoin: miter; stroke-linecap: square"/>
   </g>
  </g>
  <g id="text_27">
   <!-- exp033-numerics -->
   <g style="fill: #888888" transform="translate(495.953656 459.85625) scale(0.08 -0.08)">
    <defs>
     <path id="Menlo-Regular-78" d="M 3494 3500 
L 2241 1825 
L 3616 0 
L 2950 0 
L 1925 1403 
L 903 0 
L 238 0 
L 1613 1825 
L 359 3500 
L 997 3500 
L 1925 2234 
L 2847 3500 
L 3494 3500 
z
" transform="scale(0.015625)"/>
     <path id="Menlo-Regular-70" d="M 1172 441 
L 1172 -1331 
L 594 -1331 
L 594 3500 
L 1172 3500 
L 1172 3053 
Q 1316 3313 1555 3448 
Q 1794 3584 2106 3584 
Q 2741 3584 3102 3093 
Q 3463 2603 3463 1734 
Q 3463 881 3100 395 
Q 2738 -91 2106 -91 
Q 1788 -91 1548 45 
Q 1309 181 1172 441 
z
M 2859 1747 
Q 2859 2416 2648 2756 
Q 2438 3097 2022 3097 
Q 1603 3097 1387 2755 
Q 1172 2413 1172 1747 
Q 1172 1084 1387 740 
Q 1603 397 2022 397 
Q 2438 397 2648 737 
Q 2859 1078 2859 1747 
z
" transform="scale(0.015625)"/>
     <path id="Menlo-Regular-33" d="M 2425 2497 
Q 2884 2375 3128 2064 
Q 3372 1753 3372 1288 
Q 3372 644 2939 276 
Q 2506 -91 1741 -91 
Q 1419 -91 1084 -31 
Q 750 28 428 141 
L 428 769 
Q 747 603 1056 522 
Q 1366 441 1672 441 
Q 2191 441 2469 675 
Q 2747 909 2747 1350 
Q 2747 1756 2469 1995 
Q 2191 2234 1716 2234 
L 1234 2234 
L 1234 2753 
L 1716 2753 
Q 2150 2753 2394 2943 
Q 2638 3134 2638 3475 
Q 2638 3834 2411 4026 
Q 2184 4219 1766 4219 
Q 1488 4219 1191 4156 
Q 894 4094 569 3969 
L 569 4550 
Q 947 4650 1242 4700 
Q 1538 4750 1766 4750 
Q 2447 4750 2855 4408 
Q 3263 4066 3263 3500 
Q 3263 3116 3048 2859 
Q 2834 2603 2425 2497 
z
" transform="scale(0.015625)"/>
     <path id="Menlo-Regular-2d" d="M 319 2263 
L 3631 2263 
L 3631 1734 
L 319 1734 
L 319 2263 
z
" transform="scale(0.015625)"/>
     <path id="Menlo-Regular-6e" d="M 3284 2169 
L 3284 0 
L 2706 0 
L 2706 2169 
Q 2706 2641 2540 2862 
Q 2375 3084 2022 3084 
Q 1619 3084 1401 2798 
Q 1184 2513 1184 1978 
L 1184 0 
L 609 0 
L 609 3500 
L 1184 3500 
L 1184 2975 
Q 1338 3275 1600 3429 
Q 1863 3584 2222 3584 
Q 2756 3584 3020 3232 
Q 3284 2881 3284 2169 
z
" transform="scale(0.015625)"/>
     <path id="Menlo-Regular-75" d="M 609 1325 
L 609 3494 
L 1184 3494 
L 1184 1325 
Q 1184 853 1351 631 
Q 1519 409 1869 409 
Q 2275 409 2490 695 
Q 2706 981 2706 1516 
L 2706 3494 
L 3284 3494 
L 3284 0 
L 2706 0 
L 2706 525 
Q 2553 222 2289 65 
Q 2025 -91 1672 -91 
Q 1134 -91 871 261 
Q 609 613 609 1325 
z
" transform="scale(0.015625)"/>
     <path id="Menlo-Regular-63" d="M 3316 178 
Q 3084 44 2839 -23 
Q 2594 -91 2338 -91 
Q 1525 -91 1067 396 
Q 609 884 609 1747 
Q 609 2609 1067 3096 
Q 1525 3584 2338 3584 
Q 2591 3584 2831 3518 
Q 3072 3453 3316 3316 
L 3316 2713 
Q 3088 2916 2858 3006 
Q 2628 3097 2338 3097 
Q 1797 3097 1506 2747 
Q 1216 2397 1216 1747 
Q 1216 1100 1508 748 
Q 1800 397 2338 397 
Q 2638 397 2875 489 
Q 3113 581 3316 775 
L 3316 178 
z
" transform="scale(0.015625)"/>
    </defs>
    <use xlink:href="#Menlo-Regular-65"/>
    <use xlink:href="#Menlo-Regular-78" transform="translate(60.205078 0)"/>
    <use xlink:href="#Menlo-Regular-70" transform="translate(120.410156 0)"/>
    <use xlink:href="#Menlo-Regular-30" transform="translate(180.615234 0)"/>
    <use xlink:href="#Menlo-Regular-33" transform="translate(240.820312 0)"/>
    <use xlink:href="#Menlo-Regular-33" transform="translate(301.025391 0)"/>
    <use xlink:href="#Menlo-Regular-2d" transform="translate(361.230469 0)"/>
    <use xlink:href="#Menlo-Regular-6e" transform="translate(421.435547 0)"/>
    <use xlink:href="#Menlo-Regular-75" transform="translate(481.640625 0)"/>
    <use xlink:href="#Menlo-Regular-6d" transform="translate(541.845703 0)"/>
    <use xlink:href="#Menlo-Regular-65" transform="translate(602.050781 0)"/>
    <use xlink:href="#Menlo-Regular-72" transform="translate(662.255859 0)"/>
    <use xlink:href="#Menlo-Regular-69" transform="translate(722.460938 0)"/>
    <use xlink:href="#Menlo-Regular-63" transform="translate(782.666016 0)"/>
    <use xlink:href="#Menlo-Regular-73" transform="translate(842.871094 0)"/>
   </g>
  </g>
 </g>
 <defs>
  <clipPath id="p4d75b4dabb">
   <rect x="53.691406" y="7.2" width="506.046" height="92.673409"/>
  </clipPath>
  <clipPath id="p95d24bf3e9">
   <rect x="53.691406" y="116.008864" width="506.046" height="92.673409"/>
  </clipPath>
  <clipPath id="pc80a1687c9">
   <rect x="53.691406" y="224.817727" width="506.046" height="92.673409"/>
  </clipPath>
  <clipPath id="p0628c2c8c1">
   <rect x="53.691406" y="333.626591" width="506.046" height="92.673409"/>
  </clipPath>
 </defs>
</svg>
