<?xml version="1.0" encoding="UTF-8" standalone="no"?>
<!DOCTYPE svg PUBLIC "-//W3C//DTD SVG 1.1//EN"
 "http://www.w3.org/Graphics/SVG/1.1/DTD/svg11.dtd">
<!-- Generated by graphviz version 14.1.2 (20260124.0452)
 -->
<!-- Title: snnlang Pages: 1 -->
<svg width="749pt" height="198pt"
 viewBox="0.00 0.00 749.00 198.00" xmlns="http://www.w3.org/2000/svg" xmlns:xlink="http://www.w3.org/1999/xlink">
<g id="graph0" class="graph" transform="scale(1 1) rotate(0) translate(25.2 173.11)">
<title>snnlang</title>
<polygon fill="#ffffff" stroke="none" points="-25.2,25.2 -25.2,-173.11 723.83,-173.11 723.83,25.2 -25.2,25.2"/>
<!-- stimulus&#45;&gt;object_a -->
<g id="e_n_object_a_input" class="edge edge excitatory feedforward">
<title>stimulus&#45;&gt;object_a</title>
<path fill="none" stroke="#31845b" stroke-width="1.7" d="M105.76,-52.23C141.63,-61.73 190.24,-74.61 232.26,-85.75"/>
<polygon fill="#31845b" stroke="#31845b" stroke-width="1.7" points="231.59,-88.17 239.19,-87.58 232.88,-83.3 231.59,-88.17"/>
<text xml:space="preserve" text-anchor="middle" x="173.91" y="-79.41" font-family="Helvetica,sans-Serif" font-size="9.00" fill="#667085">object_a_input</text>
</g>
<!-- stimulus&#45;&gt;object_b -->
<g id="e_n_object_b_input" class="edge edge excitatory feedforward">
<title>stimulus&#45;&gt;object_b</title>
<path fill="none" stroke="#31845b" stroke-width="1.7" d="M106.02,-38.45C202.3,-38.45 408.73,-38.45 527.7,-38.45"/>
<polygon fill="#31845b" stroke="#31845b" stroke-width="1.7" points="527.4,-40.98 534.6,-38.46 527.4,-35.94 527.4,-40.98"/>
<text xml:space="preserve" text-anchor="middle" x="322.75" y="-39.66" font-family="Helvetica,sans-Serif" font-size="9.00" fill="#667085">object_b_input</text>
</g>
<!-- object_a&#45;&gt;object_b -->
<g id="e_n_a_to_b" class="edge edge excitatory feedforward">
<title>object_a&#45;&gt;object_b</title>
<path fill="none" stroke="#31845b" stroke-width="1.7" d="M403.73,-100.73C434.07,-96.49 468.76,-90.53 499.71,-82.45 508.97,-80.04 518.51,-77.15 527.97,-74.03"/>
<polygon fill="#31845b" stroke="#31845b" stroke-width="1.7" points="528.55,-76.5 534.56,-71.8 526.93,-71.72 528.55,-76.5"/>
<text xml:space="preserve" text-anchor="middle" x="470.46" y="-95.88" font-family="Helvetica,sans-Serif" font-size="9.00" fill="#667085">a_to_b</text>
</g>
<!-- object_b&#45;&gt;object_a -->
<g id="e_n_b_feedback_a" class="edge edge modulatory feedback">
<title>object_b&#45;&gt;object_a</title>
<path fill="none" stroke="#7a5dc7" stroke-width="2.2" stroke-dasharray="5,2" d="M537,-51.44C506.79,-56.9 472.25,-63.82 441.21,-71.7 432.39,-73.95 423.25,-76.49 414.16,-79.16"/>
<polygon fill="#7a5dc7" stroke="#7a5dc7" stroke-width="2.2" points="414.1,-79.18 410.79,-83.18 405.83,-81.66 409.14,-77.66 414.1,-79.18"/>
<text xml:space="preserve" text-anchor="middle" x="470.46" y="-72.91" font-family="Helvetica,sans-Serif" font-size="9.00" fill="#667085">b_feedback_a</text>
</g>
<!-- stimulus -->
<g id="n_stimulus" class="node node input">
<title>stimulus</title>
<path fill="#f5f7fa" stroke="#cbd5e1" d="M93.54,-75.47C93.54,-75.47 12,-75.47 12,-75.47 6,-75.47 0,-69.47 0,-63.47 0,-63.47 0,-13.44 0,-13.44 0,-7.44 6,-1.44 12,-1.44 12,-1.44 93.54,-1.44 93.54,-1.44 99.54,-1.44 105.54,-7.44 105.54,-13.44 105.54,-13.44 105.54,-63.47 105.54,-63.47 105.54,-69.47 99.54,-75.47 93.54,-75.47"/>
<text xml:space="preserve" text-anchor="start" x="11.52" y="-53.58" font-family="Helvetica,sans-Serif" font-weight="bold" font-size="15.00" fill="#243044">stimulus</text>
<text xml:space="preserve" text-anchor="start" x="11.52" y="-36.58" font-family="Helvetica,sans-Serif" font-size="10.00" fill="#667085">time × batch × 128</text>
<polygon fill="#e8f1fb" stroke="none" points="11.52,-10.08 11.52,-27.83 94.02,-27.83 94.02,-10.08 11.52,-10.08"/>
<text xml:space="preserve" text-anchor="start" x="15.52" y="-15.28" font-family="Helvetica,sans-Serif" font-size="9.00" fill="#243044">SPIKES</text>
</g>
<!-- object_a -->
<g id="n_object_a" class="node node component">
<title>object_a</title>
<path fill="#ffffff" stroke="#aebbca" stroke-width="1.5" d="M391.21,-147.91C391.21,-147.91 254.29,-147.91 254.29,-147.91 248.29,-147.91 242.29,-141.91 242.29,-135.91 242.29,-135.91 242.29,-83 242.29,-83 242.29,-77 248.29,-71 254.29,-71 254.29,-71 391.21,-71 391.21,-71 397.21,-71 403.21,-77 403.21,-83 403.21,-83 403.21,-135.91 403.21,-135.91 403.21,-141.91 397.21,-147.91 391.21,-147.91"/>
<text xml:space="preserve" text-anchor="start" x="255.25" y="-124.58" font-family="Helvetica,sans-Serif" font-weight="bold" font-size="15.00" fill="#243044">object_a</text>
<text xml:space="preserve" text-anchor="start" x="255.25" y="-107.58" font-family="Helvetica,sans-Serif" font-size="10.00" fill="#667085">object_a_E 192 · object_a_I 48</text>
<polygon fill="#f5f7fa" stroke="none" points="255.25,-81.08 255.25,-98.83 390.25,-98.83 390.25,-81.08 255.25,-81.08"/>
<text xml:space="preserve" text-anchor="start" x="259.25" y="-86.28" font-family="Helvetica,sans-Serif" font-size="9.00" fill="#243044">COMPONENT</text>
</g>
<!-- object_b -->
<g id="n_object_b" class="node node component">
<title>object_b</title>
<path fill="#ffffff" stroke="#aebbca" stroke-width="1.5" d="M686.63,-76.91C686.63,-76.91 549.71,-76.91 549.71,-76.91 543.71,-76.91 537.71,-70.91 537.71,-64.91 537.71,-64.91 537.71,-12 537.71,-12 537.71,-6 543.71,0 549.71,0 549.71,0 686.63,0 686.63,0 692.63,0 698.63,-6 698.63,-12 698.63,-12 698.63,-64.91 698.63,-64.91 698.63,-70.91 692.63,-76.91 686.63,-76.91"/>
<text xml:space="preserve" text-anchor="start" x="550.67" y="-53.58" font-family="Helvetica,sans-Serif" font-weight="bold" font-size="15.00" fill="#243044">object_b</text>
<text xml:space="preserve" text-anchor="start" x="550.67" y="-36.58" font-family="Helvetica,sans-Serif" font-size="10.00" fill="#667085">object_b_E 192 · object_b_I 48</text>
<polygon fill="#f5f7fa" stroke="none" points="550.67,-10.08 550.67,-27.83 685.67,-27.83 685.67,-10.08 550.67,-10.08"/>
<text xml:space="preserve" text-anchor="start" x="554.67" y="-15.28" font-family="Helvetica,sans-Serif" font-size="9.00" fill="#243044">COMPONENT</text>
</g>
</g>
</svg>
