<?xml version="1.0" encoding="utf-8" standalone="no"?>
<!DOCTYPE svg PUBLIC "-//W3C//DTD SVG 1.1//EN"
  "http://www.w3.org/Graphics/SVG/1.1/DTD/svg11.dtd">
<svg xmlns:xlink="http://www.w3.org/1999/xlink" width="459.407812pt" height="224.769375pt" viewBox="0 0 459.407812 224.769375" xmlns="http://www.w3.org/2000/svg" version="1.1">
 <metadata>
  <rdf:RDF xmlns:dc="http://purl.org/dc/elements/1.1/" xmlns:cc="http://creativecommons.org/ns#" xmlns:rdf="http://www.w3.org/1999/02/22-rdf-syntax-ns#">
   <cc:Work>
    <dc:type rdf:resource="http://purl.org/dc/dcmitype/StillImage"/>
    <dc:date>2026-07-20T11:25:53.685911</dc:date>
    <dc:format>image/svg+xml</dc:format>
    <dc:creator>
     <cc:Agent>
      <dc:title>Matplotlib v3.10.8, https://matplotlib.org/</dc:title>
     </cc:Agent>
    </dc:creator>
   </cc:Work>
  </rdf:RDF>
 </metadata>
 <defs>
  <style type="text/css">*{stroke-linejoin: round; stroke-linecap: butt}</style>
 </defs>
 <g id="figure_1">
  <g id="patch_1">
   <path d="M 0 224.769375 
L 459.407812 224.769375 
L 459.407812 0 
L 0 0 
z
" style="fill: #ffffff"/>
  </g>
  <g id="axes_1">
   <g id="patch_2">
    <path d="M 35.267813 191.58 
L 223.877813 191.58 
L 223.877813 7.2 
L 35.267813 7.2 
z
" style="fill: #ffffff"/>
   </g>
   <g id="matplotlib.axis_1">
    <g id="xtick_1">
     <g id="line2d_1">
      <defs>
       <path id="m60dbcd6bf9" d="M 0 0 
L 0 -4 
" style="stroke: #1a1a1a"/>
      </defs>
      <g>
       <use xlink:href="#m60dbcd6bf9" x="41.670569" y="191.58" style="fill: #1a1a1a; stroke: #1a1a1a"/>
      </g>
     </g>
     <g id="text_1">
      <!-- 0 -->
      <g style="fill: #1a1a1a" transform="translate(38.961428 201.966406) scale(0.09 -0.09)">
       <defs>
        <path id="DejaVuSansMono-30" d="M 1509 2344 
Q 1509 2516 1629 2641 
Q 1750 2766 1919 2766 
Q 2094 2766 2219 2641 
Q 2344 2516 2344 2344 
Q 2344 2169 2220 2047 
Q 2097 1925 1919 1925 
Q 1744 1925 1626 2044 
Q 1509 2163 1509 2344 
z
M 1925 4250 
Q 1484 4250 1267 3775 
Q 1050 3300 1050 2328 
Q 1050 1359 1267 884 
Q 1484 409 1925 409 
Q 2369 409 2586 884 
Q 2803 1359 2803 2328 
Q 2803 3300 2586 3775 
Q 2369 4250 1925 4250 
z
M 1925 4750 
Q 2672 4750 3055 4137 
Q 3438 3525 3438 2328 
Q 3438 1134 3055 521 
Q 2672 -91 1925 -91 
Q 1178 -91 797 521 
Q 416 1134 416 2328 
Q 416 3525 797 4137 
Q 1178 4750 1925 4750 
z
" transform="scale(0.015625)"/>
       </defs>
       <use xlink:href="#DejaVuSansMono-30"/>
      </g>
     </g>
    </g>
    <g id="xtick_2">
     <g id="line2d_2">
      <g>
       <use xlink:href="#m60dbcd6bf9" x="85.079084" y="191.58" style="fill: #1a1a1a; stroke: #1a1a1a"/>
      </g>
     </g>
     <g id="text_2">
      <!-- 20 -->
      <g style="fill: #1a1a1a" transform="translate(79.660803 201.966406) scale(0.09 -0.09)">
       <defs>
        <path id="DejaVuSansMono-32" d="M 1166 531 
L 3309 531 
L 3309 0 
L 475 0 
L 475 531 
Q 1059 1147 1496 1619 
Q 1934 2091 2100 2284 
Q 2413 2666 2522 2902 
Q 2631 3138 2631 3384 
Q 2631 3775 2401 3997 
Q 2172 4219 1772 4219 
Q 1488 4219 1175 4116 
Q 863 4013 513 3803 
L 513 4441 
Q 834 4594 1145 4672 
Q 1456 4750 1759 4750 
Q 2444 4750 2861 4386 
Q 3278 4022 3278 3431 
Q 3278 3131 3139 2831 
Q 3000 2531 2688 2169 
Q 2513 1966 2180 1606 
Q 1847 1247 1166 531 
z
" transform="scale(0.015625)"/>
       </defs>
       <use xlink:href="#DejaVuSansMono-32"/>
       <use xlink:href="#DejaVuSansMono-30" transform="translate(60.205078 0)"/>
      </g>
     </g>
    </g>
    <g id="xtick_3">
     <g id="line2d_3">
      <g>
       <use xlink:href="#m60dbcd6bf9" x="128.4876" y="191.58" style="fill: #1a1a1a; stroke: #1a1a1a"/>
      </g>
     </g>
     <g id="text_3">
      <!-- 40 -->
      <g style="fill: #1a1a1a" transform="translate(123.069318 201.966406) scale(0.09 -0.09)">
       <defs>
        <path id="DejaVuSansMono-34" d="M 2297 4091 
L 825 1625 
L 2297 1625 
L 2297 4091 
z
M 2194 4666 
L 2925 4666 
L 2925 1625 
L 3547 1625 
L 3547 1113 
L 2925 1113 
L 2925 0 
L 2297 0 
L 2297 1113 
L 319 1113 
L 319 1709 
L 2194 4666 
z
" transform="scale(0.015625)"/>
       </defs>
       <use xlink:href="#DejaVuSansMono-34"/>
       <use xlink:href="#DejaVuSansMono-30" transform="translate(60.205078 0)"/>
      </g>
     </g>
    </g>
    <g id="xtick_4">
     <g id="line2d_4">
      <g>
       <use xlink:href="#m60dbcd6bf9" x="171.896115" y="191.58" style="fill: #1a1a1a; stroke: #1a1a1a"/>
      </g>
     </g>
     <g id="text_4">
      <!-- 60 -->
      <g style="fill: #1a1a1a" transform="translate(166.477834 201.966406) scale(0.09 -0.09)">
       <defs>
        <path id="DejaVuSansMono-36" d="M 3097 4563 
L 3097 3981 
Q 2900 4097 2678 4158 
Q 2456 4219 2216 4219 
Q 1616 4219 1306 3767 
Q 997 3316 997 2438 
Q 1147 2750 1412 2917 
Q 1678 3084 2022 3084 
Q 2697 3084 3067 2670 
Q 3438 2256 3438 1497 
Q 3438 741 3056 325 
Q 2675 -91 1984 -91 
Q 1172 -91 794 492 
Q 416 1075 416 2328 
Q 416 3509 870 4129 
Q 1325 4750 2188 4750 
Q 2419 4750 2650 4701 
Q 2881 4653 3097 4563 
z
M 1972 2591 
Q 1569 2591 1337 2300 
Q 1106 2009 1106 1497 
Q 1106 984 1337 693 
Q 1569 403 1972 403 
Q 2391 403 2603 679 
Q 2816 956 2816 1497 
Q 2816 2041 2603 2316 
Q 2391 2591 1972 2591 
z
" transform="scale(0.015625)"/>
       </defs>
       <use xlink:href="#DejaVuSansMono-36"/>
       <use xlink:href="#DejaVuSansMono-30" transform="translate(60.205078 0)"/>
      </g>
     </g>
    </g>
    <g id="xtick_5">
     <g id="line2d_5">
      <g>
       <use xlink:href="#m60dbcd6bf9" x="215.304631" y="191.58" style="fill: #1a1a1a; stroke: #1a1a1a"/>
      </g>
     </g>
     <g id="text_5">
      <!-- 80 -->
      <g style="fill: #1a1a1a" transform="translate(209.886349 201.966406) scale(0.09 -0.09)">
       <defs>
        <path id="DejaVuSansMono-38" d="M 1925 2216 
Q 1503 2216 1273 1980 
Q 1044 1744 1044 1313 
Q 1044 881 1276 642 
Q 1509 403 1925 403 
Q 2350 403 2579 639 
Q 2809 875 2809 1313 
Q 2809 1741 2576 1978 
Q 2344 2216 1925 2216 
z
M 1375 2478 
Q 972 2581 745 2862 
Q 519 3144 519 3541 
Q 519 4097 897 4423 
Q 1275 4750 1925 4750 
Q 2578 4750 2956 4423 
Q 3334 4097 3334 3541 
Q 3334 3144 3107 2862 
Q 2881 2581 2478 2478 
Q 2947 2375 3195 2062 
Q 3444 1750 3444 1253 
Q 3444 622 3041 265 
Q 2638 -91 1925 -91 
Q 1213 -91 811 264 
Q 409 619 409 1247 
Q 409 1747 657 2061 
Q 906 2375 1375 2478 
z
M 1147 3481 
Q 1147 3106 1347 2909 
Q 1547 2713 1925 2713 
Q 2306 2713 2506 2909 
Q 2706 3106 2706 3481 
Q 2706 3863 2507 4063 
Q 2309 4263 1925 4263 
Q 1547 4263 1347 4061 
Q 1147 3859 1147 3481 
z
" transform="scale(0.015625)"/>
       </defs>
       <use xlink:href="#DejaVuSansMono-38"/>
       <use xlink:href="#DejaVuSansMono-30" transform="translate(60.205078 0)"/>
      </g>
     </g>
    </g>
    <g id="text_6">
     <!-- epoch -->
     <g style="fill: #1a1a1a" transform="translate(114.522031 215.489688) scale(0.1 -0.1)">
      <defs>
       <path id="DejaVuSansMono-65" d="M 3475 1894 
L 3475 1613 
L 984 1613 
L 984 1594 
Q 984 1022 1282 709 
Q 1581 397 2125 397 
Q 2400 397 2700 484 
Q 3000 572 3341 750 
L 3341 178 
Q 3013 44 2708 -23 
Q 2403 -91 2119 -91 
Q 1303 -91 843 398 
Q 384 888 384 1747 
Q 384 2584 834 3084 
Q 1284 3584 2034 3584 
Q 2703 3584 3089 3131 
Q 3475 2678 3475 1894 
z
M 2900 2063 
Q 2888 2569 2661 2833 
Q 2434 3097 2009 3097 
Q 1594 3097 1325 2822 
Q 1056 2547 1006 2059 
L 2900 2063 
z
" transform="scale(0.015625)"/>
       <path id="DejaVuSansMono-70" d="M 1172 441 
L 1172 -1331 
L 594 -1331 
L 594 3500 
L 1172 3500 
L 1172 3053 
Q 1316 3313 1555 3448 
Q 1794 3584 2106 3584 
Q 2741 3584 3102 3093 
Q 3463 2603 3463 1734 
Q 3463 881 3100 395 
Q 2738 -91 2106 -91 
Q 1788 -91 1548 45 
Q 1309 181 1172 441 
z
M 2859 1747 
Q 2859 2416 2648 2756 
Q 2438 3097 2022 3097 
Q 1603 3097 1387 2755 
Q 1172 2413 1172 1747 
Q 1172 1084 1387 740 
Q 1603 397 2022 397 
Q 2438 397 2648 737 
Q 2859 1078 2859 1747 
z
" transform="scale(0.015625)"/>
       <path id="DejaVuSansMono-6f" d="M 1925 3097 
Q 1488 3097 1263 2756 
Q 1038 2416 1038 1747 
Q 1038 1081 1263 739 
Q 1488 397 1925 397 
Q 2366 397 2591 739 
Q 2816 1081 2816 1747 
Q 2816 2416 2591 2756 
Q 2366 3097 1925 3097 
z
M 1925 3584 
Q 2653 3584 3039 3112 
Q 3425 2641 3425 1747 
Q 3425 850 3040 379 
Q 2656 -91 1925 -91 
Q 1197 -91 812 379 
Q 428 850 428 1747 
Q 428 2641 812 3112 
Q 1197 3584 1925 3584 
z
" transform="scale(0.015625)"/>
       <path id="DejaVuSansMono-63" d="M 3316 178 
Q 3084 44 2839 -23 
Q 2594 -91 2338 -91 
Q 1525 -91 1067 396 
Q 609 884 609 1747 
Q 609 2609 1067 3096 
Q 1525 3584 2338 3584 
Q 2591 3584 2831 3518 
Q 3072 3453 3316 3316 
L 3316 2713 
Q 3088 2916 2858 3006 
Q 2628 3097 2338 3097 
Q 1797 3097 1506 2747 
Q 1216 2397 1216 1747 
Q 1216 1100 1508 748 
Q 1800 397 2338 397 
Q 2638 397 2875 489 
Q 3113 581 3316 775 
L 3316 178 
z
" transform="scale(0.015625)"/>
       <path id="DejaVuSansMono-68" d="M 3284 2169 
L 3284 0 
L 2706 0 
L 2706 2169 
Q 2706 2641 2540 2862 
Q 2375 3084 2022 3084 
Q 1619 3084 1401 2798 
Q 1184 2513 1184 1978 
L 1184 0 
L 609 0 
L 609 4863 
L 1184 4863 
L 1184 2975 
Q 1338 3275 1600 3429 
Q 1863 3584 2222 3584 
Q 2756 3584 3020 3232 
Q 3284 2881 3284 2169 
z
" transform="scale(0.015625)"/>
      </defs>
      <use xlink:href="#DejaVuSansMono-65"/>
      <use xlink:href="#DejaVuSansMono-70" transform="translate(60.205078 0)"/>
      <use xlink:href="#DejaVuSansMono-6f" transform="translate(120.410156 0)"/>
      <use xlink:href="#DejaVuSansMono-63" transform="translate(180.615234 0)"/>
      <use xlink:href="#DejaVuSansMono-68" transform="translate(240.820312 0)"/>
     </g>
    </g>
   </g>
   <g id="matplotlib.axis_2">
    <g id="ytick_1">
     <g id="line2d_6">
      <defs>
       <path id="md847fb6a11" d="M 0 0 
L 4 0 
" style="stroke: #1a1a1a"/>
      </defs>
      <g>
       <use xlink:href="#md847fb6a11" x="35.267813" y="187.844896" style="fill: #1a1a1a; stroke: #1a1a1a"/>
      </g>
     </g>
     <g id="text_7">
      <!-- 5 -->
      <g style="fill: #1a1a1a" transform="translate(26.349531 191.288099) scale(0.09 -0.09)">
       <defs>
        <path id="DejaVuSansMono-35" d="M 647 4666 
L 3009 4666 
L 3009 4134 
L 1222 4134 
L 1222 2988 
Q 1356 3038 1492 3061 
Q 1628 3084 1766 3084 
Q 2491 3084 2916 2656 
Q 3341 2228 3341 1497 
Q 3341 759 2895 334 
Q 2450 -91 1678 -91 
Q 1306 -91 998 -41 
Q 691 9 447 109 
L 447 750 
Q 734 594 1025 517 
Q 1316 441 1619 441 
Q 2141 441 2423 716 
Q 2706 991 2706 1497 
Q 2706 1997 2414 2275 
Q 2122 2553 1600 2553 
Q 1347 2553 1106 2495 
Q 866 2438 647 2322 
L 647 4666 
z
" transform="scale(0.015625)"/>
       </defs>
       <use xlink:href="#DejaVuSansMono-35"/>
      </g>
     </g>
    </g>
    <g id="ytick_2">
     <g id="line2d_7">
      <g>
       <use xlink:href="#md847fb6a11" x="35.267813" y="159.147964" style="fill: #1a1a1a; stroke: #1a1a1a"/>
      </g>
     </g>
     <g id="text_8">
      <!-- 10 -->
      <g style="fill: #1a1a1a" transform="translate(20.93125 162.591167) scale(0.09 -0.09)">
       <defs>
        <path id="DejaVuSansMono-31" d="M 844 531 
L 1825 531 
L 1825 4097 
L 769 3859 
L 769 4434 
L 1819 4666 
L 2450 4666 
L 2450 531 
L 3419 531 
L 3419 0 
L 844 0 
L 844 531 
z
" transform="scale(0.015625)"/>
       </defs>
       <use xlink:href="#DejaVuSansMono-31"/>
       <use xlink:href="#DejaVuSansMono-30" transform="translate(60.205078 0)"/>
      </g>
     </g>
    </g>
    <g id="ytick_3">
     <g id="line2d_8">
      <g>
       <use xlink:href="#md847fb6a11" x="35.267813" y="130.451033" style="fill: #1a1a1a; stroke: #1a1a1a"/>
      </g>
     </g>
     <g id="text_9">
      <!-- 15 -->
      <g style="fill: #1a1a1a" transform="translate(20.93125 133.894236) scale(0.09 -0.09)">
       <use xlink:href="#DejaVuSansMono-31"/>
       <use xlink:href="#DejaVuSansMono-35" transform="translate(60.205078 0)"/>
      </g>
     </g>
    </g>
    <g id="ytick_4">
     <g id="line2d_9">
      <g>
       <use xlink:href="#md847fb6a11" x="35.267813" y="101.754101" style="fill: #1a1a1a; stroke: #1a1a1a"/>
      </g>
     </g>
     <g id="text_10">
      <!-- 20 -->
      <g style="fill: #1a1a1a" transform="translate(20.93125 105.197304) scale(0.09 -0.09)">
       <use xlink:href="#DejaVuSansMono-32"/>
       <use xlink:href="#DejaVuSansMono-30" transform="translate(60.205078 0)"/>
      </g>
     </g>
    </g>
    <g id="ytick_5">
     <g id="line2d_10">
      <g>
       <use xlink:href="#md847fb6a11" x="35.267813" y="73.057169" style="fill: #1a1a1a; stroke: #1a1a1a"/>
      </g>
     </g>
     <g id="text_11">
      <!-- 25 -->
      <g style="fill: #1a1a1a" transform="translate(20.93125 76.500372) scale(0.09 -0.09)">
       <use xlink:href="#DejaVuSansMono-32"/>
       <use xlink:href="#DejaVuSansMono-35" transform="translate(60.205078 0)"/>
      </g>
     </g>
    </g>
    <g id="ytick_6">
     <g id="line2d_11">
      <g>
       <use xlink:href="#md847fb6a11" x="35.267813" y="44.360238" style="fill: #1a1a1a; stroke: #1a1a1a"/>
      </g>
     </g>
     <g id="text_12">
      <!-- 30 -->
      <g style="fill: #1a1a1a" transform="translate(20.93125 47.803441) scale(0.09 -0.09)">
       <defs>
        <path id="DejaVuSansMono-33" d="M 2425 2497 
Q 2884 2375 3128 2064 
Q 3372 1753 3372 1288 
Q 3372 644 2939 276 
Q 2506 -91 1741 -91 
Q 1419 -91 1084 -31 
Q 750 28 428 141 
L 428 769 
Q 747 603 1056 522 
Q 1366 441 1672 441 
Q 2191 441 2469 675 
Q 2747 909 2747 1350 
Q 2747 1756 2469 1995 
Q 2191 2234 1716 2234 
L 1234 2234 
L 1234 2753 
L 1716 2753 
Q 2150 2753 2394 2943 
Q 2638 3134 2638 3475 
Q 2638 3834 2411 4026 
Q 2184 4219 1766 4219 
Q 1488 4219 1191 4156 
Q 894 4094 569 3969 
L 569 4550 
Q 947 4650 1242 4700 
Q 1538 4750 1766 4750 
Q 2447 4750 2855 4408 
Q 3263 4066 3263 3500 
Q 3263 3116 3048 2859 
Q 2834 2603 2425 2497 
z
" transform="scale(0.015625)"/>
       </defs>
       <use xlink:href="#DejaVuSansMono-33"/>
       <use xlink:href="#DejaVuSansMono-30" transform="translate(60.205078 0)"/>
      </g>
     </g>
    </g>
    <g id="ytick_7">
     <g id="line2d_12">
      <g>
       <use xlink:href="#md847fb6a11" x="35.267813" y="15.663306" style="fill: #1a1a1a; stroke: #1a1a1a"/>
      </g>
     </g>
     <g id="text_13">
      <!-- 35 -->
      <g style="fill: #1a1a1a" transform="translate(20.93125 19.106509) scale(0.09 -0.09)">
       <use xlink:href="#DejaVuSansMono-33"/>
       <use xlink:href="#DejaVuSansMono-35" transform="translate(60.205078 0)"/>
      </g>
     </g>
    </g>
    <g id="text_14">
     <!-- validation E rate (Hz) -->
     <g style="fill: #1a1a1a" transform="translate(14.851563 165.613438) rotate(-90) scale(0.1 -0.1)">
      <defs>
       <path id="DejaVuSansMono-76" d="M 313 3500 
L 909 3500 
L 1925 563 
L 2944 3500 
L 3541 3500 
L 2297 0 
L 1556 0 
L 313 3500 
z
" transform="scale(0.015625)"/>
       <path id="DejaVuSansMono-61" d="M 2194 1759 
L 2003 1759 
Q 1500 1759 1245 1582 
Q 991 1406 991 1056 
Q 991 741 1181 566 
Q 1372 391 1709 391 
Q 2184 391 2456 720 
Q 2728 1050 2731 1631 
L 2731 1759 
L 2194 1759 
z
M 3309 1997 
L 3309 0 
L 2731 0 
L 2731 519 
Q 2547 206 2267 57 
Q 1988 -91 1588 -91 
Q 1053 -91 734 211 
Q 416 513 416 1019 
Q 416 1603 808 1906 
Q 1200 2209 1959 2209 
L 2731 2209 
L 2731 2300 
Q 2728 2719 2518 2908 
Q 2309 3097 1850 3097 
Q 1556 3097 1256 3012 
Q 956 2928 672 2766 
L 672 3341 
Q 991 3463 1283 3523 
Q 1575 3584 1850 3584 
Q 2284 3584 2592 3456 
Q 2900 3328 3091 3072 
Q 3209 2916 3259 2686 
Q 3309 2456 3309 1997 
z
" transform="scale(0.015625)"/>
       <path id="DejaVuSansMono-6c" d="M 1997 1269 
Q 1997 881 2139 684 
Q 2281 488 2559 488 
L 3231 488 
L 3231 0 
L 2503 0 
Q 1988 0 1705 331 
Q 1422 663 1422 1269 
L 1422 4447 
L 500 4447 
L 500 4897 
L 1997 4897 
L 1997 1269 
z
" transform="scale(0.015625)"/>
       <path id="DejaVuSansMono-69" d="M 800 3500 
L 2272 3500 
L 2272 447 
L 3413 447 
L 3413 0 
L 556 0 
L 556 447 
L 1697 447 
L 1697 3053 
L 800 3053 
L 800 3500 
z
M 1697 4863 
L 2272 4863 
L 2272 4134 
L 1697 4134 
L 1697 4863 
z
" transform="scale(0.015625)"/>
       <path id="DejaVuSansMono-64" d="M 2681 3053 
L 2681 4863 
L 3256 4863 
L 3256 0 
L 2681 0 
L 2681 441 
Q 2538 181 2298 45 
Q 2059 -91 1747 -91 
Q 1113 -91 748 401 
Q 384 894 384 1759 
Q 384 2613 750 3098 
Q 1116 3584 1747 3584 
Q 2063 3584 2303 3448 
Q 2544 3313 2681 3053 
z
M 991 1747 
Q 991 1078 1203 737 
Q 1416 397 1831 397 
Q 2247 397 2464 740 
Q 2681 1084 2681 1747 
Q 2681 2413 2464 2755 
Q 2247 3097 1831 3097 
Q 1416 3097 1203 2756 
Q 991 2416 991 1747 
z
" transform="scale(0.015625)"/>
       <path id="DejaVuSansMono-74" d="M 1919 4494 
L 1919 3500 
L 3225 3500 
L 3225 3053 
L 1919 3053 
L 1919 1153 
Q 1919 766 2066 612 
Q 2213 459 2578 459 
L 3225 459 
L 3225 0 
L 2522 0 
Q 1875 0 1609 259 
Q 1344 519 1344 1153 
L 1344 3053 
L 409 3053 
L 409 3500 
L 1344 3500 
L 1344 4494 
L 1919 4494 
z
" transform="scale(0.015625)"/>
       <path id="DejaVuSansMono-6e" d="M 3284 2169 
L 3284 0 
L 2706 0 
L 2706 2169 
Q 2706 2641 2540 2862 
Q 2375 3084 2022 3084 
Q 1619 3084 1401 2798 
Q 1184 2513 1184 1978 
L 1184 0 
L 609 0 
L 609 3500 
L 1184 3500 
L 1184 2975 
Q 1338 3275 1600 3429 
Q 1863 3584 2222 3584 
Q 2756 3584 3020 3232 
Q 3284 2881 3284 2169 
z
" transform="scale(0.015625)"/>
       <path id="DejaVuSansMono-20" transform="scale(0.015625)"/>
       <path id="DejaVuSansMono-45" d="M 616 4666 
L 3384 4666 
L 3384 4134 
L 1247 4134 
L 1247 2753 
L 3291 2753 
L 3291 2222 
L 1247 2222 
L 1247 531 
L 3444 531 
L 3444 0 
L 616 0 
L 616 4666 
z
" transform="scale(0.015625)"/>
       <path id="DejaVuSansMono-72" d="M 3609 2778 
Q 3425 2922 3234 2987 
Q 3044 3053 2816 3053 
Q 2278 3053 1993 2715 
Q 1709 2378 1709 1741 
L 1709 0 
L 1131 0 
L 1131 3500 
L 1709 3500 
L 1709 2816 
Q 1853 3188 2151 3386 
Q 2450 3584 2859 3584 
Q 3072 3584 3256 3531 
Q 3441 3478 3609 3366 
L 3609 2778 
z
" transform="scale(0.015625)"/>
       <path id="DejaVuSansMono-28" d="M 2766 4856 
Q 2350 4144 2145 3436 
Q 1941 2728 1941 2009 
Q 1941 1294 2145 584 
Q 2350 -125 2766 -844 
L 2266 -844 
Q 1794 -100 1562 604 
Q 1331 1309 1331 2009 
Q 1331 2706 1562 3412 
Q 1794 4119 2266 4856 
L 2766 4856 
z
" transform="scale(0.015625)"/>
       <path id="DejaVuSansMono-48" d="M 428 4666 
L 1063 4666 
L 1063 2753 
L 2791 2753 
L 2791 4666 
L 3425 4666 
L 3425 0 
L 2791 0 
L 2791 2222 
L 1063 2222 
L 1063 0 
L 428 0 
L 428 4666 
z
" transform="scale(0.015625)"/>
       <path id="DejaVuSansMono-7a" d="M 709 3506 
L 3250 3506 
L 3250 2981 
L 1241 469 
L 3250 469 
L 3250 0 
L 634 0 
L 634 531 
L 2644 3047 
L 709 3047 
L 709 3506 
z
" transform="scale(0.015625)"/>
       <path id="DejaVuSansMono-29" d="M 1088 4856 
L 1588 4856 
Q 2059 4119 2290 3412 
Q 2522 2706 2522 2009 
Q 2522 1306 2290 600 
Q 2059 -106 1588 -844 
L 1088 -844 
Q 1503 -119 1708 590 
Q 1913 1300 1913 2009 
Q 1913 2722 1708 3431 
Q 1503 4141 1088 4856 
z
" transform="scale(0.015625)"/>
      </defs>
      <use xlink:href="#DejaVuSansMono-76"/>
      <use xlink:href="#DejaVuSansMono-61" transform="translate(60.205078 0)"/>
      <use xlink:href="#DejaVuSansMono-6c" transform="translate(120.410156 0)"/>
      <use xlink:href="#DejaVuSansMono-69" transform="translate(180.615234 0)"/>
      <use xlink:href="#DejaVuSansMono-64" transform="translate(240.820312 0)"/>
      <use xlink:href="#DejaVuSansMono-61" transform="translate(301.025391 0)"/>
      <use xlink:href="#DejaVuSansMono-74" transform="translate(361.230469 0)"/>
      <use xlink:href="#DejaVuSansMono-69" transform="translate(421.435547 0)"/>
      <use xlink:href="#DejaVuSansMono-6f" transform="translate(481.640625 0)"/>
      <use xlink:href="#DejaVuSansMono-6e" transform="translate(541.845703 0)"/>
      <use xlink:href="#DejaVuSansMono-20" transform="translate(602.050781 0)"/>
      <use xlink:href="#DejaVuSansMono-45" transform="translate(662.255859 0)"/>
      <use xlink:href="#DejaVuSansMono-20" transform="translate(722.460938 0)"/>
      <use xlink:href="#DejaVuSansMono-72" transform="translate(782.666016 0)"/>
      <use xlink:href="#DejaVuSansMono-61" transform="translate(842.871094 0)"/>
      <use xlink:href="#DejaVuSansMono-74" transform="translate(903.076172 0)"/>
      <use xlink:href="#DejaVuSansMono-65" transform="translate(963.28125 0)"/>
      <use xlink:href="#DejaVuSansMono-20" transform="translate(1023.486328 0)"/>
      <use xlink:href="#DejaVuSansMono-28" transform="translate(1083.691406 0)"/>
      <use xlink:href="#DejaVuSansMono-48" transform="translate(1143.896484 0)"/>
      <use xlink:href="#DejaVuSansMono-7a" transform="translate(1204.101562 0)"/>
      <use xlink:href="#DejaVuSansMono-29" transform="translate(1264.306641 0)"/>
     </g>
    </g>
   </g>
   <g id="line2d_13">
    <path d="M 43.840994 64.326266 
L 46.01142 56.260117 
L 48.181846 52.028496 
L 50.352272 48.74363 
L 52.522697 45.867536 
L 54.693123 44.126262 
L 56.863549 42.567229 
L 59.033975 41.207142 
L 61.204401 40.205408 
L 63.374826 39.22887 
L 65.545252 37.777181 
L 67.715678 36.873423 
L 69.886104 35.963511 
L 72.056529 35.096378 
L 74.226955 34.390274 
L 76.397381 33.616307 
L 78.567807 33.254738 
L 80.738233 32.675486 
L 82.908658 32.118269 
L 85.079084 31.799176 
L 87.24951 31.045211 
L 89.419936 30.23539 
L 91.590361 29.789116 
L 93.760787 29.738727 
L 95.931213 29.074907 
L 98.101639 28.433369 
L 100.272065 28.242996 
L 102.44249 27.596073 
L 104.612916 27.175076 
L 106.783342 26.941403 
L 108.953768 26.729242 
L 111.124193 26.068801 
L 113.294619 25.880653 
L 115.465045 25.369456 
L 117.635471 25.204442 
L 119.805897 24.58722 
L 121.976322 24.257577 
L 124.146748 24.186637 
L 126.317174 23.435254 
L 128.4876 23.553012 
L 130.658025 22.997635 
L 132.828451 22.933399 
L 134.998877 22.508171 
L 137.169303 22.086789 
L 139.339728 21.993649 
L 141.510154 21.97046 
L 143.68058 21.559904 
L 145.851006 21.410495 
L 148.021432 21.244602 
L 150.191857 20.754643 
L 152.362283 20.331063 
L 154.532709 20.369721 
L 156.703135 20.197865 
L 158.87356 19.76107 
L 161.043986 19.794727 
L 163.214412 19.739667 
L 165.384838 19.472557 
L 167.555264 19.377466 
L 169.725689 18.509728 
L 171.896115 18.563689 
L 174.066541 18.770492 
L 176.236967 18.433156 
L 178.407392 18.388482 
L 180.577818 18.043947 
L 182.748244 17.517859 
L 184.91867 17.651276 
L 187.089096 17.674136 
L 189.259521 17.27641 
L 191.429947 17.171758 
L 193.600373 16.602259 
L 195.770799 16.887531 
L 197.941224 16.625366 
L 200.11165 16.742683 
L 202.282076 16.416529 
L 204.452502 16.484914 
L 206.622928 15.935032 
L 208.793353 16.176701 
L 210.963779 15.944759 
L 213.134205 15.580909 
L 215.304631 15.842854 
" clip-path="url(#pcb14acb5b4)" style="fill: none; stroke-dasharray: 7.4,3.2; stroke-dashoffset: 0; stroke: #c8102e; stroke-width: 2"/>
   </g>
   <g id="line2d_14">
    <path d="M 43.840994 183.199091 
L 46.01142 182.27731 
L 48.181846 181.332917 
L 50.352272 179.94137 
L 52.522697 179.26972 
L 54.693123 178.785503 
L 56.863549 178.637139 
L 59.033975 177.62601 
L 61.204401 177.042801 
L 63.374826 176.471846 
L 65.545252 175.987135 
L 67.715678 175.636419 
L 69.886104 175.398734 
L 72.056529 175.332904 
L 74.226955 174.755053 
L 76.397381 174.140468 
L 78.567807 174.398045 
L 80.738233 173.186376 
L 82.908658 172.891077 
L 85.079084 172.365483 
L 87.24951 171.724412 
L 89.419936 171.788099 
L 91.590361 171.25396 
L 93.760787 170.999653 
L 95.931213 170.144169 
L 98.101639 170.349461 
L 100.272065 170.275938 
L 102.44249 169.964126 
L 104.612916 169.375972 
L 106.783342 169.151859 
L 108.953768 169.180131 
L 111.124193 168.00668 
L 113.294619 168.073389 
L 115.465045 167.906589 
L 117.635471 167.577276 
L 119.805897 167.010277 
L 121.976322 166.578702 
L 124.146748 166.248894 
L 126.317174 166.097206 
L 128.4876 165.982141 
L 130.658025 165.297193 
L 132.828451 165.550896 
L 134.998877 164.747668 
L 137.169303 164.676069 
L 139.339728 164.570538 
L 141.510154 164.012359 
L 143.68058 164.187896 
L 145.851006 163.802341 
L 148.021432 163.285951 
L 150.191857 163.752612 
L 152.362283 163.200038 
L 154.532709 163.154209 
L 156.703135 162.580754 
L 158.87356 162.720272 
L 161.043986 162.608806 
L 163.214412 162.735026 
L 165.384838 162.593777 
L 167.555264 162.328206 
L 169.725689 162.176599 
L 171.896115 162.031285 
L 174.066541 162.168247 
L 176.236967 161.684497 
L 178.407392 161.49363 
L 180.577818 161.193192 
L 182.748244 160.787169 
L 184.91867 160.875555 
L 187.089096 160.945177 
L 189.259521 160.583635 
L 191.429947 160.17665 
L 193.600373 159.986606 
L 195.770799 159.958692 
L 197.941224 160.021912 
L 200.11165 159.420899 
L 202.282076 159.576077 
L 204.452502 159.123374 
L 206.622928 159.047049 
L 208.793353 158.781752 
L 210.963779 158.56841 
L 213.134205 158.526346 
L 215.304631 158.684683 
" clip-path="url(#pcb14acb5b4)" style="fill: none; stroke: #1a1a1a; stroke-width: 2; stroke-linejoin: miter"/>
   </g>
   <g id="patch_3">
    <path d="M 35.267813 191.58 
L 35.267813 7.2 
" style="fill: none; stroke: #1a1a1a; stroke-width: 1.4; stroke-linejoin: miter; stroke-linecap: square"/>
   </g>
   <g id="patch_4">
    <path d="M 35.267813 191.58 
L 223.877813 191.58 
" style="fill: none; stroke: #1a1a1a; stroke-width: 1.4; stroke-linejoin: miter; stroke-linecap: square"/>
   </g>
   <g id="legend_1">
    <g id="line2d_15">
     <path d="M 168.004688 92.118281 
L 177.004688 92.118281 
L 186.004688 92.118281 
" style="fill: none; stroke-dasharray: 7.4,3.2; stroke-dashoffset: 0; stroke: #c8102e; stroke-width: 2"/>
    </g>
    <g id="text_15">
     <!-- COBA -->
     <g style="fill: #1a1a1a" transform="translate(193.204688 95.268281) scale(0.09 -0.09)">
      <defs>
       <path id="DejaVuSansMono-43" d="M 3353 166 
Q 3113 38 2859 -26 
Q 2606 -91 2322 -91 
Q 1425 -91 929 543 
Q 434 1178 434 2328 
Q 434 3472 932 4111 
Q 1431 4750 2322 4750 
Q 2606 4750 2859 4686 
Q 3113 4622 3353 4494 
L 3353 3847 
Q 3122 4038 2856 4138 
Q 2591 4238 2322 4238 
Q 1706 4238 1400 3763 
Q 1094 3288 1094 2328 
Q 1094 1372 1400 897 
Q 1706 422 2322 422 
Q 2597 422 2861 522 
Q 3125 622 3353 813 
L 3353 166 
z
" transform="scale(0.015625)"/>
       <path id="DejaVuSansMono-4f" d="M 2828 2328 
Q 2828 3356 2617 3797 
Q 2406 4238 1925 4238 
Q 1447 4238 1236 3797 
Q 1025 3356 1025 2328 
Q 1025 1303 1236 862 
Q 1447 422 1925 422 
Q 2406 422 2617 861 
Q 2828 1300 2828 2328 
z
M 3488 2328 
Q 3488 1109 3102 509 
Q 2716 -91 1925 -91 
Q 1134 -91 750 506 
Q 366 1103 366 2328 
Q 366 3550 752 4150 
Q 1138 4750 1925 4750 
Q 2716 4750 3102 4150 
Q 3488 3550 3488 2328 
z
" transform="scale(0.015625)"/>
       <path id="DejaVuSansMono-42" d="M 1153 2228 
L 1153 519 
L 1900 519 
Q 2450 519 2684 711 
Q 2919 903 2919 1344 
Q 2919 1800 2672 2014 
Q 2425 2228 1900 2228 
L 1153 2228 
z
M 1153 4147 
L 1153 2741 
L 1888 2741 
Q 2344 2741 2548 2916 
Q 2753 3091 2753 3481 
Q 2753 3834 2551 3990 
Q 2350 4147 1888 4147 
L 1153 4147 
z
M 519 4666 
L 1900 4666 
Q 2616 4666 3003 4356 
Q 3391 4047 3391 3481 
Q 3391 3053 3186 2806 
Q 2981 2559 2572 2497 
Q 3031 2428 3292 2104 
Q 3553 1781 3553 1281 
Q 3553 647 3137 323 
Q 2722 0 1900 0 
L 519 0 
L 519 4666 
z
" transform="scale(0.015625)"/>
       <path id="DejaVuSansMono-41" d="M 1925 4109 
L 1259 1722 
L 2591 1722 
L 1925 4109 
z
M 1544 4666 
L 2309 4666 
L 3738 0 
L 3084 0 
L 2741 1216 
L 1106 1216 
L 769 0 
L 116 0 
L 1544 4666 
z
" transform="scale(0.015625)"/>
      </defs>
      <use xlink:href="#DejaVuSansMono-43"/>
      <use xlink:href="#DejaVuSansMono-4f" transform="translate(60.205078 0)"/>
      <use xlink:href="#DejaVuSansMono-42" transform="translate(120.410156 0)"/>
      <use xlink:href="#DejaVuSansMono-41" transform="translate(180.615234 0)"/>
     </g>
    </g>
    <g id="line2d_16">
     <path d="M 168.004688 105.376406 
L 177.004688 105.376406 
L 186.004688 105.376406 
" style="fill: none; stroke: #1a1a1a; stroke-width: 2; stroke-linejoin: miter"/>
    </g>
    <g id="text_16">
     <!-- PING -->
     <g style="fill: #1a1a1a" transform="translate(193.204688 108.526406) scale(0.09 -0.09)">
      <defs>
       <path id="DejaVuSansMono-50" d="M 1247 4147 
L 1247 2394 
L 1978 2394 
Q 2416 2394 2661 2625 
Q 2906 2856 2906 3272 
Q 2906 3688 2662 3917 
Q 2419 4147 1978 4147 
L 1247 4147 
z
M 616 4666 
L 1978 4666 
Q 2759 4666 3162 4311 
Q 3566 3956 3566 3272 
Q 3566 2581 3164 2228 
Q 2763 1875 1978 1875 
L 1247 1875 
L 1247 0 
L 616 0 
L 616 4666 
z
" transform="scale(0.015625)"/>
       <path id="DejaVuSansMono-49" d="M 628 4666 
L 3219 4666 
L 3219 4134 
L 2241 4134 
L 2241 531 
L 3219 531 
L 3219 0 
L 628 0 
L 628 531 
L 1606 531 
L 1606 4134 
L 628 4134 
L 628 4666 
z
" transform="scale(0.015625)"/>
       <path id="DejaVuSansMono-4e" d="M 434 4666 
L 1234 4666 
L 2809 825 
L 2809 4666 
L 3419 4666 
L 3419 0 
L 2619 0 
L 1044 3841 
L 1044 0 
L 434 0 
L 434 4666 
z
" transform="scale(0.015625)"/>
       <path id="DejaVuSansMono-47" d="M 3450 384 
Q 3197 150 2880 29 
Q 2563 -91 2194 -91 
Q 1306 -91 812 545 
Q 319 1181 319 2328 
Q 319 3472 819 4111 
Q 1319 4750 2209 4750 
Q 2503 4750 2772 4667 
Q 3041 4584 3291 4416 
L 3291 3769 
Q 3038 4009 2772 4123 
Q 2506 4238 2209 4238 
Q 1594 4238 1286 3761 
Q 978 3284 978 2328 
Q 978 1356 1276 889 
Q 1575 422 2194 422 
Q 2403 422 2561 470 
Q 2719 519 2847 622 
L 2847 1875 
L 2169 1875 
L 2169 2394 
L 3450 2394 
L 3450 384 
z
" transform="scale(0.015625)"/>
      </defs>
      <use xlink:href="#DejaVuSansMono-50"/>
      <use xlink:href="#DejaVuSansMono-49" transform="translate(60.205078 0)"/>
      <use xlink:href="#DejaVuSansMono-4e" transform="translate(120.410156 0)"/>
      <use xlink:href="#DejaVuSansMono-47" transform="translate(180.615234 0)"/>
     </g>
    </g>
   </g>
  </g>
  <g id="axes_2">
   <g id="patch_5">
    <path d="M 263.597812 191.58 
L 452.207812 191.58 
L 452.207812 7.2 
L 263.597812 7.2 
z
" style="fill: #ffffff"/>
   </g>
   <g id="matplotlib.axis_3">
    <g id="xtick_6">
     <g id="line2d_17">
      <g>
       <use xlink:href="#m60dbcd6bf9" x="270.000569" y="191.58" style="fill: #1a1a1a; stroke: #1a1a1a"/>
      </g>
     </g>
     <g id="text_17">
      <!-- 0 -->
      <g style="fill: #1a1a1a" transform="translate(267.291428 201.966406) scale(0.09 -0.09)">
       <use xlink:href="#DejaVuSansMono-30"/>
      </g>
     </g>
    </g>
    <g id="xtick_7">
     <g id="line2d_18">
      <g>
       <use xlink:href="#m60dbcd6bf9" x="313.409084" y="191.58" style="fill: #1a1a1a; stroke: #1a1a1a"/>
      </g>
     </g>
     <g id="text_18">
      <!-- 20 -->
      <g style="fill: #1a1a1a" transform="translate(307.990803 201.966406) scale(0.09 -0.09)">
       <use xlink:href="#DejaVuSansMono-32"/>
       <use xlink:href="#DejaVuSansMono-30" transform="translate(60.205078 0)"/>
      </g>
     </g>
    </g>
    <g id="xtick_8">
     <g id="line2d_19">
      <g>
       <use xlink:href="#m60dbcd6bf9" x="356.8176" y="191.58" style="fill: #1a1a1a; stroke: #1a1a1a"/>
      </g>
     </g>
     <g id="text_19">
      <!-- 40 -->
      <g style="fill: #1a1a1a" transform="translate(351.399318 201.966406) scale(0.09 -0.09)">
       <use xlink:href="#DejaVuSansMono-34"/>
       <use xlink:href="#DejaVuSansMono-30" transform="translate(60.205078 0)"/>
      </g>
     </g>
    </g>
    <g id="xtick_9">
     <g id="line2d_20">
      <g>
       <use xlink:href="#m60dbcd6bf9" x="400.226115" y="191.58" style="fill: #1a1a1a; stroke: #1a1a1a"/>
      </g>
     </g>
     <g id="text_20">
      <!-- 60 -->
      <g style="fill: #1a1a1a" transform="translate(394.807834 201.966406) scale(0.09 -0.09)">
       <use xlink:href="#DejaVuSansMono-36"/>
       <use xlink:href="#DejaVuSansMono-30" transform="translate(60.205078 0)"/>
      </g>
     </g>
    </g>
    <g id="xtick_10">
     <g id="line2d_21">
      <g>
       <use xlink:href="#m60dbcd6bf9" x="443.634631" y="191.58" style="fill: #1a1a1a; stroke: #1a1a1a"/>
      </g>
     </g>
     <g id="text_21">
      <!-- 80 -->
      <g style="fill: #1a1a1a" transform="translate(438.216349 201.966406) scale(0.09 -0.09)">
       <use xlink:href="#DejaVuSansMono-38"/>
       <use xlink:href="#DejaVuSansMono-30" transform="translate(60.205078 0)"/>
      </g>
     </g>
    </g>
    <g id="text_22">
     <!-- epoch -->
     <g style="fill: #1a1a1a" transform="translate(342.852031 215.489688) scale(0.1 -0.1)">
      <use xlink:href="#DejaVuSansMono-65"/>
      <use xlink:href="#DejaVuSansMono-70" transform="translate(60.205078 0)"/>
      <use xlink:href="#DejaVuSansMono-6f" transform="translate(120.410156 0)"/>
      <use xlink:href="#DejaVuSansMono-63" transform="translate(180.615234 0)"/>
      <use xlink:href="#DejaVuSansMono-68" transform="translate(240.820312 0)"/>
     </g>
    </g>
   </g>
   <g id="matplotlib.axis_4">
    <g id="ytick_8">
     <g id="line2d_22">
      <g>
       <use xlink:href="#md847fb6a11" x="263.597812" y="183.199091" style="fill: #1a1a1a; stroke: #1a1a1a"/>
      </g>
     </g>
     <g id="text_23">
      <!-- 0 -->
      <g style="fill: #1a1a1a" transform="translate(254.679531 186.642294) scale(0.09 -0.09)">
       <use xlink:href="#DejaVuSansMono-30"/>
      </g>
     </g>
    </g>
    <g id="ytick_9">
     <g id="line2d_23">
      <g>
       <use xlink:href="#md847fb6a11" x="263.597812" y="151.46397" style="fill: #1a1a1a; stroke: #1a1a1a"/>
      </g>
     </g>
     <g id="text_24">
      <!-- 10 -->
      <g style="fill: #1a1a1a" transform="translate(249.26125 154.907173) scale(0.09 -0.09)">
       <use xlink:href="#DejaVuSansMono-31"/>
       <use xlink:href="#DejaVuSansMono-30" transform="translate(60.205078 0)"/>
      </g>
     </g>
    </g>
    <g id="ytick_10">
     <g id="line2d_24">
      <g>
       <use xlink:href="#md847fb6a11" x="263.597812" y="119.72885" style="fill: #1a1a1a; stroke: #1a1a1a"/>
      </g>
     </g>
     <g id="text_25">
      <!-- 20 -->
      <g style="fill: #1a1a1a" transform="translate(249.26125 123.172053) scale(0.09 -0.09)">
       <use xlink:href="#DejaVuSansMono-32"/>
       <use xlink:href="#DejaVuSansMono-30" transform="translate(60.205078 0)"/>
      </g>
     </g>
    </g>
    <g id="ytick_11">
     <g id="line2d_25">
      <g>
       <use xlink:href="#md847fb6a11" x="263.597812" y="87.993729" style="fill: #1a1a1a; stroke: #1a1a1a"/>
      </g>
     </g>
     <g id="text_26">
      <!-- 30 -->
      <g style="fill: #1a1a1a" transform="translate(249.26125 91.436932) scale(0.09 -0.09)">
       <use xlink:href="#DejaVuSansMono-33"/>
       <use xlink:href="#DejaVuSansMono-30" transform="translate(60.205078 0)"/>
      </g>
     </g>
    </g>
    <g id="ytick_12">
     <g id="line2d_26">
      <g>
       <use xlink:href="#md847fb6a11" x="263.597812" y="56.258608" style="fill: #1a1a1a; stroke: #1a1a1a"/>
      </g>
     </g>
     <g id="text_27">
      <!-- 40 -->
      <g style="fill: #1a1a1a" transform="translate(249.26125 59.701811) scale(0.09 -0.09)">
       <use xlink:href="#DejaVuSansMono-34"/>
       <use xlink:href="#DejaVuSansMono-30" transform="translate(60.205078 0)"/>
      </g>
     </g>
    </g>
    <g id="ytick_13">
     <g id="line2d_27">
      <g>
       <use xlink:href="#md847fb6a11" x="263.597812" y="24.523487" style="fill: #1a1a1a; stroke: #1a1a1a"/>
      </g>
     </g>
     <g id="text_28">
      <!-- 50 -->
      <g style="fill: #1a1a1a" transform="translate(249.26125 27.966691) scale(0.09 -0.09)">
       <use xlink:href="#DejaVuSansMono-35"/>
       <use xlink:href="#DejaVuSansMono-30" transform="translate(60.205078 0)"/>
      </g>
     </g>
    </g>
    <g id="text_29">
     <!-- validation I rate (Hz) -->
     <g style="fill: #1a1a1a" transform="translate(243.181562 165.613438) rotate(-90) scale(0.1 -0.1)">
      <use xlink:href="#DejaVuSansMono-76"/>
      <use xlink:href="#DejaVuSansMono-61" transform="translate(60.205078 0)"/>
      <use xlink:href="#DejaVuSansMono-6c" transform="translate(120.410156 0)"/>
      <use xlink:href="#DejaVuSansMono-69" transform="translate(180.615234 0)"/>
      <use xlink:href="#DejaVuSansMono-64" transform="translate(240.820312 0)"/>
      <use xlink:href="#DejaVuSansMono-61" transform="translate(301.025391 0)"/>
      <use xlink:href="#DejaVuSansMono-74" transform="translate(361.230469 0)"/>
      <use xlink:href="#DejaVuSansMono-69" transform="translate(421.435547 0)"/>
      <use xlink:href="#DejaVuSansMono-6f" transform="translate(481.640625 0)"/>
      <use xlink:href="#DejaVuSansMono-6e" transform="translate(541.845703 0)"/>
      <use xlink:href="#DejaVuSansMono-20" transform="translate(602.050781 0)"/>
      <use xlink:href="#DejaVuSansMono-49" transform="translate(662.255859 0)"/>
      <use xlink:href="#DejaVuSansMono-20" transform="translate(722.460938 0)"/>
      <use xlink:href="#DejaVuSansMono-72" transform="translate(782.666016 0)"/>
      <use xlink:href="#DejaVuSansMono-61" transform="translate(842.871094 0)"/>
      <use xlink:href="#DejaVuSansMono-74" transform="translate(903.076172 0)"/>
      <use xlink:href="#DejaVuSansMono-65" transform="translate(963.28125 0)"/>
      <use xlink:href="#DejaVuSansMono-20" transform="translate(1023.486328 0)"/>
      <use xlink:href="#DejaVuSansMono-28" transform="translate(1083.691406 0)"/>
      <use xlink:href="#DejaVuSansMono-48" transform="translate(1143.896484 0)"/>
      <use xlink:href="#DejaVuSansMono-7a" transform="translate(1204.101562 0)"/>
      <use xlink:href="#DejaVuSansMono-29" transform="translate(1264.306641 0)"/>
     </g>
    </g>
   </g>
   <g id="line2d_28">
    <path d="M 272.170994 183.199091 
L 274.34142 183.199091 
L 276.511846 183.199091 
L 278.682272 183.199091 
L 280.852697 183.199091 
L 283.023123 183.199091 
L 285.193549 183.199091 
L 287.363975 183.199091 
L 289.534401 183.199091 
L 291.704826 183.199091 
L 293.875252 183.199091 
L 296.045678 183.199091 
L 298.216104 183.199091 
L 300.386529 183.199091 
L 302.556955 183.199091 
L 304.727381 183.199091 
L 306.897807 183.199091 
L 309.068233 183.199091 
L 311.238658 183.199091 
L 313.409084 183.199091 
L 315.57951 183.199091 
L 317.749936 183.199091 
L 319.920361 183.199091 
L 322.090787 183.199091 
L 324.261213 183.199091 
L 326.431639 183.199091 
L 328.602065 183.199091 
L 330.77249 183.199091 
L 332.942916 183.199091 
L 335.113342 183.199091 
L 337.283768 183.199091 
L 339.454193 183.199091 
L 341.624619 183.199091 
L 343.795045 183.199091 
L 345.965471 183.199091 
L 348.135897 183.199091 
L 350.306322 183.199091 
L 352.476748 183.199091 
L 354.647174 183.199091 
L 356.8176 183.199091 
L 358.988025 183.199091 
L 361.158451 183.199091 
L 363.328877 183.199091 
L 365.499303 183.199091 
L 367.669728 183.199091 
L 369.840154 183.199091 
L 372.01058 183.199091 
L 374.181006 183.199091 
L 376.351432 183.199091 
L 378.521857 183.199091 
L 380.692283 183.199091 
L 382.862709 183.199091 
L 385.033135 183.199091 
L 387.20356 183.199091 
L 389.373986 183.199091 
L 391.544412 183.199091 
L 393.714838 183.199091 
L 395.885264 183.199091 
L 398.055689 183.199091 
L 400.226115 183.199091 
L 402.396541 183.199091 
L 404.566967 183.199091 
L 406.737392 183.199091 
L 408.907818 183.199091 
L 411.078244 183.199091 
L 413.24867 183.199091 
L 415.419096 183.199091 
L 417.589521 183.199091 
L 419.759947 183.199091 
L 421.930373 183.199091 
L 424.100799 183.199091 
L 426.271224 183.199091 
L 428.44165 183.199091 
L 430.612076 183.199091 
L 432.782502 183.199091 
L 434.952928 183.199091 
L 437.123353 183.199091 
L 439.293779 183.199091 
L 441.464205 183.199091 
L 443.634631 183.199091 
" clip-path="url(#pf8b8316380)" style="fill: none; stroke-dasharray: 7.4,3.2; stroke-dashoffset: 0; stroke: #c8102e; stroke-width: 2"/>
   </g>
   <g id="line2d_29">
    <path d="M 272.170994 110.366004 
L 274.34142 102.377594 
L 276.511846 95.503657 
L 278.682272 91.03015 
L 280.852697 86.865341 
L 283.023123 84.08949 
L 285.193549 81.501653 
L 287.363975 78.66382 
L 289.534401 76.647743 
L 291.704826 74.151118 
L 293.875252 71.482521 
L 296.045678 70.228041 
L 298.216104 68.418755 
L 300.386529 67.239322 
L 302.556955 65.320655 
L 304.727381 63.064851 
L 306.897807 62.18968 
L 309.068233 59.789067 
L 311.238658 58.011016 
L 313.409084 56.547192 
L 315.57951 54.495688 
L 317.749936 53.723274 
L 319.920361 52.497476 
L 322.090787 51.081841 
L 324.261213 49.455221 
L 326.431639 49.035805 
L 328.602065 48.146962 
L 330.77249 46.989345 
L 332.942916 45.592669 
L 335.113342 44.453282 
L 337.283768 43.915916 
L 339.454193 42.390657 
L 341.624619 41.704898 
L 343.795045 40.711291 
L 345.965471 39.669071 
L 348.135897 38.490185 
L 350.306322 37.725429 
L 352.476748 37.002723 
L 354.647174 36.374815 
L 356.8176 35.983716 
L 358.988025 34.906676 
L 361.158451 34.79055 
L 363.328877 33.285222 
L 365.499303 32.501628 
L 367.669728 32.078809 
L 369.840154 31.334531 
L 372.01058 31.049228 
L 374.181006 30.0016 
L 376.351432 29.109293 
L 378.521857 29.084803 
L 380.692283 28.129237 
L 382.862709 27.903426 
L 385.033135 26.908969 
L 387.20356 26.484692 
L 389.373986 26.194406 
L 391.544412 25.95632 
L 393.714838 25.683778 
L 395.885264 25.173819 
L 398.055689 24.857343 
L 400.226115 24.355101 
L 402.396541 24.166297 
L 404.566967 23.283713 
L 406.737392 22.979329 
L 408.907818 22.368192 
L 411.078244 21.695134 
L 413.24867 21.688145 
L 415.419096 21.533371 
L 417.589521 20.722917 
L 419.759947 20.030717 
L 421.930373 19.701844 
L 424.100799 19.438843 
L 426.271224 19.272341 
L 428.44165 18.481029 
L 430.612076 18.365875 
L 432.782502 17.495262 
L 434.952928 17.349299 
L 437.123353 16.602651 
L 439.293779 16.015395 
L 441.464205 15.580909 
L 443.634631 16.012965 
" clip-path="url(#pf8b8316380)" style="fill: none; stroke: #1a1a1a; stroke-width: 2; stroke-linejoin: miter"/>
   </g>
   <g id="patch_6">
    <path d="M 263.597812 191.58 
L 263.597812 7.2 
" style="fill: none; stroke: #1a1a1a; stroke-width: 1.4; stroke-linejoin: miter; stroke-linecap: square"/>
   </g>
   <g id="patch_7">
    <path d="M 263.597812 191.58 
L 452.207812 191.58 
" style="fill: none; stroke: #1a1a1a; stroke-width: 1.4; stroke-linejoin: miter; stroke-linecap: square"/>
   </g>
   <g id="legend_2">
    <g id="line2d_30">
     <path d="M 272.597812 19.936406 
L 281.597812 19.936406 
L 290.597812 19.936406 
" style="fill: none; stroke-dasharray: 7.4,3.2; stroke-dashoffset: 0; stroke: #c8102e; stroke-width: 2"/>
    </g>
    <g id="text_30">
     <!-- COBA -->
     <g style="fill: #1a1a1a" transform="translate(297.797812 23.086406) scale(0.09 -0.09)">
      <use xlink:href="#DejaVuSansMono-43"/>
      <use xlink:href="#DejaVuSansMono-4f" transform="translate(60.205078 0)"/>
      <use xlink:href="#DejaVuSansMono-42" transform="translate(120.410156 0)"/>
      <use xlink:href="#DejaVuSansMono-41" transform="translate(180.615234 0)"/>
     </g>
    </g>
    <g id="line2d_31">
     <path d="M 272.597812 33.194531 
L 281.597812 33.194531 
L 290.597812 33.194531 
" style="fill: none; stroke: #1a1a1a; stroke-width: 2; stroke-linejoin: miter"/>
    </g>
    <g id="text_31">
     <!-- PING -->
     <g style="fill: #1a1a1a" transform="translate(297.797812 36.344531) scale(0.09 -0.09)">
      <use xlink:href="#DejaVuSansMono-50"/>
      <use xlink:href="#DejaVuSansMono-49" transform="translate(60.205078 0)"/>
      <use xlink:href="#DejaVuSansMono-4e" transform="translate(120.410156 0)"/>
      <use xlink:href="#DejaVuSansMono-47" transform="translate(180.615234 0)"/>
     </g>
    </g>
   </g>
  </g>
 </g>
 <defs>
  <clipPath id="pcb14acb5b4">
   <rect x="35.267813" y="7.2" width="188.61" height="184.38"/>
  </clipPath>
  <clipPath id="pf8b8316380">
   <rect x="263.597812" y="7.2" width="188.61" height="184.38"/>
  </clipPath>
 </defs>
</svg>
