<?xml version="1.0" encoding="UTF-8" standalone="no"?>
<!DOCTYPE svg PUBLIC "-//W3C//DTD SVG 1.1//EN"
 "http://www.w3.org/Graphics/SVG/1.1/DTD/svg11.dtd">
<!-- Generated by graphviz version 14.1.2 (20260124.0452)
 -->
<!-- Title: snnlang Pages: 1 -->
<svg width="675pt" height="321pt"
 viewBox="0.00 0.00 675.00 321.00" xmlns="http://www.w3.org/2000/svg" xmlns:xlink="http://www.w3.org/1999/xlink">
<g id="graph0" class="graph" transform="scale(1 1) rotate(0) translate(25.2 295.77)">
<title>snnlang</title>
<polygon fill="#ffffff" stroke="none" points="-25.2,25.2 -25.2,-295.77 649.83,-295.77 649.83,25.2 -25.2,25.2"/>
<!-- drive_a&#45;&gt;a_E -->
<g id="e_n_drive_a_to_a_E" class="edge edge excitatory feedforward">
<title>drive_a&#45;&gt;a_E</title>
<path fill="none" stroke="#243044" stroke-width="1.7" d="M100.49,-210.45C137.61,-210.45 189.12,-210.45 231.22,-210.45"/>
<polygon fill="#243044" stroke="#243044" stroke-width="1.7" points="231.1,-212.98 238.3,-210.46 231.1,-207.94 231.1,-212.98"/>
<text xml:space="preserve" text-anchor="middle" x="170.92" y="-211.65" font-family="Helvetica,sans-Serif" font-size="9.00" fill="#667085">drive_a_to_a_E</text>
</g>
<!-- drive_b&#45;&gt;b_E -->
<g id="e_n_drive_b_to_b_E" class="edge edge excitatory feedforward">
<title>drive_b&#45;&gt;b_E</title>
<path fill="none" stroke="#243044" stroke-width="1.7" d="M100.49,-38.45C137.61,-38.45 189.12,-38.45 231.22,-38.45"/>
<polygon fill="#243044" stroke="#243044" stroke-width="1.7" points="231.1,-40.98 238.3,-38.46 231.1,-35.94 231.1,-40.98"/>
<text xml:space="preserve" text-anchor="middle" x="170.92" y="-39.66" font-family="Helvetica,sans-Serif" font-size="9.00" fill="#667085">drive_b_to_b_E</text>
</g>
<!-- a_E&#45;&gt;a_I -->
<g id="e_n_a_E_to_I" class="edge edge excitatory recurrent">
<title>a_E&#45;&gt;a_I</title>
<path fill="none" stroke="#243044" stroke-width="2.2" d="M371.86,-247.65C398.07,-258.37 428.73,-265.3 456.71,-257.45 470.81,-253.5 484.9,-247.01 497.91,-239.67"/>
<polygon fill="#243044" stroke="#243044" stroke-width="2.2" points="498.93,-242 503.85,-236.17 496.37,-237.65 498.93,-242"/>
<text xml:space="preserve" text-anchor="middle" x="433.09" y="-262.02" font-family="Helvetica,sans-Serif" font-size="9.00" fill="#667085">a_E_to_I</text>
</g>
<!-- a_E&#45;&gt;b_E -->
<g id="e_n_a_E_to_b_E" class="edge edge excitatory feedback">
<title>a_E&#45;&gt;b_E</title>
<path fill="none" stroke="#243044" stroke-width="2.2" stroke-dasharray="5,2" d="M306.5,-171.58C306.5,-146.76 306.5,-114.37 306.5,-87.75"/>
<polygon fill="#243044" stroke="#243044" stroke-width="2.2" points="309.02,-88.01 306.5,-80.81 303.98,-88.01 309.02,-88.01"/>
<text xml:space="preserve" text-anchor="middle" x="298.62" y="-120.78" font-family="Helvetica,sans-Serif" font-size="9.00" fill="#667085">a_E_to_b_E</text>
</g>
<!-- a_E&#45;&gt;b_I -->
<g id="e_n_a_E_to_b_I" class="edge edge excitatory feedback">
<title>a_E&#45;&gt;b_I</title>
<path fill="none" stroke="#243044" stroke-width="2.2" stroke-dasharray="5,2" d="M372.1,-220.06C399.96,-221.04 431.79,-217.65 456.71,-202.45 485.28,-185.03 476.01,-165.21 494.71,-137.45 502.72,-125.56 511.87,-113.11 520.69,-101.59"/>
<polygon fill="#243044" stroke="#243044" stroke-width="2.2" points="522.59,-103.25 525,-96.02 518.6,-100.17 522.59,-103.25"/>
<text xml:space="preserve" text-anchor="middle" x="433.09" y="-219.2" font-family="Helvetica,sans-Serif" font-size="9.00" fill="#667085">a_E_to_b_I</text>
</g>
<!-- a_I&#45;&gt;a_E -->
<g id="e_n_a_I_to_E" class="edge edge inhibitory recurrent">
<title>a_I&#45;&gt;a_E</title>
<path fill="none" stroke="#c44a55" stroke-width="2.2" d="M494.3,-190.58C467.95,-189.43 437.2,-189.18 409.46,-191.7 398.41,-192.71 386.78,-194.32 375.48,-196.18"/>
<polygon fill="#c44a55" stroke="#c44a55" stroke-width="2.2" points="373.66,-200.14 372.47,-193.04 373.89,-192.8 375.08,-199.9 373.66,-200.14"/>
<polyline fill="none" stroke="#c44a55" stroke-width="2.2" points="372.36,-196.71 375.91,-196.11"/>
<text xml:space="preserve" text-anchor="middle" x="433.09" y="-192.9" font-family="Helvetica,sans-Serif" font-size="9.00" fill="#667085">a_I_to_E</text>
</g>
<!-- b_E&#45;&gt;a_E -->
<g id="e_n_b_E_to_a_E" class="edge edge excitatory feedback">
<title>b_E&#45;&gt;a_E</title>
<path fill="none" stroke="#243044" stroke-width="2.2" stroke-dasharray="5,2" d="M315.93,-77.32C317.31,-84.47 318.52,-91.91 319.25,-98.95 321.6,-121.5 321.6,-127.41 319.25,-149.95 318.86,-153.7 318.34,-157.55 317.73,-161.41"/>
<polygon fill="#243044" stroke="#243044" stroke-width="2.2" points="315.28,-160.78 316.51,-168.31 320.24,-161.66 315.28,-160.78"/>
<text xml:space="preserve" text-anchor="middle" x="314.38" y="-120.78" font-family="Helvetica,sans-Serif" font-size="9.00" fill="#667085">b_E_to_a_E</text>
</g>
<!-- b_E&#45;&gt;a_I -->
<g id="e_n_b_E_to_a_I" class="edge edge excitatory feedback">
<title>b_E&#45;&gt;a_I</title>
<path fill="none" stroke="#243044" stroke-width="2.2" stroke-dasharray="5,2" d="M369.91,-77.47C405.55,-99.75 450.38,-127.76 487.4,-150.91"/>
<polygon fill="#243044" stroke="#243044" stroke-width="2.2" points="485.88,-152.93 493.32,-154.61 488.55,-148.65 485.88,-152.93"/>
<text xml:space="preserve" text-anchor="middle" x="433.09" y="-132.22" font-family="Helvetica,sans-Serif" font-size="9.00" fill="#667085">b_E_to_a_I</text>
</g>
<!-- b_E&#45;&gt;b_I -->
<g id="e_n_b_E_to_I" class="edge edge excitatory recurrent">
<title>b_E&#45;&gt;b_I</title>
<path fill="none" stroke="#243044" stroke-width="2.2" d="M371.86,-42.55C405.99,-44.73 448.11,-47.41 483.71,-49.68"/>
<polygon fill="#243044" stroke="#243044" stroke-width="2.2" points="483.38,-52.18 490.72,-50.13 483.7,-47.15 483.38,-52.18"/>
<text xml:space="preserve" text-anchor="middle" x="433.09" y="-49.09" font-family="Helvetica,sans-Serif" font-size="9.00" fill="#667085">b_E_to_I</text>
</g>
<!-- b_I&#45;&gt;b_E -->
<g id="e_n_b_I_to_E" class="edge edge inhibitory recurrent">
<title>b_I&#45;&gt;b_E</title>
<path fill="none" stroke="#c44a55" stroke-width="2.2" d="M494.24,-33.41C481.91,-30.21 469.01,-27.41 456.71,-25.7 430.21,-22.04 400.92,-23.38 375.35,-26.3"/>
<polygon fill="#c44a55" stroke="#c44a55" stroke-width="2.2" points="373.44,-30.14 372.6,-22.99 374.03,-22.82 374.87,-29.98 373.44,-30.14"/>
<polyline fill="none" stroke="#c44a55" stroke-width="2.2" points="372.3,-26.65 375.88,-26.23"/>
<text xml:space="preserve" text-anchor="middle" x="433.09" y="-26.9" font-family="Helvetica,sans-Serif" font-size="9.00" fill="#667085">b_I_to_E</text>
</g>
<!-- drive_a -->
<g id="n_drive_a" class="node node input">
<title>drive_a</title>
<path fill="#f5f7fa" stroke="#cbd5e1" d="M88.29,-247.47C88.29,-247.47 12,-247.47 12,-247.47 6,-247.47 0,-241.47 0,-235.47 0,-235.47 0,-185.44 0,-185.44 0,-179.44 6,-173.44 12,-173.44 12,-173.44 88.29,-173.44 88.29,-173.44 94.29,-173.44 100.29,-179.44 100.29,-185.44 100.29,-185.44 100.29,-235.47 100.29,-235.47 100.29,-241.47 94.29,-247.47 88.29,-247.47"/>
<text xml:space="preserve" text-anchor="start" x="11.52" y="-225.58" font-family="Helvetica,sans-Serif" font-weight="bold" font-size="15.00" fill="#243044">drive_a</text>
<text xml:space="preserve" text-anchor="start" x="11.52" y="-208.58" font-family="Helvetica,sans-Serif" font-size="10.00" fill="#667085">time × batch × 80</text>
<polygon fill="#f5f7fa" stroke="none" points="11.52,-182.08 11.52,-199.83 88.77,-199.83 88.77,-182.08 11.52,-182.08"/>
<text xml:space="preserve" text-anchor="start" x="15.52" y="-187.28" font-family="Helvetica,sans-Serif" font-size="9.00" fill="#243044">SPIKES</text>
</g>
<!-- drive_b -->
<g id="n_drive_b" class="node node input">
<title>drive_b</title>
<path fill="#f5f7fa" stroke="#cbd5e1" d="M88.29,-75.47C88.29,-75.47 12,-75.47 12,-75.47 6,-75.47 0,-69.47 0,-63.47 0,-63.47 0,-13.44 0,-13.44 0,-7.44 6,-1.44 12,-1.44 12,-1.44 88.29,-1.44 88.29,-1.44 94.29,-1.44 100.29,-7.44 100.29,-13.44 100.29,-13.44 100.29,-63.47 100.29,-63.47 100.29,-69.47 94.29,-75.47 88.29,-75.47"/>
<text xml:space="preserve" text-anchor="start" x="11.52" y="-53.58" font-family="Helvetica,sans-Serif" font-weight="bold" font-size="15.00" fill="#243044">drive_b</text>
<text xml:space="preserve" text-anchor="start" x="11.52" y="-36.58" font-family="Helvetica,sans-Serif" font-size="10.00" fill="#667085">time × batch × 80</text>
<polygon fill="#f5f7fa" stroke="none" points="11.52,-10.08 11.52,-27.83 88.77,-27.83 88.77,-10.08 11.52,-10.08"/>
<text xml:space="preserve" text-anchor="start" x="15.52" y="-15.28" font-family="Helvetica,sans-Serif" font-size="9.00" fill="#243044">SPIKES</text>
</g>
<!-- a_E -->
<g id="n_a_E" class="node node population spiking">
<title>a_E</title>
<path fill="#ffffff" stroke="#b8c4d1" stroke-width="1.4" d="M359.46,-248.91C359.46,-248.91 253.54,-248.91 253.54,-248.91 247.54,-248.91 241.54,-242.91 241.54,-236.91 241.54,-236.91 241.54,-184 241.54,-184 241.54,-178 247.54,-172 253.54,-172 253.54,-172 359.46,-172 359.46,-172 365.46,-172 371.46,-178 371.46,-184 371.46,-184 371.46,-236.91 371.46,-236.91 371.46,-242.91 365.46,-248.91 359.46,-248.91"/>
<text xml:space="preserve" text-anchor="start" x="254.5" y="-225.58" font-family="Helvetica,sans-Serif" font-weight="bold" font-size="15.00" fill="#243044">a_E</text>
<text xml:space="preserve" text-anchor="start" x="254.5" y="-208.58" font-family="Helvetica,sans-Serif" font-size="10.00" fill="#667085">80 units · coba_lif</text>
<polygon fill="#f5f7fa" stroke="none" points="254.5,-182.08 254.5,-199.83 358.5,-199.83 358.5,-182.08 254.5,-182.08"/>
<text xml:space="preserve" text-anchor="start" x="258.5" y="-187.28" font-family="Helvetica,sans-Serif" font-size="9.00" fill="#243044">SPIKING POPULATION</text>
</g>
<!-- a_I -->
<g id="n_a_I" class="node node population spiking">
<title>a_I</title>
<path fill="#ffffff" stroke="#b8c4d1" stroke-width="1.4" d="M612.63,-233.91C612.63,-233.91 506.71,-233.91 506.71,-233.91 500.71,-233.91 494.71,-227.91 494.71,-221.91 494.71,-221.91 494.71,-169 494.71,-169 494.71,-163 500.71,-157 506.71,-157 506.71,-157 612.63,-157 612.63,-157 618.63,-157 624.63,-163 624.63,-169 624.63,-169 624.63,-221.91 624.63,-221.91 624.63,-227.91 618.63,-233.91 612.63,-233.91"/>
<text xml:space="preserve" text-anchor="start" x="507.67" y="-210.58" font-family="Helvetica,sans-Serif" font-weight="bold" font-size="15.00" fill="#243044">a_I</text>
<text xml:space="preserve" text-anchor="start" x="507.67" y="-193.58" font-family="Helvetica,sans-Serif" font-size="10.00" fill="#667085">20 units · coba_lif</text>
<polygon fill="#f5f7fa" stroke="none" points="507.67,-167.08 507.67,-184.83 611.67,-184.83 611.67,-167.08 507.67,-167.08"/>
<text xml:space="preserve" text-anchor="start" x="511.67" y="-172.28" font-family="Helvetica,sans-Serif" font-size="9.00" fill="#243044">SPIKING POPULATION</text>
</g>
<!-- b_E -->
<g id="n_b_E" class="node node population spiking">
<title>b_E</title>
<path fill="#ffffff" stroke="#b8c4d1" stroke-width="1.4" d="M359.46,-76.91C359.46,-76.91 253.54,-76.91 253.54,-76.91 247.54,-76.91 241.54,-70.91 241.54,-64.91 241.54,-64.91 241.54,-12 241.54,-12 241.54,-6 247.54,0 253.54,0 253.54,0 359.46,0 359.46,0 365.46,0 371.46,-6 371.46,-12 371.46,-12 371.46,-64.91 371.46,-64.91 371.46,-70.91 365.46,-76.91 359.46,-76.91"/>
<text xml:space="preserve" text-anchor="start" x="254.5" y="-53.58" font-family="Helvetica,sans-Serif" font-weight="bold" font-size="15.00" fill="#243044">b_E</text>
<text xml:space="preserve" text-anchor="start" x="254.5" y="-36.58" font-family="Helvetica,sans-Serif" font-size="10.00" fill="#667085">80 units · coba_lif</text>
<polygon fill="#f5f7fa" stroke="none" points="254.5,-10.08 254.5,-27.83 358.5,-27.83 358.5,-10.08 254.5,-10.08"/>
<text xml:space="preserve" text-anchor="start" x="258.5" y="-15.28" font-family="Helvetica,sans-Serif" font-size="9.00" fill="#243044">SPIKING POPULATION</text>
</g>
<!-- b_I -->
<g id="n_b_I" class="node node population spiking">
<title>b_I</title>
<path fill="#ffffff" stroke="#b8c4d1" stroke-width="1.4" d="M612.63,-92.91C612.63,-92.91 506.71,-92.91 506.71,-92.91 500.71,-92.91 494.71,-86.91 494.71,-80.91 494.71,-80.91 494.71,-28 494.71,-28 494.71,-22 500.71,-16 506.71,-16 506.71,-16 612.63,-16 612.63,-16 618.63,-16 624.63,-22 624.63,-28 624.63,-28 624.63,-80.91 624.63,-80.91 624.63,-86.91 618.63,-92.91 612.63,-92.91"/>
<text xml:space="preserve" text-anchor="start" x="507.67" y="-69.58" font-family="Helvetica,sans-Serif" font-weight="bold" font-size="15.00" fill="#243044">b_I</text>
<text xml:space="preserve" text-anchor="start" x="507.67" y="-52.58" font-family="Helvetica,sans-Serif" font-size="10.00" fill="#667085">20 units · coba_lif</text>
<polygon fill="#f5f7fa" stroke="none" points="507.67,-26.08 507.67,-43.83 611.67,-43.83 611.67,-26.08 507.67,-26.08"/>
<text xml:space="preserve" text-anchor="start" x="511.67" y="-31.28" font-family="Helvetica,sans-Serif" font-size="9.00" fill="#243044">SPIKING POPULATION</text>
</g>
</g>
</svg>
