<?xml version="1.0" encoding="utf-8" standalone="no"?>
<!DOCTYPE svg PUBLIC "-//W3C//DTD SVG 1.1//EN"
  "http://www.w3.org/Graphics/SVG/1.1/DTD/svg11.dtd">
<svg xmlns:xlink="http://www.w3.org/1999/xlink" width="438.307656pt" height="267.48pt" viewBox="0 0 438.307656 267.48" xmlns="http://www.w3.org/2000/svg" version="1.1">
 <metadata>
  <rdf:RDF xmlns:dc="http://purl.org/dc/elements/1.1/" xmlns:cc="http://creativecommons.org/ns#" xmlns:rdf="http://www.w3.org/1999/02/22-rdf-syntax-ns#">
   <cc:Work>
    <dc:type rdf:resource="http://purl.org/dc/dcmitype/StillImage"/>
    <dc:date>2026-07-06T16:55:43.169425</dc:date>
    <dc:format>image/svg+xml</dc:format>
    <dc:creator>
     <cc:Agent>
      <dc:title>Matplotlib v3.10.8, https://matplotlib.org/</dc:title>
     </cc:Agent>
    </dc:creator>
   </cc:Work>
  </rdf:RDF>
 </metadata>
 <defs>
  <style type="text/css">*{stroke-linejoin: round; stroke-linecap: butt}</style>
 </defs>
 <g id="figure_1">
  <g id="patch_1">
   <path d="M 0 267.48 
L 438.307656 267.48 
L 438.307656 0 
L 0 0 
z
" style="fill: #ffffff"/>
  </g>
  <g id="axes_1">
   <g id="patch_2">
    <path d="M 29.707656 136.620261 
L 392.407656 136.620261 
L 392.407656 1.44 
L 29.707656 1.44 
z
" style="fill: #ffffff"/>
   </g>
   <g id="matplotlib.axis_1">
    <g id="xtick_1">
     <g id="line2d_1">
      <defs>
       <path id="m00814270dc" d="M 0 0 
L 0 -3 
" style="stroke: #1a1a1a; stroke-width: 0.8"/>
      </defs>
      <g>
       <use xlink:href="#m00814270dc" x="46.19402" y="136.620261" style="fill: #1a1a1a; stroke: #1a1a1a; stroke-width: 0.8"/>
      </g>
     </g>
    </g>
    <g id="xtick_2">
     <g id="line2d_2">
      <g>
       <use xlink:href="#m00814270dc" x="105.111632" y="136.620261" style="fill: #1a1a1a; stroke: #1a1a1a; stroke-width: 0.8"/>
      </g>
     </g>
    </g>
    <g id="xtick_3">
     <g id="line2d_3">
      <g>
       <use xlink:href="#m00814270dc" x="164.029245" y="136.620261" style="fill: #1a1a1a; stroke: #1a1a1a; stroke-width: 0.8"/>
      </g>
     </g>
    </g>
    <g id="xtick_4">
     <g id="line2d_4">
      <g>
       <use xlink:href="#m00814270dc" x="222.946857" y="136.620261" style="fill: #1a1a1a; stroke: #1a1a1a; stroke-width: 0.8"/>
      </g>
     </g>
    </g>
    <g id="xtick_5">
     <g id="line2d_5">
      <g>
       <use xlink:href="#m00814270dc" x="281.864469" y="136.620261" style="fill: #1a1a1a; stroke: #1a1a1a; stroke-width: 0.8"/>
      </g>
     </g>
    </g>
    <g id="xtick_6">
     <g id="line2d_6">
      <g>
       <use xlink:href="#m00814270dc" x="340.782082" y="136.620261" style="fill: #1a1a1a; stroke: #1a1a1a; stroke-width: 0.8"/>
      </g>
     </g>
    </g>
   </g>
   <g id="matplotlib.axis_2">
    <g id="ytick_1">
     <g id="line2d_7">
      <defs>
       <path id="md7e968013e" d="M 0 0 
L 3 0 
" style="stroke: #1a1a1a; stroke-width: 0.8"/>
      </defs>
      <g>
       <use xlink:href="#md7e968013e" x="29.707656" y="120.291542" style="fill: #1a1a1a; stroke: #1a1a1a; stroke-width: 0.8"/>
      </g>
     </g>
     <g id="text_1">
      <!-- 2 -->
      <g style="fill: #1a1a1a" transform="translate(21.993438 122.960839) scale(0.07 -0.07)">
       <defs>
        <path id="Menlo-Regular-32" d="M 1166 531 
L 3309 531 
L 3309 0 
L 475 0 
L 475 531 
Q 1059 1147 1496 1619 
Q 1934 2091 2100 2284 
Q 2413 2666 2522 2902 
Q 2631 3138 2631 3384 
Q 2631 3775 2401 3997 
Q 2172 4219 1772 4219 
Q 1488 4219 1175 4116 
Q 863 4013 513 3803 
L 513 4441 
Q 834 4594 1145 4672 
Q 1456 4750 1759 4750 
Q 2444 4750 2861 4386 
Q 3278 4022 3278 3431 
Q 3278 3131 3139 2831 
Q 3000 2531 2688 2169 
Q 2513 1966 2180 1606 
Q 1847 1247 1166 531 
z
" transform="scale(0.015625)"/>
       </defs>
       <use xlink:href="#Menlo-Regular-32"/>
      </g>
     </g>
    </g>
    <g id="ytick_2">
     <g id="line2d_8">
      <g>
       <use xlink:href="#md7e968013e" x="29.707656" y="96.354122" style="fill: #1a1a1a; stroke: #1a1a1a; stroke-width: 0.8"/>
      </g>
     </g>
     <g id="text_2">
      <!-- 4 -->
      <g style="fill: #1a1a1a" transform="translate(21.993438 99.023419) scale(0.07 -0.07)">
       <defs>
        <path id="Menlo-Regular-34" d="M 2297 4091 
L 825 1625 
L 2297 1625 
L 2297 4091 
z
M 2194 4666 
L 2925 4666 
L 2925 1625 
L 3547 1625 
L 3547 1113 
L 2925 1113 
L 2925 0 
L 2297 0 
L 2297 1113 
L 319 1113 
L 319 1709 
L 2194 4666 
z
" transform="scale(0.015625)"/>
       </defs>
       <use xlink:href="#Menlo-Regular-34"/>
      </g>
     </g>
    </g>
    <g id="ytick_3">
     <g id="line2d_9">
      <g>
       <use xlink:href="#md7e968013e" x="29.707656" y="72.416702" style="fill: #1a1a1a; stroke: #1a1a1a; stroke-width: 0.8"/>
      </g>
     </g>
     <g id="text_3">
      <!-- 6 -->
      <g style="fill: #1a1a1a" transform="translate(21.993438 75.085999) scale(0.07 -0.07)">
       <defs>
        <path id="Menlo-Regular-36" d="M 3097 4563 
L 3097 3981 
Q 2900 4097 2678 4158 
Q 2456 4219 2216 4219 
Q 1616 4219 1306 3767 
Q 997 3316 997 2438 
Q 1147 2750 1412 2917 
Q 1678 3084 2022 3084 
Q 2697 3084 3067 2670 
Q 3438 2256 3438 1497 
Q 3438 741 3056 325 
Q 2675 -91 1984 -91 
Q 1172 -91 794 492 
Q 416 1075 416 2328 
Q 416 3509 870 4129 
Q 1325 4750 2188 4750 
Q 2419 4750 2650 4701 
Q 2881 4653 3097 4563 
z
M 1972 2591 
Q 1569 2591 1337 2300 
Q 1106 2009 1106 1497 
Q 1106 984 1337 693 
Q 1569 403 1972 403 
Q 2391 403 2603 679 
Q 2816 956 2816 1497 
Q 2816 2041 2603 2316 
Q 2391 2591 1972 2591 
z
" transform="scale(0.015625)"/>
       </defs>
       <use xlink:href="#Menlo-Regular-36"/>
      </g>
     </g>
    </g>
    <g id="ytick_4">
     <g id="line2d_10">
      <g>
       <use xlink:href="#md7e968013e" x="29.707656" y="48.479282" style="fill: #1a1a1a; stroke: #1a1a1a; stroke-width: 0.8"/>
      </g>
     </g>
     <g id="text_4">
      <!-- 8 -->
      <g style="fill: #1a1a1a" transform="translate(21.993438 51.148579) scale(0.07 -0.07)">
       <defs>
        <path id="Menlo-Regular-38" d="M 1925 2216 
Q 1503 2216 1273 1980 
Q 1044 1744 1044 1313 
Q 1044 881 1276 642 
Q 1509 403 1925 403 
Q 2350 403 2579 639 
Q 2809 875 2809 1313 
Q 2809 1741 2576 1978 
Q 2344 2216 1925 2216 
z
M 1375 2478 
Q 972 2581 745 2862 
Q 519 3144 519 3541 
Q 519 4097 897 4423 
Q 1275 4750 1925 4750 
Q 2578 4750 2956 4423 
Q 3334 4097 3334 3541 
Q 3334 3144 3107 2862 
Q 2881 2581 2478 2478 
Q 2947 2375 3195 2062 
Q 3444 1750 3444 1253 
Q 3444 622 3041 265 
Q 2638 -91 1925 -91 
Q 1213 -91 811 264 
Q 409 619 409 1247 
Q 409 1747 657 2061 
Q 906 2375 1375 2478 
z
M 1147 3481 
Q 1147 3106 1347 2909 
Q 1547 2713 1925 2713 
Q 2306 2713 2506 2909 
Q 2706 3106 2706 3481 
Q 2706 3863 2507 4063 
Q 2309 4263 1925 4263 
Q 1547 4263 1347 4061 
Q 1147 3859 1147 3481 
z
" transform="scale(0.015625)"/>
       </defs>
       <use xlink:href="#Menlo-Regular-38"/>
      </g>
     </g>
    </g>
    <g id="ytick_5">
     <g id="line2d_11">
      <g>
       <use xlink:href="#md7e968013e" x="29.707656" y="24.541862" style="fill: #1a1a1a; stroke: #1a1a1a; stroke-width: 0.8"/>
      </g>
     </g>
     <g id="text_5">
      <!-- 10 -->
      <g style="fill: #1a1a1a" transform="translate(17.779219 27.211159) scale(0.07 -0.07)">
       <defs>
        <path id="Menlo-Regular-31" d="M 844 528 
L 1825 528 
L 1825 4053 
L 650 3488 
L 650 4094 
L 1819 4650 
L 2450 4650 
L 2450 528 
L 3419 528 
L 3419 0 
L 844 0 
L 844 528 
z
" transform="scale(0.015625)"/>
        <path id="Menlo-Regular-30" d="M 1925 4734 
Q 2672 4734 3055 4125 
Q 3438 3516 3438 2322 
Q 3438 1128 3055 518 
Q 2672 -91 1925 -91 
Q 1178 -91 797 518 
Q 416 1128 416 2322 
Q 416 3516 797 4125 
Q 1178 4734 1925 4734 
z
M 1925 409 
Q 2369 409 2586 881 
Q 2803 1353 2803 2322 
Q 2803 2838 2741 3253 
L 1253 925 
Q 1488 409 1925 409 
z
M 1925 4234 
Q 1484 4234 1267 3762 
Q 1050 3291 1050 2322 
Q 1050 1881 1109 1497 
L 2566 3819 
Q 2328 4234 1925 4234 
z
" transform="scale(0.015625)"/>
       </defs>
       <use xlink:href="#Menlo-Regular-31"/>
       <use xlink:href="#Menlo-Regular-30" transform="translate(60.205078 0)"/>
      </g>
     </g>
    </g>
    <g id="text_6">
     <!-- Hidden E rate (Hz) -->
     <g style="fill: #1a1a1a" transform="translate(12.115469 112.376381) rotate(-90) scale(0.08 -0.08)">
      <defs>
       <path id="Menlo-Regular-48" d="M 428 4666 
L 1063 4666 
L 1063 2878 
L 2791 2878 
L 2791 4666 
L 3425 4666 
L 3425 0 
L 2791 0 
L 2791 2347 
L 1063 2347 
L 1063 0 
L 428 0 
L 428 4666 
z
" transform="scale(0.015625)"/>
       <path id="Menlo-Regular-69" d="M 988 3488 
L 2459 3488 
L 2459 447 
L 3600 447 
L 3600 0 
L 744 0 
L 744 447 
L 1884 447 
L 1884 3041 
L 988 3041 
L 988 3488 
z
M 1884 4847 
L 2459 4847 
L 2459 4122 
L 1884 4122 
L 1884 4847 
z
" transform="scale(0.015625)"/>
       <path id="Menlo-Regular-64" d="M 2681 3053 
L 2681 4863 
L 3256 4863 
L 3256 0 
L 2681 0 
L 2681 441 
Q 2538 181 2298 45 
Q 2059 -91 1747 -91 
Q 1113 -91 748 401 
Q 384 894 384 1759 
Q 384 2613 750 3098 
Q 1116 3584 1747 3584 
Q 2063 3584 2303 3448 
Q 2544 3313 2681 3053 
z
M 991 1747 
Q 991 1078 1203 737 
Q 1416 397 1831 397 
Q 2247 397 2464 740 
Q 2681 1084 2681 1747 
Q 2681 2413 2464 2755 
Q 2247 3097 1831 3097 
Q 1416 3097 1203 2756 
Q 991 2416 991 1747 
z
" transform="scale(0.015625)"/>
       <path id="Menlo-Regular-65" d="M 3500 2038 
L 3500 1756 
L 1009 1756 
L 1009 1738 
Q 984 1022 1282 709 
Q 1581 397 2125 397 
Q 2400 397 2700 484 
Q 3000 572 3341 750 
L 3341 178 
Q 3013 44 2708 -23 
Q 2403 -91 2119 -91 
Q 1303 -91 843 398 
Q 384 888 384 1747 
Q 384 2584 834 3084 
Q 1284 3584 2034 3584 
Q 2703 3584 3089 3131 
Q 3475 2678 3500 2038 
z
M 2925 2206 
Q 2888 2569 2661 2833 
Q 2434 3097 2009 3097 
Q 1594 3097 1325 2822 
Q 1056 2547 1031 2203 
L 2925 2206 
z
" transform="scale(0.015625)"/>
       <path id="Menlo-Regular-6e" d="M 3284 2169 
L 3284 0 
L 2706 0 
L 2706 2169 
Q 2706 2641 2540 2862 
Q 2375 3084 2022 3084 
Q 1619 3084 1401 2798 
Q 1184 2513 1184 1978 
L 1184 0 
L 609 0 
L 609 3500 
L 1184 3500 
L 1184 2975 
Q 1338 3275 1600 3429 
Q 1863 3584 2222 3584 
Q 2756 3584 3020 3232 
Q 3284 2881 3284 2169 
z
" transform="scale(0.015625)"/>
       <path id="Menlo-Regular-20" transform="scale(0.015625)"/>
       <path id="Menlo-Regular-45" d="M 616 4666 
L 3384 4666 
L 3384 4134 
L 1247 4134 
L 1247 2878 
L 3291 2878 
L 3291 2347 
L 1247 2347 
L 1247 531 
L 3444 531 
L 3444 0 
L 616 0 
L 616 4666 
z
" transform="scale(0.015625)"/>
       <path id="Menlo-Regular-72" d="M 3609 2778 
Q 3425 2922 3234 2987 
Q 3044 3053 2816 3053 
Q 2278 3053 1993 2715 
Q 1709 2378 1709 1741 
L 1709 0 
L 1131 0 
L 1131 3500 
L 1709 3500 
L 1709 2816 
Q 1853 3188 2151 3386 
Q 2450 3584 2859 3584 
Q 3072 3584 3256 3531 
Q 3441 3478 3609 3366 
L 3609 2778 
z
" transform="scale(0.015625)"/>
       <path id="Menlo-Regular-61" d="M 2194 1759 
L 2003 1759 
Q 1500 1759 1245 1582 
Q 991 1406 991 1056 
Q 991 741 1181 566 
Q 1372 391 1709 391 
Q 2184 391 2456 720 
Q 2728 1050 2731 1631 
L 2731 1759 
L 2194 1759 
z
M 3309 1997 
L 3309 0 
L 2731 0 
L 2731 519 
Q 2547 206 2267 57 
Q 1988 -91 1588 -91 
Q 1053 -91 734 211 
Q 416 513 416 1019 
Q 416 1603 808 1906 
Q 1200 2209 1959 2209 
L 2731 2209 
L 2731 2300 
Q 2728 2719 2518 2908 
Q 2309 3097 1850 3097 
Q 1556 3097 1256 3012 
Q 956 2928 672 2766 
L 672 3341 
Q 991 3463 1283 3523 
Q 1575 3584 1850 3584 
Q 2284 3584 2592 3456 
Q 2900 3328 3091 3072 
Q 3209 2916 3259 2686 
Q 3309 2456 3309 1997 
z
" transform="scale(0.015625)"/>
       <path id="Menlo-Regular-74" d="M 1919 4494 
L 1919 3500 
L 3225 3500 
L 3225 3053 
L 1919 3053 
L 1919 1153 
Q 1919 766 2066 612 
Q 2213 459 2578 459 
L 3225 459 
L 3225 0 
L 2522 0 
Q 1875 0 1609 259 
Q 1344 519 1344 1153 
L 1344 3053 
L 409 3053 
L 409 3500 
L 1344 3500 
L 1344 4494 
L 1919 4494 
z
" transform="scale(0.015625)"/>
       <path id="Menlo-Regular-28" d="M 2672 5169 
Q 2256 4456 2051 3748 
Q 1847 3041 1847 2322 
Q 1847 1606 2051 897 
Q 2256 188 2672 -531 
L 2172 -531 
Q 1700 213 1469 917 
Q 1238 1622 1238 2322 
Q 1238 3019 1469 3725 
Q 1700 4431 2172 5169 
L 2672 5169 
z
" transform="scale(0.015625)"/>
       <path id="Menlo-Regular-7a" d="M 709 3506 
L 3250 3506 
L 3250 2981 
L 1241 469 
L 3250 469 
L 3250 0 
L 634 0 
L 634 531 
L 2644 3047 
L 709 3047 
L 709 3506 
z
" transform="scale(0.015625)"/>
       <path id="Menlo-Regular-29" d="M 1088 5169 
L 1588 5169 
Q 2059 4431 2290 3725 
Q 2522 3019 2522 2322 
Q 2522 1619 2290 912 
Q 2059 206 1588 -531 
L 1088 -531 
Q 1503 194 1708 903 
Q 1913 1613 1913 2322 
Q 1913 3034 1708 3743 
Q 1503 4453 1088 5169 
z
" transform="scale(0.015625)"/>
      </defs>
      <use xlink:href="#Menlo-Regular-48"/>
      <use xlink:href="#Menlo-Regular-69" transform="translate(60.205078 0)"/>
      <use xlink:href="#Menlo-Regular-64" transform="translate(120.410156 0)"/>
      <use xlink:href="#Menlo-Regular-64" transform="translate(180.615234 0)"/>
      <use xlink:href="#Menlo-Regular-65" transform="translate(240.820312 0)"/>
      <use xlink:href="#Menlo-Regular-6e" transform="translate(301.025391 0)"/>
      <use xlink:href="#Menlo-Regular-20" transform="translate(361.230469 0)"/>
      <use xlink:href="#Menlo-Regular-45" transform="translate(421.435547 0)"/>
      <use xlink:href="#Menlo-Regular-20" transform="translate(481.640625 0)"/>
      <use xlink:href="#Menlo-Regular-72" transform="translate(541.845703 0)"/>
      <use xlink:href="#Menlo-Regular-61" transform="translate(602.050781 0)"/>
      <use xlink:href="#Menlo-Regular-74" transform="translate(662.255859 0)"/>
      <use xlink:href="#Menlo-Regular-65" transform="translate(722.460938 0)"/>
      <use xlink:href="#Menlo-Regular-20" transform="translate(782.666016 0)"/>
      <use xlink:href="#Menlo-Regular-28" transform="translate(842.871094 0)"/>
      <use xlink:href="#Menlo-Regular-48" transform="translate(903.076172 0)"/>
      <use xlink:href="#Menlo-Regular-7a" transform="translate(963.28125 0)"/>
      <use xlink:href="#Menlo-Regular-29" transform="translate(1023.486328 0)"/>
     </g>
    </g>
   </g>
   <g id="LineCollection_1">
    <path d="M 345.073847 21.215876 
L 346.818325 21.215876 
" clip-path="url(#pce933e6b8c)" style="fill: none; stroke: #1a1a1a; stroke-width: 1.3"/>
   </g>
   <g id="LineCollection_2">
    <path d="M 345.946086 21.859937 
L 345.946086 20.571814 
" clip-path="url(#pce933e6b8c)" style="fill: none; stroke: #1a1a1a; stroke-width: 1.3"/>
   </g>
   <g id="line2d_12">
    <defs>
     <path id="mab4f0bd2f7" d="M 0 3 
L 0 -3 
" style="stroke: #1a1a1a"/>
    </defs>
    <g clip-path="url(#pce933e6b8c)">
     <use xlink:href="#mab4f0bd2f7" x="345.073847" y="21.215876" style="fill: #1a1a1a; stroke: #1a1a1a"/>
    </g>
   </g>
   <g id="line2d_13">
    <g clip-path="url(#pce933e6b8c)">
     <use xlink:href="#mab4f0bd2f7" x="346.818325" y="21.215876" style="fill: #1a1a1a; stroke: #1a1a1a"/>
    </g>
   </g>
   <g id="line2d_14">
    <defs>
     <path id="mfedd89eb38" d="M 3 0 
L -3 -0 
" style="stroke: #1a1a1a"/>
    </defs>
    <g clip-path="url(#pce933e6b8c)">
     <use xlink:href="#mfedd89eb38" x="345.946086" y="21.859937" style="fill: #1a1a1a; stroke: #1a1a1a"/>
    </g>
   </g>
   <g id="line2d_15">
    <g clip-path="url(#pce933e6b8c)">
     <use xlink:href="#mfedd89eb38" x="345.946086" y="20.571814" style="fill: #1a1a1a; stroke: #1a1a1a"/>
    </g>
   </g>
   <g id="LineCollection_3">
    <path d="M 304.38787 30.672791 
L 320.501023 30.672791 
" clip-path="url(#pce933e6b8c)" style="fill: none; stroke: #1a1a1a; stroke-width: 1.3"/>
   </g>
   <g id="LineCollection_4">
    <path d="M 312.444447 35.374126 
L 312.444447 25.971457 
" clip-path="url(#pce933e6b8c)" style="fill: none; stroke: #1a1a1a; stroke-width: 1.3"/>
   </g>
   <g id="line2d_16">
    <g clip-path="url(#pce933e6b8c)">
     <use xlink:href="#mab4f0bd2f7" x="304.38787" y="30.672791" style="fill: #1a1a1a; stroke: #1a1a1a"/>
    </g>
   </g>
   <g id="line2d_17">
    <g clip-path="url(#pce933e6b8c)">
     <use xlink:href="#mab4f0bd2f7" x="320.501023" y="30.672791" style="fill: #1a1a1a; stroke: #1a1a1a"/>
    </g>
   </g>
   <g id="line2d_18">
    <g clip-path="url(#pce933e6b8c)">
     <use xlink:href="#mfedd89eb38" x="312.444447" y="35.374126" style="fill: #1a1a1a; stroke: #1a1a1a"/>
    </g>
   </g>
   <g id="line2d_19">
    <g clip-path="url(#pce933e6b8c)">
     <use xlink:href="#mfedd89eb38" x="312.444447" y="25.971457" style="fill: #1a1a1a; stroke: #1a1a1a"/>
    </g>
   </g>
   <g id="LineCollection_5">
    <path d="M 258.915618 45.612193 
L 275.699913 45.612193 
" clip-path="url(#pce933e6b8c)" style="fill: none; stroke: #1a1a1a; stroke-width: 1.3"/>
   </g>
   <g id="LineCollection_6">
    <path d="M 267.307766 49.793482 
L 267.307766 41.430905 
" clip-path="url(#pce933e6b8c)" style="fill: none; stroke: #1a1a1a; stroke-width: 1.3"/>
   </g>
   <g id="line2d_20">
    <g clip-path="url(#pce933e6b8c)">
     <use xlink:href="#mab4f0bd2f7" x="258.915618" y="45.612193" style="fill: #1a1a1a; stroke: #1a1a1a"/>
    </g>
   </g>
   <g id="line2d_21">
    <g clip-path="url(#pce933e6b8c)">
     <use xlink:href="#mab4f0bd2f7" x="275.699913" y="45.612193" style="fill: #1a1a1a; stroke: #1a1a1a"/>
    </g>
   </g>
   <g id="line2d_22">
    <g clip-path="url(#pce933e6b8c)">
     <use xlink:href="#mfedd89eb38" x="267.307766" y="49.793482" style="fill: #1a1a1a; stroke: #1a1a1a"/>
    </g>
   </g>
   <g id="line2d_23">
    <g clip-path="url(#pce933e6b8c)">
     <use xlink:href="#mfedd89eb38" x="267.307766" y="41.430905" style="fill: #1a1a1a; stroke: #1a1a1a"/>
    </g>
   </g>
   <g id="LineCollection_7">
    <path d="M 241.861738 55.467581 
L 242.911383 55.467581 
" clip-path="url(#pce933e6b8c)" style="fill: none; stroke: #1a1a1a; stroke-width: 1.3"/>
   </g>
   <g id="LineCollection_8">
    <path d="M 242.38656 56.135342 
L 242.38656 54.79982 
" clip-path="url(#pce933e6b8c)" style="fill: none; stroke: #1a1a1a; stroke-width: 1.3"/>
   </g>
   <g id="line2d_24">
    <g clip-path="url(#pce933e6b8c)">
     <use xlink:href="#mab4f0bd2f7" x="241.861738" y="55.467581" style="fill: #1a1a1a; stroke: #1a1a1a"/>
    </g>
   </g>
   <g id="line2d_25">
    <g clip-path="url(#pce933e6b8c)">
     <use xlink:href="#mab4f0bd2f7" x="242.911383" y="55.467581" style="fill: #1a1a1a; stroke: #1a1a1a"/>
    </g>
   </g>
   <g id="line2d_26">
    <g clip-path="url(#pce933e6b8c)">
     <use xlink:href="#mfedd89eb38" x="242.38656" y="56.135342" style="fill: #1a1a1a; stroke: #1a1a1a"/>
    </g>
   </g>
   <g id="line2d_27">
    <g clip-path="url(#pce933e6b8c)">
     <use xlink:href="#mfedd89eb38" x="242.38656" y="54.79982" style="fill: #1a1a1a; stroke: #1a1a1a"/>
    </g>
   </g>
   <g id="LineCollection_9">
    <path d="M 186.504144 79.753167 
L 186.756378 79.753167 
" clip-path="url(#pce933e6b8c)" style="fill: none; stroke: #1a1a1a; stroke-width: 1.3"/>
   </g>
   <g id="LineCollection_10">
    <path d="M 186.630261 80.162773 
L 186.630261 79.343561 
" clip-path="url(#pce933e6b8c)" style="fill: none; stroke: #1a1a1a; stroke-width: 1.3"/>
   </g>
   <g id="line2d_28">
    <g clip-path="url(#pce933e6b8c)">
     <use xlink:href="#mab4f0bd2f7" x="186.504144" y="79.753167" style="fill: #1a1a1a; stroke: #1a1a1a"/>
    </g>
   </g>
   <g id="line2d_29">
    <g clip-path="url(#pce933e6b8c)">
     <use xlink:href="#mab4f0bd2f7" x="186.756378" y="79.753167" style="fill: #1a1a1a; stroke: #1a1a1a"/>
    </g>
   </g>
   <g id="line2d_30">
    <g clip-path="url(#pce933e6b8c)">
     <use xlink:href="#mfedd89eb38" x="186.630261" y="80.162773" style="fill: #1a1a1a; stroke: #1a1a1a"/>
    </g>
   </g>
   <g id="line2d_31">
    <g clip-path="url(#pce933e6b8c)">
     <use xlink:href="#mfedd89eb38" x="186.630261" y="79.343561" style="fill: #1a1a1a; stroke: #1a1a1a"/>
    </g>
   </g>
   <g id="LineCollection_11">
    <path d="M 165.779977 86.604905 
L 166.485615 86.604905 
" clip-path="url(#pce933e6b8c)" style="fill: none; stroke: #1a1a1a; stroke-width: 1.3"/>
   </g>
   <g id="LineCollection_12">
    <path d="M 166.132796 86.841442 
L 166.132796 86.368368 
" clip-path="url(#pce933e6b8c)" style="fill: none; stroke: #1a1a1a; stroke-width: 1.3"/>
   </g>
   <g id="line2d_32">
    <g clip-path="url(#pce933e6b8c)">
     <use xlink:href="#mab4f0bd2f7" x="165.779977" y="86.604905" style="fill: #1a1a1a; stroke: #1a1a1a"/>
    </g>
   </g>
   <g id="line2d_33">
    <g clip-path="url(#pce933e6b8c)">
     <use xlink:href="#mab4f0bd2f7" x="166.485615" y="86.604905" style="fill: #1a1a1a; stroke: #1a1a1a"/>
    </g>
   </g>
   <g id="line2d_34">
    <g clip-path="url(#pce933e6b8c)">
     <use xlink:href="#mfedd89eb38" x="166.132796" y="86.841442" style="fill: #1a1a1a; stroke: #1a1a1a"/>
    </g>
   </g>
   <g id="line2d_35">
    <g clip-path="url(#pce933e6b8c)">
     <use xlink:href="#mfedd89eb38" x="166.132796" y="86.368368" style="fill: #1a1a1a; stroke: #1a1a1a"/>
    </g>
   </g>
   <g id="line2d_36">
    <path d="M 46.19402 130.475704 
L 375.921293 7.584557 
L 375.921293 7.584557 
" clip-path="url(#pce933e6b8c)" style="fill: none; stroke-dasharray: 4.44,1.92; stroke-dashoffset: 0; stroke: #c8102e; stroke-width: 1.2"/>
   </g>
   <g id="line2d_37">
    <defs>
     <path id="m951fe93972" d="M 0 3 
C 0.795609 3 1.55874 2.683901 2.12132 2.12132 
C 2.683901 1.55874 3 0.795609 3 0 
C 3 -0.795609 2.683901 -1.55874 2.12132 -2.12132 
C 1.55874 -2.683901 0.795609 -3 0 -3 
C -0.795609 -3 -1.55874 -2.683901 -2.12132 -2.12132 
C -2.683901 -1.55874 -3 -0.795609 -3 0 
C -3 0.795609 -2.683901 1.55874 -2.12132 2.12132 
C -1.55874 2.683901 -0.795609 3 0 3 
z
" style="stroke: #1a1a1a"/>
    </defs>
    <g clip-path="url(#pce933e6b8c)">
     <use xlink:href="#m951fe93972" x="345.946086" y="21.215876" style="fill: #1a1a1a; stroke: #1a1a1a"/>
    </g>
   </g>
   <g id="line2d_38">
    <g clip-path="url(#pce933e6b8c)">
     <use xlink:href="#m951fe93972" x="312.444447" y="30.672791" style="fill: #1a1a1a; stroke: #1a1a1a"/>
    </g>
   </g>
   <g id="line2d_39">
    <g clip-path="url(#pce933e6b8c)">
     <use xlink:href="#m951fe93972" x="267.307766" y="45.612193" style="fill: #1a1a1a; stroke: #1a1a1a"/>
    </g>
   </g>
   <g id="line2d_40">
    <g clip-path="url(#pce933e6b8c)">
     <use xlink:href="#m951fe93972" x="242.38656" y="55.467581" style="fill: #1a1a1a; stroke: #1a1a1a"/>
    </g>
   </g>
   <g id="line2d_41">
    <g clip-path="url(#pce933e6b8c)">
     <use xlink:href="#m951fe93972" x="186.630261" y="79.753167" style="fill: #1a1a1a; stroke: #1a1a1a"/>
    </g>
   </g>
   <g id="line2d_42">
    <g clip-path="url(#pce933e6b8c)">
     <use xlink:href="#m951fe93972" x="166.132796" y="86.604905" style="fill: #1a1a1a; stroke: #1a1a1a"/>
    </g>
   </g>
   <g id="patch_3">
    <path d="M 29.707656 136.620261 
L 29.707656 1.44 
" style="fill: none; stroke: #1a1a1a; stroke-width: 0.8; stroke-linejoin: miter; stroke-linecap: square"/>
   </g>
   <g id="patch_4">
    <path d="M 29.707656 136.620261 
L 392.407656 136.620261 
" style="fill: none; stroke: #1a1a1a; stroke-width: 0.8; stroke-linejoin: miter; stroke-linecap: square"/>
   </g>
   <g id="text_7">
    <!--  4.5 ms -->
    <g style="fill: #666666" transform="translate(354.946086 23.01861) scale(0.065 -0.065)">
     <defs>
      <path id="Menlo-Regular-2e" d="M 1216 1263 
L 2316 1263 
L 2316 0 
L 1216 0 
L 1216 1263 
z
" transform="scale(0.015625)"/>
      <path id="Menlo-Regular-35" d="M 647 4666 
L 3009 4666 
L 3009 4134 
L 1222 4134 
L 1222 2988 
Q 1356 3038 1492 3061 
Q 1628 3084 1766 3084 
Q 2491 3084 2916 2656 
Q 3341 2228 3341 1497 
Q 3341 759 2895 334 
Q 2450 -91 1678 -91 
Q 1306 -91 998 -41 
Q 691 9 447 109 
L 447 750 
Q 734 594 1025 517 
Q 1316 441 1619 441 
Q 2141 441 2423 716 
Q 2706 991 2706 1497 
Q 2706 1997 2414 2275 
Q 2122 2553 1600 2553 
Q 1347 2553 1106 2495 
Q 866 2438 647 2322 
L 647 4666 
z
" transform="scale(0.015625)"/>
      <path id="Menlo-Regular-6d" d="M 2113 3144 
Q 2219 3369 2383 3476 
Q 2547 3584 2778 3584 
Q 3200 3584 3373 3257 
Q 3547 2931 3547 2028 
L 3547 0 
L 3022 0 
L 3022 2003 
Q 3022 2744 2939 2923 
Q 2856 3103 2638 3103 
Q 2388 3103 2295 2911 
Q 2203 2719 2203 2003 
L 2203 0 
L 1678 0 
L 1678 2003 
Q 1678 2753 1589 2928 
Q 1500 3103 1269 3103 
Q 1041 3103 952 2911 
Q 863 2719 863 2003 
L 863 0 
L 341 0 
L 341 3500 
L 863 3500 
L 863 3200 
Q 966 3388 1120 3486 
Q 1275 3584 1472 3584 
Q 1709 3584 1867 3475 
Q 2025 3366 2113 3144 
z
" transform="scale(0.015625)"/>
      <path id="Menlo-Regular-73" d="M 3041 3378 
L 3041 2816 
Q 2794 2959 2544 3031 
Q 2294 3103 2034 3103 
Q 1644 3103 1451 2976 
Q 1259 2850 1259 2591 
Q 1259 2356 1403 2240 
Q 1547 2125 2119 2016 
L 2350 1972 
Q 2778 1891 2998 1647 
Q 3219 1403 3219 1013 
Q 3219 494 2850 201 
Q 2481 -91 1825 -91 
Q 1566 -91 1281 -36 
Q 997 19 666 128 
L 666 722 
Q 988 556 1281 473 
Q 1575 391 1838 391 
Q 2219 391 2428 545 
Q 2638 700 2638 978 
Q 2638 1378 1872 1531 
L 1847 1538 
L 1631 1581 
Q 1134 1678 906 1908 
Q 678 2138 678 2534 
Q 678 3038 1018 3311 
Q 1359 3584 1991 3584 
Q 2272 3584 2531 3532 
Q 2791 3481 3041 3378 
z
" transform="scale(0.015625)"/>
     </defs>
     <use xlink:href="#Menlo-Regular-20"/>
     <use xlink:href="#Menlo-Regular-34" transform="translate(60.205078 0)"/>
     <use xlink:href="#Menlo-Regular-2e" transform="translate(120.410156 0)"/>
     <use xlink:href="#Menlo-Regular-35" transform="translate(180.615234 0)"/>
     <use xlink:href="#Menlo-Regular-20" transform="translate(240.820312 0)"/>
     <use xlink:href="#Menlo-Regular-6d" transform="translate(301.025391 0)"/>
     <use xlink:href="#Menlo-Regular-73" transform="translate(361.230469 0)"/>
    </g>
   </g>
   <g id="text_8">
    <!--  6 ms -->
    <g style="fill: #666666" transform="translate(321.444447 32.475526) scale(0.065 -0.065)">
     <use xlink:href="#Menlo-Regular-20"/>
     <use xlink:href="#Menlo-Regular-36" transform="translate(60.205078 0)"/>
     <use xlink:href="#Menlo-Regular-20" transform="translate(120.410156 0)"/>
     <use xlink:href="#Menlo-Regular-6d" transform="translate(180.615234 0)"/>
     <use xlink:href="#Menlo-Regular-73" transform="translate(240.820312 0)"/>
    </g>
   </g>
   <g id="text_9">
    <!--  9 ms -->
    <g style="fill: #666666" transform="translate(276.307766 47.414928) scale(0.065 -0.065)">
     <defs>
      <path id="Menlo-Regular-39" d="M 1863 2069 
Q 2266 2069 2495 2359 
Q 2725 2650 2725 3163 
Q 2725 3675 2495 3965 
Q 2266 4256 1863 4256 
Q 1444 4256 1231 3979 
Q 1019 3703 1019 3163 
Q 1019 2619 1230 2344 
Q 1441 2069 1863 2069 
z
M 738 97 
L 738 678 
Q 934 563 1156 502 
Q 1378 441 1619 441 
Q 2219 441 2526 892 
Q 2834 1344 2834 2222 
Q 2688 1909 2422 1742 
Q 2156 1575 1813 1575 
Q 1138 1575 767 1990 
Q 397 2406 397 3169 
Q 397 3922 776 4336 
Q 1156 4750 1850 4750 
Q 2663 4750 3041 4165 
Q 3419 3581 3419 2328 
Q 3419 1150 2964 529 
Q 2509 -91 1644 -91 
Q 1416 -91 1184 -42 
Q 953 6 738 97 
z
" transform="scale(0.015625)"/>
     </defs>
     <use xlink:href="#Menlo-Regular-20"/>
     <use xlink:href="#Menlo-Regular-39" transform="translate(60.205078 0)"/>
     <use xlink:href="#Menlo-Regular-20" transform="translate(120.410156 0)"/>
     <use xlink:href="#Menlo-Regular-6d" transform="translate(180.615234 0)"/>
     <use xlink:href="#Menlo-Regular-73" transform="translate(240.820312 0)"/>
    </g>
   </g>
   <g id="text_10">
    <!--  12 ms -->
    <g style="fill: #666666" transform="translate(251.38656 57.270315) scale(0.065 -0.065)">
     <use xlink:href="#Menlo-Regular-20"/>
     <use xlink:href="#Menlo-Regular-31" transform="translate(60.205078 0)"/>
     <use xlink:href="#Menlo-Regular-32" transform="translate(120.410156 0)"/>
     <use xlink:href="#Menlo-Regular-20" transform="translate(180.615234 0)"/>
     <use xlink:href="#Menlo-Regular-6d" transform="translate(240.820312 0)"/>
     <use xlink:href="#Menlo-Regular-73" transform="translate(301.025391 0)"/>
    </g>
   </g>
   <g id="text_11">
    <!--  18 ms -->
    <g style="fill: #666666" transform="translate(195.630261 81.555901) scale(0.065 -0.065)">
     <use xlink:href="#Menlo-Regular-20"/>
     <use xlink:href="#Menlo-Regular-31" transform="translate(60.205078 0)"/>
     <use xlink:href="#Menlo-Regular-38" transform="translate(120.410156 0)"/>
     <use xlink:href="#Menlo-Regular-20" transform="translate(180.615234 0)"/>
     <use xlink:href="#Menlo-Regular-6d" transform="translate(240.820312 0)"/>
     <use xlink:href="#Menlo-Regular-73" transform="translate(301.025391 0)"/>
    </g>
   </g>
   <g id="text_12">
    <!--  27 ms -->
    <g style="fill: #666666" transform="translate(175.132796 88.40764) scale(0.065 -0.065)">
     <defs>
      <path id="Menlo-Regular-37" d="M 434 4666 
L 3372 4666 
L 3372 4397 
L 1703 0 
L 1044 0 
L 2669 4134 
L 434 4134 
L 434 4666 
z
" transform="scale(0.015625)"/>
     </defs>
     <use xlink:href="#Menlo-Regular-20"/>
     <use xlink:href="#Menlo-Regular-32" transform="translate(60.205078 0)"/>
     <use xlink:href="#Menlo-Regular-37" transform="translate(120.410156 0)"/>
     <use xlink:href="#Menlo-Regular-20" transform="translate(180.615234 0)"/>
     <use xlink:href="#Menlo-Regular-6d" transform="translate(240.820312 0)"/>
     <use xlink:href="#Menlo-Regular-73" transform="translate(301.025391 0)"/>
    </g>
   </g>
   <g id="legend_1">
    <g id="line2d_43">
     <path d="M 36.007656 10.96 
L 41.607656 10.96 
L 47.207656 10.96 
" style="fill: none; stroke-dasharray: 4.44,1.92; stroke-dashoffset: 0; stroke: #c8102e; stroke-width: 1.2"/>
    </g>
    <g id="text_13">
     <!-- $r_E = a + p · f_γ$  (a = 1.15 Hz, p = 0.183, R² = 0.994) -->
     <g style="fill: #1a1a1a" transform="translate(52.807656 13.41) scale(0.07 -0.07)">
      <defs>
       <path id="DejaVuSans-Oblique-72" d="M 2853 2969 
Q 2766 3016 2653 3041 
Q 2541 3066 2413 3066 
Q 1953 3066 1609 2717 
Q 1266 2369 1153 1784 
L 800 0 
L 225 0 
L 909 3500 
L 1484 3500 
L 1375 2956 
Q 1603 3259 1920 3421 
Q 2238 3584 2597 3584 
Q 2691 3584 2781 3573 
Q 2872 3563 2963 3538 
L 2853 2969 
z
" transform="scale(0.015625)"/>
       <path id="DejaVuSans-Oblique-45" d="M 1081 4666 
L 4031 4666 
L 3928 4134 
L 1606 4134 
L 1338 2753 
L 3566 2753 
L 3463 2222 
L 1234 2222 
L 909 531 
L 3284 531 
L 3181 0 
L 172 0 
L 1081 4666 
z
" transform="scale(0.015625)"/>
       <path id="DejaVuSans-3d" d="M 678 2906 
L 4684 2906 
L 4684 2381 
L 678 2381 
L 678 2906 
z
M 678 1631 
L 4684 1631 
L 4684 1100 
L 678 1100 
L 678 1631 
z
" transform="scale(0.015625)"/>
       <path id="DejaVuSans-Oblique-61" d="M 3438 1997 
L 3047 0 
L 2472 0 
L 2578 531 
Q 2325 219 2001 64 
Q 1678 -91 1281 -91 
Q 834 -91 548 182 
Q 263 456 263 884 
Q 263 1497 752 1853 
Q 1241 2209 2100 2209 
L 2900 2209 
L 2931 2363 
Q 2938 2388 2941 2417 
Q 2944 2447 2944 2509 
Q 2944 2788 2717 2942 
Q 2491 3097 2081 3097 
Q 1800 3097 1504 3025 
Q 1209 2953 897 2809 
L 997 3341 
Q 1322 3463 1633 3523 
Q 1944 3584 2234 3584 
Q 2853 3584 3176 3315 
Q 3500 3047 3500 2534 
Q 3500 2431 3484 2292 
Q 3469 2153 3438 1997 
z
M 2816 1759 
L 2241 1759 
Q 1534 1759 1195 1570 
Q 856 1381 856 984 
Q 856 709 1029 553 
Q 1203 397 1509 397 
Q 1978 397 2328 733 
Q 2678 1069 2791 1631 
L 2816 1759 
z
" transform="scale(0.015625)"/>
       <path id="DejaVuSans-2b" d="M 2944 4013 
L 2944 2272 
L 4684 2272 
L 4684 1741 
L 2944 1741 
L 2944 0 
L 2419 0 
L 2419 1741 
L 678 1741 
L 678 2272 
L 2419 2272 
L 2419 4013 
L 2944 4013 
z
" transform="scale(0.015625)"/>
       <path id="DejaVuSans-Oblique-70" d="M 3175 2156 
Q 3175 2616 2975 2859 
Q 2775 3103 2400 3103 
Q 2144 3103 1911 2972 
Q 1678 2841 1497 2591 
Q 1319 2344 1212 1994 
Q 1106 1644 1106 1300 
Q 1106 863 1306 627 
Q 1506 391 1875 391 
Q 2147 391 2380 519 
Q 2613 647 2778 891 
Q 2956 1147 3065 1494 
Q 3175 1841 3175 2156 
z
M 1394 2969 
Q 1625 3272 1939 3428 
Q 2253 3584 2638 3584 
Q 3175 3584 3472 3232 
Q 3769 2881 3769 2247 
Q 3769 1728 3584 1258 
Q 3400 788 3053 416 
Q 2822 169 2531 39 
Q 2241 -91 1919 -91 
Q 1547 -91 1294 64 
Q 1041 219 916 525 
L 556 -1331 
L -19 -1331 
L 922 3500 
L 1497 3500 
L 1394 2969 
z
" transform="scale(0.015625)"/>
       <path id="DejaVuSans-b7" d="M 684 2619 
L 1344 2619 
L 1344 1825 
L 684 1825 
L 684 2619 
z
" transform="scale(0.015625)"/>
       <path id="DejaVuSans-Oblique-66" d="M 3059 4863 
L 2969 4384 
L 2419 4384 
Q 2106 4384 1964 4261 
Q 1822 4138 1753 3809 
L 1691 3500 
L 2638 3500 
L 2553 3053 
L 1606 3053 
L 1013 0 
L 434 0 
L 1031 3053 
L 481 3053 
L 563 3500 
L 1113 3500 
L 1159 3744 
Q 1278 4363 1576 4613 
Q 1875 4863 2516 4863 
L 3059 4863 
z
" transform="scale(0.015625)"/>
       <path id="DejaVuSans-Oblique-3b3" d="M 1491 2950 
L 1838 788 
L 3456 3500 
L 4066 3500 
L 1972 0 
L 1713 -1331 
L 1138 -1331 
L 1397 0 
L 988 2613 
Q 925 3006 628 3006 
L 475 3006 
L 569 3500 
L 788 3500 
Q 1403 3500 1491 2950 
z
" transform="scale(0.015625)"/>
       <path id="Menlo-Regular-3d" d="M 275 1563 
L 3578 1563 
L 3578 1034 
L 275 1034 
L 275 1563 
z
M 275 3034 
L 3578 3034 
L 3578 2506 
L 275 2506 
L 275 3034 
z
" transform="scale(0.015625)"/>
       <path id="Menlo-Regular-2c" d="M 1381 1128 
L 2356 1128 
L 2356 300 
L 1663 -1047 
L 1038 -1050 
L 1381 300 
L 1381 1128 
z
" transform="scale(0.015625)"/>
       <path id="Menlo-Regular-70" d="M 1172 441 
L 1172 -1331 
L 594 -1331 
L 594 3500 
L 1172 3500 
L 1172 3053 
Q 1316 3313 1555 3448 
Q 1794 3584 2106 3584 
Q 2741 3584 3102 3093 
Q 3463 2603 3463 1734 
Q 3463 881 3100 395 
Q 2738 -91 2106 -91 
Q 1788 -91 1548 45 
Q 1309 181 1172 441 
z
M 2859 1747 
Q 2859 2416 2648 2756 
Q 2438 3097 2022 3097 
Q 1603 3097 1387 2755 
Q 1172 2413 1172 1747 
Q 1172 1084 1387 740 
Q 1603 397 2022 397 
Q 2438 397 2648 737 
Q 2859 1078 2859 1747 
z
" transform="scale(0.015625)"/>
       <path id="Menlo-Regular-33" d="M 2425 2497 
Q 2884 2375 3128 2064 
Q 3372 1753 3372 1288 
Q 3372 644 2939 276 
Q 2506 -91 1741 -91 
Q 1419 -91 1084 -31 
Q 750 28 428 141 
L 428 769 
Q 747 603 1056 522 
Q 1366 441 1672 441 
Q 2191 441 2469 675 
Q 2747 909 2747 1350 
Q 2747 1756 2469 1995 
Q 2191 2234 1716 2234 
L 1234 2234 
L 1234 2753 
L 1716 2753 
Q 2150 2753 2394 2943 
Q 2638 3134 2638 3475 
Q 2638 3834 2411 4026 
Q 2184 4219 1766 4219 
Q 1488 4219 1191 4156 
Q 894 4094 569 3969 
L 569 4550 
Q 947 4650 1242 4700 
Q 1538 4750 1766 4750 
Q 2447 4750 2855 4408 
Q 3263 4066 3263 3500 
Q 3263 3116 3048 2859 
Q 2834 2603 2425 2497 
z
" transform="scale(0.015625)"/>
       <path id="Menlo-Regular-52" d="M 2375 2203 
Q 2619 2141 2791 1967 
Q 2963 1794 3219 1275 
L 3853 0 
L 3175 0 
L 2619 1178 
Q 2378 1681 2186 1826 
Q 1994 1972 1684 1972 
L 1081 1972 
L 1081 0 
L 447 0 
L 447 4666 
L 1747 4666 
Q 2516 4666 2925 4319 
Q 3334 3972 3334 3316 
Q 3334 2853 3082 2561 
Q 2831 2269 2375 2203 
z
M 1081 4147 
L 1081 2491 
L 1772 2491 
Q 2225 2491 2447 2694 
Q 2669 2897 2669 3316 
Q 2669 3719 2433 3933 
Q 2197 4147 1747 4147 
L 1081 4147 
z
" transform="scale(0.015625)"/>
       <path id="Menlo-Regular-b2" d="M 1509 2444 
L 2791 2444 
L 2791 2088 
L 1006 2088 
L 1006 2431 
L 1728 3138 
Q 2044 3441 2170 3631 
Q 2297 3822 2297 3981 
Q 2297 4172 2140 4290 
Q 1984 4409 1728 4409 
Q 1575 4409 1398 4353 
Q 1222 4297 1025 4184 
L 1025 4575 
Q 1228 4663 1417 4706 
Q 1606 4750 1791 4750 
Q 2234 4750 2503 4542 
Q 2772 4334 2772 4000 
Q 2772 3822 2656 3636 
Q 2541 3450 2169 3084 
L 1509 2444 
z
" transform="scale(0.015625)"/>
      </defs>
      <use xlink:href="#DejaVuSans-Oblique-72" transform="translate(0 0.234375)"/>
      <use xlink:href="#DejaVuSans-Oblique-45" transform="translate(41.113281 -16.171875) scale(0.7)"/>
      <use xlink:href="#DejaVuSans-3d" transform="translate(107.558594 0.234375)"/>
      <use xlink:href="#DejaVuSans-Oblique-61" transform="translate(210.830078 0.234375)"/>
      <use xlink:href="#DejaVuSans-2b" transform="translate(291.591797 0.234375)"/>
      <use xlink:href="#DejaVuSans-Oblique-70" transform="translate(394.863281 0.234375)"/>
      <use xlink:href="#DejaVuSans-b7" transform="translate(458.339844 0.234375)"/>
      <use xlink:href="#DejaVuSans-Oblique-66" transform="translate(490.126953 0.234375)"/>
      <use xlink:href="#DejaVuSans-Oblique-3b3" transform="translate(525.332031 -16.171875) scale(0.7)"/>
      <use xlink:href="#Menlo-Regular-20" transform="translate(569.492188 0.234375)"/>
      <use xlink:href="#Menlo-Regular-20" transform="translate(629.697266 0.234375)"/>
      <use xlink:href="#Menlo-Regular-28" transform="translate(689.902344 0.234375)"/>
      <use xlink:href="#Menlo-Regular-61" transform="translate(750.107422 0.234375)"/>
      <use xlink:href="#Menlo-Regular-20" transform="translate(810.3125 0.234375)"/>
      <use xlink:href="#Menlo-Regular-3d" transform="translate(870.517578 0.234375)"/>
      <use xlink:href="#Menlo-Regular-20" transform="translate(930.722656 0.234375)"/>
      <use xlink:href="#Menlo-Regular-31" transform="translate(990.927734 0.234375)"/>
      <use xlink:href="#Menlo-Regular-2e" transform="translate(1051.132812 0.234375)"/>
      <use xlink:href="#Menlo-Regular-31" transform="translate(1111.337891 0.234375)"/>
      <use xlink:href="#Menlo-Regular-35" transform="translate(1171.542969 0.234375)"/>
      <use xlink:href="#Menlo-Regular-20" transform="translate(1231.748047 0.234375)"/>
      <use xlink:href="#Menlo-Regular-48" transform="translate(1291.953125 0.234375)"/>
      <use xlink:href="#Menlo-Regular-7a" transform="translate(1352.158203 0.234375)"/>
      <use xlink:href="#Menlo-Regular-2c" transform="translate(1412.363281 0.234375)"/>
      <use xlink:href="#Menlo-Regular-20" transform="translate(1472.568359 0.234375)"/>
      <use xlink:href="#Menlo-Regular-70" transform="translate(1532.773438 0.234375)"/>
      <use xlink:href="#Menlo-Regular-20" transform="translate(1592.978516 0.234375)"/>
      <use xlink:href="#Menlo-Regular-3d" transform="translate(1653.183594 0.234375)"/>
      <use xlink:href="#Menlo-Regular-20" transform="translate(1713.388672 0.234375)"/>
      <use xlink:href="#Menlo-Regular-30" transform="translate(1773.59375 0.234375)"/>
      <use xlink:href="#Menlo-Regular-2e" transform="translate(1833.798828 0.234375)"/>
      <use xlink:href="#Menlo-Regular-31" transform="translate(1894.003906 0.234375)"/>
      <use xlink:href="#Menlo-Regular-38" transform="translate(1954.208984 0.234375)"/>
      <use xlink:href="#Menlo-Regular-33" transform="translate(2014.414062 0.234375)"/>
      <use xlink:href="#Menlo-Regular-2c" transform="translate(2074.619141 0.234375)"/>
      <use xlink:href="#Menlo-Regular-20" transform="translate(2134.824219 0.234375)"/>
      <use xlink:href="#Menlo-Regular-52" transform="translate(2195.029297 0.234375)"/>
      <use xlink:href="#Menlo-Regular-b2" transform="translate(2255.234375 0.234375)"/>
      <use xlink:href="#Menlo-Regular-20" transform="translate(2315.439453 0.234375)"/>
      <use xlink:href="#Menlo-Regular-3d" transform="translate(2375.644531 0.234375)"/>
      <use xlink:href="#Menlo-Regular-20" transform="translate(2435.849609 0.234375)"/>
      <use xlink:href="#Menlo-Regular-30" transform="translate(2496.054688 0.234375)"/>
      <use xlink:href="#Menlo-Regular-2e" transform="translate(2556.259766 0.234375)"/>
      <use xlink:href="#Menlo-Regular-39" transform="translate(2616.464844 0.234375)"/>
      <use xlink:href="#Menlo-Regular-39" transform="translate(2676.669922 0.234375)"/>
      <use xlink:href="#Menlo-Regular-34" transform="translate(2736.875 0.234375)"/>
      <use xlink:href="#Menlo-Regular-29" transform="translate(2797.080078 0.234375)"/>
     </g>
    </g>
    <g id="LineCollection_13">
     <path d="M 38.107656 21.968594 
L 45.107656 21.968594 
" style="fill: none; stroke: #1a1a1a; stroke-width: 1.3"/>
    </g>
    <g id="LineCollection_14">
     <path d="M 41.607656 25.468594 
L 41.607656 18.468594 
" style="fill: none; stroke: #1a1a1a; stroke-width: 1.3"/>
    </g>
    <g id="line2d_44">
     <g>
      <use xlink:href="#mab4f0bd2f7" x="38.107656" y="21.968594" style="fill: #1a1a1a; stroke: #1a1a1a"/>
     </g>
    </g>
    <g id="line2d_45">
     <g>
      <use xlink:href="#mab4f0bd2f7" x="45.107656" y="21.968594" style="fill: #1a1a1a; stroke: #1a1a1a"/>
     </g>
    </g>
    <g id="line2d_46">
     <g>
      <use xlink:href="#mfedd89eb38" x="41.607656" y="25.468594" style="fill: #1a1a1a; stroke: #1a1a1a"/>
     </g>
    </g>
    <g id="line2d_47">
     <g>
      <use xlink:href="#mfedd89eb38" x="41.607656" y="18.468594" style="fill: #1a1a1a; stroke: #1a1a1a"/>
     </g>
    </g>
    <g id="line2d_48"/>
    <g id="line2d_49">
     <g>
      <use xlink:href="#m951fe93972" x="41.607656" y="21.968594" style="fill: #1a1a1a; stroke: #1a1a1a"/>
     </g>
    </g>
    <g id="text_14">
     <!-- τ_GABA = 6 ms -->
     <g style="fill: #1a1a1a" transform="translate(52.807656 24.418594) scale(0.07 -0.07)">
      <defs>
       <path id="Menlo-Regular-3c4" d="M 2319 638 
Q 2431 488 2769 488 
L 3047 488 
L 3047 0 
L 2700 0 
Q 2138 0 1881 300 
Q 1625 606 1625 1269 
L 1625 2925 
L 500 2925 
L 500 3494 
L 3356 3494 
L 3356 2925 
L 2213 2925 
L 2213 1234 
Q 2213 781 2319 638 
z
" transform="scale(0.015625)"/>
       <path id="Menlo-Regular-5f" d="M 3825 -594 
L 3825 -1125 
L 0 -1125 
L 0 -594 
L 3825 -594 
z
" transform="scale(0.015625)"/>
       <path id="Menlo-Regular-47" d="M 3450 384 
Q 3197 150 2880 29 
Q 2563 -91 2194 -91 
Q 1306 -91 812 545 
Q 319 1181 319 2328 
Q 319 3472 819 4111 
Q 1319 4750 2209 4750 
Q 2503 4750 2772 4667 
Q 3041 4584 3291 4416 
L 3291 3769 
Q 3038 4009 2772 4123 
Q 2506 4238 2209 4238 
Q 1594 4238 1286 3761 
Q 978 3284 978 2328 
Q 978 1356 1276 889 
Q 1575 422 2194 422 
Q 2403 422 2561 470 
Q 2719 519 2847 622 
L 2847 1875 
L 2169 1875 
L 2169 2394 
L 3450 2394 
L 3450 384 
z
" transform="scale(0.015625)"/>
       <path id="Menlo-Regular-41" d="M 1925 4109 
L 1259 1722 
L 2591 1722 
L 1925 4109 
z
M 1544 4666 
L 2309 4666 
L 3738 0 
L 3084 0 
L 2741 1216 
L 1106 1216 
L 769 0 
L 116 0 
L 1544 4666 
z
" transform="scale(0.015625)"/>
       <path id="Menlo-Regular-42" d="M 1153 2353 
L 1153 519 
L 1900 519 
Q 2450 519 2684 711 
Q 2919 903 2919 1344 
Q 2919 1925 2672 2139 
Q 2425 2353 1900 2353 
L 1153 2353 
z
M 1153 4147 
L 1153 2866 
L 1888 2866 
Q 2344 2866 2548 3041 
Q 2753 3216 2753 3481 
Q 2753 3834 2551 3990 
Q 2350 4147 1888 4147 
L 1153 4147 
z
M 519 4666 
L 1900 4666 
Q 2616 4666 3003 4356 
Q 3391 4047 3391 3481 
Q 3391 3178 3186 2931 
Q 2981 2684 2572 2622 
Q 3031 2553 3292 2229 
Q 3553 1906 3553 1281 
Q 3553 647 3137 323 
Q 2722 0 1900 0 
L 519 0 
L 519 4666 
z
" transform="scale(0.015625)"/>
      </defs>
      <use xlink:href="#Menlo-Regular-3c4"/>
      <use xlink:href="#Menlo-Regular-5f" transform="translate(60.205078 0)"/>
      <use xlink:href="#Menlo-Regular-47" transform="translate(120.410156 0)"/>
      <use xlink:href="#Menlo-Regular-41" transform="translate(180.615234 0)"/>
      <use xlink:href="#Menlo-Regular-42" transform="translate(240.820312 0)"/>
      <use xlink:href="#Menlo-Regular-41" transform="translate(301.025391 0)"/>
      <use xlink:href="#Menlo-Regular-20" transform="translate(361.230469 0)"/>
      <use xlink:href="#Menlo-Regular-3d" transform="translate(421.435547 0)"/>
      <use xlink:href="#Menlo-Regular-20" transform="translate(481.640625 0)"/>
      <use xlink:href="#Menlo-Regular-36" transform="translate(541.845703 0)"/>
      <use xlink:href="#Menlo-Regular-20" transform="translate(602.050781 0)"/>
      <use xlink:href="#Menlo-Regular-6d" transform="translate(662.255859 0)"/>
      <use xlink:href="#Menlo-Regular-73" transform="translate(722.460938 0)"/>
     </g>
    </g>
   </g>
  </g>
  <g id="axes_2">
   <g id="patch_5">
    <path d="M 29.707656 234.288 
L 392.407656 234.288 
L 392.407656 149.800337 
L 29.707656 149.800337 
z
" style="fill: #ffffff"/>
   </g>
   <g id="matplotlib.axis_3">
    <g id="xtick_7">
     <g id="line2d_50">
      <g>
       <use xlink:href="#m00814270dc" x="46.19402" y="234.288" style="fill: #1a1a1a; stroke: #1a1a1a; stroke-width: 0.8"/>
      </g>
     </g>
     <g id="text_15">
      <!-- 0 -->
      <g style="fill: #1a1a1a" transform="translate(44.086911 243.126594) scale(0.07 -0.07)">
       <use xlink:href="#Menlo-Regular-30"/>
      </g>
     </g>
    </g>
    <g id="xtick_8">
     <g id="line2d_51">
      <g>
       <use xlink:href="#m00814270dc" x="105.111632" y="234.288" style="fill: #1a1a1a; stroke: #1a1a1a; stroke-width: 0.8"/>
      </g>
     </g>
     <g id="text_16">
      <!-- 10 -->
      <g style="fill: #1a1a1a" transform="translate(100.897414 243.126594) scale(0.07 -0.07)">
       <use xlink:href="#Menlo-Regular-31"/>
       <use xlink:href="#Menlo-Regular-30" transform="translate(60.205078 0)"/>
      </g>
     </g>
    </g>
    <g id="xtick_9">
     <g id="line2d_52">
      <g>
       <use xlink:href="#m00814270dc" x="164.029245" y="234.288" style="fill: #1a1a1a; stroke: #1a1a1a; stroke-width: 0.8"/>
      </g>
     </g>
     <g id="text_17">
      <!-- 20 -->
      <g style="fill: #1a1a1a" transform="translate(159.815026 243.126594) scale(0.07 -0.07)">
       <use xlink:href="#Menlo-Regular-32"/>
       <use xlink:href="#Menlo-Regular-30" transform="translate(60.205078 0)"/>
      </g>
     </g>
    </g>
    <g id="xtick_10">
     <g id="line2d_53">
      <g>
       <use xlink:href="#m00814270dc" x="222.946857" y="234.288" style="fill: #1a1a1a; stroke: #1a1a1a; stroke-width: 0.8"/>
      </g>
     </g>
     <g id="text_18">
      <!-- 30 -->
      <g style="fill: #1a1a1a" transform="translate(218.732638 243.126594) scale(0.07 -0.07)">
       <use xlink:href="#Menlo-Regular-33"/>
       <use xlink:href="#Menlo-Regular-30" transform="translate(60.205078 0)"/>
      </g>
     </g>
    </g>
    <g id="xtick_11">
     <g id="line2d_54">
      <g>
       <use xlink:href="#m00814270dc" x="281.864469" y="234.288" style="fill: #1a1a1a; stroke: #1a1a1a; stroke-width: 0.8"/>
      </g>
     </g>
     <g id="text_19">
      <!-- 40 -->
      <g style="fill: #1a1a1a" transform="translate(277.650251 243.126594) scale(0.07 -0.07)">
       <use xlink:href="#Menlo-Regular-34"/>
       <use xlink:href="#Menlo-Regular-30" transform="translate(60.205078 0)"/>
      </g>
     </g>
    </g>
    <g id="xtick_12">
     <g id="line2d_55">
      <g>
       <use xlink:href="#m00814270dc" x="340.782082" y="234.288" style="fill: #1a1a1a; stroke: #1a1a1a; stroke-width: 0.8"/>
      </g>
     </g>
     <g id="text_20">
      <!-- 50 -->
      <g style="fill: #1a1a1a" transform="translate(336.567863 243.126594) scale(0.07 -0.07)">
       <use xlink:href="#Menlo-Regular-35"/>
       <use xlink:href="#Menlo-Regular-30" transform="translate(60.205078 0)"/>
      </g>
     </g>
    </g>
    <g id="text_21">
     <!-- Measured $f_γ$ (Hz) — peak of trained-network population PSD -->
     <g style="fill: #1a1a1a" transform="translate(73.817656 255.062375) scale(0.08 -0.08)">
      <defs>
       <path id="Menlo-Regular-4d" d="M 113 4650 
L 956 4650 
L 1763 2281 
L 2575 4650 
L 3422 4650 
L 3422 0 
L 2838 0 
L 2838 4109 
L 2006 1659 
L 1528 1659 
L 694 4109 
L 694 0 
L 113 0 
L 113 4650 
z
" transform="scale(0.015625)"/>
       <path id="Menlo-Regular-75" d="M 609 1325 
L 609 3494 
L 1184 3494 
L 1184 1325 
Q 1184 853 1351 631 
Q 1519 409 1869 409 
Q 2275 409 2490 695 
Q 2706 981 2706 1516 
L 2706 3494 
L 3284 3494 
L 3284 0 
L 2706 0 
L 2706 525 
Q 2553 222 2289 65 
Q 2025 -91 1672 -91 
Q 1134 -91 871 261 
Q 609 613 609 1325 
z
" transform="scale(0.015625)"/>
       <path id="DejaVuSansDisplay-2014" d="M 313 1978 
L 6088 1978 
L 6088 1528 
L 313 1528 
L 313 1978 
z
" transform="scale(0.015625)"/>
       <path id="Menlo-Regular-6b" d="M 738 4863 
L 1331 4863 
L 1331 2047 
L 2841 3500 
L 3541 3500 
L 2163 2181 
L 3756 0 
L 3053 0 
L 1759 1806 
L 1331 1403 
L 1331 0 
L 738 0 
L 738 4863 
z
" transform="scale(0.015625)"/>
       <path id="Menlo-Regular-6f" d="M 1925 3097 
Q 1488 3097 1263 2756 
Q 1038 2416 1038 1747 
Q 1038 1081 1263 739 
Q 1488 397 1925 397 
Q 2366 397 2591 739 
Q 2816 1081 2816 1747 
Q 2816 2416 2591 2756 
Q 2366 3097 1925 3097 
z
M 1925 3584 
Q 2653 3584 3039 3112 
Q 3425 2641 3425 1747 
Q 3425 850 3040 379 
Q 2656 -91 1925 -91 
Q 1197 -91 812 379 
Q 428 850 428 1747 
Q 428 2641 812 3112 
Q 1197 3584 1925 3584 
z
" transform="scale(0.015625)"/>
       <path id="Menlo-Regular-66" d="M 3322 4863 
L 3322 4384 
L 2669 4384 
Q 2359 4384 2239 4257 
Q 2119 4131 2119 3809 
L 2119 3500 
L 3322 3500 
L 3322 3053 
L 2119 3053 
L 2119 0 
L 1544 0 
L 1544 3053 
L 609 3053 
L 609 3500 
L 1544 3500 
L 1544 3744 
Q 1544 4319 1808 4591 
Q 2072 4863 2631 4863 
L 3322 4863 
z
" transform="scale(0.015625)"/>
       <path id="Menlo-Regular-2d" d="M 319 2263 
L 3631 2263 
L 3631 1734 
L 319 1734 
L 319 2263 
z
" transform="scale(0.015625)"/>
       <path id="Menlo-Regular-77" d="M 0 3500 
L 569 3500 
L 1178 672 
L 1678 2478 
L 2169 2478 
L 2675 672 
L 3284 3500 
L 3853 3500 
L 3034 0 
L 2484 0 
L 1925 1919 
L 1369 0 
L 819 0 
L 0 3500 
z
" transform="scale(0.015625)"/>
       <path id="Menlo-Regular-6c" d="M 2247 1266 
Q 2247 878 2389 681 
Q 2531 484 2809 484 
L 3481 484 
L 3481 0 
L 2753 0 
Q 2238 0 1955 329 
Q 1672 659 1672 1266 
L 1672 4431 
L 750 4431 
L 750 4881 
L 2247 4881 
L 2247 1266 
z
" transform="scale(0.015625)"/>
       <path id="Menlo-Regular-50" d="M 1247 4147 
L 1247 2394 
L 1978 2394 
Q 2416 2394 2661 2625 
Q 2906 2856 2906 3272 
Q 2906 3688 2662 3917 
Q 2419 4147 1978 4147 
L 1247 4147 
z
M 616 4666 
L 1978 4666 
Q 2759 4666 3162 4311 
Q 3566 3956 3566 3272 
Q 3566 2581 3164 2228 
Q 2763 1875 1978 1875 
L 1247 1875 
L 1247 0 
L 616 0 
L 616 4666 
z
" transform="scale(0.015625)"/>
       <path id="Menlo-Regular-53" d="M 3163 4506 
L 3163 3866 
Q 2875 4050 2586 4144 
Q 2297 4238 2003 4238 
Q 1556 4238 1297 4030 
Q 1038 3822 1038 3469 
Q 1038 3159 1208 2996 
Q 1378 2834 1844 2725 
L 2175 2650 
Q 2831 2497 3131 2169 
Q 3431 1841 3431 1275 
Q 3431 609 3018 259 
Q 2606 -91 1819 -91 
Q 1491 -91 1159 -20 
Q 828 50 494 191 
L 494 863 
Q 853 634 1173 528 
Q 1494 422 1819 422 
Q 2297 422 2562 636 
Q 2828 850 2828 1234 
Q 2828 1584 2645 1768 
Q 2463 1953 2009 2053 
L 1672 2131 
Q 1022 2278 728 2575 
Q 434 2872 434 3372 
Q 434 3997 854 4373 
Q 1275 4750 1972 4750 
Q 2241 4750 2537 4689 
Q 2834 4628 3163 4506 
z
" transform="scale(0.015625)"/>
       <path id="Menlo-Regular-44" d="M 1363 519 
Q 2159 519 2475 911 
Q 2791 1303 2791 2328 
Q 2791 3363 2477 3755 
Q 2163 4147 1363 4147 
L 1063 4147 
L 1063 519 
L 1363 519 
z
M 1375 4666 
Q 2444 4666 2950 4097 
Q 3456 3528 3456 2328 
Q 3456 1134 2950 567 
Q 2444 0 1375 0 
L 428 0 
L 428 4666 
L 1375 4666 
z
" transform="scale(0.015625)"/>
      </defs>
      <use xlink:href="#Menlo-Regular-4d" transform="translate(0 0.234375)"/>
      <use xlink:href="#Menlo-Regular-65" transform="translate(60.205078 0.234375)"/>
      <use xlink:href="#Menlo-Regular-61" transform="translate(120.410156 0.234375)"/>
      <use xlink:href="#Menlo-Regular-73" transform="translate(180.615234 0.234375)"/>
      <use xlink:href="#Menlo-Regular-75" transform="translate(240.820312 0.234375)"/>
      <use xlink:href="#Menlo-Regular-72" transform="translate(301.025391 0.234375)"/>
      <use xlink:href="#Menlo-Regular-65" transform="translate(361.230469 0.234375)"/>
      <use xlink:href="#Menlo-Regular-64" transform="translate(421.435547 0.234375)"/>
      <use xlink:href="#Menlo-Regular-20" transform="translate(481.640625 0.234375)"/>
      <use xlink:href="#DejaVuSans-Oblique-66" transform="translate(541.845703 0.234375)"/>
      <use xlink:href="#DejaVuSans-Oblique-3b3" transform="translate(577.050781 -16.171875) scale(0.7)"/>
      <use xlink:href="#Menlo-Regular-20" transform="translate(621.210938 0.234375)"/>
      <use xlink:href="#Menlo-Regular-28" transform="translate(681.416016 0.234375)"/>
      <use xlink:href="#Menlo-Regular-48" transform="translate(741.621094 0.234375)"/>
      <use xlink:href="#Menlo-Regular-7a" transform="translate(801.826172 0.234375)"/>
      <use xlink:href="#Menlo-Regular-29" transform="translate(862.03125 0.234375)"/>
      <use xlink:href="#Menlo-Regular-20" transform="translate(922.236328 0.234375)"/>
      <use xlink:href="#DejaVuSansDisplay-2014" transform="translate(982.441406 0.234375)"/>
      <use xlink:href="#Menlo-Regular-20" transform="translate(1082.441406 0.234375)"/>
      <use xlink:href="#Menlo-Regular-70" transform="translate(1142.646484 0.234375)"/>
      <use xlink:href="#Menlo-Regular-65" transform="translate(1202.851562 0.234375)"/>
      <use xlink:href="#Menlo-Regular-61" transform="translate(1263.056641 0.234375)"/>
      <use xlink:href="#Menlo-Regular-6b" transform="translate(1323.261719 0.234375)"/>
      <use xlink:href="#Menlo-Regular-20" transform="translate(1383.466797 0.234375)"/>
      <use xlink:href="#Menlo-Regular-6f" transform="translate(1443.671875 0.234375)"/>
      <use xlink:href="#Menlo-Regular-66" transform="translate(1503.876953 0.234375)"/>
      <use xlink:href="#Menlo-Regular-20" transform="translate(1564.082031 0.234375)"/>
      <use xlink:href="#Menlo-Regular-74" transform="translate(1624.287109 0.234375)"/>
      <use xlink:href="#Menlo-Regular-72" transform="translate(1684.492188 0.234375)"/>
      <use xlink:href="#Menlo-Regular-61" transform="translate(1744.697266 0.234375)"/>
      <use xlink:href="#Menlo-Regular-69" transform="translate(1804.902344 0.234375)"/>
      <use xlink:href="#Menlo-Regular-6e" transform="translate(1865.107422 0.234375)"/>
      <use xlink:href="#Menlo-Regular-65" transform="translate(1925.3125 0.234375)"/>
      <use xlink:href="#Menlo-Regular-64" transform="translate(1985.517578 0.234375)"/>
      <use xlink:href="#Menlo-Regular-2d" transform="translate(2045.722656 0.234375)"/>
      <use xlink:href="#Menlo-Regular-6e" transform="translate(2105.927734 0.234375)"/>
      <use xlink:href="#Menlo-Regular-65" transform="translate(2166.132812 0.234375)"/>
      <use xlink:href="#Menlo-Regular-74" transform="translate(2226.337891 0.234375)"/>
      <use xlink:href="#Menlo-Regular-77" transform="translate(2286.542969 0.234375)"/>
      <use xlink:href="#Menlo-Regular-6f" transform="translate(2346.748047 0.234375)"/>
      <use xlink:href="#Menlo-Regular-72" transform="translate(2406.953125 0.234375)"/>
      <use xlink:href="#Menlo-Regular-6b" transform="translate(2467.158203 0.234375)"/>
      <use xlink:href="#Menlo-Regular-20" transform="translate(2527.363281 0.234375)"/>
      <use xlink:href="#Menlo-Regular-70" transform="translate(2587.568359 0.234375)"/>
      <use xlink:href="#Menlo-Regular-6f" transform="translate(2647.773438 0.234375)"/>
      <use xlink:href="#Menlo-Regular-70" transform="translate(2707.978516 0.234375)"/>
      <use xlink:href="#Menlo-Regular-75" transform="translate(2768.183594 0.234375)"/>
      <use xlink:href="#Menlo-Regular-6c" transform="translate(2828.388672 0.234375)"/>
      <use xlink:href="#Menlo-Regular-61" transform="translate(2888.59375 0.234375)"/>
      <use xlink:href="#Menlo-Regular-74" transform="translate(2948.798828 0.234375)"/>
      <use xlink:href="#Menlo-Regular-69" transform="translate(3009.003906 0.234375)"/>
      <use xlink:href="#Menlo-Regular-6f" transform="translate(3069.208984 0.234375)"/>
      <use xlink:href="#Menlo-Regular-6e" transform="translate(3129.414062 0.234375)"/>
      <use xlink:href="#Menlo-Regular-20" transform="translate(3189.619141 0.234375)"/>
      <use xlink:href="#Menlo-Regular-50" transform="translate(3249.824219 0.234375)"/>
      <use xlink:href="#Menlo-Regular-53" transform="translate(3310.029297 0.234375)"/>
      <use xlink:href="#Menlo-Regular-44" transform="translate(3370.234375 0.234375)"/>
     </g>
    </g>
   </g>
   <g id="matplotlib.axis_4">
    <g id="ytick_6">
     <g id="line2d_56">
      <g>
       <use xlink:href="#md7e968013e" x="29.707656" y="234.288" style="fill: #1a1a1a; stroke: #1a1a1a; stroke-width: 0.8"/>
      </g>
     </g>
     <g id="text_22">
      <!-- 0 -->
      <g style="fill: #1a1a1a" transform="translate(21.993438 236.957297) scale(0.07 -0.07)">
       <use xlink:href="#Menlo-Regular-30"/>
      </g>
     </g>
    </g>
    <g id="ytick_7">
     <g id="line2d_57">
      <g>
       <use xlink:href="#md7e968013e" x="29.707656" y="217.390467" style="fill: #1a1a1a; stroke: #1a1a1a; stroke-width: 0.8"/>
      </g>
     </g>
     <g id="text_23">
      <!-- 20 -->
      <g style="fill: #1a1a1a" transform="translate(17.779219 220.059764) scale(0.07 -0.07)">
       <use xlink:href="#Menlo-Regular-32"/>
       <use xlink:href="#Menlo-Regular-30" transform="translate(60.205078 0)"/>
      </g>
     </g>
    </g>
    <g id="ytick_8">
     <g id="line2d_58">
      <g>
       <use xlink:href="#md7e968013e" x="29.707656" y="200.492935" style="fill: #1a1a1a; stroke: #1a1a1a; stroke-width: 0.8"/>
      </g>
     </g>
     <g id="text_24">
      <!-- 40 -->
      <g style="fill: #1a1a1a" transform="translate(17.779219 203.162232) scale(0.07 -0.07)">
       <use xlink:href="#Menlo-Regular-34"/>
       <use xlink:href="#Menlo-Regular-30" transform="translate(60.205078 0)"/>
      </g>
     </g>
    </g>
    <g id="ytick_9">
     <g id="line2d_59">
      <g>
       <use xlink:href="#md7e968013e" x="29.707656" y="183.595402" style="fill: #1a1a1a; stroke: #1a1a1a; stroke-width: 0.8"/>
      </g>
     </g>
     <g id="text_25">
      <!-- 60 -->
      <g style="fill: #1a1a1a" transform="translate(17.779219 186.264699) scale(0.07 -0.07)">
       <use xlink:href="#Menlo-Regular-36"/>
       <use xlink:href="#Menlo-Regular-30" transform="translate(60.205078 0)"/>
      </g>
     </g>
    </g>
    <g id="ytick_10">
     <g id="line2d_60">
      <g>
       <use xlink:href="#md7e968013e" x="29.707656" y="166.697869" style="fill: #1a1a1a; stroke: #1a1a1a; stroke-width: 0.8"/>
      </g>
     </g>
     <g id="text_26">
      <!-- 80 -->
      <g style="fill: #1a1a1a" transform="translate(17.779219 169.367166) scale(0.07 -0.07)">
       <use xlink:href="#Menlo-Regular-38"/>
       <use xlink:href="#Menlo-Regular-30" transform="translate(60.205078 0)"/>
      </g>
     </g>
    </g>
    <g id="ytick_11">
     <g id="line2d_61">
      <g>
       <use xlink:href="#md7e968013e" x="29.707656" y="149.800337" style="fill: #1a1a1a; stroke: #1a1a1a; stroke-width: 0.8"/>
      </g>
     </g>
     <g id="text_27">
      <!-- 100 -->
      <g style="fill: #1a1a1a" transform="translate(13.565 152.469634) scale(0.07 -0.07)">
       <use xlink:href="#Menlo-Regular-31"/>
       <use xlink:href="#Menlo-Regular-30" transform="translate(60.205078 0)"/>
       <use xlink:href="#Menlo-Regular-30" transform="translate(120.410156 0)"/>
      </g>
     </g>
    </g>
    <g id="text_28">
     <!-- Test accuracy (%) -->
     <g style="fill: #1a1a1a" transform="translate(7.90125 232.982293) rotate(-90) scale(0.08 -0.08)">
      <defs>
       <path id="Menlo-Regular-54" d="M 147 4666 
L 3706 4666 
L 3706 4134 
L 2247 4134 
L 2247 0 
L 1613 0 
L 1613 4134 
L 147 4134 
L 147 4666 
z
" transform="scale(0.015625)"/>
       <path id="Menlo-Regular-63" d="M 3316 178 
Q 3084 44 2839 -23 
Q 2594 -91 2338 -91 
Q 1525 -91 1067 396 
Q 609 884 609 1747 
Q 609 2609 1067 3096 
Q 1525 3584 2338 3584 
Q 2591 3584 2831 3518 
Q 3072 3453 3316 3316 
L 3316 2713 
Q 3088 2916 2858 3006 
Q 2628 3097 2338 3097 
Q 1797 3097 1506 2747 
Q 1216 2397 1216 1747 
Q 1216 1100 1508 748 
Q 1800 397 2338 397 
Q 2638 397 2875 489 
Q 3113 581 3316 775 
L 3316 178 
z
" transform="scale(0.015625)"/>
       <path id="Menlo-Regular-79" d="M 2681 1125 
Q 2538 759 2316 163 
Q 2006 -663 1900 -844 
Q 1756 -1088 1540 -1209 
Q 1325 -1331 1038 -1331 
L 575 -1331 
L 575 -850 
L 916 -850 
Q 1169 -850 1312 -703 
Q 1456 -556 1678 56 
L 325 3500 
L 934 3500 
L 1972 763 
L 2994 3500 
L 3603 3500 
L 2681 1125 
z
" transform="scale(0.015625)"/>
       <path id="Menlo-Regular-25" d="M 2175 997 
Q 2175 753 2339 587 
Q 2503 422 2747 422 
Q 2988 422 3155 589 
Q 3322 756 3322 997 
Q 3322 1238 3153 1406 
Q 2984 1575 2747 1575 
Q 2503 1575 2339 1409 
Q 2175 1244 2175 997 
z
M 1753 997 
Q 1753 1419 2040 1708 
Q 2328 1997 2747 1997 
Q 2947 1997 3126 1922 
Q 3306 1847 3450 1703 
Q 3594 1556 3672 1375 
Q 3750 1194 3750 997 
Q 3750 581 3459 290 
Q 3169 0 2747 0 
Q 2322 0 2037 286 
Q 1753 572 1753 997 
z
M 259 1375 
L 122 1728 
L 3606 3122 
L 3763 2769 
L 259 1375 
z
M 525 3475 
Q 525 3228 689 3064 
Q 853 2900 1100 2900 
Q 1341 2900 1509 3067 
Q 1678 3234 1678 3475 
Q 1678 3716 1509 3883 
Q 1341 4050 1100 4050 
Q 859 4050 692 3884 
Q 525 3719 525 3475 
z
M 103 3475 
Q 103 3897 390 4186 
Q 678 4475 1100 4475 
Q 1300 4475 1483 4400 
Q 1666 4325 1806 4184 
Q 1947 4044 2023 3861 
Q 2100 3678 2100 3475 
Q 2100 3056 1809 2767 
Q 1519 2478 1100 2478 
Q 678 2478 390 2765 
Q 103 3053 103 3475 
z
" transform="scale(0.015625)"/>
      </defs>
      <use xlink:href="#Menlo-Regular-54"/>
      <use xlink:href="#Menlo-Regular-65" transform="translate(60.205078 0)"/>
      <use xlink:href="#Menlo-Regular-73" transform="translate(120.410156 0)"/>
      <use xlink:href="#Menlo-Regular-74" transform="translate(180.615234 0)"/>
      <use xlink:href="#Menlo-Regular-20" transform="translate(240.820312 0)"/>
      <use xlink:href="#Menlo-Regular-61" transform="translate(301.025391 0)"/>
      <use xlink:href="#Menlo-Regular-63" transform="translate(361.230469 0)"/>
      <use xlink:href="#Menlo-Regular-63" transform="translate(421.435547 0)"/>
      <use xlink:href="#Menlo-Regular-75" transform="translate(481.640625 0)"/>
      <use xlink:href="#Menlo-Regular-72" transform="translate(541.845703 0)"/>
      <use xlink:href="#Menlo-Regular-61" transform="translate(602.050781 0)"/>
      <use xlink:href="#Menlo-Regular-63" transform="translate(662.255859 0)"/>
      <use xlink:href="#Menlo-Regular-79" transform="translate(722.460938 0)"/>
      <use xlink:href="#Menlo-Regular-20" transform="translate(782.666016 0)"/>
      <use xlink:href="#Menlo-Regular-28" transform="translate(842.871094 0)"/>
      <use xlink:href="#Menlo-Regular-25" transform="translate(903.076172 0)"/>
      <use xlink:href="#Menlo-Regular-29" transform="translate(963.28125 0)"/>
     </g>
    </g>
   </g>
   <g id="LineCollection_15">
    <path d="M 345.073847 156.885231 
L 346.818325 156.885231 
" clip-path="url(#p9c7fd14b5a)" style="fill: none; stroke: #1a1a1a; stroke-width: 1.3"/>
   </g>
   <g id="LineCollection_16">
    <path d="M 345.946086 156.918831 
L 345.946086 156.85163 
" clip-path="url(#p9c7fd14b5a)" style="fill: none; stroke: #1a1a1a; stroke-width: 1.3"/>
   </g>
   <g id="line2d_62">
    <g clip-path="url(#p9c7fd14b5a)">
     <use xlink:href="#mab4f0bd2f7" x="345.073847" y="156.885231" style="fill: #1a1a1a; stroke: #1a1a1a"/>
    </g>
   </g>
   <g id="line2d_63">
    <g clip-path="url(#p9c7fd14b5a)">
     <use xlink:href="#mab4f0bd2f7" x="346.818325" y="156.885231" style="fill: #1a1a1a; stroke: #1a1a1a"/>
    </g>
   </g>
   <g id="line2d_64">
    <g clip-path="url(#p9c7fd14b5a)">
     <use xlink:href="#mfedd89eb38" x="345.946086" y="156.918831" style="fill: #1a1a1a; stroke: #1a1a1a"/>
    </g>
   </g>
   <g id="line2d_65">
    <g clip-path="url(#p9c7fd14b5a)">
     <use xlink:href="#mfedd89eb38" x="345.946086" y="156.85163" style="fill: #1a1a1a; stroke: #1a1a1a"/>
    </g>
   </g>
   <g id="LineCollection_17">
    <path d="M 304.38787 157.363994 
L 320.501023 157.363994 
" clip-path="url(#p9c7fd14b5a)" style="fill: none; stroke: #1a1a1a; stroke-width: 1.3"/>
   </g>
   <g id="LineCollection_18">
    <path d="M 312.444447 157.499491 
L 312.444447 157.228498 
" clip-path="url(#p9c7fd14b5a)" style="fill: none; stroke: #1a1a1a; stroke-width: 1.3"/>
   </g>
   <g id="line2d_66">
    <g clip-path="url(#p9c7fd14b5a)">
     <use xlink:href="#mab4f0bd2f7" x="304.38787" y="157.363994" style="fill: #1a1a1a; stroke: #1a1a1a"/>
    </g>
   </g>
   <g id="line2d_67">
    <g clip-path="url(#p9c7fd14b5a)">
     <use xlink:href="#mab4f0bd2f7" x="320.501023" y="157.363994" style="fill: #1a1a1a; stroke: #1a1a1a"/>
    </g>
   </g>
   <g id="line2d_68">
    <g clip-path="url(#p9c7fd14b5a)">
     <use xlink:href="#mfedd89eb38" x="312.444447" y="157.499491" style="fill: #1a1a1a; stroke: #1a1a1a"/>
    </g>
   </g>
   <g id="line2d_69">
    <g clip-path="url(#p9c7fd14b5a)">
     <use xlink:href="#mfedd89eb38" x="312.444447" y="157.228498" style="fill: #1a1a1a; stroke: #1a1a1a"/>
    </g>
   </g>
   <g id="LineCollection_19">
    <path d="M 258.915618 158.188755 
L 275.699913 158.188755 
" clip-path="url(#p9c7fd14b5a)" style="fill: none; stroke: #1a1a1a; stroke-width: 1.3"/>
   </g>
   <g id="LineCollection_20">
    <path d="M 267.307766 158.31682 
L 267.307766 158.060689 
" clip-path="url(#p9c7fd14b5a)" style="fill: none; stroke: #1a1a1a; stroke-width: 1.3"/>
   </g>
   <g id="line2d_70">
    <g clip-path="url(#p9c7fd14b5a)">
     <use xlink:href="#mab4f0bd2f7" x="258.915618" y="158.188755" style="fill: #1a1a1a; stroke: #1a1a1a"/>
    </g>
   </g>
   <g id="line2d_71">
    <g clip-path="url(#p9c7fd14b5a)">
     <use xlink:href="#mab4f0bd2f7" x="275.699913" y="158.188755" style="fill: #1a1a1a; stroke: #1a1a1a"/>
    </g>
   </g>
   <g id="line2d_72">
    <g clip-path="url(#p9c7fd14b5a)">
     <use xlink:href="#mfedd89eb38" x="267.307766" y="158.31682" style="fill: #1a1a1a; stroke: #1a1a1a"/>
    </g>
   </g>
   <g id="line2d_73">
    <g clip-path="url(#p9c7fd14b5a)">
     <use xlink:href="#mfedd89eb38" x="267.307766" y="158.060689" style="fill: #1a1a1a; stroke: #1a1a1a"/>
    </g>
   </g>
   <g id="LineCollection_21">
    <path d="M 241.861738 159.095991 
L 242.911383 159.095991 
" clip-path="url(#p9c7fd14b5a)" style="fill: none; stroke: #1a1a1a; stroke-width: 1.3"/>
   </g>
   <g id="LineCollection_22">
    <path d="M 242.38656 159.181644 
L 242.38656 159.010338 
" clip-path="url(#p9c7fd14b5a)" style="fill: none; stroke: #1a1a1a; stroke-width: 1.3"/>
   </g>
   <g id="line2d_74">
    <g clip-path="url(#p9c7fd14b5a)">
     <use xlink:href="#mab4f0bd2f7" x="241.861738" y="159.095991" style="fill: #1a1a1a; stroke: #1a1a1a"/>
    </g>
   </g>
   <g id="line2d_75">
    <g clip-path="url(#p9c7fd14b5a)">
     <use xlink:href="#mab4f0bd2f7" x="242.911383" y="159.095991" style="fill: #1a1a1a; stroke: #1a1a1a"/>
    </g>
   </g>
   <g id="line2d_76">
    <g clip-path="url(#p9c7fd14b5a)">
     <use xlink:href="#mfedd89eb38" x="242.38656" y="159.181644" style="fill: #1a1a1a; stroke: #1a1a1a"/>
    </g>
   </g>
   <g id="line2d_77">
    <g clip-path="url(#p9c7fd14b5a)">
     <use xlink:href="#mfedd89eb38" x="242.38656" y="159.010338" style="fill: #1a1a1a; stroke: #1a1a1a"/>
    </g>
   </g>
   <g id="LineCollection_23">
    <path d="M 186.504144 161.097544 
L 186.756378 161.097544 
" clip-path="url(#p9c7fd14b5a)" style="fill: none; stroke: #1a1a1a; stroke-width: 1.3"/>
   </g>
   <g id="LineCollection_24">
    <path d="M 186.630261 161.137726 
L 186.630261 161.057362 
" clip-path="url(#p9c7fd14b5a)" style="fill: none; stroke: #1a1a1a; stroke-width: 1.3"/>
   </g>
   <g id="line2d_78">
    <g clip-path="url(#p9c7fd14b5a)">
     <use xlink:href="#mab4f0bd2f7" x="186.504144" y="161.097544" style="fill: #1a1a1a; stroke: #1a1a1a"/>
    </g>
   </g>
   <g id="line2d_79">
    <g clip-path="url(#p9c7fd14b5a)">
     <use xlink:href="#mab4f0bd2f7" x="186.756378" y="161.097544" style="fill: #1a1a1a; stroke: #1a1a1a"/>
    </g>
   </g>
   <g id="line2d_80">
    <g clip-path="url(#p9c7fd14b5a)">
     <use xlink:href="#mfedd89eb38" x="186.630261" y="161.137726" style="fill: #1a1a1a; stroke: #1a1a1a"/>
    </g>
   </g>
   <g id="line2d_81">
    <g clip-path="url(#p9c7fd14b5a)">
     <use xlink:href="#mfedd89eb38" x="186.630261" y="161.057362" style="fill: #1a1a1a; stroke: #1a1a1a"/>
    </g>
   </g>
   <g id="LineCollection_25">
    <path d="M 165.779977 161.564238 
L 166.485615 161.564238 
" clip-path="url(#p9c7fd14b5a)" style="fill: none; stroke: #1a1a1a; stroke-width: 1.3"/>
   </g>
   <g id="LineCollection_26">
    <path d="M 166.132796 161.657816 
L 166.132796 161.47066 
" clip-path="url(#p9c7fd14b5a)" style="fill: none; stroke: #1a1a1a; stroke-width: 1.3"/>
   </g>
   <g id="line2d_82">
    <g clip-path="url(#p9c7fd14b5a)">
     <use xlink:href="#mab4f0bd2f7" x="165.779977" y="161.564238" style="fill: #1a1a1a; stroke: #1a1a1a"/>
    </g>
   </g>
   <g id="line2d_83">
    <g clip-path="url(#p9c7fd14b5a)">
     <use xlink:href="#mab4f0bd2f7" x="166.485615" y="161.564238" style="fill: #1a1a1a; stroke: #1a1a1a"/>
    </g>
   </g>
   <g id="line2d_84">
    <g clip-path="url(#p9c7fd14b5a)">
     <use xlink:href="#mfedd89eb38" x="166.132796" y="161.657816" style="fill: #1a1a1a; stroke: #1a1a1a"/>
    </g>
   </g>
   <g id="line2d_85">
    <g clip-path="url(#p9c7fd14b5a)">
     <use xlink:href="#mfedd89eb38" x="166.132796" y="161.47066" style="fill: #1a1a1a; stroke: #1a1a1a"/>
    </g>
   </g>
   <g id="line2d_86">
    <path d="M 29.707656 225.839234 
L 392.407656 225.839234 
" clip-path="url(#p9c7fd14b5a)" style="fill: none; stroke-dasharray: 0.5,0.825; stroke-dashoffset: 0; stroke: #6a6a6a; stroke-opacity: 0.6; stroke-width: 0.5"/>
   </g>
   <g id="line2d_87">
    <g clip-path="url(#p9c7fd14b5a)">
     <use xlink:href="#m951fe93972" x="345.946086" y="156.885231" style="fill: #1a1a1a; stroke: #1a1a1a"/>
    </g>
   </g>
   <g id="line2d_88">
    <g clip-path="url(#p9c7fd14b5a)">
     <use xlink:href="#m951fe93972" x="312.444447" y="157.363994" style="fill: #1a1a1a; stroke: #1a1a1a"/>
    </g>
   </g>
   <g id="line2d_89">
    <g clip-path="url(#p9c7fd14b5a)">
     <use xlink:href="#m951fe93972" x="267.307766" y="158.188755" style="fill: #1a1a1a; stroke: #1a1a1a"/>
    </g>
   </g>
   <g id="line2d_90">
    <g clip-path="url(#p9c7fd14b5a)">
     <use xlink:href="#m951fe93972" x="242.38656" y="159.095991" style="fill: #1a1a1a; stroke: #1a1a1a"/>
    </g>
   </g>
   <g id="line2d_91">
    <g clip-path="url(#p9c7fd14b5a)">
     <use xlink:href="#m951fe93972" x="186.630261" y="161.097544" style="fill: #1a1a1a; stroke: #1a1a1a"/>
    </g>
   </g>
   <g id="line2d_92">
    <g clip-path="url(#p9c7fd14b5a)">
     <use xlink:href="#m951fe93972" x="166.132796" y="161.564238" style="fill: #1a1a1a; stroke: #1a1a1a"/>
    </g>
   </g>
   <g id="patch_6">
    <path d="M 29.707656 234.288 
L 29.707656 149.800337 
" style="fill: none; stroke: #1a1a1a; stroke-width: 0.8; stroke-linejoin: miter; stroke-linecap: square"/>
   </g>
   <g id="patch_7">
    <path d="M 29.707656 234.288 
L 392.407656 234.288 
" style="fill: none; stroke: #1a1a1a; stroke-width: 0.8; stroke-linejoin: miter; stroke-linecap: square"/>
   </g>
  </g>
  <g id="text_29">
   <!-- r007 -->
   <g style="fill: #888888" transform="translate(421.214844 264.688203) scale(0.065 -0.065)">
    <use xlink:href="#Menlo-Regular-72"/>
    <use xlink:href="#Menlo-Regular-30" transform="translate(60.205078 0)"/>
    <use xlink:href="#Menlo-Regular-30" transform="translate(120.410156 0)"/>
    <use xlink:href="#Menlo-Regular-37" transform="translate(180.615234 0)"/>
   </g>
  </g>
 </g>
 <defs>
  <clipPath id="pce933e6b8c">
   <rect x="29.707656" y="1.44" width="362.7" height="135.180261"/>
  </clipPath>
  <clipPath id="p9c7fd14b5a">
   <rect x="29.707656" y="149.800337" width="362.7" height="84.487663"/>
  </clipPath>
 </defs>
</svg>
