<?xml version="1.0" encoding="utf-8" standalone="no"?>
<!DOCTYPE svg PUBLIC "-//W3C//DTD SVG 1.1//EN"
  "http://www.w3.org/Graphics/SVG/1.1/DTD/svg11.dtd">
<svg xmlns:xlink="http://www.w3.org/1999/xlink" width="438.307656pt" height="331.259297pt" viewBox="0 0 438.307656 331.259297" xmlns="http://www.w3.org/2000/svg" version="1.1">
 <metadata>
  <rdf:RDF xmlns:dc="http://purl.org/dc/elements/1.1/" xmlns:cc="http://creativecommons.org/ns#" xmlns:rdf="http://www.w3.org/1999/02/22-rdf-syntax-ns#">
   <cc:Work>
    <dc:type rdf:resource="http://purl.org/dc/dcmitype/StillImage"/>
    <dc:date>2026-07-06T16:55:44.207629</dc:date>
    <dc:format>image/svg+xml</dc:format>
    <dc:creator>
     <cc:Agent>
      <dc:title>Matplotlib v3.10.8, https://matplotlib.org/</dc:title>
     </cc:Agent>
    </dc:creator>
   </cc:Work>
  </rdf:RDF>
 </metadata>
 <defs>
  <style type="text/css">*{stroke-linejoin: round; stroke-linecap: butt}</style>
 </defs>
 <g id="figure_1">
  <g id="patch_1">
   <path d="M 0 331.259297 
L 438.307656 331.259297 
L 438.307656 0 
L 0 0 
z
" style="fill: #ffffff"/>
  </g>
  <g id="axes_1">
   <g id="patch_2">
    <path d="M 29.707656 137.423157 
L 392.407656 137.423157 
L 392.407656 4.109297 
L 29.707656 4.109297 
z
" style="fill: #ffffff"/>
   </g>
   <g id="matplotlib.axis_1">
    <g id="xtick_1">
     <g id="line2d_1">
      <path d="M 39.464892 137.423157 
L 39.464892 4.109297 
" clip-path="url(#p3d9aeb1366)" style="fill: none; stroke: #1a1a1a; stroke-opacity: 0.15; stroke-width: 0.4; stroke-linejoin: miter"/>
     </g>
     <g id="line2d_2">
      <defs>
       <path id="m0c903abe9a" d="M 0 0 
L 0 -3 
" style="stroke: #1a1a1a; stroke-width: 0.8"/>
      </defs>
      <g>
       <use xlink:href="#m0c903abe9a" x="39.464892" y="137.423157" style="fill: #1a1a1a; stroke: #1a1a1a; stroke-width: 0.8"/>
      </g>
     </g>
    </g>
    <g id="xtick_2">
     <g id="line2d_3">
      <path d="M 106.756172 137.423157 
L 106.756172 4.109297 
" clip-path="url(#p3d9aeb1366)" style="fill: none; stroke: #1a1a1a; stroke-opacity: 0.15; stroke-width: 0.4; stroke-linejoin: miter"/>
     </g>
     <g id="line2d_4">
      <g>
       <use xlink:href="#m0c903abe9a" x="106.756172" y="137.423157" style="fill: #1a1a1a; stroke: #1a1a1a; stroke-width: 0.8"/>
      </g>
     </g>
    </g>
    <g id="xtick_3">
     <g id="line2d_5">
      <path d="M 174.047452 137.423157 
L 174.047452 4.109297 
" clip-path="url(#p3d9aeb1366)" style="fill: none; stroke: #1a1a1a; stroke-opacity: 0.15; stroke-width: 0.4; stroke-linejoin: miter"/>
     </g>
     <g id="line2d_6">
      <g>
       <use xlink:href="#m0c903abe9a" x="174.047452" y="137.423157" style="fill: #1a1a1a; stroke: #1a1a1a; stroke-width: 0.8"/>
      </g>
     </g>
    </g>
    <g id="xtick_4">
     <g id="line2d_7">
      <path d="M 241.338732 137.423157 
L 241.338732 4.109297 
" clip-path="url(#p3d9aeb1366)" style="fill: none; stroke: #1a1a1a; stroke-opacity: 0.15; stroke-width: 0.4; stroke-linejoin: miter"/>
     </g>
     <g id="line2d_8">
      <g>
       <use xlink:href="#m0c903abe9a" x="241.338732" y="137.423157" style="fill: #1a1a1a; stroke: #1a1a1a; stroke-width: 0.8"/>
      </g>
     </g>
    </g>
    <g id="xtick_5">
     <g id="line2d_9">
      <path d="M 308.630012 137.423157 
L 308.630012 4.109297 
" clip-path="url(#p3d9aeb1366)" style="fill: none; stroke: #1a1a1a; stroke-opacity: 0.15; stroke-width: 0.4; stroke-linejoin: miter"/>
     </g>
     <g id="line2d_10">
      <g>
       <use xlink:href="#m0c903abe9a" x="308.630012" y="137.423157" style="fill: #1a1a1a; stroke: #1a1a1a; stroke-width: 0.8"/>
      </g>
     </g>
    </g>
    <g id="xtick_6">
     <g id="line2d_11">
      <path d="M 375.921293 137.423157 
L 375.921293 4.109297 
" clip-path="url(#p3d9aeb1366)" style="fill: none; stroke: #1a1a1a; stroke-opacity: 0.15; stroke-width: 0.4; stroke-linejoin: miter"/>
     </g>
     <g id="line2d_12">
      <g>
       <use xlink:href="#m0c903abe9a" x="375.921293" y="137.423157" style="fill: #1a1a1a; stroke: #1a1a1a; stroke-width: 0.8"/>
      </g>
     </g>
    </g>
   </g>
   <g id="matplotlib.axis_2">
    <g id="ytick_1">
     <g id="line2d_13">
      <path d="M 29.707656 137.423157 
L 392.407656 137.423157 
" clip-path="url(#p3d9aeb1366)" style="fill: none; stroke: #1a1a1a; stroke-opacity: 0.15; stroke-width: 0.4; stroke-linejoin: miter"/>
     </g>
     <g id="line2d_14">
      <defs>
       <path id="mda552ef942" d="M 0 0 
L 3 0 
" style="stroke: #1a1a1a; stroke-width: 0.8"/>
      </defs>
      <g>
       <use xlink:href="#mda552ef942" x="29.707656" y="137.423157" style="fill: #1a1a1a; stroke: #1a1a1a; stroke-width: 0.8"/>
      </g>
     </g>
     <g id="text_1">
      <!-- 0 -->
      <g style="fill: #1a1a1a" transform="translate(21.993438 140.092454) scale(0.07 -0.07)">
       <defs>
        <path id="Menlo-Regular-30" d="M 1925 4734 
Q 2672 4734 3055 4125 
Q 3438 3516 3438 2322 
Q 3438 1128 3055 518 
Q 2672 -91 1925 -91 
Q 1178 -91 797 518 
Q 416 1128 416 2322 
Q 416 3516 797 4125 
Q 1178 4734 1925 4734 
z
M 1925 409 
Q 2369 409 2586 881 
Q 2803 1353 2803 2322 
Q 2803 2838 2741 3253 
L 1253 925 
Q 1488 409 1925 409 
z
M 1925 4234 
Q 1484 4234 1267 3762 
Q 1050 3291 1050 2322 
Q 1050 1881 1109 1497 
L 2566 3819 
Q 2328 4234 1925 4234 
z
" transform="scale(0.015625)"/>
       </defs>
       <use xlink:href="#Menlo-Regular-30"/>
      </g>
     </g>
    </g>
    <g id="ytick_2">
     <g id="line2d_15">
      <path d="M 29.707656 110.760385 
L 392.407656 110.760385 
" clip-path="url(#p3d9aeb1366)" style="fill: none; stroke: #1a1a1a; stroke-opacity: 0.15; stroke-width: 0.4; stroke-linejoin: miter"/>
     </g>
     <g id="line2d_16">
      <g>
       <use xlink:href="#mda552ef942" x="29.707656" y="110.760385" style="fill: #1a1a1a; stroke: #1a1a1a; stroke-width: 0.8"/>
      </g>
     </g>
     <g id="text_2">
      <!-- 20 -->
      <g style="fill: #1a1a1a" transform="translate(17.779219 113.429682) scale(0.07 -0.07)">
       <defs>
        <path id="Menlo-Regular-32" d="M 1166 531 
L 3309 531 
L 3309 0 
L 475 0 
L 475 531 
Q 1059 1147 1496 1619 
Q 1934 2091 2100 2284 
Q 2413 2666 2522 2902 
Q 2631 3138 2631 3384 
Q 2631 3775 2401 3997 
Q 2172 4219 1772 4219 
Q 1488 4219 1175 4116 
Q 863 4013 513 3803 
L 513 4441 
Q 834 4594 1145 4672 
Q 1456 4750 1759 4750 
Q 2444 4750 2861 4386 
Q 3278 4022 3278 3431 
Q 3278 3131 3139 2831 
Q 3000 2531 2688 2169 
Q 2513 1966 2180 1606 
Q 1847 1247 1166 531 
z
" transform="scale(0.015625)"/>
       </defs>
       <use xlink:href="#Menlo-Regular-32"/>
       <use xlink:href="#Menlo-Regular-30" transform="translate(60.205078 0)"/>
      </g>
     </g>
    </g>
    <g id="ytick_3">
     <g id="line2d_17">
      <path d="M 29.707656 84.097613 
L 392.407656 84.097613 
" clip-path="url(#p3d9aeb1366)" style="fill: none; stroke: #1a1a1a; stroke-opacity: 0.15; stroke-width: 0.4; stroke-linejoin: miter"/>
     </g>
     <g id="line2d_18">
      <g>
       <use xlink:href="#mda552ef942" x="29.707656" y="84.097613" style="fill: #1a1a1a; stroke: #1a1a1a; stroke-width: 0.8"/>
      </g>
     </g>
     <g id="text_3">
      <!-- 40 -->
      <g style="fill: #1a1a1a" transform="translate(17.779219 86.76691) scale(0.07 -0.07)">
       <defs>
        <path id="Menlo-Regular-34" d="M 2297 4091 
L 825 1625 
L 2297 1625 
L 2297 4091 
z
M 2194 4666 
L 2925 4666 
L 2925 1625 
L 3547 1625 
L 3547 1113 
L 2925 1113 
L 2925 0 
L 2297 0 
L 2297 1113 
L 319 1113 
L 319 1709 
L 2194 4666 
z
" transform="scale(0.015625)"/>
       </defs>
       <use xlink:href="#Menlo-Regular-34"/>
       <use xlink:href="#Menlo-Regular-30" transform="translate(60.205078 0)"/>
      </g>
     </g>
    </g>
    <g id="ytick_4">
     <g id="line2d_19">
      <path d="M 29.707656 57.434841 
L 392.407656 57.434841 
" clip-path="url(#p3d9aeb1366)" style="fill: none; stroke: #1a1a1a; stroke-opacity: 0.15; stroke-width: 0.4; stroke-linejoin: miter"/>
     </g>
     <g id="line2d_20">
      <g>
       <use xlink:href="#mda552ef942" x="29.707656" y="57.434841" style="fill: #1a1a1a; stroke: #1a1a1a; stroke-width: 0.8"/>
      </g>
     </g>
     <g id="text_4">
      <!-- 60 -->
      <g style="fill: #1a1a1a" transform="translate(17.779219 60.104138) scale(0.07 -0.07)">
       <defs>
        <path id="Menlo-Regular-36" d="M 3097 4563 
L 3097 3981 
Q 2900 4097 2678 4158 
Q 2456 4219 2216 4219 
Q 1616 4219 1306 3767 
Q 997 3316 997 2438 
Q 1147 2750 1412 2917 
Q 1678 3084 2022 3084 
Q 2697 3084 3067 2670 
Q 3438 2256 3438 1497 
Q 3438 741 3056 325 
Q 2675 -91 1984 -91 
Q 1172 -91 794 492 
Q 416 1075 416 2328 
Q 416 3509 870 4129 
Q 1325 4750 2188 4750 
Q 2419 4750 2650 4701 
Q 2881 4653 3097 4563 
z
M 1972 2591 
Q 1569 2591 1337 2300 
Q 1106 2009 1106 1497 
Q 1106 984 1337 693 
Q 1569 403 1972 403 
Q 2391 403 2603 679 
Q 2816 956 2816 1497 
Q 2816 2041 2603 2316 
Q 2391 2591 1972 2591 
z
" transform="scale(0.015625)"/>
       </defs>
       <use xlink:href="#Menlo-Regular-36"/>
       <use xlink:href="#Menlo-Regular-30" transform="translate(60.205078 0)"/>
      </g>
     </g>
    </g>
    <g id="ytick_5">
     <g id="line2d_21">
      <path d="M 29.707656 30.772069 
L 392.407656 30.772069 
" clip-path="url(#p3d9aeb1366)" style="fill: none; stroke: #1a1a1a; stroke-opacity: 0.15; stroke-width: 0.4; stroke-linejoin: miter"/>
     </g>
     <g id="line2d_22">
      <g>
       <use xlink:href="#mda552ef942" x="29.707656" y="30.772069" style="fill: #1a1a1a; stroke: #1a1a1a; stroke-width: 0.8"/>
      </g>
     </g>
     <g id="text_5">
      <!-- 80 -->
      <g style="fill: #1a1a1a" transform="translate(17.779219 33.441366) scale(0.07 -0.07)">
       <defs>
        <path id="Menlo-Regular-38" d="M 1925 2216 
Q 1503 2216 1273 1980 
Q 1044 1744 1044 1313 
Q 1044 881 1276 642 
Q 1509 403 1925 403 
Q 2350 403 2579 639 
Q 2809 875 2809 1313 
Q 2809 1741 2576 1978 
Q 2344 2216 1925 2216 
z
M 1375 2478 
Q 972 2581 745 2862 
Q 519 3144 519 3541 
Q 519 4097 897 4423 
Q 1275 4750 1925 4750 
Q 2578 4750 2956 4423 
Q 3334 4097 3334 3541 
Q 3334 3144 3107 2862 
Q 2881 2581 2478 2478 
Q 2947 2375 3195 2062 
Q 3444 1750 3444 1253 
Q 3444 622 3041 265 
Q 2638 -91 1925 -91 
Q 1213 -91 811 264 
Q 409 619 409 1247 
Q 409 1747 657 2061 
Q 906 2375 1375 2478 
z
M 1147 3481 
Q 1147 3106 1347 2909 
Q 1547 2713 1925 2713 
Q 2306 2713 2506 2909 
Q 2706 3106 2706 3481 
Q 2706 3863 2507 4063 
Q 2309 4263 1925 4263 
Q 1547 4263 1347 4061 
Q 1147 3859 1147 3481 
z
" transform="scale(0.015625)"/>
       </defs>
       <use xlink:href="#Menlo-Regular-38"/>
       <use xlink:href="#Menlo-Regular-30" transform="translate(60.205078 0)"/>
      </g>
     </g>
    </g>
    <g id="ytick_6">
     <g id="line2d_23">
      <path d="M 29.707656 4.109297 
L 392.407656 4.109297 
" clip-path="url(#p3d9aeb1366)" style="fill: none; stroke: #1a1a1a; stroke-opacity: 0.15; stroke-width: 0.4; stroke-linejoin: miter"/>
     </g>
     <g id="line2d_24">
      <g>
       <use xlink:href="#mda552ef942" x="29.707656" y="4.109297" style="fill: #1a1a1a; stroke: #1a1a1a; stroke-width: 0.8"/>
      </g>
     </g>
     <g id="text_6">
      <!-- 100 -->
      <g style="fill: #1a1a1a" transform="translate(13.565 6.778594) scale(0.07 -0.07)">
       <defs>
        <path id="Menlo-Regular-31" d="M 844 528 
L 1825 528 
L 1825 4053 
L 650 3488 
L 650 4094 
L 1819 4650 
L 2450 4650 
L 2450 528 
L 3419 528 
L 3419 0 
L 844 0 
L 844 528 
z
" transform="scale(0.015625)"/>
       </defs>
       <use xlink:href="#Menlo-Regular-31"/>
       <use xlink:href="#Menlo-Regular-30" transform="translate(60.205078 0)"/>
       <use xlink:href="#Menlo-Regular-30" transform="translate(120.410156 0)"/>
      </g>
     </g>
    </g>
    <g id="text_7">
     <!-- Test accuracy (%) -->
     <g style="fill: #1a1a1a" transform="translate(7.90125 111.704352) rotate(-90) scale(0.08 -0.08)">
      <defs>
       <path id="Menlo-Regular-54" d="M 147 4666 
L 3706 4666 
L 3706 4134 
L 2247 4134 
L 2247 0 
L 1613 0 
L 1613 4134 
L 147 4134 
L 147 4666 
z
" transform="scale(0.015625)"/>
       <path id="Menlo-Regular-65" d="M 3500 2038 
L 3500 1756 
L 1009 1756 
L 1009 1738 
Q 984 1022 1282 709 
Q 1581 397 2125 397 
Q 2400 397 2700 484 
Q 3000 572 3341 750 
L 3341 178 
Q 3013 44 2708 -23 
Q 2403 -91 2119 -91 
Q 1303 -91 843 398 
Q 384 888 384 1747 
Q 384 2584 834 3084 
Q 1284 3584 2034 3584 
Q 2703 3584 3089 3131 
Q 3475 2678 3500 2038 
z
M 2925 2206 
Q 2888 2569 2661 2833 
Q 2434 3097 2009 3097 
Q 1594 3097 1325 2822 
Q 1056 2547 1031 2203 
L 2925 2206 
z
" transform="scale(0.015625)"/>
       <path id="Menlo-Regular-73" d="M 3041 3378 
L 3041 2816 
Q 2794 2959 2544 3031 
Q 2294 3103 2034 3103 
Q 1644 3103 1451 2976 
Q 1259 2850 1259 2591 
Q 1259 2356 1403 2240 
Q 1547 2125 2119 2016 
L 2350 1972 
Q 2778 1891 2998 1647 
Q 3219 1403 3219 1013 
Q 3219 494 2850 201 
Q 2481 -91 1825 -91 
Q 1566 -91 1281 -36 
Q 997 19 666 128 
L 666 722 
Q 988 556 1281 473 
Q 1575 391 1838 391 
Q 2219 391 2428 545 
Q 2638 700 2638 978 
Q 2638 1378 1872 1531 
L 1847 1538 
L 1631 1581 
Q 1134 1678 906 1908 
Q 678 2138 678 2534 
Q 678 3038 1018 3311 
Q 1359 3584 1991 3584 
Q 2272 3584 2531 3532 
Q 2791 3481 3041 3378 
z
" transform="scale(0.015625)"/>
       <path id="Menlo-Regular-74" d="M 1919 4494 
L 1919 3500 
L 3225 3500 
L 3225 3053 
L 1919 3053 
L 1919 1153 
Q 1919 766 2066 612 
Q 2213 459 2578 459 
L 3225 459 
L 3225 0 
L 2522 0 
Q 1875 0 1609 259 
Q 1344 519 1344 1153 
L 1344 3053 
L 409 3053 
L 409 3500 
L 1344 3500 
L 1344 4494 
L 1919 4494 
z
" transform="scale(0.015625)"/>
       <path id="Menlo-Regular-20" transform="scale(0.015625)"/>
       <path id="Menlo-Regular-61" d="M 2194 1759 
L 2003 1759 
Q 1500 1759 1245 1582 
Q 991 1406 991 1056 
Q 991 741 1181 566 
Q 1372 391 1709 391 
Q 2184 391 2456 720 
Q 2728 1050 2731 1631 
L 2731 1759 
L 2194 1759 
z
M 3309 1997 
L 3309 0 
L 2731 0 
L 2731 519 
Q 2547 206 2267 57 
Q 1988 -91 1588 -91 
Q 1053 -91 734 211 
Q 416 513 416 1019 
Q 416 1603 808 1906 
Q 1200 2209 1959 2209 
L 2731 2209 
L 2731 2300 
Q 2728 2719 2518 2908 
Q 2309 3097 1850 3097 
Q 1556 3097 1256 3012 
Q 956 2928 672 2766 
L 672 3341 
Q 991 3463 1283 3523 
Q 1575 3584 1850 3584 
Q 2284 3584 2592 3456 
Q 2900 3328 3091 3072 
Q 3209 2916 3259 2686 
Q 3309 2456 3309 1997 
z
" transform="scale(0.015625)"/>
       <path id="Menlo-Regular-63" d="M 3316 178 
Q 3084 44 2839 -23 
Q 2594 -91 2338 -91 
Q 1525 -91 1067 396 
Q 609 884 609 1747 
Q 609 2609 1067 3096 
Q 1525 3584 2338 3584 
Q 2591 3584 2831 3518 
Q 3072 3453 3316 3316 
L 3316 2713 
Q 3088 2916 2858 3006 
Q 2628 3097 2338 3097 
Q 1797 3097 1506 2747 
Q 1216 2397 1216 1747 
Q 1216 1100 1508 748 
Q 1800 397 2338 397 
Q 2638 397 2875 489 
Q 3113 581 3316 775 
L 3316 178 
z
" transform="scale(0.015625)"/>
       <path id="Menlo-Regular-75" d="M 609 1325 
L 609 3494 
L 1184 3494 
L 1184 1325 
Q 1184 853 1351 631 
Q 1519 409 1869 409 
Q 2275 409 2490 695 
Q 2706 981 2706 1516 
L 2706 3494 
L 3284 3494 
L 3284 0 
L 2706 0 
L 2706 525 
Q 2553 222 2289 65 
Q 2025 -91 1672 -91 
Q 1134 -91 871 261 
Q 609 613 609 1325 
z
" transform="scale(0.015625)"/>
       <path id="Menlo-Regular-72" d="M 3609 2778 
Q 3425 2922 3234 2987 
Q 3044 3053 2816 3053 
Q 2278 3053 1993 2715 
Q 1709 2378 1709 1741 
L 1709 0 
L 1131 0 
L 1131 3500 
L 1709 3500 
L 1709 2816 
Q 1853 3188 2151 3386 
Q 2450 3584 2859 3584 
Q 3072 3584 3256 3531 
Q 3441 3478 3609 3366 
L 3609 2778 
z
" transform="scale(0.015625)"/>
       <path id="Menlo-Regular-79" d="M 2681 1125 
Q 2538 759 2316 163 
Q 2006 -663 1900 -844 
Q 1756 -1088 1540 -1209 
Q 1325 -1331 1038 -1331 
L 575 -1331 
L 575 -850 
L 916 -850 
Q 1169 -850 1312 -703 
Q 1456 -556 1678 56 
L 325 3500 
L 934 3500 
L 1972 763 
L 2994 3500 
L 3603 3500 
L 2681 1125 
z
" transform="scale(0.015625)"/>
       <path id="Menlo-Regular-28" d="M 2672 5169 
Q 2256 4456 2051 3748 
Q 1847 3041 1847 2322 
Q 1847 1606 2051 897 
Q 2256 188 2672 -531 
L 2172 -531 
Q 1700 213 1469 917 
Q 1238 1622 1238 2322 
Q 1238 3019 1469 3725 
Q 1700 4431 2172 5169 
L 2672 5169 
z
" transform="scale(0.015625)"/>
       <path id="Menlo-Regular-25" d="M 2175 997 
Q 2175 753 2339 587 
Q 2503 422 2747 422 
Q 2988 422 3155 589 
Q 3322 756 3322 997 
Q 3322 1238 3153 1406 
Q 2984 1575 2747 1575 
Q 2503 1575 2339 1409 
Q 2175 1244 2175 997 
z
M 1753 997 
Q 1753 1419 2040 1708 
Q 2328 1997 2747 1997 
Q 2947 1997 3126 1922 
Q 3306 1847 3450 1703 
Q 3594 1556 3672 1375 
Q 3750 1194 3750 997 
Q 3750 581 3459 290 
Q 3169 0 2747 0 
Q 2322 0 2037 286 
Q 1753 572 1753 997 
z
M 259 1375 
L 122 1728 
L 3606 3122 
L 3763 2769 
L 259 1375 
z
M 525 3475 
Q 525 3228 689 3064 
Q 853 2900 1100 2900 
Q 1341 2900 1509 3067 
Q 1678 3234 1678 3475 
Q 1678 3716 1509 3883 
Q 1341 4050 1100 4050 
Q 859 4050 692 3884 
Q 525 3719 525 3475 
z
M 103 3475 
Q 103 3897 390 4186 
Q 678 4475 1100 4475 
Q 1300 4475 1483 4400 
Q 1666 4325 1806 4184 
Q 1947 4044 2023 3861 
Q 2100 3678 2100 3475 
Q 2100 3056 1809 2767 
Q 1519 2478 1100 2478 
Q 678 2478 390 2765 
Q 103 3053 103 3475 
z
" transform="scale(0.015625)"/>
       <path id="Menlo-Regular-29" d="M 1088 5169 
L 1588 5169 
Q 2059 4431 2290 3725 
Q 2522 3019 2522 2322 
Q 2522 1619 2290 912 
Q 2059 206 1588 -531 
L 1088 -531 
Q 1503 194 1708 903 
Q 1913 1613 1913 2322 
Q 1913 3034 1708 3743 
Q 1503 4453 1088 5169 
z
" transform="scale(0.015625)"/>
      </defs>
      <use xlink:href="#Menlo-Regular-54"/>
      <use xlink:href="#Menlo-Regular-65" transform="translate(60.205078 0)"/>
      <use xlink:href="#Menlo-Regular-73" transform="translate(120.410156 0)"/>
      <use xlink:href="#Menlo-Regular-74" transform="translate(180.615234 0)"/>
      <use xlink:href="#Menlo-Regular-20" transform="translate(240.820312 0)"/>
      <use xlink:href="#Menlo-Regular-61" transform="translate(301.025391 0)"/>
      <use xlink:href="#Menlo-Regular-63" transform="translate(361.230469 0)"/>
      <use xlink:href="#Menlo-Regular-63" transform="translate(421.435547 0)"/>
      <use xlink:href="#Menlo-Regular-75" transform="translate(481.640625 0)"/>
      <use xlink:href="#Menlo-Regular-72" transform="translate(541.845703 0)"/>
      <use xlink:href="#Menlo-Regular-61" transform="translate(602.050781 0)"/>
      <use xlink:href="#Menlo-Regular-63" transform="translate(662.255859 0)"/>
      <use xlink:href="#Menlo-Regular-79" transform="translate(722.460938 0)"/>
      <use xlink:href="#Menlo-Regular-20" transform="translate(782.666016 0)"/>
      <use xlink:href="#Menlo-Regular-28" transform="translate(842.871094 0)"/>
      <use xlink:href="#Menlo-Regular-25" transform="translate(903.076172 0)"/>
      <use xlink:href="#Menlo-Regular-29" transform="translate(963.28125 0)"/>
     </g>
    </g>
   </g>
   <g id="line2d_25">
    <path d="M 46.19402 27.820119 
L 52.923148 21.725771 
L 59.652276 20.202184 
L 66.381404 19.535615 
L 73.110532 19.249942 
L 79.83966 19.059494 
L 86.568788 18.773822 
L 93.297916 18.678597 
L 100.027044 17.535907 
L 106.756172 17.059786 
L 113.4853 17.250235 
L 120.214428 18.297701 
L 126.943556 16.964562 
L 133.672684 17.631131 
L 140.401812 16.869338 
L 147.13094 16.393217 
L 153.860068 16.964562 
L 160.589196 17.726355 
L 167.318324 17.82158 
L 174.047452 16.107544 
L 180.77658 16.297993 
L 187.505708 15.821872 
L 194.234836 15.917096 
L 200.963964 15.060078 
L 207.693092 15.440975 
L 214.42222 15.917096 
L 221.151348 15.345751 
L 227.880476 15.631423 
L 234.609604 15.155302 
L 241.338732 14.774406 
L 248.06786 14.86963 
L 254.796988 15.250527 
L 261.526116 15.345751 
L 268.255244 15.155302 
L 274.984372 15.155302 
L 281.7135 15.726648 
L 288.442628 16.488441 
L 295.171756 16.01232 
L 301.900884 15.631423 
L 308.630012 15.917096 
L 315.35914 16.01232 
L 322.088268 16.393217 
L 328.817397 16.393217 
L 335.546525 16.202769 
L 342.275653 15.821872 
L 349.004781 15.631423 
L 355.733909 16.202769 
L 362.463037 15.917096 
L 369.192165 15.631423 
L 375.921293 15.440975 
" clip-path="url(#p3d9aeb1366)" style="fill: none; stroke: #440154; stroke-opacity: 0.85; stroke-linejoin: miter"/>
   </g>
   <g id="line2d_26">
    <path d="M 46.19402 29.343706 
L 52.923148 20.963978 
L 59.652276 19.821288 
L 66.381404 19.916512 
L 73.110532 19.345167 
L 79.83966 18.678597 
L 86.568788 18.392925 
L 93.297916 18.96427 
L 100.027044 17.82158 
L 106.756172 17.059786 
L 113.4853 17.535907 
L 120.214428 17.250235 
L 126.943556 16.774114 
L 133.672684 16.488441 
L 140.401812 16.583665 
L 147.13094 16.964562 
L 153.860068 16.393217 
L 160.589196 17.440683 
L 167.318324 16.964562 
L 174.047452 16.393217 
L 180.77658 16.393217 
L 187.505708 16.678889 
L 194.234836 16.393217 
L 200.963964 16.202769 
L 207.693092 16.202769 
L 214.42222 15.726648 
L 221.151348 14.86963 
L 227.880476 14.679182 
L 234.609604 14.583957 
L 241.338732 15.536199 
L 248.06786 15.155302 
L 254.796988 14.774406 
L 261.526116 15.821872 
L 268.255244 15.631423 
L 274.984372 14.964854 
L 281.7135 15.536199 
L 288.442628 16.488441 
L 295.171756 15.536199 
L 301.900884 15.250527 
L 308.630012 15.917096 
L 315.35914 14.86963 
L 322.088268 15.345751 
L 328.817397 15.726648 
L 335.546525 14.964854 
L 342.275653 16.01232 
L 349.004781 15.917096 
L 355.733909 15.726648 
L 362.463037 15.821872 
L 369.192165 15.155302 
L 375.921293 15.821872 
" clip-path="url(#p3d9aeb1366)" style="fill: none; stroke: #440154; stroke-opacity: 0.85; stroke-linejoin: miter"/>
   </g>
   <g id="line2d_27">
    <path d="M 46.19402 28.581913 
L 52.923148 21.344875 
L 59.652276 20.487857 
L 66.381404 20.487857 
L 73.110532 19.821288 
L 79.83966 19.630839 
L 86.568788 19.059494 
L 93.297916 19.154718 
L 100.027044 16.964562 
L 106.756172 16.869338 
L 113.4853 17.059786 
L 120.214428 17.059786 
L 126.943556 17.250235 
L 133.672684 16.107544 
L 140.401812 16.202769 
L 147.13094 16.869338 
L 153.860068 16.107544 
L 160.589196 17.15501 
L 167.318324 16.774114 
L 174.047452 16.393217 
L 180.77658 17.059786 
L 187.505708 16.964562 
L 194.234836 16.297993 
L 200.963964 15.631423 
L 207.693092 16.202769 
L 214.42222 15.250527 
L 221.151348 14.86963 
L 227.880476 15.440975 
L 234.609604 14.488733 
L 241.338732 14.86963 
L 248.06786 15.345751 
L 254.796988 14.679182 
L 261.526116 15.250527 
L 268.255244 14.86963 
L 274.984372 15.536199 
L 281.7135 16.01232 
L 288.442628 16.393217 
L 295.171756 16.01232 
L 301.900884 15.345751 
L 308.630012 16.393217 
L 315.35914 15.060078 
L 322.088268 15.155302 
L 328.817397 15.345751 
L 335.546525 15.155302 
L 342.275653 15.250527 
L 349.004781 15.155302 
L 355.733909 16.297993 
L 362.463037 16.297993 
L 369.192165 16.297993 
L 375.921293 14.679182 
" clip-path="url(#p3d9aeb1366)" style="fill: none; stroke: #440154; stroke-opacity: 0.85; stroke-linejoin: miter"/>
   </g>
   <g id="line2d_28">
    <path d="M 46.19402 30.1055 
L 52.923148 22.868462 
L 59.652276 20.392633 
L 66.381404 19.916512 
L 73.110532 18.583373 
L 79.83966 18.583373 
L 86.568788 18.869046 
L 93.297916 18.488149 
L 100.027044 18.678597 
L 106.756172 18.869046 
L 113.4853 18.297701 
L 120.214428 17.916804 
L 126.943556 18.107252 
L 133.672684 17.726355 
L 140.401812 17.535907 
L 147.13094 18.107252 
L 153.860068 17.059786 
L 160.589196 17.15501 
L 167.318324 17.345459 
L 174.047452 17.15501 
L 180.77658 17.440683 
L 187.505708 17.15501 
L 194.234836 16.488441 
L 200.963964 16.583665 
L 207.693092 17.250235 
L 214.42222 16.107544 
L 221.151348 16.01232 
L 227.880476 15.631423 
L 234.609604 16.202769 
L 241.338732 15.821872 
L 248.06786 16.01232 
L 254.796988 15.440975 
L 261.526116 15.821872 
L 268.255244 16.583665 
L 274.984372 16.107544 
L 281.7135 16.393217 
L 288.442628 16.297993 
L 295.171756 16.107544 
L 301.900884 15.726648 
L 308.630012 15.821872 
L 315.35914 15.536199 
L 322.088268 15.821872 
L 328.817397 16.678889 
L 335.546525 16.393217 
L 342.275653 16.583665 
L 349.004781 16.583665 
L 355.733909 16.01232 
L 362.463037 15.821872 
L 369.192165 16.488441 
L 375.921293 15.060078 
" clip-path="url(#p3d9aeb1366)" style="fill: none; stroke: #414487; stroke-opacity: 0.85; stroke-linejoin: miter"/>
   </g>
   <g id="line2d_29">
    <path d="M 46.19402 32.295656 
L 52.923148 24.2016 
L 59.652276 20.678305 
L 66.381404 19.345167 
L 73.110532 18.678597 
L 79.83966 18.869046 
L 86.568788 19.059494 
L 93.297916 19.154718 
L 100.027044 18.583373 
L 106.756172 18.678597 
L 113.4853 17.726355 
L 120.214428 16.964562 
L 126.943556 17.250235 
L 133.672684 17.059786 
L 140.401812 18.012028 
L 147.13094 17.916804 
L 153.860068 17.440683 
L 160.589196 16.869338 
L 167.318324 16.583665 
L 174.047452 16.393217 
L 180.77658 16.869338 
L 187.505708 16.583665 
L 194.234836 17.059786 
L 200.963964 17.059786 
L 207.693092 16.488441 
L 214.42222 16.678889 
L 221.151348 16.297993 
L 227.880476 16.774114 
L 234.609604 16.297993 
L 241.338732 15.345751 
L 248.06786 16.297993 
L 254.796988 16.774114 
L 261.526116 16.01232 
L 268.255244 16.964562 
L 274.984372 16.202769 
L 281.7135 17.059786 
L 288.442628 16.583665 
L 295.171756 16.107544 
L 301.900884 15.821872 
L 308.630012 16.393217 
L 315.35914 16.297993 
L 322.088268 17.726355 
L 328.817397 16.583665 
L 335.546525 17.059786 
L 342.275653 16.488441 
L 349.004781 16.583665 
L 355.733909 16.107544 
L 362.463037 16.107544 
L 369.192165 17.059786 
L 375.921293 16.107544 
" clip-path="url(#p3d9aeb1366)" style="fill: none; stroke: #414487; stroke-opacity: 0.85; stroke-linejoin: miter"/>
   </g>
   <g id="line2d_30">
    <path d="M 46.19402 30.391172 
L 52.923148 24.296824 
L 59.652276 20.963978 
L 66.381404 19.821288 
L 73.110532 19.249942 
L 79.83966 19.154718 
L 86.568788 18.488149 
L 93.297916 18.202476 
L 100.027044 17.726355 
L 106.756172 18.678597 
L 113.4853 18.488149 
L 120.214428 17.726355 
L 126.943556 17.631131 
L 133.672684 17.059786 
L 140.401812 16.964562 
L 147.13094 18.107252 
L 153.860068 17.726355 
L 160.589196 17.345459 
L 167.318324 16.869338 
L 174.047452 16.678889 
L 180.77658 17.82158 
L 187.505708 17.631131 
L 194.234836 16.964562 
L 200.963964 17.535907 
L 207.693092 16.107544 
L 214.42222 16.01232 
L 221.151348 16.393217 
L 227.880476 16.583665 
L 234.609604 16.01232 
L 241.338732 15.345751 
L 248.06786 15.631423 
L 254.796988 16.869338 
L 261.526116 15.536199 
L 268.255244 15.631423 
L 274.984372 15.345751 
L 281.7135 15.821872 
L 288.442628 16.202769 
L 295.171756 16.01232 
L 301.900884 15.536199 
L 308.630012 15.631423 
L 315.35914 16.01232 
L 322.088268 15.631423 
L 328.817397 16.964562 
L 335.546525 16.964562 
L 342.275653 17.059786 
L 349.004781 15.917096 
L 355.733909 17.250235 
L 362.463037 16.01232 
L 369.192165 16.964562 
L 375.921293 16.01232 
" clip-path="url(#p3d9aeb1366)" style="fill: none; stroke: #414487; stroke-opacity: 0.85; stroke-linejoin: miter"/>
   </g>
   <g id="line2d_31">
    <path d="M 46.19402 33.53357 
L 52.923148 24.392049 
L 59.652276 22.582789 
L 66.381404 21.059202 
L 73.110532 21.059202 
L 79.83966 20.773529 
L 86.568788 21.154426 
L 93.297916 19.821288 
L 100.027044 20.202184 
L 106.756172 19.535615 
L 113.4853 19.821288 
L 120.214428 19.440391 
L 126.943556 19.440391 
L 133.672684 19.440391 
L 140.401812 19.059494 
L 147.13094 19.154718 
L 153.860068 18.202476 
L 160.589196 18.202476 
L 167.318324 18.488149 
L 174.047452 18.297701 
L 180.77658 19.059494 
L 187.505708 18.297701 
L 194.234836 18.773822 
L 200.963964 17.82158 
L 207.693092 17.726355 
L 214.42222 18.583373 
L 221.151348 18.869046 
L 227.880476 18.107252 
L 234.609604 18.012028 
L 241.338732 18.583373 
L 248.06786 18.678597 
L 254.796988 18.583373 
L 261.526116 18.583373 
L 268.255244 18.297701 
L 274.984372 18.678597 
L 281.7135 17.631131 
L 288.442628 17.631131 
L 295.171756 17.916804 
L 301.900884 18.297701 
L 308.630012 18.96427 
L 315.35914 17.631131 
L 322.088268 19.440391 
L 328.817397 18.773822 
L 335.546525 18.869046 
L 342.275653 19.059494 
L 349.004781 18.297701 
L 355.733909 18.392925 
L 362.463037 18.297701 
L 369.192165 17.916804 
L 375.921293 16.964562 
" clip-path="url(#p3d9aeb1366)" style="fill: none; stroke: #2a788e; stroke-opacity: 0.85; stroke-linejoin: miter"/>
   </g>
   <g id="line2d_32">
    <path d="M 46.19402 33.438346 
L 52.923148 24.677721 
L 59.652276 22.487565 
L 66.381404 21.725771 
L 73.110532 20.202184 
L 79.83966 20.487857 
L 86.568788 21.440099 
L 93.297916 20.487857 
L 100.027044 20.202184 
L 106.756172 19.630839 
L 113.4853 19.249942 
L 120.214428 19.630839 
L 126.943556 19.440391 
L 133.672684 18.96427 
L 140.401812 19.726063 
L 147.13094 19.630839 
L 153.860068 18.392925 
L 160.589196 18.488149 
L 167.318324 18.107252 
L 174.047452 18.012028 
L 180.77658 19.345167 
L 187.505708 18.678597 
L 194.234836 17.82158 
L 200.963964 17.916804 
L 207.693092 18.392925 
L 214.42222 18.583373 
L 221.151348 18.392925 
L 227.880476 17.535907 
L 234.609604 18.583373 
L 241.338732 18.678597 
L 248.06786 18.202476 
L 254.796988 18.392925 
L 261.526116 17.82158 
L 268.255244 18.392925 
L 274.984372 18.202476 
L 281.7135 18.107252 
L 288.442628 17.535907 
L 295.171756 17.916804 
L 301.900884 17.535907 
L 308.630012 18.392925 
L 315.35914 19.345167 
L 322.088268 19.154718 
L 328.817397 17.82158 
L 335.546525 19.154718 
L 342.275653 18.488149 
L 349.004781 18.107252 
L 355.733909 17.82158 
L 362.463037 16.869338 
L 369.192165 17.535907 
L 375.921293 17.250235 
" clip-path="url(#p3d9aeb1366)" style="fill: none; stroke: #2a788e; stroke-opacity: 0.85; stroke-linejoin: miter"/>
   </g>
   <g id="line2d_33">
    <path d="M 46.19402 33.057449 
L 52.923148 25.153842 
L 59.652276 22.868462 
L 66.381404 22.297116 
L 73.110532 21.535323 
L 79.83966 20.392633 
L 86.568788 21.154426 
L 93.297916 20.10696 
L 100.027044 18.773822 
L 106.756172 20.011736 
L 113.4853 20.10696 
L 120.214428 19.440391 
L 126.943556 19.440391 
L 133.672684 20.011736 
L 140.401812 19.059494 
L 147.13094 18.773822 
L 153.860068 18.392925 
L 160.589196 18.583373 
L 167.318324 19.154718 
L 174.047452 17.82158 
L 180.77658 18.773822 
L 187.505708 18.583373 
L 194.234836 18.773822 
L 200.963964 18.012028 
L 207.693092 18.583373 
L 214.42222 19.059494 
L 221.151348 18.107252 
L 227.880476 17.440683 
L 234.609604 17.631131 
L 241.338732 18.012028 
L 248.06786 18.488149 
L 254.796988 19.249942 
L 261.526116 19.535615 
L 268.255244 18.869046 
L 274.984372 18.678597 
L 281.7135 18.012028 
L 288.442628 18.678597 
L 295.171756 18.678597 
L 301.900884 17.916804 
L 308.630012 18.012028 
L 315.35914 17.631131 
L 322.088268 18.107252 
L 328.817397 18.583373 
L 335.546525 18.107252 
L 342.275653 18.678597 
L 349.004781 19.345167 
L 355.733909 18.202476 
L 362.463037 18.012028 
L 369.192165 17.631131 
L 375.921293 18.012028 
" clip-path="url(#p3d9aeb1366)" style="fill: none; stroke: #2a788e; stroke-opacity: 0.85; stroke-linejoin: miter"/>
   </g>
   <g id="line2d_34">
    <path d="M 46.19402 36.961641 
L 52.923148 29.058034 
L 59.652276 25.153842 
L 66.381404 22.773237 
L 73.110532 22.963686 
L 79.83966 22.201892 
L 86.568788 21.535323 
L 93.297916 21.440099 
L 100.027044 21.154426 
L 106.756172 20.297409 
L 113.4853 20.487857 
L 120.214428 20.011736 
L 126.943556 20.297409 
L 133.672684 19.916512 
L 140.401812 20.10696 
L 147.13094 20.678305 
L 153.860068 20.10696 
L 160.589196 20.392633 
L 167.318324 20.10696 
L 174.047452 20.10696 
L 180.77658 20.487857 
L 187.505708 20.868754 
L 194.234836 21.535323 
L 200.963964 20.868754 
L 207.693092 20.678305 
L 214.42222 20.963978 
L 221.151348 20.868754 
L 227.880476 20.487857 
L 234.609604 20.011736 
L 241.338732 21.344875 
L 248.06786 21.059202 
L 254.796988 20.297409 
L 261.526116 20.583081 
L 268.255244 21.344875 
L 274.984372 20.297409 
L 281.7135 20.011736 
L 288.442628 19.821288 
L 295.171756 20.487857 
L 301.900884 20.10696 
L 308.630012 19.059494 
L 315.35914 19.535615 
L 322.088268 19.249942 
L 328.817397 18.583373 
L 335.546525 18.678597 
L 342.275653 18.488149 
L 349.004781 19.821288 
L 355.733909 18.583373 
L 362.463037 18.392925 
L 369.192165 18.96427 
L 375.921293 18.392925 
" clip-path="url(#p3d9aeb1366)" style="fill: none; stroke: #22a884; stroke-opacity: 0.85; stroke-linejoin: miter"/>
   </g>
   <g id="line2d_35">
    <path d="M 46.19402 37.342538 
L 52.923148 27.915343 
L 59.652276 24.2016 
L 66.381404 23.249358 
L 73.110532 23.725479 
L 79.83966 23.05891 
L 86.568788 21.820995 
L 93.297916 21.535323 
L 100.027044 20.202184 
L 106.756172 21.630547 
L 113.4853 20.678305 
L 120.214428 20.297409 
L 126.943556 19.916512 
L 133.672684 20.297409 
L 140.401812 20.202184 
L 147.13094 21.535323 
L 153.860068 19.821288 
L 160.589196 20.678305 
L 167.318324 20.011736 
L 174.047452 19.916512 
L 180.77658 20.10696 
L 187.505708 20.678305 
L 194.234836 21.154426 
L 200.963964 20.963978 
L 207.693092 21.059202 
L 214.42222 20.202184 
L 221.151348 21.154426 
L 227.880476 21.535323 
L 234.609604 20.773529 
L 241.338732 20.297409 
L 248.06786 20.011736 
L 254.796988 20.392633 
L 261.526116 20.297409 
L 268.255244 20.202184 
L 274.984372 19.249942 
L 281.7135 19.535615 
L 288.442628 20.487857 
L 295.171756 19.630839 
L 301.900884 19.630839 
L 308.630012 18.583373 
L 315.35914 19.440391 
L 322.088268 18.869046 
L 328.817397 19.630839 
L 335.546525 18.583373 
L 342.275653 18.773822 
L 349.004781 17.631131 
L 355.733909 19.154718 
L 362.463037 19.726063 
L 369.192165 18.869046 
L 375.921293 19.154718 
" clip-path="url(#p3d9aeb1366)" style="fill: none; stroke: #22a884; stroke-opacity: 0.85; stroke-linejoin: miter"/>
   </g>
   <g id="line2d_36">
    <path d="M 46.19402 36.104623 
L 52.923148 28.29624 
L 59.652276 25.725187 
L 66.381404 23.249358 
L 73.110532 22.201892 
L 79.83966 22.392341 
L 86.568788 21.440099 
L 93.297916 21.059202 
L 100.027044 20.392633 
L 106.756172 20.011736 
L 113.4853 20.297409 
L 120.214428 20.487857 
L 126.943556 19.821288 
L 133.672684 20.392633 
L 140.401812 20.392633 
L 147.13094 20.392633 
L 153.860068 19.249942 
L 160.589196 19.726063 
L 167.318324 19.630839 
L 174.047452 20.392633 
L 180.77658 21.154426 
L 187.505708 20.773529 
L 194.234836 20.583081 
L 200.963964 20.10696 
L 207.693092 20.868754 
L 214.42222 20.678305 
L 221.151348 20.678305 
L 227.880476 20.963978 
L 234.609604 19.249942 
L 241.338732 20.678305 
L 248.06786 20.868754 
L 254.796988 20.583081 
L 261.526116 20.868754 
L 268.255244 20.392633 
L 274.984372 19.821288 
L 281.7135 19.916512 
L 288.442628 19.821288 
L 295.171756 20.583081 
L 301.900884 19.440391 
L 308.630012 19.249942 
L 315.35914 20.202184 
L 322.088268 18.297701 
L 328.817397 18.392925 
L 335.546525 18.297701 
L 342.275653 17.82158 
L 349.004781 18.488149 
L 355.733909 17.631131 
L 362.463037 18.297701 
L 369.192165 18.583373 
L 375.921293 18.297701 
" clip-path="url(#p3d9aeb1366)" style="fill: none; stroke: #22a884; stroke-opacity: 0.85; stroke-linejoin: miter"/>
   </g>
   <g id="line2d_37">
    <path d="M 46.19402 38.199555 
L 52.923148 31.057742 
L 59.652276 27.629671 
L 66.381404 26.391756 
L 73.110532 26.391756 
L 79.83966 26.201308 
L 86.568788 24.868169 
L 93.297916 23.154134 
L 100.027044 23.630255 
L 106.756172 24.868169 
L 113.4853 24.677721 
L 120.214428 25.439515 
L 126.943556 24.963394 
L 133.672684 24.106376 
L 140.401812 22.868462 
L 147.13094 23.05891 
L 153.860068 23.725479 
L 160.589196 23.154134 
L 167.318324 22.011444 
L 174.047452 22.297116 
L 180.77658 22.963686 
L 187.505708 22.582789 
L 194.234836 23.439807 
L 200.963964 22.201892 
L 207.693092 21.440099 
L 214.42222 22.201892 
L 221.151348 21.24965 
L 227.880476 21.535323 
L 234.609604 21.725771 
L 241.338732 20.297409 
L 248.06786 20.868754 
L 254.796988 20.868754 
L 261.526116 20.773529 
L 268.255244 21.154426 
L 274.984372 21.059202 
L 281.7135 21.24965 
L 288.442628 21.440099 
L 295.171756 22.011444 
L 301.900884 21.059202 
L 308.630012 21.535323 
L 315.35914 21.24965 
L 322.088268 21.24965 
L 328.817397 20.963978 
L 335.546525 21.440099 
L 342.275653 21.535323 
L 349.004781 21.725771 
L 355.733909 21.535323 
L 362.463037 21.059202 
L 369.192165 21.059202 
L 375.921293 21.440099 
" clip-path="url(#p3d9aeb1366)" style="fill: none; stroke: #7ad151; stroke-opacity: 0.85; stroke-linejoin: miter"/>
   </g>
   <g id="line2d_38">
    <path d="M 46.19402 40.961057 
L 52.923148 29.819827 
L 59.652276 27.820119 
L 66.381404 27.343998 
L 73.110532 25.439515 
L 79.83966 24.2016 
L 86.568788 24.011152 
L 93.297916 24.963394 
L 100.027044 24.868169 
L 106.756172 23.344582 
L 113.4853 23.725479 
L 120.214428 23.439807 
L 126.943556 23.820703 
L 133.672684 22.487565 
L 140.401812 23.725479 
L 147.13094 22.678013 
L 153.860068 22.392341 
L 160.589196 22.106668 
L 167.318324 21.91622 
L 174.047452 21.725771 
L 180.77658 22.582789 
L 187.505708 22.582789 
L 194.234836 21.24965 
L 200.963964 22.297116 
L 207.693092 21.630547 
L 214.42222 21.059202 
L 221.151348 21.344875 
L 227.880476 20.297409 
L 234.609604 20.773529 
L 241.338732 20.868754 
L 248.06786 20.773529 
L 254.796988 20.583081 
L 261.526116 21.440099 
L 268.255244 20.868754 
L 274.984372 21.154426 
L 281.7135 21.440099 
L 288.442628 21.535323 
L 295.171756 20.678305 
L 301.900884 21.440099 
L 308.630012 20.583081 
L 315.35914 21.630547 
L 322.088268 21.820995 
L 328.817397 20.678305 
L 335.546525 21.059202 
L 342.275653 21.91622 
L 349.004781 21.535323 
L 355.733909 21.91622 
L 362.463037 20.963978 
L 369.192165 21.059202 
L 375.921293 20.678305 
" clip-path="url(#p3d9aeb1366)" style="fill: none; stroke: #7ad151; stroke-opacity: 0.85; stroke-linejoin: miter"/>
   </g>
   <g id="line2d_39">
    <path d="M 46.19402 46.48406 
L 52.923148 32.009983 
L 59.652276 27.248774 
L 66.381404 26.677429 
L 73.110532 26.391756 
L 79.83966 26.867877 
L 86.568788 26.296532 
L 93.297916 25.34429 
L 100.027044 24.2016 
L 106.756172 22.678013 
L 113.4853 25.058618 
L 120.214428 24.772945 
L 126.943556 23.344582 
L 133.672684 23.915928 
L 140.401812 23.630255 
L 147.13094 23.05891 
L 153.860068 22.963686 
L 160.589196 23.154134 
L 167.318324 22.392341 
L 174.047452 22.106668 
L 180.77658 22.487565 
L 187.505708 22.011444 
L 194.234836 22.392341 
L 200.963964 22.678013 
L 207.693092 22.201892 
L 214.42222 20.868754 
L 221.151348 21.725771 
L 227.880476 21.059202 
L 234.609604 22.201892 
L 241.338732 20.678305 
L 248.06786 21.630547 
L 254.796988 20.202184 
L 261.526116 20.773529 
L 268.255244 21.154426 
L 274.984372 20.392633 
L 281.7135 20.297409 
L 288.442628 20.678305 
L 295.171756 21.630547 
L 301.900884 21.535323 
L 308.630012 21.24965 
L 315.35914 20.963978 
L 322.088268 21.630547 
L 328.817397 21.630547 
L 335.546525 21.059202 
L 342.275653 20.202184 
L 349.004781 20.868754 
L 355.733909 21.344875 
L 362.463037 21.344875 
L 369.192165 21.059202 
L 375.921293 21.91622 
" clip-path="url(#p3d9aeb1366)" style="fill: none; stroke: #7ad151; stroke-opacity: 0.85; stroke-linejoin: miter"/>
   </g>
   <g id="line2d_40">
    <path d="M 46.19402 61.719929 
L 52.923148 38.199555 
L 59.652276 32.962225 
L 66.381404 30.676845 
L 73.110532 29.153258 
L 79.83966 28.105792 
L 86.568788 26.486981 
L 93.297916 27.15355 
L 100.027044 27.058326 
L 106.756172 28.010568 
L 113.4853 27.248774 
L 120.214428 27.248774 
L 126.943556 27.058326 
L 133.672684 27.058326 
L 140.401812 26.106084 
L 147.13094 27.058326 
L 153.860068 26.963102 
L 160.589196 27.820119 
L 167.318324 27.915343 
L 174.047452 28.105792 
L 180.77658 28.486689 
L 187.505708 28.105792 
L 194.234836 26.772653 
L 200.963964 27.15355 
L 207.693092 26.677429 
L 214.42222 25.34429 
L 221.151348 24.963394 
L 227.880476 24.772945 
L 234.609604 24.011152 
L 241.338732 25.058618 
L 248.06786 24.487273 
L 254.796988 24.677721 
L 261.526116 25.249066 
L 268.255244 26.391756 
L 274.984372 25.439515 
L 281.7135 24.963394 
L 288.442628 25.439515 
L 295.171756 25.439515 
L 301.900884 25.249066 
L 308.630012 24.963394 
L 315.35914 25.820411 
L 322.088268 24.582497 
L 328.817397 25.058618 
L 335.546525 24.296824 
L 342.275653 23.915928 
L 349.004781 23.154134 
L 355.733909 23.154134 
L 362.463037 24.2016 
L 369.192165 23.820703 
L 375.921293 23.630255 
" clip-path="url(#p3d9aeb1366)" style="fill: none; stroke: #fde725; stroke-opacity: 0.85; stroke-linejoin: miter"/>
   </g>
   <g id="line2d_41">
    <path d="M 46.19402 58.10141 
L 52.923148 38.485228 
L 59.652276 34.771485 
L 66.381404 32.676553 
L 73.110532 30.581621 
L 79.83966 28.772361 
L 86.568788 28.201016 
L 93.297916 26.963102 
L 100.027044 27.534447 
L 106.756172 27.15355 
L 113.4853 26.106084 
L 120.214428 27.343998 
L 126.943556 26.106084 
L 133.672684 26.867877 
L 140.401812 25.34429 
L 147.13094 26.201308 
L 153.860068 26.963102 
L 160.589196 27.820119 
L 167.318324 27.248774 
L 174.047452 27.915343 
L 180.77658 27.629671 
L 187.505708 28.201016 
L 194.234836 26.963102 
L 200.963964 26.677429 
L 207.693092 27.248774 
L 214.42222 25.915635 
L 221.151348 26.486981 
L 227.880476 25.439515 
L 234.609604 25.34429 
L 241.338732 25.439515 
L 248.06786 25.249066 
L 254.796988 24.677721 
L 261.526116 24.487273 
L 268.255244 25.249066 
L 274.984372 24.487273 
L 281.7135 25.058618 
L 288.442628 25.725187 
L 295.171756 25.725187 
L 301.900884 24.677721 
L 308.630012 24.2016 
L 315.35914 24.487273 
L 322.088268 24.011152 
L 328.817397 24.772945 
L 335.546525 24.772945 
L 342.275653 25.725187 
L 349.004781 25.058618 
L 355.733909 25.058618 
L 362.463037 23.820703 
L 369.192165 24.011152 
L 375.921293 23.725479 
" clip-path="url(#p3d9aeb1366)" style="fill: none; stroke: #fde725; stroke-opacity: 0.85; stroke-linejoin: miter"/>
   </g>
   <g id="line2d_42">
    <path d="M 46.19402 54.578115 
L 52.923148 37.62821 
L 59.652276 32.486104 
L 66.381404 31.343414 
L 73.110532 29.915051 
L 79.83966 28.677137 
L 86.568788 27.915343 
L 93.297916 26.01086 
L 100.027044 26.296532 
L 106.756172 26.201308 
L 113.4853 26.106084 
L 120.214428 27.439222 
L 126.943556 25.820411 
L 133.672684 26.582205 
L 140.401812 26.201308 
L 147.13094 26.772653 
L 153.860068 25.915635 
L 160.589196 27.534447 
L 167.318324 27.820119 
L 174.047452 28.772361 
L 180.77658 27.248774 
L 187.505708 28.391464 
L 194.234836 27.534447 
L 200.963964 27.915343 
L 207.693092 26.486981 
L 214.42222 25.439515 
L 221.151348 25.534739 
L 227.880476 26.582205 
L 234.609604 25.249066 
L 241.338732 25.249066 
L 248.06786 25.058618 
L 254.796988 25.058618 
L 261.526116 25.249066 
L 268.255244 25.058618 
L 274.984372 25.153842 
L 281.7135 25.439515 
L 288.442628 24.868169 
L 295.171756 24.392049 
L 301.900884 24.582497 
L 308.630012 24.677721 
L 315.35914 24.011152 
L 322.088268 24.487273 
L 328.817397 24.677721 
L 335.546525 24.296824 
L 342.275653 23.630255 
L 349.004781 24.868169 
L 355.733909 24.2016 
L 362.463037 24.392049 
L 369.192165 23.05891 
L 375.921293 23.344582 
" clip-path="url(#p3d9aeb1366)" style="fill: none; stroke: #fde725; stroke-opacity: 0.85; stroke-linejoin: miter"/>
   </g>
   <g id="patch_3">
    <path d="M 29.707656 137.423157 
L 29.707656 4.109297 
" style="fill: none; stroke: #1a1a1a; stroke-width: 0.8; stroke-linejoin: miter; stroke-linecap: square"/>
   </g>
   <g id="patch_4">
    <path d="M 29.707656 137.423157 
L 392.407656 137.423157 
" style="fill: none; stroke: #1a1a1a; stroke-width: 0.8; stroke-linejoin: miter; stroke-linecap: square"/>
   </g>
   <g id="legend_1">
    <g id="line2d_43">
     <path d="M 216.295312 106.628626 
L 221.895312 106.628626 
L 227.495312 106.628626 
" style="fill: none; stroke: #440154; stroke-opacity: 0.85; stroke-linejoin: miter"/>
    </g>
    <g id="text_8">
     <!-- τ_GABA = 4.5 ms -->
     <g style="fill: #1a1a1a" transform="translate(233.095312 109.078626) scale(0.07 -0.07)">
      <defs>
       <path id="Menlo-Regular-3c4" d="M 2319 638 
Q 2431 488 2769 488 
L 3047 488 
L 3047 0 
L 2700 0 
Q 2138 0 1881 300 
Q 1625 606 1625 1269 
L 1625 2925 
L 500 2925 
L 500 3494 
L 3356 3494 
L 3356 2925 
L 2213 2925 
L 2213 1234 
Q 2213 781 2319 638 
z
" transform="scale(0.015625)"/>
       <path id="Menlo-Regular-5f" d="M 3825 -594 
L 3825 -1125 
L 0 -1125 
L 0 -594 
L 3825 -594 
z
" transform="scale(0.015625)"/>
       <path id="Menlo-Regular-47" d="M 3450 384 
Q 3197 150 2880 29 
Q 2563 -91 2194 -91 
Q 1306 -91 812 545 
Q 319 1181 319 2328 
Q 319 3472 819 4111 
Q 1319 4750 2209 4750 
Q 2503 4750 2772 4667 
Q 3041 4584 3291 4416 
L 3291 3769 
Q 3038 4009 2772 4123 
Q 2506 4238 2209 4238 
Q 1594 4238 1286 3761 
Q 978 3284 978 2328 
Q 978 1356 1276 889 
Q 1575 422 2194 422 
Q 2403 422 2561 470 
Q 2719 519 2847 622 
L 2847 1875 
L 2169 1875 
L 2169 2394 
L 3450 2394 
L 3450 384 
z
" transform="scale(0.015625)"/>
       <path id="Menlo-Regular-41" d="M 1925 4109 
L 1259 1722 
L 2591 1722 
L 1925 4109 
z
M 1544 4666 
L 2309 4666 
L 3738 0 
L 3084 0 
L 2741 1216 
L 1106 1216 
L 769 0 
L 116 0 
L 1544 4666 
z
" transform="scale(0.015625)"/>
       <path id="Menlo-Regular-42" d="M 1153 2353 
L 1153 519 
L 1900 519 
Q 2450 519 2684 711 
Q 2919 903 2919 1344 
Q 2919 1925 2672 2139 
Q 2425 2353 1900 2353 
L 1153 2353 
z
M 1153 4147 
L 1153 2866 
L 1888 2866 
Q 2344 2866 2548 3041 
Q 2753 3216 2753 3481 
Q 2753 3834 2551 3990 
Q 2350 4147 1888 4147 
L 1153 4147 
z
M 519 4666 
L 1900 4666 
Q 2616 4666 3003 4356 
Q 3391 4047 3391 3481 
Q 3391 3178 3186 2931 
Q 2981 2684 2572 2622 
Q 3031 2553 3292 2229 
Q 3553 1906 3553 1281 
Q 3553 647 3137 323 
Q 2722 0 1900 0 
L 519 0 
L 519 4666 
z
" transform="scale(0.015625)"/>
       <path id="Menlo-Regular-3d" d="M 275 1563 
L 3578 1563 
L 3578 1034 
L 275 1034 
L 275 1563 
z
M 275 3034 
L 3578 3034 
L 3578 2506 
L 275 2506 
L 275 3034 
z
" transform="scale(0.015625)"/>
       <path id="Menlo-Regular-2e" d="M 1216 1263 
L 2316 1263 
L 2316 0 
L 1216 0 
L 1216 1263 
z
" transform="scale(0.015625)"/>
       <path id="Menlo-Regular-35" d="M 647 4666 
L 3009 4666 
L 3009 4134 
L 1222 4134 
L 1222 2988 
Q 1356 3038 1492 3061 
Q 1628 3084 1766 3084 
Q 2491 3084 2916 2656 
Q 3341 2228 3341 1497 
Q 3341 759 2895 334 
Q 2450 -91 1678 -91 
Q 1306 -91 998 -41 
Q 691 9 447 109 
L 447 750 
Q 734 594 1025 517 
Q 1316 441 1619 441 
Q 2141 441 2423 716 
Q 2706 991 2706 1497 
Q 2706 1997 2414 2275 
Q 2122 2553 1600 2553 
Q 1347 2553 1106 2495 
Q 866 2438 647 2322 
L 647 4666 
z
" transform="scale(0.015625)"/>
       <path id="Menlo-Regular-6d" d="M 2113 3144 
Q 2219 3369 2383 3476 
Q 2547 3584 2778 3584 
Q 3200 3584 3373 3257 
Q 3547 2931 3547 2028 
L 3547 0 
L 3022 0 
L 3022 2003 
Q 3022 2744 2939 2923 
Q 2856 3103 2638 3103 
Q 2388 3103 2295 2911 
Q 2203 2719 2203 2003 
L 2203 0 
L 1678 0 
L 1678 2003 
Q 1678 2753 1589 2928 
Q 1500 3103 1269 3103 
Q 1041 3103 952 2911 
Q 863 2719 863 2003 
L 863 0 
L 341 0 
L 341 3500 
L 863 3500 
L 863 3200 
Q 966 3388 1120 3486 
Q 1275 3584 1472 3584 
Q 1709 3584 1867 3475 
Q 2025 3366 2113 3144 
z
" transform="scale(0.015625)"/>
      </defs>
      <use xlink:href="#Menlo-Regular-3c4"/>
      <use xlink:href="#Menlo-Regular-5f" transform="translate(60.205078 0)"/>
      <use xlink:href="#Menlo-Regular-47" transform="translate(120.410156 0)"/>
      <use xlink:href="#Menlo-Regular-41" transform="translate(180.615234 0)"/>
      <use xlink:href="#Menlo-Regular-42" transform="translate(240.820312 0)"/>
      <use xlink:href="#Menlo-Regular-41" transform="translate(301.025391 0)"/>
      <use xlink:href="#Menlo-Regular-20" transform="translate(361.230469 0)"/>
      <use xlink:href="#Menlo-Regular-3d" transform="translate(421.435547 0)"/>
      <use xlink:href="#Menlo-Regular-20" transform="translate(481.640625 0)"/>
      <use xlink:href="#Menlo-Regular-34" transform="translate(541.845703 0)"/>
      <use xlink:href="#Menlo-Regular-2e" transform="translate(602.050781 0)"/>
      <use xlink:href="#Menlo-Regular-35" transform="translate(662.255859 0)"/>
      <use xlink:href="#Menlo-Regular-20" transform="translate(722.460938 0)"/>
      <use xlink:href="#Menlo-Regular-6d" transform="translate(782.666016 0)"/>
      <use xlink:href="#Menlo-Regular-73" transform="translate(842.871094 0)"/>
     </g>
    </g>
    <g id="line2d_44">
     <path d="M 216.295312 116.923001 
L 221.895312 116.923001 
L 227.495312 116.923001 
" style="fill: none; stroke: #414487; stroke-opacity: 0.85; stroke-linejoin: miter"/>
    </g>
    <g id="text_9">
     <!-- τ_GABA = 6 ms -->
     <g style="fill: #1a1a1a" transform="translate(233.095312 119.373001) scale(0.07 -0.07)">
      <use xlink:href="#Menlo-Regular-3c4"/>
      <use xlink:href="#Menlo-Regular-5f" transform="translate(60.205078 0)"/>
      <use xlink:href="#Menlo-Regular-47" transform="translate(120.410156 0)"/>
      <use xlink:href="#Menlo-Regular-41" transform="translate(180.615234 0)"/>
      <use xlink:href="#Menlo-Regular-42" transform="translate(240.820312 0)"/>
      <use xlink:href="#Menlo-Regular-41" transform="translate(301.025391 0)"/>
      <use xlink:href="#Menlo-Regular-20" transform="translate(361.230469 0)"/>
      <use xlink:href="#Menlo-Regular-3d" transform="translate(421.435547 0)"/>
      <use xlink:href="#Menlo-Regular-20" transform="translate(481.640625 0)"/>
      <use xlink:href="#Menlo-Regular-36" transform="translate(541.845703 0)"/>
      <use xlink:href="#Menlo-Regular-20" transform="translate(602.050781 0)"/>
      <use xlink:href="#Menlo-Regular-6d" transform="translate(662.255859 0)"/>
      <use xlink:href="#Menlo-Regular-73" transform="translate(722.460938 0)"/>
     </g>
    </g>
    <g id="line2d_45">
     <path d="M 216.295312 127.217376 
L 221.895312 127.217376 
L 227.495312 127.217376 
" style="fill: none; stroke: #2a788e; stroke-opacity: 0.85; stroke-linejoin: miter"/>
    </g>
    <g id="text_10">
     <!-- τ_GABA = 9 ms -->
     <g style="fill: #1a1a1a" transform="translate(233.095312 129.667376) scale(0.07 -0.07)">
      <defs>
       <path id="Menlo-Regular-39" d="M 1863 2069 
Q 2266 2069 2495 2359 
Q 2725 2650 2725 3163 
Q 2725 3675 2495 3965 
Q 2266 4256 1863 4256 
Q 1444 4256 1231 3979 
Q 1019 3703 1019 3163 
Q 1019 2619 1230 2344 
Q 1441 2069 1863 2069 
z
M 738 97 
L 738 678 
Q 934 563 1156 502 
Q 1378 441 1619 441 
Q 2219 441 2526 892 
Q 2834 1344 2834 2222 
Q 2688 1909 2422 1742 
Q 2156 1575 1813 1575 
Q 1138 1575 767 1990 
Q 397 2406 397 3169 
Q 397 3922 776 4336 
Q 1156 4750 1850 4750 
Q 2663 4750 3041 4165 
Q 3419 3581 3419 2328 
Q 3419 1150 2964 529 
Q 2509 -91 1644 -91 
Q 1416 -91 1184 -42 
Q 953 6 738 97 
z
" transform="scale(0.015625)"/>
      </defs>
      <use xlink:href="#Menlo-Regular-3c4"/>
      <use xlink:href="#Menlo-Regular-5f" transform="translate(60.205078 0)"/>
      <use xlink:href="#Menlo-Regular-47" transform="translate(120.410156 0)"/>
      <use xlink:href="#Menlo-Regular-41" transform="translate(180.615234 0)"/>
      <use xlink:href="#Menlo-Regular-42" transform="translate(240.820312 0)"/>
      <use xlink:href="#Menlo-Regular-41" transform="translate(301.025391 0)"/>
      <use xlink:href="#Menlo-Regular-20" transform="translate(361.230469 0)"/>
      <use xlink:href="#Menlo-Regular-3d" transform="translate(421.435547 0)"/>
      <use xlink:href="#Menlo-Regular-20" transform="translate(481.640625 0)"/>
      <use xlink:href="#Menlo-Regular-39" transform="translate(541.845703 0)"/>
      <use xlink:href="#Menlo-Regular-20" transform="translate(602.050781 0)"/>
      <use xlink:href="#Menlo-Regular-6d" transform="translate(662.255859 0)"/>
      <use xlink:href="#Menlo-Regular-73" transform="translate(722.460938 0)"/>
     </g>
    </g>
    <g id="line2d_46">
     <path d="M 310.308594 106.628626 
L 315.908594 106.628626 
L 321.508594 106.628626 
" style="fill: none; stroke: #22a884; stroke-opacity: 0.85; stroke-linejoin: miter"/>
    </g>
    <g id="text_11">
     <!-- τ_GABA = 12 ms -->
     <g style="fill: #1a1a1a" transform="translate(327.108594 109.078626) scale(0.07 -0.07)">
      <use xlink:href="#Menlo-Regular-3c4"/>
      <use xlink:href="#Menlo-Regular-5f" transform="translate(60.205078 0)"/>
      <use xlink:href="#Menlo-Regular-47" transform="translate(120.410156 0)"/>
      <use xlink:href="#Menlo-Regular-41" transform="translate(180.615234 0)"/>
      <use xlink:href="#Menlo-Regular-42" transform="translate(240.820312 0)"/>
      <use xlink:href="#Menlo-Regular-41" transform="translate(301.025391 0)"/>
      <use xlink:href="#Menlo-Regular-20" transform="translate(361.230469 0)"/>
      <use xlink:href="#Menlo-Regular-3d" transform="translate(421.435547 0)"/>
      <use xlink:href="#Menlo-Regular-20" transform="translate(481.640625 0)"/>
      <use xlink:href="#Menlo-Regular-31" transform="translate(541.845703 0)"/>
      <use xlink:href="#Menlo-Regular-32" transform="translate(602.050781 0)"/>
      <use xlink:href="#Menlo-Regular-20" transform="translate(662.255859 0)"/>
      <use xlink:href="#Menlo-Regular-6d" transform="translate(722.460938 0)"/>
      <use xlink:href="#Menlo-Regular-73" transform="translate(782.666016 0)"/>
     </g>
    </g>
    <g id="line2d_47">
     <path d="M 310.308594 116.923001 
L 315.908594 116.923001 
L 321.508594 116.923001 
" style="fill: none; stroke: #7ad151; stroke-opacity: 0.85; stroke-linejoin: miter"/>
    </g>
    <g id="text_12">
     <!-- τ_GABA = 18 ms -->
     <g style="fill: #1a1a1a" transform="translate(327.108594 119.373001) scale(0.07 -0.07)">
      <use xlink:href="#Menlo-Regular-3c4"/>
      <use xlink:href="#Menlo-Regular-5f" transform="translate(60.205078 0)"/>
      <use xlink:href="#Menlo-Regular-47" transform="translate(120.410156 0)"/>
      <use xlink:href="#Menlo-Regular-41" transform="translate(180.615234 0)"/>
      <use xlink:href="#Menlo-Regular-42" transform="translate(240.820312 0)"/>
      <use xlink:href="#Menlo-Regular-41" transform="translate(301.025391 0)"/>
      <use xlink:href="#Menlo-Regular-20" transform="translate(361.230469 0)"/>
      <use xlink:href="#Menlo-Regular-3d" transform="translate(421.435547 0)"/>
      <use xlink:href="#Menlo-Regular-20" transform="translate(481.640625 0)"/>
      <use xlink:href="#Menlo-Regular-31" transform="translate(541.845703 0)"/>
      <use xlink:href="#Menlo-Regular-38" transform="translate(602.050781 0)"/>
      <use xlink:href="#Menlo-Regular-20" transform="translate(662.255859 0)"/>
      <use xlink:href="#Menlo-Regular-6d" transform="translate(722.460938 0)"/>
      <use xlink:href="#Menlo-Regular-73" transform="translate(782.666016 0)"/>
     </g>
    </g>
    <g id="line2d_48">
     <path d="M 310.308594 127.217376 
L 315.908594 127.217376 
L 321.508594 127.217376 
" style="fill: none; stroke: #fde725; stroke-opacity: 0.85; stroke-linejoin: miter"/>
    </g>
    <g id="text_13">
     <!-- τ_GABA = 27 ms -->
     <g style="fill: #1a1a1a" transform="translate(327.108594 129.667376) scale(0.07 -0.07)">
      <defs>
       <path id="Menlo-Regular-37" d="M 434 4666 
L 3372 4666 
L 3372 4397 
L 1703 0 
L 1044 0 
L 2669 4134 
L 434 4134 
L 434 4666 
z
" transform="scale(0.015625)"/>
      </defs>
      <use xlink:href="#Menlo-Regular-3c4"/>
      <use xlink:href="#Menlo-Regular-5f" transform="translate(60.205078 0)"/>
      <use xlink:href="#Menlo-Regular-47" transform="translate(120.410156 0)"/>
      <use xlink:href="#Menlo-Regular-41" transform="translate(180.615234 0)"/>
      <use xlink:href="#Menlo-Regular-42" transform="translate(240.820312 0)"/>
      <use xlink:href="#Menlo-Regular-41" transform="translate(301.025391 0)"/>
      <use xlink:href="#Menlo-Regular-20" transform="translate(361.230469 0)"/>
      <use xlink:href="#Menlo-Regular-3d" transform="translate(421.435547 0)"/>
      <use xlink:href="#Menlo-Regular-20" transform="translate(481.640625 0)"/>
      <use xlink:href="#Menlo-Regular-32" transform="translate(541.845703 0)"/>
      <use xlink:href="#Menlo-Regular-37" transform="translate(602.050781 0)"/>
      <use xlink:href="#Menlo-Regular-20" transform="translate(662.255859 0)"/>
      <use xlink:href="#Menlo-Regular-6d" transform="translate(722.460938 0)"/>
      <use xlink:href="#Menlo-Regular-73" transform="translate(782.666016 0)"/>
     </g>
    </g>
   </g>
  </g>
  <g id="axes_2">
   <g id="patch_5">
    <path d="M 29.707656 290.734097 
L 392.407656 290.734097 
L 392.407656 157.420236 
L 29.707656 157.420236 
z
" style="fill: #ffffff"/>
   </g>
   <g id="matplotlib.axis_3">
    <g id="xtick_7">
     <g id="line2d_49">
      <path d="M 39.464892 290.734097 
L 39.464892 157.420236 
" clip-path="url(#p405b8d21b1)" style="fill: none; stroke: #1a1a1a; stroke-opacity: 0.15; stroke-width: 0.4; stroke-linejoin: miter"/>
     </g>
     <g id="line2d_50">
      <g>
       <use xlink:href="#m0c903abe9a" x="39.464892" y="290.734097" style="fill: #1a1a1a; stroke: #1a1a1a; stroke-width: 0.8"/>
      </g>
     </g>
     <g id="text_14">
      <!-- 0 -->
      <g style="fill: #1a1a1a" transform="translate(37.357782 299.572691) scale(0.07 -0.07)">
       <use xlink:href="#Menlo-Regular-30"/>
      </g>
     </g>
    </g>
    <g id="xtick_8">
     <g id="line2d_51">
      <path d="M 106.756172 290.734097 
L 106.756172 157.420236 
" clip-path="url(#p405b8d21b1)" style="fill: none; stroke: #1a1a1a; stroke-opacity: 0.15; stroke-width: 0.4; stroke-linejoin: miter"/>
     </g>
     <g id="line2d_52">
      <g>
       <use xlink:href="#m0c903abe9a" x="106.756172" y="290.734097" style="fill: #1a1a1a; stroke: #1a1a1a; stroke-width: 0.8"/>
      </g>
     </g>
     <g id="text_15">
      <!-- 10 -->
      <g style="fill: #1a1a1a" transform="translate(102.541953 299.572691) scale(0.07 -0.07)">
       <use xlink:href="#Menlo-Regular-31"/>
       <use xlink:href="#Menlo-Regular-30" transform="translate(60.205078 0)"/>
      </g>
     </g>
    </g>
    <g id="xtick_9">
     <g id="line2d_53">
      <path d="M 174.047452 290.734097 
L 174.047452 157.420236 
" clip-path="url(#p405b8d21b1)" style="fill: none; stroke: #1a1a1a; stroke-opacity: 0.15; stroke-width: 0.4; stroke-linejoin: miter"/>
     </g>
     <g id="line2d_54">
      <g>
       <use xlink:href="#m0c903abe9a" x="174.047452" y="290.734097" style="fill: #1a1a1a; stroke: #1a1a1a; stroke-width: 0.8"/>
      </g>
     </g>
     <g id="text_16">
      <!-- 20 -->
      <g style="fill: #1a1a1a" transform="translate(169.833233 299.572691) scale(0.07 -0.07)">
       <use xlink:href="#Menlo-Regular-32"/>
       <use xlink:href="#Menlo-Regular-30" transform="translate(60.205078 0)"/>
      </g>
     </g>
    </g>
    <g id="xtick_10">
     <g id="line2d_55">
      <path d="M 241.338732 290.734097 
L 241.338732 157.420236 
" clip-path="url(#p405b8d21b1)" style="fill: none; stroke: #1a1a1a; stroke-opacity: 0.15; stroke-width: 0.4; stroke-linejoin: miter"/>
     </g>
     <g id="line2d_56">
      <g>
       <use xlink:href="#m0c903abe9a" x="241.338732" y="290.734097" style="fill: #1a1a1a; stroke: #1a1a1a; stroke-width: 0.8"/>
      </g>
     </g>
     <g id="text_17">
      <!-- 30 -->
      <g style="fill: #1a1a1a" transform="translate(237.124514 299.572691) scale(0.07 -0.07)">
       <defs>
        <path id="Menlo-Regular-33" d="M 2425 2497 
Q 2884 2375 3128 2064 
Q 3372 1753 3372 1288 
Q 3372 644 2939 276 
Q 2506 -91 1741 -91 
Q 1419 -91 1084 -31 
Q 750 28 428 141 
L 428 769 
Q 747 603 1056 522 
Q 1366 441 1672 441 
Q 2191 441 2469 675 
Q 2747 909 2747 1350 
Q 2747 1756 2469 1995 
Q 2191 2234 1716 2234 
L 1234 2234 
L 1234 2753 
L 1716 2753 
Q 2150 2753 2394 2943 
Q 2638 3134 2638 3475 
Q 2638 3834 2411 4026 
Q 2184 4219 1766 4219 
Q 1488 4219 1191 4156 
Q 894 4094 569 3969 
L 569 4550 
Q 947 4650 1242 4700 
Q 1538 4750 1766 4750 
Q 2447 4750 2855 4408 
Q 3263 4066 3263 3500 
Q 3263 3116 3048 2859 
Q 2834 2603 2425 2497 
z
" transform="scale(0.015625)"/>
       </defs>
       <use xlink:href="#Menlo-Regular-33"/>
       <use xlink:href="#Menlo-Regular-30" transform="translate(60.205078 0)"/>
      </g>
     </g>
    </g>
    <g id="xtick_11">
     <g id="line2d_57">
      <path d="M 308.630012 290.734097 
L 308.630012 157.420236 
" clip-path="url(#p405b8d21b1)" style="fill: none; stroke: #1a1a1a; stroke-opacity: 0.15; stroke-width: 0.4; stroke-linejoin: miter"/>
     </g>
     <g id="line2d_58">
      <g>
       <use xlink:href="#m0c903abe9a" x="308.630012" y="290.734097" style="fill: #1a1a1a; stroke: #1a1a1a; stroke-width: 0.8"/>
      </g>
     </g>
     <g id="text_18">
      <!-- 40 -->
      <g style="fill: #1a1a1a" transform="translate(304.415794 299.572691) scale(0.07 -0.07)">
       <use xlink:href="#Menlo-Regular-34"/>
       <use xlink:href="#Menlo-Regular-30" transform="translate(60.205078 0)"/>
      </g>
     </g>
    </g>
    <g id="xtick_12">
     <g id="line2d_59">
      <path d="M 375.921293 290.734097 
L 375.921293 157.420236 
" clip-path="url(#p405b8d21b1)" style="fill: none; stroke: #1a1a1a; stroke-opacity: 0.15; stroke-width: 0.4; stroke-linejoin: miter"/>
     </g>
     <g id="line2d_60">
      <g>
       <use xlink:href="#m0c903abe9a" x="375.921293" y="290.734097" style="fill: #1a1a1a; stroke: #1a1a1a; stroke-width: 0.8"/>
      </g>
     </g>
     <g id="text_19">
      <!-- 50 -->
      <g style="fill: #1a1a1a" transform="translate(371.707074 299.572691) scale(0.07 -0.07)">
       <use xlink:href="#Menlo-Regular-35"/>
       <use xlink:href="#Menlo-Regular-30" transform="translate(60.205078 0)"/>
      </g>
     </g>
    </g>
    <g id="text_20">
     <!-- Epoch -->
     <g style="fill: #1a1a1a" transform="translate(199.017031 311.129722) scale(0.08 -0.08)">
      <defs>
       <path id="Menlo-Regular-45" d="M 616 4666 
L 3384 4666 
L 3384 4134 
L 1247 4134 
L 1247 2878 
L 3291 2878 
L 3291 2347 
L 1247 2347 
L 1247 531 
L 3444 531 
L 3444 0 
L 616 0 
L 616 4666 
z
" transform="scale(0.015625)"/>
       <path id="Menlo-Regular-70" d="M 1172 441 
L 1172 -1331 
L 594 -1331 
L 594 3500 
L 1172 3500 
L 1172 3053 
Q 1316 3313 1555 3448 
Q 1794 3584 2106 3584 
Q 2741 3584 3102 3093 
Q 3463 2603 3463 1734 
Q 3463 881 3100 395 
Q 2738 -91 2106 -91 
Q 1788 -91 1548 45 
Q 1309 181 1172 441 
z
M 2859 1747 
Q 2859 2416 2648 2756 
Q 2438 3097 2022 3097 
Q 1603 3097 1387 2755 
Q 1172 2413 1172 1747 
Q 1172 1084 1387 740 
Q 1603 397 2022 397 
Q 2438 397 2648 737 
Q 2859 1078 2859 1747 
z
" transform="scale(0.015625)"/>
       <path id="Menlo-Regular-6f" d="M 1925 3097 
Q 1488 3097 1263 2756 
Q 1038 2416 1038 1747 
Q 1038 1081 1263 739 
Q 1488 397 1925 397 
Q 2366 397 2591 739 
Q 2816 1081 2816 1747 
Q 2816 2416 2591 2756 
Q 2366 3097 1925 3097 
z
M 1925 3584 
Q 2653 3584 3039 3112 
Q 3425 2641 3425 1747 
Q 3425 850 3040 379 
Q 2656 -91 1925 -91 
Q 1197 -91 812 379 
Q 428 850 428 1747 
Q 428 2641 812 3112 
Q 1197 3584 1925 3584 
z
" transform="scale(0.015625)"/>
       <path id="Menlo-Regular-68" d="M 3284 2169 
L 3284 0 
L 2706 0 
L 2706 2169 
Q 2706 2641 2540 2862 
Q 2375 3084 2022 3084 
Q 1619 3084 1401 2798 
Q 1184 2513 1184 1978 
L 1184 0 
L 609 0 
L 609 4863 
L 1184 4863 
L 1184 2975 
Q 1338 3275 1600 3429 
Q 1863 3584 2222 3584 
Q 2756 3584 3020 3232 
Q 3284 2881 3284 2169 
z
" transform="scale(0.015625)"/>
      </defs>
      <use xlink:href="#Menlo-Regular-45"/>
      <use xlink:href="#Menlo-Regular-70" transform="translate(60.205078 0)"/>
      <use xlink:href="#Menlo-Regular-6f" transform="translate(120.410156 0)"/>
      <use xlink:href="#Menlo-Regular-63" transform="translate(180.615234 0)"/>
      <use xlink:href="#Menlo-Regular-68" transform="translate(240.820312 0)"/>
     </g>
    </g>
   </g>
   <g id="matplotlib.axis_4">
    <g id="ytick_7">
     <g id="line2d_61">
      <path d="M 29.707656 287.953278 
L 392.407656 287.953278 
" clip-path="url(#p405b8d21b1)" style="fill: none; stroke: #1a1a1a; stroke-opacity: 0.15; stroke-width: 0.4; stroke-linejoin: miter"/>
     </g>
     <g id="line2d_62">
      <g>
       <use xlink:href="#mda552ef942" x="29.707656" y="287.953278" style="fill: #1a1a1a; stroke: #1a1a1a; stroke-width: 0.8"/>
      </g>
     </g>
     <g id="text_21">
      <!-- 2 -->
      <g style="fill: #1a1a1a" transform="translate(21.993438 290.622575) scale(0.07 -0.07)">
       <use xlink:href="#Menlo-Regular-32"/>
      </g>
     </g>
    </g>
    <g id="ytick_8">
     <g id="line2d_63">
      <path d="M 29.707656 262.102893 
L 392.407656 262.102893 
" clip-path="url(#p405b8d21b1)" style="fill: none; stroke: #1a1a1a; stroke-opacity: 0.15; stroke-width: 0.4; stroke-linejoin: miter"/>
     </g>
     <g id="line2d_64">
      <g>
       <use xlink:href="#mda552ef942" x="29.707656" y="262.102893" style="fill: #1a1a1a; stroke: #1a1a1a; stroke-width: 0.8"/>
      </g>
     </g>
     <g id="text_22">
      <!-- 4 -->
      <g style="fill: #1a1a1a" transform="translate(21.993438 264.772189) scale(0.07 -0.07)">
       <use xlink:href="#Menlo-Regular-34"/>
      </g>
     </g>
    </g>
    <g id="ytick_9">
     <g id="line2d_65">
      <path d="M 29.707656 236.252507 
L 392.407656 236.252507 
" clip-path="url(#p405b8d21b1)" style="fill: none; stroke: #1a1a1a; stroke-opacity: 0.15; stroke-width: 0.4; stroke-linejoin: miter"/>
     </g>
     <g id="line2d_66">
      <g>
       <use xlink:href="#mda552ef942" x="29.707656" y="236.252507" style="fill: #1a1a1a; stroke: #1a1a1a; stroke-width: 0.8"/>
      </g>
     </g>
     <g id="text_23">
      <!-- 6 -->
      <g style="fill: #1a1a1a" transform="translate(21.993438 238.921804) scale(0.07 -0.07)">
       <use xlink:href="#Menlo-Regular-36"/>
      </g>
     </g>
    </g>
    <g id="ytick_10">
     <g id="line2d_67">
      <path d="M 29.707656 210.402122 
L 392.407656 210.402122 
" clip-path="url(#p405b8d21b1)" style="fill: none; stroke: #1a1a1a; stroke-opacity: 0.15; stroke-width: 0.4; stroke-linejoin: miter"/>
     </g>
     <g id="line2d_68">
      <g>
       <use xlink:href="#mda552ef942" x="29.707656" y="210.402122" style="fill: #1a1a1a; stroke: #1a1a1a; stroke-width: 0.8"/>
      </g>
     </g>
     <g id="text_24">
      <!-- 8 -->
      <g style="fill: #1a1a1a" transform="translate(21.993438 213.071418) scale(0.07 -0.07)">
       <use xlink:href="#Menlo-Regular-38"/>
      </g>
     </g>
    </g>
    <g id="ytick_11">
     <g id="line2d_69">
      <path d="M 29.707656 184.551736 
L 392.407656 184.551736 
" clip-path="url(#p405b8d21b1)" style="fill: none; stroke: #1a1a1a; stroke-opacity: 0.15; stroke-width: 0.4; stroke-linejoin: miter"/>
     </g>
     <g id="line2d_70">
      <g>
       <use xlink:href="#mda552ef942" x="29.707656" y="184.551736" style="fill: #1a1a1a; stroke: #1a1a1a; stroke-width: 0.8"/>
      </g>
     </g>
     <g id="text_25">
      <!-- 10 -->
      <g style="fill: #1a1a1a" transform="translate(17.779219 187.221033) scale(0.07 -0.07)">
       <use xlink:href="#Menlo-Regular-31"/>
       <use xlink:href="#Menlo-Regular-30" transform="translate(60.205078 0)"/>
      </g>
     </g>
    </g>
    <g id="ytick_12">
     <g id="line2d_71">
      <path d="M 29.707656 158.701351 
L 392.407656 158.701351 
" clip-path="url(#p405b8d21b1)" style="fill: none; stroke: #1a1a1a; stroke-opacity: 0.15; stroke-width: 0.4; stroke-linejoin: miter"/>
     </g>
     <g id="line2d_72">
      <g>
       <use xlink:href="#mda552ef942" x="29.707656" y="158.701351" style="fill: #1a1a1a; stroke: #1a1a1a; stroke-width: 0.8"/>
      </g>
     </g>
     <g id="text_26">
      <!-- 12 -->
      <g style="fill: #1a1a1a" transform="translate(17.779219 161.370647) scale(0.07 -0.07)">
       <use xlink:href="#Menlo-Regular-31"/>
       <use xlink:href="#Menlo-Regular-32" transform="translate(60.205078 0)"/>
      </g>
     </g>
    </g>
    <g id="text_27">
     <!-- Test E rate (Hz) -->
     <g style="fill: #1a1a1a" transform="translate(12.115469 262.607167) rotate(-90) scale(0.08 -0.08)">
      <defs>
       <path id="Menlo-Regular-48" d="M 428 4666 
L 1063 4666 
L 1063 2878 
L 2791 2878 
L 2791 4666 
L 3425 4666 
L 3425 0 
L 2791 0 
L 2791 2347 
L 1063 2347 
L 1063 0 
L 428 0 
L 428 4666 
z
" transform="scale(0.015625)"/>
       <path id="Menlo-Regular-7a" d="M 709 3506 
L 3250 3506 
L 3250 2981 
L 1241 469 
L 3250 469 
L 3250 0 
L 634 0 
L 634 531 
L 2644 3047 
L 709 3047 
L 709 3506 
z
" transform="scale(0.015625)"/>
      </defs>
      <use xlink:href="#Menlo-Regular-54"/>
      <use xlink:href="#Menlo-Regular-65" transform="translate(60.205078 0)"/>
      <use xlink:href="#Menlo-Regular-73" transform="translate(120.410156 0)"/>
      <use xlink:href="#Menlo-Regular-74" transform="translate(180.615234 0)"/>
      <use xlink:href="#Menlo-Regular-20" transform="translate(240.820312 0)"/>
      <use xlink:href="#Menlo-Regular-45" transform="translate(301.025391 0)"/>
      <use xlink:href="#Menlo-Regular-20" transform="translate(361.230469 0)"/>
      <use xlink:href="#Menlo-Regular-72" transform="translate(421.435547 0)"/>
      <use xlink:href="#Menlo-Regular-61" transform="translate(481.640625 0)"/>
      <use xlink:href="#Menlo-Regular-74" transform="translate(541.845703 0)"/>
      <use xlink:href="#Menlo-Regular-65" transform="translate(602.050781 0)"/>
      <use xlink:href="#Menlo-Regular-20" transform="translate(662.255859 0)"/>
      <use xlink:href="#Menlo-Regular-28" transform="translate(722.460938 0)"/>
      <use xlink:href="#Menlo-Regular-48" transform="translate(782.666016 0)"/>
      <use xlink:href="#Menlo-Regular-7a" transform="translate(842.871094 0)"/>
      <use xlink:href="#Menlo-Regular-29" transform="translate(903.076172 0)"/>
     </g>
    </g>
   </g>
   <g id="line2d_73">
    <path d="M 46.19402 244.431776 
L 52.923148 232.657417 
L 59.652276 226.270239 
L 66.381404 221.698818 
L 73.110532 217.952035 
L 79.83966 214.501425 
L 86.568788 211.542678 
L 93.297916 208.201205 
L 100.027044 205.674545 
L 106.756172 203.401997 
L 113.4853 201.720352 
L 120.214428 200.232729 
L 126.943556 198.288315 
L 133.672684 196.545902 
L 140.401812 195.244187 
L 147.13094 193.580979 
L 153.860068 191.959514 
L 160.589196 190.696973 
L 167.318324 189.382815 
L 174.047452 187.66159 
L 180.77658 186.629811 
L 187.505708 185.508052 
L 194.234836 184.223061 
L 200.963964 183.377505 
L 207.693092 182.520454 
L 214.42222 181.134846 
L 221.151348 180.019399 
L 227.880476 179.384724 
L 234.609604 178.615713 
L 241.338732 177.998575 
L 248.06786 176.95219 
L 254.796988 176.357321 
L 261.526116 175.047491 
L 268.255244 174.128771 
L 274.984372 173.254138 
L 281.7135 172.529215 
L 288.442628 171.972483 
L 295.171756 171.429501 
L 301.900884 170.581015 
L 308.630012 169.693985 
L 315.35914 169.030596 
L 322.088268 168.633355 
L 328.817397 167.81656 
L 335.546525 167.044709 
L 342.275653 166.507541 
L 349.004781 165.901988 
L 355.733909 165.078702 
L 362.463037 164.654774 
L 369.192165 163.93526 
L 375.921293 163.479957 
" clip-path="url(#p405b8d21b1)" style="fill: none; stroke: #440154; stroke-opacity: 0.85; stroke-linejoin: miter"/>
   </g>
   <g id="line2d_74">
    <path d="M 46.19402 244.298476 
L 52.923148 232.719447 
L 59.652276 226.622265 
L 66.381404 222.068334 
L 73.110532 218.338637 
L 79.83966 215.056805 
L 86.568788 212.152378 
L 93.297916 209.060195 
L 100.027044 206.391714 
L 106.756172 204.042938 
L 113.4853 202.195039 
L 120.214428 200.523942 
L 126.943556 198.608109 
L 133.672684 196.820436 
L 140.401812 195.164441 
L 147.13094 193.637779 
L 153.860068 192.277009 
L 160.589196 191.098451 
L 167.318324 189.729612 
L 174.047452 187.972999 
L 180.77658 187.007216 
L 187.505708 185.80125 
L 194.234836 184.82627 
L 200.963964 183.758607 
L 207.693092 182.874103 
L 214.42222 181.777048 
L 221.151348 180.759288 
L 227.880476 179.794587 
L 234.609604 179.110596 
L 241.338732 178.34154 
L 248.06786 177.407583 
L 254.796988 176.473355 
L 261.526116 175.680587 
L 268.255244 174.536921 
L 274.984372 173.580289 
L 281.7135 173.377792 
L 288.442628 172.365306 
L 295.171756 172.094153 
L 301.900884 171.223488 
L 308.630012 170.423867 
L 315.35914 169.673429 
L 322.088268 169.049213 
L 328.817397 168.427342 
L 335.546525 167.823863 
L 342.275653 167.268032 
L 349.004781 166.749483 
L 355.733909 165.994852 
L 362.463037 165.52598 
L 369.192165 164.779779 
L 375.921293 164.31217 
" clip-path="url(#p405b8d21b1)" style="fill: none; stroke: #440154; stroke-opacity: 0.85; stroke-linejoin: miter"/>
   </g>
   <g id="line2d_75">
    <path d="M 46.19402 245.181222 
L 52.923148 234.276718 
L 59.652276 227.757321 
L 66.381404 223.525123 
L 73.110532 219.766756 
L 79.83966 216.765678 
L 86.568788 213.825143 
L 93.297916 210.776552 
L 100.027044 208.131332 
L 106.756172 206.132913 
L 113.4853 203.777104 
L 120.214428 202.110289 
L 126.943556 200.54567 
L 133.672684 199.139235 
L 140.401812 197.249999 
L 147.13094 195.33678 
L 153.860068 193.909157 
L 160.589196 192.785235 
L 167.318324 191.304554 
L 174.047452 189.326736 
L 180.77658 188.369789 
L 187.505708 187.137721 
L 194.234836 185.863775 
L 200.963964 184.956099 
L 207.693092 184.127628 
L 214.42222 182.825327 
L 221.151348 181.957096 
L 227.880476 180.991538 
L 234.609604 180.216306 
L 241.338732 179.381569 
L 248.06786 178.729945 
L 254.796988 177.582942 
L 261.526116 176.61229 
L 268.255244 175.935241 
L 274.984372 175.078055 
L 281.7135 174.222671 
L 288.442628 173.800141 
L 295.171756 173.33163 
L 301.900884 172.597916 
L 308.630012 171.784457 
L 315.35914 170.957293 
L 322.088268 170.390914 
L 328.817397 169.61983 
L 335.546525 168.89441 
L 342.275653 168.453803 
L 349.004781 167.804974 
L 355.733909 167.073514 
L 362.463037 166.504205 
L 369.192165 165.819763 
L 375.921293 165.329569 
" clip-path="url(#p405b8d21b1)" style="fill: none; stroke: #440154; stroke-opacity: 0.85; stroke-linejoin: miter"/>
   </g>
   <g id="line2d_76">
    <path d="M 46.19402 253.376945 
L 52.923148 244.288333 
L 59.652276 238.337434 
L 66.381404 233.963866 
L 73.110532 230.341233 
L 79.83966 227.449519 
L 86.568788 224.793345 
L 93.297916 222.100341 
L 100.027044 219.763375 
L 106.756172 217.765587 
L 113.4853 215.766897 
L 120.214428 213.975167 
L 126.943556 212.136961 
L 133.672684 210.904397 
L 140.401812 209.334729 
L 147.13094 208.040722 
L 153.860068 206.732245 
L 160.589196 205.551838 
L 167.318324 204.219198 
L 174.047452 202.877993 
L 180.77658 201.997726 
L 187.505708 200.970004 
L 194.234836 199.810153 
L 200.963964 199.108987 
L 207.693092 198.027981 
L 214.42222 197.070763 
L 221.151348 196.151907 
L 227.880476 195.202758 
L 234.609604 194.499879 
L 241.338732 193.770898 
L 248.06786 192.902352 
L 254.796988 191.966456 
L 261.526116 191.285846 
L 268.255244 190.230851 
L 274.984372 189.997835 
L 281.7135 189.030294 
L 288.442628 188.14633 
L 295.171756 187.44877 
L 301.900884 186.553987 
L 308.630012 185.77037 
L 315.35914 185.277696 
L 322.088268 184.462298 
L 328.817397 183.676608 
L 335.546525 183.097922 
L 342.275653 182.514323 
L 349.004781 182.154589 
L 355.733909 181.493318 
L 362.463037 180.809327 
L 369.192165 179.814963 
L 375.921293 179.473306 
" clip-path="url(#p405b8d21b1)" style="fill: none; stroke: #414487; stroke-opacity: 0.85; stroke-linejoin: miter"/>
   </g>
   <g id="line2d_77">
    <path d="M 46.19402 253.682584 
L 52.923148 244.288243 
L 59.652276 238.409696 
L 66.381404 233.879658 
L 73.110532 230.330684 
L 79.83966 227.321808 
L 86.568788 225.005714 
L 93.297916 222.316812 
L 100.027044 219.844923 
L 106.756172 217.843349 
L 113.4853 215.8365 
L 120.214428 214.077227 
L 126.943556 212.469197 
L 133.672684 210.835786 
L 140.401812 209.409877 
L 147.13094 208.042616 
L 153.860068 206.660343 
L 160.589196 205.514107 
L 167.318324 204.049745 
L 174.047452 202.895664 
L 180.77658 201.912886 
L 187.505708 200.716251 
L 194.234836 199.738838 
L 200.963964 198.684338 
L 207.693092 197.833327 
L 214.42222 196.993406 
L 221.151348 195.956758 
L 227.880476 195.077392 
L 234.609604 194.332273 
L 241.338732 193.400931 
L 248.06786 192.568628 
L 254.796988 191.672854 
L 261.526116 190.875397 
L 268.255244 190.170534 
L 274.984372 189.831447 
L 281.7135 188.864582 
L 288.442628 187.833568 
L 295.171756 187.02367 
L 301.900884 186.443632 
L 308.630012 185.766493 
L 315.35914 184.913093 
L 322.088268 184.333146 
L 328.817397 183.464283 
L 335.546525 182.585774 
L 342.275653 182.148503 
L 349.004781 181.591997 
L 355.733909 181.346539 
L 362.463037 180.367863 
L 369.192165 179.637756 
L 375.921293 179.505537 
" clip-path="url(#p405b8d21b1)" style="fill: none; stroke: #414487; stroke-opacity: 0.85; stroke-linejoin: miter"/>
   </g>
   <g id="line2d_78">
    <path d="M 46.19402 254.567134 
L 52.923148 245.663122 
L 59.652276 239.787371 
L 66.381404 235.594437 
L 73.110532 232.177186 
L 79.83966 229.387216 
L 86.568788 226.665135 
L 93.297916 224.186034 
L 100.027044 221.86196 
L 106.756172 219.971597 
L 113.4853 217.976739 
L 120.214428 216.457605 
L 126.943556 214.499893 
L 133.672684 212.845115 
L 140.401812 211.483488 
L 147.13094 209.911431 
L 153.860068 208.856796 
L 160.589196 207.909541 
L 167.318324 206.687842 
L 174.047452 205.286636 
L 180.77658 204.589572 
L 187.505708 203.548506 
L 194.234836 202.720621 
L 200.963964 201.630283 
L 207.693092 200.538773 
L 214.42222 199.723961 
L 221.151348 198.703407 
L 227.880476 197.778511 
L 234.609604 196.84514 
L 241.338732 196.292059 
L 248.06786 195.465166 
L 254.796988 194.547798 
L 261.526116 193.53635 
L 268.255244 192.886845 
L 274.984372 192.406072 
L 281.7135 191.38155 
L 288.442628 190.390432 
L 295.171756 189.604201 
L 301.900884 188.942434 
L 308.630012 188.010145 
L 315.35914 187.59654 
L 322.088268 186.737325 
L 328.817397 186.001718 
L 335.546525 185.023223 
L 342.275653 184.326789 
L 349.004781 183.786782 
L 355.733909 183.400992 
L 362.463037 182.492505 
L 369.192165 182.069479 
L 375.921293 181.427051 
" clip-path="url(#p405b8d21b1)" style="fill: none; stroke: #414487; stroke-opacity: 0.85; stroke-linejoin: miter"/>
   </g>
   <g id="line2d_79">
    <path d="M 46.19402 265.132821 
L 52.923148 259.57515 
L 59.652276 254.396553 
L 66.381404 250.475944 
L 73.110532 247.403281 
L 79.83966 244.955374 
L 86.568788 242.257682 
L 93.297916 239.787235 
L 100.027044 237.890831 
L 106.756172 236.204768 
L 113.4853 234.392707 
L 120.214428 232.8518 
L 126.943556 231.368369 
L 133.672684 230.041319 
L 140.401812 228.806637 
L 147.13094 227.686727 
L 153.860068 226.450061 
L 160.589196 225.123687 
L 167.318324 223.987233 
L 174.047452 222.910645 
L 180.77658 222.11977 
L 187.505708 221.201501 
L 194.234836 220.318348 
L 200.963964 219.319432 
L 207.693092 218.278817 
L 214.42222 217.660912 
L 221.151348 216.507147 
L 227.880476 215.764508 
L 234.609604 214.868643 
L 241.338732 214.324038 
L 248.06786 213.263723 
L 254.796988 212.777811 
L 261.526116 211.961241 
L 268.255244 211.25737 
L 274.984372 210.637842 
L 281.7135 209.923558 
L 288.442628 208.984371 
L 295.171756 208.423808 
L 301.900884 207.871404 
L 308.630012 207.027426 
L 315.35914 206.572258 
L 322.088268 205.885472 
L 328.817397 205.089819 
L 335.546525 204.756501 
L 342.275653 204.175561 
L 349.004781 203.568611 
L 355.733909 202.959858 
L 362.463037 202.722244 
L 369.192165 202.101093 
L 375.921293 201.292773 
" clip-path="url(#p405b8d21b1)" style="fill: none; stroke: #2a788e; stroke-opacity: 0.85; stroke-linejoin: miter"/>
   </g>
   <g id="line2d_80">
    <path d="M 46.19402 265.122047 
L 52.923148 259.461234 
L 59.652276 254.065354 
L 66.381404 250.20425 
L 73.110532 247.155975 
L 79.83966 244.417936 
L 86.568788 241.905656 
L 93.297916 239.543265 
L 100.027044 237.656463 
L 106.756172 235.884749 
L 113.4853 234.145987 
L 120.214428 232.517446 
L 126.943556 230.834358 
L 133.672684 229.633259 
L 140.401812 228.474446 
L 147.13094 227.411111 
L 153.860068 225.758767 
L 160.589196 224.750068 
L 167.318324 223.485408 
L 174.047452 222.548656 
L 180.77658 221.54442 
L 187.505708 220.579358 
L 194.234836 219.529863 
L 200.963964 218.684712 
L 207.693092 217.908849 
L 214.42222 217.019836 
L 221.151348 216.023039 
L 227.880476 215.351354 
L 234.609604 214.521396 
L 241.338732 213.667229 
L 248.06786 213.103465 
L 254.796988 212.551963 
L 261.526116 211.842682 
L 268.255244 210.990634 
L 274.984372 210.028187 
L 281.7135 209.5787 
L 288.442628 208.750905 
L 295.171756 207.914815 
L 301.900884 207.357452 
L 308.630012 206.755416 
L 315.35914 205.867215 
L 322.088268 205.342309 
L 328.817397 204.503154 
L 335.546525 204.192241 
L 342.275653 203.793107 
L 349.004781 202.962833 
L 355.733909 202.666706 
L 362.463037 202.057501 
L 369.192165 201.401595 
L 375.921293 200.839949 
" clip-path="url(#p405b8d21b1)" style="fill: none; stroke: #2a788e; stroke-opacity: 0.85; stroke-linejoin: miter"/>
   </g>
   <g id="line2d_81">
    <path d="M 46.19402 264.948491 
L 52.923148 259.288219 
L 59.652276 253.81913 
L 66.381404 249.927823 
L 73.110532 246.979353 
L 79.83966 244.393774 
L 86.568788 241.994057 
L 93.297916 239.685671 
L 100.027044 237.623194 
L 106.756172 235.818707 
L 113.4853 234.208648 
L 120.214428 232.689604 
L 126.943556 230.817092 
L 133.672684 229.332444 
L 140.401812 228.250762 
L 147.13094 227.224031 
L 153.860068 225.996787 
L 160.589196 224.971093 
L 167.318324 223.564793 
L 174.047452 222.408639 
L 180.77658 221.304552 
L 187.505708 220.680697 
L 194.234836 219.706439 
L 200.963964 218.62692 
L 207.693092 217.772348 
L 214.42222 216.957356 
L 221.151348 216.235363 
L 227.880476 215.098503 
L 234.609604 214.433355 
L 241.338732 213.670024 
L 248.06786 213.030391 
L 254.796988 212.298345 
L 261.526116 211.605879 
L 268.255244 210.831594 
L 274.984372 210.146566 
L 281.7135 209.091345 
L 288.442628 208.62901 
L 295.171756 207.939339 
L 301.900884 207.107036 
L 308.630012 206.504594 
L 315.35914 206.010477 
L 322.088268 205.363496 
L 328.817397 204.610624 
L 335.546525 203.96761 
L 342.275653 203.363274 
L 349.004781 202.926769 
L 355.733909 202.534397 
L 362.463037 201.940069 
L 369.192165 201.083018 
L 375.921293 200.748799 
" clip-path="url(#p405b8d21b1)" style="fill: none; stroke: #2a788e; stroke-opacity: 0.85; stroke-linejoin: miter"/>
   </g>
   <g id="line2d_82">
    <path d="M 46.19402 270.87987 
L 52.923148 269.320931 
L 59.652276 265.599078 
L 66.381404 261.792205 
L 73.110532 258.698715 
L 79.83966 256.024058 
L 86.568788 253.830445 
L 93.297916 251.390337 
L 100.027044 249.74462 
L 106.756172 248.058601 
L 113.4853 246.392779 
L 120.214428 245.13177 
L 126.943556 243.653794 
L 133.672684 242.528384 
L 140.401812 241.166127 
L 147.13094 240.242673 
L 153.860068 239.185469 
L 160.589196 237.959262 
L 167.318324 236.88069 
L 174.047452 235.682251 
L 180.77658 234.794591 
L 187.505708 233.881461 
L 194.234836 233.318824 
L 200.963964 232.226908 
L 207.693092 231.192244 
L 214.42222 230.472685 
L 221.151348 229.925059 
L 227.880476 228.940207 
L 234.609604 228.427608 
L 241.338732 227.774181 
L 248.06786 226.995298 
L 254.796988 226.243191 
L 261.526116 225.366575 
L 268.255244 224.793886 
L 274.984372 224.297741 
L 281.7135 223.555597 
L 288.442628 223.031458 
L 295.171756 222.254422 
L 301.900884 221.727082 
L 308.630012 221.084655 
L 315.35914 220.47811 
L 322.088268 220.004144 
L 328.817397 219.407247 
L 335.546525 218.916376 
L 342.275653 218.283234 
L 349.004781 217.825948 
L 355.733909 217.372719 
L 362.463037 216.784567 
L 369.192165 216.190419 
L 375.921293 215.892579 
" clip-path="url(#p405b8d21b1)" style="fill: none; stroke: #22a884; stroke-opacity: 0.85; stroke-linejoin: miter"/>
   </g>
   <g id="line2d_83">
    <path d="M 46.19402 271.243481 
L 52.923148 267.554491 
L 59.652276 262.739776 
L 66.381404 259.176692 
L 73.110532 255.974245 
L 79.83966 253.548788 
L 86.568788 251.030422 
L 93.297916 248.942069 
L 100.027044 247.409141 
L 106.756172 245.935357 
L 113.4853 244.480867 
L 120.214428 242.852596 
L 126.943556 241.388684 
L 133.672684 240.414156 
L 140.401812 239.247904 
L 147.13094 238.137371 
L 153.860068 236.794363 
L 160.589196 235.743605 
L 167.318324 234.555535 
L 174.047452 233.580195 
L 180.77658 232.745277 
L 187.505708 232.052135 
L 194.234836 231.080492 
L 200.963964 230.176783 
L 207.693092 229.424857 
L 214.42222 228.671894 
L 221.151348 227.933312 
L 227.880476 227.330464 
L 234.609604 226.692499 
L 241.338732 225.989304 
L 248.06786 225.349626 
L 254.796988 224.518269 
L 261.526116 223.924708 
L 268.255244 223.339305 
L 274.984372 222.694038 
L 281.7135 221.820758 
L 288.442628 221.353418 
L 295.171756 220.519087 
L 301.900884 219.70414 
L 308.630012 219.175808 
L 315.35914 218.574087 
L 322.088268 218.047424 
L 328.817397 217.479918 
L 335.546525 217.080784 
L 342.275653 216.375515 
L 349.004781 215.826763 
L 355.733909 215.255019 
L 362.463037 214.686026 
L 369.192165 214.218461 
L 375.921293 213.798771 
" clip-path="url(#p405b8d21b1)" style="fill: none; stroke: #22a884; stroke-opacity: 0.85; stroke-linejoin: miter"/>
   </g>
   <g id="line2d_84">
    <path d="M 46.19402 270.802198 
L 52.923148 268.886771 
L 59.652276 265.204091 
L 66.381404 261.831559 
L 73.110532 259.124445 
L 79.83966 256.468226 
L 86.568788 254.248512 
L 93.297916 251.877916 
L 100.027044 250.145557 
L 106.756172 248.888695 
L 113.4853 247.183248 
L 120.214428 245.937611 
L 126.943556 244.403691 
L 133.672684 243.430019 
L 140.401812 242.053472 
L 147.13094 240.999378 
L 153.860068 240.027103 
L 160.589196 238.950019 
L 167.318324 237.43643 
L 174.047452 236.536147 
L 180.77658 235.572032 
L 187.505708 234.716559 
L 194.234836 233.863159 
L 200.963964 233.119302 
L 207.693092 232.251251 
L 214.42222 231.322884 
L 221.151348 230.45889 
L 227.880476 229.703719 
L 234.609604 228.947465 
L 241.338732 228.260183 
L 248.06786 227.811327 
L 254.796988 227.119582 
L 261.526116 226.25969 
L 268.255244 225.712831 
L 274.984372 225.254463 
L 281.7135 224.514979 
L 288.442628 223.799522 
L 295.171756 223.231115 
L 301.900884 222.480586 
L 308.630012 221.79948 
L 315.35914 221.236618 
L 322.088268 220.748452 
L 328.817397 220.229812 
L 335.546525 219.700218 
L 342.275653 219.494881 
L 349.004781 218.692241 
L 355.733909 218.406031 
L 362.463037 217.702475 
L 369.192165 217.332823 
L 375.921293 216.84619 
" clip-path="url(#p405b8d21b1)" style="fill: none; stroke: #22a884; stroke-opacity: 0.85; stroke-linejoin: miter"/>
   </g>
   <g id="line2d_85">
    <path d="M 46.19402 277.635348 
L 52.923148 278.058464 
L 59.652276 276.415722 
L 66.381404 274.677953 
L 73.110532 271.881897 
L 79.83966 269.240013 
L 86.568788 267.036798 
L 93.297916 265.042256 
L 100.027044 263.3346 
L 106.756172 261.959765 
L 113.4853 260.34655 
L 120.214428 259.120704 
L 126.943556 257.849913 
L 133.672684 256.608243 
L 140.401812 255.44118 
L 147.13094 254.266273 
L 153.860068 253.508712 
L 160.589196 252.572592 
L 167.318324 251.77216 
L 174.047452 250.707923 
L 180.77658 250.146368 
L 187.505708 249.416441 
L 194.234836 248.695935 
L 200.963964 247.778117 
L 207.693092 246.872605 
L 214.42222 246.013255 
L 221.151348 245.476132 
L 227.880476 244.833073 
L 234.609604 244.106798 
L 241.338732 243.546955 
L 248.06786 242.939509 
L 254.796988 242.511885 
L 261.526116 241.881268 
L 268.255244 241.253175 
L 274.984372 240.709697 
L 281.7135 240.212065 
L 288.442628 239.603807 
L 295.171756 238.974677 
L 301.900884 238.561389 
L 308.630012 238.107258 
L 315.35914 237.753023 
L 322.088268 237.188357 
L 328.817397 236.53227 
L 335.546525 236.281854 
L 342.275653 235.785979 
L 349.004781 235.229293 
L 355.733909 234.840302 
L 362.463037 234.609224 
L 369.192165 234.111907 
L 375.921293 233.456406 
" clip-path="url(#p405b8d21b1)" style="fill: none; stroke: #7ad151; stroke-opacity: 0.85; stroke-linejoin: miter"/>
   </g>
   <g id="line2d_86">
    <path d="M 46.19402 278.543429 
L 52.923148 276.920793 
L 59.652276 274.318038 
L 66.381404 271.166891 
L 73.110532 268.457974 
L 79.83966 265.865543 
L 86.568788 263.960033 
L 93.297916 262.241783 
L 100.027044 260.599266 
L 106.756172 259.120343 
L 113.4853 257.966488 
L 120.214428 256.555185 
L 126.943556 255.235212 
L 133.672684 254.250676 
L 140.401812 253.132839 
L 147.13094 252.226336 
L 153.860068 251.255504 
L 160.589196 250.414907 
L 167.318324 249.69688 
L 174.047452 248.805118 
L 180.77658 248.102554 
L 187.505708 246.992877 
L 194.234836 246.100348 
L 200.963964 245.284499 
L 207.693092 244.673672 
L 214.42222 243.923099 
L 221.151348 243.33391 
L 227.880476 242.656049 
L 234.609604 241.863417 
L 241.338732 241.182897 
L 248.06786 240.687879 
L 254.796988 240.048922 
L 261.526116 239.396982 
L 268.255244 239.01002 
L 274.984372 238.542726 
L 281.7135 238.042749 
L 288.442628 237.598491 
L 295.171756 236.836061 
L 301.900884 236.416461 
L 308.630012 236.082918 
L 315.35914 235.640914 
L 322.088268 234.90463 
L 328.817397 234.428455 
L 335.546525 234.03685 
L 342.275653 233.54368 
L 349.004781 233.141526 
L 355.733909 232.670626 
L 362.463037 232.109521 
L 369.192165 231.776564 
L 375.921293 231.347768 
" clip-path="url(#p405b8d21b1)" style="fill: none; stroke: #7ad151; stroke-opacity: 0.85; stroke-linejoin: miter"/>
   </g>
   <g id="line2d_87">
    <path d="M 46.19402 277.450252 
L 52.923148 278.190773 
L 59.652276 277.389124 
L 66.381404 275.878149 
L 73.110532 274.004465 
L 79.83966 271.487316 
L 86.568788 269.177488 
L 93.297916 267.003755 
L 100.027044 265.168839 
L 106.756172 263.754064 
L 113.4853 262.266666 
L 120.214428 260.941374 
L 126.943556 259.692402 
L 133.672684 258.432926 
L 140.401812 257.339342 
L 147.13094 256.360847 
L 153.860068 255.222274 
L 160.589196 254.294222 
L 167.318324 253.56389 
L 174.047452 252.559428 
L 180.77658 251.62732 
L 187.505708 250.900638 
L 194.234836 250.085285 
L 200.963964 249.743132 
L 207.693092 249.007119 
L 214.42222 248.288101 
L 221.151348 247.332912 
L 227.880476 246.452284 
L 234.609604 245.896995 
L 241.338732 245.306047 
L 248.06786 244.569674 
L 254.796988 244.224275 
L 261.526116 243.632651 
L 268.255244 242.941943 
L 274.984372 242.488399 
L 281.7135 241.870359 
L 288.442628 241.421412 
L 295.171756 240.838489 
L 301.900884 240.363982 
L 308.630012 239.803148 
L 315.35914 239.335674 
L 322.088268 238.691488 
L 328.817397 238.297944 
L 335.546525 238.04027 
L 342.275653 237.381568 
L 349.004781 236.917385 
L 355.733909 236.614991 
L 362.463037 236.155676 
L 369.192165 235.721967 
L 375.921293 235.274417 
" clip-path="url(#p405b8d21b1)" style="fill: none; stroke: #7ad151; stroke-opacity: 0.85; stroke-linejoin: miter"/>
   </g>
   <g id="line2d_88">
    <path d="M 46.19402 278.362976 
L 52.923148 283.147533 
L 59.652276 284.60297 
L 66.381404 284.586471 
L 73.110532 282.611764 
L 79.83966 279.949955 
L 86.568788 277.931701 
L 93.297916 276.28684 
L 100.027044 275.011992 
L 106.756172 273.903081 
L 113.4853 272.714335 
L 120.214428 271.825142 
L 126.943556 270.786375 
L 133.672684 270.024938 
L 140.401812 269.422044 
L 147.13094 268.476367 
L 153.860068 267.680038 
L 160.589196 266.917698 
L 167.318324 266.108882 
L 174.047452 265.409564 
L 180.77658 264.492692 
L 187.505708 263.786476 
L 194.234836 263.378011 
L 200.963964 262.506174 
L 207.693092 261.936414 
L 214.42222 261.150994 
L 221.151348 260.516004 
L 227.880476 259.803207 
L 234.609604 259.27163 
L 241.338732 258.545625 
L 248.06786 258.149105 
L 254.796988 257.562531 
L 261.526116 257.015311 
L 268.255244 256.584757 
L 274.984372 255.943546 
L 281.7135 255.718374 
L 288.442628 255.318158 
L 295.171756 254.729826 
L 301.900884 254.582821 
L 308.630012 253.931242 
L 315.35914 253.605633 
L 322.088268 253.342008 
L 328.817397 252.610639 
L 335.546525 252.279214 
L 342.275653 251.957347 
L 349.004781 251.440375 
L 355.733909 251.123241 
L 362.463037 250.612265 
L 369.192165 250.156195 
L 375.921293 249.763643 
" clip-path="url(#p405b8d21b1)" style="fill: none; stroke: #fde725; stroke-opacity: 0.85; stroke-linejoin: miter"/>
   </g>
   <g id="line2d_89">
    <path d="M 46.19402 279.535088 
L 52.923148 282.403136 
L 59.652276 284.058184 
L 66.381404 284.674376 
L 73.110532 283.992278 
L 79.83966 282.086407 
L 86.568788 279.58436 
L 93.297916 277.565204 
L 100.027044 276.331514 
L 106.756172 275.043998 
L 113.4853 273.948431 
L 120.214428 273.091065 
L 126.943556 272.0903 
L 133.672684 271.280627 
L 140.401812 270.413658 
L 147.13094 269.661552 
L 153.860068 268.702621 
L 160.589196 267.886727 
L 167.318324 267.240107 
L 174.047452 266.383416 
L 180.77658 265.594209 
L 187.505708 264.715249 
L 194.234836 264.112311 
L 200.963964 263.684687 
L 207.693092 262.899177 
L 214.42222 262.071472 
L 221.151348 261.426024 
L 227.880476 261.04943 
L 234.609604 260.157307 
L 241.338732 259.458845 
L 248.06786 258.975322 
L 254.796988 258.426029 
L 261.526116 258.059262 
L 268.255244 257.450508 
L 274.984372 256.862356 
L 281.7135 256.372522 
L 288.442628 255.770441 
L 295.171756 255.369504 
L 301.900884 255.151184 
L 308.630012 254.801367 
L 315.35914 254.45137 
L 322.088268 253.919747 
L 328.817397 253.723516 
L 335.546525 253.282188 
L 342.275653 252.718469 
L 349.004781 252.207583 
L 355.733909 251.831349 
L 362.463037 251.533599 
L 369.192165 251.118147 
L 375.921293 250.625743 
" clip-path="url(#p405b8d21b1)" style="fill: none; stroke: #fde725; stroke-opacity: 0.85; stroke-linejoin: miter"/>
   </g>
   <g id="line2d_90">
    <path d="M 46.19402 280.770041 
L 52.923148 282.84807 
L 59.652276 283.167098 
L 66.381404 284.12364 
L 73.110532 283.874215 
L 79.83966 282.185943 
L 86.568788 279.628989 
L 93.297916 277.638864 
L 100.027044 276.328043 
L 106.756172 275.385385 
L 113.4853 274.125729 
L 120.214428 272.91539 
L 126.943556 272.181586 
L 133.672684 271.39603 
L 140.401812 270.564314 
L 147.13094 269.53285 
L 153.860068 268.779887 
L 160.589196 268.100764 
L 167.318324 267.398246 
L 174.047452 266.562472 
L 180.77658 265.565358 
L 187.505708 265.047801 
L 194.234836 264.39789 
L 200.963964 263.587315 
L 207.693092 262.882182 
L 214.42222 262.326667 
L 221.151348 261.518933 
L 227.880476 261.249538 
L 234.609604 260.53647 
L 241.338732 259.965989 
L 248.06786 259.261757 
L 254.796988 258.641464 
L 261.526116 258.203967 
L 268.255244 257.535889 
L 274.984372 256.957519 
L 281.7135 256.663601 
L 288.442628 255.97722 
L 295.171756 255.767015 
L 301.900884 255.329203 
L 308.630012 254.844778 
L 315.35914 254.344982 
L 322.088268 253.897027 
L 328.817397 253.63764 
L 335.546525 253.294945 
L 342.275653 252.851679 
L 349.004781 252.444701 
L 355.733909 251.973395 
L 362.463037 251.559971 
L 369.192165 250.983043 
L 375.921293 250.665819 
" clip-path="url(#p405b8d21b1)" style="fill: none; stroke: #fde725; stroke-opacity: 0.85; stroke-linejoin: miter"/>
   </g>
   <g id="patch_6">
    <path d="M 29.707656 290.734097 
L 29.707656 157.420236 
" style="fill: none; stroke: #1a1a1a; stroke-width: 0.8; stroke-linejoin: miter; stroke-linecap: square"/>
   </g>
   <g id="patch_7">
    <path d="M 29.707656 290.734097 
L 392.407656 290.734097 
" style="fill: none; stroke: #1a1a1a; stroke-width: 0.8; stroke-linejoin: miter; stroke-linecap: square"/>
   </g>
  </g>
  <g id="text_28">
   <!-- r007 -->
   <g style="fill: #888888" transform="translate(421.214844 328.4675) scale(0.065 -0.065)">
    <use xlink:href="#Menlo-Regular-72"/>
    <use xlink:href="#Menlo-Regular-30" transform="translate(60.205078 0)"/>
    <use xlink:href="#Menlo-Regular-30" transform="translate(120.410156 0)"/>
    <use xlink:href="#Menlo-Regular-37" transform="translate(180.615234 0)"/>
   </g>
  </g>
 </g>
 <defs>
  <clipPath id="p3d9aeb1366">
   <rect x="29.707656" y="4.109297" width="362.7" height="133.31386"/>
  </clipPath>
  <clipPath id="p405b8d21b1">
   <rect x="29.707656" y="157.420236" width="362.7" height="133.31386"/>
  </clipPath>
 </defs>
</svg>
