<?xml version="1.0" encoding="utf-8" standalone="no"?>
<!DOCTYPE svg PUBLIC "-//W3C//DTD SVG 1.1//EN"
  "http://www.w3.org/Graphics/SVG/1.1/DTD/svg11.dtd">
<svg xmlns:xlink="http://www.w3.org/1999/xlink" width="816.896164pt" height="265.055623pt" viewBox="0 0 816.896164 265.055623" xmlns="http://www.w3.org/2000/svg" version="1.1">
 <metadata>
  <rdf:RDF xmlns:dc="http://purl.org/dc/elements/1.1/" xmlns:cc="http://creativecommons.org/ns#" xmlns:rdf="http://www.w3.org/1999/02/22-rdf-syntax-ns#">
   <cc:Work>
    <dc:type rdf:resource="http://purl.org/dc/dcmitype/StillImage"/>
    <dc:date>2026-07-11T23:29:09.255700</dc:date>
    <dc:format>image/svg+xml</dc:format>
    <dc:creator>
     <cc:Agent>
      <dc:title>Matplotlib v3.10.8, https://matplotlib.org/</dc:title>
     </cc:Agent>
    </dc:creator>
   </cc:Work>
  </rdf:RDF>
 </metadata>
 <defs>
  <style type="text/css">*{stroke-linejoin: round; stroke-linecap: butt}</style>
 </defs>
 <g id="figure_1">
  <g id="patch_1">
   <path d="M 0 265.055623 
L 816.896164 265.055623 
L 816.896164 0 
L 0 0 
z
" style="fill: #ffffff"/>
  </g>
  <g id="axes_1">
   <g id="patch_2">
    <path d="M 56.6003 220.653545 
L 265.256164 220.653545 
L 265.256164 7.2 
L 56.6003 7.2 
z
" style="fill: #ffffff"/>
   </g>
   <g id="matplotlib.axis_1">
    <g id="xtick_1">
     <g id="line2d_1">
      <defs>
       <path id="m01f54c9e56" d="M 0 0 
L 0 -4 
" style="stroke: #1a1a1a"/>
      </defs>
      <g>
       <use xlink:href="#m01f54c9e56" x="87.971636" y="220.653545" style="fill: #1a1a1a; stroke: #1a1a1a"/>
      </g>
     </g>
     <g id="text_1">
      <!-- free (baseline) -->
      <g style="fill: #1a1a1a" transform="translate(8.982333 251.840619) rotate(-15) scale(0.09 -0.09)">
       <defs>
        <path id="DejaVuSansMono-66" d="M 3322 4863 
L 3322 4384 
L 2669 4384 
Q 2359 4384 2239 4257 
Q 2119 4131 2119 3809 
L 2119 3500 
L 3322 3500 
L 3322 3053 
L 2119 3053 
L 2119 0 
L 1544 0 
L 1544 3053 
L 609 3053 
L 609 3500 
L 1544 3500 
L 1544 3744 
Q 1544 4319 1808 4591 
Q 2072 4863 2631 4863 
L 3322 4863 
z
" transform="scale(0.015625)"/>
        <path id="DejaVuSansMono-72" d="M 3609 2778 
Q 3425 2922 3234 2987 
Q 3044 3053 2816 3053 
Q 2278 3053 1993 2715 
Q 1709 2378 1709 1741 
L 1709 0 
L 1131 0 
L 1131 3500 
L 1709 3500 
L 1709 2816 
Q 1853 3188 2151 3386 
Q 2450 3584 2859 3584 
Q 3072 3584 3256 3531 
Q 3441 3478 3609 3366 
L 3609 2778 
z
" transform="scale(0.015625)"/>
        <path id="DejaVuSansMono-65" d="M 3475 1894 
L 3475 1613 
L 984 1613 
L 984 1594 
Q 984 1022 1282 709 
Q 1581 397 2125 397 
Q 2400 397 2700 484 
Q 3000 572 3341 750 
L 3341 178 
Q 3013 44 2708 -23 
Q 2403 -91 2119 -91 
Q 1303 -91 843 398 
Q 384 888 384 1747 
Q 384 2584 834 3084 
Q 1284 3584 2034 3584 
Q 2703 3584 3089 3131 
Q 3475 2678 3475 1894 
z
M 2900 2063 
Q 2888 2569 2661 2833 
Q 2434 3097 2009 3097 
Q 1594 3097 1325 2822 
Q 1056 2547 1006 2059 
L 2900 2063 
z
" transform="scale(0.015625)"/>
        <path id="DejaVuSansMono-20" transform="scale(0.015625)"/>
        <path id="DejaVuSansMono-28" d="M 2766 4856 
Q 2350 4144 2145 3436 
Q 1941 2728 1941 2009 
Q 1941 1294 2145 584 
Q 2350 -125 2766 -844 
L 2266 -844 
Q 1794 -100 1562 604 
Q 1331 1309 1331 2009 
Q 1331 2706 1562 3412 
Q 1794 4119 2266 4856 
L 2766 4856 
z
" transform="scale(0.015625)"/>
        <path id="DejaVuSansMono-62" d="M 2869 1747 
Q 2869 2416 2656 2756 
Q 2444 3097 2028 3097 
Q 1609 3097 1393 2755 
Q 1178 2413 1178 1747 
Q 1178 1084 1393 740 
Q 1609 397 2028 397 
Q 2444 397 2656 737 
Q 2869 1078 2869 1747 
z
M 1178 3053 
Q 1316 3309 1558 3446 
Q 1800 3584 2119 3584 
Q 2750 3584 3112 3098 
Q 3475 2613 3475 1759 
Q 3475 894 3111 401 
Q 2747 -91 2113 -91 
Q 1800 -91 1561 45 
Q 1322 181 1178 441 
L 1178 0 
L 603 0 
L 603 4863 
L 1178 4863 
L 1178 3053 
z
" transform="scale(0.015625)"/>
        <path id="DejaVuSansMono-61" d="M 2194 1759 
L 2003 1759 
Q 1500 1759 1245 1582 
Q 991 1406 991 1056 
Q 991 741 1181 566 
Q 1372 391 1709 391 
Q 2184 391 2456 720 
Q 2728 1050 2731 1631 
L 2731 1759 
L 2194 1759 
z
M 3309 1997 
L 3309 0 
L 2731 0 
L 2731 519 
Q 2547 206 2267 57 
Q 1988 -91 1588 -91 
Q 1053 -91 734 211 
Q 416 513 416 1019 
Q 416 1603 808 1906 
Q 1200 2209 1959 2209 
L 2731 2209 
L 2731 2300 
Q 2728 2719 2518 2908 
Q 2309 3097 1850 3097 
Q 1556 3097 1256 3012 
Q 956 2928 672 2766 
L 672 3341 
Q 991 3463 1283 3523 
Q 1575 3584 1850 3584 
Q 2284 3584 2592 3456 
Q 2900 3328 3091 3072 
Q 3209 2916 3259 2686 
Q 3309 2456 3309 1997 
z
" transform="scale(0.015625)"/>
        <path id="DejaVuSansMono-73" d="M 3041 3378 
L 3041 2816 
Q 2794 2959 2544 3031 
Q 2294 3103 2034 3103 
Q 1644 3103 1451 2976 
Q 1259 2850 1259 2591 
Q 1259 2356 1403 2240 
Q 1547 2125 2119 2016 
L 2350 1972 
Q 2778 1891 2998 1647 
Q 3219 1403 3219 1013 
Q 3219 494 2850 201 
Q 2481 -91 1825 -91 
Q 1566 -91 1281 -36 
Q 997 19 666 128 
L 666 722 
Q 988 556 1281 473 
Q 1575 391 1838 391 
Q 2219 391 2428 545 
Q 2638 700 2638 978 
Q 2638 1378 1872 1531 
L 1847 1538 
L 1631 1581 
Q 1134 1678 906 1908 
Q 678 2138 678 2534 
Q 678 3038 1018 3311 
Q 1359 3584 1991 3584 
Q 2272 3584 2531 3532 
Q 2791 3481 3041 3378 
z
" transform="scale(0.015625)"/>
        <path id="DejaVuSansMono-6c" d="M 1997 1269 
Q 1997 881 2139 684 
Q 2281 488 2559 488 
L 3231 488 
L 3231 0 
L 2503 0 
Q 1988 0 1705 331 
Q 1422 663 1422 1269 
L 1422 4447 
L 500 4447 
L 500 4897 
L 1997 4897 
L 1997 1269 
z
" transform="scale(0.015625)"/>
        <path id="DejaVuSansMono-69" d="M 800 3500 
L 2272 3500 
L 2272 447 
L 3413 447 
L 3413 0 
L 556 0 
L 556 447 
L 1697 447 
L 1697 3053 
L 800 3053 
L 800 3500 
z
M 1697 4863 
L 2272 4863 
L 2272 4134 
L 1697 4134 
L 1697 4863 
z
" transform="scale(0.015625)"/>
        <path id="DejaVuSansMono-6e" d="M 3284 2169 
L 3284 0 
L 2706 0 
L 2706 2169 
Q 2706 2641 2540 2862 
Q 2375 3084 2022 3084 
Q 1619 3084 1401 2798 
Q 1184 2513 1184 1978 
L 1184 0 
L 609 0 
L 609 3500 
L 1184 3500 
L 1184 2975 
Q 1338 3275 1600 3429 
Q 1863 3584 2222 3584 
Q 2756 3584 3020 3232 
Q 3284 2881 3284 2169 
z
" transform="scale(0.015625)"/>
        <path id="DejaVuSansMono-29" d="M 1088 4856 
L 1588 4856 
Q 2059 4119 2290 3412 
Q 2522 2706 2522 2009 
Q 2522 1306 2290 600 
Q 2059 -106 1588 -844 
L 1088 -844 
Q 1503 -119 1708 590 
Q 1913 1300 1913 2009 
Q 1913 2722 1708 3431 
Q 1503 4141 1088 4856 
z
" transform="scale(0.015625)"/>
       </defs>
       <use xlink:href="#DejaVuSansMono-66"/>
       <use xlink:href="#DejaVuSansMono-72" transform="translate(60.205078 0)"/>
       <use xlink:href="#DejaVuSansMono-65" transform="translate(120.410156 0)"/>
       <use xlink:href="#DejaVuSansMono-65" transform="translate(180.615234 0)"/>
       <use xlink:href="#DejaVuSansMono-20" transform="translate(240.820312 0)"/>
       <use xlink:href="#DejaVuSansMono-28" transform="translate(301.025391 0)"/>
       <use xlink:href="#DejaVuSansMono-62" transform="translate(361.230469 0)"/>
       <use xlink:href="#DejaVuSansMono-61" transform="translate(421.435547 0)"/>
       <use xlink:href="#DejaVuSansMono-73" transform="translate(481.640625 0)"/>
       <use xlink:href="#DejaVuSansMono-65" transform="translate(541.845703 0)"/>
       <use xlink:href="#DejaVuSansMono-6c" transform="translate(602.050781 0)"/>
       <use xlink:href="#DejaVuSansMono-69" transform="translate(662.255859 0)"/>
       <use xlink:href="#DejaVuSansMono-6e" transform="translate(722.460938 0)"/>
       <use xlink:href="#DejaVuSansMono-65" transform="translate(782.666016 0)"/>
       <use xlink:href="#DejaVuSansMono-29" transform="translate(842.871094 0)"/>
      </g>
     </g>
    </g>
    <g id="xtick_2">
     <g id="line2d_2">
      <g>
       <use xlink:href="#m01f54c9e56" x="160.928232" y="220.653545" style="fill: #1a1a1a; stroke: #1a1a1a"/>
      </g>
     </g>
     <g id="text_2">
      <!-- free + state clamp -->
      <g style="fill: #1a1a1a" transform="translate(66.237955 256.047682) rotate(-15) scale(0.09 -0.09)">
       <defs>
        <path id="DejaVuSansMono-2b" d="M 2188 3659 
L 2188 2272 
L 3578 2272 
L 3578 1741 
L 2188 1741 
L 2188 353 
L 1663 353 
L 1663 1741 
L 275 1741 
L 275 2272 
L 1663 2272 
L 1663 3659 
L 2188 3659 
z
" transform="scale(0.015625)"/>
        <path id="DejaVuSansMono-74" d="M 1919 4494 
L 1919 3500 
L 3225 3500 
L 3225 3053 
L 1919 3053 
L 1919 1153 
Q 1919 766 2066 612 
Q 2213 459 2578 459 
L 3225 459 
L 3225 0 
L 2522 0 
Q 1875 0 1609 259 
Q 1344 519 1344 1153 
L 1344 3053 
L 409 3053 
L 409 3500 
L 1344 3500 
L 1344 4494 
L 1919 4494 
z
" transform="scale(0.015625)"/>
        <path id="DejaVuSansMono-63" d="M 3316 178 
Q 3084 44 2839 -23 
Q 2594 -91 2338 -91 
Q 1525 -91 1067 396 
Q 609 884 609 1747 
Q 609 2609 1067 3096 
Q 1525 3584 2338 3584 
Q 2591 3584 2831 3518 
Q 3072 3453 3316 3316 
L 3316 2713 
Q 3088 2916 2858 3006 
Q 2628 3097 2338 3097 
Q 1797 3097 1506 2747 
Q 1216 2397 1216 1747 
Q 1216 1100 1508 748 
Q 1800 397 2338 397 
Q 2638 397 2875 489 
Q 3113 581 3316 775 
L 3316 178 
z
" transform="scale(0.015625)"/>
        <path id="DejaVuSansMono-6d" d="M 2113 3144 
Q 2219 3369 2383 3476 
Q 2547 3584 2778 3584 
Q 3200 3584 3373 3257 
Q 3547 2931 3547 2028 
L 3547 0 
L 3022 0 
L 3022 2003 
Q 3022 2744 2939 2923 
Q 2856 3103 2638 3103 
Q 2388 3103 2295 2911 
Q 2203 2719 2203 2003 
L 2203 0 
L 1678 0 
L 1678 2003 
Q 1678 2753 1589 2928 
Q 1500 3103 1269 3103 
Q 1041 3103 952 2911 
Q 863 2719 863 2003 
L 863 0 
L 341 0 
L 341 3500 
L 863 3500 
L 863 3200 
Q 966 3388 1120 3486 
Q 1275 3584 1472 3584 
Q 1709 3584 1867 3475 
Q 2025 3366 2113 3144 
z
" transform="scale(0.015625)"/>
        <path id="DejaVuSansMono-70" d="M 1172 441 
L 1172 -1331 
L 594 -1331 
L 594 3500 
L 1172 3500 
L 1172 3053 
Q 1316 3313 1555 3448 
Q 1794 3584 2106 3584 
Q 2741 3584 3102 3093 
Q 3463 2603 3463 1734 
Q 3463 881 3100 395 
Q 2738 -91 2106 -91 
Q 1788 -91 1548 45 
Q 1309 181 1172 441 
z
M 2859 1747 
Q 2859 2416 2648 2756 
Q 2438 3097 2022 3097 
Q 1603 3097 1387 2755 
Q 1172 2413 1172 1747 
Q 1172 1084 1387 740 
Q 1603 397 2022 397 
Q 2438 397 2648 737 
Q 2859 1078 2859 1747 
z
" transform="scale(0.015625)"/>
       </defs>
       <use xlink:href="#DejaVuSansMono-66"/>
       <use xlink:href="#DejaVuSansMono-72" transform="translate(60.205078 0)"/>
       <use xlink:href="#DejaVuSansMono-65" transform="translate(120.410156 0)"/>
       <use xlink:href="#DejaVuSansMono-65" transform="translate(180.615234 0)"/>
       <use xlink:href="#DejaVuSansMono-20" transform="translate(240.820312 0)"/>
       <use xlink:href="#DejaVuSansMono-2b" transform="translate(301.025391 0)"/>
       <use xlink:href="#DejaVuSansMono-20" transform="translate(361.230469 0)"/>
       <use xlink:href="#DejaVuSansMono-73" transform="translate(421.435547 0)"/>
       <use xlink:href="#DejaVuSansMono-74" transform="translate(481.640625 0)"/>
       <use xlink:href="#DejaVuSansMono-61" transform="translate(541.845703 0)"/>
       <use xlink:href="#DejaVuSansMono-74" transform="translate(602.050781 0)"/>
       <use xlink:href="#DejaVuSansMono-65" transform="translate(662.255859 0)"/>
       <use xlink:href="#DejaVuSansMono-20" transform="translate(722.460938 0)"/>
       <use xlink:href="#DejaVuSansMono-63" transform="translate(782.666016 0)"/>
       <use xlink:href="#DejaVuSansMono-6c" transform="translate(842.871094 0)"/>
       <use xlink:href="#DejaVuSansMono-61" transform="translate(903.076172 0)"/>
       <use xlink:href="#DejaVuSansMono-6d" transform="translate(963.28125 0)"/>
       <use xlink:href="#DejaVuSansMono-70" transform="translate(1023.486328 0)"/>
      </g>
     </g>
    </g>
    <g id="xtick_3">
     <g id="line2d_3">
      <g>
       <use xlink:href="#m01f54c9e56" x="233.884828" y="220.653545" style="fill: #1a1a1a; stroke: #1a1a1a"/>
      </g>
     </g>
     <g id="text_3">
      <!-- clamp + decay 0.1 -->
      <g style="fill: #1a1a1a" transform="translate(144.428209 254.645327) rotate(-15) scale(0.09 -0.09)">
       <defs>
        <path id="DejaVuSansMono-64" d="M 2681 3053 
L 2681 4863 
L 3256 4863 
L 3256 0 
L 2681 0 
L 2681 441 
Q 2538 181 2298 45 
Q 2059 -91 1747 -91 
Q 1113 -91 748 401 
Q 384 894 384 1759 
Q 384 2613 750 3098 
Q 1116 3584 1747 3584 
Q 2063 3584 2303 3448 
Q 2544 3313 2681 3053 
z
M 991 1747 
Q 991 1078 1203 737 
Q 1416 397 1831 397 
Q 2247 397 2464 740 
Q 2681 1084 2681 1747 
Q 2681 2413 2464 2755 
Q 2247 3097 1831 3097 
Q 1416 3097 1203 2756 
Q 991 2416 991 1747 
z
" transform="scale(0.015625)"/>
        <path id="DejaVuSansMono-79" d="M 2681 1125 
Q 2538 759 2316 163 
Q 2006 -663 1900 -844 
Q 1756 -1088 1540 -1209 
Q 1325 -1331 1038 -1331 
L 575 -1331 
L 575 -850 
L 916 -850 
Q 1169 -850 1312 -703 
Q 1456 -556 1678 56 
L 325 3500 
L 934 3500 
L 1972 763 
L 2994 3500 
L 3603 3500 
L 2681 1125 
z
" transform="scale(0.015625)"/>
        <path id="DejaVuSansMono-30" d="M 1509 2344 
Q 1509 2516 1629 2641 
Q 1750 2766 1919 2766 
Q 2094 2766 2219 2641 
Q 2344 2516 2344 2344 
Q 2344 2169 2220 2047 
Q 2097 1925 1919 1925 
Q 1744 1925 1626 2044 
Q 1509 2163 1509 2344 
z
M 1925 4250 
Q 1484 4250 1267 3775 
Q 1050 3300 1050 2328 
Q 1050 1359 1267 884 
Q 1484 409 1925 409 
Q 2369 409 2586 884 
Q 2803 1359 2803 2328 
Q 2803 3300 2586 3775 
Q 2369 4250 1925 4250 
z
M 1925 4750 
Q 2672 4750 3055 4137 
Q 3438 3525 3438 2328 
Q 3438 1134 3055 521 
Q 2672 -91 1925 -91 
Q 1178 -91 797 521 
Q 416 1134 416 2328 
Q 416 3525 797 4137 
Q 1178 4750 1925 4750 
z
" transform="scale(0.015625)"/>
        <path id="DejaVuSansMono-2e" d="M 1528 953 
L 2316 953 
L 2316 0 
L 1528 0 
L 1528 953 
z
" transform="scale(0.015625)"/>
        <path id="DejaVuSansMono-31" d="M 844 531 
L 1825 531 
L 1825 4097 
L 769 3859 
L 769 4434 
L 1819 4666 
L 2450 4666 
L 2450 531 
L 3419 531 
L 3419 0 
L 844 0 
L 844 531 
z
" transform="scale(0.015625)"/>
       </defs>
       <use xlink:href="#DejaVuSansMono-63"/>
       <use xlink:href="#DejaVuSansMono-6c" transform="translate(60.205078 0)"/>
       <use xlink:href="#DejaVuSansMono-61" transform="translate(120.410156 0)"/>
       <use xlink:href="#DejaVuSansMono-6d" transform="translate(180.615234 0)"/>
       <use xlink:href="#DejaVuSansMono-70" transform="translate(240.820312 0)"/>
       <use xlink:href="#DejaVuSansMono-20" transform="translate(301.025391 0)"/>
       <use xlink:href="#DejaVuSansMono-2b" transform="translate(361.230469 0)"/>
       <use xlink:href="#DejaVuSansMono-20" transform="translate(421.435547 0)"/>
       <use xlink:href="#DejaVuSansMono-64" transform="translate(481.640625 0)"/>
       <use xlink:href="#DejaVuSansMono-65" transform="translate(541.845703 0)"/>
       <use xlink:href="#DejaVuSansMono-63" transform="translate(602.050781 0)"/>
       <use xlink:href="#DejaVuSansMono-61" transform="translate(662.255859 0)"/>
       <use xlink:href="#DejaVuSansMono-79" transform="translate(722.460938 0)"/>
       <use xlink:href="#DejaVuSansMono-20" transform="translate(782.666016 0)"/>
       <use xlink:href="#DejaVuSansMono-30" transform="translate(842.871094 0)"/>
       <use xlink:href="#DejaVuSansMono-2e" transform="translate(903.076172 0)"/>
       <use xlink:href="#DejaVuSansMono-31" transform="translate(963.28125 0)"/>
      </g>
     </g>
    </g>
   </g>
   <g id="matplotlib.axis_2">
    <g id="ytick_1">
     <g id="line2d_4">
      <defs>
       <path id="ma704f13aba" d="M 0 0 
L 4 0 
" style="stroke: #1a1a1a"/>
      </defs>
      <g>
       <use xlink:href="#ma704f13aba" x="56.6003" y="220.653545" style="fill: #1a1a1a; stroke: #1a1a1a"/>
      </g>
     </g>
     <g id="text_4">
      <!-- 0 -->
      <g style="fill: #1a1a1a" transform="translate(47.682019 224.096748) scale(0.09 -0.09)">
       <use xlink:href="#DejaVuSansMono-30"/>
      </g>
     </g>
    </g>
    <g id="ytick_2">
     <g id="line2d_5">
      <g>
       <use xlink:href="#ma704f13aba" x="56.6003" y="173.740678" style="fill: #1a1a1a; stroke: #1a1a1a"/>
      </g>
     </g>
     <g id="text_5">
      <!-- 10 -->
      <g style="fill: #1a1a1a" transform="translate(42.263738 177.183881) scale(0.09 -0.09)">
       <use xlink:href="#DejaVuSansMono-31"/>
       <use xlink:href="#DejaVuSansMono-30" transform="translate(60.205078 0)"/>
      </g>
     </g>
    </g>
    <g id="ytick_3">
     <g id="line2d_6">
      <g>
       <use xlink:href="#ma704f13aba" x="56.6003" y="126.827811" style="fill: #1a1a1a; stroke: #1a1a1a"/>
      </g>
     </g>
     <g id="text_6">
      <!-- 20 -->
      <g style="fill: #1a1a1a" transform="translate(42.263738 130.271014) scale(0.09 -0.09)">
       <defs>
        <path id="DejaVuSansMono-32" d="M 1166 531 
L 3309 531 
L 3309 0 
L 475 0 
L 475 531 
Q 1059 1147 1496 1619 
Q 1934 2091 2100 2284 
Q 2413 2666 2522 2902 
Q 2631 3138 2631 3384 
Q 2631 3775 2401 3997 
Q 2172 4219 1772 4219 
Q 1488 4219 1175 4116 
Q 863 4013 513 3803 
L 513 4441 
Q 834 4594 1145 4672 
Q 1456 4750 1759 4750 
Q 2444 4750 2861 4386 
Q 3278 4022 3278 3431 
Q 3278 3131 3139 2831 
Q 3000 2531 2688 2169 
Q 2513 1966 2180 1606 
Q 1847 1247 1166 531 
z
" transform="scale(0.015625)"/>
       </defs>
       <use xlink:href="#DejaVuSansMono-32"/>
       <use xlink:href="#DejaVuSansMono-30" transform="translate(60.205078 0)"/>
      </g>
     </g>
    </g>
    <g id="ytick_4">
     <g id="line2d_7">
      <g>
       <use xlink:href="#ma704f13aba" x="56.6003" y="79.914944" style="fill: #1a1a1a; stroke: #1a1a1a"/>
      </g>
     </g>
     <g id="text_7">
      <!-- 30 -->
      <g style="fill: #1a1a1a" transform="translate(42.263738 83.358147) scale(0.09 -0.09)">
       <defs>
        <path id="DejaVuSansMono-33" d="M 2425 2497 
Q 2884 2375 3128 2064 
Q 3372 1753 3372 1288 
Q 3372 644 2939 276 
Q 2506 -91 1741 -91 
Q 1419 -91 1084 -31 
Q 750 28 428 141 
L 428 769 
Q 747 603 1056 522 
Q 1366 441 1672 441 
Q 2191 441 2469 675 
Q 2747 909 2747 1350 
Q 2747 1756 2469 1995 
Q 2191 2234 1716 2234 
L 1234 2234 
L 1234 2753 
L 1716 2753 
Q 2150 2753 2394 2943 
Q 2638 3134 2638 3475 
Q 2638 3834 2411 4026 
Q 2184 4219 1766 4219 
Q 1488 4219 1191 4156 
Q 894 4094 569 3969 
L 569 4550 
Q 947 4650 1242 4700 
Q 1538 4750 1766 4750 
Q 2447 4750 2855 4408 
Q 3263 4066 3263 3500 
Q 3263 3116 3048 2859 
Q 2834 2603 2425 2497 
z
" transform="scale(0.015625)"/>
       </defs>
       <use xlink:href="#DejaVuSansMono-33"/>
       <use xlink:href="#DejaVuSansMono-30" transform="translate(60.205078 0)"/>
      </g>
     </g>
    </g>
    <g id="ytick_5">
     <g id="line2d_8">
      <g>
       <use xlink:href="#ma704f13aba" x="56.6003" y="33.002077" style="fill: #1a1a1a; stroke: #1a1a1a"/>
      </g>
     </g>
     <g id="text_8">
      <!-- 40 -->
      <g style="fill: #1a1a1a" transform="translate(42.263738 36.44528) scale(0.09 -0.09)">
       <defs>
        <path id="DejaVuSansMono-34" d="M 2297 4091 
L 825 1625 
L 2297 1625 
L 2297 4091 
z
M 2194 4666 
L 2925 4666 
L 2925 1625 
L 3547 1625 
L 3547 1113 
L 2925 1113 
L 2925 0 
L 2297 0 
L 2297 1113 
L 319 1113 
L 319 1709 
L 2194 4666 
z
" transform="scale(0.015625)"/>
       </defs>
       <use xlink:href="#DejaVuSansMono-34"/>
       <use xlink:href="#DejaVuSansMono-30" transform="translate(60.205078 0)"/>
      </g>
     </g>
    </g>
    <g id="text_9">
     <!-- NaN-epoch rate (%) -->
     <g style="fill: #1a1a1a" transform="translate(36.18405 168.109585) rotate(-90) scale(0.1 -0.1)">
      <defs>
       <path id="DejaVuSansMono-4e" d="M 434 4666 
L 1234 4666 
L 2809 825 
L 2809 4666 
L 3419 4666 
L 3419 0 
L 2619 0 
L 1044 3841 
L 1044 0 
L 434 0 
L 434 4666 
z
" transform="scale(0.015625)"/>
       <path id="DejaVuSansMono-2d" d="M 1113 2009 
L 2741 2009 
L 2741 1497 
L 1113 1497 
L 1113 2009 
z
" transform="scale(0.015625)"/>
       <path id="DejaVuSansMono-6f" d="M 1925 3097 
Q 1488 3097 1263 2756 
Q 1038 2416 1038 1747 
Q 1038 1081 1263 739 
Q 1488 397 1925 397 
Q 2366 397 2591 739 
Q 2816 1081 2816 1747 
Q 2816 2416 2591 2756 
Q 2366 3097 1925 3097 
z
M 1925 3584 
Q 2653 3584 3039 3112 
Q 3425 2641 3425 1747 
Q 3425 850 3040 379 
Q 2656 -91 1925 -91 
Q 1197 -91 812 379 
Q 428 850 428 1747 
Q 428 2641 812 3112 
Q 1197 3584 1925 3584 
z
" transform="scale(0.015625)"/>
       <path id="DejaVuSansMono-68" d="M 3284 2169 
L 3284 0 
L 2706 0 
L 2706 2169 
Q 2706 2641 2540 2862 
Q 2375 3084 2022 3084 
Q 1619 3084 1401 2798 
Q 1184 2513 1184 1978 
L 1184 0 
L 609 0 
L 609 4863 
L 1184 4863 
L 1184 2975 
Q 1338 3275 1600 3429 
Q 1863 3584 2222 3584 
Q 2756 3584 3020 3232 
Q 3284 2881 3284 2169 
z
" transform="scale(0.015625)"/>
       <path id="DejaVuSansMono-25" d="M 2175 997 
Q 2175 753 2339 587 
Q 2503 422 2747 422 
Q 2988 422 3155 589 
Q 3322 756 3322 997 
Q 3322 1238 3153 1406 
Q 2984 1575 2747 1575 
Q 2503 1575 2339 1409 
Q 2175 1244 2175 997 
z
M 1753 997 
Q 1753 1419 2040 1708 
Q 2328 1997 2747 1997 
Q 2947 1997 3126 1922 
Q 3306 1847 3450 1703 
Q 3594 1556 3672 1375 
Q 3750 1194 3750 997 
Q 3750 581 3459 290 
Q 3169 0 2747 0 
Q 2322 0 2037 286 
Q 1753 572 1753 997 
z
M 378 1453 
L 269 1753 
L 3525 3059 
L 3653 2759 
L 378 1453 
z
M 525 3475 
Q 525 3228 689 3064 
Q 853 2900 1100 2900 
Q 1341 2900 1509 3067 
Q 1678 3234 1678 3475 
Q 1678 3716 1509 3883 
Q 1341 4050 1100 4050 
Q 859 4050 692 3884 
Q 525 3719 525 3475 
z
M 103 3475 
Q 103 3897 390 4186 
Q 678 4475 1100 4475 
Q 1300 4475 1483 4400 
Q 1666 4325 1806 4184 
Q 1947 4044 2023 3861 
Q 2100 3678 2100 3475 
Q 2100 3056 1809 2767 
Q 1519 2478 1100 2478 
Q 678 2478 390 2765 
Q 103 3053 103 3475 
z
" transform="scale(0.015625)"/>
      </defs>
      <use xlink:href="#DejaVuSansMono-4e"/>
      <use xlink:href="#DejaVuSansMono-61" transform="translate(60.205078 0)"/>
      <use xlink:href="#DejaVuSansMono-4e" transform="translate(120.410156 0)"/>
      <use xlink:href="#DejaVuSansMono-2d" transform="translate(180.615234 0)"/>
      <use xlink:href="#DejaVuSansMono-65" transform="translate(240.820312 0)"/>
      <use xlink:href="#DejaVuSansMono-70" transform="translate(301.025391 0)"/>
      <use xlink:href="#DejaVuSansMono-6f" transform="translate(361.230469 0)"/>
      <use xlink:href="#DejaVuSansMono-63" transform="translate(421.435547 0)"/>
      <use xlink:href="#DejaVuSansMono-68" transform="translate(481.640625 0)"/>
      <use xlink:href="#DejaVuSansMono-20" transform="translate(541.845703 0)"/>
      <use xlink:href="#DejaVuSansMono-72" transform="translate(602.050781 0)"/>
      <use xlink:href="#DejaVuSansMono-61" transform="translate(662.255859 0)"/>
      <use xlink:href="#DejaVuSansMono-74" transform="translate(722.460938 0)"/>
      <use xlink:href="#DejaVuSansMono-65" transform="translate(782.666016 0)"/>
      <use xlink:href="#DejaVuSansMono-20" transform="translate(842.871094 0)"/>
      <use xlink:href="#DejaVuSansMono-28" transform="translate(903.076172 0)"/>
      <use xlink:href="#DejaVuSansMono-25" transform="translate(963.28125 0)"/>
      <use xlink:href="#DejaVuSansMono-29" transform="translate(1023.486328 0)"/>
     </g>
    </g>
   </g>
   <g id="patch_3">
    <path d="M 66.084658 220.653545 
L 109.858615 220.653545 
L 109.858615 17.364455 
L 66.084658 17.364455 
z
" clip-path="url(#pe266b1df75)" style="fill: #c8102e; stroke: #1a1a1a; stroke-linejoin: miter"/>
   </g>
   <g id="patch_4">
    <path d="M 139.041253 220.653545 
L 182.815211 220.653545 
L 182.815211 220.653545 
L 139.041253 220.653545 
z
" clip-path="url(#pe266b1df75)" style="fill: #1a1a1a; stroke: #1a1a1a; stroke-linejoin: miter"/>
   </g>
   <g id="patch_5">
    <path d="M 211.997849 220.653545 
L 255.771807 220.653545 
L 255.771807 220.653545 
L 211.997849 220.653545 
z
" clip-path="url(#pe266b1df75)" style="fill: #1a1a1a; stroke: #1a1a1a; stroke-linejoin: miter"/>
   </g>
   <g id="patch_6">
    <path d="M 56.6003 220.653545 
L 56.6003 7.2 
" style="fill: none; stroke: #1a1a1a; stroke-width: 1.4; stroke-linejoin: miter; stroke-linecap: square"/>
   </g>
   <g id="patch_7">
    <path d="M 56.6003 220.653545 
L 265.256164 220.653545 
" style="fill: none; stroke: #1a1a1a; stroke-width: 1.4; stroke-linejoin: miter; stroke-linecap: square"/>
   </g>
  </g>
  <g id="axes_2">
   <g id="patch_8">
    <path d="M 328.8203 220.653545 
L 537.476164 220.653545 
L 537.476164 7.2 
L 328.8203 7.2 
z
" style="fill: #ffffff"/>
   </g>
   <g id="matplotlib.axis_3">
    <g id="xtick_4">
     <g id="line2d_9">
      <g>
       <use xlink:href="#m01f54c9e56" x="360.191636" y="220.653545" style="fill: #1a1a1a; stroke: #1a1a1a"/>
      </g>
     </g>
     <g id="text_10">
      <!-- free (baseline) -->
      <g style="fill: #1a1a1a" transform="translate(281.202333 251.840619) rotate(-15) scale(0.09 -0.09)">
       <use xlink:href="#DejaVuSansMono-66"/>
       <use xlink:href="#DejaVuSansMono-72" transform="translate(60.205078 0)"/>
       <use xlink:href="#DejaVuSansMono-65" transform="translate(120.410156 0)"/>
       <use xlink:href="#DejaVuSansMono-65" transform="translate(180.615234 0)"/>
       <use xlink:href="#DejaVuSansMono-20" transform="translate(240.820312 0)"/>
       <use xlink:href="#DejaVuSansMono-28" transform="translate(301.025391 0)"/>
       <use xlink:href="#DejaVuSansMono-62" transform="translate(361.230469 0)"/>
       <use xlink:href="#DejaVuSansMono-61" transform="translate(421.435547 0)"/>
       <use xlink:href="#DejaVuSansMono-73" transform="translate(481.640625 0)"/>
       <use xlink:href="#DejaVuSansMono-65" transform="translate(541.845703 0)"/>
       <use xlink:href="#DejaVuSansMono-6c" transform="translate(602.050781 0)"/>
       <use xlink:href="#DejaVuSansMono-69" transform="translate(662.255859 0)"/>
       <use xlink:href="#DejaVuSansMono-6e" transform="translate(722.460938 0)"/>
       <use xlink:href="#DejaVuSansMono-65" transform="translate(782.666016 0)"/>
       <use xlink:href="#DejaVuSansMono-29" transform="translate(842.871094 0)"/>
      </g>
     </g>
    </g>
    <g id="xtick_5">
     <g id="line2d_10">
      <g>
       <use xlink:href="#m01f54c9e56" x="433.148232" y="220.653545" style="fill: #1a1a1a; stroke: #1a1a1a"/>
      </g>
     </g>
     <g id="text_11">
      <!-- free + state clamp -->
      <g style="fill: #1a1a1a" transform="translate(338.457955 256.047682) rotate(-15) scale(0.09 -0.09)">
       <use xlink:href="#DejaVuSansMono-66"/>
       <use xlink:href="#DejaVuSansMono-72" transform="translate(60.205078 0)"/>
       <use xlink:href="#DejaVuSansMono-65" transform="translate(120.410156 0)"/>
       <use xlink:href="#DejaVuSansMono-65" transform="translate(180.615234 0)"/>
       <use xlink:href="#DejaVuSansMono-20" transform="translate(240.820312 0)"/>
       <use xlink:href="#DejaVuSansMono-2b" transform="translate(301.025391 0)"/>
       <use xlink:href="#DejaVuSansMono-20" transform="translate(361.230469 0)"/>
       <use xlink:href="#DejaVuSansMono-73" transform="translate(421.435547 0)"/>
       <use xlink:href="#DejaVuSansMono-74" transform="translate(481.640625 0)"/>
       <use xlink:href="#DejaVuSansMono-61" transform="translate(541.845703 0)"/>
       <use xlink:href="#DejaVuSansMono-74" transform="translate(602.050781 0)"/>
       <use xlink:href="#DejaVuSansMono-65" transform="translate(662.255859 0)"/>
       <use xlink:href="#DejaVuSansMono-20" transform="translate(722.460938 0)"/>
       <use xlink:href="#DejaVuSansMono-63" transform="translate(782.666016 0)"/>
       <use xlink:href="#DejaVuSansMono-6c" transform="translate(842.871094 0)"/>
       <use xlink:href="#DejaVuSansMono-61" transform="translate(903.076172 0)"/>
       <use xlink:href="#DejaVuSansMono-6d" transform="translate(963.28125 0)"/>
       <use xlink:href="#DejaVuSansMono-70" transform="translate(1023.486328 0)"/>
      </g>
     </g>
    </g>
    <g id="xtick_6">
     <g id="line2d_11">
      <g>
       <use xlink:href="#m01f54c9e56" x="506.104828" y="220.653545" style="fill: #1a1a1a; stroke: #1a1a1a"/>
      </g>
     </g>
     <g id="text_12">
      <!-- clamp + decay 0.1 -->
      <g style="fill: #1a1a1a" transform="translate(416.648209 254.645327) rotate(-15) scale(0.09 -0.09)">
       <use xlink:href="#DejaVuSansMono-63"/>
       <use xlink:href="#DejaVuSansMono-6c" transform="translate(60.205078 0)"/>
       <use xlink:href="#DejaVuSansMono-61" transform="translate(120.410156 0)"/>
       <use xlink:href="#DejaVuSansMono-6d" transform="translate(180.615234 0)"/>
       <use xlink:href="#DejaVuSansMono-70" transform="translate(240.820312 0)"/>
       <use xlink:href="#DejaVuSansMono-20" transform="translate(301.025391 0)"/>
       <use xlink:href="#DejaVuSansMono-2b" transform="translate(361.230469 0)"/>
       <use xlink:href="#DejaVuSansMono-20" transform="translate(421.435547 0)"/>
       <use xlink:href="#DejaVuSansMono-64" transform="translate(481.640625 0)"/>
       <use xlink:href="#DejaVuSansMono-65" transform="translate(541.845703 0)"/>
       <use xlink:href="#DejaVuSansMono-63" transform="translate(602.050781 0)"/>
       <use xlink:href="#DejaVuSansMono-61" transform="translate(662.255859 0)"/>
       <use xlink:href="#DejaVuSansMono-79" transform="translate(722.460938 0)"/>
       <use xlink:href="#DejaVuSansMono-20" transform="translate(782.666016 0)"/>
       <use xlink:href="#DejaVuSansMono-30" transform="translate(842.871094 0)"/>
       <use xlink:href="#DejaVuSansMono-2e" transform="translate(903.076172 0)"/>
       <use xlink:href="#DejaVuSansMono-31" transform="translate(963.28125 0)"/>
      </g>
     </g>
    </g>
   </g>
   <g id="matplotlib.axis_4">
    <g id="ytick_6">
     <g id="line2d_12">
      <g>
       <use xlink:href="#ma704f13aba" x="328.8203" y="220.653545" style="fill: #1a1a1a; stroke: #1a1a1a"/>
      </g>
     </g>
     <g id="text_13">
      <!-- 0 -->
      <g style="fill: #1a1a1a" transform="translate(319.902019 224.096748) scale(0.09 -0.09)">
       <use xlink:href="#DejaVuSansMono-30"/>
      </g>
     </g>
    </g>
    <g id="ytick_7">
     <g id="line2d_13">
      <g>
       <use xlink:href="#ma704f13aba" x="328.8203" y="176.362498" style="fill: #1a1a1a; stroke: #1a1a1a"/>
      </g>
     </g>
     <g id="text_14">
      <!-- 2 -->
      <g style="fill: #1a1a1a" transform="translate(319.902019 179.805701) scale(0.09 -0.09)">
       <use xlink:href="#DejaVuSansMono-32"/>
      </g>
     </g>
    </g>
    <g id="ytick_8">
     <g id="line2d_14">
      <g>
       <use xlink:href="#ma704f13aba" x="328.8203" y="132.071451" style="fill: #1a1a1a; stroke: #1a1a1a"/>
      </g>
     </g>
     <g id="text_15">
      <!-- 4 -->
      <g style="fill: #1a1a1a" transform="translate(319.902019 135.514654) scale(0.09 -0.09)">
       <use xlink:href="#DejaVuSansMono-34"/>
      </g>
     </g>
    </g>
    <g id="ytick_9">
     <g id="line2d_15">
      <g>
       <use xlink:href="#ma704f13aba" x="328.8203" y="87.780404" style="fill: #1a1a1a; stroke: #1a1a1a"/>
      </g>
     </g>
     <g id="text_16">
      <!-- 6 -->
      <g style="fill: #1a1a1a" transform="translate(319.902019 91.223607) scale(0.09 -0.09)">
       <defs>
        <path id="DejaVuSansMono-36" d="M 3097 4563 
L 3097 3981 
Q 2900 4097 2678 4158 
Q 2456 4219 2216 4219 
Q 1616 4219 1306 3767 
Q 997 3316 997 2438 
Q 1147 2750 1412 2917 
Q 1678 3084 2022 3084 
Q 2697 3084 3067 2670 
Q 3438 2256 3438 1497 
Q 3438 741 3056 325 
Q 2675 -91 1984 -91 
Q 1172 -91 794 492 
Q 416 1075 416 2328 
Q 416 3509 870 4129 
Q 1325 4750 2188 4750 
Q 2419 4750 2650 4701 
Q 2881 4653 3097 4563 
z
M 1972 2591 
Q 1569 2591 1337 2300 
Q 1106 2009 1106 1497 
Q 1106 984 1337 693 
Q 1569 403 1972 403 
Q 2391 403 2603 679 
Q 2816 956 2816 1497 
Q 2816 2041 2603 2316 
Q 2391 2591 1972 2591 
z
" transform="scale(0.015625)"/>
       </defs>
       <use xlink:href="#DejaVuSansMono-36"/>
      </g>
     </g>
    </g>
    <g id="ytick_10">
     <g id="line2d_16">
      <g>
       <use xlink:href="#ma704f13aba" x="328.8203" y="43.489357" style="fill: #1a1a1a; stroke: #1a1a1a"/>
      </g>
     </g>
     <g id="text_17">
      <!-- 8 -->
      <g style="fill: #1a1a1a" transform="translate(319.902019 46.932561) scale(0.09 -0.09)">
       <defs>
        <path id="DejaVuSansMono-38" d="M 1925 2216 
Q 1503 2216 1273 1980 
Q 1044 1744 1044 1313 
Q 1044 881 1276 642 
Q 1509 403 1925 403 
Q 2350 403 2579 639 
Q 2809 875 2809 1313 
Q 2809 1741 2576 1978 
Q 2344 2216 1925 2216 
z
M 1375 2478 
Q 972 2581 745 2862 
Q 519 3144 519 3541 
Q 519 4097 897 4423 
Q 1275 4750 1925 4750 
Q 2578 4750 2956 4423 
Q 3334 4097 3334 3541 
Q 3334 3144 3107 2862 
Q 2881 2581 2478 2478 
Q 2947 2375 3195 2062 
Q 3444 1750 3444 1253 
Q 3444 622 3041 265 
Q 2638 -91 1925 -91 
Q 1213 -91 811 264 
Q 409 619 409 1247 
Q 409 1747 657 2061 
Q 906 2375 1375 2478 
z
M 1147 3481 
Q 1147 3106 1347 2909 
Q 1547 2713 1925 2713 
Q 2306 2713 2506 2909 
Q 2706 3106 2706 3481 
Q 2706 3863 2507 4063 
Q 2309 4263 1925 4263 
Q 1547 4263 1347 4061 
Q 1147 3859 1147 3481 
z
" transform="scale(0.015625)"/>
       </defs>
       <use xlink:href="#DejaVuSansMono-38"/>
      </g>
     </g>
    </g>
    <g id="text_18">
     <!-- max ‖W_ee‖ -->
     <g style="fill: #1a1a1a" transform="translate(313.544207 144.028335) rotate(-90) scale(0.1 -0.1)">
      <defs>
       <path id="DejaVuSansMono-78" d="M 3494 3500 
L 2241 1825 
L 3616 0 
L 2950 0 
L 1925 1403 
L 903 0 
L 238 0 
L 1613 1825 
L 359 3500 
L 997 3500 
L 1925 2234 
L 2847 3500 
L 3494 3500 
z
" transform="scale(0.015625)"/>
       <path id="DejaVuSansMono-2016" d="M 2962 4891 
L 2962 -1509 
L 2424 -1509 
L 2424 4891 
L 2962 4891 
z
M 1426 4891 
L 1426 -1509 
L 888 -1509 
L 888 4891 
L 1426 4891 
z
" transform="scale(0.015625)"/>
       <path id="DejaVuSansMono-57" d="M 0 4666 
L 616 4666 
L 1063 878 
L 1594 3384 
L 2253 3384 
L 2791 872 
L 3238 4666 
L 3853 4666 
L 3156 0 
L 2559 0 
L 1925 2772 
L 1294 0 
L 697 0 
L 0 4666 
z
" transform="scale(0.015625)"/>
       <path id="DejaVuSansMono-5f" d="M 3853 -1259 
L 3853 -1509 
L 0 -1509 
L 0 -1259 
L 3853 -1259 
z
" transform="scale(0.015625)"/>
      </defs>
      <use xlink:href="#DejaVuSansMono-6d"/>
      <use xlink:href="#DejaVuSansMono-61" transform="translate(60.205078 0)"/>
      <use xlink:href="#DejaVuSansMono-78" transform="translate(120.410156 0)"/>
      <use xlink:href="#DejaVuSansMono-20" transform="translate(180.615234 0)"/>
      <use xlink:href="#DejaVuSansMono-2016" transform="translate(240.820312 0)"/>
      <use xlink:href="#DejaVuSansMono-57" transform="translate(301.025391 0)"/>
      <use xlink:href="#DejaVuSansMono-5f" transform="translate(361.230469 0)"/>
      <use xlink:href="#DejaVuSansMono-65" transform="translate(421.435547 0)"/>
      <use xlink:href="#DejaVuSansMono-65" transform="translate(481.640625 0)"/>
      <use xlink:href="#DejaVuSansMono-2016" transform="translate(541.845703 0)"/>
     </g>
    </g>
   </g>
   <g id="patch_9">
    <path d="M 338.304658 220.653545 
L 382.078615 220.653545 
L 382.078615 17.364455 
L 338.304658 17.364455 
z
" clip-path="url(#p7f0ac6dd98)" style="fill: #c8102e; stroke: #1a1a1a; stroke-linejoin: miter"/>
   </g>
   <g id="patch_10">
    <path d="M 411.261253 220.653545 
L 455.035211 220.653545 
L 455.035211 18.304721 
L 411.261253 18.304721 
z
" clip-path="url(#p7f0ac6dd98)" style="fill: #1a1a1a; stroke: #1a1a1a; stroke-linejoin: miter"/>
   </g>
   <g id="patch_11">
    <path d="M 484.217849 220.653545 
L 527.991807 220.653545 
L 527.991807 23.517951 
L 484.217849 23.517951 
z
" clip-path="url(#p7f0ac6dd98)" style="fill: #1a1a1a; stroke: #1a1a1a; stroke-linejoin: miter"/>
   </g>
   <g id="patch_12">
    <path d="M 328.8203 220.653545 
L 328.8203 7.2 
" style="fill: none; stroke: #1a1a1a; stroke-width: 1.4; stroke-linejoin: miter; stroke-linecap: square"/>
   </g>
   <g id="patch_13">
    <path d="M 328.8203 220.653545 
L 537.476164 220.653545 
" style="fill: none; stroke: #1a1a1a; stroke-width: 1.4; stroke-linejoin: miter; stroke-linecap: square"/>
   </g>
  </g>
  <g id="axes_3">
   <g id="patch_14">
    <path d="M 601.0403 220.653545 
L 809.696164 220.653545 
L 809.696164 7.2 
L 601.0403 7.2 
z
" style="fill: #ffffff"/>
   </g>
   <g id="matplotlib.axis_5">
    <g id="xtick_7">
     <g id="line2d_17">
      <g>
       <use xlink:href="#m01f54c9e56" x="632.411636" y="220.653545" style="fill: #1a1a1a; stroke: #1a1a1a"/>
      </g>
     </g>
     <g id="text_19">
      <!-- free (baseline) -->
      <g style="fill: #1a1a1a" transform="translate(553.422333 251.840619) rotate(-15) scale(0.09 -0.09)">
       <use xlink:href="#DejaVuSansMono-66"/>
       <use xlink:href="#DejaVuSansMono-72" transform="translate(60.205078 0)"/>
       <use xlink:href="#DejaVuSansMono-65" transform="translate(120.410156 0)"/>
       <use xlink:href="#DejaVuSansMono-65" transform="translate(180.615234 0)"/>
       <use xlink:href="#DejaVuSansMono-20" transform="translate(240.820312 0)"/>
       <use xlink:href="#DejaVuSansMono-28" transform="translate(301.025391 0)"/>
       <use xlink:href="#DejaVuSansMono-62" transform="translate(361.230469 0)"/>
       <use xlink:href="#DejaVuSansMono-61" transform="translate(421.435547 0)"/>
       <use xlink:href="#DejaVuSansMono-73" transform="translate(481.640625 0)"/>
       <use xlink:href="#DejaVuSansMono-65" transform="translate(541.845703 0)"/>
       <use xlink:href="#DejaVuSansMono-6c" transform="translate(602.050781 0)"/>
       <use xlink:href="#DejaVuSansMono-69" transform="translate(662.255859 0)"/>
       <use xlink:href="#DejaVuSansMono-6e" transform="translate(722.460938 0)"/>
       <use xlink:href="#DejaVuSansMono-65" transform="translate(782.666016 0)"/>
       <use xlink:href="#DejaVuSansMono-29" transform="translate(842.871094 0)"/>
      </g>
     </g>
    </g>
    <g id="xtick_8">
     <g id="line2d_18">
      <g>
       <use xlink:href="#m01f54c9e56" x="705.368232" y="220.653545" style="fill: #1a1a1a; stroke: #1a1a1a"/>
      </g>
     </g>
     <g id="text_20">
      <!-- free + state clamp -->
      <g style="fill: #1a1a1a" transform="translate(610.677955 256.047682) rotate(-15) scale(0.09 -0.09)">
       <use xlink:href="#DejaVuSansMono-66"/>
       <use xlink:href="#DejaVuSansMono-72" transform="translate(60.205078 0)"/>
       <use xlink:href="#DejaVuSansMono-65" transform="translate(120.410156 0)"/>
       <use xlink:href="#DejaVuSansMono-65" transform="translate(180.615234 0)"/>
       <use xlink:href="#DejaVuSansMono-20" transform="translate(240.820312 0)"/>
       <use xlink:href="#DejaVuSansMono-2b" transform="translate(301.025391 0)"/>
       <use xlink:href="#DejaVuSansMono-20" transform="translate(361.230469 0)"/>
       <use xlink:href="#DejaVuSansMono-73" transform="translate(421.435547 0)"/>
       <use xlink:href="#DejaVuSansMono-74" transform="translate(481.640625 0)"/>
       <use xlink:href="#DejaVuSansMono-61" transform="translate(541.845703 0)"/>
       <use xlink:href="#DejaVuSansMono-74" transform="translate(602.050781 0)"/>
       <use xlink:href="#DejaVuSansMono-65" transform="translate(662.255859 0)"/>
       <use xlink:href="#DejaVuSansMono-20" transform="translate(722.460938 0)"/>
       <use xlink:href="#DejaVuSansMono-63" transform="translate(782.666016 0)"/>
       <use xlink:href="#DejaVuSansMono-6c" transform="translate(842.871094 0)"/>
       <use xlink:href="#DejaVuSansMono-61" transform="translate(903.076172 0)"/>
       <use xlink:href="#DejaVuSansMono-6d" transform="translate(963.28125 0)"/>
       <use xlink:href="#DejaVuSansMono-70" transform="translate(1023.486328 0)"/>
      </g>
     </g>
    </g>
    <g id="xtick_9">
     <g id="line2d_19">
      <g>
       <use xlink:href="#m01f54c9e56" x="778.324828" y="220.653545" style="fill: #1a1a1a; stroke: #1a1a1a"/>
      </g>
     </g>
     <g id="text_21">
      <!-- clamp + decay 0.1 -->
      <g style="fill: #1a1a1a" transform="translate(688.868209 254.645327) rotate(-15) scale(0.09 -0.09)">
       <use xlink:href="#DejaVuSansMono-63"/>
       <use xlink:href="#DejaVuSansMono-6c" transform="translate(60.205078 0)"/>
       <use xlink:href="#DejaVuSansMono-61" transform="translate(120.410156 0)"/>
       <use xlink:href="#DejaVuSansMono-6d" transform="translate(180.615234 0)"/>
       <use xlink:href="#DejaVuSansMono-70" transform="translate(240.820312 0)"/>
       <use xlink:href="#DejaVuSansMono-20" transform="translate(301.025391 0)"/>
       <use xlink:href="#DejaVuSansMono-2b" transform="translate(361.230469 0)"/>
       <use xlink:href="#DejaVuSansMono-20" transform="translate(421.435547 0)"/>
       <use xlink:href="#DejaVuSansMono-64" transform="translate(481.640625 0)"/>
       <use xlink:href="#DejaVuSansMono-65" transform="translate(541.845703 0)"/>
       <use xlink:href="#DejaVuSansMono-63" transform="translate(602.050781 0)"/>
       <use xlink:href="#DejaVuSansMono-61" transform="translate(662.255859 0)"/>
       <use xlink:href="#DejaVuSansMono-79" transform="translate(722.460938 0)"/>
       <use xlink:href="#DejaVuSansMono-20" transform="translate(782.666016 0)"/>
       <use xlink:href="#DejaVuSansMono-30" transform="translate(842.871094 0)"/>
       <use xlink:href="#DejaVuSansMono-2e" transform="translate(903.076172 0)"/>
       <use xlink:href="#DejaVuSansMono-31" transform="translate(963.28125 0)"/>
      </g>
     </g>
    </g>
   </g>
   <g id="matplotlib.axis_6">
    <g id="ytick_11">
     <g id="line2d_20">
      <g>
       <use xlink:href="#ma704f13aba" x="601.0403" y="220.653545" style="fill: #1a1a1a; stroke: #1a1a1a"/>
      </g>
     </g>
     <g id="text_22">
      <!-- 0 -->
      <g style="fill: #1a1a1a" transform="translate(592.122019 224.096748) scale(0.09 -0.09)">
       <use xlink:href="#DejaVuSansMono-30"/>
      </g>
     </g>
    </g>
    <g id="ytick_12">
     <g id="line2d_21">
      <g>
       <use xlink:href="#ma704f13aba" x="601.0403" y="184.926113" style="fill: #1a1a1a; stroke: #1a1a1a"/>
      </g>
     </g>
     <g id="text_23">
      <!-- 10 -->
      <g style="fill: #1a1a1a" transform="translate(586.703738 188.369316) scale(0.09 -0.09)">
       <use xlink:href="#DejaVuSansMono-31"/>
       <use xlink:href="#DejaVuSansMono-30" transform="translate(60.205078 0)"/>
      </g>
     </g>
    </g>
    <g id="ytick_13">
     <g id="line2d_22">
      <g>
       <use xlink:href="#ma704f13aba" x="601.0403" y="149.19868" style="fill: #1a1a1a; stroke: #1a1a1a"/>
      </g>
     </g>
     <g id="text_24">
      <!-- 20 -->
      <g style="fill: #1a1a1a" transform="translate(586.703738 152.641883) scale(0.09 -0.09)">
       <use xlink:href="#DejaVuSansMono-32"/>
       <use xlink:href="#DejaVuSansMono-30" transform="translate(60.205078 0)"/>
      </g>
     </g>
    </g>
    <g id="ytick_14">
     <g id="line2d_23">
      <g>
       <use xlink:href="#ma704f13aba" x="601.0403" y="113.471248" style="fill: #1a1a1a; stroke: #1a1a1a"/>
      </g>
     </g>
     <g id="text_25">
      <!-- 30 -->
      <g style="fill: #1a1a1a" transform="translate(586.703738 116.914451) scale(0.09 -0.09)">
       <use xlink:href="#DejaVuSansMono-33"/>
       <use xlink:href="#DejaVuSansMono-30" transform="translate(60.205078 0)"/>
      </g>
     </g>
    </g>
    <g id="ytick_15">
     <g id="line2d_24">
      <g>
       <use xlink:href="#ma704f13aba" x="601.0403" y="77.743815" style="fill: #1a1a1a; stroke: #1a1a1a"/>
      </g>
     </g>
     <g id="text_26">
      <!-- 40 -->
      <g style="fill: #1a1a1a" transform="translate(586.703738 81.187019) scale(0.09 -0.09)">
       <use xlink:href="#DejaVuSansMono-34"/>
       <use xlink:href="#DejaVuSansMono-30" transform="translate(60.205078 0)"/>
      </g>
     </g>
    </g>
    <g id="ytick_16">
     <g id="line2d_25">
      <g>
       <use xlink:href="#ma704f13aba" x="601.0403" y="42.016383" style="fill: #1a1a1a; stroke: #1a1a1a"/>
      </g>
     </g>
     <g id="text_27">
      <!-- 50 -->
      <g style="fill: #1a1a1a" transform="translate(586.703738 45.459586) scale(0.09 -0.09)">
       <defs>
        <path id="DejaVuSansMono-35" d="M 647 4666 
L 3009 4666 
L 3009 4134 
L 1222 4134 
L 1222 2988 
Q 1356 3038 1492 3061 
Q 1628 3084 1766 3084 
Q 2491 3084 2916 2656 
Q 3341 2228 3341 1497 
Q 3341 759 2895 334 
Q 2450 -91 1678 -91 
Q 1306 -91 998 -41 
Q 691 9 447 109 
L 447 750 
Q 734 594 1025 517 
Q 1316 441 1619 441 
Q 2141 441 2423 716 
Q 2706 991 2706 1497 
Q 2706 1997 2414 2275 
Q 2122 2553 1600 2553 
Q 1347 2553 1106 2495 
Q 866 2438 647 2322 
L 647 4666 
z
" transform="scale(0.015625)"/>
       </defs>
       <use xlink:href="#DejaVuSansMono-35"/>
       <use xlink:href="#DejaVuSansMono-30" transform="translate(60.205078 0)"/>
      </g>
     </g>
    </g>
    <g id="text_28">
     <!-- best test accuracy (%) -->
     <g style="fill: #1a1a1a" transform="translate(580.62405 180.15021) rotate(-90) scale(0.1 -0.1)">
      <defs>
       <path id="DejaVuSansMono-75" d="M 609 1325 
L 609 3494 
L 1184 3494 
L 1184 1325 
Q 1184 853 1351 631 
Q 1519 409 1869 409 
Q 2275 409 2490 695 
Q 2706 981 2706 1516 
L 2706 3494 
L 3284 3494 
L 3284 0 
L 2706 0 
L 2706 525 
Q 2553 222 2289 65 
Q 2025 -91 1672 -91 
Q 1134 -91 871 261 
Q 609 613 609 1325 
z
" transform="scale(0.015625)"/>
      </defs>
      <use xlink:href="#DejaVuSansMono-62"/>
      <use xlink:href="#DejaVuSansMono-65" transform="translate(60.205078 0)"/>
      <use xlink:href="#DejaVuSansMono-73" transform="translate(120.410156 0)"/>
      <use xlink:href="#DejaVuSansMono-74" transform="translate(180.615234 0)"/>
      <use xlink:href="#DejaVuSansMono-20" transform="translate(240.820312 0)"/>
      <use xlink:href="#DejaVuSansMono-74" transform="translate(301.025391 0)"/>
      <use xlink:href="#DejaVuSansMono-65" transform="translate(361.230469 0)"/>
      <use xlink:href="#DejaVuSansMono-73" transform="translate(421.435547 0)"/>
      <use xlink:href="#DejaVuSansMono-74" transform="translate(481.640625 0)"/>
      <use xlink:href="#DejaVuSansMono-20" transform="translate(541.845703 0)"/>
      <use xlink:href="#DejaVuSansMono-61" transform="translate(602.050781 0)"/>
      <use xlink:href="#DejaVuSansMono-63" transform="translate(662.255859 0)"/>
      <use xlink:href="#DejaVuSansMono-63" transform="translate(722.460938 0)"/>
      <use xlink:href="#DejaVuSansMono-75" transform="translate(782.666016 0)"/>
      <use xlink:href="#DejaVuSansMono-72" transform="translate(842.871094 0)"/>
      <use xlink:href="#DejaVuSansMono-61" transform="translate(903.076172 0)"/>
      <use xlink:href="#DejaVuSansMono-63" transform="translate(963.28125 0)"/>
      <use xlink:href="#DejaVuSansMono-79" transform="translate(1023.486328 0)"/>
      <use xlink:href="#DejaVuSansMono-20" transform="translate(1083.691406 0)"/>
      <use xlink:href="#DejaVuSansMono-28" transform="translate(1143.896484 0)"/>
      <use xlink:href="#DejaVuSansMono-25" transform="translate(1204.101562 0)"/>
      <use xlink:href="#DejaVuSansMono-29" transform="translate(1264.306641 0)"/>
     </g>
    </g>
   </g>
   <g id="patch_15">
    <path d="M 610.524658 220.653545 
L 654.298615 220.653545 
L 654.298615 17.721729 
L 610.524658 17.721729 
z
" clip-path="url(#p53173c7994)" style="fill: #c8102e; stroke: #1a1a1a; stroke-linejoin: miter"/>
   </g>
   <g id="patch_16">
    <path d="M 683.481253 220.653545 
L 727.255211 220.653545 
L 727.255211 17.364455 
L 683.481253 17.364455 
z
" clip-path="url(#p53173c7994)" style="fill: #1a1a1a; stroke: #1a1a1a; stroke-linejoin: miter"/>
   </g>
   <g id="patch_17">
    <path d="M 756.437849 220.653545 
L 800.211807 220.653545 
L 800.211807 18.079003 
L 756.437849 18.079003 
z
" clip-path="url(#p53173c7994)" style="fill: #1a1a1a; stroke: #1a1a1a; stroke-linejoin: miter"/>
   </g>
   <g id="line2d_26">
    <path d="M 601.0403 202.789829 
L 809.696164 202.789829 
" clip-path="url(#p53173c7994)" style="fill: none; stroke-dasharray: 3.7,1.6; stroke-dashoffset: 0; stroke: #6a6a6a"/>
   </g>
   <g id="patch_18">
    <path d="M 601.0403 220.653545 
L 601.0403 7.2 
" style="fill: none; stroke: #1a1a1a; stroke-width: 1.4; stroke-linejoin: miter; stroke-linecap: square"/>
   </g>
   <g id="patch_19">
    <path d="M 601.0403 220.653545 
L 809.696164 220.653545 
" style="fill: none; stroke: #1a1a1a; stroke-width: 1.4; stroke-linejoin: miter; stroke-linecap: square"/>
   </g>
  </g>
 </g>
 <defs>
  <clipPath id="pe266b1df75">
   <rect x="56.6003" y="7.2" width="208.655864" height="213.453545"/>
  </clipPath>
  <clipPath id="p7f0ac6dd98">
   <rect x="328.8203" y="7.2" width="208.655864" height="213.453545"/>
  </clipPath>
  <clipPath id="p53173c7994">
   <rect x="601.0403" y="7.2" width="208.655864" height="213.453545"/>
  </clipPath>
 </defs>
</svg>
