<?xml version="1.0" encoding="utf-8" standalone="no"?>
<!DOCTYPE svg PUBLIC "-//W3C//DTD SVG 1.1//EN"
  "http://www.w3.org/Graphics/SVG/1.1/DTD/svg11.dtd">
<svg xmlns:xlink="http://www.w3.org/1999/xlink" width="567.760054pt" height="318.78pt" viewBox="0 0 567.760054 318.78" xmlns="http://www.w3.org/2000/svg" version="1.1">
 <metadata>
  <rdf:RDF xmlns:dc="http://purl.org/dc/elements/1.1/" xmlns:cc="http://creativecommons.org/ns#" xmlns:rdf="http://www.w3.org/1999/02/22-rdf-syntax-ns#">
   <cc:Work>
    <dc:type rdf:resource="http://purl.org/dc/dcmitype/StillImage"/>
    <dc:date>2026-07-02T12:18:16.727351</dc:date>
    <dc:format>image/svg+xml</dc:format>
    <dc:creator>
     <cc:Agent>
      <dc:title>Matplotlib v3.10.8, https://matplotlib.org/</dc:title>
     </cc:Agent>
    </dc:creator>
   </cc:Work>
  </rdf:RDF>
 </metadata>
 <defs>
  <style type="text/css">*{stroke-linejoin: round; stroke-linecap: butt}</style>
 </defs>
 <g id="figure_1">
  <g id="patch_1">
   <path d="M 0 318.78 
L 567.760054 318.78 
L 567.760054 0 
L 0 0 
z
" style="fill: #ffffff"/>
  </g>
  <g id="axes_1">
   <g id="patch_2">
    <path d="M 31.3675 287.376 
L 560.560054 287.376 
L 560.560054 20.88 
L 31.3675 20.88 
z
" style="fill: #ffffff"/>
   </g>
   <g id="matplotlib.axis_1">
    <g id="xtick_1">
     <g id="line2d_1">
      <path d="M 55.421707 287.376 
L 55.421707 20.88 
" clip-path="url(#p2bd53405da)" style="fill: none; stroke: #1a1a1a; stroke-opacity: 0.15; stroke-width: 0.4; stroke-linejoin: miter"/>
     </g>
     <g id="line2d_2">
      <defs>
       <path id="m0b55e78716" d="M 0 0 
L 0 -3 
" style="stroke: #1a1a1a; stroke-width: 0.8"/>
      </defs>
      <g>
       <use xlink:href="#m0b55e78716" x="55.421707" y="287.376" style="fill: #1a1a1a; stroke: #1a1a1a; stroke-width: 0.8"/>
      </g>
     </g>
     <g id="text_1">
      <!-- $\mathdefault{10^{0}}$ -->
      <g style="fill: #1a1a1a" transform="translate(49.576707 296.214594) scale(0.07 -0.07)">
       <defs>
        <path id="Menlo-Regular-31" d="M 844 528 
L 1825 528 
L 1825 4053 
L 650 3488 
L 650 4094 
L 1819 4650 
L 2450 4650 
L 2450 528 
L 3419 528 
L 3419 0 
L 844 0 
L 844 528 
z
" transform="scale(0.015625)"/>
        <path id="Menlo-Regular-30" d="M 1925 4734 
Q 2672 4734 3055 4125 
Q 3438 3516 3438 2322 
Q 3438 1128 3055 518 
Q 2672 -91 1925 -91 
Q 1178 -91 797 518 
Q 416 1128 416 2322 
Q 416 3516 797 4125 
Q 1178 4734 1925 4734 
z
M 1925 409 
Q 2369 409 2586 881 
Q 2803 1353 2803 2322 
Q 2803 2838 2741 3253 
L 1253 925 
Q 1488 409 1925 409 
z
M 1925 4234 
Q 1484 4234 1267 3762 
Q 1050 3291 1050 2322 
Q 1050 1881 1109 1497 
L 2566 3819 
Q 2328 4234 1925 4234 
z
" transform="scale(0.015625)"/>
       </defs>
       <use xlink:href="#Menlo-Regular-31" transform="translate(0 0.940625)"/>
       <use xlink:href="#Menlo-Regular-30" transform="translate(60.205078 0.940625)"/>
       <use xlink:href="#Menlo-Regular-30" transform="translate(121.367188 39.221875) scale(0.7)"/>
      </g>
     </g>
    </g>
    <g id="xtick_2">
     <g id="line2d_3">
      <path d="M 215.783087 287.376 
L 215.783087 20.88 
" clip-path="url(#p2bd53405da)" style="fill: none; stroke: #1a1a1a; stroke-opacity: 0.15; stroke-width: 0.4; stroke-linejoin: miter"/>
     </g>
     <g id="line2d_4">
      <g>
       <use xlink:href="#m0b55e78716" x="215.783087" y="287.376" style="fill: #1a1a1a; stroke: #1a1a1a; stroke-width: 0.8"/>
      </g>
     </g>
     <g id="text_2">
      <!-- $\mathdefault{10^{1}}$ -->
      <g style="fill: #1a1a1a" transform="translate(209.938087 296.214594) scale(0.07 -0.07)">
       <use xlink:href="#Menlo-Regular-31" transform="translate(0 0.859375)"/>
       <use xlink:href="#Menlo-Regular-30" transform="translate(60.205078 0.859375)"/>
       <use xlink:href="#Menlo-Regular-31" transform="translate(121.367188 39.140625) scale(0.7)"/>
      </g>
     </g>
    </g>
    <g id="xtick_3">
     <g id="line2d_5">
      <path d="M 376.144467 287.376 
L 376.144467 20.88 
" clip-path="url(#p2bd53405da)" style="fill: none; stroke: #1a1a1a; stroke-opacity: 0.15; stroke-width: 0.4; stroke-linejoin: miter"/>
     </g>
     <g id="line2d_6">
      <g>
       <use xlink:href="#m0b55e78716" x="376.144467" y="287.376" style="fill: #1a1a1a; stroke: #1a1a1a; stroke-width: 0.8"/>
      </g>
     </g>
     <g id="text_3">
      <!-- $\mathdefault{10^{2}}$ -->
      <g style="fill: #1a1a1a" transform="translate(370.299467 296.214594) scale(0.07 -0.07)">
       <defs>
        <path id="Menlo-Regular-32" d="M 1166 531 
L 3309 531 
L 3309 0 
L 475 0 
L 475 531 
Q 1059 1147 1496 1619 
Q 1934 2091 2100 2284 
Q 2413 2666 2522 2902 
Q 2631 3138 2631 3384 
Q 2631 3775 2401 3997 
Q 2172 4219 1772 4219 
Q 1488 4219 1175 4116 
Q 863 4013 513 3803 
L 513 4441 
Q 834 4594 1145 4672 
Q 1456 4750 1759 4750 
Q 2444 4750 2861 4386 
Q 3278 4022 3278 3431 
Q 3278 3131 3139 2831 
Q 3000 2531 2688 2169 
Q 2513 1966 2180 1606 
Q 1847 1247 1166 531 
z
" transform="scale(0.015625)"/>
       </defs>
       <use xlink:href="#Menlo-Regular-31" transform="translate(0 0.765625)"/>
       <use xlink:href="#Menlo-Regular-30" transform="translate(60.205078 0.765625)"/>
       <use xlink:href="#Menlo-Regular-32" transform="translate(121.367188 39.046875) scale(0.7)"/>
      </g>
     </g>
    </g>
    <g id="xtick_4">
     <g id="line2d_7">
      <path d="M 536.505847 287.376 
L 536.505847 20.88 
" clip-path="url(#p2bd53405da)" style="fill: none; stroke: #1a1a1a; stroke-opacity: 0.15; stroke-width: 0.4; stroke-linejoin: miter"/>
     </g>
     <g id="line2d_8">
      <g>
       <use xlink:href="#m0b55e78716" x="536.505847" y="287.376" style="fill: #1a1a1a; stroke: #1a1a1a; stroke-width: 0.8"/>
      </g>
     </g>
     <g id="text_4">
      <!-- $\mathdefault{10^{3}}$ -->
      <g style="fill: #1a1a1a" transform="translate(530.660847 296.214594) scale(0.07 -0.07)">
       <defs>
        <path id="Menlo-Regular-33" d="M 2425 2497 
Q 2884 2375 3128 2064 
Q 3372 1753 3372 1288 
Q 3372 644 2939 276 
Q 2506 -91 1741 -91 
Q 1419 -91 1084 -31 
Q 750 28 428 141 
L 428 769 
Q 747 603 1056 522 
Q 1366 441 1672 441 
Q 2191 441 2469 675 
Q 2747 909 2747 1350 
Q 2747 1756 2469 1995 
Q 2191 2234 1716 2234 
L 1234 2234 
L 1234 2753 
L 1716 2753 
Q 2150 2753 2394 2943 
Q 2638 3134 2638 3475 
Q 2638 3834 2411 4026 
Q 2184 4219 1766 4219 
Q 1488 4219 1191 4156 
Q 894 4094 569 3969 
L 569 4550 
Q 947 4650 1242 4700 
Q 1538 4750 1766 4750 
Q 2447 4750 2855 4408 
Q 3263 4066 3263 3500 
Q 3263 3116 3048 2859 
Q 2834 2603 2425 2497 
z
" transform="scale(0.015625)"/>
       </defs>
       <use xlink:href="#Menlo-Regular-31" transform="translate(0 0.765625)"/>
       <use xlink:href="#Menlo-Regular-30" transform="translate(60.205078 0.765625)"/>
       <use xlink:href="#Menlo-Regular-33" transform="translate(121.367188 39.046875) scale(0.7)"/>
      </g>
     </g>
    </g>
    <g id="xtick_5">
     <g id="line2d_9">
      <defs>
       <path id="m96942c1636" d="M 0 0 
L 0 -2 
" style="stroke: #1a1a1a; stroke-width: 0.6"/>
      </defs>
      <g>
       <use xlink:href="#m96942c1636" x="39.881084" y="287.376" style="fill: #1a1a1a; stroke: #1a1a1a; stroke-width: 0.6"/>
      </g>
     </g>
    </g>
    <g id="xtick_6">
     <g id="line2d_10">
      <g>
       <use xlink:href="#m96942c1636" x="48.083973" y="287.376" style="fill: #1a1a1a; stroke: #1a1a1a; stroke-width: 0.6"/>
      </g>
     </g>
    </g>
    <g id="xtick_7">
     <g id="line2d_11">
      <g>
       <use xlink:href="#m96942c1636" x="103.695293" y="287.376" style="fill: #1a1a1a; stroke: #1a1a1a; stroke-width: 0.6"/>
      </g>
     </g>
    </g>
    <g id="xtick_8">
     <g id="line2d_12">
      <g>
       <use xlink:href="#m96942c1636" x="131.93353" y="287.376" style="fill: #1a1a1a; stroke: #1a1a1a; stroke-width: 0.6"/>
      </g>
     </g>
    </g>
    <g id="xtick_9">
     <g id="line2d_13">
      <g>
       <use xlink:href="#m96942c1636" x="151.968878" y="287.376" style="fill: #1a1a1a; stroke: #1a1a1a; stroke-width: 0.6"/>
      </g>
     </g>
    </g>
    <g id="xtick_10">
     <g id="line2d_14">
      <g>
       <use xlink:href="#m96942c1636" x="167.509502" y="287.376" style="fill: #1a1a1a; stroke: #1a1a1a; stroke-width: 0.6"/>
      </g>
     </g>
    </g>
    <g id="xtick_11">
     <g id="line2d_15">
      <g>
       <use xlink:href="#m96942c1636" x="180.207115" y="287.376" style="fill: #1a1a1a; stroke: #1a1a1a; stroke-width: 0.6"/>
      </g>
     </g>
    </g>
    <g id="xtick_12">
     <g id="line2d_16">
      <g>
       <use xlink:href="#m96942c1636" x="190.942795" y="287.376" style="fill: #1a1a1a; stroke: #1a1a1a; stroke-width: 0.6"/>
      </g>
     </g>
    </g>
    <g id="xtick_13">
     <g id="line2d_17">
      <g>
       <use xlink:href="#m96942c1636" x="200.242464" y="287.376" style="fill: #1a1a1a; stroke: #1a1a1a; stroke-width: 0.6"/>
      </g>
     </g>
    </g>
    <g id="xtick_14">
     <g id="line2d_18">
      <g>
       <use xlink:href="#m96942c1636" x="208.445353" y="287.376" style="fill: #1a1a1a; stroke: #1a1a1a; stroke-width: 0.6"/>
      </g>
     </g>
    </g>
    <g id="xtick_15">
     <g id="line2d_19">
      <g>
       <use xlink:href="#m96942c1636" x="264.056673" y="287.376" style="fill: #1a1a1a; stroke: #1a1a1a; stroke-width: 0.6"/>
      </g>
     </g>
    </g>
    <g id="xtick_16">
     <g id="line2d_20">
      <g>
       <use xlink:href="#m96942c1636" x="292.29491" y="287.376" style="fill: #1a1a1a; stroke: #1a1a1a; stroke-width: 0.6"/>
      </g>
     </g>
    </g>
    <g id="xtick_17">
     <g id="line2d_21">
      <g>
       <use xlink:href="#m96942c1636" x="312.330258" y="287.376" style="fill: #1a1a1a; stroke: #1a1a1a; stroke-width: 0.6"/>
      </g>
     </g>
    </g>
    <g id="xtick_18">
     <g id="line2d_22">
      <g>
       <use xlink:href="#m96942c1636" x="327.870882" y="287.376" style="fill: #1a1a1a; stroke: #1a1a1a; stroke-width: 0.6"/>
      </g>
     </g>
    </g>
    <g id="xtick_19">
     <g id="line2d_23">
      <g>
       <use xlink:href="#m96942c1636" x="340.568496" y="287.376" style="fill: #1a1a1a; stroke: #1a1a1a; stroke-width: 0.6"/>
      </g>
     </g>
    </g>
    <g id="xtick_20">
     <g id="line2d_24">
      <g>
       <use xlink:href="#m96942c1636" x="351.304175" y="287.376" style="fill: #1a1a1a; stroke: #1a1a1a; stroke-width: 0.6"/>
      </g>
     </g>
    </g>
    <g id="xtick_21">
     <g id="line2d_25">
      <g>
       <use xlink:href="#m96942c1636" x="360.603844" y="287.376" style="fill: #1a1a1a; stroke: #1a1a1a; stroke-width: 0.6"/>
      </g>
     </g>
    </g>
    <g id="xtick_22">
     <g id="line2d_26">
      <g>
       <use xlink:href="#m96942c1636" x="368.806733" y="287.376" style="fill: #1a1a1a; stroke: #1a1a1a; stroke-width: 0.6"/>
      </g>
     </g>
    </g>
    <g id="xtick_23">
     <g id="line2d_27">
      <g>
       <use xlink:href="#m96942c1636" x="424.418053" y="287.376" style="fill: #1a1a1a; stroke: #1a1a1a; stroke-width: 0.6"/>
      </g>
     </g>
    </g>
    <g id="xtick_24">
     <g id="line2d_28">
      <g>
       <use xlink:href="#m96942c1636" x="452.65629" y="287.376" style="fill: #1a1a1a; stroke: #1a1a1a; stroke-width: 0.6"/>
      </g>
     </g>
    </g>
    <g id="xtick_25">
     <g id="line2d_29">
      <g>
       <use xlink:href="#m96942c1636" x="472.691638" y="287.376" style="fill: #1a1a1a; stroke: #1a1a1a; stroke-width: 0.6"/>
      </g>
     </g>
    </g>
    <g id="xtick_26">
     <g id="line2d_30">
      <g>
       <use xlink:href="#m96942c1636" x="488.232262" y="287.376" style="fill: #1a1a1a; stroke: #1a1a1a; stroke-width: 0.6"/>
      </g>
     </g>
    </g>
    <g id="xtick_27">
     <g id="line2d_31">
      <g>
       <use xlink:href="#m96942c1636" x="500.929876" y="287.376" style="fill: #1a1a1a; stroke: #1a1a1a; stroke-width: 0.6"/>
      </g>
     </g>
    </g>
    <g id="xtick_28">
     <g id="line2d_32">
      <g>
       <use xlink:href="#m96942c1636" x="511.665555" y="287.376" style="fill: #1a1a1a; stroke: #1a1a1a; stroke-width: 0.6"/>
      </g>
     </g>
    </g>
    <g id="xtick_29">
     <g id="line2d_33">
      <g>
       <use xlink:href="#m96942c1636" x="520.965224" y="287.376" style="fill: #1a1a1a; stroke: #1a1a1a; stroke-width: 0.6"/>
      </g>
     </g>
    </g>
    <g id="xtick_30">
     <g id="line2d_34">
      <g>
       <use xlink:href="#m96942c1636" x="529.168113" y="287.376" style="fill: #1a1a1a; stroke: #1a1a1a; stroke-width: 0.6"/>
      </g>
     </g>
    </g>
    <g id="text_5">
     <!-- Gradient dampening (- -v-grad-dampen) -->
     <g style="fill: #1a1a1a" transform="translate(209.271277 308.131625) scale(0.08 -0.08)">
      <defs>
       <path id="Menlo-Regular-47" d="M 3450 384 
Q 3197 150 2880 29 
Q 2563 -91 2194 -91 
Q 1306 -91 812 545 
Q 319 1181 319 2328 
Q 319 3472 819 4111 
Q 1319 4750 2209 4750 
Q 2503 4750 2772 4667 
Q 3041 4584 3291 4416 
L 3291 3769 
Q 3038 4009 2772 4123 
Q 2506 4238 2209 4238 
Q 1594 4238 1286 3761 
Q 978 3284 978 2328 
Q 978 1356 1276 889 
Q 1575 422 2194 422 
Q 2403 422 2561 470 
Q 2719 519 2847 622 
L 2847 1875 
L 2169 1875 
L 2169 2394 
L 3450 2394 
L 3450 384 
z
" transform="scale(0.015625)"/>
       <path id="Menlo-Regular-72" d="M 3609 2778 
Q 3425 2922 3234 2987 
Q 3044 3053 2816 3053 
Q 2278 3053 1993 2715 
Q 1709 2378 1709 1741 
L 1709 0 
L 1131 0 
L 1131 3500 
L 1709 3500 
L 1709 2816 
Q 1853 3188 2151 3386 
Q 2450 3584 2859 3584 
Q 3072 3584 3256 3531 
Q 3441 3478 3609 3366 
L 3609 2778 
z
" transform="scale(0.015625)"/>
       <path id="Menlo-Regular-61" d="M 2194 1759 
L 2003 1759 
Q 1500 1759 1245 1582 
Q 991 1406 991 1056 
Q 991 741 1181 566 
Q 1372 391 1709 391 
Q 2184 391 2456 720 
Q 2728 1050 2731 1631 
L 2731 1759 
L 2194 1759 
z
M 3309 1997 
L 3309 0 
L 2731 0 
L 2731 519 
Q 2547 206 2267 57 
Q 1988 -91 1588 -91 
Q 1053 -91 734 211 
Q 416 513 416 1019 
Q 416 1603 808 1906 
Q 1200 2209 1959 2209 
L 2731 2209 
L 2731 2300 
Q 2728 2719 2518 2908 
Q 2309 3097 1850 3097 
Q 1556 3097 1256 3012 
Q 956 2928 672 2766 
L 672 3341 
Q 991 3463 1283 3523 
Q 1575 3584 1850 3584 
Q 2284 3584 2592 3456 
Q 2900 3328 3091 3072 
Q 3209 2916 3259 2686 
Q 3309 2456 3309 1997 
z
" transform="scale(0.015625)"/>
       <path id="Menlo-Regular-64" d="M 2681 3053 
L 2681 4863 
L 3256 4863 
L 3256 0 
L 2681 0 
L 2681 441 
Q 2538 181 2298 45 
Q 2059 -91 1747 -91 
Q 1113 -91 748 401 
Q 384 894 384 1759 
Q 384 2613 750 3098 
Q 1116 3584 1747 3584 
Q 2063 3584 2303 3448 
Q 2544 3313 2681 3053 
z
M 991 1747 
Q 991 1078 1203 737 
Q 1416 397 1831 397 
Q 2247 397 2464 740 
Q 2681 1084 2681 1747 
Q 2681 2413 2464 2755 
Q 2247 3097 1831 3097 
Q 1416 3097 1203 2756 
Q 991 2416 991 1747 
z
" transform="scale(0.015625)"/>
       <path id="Menlo-Regular-69" d="M 988 3488 
L 2459 3488 
L 2459 447 
L 3600 447 
L 3600 0 
L 744 0 
L 744 447 
L 1884 447 
L 1884 3041 
L 988 3041 
L 988 3488 
z
M 1884 4847 
L 2459 4847 
L 2459 4122 
L 1884 4122 
L 1884 4847 
z
" transform="scale(0.015625)"/>
       <path id="Menlo-Regular-65" d="M 3500 2038 
L 3500 1756 
L 1009 1756 
L 1009 1738 
Q 984 1022 1282 709 
Q 1581 397 2125 397 
Q 2400 397 2700 484 
Q 3000 572 3341 750 
L 3341 178 
Q 3013 44 2708 -23 
Q 2403 -91 2119 -91 
Q 1303 -91 843 398 
Q 384 888 384 1747 
Q 384 2584 834 3084 
Q 1284 3584 2034 3584 
Q 2703 3584 3089 3131 
Q 3475 2678 3500 2038 
z
M 2925 2206 
Q 2888 2569 2661 2833 
Q 2434 3097 2009 3097 
Q 1594 3097 1325 2822 
Q 1056 2547 1031 2203 
L 2925 2206 
z
" transform="scale(0.015625)"/>
       <path id="Menlo-Regular-6e" d="M 3284 2169 
L 3284 0 
L 2706 0 
L 2706 2169 
Q 2706 2641 2540 2862 
Q 2375 3084 2022 3084 
Q 1619 3084 1401 2798 
Q 1184 2513 1184 1978 
L 1184 0 
L 609 0 
L 609 3500 
L 1184 3500 
L 1184 2975 
Q 1338 3275 1600 3429 
Q 1863 3584 2222 3584 
Q 2756 3584 3020 3232 
Q 3284 2881 3284 2169 
z
" transform="scale(0.015625)"/>
       <path id="Menlo-Regular-74" d="M 1919 4494 
L 1919 3500 
L 3225 3500 
L 3225 3053 
L 1919 3053 
L 1919 1153 
Q 1919 766 2066 612 
Q 2213 459 2578 459 
L 3225 459 
L 3225 0 
L 2522 0 
Q 1875 0 1609 259 
Q 1344 519 1344 1153 
L 1344 3053 
L 409 3053 
L 409 3500 
L 1344 3500 
L 1344 4494 
L 1919 4494 
z
" transform="scale(0.015625)"/>
       <path id="Menlo-Regular-20" transform="scale(0.015625)"/>
       <path id="Menlo-Regular-6d" d="M 2113 3144 
Q 2219 3369 2383 3476 
Q 2547 3584 2778 3584 
Q 3200 3584 3373 3257 
Q 3547 2931 3547 2028 
L 3547 0 
L 3022 0 
L 3022 2003 
Q 3022 2744 2939 2923 
Q 2856 3103 2638 3103 
Q 2388 3103 2295 2911 
Q 2203 2719 2203 2003 
L 2203 0 
L 1678 0 
L 1678 2003 
Q 1678 2753 1589 2928 
Q 1500 3103 1269 3103 
Q 1041 3103 952 2911 
Q 863 2719 863 2003 
L 863 0 
L 341 0 
L 341 3500 
L 863 3500 
L 863 3200 
Q 966 3388 1120 3486 
Q 1275 3584 1472 3584 
Q 1709 3584 1867 3475 
Q 2025 3366 2113 3144 
z
" transform="scale(0.015625)"/>
       <path id="Menlo-Regular-70" d="M 1172 441 
L 1172 -1331 
L 594 -1331 
L 594 3500 
L 1172 3500 
L 1172 3053 
Q 1316 3313 1555 3448 
Q 1794 3584 2106 3584 
Q 2741 3584 3102 3093 
Q 3463 2603 3463 1734 
Q 3463 881 3100 395 
Q 2738 -91 2106 -91 
Q 1788 -91 1548 45 
Q 1309 181 1172 441 
z
M 2859 1747 
Q 2859 2416 2648 2756 
Q 2438 3097 2022 3097 
Q 1603 3097 1387 2755 
Q 1172 2413 1172 1747 
Q 1172 1084 1387 740 
Q 1603 397 2022 397 
Q 2438 397 2648 737 
Q 2859 1078 2859 1747 
z
" transform="scale(0.015625)"/>
       <path id="Menlo-Regular-67" d="M 2681 1778 
Q 2681 2425 2470 2761 
Q 2259 3097 1856 3097 
Q 1434 3097 1212 2761 
Q 991 2425 991 1778 
Q 991 1131 1214 792 
Q 1438 453 1863 453 
Q 2259 453 2470 793 
Q 2681 1134 2681 1778 
z
M 3256 225 
Q 3256 -563 2884 -969 
Q 2513 -1375 1791 -1375 
Q 1553 -1375 1293 -1331 
Q 1034 -1288 775 -1203 
L 775 -634 
Q 1081 -778 1331 -847 
Q 1581 -916 1791 -916 
Q 2256 -916 2468 -662 
Q 2681 -409 2681 141 
L 2681 166 
L 2681 556 
Q 2544 263 2306 119 
Q 2069 -25 1728 -25 
Q 1116 -25 750 465 
Q 384 956 384 1778 
Q 384 2603 750 3093 
Q 1116 3584 1728 3584 
Q 2066 3584 2300 3450 
Q 2534 3316 2681 3034 
L 2681 3488 
L 3256 3488 
L 3256 225 
z
" transform="scale(0.015625)"/>
       <path id="Menlo-Regular-28" d="M 2672 5169 
Q 2256 4456 2051 3748 
Q 1847 3041 1847 2322 
Q 1847 1606 2051 897 
Q 2256 188 2672 -531 
L 2172 -531 
Q 1700 213 1469 917 
Q 1238 1622 1238 2322 
Q 1238 3019 1469 3725 
Q 1700 4431 2172 5169 
L 2672 5169 
z
" transform="scale(0.015625)"/>
       <path id="Menlo-Regular-2d" d="M 319 2263 
L 3631 2263 
L 3631 1734 
L 319 1734 
L 319 2263 
z
" transform="scale(0.015625)"/>
       <path id="Menlo-Regular-76" d="M 313 3500 
L 909 3500 
L 1925 563 
L 2944 3500 
L 3541 3500 
L 2297 0 
L 1556 0 
L 313 3500 
z
" transform="scale(0.015625)"/>
       <path id="Menlo-Regular-29" d="M 1088 5169 
L 1588 5169 
Q 2059 4431 2290 3725 
Q 2522 3019 2522 2322 
Q 2522 1619 2290 912 
Q 2059 206 1588 -531 
L 1088 -531 
Q 1503 194 1708 903 
Q 1913 1613 1913 2322 
Q 1913 3034 1708 3743 
Q 1503 4453 1088 5169 
z
" transform="scale(0.015625)"/>
      </defs>
      <use xlink:href="#Menlo-Regular-47"/>
      <use xlink:href="#Menlo-Regular-72" transform="translate(60.205078 0)"/>
      <use xlink:href="#Menlo-Regular-61" transform="translate(120.410156 0)"/>
      <use xlink:href="#Menlo-Regular-64" transform="translate(180.615234 0)"/>
      <use xlink:href="#Menlo-Regular-69" transform="translate(240.820312 0)"/>
      <use xlink:href="#Menlo-Regular-65" transform="translate(301.025391 0)"/>
      <use xlink:href="#Menlo-Regular-6e" transform="translate(361.230469 0)"/>
      <use xlink:href="#Menlo-Regular-74" transform="translate(421.435547 0)"/>
      <use xlink:href="#Menlo-Regular-20" transform="translate(481.640625 0)"/>
      <use xlink:href="#Menlo-Regular-64" transform="translate(541.845703 0)"/>
      <use xlink:href="#Menlo-Regular-61" transform="translate(602.050781 0)"/>
      <use xlink:href="#Menlo-Regular-6d" transform="translate(662.255859 0)"/>
      <use xlink:href="#Menlo-Regular-70" transform="translate(722.460938 0)"/>
      <use xlink:href="#Menlo-Regular-65" transform="translate(782.666016 0)"/>
      <use xlink:href="#Menlo-Regular-6e" transform="translate(842.871094 0)"/>
      <use xlink:href="#Menlo-Regular-69" transform="translate(903.076172 0)"/>
      <use xlink:href="#Menlo-Regular-6e" transform="translate(963.28125 0)"/>
      <use xlink:href="#Menlo-Regular-67" transform="translate(1023.486328 0)"/>
      <use xlink:href="#Menlo-Regular-20" transform="translate(1083.691406 0)"/>
      <use xlink:href="#Menlo-Regular-28" transform="translate(1143.896484 0)"/>
      <use xlink:href="#Menlo-Regular-2d" transform="translate(1204.101562 0)"/>
      <use xlink:href="#Menlo-Regular-2d" transform="translate(1264.306641 0)"/>
      <use xlink:href="#Menlo-Regular-76" transform="translate(1324.511719 0)"/>
      <use xlink:href="#Menlo-Regular-2d" transform="translate(1384.716797 0)"/>
      <use xlink:href="#Menlo-Regular-67" transform="translate(1444.921875 0)"/>
      <use xlink:href="#Menlo-Regular-72" transform="translate(1505.126953 0)"/>
      <use xlink:href="#Menlo-Regular-61" transform="translate(1565.332031 0)"/>
      <use xlink:href="#Menlo-Regular-64" transform="translate(1625.537109 0)"/>
      <use xlink:href="#Menlo-Regular-2d" transform="translate(1685.742188 0)"/>
      <use xlink:href="#Menlo-Regular-64" transform="translate(1745.947266 0)"/>
      <use xlink:href="#Menlo-Regular-61" transform="translate(1806.152344 0)"/>
      <use xlink:href="#Menlo-Regular-6d" transform="translate(1866.357422 0)"/>
      <use xlink:href="#Menlo-Regular-70" transform="translate(1926.5625 0)"/>
      <use xlink:href="#Menlo-Regular-65" transform="translate(1986.767578 0)"/>
      <use xlink:href="#Menlo-Regular-6e" transform="translate(2046.972656 0)"/>
      <use xlink:href="#Menlo-Regular-29" transform="translate(2107.177734 0)"/>
     </g>
    </g>
   </g>
   <g id="matplotlib.axis_2">
    <g id="ytick_1">
     <g id="line2d_35">
      <path d="M 31.3675 251.53719 
L 560.560054 251.53719 
" clip-path="url(#p2bd53405da)" style="fill: none; stroke: #1a1a1a; stroke-opacity: 0.15; stroke-width: 0.4; stroke-linejoin: miter"/>
     </g>
     <g id="line2d_36">
      <defs>
       <path id="m2b3879b528" d="M 0 0 
L 3 0 
" style="stroke: #1a1a1a; stroke-width: 0.8"/>
      </defs>
      <g>
       <use xlink:href="#m2b3879b528" x="31.3675" y="251.53719" style="fill: #1a1a1a; stroke: #1a1a1a; stroke-width: 0.8"/>
      </g>
     </g>
     <g id="text_6">
      <!-- $\mathdefault{10^{1}}$ -->
      <g style="fill: #1a1a1a" transform="translate(16.1775 254.206487) scale(0.07 -0.07)">
       <use xlink:href="#Menlo-Regular-31" transform="translate(0 0.859375)"/>
       <use xlink:href="#Menlo-Regular-30" transform="translate(60.205078 0.859375)"/>
       <use xlink:href="#Menlo-Regular-31" transform="translate(121.367188 39.140625) scale(0.7)"/>
      </g>
     </g>
    </g>
    <g id="ytick_2">
     <g id="line2d_37">
      <path d="M 31.3675 209.838689 
L 560.560054 209.838689 
" clip-path="url(#p2bd53405da)" style="fill: none; stroke: #1a1a1a; stroke-opacity: 0.15; stroke-width: 0.4; stroke-linejoin: miter"/>
     </g>
     <g id="line2d_38">
      <g>
       <use xlink:href="#m2b3879b528" x="31.3675" y="209.838689" style="fill: #1a1a1a; stroke: #1a1a1a; stroke-width: 0.8"/>
      </g>
     </g>
     <g id="text_7">
      <!-- $\mathdefault{10^{4}}$ -->
      <g style="fill: #1a1a1a" transform="translate(16.1775 212.507986) scale(0.07 -0.07)">
       <defs>
        <path id="Menlo-Regular-34" d="M 2297 4091 
L 825 1625 
L 2297 1625 
L 2297 4091 
z
M 2194 4666 
L 2925 4666 
L 2925 1625 
L 3547 1625 
L 3547 1113 
L 2925 1113 
L 2925 0 
L 2297 0 
L 2297 1113 
L 319 1113 
L 319 1709 
L 2194 4666 
z
" transform="scale(0.015625)"/>
       </defs>
       <use xlink:href="#Menlo-Regular-31" transform="translate(0 0.684375)"/>
       <use xlink:href="#Menlo-Regular-30" transform="translate(60.205078 0.684375)"/>
       <use xlink:href="#Menlo-Regular-34" transform="translate(121.367188 38.965625) scale(0.7)"/>
      </g>
     </g>
    </g>
    <g id="ytick_3">
     <g id="line2d_39">
      <path d="M 31.3675 168.140188 
L 560.560054 168.140188 
" clip-path="url(#p2bd53405da)" style="fill: none; stroke: #1a1a1a; stroke-opacity: 0.15; stroke-width: 0.4; stroke-linejoin: miter"/>
     </g>
     <g id="line2d_40">
      <g>
       <use xlink:href="#m2b3879b528" x="31.3675" y="168.140188" style="fill: #1a1a1a; stroke: #1a1a1a; stroke-width: 0.8"/>
      </g>
     </g>
     <g id="text_8">
      <!-- $\mathdefault{10^{7}}$ -->
      <g style="fill: #1a1a1a" transform="translate(16.1775 170.809485) scale(0.07 -0.07)">
       <defs>
        <path id="Menlo-Regular-37" d="M 434 4666 
L 3372 4666 
L 3372 4397 
L 1703 0 
L 1044 0 
L 2669 4134 
L 434 4134 
L 434 4666 
z
" transform="scale(0.015625)"/>
       </defs>
       <use xlink:href="#Menlo-Regular-31" transform="translate(0 0.684375)"/>
       <use xlink:href="#Menlo-Regular-30" transform="translate(60.205078 0.684375)"/>
       <use xlink:href="#Menlo-Regular-37" transform="translate(121.367188 38.965625) scale(0.7)"/>
      </g>
     </g>
    </g>
    <g id="ytick_4">
     <g id="line2d_41">
      <path d="M 31.3675 126.441687 
L 560.560054 126.441687 
" clip-path="url(#p2bd53405da)" style="fill: none; stroke: #1a1a1a; stroke-opacity: 0.15; stroke-width: 0.4; stroke-linejoin: miter"/>
     </g>
     <g id="line2d_42">
      <g>
       <use xlink:href="#m2b3879b528" x="31.3675" y="126.441687" style="fill: #1a1a1a; stroke: #1a1a1a; stroke-width: 0.8"/>
      </g>
     </g>
     <g id="text_9">
      <!-- $\mathdefault{10^{10}}$ -->
      <g style="fill: #1a1a1a" transform="translate(13.2375 129.110984) scale(0.07 -0.07)">
       <use xlink:href="#Menlo-Regular-31" transform="translate(0 0.940625)"/>
       <use xlink:href="#Menlo-Regular-30" transform="translate(60.205078 0.940625)"/>
       <use xlink:href="#Menlo-Regular-31" transform="translate(121.367188 39.221875) scale(0.7)"/>
       <use xlink:href="#Menlo-Regular-30" transform="translate(163.510742 39.221875) scale(0.7)"/>
      </g>
     </g>
    </g>
    <g id="ytick_5">
     <g id="line2d_43">
      <path d="M 31.3675 84.743185 
L 560.560054 84.743185 
" clip-path="url(#p2bd53405da)" style="fill: none; stroke: #1a1a1a; stroke-opacity: 0.15; stroke-width: 0.4; stroke-linejoin: miter"/>
     </g>
     <g id="line2d_44">
      <g>
       <use xlink:href="#m2b3879b528" x="31.3675" y="84.743185" style="fill: #1a1a1a; stroke: #1a1a1a; stroke-width: 0.8"/>
      </g>
     </g>
     <g id="text_10">
      <!-- $\mathdefault{10^{13}}$ -->
      <g style="fill: #1a1a1a" transform="translate(13.2375 87.412482) scale(0.07 -0.07)">
       <use xlink:href="#Menlo-Regular-31" transform="translate(0 0.765625)"/>
       <use xlink:href="#Menlo-Regular-30" transform="translate(60.205078 0.765625)"/>
       <use xlink:href="#Menlo-Regular-31" transform="translate(121.367188 39.046875) scale(0.7)"/>
       <use xlink:href="#Menlo-Regular-33" transform="translate(163.510742 39.046875) scale(0.7)"/>
      </g>
     </g>
    </g>
    <g id="ytick_6">
     <g id="line2d_45">
      <path d="M 31.3675 43.044684 
L 560.560054 43.044684 
" clip-path="url(#p2bd53405da)" style="fill: none; stroke: #1a1a1a; stroke-opacity: 0.15; stroke-width: 0.4; stroke-linejoin: miter"/>
     </g>
     <g id="line2d_46">
      <g>
       <use xlink:href="#m2b3879b528" x="31.3675" y="43.044684" style="fill: #1a1a1a; stroke: #1a1a1a; stroke-width: 0.8"/>
      </g>
     </g>
     <g id="text_11">
      <!-- $\mathdefault{10^{16}}$ -->
      <g style="fill: #1a1a1a" transform="translate(13.2375 45.713981) scale(0.07 -0.07)">
       <defs>
        <path id="Menlo-Regular-36" d="M 3097 4563 
L 3097 3981 
Q 2900 4097 2678 4158 
Q 2456 4219 2216 4219 
Q 1616 4219 1306 3767 
Q 997 3316 997 2438 
Q 1147 2750 1412 2917 
Q 1678 3084 2022 3084 
Q 2697 3084 3067 2670 
Q 3438 2256 3438 1497 
Q 3438 741 3056 325 
Q 2675 -91 1984 -91 
Q 1172 -91 794 492 
Q 416 1075 416 2328 
Q 416 3509 870 4129 
Q 1325 4750 2188 4750 
Q 2419 4750 2650 4701 
Q 2881 4653 3097 4563 
z
M 1972 2591 
Q 1569 2591 1337 2300 
Q 1106 2009 1106 1497 
Q 1106 984 1337 693 
Q 1569 403 1972 403 
Q 2391 403 2603 679 
Q 2816 956 2816 1497 
Q 2816 2041 2603 2316 
Q 2391 2591 1972 2591 
z
" transform="scale(0.015625)"/>
       </defs>
       <use xlink:href="#Menlo-Regular-31" transform="translate(0 0.765625)"/>
       <use xlink:href="#Menlo-Regular-30" transform="translate(60.205078 0.765625)"/>
       <use xlink:href="#Menlo-Regular-31" transform="translate(121.367188 39.046875) scale(0.7)"/>
       <use xlink:href="#Menlo-Regular-36" transform="translate(163.510742 39.046875) scale(0.7)"/>
      </g>
     </g>
    </g>
    <g id="text_12">
     <!-- Mean per-epoch gradient norm -->
     <g style="fill: #1a1a1a" transform="translate(7.51875 221.5555) rotate(-90) scale(0.08 -0.08)">
      <defs>
       <path id="Menlo-Regular-4d" d="M 113 4650 
L 956 4650 
L 1763 2281 
L 2575 4650 
L 3422 4650 
L 3422 0 
L 2838 0 
L 2838 4109 
L 2006 1659 
L 1528 1659 
L 694 4109 
L 694 0 
L 113 0 
L 113 4650 
z
" transform="scale(0.015625)"/>
       <path id="Menlo-Regular-6f" d="M 1925 3097 
Q 1488 3097 1263 2756 
Q 1038 2416 1038 1747 
Q 1038 1081 1263 739 
Q 1488 397 1925 397 
Q 2366 397 2591 739 
Q 2816 1081 2816 1747 
Q 2816 2416 2591 2756 
Q 2366 3097 1925 3097 
z
M 1925 3584 
Q 2653 3584 3039 3112 
Q 3425 2641 3425 1747 
Q 3425 850 3040 379 
Q 2656 -91 1925 -91 
Q 1197 -91 812 379 
Q 428 850 428 1747 
Q 428 2641 812 3112 
Q 1197 3584 1925 3584 
z
" transform="scale(0.015625)"/>
       <path id="Menlo-Regular-63" d="M 3316 178 
Q 3084 44 2839 -23 
Q 2594 -91 2338 -91 
Q 1525 -91 1067 396 
Q 609 884 609 1747 
Q 609 2609 1067 3096 
Q 1525 3584 2338 3584 
Q 2591 3584 2831 3518 
Q 3072 3453 3316 3316 
L 3316 2713 
Q 3088 2916 2858 3006 
Q 2628 3097 2338 3097 
Q 1797 3097 1506 2747 
Q 1216 2397 1216 1747 
Q 1216 1100 1508 748 
Q 1800 397 2338 397 
Q 2638 397 2875 489 
Q 3113 581 3316 775 
L 3316 178 
z
" transform="scale(0.015625)"/>
       <path id="Menlo-Regular-68" d="M 3284 2169 
L 3284 0 
L 2706 0 
L 2706 2169 
Q 2706 2641 2540 2862 
Q 2375 3084 2022 3084 
Q 1619 3084 1401 2798 
Q 1184 2513 1184 1978 
L 1184 0 
L 609 0 
L 609 4863 
L 1184 4863 
L 1184 2975 
Q 1338 3275 1600 3429 
Q 1863 3584 2222 3584 
Q 2756 3584 3020 3232 
Q 3284 2881 3284 2169 
z
" transform="scale(0.015625)"/>
      </defs>
      <use xlink:href="#Menlo-Regular-4d"/>
      <use xlink:href="#Menlo-Regular-65" transform="translate(60.205078 0)"/>
      <use xlink:href="#Menlo-Regular-61" transform="translate(120.410156 0)"/>
      <use xlink:href="#Menlo-Regular-6e" transform="translate(180.615234 0)"/>
      <use xlink:href="#Menlo-Regular-20" transform="translate(240.820312 0)"/>
      <use xlink:href="#Menlo-Regular-70" transform="translate(301.025391 0)"/>
      <use xlink:href="#Menlo-Regular-65" transform="translate(361.230469 0)"/>
      <use xlink:href="#Menlo-Regular-72" transform="translate(421.435547 0)"/>
      <use xlink:href="#Menlo-Regular-2d" transform="translate(481.640625 0)"/>
      <use xlink:href="#Menlo-Regular-65" transform="translate(541.845703 0)"/>
      <use xlink:href="#Menlo-Regular-70" transform="translate(602.050781 0)"/>
      <use xlink:href="#Menlo-Regular-6f" transform="translate(662.255859 0)"/>
      <use xlink:href="#Menlo-Regular-63" transform="translate(722.460938 0)"/>
      <use xlink:href="#Menlo-Regular-68" transform="translate(782.666016 0)"/>
      <use xlink:href="#Menlo-Regular-20" transform="translate(842.871094 0)"/>
      <use xlink:href="#Menlo-Regular-67" transform="translate(903.076172 0)"/>
      <use xlink:href="#Menlo-Regular-72" transform="translate(963.28125 0)"/>
      <use xlink:href="#Menlo-Regular-61" transform="translate(1023.486328 0)"/>
      <use xlink:href="#Menlo-Regular-64" transform="translate(1083.691406 0)"/>
      <use xlink:href="#Menlo-Regular-69" transform="translate(1143.896484 0)"/>
      <use xlink:href="#Menlo-Regular-65" transform="translate(1204.101562 0)"/>
      <use xlink:href="#Menlo-Regular-6e" transform="translate(1264.306641 0)"/>
      <use xlink:href="#Menlo-Regular-74" transform="translate(1324.511719 0)"/>
      <use xlink:href="#Menlo-Regular-20" transform="translate(1384.716797 0)"/>
      <use xlink:href="#Menlo-Regular-6e" transform="translate(1444.921875 0)"/>
      <use xlink:href="#Menlo-Regular-6f" transform="translate(1505.126953 0)"/>
      <use xlink:href="#Menlo-Regular-72" transform="translate(1565.332031 0)"/>
      <use xlink:href="#Menlo-Regular-6d" transform="translate(1625.537109 0)"/>
     </g>
    </g>
   </g>
   <g id="LineCollection_1">
    <path d="M 55.421707 240.371238 
L 55.421707 240.371238 
" clip-path="url(#p2bd53405da)" style="fill: none; stroke: #c8102e; stroke-width: 1.4"/>
    <path d="M 215.783087 249.036574 
L 215.783087 249.036574 
" clip-path="url(#p2bd53405da)" style="fill: none; stroke: #c8102e; stroke-width: 1.4"/>
    <path d="M 376.144467 261.836191 
L 376.144467 261.836191 
" clip-path="url(#p2bd53405da)" style="fill: none; stroke: #c8102e; stroke-width: 1.4"/>
    <path d="M 536.505847 275.262545 
L 536.505847 275.262545 
" clip-path="url(#p2bd53405da)" style="fill: none; stroke: #c8102e; stroke-width: 1.4"/>
   </g>
   <g id="line2d_47">
    <defs>
     <path id="m1a3250636e" d="M 3 0 
L -3 -0 
" style="stroke: #c8102e"/>
    </defs>
    <g clip-path="url(#p2bd53405da)">
     <use xlink:href="#m1a3250636e" x="55.421707" y="240.371238" style="fill: #c8102e; stroke: #c8102e"/>
     <use xlink:href="#m1a3250636e" x="215.783087" y="249.036574" style="fill: #c8102e; stroke: #c8102e"/>
     <use xlink:href="#m1a3250636e" x="376.144467" y="261.836191" style="fill: #c8102e; stroke: #c8102e"/>
     <use xlink:href="#m1a3250636e" x="536.505847" y="275.262545" style="fill: #c8102e; stroke: #c8102e"/>
    </g>
   </g>
   <g id="line2d_48">
    <g clip-path="url(#p2bd53405da)">
     <use xlink:href="#m1a3250636e" x="55.421707" y="240.371238" style="fill: #c8102e; stroke: #c8102e"/>
     <use xlink:href="#m1a3250636e" x="215.783087" y="249.036574" style="fill: #c8102e; stroke: #c8102e"/>
     <use xlink:href="#m1a3250636e" x="376.144467" y="261.836191" style="fill: #c8102e; stroke: #c8102e"/>
     <use xlink:href="#m1a3250636e" x="536.505847" y="275.262545" style="fill: #c8102e; stroke: #c8102e"/>
    </g>
   </g>
   <g id="LineCollection_2">
    <path clip-path="url(#p2bd53405da)" style="fill: none; stroke: #1a1a1a; stroke-width: 1.4"/>
    <path clip-path="url(#p2bd53405da)" style="fill: none; stroke: #1a1a1a; stroke-width: 1.4"/>
    <path d="M 376.144467 32.993455 
L 376.144467 32.993455 
" clip-path="url(#p2bd53405da)" style="fill: none; stroke: #1a1a1a; stroke-width: 1.4"/>
    <path d="M 536.505847 266.745848 
L 536.505847 266.745848 
" clip-path="url(#p2bd53405da)" style="fill: none; stroke: #1a1a1a; stroke-width: 1.4"/>
   </g>
   <g id="line2d_49">
    <defs>
     <path id="m9570562937" d="M 3 0 
L -3 -0 
" style="stroke: #1a1a1a"/>
    </defs>
    <g clip-path="url(#p2bd53405da)">
     <use xlink:href="#m9570562937" x="55.421707" y="14164.937098" style="fill: #1a1a1a; stroke: #1a1a1a"/>
     <use xlink:href="#m9570562937" x="215.783087" y="14164.937098" style="fill: #1a1a1a; stroke: #1a1a1a"/>
     <use xlink:href="#m9570562937" x="376.144467" y="32.993455" style="fill: #1a1a1a; stroke: #1a1a1a"/>
     <use xlink:href="#m9570562937" x="536.505847" y="266.745848" style="fill: #1a1a1a; stroke: #1a1a1a"/>
    </g>
   </g>
   <g id="line2d_50">
    <g clip-path="url(#p2bd53405da)">
     <use xlink:href="#m9570562937" x="55.421707" y="14164.937098" style="fill: #1a1a1a; stroke: #1a1a1a"/>
     <use xlink:href="#m9570562937" x="215.783087" y="14164.937098" style="fill: #1a1a1a; stroke: #1a1a1a"/>
     <use xlink:href="#m9570562937" x="376.144467" y="32.993455" style="fill: #1a1a1a; stroke: #1a1a1a"/>
     <use xlink:href="#m9570562937" x="536.505847" y="266.745848" style="fill: #1a1a1a; stroke: #1a1a1a"/>
    </g>
   </g>
   <g id="line2d_51">
    <path d="M 55.421707 240.371238 
L 215.783087 249.036574 
L 376.144467 261.836191 
L 536.505847 275.262545 
" clip-path="url(#p2bd53405da)" style="fill: none; stroke: #c8102e; stroke-width: 1.4; stroke-linejoin: miter"/>
    <defs>
     <path id="m6a9c82e1eb" d="M -3 3 
L 3 3 
L 3 -3 
L -3 -3 
z
" style="stroke: #c8102e; stroke-linejoin: miter"/>
    </defs>
    <g clip-path="url(#p2bd53405da)">
     <use xlink:href="#m6a9c82e1eb" x="55.421707" y="240.371238" style="fill: #c8102e; stroke: #c8102e; stroke-linejoin: miter"/>
     <use xlink:href="#m6a9c82e1eb" x="215.783087" y="249.036574" style="fill: #c8102e; stroke: #c8102e; stroke-linejoin: miter"/>
     <use xlink:href="#m6a9c82e1eb" x="376.144467" y="261.836191" style="fill: #c8102e; stroke: #c8102e; stroke-linejoin: miter"/>
     <use xlink:href="#m6a9c82e1eb" x="536.505847" y="275.262545" style="fill: #c8102e; stroke: #c8102e; stroke-linejoin: miter"/>
    </g>
   </g>
   <g id="line2d_52">
    <path d="M 372.890174 319.78 
L 376.144467 32.993455 
L 536.505847 266.745848 
" clip-path="url(#p2bd53405da)" style="fill: none; stroke: #1a1a1a; stroke-width: 1.4; stroke-linejoin: miter"/>
    <defs>
     <path id="mf6a6e07d93" d="M -0 4.242641 
L 4.242641 0 
L 0 -4.242641 
L -4.242641 -0 
z
" style="stroke: #1a1a1a; stroke-linejoin: miter"/>
    </defs>
    <g clip-path="url(#p2bd53405da)">
     <use xlink:href="#mf6a6e07d93" x="55.421707" y="14164.937098" style="fill: #1a1a1a; stroke: #1a1a1a; stroke-linejoin: miter"/>
     <use xlink:href="#mf6a6e07d93" x="215.783087" y="14164.937098" style="fill: #1a1a1a; stroke: #1a1a1a; stroke-linejoin: miter"/>
     <use xlink:href="#mf6a6e07d93" x="376.144467" y="32.993455" style="fill: #1a1a1a; stroke: #1a1a1a; stroke-linejoin: miter"/>
     <use xlink:href="#mf6a6e07d93" x="536.505847" y="266.745848" style="fill: #1a1a1a; stroke: #1a1a1a; stroke-linejoin: miter"/>
    </g>
   </g>
   <g id="patch_3">
    <path d="M 31.3675 287.376 
L 31.3675 20.88 
" style="fill: none; stroke: #1a1a1a; stroke-width: 0.8; stroke-linejoin: miter; stroke-linecap: square"/>
   </g>
   <g id="patch_4">
    <path d="M 31.3675 287.376 
L 560.560054 287.376 
" style="fill: none; stroke: #1a1a1a; stroke-width: 0.8; stroke-linejoin: miter; stroke-linecap: square"/>
   </g>
   <g id="legend_1">
    <g id="LineCollection_3">
     <path d="M 526.203179 33.568594 
L 526.203179 26.568594 
" style="fill: none; stroke: #c8102e; stroke-width: 1.4"/>
    </g>
    <g id="line2d_53">
     <g>
      <use xlink:href="#m1a3250636e" x="526.203179" y="33.568594" style="fill: #c8102e; stroke: #c8102e"/>
     </g>
    </g>
    <g id="line2d_54">
     <g>
      <use xlink:href="#m1a3250636e" x="526.203179" y="26.568594" style="fill: #c8102e; stroke: #c8102e"/>
     </g>
    </g>
    <g id="line2d_55">
     <path d="M 520.603179 30.068594 
L 531.803179 30.068594 
" style="fill: none; stroke: #c8102e; stroke-width: 1.4; stroke-linejoin: miter"/>
    </g>
    <g id="line2d_56">
     <g>
      <use xlink:href="#m6a9c82e1eb" x="526.203179" y="30.068594" style="fill: #c8102e; stroke: #c8102e; stroke-linejoin: miter"/>
     </g>
    </g>
    <g id="text_13">
     <!-- COBA -->
     <g style="fill: #1a1a1a" transform="translate(537.403179 32.518594) scale(0.07 -0.07)">
      <defs>
       <path id="Menlo-Regular-43" d="M 3353 166 
Q 3113 38 2859 -26 
Q 2606 -91 2322 -91 
Q 1425 -91 929 543 
Q 434 1178 434 2328 
Q 434 3472 932 4111 
Q 1431 4750 2322 4750 
Q 2606 4750 2859 4686 
Q 3113 4622 3353 4494 
L 3353 3847 
Q 3122 4038 2856 4138 
Q 2591 4238 2322 4238 
Q 1706 4238 1400 3763 
Q 1094 3288 1094 2328 
Q 1094 1372 1400 897 
Q 1706 422 2322 422 
Q 2597 422 2861 522 
Q 3125 622 3353 813 
L 3353 166 
z
" transform="scale(0.015625)"/>
       <path id="Menlo-Regular-4f" d="M 2828 2328 
Q 2828 3356 2617 3797 
Q 2406 4238 1925 4238 
Q 1447 4238 1236 3797 
Q 1025 3356 1025 2328 
Q 1025 1303 1236 862 
Q 1447 422 1925 422 
Q 2406 422 2617 861 
Q 2828 1300 2828 2328 
z
M 3488 2328 
Q 3488 1109 3102 509 
Q 2716 -91 1925 -91 
Q 1134 -91 750 506 
Q 366 1103 366 2328 
Q 366 3550 752 4150 
Q 1138 4750 1925 4750 
Q 2716 4750 3102 4150 
Q 3488 3550 3488 2328 
z
" transform="scale(0.015625)"/>
       <path id="Menlo-Regular-42" d="M 1153 2353 
L 1153 519 
L 1900 519 
Q 2450 519 2684 711 
Q 2919 903 2919 1344 
Q 2919 1925 2672 2139 
Q 2425 2353 1900 2353 
L 1153 2353 
z
M 1153 4147 
L 1153 2866 
L 1888 2866 
Q 2344 2866 2548 3041 
Q 2753 3216 2753 3481 
Q 2753 3834 2551 3990 
Q 2350 4147 1888 4147 
L 1153 4147 
z
M 519 4666 
L 1900 4666 
Q 2616 4666 3003 4356 
Q 3391 4047 3391 3481 
Q 3391 3178 3186 2931 
Q 2981 2684 2572 2622 
Q 3031 2553 3292 2229 
Q 3553 1906 3553 1281 
Q 3553 647 3137 323 
Q 2722 0 1900 0 
L 519 0 
L 519 4666 
z
" transform="scale(0.015625)"/>
       <path id="Menlo-Regular-41" d="M 1925 4109 
L 1259 1722 
L 2591 1722 
L 1925 4109 
z
M 1544 4666 
L 2309 4666 
L 3738 0 
L 3084 0 
L 2741 1216 
L 1106 1216 
L 769 0 
L 116 0 
L 1544 4666 
z
" transform="scale(0.015625)"/>
      </defs>
      <use xlink:href="#Menlo-Regular-43"/>
      <use xlink:href="#Menlo-Regular-4f" transform="translate(60.205078 0)"/>
      <use xlink:href="#Menlo-Regular-42" transform="translate(120.410156 0)"/>
      <use xlink:href="#Menlo-Regular-41" transform="translate(180.615234 0)"/>
     </g>
    </g>
    <g id="LineCollection_4">
     <path d="M 526.203179 43.862969 
L 526.203179 36.862969 
" style="fill: none; stroke: #1a1a1a; stroke-width: 1.4"/>
    </g>
    <g id="line2d_57">
     <g>
      <use xlink:href="#m9570562937" x="526.203179" y="43.862969" style="fill: #1a1a1a; stroke: #1a1a1a"/>
     </g>
    </g>
    <g id="line2d_58">
     <g>
      <use xlink:href="#m9570562937" x="526.203179" y="36.862969" style="fill: #1a1a1a; stroke: #1a1a1a"/>
     </g>
    </g>
    <g id="line2d_59">
     <path d="M 520.603179 40.362969 
L 531.803179 40.362969 
" style="fill: none; stroke: #1a1a1a; stroke-width: 1.4; stroke-linejoin: miter"/>
    </g>
    <g id="line2d_60">
     <g>
      <use xlink:href="#mf6a6e07d93" x="526.203179" y="40.362969" style="fill: #1a1a1a; stroke: #1a1a1a; stroke-linejoin: miter"/>
     </g>
    </g>
    <g id="text_14">
     <!-- PING -->
     <g style="fill: #1a1a1a" transform="translate(537.403179 42.812969) scale(0.07 -0.07)">
      <defs>
       <path id="Menlo-Regular-50" d="M 1247 4147 
L 1247 2394 
L 1978 2394 
Q 2416 2394 2661 2625 
Q 2906 2856 2906 3272 
Q 2906 3688 2662 3917 
Q 2419 4147 1978 4147 
L 1247 4147 
z
M 616 4666 
L 1978 4666 
Q 2759 4666 3162 4311 
Q 3566 3956 3566 3272 
Q 3566 2581 3164 2228 
Q 2763 1875 1978 1875 
L 1247 1875 
L 1247 0 
L 616 0 
L 616 4666 
z
" transform="scale(0.015625)"/>
       <path id="Menlo-Regular-49" d="M 628 4666 
L 3219 4666 
L 3219 4134 
L 2241 4134 
L 2241 531 
L 3219 531 
L 3219 0 
L 628 0 
L 628 531 
L 1606 531 
L 1606 4134 
L 628 4134 
L 628 4666 
z
" transform="scale(0.015625)"/>
       <path id="Menlo-Regular-4e" d="M 59 4650 
L 922 4650 
L 2747 822 
L 2747 4650 
L 3419 4650 
L 3419 0 
L 2556 0 
L 731 3828 
L 731 0 
L 59 0 
L 59 4650 
z
" transform="scale(0.015625)"/>
      </defs>
      <use xlink:href="#Menlo-Regular-50"/>
      <use xlink:href="#Menlo-Regular-49" transform="translate(60.205078 0)"/>
      <use xlink:href="#Menlo-Regular-4e" transform="translate(120.410156 0)"/>
      <use xlink:href="#Menlo-Regular-47" transform="translate(180.615234 0)"/>
     </g>
    </g>
   </g>
  </g>
  <g id="text_15">
   <!-- PING's BPTT gradient explodes without dampening; COBA's does not -->
   <g transform="translate(117.447554 7.922578) scale(0.085 -0.085)">
    <defs>
     <path id="Menlo-Regular-27" d="M 2319 4869 
L 2319 2922 
L 1619 2922 
L 1619 4869 
L 2319 4869 
z
" transform="scale(0.015625)"/>
     <path id="Menlo-Regular-73" d="M 3041 3378 
L 3041 2816 
Q 2794 2959 2544 3031 
Q 2294 3103 2034 3103 
Q 1644 3103 1451 2976 
Q 1259 2850 1259 2591 
Q 1259 2356 1403 2240 
Q 1547 2125 2119 2016 
L 2350 1972 
Q 2778 1891 2998 1647 
Q 3219 1403 3219 1013 
Q 3219 494 2850 201 
Q 2481 -91 1825 -91 
Q 1566 -91 1281 -36 
Q 997 19 666 128 
L 666 722 
Q 988 556 1281 473 
Q 1575 391 1838 391 
Q 2219 391 2428 545 
Q 2638 700 2638 978 
Q 2638 1378 1872 1531 
L 1847 1538 
L 1631 1581 
Q 1134 1678 906 1908 
Q 678 2138 678 2534 
Q 678 3038 1018 3311 
Q 1359 3584 1991 3584 
Q 2272 3584 2531 3532 
Q 2791 3481 3041 3378 
z
" transform="scale(0.015625)"/>
     <path id="Menlo-Regular-54" d="M 147 4666 
L 3706 4666 
L 3706 4134 
L 2247 4134 
L 2247 0 
L 1613 0 
L 1613 4134 
L 147 4134 
L 147 4666 
z
" transform="scale(0.015625)"/>
     <path id="Menlo-Regular-78" d="M 3494 3500 
L 2241 1825 
L 3616 0 
L 2950 0 
L 1925 1403 
L 903 0 
L 238 0 
L 1613 1825 
L 359 3500 
L 997 3500 
L 1925 2234 
L 2847 3500 
L 3494 3500 
z
" transform="scale(0.015625)"/>
     <path id="Menlo-Regular-6c" d="M 2247 1266 
Q 2247 878 2389 681 
Q 2531 484 2809 484 
L 3481 484 
L 3481 0 
L 2753 0 
Q 2238 0 1955 329 
Q 1672 659 1672 1266 
L 1672 4431 
L 750 4431 
L 750 4881 
L 2247 4881 
L 2247 1266 
z
" transform="scale(0.015625)"/>
     <path id="Menlo-Regular-77" d="M 0 3500 
L 569 3500 
L 1178 672 
L 1678 2478 
L 2169 2478 
L 2675 672 
L 3284 3500 
L 3853 3500 
L 3034 0 
L 2484 0 
L 1925 1919 
L 1369 0 
L 819 0 
L 0 3500 
z
" transform="scale(0.015625)"/>
     <path id="Menlo-Regular-75" d="M 609 1325 
L 609 3494 
L 1184 3494 
L 1184 1325 
Q 1184 853 1351 631 
Q 1519 409 1869 409 
Q 2275 409 2490 695 
Q 2706 981 2706 1516 
L 2706 3494 
L 3284 3494 
L 3284 0 
L 2706 0 
L 2706 525 
Q 2553 222 2289 65 
Q 2025 -91 1672 -91 
Q 1134 -91 871 261 
Q 609 613 609 1325 
z
" transform="scale(0.015625)"/>
     <path id="Menlo-Regular-3b" d="M 1381 1128 
L 2356 1128 
L 2356 300 
L 1741 -894 
L 1072 -894 
L 1381 300 
L 1381 1128 
z
M 1341 3497 
L 2316 3497 
L 2316 2369 
L 1341 2369 
L 1341 3497 
z
" transform="scale(0.015625)"/>
    </defs>
    <use xlink:href="#Menlo-Regular-50"/>
    <use xlink:href="#Menlo-Regular-49" transform="translate(60.205078 0)"/>
    <use xlink:href="#Menlo-Regular-4e" transform="translate(120.410156 0)"/>
    <use xlink:href="#Menlo-Regular-47" transform="translate(180.615234 0)"/>
    <use xlink:href="#Menlo-Regular-27" transform="translate(240.820312 0)"/>
    <use xlink:href="#Menlo-Regular-73" transform="translate(301.025391 0)"/>
    <use xlink:href="#Menlo-Regular-20" transform="translate(361.230469 0)"/>
    <use xlink:href="#Menlo-Regular-42" transform="translate(421.435547 0)"/>
    <use xlink:href="#Menlo-Regular-50" transform="translate(481.640625 0)"/>
    <use xlink:href="#Menlo-Regular-54" transform="translate(541.845703 0)"/>
    <use xlink:href="#Menlo-Regular-54" transform="translate(602.050781 0)"/>
    <use xlink:href="#Menlo-Regular-20" transform="translate(662.255859 0)"/>
    <use xlink:href="#Menlo-Regular-67" transform="translate(722.460938 0)"/>
    <use xlink:href="#Menlo-Regular-72" transform="translate(782.666016 0)"/>
    <use xlink:href="#Menlo-Regular-61" transform="translate(842.871094 0)"/>
    <use xlink:href="#Menlo-Regular-64" transform="translate(903.076172 0)"/>
    <use xlink:href="#Menlo-Regular-69" transform="translate(963.28125 0)"/>
    <use xlink:href="#Menlo-Regular-65" transform="translate(1023.486328 0)"/>
    <use xlink:href="#Menlo-Regular-6e" transform="translate(1083.691406 0)"/>
    <use xlink:href="#Menlo-Regular-74" transform="translate(1143.896484 0)"/>
    <use xlink:href="#Menlo-Regular-20" transform="translate(1204.101562 0)"/>
    <use xlink:href="#Menlo-Regular-65" transform="translate(1264.306641 0)"/>
    <use xlink:href="#Menlo-Regular-78" transform="translate(1324.511719 0)"/>
    <use xlink:href="#Menlo-Regular-70" transform="translate(1384.716797 0)"/>
    <use xlink:href="#Menlo-Regular-6c" transform="translate(1444.921875 0)"/>
    <use xlink:href="#Menlo-Regular-6f" transform="translate(1505.126953 0)"/>
    <use xlink:href="#Menlo-Regular-64" transform="translate(1565.332031 0)"/>
    <use xlink:href="#Menlo-Regular-65" transform="translate(1625.537109 0)"/>
    <use xlink:href="#Menlo-Regular-73" transform="translate(1685.742188 0)"/>
    <use xlink:href="#Menlo-Regular-20" transform="translate(1745.947266 0)"/>
    <use xlink:href="#Menlo-Regular-77" transform="translate(1806.152344 0)"/>
    <use xlink:href="#Menlo-Regular-69" transform="translate(1866.357422 0)"/>
    <use xlink:href="#Menlo-Regular-74" transform="translate(1926.5625 0)"/>
    <use xlink:href="#Menlo-Regular-68" transform="translate(1986.767578 0)"/>
    <use xlink:href="#Menlo-Regular-6f" transform="translate(2046.972656 0)"/>
    <use xlink:href="#Menlo-Regular-75" transform="translate(2107.177734 0)"/>
    <use xlink:href="#Menlo-Regular-74" transform="translate(2167.382812 0)"/>
    <use xlink:href="#Menlo-Regular-20" transform="translate(2227.587891 0)"/>
    <use xlink:href="#Menlo-Regular-64" transform="translate(2287.792969 0)"/>
    <use xlink:href="#Menlo-Regular-61" transform="translate(2347.998047 0)"/>
    <use xlink:href="#Menlo-Regular-6d" transform="translate(2408.203125 0)"/>
    <use xlink:href="#Menlo-Regular-70" transform="translate(2468.408203 0)"/>
    <use xlink:href="#Menlo-Regular-65" transform="translate(2528.613281 0)"/>
    <use xlink:href="#Menlo-Regular-6e" transform="translate(2588.818359 0)"/>
    <use xlink:href="#Menlo-Regular-69" transform="translate(2649.023438 0)"/>
    <use xlink:href="#Menlo-Regular-6e" transform="translate(2709.228516 0)"/>
    <use xlink:href="#Menlo-Regular-67" transform="translate(2769.433594 0)"/>
    <use xlink:href="#Menlo-Regular-3b" transform="translate(2829.638672 0)"/>
    <use xlink:href="#Menlo-Regular-20" transform="translate(2889.84375 0)"/>
    <use xlink:href="#Menlo-Regular-43" transform="translate(2950.048828 0)"/>
    <use xlink:href="#Menlo-Regular-4f" transform="translate(3010.253906 0)"/>
    <use xlink:href="#Menlo-Regular-42" transform="translate(3070.458984 0)"/>
    <use xlink:href="#Menlo-Regular-41" transform="translate(3130.664062 0)"/>
    <use xlink:href="#Menlo-Regular-27" transform="translate(3190.869141 0)"/>
    <use xlink:href="#Menlo-Regular-73" transform="translate(3251.074219 0)"/>
    <use xlink:href="#Menlo-Regular-20" transform="translate(3311.279297 0)"/>
    <use xlink:href="#Menlo-Regular-64" transform="translate(3371.484375 0)"/>
    <use xlink:href="#Menlo-Regular-6f" transform="translate(3431.689453 0)"/>
    <use xlink:href="#Menlo-Regular-65" transform="translate(3491.894531 0)"/>
    <use xlink:href="#Menlo-Regular-73" transform="translate(3552.099609 0)"/>
    <use xlink:href="#Menlo-Regular-20" transform="translate(3612.304688 0)"/>
    <use xlink:href="#Menlo-Regular-6e" transform="translate(3672.509766 0)"/>
    <use xlink:href="#Menlo-Regular-6f" transform="translate(3732.714844 0)"/>
    <use xlink:href="#Menlo-Regular-74" transform="translate(3792.919922 0)"/>
   </g>
  </g>
  <g id="text_16">
   <!-- r007 -->
   <g style="fill: #888888" transform="translate(550.667242 315.988203) scale(0.065 -0.065)">
    <use xlink:href="#Menlo-Regular-72"/>
    <use xlink:href="#Menlo-Regular-30" transform="translate(60.205078 0)"/>
    <use xlink:href="#Menlo-Regular-30" transform="translate(120.410156 0)"/>
    <use xlink:href="#Menlo-Regular-37" transform="translate(180.615234 0)"/>
   </g>
  </g>
 </g>
 <defs>
  <clipPath id="p2bd53405da">
   <rect x="31.3675" y="20.88" width="529.192554" height="266.496"/>
  </clipPath>
 </defs>
</svg>
