<?xml version="1.0" encoding="utf-8" standalone="no"?>
<!DOCTYPE svg PUBLIC "-//W3C//DTD SVG 1.1//EN"
  "http://www.w3.org/Graphics/SVG/1.1/DTD/svg11.dtd">
<svg xmlns:xlink="http://www.w3.org/1999/xlink" width="395.957437pt" height="217.009697pt" viewBox="0 0 395.957437 217.009697" xmlns="http://www.w3.org/2000/svg" version="1.1">
 <metadata>
  <rdf:RDF xmlns:dc="http://purl.org/dc/elements/1.1/" xmlns:cc="http://creativecommons.org/ns#" xmlns:rdf="http://www.w3.org/1999/02/22-rdf-syntax-ns#">
   <cc:Work>
    <dc:type rdf:resource="http://purl.org/dc/dcmitype/StillImage"/>
    <dc:date>2026-07-09T19:40:36.643288</dc:date>
    <dc:format>image/svg+xml</dc:format>
    <dc:creator>
     <cc:Agent>
      <dc:title>Matplotlib v3.10.8, https://matplotlib.org/</dc:title>
     </cc:Agent>
    </dc:creator>
   </cc:Work>
  </rdf:RDF>
 </metadata>
 <defs>
  <style type="text/css">*{stroke-linejoin: round; stroke-linecap: butt}</style>
 </defs>
 <g id="figure_1">
  <g id="patch_1">
   <path d="M 0 217.009697 
L 395.957437 217.009697 
L 395.957437 0 
L 0 0 
z
" style="fill: #ffffff"/>
  </g>
  <g id="axes_1">
   <g id="patch_2">
    <path d="M 25.133438 185.105297 
L 360.143438 185.105297 
L 360.143438 4.109297 
L 25.133438 4.109297 
z
" style="fill: #ffffff"/>
   </g>
   <g id="matplotlib.axis_1">
    <g id="xtick_1">
     <g id="line2d_1">
      <defs>
       <path id="mf252472d27" d="M 0 0 
L 0 -3 
" style="stroke: #1a1a1a; stroke-width: 0.8"/>
      </defs>
      <g>
       <use xlink:href="#mf252472d27" x="40.361165" y="185.105297" style="fill: #1a1a1a; stroke: #1a1a1a; stroke-width: 0.8"/>
      </g>
     </g>
     <g id="text_1">
      <!-- $\mathdefault{0}$ -->
      <g style="fill: #1a1a1a" transform="translate(38.226165 193.943891) scale(0.07 -0.07)">
       <defs>
        <path id="Menlo-Regular-30" d="M 1925 4734 
Q 2672 4734 3055 4125 
Q 3438 3516 3438 2322 
Q 3438 1128 3055 518 
Q 2672 -91 1925 -91 
Q 1178 -91 797 518 
Q 416 1128 416 2322 
Q 416 3516 797 4125 
Q 1178 4734 1925 4734 
z
M 1925 409 
Q 2369 409 2586 881 
Q 2803 1353 2803 2322 
Q 2803 2838 2741 3253 
L 1253 925 
Q 1488 409 1925 409 
z
M 1925 4234 
Q 1484 4234 1267 3762 
Q 1050 3291 1050 2322 
Q 1050 1881 1109 1497 
L 2566 3819 
Q 2328 4234 1925 4234 
z
" transform="scale(0.015625)"/>
       </defs>
       <use xlink:href="#Menlo-Regular-30" transform="translate(0 0.03125)"/>
      </g>
     </g>
    </g>
    <g id="xtick_2">
     <g id="line2d_2">
      <g>
       <use xlink:href="#mf252472d27" x="149.130645" y="185.105297" style="fill: #1a1a1a; stroke: #1a1a1a; stroke-width: 0.8"/>
      </g>
     </g>
     <g id="text_2">
      <!-- $\mathdefault{10^{0}}$ -->
      <g style="fill: #1a1a1a" transform="translate(143.285645 193.943891) scale(0.07 -0.07)">
       <defs>
        <path id="Menlo-Regular-31" d="M 844 528 
L 1825 528 
L 1825 4053 
L 650 3488 
L 650 4094 
L 1819 4650 
L 2450 4650 
L 2450 528 
L 3419 528 
L 3419 0 
L 844 0 
L 844 528 
z
" transform="scale(0.015625)"/>
       </defs>
       <use xlink:href="#Menlo-Regular-31" transform="translate(0 0.940625)"/>
       <use xlink:href="#Menlo-Regular-30" transform="translate(60.205078 0.940625)"/>
       <use xlink:href="#Menlo-Regular-30" transform="translate(121.367188 39.221875) scale(0.7)"/>
      </g>
     </g>
    </g>
    <g id="xtick_3">
     <g id="line2d_3">
      <g>
       <use xlink:href="#mf252472d27" x="247.023178" y="185.105297" style="fill: #1a1a1a; stroke: #1a1a1a; stroke-width: 0.8"/>
      </g>
     </g>
     <g id="text_3">
      <!-- $\mathdefault{10^{1}}$ -->
      <g style="fill: #1a1a1a" transform="translate(241.178178 193.943891) scale(0.07 -0.07)">
       <use xlink:href="#Menlo-Regular-31" transform="translate(0 0.859375)"/>
       <use xlink:href="#Menlo-Regular-30" transform="translate(60.205078 0.859375)"/>
       <use xlink:href="#Menlo-Regular-31" transform="translate(121.367188 39.140625) scale(0.7)"/>
      </g>
     </g>
    </g>
    <g id="xtick_4">
     <g id="line2d_4">
      <g>
       <use xlink:href="#mf252472d27" x="344.91571" y="185.105297" style="fill: #1a1a1a; stroke: #1a1a1a; stroke-width: 0.8"/>
      </g>
     </g>
     <g id="text_4">
      <!-- $\mathdefault{10^{2}}$ -->
      <g style="fill: #1a1a1a" transform="translate(339.07071 193.943891) scale(0.07 -0.07)">
       <defs>
        <path id="Menlo-Regular-32" d="M 1166 531 
L 3309 531 
L 3309 0 
L 475 0 
L 475 531 
Q 1059 1147 1496 1619 
Q 1934 2091 2100 2284 
Q 2413 2666 2522 2902 
Q 2631 3138 2631 3384 
Q 2631 3775 2401 3997 
Q 2172 4219 1772 4219 
Q 1488 4219 1175 4116 
Q 863 4013 513 3803 
L 513 4441 
Q 834 4594 1145 4672 
Q 1456 4750 1759 4750 
Q 2444 4750 2861 4386 
Q 3278 4022 3278 3431 
Q 3278 3131 3139 2831 
Q 3000 2531 2688 2169 
Q 2513 1966 2180 1606 
Q 1847 1247 1166 531 
z
" transform="scale(0.015625)"/>
       </defs>
       <use xlink:href="#Menlo-Regular-31" transform="translate(0 0.765625)"/>
       <use xlink:href="#Menlo-Regular-30" transform="translate(60.205078 0.765625)"/>
       <use xlink:href="#Menlo-Regular-32" transform="translate(121.367188 39.046875) scale(0.7)"/>
      </g>
     </g>
    </g>
    <g id="text_5">
     <!-- Cycle-coherent jitter σ on the I-stream (ms, symlog) -->
     <g style="fill: #1a1a1a" transform="translate(67.415938 205.860922) scale(0.08 -0.08)">
      <defs>
       <path id="Menlo-Regular-43" d="M 3353 166 
Q 3113 38 2859 -26 
Q 2606 -91 2322 -91 
Q 1425 -91 929 543 
Q 434 1178 434 2328 
Q 434 3472 932 4111 
Q 1431 4750 2322 4750 
Q 2606 4750 2859 4686 
Q 3113 4622 3353 4494 
L 3353 3847 
Q 3122 4038 2856 4138 
Q 2591 4238 2322 4238 
Q 1706 4238 1400 3763 
Q 1094 3288 1094 2328 
Q 1094 1372 1400 897 
Q 1706 422 2322 422 
Q 2597 422 2861 522 
Q 3125 622 3353 813 
L 3353 166 
z
" transform="scale(0.015625)"/>
       <path id="Menlo-Regular-79" d="M 2681 1125 
Q 2538 759 2316 163 
Q 2006 -663 1900 -844 
Q 1756 -1088 1540 -1209 
Q 1325 -1331 1038 -1331 
L 575 -1331 
L 575 -850 
L 916 -850 
Q 1169 -850 1312 -703 
Q 1456 -556 1678 56 
L 325 3500 
L 934 3500 
L 1972 763 
L 2994 3500 
L 3603 3500 
L 2681 1125 
z
" transform="scale(0.015625)"/>
       <path id="Menlo-Regular-63" d="M 3316 178 
Q 3084 44 2839 -23 
Q 2594 -91 2338 -91 
Q 1525 -91 1067 396 
Q 609 884 609 1747 
Q 609 2609 1067 3096 
Q 1525 3584 2338 3584 
Q 2591 3584 2831 3518 
Q 3072 3453 3316 3316 
L 3316 2713 
Q 3088 2916 2858 3006 
Q 2628 3097 2338 3097 
Q 1797 3097 1506 2747 
Q 1216 2397 1216 1747 
Q 1216 1100 1508 748 
Q 1800 397 2338 397 
Q 2638 397 2875 489 
Q 3113 581 3316 775 
L 3316 178 
z
" transform="scale(0.015625)"/>
       <path id="Menlo-Regular-6c" d="M 2247 1266 
Q 2247 878 2389 681 
Q 2531 484 2809 484 
L 3481 484 
L 3481 0 
L 2753 0 
Q 2238 0 1955 329 
Q 1672 659 1672 1266 
L 1672 4431 
L 750 4431 
L 750 4881 
L 2247 4881 
L 2247 1266 
z
" transform="scale(0.015625)"/>
       <path id="Menlo-Regular-65" d="M 3500 2038 
L 3500 1756 
L 1009 1756 
L 1009 1738 
Q 984 1022 1282 709 
Q 1581 397 2125 397 
Q 2400 397 2700 484 
Q 3000 572 3341 750 
L 3341 178 
Q 3013 44 2708 -23 
Q 2403 -91 2119 -91 
Q 1303 -91 843 398 
Q 384 888 384 1747 
Q 384 2584 834 3084 
Q 1284 3584 2034 3584 
Q 2703 3584 3089 3131 
Q 3475 2678 3500 2038 
z
M 2925 2206 
Q 2888 2569 2661 2833 
Q 2434 3097 2009 3097 
Q 1594 3097 1325 2822 
Q 1056 2547 1031 2203 
L 2925 2206 
z
" transform="scale(0.015625)"/>
       <path id="Menlo-Regular-2d" d="M 319 2263 
L 3631 2263 
L 3631 1734 
L 319 1734 
L 319 2263 
z
" transform="scale(0.015625)"/>
       <path id="Menlo-Regular-6f" d="M 1925 3097 
Q 1488 3097 1263 2756 
Q 1038 2416 1038 1747 
Q 1038 1081 1263 739 
Q 1488 397 1925 397 
Q 2366 397 2591 739 
Q 2816 1081 2816 1747 
Q 2816 2416 2591 2756 
Q 2366 3097 1925 3097 
z
M 1925 3584 
Q 2653 3584 3039 3112 
Q 3425 2641 3425 1747 
Q 3425 850 3040 379 
Q 2656 -91 1925 -91 
Q 1197 -91 812 379 
Q 428 850 428 1747 
Q 428 2641 812 3112 
Q 1197 3584 1925 3584 
z
" transform="scale(0.015625)"/>
       <path id="Menlo-Regular-68" d="M 3284 2169 
L 3284 0 
L 2706 0 
L 2706 2169 
Q 2706 2641 2540 2862 
Q 2375 3084 2022 3084 
Q 1619 3084 1401 2798 
Q 1184 2513 1184 1978 
L 1184 0 
L 609 0 
L 609 4863 
L 1184 4863 
L 1184 2975 
Q 1338 3275 1600 3429 
Q 1863 3584 2222 3584 
Q 2756 3584 3020 3232 
Q 3284 2881 3284 2169 
z
" transform="scale(0.015625)"/>
       <path id="Menlo-Regular-72" d="M 3609 2778 
Q 3425 2922 3234 2987 
Q 3044 3053 2816 3053 
Q 2278 3053 1993 2715 
Q 1709 2378 1709 1741 
L 1709 0 
L 1131 0 
L 1131 3500 
L 1709 3500 
L 1709 2816 
Q 1853 3188 2151 3386 
Q 2450 3584 2859 3584 
Q 3072 3584 3256 3531 
Q 3441 3478 3609 3366 
L 3609 2778 
z
" transform="scale(0.015625)"/>
       <path id="Menlo-Regular-6e" d="M 3284 2169 
L 3284 0 
L 2706 0 
L 2706 2169 
Q 2706 2641 2540 2862 
Q 2375 3084 2022 3084 
Q 1619 3084 1401 2798 
Q 1184 2513 1184 1978 
L 1184 0 
L 609 0 
L 609 3500 
L 1184 3500 
L 1184 2975 
Q 1338 3275 1600 3429 
Q 1863 3584 2222 3584 
Q 2756 3584 3020 3232 
Q 3284 2881 3284 2169 
z
" transform="scale(0.015625)"/>
       <path id="Menlo-Regular-74" d="M 1919 4494 
L 1919 3500 
L 3225 3500 
L 3225 3053 
L 1919 3053 
L 1919 1153 
Q 1919 766 2066 612 
Q 2213 459 2578 459 
L 3225 459 
L 3225 0 
L 2522 0 
Q 1875 0 1609 259 
Q 1344 519 1344 1153 
L 1344 3053 
L 409 3053 
L 409 3500 
L 1344 3500 
L 1344 4494 
L 1919 4494 
z
" transform="scale(0.015625)"/>
       <path id="Menlo-Regular-20" transform="scale(0.015625)"/>
       <path id="Menlo-Regular-6a" d="M 1875 -63 
L 1875 3053 
L 884 3053 
L 884 3500 
L 2450 3500 
L 2450 -63 
Q 2450 -672 2170 -1001 
Q 1891 -1331 1375 -1331 
L 581 -1331 
L 581 -844 
L 1313 -844 
Q 1594 -844 1734 -648 
Q 1875 -453 1875 -63 
z
M 1875 4863 
L 2450 4863 
L 2450 4134 
L 1875 4134 
L 1875 4863 
z
" transform="scale(0.015625)"/>
       <path id="Menlo-Regular-69" d="M 988 3488 
L 2459 3488 
L 2459 447 
L 3600 447 
L 3600 0 
L 744 0 
L 744 447 
L 1884 447 
L 1884 3041 
L 988 3041 
L 988 3488 
z
M 1884 4847 
L 2459 4847 
L 2459 4122 
L 1884 4122 
L 1884 4847 
z
" transform="scale(0.015625)"/>
       <path id="Menlo-Regular-3c3" d="M 1903 2922 
Q 1481 2922 1263 2672 
Q 1038 2413 1038 1747 
Q 1038 1081 1263 739 
Q 1488 397 1925 397 
Q 2366 397 2591 739 
Q 2816 1081 2816 1538 
Q 2816 2316 2278 2719 
Q 2091 2859 1903 2922 
z
M 2781 2925 
Q 3425 2419 3425 1538 
Q 3425 825 2953 303 
Q 2597 -94 1925 -91 
Q 1197 -91 812 379 
Q 428 850 428 1747 
Q 428 2575 813 3053 
Q 1172 3500 1925 3500 
L 3534 3500 
L 3534 2925 
L 2781 2925 
z
" transform="scale(0.015625)"/>
       <path id="Menlo-Regular-49" d="M 628 4666 
L 3219 4666 
L 3219 4134 
L 2241 4134 
L 2241 531 
L 3219 531 
L 3219 0 
L 628 0 
L 628 531 
L 1606 531 
L 1606 4134 
L 628 4134 
L 628 4666 
z
" transform="scale(0.015625)"/>
       <path id="Menlo-Regular-73" d="M 3041 3378 
L 3041 2816 
Q 2794 2959 2544 3031 
Q 2294 3103 2034 3103 
Q 1644 3103 1451 2976 
Q 1259 2850 1259 2591 
Q 1259 2356 1403 2240 
Q 1547 2125 2119 2016 
L 2350 1972 
Q 2778 1891 2998 1647 
Q 3219 1403 3219 1013 
Q 3219 494 2850 201 
Q 2481 -91 1825 -91 
Q 1566 -91 1281 -36 
Q 997 19 666 128 
L 666 722 
Q 988 556 1281 473 
Q 1575 391 1838 391 
Q 2219 391 2428 545 
Q 2638 700 2638 978 
Q 2638 1378 1872 1531 
L 1847 1538 
L 1631 1581 
Q 1134 1678 906 1908 
Q 678 2138 678 2534 
Q 678 3038 1018 3311 
Q 1359 3584 1991 3584 
Q 2272 3584 2531 3532 
Q 2791 3481 3041 3378 
z
" transform="scale(0.015625)"/>
       <path id="Menlo-Regular-61" d="M 2194 1759 
L 2003 1759 
Q 1500 1759 1245 1582 
Q 991 1406 991 1056 
Q 991 741 1181 566 
Q 1372 391 1709 391 
Q 2184 391 2456 720 
Q 2728 1050 2731 1631 
L 2731 1759 
L 2194 1759 
z
M 3309 1997 
L 3309 0 
L 2731 0 
L 2731 519 
Q 2547 206 2267 57 
Q 1988 -91 1588 -91 
Q 1053 -91 734 211 
Q 416 513 416 1019 
Q 416 1603 808 1906 
Q 1200 2209 1959 2209 
L 2731 2209 
L 2731 2300 
Q 2728 2719 2518 2908 
Q 2309 3097 1850 3097 
Q 1556 3097 1256 3012 
Q 956 2928 672 2766 
L 672 3341 
Q 991 3463 1283 3523 
Q 1575 3584 1850 3584 
Q 2284 3584 2592 3456 
Q 2900 3328 3091 3072 
Q 3209 2916 3259 2686 
Q 3309 2456 3309 1997 
z
" transform="scale(0.015625)"/>
       <path id="Menlo-Regular-6d" d="M 2113 3144 
Q 2219 3369 2383 3476 
Q 2547 3584 2778 3584 
Q 3200 3584 3373 3257 
Q 3547 2931 3547 2028 
L 3547 0 
L 3022 0 
L 3022 2003 
Q 3022 2744 2939 2923 
Q 2856 3103 2638 3103 
Q 2388 3103 2295 2911 
Q 2203 2719 2203 2003 
L 2203 0 
L 1678 0 
L 1678 2003 
Q 1678 2753 1589 2928 
Q 1500 3103 1269 3103 
Q 1041 3103 952 2911 
Q 863 2719 863 2003 
L 863 0 
L 341 0 
L 341 3500 
L 863 3500 
L 863 3200 
Q 966 3388 1120 3486 
Q 1275 3584 1472 3584 
Q 1709 3584 1867 3475 
Q 2025 3366 2113 3144 
z
" transform="scale(0.015625)"/>
       <path id="Menlo-Regular-28" d="M 2672 5169 
Q 2256 4456 2051 3748 
Q 1847 3041 1847 2322 
Q 1847 1606 2051 897 
Q 2256 188 2672 -531 
L 2172 -531 
Q 1700 213 1469 917 
Q 1238 1622 1238 2322 
Q 1238 3019 1469 3725 
Q 1700 4431 2172 5169 
L 2672 5169 
z
" transform="scale(0.015625)"/>
       <path id="Menlo-Regular-2c" d="M 1381 1128 
L 2356 1128 
L 2356 300 
L 1663 -1047 
L 1038 -1050 
L 1381 300 
L 1381 1128 
z
" transform="scale(0.015625)"/>
       <path id="Menlo-Regular-67" d="M 2681 1778 
Q 2681 2425 2470 2761 
Q 2259 3097 1856 3097 
Q 1434 3097 1212 2761 
Q 991 2425 991 1778 
Q 991 1131 1214 792 
Q 1438 453 1863 453 
Q 2259 453 2470 793 
Q 2681 1134 2681 1778 
z
M 3256 225 
Q 3256 -563 2884 -969 
Q 2513 -1375 1791 -1375 
Q 1553 -1375 1293 -1331 
Q 1034 -1288 775 -1203 
L 775 -634 
Q 1081 -778 1331 -847 
Q 1581 -916 1791 -916 
Q 2256 -916 2468 -662 
Q 2681 -409 2681 141 
L 2681 166 
L 2681 556 
Q 2544 263 2306 119 
Q 2069 -25 1728 -25 
Q 1116 -25 750 465 
Q 384 956 384 1778 
Q 384 2603 750 3093 
Q 1116 3584 1728 3584 
Q 2066 3584 2300 3450 
Q 2534 3316 2681 3034 
L 2681 3488 
L 3256 3488 
L 3256 225 
z
" transform="scale(0.015625)"/>
       <path id="Menlo-Regular-29" d="M 1088 5169 
L 1588 5169 
Q 2059 4431 2290 3725 
Q 2522 3019 2522 2322 
Q 2522 1619 2290 912 
Q 2059 206 1588 -531 
L 1088 -531 
Q 1503 194 1708 903 
Q 1913 1613 1913 2322 
Q 1913 3034 1708 3743 
Q 1503 4453 1088 5169 
z
" transform="scale(0.015625)"/>
      </defs>
      <use xlink:href="#Menlo-Regular-43"/>
      <use xlink:href="#Menlo-Regular-79" transform="translate(60.205078 0)"/>
      <use xlink:href="#Menlo-Regular-63" transform="translate(120.410156 0)"/>
      <use xlink:href="#Menlo-Regular-6c" transform="translate(180.615234 0)"/>
      <use xlink:href="#Menlo-Regular-65" transform="translate(240.820312 0)"/>
      <use xlink:href="#Menlo-Regular-2d" transform="translate(301.025391 0)"/>
      <use xlink:href="#Menlo-Regular-63" transform="translate(361.230469 0)"/>
      <use xlink:href="#Menlo-Regular-6f" transform="translate(421.435547 0)"/>
      <use xlink:href="#Menlo-Regular-68" transform="translate(481.640625 0)"/>
      <use xlink:href="#Menlo-Regular-65" transform="translate(541.845703 0)"/>
      <use xlink:href="#Menlo-Regular-72" transform="translate(602.050781 0)"/>
      <use xlink:href="#Menlo-Regular-65" transform="translate(662.255859 0)"/>
      <use xlink:href="#Menlo-Regular-6e" transform="translate(722.460938 0)"/>
      <use xlink:href="#Menlo-Regular-74" transform="translate(782.666016 0)"/>
      <use xlink:href="#Menlo-Regular-20" transform="translate(842.871094 0)"/>
      <use xlink:href="#Menlo-Regular-6a" transform="translate(903.076172 0)"/>
      <use xlink:href="#Menlo-Regular-69" transform="translate(963.28125 0)"/>
      <use xlink:href="#Menlo-Regular-74" transform="translate(1023.486328 0)"/>
      <use xlink:href="#Menlo-Regular-74" transform="translate(1083.691406 0)"/>
      <use xlink:href="#Menlo-Regular-65" transform="translate(1143.896484 0)"/>
      <use xlink:href="#Menlo-Regular-72" transform="translate(1204.101562 0)"/>
      <use xlink:href="#Menlo-Regular-20" transform="translate(1264.306641 0)"/>
      <use xlink:href="#Menlo-Regular-3c3" transform="translate(1324.511719 0)"/>
      <use xlink:href="#Menlo-Regular-20" transform="translate(1384.716797 0)"/>
      <use xlink:href="#Menlo-Regular-6f" transform="translate(1444.921875 0)"/>
      <use xlink:href="#Menlo-Regular-6e" transform="translate(1505.126953 0)"/>
      <use xlink:href="#Menlo-Regular-20" transform="translate(1565.332031 0)"/>
      <use xlink:href="#Menlo-Regular-74" transform="translate(1625.537109 0)"/>
      <use xlink:href="#Menlo-Regular-68" transform="translate(1685.742188 0)"/>
      <use xlink:href="#Menlo-Regular-65" transform="translate(1745.947266 0)"/>
      <use xlink:href="#Menlo-Regular-20" transform="translate(1806.152344 0)"/>
      <use xlink:href="#Menlo-Regular-49" transform="translate(1866.357422 0)"/>
      <use xlink:href="#Menlo-Regular-2d" transform="translate(1926.5625 0)"/>
      <use xlink:href="#Menlo-Regular-73" transform="translate(1986.767578 0)"/>
      <use xlink:href="#Menlo-Regular-74" transform="translate(2046.972656 0)"/>
      <use xlink:href="#Menlo-Regular-72" transform="translate(2107.177734 0)"/>
      <use xlink:href="#Menlo-Regular-65" transform="translate(2167.382812 0)"/>
      <use xlink:href="#Menlo-Regular-61" transform="translate(2227.587891 0)"/>
      <use xlink:href="#Menlo-Regular-6d" transform="translate(2287.792969 0)"/>
      <use xlink:href="#Menlo-Regular-20" transform="translate(2347.998047 0)"/>
      <use xlink:href="#Menlo-Regular-28" transform="translate(2408.203125 0)"/>
      <use xlink:href="#Menlo-Regular-6d" transform="translate(2468.408203 0)"/>
      <use xlink:href="#Menlo-Regular-73" transform="translate(2528.613281 0)"/>
      <use xlink:href="#Menlo-Regular-2c" transform="translate(2588.818359 0)"/>
      <use xlink:href="#Menlo-Regular-20" transform="translate(2649.023438 0)"/>
      <use xlink:href="#Menlo-Regular-73" transform="translate(2709.228516 0)"/>
      <use xlink:href="#Menlo-Regular-79" transform="translate(2769.433594 0)"/>
      <use xlink:href="#Menlo-Regular-6d" transform="translate(2829.638672 0)"/>
      <use xlink:href="#Menlo-Regular-6c" transform="translate(2889.84375 0)"/>
      <use xlink:href="#Menlo-Regular-6f" transform="translate(2950.048828 0)"/>
      <use xlink:href="#Menlo-Regular-67" transform="translate(3010.253906 0)"/>
      <use xlink:href="#Menlo-Regular-29" transform="translate(3070.458984 0)"/>
     </g>
    </g>
   </g>
   <g id="matplotlib.axis_2">
    <g id="ytick_1">
     <g id="line2d_5">
      <defs>
       <path id="mddd46b5ee5" d="M 0 0 
L 3 0 
" style="stroke: #1a1a1a; stroke-width: 0.8"/>
      </defs>
      <g>
       <use xlink:href="#mddd46b5ee5" x="25.133438" y="173.984829" style="fill: #1a1a1a; stroke: #1a1a1a; stroke-width: 0.8"/>
      </g>
     </g>
     <g id="text_6">
      <!-- 10 -->
      <g style="fill: #1a1a1a" transform="translate(13.205 176.654126) scale(0.07 -0.07)">
       <use xlink:href="#Menlo-Regular-31"/>
       <use xlink:href="#Menlo-Regular-30" transform="translate(60.205078 0)"/>
      </g>
     </g>
    </g>
    <g id="ytick_2">
     <g id="line2d_6">
      <g>
       <use xlink:href="#mddd46b5ee5" x="25.133438" y="146.247763" style="fill: #1a1a1a; stroke: #1a1a1a; stroke-width: 0.8"/>
      </g>
     </g>
     <g id="text_7">
      <!-- 20 -->
      <g style="fill: #1a1a1a" transform="translate(13.205 148.91706) scale(0.07 -0.07)">
       <use xlink:href="#Menlo-Regular-32"/>
       <use xlink:href="#Menlo-Regular-30" transform="translate(60.205078 0)"/>
      </g>
     </g>
    </g>
    <g id="ytick_3">
     <g id="line2d_7">
      <g>
       <use xlink:href="#mddd46b5ee5" x="25.133438" y="118.510697" style="fill: #1a1a1a; stroke: #1a1a1a; stroke-width: 0.8"/>
      </g>
     </g>
     <g id="text_8">
      <!-- 30 -->
      <g style="fill: #1a1a1a" transform="translate(13.205 121.179994) scale(0.07 -0.07)">
       <defs>
        <path id="Menlo-Regular-33" d="M 2425 2497 
Q 2884 2375 3128 2064 
Q 3372 1753 3372 1288 
Q 3372 644 2939 276 
Q 2506 -91 1741 -91 
Q 1419 -91 1084 -31 
Q 750 28 428 141 
L 428 769 
Q 747 603 1056 522 
Q 1366 441 1672 441 
Q 2191 441 2469 675 
Q 2747 909 2747 1350 
Q 2747 1756 2469 1995 
Q 2191 2234 1716 2234 
L 1234 2234 
L 1234 2753 
L 1716 2753 
Q 2150 2753 2394 2943 
Q 2638 3134 2638 3475 
Q 2638 3834 2411 4026 
Q 2184 4219 1766 4219 
Q 1488 4219 1191 4156 
Q 894 4094 569 3969 
L 569 4550 
Q 947 4650 1242 4700 
Q 1538 4750 1766 4750 
Q 2447 4750 2855 4408 
Q 3263 4066 3263 3500 
Q 3263 3116 3048 2859 
Q 2834 2603 2425 2497 
z
" transform="scale(0.015625)"/>
       </defs>
       <use xlink:href="#Menlo-Regular-33"/>
       <use xlink:href="#Menlo-Regular-30" transform="translate(60.205078 0)"/>
      </g>
     </g>
    </g>
    <g id="ytick_4">
     <g id="line2d_8">
      <g>
       <use xlink:href="#mddd46b5ee5" x="25.133438" y="90.773631" style="fill: #1a1a1a; stroke: #1a1a1a; stroke-width: 0.8"/>
      </g>
     </g>
     <g id="text_9">
      <!-- 40 -->
      <g style="fill: #1a1a1a" transform="translate(13.205 93.442928) scale(0.07 -0.07)">
       <defs>
        <path id="Menlo-Regular-34" d="M 2297 4091 
L 825 1625 
L 2297 1625 
L 2297 4091 
z
M 2194 4666 
L 2925 4666 
L 2925 1625 
L 3547 1625 
L 3547 1113 
L 2925 1113 
L 2925 0 
L 2297 0 
L 2297 1113 
L 319 1113 
L 319 1709 
L 2194 4666 
z
" transform="scale(0.015625)"/>
       </defs>
       <use xlink:href="#Menlo-Regular-34"/>
       <use xlink:href="#Menlo-Regular-30" transform="translate(60.205078 0)"/>
      </g>
     </g>
    </g>
    <g id="ytick_5">
     <g id="line2d_9">
      <g>
       <use xlink:href="#mddd46b5ee5" x="25.133438" y="63.036565" style="fill: #1a1a1a; stroke: #1a1a1a; stroke-width: 0.8"/>
      </g>
     </g>
     <g id="text_10">
      <!-- 50 -->
      <g style="fill: #1a1a1a" transform="translate(13.205 65.705862) scale(0.07 -0.07)">
       <defs>
        <path id="Menlo-Regular-35" d="M 647 4666 
L 3009 4666 
L 3009 4134 
L 1222 4134 
L 1222 2988 
Q 1356 3038 1492 3061 
Q 1628 3084 1766 3084 
Q 2491 3084 2916 2656 
Q 3341 2228 3341 1497 
Q 3341 759 2895 334 
Q 2450 -91 1678 -91 
Q 1306 -91 998 -41 
Q 691 9 447 109 
L 447 750 
Q 734 594 1025 517 
Q 1316 441 1619 441 
Q 2141 441 2423 716 
Q 2706 991 2706 1497 
Q 2706 1997 2414 2275 
Q 2122 2553 1600 2553 
Q 1347 2553 1106 2495 
Q 866 2438 647 2322 
L 647 4666 
z
" transform="scale(0.015625)"/>
       </defs>
       <use xlink:href="#Menlo-Regular-35"/>
       <use xlink:href="#Menlo-Regular-30" transform="translate(60.205078 0)"/>
      </g>
     </g>
    </g>
    <g id="ytick_6">
     <g id="line2d_10">
      <g>
       <use xlink:href="#mddd46b5ee5" x="25.133438" y="35.299499" style="fill: #1a1a1a; stroke: #1a1a1a; stroke-width: 0.8"/>
      </g>
     </g>
     <g id="text_11">
      <!-- 60 -->
      <g style="fill: #1a1a1a" transform="translate(13.205 37.968796) scale(0.07 -0.07)">
       <defs>
        <path id="Menlo-Regular-36" d="M 3097 4563 
L 3097 3981 
Q 2900 4097 2678 4158 
Q 2456 4219 2216 4219 
Q 1616 4219 1306 3767 
Q 997 3316 997 2438 
Q 1147 2750 1412 2917 
Q 1678 3084 2022 3084 
Q 2697 3084 3067 2670 
Q 3438 2256 3438 1497 
Q 3438 741 3056 325 
Q 2675 -91 1984 -91 
Q 1172 -91 794 492 
Q 416 1075 416 2328 
Q 416 3509 870 4129 
Q 1325 4750 2188 4750 
Q 2419 4750 2650 4701 
Q 2881 4653 3097 4563 
z
M 1972 2591 
Q 1569 2591 1337 2300 
Q 1106 2009 1106 1497 
Q 1106 984 1337 693 
Q 1569 403 1972 403 
Q 2391 403 2603 679 
Q 2816 956 2816 1497 
Q 2816 2041 2603 2316 
Q 2391 2591 1972 2591 
z
" transform="scale(0.015625)"/>
       </defs>
       <use xlink:href="#Menlo-Regular-36"/>
       <use xlink:href="#Menlo-Regular-30" transform="translate(60.205078 0)"/>
      </g>
     </g>
    </g>
    <g id="ytick_7">
     <g id="line2d_11">
      <g>
       <use xlink:href="#mddd46b5ee5" x="25.133438" y="7.562433" style="fill: #1a1a1a; stroke: #1a1a1a; stroke-width: 0.8"/>
      </g>
     </g>
     <g id="text_12">
      <!-- 70 -->
      <g style="fill: #1a1a1a" transform="translate(13.205 10.23173) scale(0.07 -0.07)">
       <defs>
        <path id="Menlo-Regular-37" d="M 434 4666 
L 3372 4666 
L 3372 4397 
L 1703 0 
L 1044 0 
L 2669 4134 
L 434 4134 
L 434 4666 
z
" transform="scale(0.015625)"/>
       </defs>
       <use xlink:href="#Menlo-Regular-37"/>
       <use xlink:href="#Menlo-Regular-30" transform="translate(60.205078 0)"/>
      </g>
     </g>
    </g>
    <g id="text_13">
     <!-- Hidden E rate (Hz) -->
     <g style="fill: #1a1a1a" transform="translate(7.54125 137.953547) rotate(-90) scale(0.08 -0.08)">
      <defs>
       <path id="Menlo-Regular-48" d="M 428 4666 
L 1063 4666 
L 1063 2878 
L 2791 2878 
L 2791 4666 
L 3425 4666 
L 3425 0 
L 2791 0 
L 2791 2347 
L 1063 2347 
L 1063 0 
L 428 0 
L 428 4666 
z
" transform="scale(0.015625)"/>
       <path id="Menlo-Regular-64" d="M 2681 3053 
L 2681 4863 
L 3256 4863 
L 3256 0 
L 2681 0 
L 2681 441 
Q 2538 181 2298 45 
Q 2059 -91 1747 -91 
Q 1113 -91 748 401 
Q 384 894 384 1759 
Q 384 2613 750 3098 
Q 1116 3584 1747 3584 
Q 2063 3584 2303 3448 
Q 2544 3313 2681 3053 
z
M 991 1747 
Q 991 1078 1203 737 
Q 1416 397 1831 397 
Q 2247 397 2464 740 
Q 2681 1084 2681 1747 
Q 2681 2413 2464 2755 
Q 2247 3097 1831 3097 
Q 1416 3097 1203 2756 
Q 991 2416 991 1747 
z
" transform="scale(0.015625)"/>
       <path id="Menlo-Regular-45" d="M 616 4666 
L 3384 4666 
L 3384 4134 
L 1247 4134 
L 1247 2878 
L 3291 2878 
L 3291 2347 
L 1247 2347 
L 1247 531 
L 3444 531 
L 3444 0 
L 616 0 
L 616 4666 
z
" transform="scale(0.015625)"/>
       <path id="Menlo-Regular-7a" d="M 709 3506 
L 3250 3506 
L 3250 2981 
L 1241 469 
L 3250 469 
L 3250 0 
L 634 0 
L 634 531 
L 2644 3047 
L 709 3047 
L 709 3506 
z
" transform="scale(0.015625)"/>
      </defs>
      <use xlink:href="#Menlo-Regular-48"/>
      <use xlink:href="#Menlo-Regular-69" transform="translate(60.205078 0)"/>
      <use xlink:href="#Menlo-Regular-64" transform="translate(120.410156 0)"/>
      <use xlink:href="#Menlo-Regular-64" transform="translate(180.615234 0)"/>
      <use xlink:href="#Menlo-Regular-65" transform="translate(240.820312 0)"/>
      <use xlink:href="#Menlo-Regular-6e" transform="translate(301.025391 0)"/>
      <use xlink:href="#Menlo-Regular-20" transform="translate(361.230469 0)"/>
      <use xlink:href="#Menlo-Regular-45" transform="translate(421.435547 0)"/>
      <use xlink:href="#Menlo-Regular-20" transform="translate(481.640625 0)"/>
      <use xlink:href="#Menlo-Regular-72" transform="translate(541.845703 0)"/>
      <use xlink:href="#Menlo-Regular-61" transform="translate(602.050781 0)"/>
      <use xlink:href="#Menlo-Regular-74" transform="translate(662.255859 0)"/>
      <use xlink:href="#Menlo-Regular-65" transform="translate(722.460938 0)"/>
      <use xlink:href="#Menlo-Regular-20" transform="translate(782.666016 0)"/>
      <use xlink:href="#Menlo-Regular-28" transform="translate(842.871094 0)"/>
      <use xlink:href="#Menlo-Regular-48" transform="translate(903.076172 0)"/>
      <use xlink:href="#Menlo-Regular-7a" transform="translate(963.28125 0)"/>
      <use xlink:href="#Menlo-Regular-29" transform="translate(1023.486328 0)"/>
     </g>
    </g>
   </g>
   <g id="LineCollection_1">
    <path d="M 40.361165 176.878206 
L 40.361165 175.874465 
" clip-path="url(#pbe8689a3c5)" style="fill: none; stroke: #1a1a1a; stroke-width: 1.4"/>
    <path d="M 149.130645 175.594797 
L 149.130645 174.508628 
" clip-path="url(#pbe8689a3c5)" style="fill: none; stroke: #1a1a1a; stroke-width: 1.4"/>
    <path d="M 195.837253 165.345128 
L 195.837253 163.450107 
" clip-path="url(#pbe8689a3c5)" style="fill: none; stroke: #1a1a1a; stroke-width: 1.4"/>
    <path d="M 231.859433 137.946307 
L 231.859433 134.358629 
" clip-path="url(#pbe8689a3c5)" style="fill: none; stroke: #1a1a1a; stroke-width: 1.4"/>
    <path d="M 261.328021 105.301775 
L 261.328021 99.777974 
" clip-path="url(#pbe8689a3c5)" style="fill: none; stroke: #1a1a1a; stroke-width: 1.4"/>
    <path d="M 278.566041 88.691173 
L 278.566041 82.516473 
" clip-path="url(#pbe8689a3c5)" style="fill: none; stroke: #1a1a1a; stroke-width: 1.4"/>
    <path d="M 290.79661 79.406776 
L 290.79661 72.343979 
" clip-path="url(#pbe8689a3c5)" style="fill: none; stroke: #1a1a1a; stroke-width: 1.4"/>
    <path d="M 308.034629 65.901985 
L 308.034629 57.653241 
" clip-path="url(#pbe8689a3c5)" style="fill: none; stroke: #1a1a1a; stroke-width: 1.4"/>
    <path d="M 323.198374 52.303866 
L 323.198374 42.58121 
" clip-path="url(#pbe8689a3c5)" style="fill: none; stroke: #1a1a1a; stroke-width: 1.4"/>
    <path d="M 344.91571 23.132365 
L 344.91571 12.336388 
" clip-path="url(#pbe8689a3c5)" style="fill: none; stroke: #1a1a1a; stroke-width: 1.4"/>
   </g>
   <g id="line2d_12">
    <defs>
     <path id="m8448e2ef44" d="M 3 0 
L -3 -0 
" style="stroke: #1a1a1a"/>
    </defs>
    <g clip-path="url(#pbe8689a3c5)">
     <use xlink:href="#m8448e2ef44" x="40.361165" y="176.878206" style="fill: #1a1a1a; stroke: #1a1a1a"/>
     <use xlink:href="#m8448e2ef44" x="149.130645" y="175.594797" style="fill: #1a1a1a; stroke: #1a1a1a"/>
     <use xlink:href="#m8448e2ef44" x="195.837253" y="165.345128" style="fill: #1a1a1a; stroke: #1a1a1a"/>
     <use xlink:href="#m8448e2ef44" x="231.859433" y="137.946307" style="fill: #1a1a1a; stroke: #1a1a1a"/>
     <use xlink:href="#m8448e2ef44" x="261.328021" y="105.301775" style="fill: #1a1a1a; stroke: #1a1a1a"/>
     <use xlink:href="#m8448e2ef44" x="278.566041" y="88.691173" style="fill: #1a1a1a; stroke: #1a1a1a"/>
     <use xlink:href="#m8448e2ef44" x="290.79661" y="79.406776" style="fill: #1a1a1a; stroke: #1a1a1a"/>
     <use xlink:href="#m8448e2ef44" x="308.034629" y="65.901985" style="fill: #1a1a1a; stroke: #1a1a1a"/>
     <use xlink:href="#m8448e2ef44" x="323.198374" y="52.303866" style="fill: #1a1a1a; stroke: #1a1a1a"/>
     <use xlink:href="#m8448e2ef44" x="344.91571" y="23.132365" style="fill: #1a1a1a; stroke: #1a1a1a"/>
    </g>
   </g>
   <g id="line2d_13">
    <g clip-path="url(#pbe8689a3c5)">
     <use xlink:href="#m8448e2ef44" x="40.361165" y="175.874465" style="fill: #1a1a1a; stroke: #1a1a1a"/>
     <use xlink:href="#m8448e2ef44" x="149.130645" y="174.508628" style="fill: #1a1a1a; stroke: #1a1a1a"/>
     <use xlink:href="#m8448e2ef44" x="195.837253" y="163.450107" style="fill: #1a1a1a; stroke: #1a1a1a"/>
     <use xlink:href="#m8448e2ef44" x="231.859433" y="134.358629" style="fill: #1a1a1a; stroke: #1a1a1a"/>
     <use xlink:href="#m8448e2ef44" x="261.328021" y="99.777974" style="fill: #1a1a1a; stroke: #1a1a1a"/>
     <use xlink:href="#m8448e2ef44" x="278.566041" y="82.516473" style="fill: #1a1a1a; stroke: #1a1a1a"/>
     <use xlink:href="#m8448e2ef44" x="290.79661" y="72.343979" style="fill: #1a1a1a; stroke: #1a1a1a"/>
     <use xlink:href="#m8448e2ef44" x="308.034629" y="57.653241" style="fill: #1a1a1a; stroke: #1a1a1a"/>
     <use xlink:href="#m8448e2ef44" x="323.198374" y="42.58121" style="fill: #1a1a1a; stroke: #1a1a1a"/>
     <use xlink:href="#m8448e2ef44" x="344.91571" y="12.336388" style="fill: #1a1a1a; stroke: #1a1a1a"/>
    </g>
   </g>
   <g id="line2d_14">
    <path d="M 25.133438 176.376393 
L 360.143438 176.376393 
" clip-path="url(#pbe8689a3c5)" style="fill: none; stroke-dasharray: 2.59,1.12; stroke-dashoffset: 0; stroke: #666666; stroke-opacity: 0.7; stroke-width: 0.7"/>
   </g>
   <g id="line2d_15">
    <path d="M 25.133438 129.997093 
L 360.143438 129.997093 
" clip-path="url(#pbe8689a3c5)" style="fill: none; stroke-dasharray: 2.59,1.12; stroke-dashoffset: 0; stroke: #c8102e; stroke-opacity: 0.7; stroke-width: 0.7"/>
   </g>
   <g id="line2d_16">
    <path d="M 281.974837 185.105297 
L 281.974837 4.109297 
" clip-path="url(#pbe8689a3c5)" style="fill: none; stroke-dasharray: 0.7,1.155; stroke-dashoffset: 0; stroke: #6a6a6a; stroke-opacity: 0.8; stroke-width: 0.7"/>
   </g>
   <g id="line2d_17">
    <path d="M 40.361165 176.376335 
L 149.130645 175.051713 
L 195.837253 164.397618 
L 231.859433 136.152468 
L 261.328021 102.539874 
L 278.566041 85.603823 
L 290.79661 75.875377 
L 308.034629 61.777613 
L 323.198374 47.442538 
L 344.91571 17.734377 
" clip-path="url(#pbe8689a3c5)" style="fill: none; stroke: #1a1a1a; stroke-width: 1.4; stroke-linejoin: miter"/>
    <defs>
     <path id="mcfb2640b6c" d="M -0 4.242641 
L 4.242641 0 
L 0 -4.242641 
L -4.242641 -0 
z
" style="stroke: #1a1a1a; stroke-linejoin: miter"/>
    </defs>
    <g clip-path="url(#pbe8689a3c5)">
     <use xlink:href="#mcfb2640b6c" x="40.361165" y="176.376335" style="fill: #1a1a1a; stroke: #1a1a1a; stroke-linejoin: miter"/>
     <use xlink:href="#mcfb2640b6c" x="149.130645" y="175.051713" style="fill: #1a1a1a; stroke: #1a1a1a; stroke-linejoin: miter"/>
     <use xlink:href="#mcfb2640b6c" x="195.837253" y="164.397618" style="fill: #1a1a1a; stroke: #1a1a1a; stroke-linejoin: miter"/>
     <use xlink:href="#mcfb2640b6c" x="231.859433" y="136.152468" style="fill: #1a1a1a; stroke: #1a1a1a; stroke-linejoin: miter"/>
     <use xlink:href="#mcfb2640b6c" x="261.328021" y="102.539874" style="fill: #1a1a1a; stroke: #1a1a1a; stroke-linejoin: miter"/>
     <use xlink:href="#mcfb2640b6c" x="278.566041" y="85.603823" style="fill: #1a1a1a; stroke: #1a1a1a; stroke-linejoin: miter"/>
     <use xlink:href="#mcfb2640b6c" x="290.79661" y="75.875377" style="fill: #1a1a1a; stroke: #1a1a1a; stroke-linejoin: miter"/>
     <use xlink:href="#mcfb2640b6c" x="308.034629" y="61.777613" style="fill: #1a1a1a; stroke: #1a1a1a; stroke-linejoin: miter"/>
     <use xlink:href="#mcfb2640b6c" x="323.198374" y="47.442538" style="fill: #1a1a1a; stroke: #1a1a1a; stroke-linejoin: miter"/>
     <use xlink:href="#mcfb2640b6c" x="344.91571" y="17.734377" style="fill: #1a1a1a; stroke: #1a1a1a; stroke-linejoin: miter"/>
    </g>
   </g>
   <g id="patch_3">
    <path d="M 25.133438 185.105297 
L 25.133438 4.109297 
" style="fill: none; stroke: #1a1a1a; stroke-width: 0.8; stroke-linejoin: miter; stroke-linecap: square"/>
   </g>
   <g id="patch_4">
    <path d="M 360.143438 185.105297 
L 360.143438 4.109297 
" style="fill: none; stroke: #1a1a1a; stroke-width: 0.8; stroke-linejoin: miter; stroke-linecap: square"/>
   </g>
   <g id="patch_5">
    <path d="M 25.133438 185.105297 
L 360.143438 185.105297 
" style="fill: none; stroke: #1a1a1a; stroke-width: 0.8; stroke-linejoin: miter; stroke-linecap: square"/>
   </g>
   <g id="text_14">
    <!--   baseline ≈ 9.1 Hz -->
    <g style="fill: #666666" transform="translate(285.792578 173.915114) scale(0.065 -0.065)">
     <defs>
      <path id="Menlo-Regular-62" d="M 2869 1747 
Q 2869 2416 2656 2756 
Q 2444 3097 2028 3097 
Q 1609 3097 1393 2755 
Q 1178 2413 1178 1747 
Q 1178 1084 1393 740 
Q 1609 397 2028 397 
Q 2444 397 2656 737 
Q 2869 1078 2869 1747 
z
M 1178 3053 
Q 1316 3309 1558 3446 
Q 1800 3584 2119 3584 
Q 2750 3584 3112 3098 
Q 3475 2613 3475 1759 
Q 3475 894 3111 401 
Q 2747 -91 2113 -91 
Q 1800 -91 1561 45 
Q 1322 181 1178 441 
L 1178 0 
L 603 0 
L 603 4863 
L 1178 4863 
L 1178 3053 
z
" transform="scale(0.015625)"/>
      <path id="Menlo-Regular-2248" d="M 3578 3009 
L 3578 2463 
Q 3344 2278 3120 2192 
Q 2897 2106 2650 2106 
Q 2369 2106 2016 2266 
Q 1947 2297 1913 2309 
Q 1672 2416 1511 2453 
Q 1350 2491 1191 2491 
Q 944 2491 723 2398 
Q 503 2306 275 2106 
L 275 2650 
Q 519 2838 747 2923 
Q 975 3009 1234 3009 
Q 1400 3009 1556 2975 
Q 1713 2941 1947 2841 
Q 1978 2828 2047 2794 
Q 2409 2625 2700 2625 
Q 2919 2625 3133 2719 
Q 3347 2813 3578 3009 
z
M 3578 1863 
L 3578 1313 
Q 3344 1128 3120 1040 
Q 2897 953 2650 953 
Q 2369 953 2016 1113 
Q 1947 1144 1913 1159 
Q 1653 1272 1498 1308 
Q 1344 1344 1191 1344 
Q 947 1344 726 1250 
Q 506 1156 275 953 
L 275 1497 
Q 522 1691 750 1777 
Q 978 1863 1234 1863 
Q 1534 1863 1941 1691 
L 1944 1691 
Q 1978 1675 2047 1644 
Q 2409 1472 2700 1472 
Q 2913 1472 3128 1567 
Q 3344 1663 3578 1863 
z
" transform="scale(0.015625)"/>
      <path id="Menlo-Regular-39" d="M 1863 2069 
Q 2266 2069 2495 2359 
Q 2725 2650 2725 3163 
Q 2725 3675 2495 3965 
Q 2266 4256 1863 4256 
Q 1444 4256 1231 3979 
Q 1019 3703 1019 3163 
Q 1019 2619 1230 2344 
Q 1441 2069 1863 2069 
z
M 738 97 
L 738 678 
Q 934 563 1156 502 
Q 1378 441 1619 441 
Q 2219 441 2526 892 
Q 2834 1344 2834 2222 
Q 2688 1909 2422 1742 
Q 2156 1575 1813 1575 
Q 1138 1575 767 1990 
Q 397 2406 397 3169 
Q 397 3922 776 4336 
Q 1156 4750 1850 4750 
Q 2663 4750 3041 4165 
Q 3419 3581 3419 2328 
Q 3419 1150 2964 529 
Q 2509 -91 1644 -91 
Q 1416 -91 1184 -42 
Q 953 6 738 97 
z
" transform="scale(0.015625)"/>
      <path id="Menlo-Regular-2e" d="M 1216 1263 
L 2316 1263 
L 2316 0 
L 1216 0 
L 1216 1263 
z
" transform="scale(0.015625)"/>
     </defs>
     <use xlink:href="#Menlo-Regular-20"/>
     <use xlink:href="#Menlo-Regular-20" transform="translate(60.205078 0)"/>
     <use xlink:href="#Menlo-Regular-62" transform="translate(120.410156 0)"/>
     <use xlink:href="#Menlo-Regular-61" transform="translate(180.615234 0)"/>
     <use xlink:href="#Menlo-Regular-73" transform="translate(240.820312 0)"/>
     <use xlink:href="#Menlo-Regular-65" transform="translate(301.025391 0)"/>
     <use xlink:href="#Menlo-Regular-6c" transform="translate(361.230469 0)"/>
     <use xlink:href="#Menlo-Regular-69" transform="translate(421.435547 0)"/>
     <use xlink:href="#Menlo-Regular-6e" transform="translate(481.640625 0)"/>
     <use xlink:href="#Menlo-Regular-65" transform="translate(541.845703 0)"/>
     <use xlink:href="#Menlo-Regular-20" transform="translate(602.050781 0)"/>
     <use xlink:href="#Menlo-Regular-2248" transform="translate(662.255859 0)"/>
     <use xlink:href="#Menlo-Regular-20" transform="translate(722.460938 0)"/>
     <use xlink:href="#Menlo-Regular-39" transform="translate(782.666016 0)"/>
     <use xlink:href="#Menlo-Regular-2e" transform="translate(842.871094 0)"/>
     <use xlink:href="#Menlo-Regular-31" transform="translate(903.076172 0)"/>
     <use xlink:href="#Menlo-Regular-20" transform="translate(963.28125 0)"/>
     <use xlink:href="#Menlo-Regular-48" transform="translate(1023.486328 0)"/>
     <use xlink:href="#Menlo-Regular-7a" transform="translate(1083.691406 0)"/>
    </g>
   </g>
   <g id="text_15">
    <!--   full phase-shuffle ≈ 25.9 Hz -->
    <g style="fill: #c8102e" transform="translate(242.747344 127.535814) scale(0.065 -0.065)">
     <defs>
      <path id="Menlo-Regular-66" d="M 3322 4863 
L 3322 4384 
L 2669 4384 
Q 2359 4384 2239 4257 
Q 2119 4131 2119 3809 
L 2119 3500 
L 3322 3500 
L 3322 3053 
L 2119 3053 
L 2119 0 
L 1544 0 
L 1544 3053 
L 609 3053 
L 609 3500 
L 1544 3500 
L 1544 3744 
Q 1544 4319 1808 4591 
Q 2072 4863 2631 4863 
L 3322 4863 
z
" transform="scale(0.015625)"/>
      <path id="Menlo-Regular-75" d="M 609 1325 
L 609 3494 
L 1184 3494 
L 1184 1325 
Q 1184 853 1351 631 
Q 1519 409 1869 409 
Q 2275 409 2490 695 
Q 2706 981 2706 1516 
L 2706 3494 
L 3284 3494 
L 3284 0 
L 2706 0 
L 2706 525 
Q 2553 222 2289 65 
Q 2025 -91 1672 -91 
Q 1134 -91 871 261 
Q 609 613 609 1325 
z
" transform="scale(0.015625)"/>
      <path id="Menlo-Regular-70" d="M 1172 441 
L 1172 -1331 
L 594 -1331 
L 594 3500 
L 1172 3500 
L 1172 3053 
Q 1316 3313 1555 3448 
Q 1794 3584 2106 3584 
Q 2741 3584 3102 3093 
Q 3463 2603 3463 1734 
Q 3463 881 3100 395 
Q 2738 -91 2106 -91 
Q 1788 -91 1548 45 
Q 1309 181 1172 441 
z
M 2859 1747 
Q 2859 2416 2648 2756 
Q 2438 3097 2022 3097 
Q 1603 3097 1387 2755 
Q 1172 2413 1172 1747 
Q 1172 1084 1387 740 
Q 1603 397 2022 397 
Q 2438 397 2648 737 
Q 2859 1078 2859 1747 
z
" transform="scale(0.015625)"/>
     </defs>
     <use xlink:href="#Menlo-Regular-20"/>
     <use xlink:href="#Menlo-Regular-20" transform="translate(60.205078 0)"/>
     <use xlink:href="#Menlo-Regular-66" transform="translate(120.410156 0)"/>
     <use xlink:href="#Menlo-Regular-75" transform="translate(180.615234 0)"/>
     <use xlink:href="#Menlo-Regular-6c" transform="translate(240.820312 0)"/>
     <use xlink:href="#Menlo-Regular-6c" transform="translate(301.025391 0)"/>
     <use xlink:href="#Menlo-Regular-20" transform="translate(361.230469 0)"/>
     <use xlink:href="#Menlo-Regular-70" transform="translate(421.435547 0)"/>
     <use xlink:href="#Menlo-Regular-68" transform="translate(481.640625 0)"/>
     <use xlink:href="#Menlo-Regular-61" transform="translate(541.845703 0)"/>
     <use xlink:href="#Menlo-Regular-73" transform="translate(602.050781 0)"/>
     <use xlink:href="#Menlo-Regular-65" transform="translate(662.255859 0)"/>
     <use xlink:href="#Menlo-Regular-2d" transform="translate(722.460938 0)"/>
     <use xlink:href="#Menlo-Regular-73" transform="translate(782.666016 0)"/>
     <use xlink:href="#Menlo-Regular-68" transform="translate(842.871094 0)"/>
     <use xlink:href="#Menlo-Regular-75" transform="translate(903.076172 0)"/>
     <use xlink:href="#Menlo-Regular-66" transform="translate(963.28125 0)"/>
     <use xlink:href="#Menlo-Regular-66" transform="translate(1023.486328 0)"/>
     <use xlink:href="#Menlo-Regular-6c" transform="translate(1083.691406 0)"/>
     <use xlink:href="#Menlo-Regular-65" transform="translate(1143.896484 0)"/>
     <use xlink:href="#Menlo-Regular-20" transform="translate(1204.101562 0)"/>
     <use xlink:href="#Menlo-Regular-2248" transform="translate(1264.306641 0)"/>
     <use xlink:href="#Menlo-Regular-20" transform="translate(1324.511719 0)"/>
     <use xlink:href="#Menlo-Regular-32" transform="translate(1384.716797 0)"/>
     <use xlink:href="#Menlo-Regular-35" transform="translate(1444.921875 0)"/>
     <use xlink:href="#Menlo-Regular-2e" transform="translate(1505.126953 0)"/>
     <use xlink:href="#Menlo-Regular-39" transform="translate(1565.332031 0)"/>
     <use xlink:href="#Menlo-Regular-20" transform="translate(1625.537109 0)"/>
     <use xlink:href="#Menlo-Regular-48" transform="translate(1685.742188 0)"/>
     <use xlink:href="#Menlo-Regular-7a" transform="translate(1745.947266 0)"/>
    </g>
   </g>
   <g id="text_16">
    <!--  1/f_γ = 22.8 ms -->
    <g style="fill: #666666" transform="translate(281.974837 18.947192) scale(0.065 -0.065)">
     <defs>
      <path id="Menlo-Regular-2f" d="M 2778 4666 
L 3372 4666 
L 916 -594 
L 319 -594 
L 2778 4666 
z
" transform="scale(0.015625)"/>
      <path id="Menlo-Regular-5f" d="M 3825 -594 
L 3825 -1125 
L 0 -1125 
L 0 -594 
L 3825 -594 
z
" transform="scale(0.015625)"/>
      <path id="Menlo-Regular-3b3" d="M 688 2613 
Q 547 3006 253 3006 
L 100 3006 
L 100 3500 
L 319 3500 
Q 925 3500 1128 2950 
L 1925 809 
L 2944 3500 
L 3541 3500 
L 2225 0 
L 2225 -1331 
L 1631 -1331 
L 1631 0 
L 688 2613 
z
" transform="scale(0.015625)"/>
      <path id="Menlo-Regular-3d" d="M 275 1563 
L 3578 1563 
L 3578 1034 
L 275 1034 
L 275 1563 
z
M 275 3034 
L 3578 3034 
L 3578 2506 
L 275 2506 
L 275 3034 
z
" transform="scale(0.015625)"/>
      <path id="Menlo-Regular-38" d="M 1925 2216 
Q 1503 2216 1273 1980 
Q 1044 1744 1044 1313 
Q 1044 881 1276 642 
Q 1509 403 1925 403 
Q 2350 403 2579 639 
Q 2809 875 2809 1313 
Q 2809 1741 2576 1978 
Q 2344 2216 1925 2216 
z
M 1375 2478 
Q 972 2581 745 2862 
Q 519 3144 519 3541 
Q 519 4097 897 4423 
Q 1275 4750 1925 4750 
Q 2578 4750 2956 4423 
Q 3334 4097 3334 3541 
Q 3334 3144 3107 2862 
Q 2881 2581 2478 2478 
Q 2947 2375 3195 2062 
Q 3444 1750 3444 1253 
Q 3444 622 3041 265 
Q 2638 -91 1925 -91 
Q 1213 -91 811 264 
Q 409 619 409 1247 
Q 409 1747 657 2061 
Q 906 2375 1375 2478 
z
M 1147 3481 
Q 1147 3106 1347 2909 
Q 1547 2713 1925 2713 
Q 2306 2713 2506 2909 
Q 2706 3106 2706 3481 
Q 2706 3863 2507 4063 
Q 2309 4263 1925 4263 
Q 1547 4263 1347 4061 
Q 1147 3859 1147 3481 
z
" transform="scale(0.015625)"/>
     </defs>
     <use xlink:href="#Menlo-Regular-20"/>
     <use xlink:href="#Menlo-Regular-31" transform="translate(60.205078 0)"/>
     <use xlink:href="#Menlo-Regular-2f" transform="translate(120.410156 0)"/>
     <use xlink:href="#Menlo-Regular-66" transform="translate(180.615234 0)"/>
     <use xlink:href="#Menlo-Regular-5f" transform="translate(240.820312 0)"/>
     <use xlink:href="#Menlo-Regular-3b3" transform="translate(301.025391 0)"/>
     <use xlink:href="#Menlo-Regular-20" transform="translate(361.230469 0)"/>
     <use xlink:href="#Menlo-Regular-3d" transform="translate(421.435547 0)"/>
     <use xlink:href="#Menlo-Regular-20" transform="translate(481.640625 0)"/>
     <use xlink:href="#Menlo-Regular-32" transform="translate(541.845703 0)"/>
     <use xlink:href="#Menlo-Regular-32" transform="translate(602.050781 0)"/>
     <use xlink:href="#Menlo-Regular-2e" transform="translate(662.255859 0)"/>
     <use xlink:href="#Menlo-Regular-38" transform="translate(722.460938 0)"/>
     <use xlink:href="#Menlo-Regular-20" transform="translate(782.666016 0)"/>
     <use xlink:href="#Menlo-Regular-6d" transform="translate(842.871094 0)"/>
     <use xlink:href="#Menlo-Regular-73" transform="translate(903.076172 0)"/>
    </g>
   </g>
  </g>
  <g id="axes_2">
   <g id="matplotlib.axis_3">
    <g id="ytick_8">
     <g id="line2d_18">
      <defs>
       <path id="m16f0aae47b" d="M 0 0 
L -3 0 
" style="stroke: #1a1a1a; stroke-width: 0.8"/>
      </defs>
      <g>
       <use xlink:href="#m16f0aae47b" x="360.143438" y="185.105297" style="fill: #1a1a1a; stroke: #1a1a1a; stroke-width: 0.8"/>
      </g>
     </g>
     <g id="text_17">
      <!-- 0 -->
      <g style="fill: #c8102e" transform="translate(363.643438 187.774594) scale(0.07 -0.07)">
       <use xlink:href="#Menlo-Regular-30"/>
      </g>
     </g>
    </g>
    <g id="ytick_9">
     <g id="line2d_19">
      <g>
       <use xlink:href="#m16f0aae47b" x="360.143438" y="148.906097" style="fill: #1a1a1a; stroke: #1a1a1a; stroke-width: 0.8"/>
      </g>
     </g>
     <g id="text_18">
      <!-- 20 -->
      <g style="fill: #c8102e" transform="translate(363.643438 151.575394) scale(0.07 -0.07)">
       <use xlink:href="#Menlo-Regular-32"/>
       <use xlink:href="#Menlo-Regular-30" transform="translate(60.205078 0)"/>
      </g>
     </g>
    </g>
    <g id="ytick_10">
     <g id="line2d_20">
      <g>
       <use xlink:href="#m16f0aae47b" x="360.143438" y="112.706897" style="fill: #1a1a1a; stroke: #1a1a1a; stroke-width: 0.8"/>
      </g>
     </g>
     <g id="text_19">
      <!-- 40 -->
      <g style="fill: #c8102e" transform="translate(363.643438 115.376194) scale(0.07 -0.07)">
       <use xlink:href="#Menlo-Regular-34"/>
       <use xlink:href="#Menlo-Regular-30" transform="translate(60.205078 0)"/>
      </g>
     </g>
    </g>
    <g id="ytick_11">
     <g id="line2d_21">
      <g>
       <use xlink:href="#m16f0aae47b" x="360.143438" y="76.507697" style="fill: #1a1a1a; stroke: #1a1a1a; stroke-width: 0.8"/>
      </g>
     </g>
     <g id="text_20">
      <!-- 60 -->
      <g style="fill: #c8102e" transform="translate(363.643438 79.176994) scale(0.07 -0.07)">
       <use xlink:href="#Menlo-Regular-36"/>
       <use xlink:href="#Menlo-Regular-30" transform="translate(60.205078 0)"/>
      </g>
     </g>
    </g>
    <g id="ytick_12">
     <g id="line2d_22">
      <g>
       <use xlink:href="#m16f0aae47b" x="360.143438" y="40.308497" style="fill: #1a1a1a; stroke: #1a1a1a; stroke-width: 0.8"/>
      </g>
     </g>
     <g id="text_21">
      <!-- 80 -->
      <g style="fill: #c8102e" transform="translate(363.643438 42.977794) scale(0.07 -0.07)">
       <use xlink:href="#Menlo-Regular-38"/>
       <use xlink:href="#Menlo-Regular-30" transform="translate(60.205078 0)"/>
      </g>
     </g>
    </g>
    <g id="ytick_13">
     <g id="line2d_23">
      <g>
       <use xlink:href="#m16f0aae47b" x="360.143438" y="4.109297" style="fill: #1a1a1a; stroke: #1a1a1a; stroke-width: 0.8"/>
      </g>
     </g>
     <g id="text_22">
      <!-- 100 -->
      <g style="fill: #c8102e" transform="translate(363.643438 6.778594) scale(0.07 -0.07)">
       <use xlink:href="#Menlo-Regular-31"/>
       <use xlink:href="#Menlo-Regular-30" transform="translate(60.205078 0)"/>
       <use xlink:href="#Menlo-Regular-30" transform="translate(120.410156 0)"/>
      </g>
     </g>
    </g>
    <g id="text_23">
     <!-- Test accuracy (%) -->
     <g style="fill: #c8102e" transform="translate(386.747344 135.545422) rotate(-90) scale(0.08 -0.08)">
      <defs>
       <path id="Menlo-Regular-54" d="M 147 4666 
L 3706 4666 
L 3706 4134 
L 2247 4134 
L 2247 0 
L 1613 0 
L 1613 4134 
L 147 4134 
L 147 4666 
z
" transform="scale(0.015625)"/>
       <path id="Menlo-Regular-25" d="M 2175 997 
Q 2175 753 2339 587 
Q 2503 422 2747 422 
Q 2988 422 3155 589 
Q 3322 756 3322 997 
Q 3322 1238 3153 1406 
Q 2984 1575 2747 1575 
Q 2503 1575 2339 1409 
Q 2175 1244 2175 997 
z
M 1753 997 
Q 1753 1419 2040 1708 
Q 2328 1997 2747 1997 
Q 2947 1997 3126 1922 
Q 3306 1847 3450 1703 
Q 3594 1556 3672 1375 
Q 3750 1194 3750 997 
Q 3750 581 3459 290 
Q 3169 0 2747 0 
Q 2322 0 2037 286 
Q 1753 572 1753 997 
z
M 259 1375 
L 122 1728 
L 3606 3122 
L 3763 2769 
L 259 1375 
z
M 525 3475 
Q 525 3228 689 3064 
Q 853 2900 1100 2900 
Q 1341 2900 1509 3067 
Q 1678 3234 1678 3475 
Q 1678 3716 1509 3883 
Q 1341 4050 1100 4050 
Q 859 4050 692 3884 
Q 525 3719 525 3475 
z
M 103 3475 
Q 103 3897 390 4186 
Q 678 4475 1100 4475 
Q 1300 4475 1483 4400 
Q 1666 4325 1806 4184 
Q 1947 4044 2023 3861 
Q 2100 3678 2100 3475 
Q 2100 3056 1809 2767 
Q 1519 2478 1100 2478 
Q 678 2478 390 2765 
Q 103 3053 103 3475 
z
" transform="scale(0.015625)"/>
      </defs>
      <use xlink:href="#Menlo-Regular-54"/>
      <use xlink:href="#Menlo-Regular-65" transform="translate(60.205078 0)"/>
      <use xlink:href="#Menlo-Regular-73" transform="translate(120.410156 0)"/>
      <use xlink:href="#Menlo-Regular-74" transform="translate(180.615234 0)"/>
      <use xlink:href="#Menlo-Regular-20" transform="translate(240.820312 0)"/>
      <use xlink:href="#Menlo-Regular-61" transform="translate(301.025391 0)"/>
      <use xlink:href="#Menlo-Regular-63" transform="translate(361.230469 0)"/>
      <use xlink:href="#Menlo-Regular-63" transform="translate(421.435547 0)"/>
      <use xlink:href="#Menlo-Regular-75" transform="translate(481.640625 0)"/>
      <use xlink:href="#Menlo-Regular-72" transform="translate(541.845703 0)"/>
      <use xlink:href="#Menlo-Regular-61" transform="translate(602.050781 0)"/>
      <use xlink:href="#Menlo-Regular-63" transform="translate(662.255859 0)"/>
      <use xlink:href="#Menlo-Regular-79" transform="translate(722.460938 0)"/>
      <use xlink:href="#Menlo-Regular-20" transform="translate(782.666016 0)"/>
      <use xlink:href="#Menlo-Regular-28" transform="translate(842.871094 0)"/>
      <use xlink:href="#Menlo-Regular-25" transform="translate(903.076172 0)"/>
      <use xlink:href="#Menlo-Regular-29" transform="translate(963.28125 0)"/>
     </g>
    </g>
   </g>
   <g id="LineCollection_2">
    <path d="M 40.361165 20.488955 
L 40.361165 20.257206 
" clip-path="url(#pbe8689a3c5)" style="fill: none; stroke: #c8102e; stroke-width: 1.4"/>
    <path d="M 149.130645 21.667748 
L 149.130645 21.241746 
" clip-path="url(#pbe8689a3c5)" style="fill: none; stroke: #c8102e; stroke-width: 1.4"/>
    <path d="M 195.837253 25.161783 
L 195.837253 24.720366 
" clip-path="url(#pbe8689a3c5)" style="fill: none; stroke: #c8102e; stroke-width: 1.4"/>
    <path d="M 231.859433 29.803882 
L 231.859433 28.093804 
" clip-path="url(#pbe8689a3c5)" style="fill: none; stroke: #c8102e; stroke-width: 1.4"/>
    <path d="M 261.328021 33.167829 
L 261.328021 29.83222 
" clip-path="url(#pbe8689a3c5)" style="fill: none; stroke: #c8102e; stroke-width: 1.4"/>
    <path d="M 278.566041 34.923769 
L 278.566041 31.058406 
" clip-path="url(#pbe8689a3c5)" style="fill: none; stroke: #c8102e; stroke-width: 1.4"/>
    <path d="M 290.79661 35.73261 
L 290.79661 31.818197 
" clip-path="url(#pbe8689a3c5)" style="fill: none; stroke: #c8102e; stroke-width: 1.4"/>
    <path d="M 308.034629 36.745703 
L 308.034629 32.097932 
" clip-path="url(#pbe8689a3c5)" style="fill: none; stroke: #c8102e; stroke-width: 1.4"/>
    <path d="M 323.198374 37.983404 
L 323.198374 32.851187 
" clip-path="url(#pbe8689a3c5)" style="fill: none; stroke: #c8102e; stroke-width: 1.4"/>
    <path d="M 344.91571 40.071494 
L 344.91571 34.314066 
" clip-path="url(#pbe8689a3c5)" style="fill: none; stroke: #c8102e; stroke-width: 1.4"/>
   </g>
   <g id="line2d_24">
    <defs>
     <path id="mfeec1a856c" d="M 3 0 
L -3 -0 
" style="stroke: #c8102e"/>
    </defs>
    <g clip-path="url(#pbe8689a3c5)">
     <use xlink:href="#mfeec1a856c" x="40.361165" y="20.488955" style="fill: #c8102e; stroke: #c8102e"/>
     <use xlink:href="#mfeec1a856c" x="149.130645" y="21.667748" style="fill: #c8102e; stroke: #c8102e"/>
     <use xlink:href="#mfeec1a856c" x="195.837253" y="25.161783" style="fill: #c8102e; stroke: #c8102e"/>
     <use xlink:href="#mfeec1a856c" x="231.859433" y="29.803882" style="fill: #c8102e; stroke: #c8102e"/>
     <use xlink:href="#mfeec1a856c" x="261.328021" y="33.167829" style="fill: #c8102e; stroke: #c8102e"/>
     <use xlink:href="#mfeec1a856c" x="278.566041" y="34.923769" style="fill: #c8102e; stroke: #c8102e"/>
     <use xlink:href="#mfeec1a856c" x="290.79661" y="35.73261" style="fill: #c8102e; stroke: #c8102e"/>
     <use xlink:href="#mfeec1a856c" x="308.034629" y="36.745703" style="fill: #c8102e; stroke: #c8102e"/>
     <use xlink:href="#mfeec1a856c" x="323.198374" y="37.983404" style="fill: #c8102e; stroke: #c8102e"/>
     <use xlink:href="#mfeec1a856c" x="344.91571" y="40.071494" style="fill: #c8102e; stroke: #c8102e"/>
    </g>
   </g>
   <g id="line2d_25">
    <g clip-path="url(#pbe8689a3c5)">
     <use xlink:href="#mfeec1a856c" x="40.361165" y="20.257206" style="fill: #c8102e; stroke: #c8102e"/>
     <use xlink:href="#mfeec1a856c" x="149.130645" y="21.241746" style="fill: #c8102e; stroke: #c8102e"/>
     <use xlink:href="#mfeec1a856c" x="195.837253" y="24.720366" style="fill: #c8102e; stroke: #c8102e"/>
     <use xlink:href="#mfeec1a856c" x="231.859433" y="28.093804" style="fill: #c8102e; stroke: #c8102e"/>
     <use xlink:href="#mfeec1a856c" x="261.328021" y="29.83222" style="fill: #c8102e; stroke: #c8102e"/>
     <use xlink:href="#mfeec1a856c" x="278.566041" y="31.058406" style="fill: #c8102e; stroke: #c8102e"/>
     <use xlink:href="#mfeec1a856c" x="290.79661" y="31.818197" style="fill: #c8102e; stroke: #c8102e"/>
     <use xlink:href="#mfeec1a856c" x="308.034629" y="32.097932" style="fill: #c8102e; stroke: #c8102e"/>
     <use xlink:href="#mfeec1a856c" x="323.198374" y="32.851187" style="fill: #c8102e; stroke: #c8102e"/>
     <use xlink:href="#mfeec1a856c" x="344.91571" y="34.314066" style="fill: #c8102e; stroke: #c8102e"/>
    </g>
   </g>
   <g id="line2d_26">
    <path d="M 40.361165 20.37308 
L 149.130645 21.454747 
L 195.837253 24.941075 
L 231.859433 28.948843 
L 261.328021 31.500025 
L 278.566041 32.991087 
L 290.79661 33.775403 
L 308.034629 34.421817 
L 323.198374 35.417295 
L 344.91571 37.19278 
" clip-path="url(#pbe8689a3c5)" style="fill: none; stroke: #c8102e; stroke-width: 1.4; stroke-linejoin: miter"/>
    <defs>
     <path id="mbbb7bcb1d0" d="M -3 3 
L 3 3 
L 3 -3 
L -3 -3 
z
" style="stroke: #c8102e; stroke-linejoin: miter"/>
    </defs>
    <g clip-path="url(#pbe8689a3c5)">
     <use xlink:href="#mbbb7bcb1d0" x="40.361165" y="20.37308" style="fill: #c8102e; stroke: #c8102e; stroke-linejoin: miter"/>
     <use xlink:href="#mbbb7bcb1d0" x="149.130645" y="21.454747" style="fill: #c8102e; stroke: #c8102e; stroke-linejoin: miter"/>
     <use xlink:href="#mbbb7bcb1d0" x="195.837253" y="24.941075" style="fill: #c8102e; stroke: #c8102e; stroke-linejoin: miter"/>
     <use xlink:href="#mbbb7bcb1d0" x="231.859433" y="28.948843" style="fill: #c8102e; stroke: #c8102e; stroke-linejoin: miter"/>
     <use xlink:href="#mbbb7bcb1d0" x="261.328021" y="31.500025" style="fill: #c8102e; stroke: #c8102e; stroke-linejoin: miter"/>
     <use xlink:href="#mbbb7bcb1d0" x="278.566041" y="32.991087" style="fill: #c8102e; stroke: #c8102e; stroke-linejoin: miter"/>
     <use xlink:href="#mbbb7bcb1d0" x="290.79661" y="33.775403" style="fill: #c8102e; stroke: #c8102e; stroke-linejoin: miter"/>
     <use xlink:href="#mbbb7bcb1d0" x="308.034629" y="34.421817" style="fill: #c8102e; stroke: #c8102e; stroke-linejoin: miter"/>
     <use xlink:href="#mbbb7bcb1d0" x="323.198374" y="35.417295" style="fill: #c8102e; stroke: #c8102e; stroke-linejoin: miter"/>
     <use xlink:href="#mbbb7bcb1d0" x="344.91571" y="37.19278" style="fill: #c8102e; stroke: #c8102e; stroke-linejoin: miter"/>
    </g>
   </g>
   <g id="patch_6">
    <path d="M 25.133438 185.105297 
L 25.133438 4.109297 
" style="fill: none; stroke: #1a1a1a; stroke-width: 0.8; stroke-linejoin: miter; stroke-linecap: square"/>
   </g>
   <g id="patch_7">
    <path d="M 360.143438 185.105297 
L 360.143438 4.109297 
" style="fill: none; stroke: #1a1a1a; stroke-width: 0.8; stroke-linejoin: miter; stroke-linecap: square"/>
   </g>
   <g id="patch_8">
    <path d="M 25.133438 185.105297 
L 360.143438 185.105297 
" style="fill: none; stroke: #1a1a1a; stroke-width: 0.8; stroke-linejoin: miter; stroke-linecap: square"/>
   </g>
  </g>
  <g id="text_24">
   <!-- r007 -->
   <g style="fill: #888888" transform="translate(378.864625 214.2179) scale(0.065 -0.065)">
    <use xlink:href="#Menlo-Regular-72"/>
    <use xlink:href="#Menlo-Regular-30" transform="translate(60.205078 0)"/>
    <use xlink:href="#Menlo-Regular-30" transform="translate(120.410156 0)"/>
    <use xlink:href="#Menlo-Regular-37" transform="translate(180.615234 0)"/>
   </g>
  </g>
 </g>
 <defs>
  <clipPath id="pbe8689a3c5">
   <rect x="25.133438" y="4.109297" width="335.01" height="180.996"/>
  </clipPath>
 </defs>
</svg>
