<?xml version="1.0" encoding="utf-8" standalone="no"?>
<!DOCTYPE svg PUBLIC "-//W3C//DTD SVG 1.1//EN"
  "http://www.w3.org/Graphics/SVG/1.1/DTD/svg11.dtd">
<svg xmlns:xlink="http://www.w3.org/1999/xlink" width="395.957437pt" height="283.68pt" viewBox="0 0 395.957437 283.68" xmlns="http://www.w3.org/2000/svg" version="1.1">
 <metadata>
  <rdf:RDF xmlns:dc="http://purl.org/dc/elements/1.1/" xmlns:cc="http://creativecommons.org/ns#" xmlns:rdf="http://www.w3.org/1999/02/22-rdf-syntax-ns#">
   <cc:Work>
    <dc:type rdf:resource="http://purl.org/dc/dcmitype/StillImage"/>
    <dc:date>2026-07-12T14:09:10.031435</dc:date>
    <dc:format>image/svg+xml</dc:format>
    <dc:creator>
     <cc:Agent>
      <dc:title>Matplotlib v3.10.8, https://matplotlib.org/</dc:title>
     </cc:Agent>
    </dc:creator>
   </cc:Work>
  </rdf:RDF>
 </metadata>
 <defs>
  <style type="text/css">*{stroke-linejoin: round; stroke-linecap: butt}</style>
 </defs>
 <g id="figure_1">
  <g id="patch_1">
   <path d="M 0 283.68 
L 395.957437 283.68 
L 395.957437 0 
L 0 0 
z
" style="fill: #ffffff"/>
  </g>
  <g id="axes_1">
   <g id="patch_2">
    <path d="M 25.133438 253.14 
L 387.893438 253.14 
L 387.893438 21.6 
L 25.133438 21.6 
z
" style="fill: #ffffff"/>
   </g>
   <g id="matplotlib.axis_1">
    <g id="xtick_1">
     <g id="line2d_1">
      <path d="M 41.622528 253.14 
L 41.622528 21.6 
" clip-path="url(#pe313366478)" style="fill: none; stroke: #1a1a1a; stroke-opacity: 0.15; stroke-width: 0.4; stroke-linejoin: miter"/>
     </g>
     <g id="line2d_2">
      <defs>
       <path id="m7212d10af2" d="M 0 0 
L 0 -3 
" style="stroke: #1a1a1a; stroke-width: 0.8"/>
      </defs>
      <g>
       <use xlink:href="#m7212d10af2" x="41.622528" y="253.14" style="fill: #1a1a1a; stroke: #1a1a1a; stroke-width: 0.8"/>
      </g>
     </g>
     <g id="text_1">
      <!-- 0 -->
      <g style="fill: #1a1a1a" transform="translate(39.515419 261.978594) scale(0.07 -0.07)">
       <defs>
        <path id="Menlo-Regular-30" d="M 1925 4734 
Q 2672 4734 3055 4125 
Q 3438 3516 3438 2322 
Q 3438 1128 3055 518 
Q 2672 -91 1925 -91 
Q 1178 -91 797 518 
Q 416 1128 416 2322 
Q 416 3516 797 4125 
Q 1178 4734 1925 4734 
z
M 1925 409 
Q 2369 409 2586 881 
Q 2803 1353 2803 2322 
Q 2803 2838 2741 3253 
L 1253 925 
Q 1488 409 1925 409 
z
M 1925 4234 
Q 1484 4234 1267 3762 
Q 1050 3291 1050 2322 
Q 1050 1881 1109 1497 
L 2566 3819 
Q 2328 4234 1925 4234 
z
" transform="scale(0.015625)"/>
       </defs>
       <use xlink:href="#Menlo-Regular-30"/>
      </g>
     </g>
    </g>
    <g id="xtick_2">
     <g id="line2d_3">
      <path d="M 102.653249 253.14 
L 102.653249 21.6 
" clip-path="url(#pe313366478)" style="fill: none; stroke: #1a1a1a; stroke-opacity: 0.15; stroke-width: 0.4; stroke-linejoin: miter"/>
     </g>
     <g id="line2d_4">
      <g>
       <use xlink:href="#m7212d10af2" x="102.653249" y="253.14" style="fill: #1a1a1a; stroke: #1a1a1a; stroke-width: 0.8"/>
      </g>
     </g>
     <g id="text_2">
      <!-- 10 -->
      <g style="fill: #1a1a1a" transform="translate(98.43903 261.978594) scale(0.07 -0.07)">
       <defs>
        <path id="Menlo-Regular-31" d="M 844 528 
L 1825 528 
L 1825 4053 
L 650 3488 
L 650 4094 
L 1819 4650 
L 2450 4650 
L 2450 528 
L 3419 528 
L 3419 0 
L 844 0 
L 844 528 
z
" transform="scale(0.015625)"/>
       </defs>
       <use xlink:href="#Menlo-Regular-31"/>
       <use xlink:href="#Menlo-Regular-30" transform="translate(60.205078 0)"/>
      </g>
     </g>
    </g>
    <g id="xtick_3">
     <g id="line2d_5">
      <path d="M 163.683969 253.14 
L 163.683969 21.6 
" clip-path="url(#pe313366478)" style="fill: none; stroke: #1a1a1a; stroke-opacity: 0.15; stroke-width: 0.4; stroke-linejoin: miter"/>
     </g>
     <g id="line2d_6">
      <g>
       <use xlink:href="#m7212d10af2" x="163.683969" y="253.14" style="fill: #1a1a1a; stroke: #1a1a1a; stroke-width: 0.8"/>
      </g>
     </g>
     <g id="text_3">
      <!-- 20 -->
      <g style="fill: #1a1a1a" transform="translate(159.46975 261.978594) scale(0.07 -0.07)">
       <defs>
        <path id="Menlo-Regular-32" d="M 1166 531 
L 3309 531 
L 3309 0 
L 475 0 
L 475 531 
Q 1059 1147 1496 1619 
Q 1934 2091 2100 2284 
Q 2413 2666 2522 2902 
Q 2631 3138 2631 3384 
Q 2631 3775 2401 3997 
Q 2172 4219 1772 4219 
Q 1488 4219 1175 4116 
Q 863 4013 513 3803 
L 513 4441 
Q 834 4594 1145 4672 
Q 1456 4750 1759 4750 
Q 2444 4750 2861 4386 
Q 3278 4022 3278 3431 
Q 3278 3131 3139 2831 
Q 3000 2531 2688 2169 
Q 2513 1966 2180 1606 
Q 1847 1247 1166 531 
z
" transform="scale(0.015625)"/>
       </defs>
       <use xlink:href="#Menlo-Regular-32"/>
       <use xlink:href="#Menlo-Regular-30" transform="translate(60.205078 0)"/>
      </g>
     </g>
    </g>
    <g id="xtick_4">
     <g id="line2d_7">
      <path d="M 224.71469 253.14 
L 224.71469 21.6 
" clip-path="url(#pe313366478)" style="fill: none; stroke: #1a1a1a; stroke-opacity: 0.15; stroke-width: 0.4; stroke-linejoin: miter"/>
     </g>
     <g id="line2d_8">
      <g>
       <use xlink:href="#m7212d10af2" x="224.71469" y="253.14" style="fill: #1a1a1a; stroke: #1a1a1a; stroke-width: 0.8"/>
      </g>
     </g>
     <g id="text_4">
      <!-- 30 -->
      <g style="fill: #1a1a1a" transform="translate(220.500471 261.978594) scale(0.07 -0.07)">
       <defs>
        <path id="Menlo-Regular-33" d="M 2425 2497 
Q 2884 2375 3128 2064 
Q 3372 1753 3372 1288 
Q 3372 644 2939 276 
Q 2506 -91 1741 -91 
Q 1419 -91 1084 -31 
Q 750 28 428 141 
L 428 769 
Q 747 603 1056 522 
Q 1366 441 1672 441 
Q 2191 441 2469 675 
Q 2747 909 2747 1350 
Q 2747 1756 2469 1995 
Q 2191 2234 1716 2234 
L 1234 2234 
L 1234 2753 
L 1716 2753 
Q 2150 2753 2394 2943 
Q 2638 3134 2638 3475 
Q 2638 3834 2411 4026 
Q 2184 4219 1766 4219 
Q 1488 4219 1191 4156 
Q 894 4094 569 3969 
L 569 4550 
Q 947 4650 1242 4700 
Q 1538 4750 1766 4750 
Q 2447 4750 2855 4408 
Q 3263 4066 3263 3500 
Q 3263 3116 3048 2859 
Q 2834 2603 2425 2497 
z
" transform="scale(0.015625)"/>
       </defs>
       <use xlink:href="#Menlo-Regular-33"/>
       <use xlink:href="#Menlo-Regular-30" transform="translate(60.205078 0)"/>
      </g>
     </g>
    </g>
    <g id="xtick_5">
     <g id="line2d_9">
      <path d="M 285.74541 253.14 
L 285.74541 21.6 
" clip-path="url(#pe313366478)" style="fill: none; stroke: #1a1a1a; stroke-opacity: 0.15; stroke-width: 0.4; stroke-linejoin: miter"/>
     </g>
     <g id="line2d_10">
      <g>
       <use xlink:href="#m7212d10af2" x="285.74541" y="253.14" style="fill: #1a1a1a; stroke: #1a1a1a; stroke-width: 0.8"/>
      </g>
     </g>
     <g id="text_5">
      <!-- 40 -->
      <g style="fill: #1a1a1a" transform="translate(281.531191 261.978594) scale(0.07 -0.07)">
       <defs>
        <path id="Menlo-Regular-34" d="M 2297 4091 
L 825 1625 
L 2297 1625 
L 2297 4091 
z
M 2194 4666 
L 2925 4666 
L 2925 1625 
L 3547 1625 
L 3547 1113 
L 2925 1113 
L 2925 0 
L 2297 0 
L 2297 1113 
L 319 1113 
L 319 1709 
L 2194 4666 
z
" transform="scale(0.015625)"/>
       </defs>
       <use xlink:href="#Menlo-Regular-34"/>
       <use xlink:href="#Menlo-Regular-30" transform="translate(60.205078 0)"/>
      </g>
     </g>
    </g>
    <g id="xtick_6">
     <g id="line2d_11">
      <path d="M 346.77613 253.14 
L 346.77613 21.6 
" clip-path="url(#pe313366478)" style="fill: none; stroke: #1a1a1a; stroke-opacity: 0.15; stroke-width: 0.4; stroke-linejoin: miter"/>
     </g>
     <g id="line2d_12">
      <g>
       <use xlink:href="#m7212d10af2" x="346.77613" y="253.14" style="fill: #1a1a1a; stroke: #1a1a1a; stroke-width: 0.8"/>
      </g>
     </g>
     <g id="text_6">
      <!-- 50 -->
      <g style="fill: #1a1a1a" transform="translate(342.561912 261.978594) scale(0.07 -0.07)">
       <defs>
        <path id="Menlo-Regular-35" d="M 647 4666 
L 3009 4666 
L 3009 4134 
L 1222 4134 
L 1222 2988 
Q 1356 3038 1492 3061 
Q 1628 3084 1766 3084 
Q 2491 3084 2916 2656 
Q 3341 2228 3341 1497 
Q 3341 759 2895 334 
Q 2450 -91 1678 -91 
Q 1306 -91 998 -41 
Q 691 9 447 109 
L 447 750 
Q 734 594 1025 517 
Q 1316 441 1619 441 
Q 2141 441 2423 716 
Q 2706 991 2706 1497 
Q 2706 1997 2414 2275 
Q 2122 2553 1600 2553 
Q 1347 2553 1106 2495 
Q 866 2438 647 2322 
L 647 4666 
z
" transform="scale(0.015625)"/>
       </defs>
       <use xlink:href="#Menlo-Regular-35"/>
       <use xlink:href="#Menlo-Regular-30" transform="translate(60.205078 0)"/>
      </g>
     </g>
    </g>
    <g id="text_7">
     <!-- 1/f_γ  (ms) -->
     <g style="fill: #1a1a1a" transform="translate(180.024063 273.895625) scale(0.08 -0.08)">
      <defs>
       <path id="Menlo-Regular-2f" d="M 2778 4666 
L 3372 4666 
L 916 -594 
L 319 -594 
L 2778 4666 
z
" transform="scale(0.015625)"/>
       <path id="Menlo-Regular-66" d="M 3322 4863 
L 3322 4384 
L 2669 4384 
Q 2359 4384 2239 4257 
Q 2119 4131 2119 3809 
L 2119 3500 
L 3322 3500 
L 3322 3053 
L 2119 3053 
L 2119 0 
L 1544 0 
L 1544 3053 
L 609 3053 
L 609 3500 
L 1544 3500 
L 1544 3744 
Q 1544 4319 1808 4591 
Q 2072 4863 2631 4863 
L 3322 4863 
z
" transform="scale(0.015625)"/>
       <path id="Menlo-Regular-5f" d="M 3825 -594 
L 3825 -1125 
L 0 -1125 
L 0 -594 
L 3825 -594 
z
" transform="scale(0.015625)"/>
       <path id="Menlo-Regular-3b3" d="M 688 2613 
Q 547 3006 253 3006 
L 100 3006 
L 100 3500 
L 319 3500 
Q 925 3500 1128 2950 
L 1925 809 
L 2944 3500 
L 3541 3500 
L 2225 0 
L 2225 -1331 
L 1631 -1331 
L 1631 0 
L 688 2613 
z
" transform="scale(0.015625)"/>
       <path id="Menlo-Regular-20" transform="scale(0.015625)"/>
       <path id="Menlo-Regular-28" d="M 2672 5169 
Q 2256 4456 2051 3748 
Q 1847 3041 1847 2322 
Q 1847 1606 2051 897 
Q 2256 188 2672 -531 
L 2172 -531 
Q 1700 213 1469 917 
Q 1238 1622 1238 2322 
Q 1238 3019 1469 3725 
Q 1700 4431 2172 5169 
L 2672 5169 
z
" transform="scale(0.015625)"/>
       <path id="Menlo-Regular-6d" d="M 2113 3144 
Q 2219 3369 2383 3476 
Q 2547 3584 2778 3584 
Q 3200 3584 3373 3257 
Q 3547 2931 3547 2028 
L 3547 0 
L 3022 0 
L 3022 2003 
Q 3022 2744 2939 2923 
Q 2856 3103 2638 3103 
Q 2388 3103 2295 2911 
Q 2203 2719 2203 2003 
L 2203 0 
L 1678 0 
L 1678 2003 
Q 1678 2753 1589 2928 
Q 1500 3103 1269 3103 
Q 1041 3103 952 2911 
Q 863 2719 863 2003 
L 863 0 
L 341 0 
L 341 3500 
L 863 3500 
L 863 3200 
Q 966 3388 1120 3486 
Q 1275 3584 1472 3584 
Q 1709 3584 1867 3475 
Q 2025 3366 2113 3144 
z
" transform="scale(0.015625)"/>
       <path id="Menlo-Regular-73" d="M 3041 3378 
L 3041 2816 
Q 2794 2959 2544 3031 
Q 2294 3103 2034 3103 
Q 1644 3103 1451 2976 
Q 1259 2850 1259 2591 
Q 1259 2356 1403 2240 
Q 1547 2125 2119 2016 
L 2350 1972 
Q 2778 1891 2998 1647 
Q 3219 1403 3219 1013 
Q 3219 494 2850 201 
Q 2481 -91 1825 -91 
Q 1566 -91 1281 -36 
Q 997 19 666 128 
L 666 722 
Q 988 556 1281 473 
Q 1575 391 1838 391 
Q 2219 391 2428 545 
Q 2638 700 2638 978 
Q 2638 1378 1872 1531 
L 1847 1538 
L 1631 1581 
Q 1134 1678 906 1908 
Q 678 2138 678 2534 
Q 678 3038 1018 3311 
Q 1359 3584 1991 3584 
Q 2272 3584 2531 3532 
Q 2791 3481 3041 3378 
z
" transform="scale(0.015625)"/>
       <path id="Menlo-Regular-29" d="M 1088 5169 
L 1588 5169 
Q 2059 4431 2290 3725 
Q 2522 3019 2522 2322 
Q 2522 1619 2290 912 
Q 2059 206 1588 -531 
L 1088 -531 
Q 1503 194 1708 903 
Q 1913 1613 1913 2322 
Q 1913 3034 1708 3743 
Q 1503 4453 1088 5169 
z
" transform="scale(0.015625)"/>
      </defs>
      <use xlink:href="#Menlo-Regular-31"/>
      <use xlink:href="#Menlo-Regular-2f" transform="translate(60.205078 0)"/>
      <use xlink:href="#Menlo-Regular-66" transform="translate(120.410156 0)"/>
      <use xlink:href="#Menlo-Regular-5f" transform="translate(180.615234 0)"/>
      <use xlink:href="#Menlo-Regular-3b3" transform="translate(240.820312 0)"/>
      <use xlink:href="#Menlo-Regular-20" transform="translate(301.025391 0)"/>
      <use xlink:href="#Menlo-Regular-20" transform="translate(361.230469 0)"/>
      <use xlink:href="#Menlo-Regular-28" transform="translate(421.435547 0)"/>
      <use xlink:href="#Menlo-Regular-6d" transform="translate(481.640625 0)"/>
      <use xlink:href="#Menlo-Regular-73" transform="translate(541.845703 0)"/>
      <use xlink:href="#Menlo-Regular-29" transform="translate(602.050781 0)"/>
     </g>
    </g>
   </g>
   <g id="matplotlib.axis_2">
    <g id="ytick_1">
     <g id="line2d_13">
      <path d="M 25.133438 242.615455 
L 387.893438 242.615455 
" clip-path="url(#pe313366478)" style="fill: none; stroke: #1a1a1a; stroke-opacity: 0.15; stroke-width: 0.4; stroke-linejoin: miter"/>
     </g>
     <g id="line2d_14">
      <defs>
       <path id="m3989361dae" d="M 0 0 
L 3 0 
" style="stroke: #1a1a1a; stroke-width: 0.8"/>
      </defs>
      <g>
       <use xlink:href="#m3989361dae" x="25.133438" y="242.615455" style="fill: #1a1a1a; stroke: #1a1a1a; stroke-width: 0.8"/>
      </g>
     </g>
     <g id="text_8">
      <!-- 0 -->
      <g style="fill: #1a1a1a" transform="translate(17.419219 245.284751) scale(0.07 -0.07)">
       <use xlink:href="#Menlo-Regular-30"/>
      </g>
     </g>
    </g>
    <g id="ytick_2">
     <g id="line2d_15">
      <path d="M 25.133438 203.661179 
L 387.893438 203.661179 
" clip-path="url(#pe313366478)" style="fill: none; stroke: #1a1a1a; stroke-opacity: 0.15; stroke-width: 0.4; stroke-linejoin: miter"/>
     </g>
     <g id="line2d_16">
      <g>
       <use xlink:href="#m3989361dae" x="25.133438" y="203.661179" style="fill: #1a1a1a; stroke: #1a1a1a; stroke-width: 0.8"/>
      </g>
     </g>
     <g id="text_9">
      <!-- 10 -->
      <g style="fill: #1a1a1a" transform="translate(13.205 206.330476) scale(0.07 -0.07)">
       <use xlink:href="#Menlo-Regular-31"/>
       <use xlink:href="#Menlo-Regular-30" transform="translate(60.205078 0)"/>
      </g>
     </g>
    </g>
    <g id="ytick_3">
     <g id="line2d_17">
      <path d="M 25.133438 164.706903 
L 387.893438 164.706903 
" clip-path="url(#pe313366478)" style="fill: none; stroke: #1a1a1a; stroke-opacity: 0.15; stroke-width: 0.4; stroke-linejoin: miter"/>
     </g>
     <g id="line2d_18">
      <g>
       <use xlink:href="#m3989361dae" x="25.133438" y="164.706903" style="fill: #1a1a1a; stroke: #1a1a1a; stroke-width: 0.8"/>
      </g>
     </g>
     <g id="text_10">
      <!-- 20 -->
      <g style="fill: #1a1a1a" transform="translate(13.205 167.3762) scale(0.07 -0.07)">
       <use xlink:href="#Menlo-Regular-32"/>
       <use xlink:href="#Menlo-Regular-30" transform="translate(60.205078 0)"/>
      </g>
     </g>
    </g>
    <g id="ytick_4">
     <g id="line2d_19">
      <path d="M 25.133438 125.752628 
L 387.893438 125.752628 
" clip-path="url(#pe313366478)" style="fill: none; stroke: #1a1a1a; stroke-opacity: 0.15; stroke-width: 0.4; stroke-linejoin: miter"/>
     </g>
     <g id="line2d_20">
      <g>
       <use xlink:href="#m3989361dae" x="25.133438" y="125.752628" style="fill: #1a1a1a; stroke: #1a1a1a; stroke-width: 0.8"/>
      </g>
     </g>
     <g id="text_11">
      <!-- 30 -->
      <g style="fill: #1a1a1a" transform="translate(13.205 128.421925) scale(0.07 -0.07)">
       <use xlink:href="#Menlo-Regular-33"/>
       <use xlink:href="#Menlo-Regular-30" transform="translate(60.205078 0)"/>
      </g>
     </g>
    </g>
    <g id="ytick_5">
     <g id="line2d_21">
      <path d="M 25.133438 86.798352 
L 387.893438 86.798352 
" clip-path="url(#pe313366478)" style="fill: none; stroke: #1a1a1a; stroke-opacity: 0.15; stroke-width: 0.4; stroke-linejoin: miter"/>
     </g>
     <g id="line2d_22">
      <g>
       <use xlink:href="#m3989361dae" x="25.133438" y="86.798352" style="fill: #1a1a1a; stroke: #1a1a1a; stroke-width: 0.8"/>
      </g>
     </g>
     <g id="text_12">
      <!-- 40 -->
      <g style="fill: #1a1a1a" transform="translate(13.205 89.467649) scale(0.07 -0.07)">
       <use xlink:href="#Menlo-Regular-34"/>
       <use xlink:href="#Menlo-Regular-30" transform="translate(60.205078 0)"/>
      </g>
     </g>
    </g>
    <g id="ytick_6">
     <g id="line2d_23">
      <path d="M 25.133438 47.844077 
L 387.893438 47.844077 
" clip-path="url(#pe313366478)" style="fill: none; stroke: #1a1a1a; stroke-opacity: 0.15; stroke-width: 0.4; stroke-linejoin: miter"/>
     </g>
     <g id="line2d_24">
      <g>
       <use xlink:href="#m3989361dae" x="25.133438" y="47.844077" style="fill: #1a1a1a; stroke: #1a1a1a; stroke-width: 0.8"/>
      </g>
     </g>
     <g id="text_13">
      <!-- 50 -->
      <g style="fill: #1a1a1a" transform="translate(13.205 50.513374) scale(0.07 -0.07)">
       <use xlink:href="#Menlo-Regular-35"/>
       <use xlink:href="#Menlo-Regular-30" transform="translate(60.205078 0)"/>
      </g>
     </g>
    </g>
    <g id="text_14">
     <!-- Measured inflection σ  (ms) -->
     <g style="fill: #1a1a1a" transform="translate(7.54125 202.389375) rotate(-90) scale(0.08 -0.08)">
      <defs>
       <path id="Menlo-Regular-4d" d="M 113 4650 
L 956 4650 
L 1763 2281 
L 2575 4650 
L 3422 4650 
L 3422 0 
L 2838 0 
L 2838 4109 
L 2006 1659 
L 1528 1659 
L 694 4109 
L 694 0 
L 113 0 
L 113 4650 
z
" transform="scale(0.015625)"/>
       <path id="Menlo-Regular-65" d="M 3500 2038 
L 3500 1756 
L 1009 1756 
L 1009 1738 
Q 984 1022 1282 709 
Q 1581 397 2125 397 
Q 2400 397 2700 484 
Q 3000 572 3341 750 
L 3341 178 
Q 3013 44 2708 -23 
Q 2403 -91 2119 -91 
Q 1303 -91 843 398 
Q 384 888 384 1747 
Q 384 2584 834 3084 
Q 1284 3584 2034 3584 
Q 2703 3584 3089 3131 
Q 3475 2678 3500 2038 
z
M 2925 2206 
Q 2888 2569 2661 2833 
Q 2434 3097 2009 3097 
Q 1594 3097 1325 2822 
Q 1056 2547 1031 2203 
L 2925 2206 
z
" transform="scale(0.015625)"/>
       <path id="Menlo-Regular-61" d="M 2194 1759 
L 2003 1759 
Q 1500 1759 1245 1582 
Q 991 1406 991 1056 
Q 991 741 1181 566 
Q 1372 391 1709 391 
Q 2184 391 2456 720 
Q 2728 1050 2731 1631 
L 2731 1759 
L 2194 1759 
z
M 3309 1997 
L 3309 0 
L 2731 0 
L 2731 519 
Q 2547 206 2267 57 
Q 1988 -91 1588 -91 
Q 1053 -91 734 211 
Q 416 513 416 1019 
Q 416 1603 808 1906 
Q 1200 2209 1959 2209 
L 2731 2209 
L 2731 2300 
Q 2728 2719 2518 2908 
Q 2309 3097 1850 3097 
Q 1556 3097 1256 3012 
Q 956 2928 672 2766 
L 672 3341 
Q 991 3463 1283 3523 
Q 1575 3584 1850 3584 
Q 2284 3584 2592 3456 
Q 2900 3328 3091 3072 
Q 3209 2916 3259 2686 
Q 3309 2456 3309 1997 
z
" transform="scale(0.015625)"/>
       <path id="Menlo-Regular-75" d="M 609 1325 
L 609 3494 
L 1184 3494 
L 1184 1325 
Q 1184 853 1351 631 
Q 1519 409 1869 409 
Q 2275 409 2490 695 
Q 2706 981 2706 1516 
L 2706 3494 
L 3284 3494 
L 3284 0 
L 2706 0 
L 2706 525 
Q 2553 222 2289 65 
Q 2025 -91 1672 -91 
Q 1134 -91 871 261 
Q 609 613 609 1325 
z
" transform="scale(0.015625)"/>
       <path id="Menlo-Regular-72" d="M 3609 2778 
Q 3425 2922 3234 2987 
Q 3044 3053 2816 3053 
Q 2278 3053 1993 2715 
Q 1709 2378 1709 1741 
L 1709 0 
L 1131 0 
L 1131 3500 
L 1709 3500 
L 1709 2816 
Q 1853 3188 2151 3386 
Q 2450 3584 2859 3584 
Q 3072 3584 3256 3531 
Q 3441 3478 3609 3366 
L 3609 2778 
z
" transform="scale(0.015625)"/>
       <path id="Menlo-Regular-64" d="M 2681 3053 
L 2681 4863 
L 3256 4863 
L 3256 0 
L 2681 0 
L 2681 441 
Q 2538 181 2298 45 
Q 2059 -91 1747 -91 
Q 1113 -91 748 401 
Q 384 894 384 1759 
Q 384 2613 750 3098 
Q 1116 3584 1747 3584 
Q 2063 3584 2303 3448 
Q 2544 3313 2681 3053 
z
M 991 1747 
Q 991 1078 1203 737 
Q 1416 397 1831 397 
Q 2247 397 2464 740 
Q 2681 1084 2681 1747 
Q 2681 2413 2464 2755 
Q 2247 3097 1831 3097 
Q 1416 3097 1203 2756 
Q 991 2416 991 1747 
z
" transform="scale(0.015625)"/>
       <path id="Menlo-Regular-69" d="M 988 3488 
L 2459 3488 
L 2459 447 
L 3600 447 
L 3600 0 
L 744 0 
L 744 447 
L 1884 447 
L 1884 3041 
L 988 3041 
L 988 3488 
z
M 1884 4847 
L 2459 4847 
L 2459 4122 
L 1884 4122 
L 1884 4847 
z
" transform="scale(0.015625)"/>
       <path id="Menlo-Regular-6e" d="M 3284 2169 
L 3284 0 
L 2706 0 
L 2706 2169 
Q 2706 2641 2540 2862 
Q 2375 3084 2022 3084 
Q 1619 3084 1401 2798 
Q 1184 2513 1184 1978 
L 1184 0 
L 609 0 
L 609 3500 
L 1184 3500 
L 1184 2975 
Q 1338 3275 1600 3429 
Q 1863 3584 2222 3584 
Q 2756 3584 3020 3232 
Q 3284 2881 3284 2169 
z
" transform="scale(0.015625)"/>
       <path id="Menlo-Regular-6c" d="M 2247 1266 
Q 2247 878 2389 681 
Q 2531 484 2809 484 
L 3481 484 
L 3481 0 
L 2753 0 
Q 2238 0 1955 329 
Q 1672 659 1672 1266 
L 1672 4431 
L 750 4431 
L 750 4881 
L 2247 4881 
L 2247 1266 
z
" transform="scale(0.015625)"/>
       <path id="Menlo-Regular-63" d="M 3316 178 
Q 3084 44 2839 -23 
Q 2594 -91 2338 -91 
Q 1525 -91 1067 396 
Q 609 884 609 1747 
Q 609 2609 1067 3096 
Q 1525 3584 2338 3584 
Q 2591 3584 2831 3518 
Q 3072 3453 3316 3316 
L 3316 2713 
Q 3088 2916 2858 3006 
Q 2628 3097 2338 3097 
Q 1797 3097 1506 2747 
Q 1216 2397 1216 1747 
Q 1216 1100 1508 748 
Q 1800 397 2338 397 
Q 2638 397 2875 489 
Q 3113 581 3316 775 
L 3316 178 
z
" transform="scale(0.015625)"/>
       <path id="Menlo-Regular-74" d="M 1919 4494 
L 1919 3500 
L 3225 3500 
L 3225 3053 
L 1919 3053 
L 1919 1153 
Q 1919 766 2066 612 
Q 2213 459 2578 459 
L 3225 459 
L 3225 0 
L 2522 0 
Q 1875 0 1609 259 
Q 1344 519 1344 1153 
L 1344 3053 
L 409 3053 
L 409 3500 
L 1344 3500 
L 1344 4494 
L 1919 4494 
z
" transform="scale(0.015625)"/>
       <path id="Menlo-Regular-6f" d="M 1925 3097 
Q 1488 3097 1263 2756 
Q 1038 2416 1038 1747 
Q 1038 1081 1263 739 
Q 1488 397 1925 397 
Q 2366 397 2591 739 
Q 2816 1081 2816 1747 
Q 2816 2416 2591 2756 
Q 2366 3097 1925 3097 
z
M 1925 3584 
Q 2653 3584 3039 3112 
Q 3425 2641 3425 1747 
Q 3425 850 3040 379 
Q 2656 -91 1925 -91 
Q 1197 -91 812 379 
Q 428 850 428 1747 
Q 428 2641 812 3112 
Q 1197 3584 1925 3584 
z
" transform="scale(0.015625)"/>
       <path id="Menlo-Regular-3c3" d="M 1903 2922 
Q 1481 2922 1263 2672 
Q 1038 2413 1038 1747 
Q 1038 1081 1263 739 
Q 1488 397 1925 397 
Q 2366 397 2591 739 
Q 2816 1081 2816 1538 
Q 2816 2316 2278 2719 
Q 2091 2859 1903 2922 
z
M 2781 2925 
Q 3425 2419 3425 1538 
Q 3425 825 2953 303 
Q 2597 -94 1925 -91 
Q 1197 -91 812 379 
Q 428 850 428 1747 
Q 428 2575 813 3053 
Q 1172 3500 1925 3500 
L 3534 3500 
L 3534 2925 
L 2781 2925 
z
" transform="scale(0.015625)"/>
      </defs>
      <use xlink:href="#Menlo-Regular-4d"/>
      <use xlink:href="#Menlo-Regular-65" transform="translate(60.205078 0)"/>
      <use xlink:href="#Menlo-Regular-61" transform="translate(120.410156 0)"/>
      <use xlink:href="#Menlo-Regular-73" transform="translate(180.615234 0)"/>
      <use xlink:href="#Menlo-Regular-75" transform="translate(240.820312 0)"/>
      <use xlink:href="#Menlo-Regular-72" transform="translate(301.025391 0)"/>
      <use xlink:href="#Menlo-Regular-65" transform="translate(361.230469 0)"/>
      <use xlink:href="#Menlo-Regular-64" transform="translate(421.435547 0)"/>
      <use xlink:href="#Menlo-Regular-20" transform="translate(481.640625 0)"/>
      <use xlink:href="#Menlo-Regular-69" transform="translate(541.845703 0)"/>
      <use xlink:href="#Menlo-Regular-6e" transform="translate(602.050781 0)"/>
      <use xlink:href="#Menlo-Regular-66" transform="translate(662.255859 0)"/>
      <use xlink:href="#Menlo-Regular-6c" transform="translate(722.460938 0)"/>
      <use xlink:href="#Menlo-Regular-65" transform="translate(782.666016 0)"/>
      <use xlink:href="#Menlo-Regular-63" transform="translate(842.871094 0)"/>
      <use xlink:href="#Menlo-Regular-74" transform="translate(903.076172 0)"/>
      <use xlink:href="#Menlo-Regular-69" transform="translate(963.28125 0)"/>
      <use xlink:href="#Menlo-Regular-6f" transform="translate(1023.486328 0)"/>
      <use xlink:href="#Menlo-Regular-6e" transform="translate(1083.691406 0)"/>
      <use xlink:href="#Menlo-Regular-20" transform="translate(1143.896484 0)"/>
      <use xlink:href="#Menlo-Regular-3c3" transform="translate(1204.101562 0)"/>
      <use xlink:href="#Menlo-Regular-20" transform="translate(1264.306641 0)"/>
      <use xlink:href="#Menlo-Regular-20" transform="translate(1324.511719 0)"/>
      <use xlink:href="#Menlo-Regular-28" transform="translate(1384.716797 0)"/>
      <use xlink:href="#Menlo-Regular-6d" transform="translate(1444.921875 0)"/>
      <use xlink:href="#Menlo-Regular-73" transform="translate(1505.126953 0)"/>
      <use xlink:href="#Menlo-Regular-29" transform="translate(1565.332031 0)"/>
     </g>
    </g>
   </g>
   <g id="line2d_25">
    <path d="M 41.622528 242.615455 
L 44.953658 241.204251 
L 48.284787 239.793048 
L 51.615917 238.381845 
L 54.947046 236.970642 
L 58.278176 235.559439 
L 61.609305 234.148236 
L 64.940435 232.737033 
L 68.271564 231.32583 
L 71.602694 229.914627 
L 74.933823 228.503424 
L 78.264953 227.092221 
L 81.596082 225.681017 
L 84.927212 224.269814 
L 88.258341 222.858611 
L 91.589471 221.447408 
L 94.9206 220.036205 
L 98.25173 218.625002 
L 101.582859 217.213799 
L 104.913988 215.802596 
L 108.245118 214.391393 
L 111.576247 212.98019 
L 114.907377 211.568987 
L 118.238506 210.157783 
L 121.569636 208.74658 
L 124.900765 207.335377 
L 128.231895 205.924174 
L 131.563024 204.512971 
L 134.894154 203.101768 
L 138.225283 201.690565 
L 141.556413 200.279362 
L 144.887542 198.868159 
L 148.218672 197.456956 
L 151.549801 196.045753 
L 154.880931 194.634549 
L 158.21206 193.223346 
L 161.54319 191.812143 
L 164.874319 190.40094 
L 168.205449 188.989737 
L 171.536578 187.578534 
L 174.867707 186.167331 
L 178.198837 184.756128 
L 181.529966 183.344925 
L 184.861096 181.933722 
L 188.192225 180.522519 
L 191.523355 179.111315 
L 194.854484 177.700112 
L 198.185614 176.288909 
L 201.516743 174.877706 
L 204.847873 173.466503 
L 208.179002 172.0553 
L 211.510132 170.644097 
L 214.841261 169.232894 
L 218.172391 167.821691 
L 221.50352 166.410488 
L 224.83465 164.999285 
L 228.165779 163.588081 
L 231.496909 162.176878 
L 234.828038 160.765675 
L 238.159168 159.354472 
L 241.490297 157.943269 
L 244.821426 156.532066 
L 248.152556 155.120863 
L 251.483685 153.70966 
L 254.814815 152.298457 
L 258.145944 150.887254 
L 261.477074 149.47605 
L 264.808203 148.064847 
L 268.139333 146.653644 
L 271.470462 145.242441 
L 274.801592 143.831238 
L 278.132721 142.420035 
L 281.463851 141.008832 
L 284.79498 139.597629 
L 288.12611 138.186426 
L 291.457239 136.775223 
L 294.788369 135.36402 
L 298.119498 133.952816 
L 301.450628 132.541613 
L 304.781757 131.13041 
L 308.112887 129.719207 
L 311.444016 128.308004 
L 314.775145 126.896801 
L 318.106275 125.485598 
L 321.437404 124.074395 
L 324.768534 122.663192 
L 328.099663 121.251989 
L 331.430793 119.840786 
L 334.761922 118.429582 
L 338.093052 117.018379 
L 341.424181 115.607176 
L 344.755311 114.195973 
L 348.08644 112.78477 
L 351.41757 111.373567 
L 354.748699 109.962364 
L 358.079829 108.551161 
L 361.410958 107.139958 
L 364.742088 105.728755 
L 368.073217 104.317552 
L 371.404347 102.906348 
" clip-path="url(#pe313366478)" style="fill: none; stroke-dasharray: 4.44,1.92; stroke-dashoffset: 0; stroke: #c8102e; stroke-width: 1.2"/>
   </g>
   <g id="line2d_26">
    <path d="M 41.622528 242.615455 
L 44.953658 240.489284 
L 48.284787 238.363113 
L 51.615917 236.236942 
L 54.947046 234.110771 
L 58.278176 231.984601 
L 61.609305 229.85843 
L 64.940435 227.732259 
L 68.271564 225.606088 
L 71.602694 223.479917 
L 74.933823 221.353747 
L 78.264953 219.227576 
L 81.596082 217.101405 
L 84.927212 214.975234 
L 88.258341 212.849063 
L 91.589471 210.722893 
L 94.9206 208.596722 
L 98.25173 206.470551 
L 101.582859 204.34438 
L 104.913988 202.218209 
L 108.245118 200.092039 
L 111.576247 197.965868 
L 114.907377 195.839697 
L 118.238506 193.713526 
L 121.569636 191.587355 
L 124.900765 189.461185 
L 128.231895 187.335014 
L 131.563024 185.208843 
L 134.894154 183.082672 
L 138.225283 180.956501 
L 141.556413 178.830331 
L 144.887542 176.70416 
L 148.218672 174.577989 
L 151.549801 172.451818 
L 154.880931 170.325647 
L 158.21206 168.199477 
L 161.54319 166.073306 
L 164.874319 163.947135 
L 168.205449 161.820964 
L 171.536578 159.694793 
L 174.867707 157.568623 
L 178.198837 155.442452 
L 181.529966 153.316281 
L 184.861096 151.19011 
L 188.192225 149.063939 
L 191.523355 146.937769 
L 194.854484 144.811598 
L 198.185614 142.685427 
L 201.516743 140.559256 
L 204.847873 138.433085 
L 208.179002 136.306915 
L 211.510132 134.180744 
L 214.841261 132.054573 
L 218.172391 129.928402 
L 221.50352 127.802231 
L 224.83465 125.676061 
L 228.165779 123.54989 
L 231.496909 121.423719 
L 234.828038 119.297548 
L 238.159168 117.171377 
L 241.490297 115.045207 
L 244.821426 112.919036 
L 248.152556 110.792865 
L 251.483685 108.666694 
L 254.814815 106.540523 
L 258.145944 104.414353 
L 261.477074 102.288182 
L 264.808203 100.162011 
L 268.139333 98.03584 
L 271.470462 95.909669 
L 274.801592 93.783499 
L 278.132721 91.657328 
L 281.463851 89.531157 
L 284.79498 87.404986 
L 288.12611 85.278815 
L 291.457239 83.152645 
L 294.788369 81.026474 
L 298.119498 78.900303 
L 301.450628 76.774132 
L 304.781757 74.647961 
L 308.112887 72.521791 
L 311.444016 70.39562 
L 314.775145 68.269449 
L 318.106275 66.143278 
L 321.437404 64.017107 
L 324.768534 61.890937 
L 328.099663 59.764766 
L 331.430793 57.638595 
L 334.761922 55.512424 
L 338.093052 53.386253 
L 341.424181 51.260083 
L 344.755311 49.133912 
L 348.08644 47.007741 
L 351.41757 44.88157 
L 354.748699 42.755399 
L 358.079829 40.629229 
L 361.410958 38.503058 
L 364.742088 36.376887 
L 368.073217 34.250716 
L 371.404347 32.124545 
" clip-path="url(#pe313366478)" style="fill: none; stroke-dasharray: 0.8,1.32; stroke-dashoffset: 0; stroke: #6a6a6a; stroke-width: 0.8"/>
   </g>
   <g id="patch_3">
    <path d="M 25.133438 253.14 
L 25.133438 21.6 
" style="fill: none; stroke: #1a1a1a; stroke-width: 0.8; stroke-linejoin: miter; stroke-linecap: square"/>
   </g>
   <g id="patch_4">
    <path d="M 25.133438 253.14 
L 387.893438 253.14 
" style="fill: none; stroke: #1a1a1a; stroke-width: 0.8; stroke-linejoin: miter; stroke-linecap: square"/>
   </g>
   <g id="PathCollection_1">
    <defs>
     <path id="m5b12beb699" d="M 0 3.872983 
C 1.027127 3.872983 2.012324 3.464901 2.738613 2.738613 
C 3.464901 2.012324 3.872983 1.027127 3.872983 0 
C 3.872983 -1.027127 3.464901 -2.012324 2.738613 -2.738613 
C 2.012324 -3.464901 1.027127 -3.872983 0 -3.872983 
C -1.027127 -3.872983 -2.012324 -3.464901 -2.738613 -2.738613 
C -3.464901 -2.012324 -3.872983 -1.027127 -3.872983 0 
C -3.872983 1.027127 -3.464901 2.012324 -2.738613 2.738613 
C -2.012324 3.464901 -1.027127 3.872983 0 3.872983 
z
" style="stroke: #1a1a1a; stroke-width: 0.8"/>
    </defs>
    <g clip-path="url(#pe313366478)">
     <use xlink:href="#m5b12beb699" x="161.581145" y="188.464821" style="fill: #1a1a1a; stroke: #1a1a1a; stroke-width: 0.8"/>
     <use xlink:href="#m5b12beb699" x="176.675245" y="179.781684" style="fill: #1a1a1a; stroke: #1a1a1a; stroke-width: 0.8"/>
     <use xlink:href="#m5b12beb699" x="204.244003" y="166.522582" style="fill: #1a1a1a; stroke: #1a1a1a; stroke-width: 0.8"/>
     <use xlink:href="#m5b12beb699" x="224.900869" y="156.744568" style="fill: #1a1a1a; stroke: #1a1a1a; stroke-width: 0.8"/>
     <use xlink:href="#m5b12beb699" x="297.666431" y="139.24641" style="fill: #1a1a1a; stroke: #1a1a1a; stroke-width: 0.8"/>
     <use xlink:href="#m5b12beb699" x="341.424181" y="124.049253" style="fill: #1a1a1a; stroke: #1a1a1a; stroke-width: 0.8"/>
    </g>
   </g>
   <g id="legend_1">
    <g id="PathCollection_2">
     <g>
      <use xlink:href="#m5b12beb699" x="37.033438" y="31.401094" style="fill: #1a1a1a; stroke: #1a1a1a; stroke-width: 0.8"/>
     </g>
    </g>
    <g id="text_15">
     <!-- measured inflection σ -->
     <g style="fill: #1a1a1a" transform="translate(48.233438 33.238594) scale(0.07 -0.07)">
      <use xlink:href="#Menlo-Regular-6d"/>
      <use xlink:href="#Menlo-Regular-65" transform="translate(60.205078 0)"/>
      <use xlink:href="#Menlo-Regular-61" transform="translate(120.410156 0)"/>
      <use xlink:href="#Menlo-Regular-73" transform="translate(180.615234 0)"/>
      <use xlink:href="#Menlo-Regular-75" transform="translate(240.820312 0)"/>
      <use xlink:href="#Menlo-Regular-72" transform="translate(301.025391 0)"/>
      <use xlink:href="#Menlo-Regular-65" transform="translate(361.230469 0)"/>
      <use xlink:href="#Menlo-Regular-64" transform="translate(421.435547 0)"/>
      <use xlink:href="#Menlo-Regular-20" transform="translate(481.640625 0)"/>
      <use xlink:href="#Menlo-Regular-69" transform="translate(541.845703 0)"/>
      <use xlink:href="#Menlo-Regular-6e" transform="translate(602.050781 0)"/>
      <use xlink:href="#Menlo-Regular-66" transform="translate(662.255859 0)"/>
      <use xlink:href="#Menlo-Regular-6c" transform="translate(722.460938 0)"/>
      <use xlink:href="#Menlo-Regular-65" transform="translate(782.666016 0)"/>
      <use xlink:href="#Menlo-Regular-63" transform="translate(842.871094 0)"/>
      <use xlink:href="#Menlo-Regular-74" transform="translate(903.076172 0)"/>
      <use xlink:href="#Menlo-Regular-69" transform="translate(963.28125 0)"/>
      <use xlink:href="#Menlo-Regular-6f" transform="translate(1023.486328 0)"/>
      <use xlink:href="#Menlo-Regular-6e" transform="translate(1083.691406 0)"/>
      <use xlink:href="#Menlo-Regular-20" transform="translate(1143.896484 0)"/>
      <use xlink:href="#Menlo-Regular-3c3" transform="translate(1204.101562 0)"/>
     </g>
    </g>
    <g id="line2d_27">
     <path d="M 31.433438 41.397969 
L 37.033438 41.397969 
L 42.633438 41.397969 
" style="fill: none; stroke-dasharray: 4.44,1.92; stroke-dashoffset: 0; stroke: #c8102e; stroke-width: 1.2"/>
    </g>
    <g id="text_16">
     <!-- σ = α · (1/f_γ)  (α = 0.66, R² = 0.913) -->
     <g style="fill: #1a1a1a" transform="translate(48.233438 43.847969) scale(0.07 -0.07)">
      <defs>
       <path id="Menlo-Regular-3d" d="M 275 1563 
L 3578 1563 
L 3578 1034 
L 275 1034 
L 275 1563 
z
M 275 3034 
L 3578 3034 
L 3578 2506 
L 275 2506 
L 275 3034 
z
" transform="scale(0.015625)"/>
       <path id="Menlo-Regular-3b1" d="M 2394 1628 
L 2256 2350 
Q 2116 3088 1563 3091 
Q 1256 3094 1066 2747 
Q 825 2319 825 1747 
Q 825 1059 1056 731 
Q 1297 397 1563 397 
Q 1978 397 2203 1063 
L 2394 1628 
z
M 1563 3578 
Q 2531 3594 2716 2584 
L 3025 3500 
L 3538 3500 
L 2897 1603 
L 3022 919 
Q 3050 766 3159 638 
Q 3288 488 3388 488 
L 3663 488 
L 3663 0 
L 3319 0 
Q 3025 0 2763 263 
Q 2634 394 2581 669 
Q 2438 328 2150 50 
Q 2009 -81 1563 -78 
Q 944 -72 588 397 
Q 219 884 219 1747 
Q 219 2675 613 3097 
Q 1059 3569 1563 3578 
z
" transform="scale(0.015625)"/>
       <path id="Menlo-Regular-b7" d="M 1528 2700 
L 2316 2700 
L 2316 1747 
L 1528 1747 
L 1528 2700 
z
" transform="scale(0.015625)"/>
       <path id="Menlo-Regular-2e" d="M 1216 1263 
L 2316 1263 
L 2316 0 
L 1216 0 
L 1216 1263 
z
" transform="scale(0.015625)"/>
       <path id="Menlo-Regular-36" d="M 3097 4563 
L 3097 3981 
Q 2900 4097 2678 4158 
Q 2456 4219 2216 4219 
Q 1616 4219 1306 3767 
Q 997 3316 997 2438 
Q 1147 2750 1412 2917 
Q 1678 3084 2022 3084 
Q 2697 3084 3067 2670 
Q 3438 2256 3438 1497 
Q 3438 741 3056 325 
Q 2675 -91 1984 -91 
Q 1172 -91 794 492 
Q 416 1075 416 2328 
Q 416 3509 870 4129 
Q 1325 4750 2188 4750 
Q 2419 4750 2650 4701 
Q 2881 4653 3097 4563 
z
M 1972 2591 
Q 1569 2591 1337 2300 
Q 1106 2009 1106 1497 
Q 1106 984 1337 693 
Q 1569 403 1972 403 
Q 2391 403 2603 679 
Q 2816 956 2816 1497 
Q 2816 2041 2603 2316 
Q 2391 2591 1972 2591 
z
" transform="scale(0.015625)"/>
       <path id="Menlo-Regular-2c" d="M 1381 1128 
L 2356 1128 
L 2356 300 
L 1663 -1047 
L 1038 -1050 
L 1381 300 
L 1381 1128 
z
" transform="scale(0.015625)"/>
       <path id="Menlo-Regular-52" d="M 2375 2203 
Q 2619 2141 2791 1967 
Q 2963 1794 3219 1275 
L 3853 0 
L 3175 0 
L 2619 1178 
Q 2378 1681 2186 1826 
Q 1994 1972 1684 1972 
L 1081 1972 
L 1081 0 
L 447 0 
L 447 4666 
L 1747 4666 
Q 2516 4666 2925 4319 
Q 3334 3972 3334 3316 
Q 3334 2853 3082 2561 
Q 2831 2269 2375 2203 
z
M 1081 4147 
L 1081 2491 
L 1772 2491 
Q 2225 2491 2447 2694 
Q 2669 2897 2669 3316 
Q 2669 3719 2433 3933 
Q 2197 4147 1747 4147 
L 1081 4147 
z
" transform="scale(0.015625)"/>
       <path id="Menlo-Regular-b2" d="M 1509 2444 
L 2791 2444 
L 2791 2088 
L 1006 2088 
L 1006 2431 
L 1728 3138 
Q 2044 3441 2170 3631 
Q 2297 3822 2297 3981 
Q 2297 4172 2140 4290 
Q 1984 4409 1728 4409 
Q 1575 4409 1398 4353 
Q 1222 4297 1025 4184 
L 1025 4575 
Q 1228 4663 1417 4706 
Q 1606 4750 1791 4750 
Q 2234 4750 2503 4542 
Q 2772 4334 2772 4000 
Q 2772 3822 2656 3636 
Q 2541 3450 2169 3084 
L 1509 2444 
z
" transform="scale(0.015625)"/>
       <path id="Menlo-Regular-39" d="M 1863 2069 
Q 2266 2069 2495 2359 
Q 2725 2650 2725 3163 
Q 2725 3675 2495 3965 
Q 2266 4256 1863 4256 
Q 1444 4256 1231 3979 
Q 1019 3703 1019 3163 
Q 1019 2619 1230 2344 
Q 1441 2069 1863 2069 
z
M 738 97 
L 738 678 
Q 934 563 1156 502 
Q 1378 441 1619 441 
Q 2219 441 2526 892 
Q 2834 1344 2834 2222 
Q 2688 1909 2422 1742 
Q 2156 1575 1813 1575 
Q 1138 1575 767 1990 
Q 397 2406 397 3169 
Q 397 3922 776 4336 
Q 1156 4750 1850 4750 
Q 2663 4750 3041 4165 
Q 3419 3581 3419 2328 
Q 3419 1150 2964 529 
Q 2509 -91 1644 -91 
Q 1416 -91 1184 -42 
Q 953 6 738 97 
z
" transform="scale(0.015625)"/>
      </defs>
      <use xlink:href="#Menlo-Regular-3c3"/>
      <use xlink:href="#Menlo-Regular-20" transform="translate(60.205078 0)"/>
      <use xlink:href="#Menlo-Regular-3d" transform="translate(120.410156 0)"/>
      <use xlink:href="#Menlo-Regular-20" transform="translate(180.615234 0)"/>
      <use xlink:href="#Menlo-Regular-3b1" transform="translate(240.820312 0)"/>
      <use xlink:href="#Menlo-Regular-20" transform="translate(301.025391 0)"/>
      <use xlink:href="#Menlo-Regular-b7" transform="translate(361.230469 0)"/>
      <use xlink:href="#Menlo-Regular-20" transform="translate(421.435547 0)"/>
      <use xlink:href="#Menlo-Regular-28" transform="translate(481.640625 0)"/>
      <use xlink:href="#Menlo-Regular-31" transform="translate(541.845703 0)"/>
      <use xlink:href="#Menlo-Regular-2f" transform="translate(602.050781 0)"/>
      <use xlink:href="#Menlo-Regular-66" transform="translate(662.255859 0)"/>
      <use xlink:href="#Menlo-Regular-5f" transform="translate(722.460938 0)"/>
      <use xlink:href="#Menlo-Regular-3b3" transform="translate(782.666016 0)"/>
      <use xlink:href="#Menlo-Regular-29" transform="translate(842.871094 0)"/>
      <use xlink:href="#Menlo-Regular-20" transform="translate(903.076172 0)"/>
      <use xlink:href="#Menlo-Regular-20" transform="translate(963.28125 0)"/>
      <use xlink:href="#Menlo-Regular-28" transform="translate(1023.486328 0)"/>
      <use xlink:href="#Menlo-Regular-3b1" transform="translate(1083.691406 0)"/>
      <use xlink:href="#Menlo-Regular-20" transform="translate(1143.896484 0)"/>
      <use xlink:href="#Menlo-Regular-3d" transform="translate(1204.101562 0)"/>
      <use xlink:href="#Menlo-Regular-20" transform="translate(1264.306641 0)"/>
      <use xlink:href="#Menlo-Regular-30" transform="translate(1324.511719 0)"/>
      <use xlink:href="#Menlo-Regular-2e" transform="translate(1384.716797 0)"/>
      <use xlink:href="#Menlo-Regular-36" transform="translate(1444.921875 0)"/>
      <use xlink:href="#Menlo-Regular-36" transform="translate(1505.126953 0)"/>
      <use xlink:href="#Menlo-Regular-2c" transform="translate(1565.332031 0)"/>
      <use xlink:href="#Menlo-Regular-20" transform="translate(1625.537109 0)"/>
      <use xlink:href="#Menlo-Regular-52" transform="translate(1685.742188 0)"/>
      <use xlink:href="#Menlo-Regular-b2" transform="translate(1745.947266 0)"/>
      <use xlink:href="#Menlo-Regular-20" transform="translate(1806.152344 0)"/>
      <use xlink:href="#Menlo-Regular-3d" transform="translate(1866.357422 0)"/>
      <use xlink:href="#Menlo-Regular-20" transform="translate(1926.5625 0)"/>
      <use xlink:href="#Menlo-Regular-30" transform="translate(1986.767578 0)"/>
      <use xlink:href="#Menlo-Regular-2e" transform="translate(2046.972656 0)"/>
      <use xlink:href="#Menlo-Regular-39" transform="translate(2107.177734 0)"/>
      <use xlink:href="#Menlo-Regular-31" transform="translate(2167.382812 0)"/>
      <use xlink:href="#Menlo-Regular-33" transform="translate(2227.587891 0)"/>
      <use xlink:href="#Menlo-Regular-29" transform="translate(2287.792969 0)"/>
     </g>
    </g>
    <g id="line2d_28">
     <path d="M 31.433438 51.692344 
L 37.033438 51.692344 
L 42.633438 51.692344 
" style="fill: none; stroke-dasharray: 0.8,1.32; stroke-dashoffset: 0; stroke: #6a6a6a; stroke-width: 0.8"/>
    </g>
    <g id="text_17">
     <!-- predicted: σ = 1/f_γ -->
     <g style="fill: #1a1a1a" transform="translate(48.233438 54.142344) scale(0.07 -0.07)">
      <defs>
       <path id="Menlo-Regular-70" d="M 1172 441 
L 1172 -1331 
L 594 -1331 
L 594 3500 
L 1172 3500 
L 1172 3053 
Q 1316 3313 1555 3448 
Q 1794 3584 2106 3584 
Q 2741 3584 3102 3093 
Q 3463 2603 3463 1734 
Q 3463 881 3100 395 
Q 2738 -91 2106 -91 
Q 1788 -91 1548 45 
Q 1309 181 1172 441 
z
M 2859 1747 
Q 2859 2416 2648 2756 
Q 2438 3097 2022 3097 
Q 1603 3097 1387 2755 
Q 1172 2413 1172 1747 
Q 1172 1084 1387 740 
Q 1603 397 2022 397 
Q 2438 397 2648 737 
Q 2859 1078 2859 1747 
z
" transform="scale(0.015625)"/>
       <path id="Menlo-Regular-3a" d="M 1341 3497 
L 2316 3497 
L 2316 2369 
L 1341 2369 
L 1341 3497 
z
M 1341 1138 
L 2316 1138 
L 2316 0 
L 1341 0 
L 1341 1138 
z
" transform="scale(0.015625)"/>
      </defs>
      <use xlink:href="#Menlo-Regular-70"/>
      <use xlink:href="#Menlo-Regular-72" transform="translate(60.205078 0)"/>
      <use xlink:href="#Menlo-Regular-65" transform="translate(120.410156 0)"/>
      <use xlink:href="#Menlo-Regular-64" transform="translate(180.615234 0)"/>
      <use xlink:href="#Menlo-Regular-69" transform="translate(240.820312 0)"/>
      <use xlink:href="#Menlo-Regular-63" transform="translate(301.025391 0)"/>
      <use xlink:href="#Menlo-Regular-74" transform="translate(361.230469 0)"/>
      <use xlink:href="#Menlo-Regular-65" transform="translate(421.435547 0)"/>
      <use xlink:href="#Menlo-Regular-64" transform="translate(481.640625 0)"/>
      <use xlink:href="#Menlo-Regular-3a" transform="translate(541.845703 0)"/>
      <use xlink:href="#Menlo-Regular-20" transform="translate(602.050781 0)"/>
      <use xlink:href="#Menlo-Regular-3c3" transform="translate(662.255859 0)"/>
      <use xlink:href="#Menlo-Regular-20" transform="translate(722.460938 0)"/>
      <use xlink:href="#Menlo-Regular-3d" transform="translate(782.666016 0)"/>
      <use xlink:href="#Menlo-Regular-20" transform="translate(842.871094 0)"/>
      <use xlink:href="#Menlo-Regular-31" transform="translate(903.076172 0)"/>
      <use xlink:href="#Menlo-Regular-2f" transform="translate(963.28125 0)"/>
      <use xlink:href="#Menlo-Regular-66" transform="translate(1023.486328 0)"/>
      <use xlink:href="#Menlo-Regular-5f" transform="translate(1083.691406 0)"/>
      <use xlink:href="#Menlo-Regular-3b3" transform="translate(1143.896484 0)"/>
     </g>
    </g>
   </g>
  </g>
  <g id="text_18">
   <!-- Inflection σ tracks 1/f_γ across τ_GABA -->
   <g transform="translate(95.146758 7.922578) scale(0.085 -0.085)">
    <defs>
     <path id="Menlo-Regular-49" d="M 628 4666 
L 3219 4666 
L 3219 4134 
L 2241 4134 
L 2241 531 
L 3219 531 
L 3219 0 
L 628 0 
L 628 531 
L 1606 531 
L 1606 4134 
L 628 4134 
L 628 4666 
z
" transform="scale(0.015625)"/>
     <path id="Menlo-Regular-6b" d="M 738 4863 
L 1331 4863 
L 1331 2047 
L 2841 3500 
L 3541 3500 
L 2163 2181 
L 3756 0 
L 3053 0 
L 1759 1806 
L 1331 1403 
L 1331 0 
L 738 0 
L 738 4863 
z
" transform="scale(0.015625)"/>
     <path id="Menlo-Regular-3c4" d="M 2319 638 
Q 2431 488 2769 488 
L 3047 488 
L 3047 0 
L 2700 0 
Q 2138 0 1881 300 
Q 1625 606 1625 1269 
L 1625 2925 
L 500 2925 
L 500 3494 
L 3356 3494 
L 3356 2925 
L 2213 2925 
L 2213 1234 
Q 2213 781 2319 638 
z
" transform="scale(0.015625)"/>
     <path id="Menlo-Regular-47" d="M 3450 384 
Q 3197 150 2880 29 
Q 2563 -91 2194 -91 
Q 1306 -91 812 545 
Q 319 1181 319 2328 
Q 319 3472 819 4111 
Q 1319 4750 2209 4750 
Q 2503 4750 2772 4667 
Q 3041 4584 3291 4416 
L 3291 3769 
Q 3038 4009 2772 4123 
Q 2506 4238 2209 4238 
Q 1594 4238 1286 3761 
Q 978 3284 978 2328 
Q 978 1356 1276 889 
Q 1575 422 2194 422 
Q 2403 422 2561 470 
Q 2719 519 2847 622 
L 2847 1875 
L 2169 1875 
L 2169 2394 
L 3450 2394 
L 3450 384 
z
" transform="scale(0.015625)"/>
     <path id="Menlo-Regular-41" d="M 1925 4109 
L 1259 1722 
L 2591 1722 
L 1925 4109 
z
M 1544 4666 
L 2309 4666 
L 3738 0 
L 3084 0 
L 2741 1216 
L 1106 1216 
L 769 0 
L 116 0 
L 1544 4666 
z
" transform="scale(0.015625)"/>
     <path id="Menlo-Regular-42" d="M 1153 2353 
L 1153 519 
L 1900 519 
Q 2450 519 2684 711 
Q 2919 903 2919 1344 
Q 2919 1925 2672 2139 
Q 2425 2353 1900 2353 
L 1153 2353 
z
M 1153 4147 
L 1153 2866 
L 1888 2866 
Q 2344 2866 2548 3041 
Q 2753 3216 2753 3481 
Q 2753 3834 2551 3990 
Q 2350 4147 1888 4147 
L 1153 4147 
z
M 519 4666 
L 1900 4666 
Q 2616 4666 3003 4356 
Q 3391 4047 3391 3481 
Q 3391 3178 3186 2931 
Q 2981 2684 2572 2622 
Q 3031 2553 3292 2229 
Q 3553 1906 3553 1281 
Q 3553 647 3137 323 
Q 2722 0 1900 0 
L 519 0 
L 519 4666 
z
" transform="scale(0.015625)"/>
    </defs>
    <use xlink:href="#Menlo-Regular-49"/>
    <use xlink:href="#Menlo-Regular-6e" transform="translate(60.205078 0)"/>
    <use xlink:href="#Menlo-Regular-66" transform="translate(120.410156 0)"/>
    <use xlink:href="#Menlo-Regular-6c" transform="translate(180.615234 0)"/>
    <use xlink:href="#Menlo-Regular-65" transform="translate(240.820312 0)"/>
    <use xlink:href="#Menlo-Regular-63" transform="translate(301.025391 0)"/>
    <use xlink:href="#Menlo-Regular-74" transform="translate(361.230469 0)"/>
    <use xlink:href="#Menlo-Regular-69" transform="translate(421.435547 0)"/>
    <use xlink:href="#Menlo-Regular-6f" transform="translate(481.640625 0)"/>
    <use xlink:href="#Menlo-Regular-6e" transform="translate(541.845703 0)"/>
    <use xlink:href="#Menlo-Regular-20" transform="translate(602.050781 0)"/>
    <use xlink:href="#Menlo-Regular-3c3" transform="translate(662.255859 0)"/>
    <use xlink:href="#Menlo-Regular-20" transform="translate(722.460938 0)"/>
    <use xlink:href="#Menlo-Regular-74" transform="translate(782.666016 0)"/>
    <use xlink:href="#Menlo-Regular-72" transform="translate(842.871094 0)"/>
    <use xlink:href="#Menlo-Regular-61" transform="translate(903.076172 0)"/>
    <use xlink:href="#Menlo-Regular-63" transform="translate(963.28125 0)"/>
    <use xlink:href="#Menlo-Regular-6b" transform="translate(1023.486328 0)"/>
    <use xlink:href="#Menlo-Regular-73" transform="translate(1083.691406 0)"/>
    <use xlink:href="#Menlo-Regular-20" transform="translate(1143.896484 0)"/>
    <use xlink:href="#Menlo-Regular-31" transform="translate(1204.101562 0)"/>
    <use xlink:href="#Menlo-Regular-2f" transform="translate(1264.306641 0)"/>
    <use xlink:href="#Menlo-Regular-66" transform="translate(1324.511719 0)"/>
    <use xlink:href="#Menlo-Regular-5f" transform="translate(1384.716797 0)"/>
    <use xlink:href="#Menlo-Regular-3b3" transform="translate(1444.921875 0)"/>
    <use xlink:href="#Menlo-Regular-20" transform="translate(1505.126953 0)"/>
    <use xlink:href="#Menlo-Regular-61" transform="translate(1565.332031 0)"/>
    <use xlink:href="#Menlo-Regular-63" transform="translate(1625.537109 0)"/>
    <use xlink:href="#Menlo-Regular-72" transform="translate(1685.742188 0)"/>
    <use xlink:href="#Menlo-Regular-6f" transform="translate(1745.947266 0)"/>
    <use xlink:href="#Menlo-Regular-73" transform="translate(1806.152344 0)"/>
    <use xlink:href="#Menlo-Regular-73" transform="translate(1866.357422 0)"/>
    <use xlink:href="#Menlo-Regular-20" transform="translate(1926.5625 0)"/>
    <use xlink:href="#Menlo-Regular-3c4" transform="translate(1986.767578 0)"/>
    <use xlink:href="#Menlo-Regular-5f" transform="translate(2046.972656 0)"/>
    <use xlink:href="#Menlo-Regular-47" transform="translate(2107.177734 0)"/>
    <use xlink:href="#Menlo-Regular-41" transform="translate(2167.382812 0)"/>
    <use xlink:href="#Menlo-Regular-42" transform="translate(2227.587891 0)"/>
    <use xlink:href="#Menlo-Regular-41" transform="translate(2287.792969 0)"/>
   </g>
  </g>
  <g id="text_19">
   <!-- r012 -->
   <g style="fill: #888888" transform="translate(378.864625 280.888203) scale(0.065 -0.065)">
    <use xlink:href="#Menlo-Regular-72"/>
    <use xlink:href="#Menlo-Regular-30" transform="translate(60.205078 0)"/>
    <use xlink:href="#Menlo-Regular-31" transform="translate(120.410156 0)"/>
    <use xlink:href="#Menlo-Regular-32" transform="translate(180.615234 0)"/>
   </g>
  </g>
 </g>
 <defs>
  <clipPath id="pe313366478">
   <rect x="25.133438" y="21.6" width="362.76" height="231.54"/>
  </clipPath>
 </defs>
</svg>
