<?xml version="1.0" encoding="utf-8" standalone="no"?>
<!DOCTYPE svg PUBLIC "-//W3C//DTD SVG 1.1//EN"
  "http://www.w3.org/Graphics/SVG/1.1/DTD/svg11.dtd">
<svg xmlns:xlink="http://www.w3.org/1999/xlink" width="395.957437pt" height="283.68pt" viewBox="0 0 395.957437 283.68" xmlns="http://www.w3.org/2000/svg" version="1.1">
 <metadata>
  <rdf:RDF xmlns:dc="http://purl.org/dc/elements/1.1/" xmlns:cc="http://creativecommons.org/ns#" xmlns:rdf="http://www.w3.org/1999/02/22-rdf-syntax-ns#">
   <cc:Work>
    <dc:type rdf:resource="http://purl.org/dc/dcmitype/StillImage"/>
    <dc:date>2026-06-30T00:20:48.291446</dc:date>
    <dc:format>image/svg+xml</dc:format>
    <dc:creator>
     <cc:Agent>
      <dc:title>Matplotlib v3.10.8, https://matplotlib.org/</dc:title>
     </cc:Agent>
    </dc:creator>
   </cc:Work>
  </rdf:RDF>
 </metadata>
 <defs>
  <style type="text/css">*{stroke-linejoin: round; stroke-linecap: butt}</style>
 </defs>
 <g id="figure_1">
  <g id="patch_1">
   <path d="M 0 283.68 
L 395.957437 283.68 
L 395.957437 0 
L 0 0 
z
" style="fill: #ffffff"/>
  </g>
  <g id="axes_1">
   <g id="patch_2">
    <path d="M 25.133438 252.78 
L 385.317553 252.78 
L 385.317553 24.026112 
L 25.133438 24.026112 
z
" style="fill: #ffffff"/>
   </g>
   <g id="matplotlib.axis_1">
    <g id="xtick_1">
     <g id="line2d_1">
      <path d="M 41.505443 252.78 
L 41.505443 24.026112 
" clip-path="url(#p04d67dcd36)" style="fill: none; stroke: #1a1a1a; stroke-opacity: 0.15; stroke-width: 0.4; stroke-linejoin: miter"/>
     </g>
     <g id="line2d_2">
      <defs>
       <path id="me5148652e1" d="M 0 0 
L 0 -3 
" style="stroke: #1a1a1a; stroke-width: 0.8"/>
      </defs>
      <g>
       <use xlink:href="#me5148652e1" x="41.505443" y="252.78" style="fill: #1a1a1a; stroke: #1a1a1a; stroke-width: 0.8"/>
      </g>
     </g>
     <g id="text_1">
      <!-- 0 -->
      <g style="fill: #1a1a1a" transform="translate(39.398333 261.618594) scale(0.07 -0.07)">
       <defs>
        <path id="Menlo-Regular-30" d="M 1925 4734 
Q 2672 4734 3055 4125 
Q 3438 3516 3438 2322 
Q 3438 1128 3055 518 
Q 2672 -91 1925 -91 
Q 1178 -91 797 518 
Q 416 1128 416 2322 
Q 416 3516 797 4125 
Q 1178 4734 1925 4734 
z
M 1925 409 
Q 2369 409 2586 881 
Q 2803 1353 2803 2322 
Q 2803 2838 2741 3253 
L 1253 925 
Q 1488 409 1925 409 
z
M 1925 4234 
Q 1484 4234 1267 3762 
Q 1050 3291 1050 2322 
Q 1050 1881 1109 1497 
L 2566 3819 
Q 2328 4234 1925 4234 
z
" transform="scale(0.015625)"/>
       </defs>
       <use xlink:href="#Menlo-Regular-30"/>
      </g>
     </g>
    </g>
    <g id="xtick_2">
     <g id="line2d_3">
      <path d="M 84.243627 252.78 
L 84.243627 24.026112 
" clip-path="url(#p04d67dcd36)" style="fill: none; stroke: #1a1a1a; stroke-opacity: 0.15; stroke-width: 0.4; stroke-linejoin: miter"/>
     </g>
     <g id="line2d_4">
      <g>
       <use xlink:href="#me5148652e1" x="84.243627" y="252.78" style="fill: #1a1a1a; stroke: #1a1a1a; stroke-width: 0.8"/>
      </g>
     </g>
     <g id="text_2">
      <!-- 10 -->
      <g style="fill: #1a1a1a" transform="translate(80.029408 261.618594) scale(0.07 -0.07)">
       <defs>
        <path id="Menlo-Regular-31" d="M 844 528 
L 1825 528 
L 1825 4053 
L 650 3488 
L 650 4094 
L 1819 4650 
L 2450 4650 
L 2450 528 
L 3419 528 
L 3419 0 
L 844 0 
L 844 528 
z
" transform="scale(0.015625)"/>
       </defs>
       <use xlink:href="#Menlo-Regular-31"/>
       <use xlink:href="#Menlo-Regular-30" transform="translate(60.205078 0)"/>
      </g>
     </g>
    </g>
    <g id="xtick_3">
     <g id="line2d_5">
      <path d="M 126.981811 252.78 
L 126.981811 24.026112 
" clip-path="url(#p04d67dcd36)" style="fill: none; stroke: #1a1a1a; stroke-opacity: 0.15; stroke-width: 0.4; stroke-linejoin: miter"/>
     </g>
     <g id="line2d_6">
      <g>
       <use xlink:href="#me5148652e1" x="126.981811" y="252.78" style="fill: #1a1a1a; stroke: #1a1a1a; stroke-width: 0.8"/>
      </g>
     </g>
     <g id="text_3">
      <!-- 20 -->
      <g style="fill: #1a1a1a" transform="translate(122.767592 261.618594) scale(0.07 -0.07)">
       <defs>
        <path id="Menlo-Regular-32" d="M 1166 531 
L 3309 531 
L 3309 0 
L 475 0 
L 475 531 
Q 1059 1147 1496 1619 
Q 1934 2091 2100 2284 
Q 2413 2666 2522 2902 
Q 2631 3138 2631 3384 
Q 2631 3775 2401 3997 
Q 2172 4219 1772 4219 
Q 1488 4219 1175 4116 
Q 863 4013 513 3803 
L 513 4441 
Q 834 4594 1145 4672 
Q 1456 4750 1759 4750 
Q 2444 4750 2861 4386 
Q 3278 4022 3278 3431 
Q 3278 3131 3139 2831 
Q 3000 2531 2688 2169 
Q 2513 1966 2180 1606 
Q 1847 1247 1166 531 
z
" transform="scale(0.015625)"/>
       </defs>
       <use xlink:href="#Menlo-Regular-32"/>
       <use xlink:href="#Menlo-Regular-30" transform="translate(60.205078 0)"/>
      </g>
     </g>
    </g>
    <g id="xtick_4">
     <g id="line2d_7">
      <path d="M 169.719995 252.78 
L 169.719995 24.026112 
" clip-path="url(#p04d67dcd36)" style="fill: none; stroke: #1a1a1a; stroke-opacity: 0.15; stroke-width: 0.4; stroke-linejoin: miter"/>
     </g>
     <g id="line2d_8">
      <g>
       <use xlink:href="#me5148652e1" x="169.719995" y="252.78" style="fill: #1a1a1a; stroke: #1a1a1a; stroke-width: 0.8"/>
      </g>
     </g>
     <g id="text_4">
      <!-- 30 -->
      <g style="fill: #1a1a1a" transform="translate(165.505776 261.618594) scale(0.07 -0.07)">
       <defs>
        <path id="Menlo-Regular-33" d="M 2425 2497 
Q 2884 2375 3128 2064 
Q 3372 1753 3372 1288 
Q 3372 644 2939 276 
Q 2506 -91 1741 -91 
Q 1419 -91 1084 -31 
Q 750 28 428 141 
L 428 769 
Q 747 603 1056 522 
Q 1366 441 1672 441 
Q 2191 441 2469 675 
Q 2747 909 2747 1350 
Q 2747 1756 2469 1995 
Q 2191 2234 1716 2234 
L 1234 2234 
L 1234 2753 
L 1716 2753 
Q 2150 2753 2394 2943 
Q 2638 3134 2638 3475 
Q 2638 3834 2411 4026 
Q 2184 4219 1766 4219 
Q 1488 4219 1191 4156 
Q 894 4094 569 3969 
L 569 4550 
Q 947 4650 1242 4700 
Q 1538 4750 1766 4750 
Q 2447 4750 2855 4408 
Q 3263 4066 3263 3500 
Q 3263 3116 3048 2859 
Q 2834 2603 2425 2497 
z
" transform="scale(0.015625)"/>
       </defs>
       <use xlink:href="#Menlo-Regular-33"/>
       <use xlink:href="#Menlo-Regular-30" transform="translate(60.205078 0)"/>
      </g>
     </g>
    </g>
    <g id="xtick_5">
     <g id="line2d_9">
      <path d="M 212.458179 252.78 
L 212.458179 24.026112 
" clip-path="url(#p04d67dcd36)" style="fill: none; stroke: #1a1a1a; stroke-opacity: 0.15; stroke-width: 0.4; stroke-linejoin: miter"/>
     </g>
     <g id="line2d_10">
      <g>
       <use xlink:href="#me5148652e1" x="212.458179" y="252.78" style="fill: #1a1a1a; stroke: #1a1a1a; stroke-width: 0.8"/>
      </g>
     </g>
     <g id="text_5">
      <!-- 40 -->
      <g style="fill: #1a1a1a" transform="translate(208.24396 261.618594) scale(0.07 -0.07)">
       <defs>
        <path id="Menlo-Regular-34" d="M 2297 4091 
L 825 1625 
L 2297 1625 
L 2297 4091 
z
M 2194 4666 
L 2925 4666 
L 2925 1625 
L 3547 1625 
L 3547 1113 
L 2925 1113 
L 2925 0 
L 2297 0 
L 2297 1113 
L 319 1113 
L 319 1709 
L 2194 4666 
z
" transform="scale(0.015625)"/>
       </defs>
       <use xlink:href="#Menlo-Regular-34"/>
       <use xlink:href="#Menlo-Regular-30" transform="translate(60.205078 0)"/>
      </g>
     </g>
    </g>
    <g id="xtick_6">
     <g id="line2d_11">
      <path d="M 255.196363 252.78 
L 255.196363 24.026112 
" clip-path="url(#p04d67dcd36)" style="fill: none; stroke: #1a1a1a; stroke-opacity: 0.15; stroke-width: 0.4; stroke-linejoin: miter"/>
     </g>
     <g id="line2d_12">
      <g>
       <use xlink:href="#me5148652e1" x="255.196363" y="252.78" style="fill: #1a1a1a; stroke: #1a1a1a; stroke-width: 0.8"/>
      </g>
     </g>
     <g id="text_6">
      <!-- 50 -->
      <g style="fill: #1a1a1a" transform="translate(250.982144 261.618594) scale(0.07 -0.07)">
       <defs>
        <path id="Menlo-Regular-35" d="M 647 4666 
L 3009 4666 
L 3009 4134 
L 1222 4134 
L 1222 2988 
Q 1356 3038 1492 3061 
Q 1628 3084 1766 3084 
Q 2491 3084 2916 2656 
Q 3341 2228 3341 1497 
Q 3341 759 2895 334 
Q 2450 -91 1678 -91 
Q 1306 -91 998 -41 
Q 691 9 447 109 
L 447 750 
Q 734 594 1025 517 
Q 1316 441 1619 441 
Q 2141 441 2423 716 
Q 2706 991 2706 1497 
Q 2706 1997 2414 2275 
Q 2122 2553 1600 2553 
Q 1347 2553 1106 2495 
Q 866 2438 647 2322 
L 647 4666 
z
" transform="scale(0.015625)"/>
       </defs>
       <use xlink:href="#Menlo-Regular-35"/>
       <use xlink:href="#Menlo-Regular-30" transform="translate(60.205078 0)"/>
      </g>
     </g>
    </g>
    <g id="xtick_7">
     <g id="line2d_13">
      <path d="M 297.934547 252.78 
L 297.934547 24.026112 
" clip-path="url(#p04d67dcd36)" style="fill: none; stroke: #1a1a1a; stroke-opacity: 0.15; stroke-width: 0.4; stroke-linejoin: miter"/>
     </g>
     <g id="line2d_14">
      <g>
       <use xlink:href="#me5148652e1" x="297.934547" y="252.78" style="fill: #1a1a1a; stroke: #1a1a1a; stroke-width: 0.8"/>
      </g>
     </g>
     <g id="text_7">
      <!-- 60 -->
      <g style="fill: #1a1a1a" transform="translate(293.720328 261.618594) scale(0.07 -0.07)">
       <defs>
        <path id="Menlo-Regular-36" d="M 3097 4563 
L 3097 3981 
Q 2900 4097 2678 4158 
Q 2456 4219 2216 4219 
Q 1616 4219 1306 3767 
Q 997 3316 997 2438 
Q 1147 2750 1412 2917 
Q 1678 3084 2022 3084 
Q 2697 3084 3067 2670 
Q 3438 2256 3438 1497 
Q 3438 741 3056 325 
Q 2675 -91 1984 -91 
Q 1172 -91 794 492 
Q 416 1075 416 2328 
Q 416 3509 870 4129 
Q 1325 4750 2188 4750 
Q 2419 4750 2650 4701 
Q 2881 4653 3097 4563 
z
M 1972 2591 
Q 1569 2591 1337 2300 
Q 1106 2009 1106 1497 
Q 1106 984 1337 693 
Q 1569 403 1972 403 
Q 2391 403 2603 679 
Q 2816 956 2816 1497 
Q 2816 2041 2603 2316 
Q 2391 2591 1972 2591 
z
" transform="scale(0.015625)"/>
       </defs>
       <use xlink:href="#Menlo-Regular-36"/>
       <use xlink:href="#Menlo-Regular-30" transform="translate(60.205078 0)"/>
      </g>
     </g>
    </g>
    <g id="xtick_8">
     <g id="line2d_15">
      <path d="M 340.672731 252.78 
L 340.672731 24.026112 
" clip-path="url(#p04d67dcd36)" style="fill: none; stroke: #1a1a1a; stroke-opacity: 0.15; stroke-width: 0.4; stroke-linejoin: miter"/>
     </g>
     <g id="line2d_16">
      <g>
       <use xlink:href="#me5148652e1" x="340.672731" y="252.78" style="fill: #1a1a1a; stroke: #1a1a1a; stroke-width: 0.8"/>
      </g>
     </g>
     <g id="text_8">
      <!-- 70 -->
      <g style="fill: #1a1a1a" transform="translate(336.458513 261.618594) scale(0.07 -0.07)">
       <defs>
        <path id="Menlo-Regular-37" d="M 434 4666 
L 3372 4666 
L 3372 4397 
L 1703 0 
L 1044 0 
L 2669 4134 
L 434 4134 
L 434 4666 
z
" transform="scale(0.015625)"/>
       </defs>
       <use xlink:href="#Menlo-Regular-37"/>
       <use xlink:href="#Menlo-Regular-30" transform="translate(60.205078 0)"/>
      </g>
     </g>
    </g>
    <g id="xtick_9">
     <g id="line2d_17">
      <path d="M 383.410915 252.78 
L 383.410915 24.026112 
" clip-path="url(#p04d67dcd36)" style="fill: none; stroke: #1a1a1a; stroke-opacity: 0.15; stroke-width: 0.4; stroke-linejoin: miter"/>
     </g>
     <g id="line2d_18">
      <g>
       <use xlink:href="#me5148652e1" x="383.410915" y="252.78" style="fill: #1a1a1a; stroke: #1a1a1a; stroke-width: 0.8"/>
      </g>
     </g>
     <g id="text_9">
      <!-- 80 -->
      <g style="fill: #1a1a1a" transform="translate(379.196697 261.618594) scale(0.07 -0.07)">
       <defs>
        <path id="Menlo-Regular-38" d="M 1925 2216 
Q 1503 2216 1273 1980 
Q 1044 1744 1044 1313 
Q 1044 881 1276 642 
Q 1509 403 1925 403 
Q 2350 403 2579 639 
Q 2809 875 2809 1313 
Q 2809 1741 2576 1978 
Q 2344 2216 1925 2216 
z
M 1375 2478 
Q 972 2581 745 2862 
Q 519 3144 519 3541 
Q 519 4097 897 4423 
Q 1275 4750 1925 4750 
Q 2578 4750 2956 4423 
Q 3334 4097 3334 3541 
Q 3334 3144 3107 2862 
Q 2881 2581 2478 2478 
Q 2947 2375 3195 2062 
Q 3444 1750 3444 1253 
Q 3444 622 3041 265 
Q 2638 -91 1925 -91 
Q 1213 -91 811 264 
Q 409 619 409 1247 
Q 409 1747 657 2061 
Q 906 2375 1375 2478 
z
M 1147 3481 
Q 1147 3106 1347 2909 
Q 1547 2713 1925 2713 
Q 2306 2713 2506 2909 
Q 2706 3106 2706 3481 
Q 2706 3863 2507 4063 
Q 2309 4263 1925 4263 
Q 1547 4263 1347 4061 
Q 1147 3859 1147 3481 
z
" transform="scale(0.015625)"/>
       </defs>
       <use xlink:href="#Menlo-Regular-38"/>
       <use xlink:href="#Menlo-Regular-30" transform="translate(60.205078 0)"/>
      </g>
     </g>
    </g>
    <g id="text_10">
     <!-- 1/f_γ  (ms) -->
     <g style="fill: #1a1a1a" transform="translate(178.73612 273.535625) scale(0.08 -0.08)">
      <defs>
       <path id="Menlo-Regular-2f" d="M 2778 4666 
L 3372 4666 
L 916 -594 
L 319 -594 
L 2778 4666 
z
" transform="scale(0.015625)"/>
       <path id="Menlo-Regular-66" d="M 3322 4863 
L 3322 4384 
L 2669 4384 
Q 2359 4384 2239 4257 
Q 2119 4131 2119 3809 
L 2119 3500 
L 3322 3500 
L 3322 3053 
L 2119 3053 
L 2119 0 
L 1544 0 
L 1544 3053 
L 609 3053 
L 609 3500 
L 1544 3500 
L 1544 3744 
Q 1544 4319 1808 4591 
Q 2072 4863 2631 4863 
L 3322 4863 
z
" transform="scale(0.015625)"/>
       <path id="Menlo-Regular-5f" d="M 3825 -594 
L 3825 -1125 
L 0 -1125 
L 0 -594 
L 3825 -594 
z
" transform="scale(0.015625)"/>
       <path id="Menlo-Regular-3b3" d="M 688 2613 
Q 547 3006 253 3006 
L 100 3006 
L 100 3500 
L 319 3500 
Q 925 3500 1128 2950 
L 1925 809 
L 2944 3500 
L 3541 3500 
L 2225 0 
L 2225 -1331 
L 1631 -1331 
L 1631 0 
L 688 2613 
z
" transform="scale(0.015625)"/>
       <path id="Menlo-Regular-20" transform="scale(0.015625)"/>
       <path id="Menlo-Regular-28" d="M 2672 5169 
Q 2256 4456 2051 3748 
Q 1847 3041 1847 2322 
Q 1847 1606 2051 897 
Q 2256 188 2672 -531 
L 2172 -531 
Q 1700 213 1469 917 
Q 1238 1622 1238 2322 
Q 1238 3019 1469 3725 
Q 1700 4431 2172 5169 
L 2672 5169 
z
" transform="scale(0.015625)"/>
       <path id="Menlo-Regular-6d" d="M 2113 3144 
Q 2219 3369 2383 3476 
Q 2547 3584 2778 3584 
Q 3200 3584 3373 3257 
Q 3547 2931 3547 2028 
L 3547 0 
L 3022 0 
L 3022 2003 
Q 3022 2744 2939 2923 
Q 2856 3103 2638 3103 
Q 2388 3103 2295 2911 
Q 2203 2719 2203 2003 
L 2203 0 
L 1678 0 
L 1678 2003 
Q 1678 2753 1589 2928 
Q 1500 3103 1269 3103 
Q 1041 3103 952 2911 
Q 863 2719 863 2003 
L 863 0 
L 341 0 
L 341 3500 
L 863 3500 
L 863 3200 
Q 966 3388 1120 3486 
Q 1275 3584 1472 3584 
Q 1709 3584 1867 3475 
Q 2025 3366 2113 3144 
z
" transform="scale(0.015625)"/>
       <path id="Menlo-Regular-73" d="M 3041 3378 
L 3041 2816 
Q 2794 2959 2544 3031 
Q 2294 3103 2034 3103 
Q 1644 3103 1451 2976 
Q 1259 2850 1259 2591 
Q 1259 2356 1403 2240 
Q 1547 2125 2119 2016 
L 2350 1972 
Q 2778 1891 2998 1647 
Q 3219 1403 3219 1013 
Q 3219 494 2850 201 
Q 2481 -91 1825 -91 
Q 1566 -91 1281 -36 
Q 997 19 666 128 
L 666 722 
Q 988 556 1281 473 
Q 1575 391 1838 391 
Q 2219 391 2428 545 
Q 2638 700 2638 978 
Q 2638 1378 1872 1531 
L 1847 1538 
L 1631 1581 
Q 1134 1678 906 1908 
Q 678 2138 678 2534 
Q 678 3038 1018 3311 
Q 1359 3584 1991 3584 
Q 2272 3584 2531 3532 
Q 2791 3481 3041 3378 
z
" transform="scale(0.015625)"/>
       <path id="Menlo-Regular-29" d="M 1088 5169 
L 1588 5169 
Q 2059 4431 2290 3725 
Q 2522 3019 2522 2322 
Q 2522 1619 2290 912 
Q 2059 206 1588 -531 
L 1088 -531 
Q 1503 194 1708 903 
Q 1913 1613 1913 2322 
Q 1913 3034 1708 3743 
Q 1503 4453 1088 5169 
z
" transform="scale(0.015625)"/>
      </defs>
      <use xlink:href="#Menlo-Regular-31"/>
      <use xlink:href="#Menlo-Regular-2f" transform="translate(60.205078 0)"/>
      <use xlink:href="#Menlo-Regular-66" transform="translate(120.410156 0)"/>
      <use xlink:href="#Menlo-Regular-5f" transform="translate(180.615234 0)"/>
      <use xlink:href="#Menlo-Regular-3b3" transform="translate(240.820312 0)"/>
      <use xlink:href="#Menlo-Regular-20" transform="translate(301.025391 0)"/>
      <use xlink:href="#Menlo-Regular-20" transform="translate(361.230469 0)"/>
      <use xlink:href="#Menlo-Regular-28" transform="translate(421.435547 0)"/>
      <use xlink:href="#Menlo-Regular-6d" transform="translate(481.640625 0)"/>
      <use xlink:href="#Menlo-Regular-73" transform="translate(541.845703 0)"/>
      <use xlink:href="#Menlo-Regular-29" transform="translate(602.050781 0)"/>
     </g>
    </g>
   </g>
   <g id="matplotlib.axis_2">
    <g id="ytick_1">
     <g id="line2d_19">
      <path d="M 25.133438 242.382096 
L 385.317553 242.382096 
" clip-path="url(#p04d67dcd36)" style="fill: none; stroke: #1a1a1a; stroke-opacity: 0.15; stroke-width: 0.4; stroke-linejoin: miter"/>
     </g>
     <g id="line2d_20">
      <defs>
       <path id="ma6bdb78d47" d="M 0 0 
L 3 0 
" style="stroke: #1a1a1a; stroke-width: 0.8"/>
      </defs>
      <g>
       <use xlink:href="#ma6bdb78d47" x="25.133438" y="242.382096" style="fill: #1a1a1a; stroke: #1a1a1a; stroke-width: 0.8"/>
      </g>
     </g>
     <g id="text_11">
      <!-- 0 -->
      <g style="fill: #1a1a1a" transform="translate(17.419219 245.051393) scale(0.07 -0.07)">
       <use xlink:href="#Menlo-Regular-30"/>
      </g>
     </g>
    </g>
    <g id="ytick_2">
     <g id="line2d_21">
      <path d="M 25.133438 215.238962 
L 385.317553 215.238962 
" clip-path="url(#p04d67dcd36)" style="fill: none; stroke: #1a1a1a; stroke-opacity: 0.15; stroke-width: 0.4; stroke-linejoin: miter"/>
     </g>
     <g id="line2d_22">
      <g>
       <use xlink:href="#ma6bdb78d47" x="25.133438" y="215.238962" style="fill: #1a1a1a; stroke: #1a1a1a; stroke-width: 0.8"/>
      </g>
     </g>
     <g id="text_12">
      <!-- 10 -->
      <g style="fill: #1a1a1a" transform="translate(13.205 217.908259) scale(0.07 -0.07)">
       <use xlink:href="#Menlo-Regular-31"/>
       <use xlink:href="#Menlo-Regular-30" transform="translate(60.205078 0)"/>
      </g>
     </g>
    </g>
    <g id="ytick_3">
     <g id="line2d_23">
      <path d="M 25.133438 188.095828 
L 385.317553 188.095828 
" clip-path="url(#p04d67dcd36)" style="fill: none; stroke: #1a1a1a; stroke-opacity: 0.15; stroke-width: 0.4; stroke-linejoin: miter"/>
     </g>
     <g id="line2d_24">
      <g>
       <use xlink:href="#ma6bdb78d47" x="25.133438" y="188.095828" style="fill: #1a1a1a; stroke: #1a1a1a; stroke-width: 0.8"/>
      </g>
     </g>
     <g id="text_13">
      <!-- 20 -->
      <g style="fill: #1a1a1a" transform="translate(13.205 190.765124) scale(0.07 -0.07)">
       <use xlink:href="#Menlo-Regular-32"/>
       <use xlink:href="#Menlo-Regular-30" transform="translate(60.205078 0)"/>
      </g>
     </g>
    </g>
    <g id="ytick_4">
     <g id="line2d_25">
      <path d="M 25.133438 160.952693 
L 385.317553 160.952693 
" clip-path="url(#p04d67dcd36)" style="fill: none; stroke: #1a1a1a; stroke-opacity: 0.15; stroke-width: 0.4; stroke-linejoin: miter"/>
     </g>
     <g id="line2d_26">
      <g>
       <use xlink:href="#ma6bdb78d47" x="25.133438" y="160.952693" style="fill: #1a1a1a; stroke: #1a1a1a; stroke-width: 0.8"/>
      </g>
     </g>
     <g id="text_14">
      <!-- 30 -->
      <g style="fill: #1a1a1a" transform="translate(13.205 163.62199) scale(0.07 -0.07)">
       <use xlink:href="#Menlo-Regular-33"/>
       <use xlink:href="#Menlo-Regular-30" transform="translate(60.205078 0)"/>
      </g>
     </g>
    </g>
    <g id="ytick_5">
     <g id="line2d_27">
      <path d="M 25.133438 133.809559 
L 385.317553 133.809559 
" clip-path="url(#p04d67dcd36)" style="fill: none; stroke: #1a1a1a; stroke-opacity: 0.15; stroke-width: 0.4; stroke-linejoin: miter"/>
     </g>
     <g id="line2d_28">
      <g>
       <use xlink:href="#ma6bdb78d47" x="25.133438" y="133.809559" style="fill: #1a1a1a; stroke: #1a1a1a; stroke-width: 0.8"/>
      </g>
     </g>
     <g id="text_15">
      <!-- 40 -->
      <g style="fill: #1a1a1a" transform="translate(13.205 136.478856) scale(0.07 -0.07)">
       <use xlink:href="#Menlo-Regular-34"/>
       <use xlink:href="#Menlo-Regular-30" transform="translate(60.205078 0)"/>
      </g>
     </g>
    </g>
    <g id="ytick_6">
     <g id="line2d_29">
      <path d="M 25.133438 106.666425 
L 385.317553 106.666425 
" clip-path="url(#p04d67dcd36)" style="fill: none; stroke: #1a1a1a; stroke-opacity: 0.15; stroke-width: 0.4; stroke-linejoin: miter"/>
     </g>
     <g id="line2d_30">
      <g>
       <use xlink:href="#ma6bdb78d47" x="25.133438" y="106.666425" style="fill: #1a1a1a; stroke: #1a1a1a; stroke-width: 0.8"/>
      </g>
     </g>
     <g id="text_16">
      <!-- 50 -->
      <g style="fill: #1a1a1a" transform="translate(13.205 109.335722) scale(0.07 -0.07)">
       <use xlink:href="#Menlo-Regular-35"/>
       <use xlink:href="#Menlo-Regular-30" transform="translate(60.205078 0)"/>
      </g>
     </g>
    </g>
    <g id="ytick_7">
     <g id="line2d_31">
      <path d="M 25.133438 79.523291 
L 385.317553 79.523291 
" clip-path="url(#p04d67dcd36)" style="fill: none; stroke: #1a1a1a; stroke-opacity: 0.15; stroke-width: 0.4; stroke-linejoin: miter"/>
     </g>
     <g id="line2d_32">
      <g>
       <use xlink:href="#ma6bdb78d47" x="25.133438" y="79.523291" style="fill: #1a1a1a; stroke: #1a1a1a; stroke-width: 0.8"/>
      </g>
     </g>
     <g id="text_17">
      <!-- 60 -->
      <g style="fill: #1a1a1a" transform="translate(13.205 82.192588) scale(0.07 -0.07)">
       <use xlink:href="#Menlo-Regular-36"/>
       <use xlink:href="#Menlo-Regular-30" transform="translate(60.205078 0)"/>
      </g>
     </g>
    </g>
    <g id="ytick_8">
     <g id="line2d_33">
      <path d="M 25.133438 52.380156 
L 385.317553 52.380156 
" clip-path="url(#p04d67dcd36)" style="fill: none; stroke: #1a1a1a; stroke-opacity: 0.15; stroke-width: 0.4; stroke-linejoin: miter"/>
     </g>
     <g id="line2d_34">
      <g>
       <use xlink:href="#ma6bdb78d47" x="25.133438" y="52.380156" style="fill: #1a1a1a; stroke: #1a1a1a; stroke-width: 0.8"/>
      </g>
     </g>
     <g id="text_18">
      <!-- 70 -->
      <g style="fill: #1a1a1a" transform="translate(13.205 55.049453) scale(0.07 -0.07)">
       <use xlink:href="#Menlo-Regular-37"/>
       <use xlink:href="#Menlo-Regular-30" transform="translate(60.205078 0)"/>
      </g>
     </g>
    </g>
    <g id="ytick_9">
     <g id="line2d_35">
      <path d="M 25.133438 25.237022 
L 385.317553 25.237022 
" clip-path="url(#p04d67dcd36)" style="fill: none; stroke: #1a1a1a; stroke-opacity: 0.15; stroke-width: 0.4; stroke-linejoin: miter"/>
     </g>
     <g id="line2d_36">
      <g>
       <use xlink:href="#ma6bdb78d47" x="25.133438" y="25.237022" style="fill: #1a1a1a; stroke: #1a1a1a; stroke-width: 0.8"/>
      </g>
     </g>
     <g id="text_19">
      <!-- 80 -->
      <g style="fill: #1a1a1a" transform="translate(13.205 27.906319) scale(0.07 -0.07)">
       <use xlink:href="#Menlo-Regular-38"/>
       <use xlink:href="#Menlo-Regular-30" transform="translate(60.205078 0)"/>
      </g>
     </g>
    </g>
    <g id="text_20">
     <!-- Measured inflection σ  (ms) -->
     <g style="fill: #1a1a1a" transform="translate(7.54125 203.422431) rotate(-90) scale(0.08 -0.08)">
      <defs>
       <path id="Menlo-Regular-4d" d="M 113 4650 
L 956 4650 
L 1763 2281 
L 2575 4650 
L 3422 4650 
L 3422 0 
L 2838 0 
L 2838 4109 
L 2006 1659 
L 1528 1659 
L 694 4109 
L 694 0 
L 113 0 
L 113 4650 
z
" transform="scale(0.015625)"/>
       <path id="Menlo-Regular-65" d="M 3500 2038 
L 3500 1756 
L 1009 1756 
L 1009 1738 
Q 984 1022 1282 709 
Q 1581 397 2125 397 
Q 2400 397 2700 484 
Q 3000 572 3341 750 
L 3341 178 
Q 3013 44 2708 -23 
Q 2403 -91 2119 -91 
Q 1303 -91 843 398 
Q 384 888 384 1747 
Q 384 2584 834 3084 
Q 1284 3584 2034 3584 
Q 2703 3584 3089 3131 
Q 3475 2678 3500 2038 
z
M 2925 2206 
Q 2888 2569 2661 2833 
Q 2434 3097 2009 3097 
Q 1594 3097 1325 2822 
Q 1056 2547 1031 2203 
L 2925 2206 
z
" transform="scale(0.015625)"/>
       <path id="Menlo-Regular-61" d="M 2194 1759 
L 2003 1759 
Q 1500 1759 1245 1582 
Q 991 1406 991 1056 
Q 991 741 1181 566 
Q 1372 391 1709 391 
Q 2184 391 2456 720 
Q 2728 1050 2731 1631 
L 2731 1759 
L 2194 1759 
z
M 3309 1997 
L 3309 0 
L 2731 0 
L 2731 519 
Q 2547 206 2267 57 
Q 1988 -91 1588 -91 
Q 1053 -91 734 211 
Q 416 513 416 1019 
Q 416 1603 808 1906 
Q 1200 2209 1959 2209 
L 2731 2209 
L 2731 2300 
Q 2728 2719 2518 2908 
Q 2309 3097 1850 3097 
Q 1556 3097 1256 3012 
Q 956 2928 672 2766 
L 672 3341 
Q 991 3463 1283 3523 
Q 1575 3584 1850 3584 
Q 2284 3584 2592 3456 
Q 2900 3328 3091 3072 
Q 3209 2916 3259 2686 
Q 3309 2456 3309 1997 
z
" transform="scale(0.015625)"/>
       <path id="Menlo-Regular-75" d="M 609 1325 
L 609 3494 
L 1184 3494 
L 1184 1325 
Q 1184 853 1351 631 
Q 1519 409 1869 409 
Q 2275 409 2490 695 
Q 2706 981 2706 1516 
L 2706 3494 
L 3284 3494 
L 3284 0 
L 2706 0 
L 2706 525 
Q 2553 222 2289 65 
Q 2025 -91 1672 -91 
Q 1134 -91 871 261 
Q 609 613 609 1325 
z
" transform="scale(0.015625)"/>
       <path id="Menlo-Regular-72" d="M 3609 2778 
Q 3425 2922 3234 2987 
Q 3044 3053 2816 3053 
Q 2278 3053 1993 2715 
Q 1709 2378 1709 1741 
L 1709 0 
L 1131 0 
L 1131 3500 
L 1709 3500 
L 1709 2816 
Q 1853 3188 2151 3386 
Q 2450 3584 2859 3584 
Q 3072 3584 3256 3531 
Q 3441 3478 3609 3366 
L 3609 2778 
z
" transform="scale(0.015625)"/>
       <path id="Menlo-Regular-64" d="M 2681 3053 
L 2681 4863 
L 3256 4863 
L 3256 0 
L 2681 0 
L 2681 441 
Q 2538 181 2298 45 
Q 2059 -91 1747 -91 
Q 1113 -91 748 401 
Q 384 894 384 1759 
Q 384 2613 750 3098 
Q 1116 3584 1747 3584 
Q 2063 3584 2303 3448 
Q 2544 3313 2681 3053 
z
M 991 1747 
Q 991 1078 1203 737 
Q 1416 397 1831 397 
Q 2247 397 2464 740 
Q 2681 1084 2681 1747 
Q 2681 2413 2464 2755 
Q 2247 3097 1831 3097 
Q 1416 3097 1203 2756 
Q 991 2416 991 1747 
z
" transform="scale(0.015625)"/>
       <path id="Menlo-Regular-69" d="M 988 3488 
L 2459 3488 
L 2459 447 
L 3600 447 
L 3600 0 
L 744 0 
L 744 447 
L 1884 447 
L 1884 3041 
L 988 3041 
L 988 3488 
z
M 1884 4847 
L 2459 4847 
L 2459 4122 
L 1884 4122 
L 1884 4847 
z
" transform="scale(0.015625)"/>
       <path id="Menlo-Regular-6e" d="M 3284 2169 
L 3284 0 
L 2706 0 
L 2706 2169 
Q 2706 2641 2540 2862 
Q 2375 3084 2022 3084 
Q 1619 3084 1401 2798 
Q 1184 2513 1184 1978 
L 1184 0 
L 609 0 
L 609 3500 
L 1184 3500 
L 1184 2975 
Q 1338 3275 1600 3429 
Q 1863 3584 2222 3584 
Q 2756 3584 3020 3232 
Q 3284 2881 3284 2169 
z
" transform="scale(0.015625)"/>
       <path id="Menlo-Regular-6c" d="M 2247 1266 
Q 2247 878 2389 681 
Q 2531 484 2809 484 
L 3481 484 
L 3481 0 
L 2753 0 
Q 2238 0 1955 329 
Q 1672 659 1672 1266 
L 1672 4431 
L 750 4431 
L 750 4881 
L 2247 4881 
L 2247 1266 
z
" transform="scale(0.015625)"/>
       <path id="Menlo-Regular-63" d="M 3316 178 
Q 3084 44 2839 -23 
Q 2594 -91 2338 -91 
Q 1525 -91 1067 396 
Q 609 884 609 1747 
Q 609 2609 1067 3096 
Q 1525 3584 2338 3584 
Q 2591 3584 2831 3518 
Q 3072 3453 3316 3316 
L 3316 2713 
Q 3088 2916 2858 3006 
Q 2628 3097 2338 3097 
Q 1797 3097 1506 2747 
Q 1216 2397 1216 1747 
Q 1216 1100 1508 748 
Q 1800 397 2338 397 
Q 2638 397 2875 489 
Q 3113 581 3316 775 
L 3316 178 
z
" transform="scale(0.015625)"/>
       <path id="Menlo-Regular-74" d="M 1919 4494 
L 1919 3500 
L 3225 3500 
L 3225 3053 
L 1919 3053 
L 1919 1153 
Q 1919 766 2066 612 
Q 2213 459 2578 459 
L 3225 459 
L 3225 0 
L 2522 0 
Q 1875 0 1609 259 
Q 1344 519 1344 1153 
L 1344 3053 
L 409 3053 
L 409 3500 
L 1344 3500 
L 1344 4494 
L 1919 4494 
z
" transform="scale(0.015625)"/>
       <path id="Menlo-Regular-6f" d="M 1925 3097 
Q 1488 3097 1263 2756 
Q 1038 2416 1038 1747 
Q 1038 1081 1263 739 
Q 1488 397 1925 397 
Q 2366 397 2591 739 
Q 2816 1081 2816 1747 
Q 2816 2416 2591 2756 
Q 2366 3097 1925 3097 
z
M 1925 3584 
Q 2653 3584 3039 3112 
Q 3425 2641 3425 1747 
Q 3425 850 3040 379 
Q 2656 -91 1925 -91 
Q 1197 -91 812 379 
Q 428 850 428 1747 
Q 428 2641 812 3112 
Q 1197 3584 1925 3584 
z
" transform="scale(0.015625)"/>
       <path id="Menlo-Regular-3c3" d="M 1903 2922 
Q 1481 2922 1263 2672 
Q 1038 2413 1038 1747 
Q 1038 1081 1263 739 
Q 1488 397 1925 397 
Q 2366 397 2591 739 
Q 2816 1081 2816 1538 
Q 2816 2316 2278 2719 
Q 2091 2859 1903 2922 
z
M 2781 2925 
Q 3425 2419 3425 1538 
Q 3425 825 2953 303 
Q 2597 -94 1925 -91 
Q 1197 -91 812 379 
Q 428 850 428 1747 
Q 428 2575 813 3053 
Q 1172 3500 1925 3500 
L 3534 3500 
L 3534 2925 
L 2781 2925 
z
" transform="scale(0.015625)"/>
      </defs>
      <use xlink:href="#Menlo-Regular-4d"/>
      <use xlink:href="#Menlo-Regular-65" transform="translate(60.205078 0)"/>
      <use xlink:href="#Menlo-Regular-61" transform="translate(120.410156 0)"/>
      <use xlink:href="#Menlo-Regular-73" transform="translate(180.615234 0)"/>
      <use xlink:href="#Menlo-Regular-75" transform="translate(240.820312 0)"/>
      <use xlink:href="#Menlo-Regular-72" transform="translate(301.025391 0)"/>
      <use xlink:href="#Menlo-Regular-65" transform="translate(361.230469 0)"/>
      <use xlink:href="#Menlo-Regular-64" transform="translate(421.435547 0)"/>
      <use xlink:href="#Menlo-Regular-20" transform="translate(481.640625 0)"/>
      <use xlink:href="#Menlo-Regular-69" transform="translate(541.845703 0)"/>
      <use xlink:href="#Menlo-Regular-6e" transform="translate(602.050781 0)"/>
      <use xlink:href="#Menlo-Regular-66" transform="translate(662.255859 0)"/>
      <use xlink:href="#Menlo-Regular-6c" transform="translate(722.460938 0)"/>
      <use xlink:href="#Menlo-Regular-65" transform="translate(782.666016 0)"/>
      <use xlink:href="#Menlo-Regular-63" transform="translate(842.871094 0)"/>
      <use xlink:href="#Menlo-Regular-74" transform="translate(903.076172 0)"/>
      <use xlink:href="#Menlo-Regular-69" transform="translate(963.28125 0)"/>
      <use xlink:href="#Menlo-Regular-6f" transform="translate(1023.486328 0)"/>
      <use xlink:href="#Menlo-Regular-6e" transform="translate(1083.691406 0)"/>
      <use xlink:href="#Menlo-Regular-20" transform="translate(1143.896484 0)"/>
      <use xlink:href="#Menlo-Regular-3c3" transform="translate(1204.101562 0)"/>
      <use xlink:href="#Menlo-Regular-20" transform="translate(1264.306641 0)"/>
      <use xlink:href="#Menlo-Regular-20" transform="translate(1324.511719 0)"/>
      <use xlink:href="#Menlo-Regular-28" transform="translate(1384.716797 0)"/>
      <use xlink:href="#Menlo-Regular-6d" transform="translate(1444.921875 0)"/>
      <use xlink:href="#Menlo-Regular-73" transform="translate(1505.126953 0)"/>
      <use xlink:href="#Menlo-Regular-29" transform="translate(1565.332031 0)"/>
     </g>
    </g>
   </g>
   <g id="line2d_37">
    <path d="M 41.505443 242.382096 
L 44.812919 241.186981 
L 48.120394 239.991865 
L 51.42787 238.79675 
L 54.735346 237.601634 
L 58.042822 236.406519 
L 61.350298 235.211404 
L 64.657773 234.016288 
L 67.965249 232.821173 
L 71.272725 231.626058 
L 74.580201 230.430942 
L 77.887677 229.235827 
L 81.195152 228.040711 
L 84.502628 226.845596 
L 87.810104 225.650481 
L 91.11758 224.455365 
L 94.425056 223.26025 
L 97.732531 222.065135 
L 101.040007 220.870019 
L 104.347483 219.674904 
L 107.654959 218.479789 
L 110.962435 217.284673 
L 114.269911 216.089558 
L 117.577386 214.894442 
L 120.884862 213.699327 
L 124.192338 212.504212 
L 127.499814 211.309096 
L 130.80729 210.113981 
L 134.114765 208.918866 
L 137.422241 207.72375 
L 140.729717 206.528635 
L 144.037193 205.333519 
L 147.344669 204.138404 
L 150.652144 202.943289 
L 153.95962 201.748173 
L 157.267096 200.553058 
L 160.574572 199.357943 
L 163.882048 198.162827 
L 167.189523 196.967712 
L 170.496999 195.772596 
L 173.804475 194.577481 
L 177.111951 193.382366 
L 180.419427 192.18725 
L 183.726902 190.992135 
L 187.034378 189.79702 
L 190.341854 188.601904 
L 193.64933 187.406789 
L 196.956806 186.211673 
L 200.264282 185.016558 
L 203.571757 183.821443 
L 206.879233 182.626327 
L 210.186709 181.431212 
L 213.494185 180.236097 
L 216.801661 179.040981 
L 220.109136 177.845866 
L 223.416612 176.65075 
L 226.724088 175.455635 
L 230.031564 174.26052 
L 233.33904 173.065404 
L 236.646515 171.870289 
L 239.953991 170.675174 
L 243.261467 169.480058 
L 246.568943 168.284943 
L 249.876419 167.089827 
L 253.183894 165.894712 
L 256.49137 164.699597 
L 259.798846 163.504481 
L 263.106322 162.309366 
L 266.413798 161.114251 
L 269.721273 159.919135 
L 273.028749 158.72402 
L 276.336225 157.528904 
L 279.643701 156.333789 
L 282.951177 155.138674 
L 286.258653 153.943558 
L 289.566128 152.748443 
L 292.873604 151.553328 
L 296.18108 150.358212 
L 299.488556 149.163097 
L 302.796032 147.967981 
L 306.103507 146.772866 
L 309.410983 145.577751 
L 312.718459 144.382635 
L 316.025935 143.18752 
L 319.333411 141.992405 
L 322.640886 140.797289 
L 325.948362 139.602174 
L 329.255838 138.407058 
L 332.563314 137.211943 
L 335.87079 136.016828 
L 339.178265 134.821712 
L 342.485741 133.626597 
L 345.793217 132.431482 
L 349.100693 131.236366 
L 352.408169 130.041251 
L 355.715644 128.846135 
L 359.02312 127.65102 
L 362.330596 126.455905 
L 365.638072 125.260789 
L 368.945548 124.065674 
" clip-path="url(#p04d67dcd36)" style="fill: none; stroke-dasharray: 4.44,1.92; stroke-dashoffset: 0; stroke: #c8102e; stroke-width: 1.2"/>
   </g>
   <g id="line2d_38">
    <path d="M 41.505443 242.382096 
L 44.812919 240.281509 
L 48.120394 238.180923 
L 51.42787 236.080336 
L 54.735346 233.979749 
L 58.042822 231.879163 
L 61.350298 229.778576 
L 64.657773 227.677989 
L 67.965249 225.577403 
L 71.272725 223.476816 
L 74.580201 221.376229 
L 77.887677 219.275643 
L 81.195152 217.175056 
L 84.502628 215.074469 
L 87.810104 212.973883 
L 91.11758 210.873296 
L 94.425056 208.772709 
L 97.732531 206.672123 
L 101.040007 204.571536 
L 104.347483 202.470949 
L 107.654959 200.370363 
L 110.962435 198.269776 
L 114.269911 196.169189 
L 117.577386 194.068603 
L 120.884862 191.968016 
L 124.192338 189.867429 
L 127.499814 187.766843 
L 130.80729 185.666256 
L 134.114765 183.565669 
L 137.422241 181.465083 
L 140.729717 179.364496 
L 144.037193 177.263909 
L 147.344669 175.163323 
L 150.652144 173.062736 
L 153.95962 170.962149 
L 157.267096 168.861563 
L 160.574572 166.760976 
L 163.882048 164.660389 
L 167.189523 162.559803 
L 170.496999 160.459216 
L 173.804475 158.358629 
L 177.111951 156.258043 
L 180.419427 154.157456 
L 183.726902 152.056869 
L 187.034378 149.956282 
L 190.341854 147.855696 
L 193.64933 145.755109 
L 196.956806 143.654522 
L 200.264282 141.553936 
L 203.571757 139.453349 
L 206.879233 137.352762 
L 210.186709 135.252176 
L 213.494185 133.151589 
L 216.801661 131.051002 
L 220.109136 128.950416 
L 223.416612 126.849829 
L 226.724088 124.749242 
L 230.031564 122.648656 
L 233.33904 120.548069 
L 236.646515 118.447482 
L 239.953991 116.346896 
L 243.261467 114.246309 
L 246.568943 112.145722 
L 249.876419 110.045136 
L 253.183894 107.944549 
L 256.49137 105.843962 
L 259.798846 103.743376 
L 263.106322 101.642789 
L 266.413798 99.542202 
L 269.721273 97.441616 
L 273.028749 95.341029 
L 276.336225 93.240442 
L 279.643701 91.139856 
L 282.951177 89.039269 
L 286.258653 86.938682 
L 289.566128 84.838096 
L 292.873604 82.737509 
L 296.18108 80.636922 
L 299.488556 78.536336 
L 302.796032 76.435749 
L 306.103507 74.335162 
L 309.410983 72.234576 
L 312.718459 70.133989 
L 316.025935 68.033402 
L 319.333411 65.932816 
L 322.640886 63.832229 
L 325.948362 61.731642 
L 329.255838 59.631056 
L 332.563314 57.530469 
L 335.87079 55.429882 
L 339.178265 53.329296 
L 342.485741 51.228709 
L 345.793217 49.128122 
L 349.100693 47.027536 
L 352.408169 44.926949 
L 355.715644 42.826362 
L 359.02312 40.725776 
L 362.330596 38.625189 
L 365.638072 36.524602 
L 368.945548 34.424016 
" clip-path="url(#p04d67dcd36)" style="fill: none; stroke-dasharray: 0.8,1.32; stroke-dashoffset: 0; stroke: #6a6a6a; stroke-width: 0.8"/>
   </g>
   <g id="patch_3">
    <path d="M 25.133438 252.78 
L 25.133438 24.026112 
" style="fill: none; stroke: #1a1a1a; stroke-width: 0.8; stroke-linejoin: miter; stroke-linecap: square"/>
   </g>
   <g id="patch_4">
    <path d="M 25.133438 252.78 
L 385.317553 252.78 
" style="fill: none; stroke: #1a1a1a; stroke-width: 0.8; stroke-linejoin: miter; stroke-linecap: square"/>
   </g>
   <g id="PathCollection_1">
    <defs>
     <path id="mf60df9ab3c" d="M 0 3.872983 
C 1.027127 3.872983 2.012324 3.464901 2.738613 2.738613 
C 3.464901 2.012324 3.872983 1.027127 3.872983 0 
C 3.872983 -1.027127 3.464901 -2.012324 2.738613 -2.738613 
C 2.012324 -3.464901 1.027127 -3.872983 0 -3.872983 
C -1.027127 -3.872983 -2.012324 -3.464901 -2.738613 -2.738613 
C -3.464901 -2.012324 -3.872983 -1.027127 -3.872983 0 
C -3.872983 1.027127 -3.464901 2.012324 -2.738613 2.738613 
C -2.012324 3.464901 -1.027127 3.872983 0 3.872983 
z
" style="stroke: #1a1a1a; stroke-width: 0.8"/>
    </defs>
    <g clip-path="url(#p04d67dcd36)">
     <use xlink:href="#mf60df9ab3c" x="120.965654" y="206.820763" style="fill: #1a1a1a; stroke: #1a1a1a; stroke-width: 0.8"/>
     <use xlink:href="#mf60df9ab3c" x="138.740581" y="202.193532" style="fill: #1a1a1a; stroke: #1a1a1a; stroke-width: 0.8"/>
     <use xlink:href="#mf60df9ab3c" x="159.169758" y="192.733189" style="fill: #1a1a1a; stroke: #1a1a1a; stroke-width: 0.8"/>
     <use xlink:href="#mf60df9ab3c" x="194.330047" y="180.771267" style="fill: #1a1a1a; stroke: #1a1a1a; stroke-width: 0.8"/>
     <use xlink:href="#mf60df9ab3c" x="235.452437" y="169.513714" style="fill: #1a1a1a; stroke: #1a1a1a; stroke-width: 0.8"/>
     <use xlink:href="#mf60df9ab3c" x="339.178265" y="146.217118" style="fill: #1a1a1a; stroke: #1a1a1a; stroke-width: 0.8"/>
    </g>
   </g>
   <g id="legend_1">
    <g id="PathCollection_2">
     <g>
      <use xlink:href="#mf60df9ab3c" x="37.033438" y="33.827205" style="fill: #1a1a1a; stroke: #1a1a1a; stroke-width: 0.8"/>
     </g>
    </g>
    <g id="text_21">
     <!-- measured inflection σ -->
     <g style="fill: #1a1a1a" transform="translate(48.233438 35.664705) scale(0.07 -0.07)">
      <use xlink:href="#Menlo-Regular-6d"/>
      <use xlink:href="#Menlo-Regular-65" transform="translate(60.205078 0)"/>
      <use xlink:href="#Menlo-Regular-61" transform="translate(120.410156 0)"/>
      <use xlink:href="#Menlo-Regular-73" transform="translate(180.615234 0)"/>
      <use xlink:href="#Menlo-Regular-75" transform="translate(240.820312 0)"/>
      <use xlink:href="#Menlo-Regular-72" transform="translate(301.025391 0)"/>
      <use xlink:href="#Menlo-Regular-65" transform="translate(361.230469 0)"/>
      <use xlink:href="#Menlo-Regular-64" transform="translate(421.435547 0)"/>
      <use xlink:href="#Menlo-Regular-20" transform="translate(481.640625 0)"/>
      <use xlink:href="#Menlo-Regular-69" transform="translate(541.845703 0)"/>
      <use xlink:href="#Menlo-Regular-6e" transform="translate(602.050781 0)"/>
      <use xlink:href="#Menlo-Regular-66" transform="translate(662.255859 0)"/>
      <use xlink:href="#Menlo-Regular-6c" transform="translate(722.460938 0)"/>
      <use xlink:href="#Menlo-Regular-65" transform="translate(782.666016 0)"/>
      <use xlink:href="#Menlo-Regular-63" transform="translate(842.871094 0)"/>
      <use xlink:href="#Menlo-Regular-74" transform="translate(903.076172 0)"/>
      <use xlink:href="#Menlo-Regular-69" transform="translate(963.28125 0)"/>
      <use xlink:href="#Menlo-Regular-6f" transform="translate(1023.486328 0)"/>
      <use xlink:href="#Menlo-Regular-6e" transform="translate(1083.691406 0)"/>
      <use xlink:href="#Menlo-Regular-20" transform="translate(1143.896484 0)"/>
      <use xlink:href="#Menlo-Regular-3c3" transform="translate(1204.101562 0)"/>
     </g>
    </g>
    <g id="line2d_39">
     <path d="M 31.433438 43.82408 
L 37.033438 43.82408 
L 42.633438 43.82408 
" style="fill: none; stroke-dasharray: 4.44,1.92; stroke-dashoffset: 0; stroke: #c8102e; stroke-width: 1.2"/>
    </g>
    <g id="text_22">
     <!-- σ = α · (1/f_γ)  (α = 0.57, R² = 0.883) -->
     <g style="fill: #1a1a1a" transform="translate(48.233438 46.27408) scale(0.07 -0.07)">
      <defs>
       <path id="Menlo-Regular-3d" d="M 275 1563 
L 3578 1563 
L 3578 1034 
L 275 1034 
L 275 1563 
z
M 275 3034 
L 3578 3034 
L 3578 2506 
L 275 2506 
L 275 3034 
z
" transform="scale(0.015625)"/>
       <path id="Menlo-Regular-3b1" d="M 2394 1628 
L 2256 2350 
Q 2116 3088 1563 3091 
Q 1256 3094 1066 2747 
Q 825 2319 825 1747 
Q 825 1059 1056 731 
Q 1297 397 1563 397 
Q 1978 397 2203 1063 
L 2394 1628 
z
M 1563 3578 
Q 2531 3594 2716 2584 
L 3025 3500 
L 3538 3500 
L 2897 1603 
L 3022 919 
Q 3050 766 3159 638 
Q 3288 488 3388 488 
L 3663 488 
L 3663 0 
L 3319 0 
Q 3025 0 2763 263 
Q 2634 394 2581 669 
Q 2438 328 2150 50 
Q 2009 -81 1563 -78 
Q 944 -72 588 397 
Q 219 884 219 1747 
Q 219 2675 613 3097 
Q 1059 3569 1563 3578 
z
" transform="scale(0.015625)"/>
       <path id="Menlo-Regular-b7" d="M 1528 2700 
L 2316 2700 
L 2316 1747 
L 1528 1747 
L 1528 2700 
z
" transform="scale(0.015625)"/>
       <path id="Menlo-Regular-2e" d="M 1216 1263 
L 2316 1263 
L 2316 0 
L 1216 0 
L 1216 1263 
z
" transform="scale(0.015625)"/>
       <path id="Menlo-Regular-2c" d="M 1381 1128 
L 2356 1128 
L 2356 300 
L 1663 -1047 
L 1038 -1050 
L 1381 300 
L 1381 1128 
z
" transform="scale(0.015625)"/>
       <path id="Menlo-Regular-52" d="M 2375 2203 
Q 2619 2141 2791 1967 
Q 2963 1794 3219 1275 
L 3853 0 
L 3175 0 
L 2619 1178 
Q 2378 1681 2186 1826 
Q 1994 1972 1684 1972 
L 1081 1972 
L 1081 0 
L 447 0 
L 447 4666 
L 1747 4666 
Q 2516 4666 2925 4319 
Q 3334 3972 3334 3316 
Q 3334 2853 3082 2561 
Q 2831 2269 2375 2203 
z
M 1081 4147 
L 1081 2491 
L 1772 2491 
Q 2225 2491 2447 2694 
Q 2669 2897 2669 3316 
Q 2669 3719 2433 3933 
Q 2197 4147 1747 4147 
L 1081 4147 
z
" transform="scale(0.015625)"/>
       <path id="Menlo-Regular-b2" d="M 1509 2444 
L 2791 2444 
L 2791 2088 
L 1006 2088 
L 1006 2431 
L 1728 3138 
Q 2044 3441 2170 3631 
Q 2297 3822 2297 3981 
Q 2297 4172 2140 4290 
Q 1984 4409 1728 4409 
Q 1575 4409 1398 4353 
Q 1222 4297 1025 4184 
L 1025 4575 
Q 1228 4663 1417 4706 
Q 1606 4750 1791 4750 
Q 2234 4750 2503 4542 
Q 2772 4334 2772 4000 
Q 2772 3822 2656 3636 
Q 2541 3450 2169 3084 
L 1509 2444 
z
" transform="scale(0.015625)"/>
      </defs>
      <use xlink:href="#Menlo-Regular-3c3"/>
      <use xlink:href="#Menlo-Regular-20" transform="translate(60.205078 0)"/>
      <use xlink:href="#Menlo-Regular-3d" transform="translate(120.410156 0)"/>
      <use xlink:href="#Menlo-Regular-20" transform="translate(180.615234 0)"/>
      <use xlink:href="#Menlo-Regular-3b1" transform="translate(240.820312 0)"/>
      <use xlink:href="#Menlo-Regular-20" transform="translate(301.025391 0)"/>
      <use xlink:href="#Menlo-Regular-b7" transform="translate(361.230469 0)"/>
      <use xlink:href="#Menlo-Regular-20" transform="translate(421.435547 0)"/>
      <use xlink:href="#Menlo-Regular-28" transform="translate(481.640625 0)"/>
      <use xlink:href="#Menlo-Regular-31" transform="translate(541.845703 0)"/>
      <use xlink:href="#Menlo-Regular-2f" transform="translate(602.050781 0)"/>
      <use xlink:href="#Menlo-Regular-66" transform="translate(662.255859 0)"/>
      <use xlink:href="#Menlo-Regular-5f" transform="translate(722.460938 0)"/>
      <use xlink:href="#Menlo-Regular-3b3" transform="translate(782.666016 0)"/>
      <use xlink:href="#Menlo-Regular-29" transform="translate(842.871094 0)"/>
      <use xlink:href="#Menlo-Regular-20" transform="translate(903.076172 0)"/>
      <use xlink:href="#Menlo-Regular-20" transform="translate(963.28125 0)"/>
      <use xlink:href="#Menlo-Regular-28" transform="translate(1023.486328 0)"/>
      <use xlink:href="#Menlo-Regular-3b1" transform="translate(1083.691406 0)"/>
      <use xlink:href="#Menlo-Regular-20" transform="translate(1143.896484 0)"/>
      <use xlink:href="#Menlo-Regular-3d" transform="translate(1204.101562 0)"/>
      <use xlink:href="#Menlo-Regular-20" transform="translate(1264.306641 0)"/>
      <use xlink:href="#Menlo-Regular-30" transform="translate(1324.511719 0)"/>
      <use xlink:href="#Menlo-Regular-2e" transform="translate(1384.716797 0)"/>
      <use xlink:href="#Menlo-Regular-35" transform="translate(1444.921875 0)"/>
      <use xlink:href="#Menlo-Regular-37" transform="translate(1505.126953 0)"/>
      <use xlink:href="#Menlo-Regular-2c" transform="translate(1565.332031 0)"/>
      <use xlink:href="#Menlo-Regular-20" transform="translate(1625.537109 0)"/>
      <use xlink:href="#Menlo-Regular-52" transform="translate(1685.742188 0)"/>
      <use xlink:href="#Menlo-Regular-b2" transform="translate(1745.947266 0)"/>
      <use xlink:href="#Menlo-Regular-20" transform="translate(1806.152344 0)"/>
      <use xlink:href="#Menlo-Regular-3d" transform="translate(1866.357422 0)"/>
      <use xlink:href="#Menlo-Regular-20" transform="translate(1926.5625 0)"/>
      <use xlink:href="#Menlo-Regular-30" transform="translate(1986.767578 0)"/>
      <use xlink:href="#Menlo-Regular-2e" transform="translate(2046.972656 0)"/>
      <use xlink:href="#Menlo-Regular-38" transform="translate(2107.177734 0)"/>
      <use xlink:href="#Menlo-Regular-38" transform="translate(2167.382812 0)"/>
      <use xlink:href="#Menlo-Regular-33" transform="translate(2227.587891 0)"/>
      <use xlink:href="#Menlo-Regular-29" transform="translate(2287.792969 0)"/>
     </g>
    </g>
    <g id="line2d_40">
     <path d="M 31.433438 54.118455 
L 37.033438 54.118455 
L 42.633438 54.118455 
" style="fill: none; stroke-dasharray: 0.8,1.32; stroke-dashoffset: 0; stroke: #6a6a6a; stroke-width: 0.8"/>
    </g>
    <g id="text_23">
     <!-- predicted: σ = 1/f_γ -->
     <g style="fill: #1a1a1a" transform="translate(48.233438 56.568455) scale(0.07 -0.07)">
      <defs>
       <path id="Menlo-Regular-70" d="M 1172 441 
L 1172 -1331 
L 594 -1331 
L 594 3500 
L 1172 3500 
L 1172 3053 
Q 1316 3313 1555 3448 
Q 1794 3584 2106 3584 
Q 2741 3584 3102 3093 
Q 3463 2603 3463 1734 
Q 3463 881 3100 395 
Q 2738 -91 2106 -91 
Q 1788 -91 1548 45 
Q 1309 181 1172 441 
z
M 2859 1747 
Q 2859 2416 2648 2756 
Q 2438 3097 2022 3097 
Q 1603 3097 1387 2755 
Q 1172 2413 1172 1747 
Q 1172 1084 1387 740 
Q 1603 397 2022 397 
Q 2438 397 2648 737 
Q 2859 1078 2859 1747 
z
" transform="scale(0.015625)"/>
       <path id="Menlo-Regular-3a" d="M 1341 3497 
L 2316 3497 
L 2316 2369 
L 1341 2369 
L 1341 3497 
z
M 1341 1138 
L 2316 1138 
L 2316 0 
L 1341 0 
L 1341 1138 
z
" transform="scale(0.015625)"/>
      </defs>
      <use xlink:href="#Menlo-Regular-70"/>
      <use xlink:href="#Menlo-Regular-72" transform="translate(60.205078 0)"/>
      <use xlink:href="#Menlo-Regular-65" transform="translate(120.410156 0)"/>
      <use xlink:href="#Menlo-Regular-64" transform="translate(180.615234 0)"/>
      <use xlink:href="#Menlo-Regular-69" transform="translate(240.820312 0)"/>
      <use xlink:href="#Menlo-Regular-63" transform="translate(301.025391 0)"/>
      <use xlink:href="#Menlo-Regular-74" transform="translate(361.230469 0)"/>
      <use xlink:href="#Menlo-Regular-65" transform="translate(421.435547 0)"/>
      <use xlink:href="#Menlo-Regular-64" transform="translate(481.640625 0)"/>
      <use xlink:href="#Menlo-Regular-3a" transform="translate(541.845703 0)"/>
      <use xlink:href="#Menlo-Regular-20" transform="translate(602.050781 0)"/>
      <use xlink:href="#Menlo-Regular-3c3" transform="translate(662.255859 0)"/>
      <use xlink:href="#Menlo-Regular-20" transform="translate(722.460938 0)"/>
      <use xlink:href="#Menlo-Regular-3d" transform="translate(782.666016 0)"/>
      <use xlink:href="#Menlo-Regular-20" transform="translate(842.871094 0)"/>
      <use xlink:href="#Menlo-Regular-31" transform="translate(903.076172 0)"/>
      <use xlink:href="#Menlo-Regular-2f" transform="translate(963.28125 0)"/>
      <use xlink:href="#Menlo-Regular-66" transform="translate(1023.486328 0)"/>
      <use xlink:href="#Menlo-Regular-5f" transform="translate(1083.691406 0)"/>
      <use xlink:href="#Menlo-Regular-3b3" transform="translate(1143.896484 0)"/>
     </g>
    </g>
   </g>
  </g>
  <g id="text_24">
   <!-- Inflection σ tracks 1/f_γ across τ_GABA -->
   <g transform="translate(95.146758 7.922578) scale(0.085 -0.085)">
    <defs>
     <path id="Menlo-Regular-49" d="M 628 4666 
L 3219 4666 
L 3219 4134 
L 2241 4134 
L 2241 531 
L 3219 531 
L 3219 0 
L 628 0 
L 628 531 
L 1606 531 
L 1606 4134 
L 628 4134 
L 628 4666 
z
" transform="scale(0.015625)"/>
     <path id="Menlo-Regular-6b" d="M 738 4863 
L 1331 4863 
L 1331 2047 
L 2841 3500 
L 3541 3500 
L 2163 2181 
L 3756 0 
L 3053 0 
L 1759 1806 
L 1331 1403 
L 1331 0 
L 738 0 
L 738 4863 
z
" transform="scale(0.015625)"/>
     <path id="Menlo-Regular-3c4" d="M 2319 638 
Q 2431 488 2769 488 
L 3047 488 
L 3047 0 
L 2700 0 
Q 2138 0 1881 300 
Q 1625 606 1625 1269 
L 1625 2925 
L 500 2925 
L 500 3494 
L 3356 3494 
L 3356 2925 
L 2213 2925 
L 2213 1234 
Q 2213 781 2319 638 
z
" transform="scale(0.015625)"/>
     <path id="Menlo-Regular-47" d="M 3450 384 
Q 3197 150 2880 29 
Q 2563 -91 2194 -91 
Q 1306 -91 812 545 
Q 319 1181 319 2328 
Q 319 3472 819 4111 
Q 1319 4750 2209 4750 
Q 2503 4750 2772 4667 
Q 3041 4584 3291 4416 
L 3291 3769 
Q 3038 4009 2772 4123 
Q 2506 4238 2209 4238 
Q 1594 4238 1286 3761 
Q 978 3284 978 2328 
Q 978 1356 1276 889 
Q 1575 422 2194 422 
Q 2403 422 2561 470 
Q 2719 519 2847 622 
L 2847 1875 
L 2169 1875 
L 2169 2394 
L 3450 2394 
L 3450 384 
z
" transform="scale(0.015625)"/>
     <path id="Menlo-Regular-41" d="M 1925 4109 
L 1259 1722 
L 2591 1722 
L 1925 4109 
z
M 1544 4666 
L 2309 4666 
L 3738 0 
L 3084 0 
L 2741 1216 
L 1106 1216 
L 769 0 
L 116 0 
L 1544 4666 
z
" transform="scale(0.015625)"/>
     <path id="Menlo-Regular-42" d="M 1153 2353 
L 1153 519 
L 1900 519 
Q 2450 519 2684 711 
Q 2919 903 2919 1344 
Q 2919 1925 2672 2139 
Q 2425 2353 1900 2353 
L 1153 2353 
z
M 1153 4147 
L 1153 2866 
L 1888 2866 
Q 2344 2866 2548 3041 
Q 2753 3216 2753 3481 
Q 2753 3834 2551 3990 
Q 2350 4147 1888 4147 
L 1153 4147 
z
M 519 4666 
L 1900 4666 
Q 2616 4666 3003 4356 
Q 3391 4047 3391 3481 
Q 3391 3178 3186 2931 
Q 2981 2684 2572 2622 
Q 3031 2553 3292 2229 
Q 3553 1906 3553 1281 
Q 3553 647 3137 323 
Q 2722 0 1900 0 
L 519 0 
L 519 4666 
z
" transform="scale(0.015625)"/>
    </defs>
    <use xlink:href="#Menlo-Regular-49"/>
    <use xlink:href="#Menlo-Regular-6e" transform="translate(60.205078 0)"/>
    <use xlink:href="#Menlo-Regular-66" transform="translate(120.410156 0)"/>
    <use xlink:href="#Menlo-Regular-6c" transform="translate(180.615234 0)"/>
    <use xlink:href="#Menlo-Regular-65" transform="translate(240.820312 0)"/>
    <use xlink:href="#Menlo-Regular-63" transform="translate(301.025391 0)"/>
    <use xlink:href="#Menlo-Regular-74" transform="translate(361.230469 0)"/>
    <use xlink:href="#Menlo-Regular-69" transform="translate(421.435547 0)"/>
    <use xlink:href="#Menlo-Regular-6f" transform="translate(481.640625 0)"/>
    <use xlink:href="#Menlo-Regular-6e" transform="translate(541.845703 0)"/>
    <use xlink:href="#Menlo-Regular-20" transform="translate(602.050781 0)"/>
    <use xlink:href="#Menlo-Regular-3c3" transform="translate(662.255859 0)"/>
    <use xlink:href="#Menlo-Regular-20" transform="translate(722.460938 0)"/>
    <use xlink:href="#Menlo-Regular-74" transform="translate(782.666016 0)"/>
    <use xlink:href="#Menlo-Regular-72" transform="translate(842.871094 0)"/>
    <use xlink:href="#Menlo-Regular-61" transform="translate(903.076172 0)"/>
    <use xlink:href="#Menlo-Regular-63" transform="translate(963.28125 0)"/>
    <use xlink:href="#Menlo-Regular-6b" transform="translate(1023.486328 0)"/>
    <use xlink:href="#Menlo-Regular-73" transform="translate(1083.691406 0)"/>
    <use xlink:href="#Menlo-Regular-20" transform="translate(1143.896484 0)"/>
    <use xlink:href="#Menlo-Regular-31" transform="translate(1204.101562 0)"/>
    <use xlink:href="#Menlo-Regular-2f" transform="translate(1264.306641 0)"/>
    <use xlink:href="#Menlo-Regular-66" transform="translate(1324.511719 0)"/>
    <use xlink:href="#Menlo-Regular-5f" transform="translate(1384.716797 0)"/>
    <use xlink:href="#Menlo-Regular-3b3" transform="translate(1444.921875 0)"/>
    <use xlink:href="#Menlo-Regular-20" transform="translate(1505.126953 0)"/>
    <use xlink:href="#Menlo-Regular-61" transform="translate(1565.332031 0)"/>
    <use xlink:href="#Menlo-Regular-63" transform="translate(1625.537109 0)"/>
    <use xlink:href="#Menlo-Regular-72" transform="translate(1685.742188 0)"/>
    <use xlink:href="#Menlo-Regular-6f" transform="translate(1745.947266 0)"/>
    <use xlink:href="#Menlo-Regular-73" transform="translate(1806.152344 0)"/>
    <use xlink:href="#Menlo-Regular-73" transform="translate(1866.357422 0)"/>
    <use xlink:href="#Menlo-Regular-20" transform="translate(1926.5625 0)"/>
    <use xlink:href="#Menlo-Regular-3c4" transform="translate(1986.767578 0)"/>
    <use xlink:href="#Menlo-Regular-5f" transform="translate(2046.972656 0)"/>
    <use xlink:href="#Menlo-Regular-47" transform="translate(2107.177734 0)"/>
    <use xlink:href="#Menlo-Regular-41" transform="translate(2167.382812 0)"/>
    <use xlink:href="#Menlo-Regular-42" transform="translate(2227.587891 0)"/>
    <use xlink:href="#Menlo-Regular-41" transform="translate(2287.792969 0)"/>
   </g>
  </g>
  <g id="text_25">
   <!-- r013 -->
   <g style="fill: #888888" transform="translate(378.864625 280.888203) scale(0.065 -0.065)">
    <use xlink:href="#Menlo-Regular-72"/>
    <use xlink:href="#Menlo-Regular-30" transform="translate(60.205078 0)"/>
    <use xlink:href="#Menlo-Regular-31" transform="translate(120.410156 0)"/>
    <use xlink:href="#Menlo-Regular-33" transform="translate(180.615234 0)"/>
   </g>
  </g>
 </g>
 <defs>
  <clipPath id="p04d67dcd36">
   <rect x="25.133438" y="24.026112" width="360.184115" height="228.753888"/>
  </clipPath>
 </defs>
</svg>
