<?xml version="1.0" encoding="utf-8" standalone="no"?>
<!DOCTYPE svg PUBLIC "-//W3C//DTD SVG 1.1//EN"
  "http://www.w3.org/Graphics/SVG/1.1/DTD/svg11.dtd">
<svg xmlns:xlink="http://www.w3.org/1999/xlink" width="274.156484pt" height="148.460625pt" viewBox="0 0 274.156484 148.460625" xmlns="http://www.w3.org/2000/svg" version="1.1">
 <metadata>
  <rdf:RDF xmlns:dc="http://purl.org/dc/elements/1.1/" xmlns:cc="http://creativecommons.org/ns#" xmlns:rdf="http://www.w3.org/1999/02/22-rdf-syntax-ns#">
   <cc:Work>
    <dc:type rdf:resource="http://purl.org/dc/dcmitype/StillImage"/>
    <dc:date>2026-07-02T14:14:00.220839</dc:date>
    <dc:format>image/svg+xml</dc:format>
    <dc:creator>
     <cc:Agent>
      <dc:title>Matplotlib v3.10.8, https://matplotlib.org/</dc:title>
     </cc:Agent>
    </dc:creator>
   </cc:Work>
  </rdf:RDF>
 </metadata>
 <defs>
  <style type="text/css">*{stroke-linejoin: round; stroke-linecap: butt}</style>
 </defs>
 <g id="figure_1">
  <g id="patch_1">
   <path d="M 0 148.460625 
L 274.156484 148.460625 
L 274.156484 0 
L 0 0 
z
" style="fill: #ffffff"/>
  </g>
  <g id="axes_1">
   <g id="patch_2">
    <path d="M 29.770156 124.96125 
L 266.39516 124.96125 
L 266.39516 13.54125 
L 29.770156 13.54125 
z
" style="fill: #ffffff"/>
   </g>
   <g id="matplotlib.axis_1">
    <g id="xtick_1">
     <g id="line2d_1">
      <defs>
       <path id="md96faa9fb3" d="M 0 0 
L 0 -3 
" style="stroke: #1a1a1a; stroke-width: 0.8"/>
      </defs>
      <g>
       <use xlink:href="#md96faa9fb3" x="29.770156" y="124.96125" style="fill: #1a1a1a; stroke: #1a1a1a; stroke-width: 0.8"/>
      </g>
     </g>
     <g id="text_1">
      <!-- 0 -->
      <g style="fill: #1a1a1a" transform="translate(27.663047 133.799844) scale(0.07 -0.07)">
       <defs>
        <path id="Menlo-Regular-30" d="M 1925 4734 
Q 2672 4734 3055 4125 
Q 3438 3516 3438 2322 
Q 3438 1128 3055 518 
Q 2672 -91 1925 -91 
Q 1178 -91 797 518 
Q 416 1128 416 2322 
Q 416 3516 797 4125 
Q 1178 4734 1925 4734 
z
M 1925 409 
Q 2369 409 2586 881 
Q 2803 1353 2803 2322 
Q 2803 2838 2741 3253 
L 1253 925 
Q 1488 409 1925 409 
z
M 1925 4234 
Q 1484 4234 1267 3762 
Q 1050 3291 1050 2322 
Q 1050 1881 1109 1497 
L 2566 3819 
Q 2328 4234 1925 4234 
z
" transform="scale(0.015625)"/>
       </defs>
       <use xlink:href="#Menlo-Regular-30"/>
      </g>
     </g>
    </g>
    <g id="xtick_2">
     <g id="line2d_2">
      <g>
       <use xlink:href="#md96faa9fb3" x="59.348281" y="124.96125" style="fill: #1a1a1a; stroke: #1a1a1a; stroke-width: 0.8"/>
      </g>
     </g>
     <g id="text_2">
      <!-- 50 -->
      <g style="fill: #1a1a1a" transform="translate(55.134062 133.799844) scale(0.07 -0.07)">
       <defs>
        <path id="Menlo-Regular-35" d="M 647 4666 
L 3009 4666 
L 3009 4134 
L 1222 4134 
L 1222 2988 
Q 1356 3038 1492 3061 
Q 1628 3084 1766 3084 
Q 2491 3084 2916 2656 
Q 3341 2228 3341 1497 
Q 3341 759 2895 334 
Q 2450 -91 1678 -91 
Q 1306 -91 998 -41 
Q 691 9 447 109 
L 447 750 
Q 734 594 1025 517 
Q 1316 441 1619 441 
Q 2141 441 2423 716 
Q 2706 991 2706 1497 
Q 2706 1997 2414 2275 
Q 2122 2553 1600 2553 
Q 1347 2553 1106 2495 
Q 866 2438 647 2322 
L 647 4666 
z
" transform="scale(0.015625)"/>
       </defs>
       <use xlink:href="#Menlo-Regular-35"/>
       <use xlink:href="#Menlo-Regular-30" transform="translate(60.205078 0)"/>
      </g>
     </g>
    </g>
    <g id="xtick_3">
     <g id="line2d_3">
      <g>
       <use xlink:href="#md96faa9fb3" x="88.926406" y="124.96125" style="fill: #1a1a1a; stroke: #1a1a1a; stroke-width: 0.8"/>
      </g>
     </g>
     <g id="text_3">
      <!-- 100 -->
      <g style="fill: #1a1a1a" transform="translate(82.605078 133.799844) scale(0.07 -0.07)">
       <defs>
        <path id="Menlo-Regular-31" d="M 844 528 
L 1825 528 
L 1825 4053 
L 650 3488 
L 650 4094 
L 1819 4650 
L 2450 4650 
L 2450 528 
L 3419 528 
L 3419 0 
L 844 0 
L 844 528 
z
" transform="scale(0.015625)"/>
       </defs>
       <use xlink:href="#Menlo-Regular-31"/>
       <use xlink:href="#Menlo-Regular-30" transform="translate(60.205078 0)"/>
       <use xlink:href="#Menlo-Regular-30" transform="translate(120.410156 0)"/>
      </g>
     </g>
    </g>
    <g id="xtick_4">
     <g id="line2d_4">
      <g>
       <use xlink:href="#md96faa9fb3" x="118.504531" y="124.96125" style="fill: #1a1a1a; stroke: #1a1a1a; stroke-width: 0.8"/>
      </g>
     </g>
     <g id="text_4">
      <!-- 150 -->
      <g style="fill: #1a1a1a" transform="translate(112.183203 133.799844) scale(0.07 -0.07)">
       <use xlink:href="#Menlo-Regular-31"/>
       <use xlink:href="#Menlo-Regular-35" transform="translate(60.205078 0)"/>
       <use xlink:href="#Menlo-Regular-30" transform="translate(120.410156 0)"/>
      </g>
     </g>
    </g>
    <g id="xtick_5">
     <g id="line2d_5">
      <g>
       <use xlink:href="#md96faa9fb3" x="148.082656" y="124.96125" style="fill: #1a1a1a; stroke: #1a1a1a; stroke-width: 0.8"/>
      </g>
     </g>
     <g id="text_5">
      <!-- 200 -->
      <g style="fill: #1a1a1a" transform="translate(141.761328 133.799844) scale(0.07 -0.07)">
       <defs>
        <path id="Menlo-Regular-32" d="M 1166 531 
L 3309 531 
L 3309 0 
L 475 0 
L 475 531 
Q 1059 1147 1496 1619 
Q 1934 2091 2100 2284 
Q 2413 2666 2522 2902 
Q 2631 3138 2631 3384 
Q 2631 3775 2401 3997 
Q 2172 4219 1772 4219 
Q 1488 4219 1175 4116 
Q 863 4013 513 3803 
L 513 4441 
Q 834 4594 1145 4672 
Q 1456 4750 1759 4750 
Q 2444 4750 2861 4386 
Q 3278 4022 3278 3431 
Q 3278 3131 3139 2831 
Q 3000 2531 2688 2169 
Q 2513 1966 2180 1606 
Q 1847 1247 1166 531 
z
" transform="scale(0.015625)"/>
       </defs>
       <use xlink:href="#Menlo-Regular-32"/>
       <use xlink:href="#Menlo-Regular-30" transform="translate(60.205078 0)"/>
       <use xlink:href="#Menlo-Regular-30" transform="translate(120.410156 0)"/>
      </g>
     </g>
    </g>
    <g id="xtick_6">
     <g id="line2d_6">
      <g>
       <use xlink:href="#md96faa9fb3" x="177.660781" y="124.96125" style="fill: #1a1a1a; stroke: #1a1a1a; stroke-width: 0.8"/>
      </g>
     </g>
     <g id="text_6">
      <!-- 250 -->
      <g style="fill: #1a1a1a" transform="translate(171.339453 133.799844) scale(0.07 -0.07)">
       <use xlink:href="#Menlo-Regular-32"/>
       <use xlink:href="#Menlo-Regular-35" transform="translate(60.205078 0)"/>
       <use xlink:href="#Menlo-Regular-30" transform="translate(120.410156 0)"/>
      </g>
     </g>
    </g>
    <g id="xtick_7">
     <g id="line2d_7">
      <g>
       <use xlink:href="#md96faa9fb3" x="207.238906" y="124.96125" style="fill: #1a1a1a; stroke: #1a1a1a; stroke-width: 0.8"/>
      </g>
     </g>
     <g id="text_7">
      <!-- 300 -->
      <g style="fill: #1a1a1a" transform="translate(200.917578 133.799844) scale(0.07 -0.07)">
       <defs>
        <path id="Menlo-Regular-33" d="M 2425 2497 
Q 2884 2375 3128 2064 
Q 3372 1753 3372 1288 
Q 3372 644 2939 276 
Q 2506 -91 1741 -91 
Q 1419 -91 1084 -31 
Q 750 28 428 141 
L 428 769 
Q 747 603 1056 522 
Q 1366 441 1672 441 
Q 2191 441 2469 675 
Q 2747 909 2747 1350 
Q 2747 1756 2469 1995 
Q 2191 2234 1716 2234 
L 1234 2234 
L 1234 2753 
L 1716 2753 
Q 2150 2753 2394 2943 
Q 2638 3134 2638 3475 
Q 2638 3834 2411 4026 
Q 2184 4219 1766 4219 
Q 1488 4219 1191 4156 
Q 894 4094 569 3969 
L 569 4550 
Q 947 4650 1242 4700 
Q 1538 4750 1766 4750 
Q 2447 4750 2855 4408 
Q 3263 4066 3263 3500 
Q 3263 3116 3048 2859 
Q 2834 2603 2425 2497 
z
" transform="scale(0.015625)"/>
       </defs>
       <use xlink:href="#Menlo-Regular-33"/>
       <use xlink:href="#Menlo-Regular-30" transform="translate(60.205078 0)"/>
       <use xlink:href="#Menlo-Regular-30" transform="translate(120.410156 0)"/>
      </g>
     </g>
    </g>
    <g id="xtick_8">
     <g id="line2d_8">
      <g>
       <use xlink:href="#md96faa9fb3" x="236.817031" y="124.96125" style="fill: #1a1a1a; stroke: #1a1a1a; stroke-width: 0.8"/>
      </g>
     </g>
     <g id="text_8">
      <!-- 350 -->
      <g style="fill: #1a1a1a" transform="translate(230.495703 133.799844) scale(0.07 -0.07)">
       <use xlink:href="#Menlo-Regular-33"/>
       <use xlink:href="#Menlo-Regular-35" transform="translate(60.205078 0)"/>
       <use xlink:href="#Menlo-Regular-30" transform="translate(120.410156 0)"/>
      </g>
     </g>
    </g>
    <g id="xtick_9">
     <g id="line2d_9">
      <g>
       <use xlink:href="#md96faa9fb3" x="266.395156" y="124.96125" style="fill: #1a1a1a; stroke: #1a1a1a; stroke-width: 0.8"/>
      </g>
     </g>
     <g id="text_9">
      <!-- 400 -->
      <g style="fill: #1a1a1a" transform="translate(260.073828 133.799844) scale(0.07 -0.07)">
       <defs>
        <path id="Menlo-Regular-34" d="M 2297 4091 
L 825 1625 
L 2297 1625 
L 2297 4091 
z
M 2194 4666 
L 2925 4666 
L 2925 1625 
L 3547 1625 
L 3547 1113 
L 2925 1113 
L 2925 0 
L 2297 0 
L 2297 1113 
L 319 1113 
L 319 1709 
L 2194 4666 
z
" transform="scale(0.015625)"/>
       </defs>
       <use xlink:href="#Menlo-Regular-34"/>
       <use xlink:href="#Menlo-Regular-30" transform="translate(60.205078 0)"/>
       <use xlink:href="#Menlo-Regular-30" transform="translate(120.410156 0)"/>
      </g>
     </g>
    </g>
    <g id="text_10">
     <!-- time (ms) -->
     <g style="fill: #1a1a1a" transform="translate(126.409533 145.356875) scale(0.08 -0.08)">
      <defs>
       <path id="Menlo-Regular-74" d="M 1919 4494 
L 1919 3500 
L 3225 3500 
L 3225 3053 
L 1919 3053 
L 1919 1153 
Q 1919 766 2066 612 
Q 2213 459 2578 459 
L 3225 459 
L 3225 0 
L 2522 0 
Q 1875 0 1609 259 
Q 1344 519 1344 1153 
L 1344 3053 
L 409 3053 
L 409 3500 
L 1344 3500 
L 1344 4494 
L 1919 4494 
z
" transform="scale(0.015625)"/>
       <path id="Menlo-Regular-69" d="M 988 3488 
L 2459 3488 
L 2459 447 
L 3600 447 
L 3600 0 
L 744 0 
L 744 447 
L 1884 447 
L 1884 3041 
L 988 3041 
L 988 3488 
z
M 1884 4847 
L 2459 4847 
L 2459 4122 
L 1884 4122 
L 1884 4847 
z
" transform="scale(0.015625)"/>
       <path id="Menlo-Regular-6d" d="M 2113 3144 
Q 2219 3369 2383 3476 
Q 2547 3584 2778 3584 
Q 3200 3584 3373 3257 
Q 3547 2931 3547 2028 
L 3547 0 
L 3022 0 
L 3022 2003 
Q 3022 2744 2939 2923 
Q 2856 3103 2638 3103 
Q 2388 3103 2295 2911 
Q 2203 2719 2203 2003 
L 2203 0 
L 1678 0 
L 1678 2003 
Q 1678 2753 1589 2928 
Q 1500 3103 1269 3103 
Q 1041 3103 952 2911 
Q 863 2719 863 2003 
L 863 0 
L 341 0 
L 341 3500 
L 863 3500 
L 863 3200 
Q 966 3388 1120 3486 
Q 1275 3584 1472 3584 
Q 1709 3584 1867 3475 
Q 2025 3366 2113 3144 
z
" transform="scale(0.015625)"/>
       <path id="Menlo-Regular-65" d="M 3500 2038 
L 3500 1756 
L 1009 1756 
L 1009 1738 
Q 984 1022 1282 709 
Q 1581 397 2125 397 
Q 2400 397 2700 484 
Q 3000 572 3341 750 
L 3341 178 
Q 3013 44 2708 -23 
Q 2403 -91 2119 -91 
Q 1303 -91 843 398 
Q 384 888 384 1747 
Q 384 2584 834 3084 
Q 1284 3584 2034 3584 
Q 2703 3584 3089 3131 
Q 3475 2678 3500 2038 
z
M 2925 2206 
Q 2888 2569 2661 2833 
Q 2434 3097 2009 3097 
Q 1594 3097 1325 2822 
Q 1056 2547 1031 2203 
L 2925 2206 
z
" transform="scale(0.015625)"/>
       <path id="Menlo-Regular-20" transform="scale(0.015625)"/>
       <path id="Menlo-Regular-28" d="M 2672 5169 
Q 2256 4456 2051 3748 
Q 1847 3041 1847 2322 
Q 1847 1606 2051 897 
Q 2256 188 2672 -531 
L 2172 -531 
Q 1700 213 1469 917 
Q 1238 1622 1238 2322 
Q 1238 3019 1469 3725 
Q 1700 4431 2172 5169 
L 2672 5169 
z
" transform="scale(0.015625)"/>
       <path id="Menlo-Regular-73" d="M 3041 3378 
L 3041 2816 
Q 2794 2959 2544 3031 
Q 2294 3103 2034 3103 
Q 1644 3103 1451 2976 
Q 1259 2850 1259 2591 
Q 1259 2356 1403 2240 
Q 1547 2125 2119 2016 
L 2350 1972 
Q 2778 1891 2998 1647 
Q 3219 1403 3219 1013 
Q 3219 494 2850 201 
Q 2481 -91 1825 -91 
Q 1566 -91 1281 -36 
Q 997 19 666 128 
L 666 722 
Q 988 556 1281 473 
Q 1575 391 1838 391 
Q 2219 391 2428 545 
Q 2638 700 2638 978 
Q 2638 1378 1872 1531 
L 1847 1538 
L 1631 1581 
Q 1134 1678 906 1908 
Q 678 2138 678 2534 
Q 678 3038 1018 3311 
Q 1359 3584 1991 3584 
Q 2272 3584 2531 3532 
Q 2791 3481 3041 3378 
z
" transform="scale(0.015625)"/>
       <path id="Menlo-Regular-29" d="M 1088 5169 
L 1588 5169 
Q 2059 4431 2290 3725 
Q 2522 3019 2522 2322 
Q 2522 1619 2290 912 
Q 2059 206 1588 -531 
L 1088 -531 
Q 1503 194 1708 903 
Q 1913 1613 1913 2322 
Q 1913 3034 1708 3743 
Q 1503 4453 1088 5169 
z
" transform="scale(0.015625)"/>
      </defs>
      <use xlink:href="#Menlo-Regular-74"/>
      <use xlink:href="#Menlo-Regular-69" transform="translate(60.205078 0)"/>
      <use xlink:href="#Menlo-Regular-6d" transform="translate(120.410156 0)"/>
      <use xlink:href="#Menlo-Regular-65" transform="translate(180.615234 0)"/>
      <use xlink:href="#Menlo-Regular-20" transform="translate(240.820312 0)"/>
      <use xlink:href="#Menlo-Regular-28" transform="translate(301.025391 0)"/>
      <use xlink:href="#Menlo-Regular-6d" transform="translate(361.230469 0)"/>
      <use xlink:href="#Menlo-Regular-73" transform="translate(421.435547 0)"/>
      <use xlink:href="#Menlo-Regular-29" transform="translate(481.640625 0)"/>
     </g>
    </g>
   </g>
   <g id="matplotlib.axis_2">
    <g id="ytick_1">
     <g id="line2d_10">
      <defs>
       <path id="m0ef29c630c" d="M 0 0 
L 3 0 
" style="stroke: #1a1a1a; stroke-width: 0.8"/>
      </defs>
      <g>
       <use xlink:href="#m0ef29c630c" x="29.770156" y="119.896705" style="fill: #1a1a1a; stroke: #1a1a1a; stroke-width: 0.8"/>
      </g>
     </g>
     <g id="text_11">
      <!-- 0.0 -->
      <g style="fill: #1a1a1a" transform="translate(13.6275 122.566001) scale(0.07 -0.07)">
       <defs>
        <path id="Menlo-Regular-2e" d="M 1216 1263 
L 2316 1263 
L 2316 0 
L 1216 0 
L 1216 1263 
z
" transform="scale(0.015625)"/>
       </defs>
       <use xlink:href="#Menlo-Regular-30"/>
       <use xlink:href="#Menlo-Regular-2e" transform="translate(60.205078 0)"/>
       <use xlink:href="#Menlo-Regular-30" transform="translate(120.410156 0)"/>
      </g>
     </g>
    </g>
    <g id="ytick_2">
     <g id="line2d_11">
      <g>
       <use xlink:href="#m0ef29c630c" x="29.770156" y="102.900998" style="fill: #1a1a1a; stroke: #1a1a1a; stroke-width: 0.8"/>
      </g>
     </g>
     <g id="text_12">
      <!-- 0.2 -->
      <g style="fill: #1a1a1a" transform="translate(13.6275 105.570295) scale(0.07 -0.07)">
       <use xlink:href="#Menlo-Regular-30"/>
       <use xlink:href="#Menlo-Regular-2e" transform="translate(60.205078 0)"/>
       <use xlink:href="#Menlo-Regular-32" transform="translate(120.410156 0)"/>
      </g>
     </g>
    </g>
    <g id="ytick_3">
     <g id="line2d_12">
      <g>
       <use xlink:href="#m0ef29c630c" x="29.770156" y="85.905291" style="fill: #1a1a1a; stroke: #1a1a1a; stroke-width: 0.8"/>
      </g>
     </g>
     <g id="text_13">
      <!-- 0.4 -->
      <g style="fill: #1a1a1a" transform="translate(13.6275 88.574588) scale(0.07 -0.07)">
       <use xlink:href="#Menlo-Regular-30"/>
       <use xlink:href="#Menlo-Regular-2e" transform="translate(60.205078 0)"/>
       <use xlink:href="#Menlo-Regular-34" transform="translate(120.410156 0)"/>
      </g>
     </g>
    </g>
    <g id="ytick_4">
     <g id="line2d_13">
      <g>
       <use xlink:href="#m0ef29c630c" x="29.770156" y="68.909585" style="fill: #1a1a1a; stroke: #1a1a1a; stroke-width: 0.8"/>
      </g>
     </g>
     <g id="text_14">
      <!-- 0.6 -->
      <g style="fill: #1a1a1a" transform="translate(13.6275 71.578882) scale(0.07 -0.07)">
       <defs>
        <path id="Menlo-Regular-36" d="M 3097 4563 
L 3097 3981 
Q 2900 4097 2678 4158 
Q 2456 4219 2216 4219 
Q 1616 4219 1306 3767 
Q 997 3316 997 2438 
Q 1147 2750 1412 2917 
Q 1678 3084 2022 3084 
Q 2697 3084 3067 2670 
Q 3438 2256 3438 1497 
Q 3438 741 3056 325 
Q 2675 -91 1984 -91 
Q 1172 -91 794 492 
Q 416 1075 416 2328 
Q 416 3509 870 4129 
Q 1325 4750 2188 4750 
Q 2419 4750 2650 4701 
Q 2881 4653 3097 4563 
z
M 1972 2591 
Q 1569 2591 1337 2300 
Q 1106 2009 1106 1497 
Q 1106 984 1337 693 
Q 1569 403 1972 403 
Q 2391 403 2603 679 
Q 2816 956 2816 1497 
Q 2816 2041 2603 2316 
Q 2391 2591 1972 2591 
z
" transform="scale(0.015625)"/>
       </defs>
       <use xlink:href="#Menlo-Regular-30"/>
       <use xlink:href="#Menlo-Regular-2e" transform="translate(60.205078 0)"/>
       <use xlink:href="#Menlo-Regular-36" transform="translate(120.410156 0)"/>
      </g>
     </g>
    </g>
    <g id="ytick_5">
     <g id="line2d_14">
      <g>
       <use xlink:href="#m0ef29c630c" x="29.770156" y="51.913878" style="fill: #1a1a1a; stroke: #1a1a1a; stroke-width: 0.8"/>
      </g>
     </g>
     <g id="text_15">
      <!-- 0.8 -->
      <g style="fill: #1a1a1a" transform="translate(13.6275 54.583175) scale(0.07 -0.07)">
       <defs>
        <path id="Menlo-Regular-38" d="M 1925 2216 
Q 1503 2216 1273 1980 
Q 1044 1744 1044 1313 
Q 1044 881 1276 642 
Q 1509 403 1925 403 
Q 2350 403 2579 639 
Q 2809 875 2809 1313 
Q 2809 1741 2576 1978 
Q 2344 2216 1925 2216 
z
M 1375 2478 
Q 972 2581 745 2862 
Q 519 3144 519 3541 
Q 519 4097 897 4423 
Q 1275 4750 1925 4750 
Q 2578 4750 2956 4423 
Q 3334 4097 3334 3541 
Q 3334 3144 3107 2862 
Q 2881 2581 2478 2478 
Q 2947 2375 3195 2062 
Q 3444 1750 3444 1253 
Q 3444 622 3041 265 
Q 2638 -91 1925 -91 
Q 1213 -91 811 264 
Q 409 619 409 1247 
Q 409 1747 657 2061 
Q 906 2375 1375 2478 
z
M 1147 3481 
Q 1147 3106 1347 2909 
Q 1547 2713 1925 2713 
Q 2306 2713 2506 2909 
Q 2706 3106 2706 3481 
Q 2706 3863 2507 4063 
Q 2309 4263 1925 4263 
Q 1547 4263 1347 4061 
Q 1147 3859 1147 3481 
z
" transform="scale(0.015625)"/>
       </defs>
       <use xlink:href="#Menlo-Regular-30"/>
       <use xlink:href="#Menlo-Regular-2e" transform="translate(60.205078 0)"/>
       <use xlink:href="#Menlo-Regular-38" transform="translate(120.410156 0)"/>
      </g>
     </g>
    </g>
    <g id="ytick_6">
     <g id="line2d_15">
      <g>
       <use xlink:href="#m0ef29c630c" x="29.770156" y="34.918171" style="fill: #1a1a1a; stroke: #1a1a1a; stroke-width: 0.8"/>
      </g>
     </g>
     <g id="text_16">
      <!-- 1.0 -->
      <g style="fill: #1a1a1a" transform="translate(13.6275 37.587468) scale(0.07 -0.07)">
       <use xlink:href="#Menlo-Regular-31"/>
       <use xlink:href="#Menlo-Regular-2e" transform="translate(60.205078 0)"/>
       <use xlink:href="#Menlo-Regular-30" transform="translate(120.410156 0)"/>
      </g>
     </g>
    </g>
    <g id="ytick_7">
     <g id="line2d_16">
      <g>
       <use xlink:href="#m0ef29c630c" x="29.770156" y="17.922465" style="fill: #1a1a1a; stroke: #1a1a1a; stroke-width: 0.8"/>
      </g>
     </g>
     <g id="text_17">
      <!-- 1.2 -->
      <g style="fill: #1a1a1a" transform="translate(13.6275 20.591762) scale(0.07 -0.07)">
       <use xlink:href="#Menlo-Regular-31"/>
       <use xlink:href="#Menlo-Regular-2e" transform="translate(60.205078 0)"/>
       <use xlink:href="#Menlo-Regular-32" transform="translate(120.410156 0)"/>
      </g>
     </g>
    </g>
    <g id="text_18">
     <!-- g  [µS] -->
     <g style="fill: #1a1a1a" transform="translate(7.90875 86.108125) rotate(-90) scale(0.08 -0.08)">
      <defs>
       <path id="Menlo-Regular-67" d="M 2681 1778 
Q 2681 2425 2470 2761 
Q 2259 3097 1856 3097 
Q 1434 3097 1212 2761 
Q 991 2425 991 1778 
Q 991 1131 1214 792 
Q 1438 453 1863 453 
Q 2259 453 2470 793 
Q 2681 1134 2681 1778 
z
M 3256 225 
Q 3256 -563 2884 -969 
Q 2513 -1375 1791 -1375 
Q 1553 -1375 1293 -1331 
Q 1034 -1288 775 -1203 
L 775 -634 
Q 1081 -778 1331 -847 
Q 1581 -916 1791 -916 
Q 2256 -916 2468 -662 
Q 2681 -409 2681 141 
L 2681 166 
L 2681 556 
Q 2544 263 2306 119 
Q 2069 -25 1728 -25 
Q 1116 -25 750 465 
Q 384 956 384 1778 
Q 384 2603 750 3093 
Q 1116 3584 1728 3584 
Q 2066 3584 2300 3450 
Q 2534 3316 2681 3034 
L 2681 3488 
L 3256 3488 
L 3256 225 
z
" transform="scale(0.015625)"/>
       <path id="Menlo-Regular-5b" d="M 1759 5175 
L 3084 5175 
L 3084 4728 
L 2334 4728 
L 2334 -84 
L 3084 -84 
L 3084 -531 
L 1759 -531 
L 1759 5175 
z
" transform="scale(0.015625)"/>
       <path id="Menlo-Regular-b5" d="M 609 -1338 
L 609 3500 
L 1184 3500 
L 1184 1325 
Q 1184 881 1371 645 
Q 1559 409 1906 409 
Q 2303 409 2504 675 
Q 2706 941 2706 1459 
L 2706 3500 
L 3284 3500 
L 3284 800 
Q 3284 616 3334 528 
Q 3384 441 3488 441 
Q 3516 441 3561 456 
Q 3606 472 3694 513 
L 3694 50 
Q 3575 -22 3469 -56 
Q 3363 -91 3256 -91 
Q 3063 -91 2945 32 
Q 2828 156 2791 403 
Q 2647 153 2439 31 
Q 2231 -91 1953 -91 
Q 1666 -91 1467 28 
Q 1269 147 1131 397 
L 1131 -1338 
L 609 -1338 
z
" transform="scale(0.015625)"/>
       <path id="Menlo-Regular-53" d="M 3163 4506 
L 3163 3866 
Q 2875 4050 2586 4144 
Q 2297 4238 2003 4238 
Q 1556 4238 1297 4030 
Q 1038 3822 1038 3469 
Q 1038 3159 1208 2996 
Q 1378 2834 1844 2725 
L 2175 2650 
Q 2831 2497 3131 2169 
Q 3431 1841 3431 1275 
Q 3431 609 3018 259 
Q 2606 -91 1819 -91 
Q 1491 -91 1159 -20 
Q 828 50 494 191 
L 494 863 
Q 853 634 1173 528 
Q 1494 422 1819 422 
Q 2297 422 2562 636 
Q 2828 850 2828 1234 
Q 2828 1584 2645 1768 
Q 2463 1953 2009 2053 
L 1672 2131 
Q 1022 2278 728 2575 
Q 434 2872 434 3372 
Q 434 3997 854 4373 
Q 1275 4750 1972 4750 
Q 2241 4750 2537 4689 
Q 2834 4628 3163 4506 
z
" transform="scale(0.015625)"/>
       <path id="Menlo-Regular-5d" d="M 2250 5175 
L 2250 -531 
L 925 -531 
L 925 -84 
L 1675 -84 
L 1675 4728 
L 925 4728 
L 925 5175 
L 2250 5175 
z
" transform="scale(0.015625)"/>
      </defs>
      <use xlink:href="#Menlo-Regular-67"/>
      <use xlink:href="#Menlo-Regular-20" transform="translate(60.205078 0)"/>
      <use xlink:href="#Menlo-Regular-20" transform="translate(120.410156 0)"/>
      <use xlink:href="#Menlo-Regular-5b" transform="translate(180.615234 0)"/>
      <use xlink:href="#Menlo-Regular-b5" transform="translate(240.820312 0)"/>
      <use xlink:href="#Menlo-Regular-53" transform="translate(301.025391 0)"/>
      <use xlink:href="#Menlo-Regular-5d" transform="translate(361.230469 0)"/>
     </g>
    </g>
   </g>
   <g id="line2d_17">
    <path d="M 29.770156 119.841729 
L 30.065938 119.563007 
L 30.420875 119.51602 
L 30.6575 119.376683 
L 30.834969 119.29499 
L 31.13075 119.320292 
L 32.07725 119.061477 
L 32.491344 119.189847 
L 32.727969 119.02648 
L 33.497 118.434805 
L 34.620969 119.150147 
L 35.626625 118.622519 
L 36.868906 117.044777 
L 37.342156 117.115077 
L 37.578781 117.218715 
L 39.294313 118.464506 
L 39.590094 118.505091 
L 40.063344 118.641137 
L 41.838031 117.651104 
L 42.133813 117.344198 
L 42.725375 117.093725 
L 42.843688 117.128923 
L 43.790188 118.310398 
L 44.026813 118.209199 
L 44.618375 117.746386 
L 44.914156 117.79823 
L 45.209938 118.118957 
L 45.505719 118.367331 
L 45.683188 118.402011 
L 46.452219 117.854948 
L 46.807156 117.921906 
L 47.162094 118.136234 
L 47.635344 118.649427 
L 47.871969 118.55821 
L 48.226907 118.174486 
L 48.581844 117.898111 
L 48.995938 117.86509 
L 49.173407 117.81586 
L 49.705813 117.398638 
L 50.474844 118.083286 
L 51.00725 118.293012 
L 51.184719 118.279805 
L 51.421344 118.39554 
L 51.835438 118.46568 
L 52.190375 118.642142 
L 54.024219 118.110864 
L 54.260844 118.143759 
L 56.153844 119.165854 
L 57.041188 119.183791 
L 57.455282 119.229708 
L 58.57925 118.956539 
L 59.229969 119.333429 
L 59.52575 119.380305 
L 59.939844 119.229965 
L 60.768032 118.302153 
L 62.010313 118.216508 
L 62.187782 118.318509 
L 63.134282 119.137296 
L 63.607532 118.828885 
L 64.613188 117.880632 
L 65.027282 117.831986 
L 66.328719 118.959862 
L 66.683657 118.872881 
L 66.920282 118.807188 
L 67.748469 117.826597 
L 68.221719 117.519614 
L 68.458344 117.783695 
L 69.049907 118.615099 
L 69.582313 119.041718 
L 69.937251 119.122681 
L 70.233032 119.118339 
L 70.469657 119.223007 
L 71.297844 119.562156 
L 72.480969 119.773631 
L 73.309157 119.757958 
L 73.841563 119.352308 
L 74.373969 119.183849 
L 74.965532 119.289039 
L 75.143001 119.21107 
L 75.438782 119.035071 
L 76.207813 119.081078 
L 76.503594 118.98308 
L 77.272626 118.044858 
L 77.509251 117.908687 
L 78.278282 117.951761 
L 78.455751 117.90071 
L 78.810688 117.841759 
L 80.112126 116.361171 
L 80.348751 116.325338 
L 80.585376 116.525223 
L 80.881157 116.745925 
L 81.058626 116.680317 
L 81.295251 116.717915 
L 81.472719 116.811796 
L 82.064282 117.78744 
L 82.655844 118.585609 
L 83.129094 118.951405 
L 83.602345 119.106393 
L 83.779813 119.026591 
L 84.844626 118.731868 
L 85.25872 118.733781 
L 85.613657 118.519024 
L 85.909438 118.373373 
L 86.086907 118.397209 
L 86.264376 118.342855 
L 86.441845 118.366015 
L 86.619313 118.215217 
L 86.855938 118.017789 
L 87.388345 118.073886 
L 87.802438 118.247259 
L 88.039063 118.160047 
L 88.689782 117.843866 
L 89.103876 117.911841 
L 89.458813 117.743422 
L 89.695438 117.695446 
L 90.819407 117.700823 
L 91.056032 117.65825 
L 91.706751 117.676821 
L 91.88422 117.824881 
L 92.298313 118.216932 
L 92.653251 118.463584 
L 92.889876 118.512007 
L 93.067345 118.456443 
L 93.77722 117.872313 
L 94.368782 117.730296 
L 94.842032 117.697844 
L 95.19697 117.730706 
L 95.847688 116.950206 
L 96.202626 116.858951 
L 97.326595 118.006793 
L 97.977313 118.581946 
L 98.332251 118.679341 
L 98.568876 118.732455 
L 98.746345 118.586112 
L 99.752001 117.678029 
L 100.284407 117.767461 
L 101.290064 118.616566 
L 103.419689 119.633577 
L 105.253532 119.669998 
L 105.549314 119.60505 
L 106.614126 119.747621 
L 107.50147 119.752249 
L 108.802907 118.719513 
L 109.749407 118.644952 
L 110.636751 118.144398 
L 111.464939 118.127907 
L 112.056501 118.807833 
L 113.121314 119.370948 
L 113.712876 119.230198 
L 114.008657 118.975522 
L 114.836845 118.653283 
L 115.369251 118.39622 
L 115.842501 118.261799 
L 117.558032 118.697347 
L 118.208751 119.204735 
L 119.036939 119.553083 
L 119.746814 119.660228 
L 120.220064 119.260908 
L 120.515845 118.95544 
L 120.989095 118.842744 
L 121.69897 119.318278 
L 121.994751 119.355459 
L 122.468001 118.789733 
L 122.822939 118.264236 
L 123.828595 117.358586 
L 124.420158 116.726964 
L 125.366658 116.653315 
L 125.662439 116.926733 
L 126.549783 116.894212 
L 126.727251 116.971635 
L 126.90472 117.015341 
L 127.555439 116.76958 
L 127.969533 117.134784 
L 128.620251 117.685785 
L 129.034345 117.724714 
L 129.448439 117.720057 
L 129.980845 117.909392 
L 130.809033 118.258395 
L 131.045658 118.369183 
L 131.459751 118.516343 
L 131.696376 118.367172 
L 131.873845 118.291479 
L 132.642876 118.707193 
L 133.175283 118.317194 
L 134.654189 118.171865 
L 135.009126 118.02877 
L 135.89647 117.651177 
L 136.251408 117.570689 
L 136.665502 117.660831 
L 136.902127 117.758838 
L 137.138752 117.828904 
L 138.440189 118.806524 
L 139.031752 119.201724 
L 139.327533 119.17589 
L 139.623314 118.703289 
L 140.096564 117.963096 
L 140.747283 116.958092 
L 141.871252 116.205536 
L 142.167033 116.299337 
L 142.462814 116.39787 
L 142.640283 116.413796 
L 142.817752 116.375597 
L 143.586783 115.988629 
L 144.119189 115.816292 
L 144.474127 115.782834 
L 144.88822 115.810355 
L 145.538939 115.248816 
L 145.83472 115.342474 
L 146.130502 115.657863 
L 146.662908 116.398357 
L 147.313627 117.107958 
L 148.023502 117.01363 
L 148.615064 117.254074 
L 148.910845 117.225997 
L 149.088314 117.188685 
L 149.975658 117.981361 
L 150.212283 118.031776 
L 150.981314 118.479823 
L 151.336252 118.562171 
L 151.868658 118.365507 
L 152.105283 118.423194 
L 152.756002 118.23972 
L 152.93347 117.933767 
L 153.288408 117.380565 
L 153.820814 117.120576 
L 154.116595 116.995622 
L 154.234908 117.00585 
L 154.471533 117.369379 
L 154.944783 118.102301 
L 155.358877 118.376322 
L 155.891283 118.568326 
L 156.127908 118.551723 
L 157.133564 119.155051 
L 157.902596 119.497219 
L 158.375846 119.558559 
L 158.849096 119.369231 
L 159.144877 119.092417 
L 159.913908 118.469716 
L 160.268846 118.558367 
L 160.446314 118.696701 
L 161.097033 119.200583 
L 161.451971 119.31272 
L 161.747752 119.39163 
L 161.984377 119.36075 
L 162.516783 118.951624 
L 162.930877 118.80451 
L 163.522439 118.118737 
L 163.759064 117.921102 
L 164.409783 118.053605 
L 165.001346 118.416449 
L 165.356283 118.243259 
L 166.302783 117.587575 
L 166.776033 116.973659 
L 167.071814 116.821614 
L 167.367596 116.849872 
L 167.663377 116.784571 
L 167.959158 116.917836 
L 168.314096 116.976846 
L 168.787346 117.170623 
L 169.083127 117.03678 
L 169.260596 117.04039 
L 169.497221 117.045711 
L 170.029627 116.7129 
L 170.207096 116.715203 
L 170.976127 116.493612 
L 171.153596 116.378953 
L 171.686002 115.72636 
L 171.922627 115.73774 
L 172.395877 116.482322 
L 173.283221 118.185619 
L 173.519846 118.329529 
L 174.229721 118.751387 
L 174.525502 118.787436 
L 174.939596 118.69347 
L 175.35369 118.578146 
L 175.531158 118.521339 
L 176.359346 117.922988 
L 176.950908 118.495674 
L 177.601627 119.08838 
L 178.370658 119.469849 
L 178.725596 119.462498 
L 179.258002 119.192059 
L 180.55944 119.490112 
L 181.801721 119.09055 
L 182.038346 118.98354 
L 182.156658 118.929228 
L 182.570752 118.46238 
L 183.162315 118.118026 
L 183.39894 117.97 
L 184.227127 118.044255 
L 185.232783 118.988074 
L 185.528565 119.12666 
L 186.534221 118.306181 
L 186.948315 117.832213 
L 187.18494 117.858443 
L 187.362408 117.704728 
L 187.953971 116.751286 
L 188.427221 116.508934 
L 188.663846 116.613132 
L 189.137096 116.934395 
L 189.55119 116.680186 
L 189.965284 116.321967 
L 191.621659 116.203725 
L 192.568159 116.756835 
L 192.982252 116.844538 
L 193.396346 116.931775 
L 193.573815 116.984377 
L 193.987909 117.310498 
L 194.461159 117.372114 
L 194.934409 117.631286 
L 195.644284 116.971056 
L 196.058377 116.635747 
L 196.472471 116.795329 
L 197.182346 117.280155 
L 197.359815 117.430504 
L 197.537284 117.551299 
L 198.188002 118.195274 
L 198.602096 118.540337 
L 198.779565 118.594897 
L 199.785221 118.122459 
L 200.199315 118.58747 
L 200.850034 119.141342 
L 201.559909 119.482153 
L 202.32894 119.443101 
L 202.624721 119.311525 
L 203.393752 118.186233 
L 203.689534 117.536869 
L 203.926159 117.508156 
L 204.340252 117.577535 
L 204.576877 117.39101 
L 205.464221 115.775242 
L 205.700846 115.617374 
L 206.529034 116.150581 
L 208.540346 118.536366 
L 208.836128 118.385051 
L 209.072753 118.262966 
L 209.90094 118.536309 
L 210.196721 118.560718 
L 210.433346 118.743783 
L 210.729128 118.886586 
L 211.379846 118.760774 
L 212.148878 118.381646 
L 212.326346 118.428724 
L 213.509471 118.276372 
L 213.864409 118.596498 
L 214.219346 118.855157 
L 214.515128 118.931101 
L 214.870065 119.105636 
L 215.994034 118.270649 
L 216.585596 117.410503 
L 216.822221 117.364009 
L 217.118003 117.422438 
L 217.532096 117.205541 
L 217.887034 117.062379 
L 218.360284 116.449292 
L 218.656065 115.980708 
L 219.36594 114.621401 
L 219.602565 114.636434 
L 220.134971 114.928677 
L 220.489909 115.168126 
L 221.436409 116.034028 
L 221.850503 116.275177 
L 222.20544 116.945323 
L 222.67869 117.826529 
L 223.388565 118.734294 
L 223.566034 118.714822 
L 223.920971 118.537555 
L 225.104096 118.212615 
L 225.281565 117.994538 
L 225.813972 117.245298 
L 226.46469 117.186162 
L 227.174565 117.652112 
L 227.647815 118.305239 
L 227.943597 118.591394 
L 228.594315 119.143606 
L 229.363347 119.503552 
L 230.369003 119.722679 
L 231.788753 119.836121 
L 232.439472 119.441926 
L 233.859222 118.117476 
L 234.332472 117.55422 
L 235.397284 117.152431 
L 235.633909 117.389655 
L 236.698722 118.832209 
L 237.408597 119.312497 
L 237.881847 119.471367 
L 238.591722 118.910149 
L 238.76919 118.899963 
L 239.360753 118.520569 
L 239.538222 118.606289 
L 240.011472 118.817132 
L 240.425565 119.020116 
L 241.017128 119.319753 
L 241.727003 119.580067 
L 241.963628 119.343844 
L 242.55519 118.77789 
L 243.442534 118.372662 
L 244.448191 117.821409 
L 244.803128 117.865785 
L 245.098909 117.667308 
L 245.335534 117.51371 
L 245.572159 117.408112 
L 245.867941 117.520662 
L 246.104566 117.828232 
L 246.636972 118.52711 
L 247.938409 119.424554 
L 248.884909 119.684554 
L 249.949722 119.791977 
L 250.186347 119.708442 
L 251.014534 119.558223 
L 252.079347 119.25175 
L 252.315972 119.261013 
L 252.552597 119.219471 
L 252.789222 119.227255 
L 253.203316 118.933244 
L 253.499097 118.793106 
L 253.735722 118.525314 
L 254.386441 117.95434 
L 254.682222 118.01395 
L 254.859691 117.965767 
L 255.332941 117.696352 
L 256.042816 117.152547 
L 256.279441 116.838608 
L 256.811847 116.121832 
L 257.048472 116.200449 
L 257.285097 116.282914 
L 257.758347 116.083544 
L 258.231597 116.123018 
L 258.468222 116.009743 
L 258.882316 115.756197 
L 259.296409 115.635558 
L 259.533034 115.622878 
L 259.947128 115.954588 
L 260.538691 116.544103 
L 260.893628 117.048516 
L 261.426035 117.688355 
L 261.899285 117.917079 
L 262.13591 117.794569 
L 262.550003 117.650932 
L 263.023253 117.93632 
L 263.437347 118.307255 
L 263.910597 118.707379 
L 264.147222 118.864813 
L 264.738785 119.237064 
L 265.330347 118.925154 
L 265.744441 118.696302 
L 266.099378 118.70873 
L 266.336003 118.758389 
L 266.336003 118.758389 
" clip-path="url(#pf29e247589)" style="fill: none; stroke: #1a1a1a; stroke-width: 0.9; stroke-linejoin: miter"/>
   </g>
   <g id="line2d_18">
    <path d="M 29.770156 119.896705 
L 38.466125 119.896705 
L 38.525281 118.612904 
L 38.643594 106.606089 
L 38.761906 87.507344 
L 38.998531 40.215841 
L 39.116844 28.579332 
L 39.235156 18.605795 
L 39.294313 19.725024 
L 40.418281 38.789307 
L 41.54225 54.225353 
L 42.666219 66.723676 
L 43.790188 76.843356 
L 44.914156 85.037105 
L 46.038125 91.671451 
L 47.162094 97.043175 
L 48.286063 101.392572 
L 49.410032 104.91421 
L 50.593157 107.899666 
L 51.776282 110.290232 
L 52.959407 112.204444 
L 54.201688 113.805287 
L 55.503125 115.126277 
L 56.922875 116.2429 
L 58.460938 117.159657 
L 60.176469 117.913613 
L 62.128625 118.522342 
L 64.494875 119.015491 
L 67.452688 119.391106 
L 69.878094 119.576107 
L 70.233032 91.180418 
L 70.351344 89.260117 
L 70.410501 89.598639 
L 71.534469 95.364852 
L 72.658438 100.03366 
L 73.782407 103.813916 
L 74.965532 107.018619 
L 76.148657 109.584743 
L 77.331782 111.639535 
L 78.574063 113.35794 
L 79.875501 114.775943 
L 81.236094 115.930746 
L 82.715001 116.892631 
L 84.371376 117.695824 
L 86.264376 118.354364 
L 88.453157 118.874267 
L 91.174345 119.283418 
L 94.782876 119.585312 
L 95.019501 119.598849 
L 95.19697 116.308074 
L 95.315282 112.617783 
L 95.551907 107.277951 
L 96.735032 109.7924 
L 97.918157 111.805813 
L 99.160438 113.489614 
L 100.461876 114.879061 
L 101.82247 116.010612 
L 103.301376 116.953126 
L 104.957751 117.740144 
L 106.850751 118.385422 
L 109.098689 118.905926 
L 111.879032 119.308975 
L 115.54672 119.601586 
L 115.783345 119.614415 
L 116.01997 112.088858 
L 116.256595 99.934862 
L 116.315751 98.994165 
L 116.374907 99.225131 
L 117.498876 103.159265 
L 118.682001 106.494416 
L 119.865126 109.164993 
L 121.048251 111.303425 
L 122.290533 113.091779 
L 123.59197 114.5675 
L 124.952564 115.769313 
L 126.43147 116.77035 
L 128.028689 117.580646 
L 129.862533 118.255514 
L 131.992158 118.796582 
L 134.595033 119.221992 
L 137.78947 119.526415 
L 137.848627 118.44826 
L 137.907783 118.464265 
L 140.214877 118.967991 
L 143.054377 119.351879 
L 146.899533 119.632098 
L 150.56722 119.763837 
L 150.922158 109.84048 
L 151.099627 106.269049 
L 152.282752 108.984535 
L 153.465877 111.158925 
L 154.708158 112.977352 
L 156.009596 114.477888 
L 157.370189 115.699908 
L 158.789939 116.682261 
L 160.387158 117.515387 
L 162.161846 118.190417 
L 164.291471 118.752946 
L 166.835189 119.187392 
L 170.147939 119.515981 
L 171.331064 119.591845 
L 171.390221 118.469199 
L 171.626846 108.83624 
L 172.809971 111.040179 
L 174.052252 112.883316 
L 175.294533 114.342878 
L 176.655127 115.595344 
L 178.074877 116.602172 
L 179.672096 117.456055 
L 181.446783 118.147904 
L 183.517252 118.711351 
L 186.060971 119.161597 
L 188.841315 119.460638 
L 188.900471 118.393626 
L 189.07794 111.302146 
L 190.320221 113.090767 
L 191.621659 114.566708 
L 192.982252 115.768698 
L 194.461159 116.769885 
L 196.058377 117.5803 
L 197.892221 118.255269 
L 200.021846 118.796418 
L 202.624721 119.221892 
L 206.055784 119.542459 
L 207.948784 119.648455 
L 208.185409 115.010266 
L 208.303721 110.021397 
L 208.362878 110.130516 
L 209.546003 112.076555 
L 210.788284 113.704011 
L 212.089721 115.046963 
L 213.450315 116.140649 
L 214.929221 117.051624 
L 216.585596 117.812307 
L 218.478596 118.435992 
L 220.726534 118.93908 
L 223.566034 119.334918 
L 227.352034 119.620812 
L 227.766128 119.641457 
L 227.88444 117.284569 
L 228.061909 96.615637 
L 228.239378 74.932992 
L 228.298534 75.429825 
L 228.35769 74.642321 
L 228.416847 75.142364 
L 229.540815 83.659837 
L 230.664784 90.556297 
L 231.788753 96.140248 
L 232.912722 100.661484 
L 234.03669 104.322258 
L 235.219815 107.425669 
L 236.40294 109.910682 
L 237.586065 111.900526 
L 238.828347 113.564617 
L 240.129784 114.937797 
L 241.490378 116.056101 
L 242.969284 116.987583 
L 244.625659 117.765389 
L 246.518659 118.403113 
L 248.766597 118.917524 
L 251.546941 119.315854 
L 254.208972 119.544401 
L 254.327284 116.105346 
L 254.623066 99.562221 
L 254.682222 99.786909 
L 255.806191 103.614128 
L 256.989316 106.858641 
L 258.172441 109.456643 
L 259.355566 111.53696 
L 260.597847 113.276713 
L 261.899285 114.712329 
L 263.259878 115.88148 
L 264.738785 116.855314 
L 266.336003 117.643587 
L 266.336003 117.643587 
" clip-path="url(#pf29e247589)" style="fill: none; stroke: #c8102e; stroke-width: 0.9; stroke-linejoin: miter"/>
   </g>
   <g id="line2d_19">
    <path d="M 29.770156 115.647778 
L 266.39516 115.647778 
" clip-path="url(#pf29e247589)" style="fill: none; stroke-dasharray: 0.7,1.155; stroke-dashoffset: 0; stroke: #bbbbbb; stroke-width: 0.7"/>
   </g>
   <g id="patch_3">
    <path d="M 29.770156 124.96125 
L 29.770156 13.54125 
" style="fill: none; stroke: #1a1a1a; stroke-width: 0.8; stroke-linejoin: miter; stroke-linecap: square"/>
   </g>
   <g id="patch_4">
    <path d="M 266.39516 124.96125 
L 266.39516 13.54125 
" style="fill: none; stroke: #1a1a1a; stroke-width: 0.8; stroke-linejoin: miter; stroke-linecap: square"/>
   </g>
   <g id="patch_5">
    <path d="M 29.770156 124.96125 
L 266.39516 124.96125 
" style="fill: none; stroke: #1a1a1a; stroke-width: 0.8; stroke-linejoin: miter; stroke-linecap: square"/>
   </g>
   <g id="patch_6">
    <path d="M 29.770156 13.54125 
L 266.39516 13.54125 
" style="fill: none; stroke: #1a1a1a; stroke-width: 0.8; stroke-linejoin: miter; stroke-linecap: square"/>
   </g>
   <g id="text_19">
    <!-- PING · E-neuron conductances (cell 73) -->
    <g style="fill: #1a1a1a" transform="translate(29.770156 7.54125) scale(0.08 -0.08)">
     <defs>
      <path id="Menlo-Regular-50" d="M 1247 4147 
L 1247 2394 
L 1978 2394 
Q 2416 2394 2661 2625 
Q 2906 2856 2906 3272 
Q 2906 3688 2662 3917 
Q 2419 4147 1978 4147 
L 1247 4147 
z
M 616 4666 
L 1978 4666 
Q 2759 4666 3162 4311 
Q 3566 3956 3566 3272 
Q 3566 2581 3164 2228 
Q 2763 1875 1978 1875 
L 1247 1875 
L 1247 0 
L 616 0 
L 616 4666 
z
" transform="scale(0.015625)"/>
      <path id="Menlo-Regular-49" d="M 628 4666 
L 3219 4666 
L 3219 4134 
L 2241 4134 
L 2241 531 
L 3219 531 
L 3219 0 
L 628 0 
L 628 531 
L 1606 531 
L 1606 4134 
L 628 4134 
L 628 4666 
z
" transform="scale(0.015625)"/>
      <path id="Menlo-Regular-4e" d="M 59 4650 
L 922 4650 
L 2747 822 
L 2747 4650 
L 3419 4650 
L 3419 0 
L 2556 0 
L 731 3828 
L 731 0 
L 59 0 
L 59 4650 
z
" transform="scale(0.015625)"/>
      <path id="Menlo-Regular-47" d="M 3450 384 
Q 3197 150 2880 29 
Q 2563 -91 2194 -91 
Q 1306 -91 812 545 
Q 319 1181 319 2328 
Q 319 3472 819 4111 
Q 1319 4750 2209 4750 
Q 2503 4750 2772 4667 
Q 3041 4584 3291 4416 
L 3291 3769 
Q 3038 4009 2772 4123 
Q 2506 4238 2209 4238 
Q 1594 4238 1286 3761 
Q 978 3284 978 2328 
Q 978 1356 1276 889 
Q 1575 422 2194 422 
Q 2403 422 2561 470 
Q 2719 519 2847 622 
L 2847 1875 
L 2169 1875 
L 2169 2394 
L 3450 2394 
L 3450 384 
z
" transform="scale(0.015625)"/>
      <path id="Menlo-Regular-b7" d="M 1528 2700 
L 2316 2700 
L 2316 1747 
L 1528 1747 
L 1528 2700 
z
" transform="scale(0.015625)"/>
      <path id="Menlo-Regular-45" d="M 616 4666 
L 3384 4666 
L 3384 4134 
L 1247 4134 
L 1247 2878 
L 3291 2878 
L 3291 2347 
L 1247 2347 
L 1247 531 
L 3444 531 
L 3444 0 
L 616 0 
L 616 4666 
z
" transform="scale(0.015625)"/>
      <path id="Menlo-Regular-2d" d="M 319 2263 
L 3631 2263 
L 3631 1734 
L 319 1734 
L 319 2263 
z
" transform="scale(0.015625)"/>
      <path id="Menlo-Regular-6e" d="M 3284 2169 
L 3284 0 
L 2706 0 
L 2706 2169 
Q 2706 2641 2540 2862 
Q 2375 3084 2022 3084 
Q 1619 3084 1401 2798 
Q 1184 2513 1184 1978 
L 1184 0 
L 609 0 
L 609 3500 
L 1184 3500 
L 1184 2975 
Q 1338 3275 1600 3429 
Q 1863 3584 2222 3584 
Q 2756 3584 3020 3232 
Q 3284 2881 3284 2169 
z
" transform="scale(0.015625)"/>
      <path id="Menlo-Regular-75" d="M 609 1325 
L 609 3494 
L 1184 3494 
L 1184 1325 
Q 1184 853 1351 631 
Q 1519 409 1869 409 
Q 2275 409 2490 695 
Q 2706 981 2706 1516 
L 2706 3494 
L 3284 3494 
L 3284 0 
L 2706 0 
L 2706 525 
Q 2553 222 2289 65 
Q 2025 -91 1672 -91 
Q 1134 -91 871 261 
Q 609 613 609 1325 
z
" transform="scale(0.015625)"/>
      <path id="Menlo-Regular-72" d="M 3609 2778 
Q 3425 2922 3234 2987 
Q 3044 3053 2816 3053 
Q 2278 3053 1993 2715 
Q 1709 2378 1709 1741 
L 1709 0 
L 1131 0 
L 1131 3500 
L 1709 3500 
L 1709 2816 
Q 1853 3188 2151 3386 
Q 2450 3584 2859 3584 
Q 3072 3584 3256 3531 
Q 3441 3478 3609 3366 
L 3609 2778 
z
" transform="scale(0.015625)"/>
      <path id="Menlo-Regular-6f" d="M 1925 3097 
Q 1488 3097 1263 2756 
Q 1038 2416 1038 1747 
Q 1038 1081 1263 739 
Q 1488 397 1925 397 
Q 2366 397 2591 739 
Q 2816 1081 2816 1747 
Q 2816 2416 2591 2756 
Q 2366 3097 1925 3097 
z
M 1925 3584 
Q 2653 3584 3039 3112 
Q 3425 2641 3425 1747 
Q 3425 850 3040 379 
Q 2656 -91 1925 -91 
Q 1197 -91 812 379 
Q 428 850 428 1747 
Q 428 2641 812 3112 
Q 1197 3584 1925 3584 
z
" transform="scale(0.015625)"/>
      <path id="Menlo-Regular-63" d="M 3316 178 
Q 3084 44 2839 -23 
Q 2594 -91 2338 -91 
Q 1525 -91 1067 396 
Q 609 884 609 1747 
Q 609 2609 1067 3096 
Q 1525 3584 2338 3584 
Q 2591 3584 2831 3518 
Q 3072 3453 3316 3316 
L 3316 2713 
Q 3088 2916 2858 3006 
Q 2628 3097 2338 3097 
Q 1797 3097 1506 2747 
Q 1216 2397 1216 1747 
Q 1216 1100 1508 748 
Q 1800 397 2338 397 
Q 2638 397 2875 489 
Q 3113 581 3316 775 
L 3316 178 
z
" transform="scale(0.015625)"/>
      <path id="Menlo-Regular-64" d="M 2681 3053 
L 2681 4863 
L 3256 4863 
L 3256 0 
L 2681 0 
L 2681 441 
Q 2538 181 2298 45 
Q 2059 -91 1747 -91 
Q 1113 -91 748 401 
Q 384 894 384 1759 
Q 384 2613 750 3098 
Q 1116 3584 1747 3584 
Q 2063 3584 2303 3448 
Q 2544 3313 2681 3053 
z
M 991 1747 
Q 991 1078 1203 737 
Q 1416 397 1831 397 
Q 2247 397 2464 740 
Q 2681 1084 2681 1747 
Q 2681 2413 2464 2755 
Q 2247 3097 1831 3097 
Q 1416 3097 1203 2756 
Q 991 2416 991 1747 
z
" transform="scale(0.015625)"/>
      <path id="Menlo-Regular-61" d="M 2194 1759 
L 2003 1759 
Q 1500 1759 1245 1582 
Q 991 1406 991 1056 
Q 991 741 1181 566 
Q 1372 391 1709 391 
Q 2184 391 2456 720 
Q 2728 1050 2731 1631 
L 2731 1759 
L 2194 1759 
z
M 3309 1997 
L 3309 0 
L 2731 0 
L 2731 519 
Q 2547 206 2267 57 
Q 1988 -91 1588 -91 
Q 1053 -91 734 211 
Q 416 513 416 1019 
Q 416 1603 808 1906 
Q 1200 2209 1959 2209 
L 2731 2209 
L 2731 2300 
Q 2728 2719 2518 2908 
Q 2309 3097 1850 3097 
Q 1556 3097 1256 3012 
Q 956 2928 672 2766 
L 672 3341 
Q 991 3463 1283 3523 
Q 1575 3584 1850 3584 
Q 2284 3584 2592 3456 
Q 2900 3328 3091 3072 
Q 3209 2916 3259 2686 
Q 3309 2456 3309 1997 
z
" transform="scale(0.015625)"/>
      <path id="Menlo-Regular-6c" d="M 2247 1266 
Q 2247 878 2389 681 
Q 2531 484 2809 484 
L 3481 484 
L 3481 0 
L 2753 0 
Q 2238 0 1955 329 
Q 1672 659 1672 1266 
L 1672 4431 
L 750 4431 
L 750 4881 
L 2247 4881 
L 2247 1266 
z
" transform="scale(0.015625)"/>
      <path id="Menlo-Regular-37" d="M 434 4666 
L 3372 4666 
L 3372 4397 
L 1703 0 
L 1044 0 
L 2669 4134 
L 434 4134 
L 434 4666 
z
" transform="scale(0.015625)"/>
     </defs>
     <use xlink:href="#Menlo-Regular-50"/>
     <use xlink:href="#Menlo-Regular-49" transform="translate(60.205078 0)"/>
     <use xlink:href="#Menlo-Regular-4e" transform="translate(120.410156 0)"/>
     <use xlink:href="#Menlo-Regular-47" transform="translate(180.615234 0)"/>
     <use xlink:href="#Menlo-Regular-20" transform="translate(240.820312 0)"/>
     <use xlink:href="#Menlo-Regular-b7" transform="translate(301.025391 0)"/>
     <use xlink:href="#Menlo-Regular-20" transform="translate(361.230469 0)"/>
     <use xlink:href="#Menlo-Regular-45" transform="translate(421.435547 0)"/>
     <use xlink:href="#Menlo-Regular-2d" transform="translate(481.640625 0)"/>
     <use xlink:href="#Menlo-Regular-6e" transform="translate(541.845703 0)"/>
     <use xlink:href="#Menlo-Regular-65" transform="translate(602.050781 0)"/>
     <use xlink:href="#Menlo-Regular-75" transform="translate(662.255859 0)"/>
     <use xlink:href="#Menlo-Regular-72" transform="translate(722.460938 0)"/>
     <use xlink:href="#Menlo-Regular-6f" transform="translate(782.666016 0)"/>
     <use xlink:href="#Menlo-Regular-6e" transform="translate(842.871094 0)"/>
     <use xlink:href="#Menlo-Regular-20" transform="translate(903.076172 0)"/>
     <use xlink:href="#Menlo-Regular-63" transform="translate(963.28125 0)"/>
     <use xlink:href="#Menlo-Regular-6f" transform="translate(1023.486328 0)"/>
     <use xlink:href="#Menlo-Regular-6e" transform="translate(1083.691406 0)"/>
     <use xlink:href="#Menlo-Regular-64" transform="translate(1143.896484 0)"/>
     <use xlink:href="#Menlo-Regular-75" transform="translate(1204.101562 0)"/>
     <use xlink:href="#Menlo-Regular-63" transform="translate(1264.306641 0)"/>
     <use xlink:href="#Menlo-Regular-74" transform="translate(1324.511719 0)"/>
     <use xlink:href="#Menlo-Regular-61" transform="translate(1384.716797 0)"/>
     <use xlink:href="#Menlo-Regular-6e" transform="translate(1444.921875 0)"/>
     <use xlink:href="#Menlo-Regular-63" transform="translate(1505.126953 0)"/>
     <use xlink:href="#Menlo-Regular-65" transform="translate(1565.332031 0)"/>
     <use xlink:href="#Menlo-Regular-73" transform="translate(1625.537109 0)"/>
     <use xlink:href="#Menlo-Regular-20" transform="translate(1685.742188 0)"/>
     <use xlink:href="#Menlo-Regular-28" transform="translate(1745.947266 0)"/>
     <use xlink:href="#Menlo-Regular-63" transform="translate(1806.152344 0)"/>
     <use xlink:href="#Menlo-Regular-65" transform="translate(1866.357422 0)"/>
     <use xlink:href="#Menlo-Regular-6c" transform="translate(1926.5625 0)"/>
     <use xlink:href="#Menlo-Regular-6c" transform="translate(1986.767578 0)"/>
     <use xlink:href="#Menlo-Regular-20" transform="translate(2046.972656 0)"/>
     <use xlink:href="#Menlo-Regular-37" transform="translate(2107.177734 0)"/>
     <use xlink:href="#Menlo-Regular-33" transform="translate(2167.382812 0)"/>
     <use xlink:href="#Menlo-Regular-29" transform="translate(2227.587891 0)"/>
    </g>
   </g>
   <g id="legend_1">
    <g id="patch_7">
     <path d="M 198.352972 51.11375 
L 262.89516 51.11375 
L 262.89516 17.04125 
L 198.352972 17.04125 
z
" style="fill: #ffffff; stroke: #1a1a1a; stroke-width: 0.8; stroke-linejoin: miter"/>
    </g>
    <g id="line2d_20">
     <path d="M 201.152972 23.044844 
L 206.752972 23.044844 
L 212.352972 23.044844 
" style="fill: none; stroke: #1a1a1a; stroke-width: 0.9; stroke-linejoin: miter"/>
    </g>
    <g id="text_20">
     <!-- g_E (exc) -->
     <g style="fill: #1a1a1a" transform="translate(217.952972 25.494844) scale(0.07 -0.07)">
      <defs>
       <path id="Menlo-Regular-5f" d="M 3825 -594 
L 3825 -1125 
L 0 -1125 
L 0 -594 
L 3825 -594 
z
" transform="scale(0.015625)"/>
       <path id="Menlo-Regular-78" d="M 3494 3500 
L 2241 1825 
L 3616 0 
L 2950 0 
L 1925 1403 
L 903 0 
L 238 0 
L 1613 1825 
L 359 3500 
L 997 3500 
L 1925 2234 
L 2847 3500 
L 3494 3500 
z
" transform="scale(0.015625)"/>
      </defs>
      <use xlink:href="#Menlo-Regular-67"/>
      <use xlink:href="#Menlo-Regular-5f" transform="translate(60.205078 0)"/>
      <use xlink:href="#Menlo-Regular-45" transform="translate(120.410156 0)"/>
      <use xlink:href="#Menlo-Regular-20" transform="translate(180.615234 0)"/>
      <use xlink:href="#Menlo-Regular-28" transform="translate(240.820312 0)"/>
      <use xlink:href="#Menlo-Regular-65" transform="translate(301.025391 0)"/>
      <use xlink:href="#Menlo-Regular-78" transform="translate(361.230469 0)"/>
      <use xlink:href="#Menlo-Regular-63" transform="translate(421.435547 0)"/>
      <use xlink:href="#Menlo-Regular-29" transform="translate(481.640625 0)"/>
     </g>
    </g>
    <g id="line2d_21">
     <path d="M 201.152972 33.702344 
L 206.752972 33.702344 
L 212.352972 33.702344 
" style="fill: none; stroke: #c8102e; stroke-width: 0.9; stroke-linejoin: miter"/>
    </g>
    <g id="text_21">
     <!-- g_I (inh) -->
     <g style="fill: #1a1a1a" transform="translate(217.952972 36.152344) scale(0.07 -0.07)">
      <defs>
       <path id="Menlo-Regular-68" d="M 3284 2169 
L 3284 0 
L 2706 0 
L 2706 2169 
Q 2706 2641 2540 2862 
Q 2375 3084 2022 3084 
Q 1619 3084 1401 2798 
Q 1184 2513 1184 1978 
L 1184 0 
L 609 0 
L 609 4863 
L 1184 4863 
L 1184 2975 
Q 1338 3275 1600 3429 
Q 1863 3584 2222 3584 
Q 2756 3584 3020 3232 
Q 3284 2881 3284 2169 
z
" transform="scale(0.015625)"/>
      </defs>
      <use xlink:href="#Menlo-Regular-67"/>
      <use xlink:href="#Menlo-Regular-5f" transform="translate(60.205078 0)"/>
      <use xlink:href="#Menlo-Regular-49" transform="translate(120.410156 0)"/>
      <use xlink:href="#Menlo-Regular-20" transform="translate(180.615234 0)"/>
      <use xlink:href="#Menlo-Regular-28" transform="translate(240.820312 0)"/>
      <use xlink:href="#Menlo-Regular-69" transform="translate(301.025391 0)"/>
      <use xlink:href="#Menlo-Regular-6e" transform="translate(361.230469 0)"/>
      <use xlink:href="#Menlo-Regular-68" transform="translate(421.435547 0)"/>
      <use xlink:href="#Menlo-Regular-29" transform="translate(481.640625 0)"/>
     </g>
    </g>
    <g id="line2d_22">
     <path d="M 201.152972 44.359844 
L 206.752972 44.359844 
L 212.352972 44.359844 
" style="fill: none; stroke-dasharray: 0.7,1.155; stroke-dashoffset: 0; stroke: #bbbbbb; stroke-width: 0.7"/>
    </g>
    <g id="text_22">
     <!-- g_L (leak) -->
     <g style="fill: #1a1a1a" transform="translate(217.952972 46.809844) scale(0.07 -0.07)">
      <defs>
       <path id="Menlo-Regular-4c" d="M 672 4666 
L 1306 4666 
L 1306 531 
L 3559 531 
L 3559 0 
L 672 0 
L 672 4666 
z
" transform="scale(0.015625)"/>
       <path id="Menlo-Regular-6b" d="M 738 4863 
L 1331 4863 
L 1331 2047 
L 2841 3500 
L 3541 3500 
L 2163 2181 
L 3756 0 
L 3053 0 
L 1759 1806 
L 1331 1403 
L 1331 0 
L 738 0 
L 738 4863 
z
" transform="scale(0.015625)"/>
      </defs>
      <use xlink:href="#Menlo-Regular-67"/>
      <use xlink:href="#Menlo-Regular-5f" transform="translate(60.205078 0)"/>
      <use xlink:href="#Menlo-Regular-4c" transform="translate(120.410156 0)"/>
      <use xlink:href="#Menlo-Regular-20" transform="translate(180.615234 0)"/>
      <use xlink:href="#Menlo-Regular-28" transform="translate(240.820312 0)"/>
      <use xlink:href="#Menlo-Regular-6c" transform="translate(301.025391 0)"/>
      <use xlink:href="#Menlo-Regular-65" transform="translate(361.230469 0)"/>
      <use xlink:href="#Menlo-Regular-61" transform="translate(421.435547 0)"/>
      <use xlink:href="#Menlo-Regular-6b" transform="translate(481.640625 0)"/>
      <use xlink:href="#Menlo-Regular-29" transform="translate(541.845703 0)"/>
     </g>
    </g>
   </g>
  </g>
 </g>
 <defs>
  <clipPath id="pf29e247589">
   <rect x="29.770156" y="13.54125" width="236.625003" height="111.42"/>
  </clipPath>
 </defs>
</svg>
