<?xml version="1.0" encoding="utf-8" standalone="no"?>
<!DOCTYPE svg PUBLIC "-//W3C//DTD SVG 1.1//EN"
  "http://www.w3.org/Graphics/SVG/1.1/DTD/svg11.dtd">
<svg xmlns:xlink="http://www.w3.org/1999/xlink" width="389.10625pt" height="106.924453pt" viewBox="0 0 389.10625 106.924453" xmlns="http://www.w3.org/2000/svg" version="1.1">
 <metadata>
  <rdf:RDF xmlns:dc="http://purl.org/dc/elements/1.1/" xmlns:cc="http://creativecommons.org/ns#" xmlns:rdf="http://www.w3.org/1999/02/22-rdf-syntax-ns#">
   <cc:Work>
    <dc:type rdf:resource="http://purl.org/dc/dcmitype/StillImage"/>
    <dc:date>2026-06-30T22:43:53.177693</dc:date>
    <dc:format>image/svg+xml</dc:format>
    <dc:creator>
     <cc:Agent>
      <dc:title>Matplotlib v3.10.8, https://matplotlib.org/</dc:title>
     </cc:Agent>
    </dc:creator>
   </cc:Work>
  </rdf:RDF>
 </metadata>
 <defs>
  <style type="text/css">*{stroke-linejoin: round; stroke-linecap: butt}</style>
 </defs>
 <g id="figure_1">
  <g id="patch_1">
   <path d="M 0 106.924453 
L 389.10625 106.924453 
L 389.10625 0 
L 0 0 
z
" style="fill: #ffffff"/>
  </g>
  <g id="axes_1">
   <g id="patch_2">
    <path d="M 29.457656 83.425078 
L 187.692656 83.425078 
L 187.692656 14.305078 
L 29.457656 14.305078 
z
" style="fill: #ffffff"/>
   </g>
   <g id="matplotlib.axis_1">
    <g id="xtick_1">
     <g id="line2d_1">
      <defs>
       <path id="mc11ff8ab7a" d="M 0 0 
L 0 -3 
" style="stroke: #1a1a1a; stroke-width: 0.8"/>
      </defs>
      <g>
       <use xlink:href="#mc11ff8ab7a" x="29.457656" y="83.425078" style="fill: #1a1a1a; stroke: #1a1a1a; stroke-width: 0.8"/>
      </g>
     </g>
     <g id="text_1">
      <!-- 0 -->
      <g style="fill: #1a1a1a" transform="translate(27.350547 92.263672) scale(0.07 -0.07)">
       <defs>
        <path id="Menlo-Regular-30" d="M 1925 4734 
Q 2672 4734 3055 4125 
Q 3438 3516 3438 2322 
Q 3438 1128 3055 518 
Q 2672 -91 1925 -91 
Q 1178 -91 797 518 
Q 416 1128 416 2322 
Q 416 3516 797 4125 
Q 1178 4734 1925 4734 
z
M 1925 409 
Q 2369 409 2586 881 
Q 2803 1353 2803 2322 
Q 2803 2838 2741 3253 
L 1253 925 
Q 1488 409 1925 409 
z
M 1925 4234 
Q 1484 4234 1267 3762 
Q 1050 3291 1050 2322 
Q 1050 1881 1109 1497 
L 2566 3819 
Q 2328 4234 1925 4234 
z
" transform="scale(0.015625)"/>
       </defs>
       <use xlink:href="#Menlo-Regular-30"/>
      </g>
     </g>
    </g>
    <g id="xtick_2">
     <g id="line2d_2">
      <g>
       <use xlink:href="#mc11ff8ab7a" x="69.016406" y="83.425078" style="fill: #1a1a1a; stroke: #1a1a1a; stroke-width: 0.8"/>
      </g>
     </g>
     <g id="text_2">
      <!-- 100 -->
      <g style="fill: #1a1a1a" transform="translate(62.695078 92.263672) scale(0.07 -0.07)">
       <defs>
        <path id="Menlo-Regular-31" d="M 844 528 
L 1825 528 
L 1825 4053 
L 650 3488 
L 650 4094 
L 1819 4650 
L 2450 4650 
L 2450 528 
L 3419 528 
L 3419 0 
L 844 0 
L 844 528 
z
" transform="scale(0.015625)"/>
       </defs>
       <use xlink:href="#Menlo-Regular-31"/>
       <use xlink:href="#Menlo-Regular-30" transform="translate(60.205078 0)"/>
       <use xlink:href="#Menlo-Regular-30" transform="translate(120.410156 0)"/>
      </g>
     </g>
    </g>
    <g id="xtick_3">
     <g id="line2d_3">
      <g>
       <use xlink:href="#mc11ff8ab7a" x="108.575156" y="83.425078" style="fill: #1a1a1a; stroke: #1a1a1a; stroke-width: 0.8"/>
      </g>
     </g>
     <g id="text_3">
      <!-- 200 -->
      <g style="fill: #1a1a1a" transform="translate(102.253828 92.263672) scale(0.07 -0.07)">
       <defs>
        <path id="Menlo-Regular-32" d="M 1166 531 
L 3309 531 
L 3309 0 
L 475 0 
L 475 531 
Q 1059 1147 1496 1619 
Q 1934 2091 2100 2284 
Q 2413 2666 2522 2902 
Q 2631 3138 2631 3384 
Q 2631 3775 2401 3997 
Q 2172 4219 1772 4219 
Q 1488 4219 1175 4116 
Q 863 4013 513 3803 
L 513 4441 
Q 834 4594 1145 4672 
Q 1456 4750 1759 4750 
Q 2444 4750 2861 4386 
Q 3278 4022 3278 3431 
Q 3278 3131 3139 2831 
Q 3000 2531 2688 2169 
Q 2513 1966 2180 1606 
Q 1847 1247 1166 531 
z
" transform="scale(0.015625)"/>
       </defs>
       <use xlink:href="#Menlo-Regular-32"/>
       <use xlink:href="#Menlo-Regular-30" transform="translate(60.205078 0)"/>
       <use xlink:href="#Menlo-Regular-30" transform="translate(120.410156 0)"/>
      </g>
     </g>
    </g>
    <g id="xtick_4">
     <g id="line2d_4">
      <g>
       <use xlink:href="#mc11ff8ab7a" x="148.133906" y="83.425078" style="fill: #1a1a1a; stroke: #1a1a1a; stroke-width: 0.8"/>
      </g>
     </g>
     <g id="text_4">
      <!-- 300 -->
      <g style="fill: #1a1a1a" transform="translate(141.812578 92.263672) scale(0.07 -0.07)">
       <defs>
        <path id="Menlo-Regular-33" d="M 2425 2497 
Q 2884 2375 3128 2064 
Q 3372 1753 3372 1288 
Q 3372 644 2939 276 
Q 2506 -91 1741 -91 
Q 1419 -91 1084 -31 
Q 750 28 428 141 
L 428 769 
Q 747 603 1056 522 
Q 1366 441 1672 441 
Q 2191 441 2469 675 
Q 2747 909 2747 1350 
Q 2747 1756 2469 1995 
Q 2191 2234 1716 2234 
L 1234 2234 
L 1234 2753 
L 1716 2753 
Q 2150 2753 2394 2943 
Q 2638 3134 2638 3475 
Q 2638 3834 2411 4026 
Q 2184 4219 1766 4219 
Q 1488 4219 1191 4156 
Q 894 4094 569 3969 
L 569 4550 
Q 947 4650 1242 4700 
Q 1538 4750 1766 4750 
Q 2447 4750 2855 4408 
Q 3263 4066 3263 3500 
Q 3263 3116 3048 2859 
Q 2834 2603 2425 2497 
z
" transform="scale(0.015625)"/>
       </defs>
       <use xlink:href="#Menlo-Regular-33"/>
       <use xlink:href="#Menlo-Regular-30" transform="translate(60.205078 0)"/>
       <use xlink:href="#Menlo-Regular-30" transform="translate(120.410156 0)"/>
      </g>
     </g>
    </g>
    <g id="xtick_5">
     <g id="line2d_5">
      <g>
       <use xlink:href="#mc11ff8ab7a" x="187.692656" y="83.425078" style="fill: #1a1a1a; stroke: #1a1a1a; stroke-width: 0.8"/>
      </g>
     </g>
     <g id="text_5">
      <!-- 400 -->
      <g style="fill: #1a1a1a" transform="translate(181.371328 92.263672) scale(0.07 -0.07)">
       <defs>
        <path id="Menlo-Regular-34" d="M 2297 4091 
L 825 1625 
L 2297 1625 
L 2297 4091 
z
M 2194 4666 
L 2925 4666 
L 2925 1625 
L 3547 1625 
L 3547 1113 
L 2925 1113 
L 2925 0 
L 2297 0 
L 2297 1113 
L 319 1113 
L 319 1709 
L 2194 4666 
z
" transform="scale(0.015625)"/>
       </defs>
       <use xlink:href="#Menlo-Regular-34"/>
       <use xlink:href="#Menlo-Regular-30" transform="translate(60.205078 0)"/>
       <use xlink:href="#Menlo-Regular-30" transform="translate(120.410156 0)"/>
      </g>
     </g>
    </g>
    <g id="text_6">
     <!-- time (ms) -->
     <g style="fill: #1a1a1a" transform="translate(86.902031 103.820703) scale(0.08 -0.08)">
      <defs>
       <path id="Menlo-Regular-74" d="M 1919 4494 
L 1919 3500 
L 3225 3500 
L 3225 3053 
L 1919 3053 
L 1919 1153 
Q 1919 766 2066 612 
Q 2213 459 2578 459 
L 3225 459 
L 3225 0 
L 2522 0 
Q 1875 0 1609 259 
Q 1344 519 1344 1153 
L 1344 3053 
L 409 3053 
L 409 3500 
L 1344 3500 
L 1344 4494 
L 1919 4494 
z
" transform="scale(0.015625)"/>
       <path id="Menlo-Regular-69" d="M 988 3488 
L 2459 3488 
L 2459 447 
L 3600 447 
L 3600 0 
L 744 0 
L 744 447 
L 1884 447 
L 1884 3041 
L 988 3041 
L 988 3488 
z
M 1884 4847 
L 2459 4847 
L 2459 4122 
L 1884 4122 
L 1884 4847 
z
" transform="scale(0.015625)"/>
       <path id="Menlo-Regular-6d" d="M 2113 3144 
Q 2219 3369 2383 3476 
Q 2547 3584 2778 3584 
Q 3200 3584 3373 3257 
Q 3547 2931 3547 2028 
L 3547 0 
L 3022 0 
L 3022 2003 
Q 3022 2744 2939 2923 
Q 2856 3103 2638 3103 
Q 2388 3103 2295 2911 
Q 2203 2719 2203 2003 
L 2203 0 
L 1678 0 
L 1678 2003 
Q 1678 2753 1589 2928 
Q 1500 3103 1269 3103 
Q 1041 3103 952 2911 
Q 863 2719 863 2003 
L 863 0 
L 341 0 
L 341 3500 
L 863 3500 
L 863 3200 
Q 966 3388 1120 3486 
Q 1275 3584 1472 3584 
Q 1709 3584 1867 3475 
Q 2025 3366 2113 3144 
z
" transform="scale(0.015625)"/>
       <path id="Menlo-Regular-65" d="M 3500 2038 
L 3500 1756 
L 1009 1756 
L 1009 1738 
Q 984 1022 1282 709 
Q 1581 397 2125 397 
Q 2400 397 2700 484 
Q 3000 572 3341 750 
L 3341 178 
Q 3013 44 2708 -23 
Q 2403 -91 2119 -91 
Q 1303 -91 843 398 
Q 384 888 384 1747 
Q 384 2584 834 3084 
Q 1284 3584 2034 3584 
Q 2703 3584 3089 3131 
Q 3475 2678 3500 2038 
z
M 2925 2206 
Q 2888 2569 2661 2833 
Q 2434 3097 2009 3097 
Q 1594 3097 1325 2822 
Q 1056 2547 1031 2203 
L 2925 2206 
z
" transform="scale(0.015625)"/>
       <path id="Menlo-Regular-20" transform="scale(0.015625)"/>
       <path id="Menlo-Regular-28" d="M 2672 5169 
Q 2256 4456 2051 3748 
Q 1847 3041 1847 2322 
Q 1847 1606 2051 897 
Q 2256 188 2672 -531 
L 2172 -531 
Q 1700 213 1469 917 
Q 1238 1622 1238 2322 
Q 1238 3019 1469 3725 
Q 1700 4431 2172 5169 
L 2672 5169 
z
" transform="scale(0.015625)"/>
       <path id="Menlo-Regular-73" d="M 3041 3378 
L 3041 2816 
Q 2794 2959 2544 3031 
Q 2294 3103 2034 3103 
Q 1644 3103 1451 2976 
Q 1259 2850 1259 2591 
Q 1259 2356 1403 2240 
Q 1547 2125 2119 2016 
L 2350 1972 
Q 2778 1891 2998 1647 
Q 3219 1403 3219 1013 
Q 3219 494 2850 201 
Q 2481 -91 1825 -91 
Q 1566 -91 1281 -36 
Q 997 19 666 128 
L 666 722 
Q 988 556 1281 473 
Q 1575 391 1838 391 
Q 2219 391 2428 545 
Q 2638 700 2638 978 
Q 2638 1378 1872 1531 
L 1847 1538 
L 1631 1581 
Q 1134 1678 906 1908 
Q 678 2138 678 2534 
Q 678 3038 1018 3311 
Q 1359 3584 1991 3584 
Q 2272 3584 2531 3532 
Q 2791 3481 3041 3378 
z
" transform="scale(0.015625)"/>
       <path id="Menlo-Regular-29" d="M 1088 5169 
L 1588 5169 
Q 2059 4431 2290 3725 
Q 2522 3019 2522 2322 
Q 2522 1619 2290 912 
Q 2059 206 1588 -531 
L 1088 -531 
Q 1503 194 1708 903 
Q 1913 1613 1913 2322 
Q 1913 3034 1708 3743 
Q 1503 4453 1088 5169 
z
" transform="scale(0.015625)"/>
      </defs>
      <use xlink:href="#Menlo-Regular-74"/>
      <use xlink:href="#Menlo-Regular-69" transform="translate(60.205078 0)"/>
      <use xlink:href="#Menlo-Regular-6d" transform="translate(120.410156 0)"/>
      <use xlink:href="#Menlo-Regular-65" transform="translate(180.615234 0)"/>
      <use xlink:href="#Menlo-Regular-20" transform="translate(240.820312 0)"/>
      <use xlink:href="#Menlo-Regular-28" transform="translate(301.025391 0)"/>
      <use xlink:href="#Menlo-Regular-6d" transform="translate(361.230469 0)"/>
      <use xlink:href="#Menlo-Regular-73" transform="translate(421.435547 0)"/>
      <use xlink:href="#Menlo-Regular-29" transform="translate(481.640625 0)"/>
     </g>
    </g>
   </g>
   <g id="matplotlib.axis_2">
    <g id="ytick_1">
     <g id="line2d_6">
      <defs>
       <path id="m2b392f3b0d" d="M 0 0 
L 3 0 
" style="stroke: #1a1a1a; stroke-width: 0.8"/>
      </defs>
      <g>
       <use xlink:href="#m2b392f3b0d" x="29.457656" y="80.28326" style="fill: #1a1a1a; stroke: #1a1a1a; stroke-width: 0.8"/>
      </g>
     </g>
     <g id="text_7">
      <!-- −65 -->
      <g style="fill: #1a1a1a" transform="translate(13.315 82.952557) scale(0.07 -0.07)">
       <defs>
        <path id="Menlo-Regular-2212" d="M 275 2272 
L 3578 2272 
L 3578 1741 
L 275 1741 
L 275 2272 
z
" transform="scale(0.015625)"/>
        <path id="Menlo-Regular-36" d="M 3097 4563 
L 3097 3981 
Q 2900 4097 2678 4158 
Q 2456 4219 2216 4219 
Q 1616 4219 1306 3767 
Q 997 3316 997 2438 
Q 1147 2750 1412 2917 
Q 1678 3084 2022 3084 
Q 2697 3084 3067 2670 
Q 3438 2256 3438 1497 
Q 3438 741 3056 325 
Q 2675 -91 1984 -91 
Q 1172 -91 794 492 
Q 416 1075 416 2328 
Q 416 3509 870 4129 
Q 1325 4750 2188 4750 
Q 2419 4750 2650 4701 
Q 2881 4653 3097 4563 
z
M 1972 2591 
Q 1569 2591 1337 2300 
Q 1106 2009 1106 1497 
Q 1106 984 1337 693 
Q 1569 403 1972 403 
Q 2391 403 2603 679 
Q 2816 956 2816 1497 
Q 2816 2041 2603 2316 
Q 2391 2591 1972 2591 
z
" transform="scale(0.015625)"/>
        <path id="Menlo-Regular-35" d="M 647 4666 
L 3009 4666 
L 3009 4134 
L 1222 4134 
L 1222 2988 
Q 1356 3038 1492 3061 
Q 1628 3084 1766 3084 
Q 2491 3084 2916 2656 
Q 3341 2228 3341 1497 
Q 3341 759 2895 334 
Q 2450 -91 1678 -91 
Q 1306 -91 998 -41 
Q 691 9 447 109 
L 447 750 
Q 734 594 1025 517 
Q 1316 441 1619 441 
Q 2141 441 2423 716 
Q 2706 991 2706 1497 
Q 2706 1997 2414 2275 
Q 2122 2553 1600 2553 
Q 1347 2553 1106 2495 
Q 866 2438 647 2322 
L 647 4666 
z
" transform="scale(0.015625)"/>
       </defs>
       <use xlink:href="#Menlo-Regular-2212"/>
       <use xlink:href="#Menlo-Regular-36" transform="translate(60.205078 0)"/>
       <use xlink:href="#Menlo-Regular-35" transform="translate(120.410156 0)"/>
      </g>
     </g>
    </g>
    <g id="ytick_2">
     <g id="line2d_7">
      <g>
       <use xlink:href="#m2b392f3b0d" x="29.457656" y="59.311138" style="fill: #1a1a1a; stroke: #1a1a1a; stroke-width: 0.8"/>
      </g>
     </g>
     <g id="text_8">
      <!-- −60 -->
      <g style="fill: #1a1a1a" transform="translate(13.315 61.980435) scale(0.07 -0.07)">
       <use xlink:href="#Menlo-Regular-2212"/>
       <use xlink:href="#Menlo-Regular-36" transform="translate(60.205078 0)"/>
       <use xlink:href="#Menlo-Regular-30" transform="translate(120.410156 0)"/>
      </g>
     </g>
    </g>
    <g id="ytick_3">
     <g id="line2d_8">
      <g>
       <use xlink:href="#m2b392f3b0d" x="29.457656" y="38.339016" style="fill: #1a1a1a; stroke: #1a1a1a; stroke-width: 0.8"/>
      </g>
     </g>
     <g id="text_9">
      <!-- −55 -->
      <g style="fill: #1a1a1a" transform="translate(13.315 41.008313) scale(0.07 -0.07)">
       <use xlink:href="#Menlo-Regular-2212"/>
       <use xlink:href="#Menlo-Regular-35" transform="translate(60.205078 0)"/>
       <use xlink:href="#Menlo-Regular-35" transform="translate(120.410156 0)"/>
      </g>
     </g>
    </g>
    <g id="ytick_4">
     <g id="line2d_9">
      <g>
       <use xlink:href="#m2b392f3b0d" x="29.457656" y="17.366894" style="fill: #1a1a1a; stroke: #1a1a1a; stroke-width: 0.8"/>
      </g>
     </g>
     <g id="text_10">
      <!-- −50 -->
      <g style="fill: #1a1a1a" transform="translate(13.315 20.036191) scale(0.07 -0.07)">
       <use xlink:href="#Menlo-Regular-2212"/>
       <use xlink:href="#Menlo-Regular-35" transform="translate(60.205078 0)"/>
       <use xlink:href="#Menlo-Regular-30" transform="translate(120.410156 0)"/>
      </g>
     </g>
    </g>
    <g id="text_11">
     <!-- V_E (neuron 57)  [mV] -->
     <g style="fill: #1a1a1a" transform="translate(7.65125 99.435703) rotate(-90) scale(0.08 -0.08)">
      <defs>
       <path id="Menlo-Regular-56" d="M 1925 531 
L 3022 4666 
L 3675 4666 
L 2309 0 
L 1544 0 
L 178 4666 
L 831 4666 
L 1925 531 
z
" transform="scale(0.015625)"/>
       <path id="Menlo-Regular-5f" d="M 3825 -594 
L 3825 -1125 
L 0 -1125 
L 0 -594 
L 3825 -594 
z
" transform="scale(0.015625)"/>
       <path id="Menlo-Regular-45" d="M 616 4666 
L 3384 4666 
L 3384 4134 
L 1247 4134 
L 1247 2878 
L 3291 2878 
L 3291 2347 
L 1247 2347 
L 1247 531 
L 3444 531 
L 3444 0 
L 616 0 
L 616 4666 
z
" transform="scale(0.015625)"/>
       <path id="Menlo-Regular-6e" d="M 3284 2169 
L 3284 0 
L 2706 0 
L 2706 2169 
Q 2706 2641 2540 2862 
Q 2375 3084 2022 3084 
Q 1619 3084 1401 2798 
Q 1184 2513 1184 1978 
L 1184 0 
L 609 0 
L 609 3500 
L 1184 3500 
L 1184 2975 
Q 1338 3275 1600 3429 
Q 1863 3584 2222 3584 
Q 2756 3584 3020 3232 
Q 3284 2881 3284 2169 
z
" transform="scale(0.015625)"/>
       <path id="Menlo-Regular-75" d="M 609 1325 
L 609 3494 
L 1184 3494 
L 1184 1325 
Q 1184 853 1351 631 
Q 1519 409 1869 409 
Q 2275 409 2490 695 
Q 2706 981 2706 1516 
L 2706 3494 
L 3284 3494 
L 3284 0 
L 2706 0 
L 2706 525 
Q 2553 222 2289 65 
Q 2025 -91 1672 -91 
Q 1134 -91 871 261 
Q 609 613 609 1325 
z
" transform="scale(0.015625)"/>
       <path id="Menlo-Regular-72" d="M 3609 2778 
Q 3425 2922 3234 2987 
Q 3044 3053 2816 3053 
Q 2278 3053 1993 2715 
Q 1709 2378 1709 1741 
L 1709 0 
L 1131 0 
L 1131 3500 
L 1709 3500 
L 1709 2816 
Q 1853 3188 2151 3386 
Q 2450 3584 2859 3584 
Q 3072 3584 3256 3531 
Q 3441 3478 3609 3366 
L 3609 2778 
z
" transform="scale(0.015625)"/>
       <path id="Menlo-Regular-6f" d="M 1925 3097 
Q 1488 3097 1263 2756 
Q 1038 2416 1038 1747 
Q 1038 1081 1263 739 
Q 1488 397 1925 397 
Q 2366 397 2591 739 
Q 2816 1081 2816 1747 
Q 2816 2416 2591 2756 
Q 2366 3097 1925 3097 
z
M 1925 3584 
Q 2653 3584 3039 3112 
Q 3425 2641 3425 1747 
Q 3425 850 3040 379 
Q 2656 -91 1925 -91 
Q 1197 -91 812 379 
Q 428 850 428 1747 
Q 428 2641 812 3112 
Q 1197 3584 1925 3584 
z
" transform="scale(0.015625)"/>
       <path id="Menlo-Regular-37" d="M 434 4666 
L 3372 4666 
L 3372 4397 
L 1703 0 
L 1044 0 
L 2669 4134 
L 434 4134 
L 434 4666 
z
" transform="scale(0.015625)"/>
       <path id="Menlo-Regular-5b" d="M 1759 5175 
L 3084 5175 
L 3084 4728 
L 2334 4728 
L 2334 -84 
L 3084 -84 
L 3084 -531 
L 1759 -531 
L 1759 5175 
z
" transform="scale(0.015625)"/>
       <path id="Menlo-Regular-5d" d="M 2250 5175 
L 2250 -531 
L 925 -531 
L 925 -84 
L 1675 -84 
L 1675 4728 
L 925 4728 
L 925 5175 
L 2250 5175 
z
" transform="scale(0.015625)"/>
      </defs>
      <use xlink:href="#Menlo-Regular-56"/>
      <use xlink:href="#Menlo-Regular-5f" transform="translate(60.205078 0)"/>
      <use xlink:href="#Menlo-Regular-45" transform="translate(120.410156 0)"/>
      <use xlink:href="#Menlo-Regular-20" transform="translate(180.615234 0)"/>
      <use xlink:href="#Menlo-Regular-28" transform="translate(240.820312 0)"/>
      <use xlink:href="#Menlo-Regular-6e" transform="translate(301.025391 0)"/>
      <use xlink:href="#Menlo-Regular-65" transform="translate(361.230469 0)"/>
      <use xlink:href="#Menlo-Regular-75" transform="translate(421.435547 0)"/>
      <use xlink:href="#Menlo-Regular-72" transform="translate(481.640625 0)"/>
      <use xlink:href="#Menlo-Regular-6f" transform="translate(541.845703 0)"/>
      <use xlink:href="#Menlo-Regular-6e" transform="translate(602.050781 0)"/>
      <use xlink:href="#Menlo-Regular-20" transform="translate(662.255859 0)"/>
      <use xlink:href="#Menlo-Regular-35" transform="translate(722.460938 0)"/>
      <use xlink:href="#Menlo-Regular-37" transform="translate(782.666016 0)"/>
      <use xlink:href="#Menlo-Regular-29" transform="translate(842.871094 0)"/>
      <use xlink:href="#Menlo-Regular-20" transform="translate(903.076172 0)"/>
      <use xlink:href="#Menlo-Regular-20" transform="translate(963.28125 0)"/>
      <use xlink:href="#Menlo-Regular-5b" transform="translate(1023.486328 0)"/>
      <use xlink:href="#Menlo-Regular-6d" transform="translate(1083.691406 0)"/>
      <use xlink:href="#Menlo-Regular-56" transform="translate(1143.896484 0)"/>
      <use xlink:href="#Menlo-Regular-5d" transform="translate(1204.101562 0)"/>
     </g>
    </g>
   </g>
   <g id="line2d_10">
    <path d="M 29.457656 80.186873 
L 29.754347 79.498309 
L 30.347728 77.383657 
L 30.644419 76.51688 
L 31.040006 73.917557 
L 33.710222 49.492248 
L 36.182644 17.640646 
L 36.380438 80.28326 
L 37.369406 80.28326 
L 38.160581 52.762182 
L 38.951756 34.202449 
L 39.545138 23.464205 
L 39.841828 20.666989 
L 40.138519 19.531964 
L 40.336313 19.310934 
L 41.028591 19.056719 
L 41.424178 18.475054 
L 42.017559 17.446896 
L 42.215353 80.28326 
L 43.204322 80.28326 
L 43.797703 73.878564 
L 45.083363 65.413585 
L 45.47895 64.311537 
L 45.973434 63.410968 
L 46.171228 62.291896 
L 46.467919 59.08878 
L 47.0613 48.682849 
L 48.346959 23.613505 
L 48.940341 17.905805 
L 49.138134 80.28326 
L 50.127103 80.28326 
L 50.621588 74.90805 
L 51.017175 72.627968 
L 51.412763 71.469295 
L 51.80835 70.303853 
L 52.500628 66.482464 
L 53.094009 62.261687 
L 53.588494 58.453513 
L 55.071947 50.403474 
L 55.368638 50.133227 
L 55.566431 50.207229 
L 56.060916 50.75558 
L 56.159813 50.648761 
L 56.357606 50.036264 
L 56.753194 47.675572 
L 57.346575 41.843229 
L 58.236647 33.099506 
L 58.928925 28.265671 
L 59.423409 24.016509 
L 60.016791 17.648502 
L 60.214584 80.28326 
L 61.203553 80.28326 
L 61.994728 68.977095 
L 62.687006 61.595732 
L 63.181491 55.857807 
L 63.972666 45.378466 
L 66.642881 21.182492 
L 67.137366 19.002861 
L 67.730747 17.557395 
L 67.928541 80.28326 
L 68.917509 80.28326 
L 69.708684 68.920838 
L 70.104272 66.408654 
L 70.499859 65.17625 
L 70.79655 64.808256 
L 71.093241 64.635419 
L 71.291034 64.143869 
L 71.587725 62.243142 
L 72.280003 57.648114 
L 72.774488 54.86709 
L 73.170075 51.889133 
L 73.664559 46.067926 
L 75.049116 27.539586 
L 75.5436 24.519531 
L 75.840291 23.913514 
L 76.038084 23.619681 
L 76.928156 20.948741 
L 77.422641 17.896269 
L 77.620434 80.28326 
L 78.609403 80.28326 
L 79.103888 75.887438 
L 80.191753 68.961719 
L 80.587341 67.771909 
L 80.982928 67.161907 
L 81.279619 67.053248 
L 81.971897 67.112802 
L 82.169691 66.728919 
L 82.664175 64.542744 
L 83.850938 59.408357 
L 84.345422 57.699412 
L 84.938803 55.614088 
L 86.521153 50.826638 
L 86.916741 49.655901 
L 87.312328 49.116893 
L 87.510122 49.114333 
L 87.806813 49.416838 
L 88.301297 50.434403 
L 88.597988 51.014084 
L 88.696884 50.904401 
L 88.894678 50.05692 
L 89.290266 46.644598 
L 90.773719 31.93728 
L 91.762687 21.573879 
L 92.158275 20.059083 
L 92.751656 18.116004 
L 92.850553 17.602117 
L 93.048347 80.28326 
L 94.037316 80.28326 
L 95.224078 49.862595 
L 96.509737 23.123507 
L 96.806428 18.292521 
L 97.004222 80.28326 
L 97.993191 80.28326 
L 98.487675 74.208718 
L 100.762303 55.585783 
L 101.751272 48.957545 
L 102.245756 45.178972 
L 103.036931 37.571938 
L 104.619281 18.102675 
L 104.817075 80.28326 
L 105.806044 80.28326 
L 106.201631 77.531661 
L 106.696116 75.605078 
L 107.091703 74.807503 
L 107.487291 74.444308 
L 107.981775 74.331249 
L 108.575156 74.220798 
L 108.77295 73.834611 
L 108.970744 72.966682 
L 109.267434 70.194698 
L 109.761919 63.343606 
L 110.454197 54.404357 
L 110.849784 52.112483 
L 111.146475 51.43408 
L 111.443166 50.983475 
L 111.93765 49.811089 
L 112.135444 49.727727 
L 112.432134 49.926805 
L 113.223309 50.984995 
L 113.52 50.399346 
L 113.816691 50.099962 
L 114.014484 50.160491 
L 114.410072 50.627561 
L 114.805659 51.022068 
L 115.10235 51.134983 
L 115.300144 51.022868 
L 115.497938 50.531526 
L 115.992422 49.364612 
L 116.289113 48.991306 
L 116.882494 47.973853 
L 117.179184 47.847609 
L 117.475875 47.399164 
L 117.673669 46.640374 
L 117.970359 44.378197 
L 118.365947 39.286419 
L 119.651606 18.179877 
L 119.8494 80.28326 
L 120.838369 80.28326 
L 122.124028 62.564655 
L 124.695347 32.539714 
L 125.585419 23.657475 
L 126.1788 19.027886 
L 126.574388 17.51917 
L 126.772181 80.28326 
L 127.76115 80.28326 
L 128.453428 70.25078 
L 128.849016 67.421387 
L 129.442397 63.90295 
L 130.530262 54.891651 
L 130.826953 54.083516 
L 131.123644 53.848229 
L 131.519231 53.805364 
L 131.815922 53.802404 
L 132.5082 52.929067 
L 133.398272 53.173522 
L 133.596066 52.831288 
L 134.09055 51.101542 
L 134.980622 47.008865 
L 135.376209 43.564654 
L 136.266281 32.020579 
L 137.156353 19.435129 
L 137.25525 18.081203 
L 137.453044 80.28326 
L 138.442013 80.28326 
L 139.925466 45.984179 
L 140.815538 31.145482 
L 141.606713 21.112026 
L 142.0023 19.147009 
L 142.496784 17.953039 
L 142.793475 17.655254 
L 143.090166 17.697079 
L 143.287959 17.974895 
L 143.58465 18.878633 
L 144.178031 21.689002 
L 145.068103 26.046071 
L 145.167 26.041863 
L 145.265897 25.918787 
L 145.463691 25.112956 
L 146.551556 17.616101 
L 146.74935 80.28326 
L 147.738319 80.28326 
L 148.529494 67.837447 
L 149.320669 58.323734 
L 150.012947 52.617218 
L 150.408534 50.89016 
L 151.001916 49.880755 
L 151.595297 48.969113 
L 151.793091 47.93814 
L 152.683163 41.676504 
L 152.979853 41.21305 
L 153.177647 41.25598 
L 153.474337 41.68364 
L 153.968822 42.978253 
L 154.957791 45.9893 
L 156.045656 46.870461 
L 156.24345 46.738537 
L 156.639038 46.125415 
L 156.836831 45.932466 
L 157.133522 45.249406 
L 157.430213 44.569675 
L 157.628006 44.459 
L 157.8258 44.557226 
L 158.122491 44.713119 
L 158.715872 44.656429 
L 159.012563 45.075481 
L 159.507047 46.307469 
L 160.199325 48.202035 
L 160.397119 48.374312 
L 160.594913 48.294518 
L 160.891603 47.68106 
L 161.682778 44.685102 
L 162.276159 42.166166 
L 162.770644 40.07513 
L 163.166231 38.357657 
L 163.759613 35.785423 
L 164.847478 34.498218 
L 165.539756 34.765185 
L 165.73755 34.059773 
L 166.232034 30.31173 
L 167.616591 17.517714 
L 167.814384 80.28326 
L 168.803353 80.28326 
L 169.693425 64.651963 
L 170.286806 54.129261 
L 171.968053 31.113289 
L 172.363641 29.233267 
L 172.561434 28.990684 
L 172.759228 29.086942 
L 173.055919 29.689872 
L 173.847094 32.368333 
L 174.836062 36.111608 
L 175.033856 36.231948 
L 175.23165 36.04519 
L 175.429444 35.647467 
L 175.627238 34.894997 
L 176.022825 31.64372 
L 176.814 21.599704 
L 177.110691 17.548083 
L 177.308484 80.28326 
L 178.297453 80.28326 
L 178.791938 73.233362 
L 179.484216 67.427899 
L 180.275391 62.306968 
L 180.572081 60.884111 
L 180.967669 57.407163 
L 181.56105 50.071689 
L 182.747813 30.915795 
L 183.440091 18.801063 
L 183.637884 80.28326 
L 184.626853 80.28326 
L 185.121338 75.915071 
L 185.516925 74.093562 
L 186.011409 72.870023 
L 186.604791 71.592306 
L 186.901481 69.942995 
L 187.593759 64.038442 
L 187.593759 64.038442 
" clip-path="url(#p9318527b34)" style="fill: none; stroke: #1a1a1a; stroke-width: 0.8; stroke-linejoin: miter"/>
   </g>
   <g id="line2d_11">
    <path d="M 29.457656 17.366894 
L 187.692656 17.366894 
" clip-path="url(#p9318527b34)" style="fill: none; stroke-dasharray: 1.85,0.8; stroke-dashoffset: 0; stroke: #bbbbbb; stroke-width: 0.5"/>
   </g>
   <g id="patch_3">
    <path d="M 29.457656 83.425078 
L 29.457656 14.305078 
" style="fill: none; stroke: #1a1a1a; stroke-width: 0.8; stroke-linejoin: miter; stroke-linecap: square"/>
   </g>
   <g id="patch_4">
    <path d="M 187.692656 83.425078 
L 187.692656 14.305078 
" style="fill: none; stroke: #1a1a1a; stroke-width: 0.8; stroke-linejoin: miter; stroke-linecap: square"/>
   </g>
   <g id="patch_5">
    <path d="M 29.457656 83.425078 
L 187.692656 83.425078 
" style="fill: none; stroke: #1a1a1a; stroke-width: 0.8; stroke-linejoin: miter; stroke-linecap: square"/>
   </g>
   <g id="patch_6">
    <path d="M 29.457656 14.305078 
L 187.692656 14.305078 
" style="fill: none; stroke: #1a1a1a; stroke-width: 0.8; stroke-linejoin: miter; stroke-linecap: square"/>
   </g>
   <g id="text_12">
    <!-- COBA — no recurrent loop (ei-strength = 0) — E-neuron membrane voltage -->
    <g style="fill: #1a1a1a" transform="translate(29.457656 8.305078) scale(0.085 -0.085)">
     <defs>
      <path id="Menlo-Regular-43" d="M 3353 166 
Q 3113 38 2859 -26 
Q 2606 -91 2322 -91 
Q 1425 -91 929 543 
Q 434 1178 434 2328 
Q 434 3472 932 4111 
Q 1431 4750 2322 4750 
Q 2606 4750 2859 4686 
Q 3113 4622 3353 4494 
L 3353 3847 
Q 3122 4038 2856 4138 
Q 2591 4238 2322 4238 
Q 1706 4238 1400 3763 
Q 1094 3288 1094 2328 
Q 1094 1372 1400 897 
Q 1706 422 2322 422 
Q 2597 422 2861 522 
Q 3125 622 3353 813 
L 3353 166 
z
" transform="scale(0.015625)"/>
      <path id="Menlo-Regular-4f" d="M 2828 2328 
Q 2828 3356 2617 3797 
Q 2406 4238 1925 4238 
Q 1447 4238 1236 3797 
Q 1025 3356 1025 2328 
Q 1025 1303 1236 862 
Q 1447 422 1925 422 
Q 2406 422 2617 861 
Q 2828 1300 2828 2328 
z
M 3488 2328 
Q 3488 1109 3102 509 
Q 2716 -91 1925 -91 
Q 1134 -91 750 506 
Q 366 1103 366 2328 
Q 366 3550 752 4150 
Q 1138 4750 1925 4750 
Q 2716 4750 3102 4150 
Q 3488 3550 3488 2328 
z
" transform="scale(0.015625)"/>
      <path id="Menlo-Regular-42" d="M 1153 2353 
L 1153 519 
L 1900 519 
Q 2450 519 2684 711 
Q 2919 903 2919 1344 
Q 2919 1925 2672 2139 
Q 2425 2353 1900 2353 
L 1153 2353 
z
M 1153 4147 
L 1153 2866 
L 1888 2866 
Q 2344 2866 2548 3041 
Q 2753 3216 2753 3481 
Q 2753 3834 2551 3990 
Q 2350 4147 1888 4147 
L 1153 4147 
z
M 519 4666 
L 1900 4666 
Q 2616 4666 3003 4356 
Q 3391 4047 3391 3481 
Q 3391 3178 3186 2931 
Q 2981 2684 2572 2622 
Q 3031 2553 3292 2229 
Q 3553 1906 3553 1281 
Q 3553 647 3137 323 
Q 2722 0 1900 0 
L 519 0 
L 519 4666 
z
" transform="scale(0.015625)"/>
      <path id="Menlo-Regular-41" d="M 1925 4109 
L 1259 1722 
L 2591 1722 
L 1925 4109 
z
M 1544 4666 
L 2309 4666 
L 3738 0 
L 3084 0 
L 2741 1216 
L 1106 1216 
L 769 0 
L 116 0 
L 1544 4666 
z
" transform="scale(0.015625)"/>
      <path id="Menlo-Regular-2014" d="M 0 2259 
L 3853 2259 
L 3853 1725 
L 0 1725 
L 0 2259 
z
" transform="scale(0.015625)"/>
      <path id="Menlo-Regular-63" d="M 3316 178 
Q 3084 44 2839 -23 
Q 2594 -91 2338 -91 
Q 1525 -91 1067 396 
Q 609 884 609 1747 
Q 609 2609 1067 3096 
Q 1525 3584 2338 3584 
Q 2591 3584 2831 3518 
Q 3072 3453 3316 3316 
L 3316 2713 
Q 3088 2916 2858 3006 
Q 2628 3097 2338 3097 
Q 1797 3097 1506 2747 
Q 1216 2397 1216 1747 
Q 1216 1100 1508 748 
Q 1800 397 2338 397 
Q 2638 397 2875 489 
Q 3113 581 3316 775 
L 3316 178 
z
" transform="scale(0.015625)"/>
      <path id="Menlo-Regular-6c" d="M 2247 1266 
Q 2247 878 2389 681 
Q 2531 484 2809 484 
L 3481 484 
L 3481 0 
L 2753 0 
Q 2238 0 1955 329 
Q 1672 659 1672 1266 
L 1672 4431 
L 750 4431 
L 750 4881 
L 2247 4881 
L 2247 1266 
z
" transform="scale(0.015625)"/>
      <path id="Menlo-Regular-70" d="M 1172 441 
L 1172 -1331 
L 594 -1331 
L 594 3500 
L 1172 3500 
L 1172 3053 
Q 1316 3313 1555 3448 
Q 1794 3584 2106 3584 
Q 2741 3584 3102 3093 
Q 3463 2603 3463 1734 
Q 3463 881 3100 395 
Q 2738 -91 2106 -91 
Q 1788 -91 1548 45 
Q 1309 181 1172 441 
z
M 2859 1747 
Q 2859 2416 2648 2756 
Q 2438 3097 2022 3097 
Q 1603 3097 1387 2755 
Q 1172 2413 1172 1747 
Q 1172 1084 1387 740 
Q 1603 397 2022 397 
Q 2438 397 2648 737 
Q 2859 1078 2859 1747 
z
" transform="scale(0.015625)"/>
      <path id="Menlo-Regular-2d" d="M 319 2263 
L 3631 2263 
L 3631 1734 
L 319 1734 
L 319 2263 
z
" transform="scale(0.015625)"/>
      <path id="Menlo-Regular-67" d="M 2681 1778 
Q 2681 2425 2470 2761 
Q 2259 3097 1856 3097 
Q 1434 3097 1212 2761 
Q 991 2425 991 1778 
Q 991 1131 1214 792 
Q 1438 453 1863 453 
Q 2259 453 2470 793 
Q 2681 1134 2681 1778 
z
M 3256 225 
Q 3256 -563 2884 -969 
Q 2513 -1375 1791 -1375 
Q 1553 -1375 1293 -1331 
Q 1034 -1288 775 -1203 
L 775 -634 
Q 1081 -778 1331 -847 
Q 1581 -916 1791 -916 
Q 2256 -916 2468 -662 
Q 2681 -409 2681 141 
L 2681 166 
L 2681 556 
Q 2544 263 2306 119 
Q 2069 -25 1728 -25 
Q 1116 -25 750 465 
Q 384 956 384 1778 
Q 384 2603 750 3093 
Q 1116 3584 1728 3584 
Q 2066 3584 2300 3450 
Q 2534 3316 2681 3034 
L 2681 3488 
L 3256 3488 
L 3256 225 
z
" transform="scale(0.015625)"/>
      <path id="Menlo-Regular-68" d="M 3284 2169 
L 3284 0 
L 2706 0 
L 2706 2169 
Q 2706 2641 2540 2862 
Q 2375 3084 2022 3084 
Q 1619 3084 1401 2798 
Q 1184 2513 1184 1978 
L 1184 0 
L 609 0 
L 609 4863 
L 1184 4863 
L 1184 2975 
Q 1338 3275 1600 3429 
Q 1863 3584 2222 3584 
Q 2756 3584 3020 3232 
Q 3284 2881 3284 2169 
z
" transform="scale(0.015625)"/>
      <path id="Menlo-Regular-3d" d="M 275 1563 
L 3578 1563 
L 3578 1034 
L 275 1034 
L 275 1563 
z
M 275 3034 
L 3578 3034 
L 3578 2506 
L 275 2506 
L 275 3034 
z
" transform="scale(0.015625)"/>
      <path id="Menlo-Regular-62" d="M 2869 1747 
Q 2869 2416 2656 2756 
Q 2444 3097 2028 3097 
Q 1609 3097 1393 2755 
Q 1178 2413 1178 1747 
Q 1178 1084 1393 740 
Q 1609 397 2028 397 
Q 2444 397 2656 737 
Q 2869 1078 2869 1747 
z
M 1178 3053 
Q 1316 3309 1558 3446 
Q 1800 3584 2119 3584 
Q 2750 3584 3112 3098 
Q 3475 2613 3475 1759 
Q 3475 894 3111 401 
Q 2747 -91 2113 -91 
Q 1800 -91 1561 45 
Q 1322 181 1178 441 
L 1178 0 
L 603 0 
L 603 4863 
L 1178 4863 
L 1178 3053 
z
" transform="scale(0.015625)"/>
      <path id="Menlo-Regular-61" d="M 2194 1759 
L 2003 1759 
Q 1500 1759 1245 1582 
Q 991 1406 991 1056 
Q 991 741 1181 566 
Q 1372 391 1709 391 
Q 2184 391 2456 720 
Q 2728 1050 2731 1631 
L 2731 1759 
L 2194 1759 
z
M 3309 1997 
L 3309 0 
L 2731 0 
L 2731 519 
Q 2547 206 2267 57 
Q 1988 -91 1588 -91 
Q 1053 -91 734 211 
Q 416 513 416 1019 
Q 416 1603 808 1906 
Q 1200 2209 1959 2209 
L 2731 2209 
L 2731 2300 
Q 2728 2719 2518 2908 
Q 2309 3097 1850 3097 
Q 1556 3097 1256 3012 
Q 956 2928 672 2766 
L 672 3341 
Q 991 3463 1283 3523 
Q 1575 3584 1850 3584 
Q 2284 3584 2592 3456 
Q 2900 3328 3091 3072 
Q 3209 2916 3259 2686 
Q 3309 2456 3309 1997 
z
" transform="scale(0.015625)"/>
      <path id="Menlo-Regular-76" d="M 313 3500 
L 909 3500 
L 1925 563 
L 2944 3500 
L 3541 3500 
L 2297 0 
L 1556 0 
L 313 3500 
z
" transform="scale(0.015625)"/>
     </defs>
     <use xlink:href="#Menlo-Regular-43"/>
     <use xlink:href="#Menlo-Regular-4f" transform="translate(60.205078 0)"/>
     <use xlink:href="#Menlo-Regular-42" transform="translate(120.410156 0)"/>
     <use xlink:href="#Menlo-Regular-41" transform="translate(180.615234 0)"/>
     <use xlink:href="#Menlo-Regular-20" transform="translate(240.820312 0)"/>
     <use xlink:href="#Menlo-Regular-2014" transform="translate(301.025391 0)"/>
     <use xlink:href="#Menlo-Regular-20" transform="translate(361.230469 0)"/>
     <use xlink:href="#Menlo-Regular-6e" transform="translate(421.435547 0)"/>
     <use xlink:href="#Menlo-Regular-6f" transform="translate(481.640625 0)"/>
     <use xlink:href="#Menlo-Regular-20" transform="translate(541.845703 0)"/>
     <use xlink:href="#Menlo-Regular-72" transform="translate(602.050781 0)"/>
     <use xlink:href="#Menlo-Regular-65" transform="translate(662.255859 0)"/>
     <use xlink:href="#Menlo-Regular-63" transform="translate(722.460938 0)"/>
     <use xlink:href="#Menlo-Regular-75" transform="translate(782.666016 0)"/>
     <use xlink:href="#Menlo-Regular-72" transform="translate(842.871094 0)"/>
     <use xlink:href="#Menlo-Regular-72" transform="translate(903.076172 0)"/>
     <use xlink:href="#Menlo-Regular-65" transform="translate(963.28125 0)"/>
     <use xlink:href="#Menlo-Regular-6e" transform="translate(1023.486328 0)"/>
     <use xlink:href="#Menlo-Regular-74" transform="translate(1083.691406 0)"/>
     <use xlink:href="#Menlo-Regular-20" transform="translate(1143.896484 0)"/>
     <use xlink:href="#Menlo-Regular-6c" transform="translate(1204.101562 0)"/>
     <use xlink:href="#Menlo-Regular-6f" transform="translate(1264.306641 0)"/>
     <use xlink:href="#Menlo-Regular-6f" transform="translate(1324.511719 0)"/>
     <use xlink:href="#Menlo-Regular-70" transform="translate(1384.716797 0)"/>
     <use xlink:href="#Menlo-Regular-20" transform="translate(1444.921875 0)"/>
     <use xlink:href="#Menlo-Regular-28" transform="translate(1505.126953 0)"/>
     <use xlink:href="#Menlo-Regular-65" transform="translate(1565.332031 0)"/>
     <use xlink:href="#Menlo-Regular-69" transform="translate(1625.537109 0)"/>
     <use xlink:href="#Menlo-Regular-2d" transform="translate(1685.742188 0)"/>
     <use xlink:href="#Menlo-Regular-73" transform="translate(1745.947266 0)"/>
     <use xlink:href="#Menlo-Regular-74" transform="translate(1806.152344 0)"/>
     <use xlink:href="#Menlo-Regular-72" transform="translate(1866.357422 0)"/>
     <use xlink:href="#Menlo-Regular-65" transform="translate(1926.5625 0)"/>
     <use xlink:href="#Menlo-Regular-6e" transform="translate(1986.767578 0)"/>
     <use xlink:href="#Menlo-Regular-67" transform="translate(2046.972656 0)"/>
     <use xlink:href="#Menlo-Regular-74" transform="translate(2107.177734 0)"/>
     <use xlink:href="#Menlo-Regular-68" transform="translate(2167.382812 0)"/>
     <use xlink:href="#Menlo-Regular-20" transform="translate(2227.587891 0)"/>
     <use xlink:href="#Menlo-Regular-3d" transform="translate(2287.792969 0)"/>
     <use xlink:href="#Menlo-Regular-20" transform="translate(2347.998047 0)"/>
     <use xlink:href="#Menlo-Regular-30" transform="translate(2408.203125 0)"/>
     <use xlink:href="#Menlo-Regular-29" transform="translate(2468.408203 0)"/>
     <use xlink:href="#Menlo-Regular-20" transform="translate(2528.613281 0)"/>
     <use xlink:href="#Menlo-Regular-2014" transform="translate(2588.818359 0)"/>
     <use xlink:href="#Menlo-Regular-20" transform="translate(2649.023438 0)"/>
     <use xlink:href="#Menlo-Regular-45" transform="translate(2709.228516 0)"/>
     <use xlink:href="#Menlo-Regular-2d" transform="translate(2769.433594 0)"/>
     <use xlink:href="#Menlo-Regular-6e" transform="translate(2829.638672 0)"/>
     <use xlink:href="#Menlo-Regular-65" transform="translate(2889.84375 0)"/>
     <use xlink:href="#Menlo-Regular-75" transform="translate(2950.048828 0)"/>
     <use xlink:href="#Menlo-Regular-72" transform="translate(3010.253906 0)"/>
     <use xlink:href="#Menlo-Regular-6f" transform="translate(3070.458984 0)"/>
     <use xlink:href="#Menlo-Regular-6e" transform="translate(3130.664062 0)"/>
     <use xlink:href="#Menlo-Regular-20" transform="translate(3190.869141 0)"/>
     <use xlink:href="#Menlo-Regular-6d" transform="translate(3251.074219 0)"/>
     <use xlink:href="#Menlo-Regular-65" transform="translate(3311.279297 0)"/>
     <use xlink:href="#Menlo-Regular-6d" transform="translate(3371.484375 0)"/>
     <use xlink:href="#Menlo-Regular-62" transform="translate(3431.689453 0)"/>
     <use xlink:href="#Menlo-Regular-72" transform="translate(3491.894531 0)"/>
     <use xlink:href="#Menlo-Regular-61" transform="translate(3552.099609 0)"/>
     <use xlink:href="#Menlo-Regular-6e" transform="translate(3612.304688 0)"/>
     <use xlink:href="#Menlo-Regular-65" transform="translate(3672.509766 0)"/>
     <use xlink:href="#Menlo-Regular-20" transform="translate(3732.714844 0)"/>
     <use xlink:href="#Menlo-Regular-76" transform="translate(3792.919922 0)"/>
     <use xlink:href="#Menlo-Regular-6f" transform="translate(3853.125 0)"/>
     <use xlink:href="#Menlo-Regular-6c" transform="translate(3913.330078 0)"/>
     <use xlink:href="#Menlo-Regular-74" transform="translate(3973.535156 0)"/>
     <use xlink:href="#Menlo-Regular-61" transform="translate(4033.740234 0)"/>
     <use xlink:href="#Menlo-Regular-67" transform="translate(4093.945312 0)"/>
     <use xlink:href="#Menlo-Regular-65" transform="translate(4154.150391 0)"/>
    </g>
   </g>
   <g id="legend_1">
    <g id="patch_7">
     <path d="M 144.935781 40.493828 
L 184.192656 40.493828 
L 184.192656 17.805078 
L 144.935781 17.805078 
z
" style="fill: #ffffff; stroke: #1a1a1a; stroke-width: 0.8; stroke-linejoin: miter"/>
    </g>
    <g id="line2d_12">
     <path d="M 147.735781 23.493672 
L 153.335781 23.493672 
L 158.935781 23.493672 
" style="fill: none; stroke: #1a1a1a; stroke-width: 0.8; stroke-linejoin: miter"/>
    </g>
    <g id="text_13">
     <!-- V_E -->
     <g style="fill: #1a1a1a" transform="translate(164.535781 25.943672) scale(0.07 -0.07)">
      <use xlink:href="#Menlo-Regular-56"/>
      <use xlink:href="#Menlo-Regular-5f" transform="translate(60.205078 0)"/>
      <use xlink:href="#Menlo-Regular-45" transform="translate(120.410156 0)"/>
     </g>
    </g>
    <g id="line2d_13">
     <path d="M 147.735781 33.788047 
L 153.335781 33.788047 
L 158.935781 33.788047 
" style="fill: none; stroke-dasharray: 1.85,0.8; stroke-dashoffset: 0; stroke: #bbbbbb; stroke-width: 0.5"/>
    </g>
    <g id="text_14">
     <!-- V_th -->
     <g style="fill: #1a1a1a" transform="translate(164.535781 36.238047) scale(0.07 -0.07)">
      <use xlink:href="#Menlo-Regular-56"/>
      <use xlink:href="#Menlo-Regular-5f" transform="translate(60.205078 0)"/>
      <use xlink:href="#Menlo-Regular-74" transform="translate(120.410156 0)"/>
      <use xlink:href="#Menlo-Regular-68" transform="translate(180.615234 0)"/>
     </g>
    </g>
   </g>
  </g>
 </g>
 <defs>
  <clipPath id="p9318527b34">
   <rect x="29.457656" y="14.305078" width="158.235" height="69.12"/>
  </clipPath>
 </defs>
</svg>
