<?xml version="1.0" encoding="utf-8" standalone="no"?>
<!DOCTYPE svg PUBLIC "-//W3C//DTD SVG 1.1//EN"
  "http://www.w3.org/Graphics/SVG/1.1/DTD/svg11.dtd">
<svg xmlns:xlink="http://www.w3.org/1999/xlink" width="274.188047pt" height="148.460625pt" viewBox="0 0 274.188047 148.460625" xmlns="http://www.w3.org/2000/svg" version="1.1">
 <metadata>
  <rdf:RDF xmlns:dc="http://purl.org/dc/elements/1.1/" xmlns:cc="http://creativecommons.org/ns#" xmlns:rdf="http://www.w3.org/1999/02/22-rdf-syntax-ns#">
   <cc:Work>
    <dc:type rdf:resource="http://purl.org/dc/dcmitype/StillImage"/>
    <dc:date>2026-07-03T12:47:06.215406</dc:date>
    <dc:format>image/svg+xml</dc:format>
    <dc:creator>
     <cc:Agent>
      <dc:title>Matplotlib v3.10.8, https://matplotlib.org/</dc:title>
     </cc:Agent>
    </dc:creator>
   </cc:Work>
  </rdf:RDF>
 </metadata>
 <defs>
  <style type="text/css">*{stroke-linejoin: round; stroke-linecap: butt}</style>
 </defs>
 <g id="figure_1">
  <g id="patch_1">
   <path d="M 0 148.460625 
L 274.188047 148.460625 
L 274.188047 0 
L 0 0 
z
" style="fill: #ffffff"/>
  </g>
  <g id="axes_1">
   <g id="patch_2">
    <path d="M 21.341719 124.96125 
L 266.426722 124.96125 
L 266.426722 13.54125 
L 21.341719 13.54125 
z
" style="fill: #ffffff"/>
   </g>
   <g id="matplotlib.axis_1">
    <g id="xtick_1">
     <g id="line2d_1">
      <defs>
       <path id="m35a92be81a" d="M 0 0 
L 0 -3 
" style="stroke: #1a1a1a; stroke-width: 0.8"/>
      </defs>
      <g>
       <use xlink:href="#m35a92be81a" x="21.341719" y="124.96125" style="fill: #1a1a1a; stroke: #1a1a1a; stroke-width: 0.8"/>
      </g>
     </g>
     <g id="text_1">
      <!-- 0 -->
      <g style="fill: #1a1a1a" transform="translate(19.234609 133.799844) scale(0.07 -0.07)">
       <defs>
        <path id="Menlo-Regular-30" d="M 1925 4734 
Q 2672 4734 3055 4125 
Q 3438 3516 3438 2322 
Q 3438 1128 3055 518 
Q 2672 -91 1925 -91 
Q 1178 -91 797 518 
Q 416 1128 416 2322 
Q 416 3516 797 4125 
Q 1178 4734 1925 4734 
z
M 1925 409 
Q 2369 409 2586 881 
Q 2803 1353 2803 2322 
Q 2803 2838 2741 3253 
L 1253 925 
Q 1488 409 1925 409 
z
M 1925 4234 
Q 1484 4234 1267 3762 
Q 1050 3291 1050 2322 
Q 1050 1881 1109 1497 
L 2566 3819 
Q 2328 4234 1925 4234 
z
" transform="scale(0.015625)"/>
       </defs>
       <use xlink:href="#Menlo-Regular-30"/>
      </g>
     </g>
    </g>
    <g id="xtick_2">
     <g id="line2d_2">
      <g>
       <use xlink:href="#m35a92be81a" x="51.977344" y="124.96125" style="fill: #1a1a1a; stroke: #1a1a1a; stroke-width: 0.8"/>
      </g>
     </g>
     <g id="text_2">
      <!-- 50 -->
      <g style="fill: #1a1a1a" transform="translate(47.763125 133.799844) scale(0.07 -0.07)">
       <defs>
        <path id="Menlo-Regular-35" d="M 647 4666 
L 3009 4666 
L 3009 4134 
L 1222 4134 
L 1222 2988 
Q 1356 3038 1492 3061 
Q 1628 3084 1766 3084 
Q 2491 3084 2916 2656 
Q 3341 2228 3341 1497 
Q 3341 759 2895 334 
Q 2450 -91 1678 -91 
Q 1306 -91 998 -41 
Q 691 9 447 109 
L 447 750 
Q 734 594 1025 517 
Q 1316 441 1619 441 
Q 2141 441 2423 716 
Q 2706 991 2706 1497 
Q 2706 1997 2414 2275 
Q 2122 2553 1600 2553 
Q 1347 2553 1106 2495 
Q 866 2438 647 2322 
L 647 4666 
z
" transform="scale(0.015625)"/>
       </defs>
       <use xlink:href="#Menlo-Regular-35"/>
       <use xlink:href="#Menlo-Regular-30" transform="translate(60.205078 0)"/>
      </g>
     </g>
    </g>
    <g id="xtick_3">
     <g id="line2d_3">
      <g>
       <use xlink:href="#m35a92be81a" x="82.612969" y="124.96125" style="fill: #1a1a1a; stroke: #1a1a1a; stroke-width: 0.8"/>
      </g>
     </g>
     <g id="text_3">
      <!-- 100 -->
      <g style="fill: #1a1a1a" transform="translate(76.291641 133.799844) scale(0.07 -0.07)">
       <defs>
        <path id="Menlo-Regular-31" d="M 844 528 
L 1825 528 
L 1825 4053 
L 650 3488 
L 650 4094 
L 1819 4650 
L 2450 4650 
L 2450 528 
L 3419 528 
L 3419 0 
L 844 0 
L 844 528 
z
" transform="scale(0.015625)"/>
       </defs>
       <use xlink:href="#Menlo-Regular-31"/>
       <use xlink:href="#Menlo-Regular-30" transform="translate(60.205078 0)"/>
       <use xlink:href="#Menlo-Regular-30" transform="translate(120.410156 0)"/>
      </g>
     </g>
    </g>
    <g id="xtick_4">
     <g id="line2d_4">
      <g>
       <use xlink:href="#m35a92be81a" x="113.248594" y="124.96125" style="fill: #1a1a1a; stroke: #1a1a1a; stroke-width: 0.8"/>
      </g>
     </g>
     <g id="text_4">
      <!-- 150 -->
      <g style="fill: #1a1a1a" transform="translate(106.927266 133.799844) scale(0.07 -0.07)">
       <use xlink:href="#Menlo-Regular-31"/>
       <use xlink:href="#Menlo-Regular-35" transform="translate(60.205078 0)"/>
       <use xlink:href="#Menlo-Regular-30" transform="translate(120.410156 0)"/>
      </g>
     </g>
    </g>
    <g id="xtick_5">
     <g id="line2d_5">
      <g>
       <use xlink:href="#m35a92be81a" x="143.884219" y="124.96125" style="fill: #1a1a1a; stroke: #1a1a1a; stroke-width: 0.8"/>
      </g>
     </g>
     <g id="text_5">
      <!-- 200 -->
      <g style="fill: #1a1a1a" transform="translate(137.56289 133.799844) scale(0.07 -0.07)">
       <defs>
        <path id="Menlo-Regular-32" d="M 1166 531 
L 3309 531 
L 3309 0 
L 475 0 
L 475 531 
Q 1059 1147 1496 1619 
Q 1934 2091 2100 2284 
Q 2413 2666 2522 2902 
Q 2631 3138 2631 3384 
Q 2631 3775 2401 3997 
Q 2172 4219 1772 4219 
Q 1488 4219 1175 4116 
Q 863 4013 513 3803 
L 513 4441 
Q 834 4594 1145 4672 
Q 1456 4750 1759 4750 
Q 2444 4750 2861 4386 
Q 3278 4022 3278 3431 
Q 3278 3131 3139 2831 
Q 3000 2531 2688 2169 
Q 2513 1966 2180 1606 
Q 1847 1247 1166 531 
z
" transform="scale(0.015625)"/>
       </defs>
       <use xlink:href="#Menlo-Regular-32"/>
       <use xlink:href="#Menlo-Regular-30" transform="translate(60.205078 0)"/>
       <use xlink:href="#Menlo-Regular-30" transform="translate(120.410156 0)"/>
      </g>
     </g>
    </g>
    <g id="xtick_6">
     <g id="line2d_6">
      <g>
       <use xlink:href="#m35a92be81a" x="174.519844" y="124.96125" style="fill: #1a1a1a; stroke: #1a1a1a; stroke-width: 0.8"/>
      </g>
     </g>
     <g id="text_6">
      <!-- 250 -->
      <g style="fill: #1a1a1a" transform="translate(168.198515 133.799844) scale(0.07 -0.07)">
       <use xlink:href="#Menlo-Regular-32"/>
       <use xlink:href="#Menlo-Regular-35" transform="translate(60.205078 0)"/>
       <use xlink:href="#Menlo-Regular-30" transform="translate(120.410156 0)"/>
      </g>
     </g>
    </g>
    <g id="xtick_7">
     <g id="line2d_7">
      <g>
       <use xlink:href="#m35a92be81a" x="205.155469" y="124.96125" style="fill: #1a1a1a; stroke: #1a1a1a; stroke-width: 0.8"/>
      </g>
     </g>
     <g id="text_7">
      <!-- 300 -->
      <g style="fill: #1a1a1a" transform="translate(198.83414 133.799844) scale(0.07 -0.07)">
       <defs>
        <path id="Menlo-Regular-33" d="M 2425 2497 
Q 2884 2375 3128 2064 
Q 3372 1753 3372 1288 
Q 3372 644 2939 276 
Q 2506 -91 1741 -91 
Q 1419 -91 1084 -31 
Q 750 28 428 141 
L 428 769 
Q 747 603 1056 522 
Q 1366 441 1672 441 
Q 2191 441 2469 675 
Q 2747 909 2747 1350 
Q 2747 1756 2469 1995 
Q 2191 2234 1716 2234 
L 1234 2234 
L 1234 2753 
L 1716 2753 
Q 2150 2753 2394 2943 
Q 2638 3134 2638 3475 
Q 2638 3834 2411 4026 
Q 2184 4219 1766 4219 
Q 1488 4219 1191 4156 
Q 894 4094 569 3969 
L 569 4550 
Q 947 4650 1242 4700 
Q 1538 4750 1766 4750 
Q 2447 4750 2855 4408 
Q 3263 4066 3263 3500 
Q 3263 3116 3048 2859 
Q 2834 2603 2425 2497 
z
" transform="scale(0.015625)"/>
       </defs>
       <use xlink:href="#Menlo-Regular-33"/>
       <use xlink:href="#Menlo-Regular-30" transform="translate(60.205078 0)"/>
       <use xlink:href="#Menlo-Regular-30" transform="translate(120.410156 0)"/>
      </g>
     </g>
    </g>
    <g id="xtick_8">
     <g id="line2d_8">
      <g>
       <use xlink:href="#m35a92be81a" x="235.791093" y="124.96125" style="fill: #1a1a1a; stroke: #1a1a1a; stroke-width: 0.8"/>
      </g>
     </g>
     <g id="text_8">
      <!-- 350 -->
      <g style="fill: #1a1a1a" transform="translate(229.469765 133.799844) scale(0.07 -0.07)">
       <use xlink:href="#Menlo-Regular-33"/>
       <use xlink:href="#Menlo-Regular-35" transform="translate(60.205078 0)"/>
       <use xlink:href="#Menlo-Regular-30" transform="translate(120.410156 0)"/>
      </g>
     </g>
    </g>
    <g id="xtick_9">
     <g id="line2d_9">
      <g>
       <use xlink:href="#m35a92be81a" x="266.426718" y="124.96125" style="fill: #1a1a1a; stroke: #1a1a1a; stroke-width: 0.8"/>
      </g>
     </g>
     <g id="text_9">
      <!-- 400 -->
      <g style="fill: #1a1a1a" transform="translate(260.10539 133.799844) scale(0.07 -0.07)">
       <defs>
        <path id="Menlo-Regular-34" d="M 2297 4091 
L 825 1625 
L 2297 1625 
L 2297 4091 
z
M 2194 4666 
L 2925 4666 
L 2925 1625 
L 3547 1625 
L 3547 1113 
L 2925 1113 
L 2925 0 
L 2297 0 
L 2297 1113 
L 319 1113 
L 319 1709 
L 2194 4666 
z
" transform="scale(0.015625)"/>
       </defs>
       <use xlink:href="#Menlo-Regular-34"/>
       <use xlink:href="#Menlo-Regular-30" transform="translate(60.205078 0)"/>
       <use xlink:href="#Menlo-Regular-30" transform="translate(120.410156 0)"/>
      </g>
     </g>
    </g>
    <g id="text_10">
     <!-- time (ms) -->
     <g style="fill: #1a1a1a" transform="translate(122.211095 145.356875) scale(0.08 -0.08)">
      <defs>
       <path id="Menlo-Regular-74" d="M 1919 4494 
L 1919 3500 
L 3225 3500 
L 3225 3053 
L 1919 3053 
L 1919 1153 
Q 1919 766 2066 612 
Q 2213 459 2578 459 
L 3225 459 
L 3225 0 
L 2522 0 
Q 1875 0 1609 259 
Q 1344 519 1344 1153 
L 1344 3053 
L 409 3053 
L 409 3500 
L 1344 3500 
L 1344 4494 
L 1919 4494 
z
" transform="scale(0.015625)"/>
       <path id="Menlo-Regular-69" d="M 988 3488 
L 2459 3488 
L 2459 447 
L 3600 447 
L 3600 0 
L 744 0 
L 744 447 
L 1884 447 
L 1884 3041 
L 988 3041 
L 988 3488 
z
M 1884 4847 
L 2459 4847 
L 2459 4122 
L 1884 4122 
L 1884 4847 
z
" transform="scale(0.015625)"/>
       <path id="Menlo-Regular-6d" d="M 2113 3144 
Q 2219 3369 2383 3476 
Q 2547 3584 2778 3584 
Q 3200 3584 3373 3257 
Q 3547 2931 3547 2028 
L 3547 0 
L 3022 0 
L 3022 2003 
Q 3022 2744 2939 2923 
Q 2856 3103 2638 3103 
Q 2388 3103 2295 2911 
Q 2203 2719 2203 2003 
L 2203 0 
L 1678 0 
L 1678 2003 
Q 1678 2753 1589 2928 
Q 1500 3103 1269 3103 
Q 1041 3103 952 2911 
Q 863 2719 863 2003 
L 863 0 
L 341 0 
L 341 3500 
L 863 3500 
L 863 3200 
Q 966 3388 1120 3486 
Q 1275 3584 1472 3584 
Q 1709 3584 1867 3475 
Q 2025 3366 2113 3144 
z
" transform="scale(0.015625)"/>
       <path id="Menlo-Regular-65" d="M 3500 2038 
L 3500 1756 
L 1009 1756 
L 1009 1738 
Q 984 1022 1282 709 
Q 1581 397 2125 397 
Q 2400 397 2700 484 
Q 3000 572 3341 750 
L 3341 178 
Q 3013 44 2708 -23 
Q 2403 -91 2119 -91 
Q 1303 -91 843 398 
Q 384 888 384 1747 
Q 384 2584 834 3084 
Q 1284 3584 2034 3584 
Q 2703 3584 3089 3131 
Q 3475 2678 3500 2038 
z
M 2925 2206 
Q 2888 2569 2661 2833 
Q 2434 3097 2009 3097 
Q 1594 3097 1325 2822 
Q 1056 2547 1031 2203 
L 2925 2206 
z
" transform="scale(0.015625)"/>
       <path id="Menlo-Regular-20" transform="scale(0.015625)"/>
       <path id="Menlo-Regular-28" d="M 2672 5169 
Q 2256 4456 2051 3748 
Q 1847 3041 1847 2322 
Q 1847 1606 2051 897 
Q 2256 188 2672 -531 
L 2172 -531 
Q 1700 213 1469 917 
Q 1238 1622 1238 2322 
Q 1238 3019 1469 3725 
Q 1700 4431 2172 5169 
L 2672 5169 
z
" transform="scale(0.015625)"/>
       <path id="Menlo-Regular-73" d="M 3041 3378 
L 3041 2816 
Q 2794 2959 2544 3031 
Q 2294 3103 2034 3103 
Q 1644 3103 1451 2976 
Q 1259 2850 1259 2591 
Q 1259 2356 1403 2240 
Q 1547 2125 2119 2016 
L 2350 1972 
Q 2778 1891 2998 1647 
Q 3219 1403 3219 1013 
Q 3219 494 2850 201 
Q 2481 -91 1825 -91 
Q 1566 -91 1281 -36 
Q 997 19 666 128 
L 666 722 
Q 988 556 1281 473 
Q 1575 391 1838 391 
Q 2219 391 2428 545 
Q 2638 700 2638 978 
Q 2638 1378 1872 1531 
L 1847 1538 
L 1631 1581 
Q 1134 1678 906 1908 
Q 678 2138 678 2534 
Q 678 3038 1018 3311 
Q 1359 3584 1991 3584 
Q 2272 3584 2531 3532 
Q 2791 3481 3041 3378 
z
" transform="scale(0.015625)"/>
       <path id="Menlo-Regular-29" d="M 1088 5169 
L 1588 5169 
Q 2059 4431 2290 3725 
Q 2522 3019 2522 2322 
Q 2522 1619 2290 912 
Q 2059 206 1588 -531 
L 1088 -531 
Q 1503 194 1708 903 
Q 1913 1613 1913 2322 
Q 1913 3034 1708 3743 
Q 1503 4453 1088 5169 
z
" transform="scale(0.015625)"/>
      </defs>
      <use xlink:href="#Menlo-Regular-74"/>
      <use xlink:href="#Menlo-Regular-69" transform="translate(60.205078 0)"/>
      <use xlink:href="#Menlo-Regular-6d" transform="translate(120.410156 0)"/>
      <use xlink:href="#Menlo-Regular-65" transform="translate(180.615234 0)"/>
      <use xlink:href="#Menlo-Regular-20" transform="translate(240.820312 0)"/>
      <use xlink:href="#Menlo-Regular-28" transform="translate(301.025391 0)"/>
      <use xlink:href="#Menlo-Regular-6d" transform="translate(361.230469 0)"/>
      <use xlink:href="#Menlo-Regular-73" transform="translate(421.435547 0)"/>
      <use xlink:href="#Menlo-Regular-29" transform="translate(481.640625 0)"/>
     </g>
    </g>
   </g>
   <g id="matplotlib.axis_2">
    <g id="ytick_1">
     <g id="line2d_10">
      <defs>
       <path id="m152db03e42" d="M 0 0 
L 3 0 
" style="stroke: #1a1a1a; stroke-width: 0.8"/>
      </defs>
      <g>
       <use xlink:href="#m152db03e42" x="21.341719" y="119.896705" style="fill: #1a1a1a; stroke: #1a1a1a; stroke-width: 0.8"/>
      </g>
     </g>
     <g id="text_11">
      <!-- 0 -->
      <g style="fill: #1a1a1a" transform="translate(13.6275 122.566001) scale(0.07 -0.07)">
       <use xlink:href="#Menlo-Regular-30"/>
      </g>
     </g>
    </g>
    <g id="ytick_2">
     <g id="line2d_11">
      <g>
       <use xlink:href="#m152db03e42" x="21.341719" y="91.756809" style="fill: #1a1a1a; stroke: #1a1a1a; stroke-width: 0.8"/>
      </g>
     </g>
     <g id="text_12">
      <!-- 2 -->
      <g style="fill: #1a1a1a" transform="translate(13.6275 94.426105) scale(0.07 -0.07)">
       <use xlink:href="#Menlo-Regular-32"/>
      </g>
     </g>
    </g>
    <g id="ytick_3">
     <g id="line2d_12">
      <g>
       <use xlink:href="#m152db03e42" x="21.341719" y="63.616913" style="fill: #1a1a1a; stroke: #1a1a1a; stroke-width: 0.8"/>
      </g>
     </g>
     <g id="text_13">
      <!-- 4 -->
      <g style="fill: #1a1a1a" transform="translate(13.6275 66.286209) scale(0.07 -0.07)">
       <use xlink:href="#Menlo-Regular-34"/>
      </g>
     </g>
    </g>
    <g id="ytick_4">
     <g id="line2d_13">
      <g>
       <use xlink:href="#m152db03e42" x="21.341719" y="35.477017" style="fill: #1a1a1a; stroke: #1a1a1a; stroke-width: 0.8"/>
      </g>
     </g>
     <g id="text_14">
      <!-- 6 -->
      <g style="fill: #1a1a1a" transform="translate(13.6275 38.146314) scale(0.07 -0.07)">
       <defs>
        <path id="Menlo-Regular-36" d="M 3097 4563 
L 3097 3981 
Q 2900 4097 2678 4158 
Q 2456 4219 2216 4219 
Q 1616 4219 1306 3767 
Q 997 3316 997 2438 
Q 1147 2750 1412 2917 
Q 1678 3084 2022 3084 
Q 2697 3084 3067 2670 
Q 3438 2256 3438 1497 
Q 3438 741 3056 325 
Q 2675 -91 1984 -91 
Q 1172 -91 794 492 
Q 416 1075 416 2328 
Q 416 3509 870 4129 
Q 1325 4750 2188 4750 
Q 2419 4750 2650 4701 
Q 2881 4653 3097 4563 
z
M 1972 2591 
Q 1569 2591 1337 2300 
Q 1106 2009 1106 1497 
Q 1106 984 1337 693 
Q 1569 403 1972 403 
Q 2391 403 2603 679 
Q 2816 956 2816 1497 
Q 2816 2041 2603 2316 
Q 2391 2591 1972 2591 
z
" transform="scale(0.015625)"/>
       </defs>
       <use xlink:href="#Menlo-Regular-36"/>
      </g>
     </g>
    </g>
    <g id="text_15">
     <!-- g  [µS] -->
     <g style="fill: #1a1a1a" transform="translate(7.90875 86.108125) rotate(-90) scale(0.08 -0.08)">
      <defs>
       <path id="Menlo-Regular-67" d="M 2681 1778 
Q 2681 2425 2470 2761 
Q 2259 3097 1856 3097 
Q 1434 3097 1212 2761 
Q 991 2425 991 1778 
Q 991 1131 1214 792 
Q 1438 453 1863 453 
Q 2259 453 2470 793 
Q 2681 1134 2681 1778 
z
M 3256 225 
Q 3256 -563 2884 -969 
Q 2513 -1375 1791 -1375 
Q 1553 -1375 1293 -1331 
Q 1034 -1288 775 -1203 
L 775 -634 
Q 1081 -778 1331 -847 
Q 1581 -916 1791 -916 
Q 2256 -916 2468 -662 
Q 2681 -409 2681 141 
L 2681 166 
L 2681 556 
Q 2544 263 2306 119 
Q 2069 -25 1728 -25 
Q 1116 -25 750 465 
Q 384 956 384 1778 
Q 384 2603 750 3093 
Q 1116 3584 1728 3584 
Q 2066 3584 2300 3450 
Q 2534 3316 2681 3034 
L 2681 3488 
L 3256 3488 
L 3256 225 
z
" transform="scale(0.015625)"/>
       <path id="Menlo-Regular-5b" d="M 1759 5175 
L 3084 5175 
L 3084 4728 
L 2334 4728 
L 2334 -84 
L 3084 -84 
L 3084 -531 
L 1759 -531 
L 1759 5175 
z
" transform="scale(0.015625)"/>
       <path id="Menlo-Regular-b5" d="M 609 -1338 
L 609 3500 
L 1184 3500 
L 1184 1325 
Q 1184 881 1371 645 
Q 1559 409 1906 409 
Q 2303 409 2504 675 
Q 2706 941 2706 1459 
L 2706 3500 
L 3284 3500 
L 3284 800 
Q 3284 616 3334 528 
Q 3384 441 3488 441 
Q 3516 441 3561 456 
Q 3606 472 3694 513 
L 3694 50 
Q 3575 -22 3469 -56 
Q 3363 -91 3256 -91 
Q 3063 -91 2945 32 
Q 2828 156 2791 403 
Q 2647 153 2439 31 
Q 2231 -91 1953 -91 
Q 1666 -91 1467 28 
Q 1269 147 1131 397 
L 1131 -1338 
L 609 -1338 
z
" transform="scale(0.015625)"/>
       <path id="Menlo-Regular-53" d="M 3163 4506 
L 3163 3866 
Q 2875 4050 2586 4144 
Q 2297 4238 2003 4238 
Q 1556 4238 1297 4030 
Q 1038 3822 1038 3469 
Q 1038 3159 1208 2996 
Q 1378 2834 1844 2725 
L 2175 2650 
Q 2831 2497 3131 2169 
Q 3431 1841 3431 1275 
Q 3431 609 3018 259 
Q 2606 -91 1819 -91 
Q 1491 -91 1159 -20 
Q 828 50 494 191 
L 494 863 
Q 853 634 1173 528 
Q 1494 422 1819 422 
Q 2297 422 2562 636 
Q 2828 850 2828 1234 
Q 2828 1584 2645 1768 
Q 2463 1953 2009 2053 
L 1672 2131 
Q 1022 2278 728 2575 
Q 434 2872 434 3372 
Q 434 3997 854 4373 
Q 1275 4750 1972 4750 
Q 2241 4750 2537 4689 
Q 2834 4628 3163 4506 
z
" transform="scale(0.015625)"/>
       <path id="Menlo-Regular-5d" d="M 2250 5175 
L 2250 -531 
L 925 -531 
L 925 -84 
L 1675 -84 
L 1675 4728 
L 925 4728 
L 925 5175 
L 2250 5175 
z
" transform="scale(0.015625)"/>
      </defs>
      <use xlink:href="#Menlo-Regular-67"/>
      <use xlink:href="#Menlo-Regular-20" transform="translate(60.205078 0)"/>
      <use xlink:href="#Menlo-Regular-20" transform="translate(120.410156 0)"/>
      <use xlink:href="#Menlo-Regular-5b" transform="translate(180.615234 0)"/>
      <use xlink:href="#Menlo-Regular-b5" transform="translate(240.820312 0)"/>
      <use xlink:href="#Menlo-Regular-53" transform="translate(301.025391 0)"/>
      <use xlink:href="#Menlo-Regular-5d" transform="translate(361.230469 0)"/>
     </g>
    </g>
   </g>
   <g id="line2d_14">
    <path d="M 21.341719 118.842595 
L 21.586804 119.033673 
L 21.770618 118.493529 
L 22.138245 118.857206 
L 22.199516 118.132538 
L 22.260788 118.218577 
L 22.689686 118.714148 
L 22.750958 118.027346 
L 22.812229 118.118516 
L 22.996043 118.366203 
L 23.118585 117.445048 
L 23.179856 117.564617 
L 23.241128 117.138646 
L 23.302399 117.273158 
L 23.486213 117.638597 
L 23.547484 117.21232 
L 23.608755 117.343239 
L 23.85384 117.806103 
L 23.915111 117.47192 
L 23.976383 117.590179 
L 24.098925 117.809673 
L 24.160196 117.651841 
L 24.221468 117.761325 
L 24.711638 118.465316 
L 25.079265 115.99167 
L 25.140536 116.182121 
L 25.263079 116.53561 
L 25.446893 116.188007 
L 25.569435 116.540936 
L 25.753249 115.857974 
L 25.81452 116.054945 
L 26.120876 116.904739 
L 26.182148 116.247743 
L 26.243419 116.425705 
L 26.733589 117.570023 
L 26.79486 117.143788 
L 26.856131 117.27805 
L 26.978674 117.527247 
L 27.162488 116.249289 
L 27.28503 116.596386 
L 27.346301 116.342778 
L 27.407573 116.516105 
L 27.591386 116.986995 
L 27.652658 116.795405 
L 27.713929 116.946657 
L 28.326641 118.10741 
L 28.449184 118.277684 
L 28.510455 118.127261 
L 28.571726 118.213558 
L 28.694269 118.37373 
L 28.878083 117.721512 
L 29.061896 118.024499 
L 29.368253 116.418844 
L 29.429524 116.086933 
L 29.490795 116.272737 
L 30.042236 117.58596 
L 30.103508 117.066834 
L 30.164779 117.204848 
L 30.22605 117.336131 
L 30.287321 116.666459 
L 30.348593 116.823999 
L 30.961305 118.033014 
L 31.145119 118.292611 
L 31.390204 116.790355 
L 31.451475 116.941853 
L 31.512746 117.085963 
L 31.574018 116.827135 
L 31.635289 116.97684 
L 31.69656 117.119243 
L 31.819103 115.971898 
L 32.064188 116.683344 
L 32.125459 116.580932 
L 32.248001 116.896469 
L 32.309273 116.506386 
L 32.370544 116.671734 
L 32.431815 116.478466 
L 32.493086 116.645175 
L 32.6769 117.098087 
L 32.738171 116.684561 
L 32.799443 116.841219 
L 32.921985 117.131987 
L 32.983256 116.851297 
L 33.044528 116.999823 
L 33.105799 117.141105 
L 33.350884 116.389823 
L 33.534698 116.878303 
L 33.718511 116.425717 
L 33.841054 116.756025 
L 33.902325 115.996445 
L 33.963596 116.186663 
L 34.024868 116.367603 
L 34.14741 115.883201 
L 34.208681 116.078942 
L 34.515038 116.923428 
L 34.576309 116.183644 
L 34.63758 116.364732 
L 34.698851 116.266409 
L 35.250293 117.581925 
L 35.311564 117.694818 
L 35.495378 117.331505 
L 36.10809 118.340832 
L 36.291904 118.557553 
L 36.475718 118.027001 
L 37.08843 118.762672 
L 37.456058 119.056592 
L 37.5786 117.982721 
L 37.701143 118.16486 
L 37.762414 118.249323 
L 37.823685 117.888803 
L 37.884956 117.986729 
L 37.946228 118.07988 
L 38.007499 117.644594 
L 38.06877 117.754431 
L 38.252584 118.052832 
L 38.313855 117.728193 
L 38.375126 117.833952 
L 38.742754 118.36858 
L 38.804025 117.569541 
L 38.865296 117.683038 
L 38.987839 117.893696 
L 39.171653 117.329749 
L 39.661823 118.176022 
L 39.845637 117.443524 
L 40.151993 117.986165 
L 40.335807 117.355959 
L 40.397078 117.479872 
L 40.458349 116.851619 
L 40.51962 117.000129 
L 40.703434 117.403599 
L 40.764705 117.112354 
L 40.825977 117.248149 
L 40.887248 117.37732 
L 40.948519 116.963786 
L 41.00979 117.106826 
L 41.316147 117.723945 
L 41.49996 117.067037 
L 41.683774 117.461187 
L 41.745045 116.501358 
L 41.806317 116.666951 
L 42.235215 117.620735 
L 42.357758 117.212017 
L 42.419029 117.34295 
L 42.664114 115.969148 
L 42.725385 116.160697 
L 42.786657 116.342904 
L 42.97047 115.464835 
L 43.031742 115.68098 
L 43.093013 115.886583 
L 43.154284 115.7041 
L 43.338098 115.408332 
L 43.399369 115.186369 
L 43.583183 115.84248 
L 43.644454 115.214733 
L 43.705725 115.443075 
L 44.012082 116.428214 
L 44.073353 116.047359 
L 44.134624 116.235093 
L 44.195895 116.413672 
L 44.318438 115.461714 
L 44.44098 115.883758 
L 44.563523 115.087013 
L 44.747337 115.756964 
L 44.808608 115.403004 
L 44.869879 115.622164 
L 44.992422 116.02894 
L 45.053693 115.826472 
L 45.176235 116.213806 
L 45.237507 116.033585 
L 45.298778 116.221991 
L 45.482592 115.868938 
L 45.850219 116.912861 
L 45.91149 116.55034 
L 45.972762 116.713544 
L 46.034033 116.868788 
L 46.095304 116.644256 
L 46.156575 116.80288 
L 46.524203 117.604742 
L 46.646745 116.510456 
L 46.708017 116.675605 
L 46.830559 116.277985 
L 47.136915 116.831951 
L 47.259458 117.123601 
L 47.382 116.658737 
L 47.627085 117.245681 
L 47.688357 116.957176 
L 47.749628 117.100539 
L 47.87217 117.366629 
L 47.994713 116.741226 
L 48.055984 116.895121 
L 48.668697 118.076151 
L 48.729968 118.164941 
L 48.913782 116.541708 
L 48.975053 116.705333 
L 49.158867 116.080374 
L 49.281409 116.443546 
L 49.34268 116.328941 
L 49.526494 115.664808 
L 49.587765 115.8712 
L 49.771579 116.43192 
L 49.894122 115.520572 
L 49.955393 115.733998 
L 50.016664 115.937016 
L 50.139207 115.344584 
L 50.261749 115.777775 
L 50.32302 115.560861 
L 50.690648 116.472076 
L 51.058275 117.17157 
L 51.242089 117.551159 
L 51.487174 115.459065 
L 51.548445 115.175634 
L 51.609717 115.405883 
L 51.732259 115.833241 
L 51.916073 114.809671 
L 52.222429 115.601463 
L 52.406243 115.027794 
L 52.528785 115.491132 
L 52.77387 114.43037 
L 52.835142 114.696965 
L 53.018955 115.202698 
L 53.141498 114.702844 
L 53.26404 115.197105 
L 53.325312 114.035413 
L 53.386583 114.321271 
L 53.815482 115.967762 
L 53.999295 115.253781 
L 54.550737 116.936245 
L 54.612008 117.080628 
L 54.673279 116.764938 
L 54.73455 116.917675 
L 54.795822 117.062964 
L 54.857093 116.57967 
L 54.918364 116.741443 
L 55.347263 117.673229 
L 55.531077 117.140075 
L 55.653619 117.402402 
L 55.71489 117.034812 
L 55.776162 117.174388 
L 56.388874 118.245536 
L 56.511417 117.716281 
L 56.572688 117.822622 
L 56.633959 117.094159 
L 56.69523 117.230841 
L 56.817773 117.484531 
L 56.879044 117.117541 
L 56.940315 117.253083 
L 57.001587 117.382013 
L 57.124129 116.177022 
L 57.553028 117.275488 
L 57.614299 116.938382 
L 57.67557 117.082661 
L 57.736842 117.219904 
L 57.981927 116.606786 
L 58.104469 116.919863 
L 58.16574 116.584768 
L 58.227012 116.746293 
L 58.410826 117.185119 
L 58.594639 116.369144 
L 58.655911 116.541185 
L 58.717182 116.292 
L 58.778453 116.467804 
L 58.962267 116.945422 
L 59.084809 116.11186 
L 59.146081 116.296449 
L 59.697522 117.601079 
L 59.820064 117.819537 
L 59.942607 117.076303 
L 60.003878 117.213856 
L 60.065149 117.3447 
L 60.187692 116.303083 
L 60.248963 116.478346 
L 60.371506 116.803646 
L 60.494048 116.202744 
L 60.555319 116.3829 
L 60.677862 116.717283 
L 60.800404 116.191361 
L 61.229303 117.285592 
L 61.290574 116.96138 
L 61.351846 117.104537 
L 61.413117 117.240713 
L 61.474388 116.498206 
L 61.535659 116.663953 
L 61.658202 116.97159 
L 61.780744 116.46653 
L 61.842016 116.633821 
L 61.903287 116.792954 
L 62.148372 115.928613 
L 62.393457 116.440015 
L 62.515999 115.695756 
L 62.577271 115.900639 
L 62.699813 116.280915 
L 62.761084 115.992314 
L 62.822356 116.182734 
L 62.944898 116.536164 
L 63.067441 116.183535 
L 63.251254 116.70075 
L 63.312526 116.438822 
L 63.373797 116.607465 
L 63.496339 116.920477 
L 63.557611 116.695719 
L 63.618882 116.851833 
L 63.925238 117.525356 
L 63.986509 116.890284 
L 64.047781 117.036909 
L 64.170323 117.309055 
L 64.231594 116.536109 
L 64.292866 116.700007 
L 64.721764 117.644029 
L 64.783036 117.355066 
L 64.844307 117.479023 
L 64.966849 117.709096 
L 65.089392 117.124576 
L 65.150663 117.259774 
L 65.457019 117.843061 
L 65.518291 116.937398 
L 65.579562 117.081725 
L 66.069732 118.009767 
L 66.131003 117.637277 
L 66.192274 117.74747 
L 66.314817 117.951997 
L 66.376088 117.650932 
L 66.437359 117.76046 
L 66.621173 118.058021 
L 66.743716 117.052293 
L 66.866258 117.322975 
L 67.111343 117.789512 
L 67.172614 117.451417 
L 67.233886 117.570675 
L 67.417699 117.894672 
L 67.540242 117.40779 
L 67.662784 117.644642 
L 67.724056 117.305773 
L 67.785327 117.432134 
L 68.214226 118.159951 
L 68.275497 117.874743 
L 68.459311 116.17127 
L 68.826938 117.136834 
L 68.888209 116.818402 
L 68.949481 116.968532 
L 69.439651 117.933891 
L 69.500922 117.663021 
L 69.562193 117.771959 
L 69.746007 118.067919 
L 69.807278 117.652246 
L 69.868549 117.761709 
L 69.929821 117.865834 
L 69.991092 117.735127 
L 70.052363 117.840548 
L 70.174906 116.941927 
L 70.236177 117.086033 
L 70.358719 116.693569 
L 70.419991 116.849788 
L 70.603804 117.274199 
L 70.665076 117.043859 
L 70.726347 117.182994 
L 70.787618 117.08596 
L 70.848889 117.223041 
L 70.910161 116.958514 
L 70.971432 117.101811 
L 71.032703 117.238119 
L 71.093974 116.910667 
L 71.155246 117.056298 
L 71.216517 117.194826 
L 71.400331 116.34876 
L 71.461602 116.521795 
L 71.522873 116.686391 
L 71.584144 116.292944 
L 71.645416 116.468702 
L 71.706687 116.635887 
L 71.767958 116.425008 
L 71.829229 116.594325 
L 71.890501 116.755384 
L 72.074314 116.294493 
L 72.135586 116.210557 
L 72.196857 115.446177 
L 72.258128 115.663231 
L 72.319399 115.319685 
L 72.380671 115.542908 
L 72.625756 116.332118 
L 72.687027 116.030404 
L 72.748298 116.218965 
L 72.932112 116.484289 
L 73.238468 114.864387 
L 73.299739 115.109816 
L 73.361011 115.343275 
L 73.422282 115.06382 
L 73.483553 115.299522 
L 74.034994 116.965411 
L 74.096266 117.108372 
L 74.280079 116.394701 
L 74.402622 116.72796 
L 74.463893 116.397869 
L 74.525164 116.568509 
L 74.831521 115.496794 
L 74.892792 115.71138 
L 75.015334 116.109666 
L 75.076606 115.941536 
L 75.137877 115.723505 
L 75.382962 116.479977 
L 75.505504 115.87877 
L 75.566776 116.074727 
L 75.750589 116.360606 
L 75.811861 116.273934 
L 76.302031 117.468288 
L 76.363302 117.179469 
L 76.424573 116.254604 
L 76.485844 116.432231 
L 76.547116 116.601195 
L 76.73093 115.793845 
L 77.159828 117.005467 
L 77.404913 115.723724 
L 77.466185 115.927242 
L 77.649998 116.480156 
L 77.71127 116.235856 
L 77.772541 116.414398 
L 77.895083 116.745783 
L 77.956355 116.394592 
L 78.017626 116.565392 
L 78.385253 117.428806 
L 78.507796 116.951216 
L 78.69161 117.361499 
L 78.752881 116.30287 
L 78.814152 116.478143 
L 78.875423 116.246041 
L 78.936695 116.424086 
L 78.997966 116.593448 
L 79.059237 115.879641 
L 79.120508 116.075555 
L 79.488136 117.065927 
L 79.549407 116.738941 
L 79.610678 116.892947 
L 79.794492 117.311346 
L 79.978306 116.12873 
L 80.223391 116.811748 
L 80.345933 115.742516 
L 80.468476 115.8109 
L 81.019917 117.29148 
L 81.510087 118.15037 
L 81.571358 117.887344 
L 81.63263 117.985342 
L 81.755172 118.167232 
L 81.816443 117.348575 
L 81.877715 117.472849 
L 81.938986 117.22786 
L 82.000257 117.358021 
L 82.184071 117.711639 
L 82.245342 117.362436 
L 82.306613 117.486034 
L 82.367885 117.603604 
L 82.429156 116.996298 
L 82.490427 117.137753 
L 82.674241 116.801534 
L 82.858055 117.232666 
L 82.919326 116.48995 
L 82.980597 116.656099 
L 83.532038 117.830403 
L 83.59331 117.701794 
L 83.777123 116.538769 
L 83.899666 116.858319 
L 84.022208 116.428006 
L 84.08348 116.597176 
L 84.389836 115.652094 
L 84.880006 117.051457 
L 85.002548 116.586717 
L 85.06382 116.748147 
L 85.247633 117.186716 
L 85.308905 116.468911 
L 85.370176 116.636087 
L 85.431447 116.461607 
L 85.982888 117.706389 
L 86.105431 117.914825 
L 86.350516 117.042938 
L 86.595601 117.560238 
L 86.656872 117.258661 
L 86.718143 117.38732 
L 86.779415 117.509704 
L 86.901957 116.954265 
L 86.963228 117.097769 
L 87.392127 117.924328 
L 87.453398 117.790767 
L 87.51467 117.893475 
L 87.759755 118.256599 
L 87.943568 117.115163 
L 88.00484 116.854911 
L 88.066111 117.003261 
L 88.372467 117.435734 
L 88.556281 116.420842 
L 88.617552 116.590361 
L 88.923908 117.321722 
L 88.98518 117.217922 
L 89.168993 117.591055 
L 89.230265 117.247733 
L 89.291536 117.376924 
L 89.414078 117.616713 
L 89.659163 116.042897 
L 89.720435 116.230849 
L 89.842977 116.579701 
L 89.904248 116.330545 
L 89.96552 116.504469 
L 90.026791 116.66991 
L 90.149333 116.195182 
L 90.210605 116.375707 
L 90.333147 116.710774 
L 90.394418 116.496243 
L 90.45569 116.662086 
L 90.639503 117.112642 
L 90.700775 116.692565 
L 90.762046 116.848832 
L 90.884588 117.138876 
L 90.94586 116.860542 
L 91.007131 117.008617 
L 91.068402 117.149471 
L 91.129673 116.877776 
L 91.190945 117.025011 
L 91.43603 117.545561 
L 91.497301 117.252973 
L 91.558572 117.381909 
L 91.681115 117.621223 
L 91.742386 117.27643 
L 91.803657 117.404222 
L 91.864928 117.525782 
L 91.9262 116.732903 
L 91.987471 116.887203 
L 92.048742 117.033978 
L 92.110013 116.716918 
L 92.171285 116.871998 
L 92.783997 118.062127 
L 92.845268 118.1516 
L 93.090353 117.119772 
L 93.457981 117.839502 
L 93.641795 116.585375 
L 93.703066 116.746871 
L 93.948151 117.317838 
L 94.009422 117.030776 
L 94.070693 117.170549 
L 94.131965 117.303505 
L 94.254507 116.782813 
L 94.315778 116.934679 
L 94.438321 117.216553 
L 94.499592 116.412033 
L 94.560863 116.581982 
L 94.622135 116.743643 
L 94.805948 116.49596 
L 94.989762 116.969656 
L 95.051034 116.644575 
L 95.112305 116.803183 
L 95.479932 117.604967 
L 95.541204 117.282366 
L 95.602475 117.409869 
L 95.970102 118.054411 
L 96.092645 117.082654 
L 96.215187 117.350446 
L 96.33773 117.592754 
L 96.399001 117.422102 
L 96.460272 117.542789 
L 96.521544 117.657591 
L 96.582815 117.286516 
L 96.644086 117.413817 
L 96.705357 117.534908 
L 96.766629 117.42034 
L 96.8279 117.126547 
L 96.889171 117.261649 
L 97.072985 117.628691 
L 97.256799 116.372438 
L 97.31807 116.544318 
L 97.379341 116.707816 
L 97.563155 116.277565 
L 97.685697 116.621971 
L 97.746969 116.225824 
L 97.80824 116.404855 
L 97.869511 116.241656 
L 98.420952 117.566142 
L 98.482224 117.679805 
L 98.666037 117.333969 
L 98.78858 117.577846 
L 98.849851 117.43132 
L 98.911122 117.551558 
L 98.972394 117.665932 
L 99.217479 116.798009 
L 99.340021 117.092889 
L 99.401292 116.87908 
L 99.462564 117.026252 
L 99.523835 117.166245 
L 99.707649 116.680766 
L 99.830191 116.986803 
L 100.014005 116.639471 
L 100.626717 117.921092 
L 100.810531 118.196279 
L 100.871802 117.86657 
L 100.933074 117.965581 
L 100.994345 118.059763 
L 101.055616 117.713453 
L 101.116887 117.819932 
L 101.7296 118.637078 
L 101.913414 117.995853 
L 102.464855 118.684668 
L 102.526126 118.48465 
L 102.587397 118.553517 
L 102.70994 118.681338 
L 102.771211 118.283935 
L 102.832482 118.362591 
L 103.077567 118.640678 
L 103.261381 117.408776 
L 103.322652 117.530114 
L 103.69028 118.143491 
L 103.751551 117.69259 
L 103.812822 117.800086 
L 103.874094 117.902339 
L 104.057907 117.527779 
L 104.302992 117.957192 
L 104.486806 117.505036 
L 104.548077 117.621679 
L 104.731891 117.077035 
L 104.854434 117.345362 
L 104.915705 117.058865 
L 104.976976 117.197268 
L 105.099519 117.454153 
L 105.16079 117.246339 
L 105.222061 117.375599 
L 105.344604 117.615514 
L 105.405875 117.376216 
L 105.467146 117.499142 
L 106.079859 118.442509 
L 106.324944 117.317926 
L 106.753842 118.079469 
L 106.815114 117.612239 
L 106.876385 117.723654 
L 107.489097 118.578683 
L 107.550369 118.642963 
L 107.672911 118.099347 
L 107.795454 118.270389 
L 108.040539 117.400273 
L 108.408166 118.047302 
L 108.469437 117.746398 
L 108.530709 117.851269 
L 108.59198 117.951026 
L 109.08215 116.016443 
L 109.327235 116.719814 
L 109.388506 116.253255 
L 109.449777 116.430948 
L 109.694862 115.705799 
L 110.06249 116.792005 
L 110.123761 116.537744 
L 110.185032 116.701562 
L 110.613931 117.645126 
L 110.797745 116.556445 
L 111.287915 117.657661 
L 111.349186 117.37576 
L 111.410457 117.498707 
L 111.533 117.726907 
L 111.655542 117.184103 
L 111.716814 117.316398 
L 111.778085 117.442241 
L 111.839356 117.332192 
L 111.900627 116.681822 
L 111.961899 116.838614 
L 112.145712 117.264581 
L 112.206984 116.891392 
L 112.268255 117.037963 
L 112.452069 117.436163 
L 112.51334 117.222663 
L 112.574611 117.353078 
L 113.126052 118.274816 
L 113.371137 117.358143 
L 113.616223 117.818306 
L 113.677494 117.419814 
L 113.738765 117.540613 
L 113.922579 117.868798 
L 114.045121 117.002165 
L 114.106393 116.123903 
L 114.167664 116.307905 
L 114.228935 116.070293 
L 114.290206 116.256909 
L 114.535291 116.916692 
L 114.596563 116.646502 
L 114.657834 116.805016 
L 114.841648 117.235663 
L 114.902919 117.012619 
L 114.96419 117.153277 
L 115.025461 117.287075 
L 115.209275 116.94845 
L 115.270546 117.092238 
L 115.393089 115.996288 
L 115.515631 116.367461 
L 115.699445 115.93435 
L 116.250886 117.370195 
L 116.312158 117.493414 
L 116.4347 116.938262 
L 116.495971 117.082547 
L 117.108684 118.189831 
L 117.169955 117.838706 
L 117.231226 117.939076 
L 117.598854 118.446457 
L 117.721396 117.773288 
L 117.782668 117.876848 
L 117.843939 117.975358 
L 117.90521 117.579825 
L 117.966481 117.69282 
L 118.150295 117.999804 
L 118.334109 116.780809 
L 118.39538 116.311275 
L 118.456651 116.486138 
L 118.640465 116.961203 
L 118.701736 116.833789 
L 118.763008 116.983169 
L 118.824279 116.294828 
L 118.88555 116.470494 
L 119.069364 115.200035 
L 119.130635 115.429094 
L 119.436991 116.17037 
L 119.620805 115.051015 
L 119.86589 115.57585 
L 120.294789 116.672916 
L 120.35606 116.830142 
L 120.417331 116.515183 
L 120.478603 116.680102 
L 120.539874 116.836977 
L 120.723688 116.548947 
L 120.84623 116.867528 
L 120.907501 116.580893 
L 120.968773 116.742607 
L 121.458943 117.782449 
L 121.642756 117.384761 
L 121.704028 117.50727 
L 121.887841 117.840099 
L 122.071655 117.305037 
L 122.132926 117.431434 
L 122.255469 116.163614 
L 122.378011 116.518865 
L 122.439283 116.683604 
L 122.500554 116.429381 
L 122.561825 116.598484 
L 123.051995 117.685841 
L 123.113266 117.398742 
L 123.174538 117.520569 
L 123.480894 118.046168 
L 123.542165 117.677972 
L 123.603436 116.43354 
L 123.664708 116.602441 
L 123.725979 116.763104 
L 123.848521 116.169789 
L 123.909793 116.351553 
L 124.032335 116.688918 
L 124.093606 116.432725 
L 124.154878 116.601665 
L 124.522505 117.455679 
L 124.706319 116.996147 
L 125.073946 117.747919 
L 125.441574 116.100832 
L 125.502845 116.285958 
L 125.625388 116.629566 
L 125.74793 115.895001 
L 125.931744 116.452406 
L 125.993015 116.160578 
L 126.054286 116.342791 
L 126.299371 116.987006 
L 126.360643 116.721659 
L 126.421914 116.876508 
L 126.973355 117.970942 
L 127.034626 117.692657 
L 127.095898 117.80015 
L 127.463525 118.343538 
L 127.524796 118.085789 
L 127.70861 117.061025 
L 127.831153 117.330876 
L 127.892424 116.646762 
L 127.953695 116.805264 
L 128.505136 117.925514 
L 128.566408 117.572948 
L 128.627679 117.686279 
L 128.995306 118.259181 
L 129.17912 117.196231 
L 129.240391 117.327934 
L 129.424205 117.685743 
L 129.791833 116.275147 
L 129.853104 116.056849 
L 129.914375 116.244121 
L 129.975646 116.422259 
L 130.15946 115.197769 
L 130.465816 116.237169 
L 130.588359 115.899139 
L 130.955986 116.717039 
L 131.262343 117.420378 
L 131.323614 117.065589 
L 131.384885 117.203664 
L 131.691241 117.799362 
L 131.875055 117.101874 
L 132.242683 117.826243 
L 132.303954 117.592024 
L 132.365225 117.704424 
L 132.426497 117.811343 
L 132.61031 117.404146 
L 132.977938 118.050171 
L 133.039209 117.640371 
L 133.10048 117.750414 
L 133.713193 118.594913 
L 134.142092 118.979347 
L 134.203363 118.74107 
L 134.264634 118.797431 
L 134.448448 118.950551 
L 134.632262 118.125982 
L 134.693533 118.212342 
L 134.754804 117.898579 
L 134.816075 117.996029 
L 134.877347 118.088726 
L 135.122432 116.804151 
L 135.183703 116.954977 
L 135.428788 116.290321 
L 135.490059 116.466207 
L 135.55133 116.077656 
L 135.612602 116.263913 
L 135.735144 115.928757 
L 135.796415 115.674568 
L 135.857687 115.880484 
L 136.286585 117.066521 
L 136.715484 116.303519 
L 137.02184 117.098328 
L 137.205654 116.68841 
L 137.389468 117.135299 
L 137.450739 116.897769 
L 137.51201 117.044029 
L 138.063452 118.077758 
L 138.124723 117.690908 
L 138.185994 117.798486 
L 138.308537 117.998158 
L 138.49235 117.440091 
L 138.553622 117.559901 
L 138.737435 117.114244 
L 139.105063 117.835407 
L 139.227605 116.873841 
L 139.288877 117.021268 
L 139.350148 117.161504 
L 139.411419 116.961403 
L 139.47269 117.10456 
L 139.595233 117.370267 
L 139.779047 116.860179 
L 139.901589 117.149142 
L 140.085403 116.661808 
L 140.146674 116.819576 
L 140.269217 116.542251 
L 140.636844 117.223557 
L 140.9432 117.814855 
L 141.065743 117.14518 
L 141.127014 117.279373 
L 141.617184 118.142254 
L 141.678455 117.776262 
L 141.739727 117.879677 
L 141.984812 118.245302 
L 142.046083 117.992341 
L 142.107354 118.085217 
L 142.720067 118.797982 
L 142.781338 118.851567 
L 143.087694 117.764532 
L 143.271508 118.061527 
L 143.332779 117.8919 
L 143.39405 117.989675 
L 143.455322 118.082682 
L 143.516593 117.807951 
L 143.577864 117.909821 
L 143.639135 117.777339 
L 143.700407 117.880702 
L 143.761678 117.979023 
L 143.822949 117.536144 
L 143.88422 117.65127 
L 143.945492 117.760781 
L 144.068034 117.296207 
L 144.129305 117.423035 
L 144.190577 117.543677 
L 144.251848 116.75703 
L 144.313119 116.910154 
L 144.435662 117.194361 
L 144.496933 116.956246 
L 144.558204 117.099653 
L 144.742018 117.48926 
L 144.987103 116.09068 
L 145.048374 116.276302 
L 145.35473 117.077132 
L 145.538544 116.517377 
L 145.722358 116.98809 
L 145.906172 116.111204 
L 145.967443 116.295825 
L 146.028714 116.099237 
L 146.212528 116.628193 
L 146.273799 116.351458 
L 146.33507 116.524361 
L 146.641427 117.037431 
L 146.702698 116.765952 
L 146.763969 116.91864 
L 146.947783 117.33346 
L 147.131597 116.773873 
L 147.192868 116.926175 
L 147.254139 116.614373 
L 147.31541 116.774454 
L 147.560495 117.340422 
L 147.621767 117.004038 
L 147.683038 117.145115 
L 147.80558 117.406963 
L 147.866852 117.023526 
L 147.928123 117.163653 
L 148.050665 117.423737 
L 148.111937 117.314962 
L 148.29575 116.906153 
L 148.418293 117.190742 
L 148.602107 116.3649 
L 148.908463 117.146132 
L 149.031005 116.801686 
L 149.153548 117.096216 
L 149.214819 116.827119 
L 149.27609 116.976824 
L 149.398633 117.254687 
L 149.521175 116.670799 
L 149.76626 117.255556 
L 149.827532 116.882838 
L 149.888803 117.029826 
L 150.317702 117.876449 
L 150.501516 116.722905 
L 150.562787 116.877693 
L 150.624058 116.565408 
L 150.685329 116.727877 
L 151.175499 117.772576 
L 151.236771 116.627176 
L 151.298042 116.786632 
L 151.359313 116.531058 
L 151.420584 116.695202 
L 151.481856 116.851341 
L 151.604398 116.257437 
L 151.665669 116.434926 
L 152.217111 117.689376 
L 152.278382 117.797029 
L 152.400924 117.34029 
L 152.462196 117.464968 
L 152.523467 117.223727 
L 152.584738 117.35409 
L 152.646009 117.478094 
L 152.707281 116.723411 
L 152.768552 116.878175 
L 152.952366 117.298632 
L 153.013637 116.920478 
L 153.074908 117.06563 
L 153.197451 117.335042 
L 153.381264 116.12439 
L 153.565078 116.649843 
L 153.626349 116.474646 
L 154.116519 117.602829 
L 154.300333 117.221756 
L 154.729232 118.0117 
L 154.790503 117.689066 
L 154.851774 117.796734 
L 155.219402 118.341008 
L 155.464487 116.355357 
L 155.648301 116.848638 
L 155.770843 116.361968 
L 155.832114 116.534359 
L 155.893386 116.142485 
L 155.954657 116.32558 
L 156.138471 116.823009 
L 156.199742 116.537016 
L 156.261013 116.70087 
L 156.322284 116.856733 
L 156.506098 116.525921 
L 156.812454 117.271536 
L 156.873726 116.940043 
L 156.934997 117.084241 
L 157.425167 118.011453 
L 157.486438 117.196988 
L 157.547709 117.328655 
L 157.608981 117.09566 
L 157.670252 117.232268 
L 157.915337 116.681356 
L 158.037879 116.987337 
L 158.099151 116.730401 
L 158.160422 116.884823 
L 158.282964 117.171442 
L 158.344236 116.970806 
L 158.405507 117.113503 
L 158.773134 117.834858 
L 158.895677 116.773068 
L 159.202033 117.464014 
L 159.385847 116.650152 
L 159.447118 116.808488 
L 159.876017 117.720475 
L 159.937288 117.325051 
L 159.998559 117.450472 
L 160.121102 117.683262 
L 160.243644 117.052033 
L 160.304916 117.190769 
L 160.427458 117.448273 
L 160.488729 117.16043 
L 160.550001 117.293879 
L 160.611272 117.42082 
L 160.672543 117.033525 
L 160.733814 117.173164 
L 160.917628 117.552531 
L 161.040171 116.858298 
L 161.101442 117.006483 
L 161.714154 118.143696 
L 162.143053 118.66138 
L 162.204324 117.536215 
L 162.265596 117.651338 
L 162.755766 118.39159 
L 163.000851 117.52197 
L 163.123393 117.747956 
L 163.368478 117.094125 
L 163.736106 117.820502 
L 163.797377 117.594821 
L 163.858648 117.707085 
L 164.103733 118.103996 
L 164.165004 117.962044 
L 164.226276 117.22269 
L 164.287547 117.353103 
L 164.471361 117.707407 
L 164.593903 117.138402 
L 164.655174 117.272926 
L 164.961531 117.853304 
L 165.022802 117.493154 
L 165.084073 117.610376 
L 165.451701 118.202951 
L 165.512972 117.599182 
L 165.574243 117.711234 
L 165.819328 118.107392 
L 166.003142 117.388724 
L 166.125684 117.62739 
L 166.186956 117.508311 
L 166.432041 116.883676 
L 166.493312 117.030623 
L 166.554583 117.170403 
L 166.615854 116.747509 
L 166.677126 116.901097 
L 166.738397 116.713693 
L 166.799668 116.86893 
L 167.167296 117.653674 
L 167.228567 117.367158 
L 167.289838 117.490525 
L 167.412381 117.719504 
L 167.473652 117.350126 
L 167.534923 117.474324 
L 167.841279 118.010153 
L 167.963822 117.225627 
L 168.025093 117.355897 
L 168.270178 117.816467 
L 168.515263 117.146628 
L 168.576534 117.28075 
L 168.699077 116.757574 
L 168.82162 117.056301 
L 169.005433 116.645754 
L 169.434332 117.605798 
L 169.679417 116.578356 
L 169.740688 116.740194 
L 169.80196 116.894139 
L 169.985773 116.529476 
L 170.047045 116.693698 
L 170.108316 116.454001 
L 170.169587 116.621904 
L 170.29213 116.933542 
L 170.414672 116.307454 
L 170.475943 116.482503 
L 170.537215 116.649016 
L 170.659757 115.997661 
L 170.721028 116.18782 
L 170.843571 116.540767 
L 170.904842 116.25288 
L 170.966113 116.430591 
L 171.088656 116.760436 
L 171.211198 116.21135 
L 171.27247 116.391087 
L 171.395012 116.031849 
L 171.701368 116.886752 
L 171.823911 115.927327 
L 171.885182 116.120916 
L 171.946453 115.86077 
L 172.007725 116.057605 
L 172.130267 115.852332 
L 172.375352 116.585452 
L 172.559166 115.91584 
L 172.620437 116.109989 
L 173.110607 117.358393 
L 173.23315 116.789412 
L 173.294421 116.940957 
L 173.355692 117.08511 
L 173.416963 116.888735 
L 173.478235 117.035436 
L 173.662048 117.433987 
L 173.845862 116.383344 
L 173.907133 116.554692 
L 174.029676 116.872727 
L 174.090947 116.12912 
L 174.152218 116.312867 
L 174.21349 116.487653 
L 174.274761 116.217772 
L 174.336032 116.397195 
L 174.519846 116.884649 
L 174.581117 116.566503 
L 174.642388 116.728919 
L 175.010016 117.549951 
L 175.132558 117.097354 
L 175.19383 117.23388 
L 175.316372 117.487281 
L 175.377643 117.237915 
L 175.438915 117.367586 
L 175.500186 117.490933 
L 175.561457 117.106735 
L 175.622728 117.242803 
L 175.806542 117.61247 
L 175.990356 117.263488 
L 176.603068 118.299578 
L 176.725611 118.451564 
L 176.909425 117.441238 
L 176.970696 117.560992 
L 177.093238 117.130914 
L 177.15451 117.265803 
L 177.522137 117.947684 
L 177.64468 117.28321 
L 177.705951 117.410672 
L 177.889765 117.756956 
L 178.012307 117.105643 
L 178.073578 117.241765 
L 178.563748 118.117045 
L 178.62502 116.858123 
L 178.686291 117.006317 
L 178.747562 117.147282 
L 178.808833 117.022244 
L 178.870105 116.72629 
L 178.931376 116.880913 
L 179.544088 118.067534 
L 179.666631 118.241603 
L 179.727902 117.643396 
L 179.789173 117.753291 
L 179.972987 118.051852 
L 180.09553 117.209645 
L 180.156801 117.340695 
L 180.524428 118.003165 
L 180.5857 117.647806 
L 180.646971 117.757486 
L 180.708242 117.861817 
L 180.769513 117.502612 
L 180.830785 117.619374 
L 180.953327 117.83609 
L 181.014598 117.508908 
L 181.07587 117.625362 
L 181.382226 118.127781 
L 181.688582 116.525668 
L 181.749853 116.690076 
L 181.933667 115.49164 
L 181.994938 115.706478 
L 182.240023 116.466037 
L 182.362566 115.815673 
L 182.423837 116.014707 
L 182.730193 116.873402 
L 182.914007 116.040522 
L 182.975278 116.22859 
L 183.52672 117.557811 
L 183.771805 115.706934 
L 183.833076 115.911271 
L 183.955618 116.290535 
L 184.01689 116.139471 
L 184.200703 115.485215 
L 184.323246 115.905023 
L 184.384517 115.694021 
L 184.690873 116.623651 
L 184.813416 116.173502 
L 184.874687 116.355085 
L 185.364857 117.522685 
L 185.609942 116.36822 
L 185.671213 116.540306 
L 185.732485 116.703999 
L 185.793756 116.423811 
L 185.855027 116.593186 
L 185.916298 116.427362 
L 186.161383 117.056246 
L 186.345197 116.281628 
L 186.406468 116.457937 
L 186.529011 116.785179 
L 186.590282 116.477406 
L 186.651553 116.644167 
L 186.712825 116.802795 
L 186.835367 115.300452 
L 186.896638 115.524614 
L 186.95791 115.330588 
L 187.019181 115.55328 
L 187.080452 115.406871 
L 187.141723 115.160898 
L 187.325537 115.820558 
L 187.386809 115.671158 
L 187.44808 115.550302 
L 187.815707 116.67681 
L 187.876979 115.672639 
L 187.93825 115.878649 
L 187.999521 116.074612 
L 188.060792 115.333032 
L 188.122064 115.555604 
L 188.367149 116.342512 
L 188.42842 115.894354 
L 188.489691 116.08955 
L 188.612234 116.451849 
L 188.673505 116.269304 
L 188.796047 116.614497 
L 188.857319 116.285333 
L 188.91859 116.461462 
L 189.347489 117.47593 
L 189.470031 116.865872 
L 189.531302 117.013687 
L 189.592574 117.154293 
L 189.653845 116.921444 
L 189.715116 117.066549 
L 189.960201 117.579569 
L 190.021472 117.357381 
L 190.082744 117.481225 
L 190.695456 118.431642 
L 191.001812 118.755712 
L 191.124355 118.252943 
L 191.185626 118.33311 
L 191.308169 118.481906 
L 191.491982 117.005183 
L 191.553254 117.146204 
L 191.614525 117.280347 
L 191.798339 116.893222 
L 192.104695 117.557589 
L 192.165966 117.344731 
L 192.227237 117.469192 
L 192.472322 117.909225 
L 192.778679 116.804162 
L 192.83995 116.954987 
L 193.023764 116.486497 
L 193.085035 116.652815 
L 193.146306 116.352574 
L 193.207577 116.525423 
L 193.452662 117.136533 
L 193.636476 116.749934 
L 193.759019 117.049388 
L 193.881561 116.542233 
L 193.942832 116.705832 
L 194.187917 117.037283 
L 194.249189 116.168837 
L 194.31046 116.350647 
L 194.433002 116.688099 
L 194.494274 115.997105 
L 194.555545 116.187291 
L 194.678087 116.540288 
L 194.739359 116.244175 
L 194.80063 116.422311 
L 195.106986 116.947248 
L 195.352071 116.307087 
L 195.658427 116.868217 
L 195.842241 116.455634 
L 195.964784 116.783095 
L 196.026055 116.48339 
L 196.087326 116.649859 
L 196.27114 117.102119 
L 196.332411 116.78538 
L 196.393682 116.937121 
L 196.454954 117.081461 
L 196.516225 116.345196 
L 196.577496 116.518405 
L 196.700039 116.839893 
L 196.76131 116.653779 
L 196.822581 116.811938 
L 196.883852 116.962384 
L 197.25148 115.314851 
L 197.496565 116.145399 
L 197.619107 115.672092 
L 197.680379 115.878129 
L 197.802921 115.39435 
L 198.109277 116.390267 
L 198.170549 116.104601 
L 198.23182 116.289544 
L 198.354362 116.632811 
L 198.538176 115.323905 
L 198.599447 115.546923 
L 198.844532 116.033598 
L 198.905804 115.873808 
L 199.028346 116.256637 
L 199.089617 115.993301 
L 199.150889 116.183672 
L 199.641059 117.407784 
L 199.824872 116.914411 
L 199.947415 117.198214 
L 200.069957 116.64248 
L 200.131229 116.801191 
L 200.253771 117.095768 
L 200.315042 116.819732 
L 200.376314 116.969797 
L 200.437585 117.112544 
L 200.621399 116.165933 
L 200.68267 116.347885 
L 200.805212 115.87554 
L 201.234111 117.063037 
L 201.295382 116.971483 
L 201.356654 117.114147 
L 201.417925 116.790331 
L 201.479196 116.94183 
L 201.66301 117.35342 
L 201.908095 116.626438 
L 201.969366 116.785931 
L 202.030637 116.678516 
L 202.15318 116.189342 
L 202.214451 116.370151 
L 202.520807 117.150222 
L 202.704621 116.041832 
L 202.827164 116.408672 
L 202.888435 116.151106 
L 202.949706 116.333781 
L 203.501147 117.624883 
L 203.930046 118.295779 
L 204.052589 117.323154 
L 204.11386 117.448667 
L 204.175131 117.018044 
L 204.236402 117.158438 
L 204.297674 117.291985 
L 204.358945 116.76609 
L 204.420216 116.918772 
L 204.481487 117.064007 
L 204.542759 115.864097 
L 204.60403 116.06077 
L 204.665301 116.24785 
L 204.849115 115.346314 
L 204.910386 115.568239 
L 205.0942 114.714661 
L 205.155471 114.556465 
L 205.706913 116.491616 
L 206.013269 117.244818 
L 206.07454 116.644559 
L 206.135811 116.803168 
L 206.197083 116.954042 
L 206.380896 116.649331 
L 206.503439 116.958359 
L 206.56471 116.600105 
L 206.625981 116.760881 
L 207.116151 117.794699 
L 207.177423 117.038125 
L 207.238694 117.17754 
L 207.361236 117.436302 
L 207.483779 116.33696 
L 207.606321 116.675714 
L 207.728864 116.982231 
L 207.790135 116.733651 
L 207.851406 116.887915 
L 208.096491 117.433316 
L 208.280305 116.986304 
L 208.831746 118.04095 
L 208.893018 117.260834 
L 208.954289 117.389387 
L 209.199374 117.843886 
L 209.260645 117.673424 
L 209.321916 117.781854 
L 209.383188 117.884996 
L 209.444459 117.723491 
L 209.628273 116.700851 
L 209.934629 117.407771 
L 210.057171 116.793819 
L 210.179714 117.089098 
L 210.240985 116.955447 
L 210.302256 116.634376 
L 210.363528 116.793482 
L 210.547341 117.225736 
L 210.608613 116.911707 
L 210.669884 117.057287 
L 210.853698 117.452795 
L 211.160054 116.383943 
L 211.221325 116.555262 
L 211.405139 116.209868 
L 211.711495 116.790923 
L 211.772766 116.224288 
L 211.834038 116.403394 
L 212.140394 116.941199 
L 212.201665 117.085341 
L 212.262936 116.815198 
L 212.324208 116.965485 
L 212.385479 117.108442 
L 212.508021 116.59801 
L 212.875649 117.452971 
L 212.93692 116.689081 
L 212.998191 116.845518 
L 213.304548 117.520438 
L 213.488361 117.086622 
L 213.549633 117.223672 
L 213.610904 116.841636 
L 213.672175 116.990634 
L 213.91726 117.517415 
L 214.162345 115.802226 
L 214.40743 116.544429 
L 214.529973 115.943988 
L 214.591244 116.136764 
L 214.8976 116.745425 
L 215.020143 116.118813 
L 215.081414 116.303063 
L 215.265228 116.803628 
L 215.326499 116.189054 
L 215.38777 116.369878 
L 215.449041 116.541883 
L 215.632855 115.66094 
L 215.939211 116.597887 
L 216.000483 116.257213 
L 216.061754 116.434713 
L 216.429381 117.331998 
L 216.613195 116.865423 
L 216.85828 117.414901 
L 216.919551 116.732004 
L 216.980823 116.886348 
L 217.287179 117.552236 
L 217.532264 116.626554 
L 217.716078 117.08206 
L 217.899891 116.719862 
L 218.206248 117.422577 
L 218.267519 117.260224 
L 218.32879 117.388807 
L 218.573875 117.843411 
L 218.635146 117.491994 
L 218.696418 117.609273 
L 219.125316 118.284779 
L 219.186588 118.029891 
L 219.247859 118.120937 
L 219.431673 118.368287 
L 219.615486 117.344063 
L 219.676758 117.034186 
L 219.738029 117.173793 
L 220.105656 117.879522 
L 220.166928 117.565066 
L 220.228199 117.678781 
L 220.28947 117.786951 
L 220.534555 117.013525 
L 220.718369 117.415128 
L 220.77964 117.306773 
L 220.902183 116.610521 
L 220.963454 116.77079 
L 221.024725 116.923243 
L 221.085996 116.5927 
L 221.147268 116.753838 
L 221.208539 116.907117 
L 221.26981 116.618551 
L 221.331081 116.778428 
L 221.514895 117.212779 
L 221.576166 116.890643 
L 221.637438 117.03725 
L 221.943794 117.669759 
L 222.188879 116.741267 
L 222.311421 117.041546 
L 222.372693 116.323956 
L 222.433964 116.498201 
L 222.862863 117.501819 
L 223.23049 116.234725 
L 223.353033 116.583208 
L 223.536846 115.510277 
L 223.659389 115.927701 
L 223.72066 115.676978 
L 223.781931 115.882776 
L 223.904474 115.483145 
L 224.027017 115.903151 
L 224.088288 115.638111 
L 224.149559 115.845805 
L 224.272102 116.231299 
L 224.394644 115.26435 
L 224.701 116.289022 
L 224.762272 116.054043 
L 224.823543 116.241452 
L 225.129899 117.049991 
L 225.252442 116.41386 
L 225.313713 116.58372 
L 225.497527 117.045193 
L 225.68134 116.642884 
L 225.742612 116.801574 
L 225.865154 116.218412 
L 225.926425 116.397804 
L 226.048968 116.730768 
L 226.232782 116.373582 
L 226.784223 117.650261 
L 226.968037 117.963173 
L 227.213122 117.073457 
L 227.335664 117.342124 
L 227.458207 116.257616 
L 227.519478 116.435097 
L 227.887105 117.332282 
L 227.948377 117.130412 
L 228.009648 117.265325 
L 228.499818 118.132838 
L 228.62236 116.469802 
L 228.683632 116.636933 
L 229.051259 117.481806 
L 229.173802 116.802542 
L 229.235073 116.953446 
L 229.296344 117.09699 
L 229.480158 116.070016 
L 229.541429 116.256645 
L 229.6027 116.074335 
L 229.663972 116.260754 
L 229.847785 115.995305 
L 230.031599 116.538739 
L 230.09287 116.311407 
L 230.154142 116.486264 
L 230.215413 116.652593 
L 230.276684 116.310954 
L 230.337955 116.485833 
L 230.766854 117.493103 
L 230.950668 116.983313 
L 231.011939 117.125401 
L 231.195753 116.363625 
L 231.257024 115.63453 
L 231.318295 115.842398 
L 231.56338 116.577319 
L 231.624652 116.479589 
L 231.685923 116.185189 
L 231.747194 116.366202 
L 231.808465 116.538386 
L 231.869737 116.250616 
L 231.931008 116.428437 
L 232.114822 116.911539 
L 232.176093 116.435629 
L 232.237364 116.604428 
L 232.359907 116.917729 
L 232.666263 115.828472 
L 232.850077 116.395144 
L 232.911348 116.217721 
L 232.972619 116.397147 
L 233.156433 115.805141 
L 233.278975 116.194505 
L 233.401518 115.224549 
L 233.462789 115.452412 
L 233.585332 115.875342 
L 233.646603 115.563421 
L 233.707874 115.774757 
L 233.769145 115.975787 
L 233.830417 115.937629 
L 233.891688 115.797213 
L 234.320587 117.007841 
L 234.443129 116.484909 
L 234.626943 116.960145 
L 234.872028 115.050643 
L 234.933299 115.286988 
L 234.99457 115.106128 
L 235.117113 114.942773 
L 235.300927 115.632815 
L 235.362198 115.351529 
L 235.423469 115.5732 
L 235.48474 115.513479 
L 235.607283 114.943471 
L 235.668554 115.185043 
L 235.791097 115.633417 
L 235.852368 115.34113 
L 235.913639 115.563308 
L 235.97491 115.402444 
L 236.097453 115.830129 
L 236.158724 115.559044 
L 236.219995 115.770594 
L 236.281267 115.971827 
L 236.342538 115.727347 
L 236.403809 115.930689 
L 236.95525 117.367861 
L 237.322878 118.02329 
L 237.384149 117.756417 
L 237.44542 117.8608 
L 237.506692 117.960093 
L 237.690505 117.367307 
L 237.751777 117.490667 
L 237.813048 117.348393 
L 237.874319 117.472675 
L 238.180675 118.008869 
L 238.303218 117.246905 
L 238.364489 117.376137 
L 238.548303 117.727232 
L 238.609574 117.437129 
L 238.670845 117.557084 
L 238.732117 117.671188 
L 238.793388 117.147905 
L 238.854659 117.281965 
L 238.91593 117.409488 
L 239.161015 116.386931 
L 239.283558 116.72093 
L 239.344829 116.460287 
L 239.4061 116.627883 
L 239.651185 117.22042 
L 239.89627 116.457246 
L 240.018813 116.784554 
L 240.080084 116.58814 
L 240.141355 116.7495 
L 240.325169 117.18788 
L 240.38644 117.060862 
L 240.631525 117.574913 
L 240.692797 117.151742 
L 240.754068 117.285616 
L 241.305509 118.2318 
L 241.36678 117.847954 
L 241.428052 117.947873 
L 241.918222 118.590363 
L 242.102035 117.943318 
L 242.163307 118.038585 
L 242.224578 117.551628 
L 242.285849 117.665999 
L 242.408392 117.878279 
L 242.469663 117.43701 
L 242.530934 117.556971 
L 242.653477 117.779625 
L 242.714748 117.549328 
L 242.776019 117.663811 
L 242.898562 117.876299 
L 242.959833 117.306137 
L 243.021104 117.43248 
L 243.082376 117.552662 
L 243.204918 116.474407 
L 243.327461 116.800082 
L 243.388732 116.556182 
L 243.450003 116.719101 
L 243.511274 116.874074 
L 243.695088 116.580876 
L 243.817631 116.896419 
L 244.062716 116.266718 
L 244.369072 117.069668 
L 244.430343 116.423806 
L 244.491614 116.593181 
L 244.552886 116.754296 
L 244.614157 116.494718 
L 244.675428 116.660635 
L 245.288141 117.933928 
L 245.533226 118.289719 
L 245.655768 117.500398 
L 245.717039 117.617267 
L 245.900853 117.934774 
L 245.962124 117.550181 
L 246.023396 117.664622 
L 246.145938 117.877033 
L 246.329752 116.586442 
L 246.391023 116.747886 
L 246.697379 117.444402 
L 246.758651 117.099485 
L 246.819922 117.235907 
L 247.432634 118.282849 
L 247.738991 118.639832 
L 247.800262 118.245361 
L 247.861533 118.325898 
L 248.290432 118.789775 
L 248.412974 118.155114 
L 248.474246 118.240052 
L 248.535517 117.470951 
L 248.596788 117.589256 
L 248.719331 117.808839 
L 248.841873 117.348112 
L 248.903144 117.472409 
L 249.454586 118.350905 
L 249.515857 118.075742 
L 249.577128 118.164552 
L 250.067298 118.735607 
L 250.251112 117.703873 
L 250.312383 117.810818 
L 250.434926 117.262576 
L 250.496197 117.391044 
L 250.618739 117.629489 
L 250.802553 116.543452 
L 250.863824 116.706992 
L 251.047638 116.247395 
L 251.231452 116.755714 
L 251.292723 116.517801 
L 251.353994 116.682592 
L 251.599079 117.265211 
L 251.660351 116.934027 
L 251.721622 117.078519 
L 251.782893 116.986209 
L 252.089249 117.630008 
L 252.395606 116.358912 
L 252.456877 116.531452 
L 252.579419 116.851698 
L 252.824504 116.216699 
L 252.947047 116.566897 
L 253.008318 116.179278 
L 253.069589 116.360579 
L 253.130861 116.250021 
L 253.375946 116.911052 
L 253.437217 116.204985 
L 253.498488 116.385032 
L 254.049929 117.657562 
L 254.356286 116.506196 
L 254.968998 117.840256 
L 255.030269 117.940551 
L 255.091541 117.663748 
L 255.152812 117.77265 
L 255.397897 118.157676 
L 255.581711 117.252278 
L 255.826796 117.731631 
L 255.888067 117.489028 
L 255.949338 117.606451 
L 256.010609 117.718148 
L 256.255694 115.238525 
L 256.378237 115.681809 
L 256.562051 115.156256 
L 256.745864 115.816562 
L 256.807136 115.479147 
L 256.868407 115.694593 
L 256.929678 115.899533 
L 257.052221 115.548946 
L 257.113492 115.760988 
L 257.236034 115.304606 
L 257.419848 115.944249 
L 257.542391 115.516338 
L 257.787476 116.092167 
L 257.848747 115.859921 
L 257.910018 115.140621 
L 257.971289 115.372578 
L 258.522731 117.011993 
L 258.951629 117.863882 
L 259.012901 117.590819 
L 259.074172 117.703278 
L 259.196714 117.91201 
L 259.257986 116.990954 
L 259.319257 117.132669 
L 259.441799 117.395702 
L 259.625613 116.483711 
L 259.870698 117.102381 
L 260.054512 116.798489 
L 260.115783 116.689973 
L 260.422139 117.399299 
L 260.483411 117.261481 
L 260.544682 117.390002 
L 260.605953 117.512255 
L 260.667224 117.301608 
L 260.728496 117.428172 
L 261.096123 118.06797 
L 261.157395 117.721016 
L 261.218666 117.827125 
L 261.279937 117.92806 
L 261.463751 117.491965 
L 261.525022 117.609245 
L 261.586293 117.273098 
L 261.647565 117.401053 
L 261.89265 117.853437 
L 261.953921 117.094738 
L 262.015192 117.231392 
L 262.076463 117.36138 
L 262.260277 117.017907 
L 262.38282 117.291861 
L 262.444091 117.148321 
L 262.505362 117.282361 
L 262.750447 117.756261 
L 262.811718 117.395607 
L 262.87299 117.517587 
L 263.118075 117.948848 
L 263.301888 116.751233 
L 263.36316 116.904639 
L 263.485702 117.189372 
L 263.608245 116.117354 
L 263.669516 116.301674 
L 263.914601 116.953343 
L 264.159686 116.36233 
L 264.404771 117.003003 
L 264.466042 116.684607 
L 264.527313 116.841263 
L 264.894941 117.445071 
L 265.201297 117.98737 
L 265.446382 116.883239 
L 265.81401 117.664274 
L 265.997823 117.194095 
L 266.059095 117.325903 
L 266.120366 117.023603 
L 266.181637 117.163726 
L 266.365451 117.544408 
L 266.365451 117.544408 
" clip-path="url(#pee51eb1f5b)" style="fill: none; stroke: #1a1a1a; stroke-width: 0.9; stroke-linejoin: miter"/>
   </g>
   <g id="line2d_15">
    <path d="M 21.341719 119.896705 
L 23.36367 119.896705 
L 23.486213 79.628047 
L 23.976383 83.053013 
L 24.037654 80.812897 
L 24.160196 44.436187 
L 24.282739 45.684162 
L 24.895451 53.488411 
L 25.079265 45.31105 
L 25.201808 18.605795 
L 25.630706 24.587411 
L 26.79486 42.726305 
L 27.959014 57.413072 
L 29.123168 69.304721 
L 30.287321 78.933189 
L 31.451475 86.729213 
L 32.615629 93.041526 
L 33.779783 98.152498 
L 34.943936 102.290776 
L 36.10809 105.641472 
L 37.272244 108.354473 
L 38.497669 110.65441 
L 39.723094 112.496057 
L 41.00979 114.036211 
L 42.357758 115.307122 
L 43.644454 116.262263 
L 43.705725 115.47955 
L 43.95081 77.045322 
L 44.012082 77.164781 
L 45.176235 85.297352 
L 46.340389 91.882178 
L 47.504543 97.213797 
L 48.668697 101.530723 
L 49.83285 105.026069 
L 50.997004 107.85619 
L 52.222429 110.255419 
L 53.447854 112.176566 
L 54.73455 113.783211 
L 56.082518 115.108988 
L 57.491757 116.188686 
L 58.533368 116.826917 
L 58.594639 114.081489 
L 58.839724 78.107785 
L 58.900996 77.699578 
L 60.065149 85.730369 
L 61.229303 92.232775 
L 62.393457 97.497671 
L 63.557611 101.760565 
L 64.721764 105.212168 
L 65.885918 108.006876 
L 67.111343 110.376075 
L 68.336768 112.273183 
L 69.623464 113.85972 
L 70.971432 115.168906 
L 72.380671 116.235091 
L 72.932112 116.58354 
L 72.993383 116.440763 
L 73.177197 76.673482 
L 73.361011 77.891511 
L 74.525164 85.885778 
L 75.689318 92.358613 
L 76.853472 97.599555 
L 78.017626 101.843063 
L 79.18178 105.278966 
L 80.345933 108.060957 
L 81.571358 110.419383 
L 82.796783 112.307862 
L 84.08348 113.887182 
L 85.431447 115.190412 
L 86.840686 116.251749 
L 87.453398 116.635056 
L 87.51467 116.469569 
L 87.575941 112.3823 
L 87.821026 77.771824 
L 87.882297 77.619907 
L 89.046451 85.665868 
L 90.210605 92.18055 
L 91.374758 97.455384 
L 92.538912 101.726332 
L 93.703066 105.184445 
L 94.86722 107.984425 
L 96.092645 110.3581 
L 97.31807 112.25879 
L 98.604766 113.848322 
L 99.952734 115.159979 
L 101.361972 116.228179 
L 102.035956 116.650237 
L 102.097227 113.920493 
L 102.342312 78.343699 
L 102.403584 77.478846 
L 102.464855 77.947548 
L 103.629009 85.931152 
L 104.793162 92.395353 
L 105.957316 97.629306 
L 107.12147 101.867153 
L 108.285624 105.298466 
L 109.449777 108.076747 
L 110.675202 110.432026 
L 111.900627 112.317986 
L 113.187324 113.895199 
L 114.535291 115.196691 
L 115.94453 116.25661 
L 116.618514 116.675397 
L 116.679785 116.052975 
L 116.741056 111.567468 
L 116.986141 78.47523 
L 117.047413 77.624667 
L 117.108684 78.091757 
L 118.272838 86.04791 
L 119.436991 92.489886 
L 120.601145 97.70585 
L 121.765299 101.929128 
L 122.929453 105.348648 
L 124.093606 108.117379 
L 125.319031 110.46456 
L 126.544456 112.344038 
L 127.831153 113.915828 
L 129.17912 115.212847 
L 130.588359 116.269124 
L 131.1398 116.614334 
L 131.201071 114.958878 
L 131.384885 76.952814 
L 131.568699 78.169709 
L 132.732853 86.111029 
L 133.897007 92.540987 
L 135.06116 97.74722 
L 136.225314 101.962622 
L 137.389468 105.375769 
L 138.553622 108.139338 
L 139.779047 110.482143 
L 141.004472 112.358115 
L 142.291168 113.926977 
L 143.639135 115.221577 
L 145.048374 116.275885 
L 145.661087 116.656653 
L 145.722358 115.665995 
L 145.906172 76.673921 
L 145.967443 77.151517 
L 147.131597 85.286618 
L 148.29575 91.873479 
L 149.459904 97.20675 
L 150.624058 101.525017 
L 151.788212 105.021446 
L 152.952366 107.852447 
L 154.177791 110.25242 
L 155.403216 112.17417 
L 156.689912 113.781311 
L 158.037879 115.1075 
L 159.447118 116.187534 
L 160.366187 116.75696 
L 160.427458 115.535861 
L 160.611272 76.902335 
L 161.775426 85.084859 
L 162.571952 89.397606 
L 163.736106 95.202081 
L 164.900259 99.901864 
L 166.064413 103.707204 
L 167.228567 106.788327 
L 168.453992 109.400341 
L 169.679417 111.491875 
L 170.966113 113.24101 
L 172.25281 114.62613 
L 173.662048 115.814719 
L 175.132558 116.770198 
L 175.377643 77.078418 
L 175.500186 78.019443 
L 176.66434 85.989363 
L 177.828493 92.442476 
L 178.992647 97.667457 
L 180.156801 101.89804 
L 181.320955 105.323479 
L 182.485108 108.097002 
L 183.710533 110.448244 
L 184.935958 112.330972 
L 186.222655 113.905483 
L 187.570622 115.204744 
L 188.979861 116.262848 
L 189.592574 116.644987 
L 189.776387 76.632342 
L 189.837659 77.110397 
L 190.87927 84.302038 
L 190.940541 83.369896 
L 191.553254 61.416363 
L 191.675796 60.96927 
L 191.737067 61.189107 
L 192.901221 72.362117 
L 194.065375 81.408719 
L 195.229529 88.733606 
L 196.393682 94.664446 
L 197.557836 99.466553 
L 198.72199 103.354741 
L 199.886144 106.502943 
L 201.050297 109.051992 
L 202.275722 111.21294 
L 203.501147 112.943293 
L 204.787844 114.390372 
L 206.135811 115.584479 
L 207.606321 116.59385 
L 207.973949 116.806862 
L 208.03522 116.385553 
L 208.280305 77.347898 
L 208.402848 78.074773 
L 209.567001 86.03416 
L 210.731155 92.47874 
L 211.895309 97.69682 
L 213.059463 101.921816 
L 214.223616 105.342729 
L 215.38777 108.112586 
L 216.613195 110.460724 
L 217.83862 112.340966 
L 219.125316 113.913397 
L 220.473284 115.210941 
L 221.882523 116.267648 
L 222.372693 116.57631 
L 222.495235 93.973544 
L 222.617778 76.945072 
L 222.801591 78.158324 
L 223.965745 86.101814 
L 225.129899 92.533528 
L 226.294053 97.741184 
L 227.458207 101.957738 
L 228.62236 105.371813 
L 229.786514 108.136134 
L 231.011939 110.479578 
L 232.237364 112.356063 
L 233.52406 113.925352 
L 234.872028 115.220304 
L 236.281267 116.274899 
L 236.403809 116.354496 
L 236.46508 114.728881 
L 236.587623 99.834342 
L 236.771437 78.97398 
L 236.893979 78.192222 
L 236.95525 78.249641 
L 238.119404 86.175751 
L 239.283558 92.593393 
L 240.447712 97.789655 
L 241.611865 101.996984 
L 242.776019 105.403588 
L 243.940173 108.161863 
L 245.165598 110.500182 
L 246.391023 112.372561 
L 247.677719 113.938416 
L 249.025687 115.230536 
L 250.496197 116.322754 
L 251.415266 116.871422 
L 251.476537 115.354703 
L 251.660351 76.976722 
L 252.824504 85.145093 
L 253.988658 91.758893 
L 255.152812 97.113972 
L 256.316966 101.449893 
L 257.481119 104.960617 
L 258.645273 107.803197 
L 259.870698 110.212985 
L 261.096123 112.142591 
L 262.38282 113.756305 
L 263.730787 115.087917 
L 265.140026 116.172367 
L 266.120366 116.778956 
L 266.181637 113.745673 
L 266.365451 77.088123 
L 266.365451 77.088123 
" clip-path="url(#pee51eb1f5b)" style="fill: none; stroke: #c8102e; stroke-width: 0.9; stroke-linejoin: miter"/>
   </g>
   <g id="line2d_16">
    <path d="M 21.341719 119.193207 
L 266.426722 119.193207 
" clip-path="url(#pee51eb1f5b)" style="fill: none; stroke-dasharray: 0.7,1.155; stroke-dashoffset: 0; stroke: #bbbbbb; stroke-width: 0.7"/>
   </g>
   <g id="patch_3">
    <path d="M 21.341719 124.96125 
L 21.341719 13.54125 
" style="fill: none; stroke: #1a1a1a; stroke-width: 0.8; stroke-linejoin: miter; stroke-linecap: square"/>
   </g>
   <g id="patch_4">
    <path d="M 266.426722 124.96125 
L 266.426722 13.54125 
" style="fill: none; stroke: #1a1a1a; stroke-width: 0.8; stroke-linejoin: miter; stroke-linecap: square"/>
   </g>
   <g id="patch_5">
    <path d="M 21.341719 124.96125 
L 266.426722 124.96125 
" style="fill: none; stroke: #1a1a1a; stroke-width: 0.8; stroke-linejoin: miter; stroke-linecap: square"/>
   </g>
   <g id="patch_6">
    <path d="M 21.341719 13.54125 
L 266.426722 13.54125 
" style="fill: none; stroke: #1a1a1a; stroke-width: 0.8; stroke-linejoin: miter; stroke-linecap: square"/>
   </g>
   <g id="text_16">
    <!-- PING · E-neuron conductances (cell 278) -->
    <g style="fill: #1a1a1a" transform="translate(21.341719 7.54125) scale(0.08 -0.08)">
     <defs>
      <path id="Menlo-Regular-50" d="M 1247 4147 
L 1247 2394 
L 1978 2394 
Q 2416 2394 2661 2625 
Q 2906 2856 2906 3272 
Q 2906 3688 2662 3917 
Q 2419 4147 1978 4147 
L 1247 4147 
z
M 616 4666 
L 1978 4666 
Q 2759 4666 3162 4311 
Q 3566 3956 3566 3272 
Q 3566 2581 3164 2228 
Q 2763 1875 1978 1875 
L 1247 1875 
L 1247 0 
L 616 0 
L 616 4666 
z
" transform="scale(0.015625)"/>
      <path id="Menlo-Regular-49" d="M 628 4666 
L 3219 4666 
L 3219 4134 
L 2241 4134 
L 2241 531 
L 3219 531 
L 3219 0 
L 628 0 
L 628 531 
L 1606 531 
L 1606 4134 
L 628 4134 
L 628 4666 
z
" transform="scale(0.015625)"/>
      <path id="Menlo-Regular-4e" d="M 59 4650 
L 922 4650 
L 2747 822 
L 2747 4650 
L 3419 4650 
L 3419 0 
L 2556 0 
L 731 3828 
L 731 0 
L 59 0 
L 59 4650 
z
" transform="scale(0.015625)"/>
      <path id="Menlo-Regular-47" d="M 3450 384 
Q 3197 150 2880 29 
Q 2563 -91 2194 -91 
Q 1306 -91 812 545 
Q 319 1181 319 2328 
Q 319 3472 819 4111 
Q 1319 4750 2209 4750 
Q 2503 4750 2772 4667 
Q 3041 4584 3291 4416 
L 3291 3769 
Q 3038 4009 2772 4123 
Q 2506 4238 2209 4238 
Q 1594 4238 1286 3761 
Q 978 3284 978 2328 
Q 978 1356 1276 889 
Q 1575 422 2194 422 
Q 2403 422 2561 470 
Q 2719 519 2847 622 
L 2847 1875 
L 2169 1875 
L 2169 2394 
L 3450 2394 
L 3450 384 
z
" transform="scale(0.015625)"/>
      <path id="Menlo-Regular-b7" d="M 1528 2700 
L 2316 2700 
L 2316 1747 
L 1528 1747 
L 1528 2700 
z
" transform="scale(0.015625)"/>
      <path id="Menlo-Regular-45" d="M 616 4666 
L 3384 4666 
L 3384 4134 
L 1247 4134 
L 1247 2878 
L 3291 2878 
L 3291 2347 
L 1247 2347 
L 1247 531 
L 3444 531 
L 3444 0 
L 616 0 
L 616 4666 
z
" transform="scale(0.015625)"/>
      <path id="Menlo-Regular-2d" d="M 319 2263 
L 3631 2263 
L 3631 1734 
L 319 1734 
L 319 2263 
z
" transform="scale(0.015625)"/>
      <path id="Menlo-Regular-6e" d="M 3284 2169 
L 3284 0 
L 2706 0 
L 2706 2169 
Q 2706 2641 2540 2862 
Q 2375 3084 2022 3084 
Q 1619 3084 1401 2798 
Q 1184 2513 1184 1978 
L 1184 0 
L 609 0 
L 609 3500 
L 1184 3500 
L 1184 2975 
Q 1338 3275 1600 3429 
Q 1863 3584 2222 3584 
Q 2756 3584 3020 3232 
Q 3284 2881 3284 2169 
z
" transform="scale(0.015625)"/>
      <path id="Menlo-Regular-75" d="M 609 1325 
L 609 3494 
L 1184 3494 
L 1184 1325 
Q 1184 853 1351 631 
Q 1519 409 1869 409 
Q 2275 409 2490 695 
Q 2706 981 2706 1516 
L 2706 3494 
L 3284 3494 
L 3284 0 
L 2706 0 
L 2706 525 
Q 2553 222 2289 65 
Q 2025 -91 1672 -91 
Q 1134 -91 871 261 
Q 609 613 609 1325 
z
" transform="scale(0.015625)"/>
      <path id="Menlo-Regular-72" d="M 3609 2778 
Q 3425 2922 3234 2987 
Q 3044 3053 2816 3053 
Q 2278 3053 1993 2715 
Q 1709 2378 1709 1741 
L 1709 0 
L 1131 0 
L 1131 3500 
L 1709 3500 
L 1709 2816 
Q 1853 3188 2151 3386 
Q 2450 3584 2859 3584 
Q 3072 3584 3256 3531 
Q 3441 3478 3609 3366 
L 3609 2778 
z
" transform="scale(0.015625)"/>
      <path id="Menlo-Regular-6f" d="M 1925 3097 
Q 1488 3097 1263 2756 
Q 1038 2416 1038 1747 
Q 1038 1081 1263 739 
Q 1488 397 1925 397 
Q 2366 397 2591 739 
Q 2816 1081 2816 1747 
Q 2816 2416 2591 2756 
Q 2366 3097 1925 3097 
z
M 1925 3584 
Q 2653 3584 3039 3112 
Q 3425 2641 3425 1747 
Q 3425 850 3040 379 
Q 2656 -91 1925 -91 
Q 1197 -91 812 379 
Q 428 850 428 1747 
Q 428 2641 812 3112 
Q 1197 3584 1925 3584 
z
" transform="scale(0.015625)"/>
      <path id="Menlo-Regular-63" d="M 3316 178 
Q 3084 44 2839 -23 
Q 2594 -91 2338 -91 
Q 1525 -91 1067 396 
Q 609 884 609 1747 
Q 609 2609 1067 3096 
Q 1525 3584 2338 3584 
Q 2591 3584 2831 3518 
Q 3072 3453 3316 3316 
L 3316 2713 
Q 3088 2916 2858 3006 
Q 2628 3097 2338 3097 
Q 1797 3097 1506 2747 
Q 1216 2397 1216 1747 
Q 1216 1100 1508 748 
Q 1800 397 2338 397 
Q 2638 397 2875 489 
Q 3113 581 3316 775 
L 3316 178 
z
" transform="scale(0.015625)"/>
      <path id="Menlo-Regular-64" d="M 2681 3053 
L 2681 4863 
L 3256 4863 
L 3256 0 
L 2681 0 
L 2681 441 
Q 2538 181 2298 45 
Q 2059 -91 1747 -91 
Q 1113 -91 748 401 
Q 384 894 384 1759 
Q 384 2613 750 3098 
Q 1116 3584 1747 3584 
Q 2063 3584 2303 3448 
Q 2544 3313 2681 3053 
z
M 991 1747 
Q 991 1078 1203 737 
Q 1416 397 1831 397 
Q 2247 397 2464 740 
Q 2681 1084 2681 1747 
Q 2681 2413 2464 2755 
Q 2247 3097 1831 3097 
Q 1416 3097 1203 2756 
Q 991 2416 991 1747 
z
" transform="scale(0.015625)"/>
      <path id="Menlo-Regular-61" d="M 2194 1759 
L 2003 1759 
Q 1500 1759 1245 1582 
Q 991 1406 991 1056 
Q 991 741 1181 566 
Q 1372 391 1709 391 
Q 2184 391 2456 720 
Q 2728 1050 2731 1631 
L 2731 1759 
L 2194 1759 
z
M 3309 1997 
L 3309 0 
L 2731 0 
L 2731 519 
Q 2547 206 2267 57 
Q 1988 -91 1588 -91 
Q 1053 -91 734 211 
Q 416 513 416 1019 
Q 416 1603 808 1906 
Q 1200 2209 1959 2209 
L 2731 2209 
L 2731 2300 
Q 2728 2719 2518 2908 
Q 2309 3097 1850 3097 
Q 1556 3097 1256 3012 
Q 956 2928 672 2766 
L 672 3341 
Q 991 3463 1283 3523 
Q 1575 3584 1850 3584 
Q 2284 3584 2592 3456 
Q 2900 3328 3091 3072 
Q 3209 2916 3259 2686 
Q 3309 2456 3309 1997 
z
" transform="scale(0.015625)"/>
      <path id="Menlo-Regular-6c" d="M 2247 1266 
Q 2247 878 2389 681 
Q 2531 484 2809 484 
L 3481 484 
L 3481 0 
L 2753 0 
Q 2238 0 1955 329 
Q 1672 659 1672 1266 
L 1672 4431 
L 750 4431 
L 750 4881 
L 2247 4881 
L 2247 1266 
z
" transform="scale(0.015625)"/>
      <path id="Menlo-Regular-37" d="M 434 4666 
L 3372 4666 
L 3372 4397 
L 1703 0 
L 1044 0 
L 2669 4134 
L 434 4134 
L 434 4666 
z
" transform="scale(0.015625)"/>
      <path id="Menlo-Regular-38" d="M 1925 2216 
Q 1503 2216 1273 1980 
Q 1044 1744 1044 1313 
Q 1044 881 1276 642 
Q 1509 403 1925 403 
Q 2350 403 2579 639 
Q 2809 875 2809 1313 
Q 2809 1741 2576 1978 
Q 2344 2216 1925 2216 
z
M 1375 2478 
Q 972 2581 745 2862 
Q 519 3144 519 3541 
Q 519 4097 897 4423 
Q 1275 4750 1925 4750 
Q 2578 4750 2956 4423 
Q 3334 4097 3334 3541 
Q 3334 3144 3107 2862 
Q 2881 2581 2478 2478 
Q 2947 2375 3195 2062 
Q 3444 1750 3444 1253 
Q 3444 622 3041 265 
Q 2638 -91 1925 -91 
Q 1213 -91 811 264 
Q 409 619 409 1247 
Q 409 1747 657 2061 
Q 906 2375 1375 2478 
z
M 1147 3481 
Q 1147 3106 1347 2909 
Q 1547 2713 1925 2713 
Q 2306 2713 2506 2909 
Q 2706 3106 2706 3481 
Q 2706 3863 2507 4063 
Q 2309 4263 1925 4263 
Q 1547 4263 1347 4061 
Q 1147 3859 1147 3481 
z
" transform="scale(0.015625)"/>
     </defs>
     <use xlink:href="#Menlo-Regular-50"/>
     <use xlink:href="#Menlo-Regular-49" transform="translate(60.205078 0)"/>
     <use xlink:href="#Menlo-Regular-4e" transform="translate(120.410156 0)"/>
     <use xlink:href="#Menlo-Regular-47" transform="translate(180.615234 0)"/>
     <use xlink:href="#Menlo-Regular-20" transform="translate(240.820312 0)"/>
     <use xlink:href="#Menlo-Regular-b7" transform="translate(301.025391 0)"/>
     <use xlink:href="#Menlo-Regular-20" transform="translate(361.230469 0)"/>
     <use xlink:href="#Menlo-Regular-45" transform="translate(421.435547 0)"/>
     <use xlink:href="#Menlo-Regular-2d" transform="translate(481.640625 0)"/>
     <use xlink:href="#Menlo-Regular-6e" transform="translate(541.845703 0)"/>
     <use xlink:href="#Menlo-Regular-65" transform="translate(602.050781 0)"/>
     <use xlink:href="#Menlo-Regular-75" transform="translate(662.255859 0)"/>
     <use xlink:href="#Menlo-Regular-72" transform="translate(722.460938 0)"/>
     <use xlink:href="#Menlo-Regular-6f" transform="translate(782.666016 0)"/>
     <use xlink:href="#Menlo-Regular-6e" transform="translate(842.871094 0)"/>
     <use xlink:href="#Menlo-Regular-20" transform="translate(903.076172 0)"/>
     <use xlink:href="#Menlo-Regular-63" transform="translate(963.28125 0)"/>
     <use xlink:href="#Menlo-Regular-6f" transform="translate(1023.486328 0)"/>
     <use xlink:href="#Menlo-Regular-6e" transform="translate(1083.691406 0)"/>
     <use xlink:href="#Menlo-Regular-64" transform="translate(1143.896484 0)"/>
     <use xlink:href="#Menlo-Regular-75" transform="translate(1204.101562 0)"/>
     <use xlink:href="#Menlo-Regular-63" transform="translate(1264.306641 0)"/>
     <use xlink:href="#Menlo-Regular-74" transform="translate(1324.511719 0)"/>
     <use xlink:href="#Menlo-Regular-61" transform="translate(1384.716797 0)"/>
     <use xlink:href="#Menlo-Regular-6e" transform="translate(1444.921875 0)"/>
     <use xlink:href="#Menlo-Regular-63" transform="translate(1505.126953 0)"/>
     <use xlink:href="#Menlo-Regular-65" transform="translate(1565.332031 0)"/>
     <use xlink:href="#Menlo-Regular-73" transform="translate(1625.537109 0)"/>
     <use xlink:href="#Menlo-Regular-20" transform="translate(1685.742188 0)"/>
     <use xlink:href="#Menlo-Regular-28" transform="translate(1745.947266 0)"/>
     <use xlink:href="#Menlo-Regular-63" transform="translate(1806.152344 0)"/>
     <use xlink:href="#Menlo-Regular-65" transform="translate(1866.357422 0)"/>
     <use xlink:href="#Menlo-Regular-6c" transform="translate(1926.5625 0)"/>
     <use xlink:href="#Menlo-Regular-6c" transform="translate(1986.767578 0)"/>
     <use xlink:href="#Menlo-Regular-20" transform="translate(2046.972656 0)"/>
     <use xlink:href="#Menlo-Regular-32" transform="translate(2107.177734 0)"/>
     <use xlink:href="#Menlo-Regular-37" transform="translate(2167.382812 0)"/>
     <use xlink:href="#Menlo-Regular-38" transform="translate(2227.587891 0)"/>
     <use xlink:href="#Menlo-Regular-29" transform="translate(2287.792969 0)"/>
    </g>
   </g>
   <g id="legend_1">
    <g id="patch_7">
     <path d="M 198.384535 51.11375 
L 262.926722 51.11375 
L 262.926722 17.04125 
L 198.384535 17.04125 
z
" style="fill: #ffffff; stroke: #1a1a1a; stroke-width: 0.8; stroke-linejoin: miter"/>
    </g>
    <g id="line2d_17">
     <path d="M 201.184535 23.044844 
L 206.784535 23.044844 
L 212.384535 23.044844 
" style="fill: none; stroke: #1a1a1a; stroke-width: 0.9; stroke-linejoin: miter"/>
    </g>
    <g id="text_17">
     <!-- g_E (exc) -->
     <g style="fill: #1a1a1a" transform="translate(217.984535 25.494844) scale(0.07 -0.07)">
      <defs>
       <path id="Menlo-Regular-5f" d="M 3825 -594 
L 3825 -1125 
L 0 -1125 
L 0 -594 
L 3825 -594 
z
" transform="scale(0.015625)"/>
       <path id="Menlo-Regular-78" d="M 3494 3500 
L 2241 1825 
L 3616 0 
L 2950 0 
L 1925 1403 
L 903 0 
L 238 0 
L 1613 1825 
L 359 3500 
L 997 3500 
L 1925 2234 
L 2847 3500 
L 3494 3500 
z
" transform="scale(0.015625)"/>
      </defs>
      <use xlink:href="#Menlo-Regular-67"/>
      <use xlink:href="#Menlo-Regular-5f" transform="translate(60.205078 0)"/>
      <use xlink:href="#Menlo-Regular-45" transform="translate(120.410156 0)"/>
      <use xlink:href="#Menlo-Regular-20" transform="translate(180.615234 0)"/>
      <use xlink:href="#Menlo-Regular-28" transform="translate(240.820312 0)"/>
      <use xlink:href="#Menlo-Regular-65" transform="translate(301.025391 0)"/>
      <use xlink:href="#Menlo-Regular-78" transform="translate(361.230469 0)"/>
      <use xlink:href="#Menlo-Regular-63" transform="translate(421.435547 0)"/>
      <use xlink:href="#Menlo-Regular-29" transform="translate(481.640625 0)"/>
     </g>
    </g>
    <g id="line2d_18">
     <path d="M 201.184535 33.702344 
L 206.784535 33.702344 
L 212.384535 33.702344 
" style="fill: none; stroke: #c8102e; stroke-width: 0.9; stroke-linejoin: miter"/>
    </g>
    <g id="text_18">
     <!-- g_I (inh) -->
     <g style="fill: #1a1a1a" transform="translate(217.984535 36.152344) scale(0.07 -0.07)">
      <defs>
       <path id="Menlo-Regular-68" d="M 3284 2169 
L 3284 0 
L 2706 0 
L 2706 2169 
Q 2706 2641 2540 2862 
Q 2375 3084 2022 3084 
Q 1619 3084 1401 2798 
Q 1184 2513 1184 1978 
L 1184 0 
L 609 0 
L 609 4863 
L 1184 4863 
L 1184 2975 
Q 1338 3275 1600 3429 
Q 1863 3584 2222 3584 
Q 2756 3584 3020 3232 
Q 3284 2881 3284 2169 
z
" transform="scale(0.015625)"/>
      </defs>
      <use xlink:href="#Menlo-Regular-67"/>
      <use xlink:href="#Menlo-Regular-5f" transform="translate(60.205078 0)"/>
      <use xlink:href="#Menlo-Regular-49" transform="translate(120.410156 0)"/>
      <use xlink:href="#Menlo-Regular-20" transform="translate(180.615234 0)"/>
      <use xlink:href="#Menlo-Regular-28" transform="translate(240.820312 0)"/>
      <use xlink:href="#Menlo-Regular-69" transform="translate(301.025391 0)"/>
      <use xlink:href="#Menlo-Regular-6e" transform="translate(361.230469 0)"/>
      <use xlink:href="#Menlo-Regular-68" transform="translate(421.435547 0)"/>
      <use xlink:href="#Menlo-Regular-29" transform="translate(481.640625 0)"/>
     </g>
    </g>
    <g id="line2d_19">
     <path d="M 201.184535 44.359844 
L 206.784535 44.359844 
L 212.384535 44.359844 
" style="fill: none; stroke-dasharray: 0.7,1.155; stroke-dashoffset: 0; stroke: #bbbbbb; stroke-width: 0.7"/>
    </g>
    <g id="text_19">
     <!-- g_L (leak) -->
     <g style="fill: #1a1a1a" transform="translate(217.984535 46.809844) scale(0.07 -0.07)">
      <defs>
       <path id="Menlo-Regular-4c" d="M 672 4666 
L 1306 4666 
L 1306 531 
L 3559 531 
L 3559 0 
L 672 0 
L 672 4666 
z
" transform="scale(0.015625)"/>
       <path id="Menlo-Regular-6b" d="M 738 4863 
L 1331 4863 
L 1331 2047 
L 2841 3500 
L 3541 3500 
L 2163 2181 
L 3756 0 
L 3053 0 
L 1759 1806 
L 1331 1403 
L 1331 0 
L 738 0 
L 738 4863 
z
" transform="scale(0.015625)"/>
      </defs>
      <use xlink:href="#Menlo-Regular-67"/>
      <use xlink:href="#Menlo-Regular-5f" transform="translate(60.205078 0)"/>
      <use xlink:href="#Menlo-Regular-4c" transform="translate(120.410156 0)"/>
      <use xlink:href="#Menlo-Regular-20" transform="translate(180.615234 0)"/>
      <use xlink:href="#Menlo-Regular-28" transform="translate(240.820312 0)"/>
      <use xlink:href="#Menlo-Regular-6c" transform="translate(301.025391 0)"/>
      <use xlink:href="#Menlo-Regular-65" transform="translate(361.230469 0)"/>
      <use xlink:href="#Menlo-Regular-61" transform="translate(421.435547 0)"/>
      <use xlink:href="#Menlo-Regular-6b" transform="translate(481.640625 0)"/>
      <use xlink:href="#Menlo-Regular-29" transform="translate(541.845703 0)"/>
     </g>
    </g>
   </g>
  </g>
 </g>
 <defs>
  <clipPath id="pee51eb1f5b">
   <rect x="21.341719" y="13.54125" width="245.085003" height="111.42"/>
  </clipPath>
 </defs>
</svg>
