<?xml version="1.0" encoding="utf-8" standalone="no"?>
<!DOCTYPE svg PUBLIC "-//W3C//DTD SVG 1.1//EN"
  "http://www.w3.org/Graphics/SVG/1.1/DTD/svg11.dtd">
<svg xmlns:xlink="http://www.w3.org/1999/xlink" width="455.040156pt" height="106.564453pt" viewBox="0 0 455.040156 106.564453" xmlns="http://www.w3.org/2000/svg" version="1.1">
 <metadata>
  <rdf:RDF xmlns:dc="http://purl.org/dc/elements/1.1/" xmlns:cc="http://creativecommons.org/ns#" xmlns:rdf="http://www.w3.org/1999/02/22-rdf-syntax-ns#">
   <cc:Work>
    <dc:type rdf:resource="http://purl.org/dc/dcmitype/StillImage"/>
    <dc:date>2026-07-02T13:38:54.531170</dc:date>
    <dc:format>image/svg+xml</dc:format>
    <dc:creator>
     <cc:Agent>
      <dc:title>Matplotlib v3.10.8, https://matplotlib.org/</dc:title>
     </cc:Agent>
    </dc:creator>
   </cc:Work>
  </rdf:RDF>
 </metadata>
 <defs>
  <style type="text/css">*{stroke-linejoin: round; stroke-linecap: butt}</style>
 </defs>
 <g id="figure_1">
  <g id="patch_1">
   <path d="M 0 106.564453 
L 455.040156 106.564453 
L 455.040156 0 
L 0 0 
z
" style="fill: #ffffff"/>
  </g>
  <g id="axes_1">
   <g id="patch_2">
    <path d="M 33.984375 83.065078 
L 157.614375 83.065078 
L 157.614375 14.305078 
L 33.984375 14.305078 
z
" style="fill: #ffffff"/>
   </g>
   <g id="matplotlib.axis_1">
    <g id="xtick_1">
     <g id="line2d_1">
      <defs>
       <path id="maf1a06a493" d="M 0 0 
L 0 -3 
" style="stroke: #1a1a1a; stroke-width: 0.8"/>
      </defs>
      <g>
       <use xlink:href="#maf1a06a493" x="33.984375" y="83.065078" style="fill: #1a1a1a; stroke: #1a1a1a; stroke-width: 0.8"/>
      </g>
     </g>
     <g id="text_1">
      <!-- 0 -->
      <g style="fill: #1a1a1a" transform="translate(31.877266 91.903672) scale(0.07 -0.07)">
       <defs>
        <path id="Menlo-Regular-30" d="M 1925 4734 
Q 2672 4734 3055 4125 
Q 3438 3516 3438 2322 
Q 3438 1128 3055 518 
Q 2672 -91 1925 -91 
Q 1178 -91 797 518 
Q 416 1128 416 2322 
Q 416 3516 797 4125 
Q 1178 4734 1925 4734 
z
M 1925 409 
Q 2369 409 2586 881 
Q 2803 1353 2803 2322 
Q 2803 2838 2741 3253 
L 1253 925 
Q 1488 409 1925 409 
z
M 1925 4234 
Q 1484 4234 1267 3762 
Q 1050 3291 1050 2322 
Q 1050 1881 1109 1497 
L 2566 3819 
Q 2328 4234 1925 4234 
z
" transform="scale(0.015625)"/>
       </defs>
       <use xlink:href="#Menlo-Regular-30"/>
      </g>
     </g>
    </g>
    <g id="xtick_2">
     <g id="line2d_2">
      <g>
       <use xlink:href="#maf1a06a493" x="64.891875" y="83.065078" style="fill: #1a1a1a; stroke: #1a1a1a; stroke-width: 0.8"/>
      </g>
     </g>
     <g id="text_2">
      <!-- 100 -->
      <g style="fill: #1a1a1a" transform="translate(58.570546 91.903672) scale(0.07 -0.07)">
       <defs>
        <path id="Menlo-Regular-31" d="M 844 528 
L 1825 528 
L 1825 4053 
L 650 3488 
L 650 4094 
L 1819 4650 
L 2450 4650 
L 2450 528 
L 3419 528 
L 3419 0 
L 844 0 
L 844 528 
z
" transform="scale(0.015625)"/>
       </defs>
       <use xlink:href="#Menlo-Regular-31"/>
       <use xlink:href="#Menlo-Regular-30" transform="translate(60.205078 0)"/>
       <use xlink:href="#Menlo-Regular-30" transform="translate(120.410156 0)"/>
      </g>
     </g>
    </g>
    <g id="xtick_3">
     <g id="line2d_3">
      <g>
       <use xlink:href="#maf1a06a493" x="95.799374" y="83.065078" style="fill: #1a1a1a; stroke: #1a1a1a; stroke-width: 0.8"/>
      </g>
     </g>
     <g id="text_3">
      <!-- 200 -->
      <g style="fill: #1a1a1a" transform="translate(89.478046 91.903672) scale(0.07 -0.07)">
       <defs>
        <path id="Menlo-Regular-32" d="M 1166 531 
L 3309 531 
L 3309 0 
L 475 0 
L 475 531 
Q 1059 1147 1496 1619 
Q 1934 2091 2100 2284 
Q 2413 2666 2522 2902 
Q 2631 3138 2631 3384 
Q 2631 3775 2401 3997 
Q 2172 4219 1772 4219 
Q 1488 4219 1175 4116 
Q 863 4013 513 3803 
L 513 4441 
Q 834 4594 1145 4672 
Q 1456 4750 1759 4750 
Q 2444 4750 2861 4386 
Q 3278 4022 3278 3431 
Q 3278 3131 3139 2831 
Q 3000 2531 2688 2169 
Q 2513 1966 2180 1606 
Q 1847 1247 1166 531 
z
" transform="scale(0.015625)"/>
       </defs>
       <use xlink:href="#Menlo-Regular-32"/>
       <use xlink:href="#Menlo-Regular-30" transform="translate(60.205078 0)"/>
       <use xlink:href="#Menlo-Regular-30" transform="translate(120.410156 0)"/>
      </g>
     </g>
    </g>
    <g id="xtick_4">
     <g id="line2d_4">
      <g>
       <use xlink:href="#maf1a06a493" x="126.706874" y="83.065078" style="fill: #1a1a1a; stroke: #1a1a1a; stroke-width: 0.8"/>
      </g>
     </g>
     <g id="text_4">
      <!-- 300 -->
      <g style="fill: #1a1a1a" transform="translate(120.385545 91.903672) scale(0.07 -0.07)">
       <defs>
        <path id="Menlo-Regular-33" d="M 2425 2497 
Q 2884 2375 3128 2064 
Q 3372 1753 3372 1288 
Q 3372 644 2939 276 
Q 2506 -91 1741 -91 
Q 1419 -91 1084 -31 
Q 750 28 428 141 
L 428 769 
Q 747 603 1056 522 
Q 1366 441 1672 441 
Q 2191 441 2469 675 
Q 2747 909 2747 1350 
Q 2747 1756 2469 1995 
Q 2191 2234 1716 2234 
L 1234 2234 
L 1234 2753 
L 1716 2753 
Q 2150 2753 2394 2943 
Q 2638 3134 2638 3475 
Q 2638 3834 2411 4026 
Q 2184 4219 1766 4219 
Q 1488 4219 1191 4156 
Q 894 4094 569 3969 
L 569 4550 
Q 947 4650 1242 4700 
Q 1538 4750 1766 4750 
Q 2447 4750 2855 4408 
Q 3263 4066 3263 3500 
Q 3263 3116 3048 2859 
Q 2834 2603 2425 2497 
z
" transform="scale(0.015625)"/>
       </defs>
       <use xlink:href="#Menlo-Regular-33"/>
       <use xlink:href="#Menlo-Regular-30" transform="translate(60.205078 0)"/>
       <use xlink:href="#Menlo-Regular-30" transform="translate(120.410156 0)"/>
      </g>
     </g>
    </g>
    <g id="xtick_5">
     <g id="line2d_5">
      <g>
       <use xlink:href="#maf1a06a493" x="157.614373" y="83.065078" style="fill: #1a1a1a; stroke: #1a1a1a; stroke-width: 0.8"/>
      </g>
     </g>
     <g id="text_5">
      <!-- 400 -->
      <g style="fill: #1a1a1a" transform="translate(151.293045 91.903672) scale(0.07 -0.07)">
       <defs>
        <path id="Menlo-Regular-34" d="M 2297 4091 
L 825 1625 
L 2297 1625 
L 2297 4091 
z
M 2194 4666 
L 2925 4666 
L 2925 1625 
L 3547 1625 
L 3547 1113 
L 2925 1113 
L 2925 0 
L 2297 0 
L 2297 1113 
L 319 1113 
L 319 1709 
L 2194 4666 
z
" transform="scale(0.015625)"/>
       </defs>
       <use xlink:href="#Menlo-Regular-34"/>
       <use xlink:href="#Menlo-Regular-30" transform="translate(60.205078 0)"/>
       <use xlink:href="#Menlo-Regular-30" transform="translate(120.410156 0)"/>
      </g>
     </g>
    </g>
    <g id="text_6">
     <!-- time (ms) -->
     <g style="fill: #1a1a1a" transform="translate(74.12625 103.460703) scale(0.08 -0.08)">
      <defs>
       <path id="Menlo-Regular-74" d="M 1919 4494 
L 1919 3500 
L 3225 3500 
L 3225 3053 
L 1919 3053 
L 1919 1153 
Q 1919 766 2066 612 
Q 2213 459 2578 459 
L 3225 459 
L 3225 0 
L 2522 0 
Q 1875 0 1609 259 
Q 1344 519 1344 1153 
L 1344 3053 
L 409 3053 
L 409 3500 
L 1344 3500 
L 1344 4494 
L 1919 4494 
z
" transform="scale(0.015625)"/>
       <path id="Menlo-Regular-69" d="M 988 3488 
L 2459 3488 
L 2459 447 
L 3600 447 
L 3600 0 
L 744 0 
L 744 447 
L 1884 447 
L 1884 3041 
L 988 3041 
L 988 3488 
z
M 1884 4847 
L 2459 4847 
L 2459 4122 
L 1884 4122 
L 1884 4847 
z
" transform="scale(0.015625)"/>
       <path id="Menlo-Regular-6d" d="M 2113 3144 
Q 2219 3369 2383 3476 
Q 2547 3584 2778 3584 
Q 3200 3584 3373 3257 
Q 3547 2931 3547 2028 
L 3547 0 
L 3022 0 
L 3022 2003 
Q 3022 2744 2939 2923 
Q 2856 3103 2638 3103 
Q 2388 3103 2295 2911 
Q 2203 2719 2203 2003 
L 2203 0 
L 1678 0 
L 1678 2003 
Q 1678 2753 1589 2928 
Q 1500 3103 1269 3103 
Q 1041 3103 952 2911 
Q 863 2719 863 2003 
L 863 0 
L 341 0 
L 341 3500 
L 863 3500 
L 863 3200 
Q 966 3388 1120 3486 
Q 1275 3584 1472 3584 
Q 1709 3584 1867 3475 
Q 2025 3366 2113 3144 
z
" transform="scale(0.015625)"/>
       <path id="Menlo-Regular-65" d="M 3500 2038 
L 3500 1756 
L 1009 1756 
L 1009 1738 
Q 984 1022 1282 709 
Q 1581 397 2125 397 
Q 2400 397 2700 484 
Q 3000 572 3341 750 
L 3341 178 
Q 3013 44 2708 -23 
Q 2403 -91 2119 -91 
Q 1303 -91 843 398 
Q 384 888 384 1747 
Q 384 2584 834 3084 
Q 1284 3584 2034 3584 
Q 2703 3584 3089 3131 
Q 3475 2678 3500 2038 
z
M 2925 2206 
Q 2888 2569 2661 2833 
Q 2434 3097 2009 3097 
Q 1594 3097 1325 2822 
Q 1056 2547 1031 2203 
L 2925 2206 
z
" transform="scale(0.015625)"/>
       <path id="Menlo-Regular-20" transform="scale(0.015625)"/>
       <path id="Menlo-Regular-28" d="M 2672 5169 
Q 2256 4456 2051 3748 
Q 1847 3041 1847 2322 
Q 1847 1606 2051 897 
Q 2256 188 2672 -531 
L 2172 -531 
Q 1700 213 1469 917 
Q 1238 1622 1238 2322 
Q 1238 3019 1469 3725 
Q 1700 4431 2172 5169 
L 2672 5169 
z
" transform="scale(0.015625)"/>
       <path id="Menlo-Regular-73" d="M 3041 3378 
L 3041 2816 
Q 2794 2959 2544 3031 
Q 2294 3103 2034 3103 
Q 1644 3103 1451 2976 
Q 1259 2850 1259 2591 
Q 1259 2356 1403 2240 
Q 1547 2125 2119 2016 
L 2350 1972 
Q 2778 1891 2998 1647 
Q 3219 1403 3219 1013 
Q 3219 494 2850 201 
Q 2481 -91 1825 -91 
Q 1566 -91 1281 -36 
Q 997 19 666 128 
L 666 722 
Q 988 556 1281 473 
Q 1575 391 1838 391 
Q 2219 391 2428 545 
Q 2638 700 2638 978 
Q 2638 1378 1872 1531 
L 1847 1538 
L 1631 1581 
Q 1134 1678 906 1908 
Q 678 2138 678 2534 
Q 678 3038 1018 3311 
Q 1359 3584 1991 3584 
Q 2272 3584 2531 3532 
Q 2791 3481 3041 3378 
z
" transform="scale(0.015625)"/>
       <path id="Menlo-Regular-29" d="M 1088 5169 
L 1588 5169 
Q 2059 4431 2290 3725 
Q 2522 3019 2522 2322 
Q 2522 1619 2290 912 
Q 2059 206 1588 -531 
L 1088 -531 
Q 1503 194 1708 903 
Q 1913 1613 1913 2322 
Q 1913 3034 1708 3743 
Q 1503 4453 1088 5169 
z
" transform="scale(0.015625)"/>
      </defs>
      <use xlink:href="#Menlo-Regular-74"/>
      <use xlink:href="#Menlo-Regular-69" transform="translate(60.205078 0)"/>
      <use xlink:href="#Menlo-Regular-6d" transform="translate(120.410156 0)"/>
      <use xlink:href="#Menlo-Regular-65" transform="translate(180.615234 0)"/>
      <use xlink:href="#Menlo-Regular-20" transform="translate(240.820312 0)"/>
      <use xlink:href="#Menlo-Regular-28" transform="translate(301.025391 0)"/>
      <use xlink:href="#Menlo-Regular-6d" transform="translate(361.230469 0)"/>
      <use xlink:href="#Menlo-Regular-73" transform="translate(421.435547 0)"/>
      <use xlink:href="#Menlo-Regular-29" transform="translate(481.640625 0)"/>
     </g>
    </g>
   </g>
   <g id="matplotlib.axis_2">
    <g id="ytick_1">
     <g id="line2d_6">
      <defs>
       <path id="mae096dfc7f" d="M 0 0 
L 3 0 
" style="stroke: #1a1a1a; stroke-width: 0.8"/>
      </defs>
      <g>
       <use xlink:href="#mae096dfc7f" x="33.984375" y="79.939624" style="fill: #1a1a1a; stroke: #1a1a1a; stroke-width: 0.8"/>
      </g>
     </g>
     <g id="text_7">
      <!-- 0.00 -->
      <g style="fill: #1a1a1a" transform="translate(13.6275 82.60892) scale(0.07 -0.07)">
       <defs>
        <path id="Menlo-Regular-2e" d="M 1216 1263 
L 2316 1263 
L 2316 0 
L 1216 0 
L 1216 1263 
z
" transform="scale(0.015625)"/>
       </defs>
       <use xlink:href="#Menlo-Regular-30"/>
       <use xlink:href="#Menlo-Regular-2e" transform="translate(60.205078 0)"/>
       <use xlink:href="#Menlo-Regular-30" transform="translate(120.410156 0)"/>
       <use xlink:href="#Menlo-Regular-30" transform="translate(180.615234 0)"/>
      </g>
     </g>
    </g>
    <g id="ytick_2">
     <g id="line2d_7">
      <g>
       <use xlink:href="#mae096dfc7f" x="33.984375" y="48.685078" style="fill: #1a1a1a; stroke: #1a1a1a; stroke-width: 0.8"/>
      </g>
     </g>
     <g id="text_8">
      <!-- 0.05 -->
      <g style="fill: #1a1a1a" transform="translate(13.6275 51.354375) scale(0.07 -0.07)">
       <defs>
        <path id="Menlo-Regular-35" d="M 647 4666 
L 3009 4666 
L 3009 4134 
L 1222 4134 
L 1222 2988 
Q 1356 3038 1492 3061 
Q 1628 3084 1766 3084 
Q 2491 3084 2916 2656 
Q 3341 2228 3341 1497 
Q 3341 759 2895 334 
Q 2450 -91 1678 -91 
Q 1306 -91 998 -41 
Q 691 9 447 109 
L 447 750 
Q 734 594 1025 517 
Q 1316 441 1619 441 
Q 2141 441 2423 716 
Q 2706 991 2706 1497 
Q 2706 1997 2414 2275 
Q 2122 2553 1600 2553 
Q 1347 2553 1106 2495 
Q 866 2438 647 2322 
L 647 4666 
z
" transform="scale(0.015625)"/>
       </defs>
       <use xlink:href="#Menlo-Regular-30"/>
       <use xlink:href="#Menlo-Regular-2e" transform="translate(60.205078 0)"/>
       <use xlink:href="#Menlo-Regular-30" transform="translate(120.410156 0)"/>
       <use xlink:href="#Menlo-Regular-35" transform="translate(180.615234 0)"/>
      </g>
     </g>
    </g>
    <g id="ytick_3">
     <g id="line2d_8">
      <g>
       <use xlink:href="#mae096dfc7f" x="33.984375" y="17.430533" style="fill: #1a1a1a; stroke: #1a1a1a; stroke-width: 0.8"/>
      </g>
     </g>
     <g id="text_9">
      <!-- 0.10 -->
      <g style="fill: #1a1a1a" transform="translate(13.6275 20.09983) scale(0.07 -0.07)">
       <use xlink:href="#Menlo-Regular-30"/>
       <use xlink:href="#Menlo-Regular-2e" transform="translate(60.205078 0)"/>
       <use xlink:href="#Menlo-Regular-31" transform="translate(120.410156 0)"/>
       <use xlink:href="#Menlo-Regular-30" transform="translate(180.615234 0)"/>
      </g>
     </g>
    </g>
    <g id="text_10">
     <!-- g  [µS] -->
     <g style="fill: #1a1a1a" transform="translate(7.90875 65.541953) rotate(-90) scale(0.08 -0.08)">
      <defs>
       <path id="Menlo-Regular-67" d="M 2681 1778 
Q 2681 2425 2470 2761 
Q 2259 3097 1856 3097 
Q 1434 3097 1212 2761 
Q 991 2425 991 1778 
Q 991 1131 1214 792 
Q 1438 453 1863 453 
Q 2259 453 2470 793 
Q 2681 1134 2681 1778 
z
M 3256 225 
Q 3256 -563 2884 -969 
Q 2513 -1375 1791 -1375 
Q 1553 -1375 1293 -1331 
Q 1034 -1288 775 -1203 
L 775 -634 
Q 1081 -778 1331 -847 
Q 1581 -916 1791 -916 
Q 2256 -916 2468 -662 
Q 2681 -409 2681 141 
L 2681 166 
L 2681 556 
Q 2544 263 2306 119 
Q 2069 -25 1728 -25 
Q 1116 -25 750 465 
Q 384 956 384 1778 
Q 384 2603 750 3093 
Q 1116 3584 1728 3584 
Q 2066 3584 2300 3450 
Q 2534 3316 2681 3034 
L 2681 3488 
L 3256 3488 
L 3256 225 
z
" transform="scale(0.015625)"/>
       <path id="Menlo-Regular-5b" d="M 1759 5175 
L 3084 5175 
L 3084 4728 
L 2334 4728 
L 2334 -84 
L 3084 -84 
L 3084 -531 
L 1759 -531 
L 1759 5175 
z
" transform="scale(0.015625)"/>
       <path id="Menlo-Regular-b5" d="M 609 -1338 
L 609 3500 
L 1184 3500 
L 1184 1325 
Q 1184 881 1371 645 
Q 1559 409 1906 409 
Q 2303 409 2504 675 
Q 2706 941 2706 1459 
L 2706 3500 
L 3284 3500 
L 3284 800 
Q 3284 616 3334 528 
Q 3384 441 3488 441 
Q 3516 441 3561 456 
Q 3606 472 3694 513 
L 3694 50 
Q 3575 -22 3469 -56 
Q 3363 -91 3256 -91 
Q 3063 -91 2945 32 
Q 2828 156 2791 403 
Q 2647 153 2439 31 
Q 2231 -91 1953 -91 
Q 1666 -91 1467 28 
Q 1269 147 1131 397 
L 1131 -1338 
L 609 -1338 
z
" transform="scale(0.015625)"/>
       <path id="Menlo-Regular-53" d="M 3163 4506 
L 3163 3866 
Q 2875 4050 2586 4144 
Q 2297 4238 2003 4238 
Q 1556 4238 1297 4030 
Q 1038 3822 1038 3469 
Q 1038 3159 1208 2996 
Q 1378 2834 1844 2725 
L 2175 2650 
Q 2831 2497 3131 2169 
Q 3431 1841 3431 1275 
Q 3431 609 3018 259 
Q 2606 -91 1819 -91 
Q 1491 -91 1159 -20 
Q 828 50 494 191 
L 494 863 
Q 853 634 1173 528 
Q 1494 422 1819 422 
Q 2297 422 2562 636 
Q 2828 850 2828 1234 
Q 2828 1584 2645 1768 
Q 2463 1953 2009 2053 
L 1672 2131 
Q 1022 2278 728 2575 
Q 434 2872 434 3372 
Q 434 3997 854 4373 
Q 1275 4750 1972 4750 
Q 2241 4750 2537 4689 
Q 2834 4628 3163 4506 
z
" transform="scale(0.015625)"/>
       <path id="Menlo-Regular-5d" d="M 2250 5175 
L 2250 -531 
L 925 -531 
L 925 -84 
L 1675 -84 
L 1675 4728 
L 925 4728 
L 925 5175 
L 2250 5175 
z
" transform="scale(0.015625)"/>
      </defs>
      <use xlink:href="#Menlo-Regular-67"/>
      <use xlink:href="#Menlo-Regular-20" transform="translate(60.205078 0)"/>
      <use xlink:href="#Menlo-Regular-20" transform="translate(120.410156 0)"/>
      <use xlink:href="#Menlo-Regular-5b" transform="translate(180.615234 0)"/>
      <use xlink:href="#Menlo-Regular-b5" transform="translate(240.820312 0)"/>
      <use xlink:href="#Menlo-Regular-53" transform="translate(301.025391 0)"/>
      <use xlink:href="#Menlo-Regular-5d" transform="translate(361.230469 0)"/>
     </g>
    </g>
   </g>
   <g id="line2d_9">
    <path d="M 33.984375 79.939624 
L 36.178808 79.939624 
L 36.209715 78.688293 
L 36.302438 78.862593 
L 36.333345 78.91512 
L 36.364253 77.896009 
L 36.456975 78.180668 
L 36.827865 78.974288 
L 37.167848 68.847808 
L 37.198755 69.388762 
L 37.229663 68.550516 
L 37.50783 60.709747 
L 37.538738 59.386848 
L 37.600553 61.342702 
L 37.63146 61.09481 
L 37.724183 63.719741 
L 37.75509 61.065971 
L 37.847813 61.636602 
L 38.187795 48.477931 
L 38.218703 48.975625 
L 38.280518 49.603074 
L 38.465963 42.799462 
L 38.49687 43.445698 
L 38.589593 47.519731 
L 38.99139 63.014948 
L 39.393188 71.104165 
L 39.794985 75.327108 
L 40.196783 77.531678 
L 40.629488 78.743873 
L 41.062193 79.345831 
L 41.556713 79.672815 
L 42.267585 79.855142 
L 43.658423 79.930719 
L 50.828963 79.939623 
L 50.85987 78.611738 
L 50.952593 78.796701 
L 51.199853 79.1735 
L 51.23076 78.128716 
L 51.323483 78.380961 
L 51.447113 78.663498 
L 51.539835 76.586529 
L 51.60165 76.905618 
L 51.694373 77.328231 
L 51.879818 72.187543 
L 52.188893 75.237747 
L 52.250708 72.363454 
L 52.34343 73.418753 
L 52.374338 73.73678 
L 52.528875 67.680594 
L 52.59069 68.847194 
L 52.776135 64.344895 
L 52.930673 67.794435 
L 52.992488 66.977006 
L 53.054303 64.455678 
L 53.116118 65.92917 
L 53.177933 64.959319 
L 53.239748 65.206952 
L 53.301563 66.608951 
L 53.33247 61.670432 
L 53.425193 61.755451 
L 53.548823 64.127744 
L 53.57973 63.609298 
L 53.641545 63.947784 
L 53.70336 63.006287 
L 53.734268 63.832135 
L 53.765175 63.45131 
L 53.82699 59.660802 
L 53.888805 61.590586 
L 54.012435 59.446075 
L 54.043343 60.445556 
L 54.07425 60.243894 
L 54.136065 57.737373 
L 54.19788 58.599613 
L 54.352418 55.791814 
L 54.383325 55.822496 
L 54.44514 54.506844 
L 54.476048 54.604899 
L 54.599678 57.093596 
L 54.630585 54.837684 
L 54.6924 56.266848 
L 54.723308 57.421383 
L 54.754215 57.328838 
L 54.785123 53.920896 
L 54.846938 55.322198 
L 54.877845 56.522803 
L 54.908753 55.311838 
L 54.93966 53.115376 
L 55.001475 55.668039 
L 55.403273 67.268739 
L 55.80507 73.324839 
L 56.206868 76.486402 
L 56.608665 78.136883 
L 57.04137 79.044409 
L 57.504983 79.516754 
L 58.092225 79.776082 
L 59.01945 79.903133 
L 61.553865 79.939019 
L 61.955663 79.939308 
L 61.98657 78.970347 
L 62.079293 79.105359 
L 62.450183 79.48177 
L 62.48109 78.355424 
L 62.573813 78.57609 
L 63.006518 79.262513 
L 63.501038 79.635378 
L 63.748298 79.735682 
L 63.779205 78.672614 
L 63.871928 78.849098 
L 63.902835 78.902284 
L 64.057373 73.89317 
L 64.21191 75.23064 
L 64.366448 73.105746 
L 64.613708 74.627807 
L 64.70643 75.3677 
L 64.737338 74.452819 
L 64.799153 74.974957 
L 64.860968 75.447408 
L 64.891875 74.793811 
L 64.95369 75.283499 
L 65.07732 76.127511 
L 65.170043 74.32266 
L 65.20095 74.596603 
L 65.231858 74.857184 
L 65.262765 73.823244 
L 65.32458 74.405295 
L 65.479118 75.629483 
L 65.540933 73.756812 
L 65.602748 74.345184 
L 65.633655 74.618027 
L 65.664563 73.409305 
L 65.726378 74.030746 
L 65.757285 74.318925 
L 65.94273 68.535867 
L 66.128175 70.47275 
L 66.251805 66.387322 
L 66.375435 66.926994 
L 66.406343 67.561627 
L 66.43725 67.039741 
L 66.529973 63.321605 
L 66.591788 64.903017 
L 66.622695 64.581834 
L 66.653603 65.330842 
L 66.68451 64.750917 
L 66.715418 65.491679 
L 66.777233 65.025719 
L 66.962678 61.483248 
L 67.148123 56.751567 
L 67.17903 57.882462 
L 67.209938 57.838751 
L 67.333568 52.171497 
L 67.364475 53.525765 
L 67.395383 54.813983 
L 67.457198 52.804362 
L 67.580828 54.619751 
L 67.704458 56.959676 
L 67.735365 56.80467 
L 67.766273 56.888198 
L 67.79718 58.012428 
L 67.858995 56.492077 
L 67.889903 55.755971 
L 67.92081 56.935421 
L 67.951718 56.991883 
L 68.075348 54.929631 
L 68.106255 55.082713 
L 68.16807 55.173759 
L 68.569868 67.010703 
L 68.971665 73.190133 
L 69.373463 76.416079 
L 69.77526 78.100172 
L 70.207965 79.026178 
L 70.671578 79.508142 
L 71.227913 79.764196 
L 72.12423 79.898474 
L 74.442293 79.938656 
L 74.72046 79.939007 
L 74.751368 78.558418 
L 74.84409 78.750809 
L 74.936813 78.916401 
L 74.96772 76.725412 
L 75.060443 77.173125 
L 75.245888 77.890151 
L 75.276795 76.892313 
L 75.369518 77.316779 
L 75.400425 77.444696 
L 75.554963 75.975123 
L 75.678593 76.693764 
L 75.7095 75.971801 
L 75.771315 76.349389 
L 75.864038 76.84948 
L 75.894945 75.925289 
L 75.95676 76.307303 
L 76.234928 77.623554 
L 76.389465 72.05512 
L 76.482188 72.175597 
L 76.513095 72.554252 
L 76.544003 71.881619 
L 76.605818 68.029673 
L 76.667633 68.085186 
L 76.760355 69.736414 
L 76.791263 67.945355 
L 76.883985 68.490173 
L 77.06943 71.457661 
L 77.100338 69.633053 
L 77.19306 70.032841 
L 77.223968 69.541583 
L 77.254875 70.048701 
L 77.285783 69.602844 
L 77.347598 70.586518 
L 77.378505 70.052794 
L 77.409413 69.25923 
L 77.471228 70.275603 
L 77.502135 70.746923 
L 77.533043 70.104702 
L 77.56395 70.584356 
L 77.68758 65.801456 
L 77.780303 61.839203 
L 77.81121 62.72197 
L 77.873025 64.360445 
L 77.903933 63.97895 
L 78.05847 57.286275 
L 78.1821 59.361289 
L 78.30573 55.727366 
L 78.336638 55.761818 
L 78.398453 57.102259 
L 78.522083 51.708758 
L 78.55299 53.085593 
L 78.583898 53.169571 
L 78.614805 51.090612 
L 78.67662 51.462129 
L 78.738435 53.19054 
L 78.769343 52.278231 
L 78.831158 49.393635 
L 78.892973 51.166617 
L 78.92388 51.417491 
L 78.954788 50.670317 
L 78.985695 52.097798 
L 79.387493 65.40491 
L 79.78929 72.351836 
L 80.191088 75.97845 
L 80.592885 77.871709 
L 81.02559 78.912727 
L 81.489203 79.454552 
L 82.045538 79.742408 
L 82.88004 79.888497 
L 84.85812 79.93754 
L 86.248958 79.939404 
L 86.279865 78.803392 
L 86.372588 78.96166 
L 86.558033 79.21513 
L 86.58894 78.207106 
L 86.681663 78.448432 
L 86.867108 78.834921 
L 86.95983 75.914476 
L 86.990738 76.110785 
L 87.268905 77.498248 
L 87.299813 74.991401 
L 87.392535 75.680649 
L 87.45435 76.085944 
L 87.57798 74.58275 
L 87.608888 74.844007 
L 87.639795 75.092523 
L 87.763425 72.335965 
L 87.794333 72.706799 
L 87.82524 73.059548 
L 87.856148 72.386395 
L 87.887055 72.75477 
L 87.917963 71.957068 
L 87.979778 72.716708 
L 88.041593 73.404059 
L 88.0725 72.723561 
L 88.227038 70.116979 
L 88.257945 70.596035 
L 88.381575 72.28974 
L 88.412483 71.431996 
L 88.505205 71.519602 
L 88.56702 69.015347 
L 88.628835 68.980222 
L 88.721558 70.506779 
L 88.752465 68.803284 
L 88.845188 69.218133 
L 88.999725 71.589716 
L 89.030633 70.83403 
L 89.741505 55.591832 
L 89.865135 51.428794 
L 89.957858 53.467931 
L 90.17421 58.451364 
L 90.236025 56.133216 
L 90.29784 56.357337 
L 90.359655 55.298993 
L 90.42147 57.643857 
L 90.452378 56.191391 
L 90.514193 58.451334 
L 90.5451 58.338911 
L 90.91599 67.239012 
L 91.16325 71.426148 
L 91.225065 71.351565 
L 91.503233 73.723378 
L 91.53414 74.026547 
L 91.595955 72.496653 
L 91.65777 73.204946 
L 92.059568 76.423812 
L 92.461365 78.104208 
L 92.554088 78.359867 
L 92.708625 75.70902 
L 92.739533 75.915349 
L 92.77044 76.111615 
L 92.924978 70.927323 
L 93.0177 72.182663 
L 93.079515 71.839646 
L 93.172238 70.57312 
L 93.203145 71.02993 
L 93.234053 71.46446 
L 93.26496 70.634068 
L 93.295868 71.087905 
L 93.326775 70.449542 
L 93.38859 71.352642 
L 93.419498 70.877772 
L 93.450405 71.319723 
L 93.481313 71.74012 
L 93.51222 70.811991 
L 93.543128 71.257151 
L 93.574035 70.822553 
L 93.604943 71.267197 
L 93.852203 74.126321 
L 94.00674 70.359427 
L 94.161278 67.45903 
L 94.099463 70.722748 
L 94.192185 68.067716 
L 94.223093 68.646715 
L 94.254 66.780738 
L 94.346723 67.559241 
L 94.50126 69.321721 
L 94.717613 66.742296 
L 94.779428 67.998187 
L 94.841243 67.926826 
L 94.903058 65.20633 
L 95.026688 65.692088 
L 95.057595 66.386948 
L 95.088503 64.649398 
L 95.150318 65.019501 
L 95.273948 63.37705 
L 95.304855 64.184817 
L 95.36667 63.597247 
L 95.397578 62.111922 
L 95.4903 62.464289 
L 95.644838 66.329817 
L 95.675745 63.497098 
L 95.73756 65.06181 
L 95.892098 68.352769 
L 95.923005 66.911028 
L 96.046635 64.949596 
L 95.98482 67.051898 
L 96.077543 65.680668 
L 96.10845 66.376086 
L 96.170265 65.313238 
L 96.23208 63.506278 
L 96.293895 64.015693 
L 96.324803 64.792311 
L 96.35571 64.120678 
L 96.448433 60.073463 
L 96.47934 61.042347 
L 96.541155 62.84066 
L 96.633878 58.50004 
L 96.664785 59.54566 
L 96.7266 59.014568 
L 96.757508 60.035094 
L 96.819323 59.414941 
L 97.035675 53.522805 
L 97.190213 56.729785 
L 97.59201 67.823021 
L 97.993808 73.6142 
L 98.395605 76.637461 
L 98.797403 78.215743 
L 99.230108 79.08357 
L 99.69372 79.535252 
L 100.280963 79.783236 
L 101.239095 79.906431 
L 103.371713 79.93857 
L 103.40262 79.000277 
L 103.495343 79.13112 
L 103.742603 79.397667 
L 103.77351 78.422739 
L 103.866233 78.634029 
L 104.175308 79.14774 
L 104.237123 76.26663 
L 104.298938 76.616161 
L 104.422568 77.218602 
L 104.484383 75.324532 
L 104.546198 75.763715 
L 104.577105 75.967377 
L 104.608013 74.957221 
L 104.669828 75.431359 
L 104.731643 75.860377 
L 105.00981 70.29559 
L 105.071625 71.213341 
L 105.102533 69.351009 
L 105.164348 70.358648 
L 105.25707 71.693201 
L 105.287978 70.893636 
L 105.349793 68.410973 
L 105.411608 69.508069 
L 105.50433 70.9611 
L 105.689775 65.985141 
L 105.720683 65.378627 
L 105.75159 66.088775 
L 105.937035 68.59427 
L 106.029758 65.888567 
L 106.091573 67.225701 
L 106.12248 67.845766 
L 106.153388 67.126826 
L 106.184295 67.751713 
L 106.215203 67.206122 
L 106.24611 67.827141 
L 106.400648 69.393487 
L 106.555185 65.687765 
L 106.617 65.74169 
L 106.709723 65.37213 
L 106.771538 66.758409 
L 106.833353 64.484651 
L 106.895168 65.955384 
L 106.956983 65.054864 
L 107.11152 58.528726 
L 107.296965 51.492488 
L 107.327873 52.879871 
L 107.451503 55.627193 
L 107.48241 54.508358 
L 107.575133 54.801672 
L 107.698763 59.358406 
L 107.760578 59.077143 
L 107.791485 58.872979 
L 107.946023 56.527703 
L 108.316913 66.361878 
L 108.71871 72.851416 
L 109.120508 76.239253 
L 109.522305 78.00786 
L 109.95501 78.980338 
L 110.418623 79.486489 
L 110.974958 79.755393 
L 111.160403 79.803142 
L 111.19131 78.60788 
L 111.284033 78.793381 
L 111.593108 79.244392 
L 111.624015 78.247615 
L 111.716738 78.483298 
L 112.149443 79.216433 
L 112.18035 79.251704 
L 112.211258 78.028083 
L 112.30398 78.294345 
L 112.334888 78.374586 
L 112.365795 77.371598 
L 112.458518 77.729303 
L 112.736685 78.530261 
L 112.829408 76.632539 
L 112.891223 76.947249 
L 113.014853 77.489674 
L 113.107575 75.826166 
L 113.16939 76.217613 
L 113.323928 77.040919 
L 113.41665 73.254168 
L 113.447558 73.580222 
L 113.571188 74.732986 
L 113.818448 68.94742 
L 113.849355 69.483516 
L 113.880263 69.993466 
L 113.91117 69.194988 
L 114.0348 65.982148 
L 114.15843 67.4539 
L 114.189338 66.718587 
L 114.220245 67.363385 
L 114.312968 68.130012 
L 114.498413 64.946518 
L 114.52932 65.67774 
L 114.714765 68.263519 
L 114.745673 66.537528 
L 114.838395 67.352925 
L 114.869303 66.839237 
L 114.90021 67.478149 
L 114.931118 68.085903 
L 114.962025 67.42461 
L 115.116563 63.581704 
L 115.209285 63.660311 
L 115.302008 65.927888 
L 115.39473 65.903428 
L 115.425638 65.609007 
L 115.456545 66.307919 
L 115.487453 65.802761 
L 115.51836 66.492224 
L 115.549268 66.023438 
L 115.580175 64.587379 
L 115.64199 64.807032 
L 115.796528 68.154347 
L 115.827435 67.443625 
L 115.858343 66.912745 
L 115.88925 67.548073 
L 115.920158 68.152416 
L 115.951065 67.50405 
L 116.01288 67.528917 
L 116.074695 63.1026 
L 116.229233 58.011355 
L 116.321955 60.143276 
L 116.352863 59.990049 
L 116.414678 56.297945 
L 116.476493 57.626798 
L 116.569215 59.501052 
L 116.600123 59.20374 
L 116.63103 58.003545 
L 116.692845 59.092112 
L 116.723753 58.963207 
L 116.847383 54.126141 
L 116.909198 55.440791 
L 116.971013 55.778296 
L 117.063735 53.556647 
L 117.465533 66.166497 
L 117.86733 72.749418 
L 118.269128 76.186005 
L 118.670925 77.980062 
L 119.10363 78.966534 
L 119.567243 79.479968 
L 120.123578 79.752742 
L 120.988988 79.893539 
L 121.854398 79.928259 
L 121.885305 78.67634 
L 121.978028 78.852306 
L 122.039843 78.955778 
L 122.07075 77.858873 
L 122.163473 78.148704 
L 122.56527 79.004681 
L 122.627085 76.80814 
L 122.719808 77.24433 
L 122.81253 77.619763 
L 122.93616 76.230847 
L 122.997975 76.583783 
L 123.121605 73.932434 
L 123.152513 74.225407 
L 123.245235 75.021351 
L 123.461588 71.208156 
L 123.708848 73.15203 
L 123.770663 73.797954 
L 123.80157 73.074016 
L 123.832478 73.408856 
L 123.863385 72.683872 
L 123.9252 73.374348 
L 123.956108 73.69454 
L 123.987015 72.908095 
L 124.017923 73.251026 
L 124.203368 68.914238 
L 124.234275 69.451952 
L 124.450628 71.51949 
L 124.54335 69.60537 
L 124.574258 70.109378 
L 124.759703 71.686191 
L 124.79061 70.027105 
L 124.852425 70.970406 
L 124.883333 71.407839 
L 124.91424 70.742451 
L 125.099685 67.936505 
L 125.130593 68.521903 
L 125.1615 66.504531 
L 125.254223 67.29833 
L 125.28513 67.914853 
L 125.316038 67.379747 
L 125.563298 61.875992 
L 125.377853 67.485041 
L 125.65602 63.269136 
L 125.686928 64.082165 
L 125.717835 61.998091 
L 125.77965 61.487695 
L 125.841465 59.956561 
L 125.872373 60.931145 
L 125.965095 62.315618 
L 126.088725 54.39156 
L 126.119633 54.489321 
L 126.335985 59.904506 
L 126.3978 57.406373 
L 126.428708 58.505333 
L 126.490523 60.545073 
L 126.52143 58.90538 
L 126.614153 58.453129 
L 126.64506 58.462157 
L 126.675968 59.509626 
L 126.706875 58.160765 
L 126.954135 51.565945 
L 126.985043 52.949744 
L 127.046858 51.966653 
L 127.108673 52.305725 
L 127.51047 65.513456 
L 127.912268 72.408501 
L 128.314065 76.008032 
L 128.715863 77.887152 
L 129.148568 78.920396 
L 129.61218 79.458174 
L 130.168515 79.743881 
L 130.879388 79.877644 
L 130.910295 78.789645 
L 131.003018 78.949828 
L 131.46663 79.472077 
L 132.022965 79.749533 
L 132.362948 79.829951 
L 132.393855 78.679108 
L 132.486578 78.854688 
L 132.5793 79.005811 
L 132.610208 77.938973 
L 132.70293 78.217648 
L 132.888375 78.663952 
L 133.042913 76.831946 
L 133.07382 75.855961 
L 133.166543 76.424782 
L 133.19745 75.555295 
L 133.259265 75.972518 
L 133.351988 76.525104 
L 133.382895 75.595833 
L 133.44471 76.0092 
L 133.475618 76.200888 
L 133.506525 75.05576 
L 133.599248 75.736043 
L 133.630155 74.715433 
L 133.69197 75.21258 
L 133.908323 76.608532 
L 134.001045 74.858491 
L 134.031953 75.106301 
L 134.155583 75.982433 
L 134.18649 74.970938 
L 134.248305 75.44377 
L 134.371935 76.25873 
L 134.495565 74.711749 
L 134.619195 75.659401 
L 134.68101 73.762937 
L 134.742825 74.350726 
L 135.082808 76.715109 
L 135.268253 73.339774 
L 135.391883 74.536123 
L 135.42279 73.674661 
L 135.484605 74.270851 
L 135.515513 74.54732 
L 136.071848 59.082741 
L 136.102755 60.099942 
L 136.195478 62.863449 
L 136.257293 62.079671 
L 136.2882 61.823919 
L 136.473645 64.458148 
L 136.504553 64.238177 
L 136.53546 61.527678 
L 136.597275 63.279805 
L 136.65909 62.28015 
L 136.78272 65.481268 
L 136.813628 64.874653 
L 136.844535 61.200455 
L 136.937258 61.770448 
L 136.968165 61.693878 
L 137.060888 59.618339 
L 137.091795 54.543425 
L 137.184518 56.806451 
L 137.215425 57.934668 
L 137.246333 55.492257 
L 137.369963 50.486082 
L 137.40087 50.800987 
L 137.431778 50.962821 
L 137.833575 64.812402 
L 138.235373 72.042517 
L 138.63717 75.816971 
L 139.038968 77.787409 
L 139.471673 78.870865 
L 139.904378 79.408894 
L 140.429805 79.712781 
L 141.202493 79.874632 
L 142.871498 79.935256 
L 145.869525 79.939589 
L 145.900433 78.793943 
L 145.993155 78.953527 
L 146.085878 79.090882 
L 146.116785 77.938883 
L 146.209508 78.21757 
L 146.580398 78.99454 
L 146.611305 77.090079 
L 146.704028 77.486998 
L 146.734935 77.606614 
L 146.765843 76.793378 
L 146.858565 77.231624 
L 146.951288 77.608827 
L 147.136733 74.66 
L 147.260363 75.617033 
L 147.29127 74.663008 
L 147.353085 75.165143 
L 147.4149 75.619495 
L 147.445808 74.710401 
L 147.507623 75.208027 
L 147.66216 76.254652 
L 147.723975 74.241288 
L 147.78579 74.783556 
L 148.125773 76.96483 
L 148.15668 76.074984 
L 148.218495 76.442753 
L 148.249403 76.613297 
L 148.28031 75.638423 
L 148.342125 76.047737 
L 148.434848 76.589845 
L 148.558478 75.234493 
L 148.620293 75.682245 
L 148.6512 74.714227 
L 148.713015 75.211489 
L 148.743923 75.442083 
L 148.929368 71.670028 
L 148.960275 72.073341 
L 149.02209 71.593944 
L 149.176628 73.440001 
L 149.26935 74.345346 
L 149.423888 70.454997 
L 149.702055 65.074389 
L 149.918408 68.362782 
L 150.196575 62.821779 
L 150.227483 63.656626 
L 150.25839 64.450757 
L 150.289298 62.702259 
L 150.351113 62.128601 
L 150.38202 62.997254 
L 150.50565 58.523845 
L 150.536558 58.569433 
L 150.567465 58.383982 
L 150.598373 59.435263 
L 150.62928 57.011262 
L 150.691095 56.967211 
L 150.814725 58.902099 
L 150.845633 58.798849 
L 150.87654 58.661063 
L 150.907448 59.698831 
L 150.938355 57.194918 
L 150.969263 57.152821 
L 151.185615 52.774381 
L 151.525598 62.913957 
L 151.927395 71.051444 
L 152.329193 75.299585 
L 152.73099 77.51731 
L 153.163695 78.736738 
L 153.5964 79.342288 
L 154.09092 79.671223 
L 154.801793 79.854638 
L 156.19263 79.930666 
L 157.274393 79.938067 
L 157.3053 78.652646 
L 157.398023 78.831911 
L 157.583468 79.11901 
L 157.583468 79.11901 
" clip-path="url(#p0252d1e0b2)" style="fill: none; stroke: #1a1a1a; stroke-width: 0.9; stroke-linejoin: miter"/>
   </g>
   <g id="line2d_10">
    <path d="M 33.984375 17.430533 
L 157.614375 17.430533 
" clip-path="url(#p0252d1e0b2)" style="fill: none; stroke-dasharray: 0.7,1.155; stroke-dashoffset: 0; stroke: #bbbbbb; stroke-width: 0.7"/>
   </g>
   <g id="patch_3">
    <path d="M 33.984375 83.065078 
L 33.984375 14.305078 
" style="fill: none; stroke: #1a1a1a; stroke-width: 0.8; stroke-linejoin: miter; stroke-linecap: square"/>
   </g>
   <g id="patch_4">
    <path d="M 157.614375 83.065078 
L 157.614375 14.305078 
" style="fill: none; stroke: #1a1a1a; stroke-width: 0.8; stroke-linejoin: miter; stroke-linecap: square"/>
   </g>
   <g id="patch_5">
    <path d="M 33.984375 83.065078 
L 157.614375 83.065078 
" style="fill: none; stroke: #1a1a1a; stroke-width: 0.8; stroke-linejoin: miter; stroke-linecap: square"/>
   </g>
   <g id="patch_6">
    <path d="M 33.984375 14.305078 
L 157.614375 14.305078 
" style="fill: none; stroke: #1a1a1a; stroke-width: 0.8; stroke-linejoin: miter; stroke-linecap: square"/>
   </g>
   <g id="text_11">
    <!-- PING — recurrent loop active (ei-strength = 1.5) — I-neuron conductances (cell 38) -->
    <g style="fill: #1a1a1a" transform="translate(33.984375 8.305078) scale(0.085 -0.085)">
     <defs>
      <path id="Menlo-Regular-50" d="M 1247 4147 
L 1247 2394 
L 1978 2394 
Q 2416 2394 2661 2625 
Q 2906 2856 2906 3272 
Q 2906 3688 2662 3917 
Q 2419 4147 1978 4147 
L 1247 4147 
z
M 616 4666 
L 1978 4666 
Q 2759 4666 3162 4311 
Q 3566 3956 3566 3272 
Q 3566 2581 3164 2228 
Q 2763 1875 1978 1875 
L 1247 1875 
L 1247 0 
L 616 0 
L 616 4666 
z
" transform="scale(0.015625)"/>
      <path id="Menlo-Regular-49" d="M 628 4666 
L 3219 4666 
L 3219 4134 
L 2241 4134 
L 2241 531 
L 3219 531 
L 3219 0 
L 628 0 
L 628 531 
L 1606 531 
L 1606 4134 
L 628 4134 
L 628 4666 
z
" transform="scale(0.015625)"/>
      <path id="Menlo-Regular-4e" d="M 59 4650 
L 922 4650 
L 2747 822 
L 2747 4650 
L 3419 4650 
L 3419 0 
L 2556 0 
L 731 3828 
L 731 0 
L 59 0 
L 59 4650 
z
" transform="scale(0.015625)"/>
      <path id="Menlo-Regular-47" d="M 3450 384 
Q 3197 150 2880 29 
Q 2563 -91 2194 -91 
Q 1306 -91 812 545 
Q 319 1181 319 2328 
Q 319 3472 819 4111 
Q 1319 4750 2209 4750 
Q 2503 4750 2772 4667 
Q 3041 4584 3291 4416 
L 3291 3769 
Q 3038 4009 2772 4123 
Q 2506 4238 2209 4238 
Q 1594 4238 1286 3761 
Q 978 3284 978 2328 
Q 978 1356 1276 889 
Q 1575 422 2194 422 
Q 2403 422 2561 470 
Q 2719 519 2847 622 
L 2847 1875 
L 2169 1875 
L 2169 2394 
L 3450 2394 
L 3450 384 
z
" transform="scale(0.015625)"/>
      <path id="Menlo-Regular-2014" d="M 0 2259 
L 3853 2259 
L 3853 1725 
L 0 1725 
L 0 2259 
z
" transform="scale(0.015625)"/>
      <path id="Menlo-Regular-72" d="M 3609 2778 
Q 3425 2922 3234 2987 
Q 3044 3053 2816 3053 
Q 2278 3053 1993 2715 
Q 1709 2378 1709 1741 
L 1709 0 
L 1131 0 
L 1131 3500 
L 1709 3500 
L 1709 2816 
Q 1853 3188 2151 3386 
Q 2450 3584 2859 3584 
Q 3072 3584 3256 3531 
Q 3441 3478 3609 3366 
L 3609 2778 
z
" transform="scale(0.015625)"/>
      <path id="Menlo-Regular-63" d="M 3316 178 
Q 3084 44 2839 -23 
Q 2594 -91 2338 -91 
Q 1525 -91 1067 396 
Q 609 884 609 1747 
Q 609 2609 1067 3096 
Q 1525 3584 2338 3584 
Q 2591 3584 2831 3518 
Q 3072 3453 3316 3316 
L 3316 2713 
Q 3088 2916 2858 3006 
Q 2628 3097 2338 3097 
Q 1797 3097 1506 2747 
Q 1216 2397 1216 1747 
Q 1216 1100 1508 748 
Q 1800 397 2338 397 
Q 2638 397 2875 489 
Q 3113 581 3316 775 
L 3316 178 
z
" transform="scale(0.015625)"/>
      <path id="Menlo-Regular-75" d="M 609 1325 
L 609 3494 
L 1184 3494 
L 1184 1325 
Q 1184 853 1351 631 
Q 1519 409 1869 409 
Q 2275 409 2490 695 
Q 2706 981 2706 1516 
L 2706 3494 
L 3284 3494 
L 3284 0 
L 2706 0 
L 2706 525 
Q 2553 222 2289 65 
Q 2025 -91 1672 -91 
Q 1134 -91 871 261 
Q 609 613 609 1325 
z
" transform="scale(0.015625)"/>
      <path id="Menlo-Regular-6e" d="M 3284 2169 
L 3284 0 
L 2706 0 
L 2706 2169 
Q 2706 2641 2540 2862 
Q 2375 3084 2022 3084 
Q 1619 3084 1401 2798 
Q 1184 2513 1184 1978 
L 1184 0 
L 609 0 
L 609 3500 
L 1184 3500 
L 1184 2975 
Q 1338 3275 1600 3429 
Q 1863 3584 2222 3584 
Q 2756 3584 3020 3232 
Q 3284 2881 3284 2169 
z
" transform="scale(0.015625)"/>
      <path id="Menlo-Regular-6c" d="M 2247 1266 
Q 2247 878 2389 681 
Q 2531 484 2809 484 
L 3481 484 
L 3481 0 
L 2753 0 
Q 2238 0 1955 329 
Q 1672 659 1672 1266 
L 1672 4431 
L 750 4431 
L 750 4881 
L 2247 4881 
L 2247 1266 
z
" transform="scale(0.015625)"/>
      <path id="Menlo-Regular-6f" d="M 1925 3097 
Q 1488 3097 1263 2756 
Q 1038 2416 1038 1747 
Q 1038 1081 1263 739 
Q 1488 397 1925 397 
Q 2366 397 2591 739 
Q 2816 1081 2816 1747 
Q 2816 2416 2591 2756 
Q 2366 3097 1925 3097 
z
M 1925 3584 
Q 2653 3584 3039 3112 
Q 3425 2641 3425 1747 
Q 3425 850 3040 379 
Q 2656 -91 1925 -91 
Q 1197 -91 812 379 
Q 428 850 428 1747 
Q 428 2641 812 3112 
Q 1197 3584 1925 3584 
z
" transform="scale(0.015625)"/>
      <path id="Menlo-Regular-70" d="M 1172 441 
L 1172 -1331 
L 594 -1331 
L 594 3500 
L 1172 3500 
L 1172 3053 
Q 1316 3313 1555 3448 
Q 1794 3584 2106 3584 
Q 2741 3584 3102 3093 
Q 3463 2603 3463 1734 
Q 3463 881 3100 395 
Q 2738 -91 2106 -91 
Q 1788 -91 1548 45 
Q 1309 181 1172 441 
z
M 2859 1747 
Q 2859 2416 2648 2756 
Q 2438 3097 2022 3097 
Q 1603 3097 1387 2755 
Q 1172 2413 1172 1747 
Q 1172 1084 1387 740 
Q 1603 397 2022 397 
Q 2438 397 2648 737 
Q 2859 1078 2859 1747 
z
" transform="scale(0.015625)"/>
      <path id="Menlo-Regular-61" d="M 2194 1759 
L 2003 1759 
Q 1500 1759 1245 1582 
Q 991 1406 991 1056 
Q 991 741 1181 566 
Q 1372 391 1709 391 
Q 2184 391 2456 720 
Q 2728 1050 2731 1631 
L 2731 1759 
L 2194 1759 
z
M 3309 1997 
L 3309 0 
L 2731 0 
L 2731 519 
Q 2547 206 2267 57 
Q 1988 -91 1588 -91 
Q 1053 -91 734 211 
Q 416 513 416 1019 
Q 416 1603 808 1906 
Q 1200 2209 1959 2209 
L 2731 2209 
L 2731 2300 
Q 2728 2719 2518 2908 
Q 2309 3097 1850 3097 
Q 1556 3097 1256 3012 
Q 956 2928 672 2766 
L 672 3341 
Q 991 3463 1283 3523 
Q 1575 3584 1850 3584 
Q 2284 3584 2592 3456 
Q 2900 3328 3091 3072 
Q 3209 2916 3259 2686 
Q 3309 2456 3309 1997 
z
" transform="scale(0.015625)"/>
      <path id="Menlo-Regular-76" d="M 313 3500 
L 909 3500 
L 1925 563 
L 2944 3500 
L 3541 3500 
L 2297 0 
L 1556 0 
L 313 3500 
z
" transform="scale(0.015625)"/>
      <path id="Menlo-Regular-2d" d="M 319 2263 
L 3631 2263 
L 3631 1734 
L 319 1734 
L 319 2263 
z
" transform="scale(0.015625)"/>
      <path id="Menlo-Regular-68" d="M 3284 2169 
L 3284 0 
L 2706 0 
L 2706 2169 
Q 2706 2641 2540 2862 
Q 2375 3084 2022 3084 
Q 1619 3084 1401 2798 
Q 1184 2513 1184 1978 
L 1184 0 
L 609 0 
L 609 4863 
L 1184 4863 
L 1184 2975 
Q 1338 3275 1600 3429 
Q 1863 3584 2222 3584 
Q 2756 3584 3020 3232 
Q 3284 2881 3284 2169 
z
" transform="scale(0.015625)"/>
      <path id="Menlo-Regular-3d" d="M 275 1563 
L 3578 1563 
L 3578 1034 
L 275 1034 
L 275 1563 
z
M 275 3034 
L 3578 3034 
L 3578 2506 
L 275 2506 
L 275 3034 
z
" transform="scale(0.015625)"/>
      <path id="Menlo-Regular-64" d="M 2681 3053 
L 2681 4863 
L 3256 4863 
L 3256 0 
L 2681 0 
L 2681 441 
Q 2538 181 2298 45 
Q 2059 -91 1747 -91 
Q 1113 -91 748 401 
Q 384 894 384 1759 
Q 384 2613 750 3098 
Q 1116 3584 1747 3584 
Q 2063 3584 2303 3448 
Q 2544 3313 2681 3053 
z
M 991 1747 
Q 991 1078 1203 737 
Q 1416 397 1831 397 
Q 2247 397 2464 740 
Q 2681 1084 2681 1747 
Q 2681 2413 2464 2755 
Q 2247 3097 1831 3097 
Q 1416 3097 1203 2756 
Q 991 2416 991 1747 
z
" transform="scale(0.015625)"/>
      <path id="Menlo-Regular-38" d="M 1925 2216 
Q 1503 2216 1273 1980 
Q 1044 1744 1044 1313 
Q 1044 881 1276 642 
Q 1509 403 1925 403 
Q 2350 403 2579 639 
Q 2809 875 2809 1313 
Q 2809 1741 2576 1978 
Q 2344 2216 1925 2216 
z
M 1375 2478 
Q 972 2581 745 2862 
Q 519 3144 519 3541 
Q 519 4097 897 4423 
Q 1275 4750 1925 4750 
Q 2578 4750 2956 4423 
Q 3334 4097 3334 3541 
Q 3334 3144 3107 2862 
Q 2881 2581 2478 2478 
Q 2947 2375 3195 2062 
Q 3444 1750 3444 1253 
Q 3444 622 3041 265 
Q 2638 -91 1925 -91 
Q 1213 -91 811 264 
Q 409 619 409 1247 
Q 409 1747 657 2061 
Q 906 2375 1375 2478 
z
M 1147 3481 
Q 1147 3106 1347 2909 
Q 1547 2713 1925 2713 
Q 2306 2713 2506 2909 
Q 2706 3106 2706 3481 
Q 2706 3863 2507 4063 
Q 2309 4263 1925 4263 
Q 1547 4263 1347 4061 
Q 1147 3859 1147 3481 
z
" transform="scale(0.015625)"/>
     </defs>
     <use xlink:href="#Menlo-Regular-50"/>
     <use xlink:href="#Menlo-Regular-49" transform="translate(60.205078 0)"/>
     <use xlink:href="#Menlo-Regular-4e" transform="translate(120.410156 0)"/>
     <use xlink:href="#Menlo-Regular-47" transform="translate(180.615234 0)"/>
     <use xlink:href="#Menlo-Regular-20" transform="translate(240.820312 0)"/>
     <use xlink:href="#Menlo-Regular-2014" transform="translate(301.025391 0)"/>
     <use xlink:href="#Menlo-Regular-20" transform="translate(361.230469 0)"/>
     <use xlink:href="#Menlo-Regular-72" transform="translate(421.435547 0)"/>
     <use xlink:href="#Menlo-Regular-65" transform="translate(481.640625 0)"/>
     <use xlink:href="#Menlo-Regular-63" transform="translate(541.845703 0)"/>
     <use xlink:href="#Menlo-Regular-75" transform="translate(602.050781 0)"/>
     <use xlink:href="#Menlo-Regular-72" transform="translate(662.255859 0)"/>
     <use xlink:href="#Menlo-Regular-72" transform="translate(722.460938 0)"/>
     <use xlink:href="#Menlo-Regular-65" transform="translate(782.666016 0)"/>
     <use xlink:href="#Menlo-Regular-6e" transform="translate(842.871094 0)"/>
     <use xlink:href="#Menlo-Regular-74" transform="translate(903.076172 0)"/>
     <use xlink:href="#Menlo-Regular-20" transform="translate(963.28125 0)"/>
     <use xlink:href="#Menlo-Regular-6c" transform="translate(1023.486328 0)"/>
     <use xlink:href="#Menlo-Regular-6f" transform="translate(1083.691406 0)"/>
     <use xlink:href="#Menlo-Regular-6f" transform="translate(1143.896484 0)"/>
     <use xlink:href="#Menlo-Regular-70" transform="translate(1204.101562 0)"/>
     <use xlink:href="#Menlo-Regular-20" transform="translate(1264.306641 0)"/>
     <use xlink:href="#Menlo-Regular-61" transform="translate(1324.511719 0)"/>
     <use xlink:href="#Menlo-Regular-63" transform="translate(1384.716797 0)"/>
     <use xlink:href="#Menlo-Regular-74" transform="translate(1444.921875 0)"/>
     <use xlink:href="#Menlo-Regular-69" transform="translate(1505.126953 0)"/>
     <use xlink:href="#Menlo-Regular-76" transform="translate(1565.332031 0)"/>
     <use xlink:href="#Menlo-Regular-65" transform="translate(1625.537109 0)"/>
     <use xlink:href="#Menlo-Regular-20" transform="translate(1685.742188 0)"/>
     <use xlink:href="#Menlo-Regular-28" transform="translate(1745.947266 0)"/>
     <use xlink:href="#Menlo-Regular-65" transform="translate(1806.152344 0)"/>
     <use xlink:href="#Menlo-Regular-69" transform="translate(1866.357422 0)"/>
     <use xlink:href="#Menlo-Regular-2d" transform="translate(1926.5625 0)"/>
     <use xlink:href="#Menlo-Regular-73" transform="translate(1986.767578 0)"/>
     <use xlink:href="#Menlo-Regular-74" transform="translate(2046.972656 0)"/>
     <use xlink:href="#Menlo-Regular-72" transform="translate(2107.177734 0)"/>
     <use xlink:href="#Menlo-Regular-65" transform="translate(2167.382812 0)"/>
     <use xlink:href="#Menlo-Regular-6e" transform="translate(2227.587891 0)"/>
     <use xlink:href="#Menlo-Regular-67" transform="translate(2287.792969 0)"/>
     <use xlink:href="#Menlo-Regular-74" transform="translate(2347.998047 0)"/>
     <use xlink:href="#Menlo-Regular-68" transform="translate(2408.203125 0)"/>
     <use xlink:href="#Menlo-Regular-20" transform="translate(2468.408203 0)"/>
     <use xlink:href="#Menlo-Regular-3d" transform="translate(2528.613281 0)"/>
     <use xlink:href="#Menlo-Regular-20" transform="translate(2588.818359 0)"/>
     <use xlink:href="#Menlo-Regular-31" transform="translate(2649.023438 0)"/>
     <use xlink:href="#Menlo-Regular-2e" transform="translate(2709.228516 0)"/>
     <use xlink:href="#Menlo-Regular-35" transform="translate(2769.433594 0)"/>
     <use xlink:href="#Menlo-Regular-29" transform="translate(2829.638672 0)"/>
     <use xlink:href="#Menlo-Regular-20" transform="translate(2889.84375 0)"/>
     <use xlink:href="#Menlo-Regular-2014" transform="translate(2950.048828 0)"/>
     <use xlink:href="#Menlo-Regular-20" transform="translate(3010.253906 0)"/>
     <use xlink:href="#Menlo-Regular-49" transform="translate(3070.458984 0)"/>
     <use xlink:href="#Menlo-Regular-2d" transform="translate(3130.664062 0)"/>
     <use xlink:href="#Menlo-Regular-6e" transform="translate(3190.869141 0)"/>
     <use xlink:href="#Menlo-Regular-65" transform="translate(3251.074219 0)"/>
     <use xlink:href="#Menlo-Regular-75" transform="translate(3311.279297 0)"/>
     <use xlink:href="#Menlo-Regular-72" transform="translate(3371.484375 0)"/>
     <use xlink:href="#Menlo-Regular-6f" transform="translate(3431.689453 0)"/>
     <use xlink:href="#Menlo-Regular-6e" transform="translate(3491.894531 0)"/>
     <use xlink:href="#Menlo-Regular-20" transform="translate(3552.099609 0)"/>
     <use xlink:href="#Menlo-Regular-63" transform="translate(3612.304688 0)"/>
     <use xlink:href="#Menlo-Regular-6f" transform="translate(3672.509766 0)"/>
     <use xlink:href="#Menlo-Regular-6e" transform="translate(3732.714844 0)"/>
     <use xlink:href="#Menlo-Regular-64" transform="translate(3792.919922 0)"/>
     <use xlink:href="#Menlo-Regular-75" transform="translate(3853.125 0)"/>
     <use xlink:href="#Menlo-Regular-63" transform="translate(3913.330078 0)"/>
     <use xlink:href="#Menlo-Regular-74" transform="translate(3973.535156 0)"/>
     <use xlink:href="#Menlo-Regular-61" transform="translate(4033.740234 0)"/>
     <use xlink:href="#Menlo-Regular-6e" transform="translate(4093.945312 0)"/>
     <use xlink:href="#Menlo-Regular-63" transform="translate(4154.150391 0)"/>
     <use xlink:href="#Menlo-Regular-65" transform="translate(4214.355469 0)"/>
     <use xlink:href="#Menlo-Regular-73" transform="translate(4274.560547 0)"/>
     <use xlink:href="#Menlo-Regular-20" transform="translate(4334.765625 0)"/>
     <use xlink:href="#Menlo-Regular-28" transform="translate(4394.970703 0)"/>
     <use xlink:href="#Menlo-Regular-63" transform="translate(4455.175781 0)"/>
     <use xlink:href="#Menlo-Regular-65" transform="translate(4515.380859 0)"/>
     <use xlink:href="#Menlo-Regular-6c" transform="translate(4575.585938 0)"/>
     <use xlink:href="#Menlo-Regular-6c" transform="translate(4635.791016 0)"/>
     <use xlink:href="#Menlo-Regular-20" transform="translate(4695.996094 0)"/>
     <use xlink:href="#Menlo-Regular-33" transform="translate(4756.201172 0)"/>
     <use xlink:href="#Menlo-Regular-38" transform="translate(4816.40625 0)"/>
     <use xlink:href="#Menlo-Regular-29" transform="translate(4876.611328 0)"/>
    </g>
   </g>
   <g id="legend_1">
    <g id="patch_7">
     <path d="M 89.572188 41.220078 
L 154.114375 41.220078 
L 154.114375 17.805078 
L 89.572188 17.805078 
z
" style="fill: #ffffff; stroke: #1a1a1a; stroke-width: 0.8; stroke-linejoin: miter"/>
    </g>
    <g id="line2d_11">
     <path d="M 92.372188 23.808672 
L 97.972188 23.808672 
L 103.572188 23.808672 
" style="fill: none; stroke: #1a1a1a; stroke-width: 0.9; stroke-linejoin: miter"/>
    </g>
    <g id="text_12">
     <!-- g_E (exc) -->
     <g style="fill: #1a1a1a" transform="translate(109.172188 26.258672) scale(0.07 -0.07)">
      <defs>
       <path id="Menlo-Regular-5f" d="M 3825 -594 
L 3825 -1125 
L 0 -1125 
L 0 -594 
L 3825 -594 
z
" transform="scale(0.015625)"/>
       <path id="Menlo-Regular-45" d="M 616 4666 
L 3384 4666 
L 3384 4134 
L 1247 4134 
L 1247 2878 
L 3291 2878 
L 3291 2347 
L 1247 2347 
L 1247 531 
L 3444 531 
L 3444 0 
L 616 0 
L 616 4666 
z
" transform="scale(0.015625)"/>
       <path id="Menlo-Regular-78" d="M 3494 3500 
L 2241 1825 
L 3616 0 
L 2950 0 
L 1925 1403 
L 903 0 
L 238 0 
L 1613 1825 
L 359 3500 
L 997 3500 
L 1925 2234 
L 2847 3500 
L 3494 3500 
z
" transform="scale(0.015625)"/>
      </defs>
      <use xlink:href="#Menlo-Regular-67"/>
      <use xlink:href="#Menlo-Regular-5f" transform="translate(60.205078 0)"/>
      <use xlink:href="#Menlo-Regular-45" transform="translate(120.410156 0)"/>
      <use xlink:href="#Menlo-Regular-20" transform="translate(180.615234 0)"/>
      <use xlink:href="#Menlo-Regular-28" transform="translate(240.820312 0)"/>
      <use xlink:href="#Menlo-Regular-65" transform="translate(301.025391 0)"/>
      <use xlink:href="#Menlo-Regular-78" transform="translate(361.230469 0)"/>
      <use xlink:href="#Menlo-Regular-63" transform="translate(421.435547 0)"/>
      <use xlink:href="#Menlo-Regular-29" transform="translate(481.640625 0)"/>
     </g>
    </g>
    <g id="line2d_12">
     <path d="M 92.372188 34.466172 
L 97.972188 34.466172 
L 103.572188 34.466172 
" style="fill: none; stroke-dasharray: 0.7,1.155; stroke-dashoffset: 0; stroke: #bbbbbb; stroke-width: 0.7"/>
    </g>
    <g id="text_13">
     <!-- g_L (leak) -->
     <g style="fill: #1a1a1a" transform="translate(109.172188 36.916172) scale(0.07 -0.07)">
      <defs>
       <path id="Menlo-Regular-4c" d="M 672 4666 
L 1306 4666 
L 1306 531 
L 3559 531 
L 3559 0 
L 672 0 
L 672 4666 
z
" transform="scale(0.015625)"/>
       <path id="Menlo-Regular-6b" d="M 738 4863 
L 1331 4863 
L 1331 2047 
L 2841 3500 
L 3541 3500 
L 2163 2181 
L 3756 0 
L 3053 0 
L 1759 1806 
L 1331 1403 
L 1331 0 
L 738 0 
L 738 4863 
z
" transform="scale(0.015625)"/>
      </defs>
      <use xlink:href="#Menlo-Regular-67"/>
      <use xlink:href="#Menlo-Regular-5f" transform="translate(60.205078 0)"/>
      <use xlink:href="#Menlo-Regular-4c" transform="translate(120.410156 0)"/>
      <use xlink:href="#Menlo-Regular-20" transform="translate(180.615234 0)"/>
      <use xlink:href="#Menlo-Regular-28" transform="translate(240.820312 0)"/>
      <use xlink:href="#Menlo-Regular-6c" transform="translate(301.025391 0)"/>
      <use xlink:href="#Menlo-Regular-65" transform="translate(361.230469 0)"/>
      <use xlink:href="#Menlo-Regular-61" transform="translate(421.435547 0)"/>
      <use xlink:href="#Menlo-Regular-6b" transform="translate(481.640625 0)"/>
      <use xlink:href="#Menlo-Regular-29" transform="translate(541.845703 0)"/>
     </g>
    </g>
   </g>
  </g>
 </g>
 <defs>
  <clipPath id="p0252d1e0b2">
   <rect x="33.984375" y="14.305078" width="123.63" height="68.76"/>
  </clipPath>
 </defs>
</svg>
