<?xml version="1.0" encoding="utf-8" standalone="no"?>
<!DOCTYPE svg PUBLIC "-//W3C//DTD SVG 1.1//EN"
  "http://www.w3.org/Graphics/SVG/1.1/DTD/svg11.dtd">
<svg xmlns:xlink="http://www.w3.org/1999/xlink" width="432.107969pt" height="106.564453pt" viewBox="0 0 432.107969 106.564453" xmlns="http://www.w3.org/2000/svg" version="1.1">
 <metadata>
  <rdf:RDF xmlns:dc="http://purl.org/dc/elements/1.1/" xmlns:cc="http://creativecommons.org/ns#" xmlns:rdf="http://www.w3.org/1999/02/22-rdf-syntax-ns#">
   <cc:Work>
    <dc:type rdf:resource="http://purl.org/dc/dcmitype/StillImage"/>
    <dc:date>2026-07-02T13:38:52.397300</dc:date>
    <dc:format>image/svg+xml</dc:format>
    <dc:creator>
     <cc:Agent>
      <dc:title>Matplotlib v3.10.8, https://matplotlib.org/</dc:title>
     </cc:Agent>
    </dc:creator>
   </cc:Work>
  </rdf:RDF>
 </metadata>
 <defs>
  <style type="text/css">*{stroke-linejoin: round; stroke-linecap: butt}</style>
 </defs>
 <g id="figure_1">
  <g id="patch_1">
   <path d="M 0 106.564453 
L 432.107969 106.564453 
L 432.107969 0 
L 0 0 
z
" style="fill: #ffffff"/>
  </g>
  <g id="axes_1">
   <g id="patch_2">
    <path d="M 21.286719 83.065078 
L 158.506719 83.065078 
L 158.506719 14.305078 
L 21.286719 14.305078 
z
" style="fill: #ffffff"/>
   </g>
   <g id="matplotlib.axis_1">
    <g id="xtick_1">
     <g id="line2d_1">
      <defs>
       <path id="m5e96b109e8" d="M 0 0 
L 0 -3 
" style="stroke: #1a1a1a; stroke-width: 0.8"/>
      </defs>
      <g>
       <use xlink:href="#m5e96b109e8" x="21.286719" y="83.065078" style="fill: #1a1a1a; stroke: #1a1a1a; stroke-width: 0.8"/>
      </g>
     </g>
     <g id="text_1">
      <!-- 0 -->
      <g style="fill: #1a1a1a" transform="translate(19.179609 91.903672) scale(0.07 -0.07)">
       <defs>
        <path id="Menlo-Regular-30" d="M 1925 4734 
Q 2672 4734 3055 4125 
Q 3438 3516 3438 2322 
Q 3438 1128 3055 518 
Q 2672 -91 1925 -91 
Q 1178 -91 797 518 
Q 416 1128 416 2322 
Q 416 3516 797 4125 
Q 1178 4734 1925 4734 
z
M 1925 409 
Q 2369 409 2586 881 
Q 2803 1353 2803 2322 
Q 2803 2838 2741 3253 
L 1253 925 
Q 1488 409 1925 409 
z
M 1925 4234 
Q 1484 4234 1267 3762 
Q 1050 3291 1050 2322 
Q 1050 1881 1109 1497 
L 2566 3819 
Q 2328 4234 1925 4234 
z
" transform="scale(0.015625)"/>
       </defs>
       <use xlink:href="#Menlo-Regular-30"/>
      </g>
     </g>
    </g>
    <g id="xtick_2">
     <g id="line2d_2">
      <g>
       <use xlink:href="#m5e96b109e8" x="55.591718" y="83.065078" style="fill: #1a1a1a; stroke: #1a1a1a; stroke-width: 0.8"/>
      </g>
     </g>
     <g id="text_2">
      <!-- 100 -->
      <g style="fill: #1a1a1a" transform="translate(49.27039 91.903672) scale(0.07 -0.07)">
       <defs>
        <path id="Menlo-Regular-31" d="M 844 528 
L 1825 528 
L 1825 4053 
L 650 3488 
L 650 4094 
L 1819 4650 
L 2450 4650 
L 2450 528 
L 3419 528 
L 3419 0 
L 844 0 
L 844 528 
z
" transform="scale(0.015625)"/>
       </defs>
       <use xlink:href="#Menlo-Regular-31"/>
       <use xlink:href="#Menlo-Regular-30" transform="translate(60.205078 0)"/>
       <use xlink:href="#Menlo-Regular-30" transform="translate(120.410156 0)"/>
      </g>
     </g>
    </g>
    <g id="xtick_3">
     <g id="line2d_3">
      <g>
       <use xlink:href="#m5e96b109e8" x="89.896718" y="83.065078" style="fill: #1a1a1a; stroke: #1a1a1a; stroke-width: 0.8"/>
      </g>
     </g>
     <g id="text_3">
      <!-- 200 -->
      <g style="fill: #1a1a1a" transform="translate(83.57539 91.903672) scale(0.07 -0.07)">
       <defs>
        <path id="Menlo-Regular-32" d="M 1166 531 
L 3309 531 
L 3309 0 
L 475 0 
L 475 531 
Q 1059 1147 1496 1619 
Q 1934 2091 2100 2284 
Q 2413 2666 2522 2902 
Q 2631 3138 2631 3384 
Q 2631 3775 2401 3997 
Q 2172 4219 1772 4219 
Q 1488 4219 1175 4116 
Q 863 4013 513 3803 
L 513 4441 
Q 834 4594 1145 4672 
Q 1456 4750 1759 4750 
Q 2444 4750 2861 4386 
Q 3278 4022 3278 3431 
Q 3278 3131 3139 2831 
Q 3000 2531 2688 2169 
Q 2513 1966 2180 1606 
Q 1847 1247 1166 531 
z
" transform="scale(0.015625)"/>
       </defs>
       <use xlink:href="#Menlo-Regular-32"/>
       <use xlink:href="#Menlo-Regular-30" transform="translate(60.205078 0)"/>
       <use xlink:href="#Menlo-Regular-30" transform="translate(120.410156 0)"/>
      </g>
     </g>
    </g>
    <g id="xtick_4">
     <g id="line2d_4">
      <g>
       <use xlink:href="#m5e96b109e8" x="124.201717" y="83.065078" style="fill: #1a1a1a; stroke: #1a1a1a; stroke-width: 0.8"/>
      </g>
     </g>
     <g id="text_4">
      <!-- 300 -->
      <g style="fill: #1a1a1a" transform="translate(117.880389 91.903672) scale(0.07 -0.07)">
       <defs>
        <path id="Menlo-Regular-33" d="M 2425 2497 
Q 2884 2375 3128 2064 
Q 3372 1753 3372 1288 
Q 3372 644 2939 276 
Q 2506 -91 1741 -91 
Q 1419 -91 1084 -31 
Q 750 28 428 141 
L 428 769 
Q 747 603 1056 522 
Q 1366 441 1672 441 
Q 2191 441 2469 675 
Q 2747 909 2747 1350 
Q 2747 1756 2469 1995 
Q 2191 2234 1716 2234 
L 1234 2234 
L 1234 2753 
L 1716 2753 
Q 2150 2753 2394 2943 
Q 2638 3134 2638 3475 
Q 2638 3834 2411 4026 
Q 2184 4219 1766 4219 
Q 1488 4219 1191 4156 
Q 894 4094 569 3969 
L 569 4550 
Q 947 4650 1242 4700 
Q 1538 4750 1766 4750 
Q 2447 4750 2855 4408 
Q 3263 4066 3263 3500 
Q 3263 3116 3048 2859 
Q 2834 2603 2425 2497 
z
" transform="scale(0.015625)"/>
       </defs>
       <use xlink:href="#Menlo-Regular-33"/>
       <use xlink:href="#Menlo-Regular-30" transform="translate(60.205078 0)"/>
       <use xlink:href="#Menlo-Regular-30" transform="translate(120.410156 0)"/>
      </g>
     </g>
    </g>
    <g id="xtick_5">
     <g id="line2d_5">
      <g>
       <use xlink:href="#m5e96b109e8" x="158.506717" y="83.065078" style="fill: #1a1a1a; stroke: #1a1a1a; stroke-width: 0.8"/>
      </g>
     </g>
     <g id="text_5">
      <!-- 400 -->
      <g style="fill: #1a1a1a" transform="translate(152.185389 91.903672) scale(0.07 -0.07)">
       <defs>
        <path id="Menlo-Regular-34" d="M 2297 4091 
L 825 1625 
L 2297 1625 
L 2297 4091 
z
M 2194 4666 
L 2925 4666 
L 2925 1625 
L 3547 1625 
L 3547 1113 
L 2925 1113 
L 2925 0 
L 2297 0 
L 2297 1113 
L 319 1113 
L 319 1709 
L 2194 4666 
z
" transform="scale(0.015625)"/>
       </defs>
       <use xlink:href="#Menlo-Regular-34"/>
       <use xlink:href="#Menlo-Regular-30" transform="translate(60.205078 0)"/>
       <use xlink:href="#Menlo-Regular-30" transform="translate(120.410156 0)"/>
      </g>
     </g>
    </g>
    <g id="text_6">
     <!-- time (ms) -->
     <g style="fill: #1a1a1a" transform="translate(68.223594 103.460703) scale(0.08 -0.08)">
      <defs>
       <path id="Menlo-Regular-74" d="M 1919 4494 
L 1919 3500 
L 3225 3500 
L 3225 3053 
L 1919 3053 
L 1919 1153 
Q 1919 766 2066 612 
Q 2213 459 2578 459 
L 3225 459 
L 3225 0 
L 2522 0 
Q 1875 0 1609 259 
Q 1344 519 1344 1153 
L 1344 3053 
L 409 3053 
L 409 3500 
L 1344 3500 
L 1344 4494 
L 1919 4494 
z
" transform="scale(0.015625)"/>
       <path id="Menlo-Regular-69" d="M 988 3488 
L 2459 3488 
L 2459 447 
L 3600 447 
L 3600 0 
L 744 0 
L 744 447 
L 1884 447 
L 1884 3041 
L 988 3041 
L 988 3488 
z
M 1884 4847 
L 2459 4847 
L 2459 4122 
L 1884 4122 
L 1884 4847 
z
" transform="scale(0.015625)"/>
       <path id="Menlo-Regular-6d" d="M 2113 3144 
Q 2219 3369 2383 3476 
Q 2547 3584 2778 3584 
Q 3200 3584 3373 3257 
Q 3547 2931 3547 2028 
L 3547 0 
L 3022 0 
L 3022 2003 
Q 3022 2744 2939 2923 
Q 2856 3103 2638 3103 
Q 2388 3103 2295 2911 
Q 2203 2719 2203 2003 
L 2203 0 
L 1678 0 
L 1678 2003 
Q 1678 2753 1589 2928 
Q 1500 3103 1269 3103 
Q 1041 3103 952 2911 
Q 863 2719 863 2003 
L 863 0 
L 341 0 
L 341 3500 
L 863 3500 
L 863 3200 
Q 966 3388 1120 3486 
Q 1275 3584 1472 3584 
Q 1709 3584 1867 3475 
Q 2025 3366 2113 3144 
z
" transform="scale(0.015625)"/>
       <path id="Menlo-Regular-65" d="M 3500 2038 
L 3500 1756 
L 1009 1756 
L 1009 1738 
Q 984 1022 1282 709 
Q 1581 397 2125 397 
Q 2400 397 2700 484 
Q 3000 572 3341 750 
L 3341 178 
Q 3013 44 2708 -23 
Q 2403 -91 2119 -91 
Q 1303 -91 843 398 
Q 384 888 384 1747 
Q 384 2584 834 3084 
Q 1284 3584 2034 3584 
Q 2703 3584 3089 3131 
Q 3475 2678 3500 2038 
z
M 2925 2206 
Q 2888 2569 2661 2833 
Q 2434 3097 2009 3097 
Q 1594 3097 1325 2822 
Q 1056 2547 1031 2203 
L 2925 2206 
z
" transform="scale(0.015625)"/>
       <path id="Menlo-Regular-20" transform="scale(0.015625)"/>
       <path id="Menlo-Regular-28" d="M 2672 5169 
Q 2256 4456 2051 3748 
Q 1847 3041 1847 2322 
Q 1847 1606 2051 897 
Q 2256 188 2672 -531 
L 2172 -531 
Q 1700 213 1469 917 
Q 1238 1622 1238 2322 
Q 1238 3019 1469 3725 
Q 1700 4431 2172 5169 
L 2672 5169 
z
" transform="scale(0.015625)"/>
       <path id="Menlo-Regular-73" d="M 3041 3378 
L 3041 2816 
Q 2794 2959 2544 3031 
Q 2294 3103 2034 3103 
Q 1644 3103 1451 2976 
Q 1259 2850 1259 2591 
Q 1259 2356 1403 2240 
Q 1547 2125 2119 2016 
L 2350 1972 
Q 2778 1891 2998 1647 
Q 3219 1403 3219 1013 
Q 3219 494 2850 201 
Q 2481 -91 1825 -91 
Q 1566 -91 1281 -36 
Q 997 19 666 128 
L 666 722 
Q 988 556 1281 473 
Q 1575 391 1838 391 
Q 2219 391 2428 545 
Q 2638 700 2638 978 
Q 2638 1378 1872 1531 
L 1847 1538 
L 1631 1581 
Q 1134 1678 906 1908 
Q 678 2138 678 2534 
Q 678 3038 1018 3311 
Q 1359 3584 1991 3584 
Q 2272 3584 2531 3532 
Q 2791 3481 3041 3378 
z
" transform="scale(0.015625)"/>
       <path id="Menlo-Regular-29" d="M 1088 5169 
L 1588 5169 
Q 2059 4431 2290 3725 
Q 2522 3019 2522 2322 
Q 2522 1619 2290 912 
Q 2059 206 1588 -531 
L 1088 -531 
Q 1503 194 1708 903 
Q 1913 1613 1913 2322 
Q 1913 3034 1708 3743 
Q 1503 4453 1088 5169 
z
" transform="scale(0.015625)"/>
      </defs>
      <use xlink:href="#Menlo-Regular-74"/>
      <use xlink:href="#Menlo-Regular-69" transform="translate(60.205078 0)"/>
      <use xlink:href="#Menlo-Regular-6d" transform="translate(120.410156 0)"/>
      <use xlink:href="#Menlo-Regular-65" transform="translate(180.615234 0)"/>
      <use xlink:href="#Menlo-Regular-20" transform="translate(240.820312 0)"/>
      <use xlink:href="#Menlo-Regular-28" transform="translate(301.025391 0)"/>
      <use xlink:href="#Menlo-Regular-6d" transform="translate(361.230469 0)"/>
      <use xlink:href="#Menlo-Regular-73" transform="translate(421.435547 0)"/>
      <use xlink:href="#Menlo-Regular-29" transform="translate(481.640625 0)"/>
     </g>
    </g>
   </g>
   <g id="matplotlib.axis_2">
    <g id="ytick_1">
     <g id="line2d_6">
      <defs>
       <path id="mc08c66fabf" d="M 0 0 
L 3 0 
" style="stroke: #1a1a1a; stroke-width: 0.8"/>
      </defs>
      <g>
       <use xlink:href="#mc08c66fabf" x="21.286719" y="71.122531" style="fill: #1a1a1a; stroke: #1a1a1a; stroke-width: 0.8"/>
      </g>
     </g>
     <g id="text_7">
      <!-- 0 -->
      <g style="fill: #1a1a1a" transform="translate(13.5725 73.791828) scale(0.07 -0.07)">
       <use xlink:href="#Menlo-Regular-30"/>
      </g>
     </g>
    </g>
    <g id="ytick_2">
     <g id="line2d_7">
      <g>
       <use xlink:href="#mc08c66fabf" x="21.286719" y="47.600264" style="fill: #1a1a1a; stroke: #1a1a1a; stroke-width: 0.8"/>
      </g>
     </g>
     <g id="text_8">
      <!-- 2 -->
      <g style="fill: #1a1a1a" transform="translate(13.5725 50.269561) scale(0.07 -0.07)">
       <use xlink:href="#Menlo-Regular-32"/>
      </g>
     </g>
    </g>
    <g id="ytick_3">
     <g id="line2d_8">
      <g>
       <use xlink:href="#mc08c66fabf" x="21.286719" y="24.077997" style="fill: #1a1a1a; stroke: #1a1a1a; stroke-width: 0.8"/>
      </g>
     </g>
     <g id="text_9">
      <!-- 4 -->
      <g style="fill: #1a1a1a" transform="translate(13.5725 26.747293) scale(0.07 -0.07)">
       <use xlink:href="#Menlo-Regular-34"/>
      </g>
     </g>
    </g>
    <g id="text_10">
     <!-- I in  [+ depol. / − hyperpol.] -->
     <g style="fill: #1a1a1a" transform="translate(7.90875 120.928828) rotate(-90) scale(0.08 -0.08)">
      <defs>
       <path id="Menlo-Regular-49" d="M 628 4666 
L 3219 4666 
L 3219 4134 
L 2241 4134 
L 2241 531 
L 3219 531 
L 3219 0 
L 628 0 
L 628 531 
L 1606 531 
L 1606 4134 
L 628 4134 
L 628 4666 
z
" transform="scale(0.015625)"/>
       <path id="Menlo-Regular-6e" d="M 3284 2169 
L 3284 0 
L 2706 0 
L 2706 2169 
Q 2706 2641 2540 2862 
Q 2375 3084 2022 3084 
Q 1619 3084 1401 2798 
Q 1184 2513 1184 1978 
L 1184 0 
L 609 0 
L 609 3500 
L 1184 3500 
L 1184 2975 
Q 1338 3275 1600 3429 
Q 1863 3584 2222 3584 
Q 2756 3584 3020 3232 
Q 3284 2881 3284 2169 
z
" transform="scale(0.015625)"/>
       <path id="Menlo-Regular-5b" d="M 1759 5175 
L 3084 5175 
L 3084 4728 
L 2334 4728 
L 2334 -84 
L 3084 -84 
L 3084 -531 
L 1759 -531 
L 1759 5175 
z
" transform="scale(0.015625)"/>
       <path id="Menlo-Regular-2b" d="M 2250 3681 
L 2250 2297 
L 3641 2297 
L 3641 1769 
L 2250 1769 
L 2250 384 
L 1725 384 
L 1725 1769 
L 338 1769 
L 338 2297 
L 1725 2297 
L 1725 3681 
L 2250 3681 
z
" transform="scale(0.015625)"/>
       <path id="Menlo-Regular-64" d="M 2681 3053 
L 2681 4863 
L 3256 4863 
L 3256 0 
L 2681 0 
L 2681 441 
Q 2538 181 2298 45 
Q 2059 -91 1747 -91 
Q 1113 -91 748 401 
Q 384 894 384 1759 
Q 384 2613 750 3098 
Q 1116 3584 1747 3584 
Q 2063 3584 2303 3448 
Q 2544 3313 2681 3053 
z
M 991 1747 
Q 991 1078 1203 737 
Q 1416 397 1831 397 
Q 2247 397 2464 740 
Q 2681 1084 2681 1747 
Q 2681 2413 2464 2755 
Q 2247 3097 1831 3097 
Q 1416 3097 1203 2756 
Q 991 2416 991 1747 
z
" transform="scale(0.015625)"/>
       <path id="Menlo-Regular-70" d="M 1172 441 
L 1172 -1331 
L 594 -1331 
L 594 3500 
L 1172 3500 
L 1172 3053 
Q 1316 3313 1555 3448 
Q 1794 3584 2106 3584 
Q 2741 3584 3102 3093 
Q 3463 2603 3463 1734 
Q 3463 881 3100 395 
Q 2738 -91 2106 -91 
Q 1788 -91 1548 45 
Q 1309 181 1172 441 
z
M 2859 1747 
Q 2859 2416 2648 2756 
Q 2438 3097 2022 3097 
Q 1603 3097 1387 2755 
Q 1172 2413 1172 1747 
Q 1172 1084 1387 740 
Q 1603 397 2022 397 
Q 2438 397 2648 737 
Q 2859 1078 2859 1747 
z
" transform="scale(0.015625)"/>
       <path id="Menlo-Regular-6f" d="M 1925 3097 
Q 1488 3097 1263 2756 
Q 1038 2416 1038 1747 
Q 1038 1081 1263 739 
Q 1488 397 1925 397 
Q 2366 397 2591 739 
Q 2816 1081 2816 1747 
Q 2816 2416 2591 2756 
Q 2366 3097 1925 3097 
z
M 1925 3584 
Q 2653 3584 3039 3112 
Q 3425 2641 3425 1747 
Q 3425 850 3040 379 
Q 2656 -91 1925 -91 
Q 1197 -91 812 379 
Q 428 850 428 1747 
Q 428 2641 812 3112 
Q 1197 3584 1925 3584 
z
" transform="scale(0.015625)"/>
       <path id="Menlo-Regular-6c" d="M 2247 1266 
Q 2247 878 2389 681 
Q 2531 484 2809 484 
L 3481 484 
L 3481 0 
L 2753 0 
Q 2238 0 1955 329 
Q 1672 659 1672 1266 
L 1672 4431 
L 750 4431 
L 750 4881 
L 2247 4881 
L 2247 1266 
z
" transform="scale(0.015625)"/>
       <path id="Menlo-Regular-2e" d="M 1216 1263 
L 2316 1263 
L 2316 0 
L 1216 0 
L 1216 1263 
z
" transform="scale(0.015625)"/>
       <path id="Menlo-Regular-2f" d="M 2778 4666 
L 3372 4666 
L 916 -594 
L 319 -594 
L 2778 4666 
z
" transform="scale(0.015625)"/>
       <path id="Menlo-Regular-2212" d="M 275 2272 
L 3578 2272 
L 3578 1741 
L 275 1741 
L 275 2272 
z
" transform="scale(0.015625)"/>
       <path id="Menlo-Regular-68" d="M 3284 2169 
L 3284 0 
L 2706 0 
L 2706 2169 
Q 2706 2641 2540 2862 
Q 2375 3084 2022 3084 
Q 1619 3084 1401 2798 
Q 1184 2513 1184 1978 
L 1184 0 
L 609 0 
L 609 4863 
L 1184 4863 
L 1184 2975 
Q 1338 3275 1600 3429 
Q 1863 3584 2222 3584 
Q 2756 3584 3020 3232 
Q 3284 2881 3284 2169 
z
" transform="scale(0.015625)"/>
       <path id="Menlo-Regular-79" d="M 2681 1125 
Q 2538 759 2316 163 
Q 2006 -663 1900 -844 
Q 1756 -1088 1540 -1209 
Q 1325 -1331 1038 -1331 
L 575 -1331 
L 575 -850 
L 916 -850 
Q 1169 -850 1312 -703 
Q 1456 -556 1678 56 
L 325 3500 
L 934 3500 
L 1972 763 
L 2994 3500 
L 3603 3500 
L 2681 1125 
z
" transform="scale(0.015625)"/>
       <path id="Menlo-Regular-72" d="M 3609 2778 
Q 3425 2922 3234 2987 
Q 3044 3053 2816 3053 
Q 2278 3053 1993 2715 
Q 1709 2378 1709 1741 
L 1709 0 
L 1131 0 
L 1131 3500 
L 1709 3500 
L 1709 2816 
Q 1853 3188 2151 3386 
Q 2450 3584 2859 3584 
Q 3072 3584 3256 3531 
Q 3441 3478 3609 3366 
L 3609 2778 
z
" transform="scale(0.015625)"/>
       <path id="Menlo-Regular-5d" d="M 2250 5175 
L 2250 -531 
L 925 -531 
L 925 -84 
L 1675 -84 
L 1675 4728 
L 925 4728 
L 925 5175 
L 2250 5175 
z
" transform="scale(0.015625)"/>
      </defs>
      <use xlink:href="#Menlo-Regular-49"/>
      <use xlink:href="#Menlo-Regular-20" transform="translate(60.205078 0)"/>
      <use xlink:href="#Menlo-Regular-69" transform="translate(120.410156 0)"/>
      <use xlink:href="#Menlo-Regular-6e" transform="translate(180.615234 0)"/>
      <use xlink:href="#Menlo-Regular-20" transform="translate(240.820312 0)"/>
      <use xlink:href="#Menlo-Regular-20" transform="translate(301.025391 0)"/>
      <use xlink:href="#Menlo-Regular-5b" transform="translate(361.230469 0)"/>
      <use xlink:href="#Menlo-Regular-2b" transform="translate(421.435547 0)"/>
      <use xlink:href="#Menlo-Regular-20" transform="translate(481.640625 0)"/>
      <use xlink:href="#Menlo-Regular-64" transform="translate(541.845703 0)"/>
      <use xlink:href="#Menlo-Regular-65" transform="translate(602.050781 0)"/>
      <use xlink:href="#Menlo-Regular-70" transform="translate(662.255859 0)"/>
      <use xlink:href="#Menlo-Regular-6f" transform="translate(722.460938 0)"/>
      <use xlink:href="#Menlo-Regular-6c" transform="translate(782.666016 0)"/>
      <use xlink:href="#Menlo-Regular-2e" transform="translate(842.871094 0)"/>
      <use xlink:href="#Menlo-Regular-20" transform="translate(903.076172 0)"/>
      <use xlink:href="#Menlo-Regular-2f" transform="translate(963.28125 0)"/>
      <use xlink:href="#Menlo-Regular-20" transform="translate(1023.486328 0)"/>
      <use xlink:href="#Menlo-Regular-2212" transform="translate(1083.691406 0)"/>
      <use xlink:href="#Menlo-Regular-20" transform="translate(1143.896484 0)"/>
      <use xlink:href="#Menlo-Regular-68" transform="translate(1204.101562 0)"/>
      <use xlink:href="#Menlo-Regular-79" transform="translate(1264.306641 0)"/>
      <use xlink:href="#Menlo-Regular-70" transform="translate(1324.511719 0)"/>
      <use xlink:href="#Menlo-Regular-65" transform="translate(1384.716797 0)"/>
      <use xlink:href="#Menlo-Regular-72" transform="translate(1444.921875 0)"/>
      <use xlink:href="#Menlo-Regular-70" transform="translate(1505.126953 0)"/>
      <use xlink:href="#Menlo-Regular-6f" transform="translate(1565.332031 0)"/>
      <use xlink:href="#Menlo-Regular-6c" transform="translate(1625.537109 0)"/>
      <use xlink:href="#Menlo-Regular-2e" transform="translate(1685.742188 0)"/>
      <use xlink:href="#Menlo-Regular-5d" transform="translate(1745.947266 0)"/>
     </g>
    </g>
   </g>
   <g id="line2d_9">
    <path d="M 21.286719 71.122531 
L 158.506719 71.122531 
" clip-path="url(#pcc433f19dc)" style="fill: none; stroke: #bbbbbb; stroke-width: 0.5; stroke-linejoin: miter"/>
   </g>
   <g id="line2d_10">
    <path d="M 21.286719 70.653008 
L 21.835599 60.676941 
L 22.281564 46.943558 
L 22.556004 44.25678 
L 22.761834 44.924287 
L 22.899054 45.722012 
L 23.790984 59.100327 
L 23.825289 59.151427 
L 24.442779 65.236167 
L 24.511389 64.99767 
L 24.717219 63.042478 
L 25.300404 56.174033 
L 25.403319 56.678629 
L 25.814979 60.948894 
L 25.849284 60.891119 
L 25.883589 60.912667 
L 26.535384 56.6039 
L 26.672604 57.000533 
L 27.015654 60.195597 
L 27.049959 60.095034 
L 27.187179 59.227248 
L 27.221484 59.317519 
L 27.324399 59.846481 
L 27.393009 59.643399 
L 27.701754 59.053919 
L 27.804669 58.253228 
L 27.873279 58.317727 
L 27.941889 58.249585 
L 27.976194 58.337318 
L 28.079109 57.680058 
L 28.147719 57.83088 
L 28.490769 59.373587 
L 28.525074 59.367273 
L 28.662294 59.712447 
L 29.108259 58.296574 
L 29.245479 53.795449 
L 29.622834 49.84469 
L 29.657139 50.13821 
L 29.897274 52.469999 
L 29.965884 52.042888 
L 30.137409 50.302951 
L 30.480459 46.330411 
L 30.514764 46.461897 
L 30.583374 46.37628 
L 30.651984 46.411965 
L 30.995034 50.408437 
L 31.509609 60.733256 
L 31.646829 61.041743 
L 31.681134 61.063289 
L 31.749744 60.890161 
L 31.784049 61.030936 
L 31.852659 60.969713 
L 31.921269 61.519257 
L 32.710284 67.786626 
L 33.156249 69.371085 
L 33.602214 70.201354 
L 34.082484 70.661101 
L 34.288314 70.779414 
L 34.494144 69.769714 
L 34.528449 69.806878 
L 34.631364 69.660363 
L 34.802889 69.328032 
L 34.871499 68.947457 
L 34.940109 68.497541 
L 35.248854 64.641683 
L 35.523294 62.326686 
L 35.969259 54.210178 
L 36.106479 54.387612 
L 36.243699 54.374257 
L 36.415224 55.561751 
L 36.621054 57.008047 
L 36.655359 56.913993 
L 36.723969 56.881149 
L 37.067019 53.231271 
L 37.341459 50.074227 
L 37.478679 49.493603 
L 37.615899 50.381858 
L 37.650204 50.37677 
L 38.027559 49.058454 
L 38.061864 49.191269 
L 38.096169 49.041037 
L 38.164779 48.618235 
L 38.301999 40.491149 
L 38.576439 35.887929 
L 38.679354 36.74634 
L 38.850879 41.535601 
L 39.228234 49.994671 
L 39.571284 54.684132 
L 39.982944 62.21315 
L 40.188774 64.105904 
L 40.223079 63.98496 
L 40.257384 63.910792 
L 40.291689 64.036467 
L 40.394604 64.630078 
L 40.428909 64.524621 
L 40.463214 64.425033 
L 40.497519 64.519275 
L 40.771959 65.626384 
L 40.806264 65.417427 
L 40.874874 65.592715 
L 41.115009 66.597605 
L 41.149314 66.531587 
L 41.389449 63.38469 
L 41.663889 59.660256 
L 42.109854 57.703887 
L 42.247074 58.262984 
L 42.281379 58.195235 
L 42.933174 56.46852 
L 43.001784 56.731277 
L 43.036089 56.537682 
L 43.344834 55.264406 
L 43.516359 57.767711 
L 43.584969 57.534587 
L 43.790799 56.436542 
L 43.825104 56.5479 
L 43.996629 57.103648 
L 44.065239 57.046583 
L 44.202459 57.064032 
L 44.305374 56.116484 
L 44.339679 55.789919 
L 44.408289 55.872361 
L 44.579814 56.053163 
L 44.888559 60.908886 
L 45.300219 65.510881 
L 45.746184 68.168645 
L 46.192149 69.562497 
L 46.638114 70.297667 
L 46.946859 70.487712 
L 47.392824 70.750818 
L 47.461434 70.453962 
L 47.530044 70.516518 
L 47.941704 70.727219 
L 48.216144 70.855754 
L 48.490584 69.714783 
L 48.799329 67.800397 
L 48.902244 67.224545 
L 48.936549 67.392453 
L 49.382514 69.165402 
L 49.828479 70.093533 
L 50.000004 70.318754 
L 50.034309 70.255482 
L 50.068614 70.110065 
L 50.137224 70.205368 
L 50.240139 70.235056 
L 50.308749 69.382553 
L 51.063459 58.280539 
L 51.132069 58.065056 
L 51.269289 57.267372 
L 51.303594 57.332192 
L 51.612339 59.506634 
L 51.886779 62.548743 
L 52.023999 62.212899 
L 52.538574 66.339455 
L 52.572879 66.444818 
L 52.607184 66.42712 
L 52.813014 65.788918 
L 53.018844 66.780694 
L 53.087454 66.401584 
L 53.156064 66.56228 
L 53.258979 67.068211 
L 53.464809 68.112702 
L 53.499114 68.0074 
L 53.567724 67.646778 
L 54.322434 55.477263 
L 54.493959 54.214004 
L 54.734094 51.310848 
L 54.768399 51.400755 
L 55.008534 54.027963 
L 55.042839 53.850981 
L 55.180059 53.742521 
L 55.351584 52.845858 
L 55.763244 55.74833 
L 55.831854 55.326037 
L 56.071989 53.313486 
L 56.209209 52.976438 
L 56.243514 47.571387 
L 56.346429 48.155079 
L 56.415039 48.74633 
L 57.306969 59.838075 
L 57.718629 64.963659 
L 58.164594 67.921214 
L 58.610559 69.451977 
L 58.747779 69.754355 
L 58.782084 69.655935 
L 59.193744 65.465437 
L 59.365269 64.078162 
L 59.879844 67.477341 
L 60.188589 68.709682 
L 60.222894 68.625057 
L 60.257199 68.746828 
L 60.531639 69.514306 
L 60.634554 69.195612 
L 60.668859 69.289433 
L 60.771774 69.462794 
L 60.806079 69.428418 
L 60.840384 69.390003 
L 61.149129 65.821182 
L 61.183434 65.825839 
L 61.629399 67.898283 
L 61.663704 67.771328 
L 62.006754 58.97299 
L 62.281194 53.983849 
L 62.864379 43.351078 
L 62.932989 43.995056 
L 63.070209 45.311142 
L 63.378954 49.319207 
L 63.756309 53.253422 
L 63.824919 53.954576 
L 63.893529 53.653871 
L 63.996444 53.384641 
L 64.030749 53.576971 
L 64.167969 54.403027 
L 64.202274 54.24279 
L 64.545324 52.203552 
L 64.579629 52.183788 
L 64.613934 52.264448 
L 64.819764 53.222104 
L 64.854069 53.207712 
L 64.922679 53.557114 
L 64.956984 48.580833 
L 65.025594 49.406454 
L 65.745999 62.765671 
L 65.917524 63.659265 
L 66.054744 62.33767 
L 66.603624 54.558207 
L 66.672234 54.371293 
L 66.912369 57.133682 
L 66.980979 56.42205 
L 67.392639 50.402995 
L 67.495554 50.702454 
L 67.769994 53.471852 
L 67.804299 53.155289 
L 67.975824 51.76657 
L 68.113044 51.928189 
L 68.387484 50.813768 
L 68.867754 47.416875 
L 68.902059 47.488849 
L 69.073584 47.998969 
L 69.107889 47.972792 
L 69.210804 47.795939 
L 69.245109 47.879425 
L 69.279414 47.881099 
L 69.553854 48.999744 
L 69.759684 50.113393 
L 69.793989 50.051766 
L 69.931209 43.362463 
L 70.102734 43.170956 
L 70.137039 43.149847 
L 70.239954 42.824028 
L 70.274259 42.840022 
L 70.308564 42.92044 
L 70.342869 42.604146 
L 70.411479 42.91726 
L 70.548699 43.932312 
L 70.583004 43.825763 
L 70.651614 43.319418 
L 70.685919 43.505378 
L 70.857444 45.581508 
L 70.994664 48.370935 
L 72.366864 66.102358 
L 72.812829 68.49603 
L 72.915744 68.785416 
L 72.950049 68.587187 
L 73.155879 68.237502 
L 73.498929 66.042767 
L 73.773369 63.095937 
L 73.807674 63.103537 
L 73.910589 62.62698 
L 74.356554 60.296727 
L 74.425164 60.25803 
L 74.528079 61.347469 
L 74.768214 63.124804 
L 74.836824 63.148091 
L 74.871129 63.053867 
L 75.008349 62.555003 
L 75.042654 62.718807 
L 75.420009 59.385463 
L 75.454314 59.467857 
L 75.488619 59.366625 
L 75.831669 57.660845 
L 76.277634 50.460784 
L 76.517769 47.545124 
L 76.552074 47.553483 
L 76.689294 47.831674 
L 76.963734 47.335346 
L 77.032344 47.422284 
L 77.066649 47.327641 
L 77.135259 47.137928 
L 77.169564 47.019221 
L 77.306784 38.884412 
L 77.546919 37.719132 
L 77.615529 37.633451 
L 77.752749 36.203116 
L 77.787054 36.462644 
L 77.958579 37.280213 
L 78.130104 36.790967 
L 78.164409 36.788132 
L 78.541764 39.085029 
L 78.747594 41.010645 
L 78.987729 39.902288 
L 79.022034 39.957326 
L 79.090644 40.348231 
L 79.159254 40.141192 
L 79.193559 39.860302 
L 79.262169 39.973318 
L 79.365084 40.006579 
L 79.467999 39.561716 
L 79.502304 39.837362 
L 79.673829 41.652223 
L 79.776744 43.862303 
L 79.811049 36.438335 
L 79.913964 37.794334 
L 80.119794 42.061676 
L 80.428539 46.832279 
L 80.977419 54.23743 
L 81.011724 54.281465 
L 81.389079 58.439795 
L 81.732129 63.143118 
L 82.418229 66.669551 
L 82.589754 65.678369 
L 82.967109 61.237302 
L 83.035719 61.434561 
L 83.378769 58.615922 
L 83.413074 58.671619 
L 83.584599 58.111476 
L 83.721819 58.465917 
L 83.756124 58.378542 
L 83.996259 56.116071 
L 84.407919 50.478257 
L 84.888189 54.638224 
L 85.299849 61.853301 
L 85.711509 66.032538 
L 86.054559 67.804559 
L 87.015099 70.158897 
L 87.118014 69.498566 
L 87.598284 64.018912 
L 87.666894 63.634107 
L 88.352994 54.943408 
L 88.627434 52.16468 
L 88.798959 51.707033 
L 89.244924 45.850245 
L 89.313534 46.184958 
L 89.416449 46.559521 
L 89.450754 39.607232 
L 89.553669 40.306195 
L 89.656584 40.922367 
L 90.102549 48.588496 
L 90.617124 57.03428 
L 90.685734 57.800627 
L 90.822954 59.372407 
L 90.857259 59.302338 
L 90.891564 59.250802 
L 90.925869 59.310003 
L 90.994479 60.050474 
L 91.577664 66.34473 
L 92.023629 68.629852 
L 92.435289 69.718762 
L 92.881254 70.387068 
L 93.189999 70.65223 
L 93.430134 69.600477 
L 93.807489 70.224316 
L 93.841794 70.140108 
L 93.910404 70.23317 
L 93.944709 70.258815 
L 93.979014 70.18846 
L 94.013319 70.115817 
L 94.081929 70.211197 
L 94.150539 70.28578 
L 94.184844 70.249041 
L 94.322064 68.737447 
L 94.802334 62.034775 
L 95.145384 56.441218 
L 95.625654 44.879845 
L 95.900094 40.302305 
L 95.968704 40.734343 
L 96.003009 40.824743 
L 96.311754 37.795035 
L 96.483279 37.916345 
L 96.654804 37.574279 
L 96.792024 36.591124 
L 96.929244 24.022184 
L 96.997854 23.418989 
L 97.066464 23.677009 
L 97.443819 31.575184 
L 97.752564 38.701174 
L 98.370054 47.831067 
L 98.404359 47.872853 
L 98.438664 47.827903 
L 99.707949 65.720425 
L 100.050999 67.716197 
L 100.085304 67.695233 
L 100.291134 68.397779 
L 100.496964 67.548246 
L 100.531269 67.658166 
L 100.840014 68.623692 
L 100.874319 68.686715 
L 100.908624 68.648544 
L 101.320284 64.67027 
L 101.937774 55.187597 
L 102.349434 46.787638 
L 102.486654 44.772281 
L 102.555264 43.496512 
L 102.623874 43.977629 
L 102.932619 46.20586 
L 102.966924 45.99588 
L 103.104144 36.331716 
L 103.172754 35.733857 
L 103.241364 35.923743 
L 103.653024 38.32789 
L 103.687329 38.286407 
L 103.721634 38.238328 
L 103.755939 38.354019 
L 103.893159 38.893444 
L 103.927464 38.729941 
L 103.996074 38.689563 
L 104.236209 39.673744 
L 104.270514 39.644495 
L 104.407734 38.618109 
L 105.093834 28.719281 
L 105.162444 28.931656 
L 105.299664 29.648999 
L 105.333969 17.430533 
L 105.436884 18.669041 
L 106.191594 33.91525 
L 107.186439 48.154076 
L 107.220744 48.140669 
L 107.392269 48.786736 
L 107.460879 48.610059 
L 107.666709 47.340576 
L 107.735319 47.651681 
L 107.941149 48.620512 
L 107.975454 48.64565 
L 108.318504 50.196769 
L 108.352809 44.639819 
L 108.421419 46.016078 
L 108.764469 54.423868 
L 109.141824 61.416551 
L 109.347654 63.430394 
L 109.416264 63.200612 
L 109.450569 63.043444 
L 109.519179 63.201126 
L 109.690704 64.515587 
L 109.930839 66.484009 
L 109.965144 66.39075 
L 110.136669 65.686573 
L 110.205279 65.714242 
L 110.651244 68.182275 
L 110.719854 67.600581 
L 111.200124 59.334897 
L 111.303039 58.524182 
L 111.886224 52.659839 
L 111.954834 52.572067 
L 112.126359 50.389116 
L 112.469409 47.158681 
L 112.538019 47.574904 
L 112.743849 50.299083 
L 113.258424 61.226552 
L 113.635779 65.100558 
L 113.670084 65.248099 
L 113.704389 65.197225 
L 113.807304 64.782334 
L 113.841609 64.930898 
L 113.875914 64.869458 
L 114.150354 66.250181 
L 114.253269 65.785888 
L 114.562014 64.249183 
L 114.596319 64.226775 
L 114.870759 65.814029 
L 115.007979 66.68022 
L 115.042284 66.575441 
L 115.385334 64.141513 
L 115.865604 60.052132 
L 115.899909 60.184392 
L 115.968519 60.553487 
L 116.037129 60.804331 
L 116.071434 60.588381 
L 116.757534 50.394472 
L 117.169194 42.787541 
L 117.306414 42.236858 
L 117.443634 32.657921 
L 117.477939 32.581333 
L 117.718074 36.09102 
L 119.158884 63.912527 
L 119.364714 65.074027 
L 119.467629 65.769741 
L 119.673459 66.778308 
L 119.707764 66.756256 
L 119.776374 66.878493 
L 120.050814 64.647903 
L 120.222339 65.684939 
L 120.256644 65.452343 
L 120.428169 64.104231 
L 120.668304 62.758065 
L 120.736914 62.683655 
L 120.977049 64.116901 
L 121.148574 65.297667 
L 121.182879 65.228803 
L 121.251489 65.480238 
L 121.320099 65.434014 
L 121.766064 62.680276 
L 121.834674 62.805554 
L 121.971894 63.119236 
L 122.040504 63.000407 
L 122.143419 62.389579 
L 122.417859 65.139114 
L 122.452164 65.085751 
L 122.486469 65.128355 
L 122.520774 65.01793 
L 122.760909 64.423091 
L 122.829519 64.570137 
L 123.001044 63.736164 
L 123.035349 63.746185 
L 123.103959 63.432599 
L 123.721449 50.873064 
L 123.858669 50.086869 
L 123.892974 50.102872 
L 124.064499 49.719796 
L 124.236024 50.239943 
L 124.270329 50.071433 
L 124.338939 49.714063 
L 124.750599 44.404984 
L 124.853514 44.905146 
L 124.922124 45.756451 
L 125.059344 38.368552 
L 125.127954 38.931459 
L 125.471004 46.408132 
L 125.779749 52.722703 
L 125.882664 53.980833 
L 125.951274 53.84997 
L 126.157104 56.83277 
L 126.431544 60.614416 
L 126.500154 60.685933 
L 126.637374 60.040711 
L 126.911814 58.559901 
L 126.946119 58.600359 
L 127.014729 58.629557 
L 127.323474 60.940321 
L 127.494999 62.656035 
L 127.529304 62.605382 
L 127.597914 61.897011 
L 127.803744 59.537576 
L 128.043879 57.937381 
L 128.386929 62.500958 
L 128.798589 66.403898 
L 129.107334 67.776169 
L 129.175944 67.61059 
L 129.416079 65.515132 
L 129.656214 62.375444 
L 129.759129 62.212888 
L 129.964959 61.017585 
L 130.067874 61.33108 
L 130.102179 61.111642 
L 130.239399 60.704763 
L 130.273704 60.754569 
L 130.685364 64.78426 
L 130.719669 64.75696 
L 130.925499 65.877636 
L 130.994109 65.723578 
L 131.097024 64.911867 
L 131.302854 63.452789 
L 131.337159 63.565434 
L 131.371464 63.4317 
L 131.440074 62.649634 
L 131.508684 62.903955 
L 131.542989 62.881209 
L 131.680209 61.711327 
L 132.126174 52.897694 
L 132.434919 48.661288 
L 132.537834 49.507672 
L 132.812274 53.267293 
L 133.258239 61.880597 
L 133.669899 66.025425 
L 134.115864 68.438915 
L 134.561829 69.705498 
L 134.664744 69.899439 
L 134.699049 69.789216 
L 134.973489 66.324143 
L 135.316539 61.635844 
L 135.488064 60.809868 
L 136.036944 55.10196 
L 136.208469 54.002141 
L 136.448604 50.943663 
L 136.585824 49.776053 
L 136.791654 48.634075 
L 136.860264 41.431105 
L 136.928874 41.68242 
L 136.997484 42.032948 
L 137.031789 41.804094 
L 137.066094 41.705539 
L 137.409144 37.694616 
L 137.580669 36.534094 
L 137.614974 36.910782 
L 138.026634 42.032533 
L 138.472599 53.378539 
L 139.055784 62.517273 
L 139.158699 62.101632 
L 139.982019 51.067679 
L 140.256459 49.148106 
L 140.393679 49.142249 
L 140.565204 50.577229 
L 140.873949 53.709838 
L 140.908254 53.639392 
L 140.976864 53.365719 
L 141.045474 53.510062 
L 141.182694 55.112056 
L 141.285609 57.053901 
L 141.319914 53.687844 
L 141.422829 54.456526 
L 141.560049 55.734854 
L 141.903099 59.986028 
L 141.937404 59.904559 
L 142.108929 58.999616 
L 142.280454 58.169825 
L 142.417674 57.388998 
L 142.623504 58.155209 
L 142.726419 58.507159 
L 142.760724 58.275791 
L 142.795029 58.071225 
L 142.829334 58.116267 
L 143.172384 60.303102 
L 143.343909 59.642466 
L 143.378214 59.696639 
L 143.412519 59.735219 
L 143.446824 59.987395 
L 143.515434 59.670059 
L 144.030009 55.836588 
L 144.098619 55.857884 
L 144.613194 58.835655 
L 144.681804 58.607382 
L 144.750414 58.173401 
L 144.784719 58.225226 
L 144.853329 58.693822 
L 144.887634 58.568061 
L 145.162074 55.566674 
L 145.402209 52.343138 
L 145.539429 51.555877 
L 145.573734 51.681499 
L 146.362749 56.627865 
L 146.397054 56.604312 
L 146.431359 56.591857 
L 146.499969 55.634848 
L 147.117459 39.689091 
L 147.254679 26.86988 
L 147.529119 24.649938 
L 147.666339 26.914712 
L 148.661184 58.982196 
L 148.764099 59.430068 
L 149.312979 64.730944 
L 149.553114 66.443718 
L 149.587419 66.318142 
L 149.758944 65.721713 
L 149.793249 65.738466 
L 150.170604 67.689936 
L 150.239214 67.661732 
L 150.547959 64.417494 
L 150.753789 61.533851 
L 150.959619 59.178434 
L 150.993924 59.007212 
L 151.028229 59.285714 
L 151.096839 59.188871 
L 151.199754 59.141063 
L 151.268364 58.820273 
L 151.336974 58.899956 
L 151.439889 59.585384 
L 151.508499 59.402741 
L 151.611414 59.69361 
L 151.988769 62.492524 
L 152.400429 66.211841 
L 152.709174 67.972563 
L 152.743479 67.938576 
L 153.086529 65.039382 
L 153.258054 64.396339 
L 153.360969 63.825574 
L 153.395274 64.087717 
L 153.806934 65.608035 
L 153.841239 65.519341 
L 154.321509 63.011994 
L 154.355814 63.073564 
L 154.595949 64.830296 
L 154.630254 64.907854 
L 154.664559 64.855741 
L 155.007609 60.993392 
L 155.144829 59.977147 
L 155.213439 60.252705 
L 155.350659 59.799707 
L 155.487879 58.581627 
L 155.522184 58.709208 
L 156.036759 53.596219 
L 156.173979 52.337956 
L 156.208284 52.394879 
L 156.242589 52.353355 
L 156.276894 52.41099 
L 156.517029 53.635254 
L 156.619944 54.134017 
L 156.654249 53.991025 
L 156.860079 52.382555 
L 156.928689 52.459999 
L 156.962994 52.511345 
L 157.100214 54.088594 
L 157.271739 55.945563 
L 157.306044 51.519253 
L 157.408959 52.410653 
L 157.580484 53.111119 
L 157.614789 52.747033 
L 158.232279 45.673686 
L 158.403804 46.798453 
L 158.472414 47.915192 
L 158.472414 47.915192 
" clip-path="url(#pcc433f19dc)" style="fill: none; stroke: #1a1a1a; stroke-width: 0.9; stroke-linejoin: miter"/>
   </g>
   <g id="line2d_11">
    <path d="M 21.286719 71.124873 
L 21.595464 71.26828 
L 21.869904 71.574359 
L 22.178649 72.337464 
L 23.447934 76.027339 
L 23.996814 76.584212 
L 24.442779 76.708143 
L 24.854439 76.831224 
L 25.266099 77.248293 
L 25.746369 77.701837 
L 26.295249 78.103567 
L 27.118569 78.790548 
L 29.108259 79.926108 
L 29.245479 71.122531 
L 29.554224 71.226501 
L 31.097949 75.60843 
L 31.475304 76.12986 
L 32.161404 76.545204 
L 32.641674 76.514171 
L 33.327774 76.216194 
L 35.077329 75.370116 
L 35.454684 75.501207 
L 35.763429 75.800718 
L 37.547289 78.676544 
L 38.164779 79.885473 
L 38.301999 71.122531 
L 38.576439 71.122531 
L 39.125319 73.345714 
L 39.674199 74.60743 
L 40.051554 74.982427 
L 40.737654 75.245108 
L 41.560974 75.502627 
L 42.418599 76.483831 
L 44.922864 79.177744 
L 45.300219 79.135611 
L 45.849099 78.808844 
L 47.152689 77.672353 
L 48.559194 76.576013 
L 50.480274 75.732979 
L 50.823324 75.818011 
L 51.234984 76.264061 
L 51.783864 76.799744 
L 52.401354 76.979508 
L 53.361894 76.820084 
L 53.876469 76.755375 
L 54.150909 76.971833 
L 54.631179 77.677333 
L 55.488804 79.0345 
L 56.209209 79.939216 
L 56.346429 71.122531 
L 56.655174 71.216698 
L 57.272664 72.576689 
L 57.684324 72.996614 
L 58.164594 73.175018 
L 59.571099 73.483329 
L 60.119979 73.595815 
L 61.629399 73.720735 
L 61.903839 73.854196 
L 62.212584 74.334381 
L 62.658549 75.439152 
L 63.516174 77.81766 
L 64.133664 78.80069 
L 64.922679 79.920697 
L 65.059899 71.122531 
L 65.368644 71.190807 
L 65.814609 71.8169 
L 66.294879 72.433074 
L 67.392639 74.682934 
L 68.215959 76.445982 
L 69.176499 78.663327 
L 69.793989 79.930588 
L 69.931209 71.122531 
L 70.205649 71.122531 
L 71.063274 74.230917 
L 71.612154 75.397427 
L 71.989509 75.777242 
L 72.401169 75.877054 
L 72.984354 75.74893 
L 73.567539 75.691783 
L 74.013504 75.902954 
L 75.865974 77.250265 
L 76.277634 77.896217 
L 77.169564 79.921323 
L 77.306784 71.122531 
L 77.581224 71.122531 
L 78.781899 76.458237 
L 79.776744 79.878676 
L 79.913964 71.122531 
L 80.188404 71.122531 
L 80.771589 72.991194 
L 81.389079 74.209191 
L 81.800739 74.579858 
L 82.383924 74.785884 
L 82.795584 74.928266 
L 83.378769 75.487985 
L 84.236394 76.66603 
L 85.025409 78.040963 
L 85.368459 78.220508 
L 85.780119 78.164529 
L 86.397609 77.832235 
L 87.461064 77.215186 
L 87.907029 77.364249 
L 88.352994 77.785744 
L 88.970484 78.863304 
L 89.416449 79.912366 
L 89.553669 71.122531 
L 89.828109 71.122531 
L 90.342684 72.742208 
L 90.891564 73.676931 
L 91.337529 74.097161 
L 91.817799 74.216383 
L 92.503899 74.118842 
L 94.493589 73.693327 
L 94.870944 73.97231 
L 95.248299 74.550541 
L 95.694264 75.815086 
L 96.792024 79.875698 
L 96.929244 71.122531 
L 97.203684 71.122531 
L 97.786869 74.209759 
L 98.335749 76.008459 
L 98.918934 77.2789 
L 99.296289 77.588059 
L 99.673644 77.636231 
L 100.222524 77.43779 
L 101.217369 77.039167 
L 101.594724 77.126953 
L 101.903469 77.389837 
L 102.280824 78.10244 
L 102.966924 79.89442 
L 103.104144 71.122531 
L 103.378584 71.122531 
L 104.339124 75.375874 
L 105.162444 79.182705 
L 105.299664 79.852587 
L 105.436884 71.122531 
L 105.711324 71.122531 
L 106.363119 74.711466 
L 106.911999 76.723976 
L 107.735319 78.726871 
L 108.318504 79.906971 
L 108.455724 71.122531 
L 108.764469 71.205908 
L 109.210434 71.951953 
L 109.862229 72.525718 
L 111.165819 73.294913 
L 111.749004 74.29605 
L 112.469409 76.049567 
L 112.949679 77.09495 
L 113.327034 77.393802 
L 113.772999 77.424081 
L 115.007979 77.326508 
L 115.453944 77.31581 
L 115.934214 77.579721 
L 116.483094 78.027477 
L 116.826144 78.597906 
L 117.306414 79.906852 
L 117.443634 71.122531 
L 117.718074 71.122531 
L 118.301259 73.534033 
L 118.712919 74.472768 
L 119.124579 74.867767 
L 119.639154 75.01311 
L 120.290949 75.15955 
L 120.805524 75.424481 
L 121.320099 75.578941 
L 121.834674 75.796788 
L 122.589384 76.076731 
L 123.206874 76.282085 
L 123.481314 76.647387 
L 124.167414 78.067468 
L 124.853514 79.695746 
L 124.922124 79.86508 
L 125.059344 71.122531 
L 125.333784 71.122531 
L 125.814054 72.621958 
L 126.362934 73.638114 
L 128.318319 75.793677 
L 128.729979 75.926872 
L 129.793434 76.043163 
L 130.753974 76.547588 
L 131.577294 76.710804 
L 131.954649 76.998441 
L 132.297699 77.602842 
L 132.983799 78.833177 
L 133.326849 78.972867 
L 133.738509 78.872457 
L 134.390304 78.433018 
L 135.076404 78.005017 
L 135.453759 78.111182 
L 135.796809 78.385333 
L 136.345689 79.100731 
L 136.791654 79.936212 
L 136.928874 71.122531 
L 137.203314 71.122531 
L 138.198159 75.381471 
L 138.644124 76.277206 
L 139.021479 76.589344 
L 139.433139 76.877204 
L 139.844799 77.522605 
L 141.251304 79.91327 
L 141.285609 79.939624 
L 141.422829 71.122531 
L 141.731574 71.185445 
L 143.206689 73.569665 
L 144.167229 74.969091 
L 144.819024 75.812273 
L 145.333599 76.551561 
L 146.294139 78.135196 
L 146.740104 78.78717 
L 147.117459 79.861765 
L 147.254679 71.122531 
L 147.529119 71.122531 
L 148.077999 74.065746 
L 148.455354 75.05306 
L 148.901319 75.587299 
L 149.312979 75.819698 
L 149.999079 75.853616 
L 150.650874 75.875659 
L 151.028229 76.198152 
L 151.988769 76.993077 
L 152.400429 77.019211 
L 153.532494 76.929048 
L 154.767474 77.070925 
L 155.247744 77.356562 
L 155.796624 77.861037 
L 156.276894 78.581116 
L 157.203129 79.869145 
L 157.271739 79.933244 
L 157.408959 71.122531 
L 157.717704 71.223195 
L 158.472414 73.705333 
L 158.472414 73.705333 
" clip-path="url(#pcc433f19dc)" style="fill: none; stroke-dasharray: 0.7,1.155; stroke-dashoffset: 0; stroke: #bbbbbb; stroke-width: 0.7"/>
   </g>
   <g id="patch_3">
    <path d="M 21.286719 83.065078 
L 21.286719 14.305078 
" style="fill: none; stroke: #1a1a1a; stroke-width: 0.8; stroke-linejoin: miter; stroke-linecap: square"/>
   </g>
   <g id="patch_4">
    <path d="M 158.506719 83.065078 
L 158.506719 14.305078 
" style="fill: none; stroke: #1a1a1a; stroke-width: 0.8; stroke-linejoin: miter; stroke-linecap: square"/>
   </g>
   <g id="patch_5">
    <path d="M 21.286719 83.065078 
L 158.506719 83.065078 
" style="fill: none; stroke: #1a1a1a; stroke-width: 0.8; stroke-linejoin: miter; stroke-linecap: square"/>
   </g>
   <g id="patch_6">
    <path d="M 21.286719 14.305078 
L 158.506719 14.305078 
" style="fill: none; stroke: #1a1a1a; stroke-width: 0.8; stroke-linejoin: miter; stroke-linecap: square"/>
   </g>
   <g id="text_11">
    <!-- COBA — no recurrent loop (ei-strength = 0) — E-neuron signed currents (cell 157) -->
    <g style="fill: #1a1a1a" transform="translate(21.286719 8.305078) scale(0.085 -0.085)">
     <defs>
      <path id="Menlo-Regular-43" d="M 3353 166 
Q 3113 38 2859 -26 
Q 2606 -91 2322 -91 
Q 1425 -91 929 543 
Q 434 1178 434 2328 
Q 434 3472 932 4111 
Q 1431 4750 2322 4750 
Q 2606 4750 2859 4686 
Q 3113 4622 3353 4494 
L 3353 3847 
Q 3122 4038 2856 4138 
Q 2591 4238 2322 4238 
Q 1706 4238 1400 3763 
Q 1094 3288 1094 2328 
Q 1094 1372 1400 897 
Q 1706 422 2322 422 
Q 2597 422 2861 522 
Q 3125 622 3353 813 
L 3353 166 
z
" transform="scale(0.015625)"/>
      <path id="Menlo-Regular-4f" d="M 2828 2328 
Q 2828 3356 2617 3797 
Q 2406 4238 1925 4238 
Q 1447 4238 1236 3797 
Q 1025 3356 1025 2328 
Q 1025 1303 1236 862 
Q 1447 422 1925 422 
Q 2406 422 2617 861 
Q 2828 1300 2828 2328 
z
M 3488 2328 
Q 3488 1109 3102 509 
Q 2716 -91 1925 -91 
Q 1134 -91 750 506 
Q 366 1103 366 2328 
Q 366 3550 752 4150 
Q 1138 4750 1925 4750 
Q 2716 4750 3102 4150 
Q 3488 3550 3488 2328 
z
" transform="scale(0.015625)"/>
      <path id="Menlo-Regular-42" d="M 1153 2353 
L 1153 519 
L 1900 519 
Q 2450 519 2684 711 
Q 2919 903 2919 1344 
Q 2919 1925 2672 2139 
Q 2425 2353 1900 2353 
L 1153 2353 
z
M 1153 4147 
L 1153 2866 
L 1888 2866 
Q 2344 2866 2548 3041 
Q 2753 3216 2753 3481 
Q 2753 3834 2551 3990 
Q 2350 4147 1888 4147 
L 1153 4147 
z
M 519 4666 
L 1900 4666 
Q 2616 4666 3003 4356 
Q 3391 4047 3391 3481 
Q 3391 3178 3186 2931 
Q 2981 2684 2572 2622 
Q 3031 2553 3292 2229 
Q 3553 1906 3553 1281 
Q 3553 647 3137 323 
Q 2722 0 1900 0 
L 519 0 
L 519 4666 
z
" transform="scale(0.015625)"/>
      <path id="Menlo-Regular-41" d="M 1925 4109 
L 1259 1722 
L 2591 1722 
L 1925 4109 
z
M 1544 4666 
L 2309 4666 
L 3738 0 
L 3084 0 
L 2741 1216 
L 1106 1216 
L 769 0 
L 116 0 
L 1544 4666 
z
" transform="scale(0.015625)"/>
      <path id="Menlo-Regular-2014" d="M 0 2259 
L 3853 2259 
L 3853 1725 
L 0 1725 
L 0 2259 
z
" transform="scale(0.015625)"/>
      <path id="Menlo-Regular-63" d="M 3316 178 
Q 3084 44 2839 -23 
Q 2594 -91 2338 -91 
Q 1525 -91 1067 396 
Q 609 884 609 1747 
Q 609 2609 1067 3096 
Q 1525 3584 2338 3584 
Q 2591 3584 2831 3518 
Q 3072 3453 3316 3316 
L 3316 2713 
Q 3088 2916 2858 3006 
Q 2628 3097 2338 3097 
Q 1797 3097 1506 2747 
Q 1216 2397 1216 1747 
Q 1216 1100 1508 748 
Q 1800 397 2338 397 
Q 2638 397 2875 489 
Q 3113 581 3316 775 
L 3316 178 
z
" transform="scale(0.015625)"/>
      <path id="Menlo-Regular-75" d="M 609 1325 
L 609 3494 
L 1184 3494 
L 1184 1325 
Q 1184 853 1351 631 
Q 1519 409 1869 409 
Q 2275 409 2490 695 
Q 2706 981 2706 1516 
L 2706 3494 
L 3284 3494 
L 3284 0 
L 2706 0 
L 2706 525 
Q 2553 222 2289 65 
Q 2025 -91 1672 -91 
Q 1134 -91 871 261 
Q 609 613 609 1325 
z
" transform="scale(0.015625)"/>
      <path id="Menlo-Regular-2d" d="M 319 2263 
L 3631 2263 
L 3631 1734 
L 319 1734 
L 319 2263 
z
" transform="scale(0.015625)"/>
      <path id="Menlo-Regular-67" d="M 2681 1778 
Q 2681 2425 2470 2761 
Q 2259 3097 1856 3097 
Q 1434 3097 1212 2761 
Q 991 2425 991 1778 
Q 991 1131 1214 792 
Q 1438 453 1863 453 
Q 2259 453 2470 793 
Q 2681 1134 2681 1778 
z
M 3256 225 
Q 3256 -563 2884 -969 
Q 2513 -1375 1791 -1375 
Q 1553 -1375 1293 -1331 
Q 1034 -1288 775 -1203 
L 775 -634 
Q 1081 -778 1331 -847 
Q 1581 -916 1791 -916 
Q 2256 -916 2468 -662 
Q 2681 -409 2681 141 
L 2681 166 
L 2681 556 
Q 2544 263 2306 119 
Q 2069 -25 1728 -25 
Q 1116 -25 750 465 
Q 384 956 384 1778 
Q 384 2603 750 3093 
Q 1116 3584 1728 3584 
Q 2066 3584 2300 3450 
Q 2534 3316 2681 3034 
L 2681 3488 
L 3256 3488 
L 3256 225 
z
" transform="scale(0.015625)"/>
      <path id="Menlo-Regular-3d" d="M 275 1563 
L 3578 1563 
L 3578 1034 
L 275 1034 
L 275 1563 
z
M 275 3034 
L 3578 3034 
L 3578 2506 
L 275 2506 
L 275 3034 
z
" transform="scale(0.015625)"/>
      <path id="Menlo-Regular-45" d="M 616 4666 
L 3384 4666 
L 3384 4134 
L 1247 4134 
L 1247 2878 
L 3291 2878 
L 3291 2347 
L 1247 2347 
L 1247 531 
L 3444 531 
L 3444 0 
L 616 0 
L 616 4666 
z
" transform="scale(0.015625)"/>
      <path id="Menlo-Regular-35" d="M 647 4666 
L 3009 4666 
L 3009 4134 
L 1222 4134 
L 1222 2988 
Q 1356 3038 1492 3061 
Q 1628 3084 1766 3084 
Q 2491 3084 2916 2656 
Q 3341 2228 3341 1497 
Q 3341 759 2895 334 
Q 2450 -91 1678 -91 
Q 1306 -91 998 -41 
Q 691 9 447 109 
L 447 750 
Q 734 594 1025 517 
Q 1316 441 1619 441 
Q 2141 441 2423 716 
Q 2706 991 2706 1497 
Q 2706 1997 2414 2275 
Q 2122 2553 1600 2553 
Q 1347 2553 1106 2495 
Q 866 2438 647 2322 
L 647 4666 
z
" transform="scale(0.015625)"/>
      <path id="Menlo-Regular-37" d="M 434 4666 
L 3372 4666 
L 3372 4397 
L 1703 0 
L 1044 0 
L 2669 4134 
L 434 4134 
L 434 4666 
z
" transform="scale(0.015625)"/>
     </defs>
     <use xlink:href="#Menlo-Regular-43"/>
     <use xlink:href="#Menlo-Regular-4f" transform="translate(60.205078 0)"/>
     <use xlink:href="#Menlo-Regular-42" transform="translate(120.410156 0)"/>
     <use xlink:href="#Menlo-Regular-41" transform="translate(180.615234 0)"/>
     <use xlink:href="#Menlo-Regular-20" transform="translate(240.820312 0)"/>
     <use xlink:href="#Menlo-Regular-2014" transform="translate(301.025391 0)"/>
     <use xlink:href="#Menlo-Regular-20" transform="translate(361.230469 0)"/>
     <use xlink:href="#Menlo-Regular-6e" transform="translate(421.435547 0)"/>
     <use xlink:href="#Menlo-Regular-6f" transform="translate(481.640625 0)"/>
     <use xlink:href="#Menlo-Regular-20" transform="translate(541.845703 0)"/>
     <use xlink:href="#Menlo-Regular-72" transform="translate(602.050781 0)"/>
     <use xlink:href="#Menlo-Regular-65" transform="translate(662.255859 0)"/>
     <use xlink:href="#Menlo-Regular-63" transform="translate(722.460938 0)"/>
     <use xlink:href="#Menlo-Regular-75" transform="translate(782.666016 0)"/>
     <use xlink:href="#Menlo-Regular-72" transform="translate(842.871094 0)"/>
     <use xlink:href="#Menlo-Regular-72" transform="translate(903.076172 0)"/>
     <use xlink:href="#Menlo-Regular-65" transform="translate(963.28125 0)"/>
     <use xlink:href="#Menlo-Regular-6e" transform="translate(1023.486328 0)"/>
     <use xlink:href="#Menlo-Regular-74" transform="translate(1083.691406 0)"/>
     <use xlink:href="#Menlo-Regular-20" transform="translate(1143.896484 0)"/>
     <use xlink:href="#Menlo-Regular-6c" transform="translate(1204.101562 0)"/>
     <use xlink:href="#Menlo-Regular-6f" transform="translate(1264.306641 0)"/>
     <use xlink:href="#Menlo-Regular-6f" transform="translate(1324.511719 0)"/>
     <use xlink:href="#Menlo-Regular-70" transform="translate(1384.716797 0)"/>
     <use xlink:href="#Menlo-Regular-20" transform="translate(1444.921875 0)"/>
     <use xlink:href="#Menlo-Regular-28" transform="translate(1505.126953 0)"/>
     <use xlink:href="#Menlo-Regular-65" transform="translate(1565.332031 0)"/>
     <use xlink:href="#Menlo-Regular-69" transform="translate(1625.537109 0)"/>
     <use xlink:href="#Menlo-Regular-2d" transform="translate(1685.742188 0)"/>
     <use xlink:href="#Menlo-Regular-73" transform="translate(1745.947266 0)"/>
     <use xlink:href="#Menlo-Regular-74" transform="translate(1806.152344 0)"/>
     <use xlink:href="#Menlo-Regular-72" transform="translate(1866.357422 0)"/>
     <use xlink:href="#Menlo-Regular-65" transform="translate(1926.5625 0)"/>
     <use xlink:href="#Menlo-Regular-6e" transform="translate(1986.767578 0)"/>
     <use xlink:href="#Menlo-Regular-67" transform="translate(2046.972656 0)"/>
     <use xlink:href="#Menlo-Regular-74" transform="translate(2107.177734 0)"/>
     <use xlink:href="#Menlo-Regular-68" transform="translate(2167.382812 0)"/>
     <use xlink:href="#Menlo-Regular-20" transform="translate(2227.587891 0)"/>
     <use xlink:href="#Menlo-Regular-3d" transform="translate(2287.792969 0)"/>
     <use xlink:href="#Menlo-Regular-20" transform="translate(2347.998047 0)"/>
     <use xlink:href="#Menlo-Regular-30" transform="translate(2408.203125 0)"/>
     <use xlink:href="#Menlo-Regular-29" transform="translate(2468.408203 0)"/>
     <use xlink:href="#Menlo-Regular-20" transform="translate(2528.613281 0)"/>
     <use xlink:href="#Menlo-Regular-2014" transform="translate(2588.818359 0)"/>
     <use xlink:href="#Menlo-Regular-20" transform="translate(2649.023438 0)"/>
     <use xlink:href="#Menlo-Regular-45" transform="translate(2709.228516 0)"/>
     <use xlink:href="#Menlo-Regular-2d" transform="translate(2769.433594 0)"/>
     <use xlink:href="#Menlo-Regular-6e" transform="translate(2829.638672 0)"/>
     <use xlink:href="#Menlo-Regular-65" transform="translate(2889.84375 0)"/>
     <use xlink:href="#Menlo-Regular-75" transform="translate(2950.048828 0)"/>
     <use xlink:href="#Menlo-Regular-72" transform="translate(3010.253906 0)"/>
     <use xlink:href="#Menlo-Regular-6f" transform="translate(3070.458984 0)"/>
     <use xlink:href="#Menlo-Regular-6e" transform="translate(3130.664062 0)"/>
     <use xlink:href="#Menlo-Regular-20" transform="translate(3190.869141 0)"/>
     <use xlink:href="#Menlo-Regular-73" transform="translate(3251.074219 0)"/>
     <use xlink:href="#Menlo-Regular-69" transform="translate(3311.279297 0)"/>
     <use xlink:href="#Menlo-Regular-67" transform="translate(3371.484375 0)"/>
     <use xlink:href="#Menlo-Regular-6e" transform="translate(3431.689453 0)"/>
     <use xlink:href="#Menlo-Regular-65" transform="translate(3491.894531 0)"/>
     <use xlink:href="#Menlo-Regular-64" transform="translate(3552.099609 0)"/>
     <use xlink:href="#Menlo-Regular-20" transform="translate(3612.304688 0)"/>
     <use xlink:href="#Menlo-Regular-63" transform="translate(3672.509766 0)"/>
     <use xlink:href="#Menlo-Regular-75" transform="translate(3732.714844 0)"/>
     <use xlink:href="#Menlo-Regular-72" transform="translate(3792.919922 0)"/>
     <use xlink:href="#Menlo-Regular-72" transform="translate(3853.125 0)"/>
     <use xlink:href="#Menlo-Regular-65" transform="translate(3913.330078 0)"/>
     <use xlink:href="#Menlo-Regular-6e" transform="translate(3973.535156 0)"/>
     <use xlink:href="#Menlo-Regular-74" transform="translate(4033.740234 0)"/>
     <use xlink:href="#Menlo-Regular-73" transform="translate(4093.945312 0)"/>
     <use xlink:href="#Menlo-Regular-20" transform="translate(4154.150391 0)"/>
     <use xlink:href="#Menlo-Regular-28" transform="translate(4214.355469 0)"/>
     <use xlink:href="#Menlo-Regular-63" transform="translate(4274.560547 0)"/>
     <use xlink:href="#Menlo-Regular-65" transform="translate(4334.765625 0)"/>
     <use xlink:href="#Menlo-Regular-6c" transform="translate(4394.970703 0)"/>
     <use xlink:href="#Menlo-Regular-6c" transform="translate(4455.175781 0)"/>
     <use xlink:href="#Menlo-Regular-20" transform="translate(4515.380859 0)"/>
     <use xlink:href="#Menlo-Regular-31" transform="translate(4575.585938 0)"/>
     <use xlink:href="#Menlo-Regular-35" transform="translate(4635.791016 0)"/>
     <use xlink:href="#Menlo-Regular-37" transform="translate(4695.996094 0)"/>
     <use xlink:href="#Menlo-Regular-29" transform="translate(4756.201172 0)"/>
    </g>
   </g>
   <g id="legend_1">
    <g id="patch_7">
     <path d="M 69.393437 40.898516 
L 155.006719 40.898516 
L 155.006719 17.805078 
L 69.393437 17.805078 
z
" style="fill: #ffffff; stroke: #1a1a1a; stroke-width: 0.8; stroke-linejoin: miter"/>
    </g>
    <g id="line2d_12">
     <path d="M 72.193437 23.808672 
L 77.793437 23.808672 
L 83.393437 23.808672 
" style="fill: none; stroke: #1a1a1a; stroke-width: 0.9; stroke-linejoin: miter"/>
    </g>
    <g id="text_12">
     <!-- I_E in (depol.) -->
     <g style="fill: #1a1a1a" transform="translate(88.993437 26.258672) scale(0.07 -0.07)">
      <defs>
       <path id="Menlo-Regular-5f" d="M 3825 -594 
L 3825 -1125 
L 0 -1125 
L 0 -594 
L 3825 -594 
z
" transform="scale(0.015625)"/>
      </defs>
      <use xlink:href="#Menlo-Regular-49"/>
      <use xlink:href="#Menlo-Regular-5f" transform="translate(60.205078 0)"/>
      <use xlink:href="#Menlo-Regular-45" transform="translate(120.410156 0)"/>
      <use xlink:href="#Menlo-Regular-20" transform="translate(180.615234 0)"/>
      <use xlink:href="#Menlo-Regular-69" transform="translate(240.820312 0)"/>
      <use xlink:href="#Menlo-Regular-6e" transform="translate(301.025391 0)"/>
      <use xlink:href="#Menlo-Regular-20" transform="translate(361.230469 0)"/>
      <use xlink:href="#Menlo-Regular-28" transform="translate(421.435547 0)"/>
      <use xlink:href="#Menlo-Regular-64" transform="translate(481.640625 0)"/>
      <use xlink:href="#Menlo-Regular-65" transform="translate(541.845703 0)"/>
      <use xlink:href="#Menlo-Regular-70" transform="translate(602.050781 0)"/>
      <use xlink:href="#Menlo-Regular-6f" transform="translate(662.255859 0)"/>
      <use xlink:href="#Menlo-Regular-6c" transform="translate(722.460938 0)"/>
      <use xlink:href="#Menlo-Regular-2e" transform="translate(782.666016 0)"/>
      <use xlink:href="#Menlo-Regular-29" transform="translate(842.871094 0)"/>
     </g>
    </g>
    <g id="line2d_13">
     <path d="M 72.193437 34.192734 
L 77.793437 34.192734 
L 83.393437 34.192734 
" style="fill: none; stroke-dasharray: 0.7,1.155; stroke-dashoffset: 0; stroke: #bbbbbb; stroke-width: 0.7"/>
    </g>
    <g id="text_13">
     <!-- I_L in (leak) -->
     <g style="fill: #1a1a1a" transform="translate(88.993437 36.642734) scale(0.07 -0.07)">
      <defs>
       <path id="Menlo-Regular-4c" d="M 672 4666 
L 1306 4666 
L 1306 531 
L 3559 531 
L 3559 0 
L 672 0 
L 672 4666 
z
" transform="scale(0.015625)"/>
       <path id="Menlo-Regular-61" d="M 2194 1759 
L 2003 1759 
Q 1500 1759 1245 1582 
Q 991 1406 991 1056 
Q 991 741 1181 566 
Q 1372 391 1709 391 
Q 2184 391 2456 720 
Q 2728 1050 2731 1631 
L 2731 1759 
L 2194 1759 
z
M 3309 1997 
L 3309 0 
L 2731 0 
L 2731 519 
Q 2547 206 2267 57 
Q 1988 -91 1588 -91 
Q 1053 -91 734 211 
Q 416 513 416 1019 
Q 416 1603 808 1906 
Q 1200 2209 1959 2209 
L 2731 2209 
L 2731 2300 
Q 2728 2719 2518 2908 
Q 2309 3097 1850 3097 
Q 1556 3097 1256 3012 
Q 956 2928 672 2766 
L 672 3341 
Q 991 3463 1283 3523 
Q 1575 3584 1850 3584 
Q 2284 3584 2592 3456 
Q 2900 3328 3091 3072 
Q 3209 2916 3259 2686 
Q 3309 2456 3309 1997 
z
" transform="scale(0.015625)"/>
       <path id="Menlo-Regular-6b" d="M 738 4863 
L 1331 4863 
L 1331 2047 
L 2841 3500 
L 3541 3500 
L 2163 2181 
L 3756 0 
L 3053 0 
L 1759 1806 
L 1331 1403 
L 1331 0 
L 738 0 
L 738 4863 
z
" transform="scale(0.015625)"/>
      </defs>
      <use xlink:href="#Menlo-Regular-49"/>
      <use xlink:href="#Menlo-Regular-5f" transform="translate(60.205078 0)"/>
      <use xlink:href="#Menlo-Regular-4c" transform="translate(120.410156 0)"/>
      <use xlink:href="#Menlo-Regular-20" transform="translate(180.615234 0)"/>
      <use xlink:href="#Menlo-Regular-69" transform="translate(240.820312 0)"/>
      <use xlink:href="#Menlo-Regular-6e" transform="translate(301.025391 0)"/>
      <use xlink:href="#Menlo-Regular-20" transform="translate(361.230469 0)"/>
      <use xlink:href="#Menlo-Regular-28" transform="translate(421.435547 0)"/>
      <use xlink:href="#Menlo-Regular-6c" transform="translate(481.640625 0)"/>
      <use xlink:href="#Menlo-Regular-65" transform="translate(541.845703 0)"/>
      <use xlink:href="#Menlo-Regular-61" transform="translate(602.050781 0)"/>
      <use xlink:href="#Menlo-Regular-6b" transform="translate(662.255859 0)"/>
      <use xlink:href="#Menlo-Regular-29" transform="translate(722.460938 0)"/>
     </g>
    </g>
   </g>
  </g>
 </g>
 <defs>
  <clipPath id="pcc433f19dc">
   <rect x="21.286719" y="14.305078" width="137.22" height="68.76"/>
  </clipPath>
 </defs>
</svg>
