<?xml version="1.0" encoding="utf-8" standalone="no"?>
<!DOCTYPE svg PUBLIC "-//W3C//DTD SVG 1.1//EN"
  "http://www.w3.org/Graphics/SVG/1.1/DTD/svg11.dtd">
<svg xmlns:xlink="http://www.w3.org/1999/xlink" width="461.005469pt" height="106.924453pt" viewBox="0 0 461.005469 106.924453" xmlns="http://www.w3.org/2000/svg" version="1.1">
 <metadata>
  <rdf:RDF xmlns:dc="http://purl.org/dc/elements/1.1/" xmlns:cc="http://creativecommons.org/ns#" xmlns:rdf="http://www.w3.org/1999/02/22-rdf-syntax-ns#">
   <cc:Work>
    <dc:type rdf:resource="http://purl.org/dc/dcmitype/StillImage"/>
    <dc:date>2026-06-29T14:02:16.021081</dc:date>
    <dc:format>image/svg+xml</dc:format>
    <dc:creator>
     <cc:Agent>
      <dc:title>Matplotlib v3.10.8, https://matplotlib.org/</dc:title>
     </cc:Agent>
    </dc:creator>
   </cc:Work>
  </rdf:RDF>
 </metadata>
 <defs>
  <style type="text/css">*{stroke-linejoin: round; stroke-linecap: butt}</style>
 </defs>
 <g id="figure_1">
  <g id="patch_1">
   <path d="M 0 106.924453 
L 461.005469 106.924453 
L 461.005469 0 
L 0 0 
z
" style="fill: #ffffff"/>
  </g>
  <g id="axes_1">
   <g id="patch_2">
    <path d="M 29.715156 83.425078 
L 160.432656 83.425078 
L 160.432656 14.305078 
L 29.715156 14.305078 
z
" style="fill: #ffffff"/>
   </g>
   <g id="matplotlib.axis_1">
    <g id="xtick_1">
     <g id="line2d_1">
      <defs>
       <path id="mee3fa57aad" d="M 0 0 
L 0 -3 
" style="stroke: #1a1a1a; stroke-width: 0.8"/>
      </defs>
      <g>
       <use xlink:href="#mee3fa57aad" x="29.715156" y="83.425078" style="fill: #1a1a1a; stroke: #1a1a1a; stroke-width: 0.8"/>
      </g>
     </g>
     <g id="text_1">
      <!-- 0 -->
      <g style="fill: #1a1a1a" transform="translate(27.608047 92.263672) scale(0.07 -0.07)">
       <defs>
        <path id="Menlo-Regular-30" d="M 1925 4734 
Q 2672 4734 3055 4125 
Q 3438 3516 3438 2322 
Q 3438 1128 3055 518 
Q 2672 -91 1925 -91 
Q 1178 -91 797 518 
Q 416 1128 416 2322 
Q 416 3516 797 4125 
Q 1178 4734 1925 4734 
z
M 1925 409 
Q 2369 409 2586 881 
Q 2803 1353 2803 2322 
Q 2803 2838 2741 3253 
L 1253 925 
Q 1488 409 1925 409 
z
M 1925 4234 
Q 1484 4234 1267 3762 
Q 1050 3291 1050 2322 
Q 1050 1881 1109 1497 
L 2566 3819 
Q 2328 4234 1925 4234 
z
" transform="scale(0.015625)"/>
       </defs>
       <use xlink:href="#Menlo-Regular-30"/>
      </g>
     </g>
    </g>
    <g id="xtick_2">
     <g id="line2d_2">
      <g>
       <use xlink:href="#mee3fa57aad" x="62.394531" y="83.425078" style="fill: #1a1a1a; stroke: #1a1a1a; stroke-width: 0.8"/>
      </g>
     </g>
     <g id="text_2">
      <!-- 100 -->
      <g style="fill: #1a1a1a" transform="translate(56.073203 92.263672) scale(0.07 -0.07)">
       <defs>
        <path id="Menlo-Regular-31" d="M 844 528 
L 1825 528 
L 1825 4053 
L 650 3488 
L 650 4094 
L 1819 4650 
L 2450 4650 
L 2450 528 
L 3419 528 
L 3419 0 
L 844 0 
L 844 528 
z
" transform="scale(0.015625)"/>
       </defs>
       <use xlink:href="#Menlo-Regular-31"/>
       <use xlink:href="#Menlo-Regular-30" transform="translate(60.205078 0)"/>
       <use xlink:href="#Menlo-Regular-30" transform="translate(120.410156 0)"/>
      </g>
     </g>
    </g>
    <g id="xtick_3">
     <g id="line2d_3">
      <g>
       <use xlink:href="#mee3fa57aad" x="95.073906" y="83.425078" style="fill: #1a1a1a; stroke: #1a1a1a; stroke-width: 0.8"/>
      </g>
     </g>
     <g id="text_3">
      <!-- 200 -->
      <g style="fill: #1a1a1a" transform="translate(88.752578 92.263672) scale(0.07 -0.07)">
       <defs>
        <path id="Menlo-Regular-32" d="M 1166 531 
L 3309 531 
L 3309 0 
L 475 0 
L 475 531 
Q 1059 1147 1496 1619 
Q 1934 2091 2100 2284 
Q 2413 2666 2522 2902 
Q 2631 3138 2631 3384 
Q 2631 3775 2401 3997 
Q 2172 4219 1772 4219 
Q 1488 4219 1175 4116 
Q 863 4013 513 3803 
L 513 4441 
Q 834 4594 1145 4672 
Q 1456 4750 1759 4750 
Q 2444 4750 2861 4386 
Q 3278 4022 3278 3431 
Q 3278 3131 3139 2831 
Q 3000 2531 2688 2169 
Q 2513 1966 2180 1606 
Q 1847 1247 1166 531 
z
" transform="scale(0.015625)"/>
       </defs>
       <use xlink:href="#Menlo-Regular-32"/>
       <use xlink:href="#Menlo-Regular-30" transform="translate(60.205078 0)"/>
       <use xlink:href="#Menlo-Regular-30" transform="translate(120.410156 0)"/>
      </g>
     </g>
    </g>
    <g id="xtick_4">
     <g id="line2d_4">
      <g>
       <use xlink:href="#mee3fa57aad" x="127.753281" y="83.425078" style="fill: #1a1a1a; stroke: #1a1a1a; stroke-width: 0.8"/>
      </g>
     </g>
     <g id="text_4">
      <!-- 300 -->
      <g style="fill: #1a1a1a" transform="translate(121.431953 92.263672) scale(0.07 -0.07)">
       <defs>
        <path id="Menlo-Regular-33" d="M 2425 2497 
Q 2884 2375 3128 2064 
Q 3372 1753 3372 1288 
Q 3372 644 2939 276 
Q 2506 -91 1741 -91 
Q 1419 -91 1084 -31 
Q 750 28 428 141 
L 428 769 
Q 747 603 1056 522 
Q 1366 441 1672 441 
Q 2191 441 2469 675 
Q 2747 909 2747 1350 
Q 2747 1756 2469 1995 
Q 2191 2234 1716 2234 
L 1234 2234 
L 1234 2753 
L 1716 2753 
Q 2150 2753 2394 2943 
Q 2638 3134 2638 3475 
Q 2638 3834 2411 4026 
Q 2184 4219 1766 4219 
Q 1488 4219 1191 4156 
Q 894 4094 569 3969 
L 569 4550 
Q 947 4650 1242 4700 
Q 1538 4750 1766 4750 
Q 2447 4750 2855 4408 
Q 3263 4066 3263 3500 
Q 3263 3116 3048 2859 
Q 2834 2603 2425 2497 
z
" transform="scale(0.015625)"/>
       </defs>
       <use xlink:href="#Menlo-Regular-33"/>
       <use xlink:href="#Menlo-Regular-30" transform="translate(60.205078 0)"/>
       <use xlink:href="#Menlo-Regular-30" transform="translate(120.410156 0)"/>
      </g>
     </g>
    </g>
    <g id="xtick_5">
     <g id="line2d_5">
      <g>
       <use xlink:href="#mee3fa57aad" x="160.432656" y="83.425078" style="fill: #1a1a1a; stroke: #1a1a1a; stroke-width: 0.8"/>
      </g>
     </g>
     <g id="text_5">
      <!-- 400 -->
      <g style="fill: #1a1a1a" transform="translate(154.111328 92.263672) scale(0.07 -0.07)">
       <defs>
        <path id="Menlo-Regular-34" d="M 2297 4091 
L 825 1625 
L 2297 1625 
L 2297 4091 
z
M 2194 4666 
L 2925 4666 
L 2925 1625 
L 3547 1625 
L 3547 1113 
L 2925 1113 
L 2925 0 
L 2297 0 
L 2297 1113 
L 319 1113 
L 319 1709 
L 2194 4666 
z
" transform="scale(0.015625)"/>
       </defs>
       <use xlink:href="#Menlo-Regular-34"/>
       <use xlink:href="#Menlo-Regular-30" transform="translate(60.205078 0)"/>
       <use xlink:href="#Menlo-Regular-30" transform="translate(120.410156 0)"/>
      </g>
     </g>
    </g>
    <g id="text_6">
     <!-- time (ms) -->
     <g style="fill: #1a1a1a" transform="translate(73.400781 103.820703) scale(0.08 -0.08)">
      <defs>
       <path id="Menlo-Regular-74" d="M 1919 4494 
L 1919 3500 
L 3225 3500 
L 3225 3053 
L 1919 3053 
L 1919 1153 
Q 1919 766 2066 612 
Q 2213 459 2578 459 
L 3225 459 
L 3225 0 
L 2522 0 
Q 1875 0 1609 259 
Q 1344 519 1344 1153 
L 1344 3053 
L 409 3053 
L 409 3500 
L 1344 3500 
L 1344 4494 
L 1919 4494 
z
" transform="scale(0.015625)"/>
       <path id="Menlo-Regular-69" d="M 988 3488 
L 2459 3488 
L 2459 447 
L 3600 447 
L 3600 0 
L 744 0 
L 744 447 
L 1884 447 
L 1884 3041 
L 988 3041 
L 988 3488 
z
M 1884 4847 
L 2459 4847 
L 2459 4122 
L 1884 4122 
L 1884 4847 
z
" transform="scale(0.015625)"/>
       <path id="Menlo-Regular-6d" d="M 2113 3144 
Q 2219 3369 2383 3476 
Q 2547 3584 2778 3584 
Q 3200 3584 3373 3257 
Q 3547 2931 3547 2028 
L 3547 0 
L 3022 0 
L 3022 2003 
Q 3022 2744 2939 2923 
Q 2856 3103 2638 3103 
Q 2388 3103 2295 2911 
Q 2203 2719 2203 2003 
L 2203 0 
L 1678 0 
L 1678 2003 
Q 1678 2753 1589 2928 
Q 1500 3103 1269 3103 
Q 1041 3103 952 2911 
Q 863 2719 863 2003 
L 863 0 
L 341 0 
L 341 3500 
L 863 3500 
L 863 3200 
Q 966 3388 1120 3486 
Q 1275 3584 1472 3584 
Q 1709 3584 1867 3475 
Q 2025 3366 2113 3144 
z
" transform="scale(0.015625)"/>
       <path id="Menlo-Regular-65" d="M 3500 2038 
L 3500 1756 
L 1009 1756 
L 1009 1738 
Q 984 1022 1282 709 
Q 1581 397 2125 397 
Q 2400 397 2700 484 
Q 3000 572 3341 750 
L 3341 178 
Q 3013 44 2708 -23 
Q 2403 -91 2119 -91 
Q 1303 -91 843 398 
Q 384 888 384 1747 
Q 384 2584 834 3084 
Q 1284 3584 2034 3584 
Q 2703 3584 3089 3131 
Q 3475 2678 3500 2038 
z
M 2925 2206 
Q 2888 2569 2661 2833 
Q 2434 3097 2009 3097 
Q 1594 3097 1325 2822 
Q 1056 2547 1031 2203 
L 2925 2206 
z
" transform="scale(0.015625)"/>
       <path id="Menlo-Regular-20" transform="scale(0.015625)"/>
       <path id="Menlo-Regular-28" d="M 2672 5169 
Q 2256 4456 2051 3748 
Q 1847 3041 1847 2322 
Q 1847 1606 2051 897 
Q 2256 188 2672 -531 
L 2172 -531 
Q 1700 213 1469 917 
Q 1238 1622 1238 2322 
Q 1238 3019 1469 3725 
Q 1700 4431 2172 5169 
L 2672 5169 
z
" transform="scale(0.015625)"/>
       <path id="Menlo-Regular-73" d="M 3041 3378 
L 3041 2816 
Q 2794 2959 2544 3031 
Q 2294 3103 2034 3103 
Q 1644 3103 1451 2976 
Q 1259 2850 1259 2591 
Q 1259 2356 1403 2240 
Q 1547 2125 2119 2016 
L 2350 1972 
Q 2778 1891 2998 1647 
Q 3219 1403 3219 1013 
Q 3219 494 2850 201 
Q 2481 -91 1825 -91 
Q 1566 -91 1281 -36 
Q 997 19 666 128 
L 666 722 
Q 988 556 1281 473 
Q 1575 391 1838 391 
Q 2219 391 2428 545 
Q 2638 700 2638 978 
Q 2638 1378 1872 1531 
L 1847 1538 
L 1631 1581 
Q 1134 1678 906 1908 
Q 678 2138 678 2534 
Q 678 3038 1018 3311 
Q 1359 3584 1991 3584 
Q 2272 3584 2531 3532 
Q 2791 3481 3041 3378 
z
" transform="scale(0.015625)"/>
       <path id="Menlo-Regular-29" d="M 1088 5169 
L 1588 5169 
Q 2059 4431 2290 3725 
Q 2522 3019 2522 2322 
Q 2522 1619 2290 912 
Q 2059 206 1588 -531 
L 1088 -531 
Q 1503 194 1708 903 
Q 1913 1613 1913 2322 
Q 1913 3034 1708 3743 
Q 1503 4453 1088 5169 
z
" transform="scale(0.015625)"/>
      </defs>
      <use xlink:href="#Menlo-Regular-74"/>
      <use xlink:href="#Menlo-Regular-69" transform="translate(60.205078 0)"/>
      <use xlink:href="#Menlo-Regular-6d" transform="translate(120.410156 0)"/>
      <use xlink:href="#Menlo-Regular-65" transform="translate(180.615234 0)"/>
      <use xlink:href="#Menlo-Regular-20" transform="translate(240.820312 0)"/>
      <use xlink:href="#Menlo-Regular-28" transform="translate(301.025391 0)"/>
      <use xlink:href="#Menlo-Regular-6d" transform="translate(361.230469 0)"/>
      <use xlink:href="#Menlo-Regular-73" transform="translate(421.435547 0)"/>
      <use xlink:href="#Menlo-Regular-29" transform="translate(481.640625 0)"/>
     </g>
    </g>
   </g>
   <g id="matplotlib.axis_2">
    <g id="ytick_1">
     <g id="line2d_6">
      <defs>
       <path id="mbd5026ecfb" d="M 0 0 
L 3 0 
" style="stroke: #1a1a1a; stroke-width: 0.8"/>
      </defs>
      <g>
       <use xlink:href="#mbd5026ecfb" x="29.715156" y="67.766801" style="fill: #1a1a1a; stroke: #1a1a1a; stroke-width: 0.8"/>
      </g>
     </g>
     <g id="text_7">
      <!-- 0.0 -->
      <g style="fill: #1a1a1a" transform="translate(13.5725 70.436098) scale(0.07 -0.07)">
       <defs>
        <path id="Menlo-Regular-2e" d="M 1216 1263 
L 2316 1263 
L 2316 0 
L 1216 0 
L 1216 1263 
z
" transform="scale(0.015625)"/>
       </defs>
       <use xlink:href="#Menlo-Regular-30"/>
       <use xlink:href="#Menlo-Regular-2e" transform="translate(60.205078 0)"/>
       <use xlink:href="#Menlo-Regular-30" transform="translate(120.410156 0)"/>
      </g>
     </g>
    </g>
    <g id="ytick_2">
     <g id="line2d_7">
      <g>
       <use xlink:href="#mbd5026ecfb" x="29.715156" y="46.825266" style="fill: #1a1a1a; stroke: #1a1a1a; stroke-width: 0.8"/>
      </g>
     </g>
     <g id="text_8">
      <!-- 2.5 -->
      <g style="fill: #1a1a1a" transform="translate(13.5725 49.494563) scale(0.07 -0.07)">
       <defs>
        <path id="Menlo-Regular-35" d="M 647 4666 
L 3009 4666 
L 3009 4134 
L 1222 4134 
L 1222 2988 
Q 1356 3038 1492 3061 
Q 1628 3084 1766 3084 
Q 2491 3084 2916 2656 
Q 3341 2228 3341 1497 
Q 3341 759 2895 334 
Q 2450 -91 1678 -91 
Q 1306 -91 998 -41 
Q 691 9 447 109 
L 447 750 
Q 734 594 1025 517 
Q 1316 441 1619 441 
Q 2141 441 2423 716 
Q 2706 991 2706 1497 
Q 2706 1997 2414 2275 
Q 2122 2553 1600 2553 
Q 1347 2553 1106 2495 
Q 866 2438 647 2322 
L 647 4666 
z
" transform="scale(0.015625)"/>
       </defs>
       <use xlink:href="#Menlo-Regular-32"/>
       <use xlink:href="#Menlo-Regular-2e" transform="translate(60.205078 0)"/>
       <use xlink:href="#Menlo-Regular-35" transform="translate(120.410156 0)"/>
      </g>
     </g>
    </g>
    <g id="ytick_3">
     <g id="line2d_8">
      <g>
       <use xlink:href="#mbd5026ecfb" x="29.715156" y="25.883732" style="fill: #1a1a1a; stroke: #1a1a1a; stroke-width: 0.8"/>
      </g>
     </g>
     <g id="text_9">
      <!-- 5.0 -->
      <g style="fill: #1a1a1a" transform="translate(13.5725 28.553029) scale(0.07 -0.07)">
       <use xlink:href="#Menlo-Regular-35"/>
       <use xlink:href="#Menlo-Regular-2e" transform="translate(60.205078 0)"/>
       <use xlink:href="#Menlo-Regular-30" transform="translate(120.410156 0)"/>
      </g>
     </g>
    </g>
    <g id="text_10">
     <!-- I in  [+ depol.] -->
     <g style="fill: #1a1a1a" transform="translate(7.90875 87.395078) rotate(-90) scale(0.08 -0.08)">
      <defs>
       <path id="Menlo-Regular-49" d="M 628 4666 
L 3219 4666 
L 3219 4134 
L 2241 4134 
L 2241 531 
L 3219 531 
L 3219 0 
L 628 0 
L 628 531 
L 1606 531 
L 1606 4134 
L 628 4134 
L 628 4666 
z
" transform="scale(0.015625)"/>
       <path id="Menlo-Regular-6e" d="M 3284 2169 
L 3284 0 
L 2706 0 
L 2706 2169 
Q 2706 2641 2540 2862 
Q 2375 3084 2022 3084 
Q 1619 3084 1401 2798 
Q 1184 2513 1184 1978 
L 1184 0 
L 609 0 
L 609 3500 
L 1184 3500 
L 1184 2975 
Q 1338 3275 1600 3429 
Q 1863 3584 2222 3584 
Q 2756 3584 3020 3232 
Q 3284 2881 3284 2169 
z
" transform="scale(0.015625)"/>
       <path id="Menlo-Regular-5b" d="M 1759 5175 
L 3084 5175 
L 3084 4728 
L 2334 4728 
L 2334 -84 
L 3084 -84 
L 3084 -531 
L 1759 -531 
L 1759 5175 
z
" transform="scale(0.015625)"/>
       <path id="Menlo-Regular-2b" d="M 2250 3681 
L 2250 2297 
L 3641 2297 
L 3641 1769 
L 2250 1769 
L 2250 384 
L 1725 384 
L 1725 1769 
L 338 1769 
L 338 2297 
L 1725 2297 
L 1725 3681 
L 2250 3681 
z
" transform="scale(0.015625)"/>
       <path id="Menlo-Regular-64" d="M 2681 3053 
L 2681 4863 
L 3256 4863 
L 3256 0 
L 2681 0 
L 2681 441 
Q 2538 181 2298 45 
Q 2059 -91 1747 -91 
Q 1113 -91 748 401 
Q 384 894 384 1759 
Q 384 2613 750 3098 
Q 1116 3584 1747 3584 
Q 2063 3584 2303 3448 
Q 2544 3313 2681 3053 
z
M 991 1747 
Q 991 1078 1203 737 
Q 1416 397 1831 397 
Q 2247 397 2464 740 
Q 2681 1084 2681 1747 
Q 2681 2413 2464 2755 
Q 2247 3097 1831 3097 
Q 1416 3097 1203 2756 
Q 991 2416 991 1747 
z
" transform="scale(0.015625)"/>
       <path id="Menlo-Regular-70" d="M 1172 441 
L 1172 -1331 
L 594 -1331 
L 594 3500 
L 1172 3500 
L 1172 3053 
Q 1316 3313 1555 3448 
Q 1794 3584 2106 3584 
Q 2741 3584 3102 3093 
Q 3463 2603 3463 1734 
Q 3463 881 3100 395 
Q 2738 -91 2106 -91 
Q 1788 -91 1548 45 
Q 1309 181 1172 441 
z
M 2859 1747 
Q 2859 2416 2648 2756 
Q 2438 3097 2022 3097 
Q 1603 3097 1387 2755 
Q 1172 2413 1172 1747 
Q 1172 1084 1387 740 
Q 1603 397 2022 397 
Q 2438 397 2648 737 
Q 2859 1078 2859 1747 
z
" transform="scale(0.015625)"/>
       <path id="Menlo-Regular-6f" d="M 1925 3097 
Q 1488 3097 1263 2756 
Q 1038 2416 1038 1747 
Q 1038 1081 1263 739 
Q 1488 397 1925 397 
Q 2366 397 2591 739 
Q 2816 1081 2816 1747 
Q 2816 2416 2591 2756 
Q 2366 3097 1925 3097 
z
M 1925 3584 
Q 2653 3584 3039 3112 
Q 3425 2641 3425 1747 
Q 3425 850 3040 379 
Q 2656 -91 1925 -91 
Q 1197 -91 812 379 
Q 428 850 428 1747 
Q 428 2641 812 3112 
Q 1197 3584 1925 3584 
z
" transform="scale(0.015625)"/>
       <path id="Menlo-Regular-6c" d="M 2247 1266 
Q 2247 878 2389 681 
Q 2531 484 2809 484 
L 3481 484 
L 3481 0 
L 2753 0 
Q 2238 0 1955 329 
Q 1672 659 1672 1266 
L 1672 4431 
L 750 4431 
L 750 4881 
L 2247 4881 
L 2247 1266 
z
" transform="scale(0.015625)"/>
       <path id="Menlo-Regular-5d" d="M 2250 5175 
L 2250 -531 
L 925 -531 
L 925 -84 
L 1675 -84 
L 1675 4728 
L 925 4728 
L 925 5175 
L 2250 5175 
z
" transform="scale(0.015625)"/>
      </defs>
      <use xlink:href="#Menlo-Regular-49"/>
      <use xlink:href="#Menlo-Regular-20" transform="translate(60.205078 0)"/>
      <use xlink:href="#Menlo-Regular-69" transform="translate(120.410156 0)"/>
      <use xlink:href="#Menlo-Regular-6e" transform="translate(180.615234 0)"/>
      <use xlink:href="#Menlo-Regular-20" transform="translate(240.820312 0)"/>
      <use xlink:href="#Menlo-Regular-20" transform="translate(301.025391 0)"/>
      <use xlink:href="#Menlo-Regular-5b" transform="translate(361.230469 0)"/>
      <use xlink:href="#Menlo-Regular-2b" transform="translate(421.435547 0)"/>
      <use xlink:href="#Menlo-Regular-20" transform="translate(481.640625 0)"/>
      <use xlink:href="#Menlo-Regular-64" transform="translate(541.845703 0)"/>
      <use xlink:href="#Menlo-Regular-65" transform="translate(602.050781 0)"/>
      <use xlink:href="#Menlo-Regular-70" transform="translate(662.255859 0)"/>
      <use xlink:href="#Menlo-Regular-6f" transform="translate(722.460938 0)"/>
      <use xlink:href="#Menlo-Regular-6c" transform="translate(782.666016 0)"/>
      <use xlink:href="#Menlo-Regular-2e" transform="translate(842.871094 0)"/>
      <use xlink:href="#Menlo-Regular-5d" transform="translate(903.076172 0)"/>
     </g>
    </g>
   </g>
   <g id="line2d_9">
    <path d="M 29.715156 67.766801 
L 160.432656 67.766801 
" clip-path="url(#pb99611a6c1)" style="fill: none; stroke: #bbbbbb; stroke-width: 0.5; stroke-linejoin: miter"/>
   </g>
   <g id="line2d_10">
    <path d="M 29.715156 67.766801 
L 29.878553 67.766801 
L 29.960252 66.97243 
L 30.123648 64.298327 
L 30.287045 65.034362 
L 30.368744 64.6344 
L 30.532141 62.19361 
L 30.613839 62.835636 
L 30.695538 61.664915 
L 30.777236 54.787304 
L 30.858934 54.801504 
L 30.940633 54.671597 
L 31.430823 37.017436 
L 31.512522 19.449697 
L 31.59422 25.127103 
L 32.002713 45.405194 
L 32.411205 56.483448 
L 32.819697 61.821439 
L 33.228189 64.572522 
L 33.636681 66.037666 
L 34.045173 66.829061 
L 34.535364 67.317261 
L 35.107253 67.576728 
L 36.005936 67.717988 
L 38.211794 67.765103 
L 42.460113 67.766798 
L 42.541811 66.69881 
L 42.623509 66.825035 
L 42.705208 66.936228 
L 42.868605 62.430368 
L 42.950303 63.07501 
L 43.032002 62.692603 
L 43.195398 61.350779 
L 43.277097 62.126348 
L 43.358795 61.869224 
L 43.522192 59.644569 
L 43.767288 61.383673 
L 43.930684 62.816016 
L 44.094081 59.372132 
L 44.17578 60.384795 
L 44.257478 59.465589 
L 44.339177 59.640295 
L 44.420875 59.657423 
L 44.502573 60.628889 
L 44.584272 59.634194 
L 44.747669 55.703152 
L 44.829367 55.441339 
L 44.911066 56.944621 
L 45.074463 51.155281 
L 45.156161 50.780765 
L 45.401256 42.945468 
L 45.482955 43.658573 
L 45.564653 43.555147 
L 45.809748 32.769544 
L 45.891447 35.909275 
L 46.299939 50.973141 
L 46.708431 59.166185 
L 47.116923 63.217692 
L 47.525416 65.325346 
L 47.933908 66.449041 
L 48.424098 67.137005 
L 48.995987 67.500977 
L 49.731273 67.679434 
L 51.201845 67.757463 
L 56.103752 67.766796 
L 56.18545 66.76659 
L 56.267148 66.884757 
L 56.757339 67.351062 
L 57.002434 67.481135 
L 57.329228 63.349967 
L 57.410927 63.880043 
L 57.574323 62.086744 
L 57.656022 61.842771 
L 57.73772 62.556402 
L 58.064514 57.435305 
L 58.146213 57.770055 
L 58.309609 60.052359 
L 58.391308 60.019661 
L 58.473006 59.928706 
L 58.718102 56.690042 
L 58.7998 56.310201 
L 58.881498 54.776063 
L 59.044895 57.748387 
L 59.126594 57.192571 
L 59.289991 57.931295 
L 59.371689 59.104034 
L 59.616784 56.566849 
L 59.698483 54.666643 
L 59.780181 56.252785 
L 60.025277 50.682537 
L 60.188673 52.530816 
L 60.270372 51.867223 
L 60.433769 47.513099 
L 60.515467 48.448109 
L 60.597166 47.145364 
L 60.678864 47.346696 
L 60.760563 47.60942 
L 60.842261 43.602607 
L 61.250753 54.832641 
L 61.659245 61.089533 
L 62.067738 64.232453 
L 62.47623 65.87434 
L 62.884722 66.748699 
L 63.374913 67.282128 
L 63.946802 67.563023 
L 64.845484 67.714753 
L 66.969644 67.76476 
L 68.521914 67.766611 
L 68.767009 64.138812 
L 68.848708 64.573236 
L 69.2572 66.069127 
L 69.502295 61.298701 
L 69.583994 59.250447 
L 69.665692 59.433141 
L 69.829089 56.798408 
L 69.992486 54.14265 
L 70.074184 53.119187 
L 70.155883 53.1557 
L 70.237581 52.901466 
L 70.400978 54.83422 
L 70.482677 53.841902 
L 70.564375 54.77734 
L 70.727772 49.804325 
L 70.80947 49.417702 
L 70.972867 46.667902 
L 71.054566 47.68461 
L 71.136264 45.722006 
L 71.217962 46.242571 
L 71.381359 46.747715 
L 71.463058 49.352506 
L 71.544756 46.683709 
L 71.953248 56.481835 
L 72.361741 61.914047 
L 72.770233 64.664526 
L 73.178725 66.105804 
L 73.587217 66.873809 
L 74.077408 67.342111 
L 74.730995 67.609243 
L 75.793075 67.735473 
L 78.570822 67.76635 
L 78.65252 66.817145 
L 78.734219 66.929243 
L 79.224409 67.371828 
L 79.469505 64.654272 
L 79.632902 65.351334 
L 79.877997 62.394811 
L 79.959695 63.041205 
L 80.123092 64.102994 
L 80.204791 63.408313 
L 80.286489 63.927786 
L 80.368188 63.410594 
L 80.531584 64.384053 
L 80.613283 63.926628 
L 80.858378 60.809436 
L 80.940077 60.708324 
L 81.103473 54.624882 
L 81.185172 56.255276 
L 81.757061 32.255029 
L 81.838759 17.446896 
L 82.247252 40.832499 
L 82.655744 54.393756 
L 83.064236 60.770292 
L 83.472728 64.017448 
L 83.88122 65.738115 
L 84.289713 66.666117 
L 84.779903 67.23866 
L 85.351792 67.54325 
L 86.168777 67.70174 
L 87.966142 67.76257 
L 91.23408 67.766772 
L 91.315778 66.772013 
L 91.397477 66.889509 
L 91.72427 67.235576 
L 91.805969 66.181374 
L 91.887667 66.369047 
L 92.051064 66.679765 
L 92.132762 65.706934 
L 92.214461 65.95112 
L 92.622953 66.797627 
L 92.78635 67.012113 
L 92.868048 66.237705 
L 92.949747 66.418087 
L 93.194842 66.84045 
L 93.276541 64.044724 
L 93.358239 64.488988 
L 93.439937 64.878906 
L 93.603334 62.580999 
L 93.685033 58.237455 
L 93.766731 58.370928 
L 94.011827 60.530114 
L 94.093525 60.585584 
L 94.256922 60.232852 
L 94.33862 58.109783 
L 94.420319 58.204322 
L 94.502017 58.459522 
L 94.583716 56.658917 
L 94.665414 56.94224 
L 94.747113 57.303587 
L 94.828811 52.48027 
L 94.910509 52.700699 
L 95.155605 49.668679 
L 95.237303 50.072047 
L 95.319002 51.49387 
L 95.645795 41.869039 
L 95.727494 41.419904 
L 95.809192 36.661793 
L 96.217684 51.11749 
L 96.626177 59.2602 
L 97.034669 63.278273 
L 97.443161 65.36301 
L 97.851653 66.471675 
L 98.341844 67.148863 
L 98.913733 67.506358 
L 99.730717 67.69128 
L 101.364686 67.760521 
L 106.92018 67.7668 
L 107.083577 64.725637 
L 107.165275 65.088956 
L 107.246973 65.407944 
L 107.492069 63.532368 
L 107.655466 59.892199 
L 107.737164 60.851988 
L 107.900561 57.708368 
L 108.145656 47.618836 
L 108.227355 47.466235 
L 108.390752 49.948392 
L 108.554148 44.64828 
L 108.635847 45.95944 
L 108.717545 41.94102 
L 108.799244 43.039477 
L 108.880942 43.951329 
L 108.962641 43.846062 
L 109.044339 42.933053 
L 109.126038 39.440217 
L 109.53453 52.604673 
L 109.943022 59.98785 
L 110.351514 63.657077 
L 110.760006 65.566036 
L 111.168498 66.581776 
L 111.658689 67.201903 
L 112.230578 67.528945 
L 113.047563 67.697902 
L 114.76323 67.761749 
L 118.357961 67.76678 
L 118.439659 66.906452 
L 118.521358 67.008007 
L 119.011548 67.409017 
L 119.093247 66.558904 
L 119.174945 66.701608 
L 119.338342 66.938078 
L 119.501739 63.929549 
L 119.828533 58.535119 
L 119.99193 59.032778 
L 120.073628 56.444131 
L 120.237025 58.28793 
L 120.400422 55.406262 
L 120.48212 56.15716 
L 120.563819 52.735707 
L 120.645517 52.771781 
L 120.727216 53.67121 
L 120.890613 48.844603 
L 121.054009 53.276267 
L 121.135708 52.653125 
L 121.217406 54.498164 
L 121.299105 52.644057 
L 121.5442 56.028701 
L 121.789295 53.346454 
L 122.034391 46.622155 
L 122.116089 45.557677 
L 122.279486 50.718274 
L 122.361184 48.253006 
L 122.769677 57.32182 
L 123.178169 62.33697 
L 123.586661 64.886633 
L 123.995153 66.224771 
L 124.403645 66.938046 
L 124.893836 67.37286 
L 125.547423 67.620742 
L 126.609503 67.73778 
L 129.959139 67.766627 
L 130.694425 67.766744 
L 130.776123 66.655157 
L 130.857822 66.786553 
L 130.93952 66.902294 
L 131.021219 66.082306 
L 131.102917 66.281888 
L 131.266314 66.612214 
L 131.348013 64.8124 
L 131.429711 65.164455 
L 131.593108 65.745569 
L 131.756505 64.455153 
L 131.838203 64.849439 
L 132.083298 63.016879 
L 132.164997 63.585333 
L 132.246695 63.152837 
L 132.328394 63.703585 
L 132.491791 62.297753 
L 132.573489 62.042997 
L 132.736886 63.32811 
L 132.818584 62.868343 
L 133.227077 65.151947 
L 133.308775 65.45796 
L 133.390473 64.811485 
L 133.55387 62.729323 
L 133.635569 62.408302 
L 133.798966 63.603513 
L 133.880664 63.216198 
L 134.044061 64.225629 
L 134.207458 62.36492 
L 134.289156 63.005176 
L 134.534252 62.055705 
L 134.697648 54.568825 
L 134.779347 55.352312 
L 135.024442 50.657016 
L 135.106141 50.202588 
L 135.269537 44.24318 
L 135.432934 40.944165 
L 135.514633 40.577135 
L 135.596331 41.03446 
L 135.67803 23.134237 
L 135.759728 28.378703 
L 136.16822 47.078216 
L 136.576712 57.280834 
L 136.985205 62.235296 
L 137.393697 64.79588 
L 137.802189 66.159998 
L 138.210681 66.896278 
L 138.700872 67.349947 
L 139.354459 67.611173 
L 140.416539 67.735672 
L 143.602778 67.766559 
L 145.645239 67.76679 
L 145.726937 66.891136 
L 145.808636 66.994508 
L 146.13543 67.299086 
L 146.217128 66.579261 
L 146.298827 66.719557 
L 146.380525 66.843144 
L 146.462223 65.908444 
L 146.543922 66.128654 
L 146.952414 66.892392 
L 147.360906 67.298767 
L 147.606002 64.872763 
L 147.769398 65.519183 
L 147.851097 64.717407 
L 147.932795 65.079673 
L 148.096192 63.105055 
L 148.259589 64.151754 
L 148.341287 62.5761 
L 148.586383 64.2197 
L 148.831478 59.122825 
L 148.913177 52.593992 
L 148.994875 53.557861 
L 149.321669 50.797413 
L 149.403367 48.688736 
L 149.485066 48.890931 
L 149.566764 48.937799 
L 150.138653 36.198273 
L 150.547145 50.869386 
L 150.955637 59.139405 
L 151.36413 63.215484 
L 151.772622 65.329352 
L 152.181114 66.453409 
L 152.671305 67.140053 
L 153.243194 67.502603 
L 153.97848 67.680063 
L 155.449052 67.757541 
L 159.615672 67.766785 
L 159.779069 66.019596 
L 159.860767 66.226807 
L 160.187561 66.835548 
L 160.269259 65.857365 
L 160.350958 66.083583 
" clip-path="url(#pb99611a6c1)" style="fill: none; stroke: #1a1a1a; stroke-width: 0.9; stroke-linejoin: miter"/>
   </g>
   <g id="line2d_11">
    <path d="M 29.715156 78.199239 
L 30.123648 76.238018 
L 30.532141 75.208133 
L 30.695538 75.025879 
L 31.10403 76.818515 
L 31.430823 80.082865 
L 31.59422 67.766801 
L 31.921014 67.766801 
L 32.247808 71.089384 
L 32.574602 72.415802 
L 32.819697 72.70988 
L 33.064792 72.667007 
L 33.391586 72.323793 
L 35.760841 69.16864 
L 36.659523 68.590032 
L 37.721603 68.200267 
L 39.110477 67.952762 
L 41.316334 67.815065 
L 42.623509 67.884009 
L 42.705208 67.918814 
L 43.1137 69.010355 
L 43.848986 70.958081 
L 44.012383 71.231929 
L 44.502573 72.382678 
L 44.66597 72.896122 
L 45.156161 75.28413 
L 45.72805 80.28326 
L 45.891447 67.766801 
L 46.218241 67.766801 
L 46.545034 70.270375 
L 46.871828 71.285996 
L 47.116923 71.5159 
L 47.362019 71.487678 
L 47.770511 71.143039 
L 49.812972 68.994371 
L 50.711655 68.490788 
L 51.773734 68.148782 
L 53.244306 67.92284 
L 55.695259 67.801669 
L 56.267148 67.880826 
L 56.839038 68.005908 
L 57.084133 68.071913 
L 57.24753 68.340782 
L 57.901117 70.093054 
L 59.044895 73.96007 
L 59.535086 74.937535 
L 59.943578 76.169992 
L 60.760563 80.238364 
L 60.923959 67.766801 
L 61.250753 67.766801 
L 61.577547 69.45664 
L 61.904341 70.152959 
L 62.231134 70.32369 
L 62.557928 70.225913 
L 63.211516 69.73299 
L 64.436992 68.820495 
L 65.417373 68.364908 
L 66.64285 68.05368 
L 68.358517 67.86777 
L 68.603612 67.902312 
L 68.848708 68.288722 
L 69.175502 68.617046 
L 69.2572 68.658407 
L 69.583994 69.565179 
L 69.910787 71.170618 
L 71.463058 80.247027 
L 71.626455 67.766801 
L 71.953248 67.766801 
L 72.280042 69.244346 
L 72.606836 69.855644 
L 72.93363 70.006493 
L 73.342122 69.879577 
L 74.322503 69.191947 
L 75.384583 68.570738 
L 76.528361 68.17786 
L 77.998933 67.935852 
L 78.734219 67.959702 
L 79.387806 68.210863 
L 80.940077 70.745982 
L 81.26687 72.542216 
L 81.593664 77.054526 
L 81.757061 79.581052 
L 81.920458 67.766801 
L 82.247252 67.766801 
L 82.574045 71.222304 
L 82.900839 72.598155 
L 83.145934 72.902142 
L 83.39103 72.856646 
L 83.717823 72.499551 
L 86.087078 69.222783 
L 86.904063 68.664728 
L 87.884444 68.263958 
L 89.191619 67.991132 
L 91.152381 67.834461 
L 91.397477 67.914008 
L 92.132762 68.278804 
L 92.541255 68.479004 
L 93.194842 68.60119 
L 93.685033 69.645995 
L 94.093525 71.005555 
L 94.502017 72.229723 
L 94.992208 74.548176 
L 95.645795 79.11222 
L 95.727494 79.854868 
L 95.890891 67.766801 
L 96.217684 67.766801 
L 96.544478 69.931525 
L 96.871272 70.81545 
L 97.116367 71.017228 
L 97.443161 70.954087 
L 97.933352 70.533483 
L 99.485622 69.049866 
L 100.384305 68.529395 
L 101.446384 68.170619 
L 102.916956 67.932036 
L 105.286211 67.805651 
L 107.001878 67.826824 
L 107.573767 68.988054 
L 107.982259 70.904762 
L 108.962641 79.4384 
L 109.044339 80.089483 
L 109.207736 67.766801 
L 109.53453 67.766801 
L 109.861323 69.741979 
L 110.188117 70.551447 
L 110.433213 70.737089 
L 110.760006 70.680348 
L 111.250197 70.296325 
L 112.802467 68.9398 
L 113.782848 68.43104 
L 114.926627 68.101228 
L 116.560595 67.89054 
L 118.439659 67.848003 
L 119.501739 68.357724 
L 119.828533 69.620332 
L 120.727216 73.926618 
L 121.217406 76.414901 
L 121.5442 77.257947 
L 121.789295 77.840613 
L 122.279486 80.235009 
L 122.442883 67.766801 
L 122.769677 67.766801 
L 123.09647 69.135874 
L 123.423264 69.703452 
L 123.750058 69.843968 
L 124.15855 69.726612 
L 125.22063 69.036062 
L 126.282709 68.478499 
L 127.426488 68.129891 
L 128.978758 67.908761 
L 130.776123 67.868422 
L 131.348013 68.292001 
L 132.328394 69.666768 
L 132.900283 70.580714 
L 133.145378 70.657021 
L 133.472172 70.708784 
L 133.880664 71.108362 
L 134.289156 71.382171 
L 134.534252 71.625302 
L 134.861045 73.283673 
L 135.351236 77.348259 
L 135.596331 79.797028 
L 135.759728 67.766801 
L 136.086522 67.766801 
L 136.413316 70.84387 
L 136.740109 72.078234 
L 136.985205 72.353638 
L 137.2303 72.315427 
L 137.638792 71.891538 
L 139.599555 69.338905 
L 140.416539 68.741974 
L 141.39692 68.308355 
L 142.622397 68.02402 
L 144.501461 67.848418 
L 145.808636 67.881811 
L 146.62562 68.26684 
L 147.115811 68.379715 
L 147.442605 68.410647 
L 148.014494 69.080632 
L 148.504684 69.871544 
L 148.668081 70.094521 
L 148.831478 70.603271 
L 150.056955 80.217719 
L 150.220352 67.766801 
L 150.547145 67.766801 
L 150.873939 69.963064 
L 151.200733 70.859327 
L 151.445828 71.063767 
L 151.772622 70.999545 
L 152.262812 70.572863 
L 153.815083 69.068144 
L 154.713766 68.540273 
L 155.775845 68.176384 
L 157.246417 67.934382 
L 159.615672 67.806194 
L 160.350958 68.292934 
L 160.350958 68.292934 
" clip-path="url(#pb99611a6c1)" style="fill: none; stroke-dasharray: 0.7,1.155; stroke-dashoffset: 0; stroke: #bbbbbb; stroke-width: 0.7"/>
   </g>
   <g id="patch_3">
    <path d="M 29.715156 83.425078 
L 29.715156 14.305078 
" style="fill: none; stroke: #1a1a1a; stroke-width: 0.8; stroke-linejoin: miter; stroke-linecap: square"/>
   </g>
   <g id="patch_4">
    <path d="M 160.432656 83.425078 
L 160.432656 14.305078 
" style="fill: none; stroke: #1a1a1a; stroke-width: 0.8; stroke-linejoin: miter; stroke-linecap: square"/>
   </g>
   <g id="patch_5">
    <path d="M 29.715156 83.425078 
L 160.432656 83.425078 
" style="fill: none; stroke: #1a1a1a; stroke-width: 0.8; stroke-linejoin: miter; stroke-linecap: square"/>
   </g>
   <g id="patch_6">
    <path d="M 29.715156 14.305078 
L 160.432656 14.305078 
" style="fill: none; stroke: #1a1a1a; stroke-width: 0.8; stroke-linejoin: miter; stroke-linecap: square"/>
   </g>
   <g id="text_11">
    <!-- PING — recurrent loop active (ei-strength = 1.5) — I-neuron signed currents (cell 3) -->
    <g style="fill: #1a1a1a" transform="translate(29.715156 8.305078) scale(0.085 -0.085)">
     <defs>
      <path id="Menlo-Regular-50" d="M 1247 4147 
L 1247 2394 
L 1978 2394 
Q 2416 2394 2661 2625 
Q 2906 2856 2906 3272 
Q 2906 3688 2662 3917 
Q 2419 4147 1978 4147 
L 1247 4147 
z
M 616 4666 
L 1978 4666 
Q 2759 4666 3162 4311 
Q 3566 3956 3566 3272 
Q 3566 2581 3164 2228 
Q 2763 1875 1978 1875 
L 1247 1875 
L 1247 0 
L 616 0 
L 616 4666 
z
" transform="scale(0.015625)"/>
      <path id="Menlo-Regular-4e" d="M 59 4650 
L 922 4650 
L 2747 822 
L 2747 4650 
L 3419 4650 
L 3419 0 
L 2556 0 
L 731 3828 
L 731 0 
L 59 0 
L 59 4650 
z
" transform="scale(0.015625)"/>
      <path id="Menlo-Regular-47" d="M 3450 384 
Q 3197 150 2880 29 
Q 2563 -91 2194 -91 
Q 1306 -91 812 545 
Q 319 1181 319 2328 
Q 319 3472 819 4111 
Q 1319 4750 2209 4750 
Q 2503 4750 2772 4667 
Q 3041 4584 3291 4416 
L 3291 3769 
Q 3038 4009 2772 4123 
Q 2506 4238 2209 4238 
Q 1594 4238 1286 3761 
Q 978 3284 978 2328 
Q 978 1356 1276 889 
Q 1575 422 2194 422 
Q 2403 422 2561 470 
Q 2719 519 2847 622 
L 2847 1875 
L 2169 1875 
L 2169 2394 
L 3450 2394 
L 3450 384 
z
" transform="scale(0.015625)"/>
      <path id="Menlo-Regular-2014" d="M 0 2259 
L 3853 2259 
L 3853 1725 
L 0 1725 
L 0 2259 
z
" transform="scale(0.015625)"/>
      <path id="Menlo-Regular-72" d="M 3609 2778 
Q 3425 2922 3234 2987 
Q 3044 3053 2816 3053 
Q 2278 3053 1993 2715 
Q 1709 2378 1709 1741 
L 1709 0 
L 1131 0 
L 1131 3500 
L 1709 3500 
L 1709 2816 
Q 1853 3188 2151 3386 
Q 2450 3584 2859 3584 
Q 3072 3584 3256 3531 
Q 3441 3478 3609 3366 
L 3609 2778 
z
" transform="scale(0.015625)"/>
      <path id="Menlo-Regular-63" d="M 3316 178 
Q 3084 44 2839 -23 
Q 2594 -91 2338 -91 
Q 1525 -91 1067 396 
Q 609 884 609 1747 
Q 609 2609 1067 3096 
Q 1525 3584 2338 3584 
Q 2591 3584 2831 3518 
Q 3072 3453 3316 3316 
L 3316 2713 
Q 3088 2916 2858 3006 
Q 2628 3097 2338 3097 
Q 1797 3097 1506 2747 
Q 1216 2397 1216 1747 
Q 1216 1100 1508 748 
Q 1800 397 2338 397 
Q 2638 397 2875 489 
Q 3113 581 3316 775 
L 3316 178 
z
" transform="scale(0.015625)"/>
      <path id="Menlo-Regular-75" d="M 609 1325 
L 609 3494 
L 1184 3494 
L 1184 1325 
Q 1184 853 1351 631 
Q 1519 409 1869 409 
Q 2275 409 2490 695 
Q 2706 981 2706 1516 
L 2706 3494 
L 3284 3494 
L 3284 0 
L 2706 0 
L 2706 525 
Q 2553 222 2289 65 
Q 2025 -91 1672 -91 
Q 1134 -91 871 261 
Q 609 613 609 1325 
z
" transform="scale(0.015625)"/>
      <path id="Menlo-Regular-61" d="M 2194 1759 
L 2003 1759 
Q 1500 1759 1245 1582 
Q 991 1406 991 1056 
Q 991 741 1181 566 
Q 1372 391 1709 391 
Q 2184 391 2456 720 
Q 2728 1050 2731 1631 
L 2731 1759 
L 2194 1759 
z
M 3309 1997 
L 3309 0 
L 2731 0 
L 2731 519 
Q 2547 206 2267 57 
Q 1988 -91 1588 -91 
Q 1053 -91 734 211 
Q 416 513 416 1019 
Q 416 1603 808 1906 
Q 1200 2209 1959 2209 
L 2731 2209 
L 2731 2300 
Q 2728 2719 2518 2908 
Q 2309 3097 1850 3097 
Q 1556 3097 1256 3012 
Q 956 2928 672 2766 
L 672 3341 
Q 991 3463 1283 3523 
Q 1575 3584 1850 3584 
Q 2284 3584 2592 3456 
Q 2900 3328 3091 3072 
Q 3209 2916 3259 2686 
Q 3309 2456 3309 1997 
z
" transform="scale(0.015625)"/>
      <path id="Menlo-Regular-76" d="M 313 3500 
L 909 3500 
L 1925 563 
L 2944 3500 
L 3541 3500 
L 2297 0 
L 1556 0 
L 313 3500 
z
" transform="scale(0.015625)"/>
      <path id="Menlo-Regular-2d" d="M 319 2263 
L 3631 2263 
L 3631 1734 
L 319 1734 
L 319 2263 
z
" transform="scale(0.015625)"/>
      <path id="Menlo-Regular-67" d="M 2681 1778 
Q 2681 2425 2470 2761 
Q 2259 3097 1856 3097 
Q 1434 3097 1212 2761 
Q 991 2425 991 1778 
Q 991 1131 1214 792 
Q 1438 453 1863 453 
Q 2259 453 2470 793 
Q 2681 1134 2681 1778 
z
M 3256 225 
Q 3256 -563 2884 -969 
Q 2513 -1375 1791 -1375 
Q 1553 -1375 1293 -1331 
Q 1034 -1288 775 -1203 
L 775 -634 
Q 1081 -778 1331 -847 
Q 1581 -916 1791 -916 
Q 2256 -916 2468 -662 
Q 2681 -409 2681 141 
L 2681 166 
L 2681 556 
Q 2544 263 2306 119 
Q 2069 -25 1728 -25 
Q 1116 -25 750 465 
Q 384 956 384 1778 
Q 384 2603 750 3093 
Q 1116 3584 1728 3584 
Q 2066 3584 2300 3450 
Q 2534 3316 2681 3034 
L 2681 3488 
L 3256 3488 
L 3256 225 
z
" transform="scale(0.015625)"/>
      <path id="Menlo-Regular-68" d="M 3284 2169 
L 3284 0 
L 2706 0 
L 2706 2169 
Q 2706 2641 2540 2862 
Q 2375 3084 2022 3084 
Q 1619 3084 1401 2798 
Q 1184 2513 1184 1978 
L 1184 0 
L 609 0 
L 609 4863 
L 1184 4863 
L 1184 2975 
Q 1338 3275 1600 3429 
Q 1863 3584 2222 3584 
Q 2756 3584 3020 3232 
Q 3284 2881 3284 2169 
z
" transform="scale(0.015625)"/>
      <path id="Menlo-Regular-3d" d="M 275 1563 
L 3578 1563 
L 3578 1034 
L 275 1034 
L 275 1563 
z
M 275 3034 
L 3578 3034 
L 3578 2506 
L 275 2506 
L 275 3034 
z
" transform="scale(0.015625)"/>
     </defs>
     <use xlink:href="#Menlo-Regular-50"/>
     <use xlink:href="#Menlo-Regular-49" transform="translate(60.205078 0)"/>
     <use xlink:href="#Menlo-Regular-4e" transform="translate(120.410156 0)"/>
     <use xlink:href="#Menlo-Regular-47" transform="translate(180.615234 0)"/>
     <use xlink:href="#Menlo-Regular-20" transform="translate(240.820312 0)"/>
     <use xlink:href="#Menlo-Regular-2014" transform="translate(301.025391 0)"/>
     <use xlink:href="#Menlo-Regular-20" transform="translate(361.230469 0)"/>
     <use xlink:href="#Menlo-Regular-72" transform="translate(421.435547 0)"/>
     <use xlink:href="#Menlo-Regular-65" transform="translate(481.640625 0)"/>
     <use xlink:href="#Menlo-Regular-63" transform="translate(541.845703 0)"/>
     <use xlink:href="#Menlo-Regular-75" transform="translate(602.050781 0)"/>
     <use xlink:href="#Menlo-Regular-72" transform="translate(662.255859 0)"/>
     <use xlink:href="#Menlo-Regular-72" transform="translate(722.460938 0)"/>
     <use xlink:href="#Menlo-Regular-65" transform="translate(782.666016 0)"/>
     <use xlink:href="#Menlo-Regular-6e" transform="translate(842.871094 0)"/>
     <use xlink:href="#Menlo-Regular-74" transform="translate(903.076172 0)"/>
     <use xlink:href="#Menlo-Regular-20" transform="translate(963.28125 0)"/>
     <use xlink:href="#Menlo-Regular-6c" transform="translate(1023.486328 0)"/>
     <use xlink:href="#Menlo-Regular-6f" transform="translate(1083.691406 0)"/>
     <use xlink:href="#Menlo-Regular-6f" transform="translate(1143.896484 0)"/>
     <use xlink:href="#Menlo-Regular-70" transform="translate(1204.101562 0)"/>
     <use xlink:href="#Menlo-Regular-20" transform="translate(1264.306641 0)"/>
     <use xlink:href="#Menlo-Regular-61" transform="translate(1324.511719 0)"/>
     <use xlink:href="#Menlo-Regular-63" transform="translate(1384.716797 0)"/>
     <use xlink:href="#Menlo-Regular-74" transform="translate(1444.921875 0)"/>
     <use xlink:href="#Menlo-Regular-69" transform="translate(1505.126953 0)"/>
     <use xlink:href="#Menlo-Regular-76" transform="translate(1565.332031 0)"/>
     <use xlink:href="#Menlo-Regular-65" transform="translate(1625.537109 0)"/>
     <use xlink:href="#Menlo-Regular-20" transform="translate(1685.742188 0)"/>
     <use xlink:href="#Menlo-Regular-28" transform="translate(1745.947266 0)"/>
     <use xlink:href="#Menlo-Regular-65" transform="translate(1806.152344 0)"/>
     <use xlink:href="#Menlo-Regular-69" transform="translate(1866.357422 0)"/>
     <use xlink:href="#Menlo-Regular-2d" transform="translate(1926.5625 0)"/>
     <use xlink:href="#Menlo-Regular-73" transform="translate(1986.767578 0)"/>
     <use xlink:href="#Menlo-Regular-74" transform="translate(2046.972656 0)"/>
     <use xlink:href="#Menlo-Regular-72" transform="translate(2107.177734 0)"/>
     <use xlink:href="#Menlo-Regular-65" transform="translate(2167.382812 0)"/>
     <use xlink:href="#Menlo-Regular-6e" transform="translate(2227.587891 0)"/>
     <use xlink:href="#Menlo-Regular-67" transform="translate(2287.792969 0)"/>
     <use xlink:href="#Menlo-Regular-74" transform="translate(2347.998047 0)"/>
     <use xlink:href="#Menlo-Regular-68" transform="translate(2408.203125 0)"/>
     <use xlink:href="#Menlo-Regular-20" transform="translate(2468.408203 0)"/>
     <use xlink:href="#Menlo-Regular-3d" transform="translate(2528.613281 0)"/>
     <use xlink:href="#Menlo-Regular-20" transform="translate(2588.818359 0)"/>
     <use xlink:href="#Menlo-Regular-31" transform="translate(2649.023438 0)"/>
     <use xlink:href="#Menlo-Regular-2e" transform="translate(2709.228516 0)"/>
     <use xlink:href="#Menlo-Regular-35" transform="translate(2769.433594 0)"/>
     <use xlink:href="#Menlo-Regular-29" transform="translate(2829.638672 0)"/>
     <use xlink:href="#Menlo-Regular-20" transform="translate(2889.84375 0)"/>
     <use xlink:href="#Menlo-Regular-2014" transform="translate(2950.048828 0)"/>
     <use xlink:href="#Menlo-Regular-20" transform="translate(3010.253906 0)"/>
     <use xlink:href="#Menlo-Regular-49" transform="translate(3070.458984 0)"/>
     <use xlink:href="#Menlo-Regular-2d" transform="translate(3130.664062 0)"/>
     <use xlink:href="#Menlo-Regular-6e" transform="translate(3190.869141 0)"/>
     <use xlink:href="#Menlo-Regular-65" transform="translate(3251.074219 0)"/>
     <use xlink:href="#Menlo-Regular-75" transform="translate(3311.279297 0)"/>
     <use xlink:href="#Menlo-Regular-72" transform="translate(3371.484375 0)"/>
     <use xlink:href="#Menlo-Regular-6f" transform="translate(3431.689453 0)"/>
     <use xlink:href="#Menlo-Regular-6e" transform="translate(3491.894531 0)"/>
     <use xlink:href="#Menlo-Regular-20" transform="translate(3552.099609 0)"/>
     <use xlink:href="#Menlo-Regular-73" transform="translate(3612.304688 0)"/>
     <use xlink:href="#Menlo-Regular-69" transform="translate(3672.509766 0)"/>
     <use xlink:href="#Menlo-Regular-67" transform="translate(3732.714844 0)"/>
     <use xlink:href="#Menlo-Regular-6e" transform="translate(3792.919922 0)"/>
     <use xlink:href="#Menlo-Regular-65" transform="translate(3853.125 0)"/>
     <use xlink:href="#Menlo-Regular-64" transform="translate(3913.330078 0)"/>
     <use xlink:href="#Menlo-Regular-20" transform="translate(3973.535156 0)"/>
     <use xlink:href="#Menlo-Regular-63" transform="translate(4033.740234 0)"/>
     <use xlink:href="#Menlo-Regular-75" transform="translate(4093.945312 0)"/>
     <use xlink:href="#Menlo-Regular-72" transform="translate(4154.150391 0)"/>
     <use xlink:href="#Menlo-Regular-72" transform="translate(4214.355469 0)"/>
     <use xlink:href="#Menlo-Regular-65" transform="translate(4274.560547 0)"/>
     <use xlink:href="#Menlo-Regular-6e" transform="translate(4334.765625 0)"/>
     <use xlink:href="#Menlo-Regular-74" transform="translate(4394.970703 0)"/>
     <use xlink:href="#Menlo-Regular-73" transform="translate(4455.175781 0)"/>
     <use xlink:href="#Menlo-Regular-20" transform="translate(4515.380859 0)"/>
     <use xlink:href="#Menlo-Regular-28" transform="translate(4575.585938 0)"/>
     <use xlink:href="#Menlo-Regular-63" transform="translate(4635.791016 0)"/>
     <use xlink:href="#Menlo-Regular-65" transform="translate(4695.996094 0)"/>
     <use xlink:href="#Menlo-Regular-6c" transform="translate(4756.201172 0)"/>
     <use xlink:href="#Menlo-Regular-6c" transform="translate(4816.40625 0)"/>
     <use xlink:href="#Menlo-Regular-20" transform="translate(4876.611328 0)"/>
     <use xlink:href="#Menlo-Regular-33" transform="translate(4936.816406 0)"/>
     <use xlink:href="#Menlo-Regular-29" transform="translate(4997.021484 0)"/>
    </g>
   </g>
   <g id="legend_1">
    <g id="patch_7">
     <path d="M 71.319375 40.898516 
L 156.932656 40.898516 
L 156.932656 17.805078 
L 71.319375 17.805078 
z
" style="fill: #ffffff; stroke: #1a1a1a; stroke-width: 0.8; stroke-linejoin: miter"/>
    </g>
    <g id="line2d_12">
     <path d="M 74.119375 23.808672 
L 79.719375 23.808672 
L 85.319375 23.808672 
" style="fill: none; stroke: #1a1a1a; stroke-width: 0.9; stroke-linejoin: miter"/>
    </g>
    <g id="text_12">
     <!-- I_E in (depol.) -->
     <g style="fill: #1a1a1a" transform="translate(90.919375 26.258672) scale(0.07 -0.07)">
      <defs>
       <path id="Menlo-Regular-5f" d="M 3825 -594 
L 3825 -1125 
L 0 -1125 
L 0 -594 
L 3825 -594 
z
" transform="scale(0.015625)"/>
       <path id="Menlo-Regular-45" d="M 616 4666 
L 3384 4666 
L 3384 4134 
L 1247 4134 
L 1247 2878 
L 3291 2878 
L 3291 2347 
L 1247 2347 
L 1247 531 
L 3444 531 
L 3444 0 
L 616 0 
L 616 4666 
z
" transform="scale(0.015625)"/>
      </defs>
      <use xlink:href="#Menlo-Regular-49"/>
      <use xlink:href="#Menlo-Regular-5f" transform="translate(60.205078 0)"/>
      <use xlink:href="#Menlo-Regular-45" transform="translate(120.410156 0)"/>
      <use xlink:href="#Menlo-Regular-20" transform="translate(180.615234 0)"/>
      <use xlink:href="#Menlo-Regular-69" transform="translate(240.820312 0)"/>
      <use xlink:href="#Menlo-Regular-6e" transform="translate(301.025391 0)"/>
      <use xlink:href="#Menlo-Regular-20" transform="translate(361.230469 0)"/>
      <use xlink:href="#Menlo-Regular-28" transform="translate(421.435547 0)"/>
      <use xlink:href="#Menlo-Regular-64" transform="translate(481.640625 0)"/>
      <use xlink:href="#Menlo-Regular-65" transform="translate(541.845703 0)"/>
      <use xlink:href="#Menlo-Regular-70" transform="translate(602.050781 0)"/>
      <use xlink:href="#Menlo-Regular-6f" transform="translate(662.255859 0)"/>
      <use xlink:href="#Menlo-Regular-6c" transform="translate(722.460938 0)"/>
      <use xlink:href="#Menlo-Regular-2e" transform="translate(782.666016 0)"/>
      <use xlink:href="#Menlo-Regular-29" transform="translate(842.871094 0)"/>
     </g>
    </g>
    <g id="line2d_13">
     <path d="M 74.119375 34.192734 
L 79.719375 34.192734 
L 85.319375 34.192734 
" style="fill: none; stroke-dasharray: 0.7,1.155; stroke-dashoffset: 0; stroke: #bbbbbb; stroke-width: 0.7"/>
    </g>
    <g id="text_13">
     <!-- I_L in (leak) -->
     <g style="fill: #1a1a1a" transform="translate(90.919375 36.642734) scale(0.07 -0.07)">
      <defs>
       <path id="Menlo-Regular-4c" d="M 672 4666 
L 1306 4666 
L 1306 531 
L 3559 531 
L 3559 0 
L 672 0 
L 672 4666 
z
" transform="scale(0.015625)"/>
       <path id="Menlo-Regular-6b" d="M 738 4863 
L 1331 4863 
L 1331 2047 
L 2841 3500 
L 3541 3500 
L 2163 2181 
L 3756 0 
L 3053 0 
L 1759 1806 
L 1331 1403 
L 1331 0 
L 738 0 
L 738 4863 
z
" transform="scale(0.015625)"/>
      </defs>
      <use xlink:href="#Menlo-Regular-49"/>
      <use xlink:href="#Menlo-Regular-5f" transform="translate(60.205078 0)"/>
      <use xlink:href="#Menlo-Regular-4c" transform="translate(120.410156 0)"/>
      <use xlink:href="#Menlo-Regular-20" transform="translate(180.615234 0)"/>
      <use xlink:href="#Menlo-Regular-69" transform="translate(240.820312 0)"/>
      <use xlink:href="#Menlo-Regular-6e" transform="translate(301.025391 0)"/>
      <use xlink:href="#Menlo-Regular-20" transform="translate(361.230469 0)"/>
      <use xlink:href="#Menlo-Regular-28" transform="translate(421.435547 0)"/>
      <use xlink:href="#Menlo-Regular-6c" transform="translate(481.640625 0)"/>
      <use xlink:href="#Menlo-Regular-65" transform="translate(541.845703 0)"/>
      <use xlink:href="#Menlo-Regular-61" transform="translate(602.050781 0)"/>
      <use xlink:href="#Menlo-Regular-6b" transform="translate(662.255859 0)"/>
      <use xlink:href="#Menlo-Regular-29" transform="translate(722.460938 0)"/>
     </g>
    </g>
   </g>
  </g>
 </g>
 <defs>
  <clipPath id="pb99611a6c1">
   <rect x="29.715156" y="14.305078" width="130.7175" height="69.12"/>
  </clipPath>
 </defs>
</svg>
