<?xml version="1.0" encoding="utf-8" standalone="no"?>
<!DOCTYPE svg PUBLIC "-//W3C//DTD SVG 1.1//EN"
  "http://www.w3.org/Graphics/SVG/1.1/DTD/svg11.dtd">
<svg xmlns:xlink="http://www.w3.org/1999/xlink" width="466.122734pt" height="106.564453pt" viewBox="0 0 466.122734 106.564453" xmlns="http://www.w3.org/2000/svg" version="1.1">
 <metadata>
  <rdf:RDF xmlns:dc="http://purl.org/dc/elements/1.1/" xmlns:cc="http://creativecommons.org/ns#" xmlns:rdf="http://www.w3.org/1999/02/22-rdf-syntax-ns#">
   <cc:Work>
    <dc:type rdf:resource="http://purl.org/dc/dcmitype/StillImage"/>
    <dc:date>2026-07-02T13:38:54.401452</dc:date>
    <dc:format>image/svg+xml</dc:format>
    <dc:creator>
     <cc:Agent>
      <dc:title>Matplotlib v3.10.8, https://matplotlib.org/</dc:title>
     </cc:Agent>
    </dc:creator>
   </cc:Work>
  </rdf:RDF>
 </metadata>
 <defs>
  <style type="text/css">*{stroke-linejoin: round; stroke-linecap: butt}</style>
 </defs>
 <g id="figure_1">
  <g id="patch_1">
   <path d="M 0 106.564453 
L 466.122734 106.564453 
L 466.122734 0 
L 0 0 
z
" style="fill: #ffffff"/>
  </g>
  <g id="axes_1">
   <g id="patch_2">
    <path d="M 29.715156 83.065078 
L 149.880156 83.065078 
L 149.880156 14.305078 
L 29.715156 14.305078 
z
" style="fill: #ffffff"/>
   </g>
   <g id="matplotlib.axis_1">
    <g id="xtick_1">
     <g id="line2d_1">
      <defs>
       <path id="m0bdfd662ff" d="M 0 0 
L 0 -3 
" style="stroke: #1a1a1a; stroke-width: 0.8"/>
      </defs>
      <g>
       <use xlink:href="#m0bdfd662ff" x="29.715156" y="83.065078" style="fill: #1a1a1a; stroke: #1a1a1a; stroke-width: 0.8"/>
      </g>
     </g>
     <g id="text_1">
      <!-- 0 -->
      <g style="fill: #1a1a1a" transform="translate(27.608047 91.903672) scale(0.07 -0.07)">
       <defs>
        <path id="Menlo-Regular-30" d="M 1925 4734 
Q 2672 4734 3055 4125 
Q 3438 3516 3438 2322 
Q 3438 1128 3055 518 
Q 2672 -91 1925 -91 
Q 1178 -91 797 518 
Q 416 1128 416 2322 
Q 416 3516 797 4125 
Q 1178 4734 1925 4734 
z
M 1925 409 
Q 2369 409 2586 881 
Q 2803 1353 2803 2322 
Q 2803 2838 2741 3253 
L 1253 925 
Q 1488 409 1925 409 
z
M 1925 4234 
Q 1484 4234 1267 3762 
Q 1050 3291 1050 2322 
Q 1050 1881 1109 1497 
L 2566 3819 
Q 2328 4234 1925 4234 
z
" transform="scale(0.015625)"/>
       </defs>
       <use xlink:href="#Menlo-Regular-30"/>
      </g>
     </g>
    </g>
    <g id="xtick_2">
     <g id="line2d_2">
      <g>
       <use xlink:href="#m0bdfd662ff" x="59.756406" y="83.065078" style="fill: #1a1a1a; stroke: #1a1a1a; stroke-width: 0.8"/>
      </g>
     </g>
     <g id="text_2">
      <!-- 100 -->
      <g style="fill: #1a1a1a" transform="translate(53.435078 91.903672) scale(0.07 -0.07)">
       <defs>
        <path id="Menlo-Regular-31" d="M 844 528 
L 1825 528 
L 1825 4053 
L 650 3488 
L 650 4094 
L 1819 4650 
L 2450 4650 
L 2450 528 
L 3419 528 
L 3419 0 
L 844 0 
L 844 528 
z
" transform="scale(0.015625)"/>
       </defs>
       <use xlink:href="#Menlo-Regular-31"/>
       <use xlink:href="#Menlo-Regular-30" transform="translate(60.205078 0)"/>
       <use xlink:href="#Menlo-Regular-30" transform="translate(120.410156 0)"/>
      </g>
     </g>
    </g>
    <g id="xtick_3">
     <g id="line2d_3">
      <g>
       <use xlink:href="#m0bdfd662ff" x="89.797655" y="83.065078" style="fill: #1a1a1a; stroke: #1a1a1a; stroke-width: 0.8"/>
      </g>
     </g>
     <g id="text_3">
      <!-- 200 -->
      <g style="fill: #1a1a1a" transform="translate(83.476327 91.903672) scale(0.07 -0.07)">
       <defs>
        <path id="Menlo-Regular-32" d="M 1166 531 
L 3309 531 
L 3309 0 
L 475 0 
L 475 531 
Q 1059 1147 1496 1619 
Q 1934 2091 2100 2284 
Q 2413 2666 2522 2902 
Q 2631 3138 2631 3384 
Q 2631 3775 2401 3997 
Q 2172 4219 1772 4219 
Q 1488 4219 1175 4116 
Q 863 4013 513 3803 
L 513 4441 
Q 834 4594 1145 4672 
Q 1456 4750 1759 4750 
Q 2444 4750 2861 4386 
Q 3278 4022 3278 3431 
Q 3278 3131 3139 2831 
Q 3000 2531 2688 2169 
Q 2513 1966 2180 1606 
Q 1847 1247 1166 531 
z
" transform="scale(0.015625)"/>
       </defs>
       <use xlink:href="#Menlo-Regular-32"/>
       <use xlink:href="#Menlo-Regular-30" transform="translate(60.205078 0)"/>
       <use xlink:href="#Menlo-Regular-30" transform="translate(120.410156 0)"/>
      </g>
     </g>
    </g>
    <g id="xtick_4">
     <g id="line2d_4">
      <g>
       <use xlink:href="#m0bdfd662ff" x="119.838905" y="83.065078" style="fill: #1a1a1a; stroke: #1a1a1a; stroke-width: 0.8"/>
      </g>
     </g>
     <g id="text_4">
      <!-- 300 -->
      <g style="fill: #1a1a1a" transform="translate(113.517577 91.903672) scale(0.07 -0.07)">
       <defs>
        <path id="Menlo-Regular-33" d="M 2425 2497 
Q 2884 2375 3128 2064 
Q 3372 1753 3372 1288 
Q 3372 644 2939 276 
Q 2506 -91 1741 -91 
Q 1419 -91 1084 -31 
Q 750 28 428 141 
L 428 769 
Q 747 603 1056 522 
Q 1366 441 1672 441 
Q 2191 441 2469 675 
Q 2747 909 2747 1350 
Q 2747 1756 2469 1995 
Q 2191 2234 1716 2234 
L 1234 2234 
L 1234 2753 
L 1716 2753 
Q 2150 2753 2394 2943 
Q 2638 3134 2638 3475 
Q 2638 3834 2411 4026 
Q 2184 4219 1766 4219 
Q 1488 4219 1191 4156 
Q 894 4094 569 3969 
L 569 4550 
Q 947 4650 1242 4700 
Q 1538 4750 1766 4750 
Q 2447 4750 2855 4408 
Q 3263 4066 3263 3500 
Q 3263 3116 3048 2859 
Q 2834 2603 2425 2497 
z
" transform="scale(0.015625)"/>
       </defs>
       <use xlink:href="#Menlo-Regular-33"/>
       <use xlink:href="#Menlo-Regular-30" transform="translate(60.205078 0)"/>
       <use xlink:href="#Menlo-Regular-30" transform="translate(120.410156 0)"/>
      </g>
     </g>
    </g>
    <g id="xtick_5">
     <g id="line2d_5">
      <g>
       <use xlink:href="#m0bdfd662ff" x="149.880154" y="83.065078" style="fill: #1a1a1a; stroke: #1a1a1a; stroke-width: 0.8"/>
      </g>
     </g>
     <g id="text_5">
      <!-- 400 -->
      <g style="fill: #1a1a1a" transform="translate(143.558826 91.903672) scale(0.07 -0.07)">
       <defs>
        <path id="Menlo-Regular-34" d="M 2297 4091 
L 825 1625 
L 2297 1625 
L 2297 4091 
z
M 2194 4666 
L 2925 4666 
L 2925 1625 
L 3547 1625 
L 3547 1113 
L 2925 1113 
L 2925 0 
L 2297 0 
L 2297 1113 
L 319 1113 
L 319 1709 
L 2194 4666 
z
" transform="scale(0.015625)"/>
       </defs>
       <use xlink:href="#Menlo-Regular-34"/>
       <use xlink:href="#Menlo-Regular-30" transform="translate(60.205078 0)"/>
       <use xlink:href="#Menlo-Regular-30" transform="translate(120.410156 0)"/>
      </g>
     </g>
    </g>
    <g id="text_6">
     <!-- time (ms) -->
     <g style="fill: #1a1a1a" transform="translate(68.124531 103.460703) scale(0.08 -0.08)">
      <defs>
       <path id="Menlo-Regular-74" d="M 1919 4494 
L 1919 3500 
L 3225 3500 
L 3225 3053 
L 1919 3053 
L 1919 1153 
Q 1919 766 2066 612 
Q 2213 459 2578 459 
L 3225 459 
L 3225 0 
L 2522 0 
Q 1875 0 1609 259 
Q 1344 519 1344 1153 
L 1344 3053 
L 409 3053 
L 409 3500 
L 1344 3500 
L 1344 4494 
L 1919 4494 
z
" transform="scale(0.015625)"/>
       <path id="Menlo-Regular-69" d="M 988 3488 
L 2459 3488 
L 2459 447 
L 3600 447 
L 3600 0 
L 744 0 
L 744 447 
L 1884 447 
L 1884 3041 
L 988 3041 
L 988 3488 
z
M 1884 4847 
L 2459 4847 
L 2459 4122 
L 1884 4122 
L 1884 4847 
z
" transform="scale(0.015625)"/>
       <path id="Menlo-Regular-6d" d="M 2113 3144 
Q 2219 3369 2383 3476 
Q 2547 3584 2778 3584 
Q 3200 3584 3373 3257 
Q 3547 2931 3547 2028 
L 3547 0 
L 3022 0 
L 3022 2003 
Q 3022 2744 2939 2923 
Q 2856 3103 2638 3103 
Q 2388 3103 2295 2911 
Q 2203 2719 2203 2003 
L 2203 0 
L 1678 0 
L 1678 2003 
Q 1678 2753 1589 2928 
Q 1500 3103 1269 3103 
Q 1041 3103 952 2911 
Q 863 2719 863 2003 
L 863 0 
L 341 0 
L 341 3500 
L 863 3500 
L 863 3200 
Q 966 3388 1120 3486 
Q 1275 3584 1472 3584 
Q 1709 3584 1867 3475 
Q 2025 3366 2113 3144 
z
" transform="scale(0.015625)"/>
       <path id="Menlo-Regular-65" d="M 3500 2038 
L 3500 1756 
L 1009 1756 
L 1009 1738 
Q 984 1022 1282 709 
Q 1581 397 2125 397 
Q 2400 397 2700 484 
Q 3000 572 3341 750 
L 3341 178 
Q 3013 44 2708 -23 
Q 2403 -91 2119 -91 
Q 1303 -91 843 398 
Q 384 888 384 1747 
Q 384 2584 834 3084 
Q 1284 3584 2034 3584 
Q 2703 3584 3089 3131 
Q 3475 2678 3500 2038 
z
M 2925 2206 
Q 2888 2569 2661 2833 
Q 2434 3097 2009 3097 
Q 1594 3097 1325 2822 
Q 1056 2547 1031 2203 
L 2925 2206 
z
" transform="scale(0.015625)"/>
       <path id="Menlo-Regular-20" transform="scale(0.015625)"/>
       <path id="Menlo-Regular-28" d="M 2672 5169 
Q 2256 4456 2051 3748 
Q 1847 3041 1847 2322 
Q 1847 1606 2051 897 
Q 2256 188 2672 -531 
L 2172 -531 
Q 1700 213 1469 917 
Q 1238 1622 1238 2322 
Q 1238 3019 1469 3725 
Q 1700 4431 2172 5169 
L 2672 5169 
z
" transform="scale(0.015625)"/>
       <path id="Menlo-Regular-73" d="M 3041 3378 
L 3041 2816 
Q 2794 2959 2544 3031 
Q 2294 3103 2034 3103 
Q 1644 3103 1451 2976 
Q 1259 2850 1259 2591 
Q 1259 2356 1403 2240 
Q 1547 2125 2119 2016 
L 2350 1972 
Q 2778 1891 2998 1647 
Q 3219 1403 3219 1013 
Q 3219 494 2850 201 
Q 2481 -91 1825 -91 
Q 1566 -91 1281 -36 
Q 997 19 666 128 
L 666 722 
Q 988 556 1281 473 
Q 1575 391 1838 391 
Q 2219 391 2428 545 
Q 2638 700 2638 978 
Q 2638 1378 1872 1531 
L 1847 1538 
L 1631 1581 
Q 1134 1678 906 1908 
Q 678 2138 678 2534 
Q 678 3038 1018 3311 
Q 1359 3584 1991 3584 
Q 2272 3584 2531 3532 
Q 2791 3481 3041 3378 
z
" transform="scale(0.015625)"/>
       <path id="Menlo-Regular-29" d="M 1088 5169 
L 1588 5169 
Q 2059 4431 2290 3725 
Q 2522 3019 2522 2322 
Q 2522 1619 2290 912 
Q 2059 206 1588 -531 
L 1088 -531 
Q 1503 194 1708 903 
Q 1913 1613 1913 2322 
Q 1913 3034 1708 3743 
Q 1503 4453 1088 5169 
z
" transform="scale(0.015625)"/>
      </defs>
      <use xlink:href="#Menlo-Regular-74"/>
      <use xlink:href="#Menlo-Regular-69" transform="translate(60.205078 0)"/>
      <use xlink:href="#Menlo-Regular-6d" transform="translate(120.410156 0)"/>
      <use xlink:href="#Menlo-Regular-65" transform="translate(180.615234 0)"/>
      <use xlink:href="#Menlo-Regular-20" transform="translate(240.820312 0)"/>
      <use xlink:href="#Menlo-Regular-28" transform="translate(301.025391 0)"/>
      <use xlink:href="#Menlo-Regular-6d" transform="translate(361.230469 0)"/>
      <use xlink:href="#Menlo-Regular-73" transform="translate(421.435547 0)"/>
      <use xlink:href="#Menlo-Regular-29" transform="translate(481.640625 0)"/>
     </g>
    </g>
   </g>
   <g id="matplotlib.axis_2">
    <g id="ytick_1">
     <g id="line2d_6">
      <defs>
       <path id="m4bc269118b" d="M 0 0 
L 3 0 
" style="stroke: #1a1a1a; stroke-width: 0.8"/>
      </defs>
      <g>
       <use xlink:href="#m4bc269118b" x="29.715156" y="59.576328" style="fill: #1a1a1a; stroke: #1a1a1a; stroke-width: 0.8"/>
      </g>
     </g>
     <g id="text_7">
      <!-- −10 -->
      <g style="fill: #1a1a1a" transform="translate(13.5725 62.245625) scale(0.07 -0.07)">
       <defs>
        <path id="Menlo-Regular-2212" d="M 275 2272 
L 3578 2272 
L 3578 1741 
L 275 1741 
L 275 2272 
z
" transform="scale(0.015625)"/>
       </defs>
       <use xlink:href="#Menlo-Regular-2212"/>
       <use xlink:href="#Menlo-Regular-31" transform="translate(60.205078 0)"/>
       <use xlink:href="#Menlo-Regular-30" transform="translate(120.410156 0)"/>
      </g>
     </g>
    </g>
    <g id="ytick_2">
     <g id="line2d_7">
      <g>
       <use xlink:href="#m4bc269118b" x="29.715156" y="28.403765" style="fill: #1a1a1a; stroke: #1a1a1a; stroke-width: 0.8"/>
      </g>
     </g>
     <g id="text_8">
      <!-- 0 -->
      <g style="fill: #1a1a1a" transform="translate(22.000938 31.073062) scale(0.07 -0.07)">
       <use xlink:href="#Menlo-Regular-30"/>
      </g>
     </g>
    </g>
    <g id="text_9">
     <!-- I in  [+ depol. / − hyperpol.] -->
     <g style="fill: #1a1a1a" transform="translate(7.90875 120.928828) rotate(-90) scale(0.08 -0.08)">
      <defs>
       <path id="Menlo-Regular-49" d="M 628 4666 
L 3219 4666 
L 3219 4134 
L 2241 4134 
L 2241 531 
L 3219 531 
L 3219 0 
L 628 0 
L 628 531 
L 1606 531 
L 1606 4134 
L 628 4134 
L 628 4666 
z
" transform="scale(0.015625)"/>
       <path id="Menlo-Regular-6e" d="M 3284 2169 
L 3284 0 
L 2706 0 
L 2706 2169 
Q 2706 2641 2540 2862 
Q 2375 3084 2022 3084 
Q 1619 3084 1401 2798 
Q 1184 2513 1184 1978 
L 1184 0 
L 609 0 
L 609 3500 
L 1184 3500 
L 1184 2975 
Q 1338 3275 1600 3429 
Q 1863 3584 2222 3584 
Q 2756 3584 3020 3232 
Q 3284 2881 3284 2169 
z
" transform="scale(0.015625)"/>
       <path id="Menlo-Regular-5b" d="M 1759 5175 
L 3084 5175 
L 3084 4728 
L 2334 4728 
L 2334 -84 
L 3084 -84 
L 3084 -531 
L 1759 -531 
L 1759 5175 
z
" transform="scale(0.015625)"/>
       <path id="Menlo-Regular-2b" d="M 2250 3681 
L 2250 2297 
L 3641 2297 
L 3641 1769 
L 2250 1769 
L 2250 384 
L 1725 384 
L 1725 1769 
L 338 1769 
L 338 2297 
L 1725 2297 
L 1725 3681 
L 2250 3681 
z
" transform="scale(0.015625)"/>
       <path id="Menlo-Regular-64" d="M 2681 3053 
L 2681 4863 
L 3256 4863 
L 3256 0 
L 2681 0 
L 2681 441 
Q 2538 181 2298 45 
Q 2059 -91 1747 -91 
Q 1113 -91 748 401 
Q 384 894 384 1759 
Q 384 2613 750 3098 
Q 1116 3584 1747 3584 
Q 2063 3584 2303 3448 
Q 2544 3313 2681 3053 
z
M 991 1747 
Q 991 1078 1203 737 
Q 1416 397 1831 397 
Q 2247 397 2464 740 
Q 2681 1084 2681 1747 
Q 2681 2413 2464 2755 
Q 2247 3097 1831 3097 
Q 1416 3097 1203 2756 
Q 991 2416 991 1747 
z
" transform="scale(0.015625)"/>
       <path id="Menlo-Regular-70" d="M 1172 441 
L 1172 -1331 
L 594 -1331 
L 594 3500 
L 1172 3500 
L 1172 3053 
Q 1316 3313 1555 3448 
Q 1794 3584 2106 3584 
Q 2741 3584 3102 3093 
Q 3463 2603 3463 1734 
Q 3463 881 3100 395 
Q 2738 -91 2106 -91 
Q 1788 -91 1548 45 
Q 1309 181 1172 441 
z
M 2859 1747 
Q 2859 2416 2648 2756 
Q 2438 3097 2022 3097 
Q 1603 3097 1387 2755 
Q 1172 2413 1172 1747 
Q 1172 1084 1387 740 
Q 1603 397 2022 397 
Q 2438 397 2648 737 
Q 2859 1078 2859 1747 
z
" transform="scale(0.015625)"/>
       <path id="Menlo-Regular-6f" d="M 1925 3097 
Q 1488 3097 1263 2756 
Q 1038 2416 1038 1747 
Q 1038 1081 1263 739 
Q 1488 397 1925 397 
Q 2366 397 2591 739 
Q 2816 1081 2816 1747 
Q 2816 2416 2591 2756 
Q 2366 3097 1925 3097 
z
M 1925 3584 
Q 2653 3584 3039 3112 
Q 3425 2641 3425 1747 
Q 3425 850 3040 379 
Q 2656 -91 1925 -91 
Q 1197 -91 812 379 
Q 428 850 428 1747 
Q 428 2641 812 3112 
Q 1197 3584 1925 3584 
z
" transform="scale(0.015625)"/>
       <path id="Menlo-Regular-6c" d="M 2247 1266 
Q 2247 878 2389 681 
Q 2531 484 2809 484 
L 3481 484 
L 3481 0 
L 2753 0 
Q 2238 0 1955 329 
Q 1672 659 1672 1266 
L 1672 4431 
L 750 4431 
L 750 4881 
L 2247 4881 
L 2247 1266 
z
" transform="scale(0.015625)"/>
       <path id="Menlo-Regular-2e" d="M 1216 1263 
L 2316 1263 
L 2316 0 
L 1216 0 
L 1216 1263 
z
" transform="scale(0.015625)"/>
       <path id="Menlo-Regular-2f" d="M 2778 4666 
L 3372 4666 
L 916 -594 
L 319 -594 
L 2778 4666 
z
" transform="scale(0.015625)"/>
       <path id="Menlo-Regular-68" d="M 3284 2169 
L 3284 0 
L 2706 0 
L 2706 2169 
Q 2706 2641 2540 2862 
Q 2375 3084 2022 3084 
Q 1619 3084 1401 2798 
Q 1184 2513 1184 1978 
L 1184 0 
L 609 0 
L 609 4863 
L 1184 4863 
L 1184 2975 
Q 1338 3275 1600 3429 
Q 1863 3584 2222 3584 
Q 2756 3584 3020 3232 
Q 3284 2881 3284 2169 
z
" transform="scale(0.015625)"/>
       <path id="Menlo-Regular-79" d="M 2681 1125 
Q 2538 759 2316 163 
Q 2006 -663 1900 -844 
Q 1756 -1088 1540 -1209 
Q 1325 -1331 1038 -1331 
L 575 -1331 
L 575 -850 
L 916 -850 
Q 1169 -850 1312 -703 
Q 1456 -556 1678 56 
L 325 3500 
L 934 3500 
L 1972 763 
L 2994 3500 
L 3603 3500 
L 2681 1125 
z
" transform="scale(0.015625)"/>
       <path id="Menlo-Regular-72" d="M 3609 2778 
Q 3425 2922 3234 2987 
Q 3044 3053 2816 3053 
Q 2278 3053 1993 2715 
Q 1709 2378 1709 1741 
L 1709 0 
L 1131 0 
L 1131 3500 
L 1709 3500 
L 1709 2816 
Q 1853 3188 2151 3386 
Q 2450 3584 2859 3584 
Q 3072 3584 3256 3531 
Q 3441 3478 3609 3366 
L 3609 2778 
z
" transform="scale(0.015625)"/>
       <path id="Menlo-Regular-5d" d="M 2250 5175 
L 2250 -531 
L 925 -531 
L 925 -84 
L 1675 -84 
L 1675 4728 
L 925 4728 
L 925 5175 
L 2250 5175 
z
" transform="scale(0.015625)"/>
      </defs>
      <use xlink:href="#Menlo-Regular-49"/>
      <use xlink:href="#Menlo-Regular-20" transform="translate(60.205078 0)"/>
      <use xlink:href="#Menlo-Regular-69" transform="translate(120.410156 0)"/>
      <use xlink:href="#Menlo-Regular-6e" transform="translate(180.615234 0)"/>
      <use xlink:href="#Menlo-Regular-20" transform="translate(240.820312 0)"/>
      <use xlink:href="#Menlo-Regular-20" transform="translate(301.025391 0)"/>
      <use xlink:href="#Menlo-Regular-5b" transform="translate(361.230469 0)"/>
      <use xlink:href="#Menlo-Regular-2b" transform="translate(421.435547 0)"/>
      <use xlink:href="#Menlo-Regular-20" transform="translate(481.640625 0)"/>
      <use xlink:href="#Menlo-Regular-64" transform="translate(541.845703 0)"/>
      <use xlink:href="#Menlo-Regular-65" transform="translate(602.050781 0)"/>
      <use xlink:href="#Menlo-Regular-70" transform="translate(662.255859 0)"/>
      <use xlink:href="#Menlo-Regular-6f" transform="translate(722.460938 0)"/>
      <use xlink:href="#Menlo-Regular-6c" transform="translate(782.666016 0)"/>
      <use xlink:href="#Menlo-Regular-2e" transform="translate(842.871094 0)"/>
      <use xlink:href="#Menlo-Regular-20" transform="translate(903.076172 0)"/>
      <use xlink:href="#Menlo-Regular-2f" transform="translate(963.28125 0)"/>
      <use xlink:href="#Menlo-Regular-20" transform="translate(1023.486328 0)"/>
      <use xlink:href="#Menlo-Regular-2212" transform="translate(1083.691406 0)"/>
      <use xlink:href="#Menlo-Regular-20" transform="translate(1143.896484 0)"/>
      <use xlink:href="#Menlo-Regular-68" transform="translate(1204.101562 0)"/>
      <use xlink:href="#Menlo-Regular-79" transform="translate(1264.306641 0)"/>
      <use xlink:href="#Menlo-Regular-70" transform="translate(1324.511719 0)"/>
      <use xlink:href="#Menlo-Regular-65" transform="translate(1384.716797 0)"/>
      <use xlink:href="#Menlo-Regular-72" transform="translate(1444.921875 0)"/>
      <use xlink:href="#Menlo-Regular-70" transform="translate(1505.126953 0)"/>
      <use xlink:href="#Menlo-Regular-6f" transform="translate(1565.332031 0)"/>
      <use xlink:href="#Menlo-Regular-6c" transform="translate(1625.537109 0)"/>
      <use xlink:href="#Menlo-Regular-2e" transform="translate(1685.742188 0)"/>
      <use xlink:href="#Menlo-Regular-5d" transform="translate(1745.947266 0)"/>
     </g>
    </g>
   </g>
   <g id="line2d_8">
    <path d="M 29.715156 28.403765 
L 149.880156 28.403765 
" clip-path="url(#pc8cde1bc16)" style="fill: none; stroke: #bbbbbb; stroke-width: 0.5; stroke-linejoin: miter"/>
   </g>
   <g id="line2d_9">
    <path d="M 29.715156 28.27269 
L 29.925445 27.54631 
L 30.015569 27.567096 
L 30.04561 27.499583 
L 30.135734 27.30947 
L 30.255899 26.980321 
L 30.28594 27.045143 
L 30.406105 27.044395 
L 30.586353 26.606989 
L 30.736559 26.407339 
L 31.036971 26.835279 
L 31.067013 26.803374 
L 31.187178 26.525995 
L 31.577714 24.988367 
L 31.607755 25.084742 
L 32.178539 26.737308 
L 32.328745 26.639713 
L 32.358786 26.637292 
L 33.199941 22.813706 
L 33.320106 22.375675 
L 33.350148 22.382809 
L 33.740684 23.219415 
L 33.920931 23.859295 
L 34.101179 24.212128 
L 34.281426 24.658943 
L 34.341509 24.575783 
L 34.491715 24.668189 
L 34.551798 24.754688 
L 34.581839 24.682756 
L 34.671963 24.598237 
L 34.702004 24.654358 
L 34.882251 25.053284 
L 34.942334 24.888893 
L 35.302829 24.13865 
L 35.422994 23.717329 
L 35.663324 23.127504 
L 35.753448 22.852878 
L 36.113943 20.898571 
L 36.143984 20.936041 
L 36.174025 20.885599 
L 36.324231 20.494169 
L 36.354273 20.689754 
L 36.864974 23.993625 
L 36.955098 23.705838 
L 37.285551 22.436226 
L 37.465799 22.909383 
L 37.766211 24.27953 
L 37.796253 24.287261 
L 38.21683 22.812941 
L 38.547284 23.631088 
L 38.817655 25.028652 
L 38.93782 24.66326 
L 39.118068 23.570277 
L 39.298315 22.994788 
L 39.328356 23.015196 
L 39.358398 22.951556 
L 39.388439 22.904702 
L 39.41848 22.976732 
L 39.508604 23.034228 
L 39.538645 22.993582 
L 39.809016 21.811106 
L 39.869099 22.023295 
L 40.199553 23.568882 
L 40.469924 24.298234 
L 40.560048 24.152005 
L 40.590089 24.236264 
L 40.770336 24.635588 
L 40.920543 24.733132 
L 41.10079 25.192144 
L 41.130831 25.139833 
L 41.220955 25.016091 
L 41.491326 24.52864 
L 41.731656 24.166528 
L 42.002028 23.931945 
L 42.152234 24.039875 
L 43.083513 26.606632 
L 43.173636 26.525989 
L 43.323843 26.323614 
L 43.594214 26.706164 
L 43.654296 26.685324 
L 43.684338 26.769307 
L 43.74442 26.797935 
L 43.774461 26.773421 
L 43.864585 26.616354 
L 43.954709 26.674967 
L 43.98475 26.700924 
L 44.014791 26.590574 
L 44.255121 25.991545 
L 44.345245 26.121676 
L 44.735781 27.169905 
L 44.916029 27.193838 
L 45.066235 26.603154 
L 45.366648 24.816244 
L 45.486813 24.590044 
L 45.516854 24.650851 
L 45.66706 24.717794 
L 45.90739 24.272288 
L 45.937431 24.298626 
L 46.658421 26.672993 
L 46.718504 26.630799 
L 46.86871 26.138858 
L 47.379411 24.015367 
L 47.559659 23.730266 
L 47.739906 24.31905 
L 48.100401 26.034794 
L 48.280649 26.385193 
L 48.460896 26.202904 
L 48.55102 26.174692 
L 48.821391 24.834458 
L 49.121804 23.545844 
L 49.211928 23.413336 
L 49.241969 23.454119 
L 49.392175 24.252543 
L 49.782711 26.253961 
L 50.023041 26.743761 
L 50.143206 26.759376 
L 50.203289 26.669866 
L 50.263371 26.730019 
L 50.323454 26.779758 
L 50.864196 27.644402 
L 51.374898 28.061913 
L 51.765434 28.186361 
L 51.975723 27.342792 
L 52.216053 26.623291 
L 52.3963 26.525648 
L 52.426341 26.617353 
L 52.546506 26.902911 
L 52.576548 26.82227 
L 52.846919 26.187678 
L 52.907001 26.069351 
L 52.967084 26.091364 
L 53.237455 26.288086 
L 53.35762 26.203454 
L 53.387661 26.222415 
L 53.658033 24.735488 
L 53.958445 23.178346 
L 54.07861 23.411166 
L 54.228816 23.714493 
L 54.469146 23.295279 
L 54.499188 23.318301 
L 54.55927 23.373218 
L 54.589311 23.326568 
L 55.340343 19.763622 
L 55.400425 19.888346 
L 55.580673 20.804808 
L 55.670796 21.062647 
L 55.700838 20.985467 
L 55.730879 20.918379 
L 55.76092 20.962581 
L 56.181498 23.017134 
L 56.602075 25.617058 
L 56.872446 26.414708 
L 57.082735 26.636856 
L 57.112776 26.562255 
L 57.413189 25.793011 
L 57.473271 25.918258 
L 57.533354 25.786867 
L 57.713601 25.827923 
L 57.893849 25.80742 
L 58.044055 25.448821 
L 58.194261 24.976409 
L 58.224303 25.025322 
L 58.284385 25.131234 
L 58.314426 25.085658 
L 58.374509 24.949889 
L 58.434591 25.048342 
L 58.524715 24.985723 
L 58.795086 24.251898 
L 59.215664 24.870128 
L 59.275746 24.761282 
L 59.6062 24.020523 
L 59.636241 24.068218 
L 59.84653 24.24854 
L 59.996736 24.05403 
L 60.08686 23.805405 
L 60.146943 23.857072 
L 60.32719 23.872898 
L 60.387273 23.843872 
L 60.417314 23.902111 
L 60.597561 24.099173 
L 60.897974 23.896712 
L 60.958056 23.803811 
L 61.018139 23.911661 
L 61.258469 24.32866 
L 61.558881 25.369808 
L 61.799211 25.709182 
L 61.919376 25.328456 
L 62.129665 24.688436 
L 62.219789 24.496047 
L 62.460119 24.255081 
L 62.49016 24.279986 
L 62.580284 24.159183 
L 62.610325 24.106662 
L 62.670408 24.180988 
L 62.790573 24.293482 
L 62.880696 24.544336 
L 62.910738 24.464366 
L 63.391398 22.167466 
L 63.45148 22.239999 
L 64.292635 25.542521 
L 64.352718 25.524502 
L 64.442841 25.588473 
L 64.593048 25.916101 
L 64.623089 25.892041 
L 64.89346 24.820682 
L 65.253955 23.400885 
L 65.37412 23.496786 
L 65.644491 24.10978 
L 66.004986 25.402435 
L 66.455605 26.747403 
L 66.876182 27.572298 
L 67.146554 27.804095 
L 67.236678 27.704954 
L 67.29676 27.770605 
L 67.77742 28.116278 
L 67.957668 28.181259 
L 68.107874 27.647572 
L 68.197998 27.716521 
L 68.588534 28.014862 
L 68.708699 28.032515 
L 69.129276 28.209767 
L 69.399648 27.175022 
L 69.820225 25.624231 
L 69.880308 25.640697 
L 70.240803 25.682163 
L 70.571256 24.856611 
L 70.601298 24.86741 
L 70.961793 24.419383 
L 71.14204 24.233175 
L 71.172081 24.331245 
L 71.832989 27.00616 
L 72.013236 27.312777 
L 72.043278 27.251762 
L 72.283608 27.107639 
L 72.704185 26.164738 
L 72.764268 26.145722 
L 73.124763 25.329883 
L 73.425175 24.922855 
L 73.455216 24.947035 
L 73.485258 24.900475 
L 73.665505 24.796172 
L 73.78567 24.915585 
L 73.935876 25.163342 
L 74.206248 25.077996 
L 74.626825 26.691245 
L 75.047403 27.530714 
L 75.347815 27.83426 
L 75.377856 27.803792 
L 75.498021 27.655016 
L 75.70831 26.279641 
L 75.94864 25.360905 
L 76.038764 25.671917 
L 76.459341 27.04748 
L 76.489383 27.11342 
L 76.549465 27.000658 
L 76.819836 25.223111 
L 77.120249 23.523456 
L 77.450703 22.246187 
L 77.811198 20.689632 
L 77.87128 20.773485 
L 77.931363 20.704968 
L 78.201734 20.64591 
L 78.291858 21.050762 
L 78.472105 21.554086 
L 78.532188 21.574459 
L 78.562229 21.540886 
L 78.622311 21.446018 
L 78.682394 21.559189 
L 78.802559 21.661076 
L 78.922724 21.793066 
L 79.012848 22.094492 
L 79.07293 21.988564 
L 79.283219 21.648354 
L 79.403384 21.74705 
L 79.643714 22.833153 
L 79.854003 23.598082 
L 80.094333 23.940419 
L 80.244539 23.731182 
L 80.27458 23.764804 
L 80.484869 24.048368 
L 80.965529 24.738357 
L 81.2359 25.549121 
L 81.386106 25.567347 
L 81.566354 25.143319 
L 81.596395 25.225001 
L 81.896807 26.166026 
L 82.287344 25.173966 
L 82.347426 25.214386 
L 82.407509 25.112515 
L 82.467591 25.009885 
L 82.527674 25.08954 
L 82.67788 25.388196 
L 82.707921 25.322905 
L 82.948251 25.013323 
L 83.729324 23.858877 
L 84.029736 24.20166 
L 84.179943 24.328681 
L 84.810809 25.995003 
L 85.201345 27.06583 
L 85.291469 27.142703 
L 85.32151 27.112554 
L 85.471716 26.302701 
L 86.072541 22.782511 
L 86.553201 21.590734 
L 86.613284 21.618644 
L 86.643325 21.627679 
L 86.673366 19.596377 
L 86.76349 19.779028 
L 87.093944 20.191348 
L 87.48448 19.708597 
L 87.574604 19.741976 
L 87.694769 19.810707 
L 87.72481 19.78527 
L 87.905057 19.668439 
L 88.085305 20.02083 
L 88.145387 20.126663 
L 88.175429 20.058729 
L 88.475841 19.288243 
L 88.505883 19.323829 
L 88.656089 19.685154 
L 88.836336 20.663239 
L 89.046625 21.872412 
L 89.076666 20.062352 
L 89.16679 20.718017 
L 89.377079 21.79119 
L 89.467203 21.695787 
L 89.64745 21.679593 
L 89.737574 21.720789 
L 90.158151 22.611125 
L 90.188193 22.57676 
L 90.278316 22.43236 
L 90.308357 22.496684 
L 90.758976 24.35118 
L 90.789017 24.340472 
L 90.879141 24.481759 
L 91.239636 25.416327 
L 91.269678 25.406215 
L 91.449925 25.50046 
L 91.690255 24.933066 
L 91.720296 24.969342 
L 91.780379 25.121405 
L 91.840461 25.063808 
L 91.990668 25.029876 
L 92.05075 25.028763 
L 92.230998 24.125443 
L 92.53141 22.317806 
L 92.891905 21.665226 
L 92.921946 21.737554 
L 93.072153 22.875484 
L 93.342524 24.492797 
L 93.522771 24.977686 
L 93.703019 25.407056 
L 93.763101 25.330728 
L 93.823184 25.178547 
L 93.883266 25.289345 
L 94.363926 26.587562 
L 94.754463 27.417011 
L 94.964751 27.655883 
L 94.994793 27.618017 
L 95.054875 27.510173 
L 95.235123 27.199428 
L 95.325246 26.930564 
L 95.715783 25.16418 
L 95.89603 25.044595 
L 95.956113 25.137893 
L 96.496855 27.007272 
L 96.556938 27.096077 
L 96.61702 27.033656 
L 96.677103 27.10253 
L 96.827309 27.252497 
L 97.668464 24.150912 
L 97.758588 23.905767 
L 97.81867 23.924891 
L 97.878753 23.934644 
L 97.908794 23.872862 
L 98.028959 23.982687 
L 98.359413 25.129173 
L 98.449536 25.035352 
L 98.930196 23.840479 
L 99.410856 21.990652 
L 99.470939 22.059338 
L 99.561063 22.177894 
L 99.591104 22.139468 
L 99.681228 21.979437 
L 99.74131 22.085218 
L 99.921558 22.421676 
L 100.011681 22.49712 
L 100.312094 23.088174 
L 100.342135 22.987324 
L 100.492341 22.818961 
L 100.582465 22.970963 
L 100.642548 23.039567 
L 100.672589 22.968792 
L 100.94296 22.444938 
L 101.003043 22.508609 
L 101.063125 22.450935 
L 101.153249 22.327414 
L 101.213331 22.22374 
L 101.303455 20.337562 
L 101.333496 20.343324 
L 101.453661 20.250484 
L 101.543785 19.788021 
L 101.754074 18.67218 
L 101.874239 18.692116 
L 101.934321 18.92418 
L 102.204693 21.177507 
L 102.655311 24.69647 
L 102.775476 24.969781 
L 103.015806 25.914504 
L 103.075889 25.723328 
L 103.10593 25.686486 
L 103.166013 25.78213 
L 103.286178 25.801332 
L 103.496466 25.469038 
L 103.887003 24.819436 
L 104.097291 23.756295 
L 104.157374 23.781214 
L 104.54791 25.597177 
L 104.968488 27.005575 
L 105.298941 27.527228 
L 105.599354 26.730382 
L 105.689478 26.867582 
L 106.080014 27.547788 
L 106.380426 27.366191 
L 106.47055 27.005004 
L 106.530632 27.047225 
L 106.590715 27.132704 
L 106.650797 27.080495 
L 107.221581 25.3747 
L 107.371787 24.980218 
L 107.43187 24.952434 
L 107.792365 23.940388 
L 107.91253 23.856982 
L 107.942571 23.882551 
L 108.032695 23.99343 
L 108.212942 24.53358 
L 108.783726 26.753232 
L 108.994015 26.309827 
L 109.534757 23.955211 
L 109.624881 24.06372 
L 109.654922 24.039383 
L 109.715005 23.905807 
L 110.225706 21.591003 
L 110.285789 21.511352 
L 110.345871 21.57082 
L 110.496077 22.189328 
L 110.646284 22.467431 
L 110.856572 21.883252 
L 111.096902 21.101904 
L 111.126944 21.135742 
L 111.187026 21.076564 
L 111.397315 21.080542 
L 111.577562 21.034241 
L 111.667686 20.905937 
L 111.817892 20.677226 
L 111.847934 20.735203 
L 112.298552 22.110324 
L 112.328594 22.094532 
L 112.4788 22.102994 
L 112.598965 22.282543 
L 112.809254 22.473756 
L 112.869336 22.456421 
L 113.139708 23.244735 
L 113.319955 23.314409 
L 113.560285 23.93788 
L 113.620368 23.811363 
L 114.16111 22.017935 
L 114.221193 22.116641 
L 114.491564 22.55909 
L 114.671811 23.086066 
L 115.152471 24.891251 
L 115.512966 25.968589 
L 115.60309 25.782196 
L 115.723255 25.4601 
L 115.933544 24.837408 
L 115.963585 24.847591 
L 116.173874 25.483361 
L 116.594451 26.942123 
L 116.984988 27.600618 
L 117.165235 27.756647 
L 117.375524 27.494186 
L 117.435606 27.444677 
L 117.76606 26.102667 
L 118.126555 23.671121 
L 118.156596 23.697436 
L 118.366885 23.878056 
L 118.457009 23.723788 
L 119.027793 20.487358 
L 119.057834 20.506686 
L 119.087875 20.58703 
L 119.117916 18.309656 
L 119.20804 18.348572 
L 119.268123 18.420527 
L 119.478411 19.509961 
L 120.379649 25.104513 
L 120.469773 25.376142 
L 120.529855 25.326787 
L 120.740144 24.676323 
L 120.830268 24.738526 
L 121.491175 25.856351 
L 121.641381 26.04279 
L 121.941794 25.738198 
L 122.302289 24.785707 
L 122.33233 24.853215 
L 122.392413 25.00828 
L 122.452495 24.940745 
L 122.602701 24.856105 
L 122.933155 24.478647 
L 122.993238 24.585281 
L 123.143444 25.13373 
L 123.624104 26.476186 
L 123.714228 26.575058 
L 123.744269 26.485538 
L 124.375135 23.976978 
L 124.615465 22.735718 
L 124.705589 22.730946 
L 124.825754 22.932928 
L 124.855795 22.912789 
L 125.066084 22.513288 
L 125.186249 22.417328 
L 125.426579 21.490807 
L 125.967321 17.899591 
L 126.057445 17.994941 
L 126.17761 18.423557 
L 126.478022 19.241725 
L 126.598187 19.836047 
L 126.628229 17.430533 
L 126.718352 17.977134 
L 127.13893 19.612732 
L 127.229054 19.895418 
L 128.070209 25.913457 
L 128.130291 25.838393 
L 128.34058 25.44573 
L 128.460745 25.458997 
L 128.550869 25.491835 
L 128.58091 25.467914 
L 128.731116 25.30916 
L 129.031529 24.172412 
L 129.3019 22.885538 
L 129.452106 22.848953 
L 129.512189 22.836075 
L 129.54223 22.899919 
L 129.632354 22.988764 
L 129.962807 23.956135 
L 130.26322 25.42519 
L 130.563632 26.37096 
L 131.194499 27.524466 
L 131.675159 27.992379 
L 132.275984 28.249458 
L 132.396149 28.119165 
L 132.936891 25.991652 
L 133.808087 21.47547 
L 133.838129 21.542412 
L 133.928252 21.48464 
L 134.018376 21.400193 
L 134.138541 21.221678 
L 134.288747 22.135047 
L 134.739366 25.382003 
L 135.159944 26.899986 
L 135.370232 27.333523 
L 135.400274 27.305859 
L 135.730728 25.831742 
L 135.79081 25.911153 
L 135.850892 25.839391 
L 136.151305 24.888708 
L 136.181346 24.89886 
L 136.571883 25.809224 
L 136.75213 26.403337 
L 137.112625 27.214663 
L 137.352955 27.60647 
L 137.382996 27.519923 
L 138.073945 24.908311 
L 138.254192 24.568092 
L 138.734852 23.441693 
L 138.855018 23.751882 
L 138.9151 23.598768 
L 139.125389 23.032094 
L 139.305636 22.669864 
L 139.335678 22.68542 
L 139.485884 23.09779 
L 140.327039 26.981801 
L 140.747616 27.695395 
L 141.228276 28.083406 
L 141.528689 28.166799 
L 141.678895 27.968147 
L 141.889184 27.963264 
L 142.580132 26.891317 
L 142.670256 27.005362 
L 142.730339 26.96518 
L 142.820463 26.802946 
L 142.850504 26.873432 
L 142.910586 26.991274 
L 142.970669 26.892931 
L 143.210999 26.225643 
L 143.451329 25.345214 
L 143.811824 24.094444 
L 143.901948 24.102023 
L 143.96203 24.172308 
L 143.992071 24.104469 
L 144.833226 20.373187 
L 145.013474 19.37484 
L 145.073556 19.450113 
L 145.253804 19.818298 
L 145.283845 19.740438 
L 145.464092 19.452434 
L 145.494134 19.419681 
L 145.524175 19.470338 
L 145.704423 19.580179 
L 145.794546 19.584048 
L 146.034876 18.914614 
L 146.36533 18.692029 
L 146.395371 18.784986 
L 146.665743 19.878912 
L 146.996196 21.473603 
L 147.386732 23.665838 
L 147.597021 24.063756 
L 147.657104 23.957265 
L 147.897434 23.469175 
L 147.957516 23.535994 
L 149.039001 26.944913 
L 149.099084 26.790869 
L 149.399496 25.983379 
L 149.549702 25.736262 
L 149.699909 25.710242 
L 149.790032 25.928035 
L 149.850115 25.877364 
" clip-path="url(#pc8cde1bc16)" style="fill: none; stroke: #1a1a1a; stroke-width: 0.9; stroke-linejoin: miter"/>
   </g>
   <g id="line2d_10">
    <path d="M 29.715156 28.403765 
L 34.13122 28.403765 
L 34.191303 33.370673 
L 34.37155 79.939624 
L 34.461674 77.114878 
L 34.521756 71.943741 
L 34.792128 45.672211 
L 35.062499 37.737515 
L 35.33287 35.37533 
L 35.543159 34.889008 
L 35.753448 34.83669 
L 35.903654 35.103744 
L 36.324231 35.960952 
L 36.444396 35.991765 
L 36.474438 35.960417 
L 36.654685 35.49075 
L 37.045221 34.493927 
L 37.285551 34.444506 
L 37.525881 34.326501 
L 38.126706 33.675154 
L 38.517243 33.541975 
L 38.787614 33.153663 
L 39.118068 32.806699 
L 39.809016 32.780142 
L 40.049346 32.725506 
L 40.439883 32.381664 
L 41.58145 31.365321 
L 45.306565 29.412303 
L 49.181886 28.781644 
L 50.083124 28.688567 
L 50.263371 50.925854 
L 50.293413 50.800765 
L 50.323454 50.84251 
L 50.71399 41.334791 
L 51.134568 36.206226 
L 51.555145 33.52351 
L 51.975723 32.090672 
L 52.366259 31.527756 
L 53.027166 30.998984 
L 53.718115 30.78041 
L 54.829641 30.873527 
L 56.091374 30.848694 
L 56.72224 30.413655 
L 57.653519 29.82251 
L 58.735004 29.429286 
L 60.988098 28.96461 
L 62.850655 28.715911 
L 63.090985 40.088187 
L 63.121026 40.979541 
L 63.181109 40.446726 
L 63.661769 37.317676 
L 64.322676 34.466326 
L 64.89346 32.876551 
L 65.404161 32.109319 
L 66.966306 30.341325 
L 67.837502 29.705638 
L 68.768781 29.285707 
L 69.820225 29.017453 
L 73.274969 28.638115 
L 73.395134 28.630779 
L 73.515299 34.642425 
L 73.665505 43.815695 
L 74.116124 38.496637 
L 74.626825 35.138688 
L 75.167568 32.944901 
L 75.648228 31.789316 
L 76.098846 31.325312 
L 76.940001 30.650185 
L 77.600909 30.651598 
L 78.381981 30.682593 
L 79.583631 30.287312 
L 82.43755 29.153008 
L 84.209984 28.837496 
L 84.570479 28.788887 
L 84.60052 29.909168 
L 84.690644 29.856606 
L 85.832211 29.322878 
L 86.643325 29.151444 
L 86.76349 28.761878 
L 87.664727 28.753857 
L 89.046625 28.710786 
L 89.16679 28.55099 
L 91.059389 28.516249 
L 91.32976 39.286914 
L 91.419884 38.533064 
L 91.900544 35.657389 
L 92.351163 34.097286 
L 92.861864 33.235556 
L 93.522771 32.211273 
L 94.363926 31.088781 
L 95.265164 30.192169 
L 95.865989 29.890034 
L 98.028959 29.194314 
L 101.153249 28.796485 
L 101.213331 28.790724 
L 101.333496 28.589154 
L 101.603868 28.574746 
L 101.66395 31.479716 
L 101.754074 34.965939 
L 101.844198 34.86685 
L 102.234734 34.285789 
L 103.766838 31.425112 
L 104.427745 30.894984 
L 106.019931 29.720127 
L 106.981251 29.333874 
L 108.092777 29.138804 
L 110.496077 28.812817 
L 110.616242 36.439157 
L 110.79649 35.743475 
L 111.307191 34.352075 
L 111.99814 33.109157 
L 113.049584 31.688004 
L 113.92078 30.827027 
L 115.272636 29.975999 
L 116.384163 29.431455 
L 117.736019 28.982011 
L 119.057834 28.81622 
L 119.087875 28.813918 
L 119.20804 28.600864 
L 120.199401 28.583792 
L 120.379649 35.518001 
L 120.529855 34.8947 
L 121.040556 33.371233 
L 121.701464 32.02789 
L 122.272248 31.296051 
L 123.173485 30.58887 
L 124.315053 29.88787 
L 125.396538 29.636156 
L 126.598187 29.491342 
L 126.718352 28.924869 
L 127.37926 28.906648 
L 128.58091 28.779979 
L 130.26322 28.651505 
L 130.323303 30.933454 
L 130.50355 64.487944 
L 130.593674 59.237848 
L 130.954169 44.084993 
L 131.314664 37.329526 
L 131.7052 33.86019 
L 132.125777 32.035264 
L 132.516314 31.190594 
L 132.816726 31.025884 
L 133.087097 31.09696 
L 133.447592 31.463854 
L 134.078459 32.192227 
L 134.34883 32.274272 
L 134.619201 32.078339 
L 136.121264 30.593115 
L 136.872295 30.225004 
L 137.893698 29.736762 
L 139.245554 29.535688 
L 140.146791 29.322626 
L 141.979308 28.843508 
L 143.691659 28.660563 
L 143.781783 33.809831 
L 143.901948 42.460362 
L 143.931989 42.065565 
L 144.352566 38.157307 
L 144.743103 36.343608 
L 145.133639 35.509214 
L 145.824588 34.493461 
L 147.717186 32.083019 
L 148.76863 30.883387 
L 149.579744 30.178492 
L 149.850115 30.015216 
L 149.850115 30.015216 
" clip-path="url(#pc8cde1bc16)" style="fill: none; stroke: #c8102e; stroke-width: 0.9; stroke-linejoin: miter"/>
   </g>
   <g id="line2d_11">
    <path d="M 29.715156 28.404419 
L 30.616394 28.565383 
L 33.199941 29.457166 
L 34.13122 30.056267 
L 34.221344 29.997564 
L 34.341509 29.316994 
L 34.702004 27.087019 
L 34.972375 26.610736 
L 35.302829 26.464296 
L 35.81353 26.505512 
L 36.864974 26.705921 
L 37.405716 26.799971 
L 41.971986 27.89047 
L 42.873224 28.109583 
L 45.396689 28.389224 
L 46.658421 28.851095 
L 47.259246 29.015015 
L 48.250608 29.377089 
L 48.971598 29.544382 
L 49.842794 29.841118 
L 50.143206 29.755145 
L 50.383536 28.973087 
L 50.804114 27.974067 
L 51.284774 27.382046 
L 51.855558 27.039987 
L 52.366259 26.988145 
L 53.507826 27.136733 
L 54.108651 27.456576 
L 55.160095 28.16024 
L 56.061333 28.912748 
L 56.511951 29.038263 
L 58.735004 29.258272 
L 61.618964 30.240885 
L 62.520201 30.421775 
L 63.000861 30.462146 
L 63.902099 29.548358 
L 64.833378 28.982603 
L 65.314038 28.959963 
L 66.245316 28.939524 
L 67.867544 28.568416 
L 69.129276 28.427579 
L 69.70006 28.487906 
L 71.14204 29.070596 
L 71.682783 29.215841 
L 73.335051 29.461293 
L 73.54534 29.422427 
L 74.716949 27.951914 
L 75.46798 27.541912 
L 75.888558 27.502037 
L 77.270455 27.781554 
L 77.901321 28.301416 
L 78.892683 29.06844 
L 79.944126 29.609574 
L 81.265941 29.881426 
L 83.008334 30.064353 
L 85.021097 30.406926 
L 85.80217 30.310039 
L 86.372954 30.566197 
L 86.643325 30.734854 
L 86.76349 28.403765 
L 87.063903 28.482664 
L 88.746213 30.492233 
L 89.046625 30.729403 
L 89.16679 28.403765 
L 89.497244 28.501715 
L 90.458564 29.377185 
L 91.08943 29.666062 
L 91.269678 29.545833 
L 91.900544 28.858995 
L 92.351163 28.655861 
L 92.891905 28.729009 
L 93.402606 28.750512 
L 95.114958 28.473711 
L 95.715783 28.504021 
L 96.586979 28.63042 
L 97.488216 28.736869 
L 98.810031 29.292647 
L 99.440898 29.689856 
L 100.522383 30.360396 
L 101.213331 30.733635 
L 101.333496 28.403765 
L 101.633909 28.491777 
L 101.964363 28.69132 
L 102.414981 28.759652 
L 104.217456 28.599686 
L 104.818281 28.632676 
L 106.861086 28.517871 
L 107.521994 28.711397 
L 108.783726 29.179684 
L 109.414592 29.321601 
L 110.135582 29.766694 
L 110.616242 30.038312 
L 111.096902 29.872936 
L 111.817892 29.910989 
L 113.109666 30.0621 
L 114.191151 30.225839 
L 115.032306 30.421944 
L 116.354121 30.359993 
L 117.405565 30.087302 
L 117.916266 30.069282 
L 118.757421 30.44488 
L 119.087875 30.719464 
L 119.20804 28.403765 
L 119.508453 28.489602 
L 120.049195 29.050659 
L 120.349608 29.149677 
L 120.950433 28.825688 
L 122.061959 28.557694 
L 123.05332 28.691107 
L 123.834393 28.713473 
L 124.435218 28.856932 
L 125.546744 29.580718 
L 126.147569 30.27327 
L 126.598187 30.733137 
L 126.718352 28.403765 
L 127.018765 28.491796 
L 127.589549 29.117382 
L 128.10025 29.306046 
L 129.121652 29.62158 
L 130.293261 30.188722 
L 130.383385 30.072695 
L 130.623715 28.851267 
L 130.98421 27.700079 
L 131.374746 27.106499 
L 131.855406 26.77041 
L 132.486272 26.605726 
L 133.027015 26.68671 
L 133.567757 26.988096 
L 134.559119 27.603018 
L 135.189985 27.594369 
L 135.910975 27.615964 
L 137.382996 27.835721 
L 137.893698 27.948909 
L 138.734852 28.37558 
L 139.996585 29.038908 
L 140.747616 29.024934 
L 142.700298 28.916495 
L 143.571494 29.107845 
L 143.811824 29.140095 
L 144.532814 28.380654 
L 144.92335 28.347181 
L 145.974794 28.730257 
L 147.146402 29.230989 
L 148.708548 29.21118 
L 149.850115 29.104695 
L 149.850115 29.104695 
" clip-path="url(#pc8cde1bc16)" style="fill: none; stroke-dasharray: 0.7,1.155; stroke-dashoffset: 0; stroke: #bbbbbb; stroke-width: 0.7"/>
   </g>
   <g id="patch_3">
    <path d="M 29.715156 83.065078 
L 29.715156 14.305078 
" style="fill: none; stroke: #1a1a1a; stroke-width: 0.8; stroke-linejoin: miter; stroke-linecap: square"/>
   </g>
   <g id="patch_4">
    <path d="M 149.880156 83.065078 
L 149.880156 14.305078 
" style="fill: none; stroke: #1a1a1a; stroke-width: 0.8; stroke-linejoin: miter; stroke-linecap: square"/>
   </g>
   <g id="patch_5">
    <path d="M 29.715156 83.065078 
L 149.880156 83.065078 
" style="fill: none; stroke: #1a1a1a; stroke-width: 0.8; stroke-linejoin: miter; stroke-linecap: square"/>
   </g>
   <g id="patch_6">
    <path d="M 29.715156 14.305078 
L 149.880156 14.305078 
" style="fill: none; stroke: #1a1a1a; stroke-width: 0.8; stroke-linejoin: miter; stroke-linecap: square"/>
   </g>
   <g id="text_10">
    <!-- PING — recurrent loop active (ei-strength = 1.5) — E-neuron signed currents (cell 73) -->
    <g style="fill: #1a1a1a" transform="translate(29.715156 8.305078) scale(0.085 -0.085)">
     <defs>
      <path id="Menlo-Regular-50" d="M 1247 4147 
L 1247 2394 
L 1978 2394 
Q 2416 2394 2661 2625 
Q 2906 2856 2906 3272 
Q 2906 3688 2662 3917 
Q 2419 4147 1978 4147 
L 1247 4147 
z
M 616 4666 
L 1978 4666 
Q 2759 4666 3162 4311 
Q 3566 3956 3566 3272 
Q 3566 2581 3164 2228 
Q 2763 1875 1978 1875 
L 1247 1875 
L 1247 0 
L 616 0 
L 616 4666 
z
" transform="scale(0.015625)"/>
      <path id="Menlo-Regular-4e" d="M 59 4650 
L 922 4650 
L 2747 822 
L 2747 4650 
L 3419 4650 
L 3419 0 
L 2556 0 
L 731 3828 
L 731 0 
L 59 0 
L 59 4650 
z
" transform="scale(0.015625)"/>
      <path id="Menlo-Regular-47" d="M 3450 384 
Q 3197 150 2880 29 
Q 2563 -91 2194 -91 
Q 1306 -91 812 545 
Q 319 1181 319 2328 
Q 319 3472 819 4111 
Q 1319 4750 2209 4750 
Q 2503 4750 2772 4667 
Q 3041 4584 3291 4416 
L 3291 3769 
Q 3038 4009 2772 4123 
Q 2506 4238 2209 4238 
Q 1594 4238 1286 3761 
Q 978 3284 978 2328 
Q 978 1356 1276 889 
Q 1575 422 2194 422 
Q 2403 422 2561 470 
Q 2719 519 2847 622 
L 2847 1875 
L 2169 1875 
L 2169 2394 
L 3450 2394 
L 3450 384 
z
" transform="scale(0.015625)"/>
      <path id="Menlo-Regular-2014" d="M 0 2259 
L 3853 2259 
L 3853 1725 
L 0 1725 
L 0 2259 
z
" transform="scale(0.015625)"/>
      <path id="Menlo-Regular-63" d="M 3316 178 
Q 3084 44 2839 -23 
Q 2594 -91 2338 -91 
Q 1525 -91 1067 396 
Q 609 884 609 1747 
Q 609 2609 1067 3096 
Q 1525 3584 2338 3584 
Q 2591 3584 2831 3518 
Q 3072 3453 3316 3316 
L 3316 2713 
Q 3088 2916 2858 3006 
Q 2628 3097 2338 3097 
Q 1797 3097 1506 2747 
Q 1216 2397 1216 1747 
Q 1216 1100 1508 748 
Q 1800 397 2338 397 
Q 2638 397 2875 489 
Q 3113 581 3316 775 
L 3316 178 
z
" transform="scale(0.015625)"/>
      <path id="Menlo-Regular-75" d="M 609 1325 
L 609 3494 
L 1184 3494 
L 1184 1325 
Q 1184 853 1351 631 
Q 1519 409 1869 409 
Q 2275 409 2490 695 
Q 2706 981 2706 1516 
L 2706 3494 
L 3284 3494 
L 3284 0 
L 2706 0 
L 2706 525 
Q 2553 222 2289 65 
Q 2025 -91 1672 -91 
Q 1134 -91 871 261 
Q 609 613 609 1325 
z
" transform="scale(0.015625)"/>
      <path id="Menlo-Regular-61" d="M 2194 1759 
L 2003 1759 
Q 1500 1759 1245 1582 
Q 991 1406 991 1056 
Q 991 741 1181 566 
Q 1372 391 1709 391 
Q 2184 391 2456 720 
Q 2728 1050 2731 1631 
L 2731 1759 
L 2194 1759 
z
M 3309 1997 
L 3309 0 
L 2731 0 
L 2731 519 
Q 2547 206 2267 57 
Q 1988 -91 1588 -91 
Q 1053 -91 734 211 
Q 416 513 416 1019 
Q 416 1603 808 1906 
Q 1200 2209 1959 2209 
L 2731 2209 
L 2731 2300 
Q 2728 2719 2518 2908 
Q 2309 3097 1850 3097 
Q 1556 3097 1256 3012 
Q 956 2928 672 2766 
L 672 3341 
Q 991 3463 1283 3523 
Q 1575 3584 1850 3584 
Q 2284 3584 2592 3456 
Q 2900 3328 3091 3072 
Q 3209 2916 3259 2686 
Q 3309 2456 3309 1997 
z
" transform="scale(0.015625)"/>
      <path id="Menlo-Regular-76" d="M 313 3500 
L 909 3500 
L 1925 563 
L 2944 3500 
L 3541 3500 
L 2297 0 
L 1556 0 
L 313 3500 
z
" transform="scale(0.015625)"/>
      <path id="Menlo-Regular-2d" d="M 319 2263 
L 3631 2263 
L 3631 1734 
L 319 1734 
L 319 2263 
z
" transform="scale(0.015625)"/>
      <path id="Menlo-Regular-67" d="M 2681 1778 
Q 2681 2425 2470 2761 
Q 2259 3097 1856 3097 
Q 1434 3097 1212 2761 
Q 991 2425 991 1778 
Q 991 1131 1214 792 
Q 1438 453 1863 453 
Q 2259 453 2470 793 
Q 2681 1134 2681 1778 
z
M 3256 225 
Q 3256 -563 2884 -969 
Q 2513 -1375 1791 -1375 
Q 1553 -1375 1293 -1331 
Q 1034 -1288 775 -1203 
L 775 -634 
Q 1081 -778 1331 -847 
Q 1581 -916 1791 -916 
Q 2256 -916 2468 -662 
Q 2681 -409 2681 141 
L 2681 166 
L 2681 556 
Q 2544 263 2306 119 
Q 2069 -25 1728 -25 
Q 1116 -25 750 465 
Q 384 956 384 1778 
Q 384 2603 750 3093 
Q 1116 3584 1728 3584 
Q 2066 3584 2300 3450 
Q 2534 3316 2681 3034 
L 2681 3488 
L 3256 3488 
L 3256 225 
z
" transform="scale(0.015625)"/>
      <path id="Menlo-Regular-3d" d="M 275 1563 
L 3578 1563 
L 3578 1034 
L 275 1034 
L 275 1563 
z
M 275 3034 
L 3578 3034 
L 3578 2506 
L 275 2506 
L 275 3034 
z
" transform="scale(0.015625)"/>
      <path id="Menlo-Regular-35" d="M 647 4666 
L 3009 4666 
L 3009 4134 
L 1222 4134 
L 1222 2988 
Q 1356 3038 1492 3061 
Q 1628 3084 1766 3084 
Q 2491 3084 2916 2656 
Q 3341 2228 3341 1497 
Q 3341 759 2895 334 
Q 2450 -91 1678 -91 
Q 1306 -91 998 -41 
Q 691 9 447 109 
L 447 750 
Q 734 594 1025 517 
Q 1316 441 1619 441 
Q 2141 441 2423 716 
Q 2706 991 2706 1497 
Q 2706 1997 2414 2275 
Q 2122 2553 1600 2553 
Q 1347 2553 1106 2495 
Q 866 2438 647 2322 
L 647 4666 
z
" transform="scale(0.015625)"/>
      <path id="Menlo-Regular-45" d="M 616 4666 
L 3384 4666 
L 3384 4134 
L 1247 4134 
L 1247 2878 
L 3291 2878 
L 3291 2347 
L 1247 2347 
L 1247 531 
L 3444 531 
L 3444 0 
L 616 0 
L 616 4666 
z
" transform="scale(0.015625)"/>
      <path id="Menlo-Regular-37" d="M 434 4666 
L 3372 4666 
L 3372 4397 
L 1703 0 
L 1044 0 
L 2669 4134 
L 434 4134 
L 434 4666 
z
" transform="scale(0.015625)"/>
     </defs>
     <use xlink:href="#Menlo-Regular-50"/>
     <use xlink:href="#Menlo-Regular-49" transform="translate(60.205078 0)"/>
     <use xlink:href="#Menlo-Regular-4e" transform="translate(120.410156 0)"/>
     <use xlink:href="#Menlo-Regular-47" transform="translate(180.615234 0)"/>
     <use xlink:href="#Menlo-Regular-20" transform="translate(240.820312 0)"/>
     <use xlink:href="#Menlo-Regular-2014" transform="translate(301.025391 0)"/>
     <use xlink:href="#Menlo-Regular-20" transform="translate(361.230469 0)"/>
     <use xlink:href="#Menlo-Regular-72" transform="translate(421.435547 0)"/>
     <use xlink:href="#Menlo-Regular-65" transform="translate(481.640625 0)"/>
     <use xlink:href="#Menlo-Regular-63" transform="translate(541.845703 0)"/>
     <use xlink:href="#Menlo-Regular-75" transform="translate(602.050781 0)"/>
     <use xlink:href="#Menlo-Regular-72" transform="translate(662.255859 0)"/>
     <use xlink:href="#Menlo-Regular-72" transform="translate(722.460938 0)"/>
     <use xlink:href="#Menlo-Regular-65" transform="translate(782.666016 0)"/>
     <use xlink:href="#Menlo-Regular-6e" transform="translate(842.871094 0)"/>
     <use xlink:href="#Menlo-Regular-74" transform="translate(903.076172 0)"/>
     <use xlink:href="#Menlo-Regular-20" transform="translate(963.28125 0)"/>
     <use xlink:href="#Menlo-Regular-6c" transform="translate(1023.486328 0)"/>
     <use xlink:href="#Menlo-Regular-6f" transform="translate(1083.691406 0)"/>
     <use xlink:href="#Menlo-Regular-6f" transform="translate(1143.896484 0)"/>
     <use xlink:href="#Menlo-Regular-70" transform="translate(1204.101562 0)"/>
     <use xlink:href="#Menlo-Regular-20" transform="translate(1264.306641 0)"/>
     <use xlink:href="#Menlo-Regular-61" transform="translate(1324.511719 0)"/>
     <use xlink:href="#Menlo-Regular-63" transform="translate(1384.716797 0)"/>
     <use xlink:href="#Menlo-Regular-74" transform="translate(1444.921875 0)"/>
     <use xlink:href="#Menlo-Regular-69" transform="translate(1505.126953 0)"/>
     <use xlink:href="#Menlo-Regular-76" transform="translate(1565.332031 0)"/>
     <use xlink:href="#Menlo-Regular-65" transform="translate(1625.537109 0)"/>
     <use xlink:href="#Menlo-Regular-20" transform="translate(1685.742188 0)"/>
     <use xlink:href="#Menlo-Regular-28" transform="translate(1745.947266 0)"/>
     <use xlink:href="#Menlo-Regular-65" transform="translate(1806.152344 0)"/>
     <use xlink:href="#Menlo-Regular-69" transform="translate(1866.357422 0)"/>
     <use xlink:href="#Menlo-Regular-2d" transform="translate(1926.5625 0)"/>
     <use xlink:href="#Menlo-Regular-73" transform="translate(1986.767578 0)"/>
     <use xlink:href="#Menlo-Regular-74" transform="translate(2046.972656 0)"/>
     <use xlink:href="#Menlo-Regular-72" transform="translate(2107.177734 0)"/>
     <use xlink:href="#Menlo-Regular-65" transform="translate(2167.382812 0)"/>
     <use xlink:href="#Menlo-Regular-6e" transform="translate(2227.587891 0)"/>
     <use xlink:href="#Menlo-Regular-67" transform="translate(2287.792969 0)"/>
     <use xlink:href="#Menlo-Regular-74" transform="translate(2347.998047 0)"/>
     <use xlink:href="#Menlo-Regular-68" transform="translate(2408.203125 0)"/>
     <use xlink:href="#Menlo-Regular-20" transform="translate(2468.408203 0)"/>
     <use xlink:href="#Menlo-Regular-3d" transform="translate(2528.613281 0)"/>
     <use xlink:href="#Menlo-Regular-20" transform="translate(2588.818359 0)"/>
     <use xlink:href="#Menlo-Regular-31" transform="translate(2649.023438 0)"/>
     <use xlink:href="#Menlo-Regular-2e" transform="translate(2709.228516 0)"/>
     <use xlink:href="#Menlo-Regular-35" transform="translate(2769.433594 0)"/>
     <use xlink:href="#Menlo-Regular-29" transform="translate(2829.638672 0)"/>
     <use xlink:href="#Menlo-Regular-20" transform="translate(2889.84375 0)"/>
     <use xlink:href="#Menlo-Regular-2014" transform="translate(2950.048828 0)"/>
     <use xlink:href="#Menlo-Regular-20" transform="translate(3010.253906 0)"/>
     <use xlink:href="#Menlo-Regular-45" transform="translate(3070.458984 0)"/>
     <use xlink:href="#Menlo-Regular-2d" transform="translate(3130.664062 0)"/>
     <use xlink:href="#Menlo-Regular-6e" transform="translate(3190.869141 0)"/>
     <use xlink:href="#Menlo-Regular-65" transform="translate(3251.074219 0)"/>
     <use xlink:href="#Menlo-Regular-75" transform="translate(3311.279297 0)"/>
     <use xlink:href="#Menlo-Regular-72" transform="translate(3371.484375 0)"/>
     <use xlink:href="#Menlo-Regular-6f" transform="translate(3431.689453 0)"/>
     <use xlink:href="#Menlo-Regular-6e" transform="translate(3491.894531 0)"/>
     <use xlink:href="#Menlo-Regular-20" transform="translate(3552.099609 0)"/>
     <use xlink:href="#Menlo-Regular-73" transform="translate(3612.304688 0)"/>
     <use xlink:href="#Menlo-Regular-69" transform="translate(3672.509766 0)"/>
     <use xlink:href="#Menlo-Regular-67" transform="translate(3732.714844 0)"/>
     <use xlink:href="#Menlo-Regular-6e" transform="translate(3792.919922 0)"/>
     <use xlink:href="#Menlo-Regular-65" transform="translate(3853.125 0)"/>
     <use xlink:href="#Menlo-Regular-64" transform="translate(3913.330078 0)"/>
     <use xlink:href="#Menlo-Regular-20" transform="translate(3973.535156 0)"/>
     <use xlink:href="#Menlo-Regular-63" transform="translate(4033.740234 0)"/>
     <use xlink:href="#Menlo-Regular-75" transform="translate(4093.945312 0)"/>
     <use xlink:href="#Menlo-Regular-72" transform="translate(4154.150391 0)"/>
     <use xlink:href="#Menlo-Regular-72" transform="translate(4214.355469 0)"/>
     <use xlink:href="#Menlo-Regular-65" transform="translate(4274.560547 0)"/>
     <use xlink:href="#Menlo-Regular-6e" transform="translate(4334.765625 0)"/>
     <use xlink:href="#Menlo-Regular-74" transform="translate(4394.970703 0)"/>
     <use xlink:href="#Menlo-Regular-73" transform="translate(4455.175781 0)"/>
     <use xlink:href="#Menlo-Regular-20" transform="translate(4515.380859 0)"/>
     <use xlink:href="#Menlo-Regular-28" transform="translate(4575.585938 0)"/>
     <use xlink:href="#Menlo-Regular-63" transform="translate(4635.791016 0)"/>
     <use xlink:href="#Menlo-Regular-65" transform="translate(4695.996094 0)"/>
     <use xlink:href="#Menlo-Regular-6c" transform="translate(4756.201172 0)"/>
     <use xlink:href="#Menlo-Regular-6c" transform="translate(4816.40625 0)"/>
     <use xlink:href="#Menlo-Regular-20" transform="translate(4876.611328 0)"/>
     <use xlink:href="#Menlo-Regular-37" transform="translate(4936.816406 0)"/>
     <use xlink:href="#Menlo-Regular-33" transform="translate(4997.021484 0)"/>
     <use xlink:href="#Menlo-Regular-29" transform="translate(5057.226562 0)"/>
    </g>
   </g>
   <g id="legend_1">
    <g id="patch_7">
     <path d="M 48.124219 51.507891 
L 146.380156 51.507891 
L 146.380156 17.805078 
L 48.124219 17.805078 
z
" style="fill: #ffffff; stroke: #1a1a1a; stroke-width: 0.8; stroke-linejoin: miter"/>
    </g>
    <g id="line2d_12">
     <path d="M 50.924219 23.808672 
L 56.524219 23.808672 
L 62.124219 23.808672 
" style="fill: none; stroke: #1a1a1a; stroke-width: 0.9; stroke-linejoin: miter"/>
    </g>
    <g id="text_11">
     <!-- I_E in (depol.) -->
     <g style="fill: #1a1a1a" transform="translate(67.724219 26.258672) scale(0.07 -0.07)">
      <defs>
       <path id="Menlo-Regular-5f" d="M 3825 -594 
L 3825 -1125 
L 0 -1125 
L 0 -594 
L 3825 -594 
z
" transform="scale(0.015625)"/>
      </defs>
      <use xlink:href="#Menlo-Regular-49"/>
      <use xlink:href="#Menlo-Regular-5f" transform="translate(60.205078 0)"/>
      <use xlink:href="#Menlo-Regular-45" transform="translate(120.410156 0)"/>
      <use xlink:href="#Menlo-Regular-20" transform="translate(180.615234 0)"/>
      <use xlink:href="#Menlo-Regular-69" transform="translate(240.820312 0)"/>
      <use xlink:href="#Menlo-Regular-6e" transform="translate(301.025391 0)"/>
      <use xlink:href="#Menlo-Regular-20" transform="translate(361.230469 0)"/>
      <use xlink:href="#Menlo-Regular-28" transform="translate(421.435547 0)"/>
      <use xlink:href="#Menlo-Regular-64" transform="translate(481.640625 0)"/>
      <use xlink:href="#Menlo-Regular-65" transform="translate(541.845703 0)"/>
      <use xlink:href="#Menlo-Regular-70" transform="translate(602.050781 0)"/>
      <use xlink:href="#Menlo-Regular-6f" transform="translate(662.255859 0)"/>
      <use xlink:href="#Menlo-Regular-6c" transform="translate(722.460938 0)"/>
      <use xlink:href="#Menlo-Regular-2e" transform="translate(782.666016 0)"/>
      <use xlink:href="#Menlo-Regular-29" transform="translate(842.871094 0)"/>
     </g>
    </g>
    <g id="line2d_13">
     <path d="M 50.924219 34.418047 
L 56.524219 34.418047 
L 62.124219 34.418047 
" style="fill: none; stroke: #c8102e; stroke-width: 0.9; stroke-linejoin: miter"/>
    </g>
    <g id="text_12">
     <!-- I_I in (hyperpol.) -->
     <g style="fill: #1a1a1a" transform="translate(67.724219 36.868047) scale(0.07 -0.07)">
      <use xlink:href="#Menlo-Regular-49"/>
      <use xlink:href="#Menlo-Regular-5f" transform="translate(60.205078 0)"/>
      <use xlink:href="#Menlo-Regular-49" transform="translate(120.410156 0)"/>
      <use xlink:href="#Menlo-Regular-20" transform="translate(180.615234 0)"/>
      <use xlink:href="#Menlo-Regular-69" transform="translate(240.820312 0)"/>
      <use xlink:href="#Menlo-Regular-6e" transform="translate(301.025391 0)"/>
      <use xlink:href="#Menlo-Regular-20" transform="translate(361.230469 0)"/>
      <use xlink:href="#Menlo-Regular-28" transform="translate(421.435547 0)"/>
      <use xlink:href="#Menlo-Regular-68" transform="translate(481.640625 0)"/>
      <use xlink:href="#Menlo-Regular-79" transform="translate(541.845703 0)"/>
      <use xlink:href="#Menlo-Regular-70" transform="translate(602.050781 0)"/>
      <use xlink:href="#Menlo-Regular-65" transform="translate(662.255859 0)"/>
      <use xlink:href="#Menlo-Regular-72" transform="translate(722.460938 0)"/>
      <use xlink:href="#Menlo-Regular-70" transform="translate(782.666016 0)"/>
      <use xlink:href="#Menlo-Regular-6f" transform="translate(842.871094 0)"/>
      <use xlink:href="#Menlo-Regular-6c" transform="translate(903.076172 0)"/>
      <use xlink:href="#Menlo-Regular-2e" transform="translate(963.28125 0)"/>
      <use xlink:href="#Menlo-Regular-29" transform="translate(1023.486328 0)"/>
     </g>
    </g>
    <g id="line2d_14">
     <path d="M 50.924219 44.802109 
L 56.524219 44.802109 
L 62.124219 44.802109 
" style="fill: none; stroke-dasharray: 0.7,1.155; stroke-dashoffset: 0; stroke: #bbbbbb; stroke-width: 0.7"/>
    </g>
    <g id="text_13">
     <!-- I_L in (leak) -->
     <g style="fill: #1a1a1a" transform="translate(67.724219 47.252109) scale(0.07 -0.07)">
      <defs>
       <path id="Menlo-Regular-4c" d="M 672 4666 
L 1306 4666 
L 1306 531 
L 3559 531 
L 3559 0 
L 672 0 
L 672 4666 
z
" transform="scale(0.015625)"/>
       <path id="Menlo-Regular-6b" d="M 738 4863 
L 1331 4863 
L 1331 2047 
L 2841 3500 
L 3541 3500 
L 2163 2181 
L 3756 0 
L 3053 0 
L 1759 1806 
L 1331 1403 
L 1331 0 
L 738 0 
L 738 4863 
z
" transform="scale(0.015625)"/>
      </defs>
      <use xlink:href="#Menlo-Regular-49"/>
      <use xlink:href="#Menlo-Regular-5f" transform="translate(60.205078 0)"/>
      <use xlink:href="#Menlo-Regular-4c" transform="translate(120.410156 0)"/>
      <use xlink:href="#Menlo-Regular-20" transform="translate(180.615234 0)"/>
      <use xlink:href="#Menlo-Regular-69" transform="translate(240.820312 0)"/>
      <use xlink:href="#Menlo-Regular-6e" transform="translate(301.025391 0)"/>
      <use xlink:href="#Menlo-Regular-20" transform="translate(361.230469 0)"/>
      <use xlink:href="#Menlo-Regular-28" transform="translate(421.435547 0)"/>
      <use xlink:href="#Menlo-Regular-6c" transform="translate(481.640625 0)"/>
      <use xlink:href="#Menlo-Regular-65" transform="translate(541.845703 0)"/>
      <use xlink:href="#Menlo-Regular-61" transform="translate(602.050781 0)"/>
      <use xlink:href="#Menlo-Regular-6b" transform="translate(662.255859 0)"/>
      <use xlink:href="#Menlo-Regular-29" transform="translate(722.460938 0)"/>
     </g>
    </g>
   </g>
  </g>
 </g>
 <defs>
  <clipPath id="pc8cde1bc16">
   <rect x="29.715156" y="14.305078" width="120.165" height="68.76"/>
  </clipPath>
 </defs>
</svg>
