<?xml version="1.0" encoding="utf-8" standalone="no"?>
<!DOCTYPE svg PUBLIC "-//W3C//DTD SVG 1.1//EN"
  "http://www.w3.org/Graphics/SVG/1.1/DTD/svg11.dtd">
<svg xmlns:xlink="http://www.w3.org/1999/xlink" width="274.140703pt" height="148.460625pt" viewBox="0 0 274.140703 148.460625" xmlns="http://www.w3.org/2000/svg" version="1.1">
 <metadata>
  <rdf:RDF xmlns:dc="http://purl.org/dc/elements/1.1/" xmlns:cc="http://creativecommons.org/ns#" xmlns:rdf="http://www.w3.org/1999/02/22-rdf-syntax-ns#">
   <cc:Work>
    <dc:type rdf:resource="http://purl.org/dc/dcmitype/StillImage"/>
    <dc:date>2026-07-02T13:59:03.959690</dc:date>
    <dc:format>image/svg+xml</dc:format>
    <dc:creator>
     <cc:Agent>
      <dc:title>Matplotlib v3.10.8, https://matplotlib.org/</dc:title>
     </cc:Agent>
    </dc:creator>
   </cc:Work>
  </rdf:RDF>
 </metadata>
 <defs>
  <style type="text/css">*{stroke-linejoin: round; stroke-linecap: butt}</style>
 </defs>
 <g id="figure_1">
  <g id="patch_1">
   <path d="M 0 148.460625 
L 274.140703 148.460625 
L 274.140703 0 
L 0 0 
z
" style="fill: #ffffff"/>
  </g>
  <g id="axes_1">
   <g id="patch_2">
    <path d="M 33.984375 124.96125 
L 266.379378 124.96125 
L 266.379378 13.54125 
L 33.984375 13.54125 
z
" style="fill: #ffffff"/>
   </g>
   <g id="matplotlib.axis_1">
    <g id="xtick_1">
     <g id="line2d_1">
      <defs>
       <path id="m2e597309bb" d="M 0 0 
L 0 -3 
" style="stroke: #1a1a1a; stroke-width: 0.8"/>
      </defs>
      <g>
       <use xlink:href="#m2e597309bb" x="33.984375" y="124.96125" style="fill: #1a1a1a; stroke: #1a1a1a; stroke-width: 0.8"/>
      </g>
     </g>
     <g id="text_1">
      <!-- 0 -->
      <g style="fill: #1a1a1a" transform="translate(31.877266 133.799844) scale(0.07 -0.07)">
       <defs>
        <path id="Menlo-Regular-30" d="M 1925 4734 
Q 2672 4734 3055 4125 
Q 3438 3516 3438 2322 
Q 3438 1128 3055 518 
Q 2672 -91 1925 -91 
Q 1178 -91 797 518 
Q 416 1128 416 2322 
Q 416 3516 797 4125 
Q 1178 4734 1925 4734 
z
M 1925 409 
Q 2369 409 2586 881 
Q 2803 1353 2803 2322 
Q 2803 2838 2741 3253 
L 1253 925 
Q 1488 409 1925 409 
z
M 1925 4234 
Q 1484 4234 1267 3762 
Q 1050 3291 1050 2322 
Q 1050 1881 1109 1497 
L 2566 3819 
Q 2328 4234 1925 4234 
z
" transform="scale(0.015625)"/>
       </defs>
       <use xlink:href="#Menlo-Regular-30"/>
      </g>
     </g>
    </g>
    <g id="xtick_2">
     <g id="line2d_2">
      <g>
       <use xlink:href="#m2e597309bb" x="63.03375" y="124.96125" style="fill: #1a1a1a; stroke: #1a1a1a; stroke-width: 0.8"/>
      </g>
     </g>
     <g id="text_2">
      <!-- 50 -->
      <g style="fill: #1a1a1a" transform="translate(58.819531 133.799844) scale(0.07 -0.07)">
       <defs>
        <path id="Menlo-Regular-35" d="M 647 4666 
L 3009 4666 
L 3009 4134 
L 1222 4134 
L 1222 2988 
Q 1356 3038 1492 3061 
Q 1628 3084 1766 3084 
Q 2491 3084 2916 2656 
Q 3341 2228 3341 1497 
Q 3341 759 2895 334 
Q 2450 -91 1678 -91 
Q 1306 -91 998 -41 
Q 691 9 447 109 
L 447 750 
Q 734 594 1025 517 
Q 1316 441 1619 441 
Q 2141 441 2423 716 
Q 2706 991 2706 1497 
Q 2706 1997 2414 2275 
Q 2122 2553 1600 2553 
Q 1347 2553 1106 2495 
Q 866 2438 647 2322 
L 647 4666 
z
" transform="scale(0.015625)"/>
       </defs>
       <use xlink:href="#Menlo-Regular-35"/>
       <use xlink:href="#Menlo-Regular-30" transform="translate(60.205078 0)"/>
      </g>
     </g>
    </g>
    <g id="xtick_3">
     <g id="line2d_3">
      <g>
       <use xlink:href="#m2e597309bb" x="92.083125" y="124.96125" style="fill: #1a1a1a; stroke: #1a1a1a; stroke-width: 0.8"/>
      </g>
     </g>
     <g id="text_3">
      <!-- 100 -->
      <g style="fill: #1a1a1a" transform="translate(85.761797 133.799844) scale(0.07 -0.07)">
       <defs>
        <path id="Menlo-Regular-31" d="M 844 528 
L 1825 528 
L 1825 4053 
L 650 3488 
L 650 4094 
L 1819 4650 
L 2450 4650 
L 2450 528 
L 3419 528 
L 3419 0 
L 844 0 
L 844 528 
z
" transform="scale(0.015625)"/>
       </defs>
       <use xlink:href="#Menlo-Regular-31"/>
       <use xlink:href="#Menlo-Regular-30" transform="translate(60.205078 0)"/>
       <use xlink:href="#Menlo-Regular-30" transform="translate(120.410156 0)"/>
      </g>
     </g>
    </g>
    <g id="xtick_4">
     <g id="line2d_4">
      <g>
       <use xlink:href="#m2e597309bb" x="121.1325" y="124.96125" style="fill: #1a1a1a; stroke: #1a1a1a; stroke-width: 0.8"/>
      </g>
     </g>
     <g id="text_4">
      <!-- 150 -->
      <g style="fill: #1a1a1a" transform="translate(114.811172 133.799844) scale(0.07 -0.07)">
       <use xlink:href="#Menlo-Regular-31"/>
       <use xlink:href="#Menlo-Regular-35" transform="translate(60.205078 0)"/>
       <use xlink:href="#Menlo-Regular-30" transform="translate(120.410156 0)"/>
      </g>
     </g>
    </g>
    <g id="xtick_5">
     <g id="line2d_5">
      <g>
       <use xlink:href="#m2e597309bb" x="150.181875" y="124.96125" style="fill: #1a1a1a; stroke: #1a1a1a; stroke-width: 0.8"/>
      </g>
     </g>
     <g id="text_5">
      <!-- 200 -->
      <g style="fill: #1a1a1a" transform="translate(143.860547 133.799844) scale(0.07 -0.07)">
       <defs>
        <path id="Menlo-Regular-32" d="M 1166 531 
L 3309 531 
L 3309 0 
L 475 0 
L 475 531 
Q 1059 1147 1496 1619 
Q 1934 2091 2100 2284 
Q 2413 2666 2522 2902 
Q 2631 3138 2631 3384 
Q 2631 3775 2401 3997 
Q 2172 4219 1772 4219 
Q 1488 4219 1175 4116 
Q 863 4013 513 3803 
L 513 4441 
Q 834 4594 1145 4672 
Q 1456 4750 1759 4750 
Q 2444 4750 2861 4386 
Q 3278 4022 3278 3431 
Q 3278 3131 3139 2831 
Q 3000 2531 2688 2169 
Q 2513 1966 2180 1606 
Q 1847 1247 1166 531 
z
" transform="scale(0.015625)"/>
       </defs>
       <use xlink:href="#Menlo-Regular-32"/>
       <use xlink:href="#Menlo-Regular-30" transform="translate(60.205078 0)"/>
       <use xlink:href="#Menlo-Regular-30" transform="translate(120.410156 0)"/>
      </g>
     </g>
    </g>
    <g id="xtick_6">
     <g id="line2d_6">
      <g>
       <use xlink:href="#m2e597309bb" x="179.23125" y="124.96125" style="fill: #1a1a1a; stroke: #1a1a1a; stroke-width: 0.8"/>
      </g>
     </g>
     <g id="text_6">
      <!-- 250 -->
      <g style="fill: #1a1a1a" transform="translate(172.909922 133.799844) scale(0.07 -0.07)">
       <use xlink:href="#Menlo-Regular-32"/>
       <use xlink:href="#Menlo-Regular-35" transform="translate(60.205078 0)"/>
       <use xlink:href="#Menlo-Regular-30" transform="translate(120.410156 0)"/>
      </g>
     </g>
    </g>
    <g id="xtick_7">
     <g id="line2d_7">
      <g>
       <use xlink:href="#m2e597309bb" x="208.280625" y="124.96125" style="fill: #1a1a1a; stroke: #1a1a1a; stroke-width: 0.8"/>
      </g>
     </g>
     <g id="text_7">
      <!-- 300 -->
      <g style="fill: #1a1a1a" transform="translate(201.959297 133.799844) scale(0.07 -0.07)">
       <defs>
        <path id="Menlo-Regular-33" d="M 2425 2497 
Q 2884 2375 3128 2064 
Q 3372 1753 3372 1288 
Q 3372 644 2939 276 
Q 2506 -91 1741 -91 
Q 1419 -91 1084 -31 
Q 750 28 428 141 
L 428 769 
Q 747 603 1056 522 
Q 1366 441 1672 441 
Q 2191 441 2469 675 
Q 2747 909 2747 1350 
Q 2747 1756 2469 1995 
Q 2191 2234 1716 2234 
L 1234 2234 
L 1234 2753 
L 1716 2753 
Q 2150 2753 2394 2943 
Q 2638 3134 2638 3475 
Q 2638 3834 2411 4026 
Q 2184 4219 1766 4219 
Q 1488 4219 1191 4156 
Q 894 4094 569 3969 
L 569 4550 
Q 947 4650 1242 4700 
Q 1538 4750 1766 4750 
Q 2447 4750 2855 4408 
Q 3263 4066 3263 3500 
Q 3263 3116 3048 2859 
Q 2834 2603 2425 2497 
z
" transform="scale(0.015625)"/>
       </defs>
       <use xlink:href="#Menlo-Regular-33"/>
       <use xlink:href="#Menlo-Regular-30" transform="translate(60.205078 0)"/>
       <use xlink:href="#Menlo-Regular-30" transform="translate(120.410156 0)"/>
      </g>
     </g>
    </g>
    <g id="xtick_8">
     <g id="line2d_8">
      <g>
       <use xlink:href="#m2e597309bb" x="237.33" y="124.96125" style="fill: #1a1a1a; stroke: #1a1a1a; stroke-width: 0.8"/>
      </g>
     </g>
     <g id="text_8">
      <!-- 350 -->
      <g style="fill: #1a1a1a" transform="translate(231.008672 133.799844) scale(0.07 -0.07)">
       <use xlink:href="#Menlo-Regular-33"/>
       <use xlink:href="#Menlo-Regular-35" transform="translate(60.205078 0)"/>
       <use xlink:href="#Menlo-Regular-30" transform="translate(120.410156 0)"/>
      </g>
     </g>
    </g>
    <g id="xtick_9">
     <g id="line2d_9">
      <g>
       <use xlink:href="#m2e597309bb" x="266.379375" y="124.96125" style="fill: #1a1a1a; stroke: #1a1a1a; stroke-width: 0.8"/>
      </g>
     </g>
     <g id="text_9">
      <!-- 400 -->
      <g style="fill: #1a1a1a" transform="translate(260.058047 133.799844) scale(0.07 -0.07)">
       <defs>
        <path id="Menlo-Regular-34" d="M 2297 4091 
L 825 1625 
L 2297 1625 
L 2297 4091 
z
M 2194 4666 
L 2925 4666 
L 2925 1625 
L 3547 1625 
L 3547 1113 
L 2925 1113 
L 2925 0 
L 2297 0 
L 2297 1113 
L 319 1113 
L 319 1709 
L 2194 4666 
z
" transform="scale(0.015625)"/>
       </defs>
       <use xlink:href="#Menlo-Regular-34"/>
       <use xlink:href="#Menlo-Regular-30" transform="translate(60.205078 0)"/>
       <use xlink:href="#Menlo-Regular-30" transform="translate(120.410156 0)"/>
      </g>
     </g>
    </g>
    <g id="text_10">
     <!-- time (ms) -->
     <g style="fill: #1a1a1a" transform="translate(128.508752 145.356875) scale(0.08 -0.08)">
      <defs>
       <path id="Menlo-Regular-74" d="M 1919 4494 
L 1919 3500 
L 3225 3500 
L 3225 3053 
L 1919 3053 
L 1919 1153 
Q 1919 766 2066 612 
Q 2213 459 2578 459 
L 3225 459 
L 3225 0 
L 2522 0 
Q 1875 0 1609 259 
Q 1344 519 1344 1153 
L 1344 3053 
L 409 3053 
L 409 3500 
L 1344 3500 
L 1344 4494 
L 1919 4494 
z
" transform="scale(0.015625)"/>
       <path id="Menlo-Regular-69" d="M 988 3488 
L 2459 3488 
L 2459 447 
L 3600 447 
L 3600 0 
L 744 0 
L 744 447 
L 1884 447 
L 1884 3041 
L 988 3041 
L 988 3488 
z
M 1884 4847 
L 2459 4847 
L 2459 4122 
L 1884 4122 
L 1884 4847 
z
" transform="scale(0.015625)"/>
       <path id="Menlo-Regular-6d" d="M 2113 3144 
Q 2219 3369 2383 3476 
Q 2547 3584 2778 3584 
Q 3200 3584 3373 3257 
Q 3547 2931 3547 2028 
L 3547 0 
L 3022 0 
L 3022 2003 
Q 3022 2744 2939 2923 
Q 2856 3103 2638 3103 
Q 2388 3103 2295 2911 
Q 2203 2719 2203 2003 
L 2203 0 
L 1678 0 
L 1678 2003 
Q 1678 2753 1589 2928 
Q 1500 3103 1269 3103 
Q 1041 3103 952 2911 
Q 863 2719 863 2003 
L 863 0 
L 341 0 
L 341 3500 
L 863 3500 
L 863 3200 
Q 966 3388 1120 3486 
Q 1275 3584 1472 3584 
Q 1709 3584 1867 3475 
Q 2025 3366 2113 3144 
z
" transform="scale(0.015625)"/>
       <path id="Menlo-Regular-65" d="M 3500 2038 
L 3500 1756 
L 1009 1756 
L 1009 1738 
Q 984 1022 1282 709 
Q 1581 397 2125 397 
Q 2400 397 2700 484 
Q 3000 572 3341 750 
L 3341 178 
Q 3013 44 2708 -23 
Q 2403 -91 2119 -91 
Q 1303 -91 843 398 
Q 384 888 384 1747 
Q 384 2584 834 3084 
Q 1284 3584 2034 3584 
Q 2703 3584 3089 3131 
Q 3475 2678 3500 2038 
z
M 2925 2206 
Q 2888 2569 2661 2833 
Q 2434 3097 2009 3097 
Q 1594 3097 1325 2822 
Q 1056 2547 1031 2203 
L 2925 2206 
z
" transform="scale(0.015625)"/>
       <path id="Menlo-Regular-20" transform="scale(0.015625)"/>
       <path id="Menlo-Regular-28" d="M 2672 5169 
Q 2256 4456 2051 3748 
Q 1847 3041 1847 2322 
Q 1847 1606 2051 897 
Q 2256 188 2672 -531 
L 2172 -531 
Q 1700 213 1469 917 
Q 1238 1622 1238 2322 
Q 1238 3019 1469 3725 
Q 1700 4431 2172 5169 
L 2672 5169 
z
" transform="scale(0.015625)"/>
       <path id="Menlo-Regular-73" d="M 3041 3378 
L 3041 2816 
Q 2794 2959 2544 3031 
Q 2294 3103 2034 3103 
Q 1644 3103 1451 2976 
Q 1259 2850 1259 2591 
Q 1259 2356 1403 2240 
Q 1547 2125 2119 2016 
L 2350 1972 
Q 2778 1891 2998 1647 
Q 3219 1403 3219 1013 
Q 3219 494 2850 201 
Q 2481 -91 1825 -91 
Q 1566 -91 1281 -36 
Q 997 19 666 128 
L 666 722 
Q 988 556 1281 473 
Q 1575 391 1838 391 
Q 2219 391 2428 545 
Q 2638 700 2638 978 
Q 2638 1378 1872 1531 
L 1847 1538 
L 1631 1581 
Q 1134 1678 906 1908 
Q 678 2138 678 2534 
Q 678 3038 1018 3311 
Q 1359 3584 1991 3584 
Q 2272 3584 2531 3532 
Q 2791 3481 3041 3378 
z
" transform="scale(0.015625)"/>
       <path id="Menlo-Regular-29" d="M 1088 5169 
L 1588 5169 
Q 2059 4431 2290 3725 
Q 2522 3019 2522 2322 
Q 2522 1619 2290 912 
Q 2059 206 1588 -531 
L 1088 -531 
Q 1503 194 1708 903 
Q 1913 1613 1913 2322 
Q 1913 3034 1708 3743 
Q 1503 4453 1088 5169 
z
" transform="scale(0.015625)"/>
      </defs>
      <use xlink:href="#Menlo-Regular-74"/>
      <use xlink:href="#Menlo-Regular-69" transform="translate(60.205078 0)"/>
      <use xlink:href="#Menlo-Regular-6d" transform="translate(120.410156 0)"/>
      <use xlink:href="#Menlo-Regular-65" transform="translate(180.615234 0)"/>
      <use xlink:href="#Menlo-Regular-20" transform="translate(240.820312 0)"/>
      <use xlink:href="#Menlo-Regular-28" transform="translate(301.025391 0)"/>
      <use xlink:href="#Menlo-Regular-6d" transform="translate(361.230469 0)"/>
      <use xlink:href="#Menlo-Regular-73" transform="translate(421.435547 0)"/>
      <use xlink:href="#Menlo-Regular-29" transform="translate(481.640625 0)"/>
     </g>
    </g>
   </g>
   <g id="matplotlib.axis_2">
    <g id="ytick_1">
     <g id="line2d_10">
      <defs>
       <path id="m44be095ef5" d="M 0 0 
L 3 0 
" style="stroke: #1a1a1a; stroke-width: 0.8"/>
      </defs>
      <g>
       <use xlink:href="#m44be095ef5" x="33.984375" y="119.896705" style="fill: #1a1a1a; stroke: #1a1a1a; stroke-width: 0.8"/>
      </g>
     </g>
     <g id="text_11">
      <!-- 0.00 -->
      <g style="fill: #1a1a1a" transform="translate(13.6275 122.566001) scale(0.07 -0.07)">
       <defs>
        <path id="Menlo-Regular-2e" d="M 1216 1263 
L 2316 1263 
L 2316 0 
L 1216 0 
L 1216 1263 
z
" transform="scale(0.015625)"/>
       </defs>
       <use xlink:href="#Menlo-Regular-30"/>
       <use xlink:href="#Menlo-Regular-2e" transform="translate(60.205078 0)"/>
       <use xlink:href="#Menlo-Regular-30" transform="translate(120.410156 0)"/>
       <use xlink:href="#Menlo-Regular-30" transform="translate(180.615234 0)"/>
      </g>
     </g>
    </g>
    <g id="ytick_2">
     <g id="line2d_11">
      <g>
       <use xlink:href="#m44be095ef5" x="33.984375" y="99.638523" style="fill: #1a1a1a; stroke: #1a1a1a; stroke-width: 0.8"/>
      </g>
     </g>
     <g id="text_12">
      <!-- 0.02 -->
      <g style="fill: #1a1a1a" transform="translate(13.6275 102.30782) scale(0.07 -0.07)">
       <use xlink:href="#Menlo-Regular-30"/>
       <use xlink:href="#Menlo-Regular-2e" transform="translate(60.205078 0)"/>
       <use xlink:href="#Menlo-Regular-30" transform="translate(120.410156 0)"/>
       <use xlink:href="#Menlo-Regular-32" transform="translate(180.615234 0)"/>
      </g>
     </g>
    </g>
    <g id="ytick_3">
     <g id="line2d_12">
      <g>
       <use xlink:href="#m44be095ef5" x="33.984375" y="79.380341" style="fill: #1a1a1a; stroke: #1a1a1a; stroke-width: 0.8"/>
      </g>
     </g>
     <g id="text_13">
      <!-- 0.04 -->
      <g style="fill: #1a1a1a" transform="translate(13.6275 82.049638) scale(0.07 -0.07)">
       <use xlink:href="#Menlo-Regular-30"/>
       <use xlink:href="#Menlo-Regular-2e" transform="translate(60.205078 0)"/>
       <use xlink:href="#Menlo-Regular-30" transform="translate(120.410156 0)"/>
       <use xlink:href="#Menlo-Regular-34" transform="translate(180.615234 0)"/>
      </g>
     </g>
    </g>
    <g id="ytick_4">
     <g id="line2d_13">
      <g>
       <use xlink:href="#m44be095ef5" x="33.984375" y="59.122159" style="fill: #1a1a1a; stroke: #1a1a1a; stroke-width: 0.8"/>
      </g>
     </g>
     <g id="text_14">
      <!-- 0.06 -->
      <g style="fill: #1a1a1a" transform="translate(13.6275 61.791456) scale(0.07 -0.07)">
       <defs>
        <path id="Menlo-Regular-36" d="M 3097 4563 
L 3097 3981 
Q 2900 4097 2678 4158 
Q 2456 4219 2216 4219 
Q 1616 4219 1306 3767 
Q 997 3316 997 2438 
Q 1147 2750 1412 2917 
Q 1678 3084 2022 3084 
Q 2697 3084 3067 2670 
Q 3438 2256 3438 1497 
Q 3438 741 3056 325 
Q 2675 -91 1984 -91 
Q 1172 -91 794 492 
Q 416 1075 416 2328 
Q 416 3509 870 4129 
Q 1325 4750 2188 4750 
Q 2419 4750 2650 4701 
Q 2881 4653 3097 4563 
z
M 1972 2591 
Q 1569 2591 1337 2300 
Q 1106 2009 1106 1497 
Q 1106 984 1337 693 
Q 1569 403 1972 403 
Q 2391 403 2603 679 
Q 2816 956 2816 1497 
Q 2816 2041 2603 2316 
Q 2391 2591 1972 2591 
z
" transform="scale(0.015625)"/>
       </defs>
       <use xlink:href="#Menlo-Regular-30"/>
       <use xlink:href="#Menlo-Regular-2e" transform="translate(60.205078 0)"/>
       <use xlink:href="#Menlo-Regular-30" transform="translate(120.410156 0)"/>
       <use xlink:href="#Menlo-Regular-36" transform="translate(180.615234 0)"/>
      </g>
     </g>
    </g>
    <g id="ytick_5">
     <g id="line2d_14">
      <g>
       <use xlink:href="#m44be095ef5" x="33.984375" y="38.863977" style="fill: #1a1a1a; stroke: #1a1a1a; stroke-width: 0.8"/>
      </g>
     </g>
     <g id="text_15">
      <!-- 0.08 -->
      <g style="fill: #1a1a1a" transform="translate(13.6275 41.533274) scale(0.07 -0.07)">
       <defs>
        <path id="Menlo-Regular-38" d="M 1925 2216 
Q 1503 2216 1273 1980 
Q 1044 1744 1044 1313 
Q 1044 881 1276 642 
Q 1509 403 1925 403 
Q 2350 403 2579 639 
Q 2809 875 2809 1313 
Q 2809 1741 2576 1978 
Q 2344 2216 1925 2216 
z
M 1375 2478 
Q 972 2581 745 2862 
Q 519 3144 519 3541 
Q 519 4097 897 4423 
Q 1275 4750 1925 4750 
Q 2578 4750 2956 4423 
Q 3334 4097 3334 3541 
Q 3334 3144 3107 2862 
Q 2881 2581 2478 2478 
Q 2947 2375 3195 2062 
Q 3444 1750 3444 1253 
Q 3444 622 3041 265 
Q 2638 -91 1925 -91 
Q 1213 -91 811 264 
Q 409 619 409 1247 
Q 409 1747 657 2061 
Q 906 2375 1375 2478 
z
M 1147 3481 
Q 1147 3106 1347 2909 
Q 1547 2713 1925 2713 
Q 2306 2713 2506 2909 
Q 2706 3106 2706 3481 
Q 2706 3863 2507 4063 
Q 2309 4263 1925 4263 
Q 1547 4263 1347 4061 
Q 1147 3859 1147 3481 
z
" transform="scale(0.015625)"/>
       </defs>
       <use xlink:href="#Menlo-Regular-30"/>
       <use xlink:href="#Menlo-Regular-2e" transform="translate(60.205078 0)"/>
       <use xlink:href="#Menlo-Regular-30" transform="translate(120.410156 0)"/>
       <use xlink:href="#Menlo-Regular-38" transform="translate(180.615234 0)"/>
      </g>
     </g>
    </g>
    <g id="ytick_6">
     <g id="line2d_15">
      <g>
       <use xlink:href="#m44be095ef5" x="33.984375" y="18.605795" style="fill: #1a1a1a; stroke: #1a1a1a; stroke-width: 0.8"/>
      </g>
     </g>
     <g id="text_16">
      <!-- 0.10 -->
      <g style="fill: #1a1a1a" transform="translate(13.6275 21.275092) scale(0.07 -0.07)">
       <use xlink:href="#Menlo-Regular-30"/>
       <use xlink:href="#Menlo-Regular-2e" transform="translate(60.205078 0)"/>
       <use xlink:href="#Menlo-Regular-31" transform="translate(120.410156 0)"/>
       <use xlink:href="#Menlo-Regular-30" transform="translate(180.615234 0)"/>
      </g>
     </g>
    </g>
    <g id="text_17">
     <!-- g  [µS] -->
     <g style="fill: #1a1a1a" transform="translate(7.90875 86.108125) rotate(-90) scale(0.08 -0.08)">
      <defs>
       <path id="Menlo-Regular-67" d="M 2681 1778 
Q 2681 2425 2470 2761 
Q 2259 3097 1856 3097 
Q 1434 3097 1212 2761 
Q 991 2425 991 1778 
Q 991 1131 1214 792 
Q 1438 453 1863 453 
Q 2259 453 2470 793 
Q 2681 1134 2681 1778 
z
M 3256 225 
Q 3256 -563 2884 -969 
Q 2513 -1375 1791 -1375 
Q 1553 -1375 1293 -1331 
Q 1034 -1288 775 -1203 
L 775 -634 
Q 1081 -778 1331 -847 
Q 1581 -916 1791 -916 
Q 2256 -916 2468 -662 
Q 2681 -409 2681 141 
L 2681 166 
L 2681 556 
Q 2544 263 2306 119 
Q 2069 -25 1728 -25 
Q 1116 -25 750 465 
Q 384 956 384 1778 
Q 384 2603 750 3093 
Q 1116 3584 1728 3584 
Q 2066 3584 2300 3450 
Q 2534 3316 2681 3034 
L 2681 3488 
L 3256 3488 
L 3256 225 
z
" transform="scale(0.015625)"/>
       <path id="Menlo-Regular-5b" d="M 1759 5175 
L 3084 5175 
L 3084 4728 
L 2334 4728 
L 2334 -84 
L 3084 -84 
L 3084 -531 
L 1759 -531 
L 1759 5175 
z
" transform="scale(0.015625)"/>
       <path id="Menlo-Regular-b5" d="M 609 -1338 
L 609 3500 
L 1184 3500 
L 1184 1325 
Q 1184 881 1371 645 
Q 1559 409 1906 409 
Q 2303 409 2504 675 
Q 2706 941 2706 1459 
L 2706 3500 
L 3284 3500 
L 3284 800 
Q 3284 616 3334 528 
Q 3384 441 3488 441 
Q 3516 441 3561 456 
Q 3606 472 3694 513 
L 3694 50 
Q 3575 -22 3469 -56 
Q 3363 -91 3256 -91 
Q 3063 -91 2945 32 
Q 2828 156 2791 403 
Q 2647 153 2439 31 
Q 2231 -91 1953 -91 
Q 1666 -91 1467 28 
Q 1269 147 1131 397 
L 1131 -1338 
L 609 -1338 
z
" transform="scale(0.015625)"/>
       <path id="Menlo-Regular-53" d="M 3163 4506 
L 3163 3866 
Q 2875 4050 2586 4144 
Q 2297 4238 2003 4238 
Q 1556 4238 1297 4030 
Q 1038 3822 1038 3469 
Q 1038 3159 1208 2996 
Q 1378 2834 1844 2725 
L 2175 2650 
Q 2831 2497 3131 2169 
Q 3431 1841 3431 1275 
Q 3431 609 3018 259 
Q 2606 -91 1819 -91 
Q 1491 -91 1159 -20 
Q 828 50 494 191 
L 494 863 
Q 853 634 1173 528 
Q 1494 422 1819 422 
Q 2297 422 2562 636 
Q 2828 850 2828 1234 
Q 2828 1584 2645 1768 
Q 2463 1953 2009 2053 
L 1672 2131 
Q 1022 2278 728 2575 
Q 434 2872 434 3372 
Q 434 3997 854 4373 
Q 1275 4750 1972 4750 
Q 2241 4750 2537 4689 
Q 2834 4628 3163 4506 
z
" transform="scale(0.015625)"/>
       <path id="Menlo-Regular-5d" d="M 2250 5175 
L 2250 -531 
L 925 -531 
L 925 -84 
L 1675 -84 
L 1675 4728 
L 925 4728 
L 925 5175 
L 2250 5175 
z
" transform="scale(0.015625)"/>
      </defs>
      <use xlink:href="#Menlo-Regular-67"/>
      <use xlink:href="#Menlo-Regular-20" transform="translate(60.205078 0)"/>
      <use xlink:href="#Menlo-Regular-20" transform="translate(120.410156 0)"/>
      <use xlink:href="#Menlo-Regular-5b" transform="translate(180.615234 0)"/>
      <use xlink:href="#Menlo-Regular-b5" transform="translate(240.820312 0)"/>
      <use xlink:href="#Menlo-Regular-53" transform="translate(301.025391 0)"/>
      <use xlink:href="#Menlo-Regular-5d" transform="translate(361.230469 0)"/>
     </g>
    </g>
   </g>
   <g id="line2d_16">
    <path d="M 33.984375 119.896705 
L 38.109386 119.896705 
L 38.167485 117.869024 
L 38.225584 117.967915 
L 38.39988 118.23658 
L 38.457979 116.585192 
L 38.516078 116.746696 
L 39.097065 117.986128 
L 39.32946 118.332456 
L 39.387559 116.267429 
L 39.445658 116.444431 
L 39.503756 116.6128 
L 40.200941 97.806809 
L 40.25904 98.884145 
L 40.317139 97.9821 
L 40.491435 96.234662 
L 40.665731 86.5926 
L 41.014324 93.613701 
L 41.072423 89.313483 
L 41.130521 90.805043 
L 41.18862 90.666323 
L 41.246719 90.238144 
L 41.885805 68.915584 
L 42.060101 70.738787 
L 42.1182 67.964874 
L 42.176299 70.497616 
L 42.234398 68.969751 
L 42.292496 69.441926 
L 42.408694 59.714087 
L 42.466793 60.76126 
L 42.58299 64.669433 
L 43.105879 84.682232 
L 43.628768 97.442959 
L 44.151656 105.579562 
L 44.674545 110.767689 
L 45.197434 114.075786 
L 45.778421 116.366137 
L 46.359409 117.755306 
L 46.940396 118.597881 
L 47.579483 119.147348 
L 48.334766 119.505506 
L 49.380544 119.737655 
L 51.123506 119.861216 
L 56.003802 119.896172 
L 65.648194 119.896704 
L 65.706293 117.744973 
L 65.764392 117.849914 
L 66.345379 118.655263 
L 66.403478 116.962275 
L 66.461577 117.105389 
L 66.810169 117.828847 
L 66.984465 114.463287 
L 67.274959 115.665154 
L 67.449255 111.371885 
L 67.623552 107.335086 
L 67.68165 107.947723 
L 68.204539 112.277695 
L 68.320737 107.620137 
L 68.436934 108.788406 
L 68.553132 109.845499 
L 68.727428 102.29716 
L 68.785527 103.155501 
L 68.843625 100.031941 
L 68.901724 101.000757 
L 68.959823 101.922322 
L 69.134119 97.265046 
L 69.308416 94.626712 
L 69.366514 95.859143 
L 69.598909 100.216413 
L 69.715107 98.891835 
L 69.831304 94.806227 
L 69.947502 97.193901 
L 70.005601 96.285324 
L 70.063699 95.622337 
L 70.296094 98.295432 
L 70.354193 90.292962 
L 70.412292 91.736753 
L 70.470391 93.11013 
L 70.528489 90.430728 
L 70.586588 91.867799 
L 70.644687 91.580162 
L 70.760884 94.274837 
L 70.818983 93.434737 
L 70.877082 92.654615 
L 70.935181 93.983226 
L 70.993279 93.006581 
L 71.051378 92.457607 
L 71.109477 93.795827 
L 71.167576 93.17873 
L 71.283773 87.036519 
L 71.399971 90.163578 
L 71.458069 87.834367 
L 71.516168 89.398065 
L 71.574267 88.807829 
L 71.632366 86.688572 
L 71.690464 88.30815 
L 71.748563 87.981374 
L 71.864761 83.91976 
L 71.922859 85.674374 
L 71.980958 85.316948 
L 72.155254 82.827061 
L 72.213353 82.456718 
L 72.445748 78.684949 
L 72.503847 78.843839 
L 72.620044 80.909761 
L 72.678143 80.978508 
L 72.736242 82.876571 
L 72.794341 79.221049 
L 72.852439 79.570143 
L 72.968637 83.407724 
L 73.026736 83.257762 
L 73.084834 77.735469 
L 73.142933 79.791697 
L 73.201032 80.006165 
L 73.259131 81.951648 
L 73.375328 76.430188 
L 73.433427 78.550074 
L 73.956316 93.53292 
L 74.479204 103.086408 
L 75.002093 109.177983 
L 75.524982 113.062144 
L 76.105969 115.751333 
L 76.686957 117.382408 
L 77.267944 118.371706 
L 77.907031 119.016857 
L 78.662314 119.437384 
L 79.649993 119.700384 
L 81.160561 119.843201 
L 84.762683 119.894294 
L 86.563745 119.896193 
L 86.621843 118.326071 
L 86.679942 118.402671 
L 87.319028 119.034722 
L 87.493325 119.154789 
L 87.551423 117.329638 
L 87.609522 117.454835 
L 88.19051 118.415636 
L 88.829596 119.042202 
L 89.58488 119.450615 
L 89.933472 119.566233 
L 89.991571 117.843619 
L 90.04967 117.943749 
L 90.223966 118.21578 
L 90.282065 114.384118 
L 90.340163 114.65297 
L 90.398262 114.90871 
L 90.51446 110.098917 
L 90.572558 110.576761 
L 90.804953 112.266178 
L 90.863052 110.752234 
L 90.921151 111.198215 
L 90.97925 111.622444 
L 91.095447 108.82296 
L 91.153546 109.363033 
L 91.211645 109.876765 
L 91.269743 108.844626 
L 91.327842 109.383642 
L 91.734533 112.488273 
L 91.792632 111.005784 
L 91.850731 111.439399 
L 92.025027 112.617433 
L 92.083126 111.558333 
L 92.141225 111.964999 
L 92.431718 113.719486 
L 92.606015 110.794871 
L 92.722212 111.661024 
L 92.780311 109.985608 
L 92.83841 110.468978 
L 93.187002 112.912471 
L 93.3032 109.87796 
L 93.361298 110.36658 
L 93.477496 111.27349 
L 93.535595 109.314853 
L 93.593693 109.830935 
L 93.709891 110.788819 
L 93.942286 101.73586 
L 94.000385 102.621575 
L 94.058483 101.417842 
L 94.116582 102.319067 
L 94.23278 103.991799 
L 94.290878 102.943054 
L 94.348977 103.769892 
L 94.407076 104.556405 
L 94.639471 97.9363 
L 94.69757 99.007322 
L 94.755668 100.026108 
L 94.813767 99.31096 
L 94.871866 98.810794 
L 94.929965 99.839165 
L 94.988063 98.993492 
L 95.16236 92.968554 
L 95.394755 96.224359 
L 95.452853 95.284638 
L 95.510952 96.484983 
L 95.569051 96.213443 
L 95.801446 93.515725 
L 96.033841 87.722078 
L 96.09194 87.469764 
L 96.150038 89.051244 
L 96.324335 82.322341 
L 96.382433 84.154864 
L 96.440532 84.084034 
L 96.672927 74.900709 
L 96.789125 79.182643 
L 96.847223 77.743208 
L 96.905322 75.926216 
L 96.963421 76.433505 
L 97.079618 76.764314 
L 97.195816 80.868903 
L 97.253915 80.706417 
L 97.312013 80.750377 
L 97.370112 82.659564 
L 97.428211 82.408389 
L 97.48631 82.54374 
L 97.544408 84.365464 
L 97.718705 80.709058 
L 97.834902 82.711754 
L 97.893001 80.636651 
L 97.9511 82.551385 
L 98.009198 80.86259 
L 98.067297 79.37004 
L 98.125396 79.618099 
L 98.241593 79.76563 
L 98.764482 94.307995 
L 99.287371 103.580619 
L 99.81026 109.493106 
L 100.333148 113.263076 
L 100.914136 115.873205 
L 101.495123 117.456328 
L 102.076111 118.416541 
L 102.715197 119.042724 
L 103.470481 119.450887 
L 104.45816 119.706156 
L 106.026826 119.847307 
L 109.803245 119.894789 
L 110.558529 119.895705 
L 110.616627 117.658573 
L 110.674726 117.767728 
L 110.96522 118.238656 
L 111.023319 114.688335 
L 111.081417 114.94235 
L 111.546207 116.575701 
L 111.604306 114.958784 
L 111.662405 115.19961 
L 111.836701 115.853877 
L 111.8948 114.484249 
L 111.952899 114.748217 
L 112.069096 115.23816 
L 112.127195 113.472553 
L 112.185294 113.785862 
L 112.35959 114.637053 
L 112.417689 113.46717 
L 112.475787 113.780742 
L 112.708182 114.889377 
L 112.766281 113.391802 
L 112.82438 113.709049 
L 113.405367 116.143701 
L 113.695861 107.120506 
L 113.75396 107.743608 
L 113.812059 108.336322 
L 113.986355 106.839361 
L 114.102552 100.597596 
L 114.276849 101.624393 
L 114.393046 103.363231 
L 114.451145 100.460965 
L 114.509244 101.408857 
L 114.567342 102.31052 
L 114.625441 101.343799 
L 114.974034 106.152372 
L 115.032132 103.195744 
L 115.090231 104.010258 
L 115.14833 104.785049 
L 115.264527 103.047523 
L 115.438824 103.963694 
L 115.496922 104.740756 
L 115.61312 102.589993 
L 115.671219 103.434051 
L 115.787416 105.000679 
L 116.019811 102.257853 
L 116.194107 93.973075 
L 116.252206 95.237384 
L 116.310305 90.566441 
L 116.368404 91.996894 
L 116.484601 94.65191 
L 116.5427 94.033729 
L 116.658897 84.034384 
L 116.716996 85.78341 
L 116.775095 85.400883 
L 116.833194 83.188792 
L 116.891292 84.979057 
L 117.00749 84.841521 
L 117.065589 86.551183 
L 117.297984 80.662706 
L 117.356082 80.718533 
L 117.47228 82.890608 
L 117.704675 74.150878 
L 117.820872 76.518006 
L 117.878971 73.149223 
L 117.93707 73.48179 
L 117.995169 73.751236 
L 118.111366 76.551986 
L 118.285662 70.39941 
L 118.343761 72.813418 
L 118.459959 73.678904 
L 118.518057 72.468169 
L 119.040946 89.654925 
L 119.563835 100.613693 
L 120.086724 107.601311 
L 120.609612 112.056813 
L 121.1906 115.141569 
L 121.771588 117.012568 
L 122.352575 118.147387 
L 122.933563 118.83569 
L 123.630748 119.314407 
L 124.502229 119.621647 
L 125.780401 119.805146 
L 128.278648 119.886039 
L 132.229363 119.896349 
L 132.287461 118.055534 
L 132.34556 118.145329 
L 132.81035 118.722722 
L 132.868449 117.0893 
L 132.926548 117.226219 
L 133.391338 118.106624 
L 133.565634 113.37428 
L 134.146621 115.940653 
L 134.20472 111.878512 
L 134.262819 112.269563 
L 134.495214 113.652129 
L 134.553313 112.290597 
L 134.611411 112.661551 
L 134.66951 113.014413 
L 134.727609 111.216325 
L 134.785708 111.639672 
L 134.843806 112.042372 
L 134.901905 110.523712 
L 134.960004 110.980838 
L 135.018103 111.41567 
L 135.076201 107.575592 
L 135.1343 108.176499 
L 135.192399 108.7481 
L 135.366695 106.961622 
L 135.59909 109.306353 
L 135.715288 106.911221 
L 135.773386 107.544531 
L 135.831485 108.146953 
L 135.947683 103.979907 
L 136.005781 104.756178 
L 136.238176 107.500689 
L 136.354374 104.817796 
L 136.412473 105.553203 
L 136.470571 106.252743 
L 136.586769 102.194802 
L 136.644868 103.058132 
L 136.702966 102.137884 
L 136.877263 104.611545 
L 136.935361 101.851169 
L 136.99346 102.731259 
L 137.051559 103.568427 
L 137.109658 102.523399 
L 137.167756 103.370704 
L 137.400151 106.366358 
L 137.574448 101.267597 
L 137.748744 96.814046 
L 137.806843 97.9398 
L 137.864941 97.129963 
L 137.92304 96.23577 
L 137.981139 97.389726 
L 138.097336 94.603777 
L 138.155435 95.837327 
L 138.504028 86.551036 
L 138.678324 82.131744 
L 138.736423 83.973561 
L 138.85262 74.893298 
L 138.910719 77.088138 
L 138.968818 77.108684 
L 139.026917 73.69722 
L 139.085015 74.204411 
L 139.143114 74.80219 
L 139.433608 83.126248 
L 139.491707 81.414677 
L 139.607904 85.076724 
L 139.724102 81.320354 
L 139.898398 83.547199 
L 139.956497 79.968563 
L 140.014595 81.91588 
L 140.072694 83.768225 
L 140.130793 81.41462 
L 140.188892 83.291413 
L 140.595583 92.636959 
L 140.653682 92.116197 
L 141.17657 102.183066 
L 141.467064 106.101308 
L 141.525163 105.266952 
L 141.583262 105.980453 
L 141.699459 107.304759 
L 141.757558 106.299685 
L 141.815657 106.962819 
L 142.164249 110.315045 
L 142.280447 107.835975 
L 142.338545 108.424184 
L 142.861434 112.581501 
L 143.442422 115.459808 
L 144.023409 117.20559 
L 144.081508 117.336837 
L 144.197705 114.08914 
L 144.255804 114.372378 
L 144.313903 114.641803 
L 144.372002 113.041355 
L 144.4301 113.375694 
L 144.488199 113.693727 
L 144.546298 108.658888 
L 144.604397 109.206962 
L 144.662495 109.728307 
L 144.778693 105.293003 
L 144.89489 106.682727 
L 144.952989 107.32718 
L 145.127285 105.389674 
L 145.185384 106.097189 
L 145.243483 104.719046 
L 145.301582 105.459269 
L 145.35968 106.16339 
L 145.533977 104.518797 
L 145.650174 105.982197 
L 145.708273 105.212709 
L 145.82447 106.610075 
L 145.882569 105.106117 
L 145.940668 105.827462 
L 145.998767 105.123232 
L 146.521655 110.476719 
L 146.637853 106.221991 
L 146.695952 106.888914 
L 146.870248 103.390758 
L 146.928347 104.195762 
L 146.986445 104.961505 
L 147.044544 103.941118 
L 147.102643 99.672916 
L 147.160742 100.659241 
L 147.21884 101.597462 
L 147.276939 98.573798 
L 147.335038 99.613728 
L 147.509334 100.813705 
L 147.567433 99.906828 
L 147.741729 102.691256 
L 147.916025 100.067562 
L 147.974124 101.03464 
L 148.14842 98.511507 
L 148.264618 100.546576 
L 148.322717 99.43291 
L 148.380815 100.430941 
L 148.438914 99.506783 
L 148.497013 96.022598 
L 148.555112 97.186952 
L 148.61321 96.209458 
L 148.787507 97.935693 
L 148.903704 94.480284 
L 148.961803 95.719856 
L 149.019902 93.323464 
L 149.078 94.619456 
L 149.194198 93.058399 
L 149.252297 94.367318 
L 149.310395 93.963733 
L 149.368494 93.41521 
L 149.426593 91.008361 
L 149.484692 92.417262 
L 149.600889 91.579343 
L 149.891383 97.843117 
L 149.949482 93.252926 
L 150.00758 94.552357 
L 150.356173 101.121147 
L 150.47237 97.942472 
L 150.530469 99.013191 
L 150.646667 95.606581 
L 150.762864 97.918092 
L 150.820963 97.088529 
L 150.995259 93.267802 
L 151.111457 94.093267 
L 151.169555 95.351714 
L 151.227654 94.263386 
L 151.40195 87.705204 
L 151.576247 92.189221 
L 151.750543 85.155599 
L 151.808642 86.849941 
L 151.86674 86.276862 
L 151.924839 85.98935 
L 151.982938 87.64303 
L 152.041037 86.984484 
L 152.099135 86.638122 
L 152.157234 84.407971 
L 152.215333 84.552428 
L 152.273432 86.276187 
L 152.505827 77.090394 
L 152.563925 77.763965 
L 152.680123 78.331602 
L 153.203012 93.393622 
L 153.7259 102.997586 
L 154.248789 109.12135 
L 154.771678 113.026032 
L 155.352665 115.72943 
L 155.933653 117.369124 
L 156.514641 118.363649 
L 157.153727 119.012208 
L 157.909011 119.434957 
L 158.896689 119.699347 
L 160.407257 119.842918 
L 163.951281 119.894157 
L 164.416071 119.894997 
L 164.474169 118.374569 
L 164.532268 118.448805 
L 165.113256 119.018509 
L 165.171354 117.438717 
L 165.229453 117.558594 
L 165.810441 118.478569 
L 165.926638 118.613522 
L 166.042836 113.944916 
L 166.100934 114.235188 
L 166.391428 115.48751 
L 166.507626 112.418323 
L 166.565724 112.783047 
L 166.681922 113.460001 
L 166.740021 111.823125 
L 166.798119 112.216878 
L 166.972416 113.286616 
L 167.146712 108.615248 
L 167.204811 109.165451 
L 167.262909 109.68882 
L 167.495304 104.269331 
L 167.553403 105.031487 
L 167.611502 105.756472 
L 167.669601 102.738714 
L 167.727699 103.575517 
L 167.960094 106.534046 
L 168.134391 101.215462 
L 168.192489 102.126556 
L 168.424884 105.347736 
L 168.482983 102.451093 
L 168.541082 103.301925 
L 168.715378 100.412044 
L 168.831576 96.301791 
L 169.063971 100.578821 
L 169.122069 99.578994 
L 169.238267 101.51248 
L 169.296366 100.708573 
L 169.412563 97.128108 
L 169.470662 98.238544 
L 169.586859 100.299589 
L 169.644958 99.134605 
L 169.703057 100.147184 
L 169.761156 99.263098 
L 169.935452 102.137192 
L 169.993551 101.010264 
L 170.051649 101.931367 
L 170.109748 102.807546 
L 170.400242 96.802724 
L 170.458341 97.929031 
L 170.516439 96.890106 
L 170.574538 98.012151 
L 170.632637 97.223043 
L 170.690736 96.291263 
L 170.806933 98.537617 
L 170.923131 94.853175 
L 171.039328 97.23638 
L 171.097427 96.618434 
L 171.155526 95.777159 
L 171.329822 85.385779 
L 171.446019 85.202083 
L 171.504118 82.960159 
L 171.562217 84.761575 
L 171.620316 84.710132 
L 171.678414 82.671043 
L 171.794612 73.800429 
L 172.027007 80.472019 
L 172.085106 80.500383 
L 172.143204 78.687402 
L 172.201303 79.03587 
L 172.317501 79.162693 
L 172.549896 86.546512 
L 172.607994 84.35748 
L 172.666093 86.090748 
L 172.724192 85.759917 
L 172.840389 83.77593 
L 172.956587 83.938695 
L 173.014686 81.959587 
L 173.421377 91.646053 
L 173.944266 101.883288 
L 174.467155 108.410839 
L 174.990043 112.572992 
L 175.571031 115.454647 
L 176.152018 117.20246 
L 176.733006 118.262562 
L 177.372092 118.953886 
L 178.069277 119.379274 
L 178.998857 119.664208 
L 179.056956 119.675547 
L 179.115055 117.738722 
L 179.173153 117.843968 
L 179.754141 118.651657 
L 179.870338 118.770139 
L 179.928437 117.154942 
L 179.986536 117.288659 
L 180.567523 118.314844 
L 180.974215 118.781986 
L 181.032313 116.799208 
L 181.090412 116.950275 
L 181.264708 117.360689 
L 181.322807 115.735427 
L 181.380906 115.938375 
L 181.961893 117.495855 
L 182.019992 117.612946 
L 182.194288 114.537842 
L 182.542881 115.926761 
L 182.717177 113.231181 
L 183.123868 115.199588 
L 183.298165 109.063467 
L 183.588658 111.45977 
L 183.879152 103.096019 
L 183.937251 103.915397 
L 183.99535 104.694814 
L 184.053448 102.08473 
L 184.111547 102.95343 
L 184.169646 103.779763 
L 184.227745 102.485895 
L 184.285843 97.751541 
L 184.343942 98.831573 
L 184.46014 97.279747 
L 184.692535 99.664603 
L 184.750633 98.473088 
L 184.808732 99.51793 
L 184.983028 100.760187 
L 185.041127 99.753728 
L 185.099226 96.654421 
L 185.157325 97.787959 
L 185.331621 95.601593 
L 185.622115 100.975649 
L 185.680213 100.006467 
L 185.738312 100.976524 
L 185.796411 98.179697 
L 185.85451 99.238847 
L 185.912608 98.45527 
L 186.145003 100.688712 
L 186.493596 93.390024 
L 186.609793 93.993044 
L 186.667892 93.5174 
L 186.842188 97.191824 
L 186.900287 96.331284 
L 186.958386 95.986053 
L 187.132682 97.807634 
L 187.190781 96.989067 
L 187.24888 98.106285 
L 187.306978 97.346655 
L 187.365077 95.019638 
L 187.423176 96.232906 
L 187.481275 95.375567 
L 187.771768 100.799621 
L 187.887966 98.787705 
L 188.004163 100.796491 
L 188.120361 98.755073 
L 188.17846 99.786162 
L 188.585151 84.363725 
L 188.759447 87.81833 
L 188.817546 87.570038 
L 188.933743 81.587283 
L 188.991842 81.886817 
L 189.224237 86.777658 
L 189.282336 86.295888 
L 189.340435 84.351069 
L 189.398533 84.38298 
L 189.456632 86.115003 
L 189.514731 85.906124 
L 189.747126 78.068051 
L 189.863323 80.198335 
L 189.921422 78.737897 
L 189.979521 80.745234 
L 190.03762 78.953237 
L 190.095718 78.850627 
L 190.153817 77.145233 
L 190.676706 92.637155 
L 191.199595 102.515245 
L 191.722484 108.813793 
L 192.245372 112.829926 
L 192.82636 115.610485 
L 193.407347 117.296981 
L 193.988335 118.319892 
L 194.627421 118.986963 
L 195.324606 119.397427 
L 196.254186 119.672365 
L 197.648556 119.829135 
L 199.159124 119.87829 
L 199.217222 117.849657 
L 199.275321 117.949492 
L 199.507716 118.302462 
L 199.565815 116.525017 
L 199.623914 116.689455 
L 200.204901 117.951409 
L 200.495395 118.381707 
L 200.611592 114.822389 
L 200.669691 115.069867 
L 200.960185 116.137559 
L 201.018284 114.66032 
L 201.076382 114.915702 
L 201.134481 115.158628 
L 201.19258 113.886933 
L 201.250679 114.180032 
L 201.308777 114.458837 
L 201.541172 110.162541 
L 201.773567 111.927043 
L 201.831666 110.459023 
L 201.889765 110.919303 
L 201.947864 111.357136 
L 202.180259 105.748069 
L 202.238357 106.438107 
L 202.354555 107.718861 
L 202.412654 106.462809 
L 202.470752 107.117988 
L 202.761246 109.944628 
L 202.935542 108.139348 
L 203.109839 109.777053 
L 203.342234 106.122385 
L 203.458431 107.433185 
L 203.574629 102.030961 
L 203.865122 105.982847 
L 203.923221 104.817594 
L 203.98132 105.553011 
L 204.039419 106.252561 
L 204.097517 103.259191 
L 204.155616 104.070611 
L 204.213715 103.150886 
L 204.271814 103.967589 
L 204.44611 106.186387 
L 204.504209 105.116129 
L 204.562307 105.836986 
L 204.620406 106.522687 
L 204.678505 103.834273 
L 204.736604 104.617647 
L 204.852801 106.071641 
L 205.143295 102.074989 
L 205.201394 102.944165 
L 205.37569 98.126228 
L 205.608085 100.41154 
L 205.724282 98.68033 
L 205.782381 99.715064 
L 205.898579 96.112646 
L 206.130974 90.626055 
L 206.363369 94.20098 
L 206.537665 89.996851 
L 206.653862 87.515773 
L 206.886257 91.338433 
L 207.002455 80.506583 
L 207.060554 80.790484 
L 207.118652 78.498141 
L 207.176751 78.656555 
L 207.351047 84.400979 
L 207.409146 83.957211 
L 207.467245 84.017023 
L 207.583442 87.431422 
L 207.69964 83.3834 
L 207.757739 85.164176 
L 207.873936 88.46941 
L 208.048232 85.136607 
L 208.16443 85.094213 
L 208.222529 86.791551 
L 208.396825 80.552508 
L 208.454924 80.614916 
L 208.513022 82.530711 
L 208.687319 75.636598 
L 208.745418 73.91946 
L 208.803516 76.161795 
L 208.861615 76.054311 
L 208.919714 74.568776 
L 208.977813 74.753891 
L 209.035911 75.118214 
L 209.5588 91.344669 
L 210.081689 101.691116 
L 210.604578 108.288307 
L 211.127466 112.494862 
L 211.708454 115.407259 
L 212.289441 117.173717 
L 212.870429 118.245128 
L 213.509515 118.943828 
L 214.2067 119.373755 
L 215.13628 119.661728 
L 216.123959 119.796272 
L 216.182058 118.033258 
L 216.240156 118.124139 
L 216.821144 118.821589 
L 217.518329 119.306669 
L 218.38981 119.617991 
L 218.912699 119.718989 
L 218.970798 117.854142 
L 219.028896 117.953759 
L 219.31939 118.383537 
L 219.377489 116.654813 
L 219.435588 116.812922 
L 219.900378 117.829583 
L 219.958476 115.810087 
L 220.016575 116.009394 
L 220.132773 116.37932 
L 220.24897 113.27946 
L 220.307069 113.602187 
L 220.423266 114.20119 
L 220.481365 112.792255 
L 220.539464 113.138743 
L 220.771859 114.363753 
L 220.829958 112.857945 
L 220.888056 113.201229 
L 221.004254 113.838388 
L 221.062353 111.9828 
L 221.120451 112.368766 
L 221.236649 113.085144 
L 221.294748 111.431327 
L 221.352846 111.844188 
L 221.817636 114.49894 
L 221.991933 111.663141 
L 222.282426 113.484398 
L 222.340525 111.845352 
L 222.398624 112.238021 
L 222.689118 113.932115 
L 222.747216 112.247907 
L 222.805315 112.620943 
L 222.863414 112.975786 
L 222.921513 111.425358 
L 222.979611 111.83851 
L 223.153908 112.960952 
L 223.270105 109.887885 
L 223.328204 110.376021 
L 223.851093 113.826047 
L 224.025389 114.671641 
L 224.083488 113.186194 
L 224.141586 113.513469 
L 224.199685 113.824783 
L 224.373981 109.202184 
L 224.43208 109.723762 
L 224.606376 111.140771 
L 224.664475 109.744842 
L 224.722574 110.239953 
L 224.838771 111.158914 
L 224.89687 109.657891 
L 225.071166 100.464703 
L 225.129265 101.412412 
L 225.535956 93.711443 
L 225.594055 94.988513 
L 225.652154 94.476801 
L 225.884549 86.099819 
L 226.116944 92.226149 
L 226.175043 91.528329 
L 226.29124 90.541675 
L 226.523635 94.134084 
L 226.581734 93.524021 
L 226.639833 94.81023 
L 226.697932 94.453785 
L 226.75603 90.06164 
L 226.814129 91.516712 
L 226.930327 94.217425 
L 226.988425 91.280961 
L 227.046524 92.676567 
L 227.22082 96.468112 
L 227.278919 95.485143 
L 227.337018 89.531403 
L 227.395117 91.012336 
L 227.627512 89.546878 
L 227.68561 89.116109 
L 227.743709 86.967712 
L 227.801808 78.744225 
L 227.859907 80.751252 
L 227.918005 80.489357 
L 228.034203 84.23946 
L 228.208499 73.098886 
L 228.266598 73.933135 
L 228.324697 72.169631 
L 228.382795 72.679909 
L 228.440894 72.942147 
L 228.963783 89.957152 
L 229.486672 100.806396 
L 230.00956 107.724182 
L 230.532449 112.135159 
L 231.113437 115.189088 
L 231.694424 117.04139 
L 232.275412 118.164868 
L 232.856399 118.846292 
L 233.553584 119.320226 
L 234.425065 119.624395 
L 235.703238 119.806061 
L 238.201484 119.886146 
L 244.301853 119.896649 
L 244.359952 118.040222 
L 244.418051 118.130764 
L 244.708544 118.521388 
L 244.766643 116.654666 
L 244.824742 116.812782 
L 245.405729 118.026211 
L 245.638124 118.365274 
L 245.696223 115.279249 
L 245.754322 115.504445 
L 245.928618 116.116252 
L 245.986717 114.798468 
L 246.044816 115.047112 
L 246.335309 116.119837 
L 246.393408 114.445383 
L 246.451507 114.711247 
L 246.567704 115.204708 
L 246.683902 111.341503 
L 246.742001 111.758745 
L 246.916297 112.892297 
L 246.974396 111.346376 
L 247.032494 111.76338 
L 247.206791 112.896287 
L 247.264889 111.423174 
L 247.322988 111.836433 
L 247.671581 113.925507 
L 247.787778 110.663014 
L 247.845877 111.113347 
L 248.368766 114.296186 
L 248.543062 115.076293 
L 248.601161 113.63437 
L 248.659259 113.939788 
L 248.775457 114.506663 
L 248.833556 112.926959 
L 248.891654 113.266877 
L 249.124049 114.46866 
L 249.182148 113.05867 
L 249.240247 113.392165 
L 249.298346 113.709395 
L 249.356444 112.272422 
L 249.414543 112.644262 
L 249.472642 112.997968 
L 249.530741 111.429374 
L 249.588839 111.84233 
L 249.705037 112.608805 
L 250.053629 106.496496 
L 250.169827 107.771694 
L 250.227926 106.373208 
L 250.286024 107.032756 
L 250.692716 110.831632 
L 250.867012 107.073931 
L 251.215604 97.789403 
L 251.331802 98.051822 
L 251.389901 97.404125 
L 251.447999 98.5011 
L 251.506098 95.808799 
L 251.564197 96.983578 
L 251.622296 98.101065 
L 251.680394 96.984009 
L 251.912789 101.137372 
L 252.028987 99.301013 
L 252.087086 100.305476 
L 252.319481 93.215052 
L 252.435678 92.158627 
L 252.551876 94.798253 
L 252.726172 91.035388 
L 252.784271 92.44297 
L 252.958567 85.401642 
L 253.132863 84.967537 
L 253.190962 86.671052 
L 253.307159 82.680616 
L 253.365258 82.671775 
L 253.539554 85.792492 
L 253.597653 85.807103 
L 253.713851 85.416524 
L 253.771949 87.098142 
L 253.946246 81.178312 
L 254.120542 77.30422 
L 254.178641 77.269683 
L 254.236739 78.055093 
L 254.294838 75.877634 
L 254.585332 82.655851 
L 255.108221 96.150878 
L 255.631109 104.755695 
L 256.153998 110.242368 
L 256.676887 113.740826 
L 257.257874 116.162975 
L 257.838862 117.632082 
L 258.419849 118.523141 
L 259.058936 119.104227 
L 259.814219 119.482995 
L 260.801898 119.719879 
L 262.428663 119.8531 
L 265.740292 119.894182 
L 265.798391 117.811261 
L 265.85649 117.91297 
L 266.32128 118.566967 
L 266.32128 118.566967 
" clip-path="url(#p08a9f1830d)" style="fill: none; stroke: #1a1a1a; stroke-width: 0.9; stroke-linejoin: miter"/>
   </g>
   <g id="line2d_17">
    <path d="M 33.984375 18.605795 
L 266.379378 18.605795 
" clip-path="url(#p08a9f1830d)" style="fill: none; stroke-dasharray: 0.7,1.155; stroke-dashoffset: 0; stroke: #bbbbbb; stroke-width: 0.7"/>
   </g>
   <g id="patch_3">
    <path d="M 33.984375 124.96125 
L 33.984375 13.54125 
" style="fill: none; stroke: #1a1a1a; stroke-width: 0.8; stroke-linejoin: miter; stroke-linecap: square"/>
   </g>
   <g id="patch_4">
    <path d="M 266.379378 124.96125 
L 266.379378 13.54125 
" style="fill: none; stroke: #1a1a1a; stroke-width: 0.8; stroke-linejoin: miter; stroke-linecap: square"/>
   </g>
   <g id="patch_5">
    <path d="M 33.984375 124.96125 
L 266.379378 124.96125 
" style="fill: none; stroke: #1a1a1a; stroke-width: 0.8; stroke-linejoin: miter; stroke-linecap: square"/>
   </g>
   <g id="patch_6">
    <path d="M 33.984375 13.54125 
L 266.379378 13.54125 
" style="fill: none; stroke: #1a1a1a; stroke-width: 0.8; stroke-linejoin: miter; stroke-linecap: square"/>
   </g>
   <g id="text_18">
    <!-- PING · I-neuron conductances (cell 38) -->
    <g style="fill: #1a1a1a" transform="translate(33.984375 7.54125) scale(0.08 -0.08)">
     <defs>
      <path id="Menlo-Regular-50" d="M 1247 4147 
L 1247 2394 
L 1978 2394 
Q 2416 2394 2661 2625 
Q 2906 2856 2906 3272 
Q 2906 3688 2662 3917 
Q 2419 4147 1978 4147 
L 1247 4147 
z
M 616 4666 
L 1978 4666 
Q 2759 4666 3162 4311 
Q 3566 3956 3566 3272 
Q 3566 2581 3164 2228 
Q 2763 1875 1978 1875 
L 1247 1875 
L 1247 0 
L 616 0 
L 616 4666 
z
" transform="scale(0.015625)"/>
      <path id="Menlo-Regular-49" d="M 628 4666 
L 3219 4666 
L 3219 4134 
L 2241 4134 
L 2241 531 
L 3219 531 
L 3219 0 
L 628 0 
L 628 531 
L 1606 531 
L 1606 4134 
L 628 4134 
L 628 4666 
z
" transform="scale(0.015625)"/>
      <path id="Menlo-Regular-4e" d="M 59 4650 
L 922 4650 
L 2747 822 
L 2747 4650 
L 3419 4650 
L 3419 0 
L 2556 0 
L 731 3828 
L 731 0 
L 59 0 
L 59 4650 
z
" transform="scale(0.015625)"/>
      <path id="Menlo-Regular-47" d="M 3450 384 
Q 3197 150 2880 29 
Q 2563 -91 2194 -91 
Q 1306 -91 812 545 
Q 319 1181 319 2328 
Q 319 3472 819 4111 
Q 1319 4750 2209 4750 
Q 2503 4750 2772 4667 
Q 3041 4584 3291 4416 
L 3291 3769 
Q 3038 4009 2772 4123 
Q 2506 4238 2209 4238 
Q 1594 4238 1286 3761 
Q 978 3284 978 2328 
Q 978 1356 1276 889 
Q 1575 422 2194 422 
Q 2403 422 2561 470 
Q 2719 519 2847 622 
L 2847 1875 
L 2169 1875 
L 2169 2394 
L 3450 2394 
L 3450 384 
z
" transform="scale(0.015625)"/>
      <path id="Menlo-Regular-b7" d="M 1528 2700 
L 2316 2700 
L 2316 1747 
L 1528 1747 
L 1528 2700 
z
" transform="scale(0.015625)"/>
      <path id="Menlo-Regular-2d" d="M 319 2263 
L 3631 2263 
L 3631 1734 
L 319 1734 
L 319 2263 
z
" transform="scale(0.015625)"/>
      <path id="Menlo-Regular-6e" d="M 3284 2169 
L 3284 0 
L 2706 0 
L 2706 2169 
Q 2706 2641 2540 2862 
Q 2375 3084 2022 3084 
Q 1619 3084 1401 2798 
Q 1184 2513 1184 1978 
L 1184 0 
L 609 0 
L 609 3500 
L 1184 3500 
L 1184 2975 
Q 1338 3275 1600 3429 
Q 1863 3584 2222 3584 
Q 2756 3584 3020 3232 
Q 3284 2881 3284 2169 
z
" transform="scale(0.015625)"/>
      <path id="Menlo-Regular-75" d="M 609 1325 
L 609 3494 
L 1184 3494 
L 1184 1325 
Q 1184 853 1351 631 
Q 1519 409 1869 409 
Q 2275 409 2490 695 
Q 2706 981 2706 1516 
L 2706 3494 
L 3284 3494 
L 3284 0 
L 2706 0 
L 2706 525 
Q 2553 222 2289 65 
Q 2025 -91 1672 -91 
Q 1134 -91 871 261 
Q 609 613 609 1325 
z
" transform="scale(0.015625)"/>
      <path id="Menlo-Regular-72" d="M 3609 2778 
Q 3425 2922 3234 2987 
Q 3044 3053 2816 3053 
Q 2278 3053 1993 2715 
Q 1709 2378 1709 1741 
L 1709 0 
L 1131 0 
L 1131 3500 
L 1709 3500 
L 1709 2816 
Q 1853 3188 2151 3386 
Q 2450 3584 2859 3584 
Q 3072 3584 3256 3531 
Q 3441 3478 3609 3366 
L 3609 2778 
z
" transform="scale(0.015625)"/>
      <path id="Menlo-Regular-6f" d="M 1925 3097 
Q 1488 3097 1263 2756 
Q 1038 2416 1038 1747 
Q 1038 1081 1263 739 
Q 1488 397 1925 397 
Q 2366 397 2591 739 
Q 2816 1081 2816 1747 
Q 2816 2416 2591 2756 
Q 2366 3097 1925 3097 
z
M 1925 3584 
Q 2653 3584 3039 3112 
Q 3425 2641 3425 1747 
Q 3425 850 3040 379 
Q 2656 -91 1925 -91 
Q 1197 -91 812 379 
Q 428 850 428 1747 
Q 428 2641 812 3112 
Q 1197 3584 1925 3584 
z
" transform="scale(0.015625)"/>
      <path id="Menlo-Regular-63" d="M 3316 178 
Q 3084 44 2839 -23 
Q 2594 -91 2338 -91 
Q 1525 -91 1067 396 
Q 609 884 609 1747 
Q 609 2609 1067 3096 
Q 1525 3584 2338 3584 
Q 2591 3584 2831 3518 
Q 3072 3453 3316 3316 
L 3316 2713 
Q 3088 2916 2858 3006 
Q 2628 3097 2338 3097 
Q 1797 3097 1506 2747 
Q 1216 2397 1216 1747 
Q 1216 1100 1508 748 
Q 1800 397 2338 397 
Q 2638 397 2875 489 
Q 3113 581 3316 775 
L 3316 178 
z
" transform="scale(0.015625)"/>
      <path id="Menlo-Regular-64" d="M 2681 3053 
L 2681 4863 
L 3256 4863 
L 3256 0 
L 2681 0 
L 2681 441 
Q 2538 181 2298 45 
Q 2059 -91 1747 -91 
Q 1113 -91 748 401 
Q 384 894 384 1759 
Q 384 2613 750 3098 
Q 1116 3584 1747 3584 
Q 2063 3584 2303 3448 
Q 2544 3313 2681 3053 
z
M 991 1747 
Q 991 1078 1203 737 
Q 1416 397 1831 397 
Q 2247 397 2464 740 
Q 2681 1084 2681 1747 
Q 2681 2413 2464 2755 
Q 2247 3097 1831 3097 
Q 1416 3097 1203 2756 
Q 991 2416 991 1747 
z
" transform="scale(0.015625)"/>
      <path id="Menlo-Regular-61" d="M 2194 1759 
L 2003 1759 
Q 1500 1759 1245 1582 
Q 991 1406 991 1056 
Q 991 741 1181 566 
Q 1372 391 1709 391 
Q 2184 391 2456 720 
Q 2728 1050 2731 1631 
L 2731 1759 
L 2194 1759 
z
M 3309 1997 
L 3309 0 
L 2731 0 
L 2731 519 
Q 2547 206 2267 57 
Q 1988 -91 1588 -91 
Q 1053 -91 734 211 
Q 416 513 416 1019 
Q 416 1603 808 1906 
Q 1200 2209 1959 2209 
L 2731 2209 
L 2731 2300 
Q 2728 2719 2518 2908 
Q 2309 3097 1850 3097 
Q 1556 3097 1256 3012 
Q 956 2928 672 2766 
L 672 3341 
Q 991 3463 1283 3523 
Q 1575 3584 1850 3584 
Q 2284 3584 2592 3456 
Q 2900 3328 3091 3072 
Q 3209 2916 3259 2686 
Q 3309 2456 3309 1997 
z
" transform="scale(0.015625)"/>
      <path id="Menlo-Regular-6c" d="M 2247 1266 
Q 2247 878 2389 681 
Q 2531 484 2809 484 
L 3481 484 
L 3481 0 
L 2753 0 
Q 2238 0 1955 329 
Q 1672 659 1672 1266 
L 1672 4431 
L 750 4431 
L 750 4881 
L 2247 4881 
L 2247 1266 
z
" transform="scale(0.015625)"/>
     </defs>
     <use xlink:href="#Menlo-Regular-50"/>
     <use xlink:href="#Menlo-Regular-49" transform="translate(60.205078 0)"/>
     <use xlink:href="#Menlo-Regular-4e" transform="translate(120.410156 0)"/>
     <use xlink:href="#Menlo-Regular-47" transform="translate(180.615234 0)"/>
     <use xlink:href="#Menlo-Regular-20" transform="translate(240.820312 0)"/>
     <use xlink:href="#Menlo-Regular-b7" transform="translate(301.025391 0)"/>
     <use xlink:href="#Menlo-Regular-20" transform="translate(361.230469 0)"/>
     <use xlink:href="#Menlo-Regular-49" transform="translate(421.435547 0)"/>
     <use xlink:href="#Menlo-Regular-2d" transform="translate(481.640625 0)"/>
     <use xlink:href="#Menlo-Regular-6e" transform="translate(541.845703 0)"/>
     <use xlink:href="#Menlo-Regular-65" transform="translate(602.050781 0)"/>
     <use xlink:href="#Menlo-Regular-75" transform="translate(662.255859 0)"/>
     <use xlink:href="#Menlo-Regular-72" transform="translate(722.460938 0)"/>
     <use xlink:href="#Menlo-Regular-6f" transform="translate(782.666016 0)"/>
     <use xlink:href="#Menlo-Regular-6e" transform="translate(842.871094 0)"/>
     <use xlink:href="#Menlo-Regular-20" transform="translate(903.076172 0)"/>
     <use xlink:href="#Menlo-Regular-63" transform="translate(963.28125 0)"/>
     <use xlink:href="#Menlo-Regular-6f" transform="translate(1023.486328 0)"/>
     <use xlink:href="#Menlo-Regular-6e" transform="translate(1083.691406 0)"/>
     <use xlink:href="#Menlo-Regular-64" transform="translate(1143.896484 0)"/>
     <use xlink:href="#Menlo-Regular-75" transform="translate(1204.101562 0)"/>
     <use xlink:href="#Menlo-Regular-63" transform="translate(1264.306641 0)"/>
     <use xlink:href="#Menlo-Regular-74" transform="translate(1324.511719 0)"/>
     <use xlink:href="#Menlo-Regular-61" transform="translate(1384.716797 0)"/>
     <use xlink:href="#Menlo-Regular-6e" transform="translate(1444.921875 0)"/>
     <use xlink:href="#Menlo-Regular-63" transform="translate(1505.126953 0)"/>
     <use xlink:href="#Menlo-Regular-65" transform="translate(1565.332031 0)"/>
     <use xlink:href="#Menlo-Regular-73" transform="translate(1625.537109 0)"/>
     <use xlink:href="#Menlo-Regular-20" transform="translate(1685.742188 0)"/>
     <use xlink:href="#Menlo-Regular-28" transform="translate(1745.947266 0)"/>
     <use xlink:href="#Menlo-Regular-63" transform="translate(1806.152344 0)"/>
     <use xlink:href="#Menlo-Regular-65" transform="translate(1866.357422 0)"/>
     <use xlink:href="#Menlo-Regular-6c" transform="translate(1926.5625 0)"/>
     <use xlink:href="#Menlo-Regular-6c" transform="translate(1986.767578 0)"/>
     <use xlink:href="#Menlo-Regular-20" transform="translate(2046.972656 0)"/>
     <use xlink:href="#Menlo-Regular-33" transform="translate(2107.177734 0)"/>
     <use xlink:href="#Menlo-Regular-38" transform="translate(2167.382812 0)"/>
     <use xlink:href="#Menlo-Regular-29" transform="translate(2227.587891 0)"/>
    </g>
   </g>
   <g id="legend_1">
    <g id="patch_7">
     <path d="M 198.337191 40.45625 
L 262.879378 40.45625 
L 262.879378 17.04125 
L 198.337191 17.04125 
z
" style="fill: #ffffff; stroke: #1a1a1a; stroke-width: 0.8; stroke-linejoin: miter"/>
    </g>
    <g id="line2d_18">
     <path d="M 201.137191 23.044844 
L 206.737191 23.044844 
L 212.337191 23.044844 
" style="fill: none; stroke: #1a1a1a; stroke-width: 0.9; stroke-linejoin: miter"/>
    </g>
    <g id="text_19">
     <!-- g_E (exc) -->
     <g style="fill: #1a1a1a" transform="translate(217.937191 25.494844) scale(0.07 -0.07)">
      <defs>
       <path id="Menlo-Regular-5f" d="M 3825 -594 
L 3825 -1125 
L 0 -1125 
L 0 -594 
L 3825 -594 
z
" transform="scale(0.015625)"/>
       <path id="Menlo-Regular-45" d="M 616 4666 
L 3384 4666 
L 3384 4134 
L 1247 4134 
L 1247 2878 
L 3291 2878 
L 3291 2347 
L 1247 2347 
L 1247 531 
L 3444 531 
L 3444 0 
L 616 0 
L 616 4666 
z
" transform="scale(0.015625)"/>
       <path id="Menlo-Regular-78" d="M 3494 3500 
L 2241 1825 
L 3616 0 
L 2950 0 
L 1925 1403 
L 903 0 
L 238 0 
L 1613 1825 
L 359 3500 
L 997 3500 
L 1925 2234 
L 2847 3500 
L 3494 3500 
z
" transform="scale(0.015625)"/>
      </defs>
      <use xlink:href="#Menlo-Regular-67"/>
      <use xlink:href="#Menlo-Regular-5f" transform="translate(60.205078 0)"/>
      <use xlink:href="#Menlo-Regular-45" transform="translate(120.410156 0)"/>
      <use xlink:href="#Menlo-Regular-20" transform="translate(180.615234 0)"/>
      <use xlink:href="#Menlo-Regular-28" transform="translate(240.820312 0)"/>
      <use xlink:href="#Menlo-Regular-65" transform="translate(301.025391 0)"/>
      <use xlink:href="#Menlo-Regular-78" transform="translate(361.230469 0)"/>
      <use xlink:href="#Menlo-Regular-63" transform="translate(421.435547 0)"/>
      <use xlink:href="#Menlo-Regular-29" transform="translate(481.640625 0)"/>
     </g>
    </g>
    <g id="line2d_19">
     <path d="M 201.137191 33.702344 
L 206.737191 33.702344 
L 212.337191 33.702344 
" style="fill: none; stroke-dasharray: 0.7,1.155; stroke-dashoffset: 0; stroke: #bbbbbb; stroke-width: 0.7"/>
    </g>
    <g id="text_20">
     <!-- g_L (leak) -->
     <g style="fill: #1a1a1a" transform="translate(217.937191 36.152344) scale(0.07 -0.07)">
      <defs>
       <path id="Menlo-Regular-4c" d="M 672 4666 
L 1306 4666 
L 1306 531 
L 3559 531 
L 3559 0 
L 672 0 
L 672 4666 
z
" transform="scale(0.015625)"/>
       <path id="Menlo-Regular-6b" d="M 738 4863 
L 1331 4863 
L 1331 2047 
L 2841 3500 
L 3541 3500 
L 2163 2181 
L 3756 0 
L 3053 0 
L 1759 1806 
L 1331 1403 
L 1331 0 
L 738 0 
L 738 4863 
z
" transform="scale(0.015625)"/>
      </defs>
      <use xlink:href="#Menlo-Regular-67"/>
      <use xlink:href="#Menlo-Regular-5f" transform="translate(60.205078 0)"/>
      <use xlink:href="#Menlo-Regular-4c" transform="translate(120.410156 0)"/>
      <use xlink:href="#Menlo-Regular-20" transform="translate(180.615234 0)"/>
      <use xlink:href="#Menlo-Regular-28" transform="translate(240.820312 0)"/>
      <use xlink:href="#Menlo-Regular-6c" transform="translate(301.025391 0)"/>
      <use xlink:href="#Menlo-Regular-65" transform="translate(361.230469 0)"/>
      <use xlink:href="#Menlo-Regular-61" transform="translate(421.435547 0)"/>
      <use xlink:href="#Menlo-Regular-6b" transform="translate(481.640625 0)"/>
      <use xlink:href="#Menlo-Regular-29" transform="translate(541.845703 0)"/>
     </g>
    </g>
   </g>
  </g>
 </g>
 <defs>
  <clipPath id="p08a9f1830d">
   <rect x="33.984375" y="13.54125" width="232.395003" height="111.42"/>
  </clipPath>
 </defs>
</svg>
