<?xml version="1.0" encoding="utf-8" standalone="no"?>
<!DOCTYPE svg PUBLIC "-//W3C//DTD SVG 1.1//EN"
  "http://www.w3.org/Graphics/SVG/1.1/DTD/svg11.dtd">
<svg xmlns:xlink="http://www.w3.org/1999/xlink" width="436.322187pt" height="106.924453pt" viewBox="0 0 436.322187 106.924453" xmlns="http://www.w3.org/2000/svg" version="1.1">
 <metadata>
  <rdf:RDF xmlns:dc="http://purl.org/dc/elements/1.1/" xmlns:cc="http://creativecommons.org/ns#" xmlns:rdf="http://www.w3.org/1999/02/22-rdf-syntax-ns#">
   <cc:Work>
    <dc:type rdf:resource="http://purl.org/dc/dcmitype/StillImage"/>
    <dc:date>2026-06-29T14:02:13.750594</dc:date>
    <dc:format>image/svg+xml</dc:format>
    <dc:creator>
     <cc:Agent>
      <dc:title>Matplotlib v3.10.8, https://matplotlib.org/</dc:title>
     </cc:Agent>
    </dc:creator>
   </cc:Work>
  </rdf:RDF>
 </metadata>
 <defs>
  <style type="text/css">*{stroke-linejoin: round; stroke-linecap: butt}</style>
 </defs>
 <g id="figure_1">
  <g id="patch_1">
   <path d="M 0 106.924453 
L 436.322187 106.924453 
L 436.322187 0 
L 0 0 
z
" style="fill: #ffffff"/>
  </g>
  <g id="axes_1">
   <g id="patch_2">
    <path d="M 25.500938 83.425078 
L 162.248438 83.425078 
L 162.248438 14.305078 
L 25.500938 14.305078 
z
" style="fill: #ffffff"/>
   </g>
   <g id="matplotlib.axis_1">
    <g id="xtick_1">
     <g id="line2d_1">
      <defs>
       <path id="m08152394a9" d="M 0 0 
L 0 -3 
" style="stroke: #1a1a1a; stroke-width: 0.8"/>
      </defs>
      <g>
       <use xlink:href="#m08152394a9" x="25.500938" y="83.425078" style="fill: #1a1a1a; stroke: #1a1a1a; stroke-width: 0.8"/>
      </g>
     </g>
     <g id="text_1">
      <!-- 0 -->
      <g style="fill: #1a1a1a" transform="translate(23.393828 92.263672) scale(0.07 -0.07)">
       <defs>
        <path id="Menlo-Regular-30" d="M 1925 4734 
Q 2672 4734 3055 4125 
Q 3438 3516 3438 2322 
Q 3438 1128 3055 518 
Q 2672 -91 1925 -91 
Q 1178 -91 797 518 
Q 416 1128 416 2322 
Q 416 3516 797 4125 
Q 1178 4734 1925 4734 
z
M 1925 409 
Q 2369 409 2586 881 
Q 2803 1353 2803 2322 
Q 2803 2838 2741 3253 
L 1253 925 
Q 1488 409 1925 409 
z
M 1925 4234 
Q 1484 4234 1267 3762 
Q 1050 3291 1050 2322 
Q 1050 1881 1109 1497 
L 2566 3819 
Q 2328 4234 1925 4234 
z
" transform="scale(0.015625)"/>
       </defs>
       <use xlink:href="#Menlo-Regular-30"/>
      </g>
     </g>
    </g>
    <g id="xtick_2">
     <g id="line2d_2">
      <g>
       <use xlink:href="#m08152394a9" x="59.687813" y="83.425078" style="fill: #1a1a1a; stroke: #1a1a1a; stroke-width: 0.8"/>
      </g>
     </g>
     <g id="text_2">
      <!-- 100 -->
      <g style="fill: #1a1a1a" transform="translate(53.366484 92.263672) scale(0.07 -0.07)">
       <defs>
        <path id="Menlo-Regular-31" d="M 844 528 
L 1825 528 
L 1825 4053 
L 650 3488 
L 650 4094 
L 1819 4650 
L 2450 4650 
L 2450 528 
L 3419 528 
L 3419 0 
L 844 0 
L 844 528 
z
" transform="scale(0.015625)"/>
       </defs>
       <use xlink:href="#Menlo-Regular-31"/>
       <use xlink:href="#Menlo-Regular-30" transform="translate(60.205078 0)"/>
       <use xlink:href="#Menlo-Regular-30" transform="translate(120.410156 0)"/>
      </g>
     </g>
    </g>
    <g id="xtick_3">
     <g id="line2d_3">
      <g>
       <use xlink:href="#m08152394a9" x="93.874688" y="83.425078" style="fill: #1a1a1a; stroke: #1a1a1a; stroke-width: 0.8"/>
      </g>
     </g>
     <g id="text_3">
      <!-- 200 -->
      <g style="fill: #1a1a1a" transform="translate(87.553359 92.263672) scale(0.07 -0.07)">
       <defs>
        <path id="Menlo-Regular-32" d="M 1166 531 
L 3309 531 
L 3309 0 
L 475 0 
L 475 531 
Q 1059 1147 1496 1619 
Q 1934 2091 2100 2284 
Q 2413 2666 2522 2902 
Q 2631 3138 2631 3384 
Q 2631 3775 2401 3997 
Q 2172 4219 1772 4219 
Q 1488 4219 1175 4116 
Q 863 4013 513 3803 
L 513 4441 
Q 834 4594 1145 4672 
Q 1456 4750 1759 4750 
Q 2444 4750 2861 4386 
Q 3278 4022 3278 3431 
Q 3278 3131 3139 2831 
Q 3000 2531 2688 2169 
Q 2513 1966 2180 1606 
Q 1847 1247 1166 531 
z
" transform="scale(0.015625)"/>
       </defs>
       <use xlink:href="#Menlo-Regular-32"/>
       <use xlink:href="#Menlo-Regular-30" transform="translate(60.205078 0)"/>
       <use xlink:href="#Menlo-Regular-30" transform="translate(120.410156 0)"/>
      </g>
     </g>
    </g>
    <g id="xtick_4">
     <g id="line2d_4">
      <g>
       <use xlink:href="#m08152394a9" x="128.061563" y="83.425078" style="fill: #1a1a1a; stroke: #1a1a1a; stroke-width: 0.8"/>
      </g>
     </g>
     <g id="text_4">
      <!-- 300 -->
      <g style="fill: #1a1a1a" transform="translate(121.740234 92.263672) scale(0.07 -0.07)">
       <defs>
        <path id="Menlo-Regular-33" d="M 2425 2497 
Q 2884 2375 3128 2064 
Q 3372 1753 3372 1288 
Q 3372 644 2939 276 
Q 2506 -91 1741 -91 
Q 1419 -91 1084 -31 
Q 750 28 428 141 
L 428 769 
Q 747 603 1056 522 
Q 1366 441 1672 441 
Q 2191 441 2469 675 
Q 2747 909 2747 1350 
Q 2747 1756 2469 1995 
Q 2191 2234 1716 2234 
L 1234 2234 
L 1234 2753 
L 1716 2753 
Q 2150 2753 2394 2943 
Q 2638 3134 2638 3475 
Q 2638 3834 2411 4026 
Q 2184 4219 1766 4219 
Q 1488 4219 1191 4156 
Q 894 4094 569 3969 
L 569 4550 
Q 947 4650 1242 4700 
Q 1538 4750 1766 4750 
Q 2447 4750 2855 4408 
Q 3263 4066 3263 3500 
Q 3263 3116 3048 2859 
Q 2834 2603 2425 2497 
z
" transform="scale(0.015625)"/>
       </defs>
       <use xlink:href="#Menlo-Regular-33"/>
       <use xlink:href="#Menlo-Regular-30" transform="translate(60.205078 0)"/>
       <use xlink:href="#Menlo-Regular-30" transform="translate(120.410156 0)"/>
      </g>
     </g>
    </g>
    <g id="xtick_5">
     <g id="line2d_5">
      <g>
       <use xlink:href="#m08152394a9" x="162.248438" y="83.425078" style="fill: #1a1a1a; stroke: #1a1a1a; stroke-width: 0.8"/>
      </g>
     </g>
     <g id="text_5">
      <!-- 400 -->
      <g style="fill: #1a1a1a" transform="translate(155.927109 92.263672) scale(0.07 -0.07)">
       <defs>
        <path id="Menlo-Regular-34" d="M 2297 4091 
L 825 1625 
L 2297 1625 
L 2297 4091 
z
M 2194 4666 
L 2925 4666 
L 2925 1625 
L 3547 1625 
L 3547 1113 
L 2925 1113 
L 2925 0 
L 2297 0 
L 2297 1113 
L 319 1113 
L 319 1709 
L 2194 4666 
z
" transform="scale(0.015625)"/>
       </defs>
       <use xlink:href="#Menlo-Regular-34"/>
       <use xlink:href="#Menlo-Regular-30" transform="translate(60.205078 0)"/>
       <use xlink:href="#Menlo-Regular-30" transform="translate(120.410156 0)"/>
      </g>
     </g>
    </g>
    <g id="text_6">
     <!-- time (ms) -->
     <g style="fill: #1a1a1a" transform="translate(72.201563 103.820703) scale(0.08 -0.08)">
      <defs>
       <path id="Menlo-Regular-74" d="M 1919 4494 
L 1919 3500 
L 3225 3500 
L 3225 3053 
L 1919 3053 
L 1919 1153 
Q 1919 766 2066 612 
Q 2213 459 2578 459 
L 3225 459 
L 3225 0 
L 2522 0 
Q 1875 0 1609 259 
Q 1344 519 1344 1153 
L 1344 3053 
L 409 3053 
L 409 3500 
L 1344 3500 
L 1344 4494 
L 1919 4494 
z
" transform="scale(0.015625)"/>
       <path id="Menlo-Regular-69" d="M 988 3488 
L 2459 3488 
L 2459 447 
L 3600 447 
L 3600 0 
L 744 0 
L 744 447 
L 1884 447 
L 1884 3041 
L 988 3041 
L 988 3488 
z
M 1884 4847 
L 2459 4847 
L 2459 4122 
L 1884 4122 
L 1884 4847 
z
" transform="scale(0.015625)"/>
       <path id="Menlo-Regular-6d" d="M 2113 3144 
Q 2219 3369 2383 3476 
Q 2547 3584 2778 3584 
Q 3200 3584 3373 3257 
Q 3547 2931 3547 2028 
L 3547 0 
L 3022 0 
L 3022 2003 
Q 3022 2744 2939 2923 
Q 2856 3103 2638 3103 
Q 2388 3103 2295 2911 
Q 2203 2719 2203 2003 
L 2203 0 
L 1678 0 
L 1678 2003 
Q 1678 2753 1589 2928 
Q 1500 3103 1269 3103 
Q 1041 3103 952 2911 
Q 863 2719 863 2003 
L 863 0 
L 341 0 
L 341 3500 
L 863 3500 
L 863 3200 
Q 966 3388 1120 3486 
Q 1275 3584 1472 3584 
Q 1709 3584 1867 3475 
Q 2025 3366 2113 3144 
z
" transform="scale(0.015625)"/>
       <path id="Menlo-Regular-65" d="M 3500 2038 
L 3500 1756 
L 1009 1756 
L 1009 1738 
Q 984 1022 1282 709 
Q 1581 397 2125 397 
Q 2400 397 2700 484 
Q 3000 572 3341 750 
L 3341 178 
Q 3013 44 2708 -23 
Q 2403 -91 2119 -91 
Q 1303 -91 843 398 
Q 384 888 384 1747 
Q 384 2584 834 3084 
Q 1284 3584 2034 3584 
Q 2703 3584 3089 3131 
Q 3475 2678 3500 2038 
z
M 2925 2206 
Q 2888 2569 2661 2833 
Q 2434 3097 2009 3097 
Q 1594 3097 1325 2822 
Q 1056 2547 1031 2203 
L 2925 2206 
z
" transform="scale(0.015625)"/>
       <path id="Menlo-Regular-20" transform="scale(0.015625)"/>
       <path id="Menlo-Regular-28" d="M 2672 5169 
Q 2256 4456 2051 3748 
Q 1847 3041 1847 2322 
Q 1847 1606 2051 897 
Q 2256 188 2672 -531 
L 2172 -531 
Q 1700 213 1469 917 
Q 1238 1622 1238 2322 
Q 1238 3019 1469 3725 
Q 1700 4431 2172 5169 
L 2672 5169 
z
" transform="scale(0.015625)"/>
       <path id="Menlo-Regular-73" d="M 3041 3378 
L 3041 2816 
Q 2794 2959 2544 3031 
Q 2294 3103 2034 3103 
Q 1644 3103 1451 2976 
Q 1259 2850 1259 2591 
Q 1259 2356 1403 2240 
Q 1547 2125 2119 2016 
L 2350 1972 
Q 2778 1891 2998 1647 
Q 3219 1403 3219 1013 
Q 3219 494 2850 201 
Q 2481 -91 1825 -91 
Q 1566 -91 1281 -36 
Q 997 19 666 128 
L 666 722 
Q 988 556 1281 473 
Q 1575 391 1838 391 
Q 2219 391 2428 545 
Q 2638 700 2638 978 
Q 2638 1378 1872 1531 
L 1847 1538 
L 1631 1581 
Q 1134 1678 906 1908 
Q 678 2138 678 2534 
Q 678 3038 1018 3311 
Q 1359 3584 1991 3584 
Q 2272 3584 2531 3532 
Q 2791 3481 3041 3378 
z
" transform="scale(0.015625)"/>
       <path id="Menlo-Regular-29" d="M 1088 5169 
L 1588 5169 
Q 2059 4431 2290 3725 
Q 2522 3019 2522 2322 
Q 2522 1619 2290 912 
Q 2059 206 1588 -531 
L 1088 -531 
Q 1503 194 1708 903 
Q 1913 1613 1913 2322 
Q 1913 3034 1708 3743 
Q 1503 4453 1088 5169 
z
" transform="scale(0.015625)"/>
      </defs>
      <use xlink:href="#Menlo-Regular-74"/>
      <use xlink:href="#Menlo-Regular-69" transform="translate(60.205078 0)"/>
      <use xlink:href="#Menlo-Regular-6d" transform="translate(120.410156 0)"/>
      <use xlink:href="#Menlo-Regular-65" transform="translate(180.615234 0)"/>
      <use xlink:href="#Menlo-Regular-20" transform="translate(240.820312 0)"/>
      <use xlink:href="#Menlo-Regular-28" transform="translate(301.025391 0)"/>
      <use xlink:href="#Menlo-Regular-6d" transform="translate(361.230469 0)"/>
      <use xlink:href="#Menlo-Regular-73" transform="translate(421.435547 0)"/>
      <use xlink:href="#Menlo-Regular-29" transform="translate(481.640625 0)"/>
     </g>
    </g>
   </g>
   <g id="matplotlib.axis_2">
    <g id="ytick_1">
     <g id="line2d_6">
      <defs>
       <path id="mab27fa22cb" d="M 0 0 
L 3 0 
" style="stroke: #1a1a1a; stroke-width: 0.8"/>
      </defs>
      <g>
       <use xlink:href="#mab27fa22cb" x="25.500938" y="77.21091" style="fill: #1a1a1a; stroke: #1a1a1a; stroke-width: 0.8"/>
      </g>
     </g>
     <g id="text_7">
      <!-- 0 -->
      <g style="fill: #1a1a1a" transform="translate(17.786719 79.880207) scale(0.07 -0.07)">
       <use xlink:href="#Menlo-Regular-30"/>
      </g>
     </g>
    </g>
    <g id="ytick_2">
     <g id="line2d_7">
      <g>
       <use xlink:href="#mab27fa22cb" x="25.500938" y="56.726944" style="fill: #1a1a1a; stroke: #1a1a1a; stroke-width: 0.8"/>
      </g>
     </g>
     <g id="text_8">
      <!-- 5 -->
      <g style="fill: #1a1a1a" transform="translate(17.786719 59.396241) scale(0.07 -0.07)">
       <defs>
        <path id="Menlo-Regular-35" d="M 647 4666 
L 3009 4666 
L 3009 4134 
L 1222 4134 
L 1222 2988 
Q 1356 3038 1492 3061 
Q 1628 3084 1766 3084 
Q 2491 3084 2916 2656 
Q 3341 2228 3341 1497 
Q 3341 759 2895 334 
Q 2450 -91 1678 -91 
Q 1306 -91 998 -41 
Q 691 9 447 109 
L 447 750 
Q 734 594 1025 517 
Q 1316 441 1619 441 
Q 2141 441 2423 716 
Q 2706 991 2706 1497 
Q 2706 1997 2414 2275 
Q 2122 2553 1600 2553 
Q 1347 2553 1106 2495 
Q 866 2438 647 2322 
L 647 4666 
z
" transform="scale(0.015625)"/>
       </defs>
       <use xlink:href="#Menlo-Regular-35"/>
      </g>
     </g>
    </g>
    <g id="ytick_3">
     <g id="line2d_8">
      <g>
       <use xlink:href="#mab27fa22cb" x="25.500938" y="36.242977" style="fill: #1a1a1a; stroke: #1a1a1a; stroke-width: 0.8"/>
      </g>
     </g>
     <g id="text_9">
      <!-- 10 -->
      <g style="fill: #1a1a1a" transform="translate(13.5725 38.912274) scale(0.07 -0.07)">
       <use xlink:href="#Menlo-Regular-31"/>
       <use xlink:href="#Menlo-Regular-30" transform="translate(60.205078 0)"/>
      </g>
     </g>
    </g>
    <g id="ytick_4">
     <g id="line2d_9">
      <g>
       <use xlink:href="#mab27fa22cb" x="25.500938" y="15.759011" style="fill: #1a1a1a; stroke: #1a1a1a; stroke-width: 0.8"/>
      </g>
     </g>
     <g id="text_10">
      <!-- 15 -->
      <g style="fill: #1a1a1a" transform="translate(13.5725 18.428308) scale(0.07 -0.07)">
       <use xlink:href="#Menlo-Regular-31"/>
       <use xlink:href="#Menlo-Regular-35" transform="translate(60.205078 0)"/>
      </g>
     </g>
    </g>
    <g id="text_11">
     <!-- I in  [+ depol. / − hyperpol.] -->
     <g style="fill: #1a1a1a" transform="translate(7.90875 121.108828) rotate(-90) scale(0.08 -0.08)">
      <defs>
       <path id="Menlo-Regular-49" d="M 628 4666 
L 3219 4666 
L 3219 4134 
L 2241 4134 
L 2241 531 
L 3219 531 
L 3219 0 
L 628 0 
L 628 531 
L 1606 531 
L 1606 4134 
L 628 4134 
L 628 4666 
z
" transform="scale(0.015625)"/>
       <path id="Menlo-Regular-6e" d="M 3284 2169 
L 3284 0 
L 2706 0 
L 2706 2169 
Q 2706 2641 2540 2862 
Q 2375 3084 2022 3084 
Q 1619 3084 1401 2798 
Q 1184 2513 1184 1978 
L 1184 0 
L 609 0 
L 609 3500 
L 1184 3500 
L 1184 2975 
Q 1338 3275 1600 3429 
Q 1863 3584 2222 3584 
Q 2756 3584 3020 3232 
Q 3284 2881 3284 2169 
z
" transform="scale(0.015625)"/>
       <path id="Menlo-Regular-5b" d="M 1759 5175 
L 3084 5175 
L 3084 4728 
L 2334 4728 
L 2334 -84 
L 3084 -84 
L 3084 -531 
L 1759 -531 
L 1759 5175 
z
" transform="scale(0.015625)"/>
       <path id="Menlo-Regular-2b" d="M 2250 3681 
L 2250 2297 
L 3641 2297 
L 3641 1769 
L 2250 1769 
L 2250 384 
L 1725 384 
L 1725 1769 
L 338 1769 
L 338 2297 
L 1725 2297 
L 1725 3681 
L 2250 3681 
z
" transform="scale(0.015625)"/>
       <path id="Menlo-Regular-64" d="M 2681 3053 
L 2681 4863 
L 3256 4863 
L 3256 0 
L 2681 0 
L 2681 441 
Q 2538 181 2298 45 
Q 2059 -91 1747 -91 
Q 1113 -91 748 401 
Q 384 894 384 1759 
Q 384 2613 750 3098 
Q 1116 3584 1747 3584 
Q 2063 3584 2303 3448 
Q 2544 3313 2681 3053 
z
M 991 1747 
Q 991 1078 1203 737 
Q 1416 397 1831 397 
Q 2247 397 2464 740 
Q 2681 1084 2681 1747 
Q 2681 2413 2464 2755 
Q 2247 3097 1831 3097 
Q 1416 3097 1203 2756 
Q 991 2416 991 1747 
z
" transform="scale(0.015625)"/>
       <path id="Menlo-Regular-70" d="M 1172 441 
L 1172 -1331 
L 594 -1331 
L 594 3500 
L 1172 3500 
L 1172 3053 
Q 1316 3313 1555 3448 
Q 1794 3584 2106 3584 
Q 2741 3584 3102 3093 
Q 3463 2603 3463 1734 
Q 3463 881 3100 395 
Q 2738 -91 2106 -91 
Q 1788 -91 1548 45 
Q 1309 181 1172 441 
z
M 2859 1747 
Q 2859 2416 2648 2756 
Q 2438 3097 2022 3097 
Q 1603 3097 1387 2755 
Q 1172 2413 1172 1747 
Q 1172 1084 1387 740 
Q 1603 397 2022 397 
Q 2438 397 2648 737 
Q 2859 1078 2859 1747 
z
" transform="scale(0.015625)"/>
       <path id="Menlo-Regular-6f" d="M 1925 3097 
Q 1488 3097 1263 2756 
Q 1038 2416 1038 1747 
Q 1038 1081 1263 739 
Q 1488 397 1925 397 
Q 2366 397 2591 739 
Q 2816 1081 2816 1747 
Q 2816 2416 2591 2756 
Q 2366 3097 1925 3097 
z
M 1925 3584 
Q 2653 3584 3039 3112 
Q 3425 2641 3425 1747 
Q 3425 850 3040 379 
Q 2656 -91 1925 -91 
Q 1197 -91 812 379 
Q 428 850 428 1747 
Q 428 2641 812 3112 
Q 1197 3584 1925 3584 
z
" transform="scale(0.015625)"/>
       <path id="Menlo-Regular-6c" d="M 2247 1266 
Q 2247 878 2389 681 
Q 2531 484 2809 484 
L 3481 484 
L 3481 0 
L 2753 0 
Q 2238 0 1955 329 
Q 1672 659 1672 1266 
L 1672 4431 
L 750 4431 
L 750 4881 
L 2247 4881 
L 2247 1266 
z
" transform="scale(0.015625)"/>
       <path id="Menlo-Regular-2e" d="M 1216 1263 
L 2316 1263 
L 2316 0 
L 1216 0 
L 1216 1263 
z
" transform="scale(0.015625)"/>
       <path id="Menlo-Regular-2f" d="M 2778 4666 
L 3372 4666 
L 916 -594 
L 319 -594 
L 2778 4666 
z
" transform="scale(0.015625)"/>
       <path id="Menlo-Regular-2212" d="M 275 2272 
L 3578 2272 
L 3578 1741 
L 275 1741 
L 275 2272 
z
" transform="scale(0.015625)"/>
       <path id="Menlo-Regular-68" d="M 3284 2169 
L 3284 0 
L 2706 0 
L 2706 2169 
Q 2706 2641 2540 2862 
Q 2375 3084 2022 3084 
Q 1619 3084 1401 2798 
Q 1184 2513 1184 1978 
L 1184 0 
L 609 0 
L 609 4863 
L 1184 4863 
L 1184 2975 
Q 1338 3275 1600 3429 
Q 1863 3584 2222 3584 
Q 2756 3584 3020 3232 
Q 3284 2881 3284 2169 
z
" transform="scale(0.015625)"/>
       <path id="Menlo-Regular-79" d="M 2681 1125 
Q 2538 759 2316 163 
Q 2006 -663 1900 -844 
Q 1756 -1088 1540 -1209 
Q 1325 -1331 1038 -1331 
L 575 -1331 
L 575 -850 
L 916 -850 
Q 1169 -850 1312 -703 
Q 1456 -556 1678 56 
L 325 3500 
L 934 3500 
L 1972 763 
L 2994 3500 
L 3603 3500 
L 2681 1125 
z
" transform="scale(0.015625)"/>
       <path id="Menlo-Regular-72" d="M 3609 2778 
Q 3425 2922 3234 2987 
Q 3044 3053 2816 3053 
Q 2278 3053 1993 2715 
Q 1709 2378 1709 1741 
L 1709 0 
L 1131 0 
L 1131 3500 
L 1709 3500 
L 1709 2816 
Q 1853 3188 2151 3386 
Q 2450 3584 2859 3584 
Q 3072 3584 3256 3531 
Q 3441 3478 3609 3366 
L 3609 2778 
z
" transform="scale(0.015625)"/>
       <path id="Menlo-Regular-5d" d="M 2250 5175 
L 2250 -531 
L 925 -531 
L 925 -84 
L 1675 -84 
L 1675 4728 
L 925 4728 
L 925 5175 
L 2250 5175 
z
" transform="scale(0.015625)"/>
      </defs>
      <use xlink:href="#Menlo-Regular-49"/>
      <use xlink:href="#Menlo-Regular-20" transform="translate(60.205078 0)"/>
      <use xlink:href="#Menlo-Regular-69" transform="translate(120.410156 0)"/>
      <use xlink:href="#Menlo-Regular-6e" transform="translate(180.615234 0)"/>
      <use xlink:href="#Menlo-Regular-20" transform="translate(240.820312 0)"/>
      <use xlink:href="#Menlo-Regular-20" transform="translate(301.025391 0)"/>
      <use xlink:href="#Menlo-Regular-5b" transform="translate(361.230469 0)"/>
      <use xlink:href="#Menlo-Regular-2b" transform="translate(421.435547 0)"/>
      <use xlink:href="#Menlo-Regular-20" transform="translate(481.640625 0)"/>
      <use xlink:href="#Menlo-Regular-64" transform="translate(541.845703 0)"/>
      <use xlink:href="#Menlo-Regular-65" transform="translate(602.050781 0)"/>
      <use xlink:href="#Menlo-Regular-70" transform="translate(662.255859 0)"/>
      <use xlink:href="#Menlo-Regular-6f" transform="translate(722.460938 0)"/>
      <use xlink:href="#Menlo-Regular-6c" transform="translate(782.666016 0)"/>
      <use xlink:href="#Menlo-Regular-2e" transform="translate(842.871094 0)"/>
      <use xlink:href="#Menlo-Regular-20" transform="translate(903.076172 0)"/>
      <use xlink:href="#Menlo-Regular-2f" transform="translate(963.28125 0)"/>
      <use xlink:href="#Menlo-Regular-20" transform="translate(1023.486328 0)"/>
      <use xlink:href="#Menlo-Regular-2212" transform="translate(1083.691406 0)"/>
      <use xlink:href="#Menlo-Regular-20" transform="translate(1143.896484 0)"/>
      <use xlink:href="#Menlo-Regular-68" transform="translate(1204.101562 0)"/>
      <use xlink:href="#Menlo-Regular-79" transform="translate(1264.306641 0)"/>
      <use xlink:href="#Menlo-Regular-70" transform="translate(1324.511719 0)"/>
      <use xlink:href="#Menlo-Regular-65" transform="translate(1384.716797 0)"/>
      <use xlink:href="#Menlo-Regular-72" transform="translate(1444.921875 0)"/>
      <use xlink:href="#Menlo-Regular-70" transform="translate(1505.126953 0)"/>
      <use xlink:href="#Menlo-Regular-6f" transform="translate(1565.332031 0)"/>
      <use xlink:href="#Menlo-Regular-6c" transform="translate(1625.537109 0)"/>
      <use xlink:href="#Menlo-Regular-2e" transform="translate(1685.742188 0)"/>
      <use xlink:href="#Menlo-Regular-5d" transform="translate(1745.947266 0)"/>
     </g>
    </g>
   </g>
   <g id="line2d_10">
    <path d="M 25.500938 77.21091 
L 162.248438 77.21091 
" clip-path="url(#p604798ed9f)" style="fill: none; stroke: #bbbbbb; stroke-width: 0.5; stroke-linejoin: miter"/>
   </g>
   <g id="line2d_11">
    <path d="M 25.500938 77.21091 
L 25.671872 66.712771 
L 25.842806 69.034951 
L 25.928273 60.467217 
L 26.013741 62.434653 
L 26.441077 69.30175 
L 26.868413 73.033437 
L 27.039347 73.977555 
L 27.124814 50.741787 
L 27.210281 54.365256 
L 27.295748 48.875865 
L 27.381216 52.808224 
L 27.466683 47.402177 
L 27.808552 60.607834 
L 27.979486 64.608556 
L 28.064953 62.764574 
L 28.492289 69.478344 
L 28.919625 73.071966 
L 29.090559 73.997177 
L 29.176027 64.191034 
L 29.261494 65.84311 
L 29.68883 71.337229 
L 29.774297 58.029931 
L 29.859764 60.553499 
L 30.116166 66.165598 
L 30.201633 59.326535 
L 30.628969 68.15619 
L 30.714436 69.270456 
L 30.799903 53.253 
L 30.88537 56.520726 
L 30.970838 53.568875 
L 31.056305 56.346888 
L 31.141772 49.270041 
L 31.569108 62.25524 
L 31.654575 64.012578 
L 31.825509 46.370044 
L 31.910977 49.993943 
L 31.996444 44.071583 
L 32.338313 58.853092 
L 32.42378 53.173164 
L 32.594714 59.204084 
L 32.680181 53.307463 
L 32.765648 56.561822 
L 32.936583 49.3269 
L 33.363919 62.285676 
L 33.791255 69.222008 
L 34.218591 73.0154 
L 34.474992 74.351882 
L 34.560459 65.469527 
L 34.645927 66.947724 
L 35.073263 71.88537 
L 35.329664 73.585011 
L 35.415131 62.441167 
L 35.500598 64.333727 
L 35.927934 70.576488 
L 36.35527 73.71044 
L 36.782606 75.34107 
L 37.209942 76.20589 
L 37.722745 76.732022 
L 37.89368 76.836713 
L 37.979147 66.773817 
L 38.064614 68.07276 
L 38.49195 72.430306 
L 38.577417 63.278719 
L 38.662884 65.053171 
L 38.748352 66.582209 
L 38.919286 53.948197 
L 39.261155 63.101362 
L 39.346622 54.383265 
L 39.603023 61.521716 
L 39.688491 48.780313 
L 39.773958 52.120997 
L 39.859425 48.423797 
L 40.030359 55.763324 
L 40.201294 43.00517 
L 40.372228 52.014547 
L 40.457695 45.911682 
L 40.62863 54.095237 
L 40.714097 51.074509 
L 40.970498 59.247645 
L 41.397834 37.582416 
L 41.910638 59.56168 
L 42.337973 68.273526 
L 42.679842 71.903194 
L 42.765309 64.36112 
L 42.850777 65.98695 
L 42.936244 59.482079 
L 43.36358 68.228093 
L 43.534514 70.291496 
L 43.705448 61.803654 
L 43.876383 65.211727 
L 44.047317 47.499134 
L 44.303719 56.790325 
L 44.389186 50.576655 
L 44.816522 63.350781 
L 44.901989 53.942913 
L 45.072923 59.737081 
L 45.243858 46.873561 
L 45.329325 51.1487 
L 45.414792 43.187463 
L 45.500259 48.118119 
L 45.585727 44.6047 
L 45.671194 27.809532 
L 45.927595 43.257875 
L 46.013063 35.351508 
L 46.440398 54.805189 
L 46.867734 65.841352 
L 46.953202 57.38788 
L 47.380538 67.245492 
L 47.807873 72.019952 
L 48.235209 74.456154 
L 48.662545 75.734987 
L 49.089881 76.416416 
L 49.346283 76.662378 
L 49.43175 68.570568 
L 49.517217 69.632512 
L 49.944553 73.222657 
L 50.115488 74.111818 
L 50.286422 59.890097 
L 50.542823 65.743572 
L 50.628291 64.12765 
L 51.055627 70.207947 
L 51.141094 58.841689 
L 51.226561 61.00013 
L 51.56843 67.378576 
L 51.653897 56.091346 
L 51.739364 58.896046 
L 51.824831 61.291552 
L 51.910298 53.858371 
L 52.337634 65.611173 
L 52.508569 68.326783 
L 52.594036 62.298785 
L 53.021372 69.574338 
L 53.448708 73.183491 
L 53.619642 62.464794 
L 53.790577 65.726623 
L 53.961511 49.482109 
L 54.132445 55.615697 
L 54.217913 37.045727 
L 54.30338 41.765262 
L 54.730716 58.93659 
L 55.158052 67.977306 
L 55.243519 69.120069 
L 55.328986 57.298506 
L 55.414453 59.93268 
L 55.841789 68.444527 
L 55.927256 69.521698 
L 56.012723 62.139155 
L 56.098191 64.07388 
L 56.525527 70.430861 
L 56.610994 69.43599 
L 57.03833 73.049296 
L 57.123797 58.953367 
L 57.209264 61.098685 
L 57.6366 68.655771 
L 57.722067 58.207453 
L 57.807534 60.702134 
L 57.893002 62.839317 
L 57.978469 55.958203 
L 58.405805 66.578607 
L 58.491272 60.639024 
L 58.662206 64.630901 
L 58.747673 50.89116 
L 58.833141 54.530853 
L 58.918608 57.598283 
L 59.004075 54.818311 
L 59.089542 45.260384 
L 59.175009 49.014669 
L 59.260477 37.742885 
L 59.687813 56.085199 
L 59.944214 62.691435 
L 60.029681 49.858456 
L 60.115148 53.616201 
L 60.286083 37.069532 
L 60.627952 55.521052 
L 60.713419 58.435156 
L 60.798886 55.80331 
L 61.055288 62.497697 
L 61.140755 48.961516 
L 61.226222 52.280907 
L 61.397156 57.795405 
L 61.482623 49.881517 
L 61.568091 53.092805 
L 61.653558 46.398321 
L 62.166361 63.855705 
L 62.593697 70.34612 
L 62.679164 62.381761 
L 62.764631 64.282474 
L 63.191967 70.545229 
L 63.448369 72.673751 
L 63.533836 63.410654 
L 63.619303 65.166589 
L 64.046639 70.968276 
L 64.217573 72.374274 
L 64.303041 71.665878 
L 64.388508 72.317436 
L 64.473975 62.697163 
L 64.559442 64.402573 
L 64.644909 57.29444 
L 65.072245 66.550392 
L 65.157713 57.071575 
L 65.24318 59.438008 
L 65.414114 63.74296 
L 65.499581 54.264451 
L 65.585048 57.346115 
L 65.670516 49.25376 
L 65.755983 53.125727 
L 65.926917 45.697765 
L 66.012384 50.18447 
L 66.183319 40.761876 
L 66.610655 57.701148 
L 66.781589 62.016693 
L 66.867056 57.156719 
L 67.294392 66.702059 
L 67.379859 54.174715 
L 67.465327 57.269158 
L 67.892663 67.189809 
L 67.97813 68.435024 
L 68.063597 61.373321 
L 68.149064 63.416538 
L 68.5764 70.119936 
L 68.918269 72.96313 
L 69.003736 61.396227 
L 69.089203 63.436888 
L 69.17467 65.188637 
L 69.260138 63.52566 
L 69.687473 69.885724 
L 69.858408 71.50605 
L 69.943875 53.517699 
L 70.029342 56.301725 
L 70.285744 63.031634 
L 70.371211 53.395314 
L 70.456678 56.607182 
L 70.542145 50.720627 
L 70.969481 64.194061 
L 71.396817 70.499408 
L 71.482284 71.311376 
L 71.567752 63.479412 
L 71.653219 65.225599 
L 71.995088 70.141111 
L 72.080555 69.110315 
L 72.251489 70.90216 
L 72.336956 61.267446 
L 72.422423 63.140852 
L 72.593358 66.253138 
L 72.678825 58.012273 
L 72.764292 60.268173 
L 72.849759 62.258997 
L 72.935227 52.119944 
L 73.020694 55.068209 
L 73.44803 66.160703 
L 73.875366 71.488379 
L 74.302702 74.188798 
L 74.388169 65.59597 
L 74.473636 67.054296 
L 74.900972 71.923793 
L 75.157373 73.602016 
L 75.242841 64.163324 
L 75.328308 65.815485 
L 75.755644 71.295178 
L 75.841111 65.241259 
L 75.926578 66.744029 
L 76.097513 69.170124 
L 76.18298 68.02338 
L 76.353914 50.558624 
L 76.439381 53.69035 
L 76.866717 64.621264 
L 76.952184 56.4137 
L 77.037652 58.857437 
L 77.294053 39.359053 
L 77.635922 56.557386 
L 78.063258 66.86014 
L 78.148725 68.144123 
L 78.234192 55.049152 
L 78.319659 57.653227 
L 78.405127 51.338164 
L 78.576061 57.061196 
L 78.746995 40.721286 
L 78.91793 48.792763 
L 79.088864 34.790204 
L 79.174331 39.774771 
L 79.259798 26.910174 
L 79.430733 41.049725 
L 79.601667 37.038424 
L 79.687134 43.079891 
L 79.772602 38.410639 
L 80.199938 56.442621 
L 80.456339 62.937089 
L 80.627273 44.225722 
L 80.712741 48.101584 
L 80.883675 55.534014 
L 80.969142 44.557849 
L 81.311011 59.129776 
L 81.396478 61.496965 
L 81.481945 51.886975 
L 81.567413 55.366106 
L 81.823814 38.585876 
L 81.909281 43.124439 
L 82.080216 50.664338 
L 82.165683 45.170491 
L 82.593019 60.06091 
L 82.934888 67.143669 
L 83.020355 62.113303 
L 83.447691 69.501444 
L 83.875027 73.169134 
L 84.302363 75.062481 
L 84.473297 59.011107 
L 84.644231 63.435119 
L 84.729698 57.35354 
L 85.157034 67.229437 
L 85.242502 55.575903 
L 85.327969 58.118082 
L 85.755305 66.991256 
L 85.926239 51.125359 
L 86.353575 63.628438 
L 86.439042 65.357282 
L 86.609977 47.827691 
L 86.695444 51.927317 
L 86.780911 47.327417 
L 87.12278 60.566674 
L 87.293714 64.578267 
L 87.379181 62.814984 
L 87.72105 68.47934 
L 87.806517 58.773864 
L 87.891984 60.940274 
L 87.977452 62.852124 
L 88.062919 52.525978 
L 88.148386 55.426534 
L 88.31932 60.245221 
L 88.404787 53.186143 
L 88.661189 61.539469 
L 88.746656 54.440757 
L 88.832123 57.502069 
L 89.003058 44.785262 
L 89.259459 56.560978 
L 89.344927 53.714962 
L 89.430394 46.099796 
L 89.601328 52.981551 
L 89.85773 33.679743 
L 90.199598 50.807925 
L 90.285066 39.325426 
L 90.626934 56.465075 
L 91.05427 66.815083 
L 91.310672 70.205863 
L 91.396139 63.191073 
L 91.481606 64.977848 
L 91.738008 69.001589 
L 91.908942 58.613112 
L 91.994409 60.798412 
L 92.079877 53.198495 
L 92.250811 58.510024 
L 92.336278 52.094283 
L 92.763614 63.76695 
L 93.19095 70.241741 
L 93.532819 73.058592 
L 93.618286 54.541194 
L 93.703753 57.583858 
L 93.874688 62.387561 
L 93.960155 55.423992 
L 94.387491 66.335955 
L 94.472958 67.691375 
L 94.558425 63.660995 
L 94.643892 65.381644 
L 94.729359 54.224239 
L 94.814827 56.925242 
L 95.242163 66.352777 
L 95.669498 71.39897 
L 95.9259 73.266296 
L 96.182302 53.395398 
L 96.609638 65.397322 
L 97.036973 71.098089 
L 97.207908 72.481455 
L 97.293375 65.179712 
L 97.378842 66.692503 
L 97.549777 69.135566 
L 97.635244 62.510601 
L 97.720711 64.392728 
L 97.977113 68.619819 
L 98.06258 67.358172 
L 98.404448 71.234923 
L 98.489916 61.205658 
L 98.575383 63.086325 
L 99.002719 69.650565 
L 99.430055 73.259855 
L 99.857391 75.119902 
L 100.284727 76.096898 
L 100.455661 57.220629 
L 100.541128 59.86217 
L 100.882997 67.167074 
L 101.053931 51.894408 
L 101.481267 64.742296 
L 101.566734 62.978225 
L 101.652202 58.005268 
L 101.908603 64.011079 
L 101.99407 56.948948 
L 102.421406 66.365465 
L 102.763275 70.767504 
L 102.848742 62.249919 
L 102.934209 64.169433 
L 103.361545 70.505891 
L 103.447012 71.322597 
L 103.617947 51.531063 
L 103.703414 42.590117 
L 103.959816 55.287255 
L 104.13075 45.379887 
L 104.216217 38.92486 
L 104.643553 56.717866 
L 105.070889 66.353457 
L 105.498225 71.594091 
L 105.925561 74.251629 
L 106.011028 74.604095 
L 106.26743 49.897145 
L 106.523831 59.562729 
L 106.609298 53.737887 
L 106.780233 59.623636 
L 106.8657 57.333329 
L 107.122102 63.549262 
L 107.293036 39.115119 
L 107.46397 47.54188 
L 107.549438 42.41493 
L 107.976773 59.2592 
L 108.062241 50.602436 
L 108.147708 54.251744 
L 108.233175 49.804629 
L 108.575044 61.815837 
L 108.660511 56.199879 
L 108.916913 63.436119 
L 109.00238 61.471788 
L 109.173314 64.95327 
L 109.344248 41.713795 
L 109.686117 55.680823 
L 109.771584 36.493112 
L 109.857052 41.277577 
L 110.027986 49.947176 
L 110.113453 44.830404 
L 110.19892 49.410213 
L 110.284388 44.927794 
L 110.626256 59.344205 
L 110.968125 66.880052 
L 111.053592 65.416973 
L 111.480928 70.898071 
L 111.908264 73.831891 
L 111.993731 53.969037 
L 112.079198 57.088782 
L 112.250133 62.019532 
L 112.3356 46.37515 
L 112.421067 50.709148 
L 112.506534 54.351918 
L 112.592002 48.924337 
L 112.762936 56.186343 
L 112.848403 49.795654 
L 112.93387 53.619661 
L 113.019338 34.926133 
L 113.104805 39.894727 
L 113.275739 48.149039 
L 113.361206 33.263861 
L 113.532141 42.984912 
L 113.617608 37.478138 
L 113.874009 49.903003 
L 113.959477 46.466426 
L 114.215878 57.438713 
L 114.47228 42.43005 
L 114.643214 36.426458 
L 114.728681 31.046967 
L 115.07055 49.211067 
L 115.156017 40.605185 
L 115.497886 55.008416 
L 115.583353 49.004124 
L 116.096156 64.895978 
L 116.181623 57.150293 
L 116.608959 67.134363 
L 116.694427 60.361468 
L 117.121763 68.645218 
L 117.292697 70.607499 
L 117.463631 62.262811 
L 117.890967 69.209769 
L 118.232836 72.357974 
L 118.40377 52.538193 
L 118.489238 55.875148 
L 118.745639 63.210272 
L 118.831106 54.249593 
L 119.258442 65.791915 
L 119.429377 68.461464 
L 119.514844 52.111894 
L 119.600311 55.554129 
L 119.685778 58.462001 
L 119.771245 56.030403 
L 120.198581 65.873803 
L 120.625917 71.142594 
L 121.053253 74.00941 
L 121.480589 75.5133 
L 121.566056 75.714468 
L 121.736991 56.367755 
L 122.164327 66.768307 
L 122.249794 68.069593 
L 122.335261 60.479165 
L 122.420728 62.650145 
L 122.506195 64.513076 
L 122.591663 58.261067 
L 122.67713 60.757384 
L 122.762597 54.528348 
L 122.848064 57.595475 
L 122.933531 54.917756 
L 123.018998 57.537269 
L 123.104466 51.235832 
L 123.446334 61.45623 
L 123.531802 51.294107 
L 123.617269 54.339411 
L 123.959138 63.517025 
L 124.044605 58.888878 
L 124.471941 67.954959 
L 124.813809 71.723135 
L 124.899277 63.868066 
L 124.984744 65.562235 
L 125.41208 71.180007 
L 125.668481 73.101699 
L 125.753948 65.718119 
L 125.839416 67.15785 
L 126.266752 71.96492 
L 126.694088 74.418809 
L 126.865022 75.034485 
L 126.950489 68.481075 
L 127.035956 69.551447 
L 127.463292 73.169326 
L 127.890628 75.045499 
L 128.317964 76.041972 
L 128.488898 76.296433 
L 128.574366 68.833305 
L 128.659833 69.85714 
L 128.7453 70.748619 
L 128.830767 63.203348 
L 128.916234 64.849279 
L 129.258103 69.713202 
L 129.514505 56.150955 
L 129.599972 58.625565 
L 129.685439 34.035343 
L 129.770906 39.108606 
L 130.112775 56.358535 
L 130.198242 51.701186 
L 130.454644 60.657719 
L 130.540111 53.328882 
L 130.711045 59.331573 
L 130.796513 44.929335 
L 130.88198 48.722521 
L 131.309316 61.962174 
L 131.565717 66.730617 
L 131.651184 49.127613 
L 131.736652 52.427488 
L 132.163988 64.945669 
L 132.249455 66.493544 
L 132.334922 54.898941 
L 132.420389 57.892218 
L 132.676791 64.483545 
L 132.762258 56.40605 
L 133.189594 66.790812 
L 133.275061 65.291859 
L 133.702397 70.831102 
L 134.129733 73.796045 
L 134.2152 74.197302 
L 134.300667 65.081119 
L 134.386134 66.612475 
L 134.471602 67.938333 
L 134.557069 59.269657 
L 134.642536 61.611672 
L 134.81347 65.349753 
L 134.984405 50.093679 
L 135.326273 61.973258 
L 135.411741 55.840469 
L 135.497208 58.70505 
L 135.582675 56.199133 
L 136.010011 65.964116 
L 136.437347 71.190935 
L 136.864683 74.034548 
L 137.121084 75.041828 
L 137.292019 58.663262 
L 137.719355 67.847123 
L 137.975756 70.892007 
L 138.061223 61.147141 
L 138.146691 63.222479 
L 138.574027 70.026293 
L 139.001362 73.420252 
L 139.428698 75.18306 
L 139.514166 75.41979 
L 139.599633 65.875821 
L 139.6851 67.292937 
L 139.856034 69.584982 
L 140.026969 58.884954 
L 140.454305 67.401733 
L 140.881641 71.960436 
L 141.308977 74.435481 
L 141.736312 75.737363 
L 142.078181 76.319875 
L 142.163648 66.06162 
L 142.249116 67.460485 
L 142.590984 71.444765 
L 142.761919 56.102208 
L 143.189255 66.64664 
L 143.445656 70.095236 
L 143.531123 61.247215 
L 143.616591 63.308973 
L 143.702058 65.079012 
L 143.787525 38.968841 
L 143.872992 43.462407 
L 144.043927 50.927547 
L 144.129394 39.430993 
L 144.300328 47.787881 
L 144.385795 41.716744 
L 144.813131 58.54603 
L 145.069533 64.890519 
L 145.155 55.469085 
L 145.240467 58.372563 
L 145.325934 42.107183 
L 145.667803 57.962894 
L 145.75327 60.506342 
L 145.838738 45.383695 
L 145.924205 49.123491 
L 146.266073 60.175031 
L 146.351541 52.566863 
L 146.607942 60.273322 
L 146.693409 50.367589 
L 147.206212 65.446605 
L 147.633548 71.132498 
L 148.060884 74.003778 
L 148.402753 75.272142 
L 148.48822 49.27587 
L 148.573688 53.161406 
L 148.915556 63.579751 
L 149.001023 49.763011 
L 149.086491 52.988226 
L 149.257425 58.346263 
L 149.342892 50.186906 
L 149.599294 58.637605 
L 149.684761 51.210088 
L 150.112097 63.671341 
L 150.368498 68.17164 
L 150.539433 48.980583 
L 150.6249 52.897638 
L 151.052236 65.182268 
L 151.308638 69.13535 
L 151.394105 64.930977 
L 151.565039 67.811184 
L 151.650506 66.494732 
L 152.077842 71.474953 
L 152.505178 74.140674 
L 152.932514 75.579513 
L 153.274383 76.225446 
L 153.445317 49.145728 
L 153.530784 53.022408 
L 153.95812 65.229787 
L 154.385456 71.012365 
L 154.556391 49.676393 
L 154.727325 39.579885 
L 154.812792 34.742492 
L 155.240128 54.479208 
L 155.667464 65.180847 
L 156.0948 71.01058 
L 156.351202 73.001213 
L 156.436669 62.247277 
L 156.522136 64.167059 
L 156.949472 70.498691 
L 157.120406 72.027003 
L 157.205873 62.211912 
L 157.291341 64.136478 
L 157.718677 70.472023 
L 157.975078 72.623568 
L 158.060545 65.436783 
L 158.146012 66.913446 
L 158.23148 68.190865 
L 158.402414 49.699618 
L 158.487881 52.932279 
L 158.915217 64.215496 
L 159.342553 70.254966 
L 159.769889 73.568757 
L 159.855356 74.005672 
L 160.197225 49.527077 
L 160.368159 56.58898 
L 160.539094 40.6118 
L 160.624561 46.006161 
L 160.795495 33.945974 
L 160.880963 17.446896 
L 161.222831 40.962208 
L 161.393766 31.818593 
L 161.735634 50.377234 
L 161.821102 44.647367 
L 161.992036 53.125674 
L 162.077503 50.718777 
L 162.16297 44.489502 
L 162.16297 44.489502 
" clip-path="url(#p604798ed9f)" style="fill: none; stroke: #1a1a1a; stroke-width: 0.9; stroke-linejoin: miter"/>
   </g>
   <g id="line2d_12">
    <path d="M 25.500938 80.206371 
L 25.586405 80.28326 
L 25.757339 77.21091 
L 26.697478 77.278264 
L 27.039347 77.468044 
L 27.808552 80.008344 
L 27.979486 80.275236 
L 28.15042 77.21091 
L 29.090559 77.250892 
L 29.517895 77.863216 
L 29.774297 78.23323 
L 30.372567 79.374651 
L 30.88537 80.242483 
L 31.056305 77.21091 
L 31.910977 77.21091 
L 32.252845 78.533322 
L 32.851116 80.24177 
L 33.02205 77.21091 
L 33.962189 77.287974 
L 35.415131 78.510873 
L 35.842467 79.040461 
L 36.269803 79.245168 
L 36.868073 79.281135 
L 37.979147 79.209895 
L 38.406483 79.522338 
L 38.577417 79.698219 
L 38.833819 80.143856 
L 39.004753 77.21091 
L 39.859425 77.21091 
L 40.62863 80.133436 
L 40.799564 77.21091 
L 41.654236 77.21091 
L 42.081572 78.310026 
L 42.508908 78.79564 
L 42.765309 79.036468 
L 43.619981 80.198011 
L 43.790916 77.21091 
L 44.645588 77.21091 
L 45.158391 78.629773 
L 45.500259 80.041521 
L 45.671194 77.21091 
L 46.525866 77.21091 
L 47.209603 78.666886 
L 47.636939 79.117798 
L 48.149742 79.296357 
L 48.918947 79.259839 
L 49.43175 79.262015 
L 49.859086 79.497914 
L 50.200955 79.64738 
L 50.542823 80.226673 
L 50.713758 77.21091 
L 51.56843 77.21091 
L 52.1667 78.799382 
L 52.850438 79.761193 
L 53.277773 80.020032 
L 53.534175 80.183717 
L 53.705109 77.21091 
L 54.559781 77.21091 
L 54.987117 78.19854 
L 55.49992 79.103036 
L 56.098191 79.89856 
L 56.525527 80.278943 
L 56.696461 77.21091 
L 57.6366 77.317611 
L 58.23487 78.749191 
L 58.662206 79.466147 
L 58.918608 80.23415 
L 59.089542 77.21091 
L 59.944214 77.21091 
L 60.713419 80.219966 
L 60.884353 77.21091 
L 61.739025 77.21091 
L 62.166361 78.308318 
L 62.935566 79.314837 
L 63.362902 79.598204 
L 63.533836 79.767549 
L 63.961172 80.182484 
L 64.217573 80.276524 
L 64.388508 77.21091 
L 65.24318 77.21091 
L 65.670516 78.436346 
L 66.097852 80.103857 
L 66.268786 77.21091 
L 67.123458 77.21091 
L 67.465327 78.019427 
L 67.892663 78.784442 
L 68.149064 79.201527 
L 68.5764 79.65031 
L 69.003736 79.950626 
L 69.17467 80.203237 
L 69.345605 77.21091 
L 70.200277 77.21091 
L 70.456678 77.937863 
L 70.884014 79.12866 
L 71.31135 79.627475 
L 71.567752 79.864253 
L 71.995088 80.270604 
L 72.166022 77.21091 
L 73.020694 77.21091 
L 73.44803 78.111786 
L 73.875366 78.515207 
L 74.559103 78.999369 
L 74.986439 79.261434 
L 75.242841 79.443036 
L 75.670177 79.847218 
L 75.841111 80.004346 
L 76.097513 80.242003 
L 76.268447 77.21091 
L 77.123119 77.21091 
L 77.635922 79.358893 
L 78.063258 80.070266 
L 78.148725 80.147794 
L 78.319659 77.21091 
L 79.174331 77.21091 
L 79.601667 79.789359 
L 79.687134 80.189426 
L 79.858069 77.21091 
L 80.712741 77.21091 
L 81.65288 80.272516 
L 81.823814 77.21091 
L 82.678486 77.21091 
L 83.362223 78.324984 
L 83.789559 78.623545 
L 84.38783 78.856435 
L 84.9861 80.078872 
L 85.157034 80.273238 
L 85.327969 77.21091 
L 86.182641 77.21091 
L 86.695444 78.644786 
L 87.037313 79.768654 
L 87.293714 80.214621 
L 87.464648 77.21091 
L 88.31932 77.21091 
L 89.259459 80.198676 
L 89.430394 77.21091 
L 90.285066 77.21091 
L 90.712402 78.714066 
L 91.139738 79.359716 
L 91.567073 79.863564 
L 91.823475 80.185805 
L 91.994409 77.21091 
L 92.849081 77.21091 
L 93.276417 77.701644 
L 93.532819 77.858535 
L 94.045622 79.20657 
L 94.472958 79.857118 
L 94.643892 80.106821 
L 94.814827 77.21091 
L 95.754966 77.274471 
L 96.011367 77.54232 
L 96.182302 77.977459 
L 96.609638 78.896779 
L 97.036973 79.283956 
L 97.293375 79.481284 
L 97.977113 80.280016 
L 98.148047 77.21091 
L 99.088186 77.293533 
L 99.600989 77.598796 
L 100.370194 77.817068 
L 100.79753 78.718099 
L 100.968464 79.042381 
L 101.310333 79.967501 
L 101.481267 80.231778 
L 101.652202 77.21091 
L 102.592341 77.31542 
L 102.934209 77.824646 
L 103.361545 78.32605 
L 103.447012 78.385521 
L 103.959816 80.259329 
L 104.13075 77.21091 
L 104.985422 77.21091 
L 105.412758 77.724561 
L 105.925561 77.988034 
L 106.096495 78.140902 
L 106.780233 80.129265 
L 106.951167 77.21091 
L 107.805839 77.21091 
L 108.916913 80.24189 
L 109.087847 77.21091 
L 109.942519 77.21091 
L 110.711723 79.89218 
L 110.968125 80.233051 
L 111.139059 77.21091 
L 111.993731 77.21091 
L 112.93387 80.266365 
L 113.104805 77.21091 
L 113.959477 77.21091 
L 114.643214 80.144652 
L 114.814148 77.21091 
L 115.66882 77.21091 
L 116.096156 78.21921 
L 116.523492 79.099037 
L 117.378164 80.183524 
L 117.549098 77.21091 
L 118.40377 77.21091 
L 119.002041 78.780668 
L 119.685778 80.124366 
L 119.856713 77.21091 
L 120.882319 77.320242 
L 121.480589 77.524827 
L 121.566056 77.539526 
L 122.67713 79.721008 
L 122.848064 80.186763 
L 123.018998 77.21091 
L 123.87367 77.21091 
L 124.557408 78.422548 
L 126.352219 79.876897 
L 128.14703 80.131689 
L 128.574366 80.112434 
L 128.7453 80.211696 
L 128.916234 77.21091 
L 129.770906 77.21091 
L 130.198242 78.816546 
L 130.711045 80.160324 
L 130.88198 77.21091 
L 131.736652 77.21091 
L 132.163988 78.21497 
L 132.334922 78.602544 
L 132.933192 79.908987 
L 133.189594 80.253116 
L 133.360528 77.21091 
L 134.2152 77.21091 
L 134.898937 78.561224 
L 135.240806 79.58085 
L 135.497208 80.176758 
L 135.668142 77.21091 
L 136.693748 77.319375 
L 137.206552 77.630491 
L 137.633888 78.476368 
L 138.744961 79.677533 
L 139.257764 79.761657 
L 139.599633 79.852782 
L 139.941502 80.243396 
L 140.112436 77.21091 
L 141.138042 77.305562 
L 141.82178 77.495744 
L 142.078181 77.522615 
L 142.505517 78.031118 
L 142.676452 78.255312 
L 143.103788 79.181072 
L 143.702058 79.946341 
L 143.872992 77.21091 
L 144.727664 77.21091 
L 145.75327 80.17087 
L 145.924205 77.21091 
L 146.778877 77.21091 
L 147.206212 78.17232 
L 147.633548 78.601094 
L 148.146352 78.786934 
L 148.402753 78.810191 
L 148.744622 79.849583 
L 148.915556 80.148308 
L 149.086491 77.21091 
L 149.941163 77.21091 
L 151.137703 79.768503 
L 151.565039 80.218878 
L 151.735973 77.21091 
L 152.932514 77.307982 
L 153.274383 77.361791 
L 153.445317 77.866916 
L 153.872653 78.957279 
L 154.299989 79.418117 
L 154.385456 79.46787 
L 154.556391 80.049745 
L 154.727325 77.21091 
L 155.581997 77.21091 
L 156.009333 77.779429 
L 156.522136 78.331797 
L 156.949472 78.802737 
L 157.205873 79.067132 
L 157.633209 79.572343 
L 158.23148 80.021016 
L 158.316947 80.183362 
L 158.487881 77.21091 
L 159.42802 77.286947 
L 159.940823 77.682879 
L 160.539094 79.848789 
L 160.624561 80.210376 
L 160.795495 77.21091 
L 161.650167 77.21091 
L 162.16297 79.296346 
L 162.16297 79.296346 
" clip-path="url(#p604798ed9f)" style="fill: none; stroke-dasharray: 0.7,1.155; stroke-dashoffset: 0; stroke: #bbbbbb; stroke-width: 0.7"/>
   </g>
   <g id="patch_3">
    <path d="M 25.500938 83.425078 
L 25.500938 14.305078 
" style="fill: none; stroke: #1a1a1a; stroke-width: 0.8; stroke-linejoin: miter; stroke-linecap: square"/>
   </g>
   <g id="patch_4">
    <path d="M 162.248438 83.425078 
L 162.248438 14.305078 
" style="fill: none; stroke: #1a1a1a; stroke-width: 0.8; stroke-linejoin: miter; stroke-linecap: square"/>
   </g>
   <g id="patch_5">
    <path d="M 25.500938 83.425078 
L 162.248438 83.425078 
" style="fill: none; stroke: #1a1a1a; stroke-width: 0.8; stroke-linejoin: miter; stroke-linecap: square"/>
   </g>
   <g id="patch_6">
    <path d="M 25.500938 14.305078 
L 162.248438 14.305078 
" style="fill: none; stroke: #1a1a1a; stroke-width: 0.8; stroke-linejoin: miter; stroke-linecap: square"/>
   </g>
   <g id="text_12">
    <!-- COBA — no recurrent loop (ei-strength = 0) — E-neuron signed currents (cell 334) -->
    <g style="fill: #1a1a1a" transform="translate(25.500938 8.305078) scale(0.085 -0.085)">
     <defs>
      <path id="Menlo-Regular-43" d="M 3353 166 
Q 3113 38 2859 -26 
Q 2606 -91 2322 -91 
Q 1425 -91 929 543 
Q 434 1178 434 2328 
Q 434 3472 932 4111 
Q 1431 4750 2322 4750 
Q 2606 4750 2859 4686 
Q 3113 4622 3353 4494 
L 3353 3847 
Q 3122 4038 2856 4138 
Q 2591 4238 2322 4238 
Q 1706 4238 1400 3763 
Q 1094 3288 1094 2328 
Q 1094 1372 1400 897 
Q 1706 422 2322 422 
Q 2597 422 2861 522 
Q 3125 622 3353 813 
L 3353 166 
z
" transform="scale(0.015625)"/>
      <path id="Menlo-Regular-4f" d="M 2828 2328 
Q 2828 3356 2617 3797 
Q 2406 4238 1925 4238 
Q 1447 4238 1236 3797 
Q 1025 3356 1025 2328 
Q 1025 1303 1236 862 
Q 1447 422 1925 422 
Q 2406 422 2617 861 
Q 2828 1300 2828 2328 
z
M 3488 2328 
Q 3488 1109 3102 509 
Q 2716 -91 1925 -91 
Q 1134 -91 750 506 
Q 366 1103 366 2328 
Q 366 3550 752 4150 
Q 1138 4750 1925 4750 
Q 2716 4750 3102 4150 
Q 3488 3550 3488 2328 
z
" transform="scale(0.015625)"/>
      <path id="Menlo-Regular-42" d="M 1153 2353 
L 1153 519 
L 1900 519 
Q 2450 519 2684 711 
Q 2919 903 2919 1344 
Q 2919 1925 2672 2139 
Q 2425 2353 1900 2353 
L 1153 2353 
z
M 1153 4147 
L 1153 2866 
L 1888 2866 
Q 2344 2866 2548 3041 
Q 2753 3216 2753 3481 
Q 2753 3834 2551 3990 
Q 2350 4147 1888 4147 
L 1153 4147 
z
M 519 4666 
L 1900 4666 
Q 2616 4666 3003 4356 
Q 3391 4047 3391 3481 
Q 3391 3178 3186 2931 
Q 2981 2684 2572 2622 
Q 3031 2553 3292 2229 
Q 3553 1906 3553 1281 
Q 3553 647 3137 323 
Q 2722 0 1900 0 
L 519 0 
L 519 4666 
z
" transform="scale(0.015625)"/>
      <path id="Menlo-Regular-41" d="M 1925 4109 
L 1259 1722 
L 2591 1722 
L 1925 4109 
z
M 1544 4666 
L 2309 4666 
L 3738 0 
L 3084 0 
L 2741 1216 
L 1106 1216 
L 769 0 
L 116 0 
L 1544 4666 
z
" transform="scale(0.015625)"/>
      <path id="Menlo-Regular-2014" d="M 0 2259 
L 3853 2259 
L 3853 1725 
L 0 1725 
L 0 2259 
z
" transform="scale(0.015625)"/>
      <path id="Menlo-Regular-63" d="M 3316 178 
Q 3084 44 2839 -23 
Q 2594 -91 2338 -91 
Q 1525 -91 1067 396 
Q 609 884 609 1747 
Q 609 2609 1067 3096 
Q 1525 3584 2338 3584 
Q 2591 3584 2831 3518 
Q 3072 3453 3316 3316 
L 3316 2713 
Q 3088 2916 2858 3006 
Q 2628 3097 2338 3097 
Q 1797 3097 1506 2747 
Q 1216 2397 1216 1747 
Q 1216 1100 1508 748 
Q 1800 397 2338 397 
Q 2638 397 2875 489 
Q 3113 581 3316 775 
L 3316 178 
z
" transform="scale(0.015625)"/>
      <path id="Menlo-Regular-75" d="M 609 1325 
L 609 3494 
L 1184 3494 
L 1184 1325 
Q 1184 853 1351 631 
Q 1519 409 1869 409 
Q 2275 409 2490 695 
Q 2706 981 2706 1516 
L 2706 3494 
L 3284 3494 
L 3284 0 
L 2706 0 
L 2706 525 
Q 2553 222 2289 65 
Q 2025 -91 1672 -91 
Q 1134 -91 871 261 
Q 609 613 609 1325 
z
" transform="scale(0.015625)"/>
      <path id="Menlo-Regular-2d" d="M 319 2263 
L 3631 2263 
L 3631 1734 
L 319 1734 
L 319 2263 
z
" transform="scale(0.015625)"/>
      <path id="Menlo-Regular-67" d="M 2681 1778 
Q 2681 2425 2470 2761 
Q 2259 3097 1856 3097 
Q 1434 3097 1212 2761 
Q 991 2425 991 1778 
Q 991 1131 1214 792 
Q 1438 453 1863 453 
Q 2259 453 2470 793 
Q 2681 1134 2681 1778 
z
M 3256 225 
Q 3256 -563 2884 -969 
Q 2513 -1375 1791 -1375 
Q 1553 -1375 1293 -1331 
Q 1034 -1288 775 -1203 
L 775 -634 
Q 1081 -778 1331 -847 
Q 1581 -916 1791 -916 
Q 2256 -916 2468 -662 
Q 2681 -409 2681 141 
L 2681 166 
L 2681 556 
Q 2544 263 2306 119 
Q 2069 -25 1728 -25 
Q 1116 -25 750 465 
Q 384 956 384 1778 
Q 384 2603 750 3093 
Q 1116 3584 1728 3584 
Q 2066 3584 2300 3450 
Q 2534 3316 2681 3034 
L 2681 3488 
L 3256 3488 
L 3256 225 
z
" transform="scale(0.015625)"/>
      <path id="Menlo-Regular-3d" d="M 275 1563 
L 3578 1563 
L 3578 1034 
L 275 1034 
L 275 1563 
z
M 275 3034 
L 3578 3034 
L 3578 2506 
L 275 2506 
L 275 3034 
z
" transform="scale(0.015625)"/>
      <path id="Menlo-Regular-45" d="M 616 4666 
L 3384 4666 
L 3384 4134 
L 1247 4134 
L 1247 2878 
L 3291 2878 
L 3291 2347 
L 1247 2347 
L 1247 531 
L 3444 531 
L 3444 0 
L 616 0 
L 616 4666 
z
" transform="scale(0.015625)"/>
     </defs>
     <use xlink:href="#Menlo-Regular-43"/>
     <use xlink:href="#Menlo-Regular-4f" transform="translate(60.205078 0)"/>
     <use xlink:href="#Menlo-Regular-42" transform="translate(120.410156 0)"/>
     <use xlink:href="#Menlo-Regular-41" transform="translate(180.615234 0)"/>
     <use xlink:href="#Menlo-Regular-20" transform="translate(240.820312 0)"/>
     <use xlink:href="#Menlo-Regular-2014" transform="translate(301.025391 0)"/>
     <use xlink:href="#Menlo-Regular-20" transform="translate(361.230469 0)"/>
     <use xlink:href="#Menlo-Regular-6e" transform="translate(421.435547 0)"/>
     <use xlink:href="#Menlo-Regular-6f" transform="translate(481.640625 0)"/>
     <use xlink:href="#Menlo-Regular-20" transform="translate(541.845703 0)"/>
     <use xlink:href="#Menlo-Regular-72" transform="translate(602.050781 0)"/>
     <use xlink:href="#Menlo-Regular-65" transform="translate(662.255859 0)"/>
     <use xlink:href="#Menlo-Regular-63" transform="translate(722.460938 0)"/>
     <use xlink:href="#Menlo-Regular-75" transform="translate(782.666016 0)"/>
     <use xlink:href="#Menlo-Regular-72" transform="translate(842.871094 0)"/>
     <use xlink:href="#Menlo-Regular-72" transform="translate(903.076172 0)"/>
     <use xlink:href="#Menlo-Regular-65" transform="translate(963.28125 0)"/>
     <use xlink:href="#Menlo-Regular-6e" transform="translate(1023.486328 0)"/>
     <use xlink:href="#Menlo-Regular-74" transform="translate(1083.691406 0)"/>
     <use xlink:href="#Menlo-Regular-20" transform="translate(1143.896484 0)"/>
     <use xlink:href="#Menlo-Regular-6c" transform="translate(1204.101562 0)"/>
     <use xlink:href="#Menlo-Regular-6f" transform="translate(1264.306641 0)"/>
     <use xlink:href="#Menlo-Regular-6f" transform="translate(1324.511719 0)"/>
     <use xlink:href="#Menlo-Regular-70" transform="translate(1384.716797 0)"/>
     <use xlink:href="#Menlo-Regular-20" transform="translate(1444.921875 0)"/>
     <use xlink:href="#Menlo-Regular-28" transform="translate(1505.126953 0)"/>
     <use xlink:href="#Menlo-Regular-65" transform="translate(1565.332031 0)"/>
     <use xlink:href="#Menlo-Regular-69" transform="translate(1625.537109 0)"/>
     <use xlink:href="#Menlo-Regular-2d" transform="translate(1685.742188 0)"/>
     <use xlink:href="#Menlo-Regular-73" transform="translate(1745.947266 0)"/>
     <use xlink:href="#Menlo-Regular-74" transform="translate(1806.152344 0)"/>
     <use xlink:href="#Menlo-Regular-72" transform="translate(1866.357422 0)"/>
     <use xlink:href="#Menlo-Regular-65" transform="translate(1926.5625 0)"/>
     <use xlink:href="#Menlo-Regular-6e" transform="translate(1986.767578 0)"/>
     <use xlink:href="#Menlo-Regular-67" transform="translate(2046.972656 0)"/>
     <use xlink:href="#Menlo-Regular-74" transform="translate(2107.177734 0)"/>
     <use xlink:href="#Menlo-Regular-68" transform="translate(2167.382812 0)"/>
     <use xlink:href="#Menlo-Regular-20" transform="translate(2227.587891 0)"/>
     <use xlink:href="#Menlo-Regular-3d" transform="translate(2287.792969 0)"/>
     <use xlink:href="#Menlo-Regular-20" transform="translate(2347.998047 0)"/>
     <use xlink:href="#Menlo-Regular-30" transform="translate(2408.203125 0)"/>
     <use xlink:href="#Menlo-Regular-29" transform="translate(2468.408203 0)"/>
     <use xlink:href="#Menlo-Regular-20" transform="translate(2528.613281 0)"/>
     <use xlink:href="#Menlo-Regular-2014" transform="translate(2588.818359 0)"/>
     <use xlink:href="#Menlo-Regular-20" transform="translate(2649.023438 0)"/>
     <use xlink:href="#Menlo-Regular-45" transform="translate(2709.228516 0)"/>
     <use xlink:href="#Menlo-Regular-2d" transform="translate(2769.433594 0)"/>
     <use xlink:href="#Menlo-Regular-6e" transform="translate(2829.638672 0)"/>
     <use xlink:href="#Menlo-Regular-65" transform="translate(2889.84375 0)"/>
     <use xlink:href="#Menlo-Regular-75" transform="translate(2950.048828 0)"/>
     <use xlink:href="#Menlo-Regular-72" transform="translate(3010.253906 0)"/>
     <use xlink:href="#Menlo-Regular-6f" transform="translate(3070.458984 0)"/>
     <use xlink:href="#Menlo-Regular-6e" transform="translate(3130.664062 0)"/>
     <use xlink:href="#Menlo-Regular-20" transform="translate(3190.869141 0)"/>
     <use xlink:href="#Menlo-Regular-73" transform="translate(3251.074219 0)"/>
     <use xlink:href="#Menlo-Regular-69" transform="translate(3311.279297 0)"/>
     <use xlink:href="#Menlo-Regular-67" transform="translate(3371.484375 0)"/>
     <use xlink:href="#Menlo-Regular-6e" transform="translate(3431.689453 0)"/>
     <use xlink:href="#Menlo-Regular-65" transform="translate(3491.894531 0)"/>
     <use xlink:href="#Menlo-Regular-64" transform="translate(3552.099609 0)"/>
     <use xlink:href="#Menlo-Regular-20" transform="translate(3612.304688 0)"/>
     <use xlink:href="#Menlo-Regular-63" transform="translate(3672.509766 0)"/>
     <use xlink:href="#Menlo-Regular-75" transform="translate(3732.714844 0)"/>
     <use xlink:href="#Menlo-Regular-72" transform="translate(3792.919922 0)"/>
     <use xlink:href="#Menlo-Regular-72" transform="translate(3853.125 0)"/>
     <use xlink:href="#Menlo-Regular-65" transform="translate(3913.330078 0)"/>
     <use xlink:href="#Menlo-Regular-6e" transform="translate(3973.535156 0)"/>
     <use xlink:href="#Menlo-Regular-74" transform="translate(4033.740234 0)"/>
     <use xlink:href="#Menlo-Regular-73" transform="translate(4093.945312 0)"/>
     <use xlink:href="#Menlo-Regular-20" transform="translate(4154.150391 0)"/>
     <use xlink:href="#Menlo-Regular-28" transform="translate(4214.355469 0)"/>
     <use xlink:href="#Menlo-Regular-63" transform="translate(4274.560547 0)"/>
     <use xlink:href="#Menlo-Regular-65" transform="translate(4334.765625 0)"/>
     <use xlink:href="#Menlo-Regular-6c" transform="translate(4394.970703 0)"/>
     <use xlink:href="#Menlo-Regular-6c" transform="translate(4455.175781 0)"/>
     <use xlink:href="#Menlo-Regular-20" transform="translate(4515.380859 0)"/>
     <use xlink:href="#Menlo-Regular-33" transform="translate(4575.585938 0)"/>
     <use xlink:href="#Menlo-Regular-33" transform="translate(4635.791016 0)"/>
     <use xlink:href="#Menlo-Regular-34" transform="translate(4695.996094 0)"/>
     <use xlink:href="#Menlo-Regular-29" transform="translate(4756.201172 0)"/>
    </g>
   </g>
   <g id="legend_1">
    <g id="patch_7">
     <path d="M 73.135156 40.898516 
L 158.748438 40.898516 
L 158.748438 17.805078 
L 73.135156 17.805078 
z
" style="fill: #ffffff; stroke: #1a1a1a; stroke-width: 0.8; stroke-linejoin: miter"/>
    </g>
    <g id="line2d_13">
     <path d="M 75.935156 23.808672 
L 81.535156 23.808672 
L 87.135156 23.808672 
" style="fill: none; stroke: #1a1a1a; stroke-width: 0.9; stroke-linejoin: miter"/>
    </g>
    <g id="text_13">
     <!-- I_E in (depol.) -->
     <g style="fill: #1a1a1a" transform="translate(92.735156 26.258672) scale(0.07 -0.07)">
      <defs>
       <path id="Menlo-Regular-5f" d="M 3825 -594 
L 3825 -1125 
L 0 -1125 
L 0 -594 
L 3825 -594 
z
" transform="scale(0.015625)"/>
      </defs>
      <use xlink:href="#Menlo-Regular-49"/>
      <use xlink:href="#Menlo-Regular-5f" transform="translate(60.205078 0)"/>
      <use xlink:href="#Menlo-Regular-45" transform="translate(120.410156 0)"/>
      <use xlink:href="#Menlo-Regular-20" transform="translate(180.615234 0)"/>
      <use xlink:href="#Menlo-Regular-69" transform="translate(240.820312 0)"/>
      <use xlink:href="#Menlo-Regular-6e" transform="translate(301.025391 0)"/>
      <use xlink:href="#Menlo-Regular-20" transform="translate(361.230469 0)"/>
      <use xlink:href="#Menlo-Regular-28" transform="translate(421.435547 0)"/>
      <use xlink:href="#Menlo-Regular-64" transform="translate(481.640625 0)"/>
      <use xlink:href="#Menlo-Regular-65" transform="translate(541.845703 0)"/>
      <use xlink:href="#Menlo-Regular-70" transform="translate(602.050781 0)"/>
      <use xlink:href="#Menlo-Regular-6f" transform="translate(662.255859 0)"/>
      <use xlink:href="#Menlo-Regular-6c" transform="translate(722.460938 0)"/>
      <use xlink:href="#Menlo-Regular-2e" transform="translate(782.666016 0)"/>
      <use xlink:href="#Menlo-Regular-29" transform="translate(842.871094 0)"/>
     </g>
    </g>
    <g id="line2d_14">
     <path d="M 75.935156 34.192734 
L 81.535156 34.192734 
L 87.135156 34.192734 
" style="fill: none; stroke-dasharray: 0.7,1.155; stroke-dashoffset: 0; stroke: #bbbbbb; stroke-width: 0.7"/>
    </g>
    <g id="text_14">
     <!-- I_L in (leak) -->
     <g style="fill: #1a1a1a" transform="translate(92.735156 36.642734) scale(0.07 -0.07)">
      <defs>
       <path id="Menlo-Regular-4c" d="M 672 4666 
L 1306 4666 
L 1306 531 
L 3559 531 
L 3559 0 
L 672 0 
L 672 4666 
z
" transform="scale(0.015625)"/>
       <path id="Menlo-Regular-61" d="M 2194 1759 
L 2003 1759 
Q 1500 1759 1245 1582 
Q 991 1406 991 1056 
Q 991 741 1181 566 
Q 1372 391 1709 391 
Q 2184 391 2456 720 
Q 2728 1050 2731 1631 
L 2731 1759 
L 2194 1759 
z
M 3309 1997 
L 3309 0 
L 2731 0 
L 2731 519 
Q 2547 206 2267 57 
Q 1988 -91 1588 -91 
Q 1053 -91 734 211 
Q 416 513 416 1019 
Q 416 1603 808 1906 
Q 1200 2209 1959 2209 
L 2731 2209 
L 2731 2300 
Q 2728 2719 2518 2908 
Q 2309 3097 1850 3097 
Q 1556 3097 1256 3012 
Q 956 2928 672 2766 
L 672 3341 
Q 991 3463 1283 3523 
Q 1575 3584 1850 3584 
Q 2284 3584 2592 3456 
Q 2900 3328 3091 3072 
Q 3209 2916 3259 2686 
Q 3309 2456 3309 1997 
z
" transform="scale(0.015625)"/>
       <path id="Menlo-Regular-6b" d="M 738 4863 
L 1331 4863 
L 1331 2047 
L 2841 3500 
L 3541 3500 
L 2163 2181 
L 3756 0 
L 3053 0 
L 1759 1806 
L 1331 1403 
L 1331 0 
L 738 0 
L 738 4863 
z
" transform="scale(0.015625)"/>
      </defs>
      <use xlink:href="#Menlo-Regular-49"/>
      <use xlink:href="#Menlo-Regular-5f" transform="translate(60.205078 0)"/>
      <use xlink:href="#Menlo-Regular-4c" transform="translate(120.410156 0)"/>
      <use xlink:href="#Menlo-Regular-20" transform="translate(180.615234 0)"/>
      <use xlink:href="#Menlo-Regular-69" transform="translate(240.820312 0)"/>
      <use xlink:href="#Menlo-Regular-6e" transform="translate(301.025391 0)"/>
      <use xlink:href="#Menlo-Regular-20" transform="translate(361.230469 0)"/>
      <use xlink:href="#Menlo-Regular-28" transform="translate(421.435547 0)"/>
      <use xlink:href="#Menlo-Regular-6c" transform="translate(481.640625 0)"/>
      <use xlink:href="#Menlo-Regular-65" transform="translate(541.845703 0)"/>
      <use xlink:href="#Menlo-Regular-61" transform="translate(602.050781 0)"/>
      <use xlink:href="#Menlo-Regular-6b" transform="translate(662.255859 0)"/>
      <use xlink:href="#Menlo-Regular-29" transform="translate(722.460938 0)"/>
     </g>
    </g>
   </g>
  </g>
 </g>
 <defs>
  <clipPath id="p604798ed9f">
   <rect x="25.500938" y="14.305078" width="136.7475" height="69.12"/>
  </clipPath>
 </defs>
</svg>
