<?xml version="1.0" encoding="utf-8" standalone="no"?>
<!DOCTYPE svg PUBLIC "-//W3C//DTD SVG 1.1//EN"
  "http://www.w3.org/Graphics/SVG/1.1/DTD/svg11.dtd">
<svg xmlns:xlink="http://www.w3.org/1999/xlink" width="274.117265pt" height="148.460625pt" viewBox="0 0 274.117265 148.460625" xmlns="http://www.w3.org/2000/svg" version="1.1">
 <metadata>
  <rdf:RDF xmlns:dc="http://purl.org/dc/elements/1.1/" xmlns:cc="http://creativecommons.org/ns#" xmlns:rdf="http://www.w3.org/1999/02/22-rdf-syntax-ns#">
   <cc:Work>
    <dc:type rdf:resource="http://purl.org/dc/dcmitype/StillImage"/>
    <dc:date>2026-07-02T13:59:02.005089</dc:date>
    <dc:format>image/svg+xml</dc:format>
    <dc:creator>
     <cc:Agent>
      <dc:title>Matplotlib v3.10.8, https://matplotlib.org/</dc:title>
     </cc:Agent>
    </dc:creator>
   </cc:Work>
  </rdf:RDF>
 </metadata>
 <defs>
  <style type="text/css">*{stroke-linejoin: round; stroke-linecap: butt}</style>
 </defs>
 <g id="figure_1">
  <g id="patch_1">
   <path d="M 0 148.460625 
L 274.117265 148.460625 
L 274.117265 0 
L 0 0 
z
" style="fill: #ffffff"/>
  </g>
  <g id="axes_1">
   <g id="patch_2">
    <path d="M 25.500938 124.96125 
L 266.355941 124.96125 
L 266.355941 13.90125 
L 25.500938 13.90125 
z
" style="fill: #ffffff"/>
   </g>
   <g id="matplotlib.axis_1">
    <g id="xtick_1">
     <g id="line2d_1">
      <defs>
       <path id="ma789f5127c" d="M 0 0 
L 0 -3 
" style="stroke: #1a1a1a; stroke-width: 0.8"/>
      </defs>
      <g>
       <use xlink:href="#ma789f5127c" x="25.500938" y="124.96125" style="fill: #1a1a1a; stroke: #1a1a1a; stroke-width: 0.8"/>
      </g>
     </g>
     <g id="text_1">
      <!-- 0 -->
      <g style="fill: #1a1a1a" transform="translate(23.393828 133.799844) scale(0.07 -0.07)">
       <defs>
        <path id="Menlo-Regular-30" d="M 1925 4734 
Q 2672 4734 3055 4125 
Q 3438 3516 3438 2322 
Q 3438 1128 3055 518 
Q 2672 -91 1925 -91 
Q 1178 -91 797 518 
Q 416 1128 416 2322 
Q 416 3516 797 4125 
Q 1178 4734 1925 4734 
z
M 1925 409 
Q 2369 409 2586 881 
Q 2803 1353 2803 2322 
Q 2803 2838 2741 3253 
L 1253 925 
Q 1488 409 1925 409 
z
M 1925 4234 
Q 1484 4234 1267 3762 
Q 1050 3291 1050 2322 
Q 1050 1881 1109 1497 
L 2566 3819 
Q 2328 4234 1925 4234 
z
" transform="scale(0.015625)"/>
       </defs>
       <use xlink:href="#Menlo-Regular-30"/>
      </g>
     </g>
    </g>
    <g id="xtick_2">
     <g id="line2d_2">
      <g>
       <use xlink:href="#ma789f5127c" x="55.607812" y="124.96125" style="fill: #1a1a1a; stroke: #1a1a1a; stroke-width: 0.8"/>
      </g>
     </g>
     <g id="text_2">
      <!-- 50 -->
      <g style="fill: #1a1a1a" transform="translate(51.393594 133.799844) scale(0.07 -0.07)">
       <defs>
        <path id="Menlo-Regular-35" d="M 647 4666 
L 3009 4666 
L 3009 4134 
L 1222 4134 
L 1222 2988 
Q 1356 3038 1492 3061 
Q 1628 3084 1766 3084 
Q 2491 3084 2916 2656 
Q 3341 2228 3341 1497 
Q 3341 759 2895 334 
Q 2450 -91 1678 -91 
Q 1306 -91 998 -41 
Q 691 9 447 109 
L 447 750 
Q 734 594 1025 517 
Q 1316 441 1619 441 
Q 2141 441 2423 716 
Q 2706 991 2706 1497 
Q 2706 1997 2414 2275 
Q 2122 2553 1600 2553 
Q 1347 2553 1106 2495 
Q 866 2438 647 2322 
L 647 4666 
z
" transform="scale(0.015625)"/>
       </defs>
       <use xlink:href="#Menlo-Regular-35"/>
       <use xlink:href="#Menlo-Regular-30" transform="translate(60.205078 0)"/>
      </g>
     </g>
    </g>
    <g id="xtick_3">
     <g id="line2d_3">
      <g>
       <use xlink:href="#ma789f5127c" x="85.714687" y="124.96125" style="fill: #1a1a1a; stroke: #1a1a1a; stroke-width: 0.8"/>
      </g>
     </g>
     <g id="text_3">
      <!-- 100 -->
      <g style="fill: #1a1a1a" transform="translate(79.393359 133.799844) scale(0.07 -0.07)">
       <defs>
        <path id="Menlo-Regular-31" d="M 844 528 
L 1825 528 
L 1825 4053 
L 650 3488 
L 650 4094 
L 1819 4650 
L 2450 4650 
L 2450 528 
L 3419 528 
L 3419 0 
L 844 0 
L 844 528 
z
" transform="scale(0.015625)"/>
       </defs>
       <use xlink:href="#Menlo-Regular-31"/>
       <use xlink:href="#Menlo-Regular-30" transform="translate(60.205078 0)"/>
       <use xlink:href="#Menlo-Regular-30" transform="translate(120.410156 0)"/>
      </g>
     </g>
    </g>
    <g id="xtick_4">
     <g id="line2d_4">
      <g>
       <use xlink:href="#ma789f5127c" x="115.821562" y="124.96125" style="fill: #1a1a1a; stroke: #1a1a1a; stroke-width: 0.8"/>
      </g>
     </g>
     <g id="text_4">
      <!-- 150 -->
      <g style="fill: #1a1a1a" transform="translate(109.500234 133.799844) scale(0.07 -0.07)">
       <use xlink:href="#Menlo-Regular-31"/>
       <use xlink:href="#Menlo-Regular-35" transform="translate(60.205078 0)"/>
       <use xlink:href="#Menlo-Regular-30" transform="translate(120.410156 0)"/>
      </g>
     </g>
    </g>
    <g id="xtick_5">
     <g id="line2d_5">
      <g>
       <use xlink:href="#ma789f5127c" x="145.928437" y="124.96125" style="fill: #1a1a1a; stroke: #1a1a1a; stroke-width: 0.8"/>
      </g>
     </g>
     <g id="text_5">
      <!-- 200 -->
      <g style="fill: #1a1a1a" transform="translate(139.607109 133.799844) scale(0.07 -0.07)">
       <defs>
        <path id="Menlo-Regular-32" d="M 1166 531 
L 3309 531 
L 3309 0 
L 475 0 
L 475 531 
Q 1059 1147 1496 1619 
Q 1934 2091 2100 2284 
Q 2413 2666 2522 2902 
Q 2631 3138 2631 3384 
Q 2631 3775 2401 3997 
Q 2172 4219 1772 4219 
Q 1488 4219 1175 4116 
Q 863 4013 513 3803 
L 513 4441 
Q 834 4594 1145 4672 
Q 1456 4750 1759 4750 
Q 2444 4750 2861 4386 
Q 3278 4022 3278 3431 
Q 3278 3131 3139 2831 
Q 3000 2531 2688 2169 
Q 2513 1966 2180 1606 
Q 1847 1247 1166 531 
z
" transform="scale(0.015625)"/>
       </defs>
       <use xlink:href="#Menlo-Regular-32"/>
       <use xlink:href="#Menlo-Regular-30" transform="translate(60.205078 0)"/>
       <use xlink:href="#Menlo-Regular-30" transform="translate(120.410156 0)"/>
      </g>
     </g>
    </g>
    <g id="xtick_6">
     <g id="line2d_6">
      <g>
       <use xlink:href="#ma789f5127c" x="176.035312" y="124.96125" style="fill: #1a1a1a; stroke: #1a1a1a; stroke-width: 0.8"/>
      </g>
     </g>
     <g id="text_6">
      <!-- 250 -->
      <g style="fill: #1a1a1a" transform="translate(169.713984 133.799844) scale(0.07 -0.07)">
       <use xlink:href="#Menlo-Regular-32"/>
       <use xlink:href="#Menlo-Regular-35" transform="translate(60.205078 0)"/>
       <use xlink:href="#Menlo-Regular-30" transform="translate(120.410156 0)"/>
      </g>
     </g>
    </g>
    <g id="xtick_7">
     <g id="line2d_7">
      <g>
       <use xlink:href="#ma789f5127c" x="206.142187" y="124.96125" style="fill: #1a1a1a; stroke: #1a1a1a; stroke-width: 0.8"/>
      </g>
     </g>
     <g id="text_7">
      <!-- 300 -->
      <g style="fill: #1a1a1a" transform="translate(199.820859 133.799844) scale(0.07 -0.07)">
       <defs>
        <path id="Menlo-Regular-33" d="M 2425 2497 
Q 2884 2375 3128 2064 
Q 3372 1753 3372 1288 
Q 3372 644 2939 276 
Q 2506 -91 1741 -91 
Q 1419 -91 1084 -31 
Q 750 28 428 141 
L 428 769 
Q 747 603 1056 522 
Q 1366 441 1672 441 
Q 2191 441 2469 675 
Q 2747 909 2747 1350 
Q 2747 1756 2469 1995 
Q 2191 2234 1716 2234 
L 1234 2234 
L 1234 2753 
L 1716 2753 
Q 2150 2753 2394 2943 
Q 2638 3134 2638 3475 
Q 2638 3834 2411 4026 
Q 2184 4219 1766 4219 
Q 1488 4219 1191 4156 
Q 894 4094 569 3969 
L 569 4550 
Q 947 4650 1242 4700 
Q 1538 4750 1766 4750 
Q 2447 4750 2855 4408 
Q 3263 4066 3263 3500 
Q 3263 3116 3048 2859 
Q 2834 2603 2425 2497 
z
" transform="scale(0.015625)"/>
       </defs>
       <use xlink:href="#Menlo-Regular-33"/>
       <use xlink:href="#Menlo-Regular-30" transform="translate(60.205078 0)"/>
       <use xlink:href="#Menlo-Regular-30" transform="translate(120.410156 0)"/>
      </g>
     </g>
    </g>
    <g id="xtick_8">
     <g id="line2d_8">
      <g>
       <use xlink:href="#ma789f5127c" x="236.249062" y="124.96125" style="fill: #1a1a1a; stroke: #1a1a1a; stroke-width: 0.8"/>
      </g>
     </g>
     <g id="text_8">
      <!-- 350 -->
      <g style="fill: #1a1a1a" transform="translate(229.927734 133.799844) scale(0.07 -0.07)">
       <use xlink:href="#Menlo-Regular-33"/>
       <use xlink:href="#Menlo-Regular-35" transform="translate(60.205078 0)"/>
       <use xlink:href="#Menlo-Regular-30" transform="translate(120.410156 0)"/>
      </g>
     </g>
    </g>
    <g id="xtick_9">
     <g id="line2d_9">
      <g>
       <use xlink:href="#ma789f5127c" x="266.355937" y="124.96125" style="fill: #1a1a1a; stroke: #1a1a1a; stroke-width: 0.8"/>
      </g>
     </g>
     <g id="text_9">
      <!-- 400 -->
      <g style="fill: #1a1a1a" transform="translate(260.034609 133.799844) scale(0.07 -0.07)">
       <defs>
        <path id="Menlo-Regular-34" d="M 2297 4091 
L 825 1625 
L 2297 1625 
L 2297 4091 
z
M 2194 4666 
L 2925 4666 
L 2925 1625 
L 3547 1625 
L 3547 1113 
L 2925 1113 
L 2925 0 
L 2297 0 
L 2297 1113 
L 319 1113 
L 319 1709 
L 2194 4666 
z
" transform="scale(0.015625)"/>
       </defs>
       <use xlink:href="#Menlo-Regular-34"/>
       <use xlink:href="#Menlo-Regular-30" transform="translate(60.205078 0)"/>
       <use xlink:href="#Menlo-Regular-30" transform="translate(120.410156 0)"/>
      </g>
     </g>
    </g>
    <g id="text_10">
     <!-- time (ms) -->
     <g style="fill: #1a1a1a" transform="translate(124.255314 145.356875) scale(0.08 -0.08)">
      <defs>
       <path id="Menlo-Regular-74" d="M 1919 4494 
L 1919 3500 
L 3225 3500 
L 3225 3053 
L 1919 3053 
L 1919 1153 
Q 1919 766 2066 612 
Q 2213 459 2578 459 
L 3225 459 
L 3225 0 
L 2522 0 
Q 1875 0 1609 259 
Q 1344 519 1344 1153 
L 1344 3053 
L 409 3053 
L 409 3500 
L 1344 3500 
L 1344 4494 
L 1919 4494 
z
" transform="scale(0.015625)"/>
       <path id="Menlo-Regular-69" d="M 988 3488 
L 2459 3488 
L 2459 447 
L 3600 447 
L 3600 0 
L 744 0 
L 744 447 
L 1884 447 
L 1884 3041 
L 988 3041 
L 988 3488 
z
M 1884 4847 
L 2459 4847 
L 2459 4122 
L 1884 4122 
L 1884 4847 
z
" transform="scale(0.015625)"/>
       <path id="Menlo-Regular-6d" d="M 2113 3144 
Q 2219 3369 2383 3476 
Q 2547 3584 2778 3584 
Q 3200 3584 3373 3257 
Q 3547 2931 3547 2028 
L 3547 0 
L 3022 0 
L 3022 2003 
Q 3022 2744 2939 2923 
Q 2856 3103 2638 3103 
Q 2388 3103 2295 2911 
Q 2203 2719 2203 2003 
L 2203 0 
L 1678 0 
L 1678 2003 
Q 1678 2753 1589 2928 
Q 1500 3103 1269 3103 
Q 1041 3103 952 2911 
Q 863 2719 863 2003 
L 863 0 
L 341 0 
L 341 3500 
L 863 3500 
L 863 3200 
Q 966 3388 1120 3486 
Q 1275 3584 1472 3584 
Q 1709 3584 1867 3475 
Q 2025 3366 2113 3144 
z
" transform="scale(0.015625)"/>
       <path id="Menlo-Regular-65" d="M 3500 2038 
L 3500 1756 
L 1009 1756 
L 1009 1738 
Q 984 1022 1282 709 
Q 1581 397 2125 397 
Q 2400 397 2700 484 
Q 3000 572 3341 750 
L 3341 178 
Q 3013 44 2708 -23 
Q 2403 -91 2119 -91 
Q 1303 -91 843 398 
Q 384 888 384 1747 
Q 384 2584 834 3084 
Q 1284 3584 2034 3584 
Q 2703 3584 3089 3131 
Q 3475 2678 3500 2038 
z
M 2925 2206 
Q 2888 2569 2661 2833 
Q 2434 3097 2009 3097 
Q 1594 3097 1325 2822 
Q 1056 2547 1031 2203 
L 2925 2206 
z
" transform="scale(0.015625)"/>
       <path id="Menlo-Regular-20" transform="scale(0.015625)"/>
       <path id="Menlo-Regular-28" d="M 2672 5169 
Q 2256 4456 2051 3748 
Q 1847 3041 1847 2322 
Q 1847 1606 2051 897 
Q 2256 188 2672 -531 
L 2172 -531 
Q 1700 213 1469 917 
Q 1238 1622 1238 2322 
Q 1238 3019 1469 3725 
Q 1700 4431 2172 5169 
L 2672 5169 
z
" transform="scale(0.015625)"/>
       <path id="Menlo-Regular-73" d="M 3041 3378 
L 3041 2816 
Q 2794 2959 2544 3031 
Q 2294 3103 2034 3103 
Q 1644 3103 1451 2976 
Q 1259 2850 1259 2591 
Q 1259 2356 1403 2240 
Q 1547 2125 2119 2016 
L 2350 1972 
Q 2778 1891 2998 1647 
Q 3219 1403 3219 1013 
Q 3219 494 2850 201 
Q 2481 -91 1825 -91 
Q 1566 -91 1281 -36 
Q 997 19 666 128 
L 666 722 
Q 988 556 1281 473 
Q 1575 391 1838 391 
Q 2219 391 2428 545 
Q 2638 700 2638 978 
Q 2638 1378 1872 1531 
L 1847 1538 
L 1631 1581 
Q 1134 1678 906 1908 
Q 678 2138 678 2534 
Q 678 3038 1018 3311 
Q 1359 3584 1991 3584 
Q 2272 3584 2531 3532 
Q 2791 3481 3041 3378 
z
" transform="scale(0.015625)"/>
       <path id="Menlo-Regular-29" d="M 1088 5169 
L 1588 5169 
Q 2059 4431 2290 3725 
Q 2522 3019 2522 2322 
Q 2522 1619 2290 912 
Q 2059 206 1588 -531 
L 1088 -531 
Q 1503 194 1708 903 
Q 1913 1613 1913 2322 
Q 1913 3034 1708 3743 
Q 1503 4453 1088 5169 
z
" transform="scale(0.015625)"/>
      </defs>
      <use xlink:href="#Menlo-Regular-74"/>
      <use xlink:href="#Menlo-Regular-69" transform="translate(60.205078 0)"/>
      <use xlink:href="#Menlo-Regular-6d" transform="translate(120.410156 0)"/>
      <use xlink:href="#Menlo-Regular-65" transform="translate(180.615234 0)"/>
      <use xlink:href="#Menlo-Regular-20" transform="translate(240.820312 0)"/>
      <use xlink:href="#Menlo-Regular-28" transform="translate(301.025391 0)"/>
      <use xlink:href="#Menlo-Regular-6d" transform="translate(361.230469 0)"/>
      <use xlink:href="#Menlo-Regular-73" transform="translate(421.435547 0)"/>
      <use xlink:href="#Menlo-Regular-29" transform="translate(481.640625 0)"/>
     </g>
    </g>
   </g>
   <g id="matplotlib.axis_2">
    <g id="ytick_1">
     <g id="line2d_10">
      <defs>
       <path id="m91c05087f9" d="M 0 0 
L 3 0 
" style="stroke: #1a1a1a; stroke-width: 0.8"/>
      </defs>
      <g>
       <use xlink:href="#m91c05087f9" x="25.500938" y="124.668234" style="fill: #1a1a1a; stroke: #1a1a1a; stroke-width: 0.8"/>
      </g>
     </g>
     <g id="text_11">
      <!-- −1 -->
      <g style="fill: #1a1a1a" transform="translate(13.5725 127.337531) scale(0.07 -0.07)">
       <defs>
        <path id="Menlo-Regular-2212" d="M 275 2272 
L 3578 2272 
L 3578 1741 
L 275 1741 
L 275 2272 
z
" transform="scale(0.015625)"/>
       </defs>
       <use xlink:href="#Menlo-Regular-2212"/>
       <use xlink:href="#Menlo-Regular-31" transform="translate(60.205078 0)"/>
      </g>
     </g>
    </g>
    <g id="ytick_2">
     <g id="line2d_11">
      <g>
       <use xlink:href="#m91c05087f9" x="25.500938" y="105.671848" style="fill: #1a1a1a; stroke: #1a1a1a; stroke-width: 0.8"/>
      </g>
     </g>
     <g id="text_12">
      <!-- 0 -->
      <g style="fill: #1a1a1a" transform="translate(17.786719 108.341145) scale(0.07 -0.07)">
       <use xlink:href="#Menlo-Regular-30"/>
      </g>
     </g>
    </g>
    <g id="ytick_3">
     <g id="line2d_12">
      <g>
       <use xlink:href="#m91c05087f9" x="25.500938" y="86.675462" style="fill: #1a1a1a; stroke: #1a1a1a; stroke-width: 0.8"/>
      </g>
     </g>
     <g id="text_13">
      <!-- 1 -->
      <g style="fill: #1a1a1a" transform="translate(17.786719 89.344759) scale(0.07 -0.07)">
       <use xlink:href="#Menlo-Regular-31"/>
      </g>
     </g>
    </g>
    <g id="ytick_4">
     <g id="line2d_13">
      <g>
       <use xlink:href="#m91c05087f9" x="25.500938" y="67.679076" style="fill: #1a1a1a; stroke: #1a1a1a; stroke-width: 0.8"/>
      </g>
     </g>
     <g id="text_14">
      <!-- 2 -->
      <g style="fill: #1a1a1a" transform="translate(17.786719 70.348373) scale(0.07 -0.07)">
       <use xlink:href="#Menlo-Regular-32"/>
      </g>
     </g>
    </g>
    <g id="ytick_5">
     <g id="line2d_14">
      <g>
       <use xlink:href="#m91c05087f9" x="25.500938" y="48.68269" style="fill: #1a1a1a; stroke: #1a1a1a; stroke-width: 0.8"/>
      </g>
     </g>
     <g id="text_15">
      <!-- 3 -->
      <g style="fill: #1a1a1a" transform="translate(17.786719 51.351987) scale(0.07 -0.07)">
       <use xlink:href="#Menlo-Regular-33"/>
      </g>
     </g>
    </g>
    <g id="ytick_6">
     <g id="line2d_15">
      <g>
       <use xlink:href="#m91c05087f9" x="25.500938" y="29.686304" style="fill: #1a1a1a; stroke: #1a1a1a; stroke-width: 0.8"/>
      </g>
     </g>
     <g id="text_16">
      <!-- 4 -->
      <g style="fill: #1a1a1a" transform="translate(17.786719 32.355601) scale(0.07 -0.07)">
       <use xlink:href="#Menlo-Regular-34"/>
      </g>
     </g>
    </g>
    <g id="text_17">
     <!-- I in  [+ depol. / − hyperpol.] -->
     <g style="fill: #1a1a1a" transform="translate(7.90875 141.675) rotate(-90) scale(0.08 -0.08)">
      <defs>
       <path id="Menlo-Regular-49" d="M 628 4666 
L 3219 4666 
L 3219 4134 
L 2241 4134 
L 2241 531 
L 3219 531 
L 3219 0 
L 628 0 
L 628 531 
L 1606 531 
L 1606 4134 
L 628 4134 
L 628 4666 
z
" transform="scale(0.015625)"/>
       <path id="Menlo-Regular-6e" d="M 3284 2169 
L 3284 0 
L 2706 0 
L 2706 2169 
Q 2706 2641 2540 2862 
Q 2375 3084 2022 3084 
Q 1619 3084 1401 2798 
Q 1184 2513 1184 1978 
L 1184 0 
L 609 0 
L 609 3500 
L 1184 3500 
L 1184 2975 
Q 1338 3275 1600 3429 
Q 1863 3584 2222 3584 
Q 2756 3584 3020 3232 
Q 3284 2881 3284 2169 
z
" transform="scale(0.015625)"/>
       <path id="Menlo-Regular-5b" d="M 1759 5175 
L 3084 5175 
L 3084 4728 
L 2334 4728 
L 2334 -84 
L 3084 -84 
L 3084 -531 
L 1759 -531 
L 1759 5175 
z
" transform="scale(0.015625)"/>
       <path id="Menlo-Regular-2b" d="M 2250 3681 
L 2250 2297 
L 3641 2297 
L 3641 1769 
L 2250 1769 
L 2250 384 
L 1725 384 
L 1725 1769 
L 338 1769 
L 338 2297 
L 1725 2297 
L 1725 3681 
L 2250 3681 
z
" transform="scale(0.015625)"/>
       <path id="Menlo-Regular-64" d="M 2681 3053 
L 2681 4863 
L 3256 4863 
L 3256 0 
L 2681 0 
L 2681 441 
Q 2538 181 2298 45 
Q 2059 -91 1747 -91 
Q 1113 -91 748 401 
Q 384 894 384 1759 
Q 384 2613 750 3098 
Q 1116 3584 1747 3584 
Q 2063 3584 2303 3448 
Q 2544 3313 2681 3053 
z
M 991 1747 
Q 991 1078 1203 737 
Q 1416 397 1831 397 
Q 2247 397 2464 740 
Q 2681 1084 2681 1747 
Q 2681 2413 2464 2755 
Q 2247 3097 1831 3097 
Q 1416 3097 1203 2756 
Q 991 2416 991 1747 
z
" transform="scale(0.015625)"/>
       <path id="Menlo-Regular-70" d="M 1172 441 
L 1172 -1331 
L 594 -1331 
L 594 3500 
L 1172 3500 
L 1172 3053 
Q 1316 3313 1555 3448 
Q 1794 3584 2106 3584 
Q 2741 3584 3102 3093 
Q 3463 2603 3463 1734 
Q 3463 881 3100 395 
Q 2738 -91 2106 -91 
Q 1788 -91 1548 45 
Q 1309 181 1172 441 
z
M 2859 1747 
Q 2859 2416 2648 2756 
Q 2438 3097 2022 3097 
Q 1603 3097 1387 2755 
Q 1172 2413 1172 1747 
Q 1172 1084 1387 740 
Q 1603 397 2022 397 
Q 2438 397 2648 737 
Q 2859 1078 2859 1747 
z
" transform="scale(0.015625)"/>
       <path id="Menlo-Regular-6f" d="M 1925 3097 
Q 1488 3097 1263 2756 
Q 1038 2416 1038 1747 
Q 1038 1081 1263 739 
Q 1488 397 1925 397 
Q 2366 397 2591 739 
Q 2816 1081 2816 1747 
Q 2816 2416 2591 2756 
Q 2366 3097 1925 3097 
z
M 1925 3584 
Q 2653 3584 3039 3112 
Q 3425 2641 3425 1747 
Q 3425 850 3040 379 
Q 2656 -91 1925 -91 
Q 1197 -91 812 379 
Q 428 850 428 1747 
Q 428 2641 812 3112 
Q 1197 3584 1925 3584 
z
" transform="scale(0.015625)"/>
       <path id="Menlo-Regular-6c" d="M 2247 1266 
Q 2247 878 2389 681 
Q 2531 484 2809 484 
L 3481 484 
L 3481 0 
L 2753 0 
Q 2238 0 1955 329 
Q 1672 659 1672 1266 
L 1672 4431 
L 750 4431 
L 750 4881 
L 2247 4881 
L 2247 1266 
z
" transform="scale(0.015625)"/>
       <path id="Menlo-Regular-2e" d="M 1216 1263 
L 2316 1263 
L 2316 0 
L 1216 0 
L 1216 1263 
z
" transform="scale(0.015625)"/>
       <path id="Menlo-Regular-2f" d="M 2778 4666 
L 3372 4666 
L 916 -594 
L 319 -594 
L 2778 4666 
z
" transform="scale(0.015625)"/>
       <path id="Menlo-Regular-68" d="M 3284 2169 
L 3284 0 
L 2706 0 
L 2706 2169 
Q 2706 2641 2540 2862 
Q 2375 3084 2022 3084 
Q 1619 3084 1401 2798 
Q 1184 2513 1184 1978 
L 1184 0 
L 609 0 
L 609 4863 
L 1184 4863 
L 1184 2975 
Q 1338 3275 1600 3429 
Q 1863 3584 2222 3584 
Q 2756 3584 3020 3232 
Q 3284 2881 3284 2169 
z
" transform="scale(0.015625)"/>
       <path id="Menlo-Regular-79" d="M 2681 1125 
Q 2538 759 2316 163 
Q 2006 -663 1900 -844 
Q 1756 -1088 1540 -1209 
Q 1325 -1331 1038 -1331 
L 575 -1331 
L 575 -850 
L 916 -850 
Q 1169 -850 1312 -703 
Q 1456 -556 1678 56 
L 325 3500 
L 934 3500 
L 1972 763 
L 2994 3500 
L 3603 3500 
L 2681 1125 
z
" transform="scale(0.015625)"/>
       <path id="Menlo-Regular-72" d="M 3609 2778 
Q 3425 2922 3234 2987 
Q 3044 3053 2816 3053 
Q 2278 3053 1993 2715 
Q 1709 2378 1709 1741 
L 1709 0 
L 1131 0 
L 1131 3500 
L 1709 3500 
L 1709 2816 
Q 1853 3188 2151 3386 
Q 2450 3584 2859 3584 
Q 3072 3584 3256 3531 
Q 3441 3478 3609 3366 
L 3609 2778 
z
" transform="scale(0.015625)"/>
       <path id="Menlo-Regular-5d" d="M 2250 5175 
L 2250 -531 
L 925 -531 
L 925 -84 
L 1675 -84 
L 1675 4728 
L 925 4728 
L 925 5175 
L 2250 5175 
z
" transform="scale(0.015625)"/>
      </defs>
      <use xlink:href="#Menlo-Regular-49"/>
      <use xlink:href="#Menlo-Regular-20" transform="translate(60.205078 0)"/>
      <use xlink:href="#Menlo-Regular-69" transform="translate(120.410156 0)"/>
      <use xlink:href="#Menlo-Regular-6e" transform="translate(180.615234 0)"/>
      <use xlink:href="#Menlo-Regular-20" transform="translate(240.820312 0)"/>
      <use xlink:href="#Menlo-Regular-20" transform="translate(301.025391 0)"/>
      <use xlink:href="#Menlo-Regular-5b" transform="translate(361.230469 0)"/>
      <use xlink:href="#Menlo-Regular-2b" transform="translate(421.435547 0)"/>
      <use xlink:href="#Menlo-Regular-20" transform="translate(481.640625 0)"/>
      <use xlink:href="#Menlo-Regular-64" transform="translate(541.845703 0)"/>
      <use xlink:href="#Menlo-Regular-65" transform="translate(602.050781 0)"/>
      <use xlink:href="#Menlo-Regular-70" transform="translate(662.255859 0)"/>
      <use xlink:href="#Menlo-Regular-6f" transform="translate(722.460938 0)"/>
      <use xlink:href="#Menlo-Regular-6c" transform="translate(782.666016 0)"/>
      <use xlink:href="#Menlo-Regular-2e" transform="translate(842.871094 0)"/>
      <use xlink:href="#Menlo-Regular-20" transform="translate(903.076172 0)"/>
      <use xlink:href="#Menlo-Regular-2f" transform="translate(963.28125 0)"/>
      <use xlink:href="#Menlo-Regular-20" transform="translate(1023.486328 0)"/>
      <use xlink:href="#Menlo-Regular-2212" transform="translate(1083.691406 0)"/>
      <use xlink:href="#Menlo-Regular-20" transform="translate(1143.896484 0)"/>
      <use xlink:href="#Menlo-Regular-68" transform="translate(1204.101562 0)"/>
      <use xlink:href="#Menlo-Regular-79" transform="translate(1264.306641 0)"/>
      <use xlink:href="#Menlo-Regular-70" transform="translate(1324.511719 0)"/>
      <use xlink:href="#Menlo-Regular-65" transform="translate(1384.716797 0)"/>
      <use xlink:href="#Menlo-Regular-72" transform="translate(1444.921875 0)"/>
      <use xlink:href="#Menlo-Regular-70" transform="translate(1505.126953 0)"/>
      <use xlink:href="#Menlo-Regular-6f" transform="translate(1565.332031 0)"/>
      <use xlink:href="#Menlo-Regular-6c" transform="translate(1625.537109 0)"/>
      <use xlink:href="#Menlo-Regular-2e" transform="translate(1685.742188 0)"/>
      <use xlink:href="#Menlo-Regular-5d" transform="translate(1745.947266 0)"/>
     </g>
    </g>
   </g>
   <g id="line2d_16">
    <path d="M 25.500938 105.671848 
L 266.355941 105.671848 
" clip-path="url(#pfa4dcfb5c1)" style="fill: none; stroke: #bbbbbb; stroke-width: 0.5; stroke-linejoin: miter"/>
   </g>
   <g id="line2d_17">
    <path d="M 25.500938 104.913483 
L 26.042861 98.528757 
L 26.223503 95.727836 
L 27.427778 65.084151 
L 27.548205 64.156661 
L 27.728846 62.278737 
L 27.78906 62.393105 
L 28.090129 63.356883 
L 28.27077 63.956457 
L 28.632053 69.335949 
L 29.113763 78.473266 
L 29.414831 83.36961 
L 29.595473 84.56383 
L 29.7159 85.191292 
L 30.016969 86.88337 
L 30.438465 91.831127 
L 30.980389 95.931493 
L 31.040603 96.164292 
L 31.341671 94.6224 
L 31.522313 92.621082 
L 32.485733 81.625061 
L 32.545946 81.527284 
L 32.666374 81.795579 
L 33.027656 85.862599 
L 33.328725 88.760432 
L 33.449153 89.239559 
L 33.629794 88.7563 
L 33.870649 86.258208 
L 34.05129 84.543084 
L 34.171718 84.484469 
L 34.412573 83.032046 
L 34.472786 83.280722 
L 34.533 83.190718 
L 34.713641 82.221599 
L 34.954496 82.862234 
L 35.135138 83.909969 
L 35.195351 83.945951 
L 35.556634 88.022847 
L 35.737275 87.247186 
L 35.857703 86.458786 
L 35.917916 86.604591 
L 36.098558 87.458961 
L 36.158771 87.272873 
L 36.399626 86.724939 
L 36.45984 86.903449 
L 36.520054 86.878342 
L 36.760909 86.178829 
L 36.94155 84.885565 
L 37.001764 84.90982 
L 37.122191 85.061246 
L 37.42326 83.959791 
L 37.483474 84.01367 
L 37.844756 85.281299 
L 38.085611 86.428907 
L 38.326466 87.160597 
L 38.567321 87.101301 
L 38.627535 87.282748 
L 38.928604 85.714158 
L 38.988818 85.797174 
L 39.049031 85.75039 
L 39.229673 84.955578 
L 39.3501 78.132726 
L 39.470528 77.685435 
L 40.132879 71.304235 
L 40.614589 75.54459 
L 40.674803 75.101013 
L 40.915658 73.792545 
L 41.638223 65.628032 
L 41.698436 65.840405 
L 41.939291 65.759756 
L 42.481215 71.169056 
L 43.504849 89.30197 
L 43.625277 89.202035 
L 43.745704 89.424328 
L 43.866132 89.144695 
L 43.926345 89.372073 
L 43.986559 89.319228 
L 44.046773 89.273187 
L 44.106987 89.484711 
L 44.829552 96.523897 
L 45.251048 98.762356 
L 45.792972 101.254006 
L 46.334895 102.842942 
L 46.937033 103.946304 
L 47.53917 104.618836 
L 48.261735 105.089599 
L 48.321949 105.117651 
L 48.50259 103.721819 
L 48.623018 103.763432 
L 48.683232 103.4868 
L 48.743445 103.546828 
L 48.803659 103.501481 
L 48.863873 103.606384 
L 49.104728 102.794875 
L 49.164942 102.890708 
L 49.285369 102.657061 
L 49.646652 98.776948 
L 50.309003 92.760704 
L 50.549858 90.269608 
L 50.91114 82.745211 
L 51.212209 78.465336 
L 51.272423 78.355299 
L 51.39285 78.647962 
L 51.573492 78.645673 
L 51.633705 78.76135 
L 51.693919 78.650349 
L 51.754133 78.620317 
L 51.994988 79.996553 
L 52.416484 82.87437 
L 52.717553 81.947505 
L 53.078835 79.00906 
L 53.440118 73.170964 
L 53.620759 71.820278 
L 53.8014 71.212773 
L 53.921828 70.737166 
L 54.162683 72.17186 
L 54.222897 72.163642 
L 54.704607 70.553815 
L 54.76482 70.546774 
L 54.885248 70.034321 
L 54.945462 70.248842 
L 55.126103 69.323286 
L 55.24653 57.914509 
L 55.788454 49.116948 
L 55.848668 48.76151 
L 56.089523 51.131687 
L 56.450805 61.542125 
L 56.812088 69.639464 
L 57.474439 76.677094 
L 58.13679 88.911838 
L 58.6185 94.275099 
L 58.678714 94.338709 
L 58.799142 94.023567 
L 59.039997 95.185347 
L 59.160424 94.854162 
L 59.280852 95.32851 
L 59.521707 96.039536 
L 59.702348 96.794564 
L 59.762562 96.45706 
L 59.822775 96.508359 
L 60.304485 98.363264 
L 60.364699 98.256633 
L 60.725982 94.358994 
L 61.147478 87.837718 
L 61.629188 85.075239 
L 61.809829 84.240031 
L 61.870043 84.648863 
L 61.930257 84.609938 
L 62.050684 83.99828 
L 62.291539 84.901324 
L 62.773249 83.846136 
L 63.074318 82.264215 
L 63.254959 82.660719 
L 63.495814 82.002934 
L 63.616242 82.427335 
L 63.796883 81.19162 
L 63.917311 80.318257 
L 63.977524 80.468301 
L 64.037738 80.426819 
L 64.218379 80.05807 
L 64.519448 84.101366 
L 64.579662 83.974733 
L 64.760303 82.979356 
L 64.940944 82.010355 
L 65.001158 81.951284 
L 65.362441 83.028782 
L 65.422654 82.841903 
L 65.482868 82.936613 
L 65.543082 82.955413 
L 65.603296 83.120542 
L 65.663509 83.053355 
L 65.783937 82.689101 
L 65.964578 80.906869 
L 66.024792 80.992603 
L 66.145219 81.124521 
L 66.205433 81.361592 
L 66.265647 81.274113 
L 66.325861 81.126064 
L 66.386074 81.332058 
L 66.687143 85.482203 
L 67.229067 92.832005 
L 67.770991 97.462971 
L 68.312914 100.407241 
L 68.854838 102.28951 
L 69.456976 103.60087 
L 70.059113 104.403258 
L 70.420396 104.686943 
L 70.480609 104.594975 
L 70.540823 104.646499 
L 71.022533 104.904568 
L 71.323602 105.071464 
L 71.444029 104.591987 
L 71.504243 104.643747 
L 71.865526 104.906186 
L 71.925739 104.81438 
L 71.985953 104.855497 
L 72.768732 105.240954 
L 73.130014 103.59865 
L 73.190228 103.578229 
L 73.310656 103.134872 
L 73.431083 102.39268 
L 73.551511 102.632573 
L 73.671938 101.64968 
L 73.912793 99.485981 
L 73.973007 99.375887 
L 74.695572 102.181607 
L 75.297709 103.543898 
L 75.899847 104.373602 
L 76.020274 104.03653 
L 76.080488 104.1154 
L 76.321343 104.238413 
L 76.441771 102.861465 
L 76.803053 99.044744 
L 77.164336 94.294308 
L 77.766473 84.929678 
L 77.826687 84.867464 
L 78.127756 83.293227 
L 78.187969 83.397924 
L 78.308397 83.721147 
L 78.428824 83.818475 
L 78.609466 85.695736 
L 78.850321 88.722382 
L 79.151389 91.596701 
L 79.211603 91.823609 
L 79.271817 91.715067 
L 79.452458 91.281159 
L 80.054596 95.920069 
L 80.415878 98.116484 
L 80.476092 98.087898 
L 80.837375 97.057086 
L 81.138443 98.58553 
L 81.198657 98.658986 
L 81.319085 98.046654 
L 81.379298 98.158524 
L 81.55994 98.78941 
L 81.981436 100.810422 
L 82.162077 100.05787 
L 82.52336 95.67619 
L 82.824428 90.550767 
L 83.245925 83.350502 
L 83.366352 82.031619 
L 83.546993 80.156002 
L 83.727635 78.914162 
L 84.028703 75.146882 
L 84.209345 73.67235 
L 84.269558 73.817566 
L 84.691055 78.060987 
L 84.871696 77.740697 
L 84.992123 77.599946 
L 85.293192 76.151672 
L 85.41362 76.915628 
L 85.473833 76.79226 
L 85.654475 77.266365 
L 86.015757 80.839696 
L 86.075971 80.686477 
L 86.617895 76.818415 
L 86.798536 76.362583 
L 86.85875 67.632435 
L 86.918963 67.946485 
L 87.099605 68.803683 
L 87.942597 77.901758 
L 88.243666 80.013196 
L 88.424307 82.20336 
L 89.086658 92.186233 
L 89.628582 97.122678 
L 90.170506 100.23516 
L 90.71243 102.207754 
L 91.254353 103.461992 
L 91.314567 103.303027 
L 91.976918 97.596093 
L 92.217773 94.328535 
L 92.338201 94.293901 
L 93.000552 98.474636 
L 93.542476 100.993091 
L 94.385468 103.074269 
L 94.56611 102.55952 
L 94.806965 102.991069 
L 94.927392 102.873499 
L 95.108033 100.939534 
L 95.168247 100.941349 
L 95.288675 99.827441 
L 95.469316 97.109199 
L 95.52953 97.11672 
L 96.312308 100.464097 
L 96.372522 100.259041 
L 96.794018 91.102858 
L 97.215515 81.083818 
L 98.058507 66.064736 
L 98.359576 61.335214 
L 98.480004 60.815863 
L 98.841286 63.981725 
L 99.262782 69.894123 
L 99.443424 70.905447 
L 99.684279 73.114418 
L 99.744492 73.072605 
L 99.86492 74.086533 
L 100.165989 77.942454 
L 100.226202 77.842291 
L 100.406844 77.171598 
L 100.467057 77.021905 
L 100.768126 78.666785 
L 100.82834 78.407972 
L 101.189622 76.479793 
L 101.31005 76.018116 
L 101.490691 75.082308 
L 101.550905 75.212588 
L 101.79176 76.58742 
L 101.912187 76.759379 
L 101.972401 76.736133 
L 102.092829 77.300481 
L 102.153042 69.262874 
L 102.213256 69.682703 
L 102.454111 74.72461 
L 102.996035 85.543753 
L 103.417531 90.926019 
L 103.778814 93.472434 
L 103.839027 93.617305 
L 104.079882 91.482687 
L 104.922875 79.674716 
L 105.103516 78.650902 
L 105.16373 78.615529 
L 105.404585 81.190329 
L 105.585226 83.077294 
L 105.705654 81.927878 
L 106.006722 77.583386 
L 106.247577 73.388344 
L 106.428219 72.206 
L 106.548646 72.312619 
L 106.729287 74.034607 
L 107.09057 77.162767 
L 107.451852 74.408425 
L 107.512066 74.505458 
L 107.632494 74.387915 
L 107.692707 74.669468 
L 107.752921 74.504034 
L 107.813135 74.323928 
L 107.873349 74.527379 
L 107.933562 74.361651 
L 108.174417 72.869473 
L 109.01741 67.382869 
L 109.318479 68.170944 
L 109.378692 68.323058 
L 109.438906 68.280777 
L 109.619547 67.995127 
L 109.800189 68.317397 
L 109.860402 68.229965 
L 110.281899 70.512396 
L 110.402326 71.309675 
L 110.46254 71.162649 
L 110.582967 71.73824 
L 110.643181 71.638702 
L 110.763609 61.427671 
L 111.004464 60.620881 
L 111.124891 60.67254 
L 111.42596 59.96458 
L 111.486174 59.990413 
L 111.546387 60.120303 
L 111.606601 59.609431 
L 111.666815 59.736621 
L 111.967884 61.754662 
L 112.028097 61.582566 
L 112.148525 60.764725 
L 112.208739 61.065085 
L 112.329166 62.380483 
L 112.931304 70.816178 
L 113.051731 71.667484 
L 113.292586 75.070582 
L 113.533441 78.068734 
L 114.436647 90.844172 
L 114.978571 96.248873 
L 115.520495 99.662125 
L 116.062419 101.830719 
L 116.122633 101.896978 
L 116.303274 101.356636 
L 116.363488 101.435096 
L 117.146266 97.467098 
L 117.567763 93.220538 
L 117.748404 92.595229 
L 118.230114 89.714547 
L 118.350541 89.086886 
L 118.531183 88.296867 
L 118.591396 88.358324 
L 118.772038 88.123689 
L 118.892465 89.062262 
L 119.253748 92.691466 
L 119.494603 92.791667 
L 119.795671 91.83372 
L 119.855885 92.098293 
L 120.337595 87.026662 
L 120.397809 87.290293 
L 120.458023 87.073901 
L 120.518236 86.714333 
L 120.57845 86.847413 
L 120.759091 86.330864 
L 120.939733 85.2205 
L 120.999946 85.385919 
L 121.06016 85.349808 
L 121.120374 85.30252 
L 121.240801 83.928758 
L 121.782725 76.144509 
L 122.445076 67.590016 
L 122.50529 67.603517 
L 122.685931 67.992208 
L 122.746145 68.052846 
L 123.047214 67.497387 
L 123.107428 67.545604 
L 123.227855 67.251185 
L 123.288069 67.294456 
L 123.348283 67.391605 
L 123.589138 66.740585 
L 123.709565 54.159774 
L 124.311703 51.6819 
L 124.371916 51.580846 
L 124.612771 49.270593 
L 124.974054 51.010303 
L 125.094481 50.538037 
L 125.154695 50.630553 
L 125.335336 50.215502 
L 125.937474 53.084142 
L 126.298756 56.686102 
L 126.35897 57.035634 
L 126.419184 56.774981 
L 126.720253 55.437463 
L 126.780466 55.245434 
L 126.84068 55.334331 
L 126.961108 55.965713 
L 127.021321 55.903108 
L 127.141749 55.17762 
L 127.201963 55.467663 
L 127.382604 55.244188 
L 127.442818 55.413884 
L 127.623459 54.695349 
L 127.984741 58.071899 
L 128.165383 61.641584 
L 128.225596 49.650516 
L 128.28581 50.632681 
L 128.526665 53.654994 
L 129.24923 65.898242 
L 129.490085 68.932153 
L 130.092223 76.824675 
L 130.21265 77.639927 
L 130.513719 80.091932 
L 130.573933 80.059078 
L 130.69436 80.789185 
L 130.814788 81.766461 
L 131.296498 89.440146 
L 131.717994 93.721899 
L 131.838421 93.918533 
L 132.019063 94.563256 
L 132.380345 96.892567 
L 132.500773 96.923833 
L 132.801841 98.47947 
L 132.862055 98.233448 
L 133.10291 96.878528 
L 133.644834 90.384831 
L 133.765261 89.705391 
L 133.885689 90.024001 
L 134.367399 86.082649 
L 134.668468 84.970232 
L 134.728682 85.009214 
L 134.849109 84.65661 
L 135.089964 85.229096 
L 135.270605 84.586545 
L 135.631888 80.462257 
L 136.234025 72.451099 
L 136.294239 72.327563 
L 137.137232 79.046672 
L 137.618942 87.350863 
L 138.160865 94.020415 
L 138.702789 98.11955 
L 138.763003 98.175229 
L 139.244713 100.46578 
L 139.786637 102.331253 
L 140.147919 103.185551 
L 140.208133 103.018729 
L 140.268347 103.146147 
L 140.870484 104.115402 
L 140.990912 103.62371 
L 141.231767 100.389613 
L 141.77369 94.443293 
L 142.014545 93.576672 
L 142.2554 90.192172 
L 142.436042 87.792724 
L 142.496255 87.837177 
L 142.73711 86.584923 
L 142.797324 86.522831 
L 142.917752 85.42284 
L 143.339248 78.253986 
L 143.760744 74.961107 
L 143.820958 74.860587 
L 143.881172 75.01816 
L 144.001599 74.312261 
L 144.784378 64.852475 
L 144.844592 65.022936 
L 145.085447 65.998086 
L 145.14566 54.768865 
L 145.205874 55.148652 
L 145.567157 57.657777 
L 146.530577 74.127175 
L 146.891859 80.510168 
L 147.253142 83.283487 
L 147.55421 86.693244 
L 147.674638 86.49683 
L 147.795065 86.849294 
L 148.276775 92.980678 
L 148.99934 98.6919 
L 149.541264 101.222957 
L 150.083188 102.831801 
L 150.625112 103.813653 
L 151.227249 104.541527 
L 151.708959 104.912226 
L 151.8896 104.30752 
L 151.949814 104.229867 
L 152.130455 103.213452 
L 152.672379 104.069266 
L 152.792807 104.221066 
L 152.853021 104.085055 
L 152.913234 104.162084 
L 153.033662 104.276788 
L 153.154089 104.04582 
L 153.214303 104.124769 
L 153.394944 104.320342 
L 153.455158 104.261002 
L 153.635799 102.874567 
L 154.177723 95.192307 
L 154.478792 91.787188 
L 155.141143 81.958837 
L 155.743281 67.639315 
L 156.465846 55.891536 
L 156.526059 56.35262 
L 156.646487 56.735369 
L 157.067983 53.093622 
L 157.188411 51.841835 
L 157.248624 51.855771 
L 157.369052 52.101878 
L 157.429266 52.05333 
L 157.730334 51.894269 
L 158.031403 49.897297 
L 158.151831 30.935754 
L 158.392686 28.621886 
L 158.452899 28.70927 
L 158.573327 29.957778 
L 160.379739 64.698884 
L 160.801236 68.051865 
L 160.861449 68.119358 
L 160.921663 68.046754 
L 161.162518 70.273473 
L 161.282946 71.401115 
L 161.885083 82.927147 
L 162.246366 88.026915 
L 162.487221 90.535133 
L 163.029144 96.031759 
L 163.510854 98.963486 
L 163.932351 100.657918 
L 164.173206 101.270874 
L 164.534488 99.898722 
L 164.594702 100.076264 
L 164.835557 101.042486 
L 164.895771 100.946663 
L 165.076412 101.431165 
L 165.196839 101.737559 
L 165.257053 101.675905 
L 165.437694 99.875757 
L 165.738763 97.447362 
L 165.919404 95.965178 
L 166.521542 90.086607 
L 166.581756 89.832702 
L 167.063466 79.934009 
L 167.424748 73.12628 
L 168.147313 61.050764 
L 168.207527 61.297133 
L 168.749451 65.405268 
L 168.809664 65.426858 
L 168.869878 65.087702 
L 168.990306 51.21813 
L 169.231161 48.512654 
L 169.291374 48.54338 
L 169.712871 50.842645 
L 169.893512 52.419797 
L 170.074153 52.702494 
L 170.194581 52.557835 
L 170.49565 53.615966 
L 170.555863 53.35188 
L 170.676291 53.286661 
L 171.097787 54.876295 
L 171.158001 54.829052 
L 171.338642 53.713953 
L 171.579497 50.621245 
L 172.181635 42.279289 
L 172.542917 37.395701 
L 172.603131 37.182829 
L 172.663345 37.33834 
L 172.9042 38.245408 
L 172.964413 38.684494 
L 173.024627 18.949432 
L 173.084841 19.217155 
L 173.265482 22.251103 
L 173.747192 33.175656 
L 173.927833 36.148067 
L 174.289116 42.482011 
L 174.770826 48.02147 
L 174.891253 48.988757 
L 175.192322 54.892437 
L 175.553605 61.570287 
L 176.095528 67.580536 
L 176.27617 68.573585 
L 176.336383 68.551929 
L 176.637452 69.595445 
L 176.697666 69.406927 
L 176.878307 68.977879 
L 177.119162 67.259632 
L 177.179376 67.325236 
L 177.540658 69.283953 
L 177.661086 69.367566 
L 178.142796 71.20181 
L 178.20301 71.358818 
L 178.263223 71.872908 
L 178.323437 62.897415 
L 178.383651 63.8441 
L 179.708353 89.994911 
L 180.069636 93.247638 
L 180.12985 93.221199 
L 180.250277 92.622642 
L 180.310491 92.819898 
L 180.370705 92.877328 
L 180.61156 94.445195 
L 181.09327 98.179785 
L 181.334125 97.321151 
L 181.454552 96.89178 
L 181.815835 98.305698 
L 182.357758 100.922796 
L 182.478186 99.983254 
L 183.260965 86.861774 
L 183.441606 85.920856 
L 184.525453 75.851217 
L 184.585667 75.853558 
L 184.706095 75.277999 
L 184.826522 74.041786 
L 185.067377 71.191581 
L 185.187805 70.125417 
L 185.488873 67.135594 
L 185.549087 66.965839 
L 185.609301 67.047761 
L 186.030797 72.038163 
L 186.753362 87.262551 
L 187.415713 94.965751 
L 187.656568 96.183563 
L 187.716782 96.101393 
L 187.897423 95.431269 
L 188.258706 97.244728 
L 188.379133 97.786607 
L 188.439347 97.773282 
L 188.499561 97.802111 
L 188.619989 97.35362 
L 189.28234 94.533938 
L 189.703836 96.659344 
L 190.004905 98.496702 
L 190.125332 98.020083 
L 190.24576 96.562153 
L 190.305974 96.571856 
L 190.366187 96.568209 
L 190.607042 94.987323 
L 191.389821 88.103906 
L 191.450035 88.062606 
L 191.510249 87.791124 
L 191.570462 88.004749 
L 191.630676 88.150596 
L 191.811317 89.006064 
L 191.931745 87.947899 
L 192.353241 83.980972 
L 192.594096 82.35328 
L 192.955379 75.208672 
L 193.316661 67.673849 
L 193.738157 60.264356 
L 194.039226 59.016192 
L 194.159654 44.186652 
L 194.340295 43.420751 
L 194.701577 47.93837 
L 195.243501 56.443098 
L 195.484356 60.011016 
L 196.628417 85.531481 
L 197.411196 94.889432 
L 197.531624 95.079843 
L 197.95312 97.851346 
L 198.133761 98.502374 
L 198.374616 98.816949 
L 198.856326 95.214137 
L 199.157395 96.88914 
L 200.000387 92.043555 
L 200.060601 92.041517 
L 200.421884 93.824973 
L 200.783166 96.263626 
L 200.84338 96.152397 
L 200.903594 96.256268 
L 200.963807 96.558511 
L 201.024021 96.444646 
L 201.084235 96.48385 
L 201.626159 92.816392 
L 201.746586 92.054538 
L 201.8068 92.109107 
L 201.867014 92.036059 
L 201.927227 92.089098 
L 202.228296 92.74506 
L 202.348724 92.553129 
L 202.529365 91.566529 
L 203.011075 96.007533 
L 203.312144 95.546859 
L 203.372357 95.703439 
L 203.432571 95.602557 
L 203.613212 94.851024 
L 203.673426 94.963287 
L 203.73364 95.088531 
L 204.034709 93.741511 
L 204.094922 93.757698 
L 204.21535 93.251199 
L 205.17877 74.022677 
L 205.479839 71.779928 
L 205.66048 71.38022 
L 205.780907 71.205639 
L 205.841121 71.288264 
L 205.901335 71.10251 
L 206.202404 71.942642 
L 206.383045 71.09325 
L 206.985183 63.189243 
L 207.10561 62.518113 
L 207.165824 62.690581 
L 207.286251 63.325967 
L 207.406679 64.700981 
L 207.527106 53.081973 
L 207.647534 52.76817 
L 207.767961 53.677367 
L 208.309885 63.944342 
L 208.671168 71.855562 
L 209.092664 77.984865 
L 209.152878 77.892136 
L 209.213091 77.773497 
L 209.51416 81.3671 
L 209.935656 88.581825 
L 209.99587 88.475632 
L 210.176511 88.814829 
L 210.598008 86.376456 
L 210.778649 85.637091 
L 210.838863 85.641205 
L 210.899076 85.380898 
L 210.95929 85.446246 
L 211.079718 85.493405 
L 211.561428 88.366211 
L 211.92271 91.996905 
L 211.982924 91.915092 
L 212.103351 90.770942 
L 212.344206 88.129972 
L 212.765703 84.669482 
L 212.88613 84.375415 
L 213.247413 88.616093 
L 213.789336 94.848411 
L 214.33126 98.745301 
L 214.632329 99.936519 
L 214.752756 100.26686 
L 214.81297 100.200331 
L 215.053825 99.112957 
L 215.174253 98.463918 
L 215.77639 91.484639 
L 215.896818 91.281142 
L 216.197886 89.598154 
L 216.2581 89.350508 
L 216.318314 89.539763 
L 216.438741 89.85686 
L 216.679596 89.01925 
L 216.73981 88.845243 
L 216.800024 88.92569 
L 217.462375 95.323248 
L 217.643016 95.676323 
L 217.944085 97.200382 
L 218.064513 96.95155 
L 218.18494 96.266481 
L 218.546223 93.445532 
L 218.606436 93.283809 
L 218.66665 93.465752 
L 218.787078 92.637053 
L 218.847291 91.986566 
L 218.907505 92.148258 
L 218.967719 92.397341 
L 219.027933 92.360603 
L 219.14836 91.639597 
L 219.750498 83.374726 
L 220.292421 72.701202 
L 220.59349 69.392825 
L 220.713918 70.156772 
L 221.195628 75.741309 
L 222.279475 93.452872 
L 222.821399 97.836844 
L 223.363323 100.647495 
L 223.905246 102.444502 
L 224.507384 103.696331 
L 224.627811 103.003585 
L 224.808453 101.257844 
L 225.711659 90.177895 
L 225.771873 90.294665 
L 225.8923 89.626291 
L 226.193369 85.450836 
L 226.494438 82.651563 
L 226.554652 82.579456 
L 226.675079 81.575873 
L 226.915934 79.795691 
L 227.217003 78.019281 
L 227.518072 73.615675 
L 228.240637 69.34887 
L 228.361064 57.714753 
L 228.421278 57.76687 
L 228.601919 58.686841 
L 228.78256 57.276623 
L 229.083629 52.060921 
L 229.143843 52.213153 
L 229.505125 50.780425 
L 229.625553 49.805185 
L 230.408332 58.686171 
L 230.950255 72.349316 
L 232.214744 91.77278 
L 232.395385 91.101443 
L 233.659874 74.718901 
L 233.720088 74.576284 
L 234.141584 71.30006 
L 234.382439 70.167375 
L 234.442653 70.17042 
L 234.502867 69.978299 
L 234.683508 70.716271 
L 235.406073 77.547157 
L 235.466287 77.433375 
L 235.586714 76.991343 
L 235.646928 77.076546 
L 235.767355 77.616994 
L 235.947997 79.811998 
L 236.128638 82.948432 
L 236.188852 77.511634 
L 236.249065 78.107463 
L 236.429707 79.039504 
L 236.48992 79.255682 
L 236.97163 85.973595 
L 237.212485 87.684354 
L 237.272699 87.552767 
L 237.45334 86.192611 
L 237.633982 85.932025 
L 237.995264 83.852153 
L 238.115692 83.489676 
L 238.175905 83.620001 
L 238.597402 85.262797 
L 238.657615 85.29571 
L 238.778043 84.591597 
L 238.838257 84.664348 
L 239.139325 86.390489 
L 239.199539 86.531822 
L 239.440394 88.196487 
L 239.500608 87.945618 
L 239.741463 87.12944 
L 239.86189 87.279252 
L 239.922104 87.686562 
L 239.982318 87.673414 
L 240.644669 82.981032 
L 240.765097 82.063438 
L 240.945738 80.982249 
L 241.066165 81.016645 
L 241.909158 85.708908 
L 241.969372 85.826291 
L 242.029585 85.70762 
L 242.210227 84.756631 
L 242.27044 84.840337 
L 242.390868 85.597205 
L 242.451082 85.394078 
L 242.872578 81.573656 
L 243.294074 76.127385 
L 243.534929 74.159807 
L 243.595143 74.068116 
L 243.715571 74.647232 
L 244.016639 76.849145 
L 244.076853 76.791184 
L 244.739204 80.234165 
L 245.040273 82.260307 
L 245.160701 82.202146 
L 245.281128 80.656401 
L 245.642411 70.58509 
L 246.003693 62.466975 
L 246.364976 54.901083 
L 246.545617 35.309678 
L 246.846686 31.375257 
L 246.906899 31.422391 
L 247.027327 31.180411 
L 247.087541 30.610094 
L 247.268182 32.556656 
L 247.990747 56.224959 
L 248.532671 74.96067 
L 249.014381 85.352994 
L 249.195022 86.398365 
L 249.736946 90.387153 
L 250.278869 95.85377 
L 250.640152 98.114708 
L 251.001434 96.948537 
L 251.061648 96.975596 
L 251.663786 100.071177 
L 251.784213 100.076429 
L 251.844427 100.082023 
L 252.265923 96.41597 
L 253.108916 86.379943 
L 253.169129 86.103388 
L 253.289557 86.565912 
L 253.470198 86.301282 
L 253.530412 86.319582 
L 253.650839 85.801447 
L 253.771267 85.93015 
L 253.951908 87.037241 
L 254.012122 86.940443 
L 254.072336 86.742239 
L 254.132549 86.822989 
L 254.554046 88.639878 
L 255.577679 97.637442 
L 255.637893 97.740184 
L 256.179817 100.584073 
L 256.240031 100.529178 
L 256.661527 97.174381 
L 256.902382 95.701879 
L 256.962596 95.673171 
L 257.022809 95.869783 
L 257.323878 93.885925 
L 257.805588 96.553867 
L 257.865802 96.769764 
L 257.986229 96.548951 
L 258.106657 96.764927 
L 258.227084 96.300165 
L 258.648581 94.534602 
L 258.769008 94.188024 
L 259.009863 92.571844 
L 259.070077 92.671291 
L 259.310932 94.110385 
L 259.551787 95.634006 
L 259.612001 95.549834 
L 260.093711 90.08712 
L 260.454993 87.670011 
L 260.575421 88.115087 
L 260.816276 87.383412 
L 260.996917 85.543327 
L 261.057131 85.415989 
L 261.117345 85.622056 
L 261.900123 78.931103 
L 262.261406 75.331318 
L 262.442047 75.44928 
L 262.743116 77.124383 
L 262.80333 77.059685 
L 263.044185 78.232284 
L 263.164612 77.481069 
L 263.465681 75.403353 
L 263.646322 75.611372 
L 263.887177 78.158918 
L 264.128032 81.147418 
L 264.188246 81.158263 
L 264.24846 74.008961 
L 264.308673 74.227354 
L 264.549528 75.865524 
L 264.73017 76.580117 
L 264.910811 74.384271 
L 265.21188 70.178536 
L 265.753803 64.704514 
L 265.874231 64.5673 
L 266.1753 66.384005 
L 266.295727 68.187743 
L 266.295727 68.187743 
" clip-path="url(#pfa4dcfb5c1)" style="fill: none; stroke: #1a1a1a; stroke-width: 0.9; stroke-linejoin: miter"/>
   </g>
   <g id="line2d_18">
    <path d="M 25.500938 105.67563 
L 25.922434 105.840504 
L 26.34393 106.155779 
L 26.705213 106.733557 
L 27.186923 107.990895 
L 28.933121 113.028484 
L 29.475045 113.807263 
L 30.257824 114.493464 
L 30.859961 114.681442 
L 31.702954 114.857856 
L 32.184664 115.2356 
L 33.388939 116.327684 
L 34.111504 116.790702 
L 35.917916 118.156861 
L 39.229673 119.891238 
L 39.3501 105.671848 
L 39.952238 105.671848 
L 42.481215 112.425288 
L 43.023139 113.392861 
L 43.504849 113.844111 
L 44.528483 114.418324 
L 45.13062 114.434056 
L 45.913399 114.226418 
L 47.177888 113.613432 
L 49.285369 112.587111 
L 49.827293 112.54615 
L 50.42943 112.778492 
L 50.850927 113.150852 
L 51.573492 114.246628 
L 52.476698 115.435656 
L 53.259477 116.432244 
L 54.644393 118.948553 
L 55.126103 119.825606 
L 55.24653 105.671848 
L 55.848668 105.671848 
L 56.571233 108.576897 
L 57.293798 110.428658 
L 57.835722 111.380337 
L 58.377645 111.872333 
L 59.160424 112.198649 
L 60.123844 112.414407 
L 60.906623 112.605035 
L 61.568974 113.221187 
L 66.626929 118.53505 
L 67.108639 118.697862 
L 67.650563 118.614441 
L 68.373128 118.247848 
L 69.577403 117.344856 
L 73.009587 114.677037 
L 73.852579 114.29735 
L 74.815999 113.991727 
L 77.043908 113.129627 
L 77.405191 113.298888 
L 78.007328 113.906178 
L 78.850321 114.747277 
L 79.633099 115.075803 
L 80.235237 115.123471 
L 81.981436 114.813521 
L 82.52336 114.730607 
L 82.944856 114.900712 
L 83.426566 115.395148 
L 84.209345 116.572947 
L 84.93191 117.623331 
L 86.557681 119.611801 
L 86.798536 119.912409 
L 86.918963 105.671848 
L 87.521101 105.671848 
L 88.364093 107.540594 
L 88.906017 108.309348 
L 89.508155 108.765283 
L 90.170506 108.977686 
L 91.073712 109.006951 
L 91.856491 109.044945 
L 92.338201 109.302502 
L 93.000552 109.585171 
L 93.783331 109.666677 
L 95.770385 109.768538 
L 96.914446 110.211708 
L 97.396156 110.967163 
L 97.998294 112.307869 
L 99.624065 116.485709 
L 100.406844 117.678078 
L 102.092829 119.882499 
L 102.213256 105.671848 
L 102.875607 105.782126 
L 103.477745 106.614522 
L 104.561592 107.891052 
L 106.247577 111.007563 
L 107.391639 113.346502 
L 109.438906 117.596148 
L 110.582967 119.799015 
L 110.643181 119.898474 
L 110.763609 105.671848 
L 111.365746 105.671848 
L 112.630235 110.054153 
L 113.3528 111.770313 
L 114.015151 112.805714 
L 114.496861 113.19006 
L 115.038785 113.344705 
L 115.701136 113.293019 
L 117.266694 113.052028 
L 117.868831 113.290374 
L 118.65161 113.824499 
L 119.313961 114.199572 
L 120.217168 114.635804 
L 121.481656 115.774396 
L 121.963366 116.499966 
L 122.987 118.639176 
L 123.589138 119.88351 
L 123.709565 105.671848 
L 124.311703 105.671848 
L 126.057901 113.045227 
L 127.683673 118.444857 
L 128.165383 119.814627 
L 128.28581 105.671848 
L 128.887948 105.671848 
L 129.670726 108.116463 
L 130.393291 109.678076 
L 131.115856 110.796678 
L 131.65778 111.224141 
L 132.500773 111.546337 
L 133.524406 111.85988 
L 134.367399 112.59189 
L 135.812529 114.312394 
L 137.498514 116.941467 
L 137.980224 117.136381 
L 138.522148 117.099028 
L 139.304927 116.788774 
L 140.509202 116.028547 
L 141.412408 115.525861 
L 141.954332 115.550031 
L 142.375828 115.714246 
L 143.098393 116.286534 
L 143.70053 117.151638 
L 144.543523 118.670778 
L 145.085447 119.869042 
L 145.205874 105.671848 
L 145.808012 105.671848 
L 146.470363 107.742845 
L 147.0725 108.950616 
L 147.795065 109.945303 
L 148.336989 110.41148 
L 148.939127 110.633069 
L 149.661692 110.656504 
L 150.805753 110.435688 
L 153.696013 109.761179 
L 154.117509 109.876084 
L 154.659433 110.274763 
L 155.201357 110.983135 
L 155.683067 112.050533 
L 156.405632 114.244849 
L 158.031403 119.809816 
L 158.151831 105.671848 
L 158.753968 105.671848 
L 159.536747 109.684387 
L 160.259312 112.261393 
L 161.162518 114.555295 
L 161.764656 115.615512 
L 162.246366 116.023351 
L 162.728076 116.195713 
L 163.269999 116.159698 
L 164.112992 115.843568 
L 165.558122 115.258463 
L 166.160259 115.262261 
L 166.702183 115.505429 
L 167.123679 115.957897 
L 167.665603 116.94568 
L 168.869878 119.840056 
L 168.990306 105.671848 
L 169.592443 105.671848 
L 170.796718 110.724064 
L 172.663345 118.413211 
L 172.964413 119.772489 
L 173.084841 105.671848 
L 173.686978 105.671848 
L 174.529971 110.13763 
L 175.372963 113.50227 
L 176.155742 115.608743 
L 177.7213 118.908302 
L 178.263223 119.860328 
L 178.383651 105.671848 
L 178.985788 105.671848 
L 179.527712 106.644287 
L 180.12985 107.298118 
L 180.972842 107.938252 
L 182.357758 108.470196 
L 182.779255 108.654211 
L 183.200751 109.103884 
L 184.043743 110.350787 
L 185.007163 112.297271 
L 186.452293 115.388517 
L 186.934003 115.753898 
L 187.415713 115.861481 
L 188.680202 115.754507 
L 190.787684 115.675128 
L 191.389821 115.955016 
L 192.533882 116.763549 
L 193.015592 117.402601 
L 193.557516 118.571555 
L 194.039226 119.860136 
L 194.159654 105.671848 
L 194.761791 105.671848 
L 195.54457 108.812374 
L 196.146707 110.471341 
L 196.628417 111.23505 
L 197.170341 111.69 
L 197.832692 111.922718 
L 199.639105 112.327924 
L 200.903594 112.839856 
L 201.686372 113.069231 
L 202.950861 113.617062 
L 204.21535 113.903605 
L 204.576632 114.177916 
L 205.058342 114.897575 
L 206.6239 117.944453 
L 207.406679 119.792667 
L 207.527106 105.671848 
L 208.129244 105.671848 
L 208.791595 107.679721 
L 209.574374 109.267783 
L 210.176511 109.991818 
L 213.307626 113.177157 
L 213.84955 113.404822 
L 214.511901 113.405083 
L 215.475321 113.375361 
L 216.197886 113.769729 
L 217.281734 114.382569 
L 218.064513 114.435042 
L 218.66665 114.546754 
L 219.389215 114.853842 
L 219.810711 115.233746 
L 220.292421 116.020731 
L 221.436483 118.020346 
L 221.857979 118.293839 
L 222.339689 118.344836 
L 222.941826 118.162354 
L 223.845033 117.611631 
L 225.169735 116.791014 
L 225.651445 116.872254 
L 226.253583 117.183816 
L 227.036362 117.98519 
L 227.698713 118.946731 
L 228.240637 119.907557 
L 228.361064 105.671848 
L 228.963202 105.671848 
L 230.468545 111.858894 
L 231.010469 113.236434 
L 231.552393 114.067301 
L 232.034103 114.446908 
L 232.816882 114.906227 
L 233.358805 115.605367 
L 234.322225 117.352468 
L 235.225432 118.910136 
L 236.128638 119.913068 
L 236.249065 105.671848 
L 236.911417 105.773466 
L 239.139325 109.191807 
L 243.655357 115.204633 
L 244.498349 116.497655 
L 245.883266 118.456715 
L 246.364976 119.787312 
L 246.485403 105.671848 
L 247.087541 105.671848 
L 247.810106 109.50185 
L 248.352029 111.298374 
L 248.833739 112.199464 
L 249.435877 112.831486 
L 250.038014 113.209093 
L 250.640152 113.292559 
L 252.687419 113.412221 
L 253.289557 113.924356 
L 254.674473 115.043219 
L 255.216397 115.21635 
L 255.818534 115.161222 
L 257.022809 114.969438 
L 259.852856 115.299744 
L 260.575421 115.702701 
L 261.3582 116.315372 
L 262.020551 117.077017 
L 263.887177 119.628131 
L 264.188246 119.902763 
L 264.308673 105.671848 
L 264.910811 105.671848 
L 265.874231 108.584996 
L 266.295727 109.843547 
L 266.295727 109.843547 
" clip-path="url(#pfa4dcfb5c1)" style="fill: none; stroke-dasharray: 0.7,1.155; stroke-dashoffset: 0; stroke: #bbbbbb; stroke-width: 0.7"/>
   </g>
   <g id="patch_3">
    <path d="M 25.500938 124.96125 
L 25.500938 13.90125 
" style="fill: none; stroke: #1a1a1a; stroke-width: 0.8; stroke-linejoin: miter; stroke-linecap: square"/>
   </g>
   <g id="patch_4">
    <path d="M 266.355941 124.96125 
L 266.355941 13.90125 
" style="fill: none; stroke: #1a1a1a; stroke-width: 0.8; stroke-linejoin: miter; stroke-linecap: square"/>
   </g>
   <g id="patch_5">
    <path d="M 25.500938 124.96125 
L 266.355941 124.96125 
" style="fill: none; stroke: #1a1a1a; stroke-width: 0.8; stroke-linejoin: miter; stroke-linecap: square"/>
   </g>
   <g id="patch_6">
    <path d="M 25.500938 13.90125 
L 266.355941 13.90125 
" style="fill: none; stroke: #1a1a1a; stroke-width: 0.8; stroke-linejoin: miter; stroke-linecap: square"/>
   </g>
   <g id="text_18">
    <!-- COBA · E-neuron signed currents (cell 157) -->
    <g style="fill: #1a1a1a" transform="translate(25.500938 7.90125) scale(0.08 -0.08)">
     <defs>
      <path id="Menlo-Regular-43" d="M 3353 166 
Q 3113 38 2859 -26 
Q 2606 -91 2322 -91 
Q 1425 -91 929 543 
Q 434 1178 434 2328 
Q 434 3472 932 4111 
Q 1431 4750 2322 4750 
Q 2606 4750 2859 4686 
Q 3113 4622 3353 4494 
L 3353 3847 
Q 3122 4038 2856 4138 
Q 2591 4238 2322 4238 
Q 1706 4238 1400 3763 
Q 1094 3288 1094 2328 
Q 1094 1372 1400 897 
Q 1706 422 2322 422 
Q 2597 422 2861 522 
Q 3125 622 3353 813 
L 3353 166 
z
" transform="scale(0.015625)"/>
      <path id="Menlo-Regular-4f" d="M 2828 2328 
Q 2828 3356 2617 3797 
Q 2406 4238 1925 4238 
Q 1447 4238 1236 3797 
Q 1025 3356 1025 2328 
Q 1025 1303 1236 862 
Q 1447 422 1925 422 
Q 2406 422 2617 861 
Q 2828 1300 2828 2328 
z
M 3488 2328 
Q 3488 1109 3102 509 
Q 2716 -91 1925 -91 
Q 1134 -91 750 506 
Q 366 1103 366 2328 
Q 366 3550 752 4150 
Q 1138 4750 1925 4750 
Q 2716 4750 3102 4150 
Q 3488 3550 3488 2328 
z
" transform="scale(0.015625)"/>
      <path id="Menlo-Regular-42" d="M 1153 2353 
L 1153 519 
L 1900 519 
Q 2450 519 2684 711 
Q 2919 903 2919 1344 
Q 2919 1925 2672 2139 
Q 2425 2353 1900 2353 
L 1153 2353 
z
M 1153 4147 
L 1153 2866 
L 1888 2866 
Q 2344 2866 2548 3041 
Q 2753 3216 2753 3481 
Q 2753 3834 2551 3990 
Q 2350 4147 1888 4147 
L 1153 4147 
z
M 519 4666 
L 1900 4666 
Q 2616 4666 3003 4356 
Q 3391 4047 3391 3481 
Q 3391 3178 3186 2931 
Q 2981 2684 2572 2622 
Q 3031 2553 3292 2229 
Q 3553 1906 3553 1281 
Q 3553 647 3137 323 
Q 2722 0 1900 0 
L 519 0 
L 519 4666 
z
" transform="scale(0.015625)"/>
      <path id="Menlo-Regular-41" d="M 1925 4109 
L 1259 1722 
L 2591 1722 
L 1925 4109 
z
M 1544 4666 
L 2309 4666 
L 3738 0 
L 3084 0 
L 2741 1216 
L 1106 1216 
L 769 0 
L 116 0 
L 1544 4666 
z
" transform="scale(0.015625)"/>
      <path id="Menlo-Regular-b7" d="M 1528 2700 
L 2316 2700 
L 2316 1747 
L 1528 1747 
L 1528 2700 
z
" transform="scale(0.015625)"/>
      <path id="Menlo-Regular-45" d="M 616 4666 
L 3384 4666 
L 3384 4134 
L 1247 4134 
L 1247 2878 
L 3291 2878 
L 3291 2347 
L 1247 2347 
L 1247 531 
L 3444 531 
L 3444 0 
L 616 0 
L 616 4666 
z
" transform="scale(0.015625)"/>
      <path id="Menlo-Regular-2d" d="M 319 2263 
L 3631 2263 
L 3631 1734 
L 319 1734 
L 319 2263 
z
" transform="scale(0.015625)"/>
      <path id="Menlo-Regular-75" d="M 609 1325 
L 609 3494 
L 1184 3494 
L 1184 1325 
Q 1184 853 1351 631 
Q 1519 409 1869 409 
Q 2275 409 2490 695 
Q 2706 981 2706 1516 
L 2706 3494 
L 3284 3494 
L 3284 0 
L 2706 0 
L 2706 525 
Q 2553 222 2289 65 
Q 2025 -91 1672 -91 
Q 1134 -91 871 261 
Q 609 613 609 1325 
z
" transform="scale(0.015625)"/>
      <path id="Menlo-Regular-67" d="M 2681 1778 
Q 2681 2425 2470 2761 
Q 2259 3097 1856 3097 
Q 1434 3097 1212 2761 
Q 991 2425 991 1778 
Q 991 1131 1214 792 
Q 1438 453 1863 453 
Q 2259 453 2470 793 
Q 2681 1134 2681 1778 
z
M 3256 225 
Q 3256 -563 2884 -969 
Q 2513 -1375 1791 -1375 
Q 1553 -1375 1293 -1331 
Q 1034 -1288 775 -1203 
L 775 -634 
Q 1081 -778 1331 -847 
Q 1581 -916 1791 -916 
Q 2256 -916 2468 -662 
Q 2681 -409 2681 141 
L 2681 166 
L 2681 556 
Q 2544 263 2306 119 
Q 2069 -25 1728 -25 
Q 1116 -25 750 465 
Q 384 956 384 1778 
Q 384 2603 750 3093 
Q 1116 3584 1728 3584 
Q 2066 3584 2300 3450 
Q 2534 3316 2681 3034 
L 2681 3488 
L 3256 3488 
L 3256 225 
z
" transform="scale(0.015625)"/>
      <path id="Menlo-Regular-63" d="M 3316 178 
Q 3084 44 2839 -23 
Q 2594 -91 2338 -91 
Q 1525 -91 1067 396 
Q 609 884 609 1747 
Q 609 2609 1067 3096 
Q 1525 3584 2338 3584 
Q 2591 3584 2831 3518 
Q 3072 3453 3316 3316 
L 3316 2713 
Q 3088 2916 2858 3006 
Q 2628 3097 2338 3097 
Q 1797 3097 1506 2747 
Q 1216 2397 1216 1747 
Q 1216 1100 1508 748 
Q 1800 397 2338 397 
Q 2638 397 2875 489 
Q 3113 581 3316 775 
L 3316 178 
z
" transform="scale(0.015625)"/>
      <path id="Menlo-Regular-37" d="M 434 4666 
L 3372 4666 
L 3372 4397 
L 1703 0 
L 1044 0 
L 2669 4134 
L 434 4134 
L 434 4666 
z
" transform="scale(0.015625)"/>
     </defs>
     <use xlink:href="#Menlo-Regular-43"/>
     <use xlink:href="#Menlo-Regular-4f" transform="translate(60.205078 0)"/>
     <use xlink:href="#Menlo-Regular-42" transform="translate(120.410156 0)"/>
     <use xlink:href="#Menlo-Regular-41" transform="translate(180.615234 0)"/>
     <use xlink:href="#Menlo-Regular-20" transform="translate(240.820312 0)"/>
     <use xlink:href="#Menlo-Regular-b7" transform="translate(301.025391 0)"/>
     <use xlink:href="#Menlo-Regular-20" transform="translate(361.230469 0)"/>
     <use xlink:href="#Menlo-Regular-45" transform="translate(421.435547 0)"/>
     <use xlink:href="#Menlo-Regular-2d" transform="translate(481.640625 0)"/>
     <use xlink:href="#Menlo-Regular-6e" transform="translate(541.845703 0)"/>
     <use xlink:href="#Menlo-Regular-65" transform="translate(602.050781 0)"/>
     <use xlink:href="#Menlo-Regular-75" transform="translate(662.255859 0)"/>
     <use xlink:href="#Menlo-Regular-72" transform="translate(722.460938 0)"/>
     <use xlink:href="#Menlo-Regular-6f" transform="translate(782.666016 0)"/>
     <use xlink:href="#Menlo-Regular-6e" transform="translate(842.871094 0)"/>
     <use xlink:href="#Menlo-Regular-20" transform="translate(903.076172 0)"/>
     <use xlink:href="#Menlo-Regular-73" transform="translate(963.28125 0)"/>
     <use xlink:href="#Menlo-Regular-69" transform="translate(1023.486328 0)"/>
     <use xlink:href="#Menlo-Regular-67" transform="translate(1083.691406 0)"/>
     <use xlink:href="#Menlo-Regular-6e" transform="translate(1143.896484 0)"/>
     <use xlink:href="#Menlo-Regular-65" transform="translate(1204.101562 0)"/>
     <use xlink:href="#Menlo-Regular-64" transform="translate(1264.306641 0)"/>
     <use xlink:href="#Menlo-Regular-20" transform="translate(1324.511719 0)"/>
     <use xlink:href="#Menlo-Regular-63" transform="translate(1384.716797 0)"/>
     <use xlink:href="#Menlo-Regular-75" transform="translate(1444.921875 0)"/>
     <use xlink:href="#Menlo-Regular-72" transform="translate(1505.126953 0)"/>
     <use xlink:href="#Menlo-Regular-72" transform="translate(1565.332031 0)"/>
     <use xlink:href="#Menlo-Regular-65" transform="translate(1625.537109 0)"/>
     <use xlink:href="#Menlo-Regular-6e" transform="translate(1685.742188 0)"/>
     <use xlink:href="#Menlo-Regular-74" transform="translate(1745.947266 0)"/>
     <use xlink:href="#Menlo-Regular-73" transform="translate(1806.152344 0)"/>
     <use xlink:href="#Menlo-Regular-20" transform="translate(1866.357422 0)"/>
     <use xlink:href="#Menlo-Regular-28" transform="translate(1926.5625 0)"/>
     <use xlink:href="#Menlo-Regular-63" transform="translate(1986.767578 0)"/>
     <use xlink:href="#Menlo-Regular-65" transform="translate(2046.972656 0)"/>
     <use xlink:href="#Menlo-Regular-6c" transform="translate(2107.177734 0)"/>
     <use xlink:href="#Menlo-Regular-6c" transform="translate(2167.382812 0)"/>
     <use xlink:href="#Menlo-Regular-20" transform="translate(2227.587891 0)"/>
     <use xlink:href="#Menlo-Regular-31" transform="translate(2287.792969 0)"/>
     <use xlink:href="#Menlo-Regular-35" transform="translate(2347.998047 0)"/>
     <use xlink:href="#Menlo-Regular-37" transform="translate(2408.203125 0)"/>
     <use xlink:href="#Menlo-Regular-29" transform="translate(2468.408203 0)"/>
    </g>
   </g>
   <g id="legend_1">
    <g id="patch_7">
     <path d="M 177.24266 40.494687 
L 262.855941 40.494687 
L 262.855941 17.40125 
L 177.24266 17.40125 
z
" style="fill: #ffffff; stroke: #1a1a1a; stroke-width: 0.8; stroke-linejoin: miter"/>
    </g>
    <g id="line2d_19">
     <path d="M 180.04266 23.404844 
L 185.64266 23.404844 
L 191.24266 23.404844 
" style="fill: none; stroke: #1a1a1a; stroke-width: 0.9; stroke-linejoin: miter"/>
    </g>
    <g id="text_19">
     <!-- I_E in (depol.) -->
     <g style="fill: #1a1a1a" transform="translate(196.84266 25.854844) scale(0.07 -0.07)">
      <defs>
       <path id="Menlo-Regular-5f" d="M 3825 -594 
L 3825 -1125 
L 0 -1125 
L 0 -594 
L 3825 -594 
z
" transform="scale(0.015625)"/>
      </defs>
      <use xlink:href="#Menlo-Regular-49"/>
      <use xlink:href="#Menlo-Regular-5f" transform="translate(60.205078 0)"/>
      <use xlink:href="#Menlo-Regular-45" transform="translate(120.410156 0)"/>
      <use xlink:href="#Menlo-Regular-20" transform="translate(180.615234 0)"/>
      <use xlink:href="#Menlo-Regular-69" transform="translate(240.820312 0)"/>
      <use xlink:href="#Menlo-Regular-6e" transform="translate(301.025391 0)"/>
      <use xlink:href="#Menlo-Regular-20" transform="translate(361.230469 0)"/>
      <use xlink:href="#Menlo-Regular-28" transform="translate(421.435547 0)"/>
      <use xlink:href="#Menlo-Regular-64" transform="translate(481.640625 0)"/>
      <use xlink:href="#Menlo-Regular-65" transform="translate(541.845703 0)"/>
      <use xlink:href="#Menlo-Regular-70" transform="translate(602.050781 0)"/>
      <use xlink:href="#Menlo-Regular-6f" transform="translate(662.255859 0)"/>
      <use xlink:href="#Menlo-Regular-6c" transform="translate(722.460938 0)"/>
      <use xlink:href="#Menlo-Regular-2e" transform="translate(782.666016 0)"/>
      <use xlink:href="#Menlo-Regular-29" transform="translate(842.871094 0)"/>
     </g>
    </g>
    <g id="line2d_20">
     <path d="M 180.04266 33.788906 
L 185.64266 33.788906 
L 191.24266 33.788906 
" style="fill: none; stroke-dasharray: 0.7,1.155; stroke-dashoffset: 0; stroke: #bbbbbb; stroke-width: 0.7"/>
    </g>
    <g id="text_20">
     <!-- I_L in (leak) -->
     <g style="fill: #1a1a1a" transform="translate(196.84266 36.238906) scale(0.07 -0.07)">
      <defs>
       <path id="Menlo-Regular-4c" d="M 672 4666 
L 1306 4666 
L 1306 531 
L 3559 531 
L 3559 0 
L 672 0 
L 672 4666 
z
" transform="scale(0.015625)"/>
       <path id="Menlo-Regular-61" d="M 2194 1759 
L 2003 1759 
Q 1500 1759 1245 1582 
Q 991 1406 991 1056 
Q 991 741 1181 566 
Q 1372 391 1709 391 
Q 2184 391 2456 720 
Q 2728 1050 2731 1631 
L 2731 1759 
L 2194 1759 
z
M 3309 1997 
L 3309 0 
L 2731 0 
L 2731 519 
Q 2547 206 2267 57 
Q 1988 -91 1588 -91 
Q 1053 -91 734 211 
Q 416 513 416 1019 
Q 416 1603 808 1906 
Q 1200 2209 1959 2209 
L 2731 2209 
L 2731 2300 
Q 2728 2719 2518 2908 
Q 2309 3097 1850 3097 
Q 1556 3097 1256 3012 
Q 956 2928 672 2766 
L 672 3341 
Q 991 3463 1283 3523 
Q 1575 3584 1850 3584 
Q 2284 3584 2592 3456 
Q 2900 3328 3091 3072 
Q 3209 2916 3259 2686 
Q 3309 2456 3309 1997 
z
" transform="scale(0.015625)"/>
       <path id="Menlo-Regular-6b" d="M 738 4863 
L 1331 4863 
L 1331 2047 
L 2841 3500 
L 3541 3500 
L 2163 2181 
L 3756 0 
L 3053 0 
L 1759 1806 
L 1331 1403 
L 1331 0 
L 738 0 
L 738 4863 
z
" transform="scale(0.015625)"/>
      </defs>
      <use xlink:href="#Menlo-Regular-49"/>
      <use xlink:href="#Menlo-Regular-5f" transform="translate(60.205078 0)"/>
      <use xlink:href="#Menlo-Regular-4c" transform="translate(120.410156 0)"/>
      <use xlink:href="#Menlo-Regular-20" transform="translate(180.615234 0)"/>
      <use xlink:href="#Menlo-Regular-69" transform="translate(240.820312 0)"/>
      <use xlink:href="#Menlo-Regular-6e" transform="translate(301.025391 0)"/>
      <use xlink:href="#Menlo-Regular-20" transform="translate(361.230469 0)"/>
      <use xlink:href="#Menlo-Regular-28" transform="translate(421.435547 0)"/>
      <use xlink:href="#Menlo-Regular-6c" transform="translate(481.640625 0)"/>
      <use xlink:href="#Menlo-Regular-65" transform="translate(541.845703 0)"/>
      <use xlink:href="#Menlo-Regular-61" transform="translate(602.050781 0)"/>
      <use xlink:href="#Menlo-Regular-6b" transform="translate(662.255859 0)"/>
      <use xlink:href="#Menlo-Regular-29" transform="translate(722.460938 0)"/>
     </g>
    </g>
   </g>
  </g>
 </g>
 <defs>
  <clipPath id="pfa4dcfb5c1">
   <rect x="25.500938" y="13.90125" width="240.855003" height="111.06"/>
  </clipPath>
 </defs>
</svg>
