<?xml version="1.0" encoding="utf-8" standalone="no"?>
<!DOCTYPE svg PUBLIC "-//W3C//DTD SVG 1.1//EN"
  "http://www.w3.org/Graphics/SVG/1.1/DTD/svg11.dtd">
<svg xmlns:xlink="http://www.w3.org/1999/xlink" width="419.809844pt" height="106.564453pt" viewBox="0 0 419.809844 106.564453" xmlns="http://www.w3.org/2000/svg" version="1.1">
 <metadata>
  <rdf:RDF xmlns:dc="http://purl.org/dc/elements/1.1/" xmlns:cc="http://creativecommons.org/ns#" xmlns:rdf="http://www.w3.org/1999/02/22-rdf-syntax-ns#">
   <cc:Work>
    <dc:type rdf:resource="http://purl.org/dc/dcmitype/StillImage"/>
    <dc:date>2026-07-02T13:38:54.467890</dc:date>
    <dc:format>image/svg+xml</dc:format>
    <dc:creator>
     <cc:Agent>
      <dc:title>Matplotlib v3.10.8, https://matplotlib.org/</dc:title>
     </cc:Agent>
    </dc:creator>
   </cc:Work>
  </rdf:RDF>
 </metadata>
 <defs>
  <style type="text/css">*{stroke-linejoin: round; stroke-linecap: butt}</style>
 </defs>
 <g id="figure_1">
  <g id="patch_1">
   <path d="M -0 106.564453 
L 419.809844 106.564453 
L 419.809844 0 
L -0 0 
z
" style="fill: #ffffff"/>
  </g>
  <g id="axes_1">
   <g id="patch_2">
    <path d="M 29.457656 83.065078 
L 172.707656 83.065078 
L 172.707656 14.305078 
L 29.457656 14.305078 
z
" style="fill: #ffffff"/>
   </g>
   <g id="matplotlib.axis_1">
    <g id="xtick_1">
     <g id="line2d_1">
      <defs>
       <path id="m7c65338be0" d="M 0 0 
L 0 -3 
" style="stroke: #1a1a1a; stroke-width: 0.8"/>
      </defs>
      <g>
       <use xlink:href="#m7c65338be0" x="29.457656" y="83.065078" style="fill: #1a1a1a; stroke: #1a1a1a; stroke-width: 0.8"/>
      </g>
     </g>
     <g id="text_1">
      <!-- 0 -->
      <g style="fill: #1a1a1a" transform="translate(27.350547 91.903672) scale(0.07 -0.07)">
       <defs>
        <path id="Menlo-Regular-30" d="M 1925 4734 
Q 2672 4734 3055 4125 
Q 3438 3516 3438 2322 
Q 3438 1128 3055 518 
Q 2672 -91 1925 -91 
Q 1178 -91 797 518 
Q 416 1128 416 2322 
Q 416 3516 797 4125 
Q 1178 4734 1925 4734 
z
M 1925 409 
Q 2369 409 2586 881 
Q 2803 1353 2803 2322 
Q 2803 2838 2741 3253 
L 1253 925 
Q 1488 409 1925 409 
z
M 1925 4234 
Q 1484 4234 1267 3762 
Q 1050 3291 1050 2322 
Q 1050 1881 1109 1497 
L 2566 3819 
Q 2328 4234 1925 4234 
z
" transform="scale(0.015625)"/>
       </defs>
       <use xlink:href="#Menlo-Regular-30"/>
      </g>
     </g>
    </g>
    <g id="xtick_2">
     <g id="line2d_2">
      <g>
       <use xlink:href="#m7c65338be0" x="65.270156" y="83.065078" style="fill: #1a1a1a; stroke: #1a1a1a; stroke-width: 0.8"/>
      </g>
     </g>
     <g id="text_2">
      <!-- 100 -->
      <g style="fill: #1a1a1a" transform="translate(58.948828 91.903672) scale(0.07 -0.07)">
       <defs>
        <path id="Menlo-Regular-31" d="M 844 528 
L 1825 528 
L 1825 4053 
L 650 3488 
L 650 4094 
L 1819 4650 
L 2450 4650 
L 2450 528 
L 3419 528 
L 3419 0 
L 844 0 
L 844 528 
z
" transform="scale(0.015625)"/>
       </defs>
       <use xlink:href="#Menlo-Regular-31"/>
       <use xlink:href="#Menlo-Regular-30" transform="translate(60.205078 0)"/>
       <use xlink:href="#Menlo-Regular-30" transform="translate(120.410156 0)"/>
      </g>
     </g>
    </g>
    <g id="xtick_3">
     <g id="line2d_3">
      <g>
       <use xlink:href="#m7c65338be0" x="101.082655" y="83.065078" style="fill: #1a1a1a; stroke: #1a1a1a; stroke-width: 0.8"/>
      </g>
     </g>
     <g id="text_3">
      <!-- 200 -->
      <g style="fill: #1a1a1a" transform="translate(94.761327 91.903672) scale(0.07 -0.07)">
       <defs>
        <path id="Menlo-Regular-32" d="M 1166 531 
L 3309 531 
L 3309 0 
L 475 0 
L 475 531 
Q 1059 1147 1496 1619 
Q 1934 2091 2100 2284 
Q 2413 2666 2522 2902 
Q 2631 3138 2631 3384 
Q 2631 3775 2401 3997 
Q 2172 4219 1772 4219 
Q 1488 4219 1175 4116 
Q 863 4013 513 3803 
L 513 4441 
Q 834 4594 1145 4672 
Q 1456 4750 1759 4750 
Q 2444 4750 2861 4386 
Q 3278 4022 3278 3431 
Q 3278 3131 3139 2831 
Q 3000 2531 2688 2169 
Q 2513 1966 2180 1606 
Q 1847 1247 1166 531 
z
" transform="scale(0.015625)"/>
       </defs>
       <use xlink:href="#Menlo-Regular-32"/>
       <use xlink:href="#Menlo-Regular-30" transform="translate(60.205078 0)"/>
       <use xlink:href="#Menlo-Regular-30" transform="translate(120.410156 0)"/>
      </g>
     </g>
    </g>
    <g id="xtick_4">
     <g id="line2d_4">
      <g>
       <use xlink:href="#m7c65338be0" x="136.895155" y="83.065078" style="fill: #1a1a1a; stroke: #1a1a1a; stroke-width: 0.8"/>
      </g>
     </g>
     <g id="text_4">
      <!-- 300 -->
      <g style="fill: #1a1a1a" transform="translate(130.573827 91.903672) scale(0.07 -0.07)">
       <defs>
        <path id="Menlo-Regular-33" d="M 2425 2497 
Q 2884 2375 3128 2064 
Q 3372 1753 3372 1288 
Q 3372 644 2939 276 
Q 2506 -91 1741 -91 
Q 1419 -91 1084 -31 
Q 750 28 428 141 
L 428 769 
Q 747 603 1056 522 
Q 1366 441 1672 441 
Q 2191 441 2469 675 
Q 2747 909 2747 1350 
Q 2747 1756 2469 1995 
Q 2191 2234 1716 2234 
L 1234 2234 
L 1234 2753 
L 1716 2753 
Q 2150 2753 2394 2943 
Q 2638 3134 2638 3475 
Q 2638 3834 2411 4026 
Q 2184 4219 1766 4219 
Q 1488 4219 1191 4156 
Q 894 4094 569 3969 
L 569 4550 
Q 947 4650 1242 4700 
Q 1538 4750 1766 4750 
Q 2447 4750 2855 4408 
Q 3263 4066 3263 3500 
Q 3263 3116 3048 2859 
Q 2834 2603 2425 2497 
z
" transform="scale(0.015625)"/>
       </defs>
       <use xlink:href="#Menlo-Regular-33"/>
       <use xlink:href="#Menlo-Regular-30" transform="translate(60.205078 0)"/>
       <use xlink:href="#Menlo-Regular-30" transform="translate(120.410156 0)"/>
      </g>
     </g>
    </g>
    <g id="xtick_5">
     <g id="line2d_5">
      <g>
       <use xlink:href="#m7c65338be0" x="172.707654" y="83.065078" style="fill: #1a1a1a; stroke: #1a1a1a; stroke-width: 0.8"/>
      </g>
     </g>
     <g id="text_5">
      <!-- 400 -->
      <g style="fill: #1a1a1a" transform="translate(166.386326 91.903672) scale(0.07 -0.07)">
       <defs>
        <path id="Menlo-Regular-34" d="M 2297 4091 
L 825 1625 
L 2297 1625 
L 2297 4091 
z
M 2194 4666 
L 2925 4666 
L 2925 1625 
L 3547 1625 
L 3547 1113 
L 2925 1113 
L 2925 0 
L 2297 0 
L 2297 1113 
L 319 1113 
L 319 1709 
L 2194 4666 
z
" transform="scale(0.015625)"/>
       </defs>
       <use xlink:href="#Menlo-Regular-34"/>
       <use xlink:href="#Menlo-Regular-30" transform="translate(60.205078 0)"/>
       <use xlink:href="#Menlo-Regular-30" transform="translate(120.410156 0)"/>
      </g>
     </g>
    </g>
    <g id="text_6">
     <!-- time (ms) -->
     <g style="fill: #1a1a1a" transform="translate(79.409531 103.460703) scale(0.08 -0.08)">
      <defs>
       <path id="Menlo-Regular-74" d="M 1919 4494 
L 1919 3500 
L 3225 3500 
L 3225 3053 
L 1919 3053 
L 1919 1153 
Q 1919 766 2066 612 
Q 2213 459 2578 459 
L 3225 459 
L 3225 0 
L 2522 0 
Q 1875 0 1609 259 
Q 1344 519 1344 1153 
L 1344 3053 
L 409 3053 
L 409 3500 
L 1344 3500 
L 1344 4494 
L 1919 4494 
z
" transform="scale(0.015625)"/>
       <path id="Menlo-Regular-69" d="M 988 3488 
L 2459 3488 
L 2459 447 
L 3600 447 
L 3600 0 
L 744 0 
L 744 447 
L 1884 447 
L 1884 3041 
L 988 3041 
L 988 3488 
z
M 1884 4847 
L 2459 4847 
L 2459 4122 
L 1884 4122 
L 1884 4847 
z
" transform="scale(0.015625)"/>
       <path id="Menlo-Regular-6d" d="M 2113 3144 
Q 2219 3369 2383 3476 
Q 2547 3584 2778 3584 
Q 3200 3584 3373 3257 
Q 3547 2931 3547 2028 
L 3547 0 
L 3022 0 
L 3022 2003 
Q 3022 2744 2939 2923 
Q 2856 3103 2638 3103 
Q 2388 3103 2295 2911 
Q 2203 2719 2203 2003 
L 2203 0 
L 1678 0 
L 1678 2003 
Q 1678 2753 1589 2928 
Q 1500 3103 1269 3103 
Q 1041 3103 952 2911 
Q 863 2719 863 2003 
L 863 0 
L 341 0 
L 341 3500 
L 863 3500 
L 863 3200 
Q 966 3388 1120 3486 
Q 1275 3584 1472 3584 
Q 1709 3584 1867 3475 
Q 2025 3366 2113 3144 
z
" transform="scale(0.015625)"/>
       <path id="Menlo-Regular-65" d="M 3500 2038 
L 3500 1756 
L 1009 1756 
L 1009 1738 
Q 984 1022 1282 709 
Q 1581 397 2125 397 
Q 2400 397 2700 484 
Q 3000 572 3341 750 
L 3341 178 
Q 3013 44 2708 -23 
Q 2403 -91 2119 -91 
Q 1303 -91 843 398 
Q 384 888 384 1747 
Q 384 2584 834 3084 
Q 1284 3584 2034 3584 
Q 2703 3584 3089 3131 
Q 3475 2678 3500 2038 
z
M 2925 2206 
Q 2888 2569 2661 2833 
Q 2434 3097 2009 3097 
Q 1594 3097 1325 2822 
Q 1056 2547 1031 2203 
L 2925 2206 
z
" transform="scale(0.015625)"/>
       <path id="Menlo-Regular-20" transform="scale(0.015625)"/>
       <path id="Menlo-Regular-28" d="M 2672 5169 
Q 2256 4456 2051 3748 
Q 1847 3041 1847 2322 
Q 1847 1606 2051 897 
Q 2256 188 2672 -531 
L 2172 -531 
Q 1700 213 1469 917 
Q 1238 1622 1238 2322 
Q 1238 3019 1469 3725 
Q 1700 4431 2172 5169 
L 2672 5169 
z
" transform="scale(0.015625)"/>
       <path id="Menlo-Regular-73" d="M 3041 3378 
L 3041 2816 
Q 2794 2959 2544 3031 
Q 2294 3103 2034 3103 
Q 1644 3103 1451 2976 
Q 1259 2850 1259 2591 
Q 1259 2356 1403 2240 
Q 1547 2125 2119 2016 
L 2350 1972 
Q 2778 1891 2998 1647 
Q 3219 1403 3219 1013 
Q 3219 494 2850 201 
Q 2481 -91 1825 -91 
Q 1566 -91 1281 -36 
Q 997 19 666 128 
L 666 722 
Q 988 556 1281 473 
Q 1575 391 1838 391 
Q 2219 391 2428 545 
Q 2638 700 2638 978 
Q 2638 1378 1872 1531 
L 1847 1538 
L 1631 1581 
Q 1134 1678 906 1908 
Q 678 2138 678 2534 
Q 678 3038 1018 3311 
Q 1359 3584 1991 3584 
Q 2272 3584 2531 3532 
Q 2791 3481 3041 3378 
z
" transform="scale(0.015625)"/>
       <path id="Menlo-Regular-29" d="M 1088 5169 
L 1588 5169 
Q 2059 4431 2290 3725 
Q 2522 3019 2522 2322 
Q 2522 1619 2290 912 
Q 2059 206 1588 -531 
L 1088 -531 
Q 1503 194 1708 903 
Q 1913 1613 1913 2322 
Q 1913 3034 1708 3743 
Q 1503 4453 1088 5169 
z
" transform="scale(0.015625)"/>
      </defs>
      <use xlink:href="#Menlo-Regular-74"/>
      <use xlink:href="#Menlo-Regular-69" transform="translate(60.205078 0)"/>
      <use xlink:href="#Menlo-Regular-6d" transform="translate(120.410156 0)"/>
      <use xlink:href="#Menlo-Regular-65" transform="translate(180.615234 0)"/>
      <use xlink:href="#Menlo-Regular-20" transform="translate(240.820312 0)"/>
      <use xlink:href="#Menlo-Regular-28" transform="translate(301.025391 0)"/>
      <use xlink:href="#Menlo-Regular-6d" transform="translate(361.230469 0)"/>
      <use xlink:href="#Menlo-Regular-73" transform="translate(421.435547 0)"/>
      <use xlink:href="#Menlo-Regular-29" transform="translate(481.640625 0)"/>
     </g>
    </g>
   </g>
   <g id="matplotlib.axis_2">
    <g id="ytick_1">
     <g id="line2d_6">
      <defs>
       <path id="m53a127df24" d="M 0 0 
L 3 0 
" style="stroke: #1a1a1a; stroke-width: 0.8"/>
      </defs>
      <g>
       <use xlink:href="#m53a127df24" x="29.457656" y="79.939624" style="fill: #1a1a1a; stroke: #1a1a1a; stroke-width: 0.8"/>
      </g>
     </g>
     <g id="text_7">
      <!-- −65 -->
      <g style="fill: #1a1a1a" transform="translate(13.315 82.60892) scale(0.07 -0.07)">
       <defs>
        <path id="Menlo-Regular-2212" d="M 275 2272 
L 3578 2272 
L 3578 1741 
L 275 1741 
L 275 2272 
z
" transform="scale(0.015625)"/>
        <path id="Menlo-Regular-36" d="M 3097 4563 
L 3097 3981 
Q 2900 4097 2678 4158 
Q 2456 4219 2216 4219 
Q 1616 4219 1306 3767 
Q 997 3316 997 2438 
Q 1147 2750 1412 2917 
Q 1678 3084 2022 3084 
Q 2697 3084 3067 2670 
Q 3438 2256 3438 1497 
Q 3438 741 3056 325 
Q 2675 -91 1984 -91 
Q 1172 -91 794 492 
Q 416 1075 416 2328 
Q 416 3509 870 4129 
Q 1325 4750 2188 4750 
Q 2419 4750 2650 4701 
Q 2881 4653 3097 4563 
z
M 1972 2591 
Q 1569 2591 1337 2300 
Q 1106 2009 1106 1497 
Q 1106 984 1337 693 
Q 1569 403 1972 403 
Q 2391 403 2603 679 
Q 2816 956 2816 1497 
Q 2816 2041 2603 2316 
Q 2391 2591 1972 2591 
z
" transform="scale(0.015625)"/>
        <path id="Menlo-Regular-35" d="M 647 4666 
L 3009 4666 
L 3009 4134 
L 1222 4134 
L 1222 2988 
Q 1356 3038 1492 3061 
Q 1628 3084 1766 3084 
Q 2491 3084 2916 2656 
Q 3341 2228 3341 1497 
Q 3341 759 2895 334 
Q 2450 -91 1678 -91 
Q 1306 -91 998 -41 
Q 691 9 447 109 
L 447 750 
Q 734 594 1025 517 
Q 1316 441 1619 441 
Q 2141 441 2423 716 
Q 2706 991 2706 1497 
Q 2706 1997 2414 2275 
Q 2122 2553 1600 2553 
Q 1347 2553 1106 2495 
Q 866 2438 647 2322 
L 647 4666 
z
" transform="scale(0.015625)"/>
       </defs>
       <use xlink:href="#Menlo-Regular-2212"/>
       <use xlink:href="#Menlo-Regular-36" transform="translate(60.205078 0)"/>
       <use xlink:href="#Menlo-Regular-35" transform="translate(120.410156 0)"/>
      </g>
     </g>
    </g>
    <g id="ytick_2">
     <g id="line2d_7">
      <g>
       <use xlink:href="#m53a127df24" x="29.457656" y="59.096735" style="fill: #1a1a1a; stroke: #1a1a1a; stroke-width: 0.8"/>
      </g>
     </g>
     <g id="text_8">
      <!-- −60 -->
      <g style="fill: #1a1a1a" transform="translate(13.315 61.766032) scale(0.07 -0.07)">
       <use xlink:href="#Menlo-Regular-2212"/>
       <use xlink:href="#Menlo-Regular-36" transform="translate(60.205078 0)"/>
       <use xlink:href="#Menlo-Regular-30" transform="translate(120.410156 0)"/>
      </g>
     </g>
    </g>
    <g id="ytick_3">
     <g id="line2d_8">
      <g>
       <use xlink:href="#m53a127df24" x="29.457656" y="38.253846" style="fill: #1a1a1a; stroke: #1a1a1a; stroke-width: 0.8"/>
      </g>
     </g>
     <g id="text_9">
      <!-- −55 -->
      <g style="fill: #1a1a1a" transform="translate(13.315 40.923143) scale(0.07 -0.07)">
       <use xlink:href="#Menlo-Regular-2212"/>
       <use xlink:href="#Menlo-Regular-35" transform="translate(60.205078 0)"/>
       <use xlink:href="#Menlo-Regular-35" transform="translate(120.410156 0)"/>
      </g>
     </g>
    </g>
    <g id="ytick_4">
     <g id="line2d_9">
      <g>
       <use xlink:href="#m53a127df24" x="29.457656" y="17.410957" style="fill: #1a1a1a; stroke: #1a1a1a; stroke-width: 0.8"/>
      </g>
     </g>
     <g id="text_10">
      <!-- −50 -->
      <g style="fill: #1a1a1a" transform="translate(13.315 20.080254) scale(0.07 -0.07)">
       <use xlink:href="#Menlo-Regular-2212"/>
       <use xlink:href="#Menlo-Regular-35" transform="translate(60.205078 0)"/>
       <use xlink:href="#Menlo-Regular-30" transform="translate(120.410156 0)"/>
      </g>
     </g>
    </g>
    <g id="text_11">
     <!-- V_I (neuron 38)  [mV] -->
     <g style="fill: #1a1a1a" transform="translate(7.65125 99.255703) rotate(-90) scale(0.08 -0.08)">
      <defs>
       <path id="Menlo-Regular-56" d="M 1925 531 
L 3022 4666 
L 3675 4666 
L 2309 0 
L 1544 0 
L 178 4666 
L 831 4666 
L 1925 531 
z
" transform="scale(0.015625)"/>
       <path id="Menlo-Regular-5f" d="M 3825 -594 
L 3825 -1125 
L 0 -1125 
L 0 -594 
L 3825 -594 
z
" transform="scale(0.015625)"/>
       <path id="Menlo-Regular-49" d="M 628 4666 
L 3219 4666 
L 3219 4134 
L 2241 4134 
L 2241 531 
L 3219 531 
L 3219 0 
L 628 0 
L 628 531 
L 1606 531 
L 1606 4134 
L 628 4134 
L 628 4666 
z
" transform="scale(0.015625)"/>
       <path id="Menlo-Regular-6e" d="M 3284 2169 
L 3284 0 
L 2706 0 
L 2706 2169 
Q 2706 2641 2540 2862 
Q 2375 3084 2022 3084 
Q 1619 3084 1401 2798 
Q 1184 2513 1184 1978 
L 1184 0 
L 609 0 
L 609 3500 
L 1184 3500 
L 1184 2975 
Q 1338 3275 1600 3429 
Q 1863 3584 2222 3584 
Q 2756 3584 3020 3232 
Q 3284 2881 3284 2169 
z
" transform="scale(0.015625)"/>
       <path id="Menlo-Regular-75" d="M 609 1325 
L 609 3494 
L 1184 3494 
L 1184 1325 
Q 1184 853 1351 631 
Q 1519 409 1869 409 
Q 2275 409 2490 695 
Q 2706 981 2706 1516 
L 2706 3494 
L 3284 3494 
L 3284 0 
L 2706 0 
L 2706 525 
Q 2553 222 2289 65 
Q 2025 -91 1672 -91 
Q 1134 -91 871 261 
Q 609 613 609 1325 
z
" transform="scale(0.015625)"/>
       <path id="Menlo-Regular-72" d="M 3609 2778 
Q 3425 2922 3234 2987 
Q 3044 3053 2816 3053 
Q 2278 3053 1993 2715 
Q 1709 2378 1709 1741 
L 1709 0 
L 1131 0 
L 1131 3500 
L 1709 3500 
L 1709 2816 
Q 1853 3188 2151 3386 
Q 2450 3584 2859 3584 
Q 3072 3584 3256 3531 
Q 3441 3478 3609 3366 
L 3609 2778 
z
" transform="scale(0.015625)"/>
       <path id="Menlo-Regular-6f" d="M 1925 3097 
Q 1488 3097 1263 2756 
Q 1038 2416 1038 1747 
Q 1038 1081 1263 739 
Q 1488 397 1925 397 
Q 2366 397 2591 739 
Q 2816 1081 2816 1747 
Q 2816 2416 2591 2756 
Q 2366 3097 1925 3097 
z
M 1925 3584 
Q 2653 3584 3039 3112 
Q 3425 2641 3425 1747 
Q 3425 850 3040 379 
Q 2656 -91 1925 -91 
Q 1197 -91 812 379 
Q 428 850 428 1747 
Q 428 2641 812 3112 
Q 1197 3584 1925 3584 
z
" transform="scale(0.015625)"/>
       <path id="Menlo-Regular-38" d="M 1925 2216 
Q 1503 2216 1273 1980 
Q 1044 1744 1044 1313 
Q 1044 881 1276 642 
Q 1509 403 1925 403 
Q 2350 403 2579 639 
Q 2809 875 2809 1313 
Q 2809 1741 2576 1978 
Q 2344 2216 1925 2216 
z
M 1375 2478 
Q 972 2581 745 2862 
Q 519 3144 519 3541 
Q 519 4097 897 4423 
Q 1275 4750 1925 4750 
Q 2578 4750 2956 4423 
Q 3334 4097 3334 3541 
Q 3334 3144 3107 2862 
Q 2881 2581 2478 2478 
Q 2947 2375 3195 2062 
Q 3444 1750 3444 1253 
Q 3444 622 3041 265 
Q 2638 -91 1925 -91 
Q 1213 -91 811 264 
Q 409 619 409 1247 
Q 409 1747 657 2061 
Q 906 2375 1375 2478 
z
M 1147 3481 
Q 1147 3106 1347 2909 
Q 1547 2713 1925 2713 
Q 2306 2713 2506 2909 
Q 2706 3106 2706 3481 
Q 2706 3863 2507 4063 
Q 2309 4263 1925 4263 
Q 1547 4263 1347 4061 
Q 1147 3859 1147 3481 
z
" transform="scale(0.015625)"/>
       <path id="Menlo-Regular-5b" d="M 1759 5175 
L 3084 5175 
L 3084 4728 
L 2334 4728 
L 2334 -84 
L 3084 -84 
L 3084 -531 
L 1759 -531 
L 1759 5175 
z
" transform="scale(0.015625)"/>
       <path id="Menlo-Regular-5d" d="M 2250 5175 
L 2250 -531 
L 925 -531 
L 925 -84 
L 1675 -84 
L 1675 4728 
L 925 4728 
L 925 5175 
L 2250 5175 
z
" transform="scale(0.015625)"/>
      </defs>
      <use xlink:href="#Menlo-Regular-56"/>
      <use xlink:href="#Menlo-Regular-5f" transform="translate(60.205078 0)"/>
      <use xlink:href="#Menlo-Regular-49" transform="translate(120.410156 0)"/>
      <use xlink:href="#Menlo-Regular-20" transform="translate(180.615234 0)"/>
      <use xlink:href="#Menlo-Regular-28" transform="translate(240.820312 0)"/>
      <use xlink:href="#Menlo-Regular-6e" transform="translate(301.025391 0)"/>
      <use xlink:href="#Menlo-Regular-65" transform="translate(361.230469 0)"/>
      <use xlink:href="#Menlo-Regular-75" transform="translate(421.435547 0)"/>
      <use xlink:href="#Menlo-Regular-72" transform="translate(481.640625 0)"/>
      <use xlink:href="#Menlo-Regular-6f" transform="translate(541.845703 0)"/>
      <use xlink:href="#Menlo-Regular-6e" transform="translate(602.050781 0)"/>
      <use xlink:href="#Menlo-Regular-20" transform="translate(662.255859 0)"/>
      <use xlink:href="#Menlo-Regular-33" transform="translate(722.460938 0)"/>
      <use xlink:href="#Menlo-Regular-38" transform="translate(782.666016 0)"/>
      <use xlink:href="#Menlo-Regular-29" transform="translate(842.871094 0)"/>
      <use xlink:href="#Menlo-Regular-20" transform="translate(903.076172 0)"/>
      <use xlink:href="#Menlo-Regular-20" transform="translate(963.28125 0)"/>
      <use xlink:href="#Menlo-Regular-5b" transform="translate(1023.486328 0)"/>
      <use xlink:href="#Menlo-Regular-6d" transform="translate(1083.691406 0)"/>
      <use xlink:href="#Menlo-Regular-56" transform="translate(1143.896484 0)"/>
      <use xlink:href="#Menlo-Regular-5d" transform="translate(1204.101562 0)"/>
     </g>
    </g>
   </g>
   <g id="line2d_10">
    <path d="M 29.457656 79.939624 
L 32.036156 79.832254 
L 32.931469 77.015875 
L 33.110531 74.183483 
L 33.647719 59.514493 
L 34.650469 25.965889 
L 34.936969 18.100939 
L 34.972781 17.654669 
L 35.116031 79.939624 
L 35.187656 79.939624 
L 35.545781 68.997743 
L 35.868094 64.79019 
L 36.118781 63.608236 
L 36.297844 63.461478 
L 36.441094 63.631135 
L 36.691781 64.34225 
L 37.228969 66.744799 
L 38.518219 72.57536 
L 39.270281 74.949715 
L 39.986531 76.542254 
L 40.738594 77.687697 
L 41.526469 78.482313 
L 42.385969 79.035412 
L 43.424531 79.432609 
L 44.785406 79.702304 
L 46.862531 79.865139 
L 48.975469 79.916693 
L 49.369406 79.03538 
L 49.476844 78.726057 
L 49.906594 76.962763 
L 50.085656 75.619326 
L 51.124219 61.972523 
L 51.697219 51.552224 
L 52.914844 31.864462 
L 53.738531 18.780267 
L 53.845969 17.611575 
L 53.989219 79.939624 
L 54.060844 79.939624 
L 54.418969 69.915265 
L 54.741281 66.047296 
L 55.027781 64.893997 
L 55.206844 64.838532 
L 55.385906 65.116766 
L 55.708219 66.139972 
L 56.603531 70.092109 
L 57.498844 73.537168 
L 58.250906 75.613522 
L 59.002969 77.055089 
L 59.755031 78.029587 
L 60.578719 78.728538 
L 61.509844 79.21787 
L 61.903781 79.27712 
L 62.261906 78.819433 
L 62.512594 78.504703 
L 62.870719 77.869487 
L 63.193031 77.705476 
L 63.586969 77.779228 
L 63.980906 77.902309 
L 64.159969 77.444303 
L 64.374844 75.396366 
L 65.162719 68.686448 
L 66.380344 62.718479 
L 67.024969 54.357869 
L 67.669594 43.916626 
L 68.887219 20.141975 
L 69.102094 17.602591 
L 69.245344 79.939624 
L 69.316969 79.939624 
L 69.675094 69.715331 
L 69.997406 65.773163 
L 70.248094 64.662609 
L 70.427156 64.522784 
L 70.606219 64.748527 
L 70.892719 65.597178 
L 71.537344 68.423416 
L 72.611719 72.922991 
L 73.399594 75.270137 
L 74.151656 76.821809 
L 74.903719 77.873558 
L 75.691594 78.602754 
L 76.586906 79.126593 
L 76.658531 79.158365 
L 76.694344 79.055639 
L 77.016656 77.900782 
L 78.019406 73.038136 
L 78.305906 72.058041 
L 78.484969 71.606428 
L 78.807281 67.550197 
L 79.272844 60.083509 
L 80.239781 49.619957 
L 80.669531 39.888112 
L 81.636469 17.430533 
L 81.779719 79.939624 
L 81.851344 79.939624 
L 82.209469 68.474794 
L 82.531781 64.074717 
L 82.782469 62.841258 
L 82.961531 62.689665 
L 83.104781 62.86845 
L 83.355469 63.61412 
L 83.892656 66.129731 
L 85.181906 72.231752 
L 85.933969 74.716736 
L 86.650219 76.383617 
L 87.402281 77.582491 
L 88.190156 78.41419 
L 89.049656 78.993177 
L 90.016594 79.38732 
L 90.840281 77.197347 
L 91.377469 73.948851 
L 91.735594 71.263631 
L 92.451844 63.39636 
L 92.738344 60.262453 
L 93.168094 55.90865 
L 93.311344 54.81694 
L 93.884344 45.150245 
L 94.743844 25.200055 
L 95.030344 21.891053 
L 95.137781 21.586532 
L 95.173594 21.60897 
L 95.245219 21.665707 
L 95.388469 22.374915 
L 95.674969 25.463883 
L 97.644656 51.129425 
L 97.716281 51.246351 
L 97.752094 51.123064 
L 98.575781 49.341054 
L 98.683219 49.450967 
L 98.862281 49.927037 
L 98.933906 49.860011 
L 99.112969 49.244561 
L 99.256219 48.247769 
L 99.578531 45.991772 
L 100.008281 43.394537 
L 100.939406 34.921579 
L 101.118469 34.343706 
L 101.225906 34.421927 
L 101.261719 34.355839 
L 101.333344 34.211704 
L 101.798906 31.813624 
L 102.873281 19.735969 
L 102.980719 20.028388 
L 103.195594 21.79553 
L 103.589531 27.455353 
L 105.451781 56.939965 
L 106.203844 64.430935 
L 106.920094 69.40367 
L 107.600531 72.683016 
L 108.280969 74.956982 
L 108.961406 76.524317 
L 109.677656 77.647211 
L 109.856719 77.864876 
L 109.928344 77.791695 
L 110.250656 77.651918 
L 110.322281 77.56732 
L 110.644594 77.121368 
L 110.787844 77.056489 
L 111.468281 72.676257 
L 111.826406 68.098032 
L 112.327781 61.187496 
L 113.366344 48.522982 
L 113.581219 46.412662 
L 114.190031 38.451618 
L 114.906281 24.065585 
L 115.371844 20.301868 
L 115.407656 20.315671 
L 115.515094 20.679363 
L 115.729969 22.534728 
L 116.159719 28.83476 
L 117.842906 55.650038 
L 118.594969 63.514813 
L 119.096344 66.891096 
L 119.633531 69.040933 
L 120.242344 70.761323 
L 120.421406 70.708418 
L 120.636281 70.915762 
L 120.779531 70.990771 
L 121.066031 70.516053 
L 121.388344 69.714838 
L 121.925531 64.708343 
L 122.999906 48.763148 
L 123.895219 39.968687 
L 124.396594 37.785139 
L 124.539844 37.374203 
L 124.754719 34.152152 
L 125.793281 19.021975 
L 125.972344 18.261818 
L 126.079781 18.571348 
L 126.294656 20.395149 
L 126.688594 26.202413 
L 128.550844 56.389347 
L 129.302906 64.058625 
L 130.019156 69.150226 
L 130.699594 72.508238 
L 131.308406 74.52504 
L 131.559094 74.471784 
L 131.809781 74.286464 
L 132.060469 74.391114 
L 132.096281 74.422377 
L 132.132094 74.355812 
L 132.812531 70.976014 
L 133.134844 68.077407 
L 133.528781 64.486242 
L 133.958531 61.277055 
L 134.316656 57.75104 
L 134.746406 54.699107 
L 134.961281 53.23833 
L 135.247781 50.137721 
L 135.570094 45.764041 
L 137.324906 17.520776 
L 137.468156 79.939624 
L 137.539781 79.939624 
L 137.897906 67.391703 
L 138.220219 62.595558 
L 138.470906 61.256892 
L 138.649969 61.095917 
L 138.793219 61.293895 
L 139.043906 62.111314 
L 139.581094 64.860444 
L 140.870344 71.522641 
L 141.622406 74.235848 
L 141.837281 74.594944 
L 142.159594 74.906923 
L 142.875844 76.010051 
L 143.448844 76.898202 
L 143.484656 76.85145 
L 143.914406 76.200651 
L 144.165094 75.667032 
L 144.272531 75.138072 
L 145.132031 70.205076 
L 145.561781 68.504213 
L 146.027344 66.881698 
L 146.134781 66.384002 
L 146.385469 65.437571 
L 146.564531 65.354626 
L 146.671969 65.30285 
L 146.743594 65.190678 
L 147.173344 62.893877 
L 147.495656 56.972405 
L 148.319344 40.753412 
L 149.107219 29.644546 
L 149.572781 20.781198 
L 149.680219 20.582393 
L 149.716031 20.636984 
L 149.859281 21.34907 
L 150.145781 24.479431 
L 150.754594 34.497317 
L 151.900594 52.876626 
L 152.652656 61.530706 
L 153.368906 67.377184 
L 154.049344 71.266684 
L 154.729781 73.976425 
L 155.410219 75.849092 
L 156.126469 77.192641 
L 156.878531 78.132886 
L 157.702219 78.798411 
L 158.633344 79.260964 
L 159.098906 79.416293 
L 160.101656 76.746339 
L 161.677406 68.425817 
L 161.749031 68.320101 
L 162.322031 66.928386 
L 162.572719 65.591771 
L 163.074094 61.984958 
L 163.253156 60.318904 
L 164.220094 45.649929 
L 165.222844 25.963058 
L 165.509344 21.634285 
L 165.616781 21.30499 
L 165.652594 21.32086 
L 165.760031 21.684408 
L 165.974906 23.517463 
L 166.404656 29.721893 
L 168.087844 56.085034 
L 168.839906 63.810826 
L 169.556156 68.967212 
L 170.236594 72.376857 
L 170.917031 74.744612 
L 171.597469 76.377956 
L 172.313719 77.54862 
L 172.636031 77.196075 
L 172.671844 77.180682 
L 172.671844 77.180682 
" clip-path="url(#p69258c7edf)" style="fill: none; stroke: #c8102e; stroke-width: 0.8; stroke-linejoin: miter"/>
   </g>
   <g id="line2d_11">
    <path d="M 29.457656 17.410957 
L 172.707656 17.410957 
" clip-path="url(#p69258c7edf)" style="fill: none; stroke-dasharray: 1.85,0.8; stroke-dashoffset: 0; stroke: #bbbbbb; stroke-width: 0.5"/>
   </g>
   <g id="patch_3">
    <path d="M 29.457656 83.065078 
L 29.457656 14.305078 
" style="fill: none; stroke: #1a1a1a; stroke-width: 0.8; stroke-linejoin: miter; stroke-linecap: square"/>
   </g>
   <g id="patch_4">
    <path d="M 172.707656 83.065078 
L 172.707656 14.305078 
" style="fill: none; stroke: #1a1a1a; stroke-width: 0.8; stroke-linejoin: miter; stroke-linecap: square"/>
   </g>
   <g id="patch_5">
    <path d="M 29.457656 83.065078 
L 172.707656 83.065078 
" style="fill: none; stroke: #1a1a1a; stroke-width: 0.8; stroke-linejoin: miter; stroke-linecap: square"/>
   </g>
   <g id="patch_6">
    <path d="M 29.457656 14.305078 
L 172.707656 14.305078 
" style="fill: none; stroke: #1a1a1a; stroke-width: 0.8; stroke-linejoin: miter; stroke-linecap: square"/>
   </g>
   <g id="text_12">
    <!-- PING — recurrent loop active (ei-strength = 1.5) — I-neuron membrane voltage -->
    <g style="fill: #1a1a1a" transform="translate(29.457656 8.305078) scale(0.085 -0.085)">
     <defs>
      <path id="Menlo-Regular-50" d="M 1247 4147 
L 1247 2394 
L 1978 2394 
Q 2416 2394 2661 2625 
Q 2906 2856 2906 3272 
Q 2906 3688 2662 3917 
Q 2419 4147 1978 4147 
L 1247 4147 
z
M 616 4666 
L 1978 4666 
Q 2759 4666 3162 4311 
Q 3566 3956 3566 3272 
Q 3566 2581 3164 2228 
Q 2763 1875 1978 1875 
L 1247 1875 
L 1247 0 
L 616 0 
L 616 4666 
z
" transform="scale(0.015625)"/>
      <path id="Menlo-Regular-4e" d="M 59 4650 
L 922 4650 
L 2747 822 
L 2747 4650 
L 3419 4650 
L 3419 0 
L 2556 0 
L 731 3828 
L 731 0 
L 59 0 
L 59 4650 
z
" transform="scale(0.015625)"/>
      <path id="Menlo-Regular-47" d="M 3450 384 
Q 3197 150 2880 29 
Q 2563 -91 2194 -91 
Q 1306 -91 812 545 
Q 319 1181 319 2328 
Q 319 3472 819 4111 
Q 1319 4750 2209 4750 
Q 2503 4750 2772 4667 
Q 3041 4584 3291 4416 
L 3291 3769 
Q 3038 4009 2772 4123 
Q 2506 4238 2209 4238 
Q 1594 4238 1286 3761 
Q 978 3284 978 2328 
Q 978 1356 1276 889 
Q 1575 422 2194 422 
Q 2403 422 2561 470 
Q 2719 519 2847 622 
L 2847 1875 
L 2169 1875 
L 2169 2394 
L 3450 2394 
L 3450 384 
z
" transform="scale(0.015625)"/>
      <path id="Menlo-Regular-2014" d="M 0 2259 
L 3853 2259 
L 3853 1725 
L 0 1725 
L 0 2259 
z
" transform="scale(0.015625)"/>
      <path id="Menlo-Regular-63" d="M 3316 178 
Q 3084 44 2839 -23 
Q 2594 -91 2338 -91 
Q 1525 -91 1067 396 
Q 609 884 609 1747 
Q 609 2609 1067 3096 
Q 1525 3584 2338 3584 
Q 2591 3584 2831 3518 
Q 3072 3453 3316 3316 
L 3316 2713 
Q 3088 2916 2858 3006 
Q 2628 3097 2338 3097 
Q 1797 3097 1506 2747 
Q 1216 2397 1216 1747 
Q 1216 1100 1508 748 
Q 1800 397 2338 397 
Q 2638 397 2875 489 
Q 3113 581 3316 775 
L 3316 178 
z
" transform="scale(0.015625)"/>
      <path id="Menlo-Regular-6c" d="M 2247 1266 
Q 2247 878 2389 681 
Q 2531 484 2809 484 
L 3481 484 
L 3481 0 
L 2753 0 
Q 2238 0 1955 329 
Q 1672 659 1672 1266 
L 1672 4431 
L 750 4431 
L 750 4881 
L 2247 4881 
L 2247 1266 
z
" transform="scale(0.015625)"/>
      <path id="Menlo-Regular-70" d="M 1172 441 
L 1172 -1331 
L 594 -1331 
L 594 3500 
L 1172 3500 
L 1172 3053 
Q 1316 3313 1555 3448 
Q 1794 3584 2106 3584 
Q 2741 3584 3102 3093 
Q 3463 2603 3463 1734 
Q 3463 881 3100 395 
Q 2738 -91 2106 -91 
Q 1788 -91 1548 45 
Q 1309 181 1172 441 
z
M 2859 1747 
Q 2859 2416 2648 2756 
Q 2438 3097 2022 3097 
Q 1603 3097 1387 2755 
Q 1172 2413 1172 1747 
Q 1172 1084 1387 740 
Q 1603 397 2022 397 
Q 2438 397 2648 737 
Q 2859 1078 2859 1747 
z
" transform="scale(0.015625)"/>
      <path id="Menlo-Regular-61" d="M 2194 1759 
L 2003 1759 
Q 1500 1759 1245 1582 
Q 991 1406 991 1056 
Q 991 741 1181 566 
Q 1372 391 1709 391 
Q 2184 391 2456 720 
Q 2728 1050 2731 1631 
L 2731 1759 
L 2194 1759 
z
M 3309 1997 
L 3309 0 
L 2731 0 
L 2731 519 
Q 2547 206 2267 57 
Q 1988 -91 1588 -91 
Q 1053 -91 734 211 
Q 416 513 416 1019 
Q 416 1603 808 1906 
Q 1200 2209 1959 2209 
L 2731 2209 
L 2731 2300 
Q 2728 2719 2518 2908 
Q 2309 3097 1850 3097 
Q 1556 3097 1256 3012 
Q 956 2928 672 2766 
L 672 3341 
Q 991 3463 1283 3523 
Q 1575 3584 1850 3584 
Q 2284 3584 2592 3456 
Q 2900 3328 3091 3072 
Q 3209 2916 3259 2686 
Q 3309 2456 3309 1997 
z
" transform="scale(0.015625)"/>
      <path id="Menlo-Regular-76" d="M 313 3500 
L 909 3500 
L 1925 563 
L 2944 3500 
L 3541 3500 
L 2297 0 
L 1556 0 
L 313 3500 
z
" transform="scale(0.015625)"/>
      <path id="Menlo-Regular-2d" d="M 319 2263 
L 3631 2263 
L 3631 1734 
L 319 1734 
L 319 2263 
z
" transform="scale(0.015625)"/>
      <path id="Menlo-Regular-67" d="M 2681 1778 
Q 2681 2425 2470 2761 
Q 2259 3097 1856 3097 
Q 1434 3097 1212 2761 
Q 991 2425 991 1778 
Q 991 1131 1214 792 
Q 1438 453 1863 453 
Q 2259 453 2470 793 
Q 2681 1134 2681 1778 
z
M 3256 225 
Q 3256 -563 2884 -969 
Q 2513 -1375 1791 -1375 
Q 1553 -1375 1293 -1331 
Q 1034 -1288 775 -1203 
L 775 -634 
Q 1081 -778 1331 -847 
Q 1581 -916 1791 -916 
Q 2256 -916 2468 -662 
Q 2681 -409 2681 141 
L 2681 166 
L 2681 556 
Q 2544 263 2306 119 
Q 2069 -25 1728 -25 
Q 1116 -25 750 465 
Q 384 956 384 1778 
Q 384 2603 750 3093 
Q 1116 3584 1728 3584 
Q 2066 3584 2300 3450 
Q 2534 3316 2681 3034 
L 2681 3488 
L 3256 3488 
L 3256 225 
z
" transform="scale(0.015625)"/>
      <path id="Menlo-Regular-68" d="M 3284 2169 
L 3284 0 
L 2706 0 
L 2706 2169 
Q 2706 2641 2540 2862 
Q 2375 3084 2022 3084 
Q 1619 3084 1401 2798 
Q 1184 2513 1184 1978 
L 1184 0 
L 609 0 
L 609 4863 
L 1184 4863 
L 1184 2975 
Q 1338 3275 1600 3429 
Q 1863 3584 2222 3584 
Q 2756 3584 3020 3232 
Q 3284 2881 3284 2169 
z
" transform="scale(0.015625)"/>
      <path id="Menlo-Regular-3d" d="M 275 1563 
L 3578 1563 
L 3578 1034 
L 275 1034 
L 275 1563 
z
M 275 3034 
L 3578 3034 
L 3578 2506 
L 275 2506 
L 275 3034 
z
" transform="scale(0.015625)"/>
      <path id="Menlo-Regular-2e" d="M 1216 1263 
L 2316 1263 
L 2316 0 
L 1216 0 
L 1216 1263 
z
" transform="scale(0.015625)"/>
      <path id="Menlo-Regular-62" d="M 2869 1747 
Q 2869 2416 2656 2756 
Q 2444 3097 2028 3097 
Q 1609 3097 1393 2755 
Q 1178 2413 1178 1747 
Q 1178 1084 1393 740 
Q 1609 397 2028 397 
Q 2444 397 2656 737 
Q 2869 1078 2869 1747 
z
M 1178 3053 
Q 1316 3309 1558 3446 
Q 1800 3584 2119 3584 
Q 2750 3584 3112 3098 
Q 3475 2613 3475 1759 
Q 3475 894 3111 401 
Q 2747 -91 2113 -91 
Q 1800 -91 1561 45 
Q 1322 181 1178 441 
L 1178 0 
L 603 0 
L 603 4863 
L 1178 4863 
L 1178 3053 
z
" transform="scale(0.015625)"/>
     </defs>
     <use xlink:href="#Menlo-Regular-50"/>
     <use xlink:href="#Menlo-Regular-49" transform="translate(60.205078 0)"/>
     <use xlink:href="#Menlo-Regular-4e" transform="translate(120.410156 0)"/>
     <use xlink:href="#Menlo-Regular-47" transform="translate(180.615234 0)"/>
     <use xlink:href="#Menlo-Regular-20" transform="translate(240.820312 0)"/>
     <use xlink:href="#Menlo-Regular-2014" transform="translate(301.025391 0)"/>
     <use xlink:href="#Menlo-Regular-20" transform="translate(361.230469 0)"/>
     <use xlink:href="#Menlo-Regular-72" transform="translate(421.435547 0)"/>
     <use xlink:href="#Menlo-Regular-65" transform="translate(481.640625 0)"/>
     <use xlink:href="#Menlo-Regular-63" transform="translate(541.845703 0)"/>
     <use xlink:href="#Menlo-Regular-75" transform="translate(602.050781 0)"/>
     <use xlink:href="#Menlo-Regular-72" transform="translate(662.255859 0)"/>
     <use xlink:href="#Menlo-Regular-72" transform="translate(722.460938 0)"/>
     <use xlink:href="#Menlo-Regular-65" transform="translate(782.666016 0)"/>
     <use xlink:href="#Menlo-Regular-6e" transform="translate(842.871094 0)"/>
     <use xlink:href="#Menlo-Regular-74" transform="translate(903.076172 0)"/>
     <use xlink:href="#Menlo-Regular-20" transform="translate(963.28125 0)"/>
     <use xlink:href="#Menlo-Regular-6c" transform="translate(1023.486328 0)"/>
     <use xlink:href="#Menlo-Regular-6f" transform="translate(1083.691406 0)"/>
     <use xlink:href="#Menlo-Regular-6f" transform="translate(1143.896484 0)"/>
     <use xlink:href="#Menlo-Regular-70" transform="translate(1204.101562 0)"/>
     <use xlink:href="#Menlo-Regular-20" transform="translate(1264.306641 0)"/>
     <use xlink:href="#Menlo-Regular-61" transform="translate(1324.511719 0)"/>
     <use xlink:href="#Menlo-Regular-63" transform="translate(1384.716797 0)"/>
     <use xlink:href="#Menlo-Regular-74" transform="translate(1444.921875 0)"/>
     <use xlink:href="#Menlo-Regular-69" transform="translate(1505.126953 0)"/>
     <use xlink:href="#Menlo-Regular-76" transform="translate(1565.332031 0)"/>
     <use xlink:href="#Menlo-Regular-65" transform="translate(1625.537109 0)"/>
     <use xlink:href="#Menlo-Regular-20" transform="translate(1685.742188 0)"/>
     <use xlink:href="#Menlo-Regular-28" transform="translate(1745.947266 0)"/>
     <use xlink:href="#Menlo-Regular-65" transform="translate(1806.152344 0)"/>
     <use xlink:href="#Menlo-Regular-69" transform="translate(1866.357422 0)"/>
     <use xlink:href="#Menlo-Regular-2d" transform="translate(1926.5625 0)"/>
     <use xlink:href="#Menlo-Regular-73" transform="translate(1986.767578 0)"/>
     <use xlink:href="#Menlo-Regular-74" transform="translate(2046.972656 0)"/>
     <use xlink:href="#Menlo-Regular-72" transform="translate(2107.177734 0)"/>
     <use xlink:href="#Menlo-Regular-65" transform="translate(2167.382812 0)"/>
     <use xlink:href="#Menlo-Regular-6e" transform="translate(2227.587891 0)"/>
     <use xlink:href="#Menlo-Regular-67" transform="translate(2287.792969 0)"/>
     <use xlink:href="#Menlo-Regular-74" transform="translate(2347.998047 0)"/>
     <use xlink:href="#Menlo-Regular-68" transform="translate(2408.203125 0)"/>
     <use xlink:href="#Menlo-Regular-20" transform="translate(2468.408203 0)"/>
     <use xlink:href="#Menlo-Regular-3d" transform="translate(2528.613281 0)"/>
     <use xlink:href="#Menlo-Regular-20" transform="translate(2588.818359 0)"/>
     <use xlink:href="#Menlo-Regular-31" transform="translate(2649.023438 0)"/>
     <use xlink:href="#Menlo-Regular-2e" transform="translate(2709.228516 0)"/>
     <use xlink:href="#Menlo-Regular-35" transform="translate(2769.433594 0)"/>
     <use xlink:href="#Menlo-Regular-29" transform="translate(2829.638672 0)"/>
     <use xlink:href="#Menlo-Regular-20" transform="translate(2889.84375 0)"/>
     <use xlink:href="#Menlo-Regular-2014" transform="translate(2950.048828 0)"/>
     <use xlink:href="#Menlo-Regular-20" transform="translate(3010.253906 0)"/>
     <use xlink:href="#Menlo-Regular-49" transform="translate(3070.458984 0)"/>
     <use xlink:href="#Menlo-Regular-2d" transform="translate(3130.664062 0)"/>
     <use xlink:href="#Menlo-Regular-6e" transform="translate(3190.869141 0)"/>
     <use xlink:href="#Menlo-Regular-65" transform="translate(3251.074219 0)"/>
     <use xlink:href="#Menlo-Regular-75" transform="translate(3311.279297 0)"/>
     <use xlink:href="#Menlo-Regular-72" transform="translate(3371.484375 0)"/>
     <use xlink:href="#Menlo-Regular-6f" transform="translate(3431.689453 0)"/>
     <use xlink:href="#Menlo-Regular-6e" transform="translate(3491.894531 0)"/>
     <use xlink:href="#Menlo-Regular-20" transform="translate(3552.099609 0)"/>
     <use xlink:href="#Menlo-Regular-6d" transform="translate(3612.304688 0)"/>
     <use xlink:href="#Menlo-Regular-65" transform="translate(3672.509766 0)"/>
     <use xlink:href="#Menlo-Regular-6d" transform="translate(3732.714844 0)"/>
     <use xlink:href="#Menlo-Regular-62" transform="translate(3792.919922 0)"/>
     <use xlink:href="#Menlo-Regular-72" transform="translate(3853.125 0)"/>
     <use xlink:href="#Menlo-Regular-61" transform="translate(3913.330078 0)"/>
     <use xlink:href="#Menlo-Regular-6e" transform="translate(3973.535156 0)"/>
     <use xlink:href="#Menlo-Regular-65" transform="translate(4033.740234 0)"/>
     <use xlink:href="#Menlo-Regular-20" transform="translate(4093.945312 0)"/>
     <use xlink:href="#Menlo-Regular-76" transform="translate(4154.150391 0)"/>
     <use xlink:href="#Menlo-Regular-6f" transform="translate(4214.355469 0)"/>
     <use xlink:href="#Menlo-Regular-6c" transform="translate(4274.560547 0)"/>
     <use xlink:href="#Menlo-Regular-74" transform="translate(4334.765625 0)"/>
     <use xlink:href="#Menlo-Regular-61" transform="translate(4394.970703 0)"/>
     <use xlink:href="#Menlo-Regular-67" transform="translate(4455.175781 0)"/>
     <use xlink:href="#Menlo-Regular-65" transform="translate(4515.380859 0)"/>
    </g>
   </g>
   <g id="legend_1">
    <g id="patch_7">
     <path d="M 129.950781 40.493828 
L 169.207656 40.493828 
L 169.207656 17.805078 
L 129.950781 17.805078 
z
" style="fill: #ffffff; stroke: #1a1a1a; stroke-width: 0.8; stroke-linejoin: miter"/>
    </g>
    <g id="line2d_12">
     <path d="M 132.750781 23.493672 
L 138.350781 23.493672 
L 143.950781 23.493672 
" style="fill: none; stroke: #c8102e; stroke-width: 0.8; stroke-linejoin: miter"/>
    </g>
    <g id="text_13">
     <!-- V_I -->
     <g style="fill: #1a1a1a" transform="translate(149.550781 25.943672) scale(0.07 -0.07)">
      <use xlink:href="#Menlo-Regular-56"/>
      <use xlink:href="#Menlo-Regular-5f" transform="translate(60.205078 0)"/>
      <use xlink:href="#Menlo-Regular-49" transform="translate(120.410156 0)"/>
     </g>
    </g>
    <g id="line2d_13">
     <path d="M 132.750781 33.788047 
L 138.350781 33.788047 
L 143.950781 33.788047 
" style="fill: none; stroke-dasharray: 1.85,0.8; stroke-dashoffset: 0; stroke: #bbbbbb; stroke-width: 0.5"/>
    </g>
    <g id="text_14">
     <!-- V_th -->
     <g style="fill: #1a1a1a" transform="translate(149.550781 36.238047) scale(0.07 -0.07)">
      <use xlink:href="#Menlo-Regular-56"/>
      <use xlink:href="#Menlo-Regular-5f" transform="translate(60.205078 0)"/>
      <use xlink:href="#Menlo-Regular-74" transform="translate(120.410156 0)"/>
      <use xlink:href="#Menlo-Regular-68" transform="translate(180.615234 0)"/>
     </g>
    </g>
   </g>
  </g>
 </g>
 <defs>
  <clipPath id="p69258c7edf">
   <rect x="29.457656" y="14.305078" width="143.25" height="68.76"/>
  </clipPath>
 </defs>
</svg>
