<?xml version="1.0" encoding="utf-8" standalone="no"?>
<!DOCTYPE svg PUBLIC "-//W3C//DTD SVG 1.1//EN"
  "http://www.w3.org/Graphics/SVG/1.1/DTD/svg11.dtd">
<svg xmlns:xlink="http://www.w3.org/1999/xlink" width="457.694297pt" height="106.924453pt" viewBox="0 0 457.694297 106.924453" xmlns="http://www.w3.org/2000/svg" version="1.1">
 <metadata>
  <rdf:RDF xmlns:dc="http://purl.org/dc/elements/1.1/" xmlns:cc="http://creativecommons.org/ns#" xmlns:rdf="http://www.w3.org/1999/02/22-rdf-syntax-ns#">
   <cc:Work>
    <dc:type rdf:resource="http://purl.org/dc/dcmitype/StillImage"/>
    <dc:date>2026-06-30T22:43:55.297733</dc:date>
    <dc:format>image/svg+xml</dc:format>
    <dc:creator>
     <cc:Agent>
      <dc:title>Matplotlib v3.10.8, https://matplotlib.org/</dc:title>
     </cc:Agent>
    </dc:creator>
   </cc:Work>
  </rdf:RDF>
 </metadata>
 <defs>
  <style type="text/css">*{stroke-linejoin: round; stroke-linecap: butt}</style>
 </defs>
 <g id="figure_1">
  <g id="patch_1">
   <path d="M 0 106.924453 
L 457.694297 106.924453 
L 457.694297 0 
L 0 0 
z
" style="fill: #ffffff"/>
  </g>
  <g id="axes_1">
   <g id="patch_2">
    <path d="M 21.286719 83.425078 
L 145.209219 83.425078 
L 145.209219 14.305078 
L 21.286719 14.305078 
z
" style="fill: #ffffff"/>
   </g>
   <g id="matplotlib.axis_1">
    <g id="xtick_1">
     <g id="line2d_1">
      <defs>
       <path id="m42846957e0" d="M 0 0 
L 0 -3 
" style="stroke: #1a1a1a; stroke-width: 0.8"/>
      </defs>
      <g>
       <use xlink:href="#m42846957e0" x="21.286719" y="83.425078" style="fill: #1a1a1a; stroke: #1a1a1a; stroke-width: 0.8"/>
      </g>
     </g>
     <g id="text_1">
      <!-- 0 -->
      <g style="fill: #1a1a1a" transform="translate(19.179609 92.263672) scale(0.07 -0.07)">
       <defs>
        <path id="Menlo-Regular-30" d="M 1925 4734 
Q 2672 4734 3055 4125 
Q 3438 3516 3438 2322 
Q 3438 1128 3055 518 
Q 2672 -91 1925 -91 
Q 1178 -91 797 518 
Q 416 1128 416 2322 
Q 416 3516 797 4125 
Q 1178 4734 1925 4734 
z
M 1925 409 
Q 2369 409 2586 881 
Q 2803 1353 2803 2322 
Q 2803 2838 2741 3253 
L 1253 925 
Q 1488 409 1925 409 
z
M 1925 4234 
Q 1484 4234 1267 3762 
Q 1050 3291 1050 2322 
Q 1050 1881 1109 1497 
L 2566 3819 
Q 2328 4234 1925 4234 
z
" transform="scale(0.015625)"/>
       </defs>
       <use xlink:href="#Menlo-Regular-30"/>
      </g>
     </g>
    </g>
    <g id="xtick_2">
     <g id="line2d_2">
      <g>
       <use xlink:href="#m42846957e0" x="52.267344" y="83.425078" style="fill: #1a1a1a; stroke: #1a1a1a; stroke-width: 0.8"/>
      </g>
     </g>
     <g id="text_2">
      <!-- 100 -->
      <g style="fill: #1a1a1a" transform="translate(45.946016 92.263672) scale(0.07 -0.07)">
       <defs>
        <path id="Menlo-Regular-31" d="M 844 528 
L 1825 528 
L 1825 4053 
L 650 3488 
L 650 4094 
L 1819 4650 
L 2450 4650 
L 2450 528 
L 3419 528 
L 3419 0 
L 844 0 
L 844 528 
z
" transform="scale(0.015625)"/>
       </defs>
       <use xlink:href="#Menlo-Regular-31"/>
       <use xlink:href="#Menlo-Regular-30" transform="translate(60.205078 0)"/>
       <use xlink:href="#Menlo-Regular-30" transform="translate(120.410156 0)"/>
      </g>
     </g>
    </g>
    <g id="xtick_3">
     <g id="line2d_3">
      <g>
       <use xlink:href="#m42846957e0" x="83.247969" y="83.425078" style="fill: #1a1a1a; stroke: #1a1a1a; stroke-width: 0.8"/>
      </g>
     </g>
     <g id="text_3">
      <!-- 200 -->
      <g style="fill: #1a1a1a" transform="translate(76.926641 92.263672) scale(0.07 -0.07)">
       <defs>
        <path id="Menlo-Regular-32" d="M 1166 531 
L 3309 531 
L 3309 0 
L 475 0 
L 475 531 
Q 1059 1147 1496 1619 
Q 1934 2091 2100 2284 
Q 2413 2666 2522 2902 
Q 2631 3138 2631 3384 
Q 2631 3775 2401 3997 
Q 2172 4219 1772 4219 
Q 1488 4219 1175 4116 
Q 863 4013 513 3803 
L 513 4441 
Q 834 4594 1145 4672 
Q 1456 4750 1759 4750 
Q 2444 4750 2861 4386 
Q 3278 4022 3278 3431 
Q 3278 3131 3139 2831 
Q 3000 2531 2688 2169 
Q 2513 1966 2180 1606 
Q 1847 1247 1166 531 
z
" transform="scale(0.015625)"/>
       </defs>
       <use xlink:href="#Menlo-Regular-32"/>
       <use xlink:href="#Menlo-Regular-30" transform="translate(60.205078 0)"/>
       <use xlink:href="#Menlo-Regular-30" transform="translate(120.410156 0)"/>
      </g>
     </g>
    </g>
    <g id="xtick_4">
     <g id="line2d_4">
      <g>
       <use xlink:href="#m42846957e0" x="114.228594" y="83.425078" style="fill: #1a1a1a; stroke: #1a1a1a; stroke-width: 0.8"/>
      </g>
     </g>
     <g id="text_4">
      <!-- 300 -->
      <g style="fill: #1a1a1a" transform="translate(107.907266 92.263672) scale(0.07 -0.07)">
       <defs>
        <path id="Menlo-Regular-33" d="M 2425 2497 
Q 2884 2375 3128 2064 
Q 3372 1753 3372 1288 
Q 3372 644 2939 276 
Q 2506 -91 1741 -91 
Q 1419 -91 1084 -31 
Q 750 28 428 141 
L 428 769 
Q 747 603 1056 522 
Q 1366 441 1672 441 
Q 2191 441 2469 675 
Q 2747 909 2747 1350 
Q 2747 1756 2469 1995 
Q 2191 2234 1716 2234 
L 1234 2234 
L 1234 2753 
L 1716 2753 
Q 2150 2753 2394 2943 
Q 2638 3134 2638 3475 
Q 2638 3834 2411 4026 
Q 2184 4219 1766 4219 
Q 1488 4219 1191 4156 
Q 894 4094 569 3969 
L 569 4550 
Q 947 4650 1242 4700 
Q 1538 4750 1766 4750 
Q 2447 4750 2855 4408 
Q 3263 4066 3263 3500 
Q 3263 3116 3048 2859 
Q 2834 2603 2425 2497 
z
" transform="scale(0.015625)"/>
       </defs>
       <use xlink:href="#Menlo-Regular-33"/>
       <use xlink:href="#Menlo-Regular-30" transform="translate(60.205078 0)"/>
       <use xlink:href="#Menlo-Regular-30" transform="translate(120.410156 0)"/>
      </g>
     </g>
    </g>
    <g id="xtick_5">
     <g id="line2d_5">
      <g>
       <use xlink:href="#m42846957e0" x="145.209219" y="83.425078" style="fill: #1a1a1a; stroke: #1a1a1a; stroke-width: 0.8"/>
      </g>
     </g>
     <g id="text_5">
      <!-- 400 -->
      <g style="fill: #1a1a1a" transform="translate(138.887891 92.263672) scale(0.07 -0.07)">
       <defs>
        <path id="Menlo-Regular-34" d="M 2297 4091 
L 825 1625 
L 2297 1625 
L 2297 4091 
z
M 2194 4666 
L 2925 4666 
L 2925 1625 
L 3547 1625 
L 3547 1113 
L 2925 1113 
L 2925 0 
L 2297 0 
L 2297 1113 
L 319 1113 
L 319 1709 
L 2194 4666 
z
" transform="scale(0.015625)"/>
       </defs>
       <use xlink:href="#Menlo-Regular-34"/>
       <use xlink:href="#Menlo-Regular-30" transform="translate(60.205078 0)"/>
       <use xlink:href="#Menlo-Regular-30" transform="translate(120.410156 0)"/>
      </g>
     </g>
    </g>
    <g id="text_6">
     <!-- time (ms) -->
     <g style="fill: #1a1a1a" transform="translate(61.574844 103.820703) scale(0.08 -0.08)">
      <defs>
       <path id="Menlo-Regular-74" d="M 1919 4494 
L 1919 3500 
L 3225 3500 
L 3225 3053 
L 1919 3053 
L 1919 1153 
Q 1919 766 2066 612 
Q 2213 459 2578 459 
L 3225 459 
L 3225 0 
L 2522 0 
Q 1875 0 1609 259 
Q 1344 519 1344 1153 
L 1344 3053 
L 409 3053 
L 409 3500 
L 1344 3500 
L 1344 4494 
L 1919 4494 
z
" transform="scale(0.015625)"/>
       <path id="Menlo-Regular-69" d="M 988 3488 
L 2459 3488 
L 2459 447 
L 3600 447 
L 3600 0 
L 744 0 
L 744 447 
L 1884 447 
L 1884 3041 
L 988 3041 
L 988 3488 
z
M 1884 4847 
L 2459 4847 
L 2459 4122 
L 1884 4122 
L 1884 4847 
z
" transform="scale(0.015625)"/>
       <path id="Menlo-Regular-6d" d="M 2113 3144 
Q 2219 3369 2383 3476 
Q 2547 3584 2778 3584 
Q 3200 3584 3373 3257 
Q 3547 2931 3547 2028 
L 3547 0 
L 3022 0 
L 3022 2003 
Q 3022 2744 2939 2923 
Q 2856 3103 2638 3103 
Q 2388 3103 2295 2911 
Q 2203 2719 2203 2003 
L 2203 0 
L 1678 0 
L 1678 2003 
Q 1678 2753 1589 2928 
Q 1500 3103 1269 3103 
Q 1041 3103 952 2911 
Q 863 2719 863 2003 
L 863 0 
L 341 0 
L 341 3500 
L 863 3500 
L 863 3200 
Q 966 3388 1120 3486 
Q 1275 3584 1472 3584 
Q 1709 3584 1867 3475 
Q 2025 3366 2113 3144 
z
" transform="scale(0.015625)"/>
       <path id="Menlo-Regular-65" d="M 3500 2038 
L 3500 1756 
L 1009 1756 
L 1009 1738 
Q 984 1022 1282 709 
Q 1581 397 2125 397 
Q 2400 397 2700 484 
Q 3000 572 3341 750 
L 3341 178 
Q 3013 44 2708 -23 
Q 2403 -91 2119 -91 
Q 1303 -91 843 398 
Q 384 888 384 1747 
Q 384 2584 834 3084 
Q 1284 3584 2034 3584 
Q 2703 3584 3089 3131 
Q 3475 2678 3500 2038 
z
M 2925 2206 
Q 2888 2569 2661 2833 
Q 2434 3097 2009 3097 
Q 1594 3097 1325 2822 
Q 1056 2547 1031 2203 
L 2925 2206 
z
" transform="scale(0.015625)"/>
       <path id="Menlo-Regular-20" transform="scale(0.015625)"/>
       <path id="Menlo-Regular-28" d="M 2672 5169 
Q 2256 4456 2051 3748 
Q 1847 3041 1847 2322 
Q 1847 1606 2051 897 
Q 2256 188 2672 -531 
L 2172 -531 
Q 1700 213 1469 917 
Q 1238 1622 1238 2322 
Q 1238 3019 1469 3725 
Q 1700 4431 2172 5169 
L 2672 5169 
z
" transform="scale(0.015625)"/>
       <path id="Menlo-Regular-73" d="M 3041 3378 
L 3041 2816 
Q 2794 2959 2544 3031 
Q 2294 3103 2034 3103 
Q 1644 3103 1451 2976 
Q 1259 2850 1259 2591 
Q 1259 2356 1403 2240 
Q 1547 2125 2119 2016 
L 2350 1972 
Q 2778 1891 2998 1647 
Q 3219 1403 3219 1013 
Q 3219 494 2850 201 
Q 2481 -91 1825 -91 
Q 1566 -91 1281 -36 
Q 997 19 666 128 
L 666 722 
Q 988 556 1281 473 
Q 1575 391 1838 391 
Q 2219 391 2428 545 
Q 2638 700 2638 978 
Q 2638 1378 1872 1531 
L 1847 1538 
L 1631 1581 
Q 1134 1678 906 1908 
Q 678 2138 678 2534 
Q 678 3038 1018 3311 
Q 1359 3584 1991 3584 
Q 2272 3584 2531 3532 
Q 2791 3481 3041 3378 
z
" transform="scale(0.015625)"/>
       <path id="Menlo-Regular-29" d="M 1088 5169 
L 1588 5169 
Q 2059 4431 2290 3725 
Q 2522 3019 2522 2322 
Q 2522 1619 2290 912 
Q 2059 206 1588 -531 
L 1088 -531 
Q 1503 194 1708 903 
Q 1913 1613 1913 2322 
Q 1913 3034 1708 3743 
Q 1503 4453 1088 5169 
z
" transform="scale(0.015625)"/>
      </defs>
      <use xlink:href="#Menlo-Regular-74"/>
      <use xlink:href="#Menlo-Regular-69" transform="translate(60.205078 0)"/>
      <use xlink:href="#Menlo-Regular-6d" transform="translate(120.410156 0)"/>
      <use xlink:href="#Menlo-Regular-65" transform="translate(180.615234 0)"/>
      <use xlink:href="#Menlo-Regular-20" transform="translate(240.820312 0)"/>
      <use xlink:href="#Menlo-Regular-28" transform="translate(301.025391 0)"/>
      <use xlink:href="#Menlo-Regular-6d" transform="translate(361.230469 0)"/>
      <use xlink:href="#Menlo-Regular-73" transform="translate(421.435547 0)"/>
      <use xlink:href="#Menlo-Regular-29" transform="translate(481.640625 0)"/>
     </g>
    </g>
   </g>
   <g id="matplotlib.axis_2">
    <g id="ytick_1">
     <g id="line2d_6">
      <defs>
       <path id="m103a30a457" d="M 0 0 
L 3 0 
" style="stroke: #1a1a1a; stroke-width: 0.8"/>
      </defs>
      <g>
       <use xlink:href="#m103a30a457" x="21.286719" y="61.37835" style="fill: #1a1a1a; stroke: #1a1a1a; stroke-width: 0.8"/>
      </g>
     </g>
     <g id="text_7">
      <!-- 0 -->
      <g style="fill: #1a1a1a" transform="translate(13.5725 64.047647) scale(0.07 -0.07)">
       <use xlink:href="#Menlo-Regular-30"/>
      </g>
     </g>
    </g>
    <g id="ytick_2">
     <g id="line2d_7">
      <g>
       <use xlink:href="#m103a30a457" x="21.286719" y="36.125281" style="fill: #1a1a1a; stroke: #1a1a1a; stroke-width: 0.8"/>
      </g>
     </g>
     <g id="text_8">
      <!-- 2 -->
      <g style="fill: #1a1a1a" transform="translate(13.5725 38.794578) scale(0.07 -0.07)">
       <use xlink:href="#Menlo-Regular-32"/>
      </g>
     </g>
    </g>
    <g id="text_9">
     <!-- I in  [+ depol.] -->
     <g style="fill: #1a1a1a" transform="translate(7.90875 87.395078) rotate(-90) scale(0.08 -0.08)">
      <defs>
       <path id="Menlo-Regular-49" d="M 628 4666 
L 3219 4666 
L 3219 4134 
L 2241 4134 
L 2241 531 
L 3219 531 
L 3219 0 
L 628 0 
L 628 531 
L 1606 531 
L 1606 4134 
L 628 4134 
L 628 4666 
z
" transform="scale(0.015625)"/>
       <path id="Menlo-Regular-6e" d="M 3284 2169 
L 3284 0 
L 2706 0 
L 2706 2169 
Q 2706 2641 2540 2862 
Q 2375 3084 2022 3084 
Q 1619 3084 1401 2798 
Q 1184 2513 1184 1978 
L 1184 0 
L 609 0 
L 609 3500 
L 1184 3500 
L 1184 2975 
Q 1338 3275 1600 3429 
Q 1863 3584 2222 3584 
Q 2756 3584 3020 3232 
Q 3284 2881 3284 2169 
z
" transform="scale(0.015625)"/>
       <path id="Menlo-Regular-5b" d="M 1759 5175 
L 3084 5175 
L 3084 4728 
L 2334 4728 
L 2334 -84 
L 3084 -84 
L 3084 -531 
L 1759 -531 
L 1759 5175 
z
" transform="scale(0.015625)"/>
       <path id="Menlo-Regular-2b" d="M 2250 3681 
L 2250 2297 
L 3641 2297 
L 3641 1769 
L 2250 1769 
L 2250 384 
L 1725 384 
L 1725 1769 
L 338 1769 
L 338 2297 
L 1725 2297 
L 1725 3681 
L 2250 3681 
z
" transform="scale(0.015625)"/>
       <path id="Menlo-Regular-64" d="M 2681 3053 
L 2681 4863 
L 3256 4863 
L 3256 0 
L 2681 0 
L 2681 441 
Q 2538 181 2298 45 
Q 2059 -91 1747 -91 
Q 1113 -91 748 401 
Q 384 894 384 1759 
Q 384 2613 750 3098 
Q 1116 3584 1747 3584 
Q 2063 3584 2303 3448 
Q 2544 3313 2681 3053 
z
M 991 1747 
Q 991 1078 1203 737 
Q 1416 397 1831 397 
Q 2247 397 2464 740 
Q 2681 1084 2681 1747 
Q 2681 2413 2464 2755 
Q 2247 3097 1831 3097 
Q 1416 3097 1203 2756 
Q 991 2416 991 1747 
z
" transform="scale(0.015625)"/>
       <path id="Menlo-Regular-70" d="M 1172 441 
L 1172 -1331 
L 594 -1331 
L 594 3500 
L 1172 3500 
L 1172 3053 
Q 1316 3313 1555 3448 
Q 1794 3584 2106 3584 
Q 2741 3584 3102 3093 
Q 3463 2603 3463 1734 
Q 3463 881 3100 395 
Q 2738 -91 2106 -91 
Q 1788 -91 1548 45 
Q 1309 181 1172 441 
z
M 2859 1747 
Q 2859 2416 2648 2756 
Q 2438 3097 2022 3097 
Q 1603 3097 1387 2755 
Q 1172 2413 1172 1747 
Q 1172 1084 1387 740 
Q 1603 397 2022 397 
Q 2438 397 2648 737 
Q 2859 1078 2859 1747 
z
" transform="scale(0.015625)"/>
       <path id="Menlo-Regular-6f" d="M 1925 3097 
Q 1488 3097 1263 2756 
Q 1038 2416 1038 1747 
Q 1038 1081 1263 739 
Q 1488 397 1925 397 
Q 2366 397 2591 739 
Q 2816 1081 2816 1747 
Q 2816 2416 2591 2756 
Q 2366 3097 1925 3097 
z
M 1925 3584 
Q 2653 3584 3039 3112 
Q 3425 2641 3425 1747 
Q 3425 850 3040 379 
Q 2656 -91 1925 -91 
Q 1197 -91 812 379 
Q 428 850 428 1747 
Q 428 2641 812 3112 
Q 1197 3584 1925 3584 
z
" transform="scale(0.015625)"/>
       <path id="Menlo-Regular-6c" d="M 2247 1266 
Q 2247 878 2389 681 
Q 2531 484 2809 484 
L 3481 484 
L 3481 0 
L 2753 0 
Q 2238 0 1955 329 
Q 1672 659 1672 1266 
L 1672 4431 
L 750 4431 
L 750 4881 
L 2247 4881 
L 2247 1266 
z
" transform="scale(0.015625)"/>
       <path id="Menlo-Regular-2e" d="M 1216 1263 
L 2316 1263 
L 2316 0 
L 1216 0 
L 1216 1263 
z
" transform="scale(0.015625)"/>
       <path id="Menlo-Regular-5d" d="M 2250 5175 
L 2250 -531 
L 925 -531 
L 925 -84 
L 1675 -84 
L 1675 4728 
L 925 4728 
L 925 5175 
L 2250 5175 
z
" transform="scale(0.015625)"/>
      </defs>
      <use xlink:href="#Menlo-Regular-49"/>
      <use xlink:href="#Menlo-Regular-20" transform="translate(60.205078 0)"/>
      <use xlink:href="#Menlo-Regular-69" transform="translate(120.410156 0)"/>
      <use xlink:href="#Menlo-Regular-6e" transform="translate(180.615234 0)"/>
      <use xlink:href="#Menlo-Regular-20" transform="translate(240.820312 0)"/>
      <use xlink:href="#Menlo-Regular-20" transform="translate(301.025391 0)"/>
      <use xlink:href="#Menlo-Regular-5b" transform="translate(361.230469 0)"/>
      <use xlink:href="#Menlo-Regular-2b" transform="translate(421.435547 0)"/>
      <use xlink:href="#Menlo-Regular-20" transform="translate(481.640625 0)"/>
      <use xlink:href="#Menlo-Regular-64" transform="translate(541.845703 0)"/>
      <use xlink:href="#Menlo-Regular-65" transform="translate(602.050781 0)"/>
      <use xlink:href="#Menlo-Regular-70" transform="translate(662.255859 0)"/>
      <use xlink:href="#Menlo-Regular-6f" transform="translate(722.460938 0)"/>
      <use xlink:href="#Menlo-Regular-6c" transform="translate(782.666016 0)"/>
      <use xlink:href="#Menlo-Regular-2e" transform="translate(842.871094 0)"/>
      <use xlink:href="#Menlo-Regular-5d" transform="translate(903.076172 0)"/>
     </g>
    </g>
   </g>
   <g id="line2d_8">
    <path d="M 21.286719 61.37835 
L 145.209219 61.37835 
" clip-path="url(#pfb57b8a869)" style="fill: none; stroke: #bbbbbb; stroke-width: 0.5; stroke-linejoin: miter"/>
   </g>
   <g id="line2d_9">
    <path d="M 21.286719 61.37835 
L 23.765169 61.37835 
L 24.229878 52.982501 
L 24.30733 52.346383 
L 24.617136 38.812525 
L 24.694588 38.021769 
L 24.849491 34.40925 
L 24.926942 35.091374 
L 25.004394 34.207653 
L 25.081845 31.133152 
L 25.236748 33.262119 
L 25.3142 31.6957 
L 25.391652 32.976685 
L 25.469103 32.824338 
L 25.546555 32.428013 
L 25.701458 29.878956 
L 25.856361 36.077428 
L 25.933813 33.781606 
L 26.011264 17.446896 
L 26.088716 22.60898 
L 26.553425 43.474301 
L 26.940683 52.067444 
L 27.327941 56.426779 
L 27.715198 58.718872 
L 28.102456 59.944649 
L 28.567166 60.694697 
L 29.031875 61.052651 
L 29.728939 61.271553 
L 30.968164 61.363744 
L 36.622128 61.378349 
L 38.093708 61.37835 
L 38.171159 59.784209 
L 38.248611 59.972631 
L 38.403514 60.284867 
L 38.480966 58.789913 
L 38.558417 59.096683 
L 38.71332 59.604363 
L 38.790772 58.805532 
L 38.868223 59.109999 
L 39.023127 59.614062 
L 39.255481 56.421674 
L 39.332933 57.012188 
L 39.410384 56.076992 
L 39.720191 58.179076 
L 40.107448 52.855282 
L 40.1849 49.490671 
L 40.262352 49.629724 
L 40.339803 49.40886 
L 40.572158 43.197877 
L 40.649609 44.1795 
L 40.727061 41.642248 
L 40.804512 42.789674 
L 40.881964 38.313278 
L 40.959416 38.533324 
L 41.114319 39.234537 
L 41.19177 41.956677 
L 41.346673 36.806459 
L 41.579028 40.734627 
L 41.65648 38.438411 
L 41.888834 42.578378 
L 42.121189 35.984503 
L 42.276092 37.429597 
L 42.353544 38.193414 
L 42.508447 30.154399 
L 42.585898 34.014539 
L 42.66335 30.035653 
L 43.050608 44.601813 
L 43.437866 52.673718 
L 43.825123 56.763816 
L 44.212381 58.907684 
L 44.599639 60.050143 
L 45.064348 60.746739 
L 45.606509 61.113108 
L 46.303573 61.291597 
L 47.697702 61.369128 
L 50.795764 61.378288 
L 50.873216 59.769579 
L 50.950667 59.959692 
L 51.183022 60.404813 
L 51.260473 58.788528 
L 51.337925 59.095357 
L 51.492828 59.603176 
L 51.57028 58.051638 
L 51.647731 58.446312 
L 51.802634 59.098983 
L 51.880086 58.135896 
L 51.957537 58.519845 
L 52.344795 59.851383 
L 52.809505 60.656125 
L 52.964408 57.859049 
L 53.041859 58.2757 
L 53.429117 59.720417 
L 53.506569 59.915056 
L 53.661472 56.266219 
L 53.816375 53.363636 
L 53.893827 53.060736 
L 54.203633 45.780877 
L 54.281084 46.165833 
L 54.358536 46.669767 
L 54.435987 42.874396 
L 54.513439 43.877318 
L 54.590891 44.699526 
L 54.745794 42.443427 
L 54.823245 43.383677 
L 54.978148 38.573286 
L 55.0556 38.660859 
L 55.133052 38.819583 
L 55.210503 31.111932 
L 55.287955 33.536872 
L 55.365406 31.687433 
L 55.442858 33.108366 
L 55.597761 38.40144 
L 55.907567 31.027475 
L 56.06247 33.513641 
L 56.139922 26.520641 
L 56.52718 42.720365 
L 56.914437 51.73119 
L 57.301695 56.269593 
L 57.688953 58.642938 
L 58.076211 59.907086 
L 58.54092 60.678182 
L 59.00563 61.045256 
L 59.625242 61.254861 
L 60.787016 61.359238 
L 62.026241 61.375751 
L 62.103692 59.781515 
L 62.181144 59.970009 
L 62.645853 60.714104 
L 63.110562 61.064455 
L 63.188014 61.101297 
L 63.420369 58.409712 
L 63.807627 59.795114 
L 63.885078 58.475901 
L 63.96253 58.819206 
L 64.117433 59.387522 
L 64.194884 56.764498 
L 64.272336 57.313154 
L 64.349787 57.795247 
L 64.582142 51.184057 
L 64.814497 53.267823 
L 64.9694 51.096141 
L 65.046852 50.908229 
L 65.124303 49.307302 
L 65.201755 49.4295 
L 65.279206 49.347705 
L 65.511561 44.738449 
L 65.666464 45.862968 
L 65.743916 43.602806 
L 65.821367 44.482225 
L 66.131173 46.952176 
L 66.208625 46.410761 
L 66.286077 44.600085 
L 66.363528 45.314837 
L 66.44098 45.783561 
L 66.518431 45.21185 
L 66.673334 42.676251 
L 66.828237 44.341752 
L 66.983141 38.637468 
L 67.060592 38.960594 
L 67.138044 40.411236 
L 67.370398 37.553851 
L 67.44785 37.806128 
L 67.525302 39.382153 
L 67.602753 38.742192 
L 67.680205 38.107112 
L 67.835108 38.634683 
L 67.912559 37.033319 
L 68.841978 55.393582 
L 69.306687 58.431077 
L 69.771397 59.933689 
L 70.236106 60.675156 
L 70.778267 61.077304 
L 71.475331 61.27827 
L 72.637105 61.362655 
L 72.714556 59.90055 
L 72.792008 60.073944 
L 72.869459 60.226898 
L 73.101814 56.724035 
L 73.334169 58.189228 
L 73.41162 57.172173 
L 73.566523 58.107533 
L 73.798878 55.080033 
L 73.87633 54.453534 
L 73.953781 55.278935 
L 74.031233 54.57357 
L 74.263587 56.717769 
L 74.8832 49.502229 
L 75.115555 52.159369 
L 75.347909 48.397836 
L 75.502812 48.905105 
L 75.657716 43.91261 
L 75.735167 43.220828 
L 75.89007 41.065023 
L 75.967522 42.407416 
L 76.044973 42.079554 
L 76.122425 39.382768 
L 76.199877 40.879068 
L 76.432231 33.107376 
L 76.509683 35.310317 
L 76.587134 33.336889 
L 76.664586 34.388671 
L 76.742037 37.699248 
L 76.974392 34.085054 
L 77.051844 33.901032 
L 77.129295 32.788062 
L 77.206747 28.716279 
L 77.594005 43.895603 
L 77.981262 52.319152 
L 78.36852 56.57777 
L 78.755778 58.808028 
L 79.143036 59.996311 
L 79.607745 60.720954 
L 80.149906 61.102194 
L 80.84697 61.288 
L 82.241098 61.368742 
L 86.346031 61.378337 
L 86.578386 58.240433 
L 86.810741 59.229433 
L 86.888192 58.062454 
L 86.965644 58.45588 
L 87.27545 59.61082 
L 87.352902 58.291165 
L 87.430353 58.656431 
L 87.585256 59.260983 
L 87.817611 57.289216 
L 87.895062 57.773977 
L 88.049966 55.938432 
L 88.127417 56.585644 
L 88.204869 55.632326 
L 88.514675 57.907743 
L 88.592127 53.994104 
L 88.669578 54.876152 
L 88.74703 55.649499 
L 88.824481 53.805831 
L 88.901933 54.70902 
L 88.979384 54.337967 
L 89.134287 53.523269 
L 89.289191 50.567253 
L 89.366642 49.312728 
L 89.444094 50.767565 
L 89.521545 50.652468 
L 90.063706 42.250766 
L 90.218609 45.465078 
L 90.296061 40.94991 
L 90.450964 44.287252 
L 90.683319 42.607795 
L 90.76077 41.201767 
L 90.838222 33.894282 
L 90.915673 37.313497 
L 90.993125 34.438454 
L 91.070577 35.377576 
L 91.22548 36.767983 
L 91.302931 39.753139 
L 91.380383 38.746715 
L 91.612737 37.118356 
L 91.767641 40.706638 
L 91.845092 39.659997 
L 91.922544 39.946226 
L 92.077447 38.327419 
L 92.464705 48.923761 
L 92.851962 54.497454 
L 93.316672 57.982688 
L 93.781381 59.70958 
L 94.246091 60.564156 
L 94.7108 60.983922 
L 95.330412 61.229649 
L 96.337283 61.348351 
L 98.19612 61.376829 
L 98.273572 59.779461 
L 98.351023 59.967936 
L 98.738281 60.623897 
L 98.815733 59.324172 
L 98.893184 59.566593 
L 99.202991 60.280523 
L 99.280442 58.871143 
L 99.357894 59.167297 
L 99.745152 60.196209 
L 99.900055 60.457462 
L 99.977506 58.939822 
L 100.054958 59.227541 
L 100.209861 59.704285 
L 100.287312 55.049532 
L 100.364764 55.806733 
L 100.442216 55.073624 
L 100.67457 51.443691 
L 100.906925 50.549967 
L 100.984377 49.016334 
L 101.13928 51.818612 
L 101.216731 51.754951 
L 101.371634 50.380585 
L 101.449086 50.353243 
L 101.526537 51.671652 
L 101.836344 44.685608 
L 101.913795 45.267756 
L 102.14615 50.39923 
L 102.223602 48.99303 
L 102.301053 50.463665 
L 102.533408 39.402514 
L 102.610859 36.831625 
L 102.920666 41.891152 
L 102.998117 43.002133 
L 103.230472 38.421786 
L 103.307923 39.914346 
L 103.385375 38.683467 
L 103.540278 31.992645 
L 103.61773 33.073415 
L 103.695181 32.300155 
L 103.772633 29.981779 
L 103.850084 32.799963 
L 103.927536 28.688553 
L 104.314794 43.880765 
L 104.702052 52.311713 
L 105.089309 56.573868 
L 105.476567 58.805938 
L 105.863825 59.995182 
L 106.328534 60.720413 
L 106.870695 61.101965 
L 107.567759 61.287925 
L 108.961887 61.368734 
L 115.080561 61.37835 
L 115.158012 59.984029 
L 115.235464 60.148709 
L 115.390367 60.421689 
L 115.467819 59.047532 
L 115.54527 59.323539 
L 115.932528 60.281494 
L 116.00998 56.21176 
L 116.087431 56.828991 
L 116.397237 58.633183 
L 116.474689 56.027788 
L 116.552141 56.665312 
L 116.707044 57.717037 
L 116.861947 55.759989 
L 117.094302 50.83374 
L 117.171753 50.859482 
L 117.249205 47.50197 
L 117.326656 47.82491 
L 117.481559 45.269458 
L 117.559011 41.581274 
L 117.636462 42.559929 
L 118.02372 47.472678 
L 118.101172 46.486763 
L 118.256075 49.827264 
L 118.48843 40.762299 
L 118.565881 38.483943 
L 118.643333 39.921342 
L 118.720784 36.673684 
L 118.798236 39.718376 
L 118.953139 36.879298 
L 119.030591 37.528545 
L 119.108042 37.043416 
L 119.262945 39.188833 
L 119.4953 32.885229 
L 119.572752 34.292898 
L 119.650203 32.74524 
L 119.727655 36.244506 
L 119.805106 35.743336 
L 119.882558 30.567155 
L 119.960009 32.678081 
L 120.347267 46.155791 
L 120.734525 53.442989 
L 121.121783 57.16144 
L 121.509041 59.117831 
L 121.896298 60.162401 
L 122.361008 60.799949 
L 122.903169 61.135429 
L 123.677684 61.308187 
L 125.226716 61.372541 
L 125.536522 58.009787 
L 125.92378 59.583088 
L 126.156134 60.145168 
L 126.233586 58.759784 
L 126.311037 59.069027 
L 126.465941 59.581255 
L 126.698295 54.90594 
L 126.93065 53.005583 
L 127.008102 54.010719 
L 127.085553 53.450092 
L 127.163005 54.39825 
L 127.550262 50.984753 
L 127.782617 45.428019 
L 127.860069 44.602602 
L 127.93752 45.335568 
L 128.092423 47.286556 
L 128.247327 40.722786 
L 128.324778 40.561565 
L 128.40223 41.719875 
L 128.557133 37.815488 
L 128.789487 45.408528 
L 128.866939 43.533503 
L 129.021842 46.366728 
L 129.176745 43.897415 
L 129.254197 43.678821 
L 129.4091 38.64145 
L 129.486552 37.761784 
L 129.564003 34.577137 
L 129.641455 36.567107 
L 129.718906 34.735605 
L 129.873809 37.716982 
L 129.951261 37.349521 
L 130.028712 37.159695 
L 130.106164 37.78115 
L 130.493422 48.670029 
L 130.88068 54.37111 
L 131.267937 57.492636 
L 131.732647 59.468456 
L 132.197356 60.445859 
L 132.662066 60.926264 
L 133.281678 61.20776 
L 134.211097 61.33937 
L 135.760128 61.375091 
L 135.83758 59.787159 
L 135.915031 59.974547 
L 136.069934 60.285363 
L 136.224837 57.622852 
L 136.302289 58.068428 
L 136.379741 58.460267 
L 136.534644 56.76379 
L 136.612095 53.975105 
L 136.689547 54.863362 
L 137.076805 57.913731 
L 137.154256 57.024698 
L 137.231708 57.538882 
L 137.309159 56.537197 
L 137.464062 57.613151 
L 137.85132 45.109308 
L 137.928772 47.106746 
L 138.006223 45.676886 
L 138.161127 41.472563 
L 138.238578 42.516561 
L 138.31603 40.426481 
L 138.548384 42.478675 
L 138.625836 42.240136 
L 138.703287 40.686918 
L 138.858191 44.192075 
L 138.935642 42.502209 
L 139.013094 43.246565 
L 139.090545 42.874943 
L 139.167997 43.874309 
L 139.245448 43.289784 
L 139.400352 37.638448 
L 139.477803 38.17632 
L 139.555255 39.842737 
L 139.632706 37.901276 
L 139.787609 40.935037 
L 139.865061 40.983274 
L 140.019964 38.79667 
L 140.097416 39.051246 
L 140.174867 36.090981 
L 140.252319 36.779051 
L 140.407222 34.124771 
L 140.484673 35.254875 
L 140.639577 26.288316 
L 141.568995 53.170736 
L 141.956253 57.00165 
L 142.343511 59.025029 
L 142.730769 60.109277 
L 143.195478 60.773229 
L 143.737639 61.12368 
L 144.512155 61.304649 
L 145.131767 61.351089 
L 145.131767 61.351089 
" clip-path="url(#pfb57b8a869)" style="fill: none; stroke: #1a1a1a; stroke-width: 0.9; stroke-linejoin: miter"/>
   </g>
   <g id="line2d_10">
    <path d="M 21.286719 61.37835 
L 23.84262 61.457603 
L 24.074975 62.031043 
L 24.384781 63.722898 
L 24.694588 66.999028 
L 25.469103 75.938545 
L 25.933813 79.563148 
L 26.088716 61.37835 
L 26.398522 61.37835 
L 26.708328 64.439889 
L 27.018134 65.693227 
L 27.250489 65.980275 
L 27.482844 65.948687 
L 27.870102 65.52752 
L 29.806391 62.886705 
L 30.658358 62.26781 
L 31.587777 61.87141 
L 32.827002 61.600956 
L 34.763291 61.442238 
L 38.093708 61.385787 
L 39.255481 62.685977 
L 40.107448 64.48964 
L 40.727061 68.55081 
L 41.811383 75.911937 
L 41.966286 76.450569 
L 42.585898 80.216786 
L 42.740802 61.37835 
L 43.050608 61.37835 
L 43.360414 63.575364 
L 43.67022 64.484664 
L 43.902575 64.695807 
L 44.13493 64.675702 
L 44.522187 64.373732 
L 46.535928 62.416885 
L 47.465347 61.960528 
L 48.62712 61.656029 
L 50.331055 61.471119 
L 50.873216 61.522233 
L 51.647731 62.273879 
L 52.189892 62.74919 
L 52.57715 62.745004 
L 52.886956 62.714217 
L 53.196762 63.001587 
L 53.661472 63.24345 
L 54.126181 65.221895 
L 56.06247 80.00587 
L 56.217373 61.37835 
L 56.52718 61.37835 
L 56.836986 63.817776 
L 57.146792 64.824334 
L 57.379147 65.057166 
L 57.611502 65.034041 
L 57.998759 64.698668 
L 59.935048 62.585227 
L 60.787016 62.089951 
L 61.871337 61.735581 
L 62.103692 61.76398 
L 62.568402 61.932139 
L 63.420369 62.087119 
L 63.885078 62.474791 
L 64.349787 63.029013 
L 64.582142 63.952806 
L 65.434109 67.765457 
L 65.97627 70.710914 
L 66.905689 74.173467 
L 67.525302 77.433236 
L 68.067462 79.377689 
L 68.222366 79.24014 
L 68.45472 78.451728 
L 68.996881 75.401634 
L 70.081203 69.335051 
L 70.778267 66.630145 
L 71.475331 64.786721 
L 72.172395 63.571381 
L 72.714556 63.00112 
L 72.946911 63.009713 
L 73.798878 64.173813 
L 74.186136 64.925459 
L 74.341039 65.079616 
L 74.728297 66.261056 
L 75.193006 67.772161 
L 75.502812 68.859971 
L 76.277328 73.844491 
L 76.742037 77.571892 
L 77.129295 80.051373 
L 77.284198 61.37835 
L 77.594005 61.37835 
L 77.903811 63.666442 
L 78.213617 64.612358 
L 78.445972 64.831689 
L 78.678327 64.810472 
L 79.065584 64.495955 
L 81.001873 62.511503 
L 81.931292 62.014648 
L 83.015614 61.69753 
L 84.564645 61.496271 
L 86.346031 61.415727 
L 87.972514 63.266006 
L 88.437223 64.039284 
L 88.514675 64.078814 
L 89.056836 65.334956 
L 89.289191 66.155807 
L 89.986255 69.799418 
L 90.450964 72.314962 
L 90.76077 73.726006 
L 91.22548 77.210924 
L 92.077447 79.999069 
L 92.23235 80.044812 
L 92.387253 79.68777 
L 92.697059 78.254208 
L 94.633348 67.620288 
L 95.330412 65.446846 
L 96.027477 64.001946 
L 96.724541 63.060928 
L 97.499056 62.402146 
L 98.19612 62.032074 
L 98.583378 62.163655 
L 98.893184 62.274197 
L 99.822603 62.568783 
L 99.977506 62.61719 
L 100.209861 62.709265 
L 100.752022 64.740202 
L 101.449086 67.42335 
L 101.681441 68.150013 
L 102.223602 70.194888 
L 102.301053 70.297584 
L 102.533408 71.82247 
L 102.843214 73.938218 
L 103.462827 77.079395 
L 103.850084 80.131507 
L 104.004987 61.37835 
L 104.314794 61.37835 
L 104.6246 63.668359 
L 104.934406 64.615041 
L 105.166761 64.834545 
L 105.399116 64.813304 
L 105.786373 64.498527 
L 107.722662 62.512438 
L 108.652081 62.015168 
L 109.736403 61.697799 
L 111.285434 61.496358 
L 114.073691 61.397896 
L 115.158012 61.456091 
L 115.932528 62.007336 
L 116.242334 62.669918 
L 116.707044 63.367642 
L 116.939398 63.952498 
L 117.481559 67.05993 
L 117.868817 69.812013 
L 118.565881 72.688213 
L 119.805106 80.28326 
L 119.960009 61.37835 
L 120.269816 61.37835 
L 120.579622 63.656756 
L 120.889428 64.598775 
L 121.121783 64.817239 
L 121.354137 64.796142 
L 121.741395 64.482959 
L 123.677684 62.506783 
L 124.607103 62.011999 
L 125.304167 61.849186 
L 125.45907 61.968427 
L 125.768877 62.368151 
L 126.388489 62.66657 
L 126.465941 62.6914 
L 126.775747 63.48248 
L 127.860069 67.868138 
L 128.944391 73.962711 
L 129.176745 74.516171 
L 129.331648 75.152228 
L 130.183616 79.558751 
L 130.338519 79.46921 
L 130.570873 78.718112 
L 131.035583 76.151363 
L 132.197356 69.509341 
L 132.89442 66.74889 
L 133.591484 64.865025 
L 134.288548 63.622177 
L 134.985612 62.815857 
L 135.760128 62.252513 
L 136.224837 62.541184 
L 136.534644 63.002411 
L 136.84445 63.820353 
L 137.386611 64.333234 
L 137.464062 64.372798 
L 137.696417 65.188371 
L 138.161127 68.524318 
L 138.858191 72.982356 
L 140.019964 77.877781 
L 140.32977 79.397466 
L 140.484673 80.229276 
L 140.639577 61.37835 
L 140.949383 61.37835 
L 141.259189 64.444455 
L 141.568995 65.69959 
L 141.80135 65.987023 
L 142.033705 65.955363 
L 142.420962 65.533565 
L 144.357252 62.888897 
L 145.131767 62.313539 
L 145.131767 62.313539 
" clip-path="url(#pfb57b8a869)" style="fill: none; stroke-dasharray: 0.7,1.155; stroke-dashoffset: 0; stroke: #bbbbbb; stroke-width: 0.7"/>
   </g>
   <g id="patch_3">
    <path d="M 21.286719 83.425078 
L 21.286719 14.305078 
" style="fill: none; stroke: #1a1a1a; stroke-width: 0.8; stroke-linejoin: miter; stroke-linecap: square"/>
   </g>
   <g id="patch_4">
    <path d="M 145.209219 83.425078 
L 145.209219 14.305078 
" style="fill: none; stroke: #1a1a1a; stroke-width: 0.8; stroke-linejoin: miter; stroke-linecap: square"/>
   </g>
   <g id="patch_5">
    <path d="M 21.286719 83.425078 
L 145.209219 83.425078 
" style="fill: none; stroke: #1a1a1a; stroke-width: 0.8; stroke-linejoin: miter; stroke-linecap: square"/>
   </g>
   <g id="patch_6">
    <path d="M 21.286719 14.305078 
L 145.209219 14.305078 
" style="fill: none; stroke: #1a1a1a; stroke-width: 0.8; stroke-linejoin: miter; stroke-linecap: square"/>
   </g>
   <g id="text_10">
    <!-- PING — recurrent loop active (ei-strength = 1.5) — I-neuron signed currents (cell 81) -->
    <g style="fill: #1a1a1a" transform="translate(21.286719 8.305078) scale(0.085 -0.085)">
     <defs>
      <path id="Menlo-Regular-50" d="M 1247 4147 
L 1247 2394 
L 1978 2394 
Q 2416 2394 2661 2625 
Q 2906 2856 2906 3272 
Q 2906 3688 2662 3917 
Q 2419 4147 1978 4147 
L 1247 4147 
z
M 616 4666 
L 1978 4666 
Q 2759 4666 3162 4311 
Q 3566 3956 3566 3272 
Q 3566 2581 3164 2228 
Q 2763 1875 1978 1875 
L 1247 1875 
L 1247 0 
L 616 0 
L 616 4666 
z
" transform="scale(0.015625)"/>
      <path id="Menlo-Regular-4e" d="M 59 4650 
L 922 4650 
L 2747 822 
L 2747 4650 
L 3419 4650 
L 3419 0 
L 2556 0 
L 731 3828 
L 731 0 
L 59 0 
L 59 4650 
z
" transform="scale(0.015625)"/>
      <path id="Menlo-Regular-47" d="M 3450 384 
Q 3197 150 2880 29 
Q 2563 -91 2194 -91 
Q 1306 -91 812 545 
Q 319 1181 319 2328 
Q 319 3472 819 4111 
Q 1319 4750 2209 4750 
Q 2503 4750 2772 4667 
Q 3041 4584 3291 4416 
L 3291 3769 
Q 3038 4009 2772 4123 
Q 2506 4238 2209 4238 
Q 1594 4238 1286 3761 
Q 978 3284 978 2328 
Q 978 1356 1276 889 
Q 1575 422 2194 422 
Q 2403 422 2561 470 
Q 2719 519 2847 622 
L 2847 1875 
L 2169 1875 
L 2169 2394 
L 3450 2394 
L 3450 384 
z
" transform="scale(0.015625)"/>
      <path id="Menlo-Regular-2014" d="M 0 2259 
L 3853 2259 
L 3853 1725 
L 0 1725 
L 0 2259 
z
" transform="scale(0.015625)"/>
      <path id="Menlo-Regular-72" d="M 3609 2778 
Q 3425 2922 3234 2987 
Q 3044 3053 2816 3053 
Q 2278 3053 1993 2715 
Q 1709 2378 1709 1741 
L 1709 0 
L 1131 0 
L 1131 3500 
L 1709 3500 
L 1709 2816 
Q 1853 3188 2151 3386 
Q 2450 3584 2859 3584 
Q 3072 3584 3256 3531 
Q 3441 3478 3609 3366 
L 3609 2778 
z
" transform="scale(0.015625)"/>
      <path id="Menlo-Regular-63" d="M 3316 178 
Q 3084 44 2839 -23 
Q 2594 -91 2338 -91 
Q 1525 -91 1067 396 
Q 609 884 609 1747 
Q 609 2609 1067 3096 
Q 1525 3584 2338 3584 
Q 2591 3584 2831 3518 
Q 3072 3453 3316 3316 
L 3316 2713 
Q 3088 2916 2858 3006 
Q 2628 3097 2338 3097 
Q 1797 3097 1506 2747 
Q 1216 2397 1216 1747 
Q 1216 1100 1508 748 
Q 1800 397 2338 397 
Q 2638 397 2875 489 
Q 3113 581 3316 775 
L 3316 178 
z
" transform="scale(0.015625)"/>
      <path id="Menlo-Regular-75" d="M 609 1325 
L 609 3494 
L 1184 3494 
L 1184 1325 
Q 1184 853 1351 631 
Q 1519 409 1869 409 
Q 2275 409 2490 695 
Q 2706 981 2706 1516 
L 2706 3494 
L 3284 3494 
L 3284 0 
L 2706 0 
L 2706 525 
Q 2553 222 2289 65 
Q 2025 -91 1672 -91 
Q 1134 -91 871 261 
Q 609 613 609 1325 
z
" transform="scale(0.015625)"/>
      <path id="Menlo-Regular-61" d="M 2194 1759 
L 2003 1759 
Q 1500 1759 1245 1582 
Q 991 1406 991 1056 
Q 991 741 1181 566 
Q 1372 391 1709 391 
Q 2184 391 2456 720 
Q 2728 1050 2731 1631 
L 2731 1759 
L 2194 1759 
z
M 3309 1997 
L 3309 0 
L 2731 0 
L 2731 519 
Q 2547 206 2267 57 
Q 1988 -91 1588 -91 
Q 1053 -91 734 211 
Q 416 513 416 1019 
Q 416 1603 808 1906 
Q 1200 2209 1959 2209 
L 2731 2209 
L 2731 2300 
Q 2728 2719 2518 2908 
Q 2309 3097 1850 3097 
Q 1556 3097 1256 3012 
Q 956 2928 672 2766 
L 672 3341 
Q 991 3463 1283 3523 
Q 1575 3584 1850 3584 
Q 2284 3584 2592 3456 
Q 2900 3328 3091 3072 
Q 3209 2916 3259 2686 
Q 3309 2456 3309 1997 
z
" transform="scale(0.015625)"/>
      <path id="Menlo-Regular-76" d="M 313 3500 
L 909 3500 
L 1925 563 
L 2944 3500 
L 3541 3500 
L 2297 0 
L 1556 0 
L 313 3500 
z
" transform="scale(0.015625)"/>
      <path id="Menlo-Regular-2d" d="M 319 2263 
L 3631 2263 
L 3631 1734 
L 319 1734 
L 319 2263 
z
" transform="scale(0.015625)"/>
      <path id="Menlo-Regular-67" d="M 2681 1778 
Q 2681 2425 2470 2761 
Q 2259 3097 1856 3097 
Q 1434 3097 1212 2761 
Q 991 2425 991 1778 
Q 991 1131 1214 792 
Q 1438 453 1863 453 
Q 2259 453 2470 793 
Q 2681 1134 2681 1778 
z
M 3256 225 
Q 3256 -563 2884 -969 
Q 2513 -1375 1791 -1375 
Q 1553 -1375 1293 -1331 
Q 1034 -1288 775 -1203 
L 775 -634 
Q 1081 -778 1331 -847 
Q 1581 -916 1791 -916 
Q 2256 -916 2468 -662 
Q 2681 -409 2681 141 
L 2681 166 
L 2681 556 
Q 2544 263 2306 119 
Q 2069 -25 1728 -25 
Q 1116 -25 750 465 
Q 384 956 384 1778 
Q 384 2603 750 3093 
Q 1116 3584 1728 3584 
Q 2066 3584 2300 3450 
Q 2534 3316 2681 3034 
L 2681 3488 
L 3256 3488 
L 3256 225 
z
" transform="scale(0.015625)"/>
      <path id="Menlo-Regular-68" d="M 3284 2169 
L 3284 0 
L 2706 0 
L 2706 2169 
Q 2706 2641 2540 2862 
Q 2375 3084 2022 3084 
Q 1619 3084 1401 2798 
Q 1184 2513 1184 1978 
L 1184 0 
L 609 0 
L 609 4863 
L 1184 4863 
L 1184 2975 
Q 1338 3275 1600 3429 
Q 1863 3584 2222 3584 
Q 2756 3584 3020 3232 
Q 3284 2881 3284 2169 
z
" transform="scale(0.015625)"/>
      <path id="Menlo-Regular-3d" d="M 275 1563 
L 3578 1563 
L 3578 1034 
L 275 1034 
L 275 1563 
z
M 275 3034 
L 3578 3034 
L 3578 2506 
L 275 2506 
L 275 3034 
z
" transform="scale(0.015625)"/>
      <path id="Menlo-Regular-35" d="M 647 4666 
L 3009 4666 
L 3009 4134 
L 1222 4134 
L 1222 2988 
Q 1356 3038 1492 3061 
Q 1628 3084 1766 3084 
Q 2491 3084 2916 2656 
Q 3341 2228 3341 1497 
Q 3341 759 2895 334 
Q 2450 -91 1678 -91 
Q 1306 -91 998 -41 
Q 691 9 447 109 
L 447 750 
Q 734 594 1025 517 
Q 1316 441 1619 441 
Q 2141 441 2423 716 
Q 2706 991 2706 1497 
Q 2706 1997 2414 2275 
Q 2122 2553 1600 2553 
Q 1347 2553 1106 2495 
Q 866 2438 647 2322 
L 647 4666 
z
" transform="scale(0.015625)"/>
      <path id="Menlo-Regular-38" d="M 1925 2216 
Q 1503 2216 1273 1980 
Q 1044 1744 1044 1313 
Q 1044 881 1276 642 
Q 1509 403 1925 403 
Q 2350 403 2579 639 
Q 2809 875 2809 1313 
Q 2809 1741 2576 1978 
Q 2344 2216 1925 2216 
z
M 1375 2478 
Q 972 2581 745 2862 
Q 519 3144 519 3541 
Q 519 4097 897 4423 
Q 1275 4750 1925 4750 
Q 2578 4750 2956 4423 
Q 3334 4097 3334 3541 
Q 3334 3144 3107 2862 
Q 2881 2581 2478 2478 
Q 2947 2375 3195 2062 
Q 3444 1750 3444 1253 
Q 3444 622 3041 265 
Q 2638 -91 1925 -91 
Q 1213 -91 811 264 
Q 409 619 409 1247 
Q 409 1747 657 2061 
Q 906 2375 1375 2478 
z
M 1147 3481 
Q 1147 3106 1347 2909 
Q 1547 2713 1925 2713 
Q 2306 2713 2506 2909 
Q 2706 3106 2706 3481 
Q 2706 3863 2507 4063 
Q 2309 4263 1925 4263 
Q 1547 4263 1347 4061 
Q 1147 3859 1147 3481 
z
" transform="scale(0.015625)"/>
     </defs>
     <use xlink:href="#Menlo-Regular-50"/>
     <use xlink:href="#Menlo-Regular-49" transform="translate(60.205078 0)"/>
     <use xlink:href="#Menlo-Regular-4e" transform="translate(120.410156 0)"/>
     <use xlink:href="#Menlo-Regular-47" transform="translate(180.615234 0)"/>
     <use xlink:href="#Menlo-Regular-20" transform="translate(240.820312 0)"/>
     <use xlink:href="#Menlo-Regular-2014" transform="translate(301.025391 0)"/>
     <use xlink:href="#Menlo-Regular-20" transform="translate(361.230469 0)"/>
     <use xlink:href="#Menlo-Regular-72" transform="translate(421.435547 0)"/>
     <use xlink:href="#Menlo-Regular-65" transform="translate(481.640625 0)"/>
     <use xlink:href="#Menlo-Regular-63" transform="translate(541.845703 0)"/>
     <use xlink:href="#Menlo-Regular-75" transform="translate(602.050781 0)"/>
     <use xlink:href="#Menlo-Regular-72" transform="translate(662.255859 0)"/>
     <use xlink:href="#Menlo-Regular-72" transform="translate(722.460938 0)"/>
     <use xlink:href="#Menlo-Regular-65" transform="translate(782.666016 0)"/>
     <use xlink:href="#Menlo-Regular-6e" transform="translate(842.871094 0)"/>
     <use xlink:href="#Menlo-Regular-74" transform="translate(903.076172 0)"/>
     <use xlink:href="#Menlo-Regular-20" transform="translate(963.28125 0)"/>
     <use xlink:href="#Menlo-Regular-6c" transform="translate(1023.486328 0)"/>
     <use xlink:href="#Menlo-Regular-6f" transform="translate(1083.691406 0)"/>
     <use xlink:href="#Menlo-Regular-6f" transform="translate(1143.896484 0)"/>
     <use xlink:href="#Menlo-Regular-70" transform="translate(1204.101562 0)"/>
     <use xlink:href="#Menlo-Regular-20" transform="translate(1264.306641 0)"/>
     <use xlink:href="#Menlo-Regular-61" transform="translate(1324.511719 0)"/>
     <use xlink:href="#Menlo-Regular-63" transform="translate(1384.716797 0)"/>
     <use xlink:href="#Menlo-Regular-74" transform="translate(1444.921875 0)"/>
     <use xlink:href="#Menlo-Regular-69" transform="translate(1505.126953 0)"/>
     <use xlink:href="#Menlo-Regular-76" transform="translate(1565.332031 0)"/>
     <use xlink:href="#Menlo-Regular-65" transform="translate(1625.537109 0)"/>
     <use xlink:href="#Menlo-Regular-20" transform="translate(1685.742188 0)"/>
     <use xlink:href="#Menlo-Regular-28" transform="translate(1745.947266 0)"/>
     <use xlink:href="#Menlo-Regular-65" transform="translate(1806.152344 0)"/>
     <use xlink:href="#Menlo-Regular-69" transform="translate(1866.357422 0)"/>
     <use xlink:href="#Menlo-Regular-2d" transform="translate(1926.5625 0)"/>
     <use xlink:href="#Menlo-Regular-73" transform="translate(1986.767578 0)"/>
     <use xlink:href="#Menlo-Regular-74" transform="translate(2046.972656 0)"/>
     <use xlink:href="#Menlo-Regular-72" transform="translate(2107.177734 0)"/>
     <use xlink:href="#Menlo-Regular-65" transform="translate(2167.382812 0)"/>
     <use xlink:href="#Menlo-Regular-6e" transform="translate(2227.587891 0)"/>
     <use xlink:href="#Menlo-Regular-67" transform="translate(2287.792969 0)"/>
     <use xlink:href="#Menlo-Regular-74" transform="translate(2347.998047 0)"/>
     <use xlink:href="#Menlo-Regular-68" transform="translate(2408.203125 0)"/>
     <use xlink:href="#Menlo-Regular-20" transform="translate(2468.408203 0)"/>
     <use xlink:href="#Menlo-Regular-3d" transform="translate(2528.613281 0)"/>
     <use xlink:href="#Menlo-Regular-20" transform="translate(2588.818359 0)"/>
     <use xlink:href="#Menlo-Regular-31" transform="translate(2649.023438 0)"/>
     <use xlink:href="#Menlo-Regular-2e" transform="translate(2709.228516 0)"/>
     <use xlink:href="#Menlo-Regular-35" transform="translate(2769.433594 0)"/>
     <use xlink:href="#Menlo-Regular-29" transform="translate(2829.638672 0)"/>
     <use xlink:href="#Menlo-Regular-20" transform="translate(2889.84375 0)"/>
     <use xlink:href="#Menlo-Regular-2014" transform="translate(2950.048828 0)"/>
     <use xlink:href="#Menlo-Regular-20" transform="translate(3010.253906 0)"/>
     <use xlink:href="#Menlo-Regular-49" transform="translate(3070.458984 0)"/>
     <use xlink:href="#Menlo-Regular-2d" transform="translate(3130.664062 0)"/>
     <use xlink:href="#Menlo-Regular-6e" transform="translate(3190.869141 0)"/>
     <use xlink:href="#Menlo-Regular-65" transform="translate(3251.074219 0)"/>
     <use xlink:href="#Menlo-Regular-75" transform="translate(3311.279297 0)"/>
     <use xlink:href="#Menlo-Regular-72" transform="translate(3371.484375 0)"/>
     <use xlink:href="#Menlo-Regular-6f" transform="translate(3431.689453 0)"/>
     <use xlink:href="#Menlo-Regular-6e" transform="translate(3491.894531 0)"/>
     <use xlink:href="#Menlo-Regular-20" transform="translate(3552.099609 0)"/>
     <use xlink:href="#Menlo-Regular-73" transform="translate(3612.304688 0)"/>
     <use xlink:href="#Menlo-Regular-69" transform="translate(3672.509766 0)"/>
     <use xlink:href="#Menlo-Regular-67" transform="translate(3732.714844 0)"/>
     <use xlink:href="#Menlo-Regular-6e" transform="translate(3792.919922 0)"/>
     <use xlink:href="#Menlo-Regular-65" transform="translate(3853.125 0)"/>
     <use xlink:href="#Menlo-Regular-64" transform="translate(3913.330078 0)"/>
     <use xlink:href="#Menlo-Regular-20" transform="translate(3973.535156 0)"/>
     <use xlink:href="#Menlo-Regular-63" transform="translate(4033.740234 0)"/>
     <use xlink:href="#Menlo-Regular-75" transform="translate(4093.945312 0)"/>
     <use xlink:href="#Menlo-Regular-72" transform="translate(4154.150391 0)"/>
     <use xlink:href="#Menlo-Regular-72" transform="translate(4214.355469 0)"/>
     <use xlink:href="#Menlo-Regular-65" transform="translate(4274.560547 0)"/>
     <use xlink:href="#Menlo-Regular-6e" transform="translate(4334.765625 0)"/>
     <use xlink:href="#Menlo-Regular-74" transform="translate(4394.970703 0)"/>
     <use xlink:href="#Menlo-Regular-73" transform="translate(4455.175781 0)"/>
     <use xlink:href="#Menlo-Regular-20" transform="translate(4515.380859 0)"/>
     <use xlink:href="#Menlo-Regular-28" transform="translate(4575.585938 0)"/>
     <use xlink:href="#Menlo-Regular-63" transform="translate(4635.791016 0)"/>
     <use xlink:href="#Menlo-Regular-65" transform="translate(4695.996094 0)"/>
     <use xlink:href="#Menlo-Regular-6c" transform="translate(4756.201172 0)"/>
     <use xlink:href="#Menlo-Regular-6c" transform="translate(4816.40625 0)"/>
     <use xlink:href="#Menlo-Regular-20" transform="translate(4876.611328 0)"/>
     <use xlink:href="#Menlo-Regular-38" transform="translate(4936.816406 0)"/>
     <use xlink:href="#Menlo-Regular-31" transform="translate(4997.021484 0)"/>
     <use xlink:href="#Menlo-Regular-29" transform="translate(5057.226562 0)"/>
    </g>
   </g>
   <g id="legend_1">
    <g id="patch_7">
     <path d="M 56.095937 40.898516 
L 141.709219 40.898516 
L 141.709219 17.805078 
L 56.095937 17.805078 
z
" style="fill: #ffffff; stroke: #1a1a1a; stroke-width: 0.8; stroke-linejoin: miter"/>
    </g>
    <g id="line2d_11">
     <path d="M 58.895937 23.808672 
L 64.495937 23.808672 
L 70.095937 23.808672 
" style="fill: none; stroke: #1a1a1a; stroke-width: 0.9; stroke-linejoin: miter"/>
    </g>
    <g id="text_11">
     <!-- I_E in (depol.) -->
     <g style="fill: #1a1a1a" transform="translate(75.695937 26.258672) scale(0.07 -0.07)">
      <defs>
       <path id="Menlo-Regular-5f" d="M 3825 -594 
L 3825 -1125 
L 0 -1125 
L 0 -594 
L 3825 -594 
z
" transform="scale(0.015625)"/>
       <path id="Menlo-Regular-45" d="M 616 4666 
L 3384 4666 
L 3384 4134 
L 1247 4134 
L 1247 2878 
L 3291 2878 
L 3291 2347 
L 1247 2347 
L 1247 531 
L 3444 531 
L 3444 0 
L 616 0 
L 616 4666 
z
" transform="scale(0.015625)"/>
      </defs>
      <use xlink:href="#Menlo-Regular-49"/>
      <use xlink:href="#Menlo-Regular-5f" transform="translate(60.205078 0)"/>
      <use xlink:href="#Menlo-Regular-45" transform="translate(120.410156 0)"/>
      <use xlink:href="#Menlo-Regular-20" transform="translate(180.615234 0)"/>
      <use xlink:href="#Menlo-Regular-69" transform="translate(240.820312 0)"/>
      <use xlink:href="#Menlo-Regular-6e" transform="translate(301.025391 0)"/>
      <use xlink:href="#Menlo-Regular-20" transform="translate(361.230469 0)"/>
      <use xlink:href="#Menlo-Regular-28" transform="translate(421.435547 0)"/>
      <use xlink:href="#Menlo-Regular-64" transform="translate(481.640625 0)"/>
      <use xlink:href="#Menlo-Regular-65" transform="translate(541.845703 0)"/>
      <use xlink:href="#Menlo-Regular-70" transform="translate(602.050781 0)"/>
      <use xlink:href="#Menlo-Regular-6f" transform="translate(662.255859 0)"/>
      <use xlink:href="#Menlo-Regular-6c" transform="translate(722.460938 0)"/>
      <use xlink:href="#Menlo-Regular-2e" transform="translate(782.666016 0)"/>
      <use xlink:href="#Menlo-Regular-29" transform="translate(842.871094 0)"/>
     </g>
    </g>
    <g id="line2d_12">
     <path d="M 58.895937 34.192734 
L 64.495937 34.192734 
L 70.095937 34.192734 
" style="fill: none; stroke-dasharray: 0.7,1.155; stroke-dashoffset: 0; stroke: #bbbbbb; stroke-width: 0.7"/>
    </g>
    <g id="text_12">
     <!-- I_L in (leak) -->
     <g style="fill: #1a1a1a" transform="translate(75.695937 36.642734) scale(0.07 -0.07)">
      <defs>
       <path id="Menlo-Regular-4c" d="M 672 4666 
L 1306 4666 
L 1306 531 
L 3559 531 
L 3559 0 
L 672 0 
L 672 4666 
z
" transform="scale(0.015625)"/>
       <path id="Menlo-Regular-6b" d="M 738 4863 
L 1331 4863 
L 1331 2047 
L 2841 3500 
L 3541 3500 
L 2163 2181 
L 3756 0 
L 3053 0 
L 1759 1806 
L 1331 1403 
L 1331 0 
L 738 0 
L 738 4863 
z
" transform="scale(0.015625)"/>
      </defs>
      <use xlink:href="#Menlo-Regular-49"/>
      <use xlink:href="#Menlo-Regular-5f" transform="translate(60.205078 0)"/>
      <use xlink:href="#Menlo-Regular-4c" transform="translate(120.410156 0)"/>
      <use xlink:href="#Menlo-Regular-20" transform="translate(180.615234 0)"/>
      <use xlink:href="#Menlo-Regular-69" transform="translate(240.820312 0)"/>
      <use xlink:href="#Menlo-Regular-6e" transform="translate(301.025391 0)"/>
      <use xlink:href="#Menlo-Regular-20" transform="translate(361.230469 0)"/>
      <use xlink:href="#Menlo-Regular-28" transform="translate(421.435547 0)"/>
      <use xlink:href="#Menlo-Regular-6c" transform="translate(481.640625 0)"/>
      <use xlink:href="#Menlo-Regular-65" transform="translate(541.845703 0)"/>
      <use xlink:href="#Menlo-Regular-61" transform="translate(602.050781 0)"/>
      <use xlink:href="#Menlo-Regular-6b" transform="translate(662.255859 0)"/>
      <use xlink:href="#Menlo-Regular-29" transform="translate(722.460938 0)"/>
     </g>
    </g>
   </g>
  </g>
 </g>
 <defs>
  <clipPath id="pfb57b8a869">
   <rect x="21.286719" y="14.305078" width="123.9225" height="69.12"/>
  </clipPath>
 </defs>
</svg>
