<?xml version="1.0" encoding="utf-8" standalone="no"?>
<!DOCTYPE svg PUBLIC "-//W3C//DTD SVG 1.1//EN"
  "http://www.w3.org/Graphics/SVG/1.1/DTD/svg11.dtd">
<svg xmlns:xlink="http://www.w3.org/1999/xlink" width="419.809844pt" height="106.564453pt" viewBox="0 0 419.809844 106.564453" xmlns="http://www.w3.org/2000/svg" version="1.1">
 <metadata>
  <rdf:RDF xmlns:dc="http://purl.org/dc/elements/1.1/" xmlns:cc="http://creativecommons.org/ns#" xmlns:rdf="http://www.w3.org/1999/02/22-rdf-syntax-ns#">
   <cc:Work>
    <dc:type rdf:resource="http://purl.org/dc/dcmitype/StillImage"/>
    <dc:date>2026-07-02T13:38:54.278764</dc:date>
    <dc:format>image/svg+xml</dc:format>
    <dc:creator>
     <cc:Agent>
      <dc:title>Matplotlib v3.10.8, https://matplotlib.org/</dc:title>
     </cc:Agent>
    </dc:creator>
   </cc:Work>
  </rdf:RDF>
 </metadata>
 <defs>
  <style type="text/css">*{stroke-linejoin: round; stroke-linecap: butt}</style>
 </defs>
 <g id="figure_1">
  <g id="patch_1">
   <path d="M -0 106.564453 
L 419.809844 106.564453 
L 419.809844 0 
L -0 0 
z
" style="fill: #ffffff"/>
  </g>
  <g id="axes_1">
   <g id="patch_2">
    <path d="M 29.457656 83.065078 
L 172.707656 83.065078 
L 172.707656 14.305078 
L 29.457656 14.305078 
z
" style="fill: #ffffff"/>
   </g>
   <g id="matplotlib.axis_1">
    <g id="xtick_1">
     <g id="line2d_1">
      <defs>
       <path id="m105f21d0f6" d="M 0 0 
L 0 -3 
" style="stroke: #1a1a1a; stroke-width: 0.8"/>
      </defs>
      <g>
       <use xlink:href="#m105f21d0f6" x="29.457656" y="83.065078" style="fill: #1a1a1a; stroke: #1a1a1a; stroke-width: 0.8"/>
      </g>
     </g>
     <g id="text_1">
      <!-- 0 -->
      <g style="fill: #1a1a1a" transform="translate(27.350547 91.903672) scale(0.07 -0.07)">
       <defs>
        <path id="Menlo-Regular-30" d="M 1925 4734 
Q 2672 4734 3055 4125 
Q 3438 3516 3438 2322 
Q 3438 1128 3055 518 
Q 2672 -91 1925 -91 
Q 1178 -91 797 518 
Q 416 1128 416 2322 
Q 416 3516 797 4125 
Q 1178 4734 1925 4734 
z
M 1925 409 
Q 2369 409 2586 881 
Q 2803 1353 2803 2322 
Q 2803 2838 2741 3253 
L 1253 925 
Q 1488 409 1925 409 
z
M 1925 4234 
Q 1484 4234 1267 3762 
Q 1050 3291 1050 2322 
Q 1050 1881 1109 1497 
L 2566 3819 
Q 2328 4234 1925 4234 
z
" transform="scale(0.015625)"/>
       </defs>
       <use xlink:href="#Menlo-Regular-30"/>
      </g>
     </g>
    </g>
    <g id="xtick_2">
     <g id="line2d_2">
      <g>
       <use xlink:href="#m105f21d0f6" x="65.270156" y="83.065078" style="fill: #1a1a1a; stroke: #1a1a1a; stroke-width: 0.8"/>
      </g>
     </g>
     <g id="text_2">
      <!-- 100 -->
      <g style="fill: #1a1a1a" transform="translate(58.948828 91.903672) scale(0.07 -0.07)">
       <defs>
        <path id="Menlo-Regular-31" d="M 844 528 
L 1825 528 
L 1825 4053 
L 650 3488 
L 650 4094 
L 1819 4650 
L 2450 4650 
L 2450 528 
L 3419 528 
L 3419 0 
L 844 0 
L 844 528 
z
" transform="scale(0.015625)"/>
       </defs>
       <use xlink:href="#Menlo-Regular-31"/>
       <use xlink:href="#Menlo-Regular-30" transform="translate(60.205078 0)"/>
       <use xlink:href="#Menlo-Regular-30" transform="translate(120.410156 0)"/>
      </g>
     </g>
    </g>
    <g id="xtick_3">
     <g id="line2d_3">
      <g>
       <use xlink:href="#m105f21d0f6" x="101.082655" y="83.065078" style="fill: #1a1a1a; stroke: #1a1a1a; stroke-width: 0.8"/>
      </g>
     </g>
     <g id="text_3">
      <!-- 200 -->
      <g style="fill: #1a1a1a" transform="translate(94.761327 91.903672) scale(0.07 -0.07)">
       <defs>
        <path id="Menlo-Regular-32" d="M 1166 531 
L 3309 531 
L 3309 0 
L 475 0 
L 475 531 
Q 1059 1147 1496 1619 
Q 1934 2091 2100 2284 
Q 2413 2666 2522 2902 
Q 2631 3138 2631 3384 
Q 2631 3775 2401 3997 
Q 2172 4219 1772 4219 
Q 1488 4219 1175 4116 
Q 863 4013 513 3803 
L 513 4441 
Q 834 4594 1145 4672 
Q 1456 4750 1759 4750 
Q 2444 4750 2861 4386 
Q 3278 4022 3278 3431 
Q 3278 3131 3139 2831 
Q 3000 2531 2688 2169 
Q 2513 1966 2180 1606 
Q 1847 1247 1166 531 
z
" transform="scale(0.015625)"/>
       </defs>
       <use xlink:href="#Menlo-Regular-32"/>
       <use xlink:href="#Menlo-Regular-30" transform="translate(60.205078 0)"/>
       <use xlink:href="#Menlo-Regular-30" transform="translate(120.410156 0)"/>
      </g>
     </g>
    </g>
    <g id="xtick_4">
     <g id="line2d_4">
      <g>
       <use xlink:href="#m105f21d0f6" x="136.895155" y="83.065078" style="fill: #1a1a1a; stroke: #1a1a1a; stroke-width: 0.8"/>
      </g>
     </g>
     <g id="text_4">
      <!-- 300 -->
      <g style="fill: #1a1a1a" transform="translate(130.573827 91.903672) scale(0.07 -0.07)">
       <defs>
        <path id="Menlo-Regular-33" d="M 2425 2497 
Q 2884 2375 3128 2064 
Q 3372 1753 3372 1288 
Q 3372 644 2939 276 
Q 2506 -91 1741 -91 
Q 1419 -91 1084 -31 
Q 750 28 428 141 
L 428 769 
Q 747 603 1056 522 
Q 1366 441 1672 441 
Q 2191 441 2469 675 
Q 2747 909 2747 1350 
Q 2747 1756 2469 1995 
Q 2191 2234 1716 2234 
L 1234 2234 
L 1234 2753 
L 1716 2753 
Q 2150 2753 2394 2943 
Q 2638 3134 2638 3475 
Q 2638 3834 2411 4026 
Q 2184 4219 1766 4219 
Q 1488 4219 1191 4156 
Q 894 4094 569 3969 
L 569 4550 
Q 947 4650 1242 4700 
Q 1538 4750 1766 4750 
Q 2447 4750 2855 4408 
Q 3263 4066 3263 3500 
Q 3263 3116 3048 2859 
Q 2834 2603 2425 2497 
z
" transform="scale(0.015625)"/>
       </defs>
       <use xlink:href="#Menlo-Regular-33"/>
       <use xlink:href="#Menlo-Regular-30" transform="translate(60.205078 0)"/>
       <use xlink:href="#Menlo-Regular-30" transform="translate(120.410156 0)"/>
      </g>
     </g>
    </g>
    <g id="xtick_5">
     <g id="line2d_5">
      <g>
       <use xlink:href="#m105f21d0f6" x="172.707654" y="83.065078" style="fill: #1a1a1a; stroke: #1a1a1a; stroke-width: 0.8"/>
      </g>
     </g>
     <g id="text_5">
      <!-- 400 -->
      <g style="fill: #1a1a1a" transform="translate(166.386326 91.903672) scale(0.07 -0.07)">
       <defs>
        <path id="Menlo-Regular-34" d="M 2297 4091 
L 825 1625 
L 2297 1625 
L 2297 4091 
z
M 2194 4666 
L 2925 4666 
L 2925 1625 
L 3547 1625 
L 3547 1113 
L 2925 1113 
L 2925 0 
L 2297 0 
L 2297 1113 
L 319 1113 
L 319 1709 
L 2194 4666 
z
" transform="scale(0.015625)"/>
       </defs>
       <use xlink:href="#Menlo-Regular-34"/>
       <use xlink:href="#Menlo-Regular-30" transform="translate(60.205078 0)"/>
       <use xlink:href="#Menlo-Regular-30" transform="translate(120.410156 0)"/>
      </g>
     </g>
    </g>
    <g id="text_6">
     <!-- time (ms) -->
     <g style="fill: #1a1a1a" transform="translate(79.409531 103.460703) scale(0.08 -0.08)">
      <defs>
       <path id="Menlo-Regular-74" d="M 1919 4494 
L 1919 3500 
L 3225 3500 
L 3225 3053 
L 1919 3053 
L 1919 1153 
Q 1919 766 2066 612 
Q 2213 459 2578 459 
L 3225 459 
L 3225 0 
L 2522 0 
Q 1875 0 1609 259 
Q 1344 519 1344 1153 
L 1344 3053 
L 409 3053 
L 409 3500 
L 1344 3500 
L 1344 4494 
L 1919 4494 
z
" transform="scale(0.015625)"/>
       <path id="Menlo-Regular-69" d="M 988 3488 
L 2459 3488 
L 2459 447 
L 3600 447 
L 3600 0 
L 744 0 
L 744 447 
L 1884 447 
L 1884 3041 
L 988 3041 
L 988 3488 
z
M 1884 4847 
L 2459 4847 
L 2459 4122 
L 1884 4122 
L 1884 4847 
z
" transform="scale(0.015625)"/>
       <path id="Menlo-Regular-6d" d="M 2113 3144 
Q 2219 3369 2383 3476 
Q 2547 3584 2778 3584 
Q 3200 3584 3373 3257 
Q 3547 2931 3547 2028 
L 3547 0 
L 3022 0 
L 3022 2003 
Q 3022 2744 2939 2923 
Q 2856 3103 2638 3103 
Q 2388 3103 2295 2911 
Q 2203 2719 2203 2003 
L 2203 0 
L 1678 0 
L 1678 2003 
Q 1678 2753 1589 2928 
Q 1500 3103 1269 3103 
Q 1041 3103 952 2911 
Q 863 2719 863 2003 
L 863 0 
L 341 0 
L 341 3500 
L 863 3500 
L 863 3200 
Q 966 3388 1120 3486 
Q 1275 3584 1472 3584 
Q 1709 3584 1867 3475 
Q 2025 3366 2113 3144 
z
" transform="scale(0.015625)"/>
       <path id="Menlo-Regular-65" d="M 3500 2038 
L 3500 1756 
L 1009 1756 
L 1009 1738 
Q 984 1022 1282 709 
Q 1581 397 2125 397 
Q 2400 397 2700 484 
Q 3000 572 3341 750 
L 3341 178 
Q 3013 44 2708 -23 
Q 2403 -91 2119 -91 
Q 1303 -91 843 398 
Q 384 888 384 1747 
Q 384 2584 834 3084 
Q 1284 3584 2034 3584 
Q 2703 3584 3089 3131 
Q 3475 2678 3500 2038 
z
M 2925 2206 
Q 2888 2569 2661 2833 
Q 2434 3097 2009 3097 
Q 1594 3097 1325 2822 
Q 1056 2547 1031 2203 
L 2925 2206 
z
" transform="scale(0.015625)"/>
       <path id="Menlo-Regular-20" transform="scale(0.015625)"/>
       <path id="Menlo-Regular-28" d="M 2672 5169 
Q 2256 4456 2051 3748 
Q 1847 3041 1847 2322 
Q 1847 1606 2051 897 
Q 2256 188 2672 -531 
L 2172 -531 
Q 1700 213 1469 917 
Q 1238 1622 1238 2322 
Q 1238 3019 1469 3725 
Q 1700 4431 2172 5169 
L 2672 5169 
z
" transform="scale(0.015625)"/>
       <path id="Menlo-Regular-73" d="M 3041 3378 
L 3041 2816 
Q 2794 2959 2544 3031 
Q 2294 3103 2034 3103 
Q 1644 3103 1451 2976 
Q 1259 2850 1259 2591 
Q 1259 2356 1403 2240 
Q 1547 2125 2119 2016 
L 2350 1972 
Q 2778 1891 2998 1647 
Q 3219 1403 3219 1013 
Q 3219 494 2850 201 
Q 2481 -91 1825 -91 
Q 1566 -91 1281 -36 
Q 997 19 666 128 
L 666 722 
Q 988 556 1281 473 
Q 1575 391 1838 391 
Q 2219 391 2428 545 
Q 2638 700 2638 978 
Q 2638 1378 1872 1531 
L 1847 1538 
L 1631 1581 
Q 1134 1678 906 1908 
Q 678 2138 678 2534 
Q 678 3038 1018 3311 
Q 1359 3584 1991 3584 
Q 2272 3584 2531 3532 
Q 2791 3481 3041 3378 
z
" transform="scale(0.015625)"/>
       <path id="Menlo-Regular-29" d="M 1088 5169 
L 1588 5169 
Q 2059 4431 2290 3725 
Q 2522 3019 2522 2322 
Q 2522 1619 2290 912 
Q 2059 206 1588 -531 
L 1088 -531 
Q 1503 194 1708 903 
Q 1913 1613 1913 2322 
Q 1913 3034 1708 3743 
Q 1503 4453 1088 5169 
z
" transform="scale(0.015625)"/>
      </defs>
      <use xlink:href="#Menlo-Regular-74"/>
      <use xlink:href="#Menlo-Regular-69" transform="translate(60.205078 0)"/>
      <use xlink:href="#Menlo-Regular-6d" transform="translate(120.410156 0)"/>
      <use xlink:href="#Menlo-Regular-65" transform="translate(180.615234 0)"/>
      <use xlink:href="#Menlo-Regular-20" transform="translate(240.820312 0)"/>
      <use xlink:href="#Menlo-Regular-28" transform="translate(301.025391 0)"/>
      <use xlink:href="#Menlo-Regular-6d" transform="translate(361.230469 0)"/>
      <use xlink:href="#Menlo-Regular-73" transform="translate(421.435547 0)"/>
      <use xlink:href="#Menlo-Regular-29" transform="translate(481.640625 0)"/>
     </g>
    </g>
   </g>
   <g id="matplotlib.axis_2">
    <g id="ytick_1">
     <g id="line2d_6">
      <defs>
       <path id="mb29de472db" d="M 0 0 
L 3 0 
" style="stroke: #1a1a1a; stroke-width: 0.8"/>
      </defs>
      <g>
       <use xlink:href="#mb29de472db" x="29.457656" y="62.874022" style="fill: #1a1a1a; stroke: #1a1a1a; stroke-width: 0.8"/>
      </g>
     </g>
     <g id="text_7">
      <!-- −70 -->
      <g style="fill: #1a1a1a" transform="translate(13.315 65.543318) scale(0.07 -0.07)">
       <defs>
        <path id="Menlo-Regular-2212" d="M 275 2272 
L 3578 2272 
L 3578 1741 
L 275 1741 
L 275 2272 
z
" transform="scale(0.015625)"/>
        <path id="Menlo-Regular-37" d="M 434 4666 
L 3372 4666 
L 3372 4397 
L 1703 0 
L 1044 0 
L 2669 4134 
L 434 4134 
L 434 4666 
z
" transform="scale(0.015625)"/>
       </defs>
       <use xlink:href="#Menlo-Regular-2212"/>
       <use xlink:href="#Menlo-Regular-37" transform="translate(60.205078 0)"/>
       <use xlink:href="#Menlo-Regular-30" transform="translate(120.410156 0)"/>
      </g>
     </g>
    </g>
    <g id="ytick_2">
     <g id="line2d_7">
      <g>
       <use xlink:href="#mb29de472db" x="29.457656" y="40.102211" style="fill: #1a1a1a; stroke: #1a1a1a; stroke-width: 0.8"/>
      </g>
     </g>
     <g id="text_8">
      <!-- −60 -->
      <g style="fill: #1a1a1a" transform="translate(13.315 42.771508) scale(0.07 -0.07)">
       <defs>
        <path id="Menlo-Regular-36" d="M 3097 4563 
L 3097 3981 
Q 2900 4097 2678 4158 
Q 2456 4219 2216 4219 
Q 1616 4219 1306 3767 
Q 997 3316 997 2438 
Q 1147 2750 1412 2917 
Q 1678 3084 2022 3084 
Q 2697 3084 3067 2670 
Q 3438 2256 3438 1497 
Q 3438 741 3056 325 
Q 2675 -91 1984 -91 
Q 1172 -91 794 492 
Q 416 1075 416 2328 
Q 416 3509 870 4129 
Q 1325 4750 2188 4750 
Q 2419 4750 2650 4701 
Q 2881 4653 3097 4563 
z
M 1972 2591 
Q 1569 2591 1337 2300 
Q 1106 2009 1106 1497 
Q 1106 984 1337 693 
Q 1569 403 1972 403 
Q 2391 403 2603 679 
Q 2816 956 2816 1497 
Q 2816 2041 2603 2316 
Q 2391 2591 1972 2591 
z
" transform="scale(0.015625)"/>
       </defs>
       <use xlink:href="#Menlo-Regular-2212"/>
       <use xlink:href="#Menlo-Regular-36" transform="translate(60.205078 0)"/>
       <use xlink:href="#Menlo-Regular-30" transform="translate(120.410156 0)"/>
      </g>
     </g>
    </g>
    <g id="ytick_3">
     <g id="line2d_8">
      <g>
       <use xlink:href="#mb29de472db" x="29.457656" y="17.3304" style="fill: #1a1a1a; stroke: #1a1a1a; stroke-width: 0.8"/>
      </g>
     </g>
     <g id="text_9">
      <!-- −50 -->
      <g style="fill: #1a1a1a" transform="translate(13.315 19.999697) scale(0.07 -0.07)">
       <defs>
        <path id="Menlo-Regular-35" d="M 647 4666 
L 3009 4666 
L 3009 4134 
L 1222 4134 
L 1222 2988 
Q 1356 3038 1492 3061 
Q 1628 3084 1766 3084 
Q 2491 3084 2916 2656 
Q 3341 2228 3341 1497 
Q 3341 759 2895 334 
Q 2450 -91 1678 -91 
Q 1306 -91 998 -41 
Q 691 9 447 109 
L 447 750 
Q 734 594 1025 517 
Q 1316 441 1619 441 
Q 2141 441 2423 716 
Q 2706 991 2706 1497 
Q 2706 1997 2414 2275 
Q 2122 2553 1600 2553 
Q 1347 2553 1106 2495 
Q 866 2438 647 2322 
L 647 4666 
z
" transform="scale(0.015625)"/>
       </defs>
       <use xlink:href="#Menlo-Regular-2212"/>
       <use xlink:href="#Menlo-Regular-35" transform="translate(60.205078 0)"/>
       <use xlink:href="#Menlo-Regular-30" transform="translate(120.410156 0)"/>
      </g>
     </g>
    </g>
    <g id="text_10">
     <!-- V_E (neuron 73)  [mV] -->
     <g style="fill: #1a1a1a" transform="translate(7.65125 99.255703) rotate(-90) scale(0.08 -0.08)">
      <defs>
       <path id="Menlo-Regular-56" d="M 1925 531 
L 3022 4666 
L 3675 4666 
L 2309 0 
L 1544 0 
L 178 4666 
L 831 4666 
L 1925 531 
z
" transform="scale(0.015625)"/>
       <path id="Menlo-Regular-5f" d="M 3825 -594 
L 3825 -1125 
L 0 -1125 
L 0 -594 
L 3825 -594 
z
" transform="scale(0.015625)"/>
       <path id="Menlo-Regular-45" d="M 616 4666 
L 3384 4666 
L 3384 4134 
L 1247 4134 
L 1247 2878 
L 3291 2878 
L 3291 2347 
L 1247 2347 
L 1247 531 
L 3444 531 
L 3444 0 
L 616 0 
L 616 4666 
z
" transform="scale(0.015625)"/>
       <path id="Menlo-Regular-6e" d="M 3284 2169 
L 3284 0 
L 2706 0 
L 2706 2169 
Q 2706 2641 2540 2862 
Q 2375 3084 2022 3084 
Q 1619 3084 1401 2798 
Q 1184 2513 1184 1978 
L 1184 0 
L 609 0 
L 609 3500 
L 1184 3500 
L 1184 2975 
Q 1338 3275 1600 3429 
Q 1863 3584 2222 3584 
Q 2756 3584 3020 3232 
Q 3284 2881 3284 2169 
z
" transform="scale(0.015625)"/>
       <path id="Menlo-Regular-75" d="M 609 1325 
L 609 3494 
L 1184 3494 
L 1184 1325 
Q 1184 853 1351 631 
Q 1519 409 1869 409 
Q 2275 409 2490 695 
Q 2706 981 2706 1516 
L 2706 3494 
L 3284 3494 
L 3284 0 
L 2706 0 
L 2706 525 
Q 2553 222 2289 65 
Q 2025 -91 1672 -91 
Q 1134 -91 871 261 
Q 609 613 609 1325 
z
" transform="scale(0.015625)"/>
       <path id="Menlo-Regular-72" d="M 3609 2778 
Q 3425 2922 3234 2987 
Q 3044 3053 2816 3053 
Q 2278 3053 1993 2715 
Q 1709 2378 1709 1741 
L 1709 0 
L 1131 0 
L 1131 3500 
L 1709 3500 
L 1709 2816 
Q 1853 3188 2151 3386 
Q 2450 3584 2859 3584 
Q 3072 3584 3256 3531 
Q 3441 3478 3609 3366 
L 3609 2778 
z
" transform="scale(0.015625)"/>
       <path id="Menlo-Regular-6f" d="M 1925 3097 
Q 1488 3097 1263 2756 
Q 1038 2416 1038 1747 
Q 1038 1081 1263 739 
Q 1488 397 1925 397 
Q 2366 397 2591 739 
Q 2816 1081 2816 1747 
Q 2816 2416 2591 2756 
Q 2366 3097 1925 3097 
z
M 1925 3584 
Q 2653 3584 3039 3112 
Q 3425 2641 3425 1747 
Q 3425 850 3040 379 
Q 2656 -91 1925 -91 
Q 1197 -91 812 379 
Q 428 850 428 1747 
Q 428 2641 812 3112 
Q 1197 3584 1925 3584 
z
" transform="scale(0.015625)"/>
       <path id="Menlo-Regular-5b" d="M 1759 5175 
L 3084 5175 
L 3084 4728 
L 2334 4728 
L 2334 -84 
L 3084 -84 
L 3084 -531 
L 1759 -531 
L 1759 5175 
z
" transform="scale(0.015625)"/>
       <path id="Menlo-Regular-5d" d="M 2250 5175 
L 2250 -531 
L 925 -531 
L 925 -84 
L 1675 -84 
L 1675 4728 
L 925 4728 
L 925 5175 
L 2250 5175 
z
" transform="scale(0.015625)"/>
      </defs>
      <use xlink:href="#Menlo-Regular-56"/>
      <use xlink:href="#Menlo-Regular-5f" transform="translate(60.205078 0)"/>
      <use xlink:href="#Menlo-Regular-45" transform="translate(120.410156 0)"/>
      <use xlink:href="#Menlo-Regular-20" transform="translate(180.615234 0)"/>
      <use xlink:href="#Menlo-Regular-28" transform="translate(240.820312 0)"/>
      <use xlink:href="#Menlo-Regular-6e" transform="translate(301.025391 0)"/>
      <use xlink:href="#Menlo-Regular-65" transform="translate(361.230469 0)"/>
      <use xlink:href="#Menlo-Regular-75" transform="translate(421.435547 0)"/>
      <use xlink:href="#Menlo-Regular-72" transform="translate(481.640625 0)"/>
      <use xlink:href="#Menlo-Regular-6f" transform="translate(541.845703 0)"/>
      <use xlink:href="#Menlo-Regular-6e" transform="translate(602.050781 0)"/>
      <use xlink:href="#Menlo-Regular-20" transform="translate(662.255859 0)"/>
      <use xlink:href="#Menlo-Regular-37" transform="translate(722.460938 0)"/>
      <use xlink:href="#Menlo-Regular-33" transform="translate(782.666016 0)"/>
      <use xlink:href="#Menlo-Regular-29" transform="translate(842.871094 0)"/>
      <use xlink:href="#Menlo-Regular-20" transform="translate(903.076172 0)"/>
      <use xlink:href="#Menlo-Regular-20" transform="translate(963.28125 0)"/>
      <use xlink:href="#Menlo-Regular-5b" transform="translate(1023.486328 0)"/>
      <use xlink:href="#Menlo-Regular-6d" transform="translate(1083.691406 0)"/>
      <use xlink:href="#Menlo-Regular-56" transform="translate(1143.896484 0)"/>
      <use xlink:href="#Menlo-Regular-5d" transform="translate(1204.101562 0)"/>
     </g>
    </g>
   </g>
   <g id="line2d_9">
    <path d="M 29.457656 51.478561 
L 29.672531 51.214518 
L 30.173906 50.140748 
L 30.675281 48.597685 
L 31.642219 44.83261 
L 32.071969 42.885231 
L 32.573344 41.643302 
L 32.931469 40.603611 
L 33.217969 39.147936 
L 33.683531 35.400791 
L 34.435594 28.960108 
L 34.757906 27.263472 
L 34.829531 28.202449 
L 34.936969 34.502711 
L 35.402531 70.725998 
L 35.689031 77.252914 
L 35.975531 79.436817 
L 36.226219 79.93674 
L 36.405281 79.84678 
L 36.691781 79.334313 
L 37.049906 77.855949 
L 37.551281 76.065504 
L 37.694531 76.056227 
L 38.088469 76.291846 
L 38.267531 76.005617 
L 38.983781 74.481596 
L 39.198656 74.301328 
L 39.449344 73.516966 
L 40.093969 71.607878 
L 40.344656 71.529575 
L 40.523719 71.312302 
L 40.774406 70.410287 
L 42.278531 63.812782 
L 43.066406 62.334869 
L 43.352906 61.734649 
L 43.782656 60.242612 
L 44.892844 56.11682 
L 45.250969 55.705398 
L 46.396969 55.055055 
L 46.683469 54.662744 
L 47.184844 53.725773 
L 47.865281 53.022163 
L 48.223406 51.292734 
L 49.333594 45.501464 
L 49.655906 44.952548 
L 49.942406 44.457273 
L 50.228906 43.340677 
L 50.766094 40.021624 
L 51.195844 37.928454 
L 51.518156 37.309071 
L 51.983719 36.607286 
L 52.234406 35.747323 
L 52.664156 33.218035 
L 53.093906 31.009314 
L 53.380406 30.525114 
L 53.631094 30.481125 
L 53.738531 30.499384 
L 53.845969 32.705777 
L 54.777094 61.119175 
L 55.242656 67.146325 
L 55.744031 70.898274 
L 56.066344 72.018118 
L 56.317031 72.194355 
L 56.710969 72.12983 
L 56.997469 71.878696 
L 57.749531 70.248643 
L 58.036031 68.958591 
L 58.609031 64.846628 
L 59.432719 58.833342 
L 59.898281 53.717955 
L 60.614531 46.109424 
L 61.080094 42.927049 
L 61.366594 42.249664 
L 61.581469 42.193965 
L 61.832156 42.390494 
L 62.333531 42.789164 
L 62.620031 42.556324 
L 63.264656 41.670466 
L 63.873469 39.796993 
L 65.664094 32.061054 
L 66.881719 26.308319 
L 67.275656 24.995698 
L 67.633781 24.519603 
L 67.884469 24.209964 
L 68.278406 23.054096 
L 68.958844 20.590071 
L 69.030469 20.714926 
L 69.137906 21.414835 
L 70.033219 33.117242 
L 71.035969 41.506694 
L 71.394094 43.261967 
L 71.608969 43.577609 
L 71.788031 43.490489 
L 72.396844 42.913167 
L 72.647531 43.12945 
L 73.005656 43.660593 
L 73.399594 44.65044 
L 75.154406 49.541814 
L 76.443656 51.140194 
L 76.658531 51.22635 
L 76.873406 50.981487 
L 77.088281 50.399753 
L 78.198469 45.617407 
L 79.380281 39.773808 
L 79.666781 39.495763 
L 80.418844 39.195852 
L 80.884406 38.178077 
L 81.349969 36.501464 
L 81.564844 35.641796 
L 81.636469 35.769179 
L 81.743906 37.224506 
L 82.495969 51.632282 
L 83.176406 58.712457 
L 83.821031 63.198368 
L 84.179156 64.65095 
L 84.358219 64.7714 
L 84.537281 64.605223 
L 84.859594 64.249986 
L 85.110281 64.294289 
L 85.396781 64.375197 
L 85.540031 64.163049 
L 85.754906 63.248004 
L 86.220469 60.033643 
L 86.650219 55.843899 
L 87.760406 44.438371 
L 88.834781 36.156252 
L 89.264531 34.122039 
L 90.303094 30.809918 
L 90.768656 29.985727 
L 91.628156 29.425067 
L 91.807219 29.410143 
L 92.022094 29.107383 
L 93.024844 27.128732 
L 93.597844 25.29302 
L 94.708031 21.281181 
L 94.851281 21.08175 
L 94.887094 21.127191 
L 95.209406 21.697285 
L 95.639156 23.110751 
L 95.997281 24.025058 
L 96.140531 23.983544 
L 96.319594 23.637151 
L 96.606094 22.421561 
L 97.143281 18.800617 
L 97.322344 17.430533 
L 97.465594 51.488116 
L 97.752094 51.488116 
L 99.292031 28.295945 
L 100.151531 17.796332 
L 100.187344 17.510173 
L 100.330594 51.488116 
L 100.617094 51.488116 
L 101.619844 39.610028 
L 102.157031 35.234917 
L 102.622594 33.045759 
L 102.694219 33.165315 
L 102.837469 34.802317 
L 103.482094 43.833824 
L 103.947656 47.342014 
L 104.162531 47.828342 
L 104.305781 47.779914 
L 104.520656 47.430828 
L 105.129469 46.182932 
L 105.165281 46.202573 
L 105.523406 46.614299 
L 106.776844 48.721827 
L 107.600531 50.722188 
L 107.779594 50.776654 
L 107.958656 50.527031 
L 108.316781 49.399733 
L 108.710719 48.352779 
L 108.997219 48.156433 
L 109.677656 48.082048 
L 110.071594 47.213659 
L 110.393906 45.938052 
L 111.575719 39.722878 
L 112.112906 36.736632 
L 112.614281 32.370772 
L 113.545406 24.959127 
L 114.691406 17.448341 
L 114.834656 51.488116 
L 115.121156 51.488116 
L 115.371844 48.59196 
L 115.837406 46.329026 
L 116.016469 46.175053 
L 116.159719 46.353557 
L 116.517844 47.364765 
L 117.448969 49.885132 
L 117.699656 49.96333 
L 117.914531 49.760876 
L 118.165219 48.988763 
L 118.523344 48.058429 
L 118.738219 47.950235 
L 118.953094 48.100507 
L 119.311219 48.685847 
L 119.848406 49.572078 
L 120.313969 49.752242 
L 120.922781 50.184721 
L 121.388344 49.875351 
L 121.710656 49.232982 
L 121.997156 48.074482 
L 122.534344 44.962165 
L 123.214781 41.059049 
L 123.537094 40.309642 
L 124.145906 39.421248 
L 124.504031 37.877663 
L 125.077031 34.036197 
L 125.793281 27.191346 
L 125.864906 27.331923 
L 126.258844 29.576043 
L 126.545344 30.098499 
L 126.796031 30.163867 
L 127.046719 30.014159 
L 127.297406 29.558078 
L 127.798781 28.568553 
L 129.302906 26.953624 
L 129.553594 26.857114 
L 129.768469 26.440028 
L 130.090781 25.205753 
L 130.735406 22.675561 
L 131.093531 22.053138 
L 131.308406 21.993972 
L 131.559094 22.195245 
L 132.132094 22.826077 
L 132.561844 22.676543 
L 132.776719 22.974464 
L 133.134844 23.919383 
L 134.352469 27.495538 
L 134.495719 27.426166 
L 134.674781 26.859138 
L 135.534281 22.265555 
L 135.999844 17.655372 
L 136.143094 51.488116 
L 136.429594 51.488116 
L 136.966781 43.866834 
L 137.396531 40.2828 
L 137.468156 40.322012 
L 138.256031 45.473997 
L 139.079719 48.399167 
L 139.473656 49.219917 
L 139.616906 49.209493 
L 140.118281 48.658162 
L 140.476406 47.925295 
L 140.977781 46.948652 
L 141.335906 46.88688 
L 141.729844 46.910482 
L 141.944719 46.563325 
L 142.267031 45.481893 
L 142.625156 43.052642 
L 143.699531 34.292639 
L 144.165094 28.008596 
L 144.917156 17.834076 
L 144.952969 17.455611 
L 145.096219 51.488116 
L 145.382719 51.488116 
L 145.991531 42.338999 
L 146.385469 39.476461 
L 146.743594 38.305651 
L 147.244969 36.758461 
L 147.782156 34.774649 
L 148.104469 32.611456 
L 148.999781 26.313401 
L 149.322094 25.394143 
L 149.393719 25.527684 
L 149.465344 27.104773 
L 149.680219 40.660344 
L 150.074156 58.654881 
L 150.468094 67.830007 
L 150.897844 73.096423 
L 151.327594 75.898961 
L 151.757344 77.399686 
L 152.043844 77.77643 
L 152.187094 77.680598 
L 152.437781 77.199925 
L 152.724281 76.075251 
L 153.082406 73.749406 
L 154.443281 63.187162 
L 154.693969 62.908612 
L 154.908844 62.978106 
L 155.266969 63.42226 
L 155.589281 63.792125 
L 155.768344 63.613212 
L 156.198094 62.58517 
L 157.057594 60.034929 
L 157.415719 59.755181 
L 157.738031 59.770678 
L 157.917094 59.727192 
L 158.131969 59.261182 
L 158.490094 57.805525 
L 159.098906 54.282368 
L 159.922594 48.05723 
L 160.603031 43.11073 
L 160.925344 42.208576 
L 161.211844 41.967136 
L 161.462531 42.03954 
L 161.820656 42.412732 
L 162.536906 43.562954 
L 163.109906 44.348619 
L 163.468031 44.578966 
L 163.718719 44.462746 
L 164.184281 43.954153 
L 164.649844 43.184611 
L 165.079594 41.753989 
L 165.401906 40.19502 
L 165.437719 40.333991 
L 165.616781 43.472829 
L 166.046531 49.812424 
L 166.368844 51.986406 
L 166.619531 52.57443 
L 166.726969 52.483514 
L 166.941844 51.819672 
L 167.693906 48.693787 
L 168.231094 45.512288 
L 169.090594 40.253917 
L 169.412906 39.435207 
L 169.627781 39.351719 
L 169.950094 39.542436 
L 170.164969 39.571337 
L 170.451469 39.249953 
L 170.773781 39.029822 
L 170.952844 39.101401 
L 171.275156 39.61868 
L 171.669094 40.65296 
L 172.027219 41.39566 
L 172.206281 41.454678 
L 172.671844 41.247412 
L 172.671844 41.247412 
" clip-path="url(#pf3111a9108)" style="fill: none; stroke: #1a1a1a; stroke-width: 0.8; stroke-linejoin: miter"/>
   </g>
   <g id="line2d_10">
    <path d="M 29.457656 17.3304 
L 172.707656 17.3304 
" clip-path="url(#pf3111a9108)" style="fill: none; stroke-dasharray: 1.85,0.8; stroke-dashoffset: 0; stroke: #bbbbbb; stroke-width: 0.5"/>
   </g>
   <g id="patch_3">
    <path d="M 29.457656 83.065078 
L 29.457656 14.305078 
" style="fill: none; stroke: #1a1a1a; stroke-width: 0.8; stroke-linejoin: miter; stroke-linecap: square"/>
   </g>
   <g id="patch_4">
    <path d="M 172.707656 83.065078 
L 172.707656 14.305078 
" style="fill: none; stroke: #1a1a1a; stroke-width: 0.8; stroke-linejoin: miter; stroke-linecap: square"/>
   </g>
   <g id="patch_5">
    <path d="M 29.457656 83.065078 
L 172.707656 83.065078 
" style="fill: none; stroke: #1a1a1a; stroke-width: 0.8; stroke-linejoin: miter; stroke-linecap: square"/>
   </g>
   <g id="patch_6">
    <path d="M 29.457656 14.305078 
L 172.707656 14.305078 
" style="fill: none; stroke: #1a1a1a; stroke-width: 0.8; stroke-linejoin: miter; stroke-linecap: square"/>
   </g>
   <g id="text_11">
    <!-- PING — recurrent loop active (ei-strength = 1.5) — E-neuron membrane voltage -->
    <g style="fill: #1a1a1a" transform="translate(29.457656 8.305078) scale(0.085 -0.085)">
     <defs>
      <path id="Menlo-Regular-50" d="M 1247 4147 
L 1247 2394 
L 1978 2394 
Q 2416 2394 2661 2625 
Q 2906 2856 2906 3272 
Q 2906 3688 2662 3917 
Q 2419 4147 1978 4147 
L 1247 4147 
z
M 616 4666 
L 1978 4666 
Q 2759 4666 3162 4311 
Q 3566 3956 3566 3272 
Q 3566 2581 3164 2228 
Q 2763 1875 1978 1875 
L 1247 1875 
L 1247 0 
L 616 0 
L 616 4666 
z
" transform="scale(0.015625)"/>
      <path id="Menlo-Regular-49" d="M 628 4666 
L 3219 4666 
L 3219 4134 
L 2241 4134 
L 2241 531 
L 3219 531 
L 3219 0 
L 628 0 
L 628 531 
L 1606 531 
L 1606 4134 
L 628 4134 
L 628 4666 
z
" transform="scale(0.015625)"/>
      <path id="Menlo-Regular-4e" d="M 59 4650 
L 922 4650 
L 2747 822 
L 2747 4650 
L 3419 4650 
L 3419 0 
L 2556 0 
L 731 3828 
L 731 0 
L 59 0 
L 59 4650 
z
" transform="scale(0.015625)"/>
      <path id="Menlo-Regular-47" d="M 3450 384 
Q 3197 150 2880 29 
Q 2563 -91 2194 -91 
Q 1306 -91 812 545 
Q 319 1181 319 2328 
Q 319 3472 819 4111 
Q 1319 4750 2209 4750 
Q 2503 4750 2772 4667 
Q 3041 4584 3291 4416 
L 3291 3769 
Q 3038 4009 2772 4123 
Q 2506 4238 2209 4238 
Q 1594 4238 1286 3761 
Q 978 3284 978 2328 
Q 978 1356 1276 889 
Q 1575 422 2194 422 
Q 2403 422 2561 470 
Q 2719 519 2847 622 
L 2847 1875 
L 2169 1875 
L 2169 2394 
L 3450 2394 
L 3450 384 
z
" transform="scale(0.015625)"/>
      <path id="Menlo-Regular-2014" d="M 0 2259 
L 3853 2259 
L 3853 1725 
L 0 1725 
L 0 2259 
z
" transform="scale(0.015625)"/>
      <path id="Menlo-Regular-63" d="M 3316 178 
Q 3084 44 2839 -23 
Q 2594 -91 2338 -91 
Q 1525 -91 1067 396 
Q 609 884 609 1747 
Q 609 2609 1067 3096 
Q 1525 3584 2338 3584 
Q 2591 3584 2831 3518 
Q 3072 3453 3316 3316 
L 3316 2713 
Q 3088 2916 2858 3006 
Q 2628 3097 2338 3097 
Q 1797 3097 1506 2747 
Q 1216 2397 1216 1747 
Q 1216 1100 1508 748 
Q 1800 397 2338 397 
Q 2638 397 2875 489 
Q 3113 581 3316 775 
L 3316 178 
z
" transform="scale(0.015625)"/>
      <path id="Menlo-Regular-6c" d="M 2247 1266 
Q 2247 878 2389 681 
Q 2531 484 2809 484 
L 3481 484 
L 3481 0 
L 2753 0 
Q 2238 0 1955 329 
Q 1672 659 1672 1266 
L 1672 4431 
L 750 4431 
L 750 4881 
L 2247 4881 
L 2247 1266 
z
" transform="scale(0.015625)"/>
      <path id="Menlo-Regular-70" d="M 1172 441 
L 1172 -1331 
L 594 -1331 
L 594 3500 
L 1172 3500 
L 1172 3053 
Q 1316 3313 1555 3448 
Q 1794 3584 2106 3584 
Q 2741 3584 3102 3093 
Q 3463 2603 3463 1734 
Q 3463 881 3100 395 
Q 2738 -91 2106 -91 
Q 1788 -91 1548 45 
Q 1309 181 1172 441 
z
M 2859 1747 
Q 2859 2416 2648 2756 
Q 2438 3097 2022 3097 
Q 1603 3097 1387 2755 
Q 1172 2413 1172 1747 
Q 1172 1084 1387 740 
Q 1603 397 2022 397 
Q 2438 397 2648 737 
Q 2859 1078 2859 1747 
z
" transform="scale(0.015625)"/>
      <path id="Menlo-Regular-61" d="M 2194 1759 
L 2003 1759 
Q 1500 1759 1245 1582 
Q 991 1406 991 1056 
Q 991 741 1181 566 
Q 1372 391 1709 391 
Q 2184 391 2456 720 
Q 2728 1050 2731 1631 
L 2731 1759 
L 2194 1759 
z
M 3309 1997 
L 3309 0 
L 2731 0 
L 2731 519 
Q 2547 206 2267 57 
Q 1988 -91 1588 -91 
Q 1053 -91 734 211 
Q 416 513 416 1019 
Q 416 1603 808 1906 
Q 1200 2209 1959 2209 
L 2731 2209 
L 2731 2300 
Q 2728 2719 2518 2908 
Q 2309 3097 1850 3097 
Q 1556 3097 1256 3012 
Q 956 2928 672 2766 
L 672 3341 
Q 991 3463 1283 3523 
Q 1575 3584 1850 3584 
Q 2284 3584 2592 3456 
Q 2900 3328 3091 3072 
Q 3209 2916 3259 2686 
Q 3309 2456 3309 1997 
z
" transform="scale(0.015625)"/>
      <path id="Menlo-Regular-76" d="M 313 3500 
L 909 3500 
L 1925 563 
L 2944 3500 
L 3541 3500 
L 2297 0 
L 1556 0 
L 313 3500 
z
" transform="scale(0.015625)"/>
      <path id="Menlo-Regular-2d" d="M 319 2263 
L 3631 2263 
L 3631 1734 
L 319 1734 
L 319 2263 
z
" transform="scale(0.015625)"/>
      <path id="Menlo-Regular-67" d="M 2681 1778 
Q 2681 2425 2470 2761 
Q 2259 3097 1856 3097 
Q 1434 3097 1212 2761 
Q 991 2425 991 1778 
Q 991 1131 1214 792 
Q 1438 453 1863 453 
Q 2259 453 2470 793 
Q 2681 1134 2681 1778 
z
M 3256 225 
Q 3256 -563 2884 -969 
Q 2513 -1375 1791 -1375 
Q 1553 -1375 1293 -1331 
Q 1034 -1288 775 -1203 
L 775 -634 
Q 1081 -778 1331 -847 
Q 1581 -916 1791 -916 
Q 2256 -916 2468 -662 
Q 2681 -409 2681 141 
L 2681 166 
L 2681 556 
Q 2544 263 2306 119 
Q 2069 -25 1728 -25 
Q 1116 -25 750 465 
Q 384 956 384 1778 
Q 384 2603 750 3093 
Q 1116 3584 1728 3584 
Q 2066 3584 2300 3450 
Q 2534 3316 2681 3034 
L 2681 3488 
L 3256 3488 
L 3256 225 
z
" transform="scale(0.015625)"/>
      <path id="Menlo-Regular-68" d="M 3284 2169 
L 3284 0 
L 2706 0 
L 2706 2169 
Q 2706 2641 2540 2862 
Q 2375 3084 2022 3084 
Q 1619 3084 1401 2798 
Q 1184 2513 1184 1978 
L 1184 0 
L 609 0 
L 609 4863 
L 1184 4863 
L 1184 2975 
Q 1338 3275 1600 3429 
Q 1863 3584 2222 3584 
Q 2756 3584 3020 3232 
Q 3284 2881 3284 2169 
z
" transform="scale(0.015625)"/>
      <path id="Menlo-Regular-3d" d="M 275 1563 
L 3578 1563 
L 3578 1034 
L 275 1034 
L 275 1563 
z
M 275 3034 
L 3578 3034 
L 3578 2506 
L 275 2506 
L 275 3034 
z
" transform="scale(0.015625)"/>
      <path id="Menlo-Regular-2e" d="M 1216 1263 
L 2316 1263 
L 2316 0 
L 1216 0 
L 1216 1263 
z
" transform="scale(0.015625)"/>
      <path id="Menlo-Regular-62" d="M 2869 1747 
Q 2869 2416 2656 2756 
Q 2444 3097 2028 3097 
Q 1609 3097 1393 2755 
Q 1178 2413 1178 1747 
Q 1178 1084 1393 740 
Q 1609 397 2028 397 
Q 2444 397 2656 737 
Q 2869 1078 2869 1747 
z
M 1178 3053 
Q 1316 3309 1558 3446 
Q 1800 3584 2119 3584 
Q 2750 3584 3112 3098 
Q 3475 2613 3475 1759 
Q 3475 894 3111 401 
Q 2747 -91 2113 -91 
Q 1800 -91 1561 45 
Q 1322 181 1178 441 
L 1178 0 
L 603 0 
L 603 4863 
L 1178 4863 
L 1178 3053 
z
" transform="scale(0.015625)"/>
     </defs>
     <use xlink:href="#Menlo-Regular-50"/>
     <use xlink:href="#Menlo-Regular-49" transform="translate(60.205078 0)"/>
     <use xlink:href="#Menlo-Regular-4e" transform="translate(120.410156 0)"/>
     <use xlink:href="#Menlo-Regular-47" transform="translate(180.615234 0)"/>
     <use xlink:href="#Menlo-Regular-20" transform="translate(240.820312 0)"/>
     <use xlink:href="#Menlo-Regular-2014" transform="translate(301.025391 0)"/>
     <use xlink:href="#Menlo-Regular-20" transform="translate(361.230469 0)"/>
     <use xlink:href="#Menlo-Regular-72" transform="translate(421.435547 0)"/>
     <use xlink:href="#Menlo-Regular-65" transform="translate(481.640625 0)"/>
     <use xlink:href="#Menlo-Regular-63" transform="translate(541.845703 0)"/>
     <use xlink:href="#Menlo-Regular-75" transform="translate(602.050781 0)"/>
     <use xlink:href="#Menlo-Regular-72" transform="translate(662.255859 0)"/>
     <use xlink:href="#Menlo-Regular-72" transform="translate(722.460938 0)"/>
     <use xlink:href="#Menlo-Regular-65" transform="translate(782.666016 0)"/>
     <use xlink:href="#Menlo-Regular-6e" transform="translate(842.871094 0)"/>
     <use xlink:href="#Menlo-Regular-74" transform="translate(903.076172 0)"/>
     <use xlink:href="#Menlo-Regular-20" transform="translate(963.28125 0)"/>
     <use xlink:href="#Menlo-Regular-6c" transform="translate(1023.486328 0)"/>
     <use xlink:href="#Menlo-Regular-6f" transform="translate(1083.691406 0)"/>
     <use xlink:href="#Menlo-Regular-6f" transform="translate(1143.896484 0)"/>
     <use xlink:href="#Menlo-Regular-70" transform="translate(1204.101562 0)"/>
     <use xlink:href="#Menlo-Regular-20" transform="translate(1264.306641 0)"/>
     <use xlink:href="#Menlo-Regular-61" transform="translate(1324.511719 0)"/>
     <use xlink:href="#Menlo-Regular-63" transform="translate(1384.716797 0)"/>
     <use xlink:href="#Menlo-Regular-74" transform="translate(1444.921875 0)"/>
     <use xlink:href="#Menlo-Regular-69" transform="translate(1505.126953 0)"/>
     <use xlink:href="#Menlo-Regular-76" transform="translate(1565.332031 0)"/>
     <use xlink:href="#Menlo-Regular-65" transform="translate(1625.537109 0)"/>
     <use xlink:href="#Menlo-Regular-20" transform="translate(1685.742188 0)"/>
     <use xlink:href="#Menlo-Regular-28" transform="translate(1745.947266 0)"/>
     <use xlink:href="#Menlo-Regular-65" transform="translate(1806.152344 0)"/>
     <use xlink:href="#Menlo-Regular-69" transform="translate(1866.357422 0)"/>
     <use xlink:href="#Menlo-Regular-2d" transform="translate(1926.5625 0)"/>
     <use xlink:href="#Menlo-Regular-73" transform="translate(1986.767578 0)"/>
     <use xlink:href="#Menlo-Regular-74" transform="translate(2046.972656 0)"/>
     <use xlink:href="#Menlo-Regular-72" transform="translate(2107.177734 0)"/>
     <use xlink:href="#Menlo-Regular-65" transform="translate(2167.382812 0)"/>
     <use xlink:href="#Menlo-Regular-6e" transform="translate(2227.587891 0)"/>
     <use xlink:href="#Menlo-Regular-67" transform="translate(2287.792969 0)"/>
     <use xlink:href="#Menlo-Regular-74" transform="translate(2347.998047 0)"/>
     <use xlink:href="#Menlo-Regular-68" transform="translate(2408.203125 0)"/>
     <use xlink:href="#Menlo-Regular-20" transform="translate(2468.408203 0)"/>
     <use xlink:href="#Menlo-Regular-3d" transform="translate(2528.613281 0)"/>
     <use xlink:href="#Menlo-Regular-20" transform="translate(2588.818359 0)"/>
     <use xlink:href="#Menlo-Regular-31" transform="translate(2649.023438 0)"/>
     <use xlink:href="#Menlo-Regular-2e" transform="translate(2709.228516 0)"/>
     <use xlink:href="#Menlo-Regular-35" transform="translate(2769.433594 0)"/>
     <use xlink:href="#Menlo-Regular-29" transform="translate(2829.638672 0)"/>
     <use xlink:href="#Menlo-Regular-20" transform="translate(2889.84375 0)"/>
     <use xlink:href="#Menlo-Regular-2014" transform="translate(2950.048828 0)"/>
     <use xlink:href="#Menlo-Regular-20" transform="translate(3010.253906 0)"/>
     <use xlink:href="#Menlo-Regular-45" transform="translate(3070.458984 0)"/>
     <use xlink:href="#Menlo-Regular-2d" transform="translate(3130.664062 0)"/>
     <use xlink:href="#Menlo-Regular-6e" transform="translate(3190.869141 0)"/>
     <use xlink:href="#Menlo-Regular-65" transform="translate(3251.074219 0)"/>
     <use xlink:href="#Menlo-Regular-75" transform="translate(3311.279297 0)"/>
     <use xlink:href="#Menlo-Regular-72" transform="translate(3371.484375 0)"/>
     <use xlink:href="#Menlo-Regular-6f" transform="translate(3431.689453 0)"/>
     <use xlink:href="#Menlo-Regular-6e" transform="translate(3491.894531 0)"/>
     <use xlink:href="#Menlo-Regular-20" transform="translate(3552.099609 0)"/>
     <use xlink:href="#Menlo-Regular-6d" transform="translate(3612.304688 0)"/>
     <use xlink:href="#Menlo-Regular-65" transform="translate(3672.509766 0)"/>
     <use xlink:href="#Menlo-Regular-6d" transform="translate(3732.714844 0)"/>
     <use xlink:href="#Menlo-Regular-62" transform="translate(3792.919922 0)"/>
     <use xlink:href="#Menlo-Regular-72" transform="translate(3853.125 0)"/>
     <use xlink:href="#Menlo-Regular-61" transform="translate(3913.330078 0)"/>
     <use xlink:href="#Menlo-Regular-6e" transform="translate(3973.535156 0)"/>
     <use xlink:href="#Menlo-Regular-65" transform="translate(4033.740234 0)"/>
     <use xlink:href="#Menlo-Regular-20" transform="translate(4093.945312 0)"/>
     <use xlink:href="#Menlo-Regular-76" transform="translate(4154.150391 0)"/>
     <use xlink:href="#Menlo-Regular-6f" transform="translate(4214.355469 0)"/>
     <use xlink:href="#Menlo-Regular-6c" transform="translate(4274.560547 0)"/>
     <use xlink:href="#Menlo-Regular-74" transform="translate(4334.765625 0)"/>
     <use xlink:href="#Menlo-Regular-61" transform="translate(4394.970703 0)"/>
     <use xlink:href="#Menlo-Regular-67" transform="translate(4455.175781 0)"/>
     <use xlink:href="#Menlo-Regular-65" transform="translate(4515.380859 0)"/>
    </g>
   </g>
   <g id="legend_1">
    <g id="patch_7">
     <path d="M 129.950781 40.493828 
L 169.207656 40.493828 
L 169.207656 17.805078 
L 129.950781 17.805078 
z
" style="fill: #ffffff; stroke: #1a1a1a; stroke-width: 0.8; stroke-linejoin: miter"/>
    </g>
    <g id="line2d_11">
     <path d="M 132.750781 23.493672 
L 138.350781 23.493672 
L 143.950781 23.493672 
" style="fill: none; stroke: #1a1a1a; stroke-width: 0.8; stroke-linejoin: miter"/>
    </g>
    <g id="text_12">
     <!-- V_E -->
     <g style="fill: #1a1a1a" transform="translate(149.550781 25.943672) scale(0.07 -0.07)">
      <use xlink:href="#Menlo-Regular-56"/>
      <use xlink:href="#Menlo-Regular-5f" transform="translate(60.205078 0)"/>
      <use xlink:href="#Menlo-Regular-45" transform="translate(120.410156 0)"/>
     </g>
    </g>
    <g id="line2d_12">
     <path d="M 132.750781 33.788047 
L 138.350781 33.788047 
L 143.950781 33.788047 
" style="fill: none; stroke-dasharray: 1.85,0.8; stroke-dashoffset: 0; stroke: #bbbbbb; stroke-width: 0.5"/>
    </g>
    <g id="text_13">
     <!-- V_th -->
     <g style="fill: #1a1a1a" transform="translate(149.550781 36.238047) scale(0.07 -0.07)">
      <use xlink:href="#Menlo-Regular-56"/>
      <use xlink:href="#Menlo-Regular-5f" transform="translate(60.205078 0)"/>
      <use xlink:href="#Menlo-Regular-74" transform="translate(120.410156 0)"/>
      <use xlink:href="#Menlo-Regular-68" transform="translate(180.615234 0)"/>
     </g>
    </g>
   </g>
  </g>
 </g>
 <defs>
  <clipPath id="pf3111a9108">
   <rect x="29.457656" y="14.305078" width="143.25" height="68.76"/>
  </clipPath>
 </defs>
</svg>
