<?xml version="1.0" encoding="utf-8" standalone="no"?>
<!DOCTYPE svg PUBLIC "-//W3C//DTD SVG 1.1//EN"
  "http://www.w3.org/Graphics/SVG/1.1/DTD/svg11.dtd">
<svg xmlns:xlink="http://www.w3.org/1999/xlink" width="429.453828pt" height="106.564453pt" viewBox="0 0 429.453828 106.564453" xmlns="http://www.w3.org/2000/svg" version="1.1">
 <metadata>
  <rdf:RDF xmlns:dc="http://purl.org/dc/elements/1.1/" xmlns:cc="http://creativecommons.org/ns#" xmlns:rdf="http://www.w3.org/1999/02/22-rdf-syntax-ns#">
   <cc:Work>
    <dc:type rdf:resource="http://purl.org/dc/dcmitype/StillImage"/>
    <dc:date>2026-07-02T13:38:52.321645</dc:date>
    <dc:format>image/svg+xml</dc:format>
    <dc:creator>
     <cc:Agent>
      <dc:title>Matplotlib v3.10.8, https://matplotlib.org/</dc:title>
     </cc:Agent>
    </dc:creator>
   </cc:Work>
  </rdf:RDF>
 </metadata>
 <defs>
  <style type="text/css">*{stroke-linejoin: round; stroke-linecap: butt}</style>
 </defs>
 <g id="figure_1">
  <g id="patch_1">
   <path d="M 0 106.564453 
L 429.453828 106.564453 
L 429.453828 0 
L 0 0 
z
" style="fill: #ffffff"/>
  </g>
  <g id="axes_1">
   <g id="patch_2">
    <path d="M 33.984375 83.065078 
L 170.439375 83.065078 
L 170.439375 14.305078 
L 33.984375 14.305078 
z
" style="fill: #ffffff"/>
   </g>
   <g id="matplotlib.axis_1">
    <g id="xtick_1">
     <g id="line2d_1">
      <defs>
       <path id="m0ce55482b9" d="M 0 0 
L 0 -3 
" style="stroke: #1a1a1a; stroke-width: 0.8"/>
      </defs>
      <g>
       <use xlink:href="#m0ce55482b9" x="33.984375" y="83.065078" style="fill: #1a1a1a; stroke: #1a1a1a; stroke-width: 0.8"/>
      </g>
     </g>
     <g id="text_1">
      <!-- 0 -->
      <g style="fill: #1a1a1a" transform="translate(31.877266 91.903672) scale(0.07 -0.07)">
       <defs>
        <path id="Menlo-Regular-30" d="M 1925 4734 
Q 2672 4734 3055 4125 
Q 3438 3516 3438 2322 
Q 3438 1128 3055 518 
Q 2672 -91 1925 -91 
Q 1178 -91 797 518 
Q 416 1128 416 2322 
Q 416 3516 797 4125 
Q 1178 4734 1925 4734 
z
M 1925 409 
Q 2369 409 2586 881 
Q 2803 1353 2803 2322 
Q 2803 2838 2741 3253 
L 1253 925 
Q 1488 409 1925 409 
z
M 1925 4234 
Q 1484 4234 1267 3762 
Q 1050 3291 1050 2322 
Q 1050 1881 1109 1497 
L 2566 3819 
Q 2328 4234 1925 4234 
z
" transform="scale(0.015625)"/>
       </defs>
       <use xlink:href="#Menlo-Regular-30"/>
      </g>
     </g>
    </g>
    <g id="xtick_2">
     <g id="line2d_2">
      <g>
       <use xlink:href="#m0ce55482b9" x="68.098124" y="83.065078" style="fill: #1a1a1a; stroke: #1a1a1a; stroke-width: 0.8"/>
      </g>
     </g>
     <g id="text_2">
      <!-- 100 -->
      <g style="fill: #1a1a1a" transform="translate(61.776796 91.903672) scale(0.07 -0.07)">
       <defs>
        <path id="Menlo-Regular-31" d="M 844 528 
L 1825 528 
L 1825 4053 
L 650 3488 
L 650 4094 
L 1819 4650 
L 2450 4650 
L 2450 528 
L 3419 528 
L 3419 0 
L 844 0 
L 844 528 
z
" transform="scale(0.015625)"/>
       </defs>
       <use xlink:href="#Menlo-Regular-31"/>
       <use xlink:href="#Menlo-Regular-30" transform="translate(60.205078 0)"/>
       <use xlink:href="#Menlo-Regular-30" transform="translate(120.410156 0)"/>
      </g>
     </g>
    </g>
    <g id="xtick_3">
     <g id="line2d_3">
      <g>
       <use xlink:href="#m0ce55482b9" x="102.211874" y="83.065078" style="fill: #1a1a1a; stroke: #1a1a1a; stroke-width: 0.8"/>
      </g>
     </g>
     <g id="text_3">
      <!-- 200 -->
      <g style="fill: #1a1a1a" transform="translate(95.890546 91.903672) scale(0.07 -0.07)">
       <defs>
        <path id="Menlo-Regular-32" d="M 1166 531 
L 3309 531 
L 3309 0 
L 475 0 
L 475 531 
Q 1059 1147 1496 1619 
Q 1934 2091 2100 2284 
Q 2413 2666 2522 2902 
Q 2631 3138 2631 3384 
Q 2631 3775 2401 3997 
Q 2172 4219 1772 4219 
Q 1488 4219 1175 4116 
Q 863 4013 513 3803 
L 513 4441 
Q 834 4594 1145 4672 
Q 1456 4750 1759 4750 
Q 2444 4750 2861 4386 
Q 3278 4022 3278 3431 
Q 3278 3131 3139 2831 
Q 3000 2531 2688 2169 
Q 2513 1966 2180 1606 
Q 1847 1247 1166 531 
z
" transform="scale(0.015625)"/>
       </defs>
       <use xlink:href="#Menlo-Regular-32"/>
       <use xlink:href="#Menlo-Regular-30" transform="translate(60.205078 0)"/>
       <use xlink:href="#Menlo-Regular-30" transform="translate(120.410156 0)"/>
      </g>
     </g>
    </g>
    <g id="xtick_4">
     <g id="line2d_4">
      <g>
       <use xlink:href="#m0ce55482b9" x="136.325623" y="83.065078" style="fill: #1a1a1a; stroke: #1a1a1a; stroke-width: 0.8"/>
      </g>
     </g>
     <g id="text_4">
      <!-- 300 -->
      <g style="fill: #1a1a1a" transform="translate(130.004295 91.903672) scale(0.07 -0.07)">
       <defs>
        <path id="Menlo-Regular-33" d="M 2425 2497 
Q 2884 2375 3128 2064 
Q 3372 1753 3372 1288 
Q 3372 644 2939 276 
Q 2506 -91 1741 -91 
Q 1419 -91 1084 -31 
Q 750 28 428 141 
L 428 769 
Q 747 603 1056 522 
Q 1366 441 1672 441 
Q 2191 441 2469 675 
Q 2747 909 2747 1350 
Q 2747 1756 2469 1995 
Q 2191 2234 1716 2234 
L 1234 2234 
L 1234 2753 
L 1716 2753 
Q 2150 2753 2394 2943 
Q 2638 3134 2638 3475 
Q 2638 3834 2411 4026 
Q 2184 4219 1766 4219 
Q 1488 4219 1191 4156 
Q 894 4094 569 3969 
L 569 4550 
Q 947 4650 1242 4700 
Q 1538 4750 1766 4750 
Q 2447 4750 2855 4408 
Q 3263 4066 3263 3500 
Q 3263 3116 3048 2859 
Q 2834 2603 2425 2497 
z
" transform="scale(0.015625)"/>
       </defs>
       <use xlink:href="#Menlo-Regular-33"/>
       <use xlink:href="#Menlo-Regular-30" transform="translate(60.205078 0)"/>
       <use xlink:href="#Menlo-Regular-30" transform="translate(120.410156 0)"/>
      </g>
     </g>
    </g>
    <g id="xtick_5">
     <g id="line2d_5">
      <g>
       <use xlink:href="#m0ce55482b9" x="170.439373" y="83.065078" style="fill: #1a1a1a; stroke: #1a1a1a; stroke-width: 0.8"/>
      </g>
     </g>
     <g id="text_5">
      <!-- 400 -->
      <g style="fill: #1a1a1a" transform="translate(164.118045 91.903672) scale(0.07 -0.07)">
       <defs>
        <path id="Menlo-Regular-34" d="M 2297 4091 
L 825 1625 
L 2297 1625 
L 2297 4091 
z
M 2194 4666 
L 2925 4666 
L 2925 1625 
L 3547 1625 
L 3547 1113 
L 2925 1113 
L 2925 0 
L 2297 0 
L 2297 1113 
L 319 1113 
L 319 1709 
L 2194 4666 
z
" transform="scale(0.015625)"/>
       </defs>
       <use xlink:href="#Menlo-Regular-34"/>
       <use xlink:href="#Menlo-Regular-30" transform="translate(60.205078 0)"/>
       <use xlink:href="#Menlo-Regular-30" transform="translate(120.410156 0)"/>
      </g>
     </g>
    </g>
    <g id="text_6">
     <!-- time (ms) -->
     <g style="fill: #1a1a1a" transform="translate(80.53875 103.460703) scale(0.08 -0.08)">
      <defs>
       <path id="Menlo-Regular-74" d="M 1919 4494 
L 1919 3500 
L 3225 3500 
L 3225 3053 
L 1919 3053 
L 1919 1153 
Q 1919 766 2066 612 
Q 2213 459 2578 459 
L 3225 459 
L 3225 0 
L 2522 0 
Q 1875 0 1609 259 
Q 1344 519 1344 1153 
L 1344 3053 
L 409 3053 
L 409 3500 
L 1344 3500 
L 1344 4494 
L 1919 4494 
z
" transform="scale(0.015625)"/>
       <path id="Menlo-Regular-69" d="M 988 3488 
L 2459 3488 
L 2459 447 
L 3600 447 
L 3600 0 
L 744 0 
L 744 447 
L 1884 447 
L 1884 3041 
L 988 3041 
L 988 3488 
z
M 1884 4847 
L 2459 4847 
L 2459 4122 
L 1884 4122 
L 1884 4847 
z
" transform="scale(0.015625)"/>
       <path id="Menlo-Regular-6d" d="M 2113 3144 
Q 2219 3369 2383 3476 
Q 2547 3584 2778 3584 
Q 3200 3584 3373 3257 
Q 3547 2931 3547 2028 
L 3547 0 
L 3022 0 
L 3022 2003 
Q 3022 2744 2939 2923 
Q 2856 3103 2638 3103 
Q 2388 3103 2295 2911 
Q 2203 2719 2203 2003 
L 2203 0 
L 1678 0 
L 1678 2003 
Q 1678 2753 1589 2928 
Q 1500 3103 1269 3103 
Q 1041 3103 952 2911 
Q 863 2719 863 2003 
L 863 0 
L 341 0 
L 341 3500 
L 863 3500 
L 863 3200 
Q 966 3388 1120 3486 
Q 1275 3584 1472 3584 
Q 1709 3584 1867 3475 
Q 2025 3366 2113 3144 
z
" transform="scale(0.015625)"/>
       <path id="Menlo-Regular-65" d="M 3500 2038 
L 3500 1756 
L 1009 1756 
L 1009 1738 
Q 984 1022 1282 709 
Q 1581 397 2125 397 
Q 2400 397 2700 484 
Q 3000 572 3341 750 
L 3341 178 
Q 3013 44 2708 -23 
Q 2403 -91 2119 -91 
Q 1303 -91 843 398 
Q 384 888 384 1747 
Q 384 2584 834 3084 
Q 1284 3584 2034 3584 
Q 2703 3584 3089 3131 
Q 3475 2678 3500 2038 
z
M 2925 2206 
Q 2888 2569 2661 2833 
Q 2434 3097 2009 3097 
Q 1594 3097 1325 2822 
Q 1056 2547 1031 2203 
L 2925 2206 
z
" transform="scale(0.015625)"/>
       <path id="Menlo-Regular-20" transform="scale(0.015625)"/>
       <path id="Menlo-Regular-28" d="M 2672 5169 
Q 2256 4456 2051 3748 
Q 1847 3041 1847 2322 
Q 1847 1606 2051 897 
Q 2256 188 2672 -531 
L 2172 -531 
Q 1700 213 1469 917 
Q 1238 1622 1238 2322 
Q 1238 3019 1469 3725 
Q 1700 4431 2172 5169 
L 2672 5169 
z
" transform="scale(0.015625)"/>
       <path id="Menlo-Regular-73" d="M 3041 3378 
L 3041 2816 
Q 2794 2959 2544 3031 
Q 2294 3103 2034 3103 
Q 1644 3103 1451 2976 
Q 1259 2850 1259 2591 
Q 1259 2356 1403 2240 
Q 1547 2125 2119 2016 
L 2350 1972 
Q 2778 1891 2998 1647 
Q 3219 1403 3219 1013 
Q 3219 494 2850 201 
Q 2481 -91 1825 -91 
Q 1566 -91 1281 -36 
Q 997 19 666 128 
L 666 722 
Q 988 556 1281 473 
Q 1575 391 1838 391 
Q 2219 391 2428 545 
Q 2638 700 2638 978 
Q 2638 1378 1872 1531 
L 1847 1538 
L 1631 1581 
Q 1134 1678 906 1908 
Q 678 2138 678 2534 
Q 678 3038 1018 3311 
Q 1359 3584 1991 3584 
Q 2272 3584 2531 3532 
Q 2791 3481 3041 3378 
z
" transform="scale(0.015625)"/>
       <path id="Menlo-Regular-29" d="M 1088 5169 
L 1588 5169 
Q 2059 4431 2290 3725 
Q 2522 3019 2522 2322 
Q 2522 1619 2290 912 
Q 2059 206 1588 -531 
L 1088 -531 
Q 1503 194 1708 903 
Q 1913 1613 1913 2322 
Q 1913 3034 1708 3743 
Q 1503 4453 1088 5169 
z
" transform="scale(0.015625)"/>
      </defs>
      <use xlink:href="#Menlo-Regular-74"/>
      <use xlink:href="#Menlo-Regular-69" transform="translate(60.205078 0)"/>
      <use xlink:href="#Menlo-Regular-6d" transform="translate(120.410156 0)"/>
      <use xlink:href="#Menlo-Regular-65" transform="translate(180.615234 0)"/>
      <use xlink:href="#Menlo-Regular-20" transform="translate(240.820312 0)"/>
      <use xlink:href="#Menlo-Regular-28" transform="translate(301.025391 0)"/>
      <use xlink:href="#Menlo-Regular-6d" transform="translate(361.230469 0)"/>
      <use xlink:href="#Menlo-Regular-73" transform="translate(421.435547 0)"/>
      <use xlink:href="#Menlo-Regular-29" transform="translate(481.640625 0)"/>
     </g>
    </g>
   </g>
   <g id="matplotlib.axis_2">
    <g id="ytick_1">
     <g id="line2d_6">
      <defs>
       <path id="m6630024271" d="M 0 0 
L 3 0 
" style="stroke: #1a1a1a; stroke-width: 0.8"/>
      </defs>
      <g>
       <use xlink:href="#m6630024271" x="33.984375" y="80.305732" style="fill: #1a1a1a; stroke: #1a1a1a; stroke-width: 0.8"/>
      </g>
     </g>
     <g id="text_7">
      <!-- 0.00 -->
      <g style="fill: #1a1a1a" transform="translate(13.6275 82.975029) scale(0.07 -0.07)">
       <defs>
        <path id="Menlo-Regular-2e" d="M 1216 1263 
L 2316 1263 
L 2316 0 
L 1216 0 
L 1216 1263 
z
" transform="scale(0.015625)"/>
       </defs>
       <use xlink:href="#Menlo-Regular-30"/>
       <use xlink:href="#Menlo-Regular-2e" transform="translate(60.205078 0)"/>
       <use xlink:href="#Menlo-Regular-30" transform="translate(120.410156 0)"/>
       <use xlink:href="#Menlo-Regular-30" transform="translate(180.615234 0)"/>
      </g>
     </g>
    </g>
    <g id="ytick_2">
     <g id="line2d_7">
      <g>
       <use xlink:href="#m6630024271" x="33.984375" y="62.437659" style="fill: #1a1a1a; stroke: #1a1a1a; stroke-width: 0.8"/>
      </g>
     </g>
     <g id="text_8">
      <!-- 0.02 -->
      <g style="fill: #1a1a1a" transform="translate(13.6275 65.106956) scale(0.07 -0.07)">
       <use xlink:href="#Menlo-Regular-30"/>
       <use xlink:href="#Menlo-Regular-2e" transform="translate(60.205078 0)"/>
       <use xlink:href="#Menlo-Regular-30" transform="translate(120.410156 0)"/>
       <use xlink:href="#Menlo-Regular-32" transform="translate(180.615234 0)"/>
      </g>
     </g>
    </g>
    <g id="ytick_3">
     <g id="line2d_8">
      <g>
       <use xlink:href="#m6630024271" x="33.984375" y="44.569587" style="fill: #1a1a1a; stroke: #1a1a1a; stroke-width: 0.8"/>
      </g>
     </g>
     <g id="text_9">
      <!-- 0.04 -->
      <g style="fill: #1a1a1a" transform="translate(13.6275 47.238884) scale(0.07 -0.07)">
       <use xlink:href="#Menlo-Regular-30"/>
       <use xlink:href="#Menlo-Regular-2e" transform="translate(60.205078 0)"/>
       <use xlink:href="#Menlo-Regular-30" transform="translate(120.410156 0)"/>
       <use xlink:href="#Menlo-Regular-34" transform="translate(180.615234 0)"/>
      </g>
     </g>
    </g>
    <g id="ytick_4">
     <g id="line2d_9">
      <g>
       <use xlink:href="#m6630024271" x="33.984375" y="26.701515" style="fill: #1a1a1a; stroke: #1a1a1a; stroke-width: 0.8"/>
      </g>
     </g>
     <g id="text_10">
      <!-- 0.06 -->
      <g style="fill: #1a1a1a" transform="translate(13.6275 29.370812) scale(0.07 -0.07)">
       <defs>
        <path id="Menlo-Regular-36" d="M 3097 4563 
L 3097 3981 
Q 2900 4097 2678 4158 
Q 2456 4219 2216 4219 
Q 1616 4219 1306 3767 
Q 997 3316 997 2438 
Q 1147 2750 1412 2917 
Q 1678 3084 2022 3084 
Q 2697 3084 3067 2670 
Q 3438 2256 3438 1497 
Q 3438 741 3056 325 
Q 2675 -91 1984 -91 
Q 1172 -91 794 492 
Q 416 1075 416 2328 
Q 416 3509 870 4129 
Q 1325 4750 2188 4750 
Q 2419 4750 2650 4701 
Q 2881 4653 3097 4563 
z
M 1972 2591 
Q 1569 2591 1337 2300 
Q 1106 2009 1106 1497 
Q 1106 984 1337 693 
Q 1569 403 1972 403 
Q 2391 403 2603 679 
Q 2816 956 2816 1497 
Q 2816 2041 2603 2316 
Q 2391 2591 1972 2591 
z
" transform="scale(0.015625)"/>
       </defs>
       <use xlink:href="#Menlo-Regular-30"/>
       <use xlink:href="#Menlo-Regular-2e" transform="translate(60.205078 0)"/>
       <use xlink:href="#Menlo-Regular-30" transform="translate(120.410156 0)"/>
       <use xlink:href="#Menlo-Regular-36" transform="translate(180.615234 0)"/>
      </g>
     </g>
    </g>
    <g id="text_11">
     <!-- g  [µS] -->
     <g style="fill: #1a1a1a" transform="translate(7.90875 65.541953) rotate(-90) scale(0.08 -0.08)">
      <defs>
       <path id="Menlo-Regular-67" d="M 2681 1778 
Q 2681 2425 2470 2761 
Q 2259 3097 1856 3097 
Q 1434 3097 1212 2761 
Q 991 2425 991 1778 
Q 991 1131 1214 792 
Q 1438 453 1863 453 
Q 2259 453 2470 793 
Q 2681 1134 2681 1778 
z
M 3256 225 
Q 3256 -563 2884 -969 
Q 2513 -1375 1791 -1375 
Q 1553 -1375 1293 -1331 
Q 1034 -1288 775 -1203 
L 775 -634 
Q 1081 -778 1331 -847 
Q 1581 -916 1791 -916 
Q 2256 -916 2468 -662 
Q 2681 -409 2681 141 
L 2681 166 
L 2681 556 
Q 2544 263 2306 119 
Q 2069 -25 1728 -25 
Q 1116 -25 750 465 
Q 384 956 384 1778 
Q 384 2603 750 3093 
Q 1116 3584 1728 3584 
Q 2066 3584 2300 3450 
Q 2534 3316 2681 3034 
L 2681 3488 
L 3256 3488 
L 3256 225 
z
" transform="scale(0.015625)"/>
       <path id="Menlo-Regular-5b" d="M 1759 5175 
L 3084 5175 
L 3084 4728 
L 2334 4728 
L 2334 -84 
L 3084 -84 
L 3084 -531 
L 1759 -531 
L 1759 5175 
z
" transform="scale(0.015625)"/>
       <path id="Menlo-Regular-b5" d="M 609 -1338 
L 609 3500 
L 1184 3500 
L 1184 1325 
Q 1184 881 1371 645 
Q 1559 409 1906 409 
Q 2303 409 2504 675 
Q 2706 941 2706 1459 
L 2706 3500 
L 3284 3500 
L 3284 800 
Q 3284 616 3334 528 
Q 3384 441 3488 441 
Q 3516 441 3561 456 
Q 3606 472 3694 513 
L 3694 50 
Q 3575 -22 3469 -56 
Q 3363 -91 3256 -91 
Q 3063 -91 2945 32 
Q 2828 156 2791 403 
Q 2647 153 2439 31 
Q 2231 -91 1953 -91 
Q 1666 -91 1467 28 
Q 1269 147 1131 397 
L 1131 -1338 
L 609 -1338 
z
" transform="scale(0.015625)"/>
       <path id="Menlo-Regular-53" d="M 3163 4506 
L 3163 3866 
Q 2875 4050 2586 4144 
Q 2297 4238 2003 4238 
Q 1556 4238 1297 4030 
Q 1038 3822 1038 3469 
Q 1038 3159 1208 2996 
Q 1378 2834 1844 2725 
L 2175 2650 
Q 2831 2497 3131 2169 
Q 3431 1841 3431 1275 
Q 3431 609 3018 259 
Q 2606 -91 1819 -91 
Q 1491 -91 1159 -20 
Q 828 50 494 191 
L 494 863 
Q 853 634 1173 528 
Q 1494 422 1819 422 
Q 2297 422 2562 636 
Q 2828 850 2828 1234 
Q 2828 1584 2645 1768 
Q 2463 1953 2009 2053 
L 1672 2131 
Q 1022 2278 728 2575 
Q 434 2872 434 3372 
Q 434 3997 854 4373 
Q 1275 4750 1972 4750 
Q 2241 4750 2537 4689 
Q 2834 4628 3163 4506 
z
" transform="scale(0.015625)"/>
       <path id="Menlo-Regular-5d" d="M 2250 5175 
L 2250 -531 
L 925 -531 
L 925 -84 
L 1675 -84 
L 1675 4728 
L 925 4728 
L 925 5175 
L 2250 5175 
z
" transform="scale(0.015625)"/>
      </defs>
      <use xlink:href="#Menlo-Regular-67"/>
      <use xlink:href="#Menlo-Regular-20" transform="translate(60.205078 0)"/>
      <use xlink:href="#Menlo-Regular-20" transform="translate(120.410156 0)"/>
      <use xlink:href="#Menlo-Regular-5b" transform="translate(180.615234 0)"/>
      <use xlink:href="#Menlo-Regular-b5" transform="translate(240.820312 0)"/>
      <use xlink:href="#Menlo-Regular-53" transform="translate(301.025391 0)"/>
      <use xlink:href="#Menlo-Regular-5d" transform="translate(361.230469 0)"/>
     </g>
    </g>
   </g>
   <g id="line2d_10">
    <path d="M 33.984375 79.75699 
L 34.530195 67.970991 
L 35.007788 50.15449 
L 35.348925 46.675359 
L 35.519494 47.090078 
L 35.553608 47.036244 
L 35.792404 51.512018 
L 36.474679 63.994596 
L 36.508793 64.047479 
L 37.12284 72.249346 
L 37.191068 71.921673 
L 37.39575 69.230304 
L 37.975684 59.473546 
L 38.078025 60.096671 
L 38.48739 65.928029 
L 38.555618 65.860423 
L 39.203779 59.383077 
L 39.237893 59.467136 
L 39.272006 59.40816 
L 39.510803 61.488038 
L 39.681371 64.359465 
L 39.715485 64.203744 
L 39.85194 62.892141 
L 39.920168 63.269158 
L 39.988395 63.757759 
L 40.022509 63.578787 
L 40.431874 61.585687 
L 40.465988 61.245859 
L 40.534215 61.311481 
L 40.568329 61.362542 
L 40.738898 60.268806 
L 40.807125 60.460006 
L 41.148263 62.644781 
L 41.182376 62.625643 
L 41.318831 63.110966 
L 42.001106 58.939864 
L 42.274016 55.233208 
L 42.30813 55.511555 
L 42.546926 57.878149 
L 42.615154 57.253749 
L 42.785723 54.833465 
L 43.12686 49.079778 
L 43.160974 49.149251 
L 43.297429 48.698764 
L 43.604453 52.275338 
L 44.320841 66.71536 
L 44.389069 66.460369 
L 44.423183 66.640766 
L 44.49141 66.537484 
L 44.559638 67.264868 
L 45.344254 75.769722 
L 45.787733 77.937726 
L 46.231211 79.069524 
L 46.708804 79.691849 
L 46.913486 79.850956 
L 47.118169 78.518071 
L 47.152283 78.567978 
L 47.254624 78.377039 
L 47.425193 77.943215 
L 47.49342 77.444083 
L 47.561648 76.853982 
L 47.868671 71.775606 
L 48.141581 68.681751 
L 48.58506 57.553514 
L 48.619174 57.729981 
L 48.789743 57.655392 
L 48.85797 57.457895 
L 48.892084 57.621639 
L 49.164994 60.271396 
L 49.233221 60.737026 
L 49.267335 60.581548 
L 49.335563 60.485669 
L 49.6767 55.031294 
L 49.983724 49.680902 
L 50.086065 48.943732 
L 50.120179 49.39162 
L 50.22252 49.966218 
L 50.256634 49.893797 
L 50.973023 43.141785 
L 51.177705 39.12875 
L 51.245933 39.356328 
L 51.31416 40.125096 
L 51.58707 49.420941 
L 51.825866 53.878436 
L 52.13289 58.4239 
L 52.746938 71.119672 
L 52.781051 71.166817 
L 52.849279 70.903826 
L 52.883393 71.06346 
L 52.985734 71.827872 
L 53.019848 71.686918 
L 53.053961 71.553417 
L 53.088075 71.673344 
L 53.360985 73.104698 
L 53.395099 72.829199 
L 53.463326 73.055814 
L 53.702123 74.367903 
L 53.736236 74.28091 
L 53.975033 70.132622 
L 54.247943 65.130616 
L 54.691421 62.261427 
L 54.725535 62.479525 
L 54.759649 62.517525 
L 54.827876 62.929536 
L 54.86199 62.817491 
L 55.510151 59.994431 
L 55.544265 60.129244 
L 55.578379 60.306277 
L 55.612493 60.010426 
L 55.919516 57.949705 
L 56.090085 61.365111 
L 56.158313 60.99305 
L 56.362995 59.282769 
L 56.397109 59.41692 
L 56.567678 60.098183 
L 56.601791 59.908726 
L 56.704133 60.091823 
L 56.738246 60.00981 
L 56.806474 59.637925 
L 56.908815 57.953526 
L 56.977043 58.018038 
L 57.04527 58.255341 
L 57.079384 58.14924 
L 57.113498 57.987611 
L 57.147611 58.148491 
L 57.420521 64.411477 
L 57.864 72.008201 
L 58.307479 75.97404 
L 58.750958 78.044389 
L 59.194436 79.125207 
L 59.433233 79.439066 
L 59.467346 79.359059 
L 59.535574 79.449147 
L 59.944939 79.784959 
L 60.013166 79.370731 
L 60.081394 79.459708 
L 60.422531 79.702122 
L 60.763669 79.939624 
L 61.036579 78.38459 
L 61.343603 75.791664 
L 61.445944 75.012914 
L 61.480058 75.242131 
L 61.923536 77.662299 
L 62.367015 78.925739 
L 62.537584 79.230992 
L 62.571698 79.147073 
L 62.605811 78.953511 
L 62.674039 79.082192 
L 62.742266 79.151604 
L 62.77638 79.123827 
L 62.844608 77.990734 
L 63.629224 63.001623 
L 63.799793 61.572749 
L 63.86802 61.883798 
L 63.936248 61.836491 
L 63.970361 61.896297 
L 64.14093 64.416642 
L 64.41384 68.521593 
L 64.550295 68.037095 
L 65.062001 73.707536 
L 65.096115 73.85404 
L 65.130229 73.830767 
L 65.334911 72.955665 
L 65.539594 74.328893 
L 65.607821 73.809328 
L 65.676049 74.032681 
L 65.77839 74.732436 
L 65.983073 76.176932 
L 66.017186 76.034148 
L 66.085414 75.542997 
L 66.87003 58.32689 
L 67.006485 56.630355 
L 67.245281 52.188043 
L 67.279395 52.257895 
L 67.518191 55.692305 
L 67.552305 55.397092 
L 67.68876 55.077985 
L 67.859329 53.549651 
L 67.893443 53.83938 
L 67.927556 54.154834 
L 68.029898 54.116616 
L 68.098125 54.979945 
L 68.268694 57.395703 
L 68.302808 57.226576 
L 68.678059 52.871017 
L 68.712173 52.741231 
L 68.746286 52.782642 
L 68.950969 54.603791 
L 69.257993 58.977722 
L 69.292106 59.047105 
L 69.667358 63.538974 
L 70.110836 71.507023 
L 70.554315 75.712402 
L 70.997794 77.907802 
L 71.23659 78.615939 
L 71.270704 78.494532 
L 71.680069 73.304057 
L 71.850638 71.558942 
L 72.396458 75.975678 
L 72.669368 77.290873 
L 72.703481 77.185123 
L 73.010505 78.297494 
L 73.112846 77.900143 
L 73.14696 78.017465 
L 73.249301 78.23452 
L 73.283415 78.191837 
L 73.317529 78.144113 
L 73.624553 73.681786 
L 73.658666 73.684994 
L 74.102145 76.262903 
L 74.136259 76.103273 
L 74.443283 66.17642 
L 74.818534 56.649578 
L 75.33024 42.974834 
L 75.364354 43.196388 
L 75.671378 47.902848 
L 75.944288 50.982736 
L 76.183084 53.941687 
L 76.285425 55.561867 
L 76.319539 55.432405 
L 76.455994 54.528761 
L 76.626563 55.81871 
L 76.660676 55.546907 
L 77.035928 52.013469 
L 77.070041 52.08429 
L 77.24061 53.289804 
L 77.274724 53.25606 
L 77.308838 53.191921 
L 77.445293 54.266097 
L 77.684089 61.033096 
L 78.05934 68.87769 
L 78.366364 71.39823 
L 78.400478 71.117251 
L 78.434591 70.958738 
L 79.082753 59.674257 
L 79.116866 59.605161 
L 79.287435 61.995858 
L 79.355663 62.800842 
L 79.389776 62.524377 
L 79.901483 53.55819 
L 79.935596 53.796453 
L 80.174393 57.006262 
L 80.24262 56.530902 
L 80.413189 54.417837 
L 80.447303 54.442214 
L 80.686099 53.929615 
L 81.095464 48.44946 
L 81.300146 46.59285 
L 81.402488 46.665867 
L 81.504829 46.899333 
L 81.777739 46.124843 
L 82.016535 47.669073 
L 82.187104 48.468181 
L 82.4259 47.709494 
L 82.494128 47.746872 
L 82.732924 46.979785 
L 82.801151 46.44857 
L 82.835265 46.604142 
L 82.97172 47.351267 
L 83.074061 46.247986 
L 83.142289 46.561335 
L 84.984431 75.342072 
L 85.325569 77.19643 
L 85.496138 76.596511 
L 85.530251 76.665478 
L 85.70082 75.198884 
L 86.280754 69.163132 
L 86.485436 67.584991 
L 86.690119 65.846649 
L 86.724233 65.885383 
L 86.826574 65.651628 
L 86.894801 66.412937 
L 87.133598 69.452516 
L 87.235939 69.479589 
L 87.474735 68.278434 
L 87.815873 64.186451 
L 87.849986 64.284961 
L 87.8841 64.130826 
L 88.225238 61.592934 
L 88.634603 51.930308 
L 88.941626 46.149718 
L 89.009854 46.3257 
L 89.043968 46.235379 
L 89.078081 46.202996 
L 90.06738 39.444252 
L 90.135608 38.569724 
L 90.203835 38.827369 
L 90.272063 39.097538 
L 90.306176 38.916122 
L 90.442631 37.91245 
L 90.544973 37.017504 
L 90.6132 37.204808 
L 90.681428 37.050433 
L 90.715541 37.133857 
L 90.817883 37.107515 
L 90.851996 37.07405 
L 91.124906 39.561401 
L 91.397816 36.808563 
L 91.466044 37.021721 
L 91.841295 33.980243 
L 91.943636 34.606232 
L 92.045978 36.070045 
L 93.103504 57.04541 
L 93.444641 59.976973 
L 94.536281 73.289241 
L 94.604509 73.310582 
L 94.775078 74.549477 
L 94.843305 74.162177 
L 94.911533 73.804775 
L 95.52558 65.668182 
L 95.832604 63.334199 
L 95.866718 63.345317 
L 95.934945 63.012736 
L 95.969059 63.174166 
L 96.0714 63.402698 
L 96.105514 63.265743 
L 96.34431 60.052253 
L 96.753675 51.772249 
L 97.231268 56.899915 
L 97.640633 67.009406 
L 98.084111 73.364439 
L 98.766386 77.517032 
L 99.07341 78.31253 
L 99.34632 78.959241 
L 99.448661 78.041751 
L 99.926254 70.424474 
L 99.994481 69.88521 
L 100.642643 58.667925 
L 100.881439 53.73593 
L 101.017894 52.815301 
L 101.052008 52.903998 
L 101.154349 51.453372 
L 101.563714 42.474131 
L 101.631941 42.766093 
L 101.973079 45.012254 
L 102.484785 55.07128 
L 103.030605 64.563304 
L 103.132946 65.629001 
L 103.16706 65.522168 
L 103.201174 65.438254 
L 103.235288 65.493203 
L 103.303515 66.387641 
L 103.917563 74.53157 
L 104.361041 77.291354 
L 104.770406 78.611674 
L 105.213885 79.421356 
L 105.486795 79.712917 
L 105.725591 78.390351 
L 106.100843 79.17808 
L 106.134956 79.072649 
L 106.203184 79.189992 
L 106.237298 79.222431 
L 106.271411 79.134465 
L 106.305525 79.043656 
L 106.373753 79.163758 
L 106.44198 79.257721 
L 106.476094 79.211964 
L 106.612549 77.320679 
L 107.090141 68.852361 
L 107.431279 61.566969 
L 107.977099 43.5788 
L 108.181781 38.316928 
L 108.215895 38.546034 
L 108.250009 38.587962 
L 108.284123 38.554185 
L 108.864056 31.21371 
L 109.000511 29.278132 
L 109.273421 24.556895 
L 109.341649 24.858432 
L 110.228606 44.284991 
L 110.467403 47.696414 
L 110.637971 49.010532 
L 110.672085 48.980662 
L 110.706199 48.833659 
L 111.252019 60.638919 
L 111.593156 67.117983 
L 112.036635 73.42112 
L 112.377773 75.732183 
L 112.548341 76.495458 
L 112.753024 75.321646 
L 112.787138 75.476971 
L 113.094161 76.838442 
L 113.128275 76.927772 
L 113.162389 76.876715 
L 113.571754 71.38386 
L 114.185801 57.997403 
L 114.595166 45.323519 
L 114.731621 41.978058 
L 114.799849 39.861527 
L 114.868076 40.309701 
L 115.140986 42.702761 
L 115.1751 42.619197 
L 115.413896 38.948691 
L 115.516238 39.428699 
L 115.550351 39.382597 
L 115.584465 39.490264 
L 115.686806 40.277983 
L 115.755034 41.076512 
L 115.823261 40.850348 
L 115.99383 40.142719 
L 116.027944 40.228776 
L 116.096171 40.071785 
L 116.130285 40.133666 
L 116.300854 39.162118 
L 116.471423 39.450219 
L 116.505536 39.247237 
L 116.676105 36.343715 
L 117.494835 17.430533 
L 117.597176 17.752189 
L 117.733631 21.186532 
L 118.211224 31.029209 
L 118.518248 34.180849 
L 118.72293 36.592973 
L 119.200523 46.302459 
L 119.54166 48.374232 
L 119.575774 48.291916 
L 119.609888 48.548856 
L 119.644001 48.303276 
L 119.780456 47.10574 
L 119.916911 45.759691 
L 119.951025 46.0644 
L 120.08748 47.072635 
L 120.121594 47.031209 
L 120.189821 46.948134 
L 120.565073 49.35666 
L 120.872096 57.583062 
L 121.281461 67.520552 
L 121.554371 71.081432 
L 121.588485 71.053455 
L 121.656713 70.590481 
L 121.72494 70.762545 
L 121.895509 72.313819 
L 122.134305 74.673225 
L 122.168419 74.557413 
L 122.338988 73.685577 
L 122.407215 73.712435 
L 122.850694 76.706456 
L 122.918921 75.9925 
L 123.430628 65.487591 
L 123.874106 59.156373 
L 124.112903 56.525933 
L 124.215244 55.627003 
L 124.624609 48.388896 
L 124.692836 48.132649 
L 124.931633 51.777717 
L 125.477453 67.15769 
L 125.81859 71.877654 
L 125.852704 72.0847 
L 125.886818 72.013996 
L 125.989159 71.433536 
L 126.023273 71.641578 
L 126.057386 71.555669 
L 126.330296 73.49671 
L 126.432638 72.851716 
L 126.773775 70.674544 
L 127.046685 72.893001 
L 127.18314 74.108335 
L 127.217254 73.963797 
L 127.558391 70.57397 
L 128.035984 64.760322 
L 128.070098 64.935132 
L 128.138325 65.433888 
L 128.172439 65.777134 
L 128.240666 65.455714 
L 128.888828 51.505884 
L 129.400534 36.940949 
L 129.63933 35.264487 
L 129.91224 40.017905 
L 130.18515 43.822869 
L 130.321605 46.623156 
L 131.310904 70.959784 
L 131.515586 72.446926 
L 131.617928 73.345472 
L 131.82261 74.653169 
L 131.856724 74.624085 
L 131.924951 74.78257 
L 132.197861 71.860973 
L 132.231975 72.128155 
L 132.36843 73.204271 
L 132.402544 72.898719 
L 132.573113 71.121698 
L 132.811909 69.317594 
L 132.880136 69.206134 
L 133.118933 71.059122 
L 133.289501 72.607599 
L 133.323615 72.514898 
L 133.391843 72.844398 
L 133.46007 72.780484 
L 133.903549 69.077507 
L 133.971776 69.231895 
L 134.108231 69.627451 
L 134.176459 69.458122 
L 134.2788 68.622557 
L 134.312914 69.172883 
L 134.517596 71.867593 
L 134.55171 72.279126 
L 134.619938 72.26207 
L 134.892848 71.3008 
L 134.926961 71.392029 
L 134.961075 71.494225 
L 135.131644 70.35661 
L 135.165758 70.366645 
L 135.233985 69.936288 
L 135.882146 51.539146 
L 136.086829 50.271133 
L 136.18917 49.948412 
L 136.223284 50.038193 
L 136.325625 50.425741 
L 136.359739 50.349632 
L 136.530308 47.807133 
L 136.871445 40.417877 
L 137.0079 41.407327 
L 137.076128 42.285499 
L 137.144355 42.125673 
L 137.178469 42.027734 
L 137.212583 42.219914 
L 137.383151 45.772229 
L 137.997199 59.365268 
L 138.065426 59.115469 
L 138.270109 62.573144 
L 138.543019 67.130654 
L 138.611246 67.191336 
L 138.747701 66.316987 
L 139.020611 64.282842 
L 139.054725 64.313197 
L 139.122953 64.308359 
L 139.429976 67.132211 
L 139.600545 69.310202 
L 139.634659 69.236888 
L 139.737 67.323719 
L 140.112251 62.988981 
L 140.146365 62.891527 
L 140.453389 68.223929 
L 140.896868 73.998476 
L 141.203891 75.838365 
L 141.272119 75.619148 
L 141.510915 72.82526 
L 141.783825 68.545712 
L 141.852053 68.362724 
L 142.056735 66.703375 
L 142.090849 66.851087 
L 142.159076 67.096729 
L 142.19319 66.790718 
L 142.329645 66.197735 
L 142.363759 66.254276 
L 142.773124 71.67556 
L 142.807238 71.637138 
L 143.01192 73.162161 
L 143.080148 72.952512 
L 143.182489 71.845301 
L 143.387171 69.840994 
L 143.421285 69.991431 
L 143.455399 69.805386 
L 143.523626 68.72788 
L 143.591854 69.065942 
L 143.625968 69.030217 
L 143.762423 67.403466 
L 144.171788 56.076831 
L 144.478811 48.803689 
L 144.512925 48.388274 
L 144.581153 48.907431 
L 144.888176 54.331482 
L 145.365769 67.379586 
L 145.809248 73.538386 
L 146.252726 76.772865 
L 146.696205 78.461413 
L 146.730319 78.551362 
L 146.764433 78.395019 
L 147.037343 73.463784 
L 147.37848 66.762031 
L 147.549049 65.549436 
L 148.128983 56.705725 
L 148.265438 55.201566 
L 148.504234 50.32497 
L 148.708916 47.661774 
L 148.913599 45.606791 
L 148.947713 45.644499 
L 149.050054 46.310137 
L 149.084168 46.042684 
L 149.118281 45.927509 
L 149.629988 37.8846 
L 150.039353 41.751292 
L 151.096879 68.565224 
L 151.130993 68.435497 
L 151.19922 67.979293 
L 152.120291 50.63103 
L 152.393201 48.225393 
L 152.461429 48.52645 
L 152.529656 49.103342 
L 152.904908 54.279852 
L 153.007249 53.642012 
L 153.075476 53.777156 
L 153.211931 56.057625 
L 153.484841 61.03613 
L 153.518955 61.192543 
L 153.860093 66.500158 
L 153.92832 67.170625 
L 153.962434 67.055559 
L 154.133003 65.877886 
L 154.303571 64.768892 
L 154.440026 63.721267 
L 154.47414 63.791023 
L 154.74705 64.852485 
L 154.815278 64.269468 
L 154.849391 64.300333 
L 155.190529 66.812852 
L 155.361098 65.901107 
L 155.429325 65.982296 
L 155.463439 66.282888 
L 155.497553 66.256048 
L 156.077486 60.556979 
L 156.1116 60.535213 
L 156.623306 64.05677 
L 156.691534 63.715792 
L 156.759761 63.097937 
L 156.793875 63.145684 
L 156.862103 63.730494 
L 156.896216 63.543224 
L 157.169126 59.310303 
L 157.407923 54.623711 
L 157.544378 53.320397 
L 157.578491 53.43727 
L 158.363108 59.510208 
L 158.431335 59.408828 
L 158.533676 56.79064 
L 159.352406 26.7894 
L 159.522975 25.995448 
L 159.557089 26.052902 
L 159.591203 25.960838 
L 159.693544 28.560166 
L 160.580501 62.953469 
L 160.785184 65.419844 
L 161.501573 73.770126 
L 161.535686 74.067851 
L 161.603914 73.72456 
L 161.672141 73.464366 
L 161.740369 73.10285 
L 161.774483 73.124493 
L 162.149734 75.731146 
L 162.217961 75.695259 
L 162.524985 71.368235 
L 162.729668 67.484412 
L 162.968464 63.995872 
L 163.002578 64.354491 
L 163.070805 64.191036 
L 163.173146 64.076536 
L 163.241374 63.606453 
L 163.309601 63.679766 
L 163.411943 64.566926 
L 163.446056 64.470401 
L 163.48017 64.287661 
L 163.548398 64.523156 
L 163.650739 65.080113 
L 164.128331 71.025926 
L 164.537696 75.021021 
L 164.674151 75.965089 
L 164.708265 75.920025 
L 165.049403 71.937737 
L 165.219971 71.049283 
L 165.322313 70.257389 
L 165.356426 70.616512 
L 165.765791 72.708147 
L 165.799905 72.586183 
L 166.277498 69.105975 
L 166.311611 69.187266 
L 166.550408 71.603542 
L 166.584521 71.71042 
L 166.618635 71.637887 
L 166.993886 65.851705 
L 167.096228 64.77677 
L 167.130341 65.06558 
L 167.164455 65.138393 
L 167.198569 65.009369 
L 167.232683 65.066391 
L 167.30091 64.458823 
L 167.437365 62.688111 
L 167.471479 62.850929 
L 167.949071 55.853837 
L 168.187868 53.103291 
L 168.221981 53.137027 
L 168.460778 54.614959 
L 168.563119 55.232203 
L 168.597233 54.982824 
L 168.801915 52.32787 
L 168.870143 52.346924 
L 168.904256 52.376095 
L 169.040711 54.584576 
L 169.177166 57.270935 
L 169.21128 57.256107 
L 169.313621 58.08582 
L 169.518304 59.256661 
L 169.7571 54.953348 
L 170.132351 49.204446 
L 170.166465 49.092059 
L 170.200579 49.204223 
L 170.405261 51.219021 
L 170.405261 51.219021 
" clip-path="url(#p08f8a2ff4d)" style="fill: none; stroke: #1a1a1a; stroke-width: 0.9; stroke-linejoin: miter"/>
   </g>
   <g id="line2d_11">
    <path d="M 33.984375 35.635551 
L 170.439375 35.635551 
" clip-path="url(#p08f8a2ff4d)" style="fill: none; stroke-dasharray: 0.7,1.155; stroke-dashoffset: 0; stroke: #bbbbbb; stroke-width: 0.7"/>
   </g>
   <g id="patch_3">
    <path d="M 33.984375 83.065078 
L 33.984375 14.305078 
" style="fill: none; stroke: #1a1a1a; stroke-width: 0.8; stroke-linejoin: miter; stroke-linecap: square"/>
   </g>
   <g id="patch_4">
    <path d="M 170.439375 83.065078 
L 170.439375 14.305078 
" style="fill: none; stroke: #1a1a1a; stroke-width: 0.8; stroke-linejoin: miter; stroke-linecap: square"/>
   </g>
   <g id="patch_5">
    <path d="M 33.984375 83.065078 
L 170.439375 83.065078 
" style="fill: none; stroke: #1a1a1a; stroke-width: 0.8; stroke-linejoin: miter; stroke-linecap: square"/>
   </g>
   <g id="patch_6">
    <path d="M 33.984375 14.305078 
L 170.439375 14.305078 
" style="fill: none; stroke: #1a1a1a; stroke-width: 0.8; stroke-linejoin: miter; stroke-linecap: square"/>
   </g>
   <g id="text_12">
    <!-- COBA — no recurrent loop (ei-strength = 0) — E-neuron conductances (cell 157) -->
    <g style="fill: #1a1a1a" transform="translate(33.984375 8.305078) scale(0.085 -0.085)">
     <defs>
      <path id="Menlo-Regular-43" d="M 3353 166 
Q 3113 38 2859 -26 
Q 2606 -91 2322 -91 
Q 1425 -91 929 543 
Q 434 1178 434 2328 
Q 434 3472 932 4111 
Q 1431 4750 2322 4750 
Q 2606 4750 2859 4686 
Q 3113 4622 3353 4494 
L 3353 3847 
Q 3122 4038 2856 4138 
Q 2591 4238 2322 4238 
Q 1706 4238 1400 3763 
Q 1094 3288 1094 2328 
Q 1094 1372 1400 897 
Q 1706 422 2322 422 
Q 2597 422 2861 522 
Q 3125 622 3353 813 
L 3353 166 
z
" transform="scale(0.015625)"/>
      <path id="Menlo-Regular-4f" d="M 2828 2328 
Q 2828 3356 2617 3797 
Q 2406 4238 1925 4238 
Q 1447 4238 1236 3797 
Q 1025 3356 1025 2328 
Q 1025 1303 1236 862 
Q 1447 422 1925 422 
Q 2406 422 2617 861 
Q 2828 1300 2828 2328 
z
M 3488 2328 
Q 3488 1109 3102 509 
Q 2716 -91 1925 -91 
Q 1134 -91 750 506 
Q 366 1103 366 2328 
Q 366 3550 752 4150 
Q 1138 4750 1925 4750 
Q 2716 4750 3102 4150 
Q 3488 3550 3488 2328 
z
" transform="scale(0.015625)"/>
      <path id="Menlo-Regular-42" d="M 1153 2353 
L 1153 519 
L 1900 519 
Q 2450 519 2684 711 
Q 2919 903 2919 1344 
Q 2919 1925 2672 2139 
Q 2425 2353 1900 2353 
L 1153 2353 
z
M 1153 4147 
L 1153 2866 
L 1888 2866 
Q 2344 2866 2548 3041 
Q 2753 3216 2753 3481 
Q 2753 3834 2551 3990 
Q 2350 4147 1888 4147 
L 1153 4147 
z
M 519 4666 
L 1900 4666 
Q 2616 4666 3003 4356 
Q 3391 4047 3391 3481 
Q 3391 3178 3186 2931 
Q 2981 2684 2572 2622 
Q 3031 2553 3292 2229 
Q 3553 1906 3553 1281 
Q 3553 647 3137 323 
Q 2722 0 1900 0 
L 519 0 
L 519 4666 
z
" transform="scale(0.015625)"/>
      <path id="Menlo-Regular-41" d="M 1925 4109 
L 1259 1722 
L 2591 1722 
L 1925 4109 
z
M 1544 4666 
L 2309 4666 
L 3738 0 
L 3084 0 
L 2741 1216 
L 1106 1216 
L 769 0 
L 116 0 
L 1544 4666 
z
" transform="scale(0.015625)"/>
      <path id="Menlo-Regular-2014" d="M 0 2259 
L 3853 2259 
L 3853 1725 
L 0 1725 
L 0 2259 
z
" transform="scale(0.015625)"/>
      <path id="Menlo-Regular-6e" d="M 3284 2169 
L 3284 0 
L 2706 0 
L 2706 2169 
Q 2706 2641 2540 2862 
Q 2375 3084 2022 3084 
Q 1619 3084 1401 2798 
Q 1184 2513 1184 1978 
L 1184 0 
L 609 0 
L 609 3500 
L 1184 3500 
L 1184 2975 
Q 1338 3275 1600 3429 
Q 1863 3584 2222 3584 
Q 2756 3584 3020 3232 
Q 3284 2881 3284 2169 
z
" transform="scale(0.015625)"/>
      <path id="Menlo-Regular-6f" d="M 1925 3097 
Q 1488 3097 1263 2756 
Q 1038 2416 1038 1747 
Q 1038 1081 1263 739 
Q 1488 397 1925 397 
Q 2366 397 2591 739 
Q 2816 1081 2816 1747 
Q 2816 2416 2591 2756 
Q 2366 3097 1925 3097 
z
M 1925 3584 
Q 2653 3584 3039 3112 
Q 3425 2641 3425 1747 
Q 3425 850 3040 379 
Q 2656 -91 1925 -91 
Q 1197 -91 812 379 
Q 428 850 428 1747 
Q 428 2641 812 3112 
Q 1197 3584 1925 3584 
z
" transform="scale(0.015625)"/>
      <path id="Menlo-Regular-72" d="M 3609 2778 
Q 3425 2922 3234 2987 
Q 3044 3053 2816 3053 
Q 2278 3053 1993 2715 
Q 1709 2378 1709 1741 
L 1709 0 
L 1131 0 
L 1131 3500 
L 1709 3500 
L 1709 2816 
Q 1853 3188 2151 3386 
Q 2450 3584 2859 3584 
Q 3072 3584 3256 3531 
Q 3441 3478 3609 3366 
L 3609 2778 
z
" transform="scale(0.015625)"/>
      <path id="Menlo-Regular-63" d="M 3316 178 
Q 3084 44 2839 -23 
Q 2594 -91 2338 -91 
Q 1525 -91 1067 396 
Q 609 884 609 1747 
Q 609 2609 1067 3096 
Q 1525 3584 2338 3584 
Q 2591 3584 2831 3518 
Q 3072 3453 3316 3316 
L 3316 2713 
Q 3088 2916 2858 3006 
Q 2628 3097 2338 3097 
Q 1797 3097 1506 2747 
Q 1216 2397 1216 1747 
Q 1216 1100 1508 748 
Q 1800 397 2338 397 
Q 2638 397 2875 489 
Q 3113 581 3316 775 
L 3316 178 
z
" transform="scale(0.015625)"/>
      <path id="Menlo-Regular-75" d="M 609 1325 
L 609 3494 
L 1184 3494 
L 1184 1325 
Q 1184 853 1351 631 
Q 1519 409 1869 409 
Q 2275 409 2490 695 
Q 2706 981 2706 1516 
L 2706 3494 
L 3284 3494 
L 3284 0 
L 2706 0 
L 2706 525 
Q 2553 222 2289 65 
Q 2025 -91 1672 -91 
Q 1134 -91 871 261 
Q 609 613 609 1325 
z
" transform="scale(0.015625)"/>
      <path id="Menlo-Regular-6c" d="M 2247 1266 
Q 2247 878 2389 681 
Q 2531 484 2809 484 
L 3481 484 
L 3481 0 
L 2753 0 
Q 2238 0 1955 329 
Q 1672 659 1672 1266 
L 1672 4431 
L 750 4431 
L 750 4881 
L 2247 4881 
L 2247 1266 
z
" transform="scale(0.015625)"/>
      <path id="Menlo-Regular-70" d="M 1172 441 
L 1172 -1331 
L 594 -1331 
L 594 3500 
L 1172 3500 
L 1172 3053 
Q 1316 3313 1555 3448 
Q 1794 3584 2106 3584 
Q 2741 3584 3102 3093 
Q 3463 2603 3463 1734 
Q 3463 881 3100 395 
Q 2738 -91 2106 -91 
Q 1788 -91 1548 45 
Q 1309 181 1172 441 
z
M 2859 1747 
Q 2859 2416 2648 2756 
Q 2438 3097 2022 3097 
Q 1603 3097 1387 2755 
Q 1172 2413 1172 1747 
Q 1172 1084 1387 740 
Q 1603 397 2022 397 
Q 2438 397 2648 737 
Q 2859 1078 2859 1747 
z
" transform="scale(0.015625)"/>
      <path id="Menlo-Regular-2d" d="M 319 2263 
L 3631 2263 
L 3631 1734 
L 319 1734 
L 319 2263 
z
" transform="scale(0.015625)"/>
      <path id="Menlo-Regular-68" d="M 3284 2169 
L 3284 0 
L 2706 0 
L 2706 2169 
Q 2706 2641 2540 2862 
Q 2375 3084 2022 3084 
Q 1619 3084 1401 2798 
Q 1184 2513 1184 1978 
L 1184 0 
L 609 0 
L 609 4863 
L 1184 4863 
L 1184 2975 
Q 1338 3275 1600 3429 
Q 1863 3584 2222 3584 
Q 2756 3584 3020 3232 
Q 3284 2881 3284 2169 
z
" transform="scale(0.015625)"/>
      <path id="Menlo-Regular-3d" d="M 275 1563 
L 3578 1563 
L 3578 1034 
L 275 1034 
L 275 1563 
z
M 275 3034 
L 3578 3034 
L 3578 2506 
L 275 2506 
L 275 3034 
z
" transform="scale(0.015625)"/>
      <path id="Menlo-Regular-45" d="M 616 4666 
L 3384 4666 
L 3384 4134 
L 1247 4134 
L 1247 2878 
L 3291 2878 
L 3291 2347 
L 1247 2347 
L 1247 531 
L 3444 531 
L 3444 0 
L 616 0 
L 616 4666 
z
" transform="scale(0.015625)"/>
      <path id="Menlo-Regular-64" d="M 2681 3053 
L 2681 4863 
L 3256 4863 
L 3256 0 
L 2681 0 
L 2681 441 
Q 2538 181 2298 45 
Q 2059 -91 1747 -91 
Q 1113 -91 748 401 
Q 384 894 384 1759 
Q 384 2613 750 3098 
Q 1116 3584 1747 3584 
Q 2063 3584 2303 3448 
Q 2544 3313 2681 3053 
z
M 991 1747 
Q 991 1078 1203 737 
Q 1416 397 1831 397 
Q 2247 397 2464 740 
Q 2681 1084 2681 1747 
Q 2681 2413 2464 2755 
Q 2247 3097 1831 3097 
Q 1416 3097 1203 2756 
Q 991 2416 991 1747 
z
" transform="scale(0.015625)"/>
      <path id="Menlo-Regular-61" d="M 2194 1759 
L 2003 1759 
Q 1500 1759 1245 1582 
Q 991 1406 991 1056 
Q 991 741 1181 566 
Q 1372 391 1709 391 
Q 2184 391 2456 720 
Q 2728 1050 2731 1631 
L 2731 1759 
L 2194 1759 
z
M 3309 1997 
L 3309 0 
L 2731 0 
L 2731 519 
Q 2547 206 2267 57 
Q 1988 -91 1588 -91 
Q 1053 -91 734 211 
Q 416 513 416 1019 
Q 416 1603 808 1906 
Q 1200 2209 1959 2209 
L 2731 2209 
L 2731 2300 
Q 2728 2719 2518 2908 
Q 2309 3097 1850 3097 
Q 1556 3097 1256 3012 
Q 956 2928 672 2766 
L 672 3341 
Q 991 3463 1283 3523 
Q 1575 3584 1850 3584 
Q 2284 3584 2592 3456 
Q 2900 3328 3091 3072 
Q 3209 2916 3259 2686 
Q 3309 2456 3309 1997 
z
" transform="scale(0.015625)"/>
      <path id="Menlo-Regular-35" d="M 647 4666 
L 3009 4666 
L 3009 4134 
L 1222 4134 
L 1222 2988 
Q 1356 3038 1492 3061 
Q 1628 3084 1766 3084 
Q 2491 3084 2916 2656 
Q 3341 2228 3341 1497 
Q 3341 759 2895 334 
Q 2450 -91 1678 -91 
Q 1306 -91 998 -41 
Q 691 9 447 109 
L 447 750 
Q 734 594 1025 517 
Q 1316 441 1619 441 
Q 2141 441 2423 716 
Q 2706 991 2706 1497 
Q 2706 1997 2414 2275 
Q 2122 2553 1600 2553 
Q 1347 2553 1106 2495 
Q 866 2438 647 2322 
L 647 4666 
z
" transform="scale(0.015625)"/>
      <path id="Menlo-Regular-37" d="M 434 4666 
L 3372 4666 
L 3372 4397 
L 1703 0 
L 1044 0 
L 2669 4134 
L 434 4134 
L 434 4666 
z
" transform="scale(0.015625)"/>
     </defs>
     <use xlink:href="#Menlo-Regular-43"/>
     <use xlink:href="#Menlo-Regular-4f" transform="translate(60.205078 0)"/>
     <use xlink:href="#Menlo-Regular-42" transform="translate(120.410156 0)"/>
     <use xlink:href="#Menlo-Regular-41" transform="translate(180.615234 0)"/>
     <use xlink:href="#Menlo-Regular-20" transform="translate(240.820312 0)"/>
     <use xlink:href="#Menlo-Regular-2014" transform="translate(301.025391 0)"/>
     <use xlink:href="#Menlo-Regular-20" transform="translate(361.230469 0)"/>
     <use xlink:href="#Menlo-Regular-6e" transform="translate(421.435547 0)"/>
     <use xlink:href="#Menlo-Regular-6f" transform="translate(481.640625 0)"/>
     <use xlink:href="#Menlo-Regular-20" transform="translate(541.845703 0)"/>
     <use xlink:href="#Menlo-Regular-72" transform="translate(602.050781 0)"/>
     <use xlink:href="#Menlo-Regular-65" transform="translate(662.255859 0)"/>
     <use xlink:href="#Menlo-Regular-63" transform="translate(722.460938 0)"/>
     <use xlink:href="#Menlo-Regular-75" transform="translate(782.666016 0)"/>
     <use xlink:href="#Menlo-Regular-72" transform="translate(842.871094 0)"/>
     <use xlink:href="#Menlo-Regular-72" transform="translate(903.076172 0)"/>
     <use xlink:href="#Menlo-Regular-65" transform="translate(963.28125 0)"/>
     <use xlink:href="#Menlo-Regular-6e" transform="translate(1023.486328 0)"/>
     <use xlink:href="#Menlo-Regular-74" transform="translate(1083.691406 0)"/>
     <use xlink:href="#Menlo-Regular-20" transform="translate(1143.896484 0)"/>
     <use xlink:href="#Menlo-Regular-6c" transform="translate(1204.101562 0)"/>
     <use xlink:href="#Menlo-Regular-6f" transform="translate(1264.306641 0)"/>
     <use xlink:href="#Menlo-Regular-6f" transform="translate(1324.511719 0)"/>
     <use xlink:href="#Menlo-Regular-70" transform="translate(1384.716797 0)"/>
     <use xlink:href="#Menlo-Regular-20" transform="translate(1444.921875 0)"/>
     <use xlink:href="#Menlo-Regular-28" transform="translate(1505.126953 0)"/>
     <use xlink:href="#Menlo-Regular-65" transform="translate(1565.332031 0)"/>
     <use xlink:href="#Menlo-Regular-69" transform="translate(1625.537109 0)"/>
     <use xlink:href="#Menlo-Regular-2d" transform="translate(1685.742188 0)"/>
     <use xlink:href="#Menlo-Regular-73" transform="translate(1745.947266 0)"/>
     <use xlink:href="#Menlo-Regular-74" transform="translate(1806.152344 0)"/>
     <use xlink:href="#Menlo-Regular-72" transform="translate(1866.357422 0)"/>
     <use xlink:href="#Menlo-Regular-65" transform="translate(1926.5625 0)"/>
     <use xlink:href="#Menlo-Regular-6e" transform="translate(1986.767578 0)"/>
     <use xlink:href="#Menlo-Regular-67" transform="translate(2046.972656 0)"/>
     <use xlink:href="#Menlo-Regular-74" transform="translate(2107.177734 0)"/>
     <use xlink:href="#Menlo-Regular-68" transform="translate(2167.382812 0)"/>
     <use xlink:href="#Menlo-Regular-20" transform="translate(2227.587891 0)"/>
     <use xlink:href="#Menlo-Regular-3d" transform="translate(2287.792969 0)"/>
     <use xlink:href="#Menlo-Regular-20" transform="translate(2347.998047 0)"/>
     <use xlink:href="#Menlo-Regular-30" transform="translate(2408.203125 0)"/>
     <use xlink:href="#Menlo-Regular-29" transform="translate(2468.408203 0)"/>
     <use xlink:href="#Menlo-Regular-20" transform="translate(2528.613281 0)"/>
     <use xlink:href="#Menlo-Regular-2014" transform="translate(2588.818359 0)"/>
     <use xlink:href="#Menlo-Regular-20" transform="translate(2649.023438 0)"/>
     <use xlink:href="#Menlo-Regular-45" transform="translate(2709.228516 0)"/>
     <use xlink:href="#Menlo-Regular-2d" transform="translate(2769.433594 0)"/>
     <use xlink:href="#Menlo-Regular-6e" transform="translate(2829.638672 0)"/>
     <use xlink:href="#Menlo-Regular-65" transform="translate(2889.84375 0)"/>
     <use xlink:href="#Menlo-Regular-75" transform="translate(2950.048828 0)"/>
     <use xlink:href="#Menlo-Regular-72" transform="translate(3010.253906 0)"/>
     <use xlink:href="#Menlo-Regular-6f" transform="translate(3070.458984 0)"/>
     <use xlink:href="#Menlo-Regular-6e" transform="translate(3130.664062 0)"/>
     <use xlink:href="#Menlo-Regular-20" transform="translate(3190.869141 0)"/>
     <use xlink:href="#Menlo-Regular-63" transform="translate(3251.074219 0)"/>
     <use xlink:href="#Menlo-Regular-6f" transform="translate(3311.279297 0)"/>
     <use xlink:href="#Menlo-Regular-6e" transform="translate(3371.484375 0)"/>
     <use xlink:href="#Menlo-Regular-64" transform="translate(3431.689453 0)"/>
     <use xlink:href="#Menlo-Regular-75" transform="translate(3491.894531 0)"/>
     <use xlink:href="#Menlo-Regular-63" transform="translate(3552.099609 0)"/>
     <use xlink:href="#Menlo-Regular-74" transform="translate(3612.304688 0)"/>
     <use xlink:href="#Menlo-Regular-61" transform="translate(3672.509766 0)"/>
     <use xlink:href="#Menlo-Regular-6e" transform="translate(3732.714844 0)"/>
     <use xlink:href="#Menlo-Regular-63" transform="translate(3792.919922 0)"/>
     <use xlink:href="#Menlo-Regular-65" transform="translate(3853.125 0)"/>
     <use xlink:href="#Menlo-Regular-73" transform="translate(3913.330078 0)"/>
     <use xlink:href="#Menlo-Regular-20" transform="translate(3973.535156 0)"/>
     <use xlink:href="#Menlo-Regular-28" transform="translate(4033.740234 0)"/>
     <use xlink:href="#Menlo-Regular-63" transform="translate(4093.945312 0)"/>
     <use xlink:href="#Menlo-Regular-65" transform="translate(4154.150391 0)"/>
     <use xlink:href="#Menlo-Regular-6c" transform="translate(4214.355469 0)"/>
     <use xlink:href="#Menlo-Regular-6c" transform="translate(4274.560547 0)"/>
     <use xlink:href="#Menlo-Regular-20" transform="translate(4334.765625 0)"/>
     <use xlink:href="#Menlo-Regular-31" transform="translate(4394.970703 0)"/>
     <use xlink:href="#Menlo-Regular-35" transform="translate(4455.175781 0)"/>
     <use xlink:href="#Menlo-Regular-37" transform="translate(4515.380859 0)"/>
     <use xlink:href="#Menlo-Regular-29" transform="translate(4575.585938 0)"/>
    </g>
   </g>
   <g id="legend_1">
    <g id="patch_7">
     <path d="M 102.397188 41.220078 
L 166.939375 41.220078 
L 166.939375 17.805078 
L 102.397188 17.805078 
z
" style="fill: #ffffff; stroke: #1a1a1a; stroke-width: 0.8; stroke-linejoin: miter"/>
    </g>
    <g id="line2d_12">
     <path d="M 105.197187 23.808672 
L 110.797187 23.808672 
L 116.397188 23.808672 
" style="fill: none; stroke: #1a1a1a; stroke-width: 0.9; stroke-linejoin: miter"/>
    </g>
    <g id="text_13">
     <!-- g_E (exc) -->
     <g style="fill: #1a1a1a" transform="translate(121.997187 26.258672) scale(0.07 -0.07)">
      <defs>
       <path id="Menlo-Regular-5f" d="M 3825 -594 
L 3825 -1125 
L 0 -1125 
L 0 -594 
L 3825 -594 
z
" transform="scale(0.015625)"/>
       <path id="Menlo-Regular-78" d="M 3494 3500 
L 2241 1825 
L 3616 0 
L 2950 0 
L 1925 1403 
L 903 0 
L 238 0 
L 1613 1825 
L 359 3500 
L 997 3500 
L 1925 2234 
L 2847 3500 
L 3494 3500 
z
" transform="scale(0.015625)"/>
      </defs>
      <use xlink:href="#Menlo-Regular-67"/>
      <use xlink:href="#Menlo-Regular-5f" transform="translate(60.205078 0)"/>
      <use xlink:href="#Menlo-Regular-45" transform="translate(120.410156 0)"/>
      <use xlink:href="#Menlo-Regular-20" transform="translate(180.615234 0)"/>
      <use xlink:href="#Menlo-Regular-28" transform="translate(240.820312 0)"/>
      <use xlink:href="#Menlo-Regular-65" transform="translate(301.025391 0)"/>
      <use xlink:href="#Menlo-Regular-78" transform="translate(361.230469 0)"/>
      <use xlink:href="#Menlo-Regular-63" transform="translate(421.435547 0)"/>
      <use xlink:href="#Menlo-Regular-29" transform="translate(481.640625 0)"/>
     </g>
    </g>
    <g id="line2d_13">
     <path d="M 105.197187 34.466172 
L 110.797187 34.466172 
L 116.397188 34.466172 
" style="fill: none; stroke-dasharray: 0.7,1.155; stroke-dashoffset: 0; stroke: #bbbbbb; stroke-width: 0.7"/>
    </g>
    <g id="text_14">
     <!-- g_L (leak) -->
     <g style="fill: #1a1a1a" transform="translate(121.997187 36.916172) scale(0.07 -0.07)">
      <defs>
       <path id="Menlo-Regular-4c" d="M 672 4666 
L 1306 4666 
L 1306 531 
L 3559 531 
L 3559 0 
L 672 0 
L 672 4666 
z
" transform="scale(0.015625)"/>
       <path id="Menlo-Regular-6b" d="M 738 4863 
L 1331 4863 
L 1331 2047 
L 2841 3500 
L 3541 3500 
L 2163 2181 
L 3756 0 
L 3053 0 
L 1759 1806 
L 1331 1403 
L 1331 0 
L 738 0 
L 738 4863 
z
" transform="scale(0.015625)"/>
      </defs>
      <use xlink:href="#Menlo-Regular-67"/>
      <use xlink:href="#Menlo-Regular-5f" transform="translate(60.205078 0)"/>
      <use xlink:href="#Menlo-Regular-4c" transform="translate(120.410156 0)"/>
      <use xlink:href="#Menlo-Regular-20" transform="translate(180.615234 0)"/>
      <use xlink:href="#Menlo-Regular-28" transform="translate(240.820312 0)"/>
      <use xlink:href="#Menlo-Regular-6c" transform="translate(301.025391 0)"/>
      <use xlink:href="#Menlo-Regular-65" transform="translate(361.230469 0)"/>
      <use xlink:href="#Menlo-Regular-61" transform="translate(421.435547 0)"/>
      <use xlink:href="#Menlo-Regular-6b" transform="translate(481.640625 0)"/>
      <use xlink:href="#Menlo-Regular-29" transform="translate(541.845703 0)"/>
     </g>
    </g>
   </g>
  </g>
 </g>
 <defs>
  <clipPath id="p08f8a2ff4d">
   <rect x="33.984375" y="14.305078" width="136.455" height="68.76"/>
  </clipPath>
 </defs>
</svg>
