<?xml version="1.0" encoding="utf-8" standalone="no"?>
<!DOCTYPE svg PUBLIC "-//W3C//DTD SVG 1.1//EN"
  "http://www.w3.org/Graphics/SVG/1.1/DTD/svg11.dtd">
<svg xmlns:xlink="http://www.w3.org/1999/xlink" width="273.843984pt" height="148.460625pt" viewBox="0 0 273.843984 148.460625" xmlns="http://www.w3.org/2000/svg" version="1.1">
 <metadata>
  <rdf:RDF xmlns:dc="http://purl.org/dc/elements/1.1/" xmlns:cc="http://creativecommons.org/ns#" xmlns:rdf="http://www.w3.org/1999/02/22-rdf-syntax-ns#">
   <cc:Work>
    <dc:type rdf:resource="http://purl.org/dc/dcmitype/StillImage"/>
    <dc:date>2026-07-02T13:59:03.671620</dc:date>
    <dc:format>image/svg+xml</dc:format>
    <dc:creator>
     <cc:Agent>
      <dc:title>Matplotlib v3.10.8, https://matplotlib.org/</dc:title>
     </cc:Agent>
    </dc:creator>
   </cc:Work>
  </rdf:RDF>
 </metadata>
 <defs>
  <style type="text/css">*{stroke-linejoin: round; stroke-linecap: butt}</style>
 </defs>
 <g id="figure_1">
  <g id="patch_1">
   <path d="M 0 148.460625 
L 273.843984 148.460625 
L 273.843984 0 
L 0 0 
z
" style="fill: #ffffff"/>
  </g>
  <g id="axes_1">
   <g id="patch_2">
    <path d="M 29.457656 124.96125 
L 266.08266 124.96125 
L 266.08266 13.54125 
L 29.457656 13.54125 
z
" style="fill: #ffffff"/>
   </g>
   <g id="matplotlib.axis_1">
    <g id="xtick_1">
     <g id="line2d_1">
      <defs>
       <path id="m327e2c5577" d="M 0 0 
L 0 -3 
" style="stroke: #1a1a1a; stroke-width: 0.8"/>
      </defs>
      <g>
       <use xlink:href="#m327e2c5577" x="29.457656" y="124.96125" style="fill: #1a1a1a; stroke: #1a1a1a; stroke-width: 0.8"/>
      </g>
     </g>
     <g id="text_1">
      <!-- 0 -->
      <g style="fill: #1a1a1a" transform="translate(27.350547 133.799844) scale(0.07 -0.07)">
       <defs>
        <path id="Menlo-Regular-30" d="M 1925 4734 
Q 2672 4734 3055 4125 
Q 3438 3516 3438 2322 
Q 3438 1128 3055 518 
Q 2672 -91 1925 -91 
Q 1178 -91 797 518 
Q 416 1128 416 2322 
Q 416 3516 797 4125 
Q 1178 4734 1925 4734 
z
M 1925 409 
Q 2369 409 2586 881 
Q 2803 1353 2803 2322 
Q 2803 2838 2741 3253 
L 1253 925 
Q 1488 409 1925 409 
z
M 1925 4234 
Q 1484 4234 1267 3762 
Q 1050 3291 1050 2322 
Q 1050 1881 1109 1497 
L 2566 3819 
Q 2328 4234 1925 4234 
z
" transform="scale(0.015625)"/>
       </defs>
       <use xlink:href="#Menlo-Regular-30"/>
      </g>
     </g>
    </g>
    <g id="xtick_2">
     <g id="line2d_2">
      <g>
       <use xlink:href="#m327e2c5577" x="59.035781" y="124.96125" style="fill: #1a1a1a; stroke: #1a1a1a; stroke-width: 0.8"/>
      </g>
     </g>
     <g id="text_2">
      <!-- 50 -->
      <g style="fill: #1a1a1a" transform="translate(54.821562 133.799844) scale(0.07 -0.07)">
       <defs>
        <path id="Menlo-Regular-35" d="M 647 4666 
L 3009 4666 
L 3009 4134 
L 1222 4134 
L 1222 2988 
Q 1356 3038 1492 3061 
Q 1628 3084 1766 3084 
Q 2491 3084 2916 2656 
Q 3341 2228 3341 1497 
Q 3341 759 2895 334 
Q 2450 -91 1678 -91 
Q 1306 -91 998 -41 
Q 691 9 447 109 
L 447 750 
Q 734 594 1025 517 
Q 1316 441 1619 441 
Q 2141 441 2423 716 
Q 2706 991 2706 1497 
Q 2706 1997 2414 2275 
Q 2122 2553 1600 2553 
Q 1347 2553 1106 2495 
Q 866 2438 647 2322 
L 647 4666 
z
" transform="scale(0.015625)"/>
       </defs>
       <use xlink:href="#Menlo-Regular-35"/>
       <use xlink:href="#Menlo-Regular-30" transform="translate(60.205078 0)"/>
      </g>
     </g>
    </g>
    <g id="xtick_3">
     <g id="line2d_3">
      <g>
       <use xlink:href="#m327e2c5577" x="88.613906" y="124.96125" style="fill: #1a1a1a; stroke: #1a1a1a; stroke-width: 0.8"/>
      </g>
     </g>
     <g id="text_3">
      <!-- 100 -->
      <g style="fill: #1a1a1a" transform="translate(82.292578 133.799844) scale(0.07 -0.07)">
       <defs>
        <path id="Menlo-Regular-31" d="M 844 528 
L 1825 528 
L 1825 4053 
L 650 3488 
L 650 4094 
L 1819 4650 
L 2450 4650 
L 2450 528 
L 3419 528 
L 3419 0 
L 844 0 
L 844 528 
z
" transform="scale(0.015625)"/>
       </defs>
       <use xlink:href="#Menlo-Regular-31"/>
       <use xlink:href="#Menlo-Regular-30" transform="translate(60.205078 0)"/>
       <use xlink:href="#Menlo-Regular-30" transform="translate(120.410156 0)"/>
      </g>
     </g>
    </g>
    <g id="xtick_4">
     <g id="line2d_4">
      <g>
       <use xlink:href="#m327e2c5577" x="118.192031" y="124.96125" style="fill: #1a1a1a; stroke: #1a1a1a; stroke-width: 0.8"/>
      </g>
     </g>
     <g id="text_4">
      <!-- 150 -->
      <g style="fill: #1a1a1a" transform="translate(111.870703 133.799844) scale(0.07 -0.07)">
       <use xlink:href="#Menlo-Regular-31"/>
       <use xlink:href="#Menlo-Regular-35" transform="translate(60.205078 0)"/>
       <use xlink:href="#Menlo-Regular-30" transform="translate(120.410156 0)"/>
      </g>
     </g>
    </g>
    <g id="xtick_5">
     <g id="line2d_5">
      <g>
       <use xlink:href="#m327e2c5577" x="147.770156" y="124.96125" style="fill: #1a1a1a; stroke: #1a1a1a; stroke-width: 0.8"/>
      </g>
     </g>
     <g id="text_5">
      <!-- 200 -->
      <g style="fill: #1a1a1a" transform="translate(141.448828 133.799844) scale(0.07 -0.07)">
       <defs>
        <path id="Menlo-Regular-32" d="M 1166 531 
L 3309 531 
L 3309 0 
L 475 0 
L 475 531 
Q 1059 1147 1496 1619 
Q 1934 2091 2100 2284 
Q 2413 2666 2522 2902 
Q 2631 3138 2631 3384 
Q 2631 3775 2401 3997 
Q 2172 4219 1772 4219 
Q 1488 4219 1175 4116 
Q 863 4013 513 3803 
L 513 4441 
Q 834 4594 1145 4672 
Q 1456 4750 1759 4750 
Q 2444 4750 2861 4386 
Q 3278 4022 3278 3431 
Q 3278 3131 3139 2831 
Q 3000 2531 2688 2169 
Q 2513 1966 2180 1606 
Q 1847 1247 1166 531 
z
" transform="scale(0.015625)"/>
       </defs>
       <use xlink:href="#Menlo-Regular-32"/>
       <use xlink:href="#Menlo-Regular-30" transform="translate(60.205078 0)"/>
       <use xlink:href="#Menlo-Regular-30" transform="translate(120.410156 0)"/>
      </g>
     </g>
    </g>
    <g id="xtick_6">
     <g id="line2d_6">
      <g>
       <use xlink:href="#m327e2c5577" x="177.348281" y="124.96125" style="fill: #1a1a1a; stroke: #1a1a1a; stroke-width: 0.8"/>
      </g>
     </g>
     <g id="text_6">
      <!-- 250 -->
      <g style="fill: #1a1a1a" transform="translate(171.026953 133.799844) scale(0.07 -0.07)">
       <use xlink:href="#Menlo-Regular-32"/>
       <use xlink:href="#Menlo-Regular-35" transform="translate(60.205078 0)"/>
       <use xlink:href="#Menlo-Regular-30" transform="translate(120.410156 0)"/>
      </g>
     </g>
    </g>
    <g id="xtick_7">
     <g id="line2d_7">
      <g>
       <use xlink:href="#m327e2c5577" x="206.926406" y="124.96125" style="fill: #1a1a1a; stroke: #1a1a1a; stroke-width: 0.8"/>
      </g>
     </g>
     <g id="text_7">
      <!-- 300 -->
      <g style="fill: #1a1a1a" transform="translate(200.605078 133.799844) scale(0.07 -0.07)">
       <defs>
        <path id="Menlo-Regular-33" d="M 2425 2497 
Q 2884 2375 3128 2064 
Q 3372 1753 3372 1288 
Q 3372 644 2939 276 
Q 2506 -91 1741 -91 
Q 1419 -91 1084 -31 
Q 750 28 428 141 
L 428 769 
Q 747 603 1056 522 
Q 1366 441 1672 441 
Q 2191 441 2469 675 
Q 2747 909 2747 1350 
Q 2747 1756 2469 1995 
Q 2191 2234 1716 2234 
L 1234 2234 
L 1234 2753 
L 1716 2753 
Q 2150 2753 2394 2943 
Q 2638 3134 2638 3475 
Q 2638 3834 2411 4026 
Q 2184 4219 1766 4219 
Q 1488 4219 1191 4156 
Q 894 4094 569 3969 
L 569 4550 
Q 947 4650 1242 4700 
Q 1538 4750 1766 4750 
Q 2447 4750 2855 4408 
Q 3263 4066 3263 3500 
Q 3263 3116 3048 2859 
Q 2834 2603 2425 2497 
z
" transform="scale(0.015625)"/>
       </defs>
       <use xlink:href="#Menlo-Regular-33"/>
       <use xlink:href="#Menlo-Regular-30" transform="translate(60.205078 0)"/>
       <use xlink:href="#Menlo-Regular-30" transform="translate(120.410156 0)"/>
      </g>
     </g>
    </g>
    <g id="xtick_8">
     <g id="line2d_8">
      <g>
       <use xlink:href="#m327e2c5577" x="236.504531" y="124.96125" style="fill: #1a1a1a; stroke: #1a1a1a; stroke-width: 0.8"/>
      </g>
     </g>
     <g id="text_8">
      <!-- 350 -->
      <g style="fill: #1a1a1a" transform="translate(230.183203 133.799844) scale(0.07 -0.07)">
       <use xlink:href="#Menlo-Regular-33"/>
       <use xlink:href="#Menlo-Regular-35" transform="translate(60.205078 0)"/>
       <use xlink:href="#Menlo-Regular-30" transform="translate(120.410156 0)"/>
      </g>
     </g>
    </g>
    <g id="xtick_9">
     <g id="line2d_9">
      <g>
       <use xlink:href="#m327e2c5577" x="266.082656" y="124.96125" style="fill: #1a1a1a; stroke: #1a1a1a; stroke-width: 0.8"/>
      </g>
     </g>
     <g id="text_9">
      <!-- 400 -->
      <g style="fill: #1a1a1a" transform="translate(259.761328 133.799844) scale(0.07 -0.07)">
       <defs>
        <path id="Menlo-Regular-34" d="M 2297 4091 
L 825 1625 
L 2297 1625 
L 2297 4091 
z
M 2194 4666 
L 2925 4666 
L 2925 1625 
L 3547 1625 
L 3547 1113 
L 2925 1113 
L 2925 0 
L 2297 0 
L 2297 1113 
L 319 1113 
L 319 1709 
L 2194 4666 
z
" transform="scale(0.015625)"/>
       </defs>
       <use xlink:href="#Menlo-Regular-34"/>
       <use xlink:href="#Menlo-Regular-30" transform="translate(60.205078 0)"/>
       <use xlink:href="#Menlo-Regular-30" transform="translate(120.410156 0)"/>
      </g>
     </g>
    </g>
    <g id="text_10">
     <!-- time (ms) -->
     <g style="fill: #1a1a1a" transform="translate(126.097033 145.356875) scale(0.08 -0.08)">
      <defs>
       <path id="Menlo-Regular-74" d="M 1919 4494 
L 1919 3500 
L 3225 3500 
L 3225 3053 
L 1919 3053 
L 1919 1153 
Q 1919 766 2066 612 
Q 2213 459 2578 459 
L 3225 459 
L 3225 0 
L 2522 0 
Q 1875 0 1609 259 
Q 1344 519 1344 1153 
L 1344 3053 
L 409 3053 
L 409 3500 
L 1344 3500 
L 1344 4494 
L 1919 4494 
z
" transform="scale(0.015625)"/>
       <path id="Menlo-Regular-69" d="M 988 3488 
L 2459 3488 
L 2459 447 
L 3600 447 
L 3600 0 
L 744 0 
L 744 447 
L 1884 447 
L 1884 3041 
L 988 3041 
L 988 3488 
z
M 1884 4847 
L 2459 4847 
L 2459 4122 
L 1884 4122 
L 1884 4847 
z
" transform="scale(0.015625)"/>
       <path id="Menlo-Regular-6d" d="M 2113 3144 
Q 2219 3369 2383 3476 
Q 2547 3584 2778 3584 
Q 3200 3584 3373 3257 
Q 3547 2931 3547 2028 
L 3547 0 
L 3022 0 
L 3022 2003 
Q 3022 2744 2939 2923 
Q 2856 3103 2638 3103 
Q 2388 3103 2295 2911 
Q 2203 2719 2203 2003 
L 2203 0 
L 1678 0 
L 1678 2003 
Q 1678 2753 1589 2928 
Q 1500 3103 1269 3103 
Q 1041 3103 952 2911 
Q 863 2719 863 2003 
L 863 0 
L 341 0 
L 341 3500 
L 863 3500 
L 863 3200 
Q 966 3388 1120 3486 
Q 1275 3584 1472 3584 
Q 1709 3584 1867 3475 
Q 2025 3366 2113 3144 
z
" transform="scale(0.015625)"/>
       <path id="Menlo-Regular-65" d="M 3500 2038 
L 3500 1756 
L 1009 1756 
L 1009 1738 
Q 984 1022 1282 709 
Q 1581 397 2125 397 
Q 2400 397 2700 484 
Q 3000 572 3341 750 
L 3341 178 
Q 3013 44 2708 -23 
Q 2403 -91 2119 -91 
Q 1303 -91 843 398 
Q 384 888 384 1747 
Q 384 2584 834 3084 
Q 1284 3584 2034 3584 
Q 2703 3584 3089 3131 
Q 3475 2678 3500 2038 
z
M 2925 2206 
Q 2888 2569 2661 2833 
Q 2434 3097 2009 3097 
Q 1594 3097 1325 2822 
Q 1056 2547 1031 2203 
L 2925 2206 
z
" transform="scale(0.015625)"/>
       <path id="Menlo-Regular-20" transform="scale(0.015625)"/>
       <path id="Menlo-Regular-28" d="M 2672 5169 
Q 2256 4456 2051 3748 
Q 1847 3041 1847 2322 
Q 1847 1606 2051 897 
Q 2256 188 2672 -531 
L 2172 -531 
Q 1700 213 1469 917 
Q 1238 1622 1238 2322 
Q 1238 3019 1469 3725 
Q 1700 4431 2172 5169 
L 2672 5169 
z
" transform="scale(0.015625)"/>
       <path id="Menlo-Regular-73" d="M 3041 3378 
L 3041 2816 
Q 2794 2959 2544 3031 
Q 2294 3103 2034 3103 
Q 1644 3103 1451 2976 
Q 1259 2850 1259 2591 
Q 1259 2356 1403 2240 
Q 1547 2125 2119 2016 
L 2350 1972 
Q 2778 1891 2998 1647 
Q 3219 1403 3219 1013 
Q 3219 494 2850 201 
Q 2481 -91 1825 -91 
Q 1566 -91 1281 -36 
Q 997 19 666 128 
L 666 722 
Q 988 556 1281 473 
Q 1575 391 1838 391 
Q 2219 391 2428 545 
Q 2638 700 2638 978 
Q 2638 1378 1872 1531 
L 1847 1538 
L 1631 1581 
Q 1134 1678 906 1908 
Q 678 2138 678 2534 
Q 678 3038 1018 3311 
Q 1359 3584 1991 3584 
Q 2272 3584 2531 3532 
Q 2791 3481 3041 3378 
z
" transform="scale(0.015625)"/>
       <path id="Menlo-Regular-29" d="M 1088 5169 
L 1588 5169 
Q 2059 4431 2290 3725 
Q 2522 3019 2522 2322 
Q 2522 1619 2290 912 
Q 2059 206 1588 -531 
L 1088 -531 
Q 1503 194 1708 903 
Q 1913 1613 1913 2322 
Q 1913 3034 1708 3743 
Q 1503 4453 1088 5169 
z
" transform="scale(0.015625)"/>
      </defs>
      <use xlink:href="#Menlo-Regular-74"/>
      <use xlink:href="#Menlo-Regular-69" transform="translate(60.205078 0)"/>
      <use xlink:href="#Menlo-Regular-6d" transform="translate(120.410156 0)"/>
      <use xlink:href="#Menlo-Regular-65" transform="translate(180.615234 0)"/>
      <use xlink:href="#Menlo-Regular-20" transform="translate(240.820312 0)"/>
      <use xlink:href="#Menlo-Regular-28" transform="translate(301.025391 0)"/>
      <use xlink:href="#Menlo-Regular-6d" transform="translate(361.230469 0)"/>
      <use xlink:href="#Menlo-Regular-73" transform="translate(421.435547 0)"/>
      <use xlink:href="#Menlo-Regular-29" transform="translate(481.640625 0)"/>
     </g>
    </g>
   </g>
   <g id="matplotlib.axis_2">
    <g id="ytick_1">
     <g id="line2d_10">
      <defs>
       <path id="m10e5a8b045" d="M 0 0 
L 3 0 
" style="stroke: #1a1a1a; stroke-width: 0.8"/>
      </defs>
      <g>
       <use xlink:href="#m10e5a8b045" x="29.457656" y="110.693217" style="fill: #1a1a1a; stroke: #1a1a1a; stroke-width: 0.8"/>
      </g>
     </g>
     <g id="text_11">
      <!-- −75 -->
      <g style="fill: #1a1a1a" transform="translate(13.315 113.362514) scale(0.07 -0.07)">
       <defs>
        <path id="Menlo-Regular-2212" d="M 275 2272 
L 3578 2272 
L 3578 1741 
L 275 1741 
L 275 2272 
z
" transform="scale(0.015625)"/>
        <path id="Menlo-Regular-37" d="M 434 4666 
L 3372 4666 
L 3372 4397 
L 1703 0 
L 1044 0 
L 2669 4134 
L 434 4134 
L 434 4666 
z
" transform="scale(0.015625)"/>
       </defs>
       <use xlink:href="#Menlo-Regular-2212"/>
       <use xlink:href="#Menlo-Regular-37" transform="translate(60.205078 0)"/>
       <use xlink:href="#Menlo-Regular-35" transform="translate(120.410156 0)"/>
      </g>
     </g>
    </g>
    <g id="ytick_2">
     <g id="line2d_11">
      <g>
       <use xlink:href="#m10e5a8b045" x="29.457656" y="92.243281" style="fill: #1a1a1a; stroke: #1a1a1a; stroke-width: 0.8"/>
      </g>
     </g>
     <g id="text_12">
      <!-- −70 -->
      <g style="fill: #1a1a1a" transform="translate(13.315 94.912578) scale(0.07 -0.07)">
       <use xlink:href="#Menlo-Regular-2212"/>
       <use xlink:href="#Menlo-Regular-37" transform="translate(60.205078 0)"/>
       <use xlink:href="#Menlo-Regular-30" transform="translate(120.410156 0)"/>
      </g>
     </g>
    </g>
    <g id="ytick_3">
     <g id="line2d_12">
      <g>
       <use xlink:href="#m10e5a8b045" x="29.457656" y="73.793346" style="fill: #1a1a1a; stroke: #1a1a1a; stroke-width: 0.8"/>
      </g>
     </g>
     <g id="text_13">
      <!-- −65 -->
      <g style="fill: #1a1a1a" transform="translate(13.315 76.462643) scale(0.07 -0.07)">
       <defs>
        <path id="Menlo-Regular-36" d="M 3097 4563 
L 3097 3981 
Q 2900 4097 2678 4158 
Q 2456 4219 2216 4219 
Q 1616 4219 1306 3767 
Q 997 3316 997 2438 
Q 1147 2750 1412 2917 
Q 1678 3084 2022 3084 
Q 2697 3084 3067 2670 
Q 3438 2256 3438 1497 
Q 3438 741 3056 325 
Q 2675 -91 1984 -91 
Q 1172 -91 794 492 
Q 416 1075 416 2328 
Q 416 3509 870 4129 
Q 1325 4750 2188 4750 
Q 2419 4750 2650 4701 
Q 2881 4653 3097 4563 
z
M 1972 2591 
Q 1569 2591 1337 2300 
Q 1106 2009 1106 1497 
Q 1106 984 1337 693 
Q 1569 403 1972 403 
Q 2391 403 2603 679 
Q 2816 956 2816 1497 
Q 2816 2041 2603 2316 
Q 2391 2591 1972 2591 
z
" transform="scale(0.015625)"/>
       </defs>
       <use xlink:href="#Menlo-Regular-2212"/>
       <use xlink:href="#Menlo-Regular-36" transform="translate(60.205078 0)"/>
       <use xlink:href="#Menlo-Regular-35" transform="translate(120.410156 0)"/>
      </g>
     </g>
    </g>
    <g id="ytick_4">
     <g id="line2d_13">
      <g>
       <use xlink:href="#m10e5a8b045" x="29.457656" y="55.34341" style="fill: #1a1a1a; stroke: #1a1a1a; stroke-width: 0.8"/>
      </g>
     </g>
     <g id="text_14">
      <!-- −60 -->
      <g style="fill: #1a1a1a" transform="translate(13.315 58.012707) scale(0.07 -0.07)">
       <use xlink:href="#Menlo-Regular-2212"/>
       <use xlink:href="#Menlo-Regular-36" transform="translate(60.205078 0)"/>
       <use xlink:href="#Menlo-Regular-30" transform="translate(120.410156 0)"/>
      </g>
     </g>
    </g>
    <g id="ytick_5">
     <g id="line2d_14">
      <g>
       <use xlink:href="#m10e5a8b045" x="29.457656" y="36.893475" style="fill: #1a1a1a; stroke: #1a1a1a; stroke-width: 0.8"/>
      </g>
     </g>
     <g id="text_15">
      <!-- −55 -->
      <g style="fill: #1a1a1a" transform="translate(13.315 39.562772) scale(0.07 -0.07)">
       <use xlink:href="#Menlo-Regular-2212"/>
       <use xlink:href="#Menlo-Regular-35" transform="translate(60.205078 0)"/>
       <use xlink:href="#Menlo-Regular-35" transform="translate(120.410156 0)"/>
      </g>
     </g>
    </g>
    <g id="ytick_6">
     <g id="line2d_15">
      <g>
       <use xlink:href="#m10e5a8b045" x="29.457656" y="18.443539" style="fill: #1a1a1a; stroke: #1a1a1a; stroke-width: 0.8"/>
      </g>
     </g>
     <g id="text_16">
      <!-- −50 -->
      <g style="fill: #1a1a1a" transform="translate(13.315 21.112836) scale(0.07 -0.07)">
       <use xlink:href="#Menlo-Regular-2212"/>
       <use xlink:href="#Menlo-Regular-35" transform="translate(60.205078 0)"/>
       <use xlink:href="#Menlo-Regular-30" transform="translate(120.410156 0)"/>
      </g>
     </g>
    </g>
    <g id="text_17">
     <!-- V_E (neuron 73)  [mV] -->
     <g style="fill: #1a1a1a" transform="translate(7.65125 119.821875) rotate(-90) scale(0.08 -0.08)">
      <defs>
       <path id="Menlo-Regular-56" d="M 1925 531 
L 3022 4666 
L 3675 4666 
L 2309 0 
L 1544 0 
L 178 4666 
L 831 4666 
L 1925 531 
z
" transform="scale(0.015625)"/>
       <path id="Menlo-Regular-5f" d="M 3825 -594 
L 3825 -1125 
L 0 -1125 
L 0 -594 
L 3825 -594 
z
" transform="scale(0.015625)"/>
       <path id="Menlo-Regular-45" d="M 616 4666 
L 3384 4666 
L 3384 4134 
L 1247 4134 
L 1247 2878 
L 3291 2878 
L 3291 2347 
L 1247 2347 
L 1247 531 
L 3444 531 
L 3444 0 
L 616 0 
L 616 4666 
z
" transform="scale(0.015625)"/>
       <path id="Menlo-Regular-6e" d="M 3284 2169 
L 3284 0 
L 2706 0 
L 2706 2169 
Q 2706 2641 2540 2862 
Q 2375 3084 2022 3084 
Q 1619 3084 1401 2798 
Q 1184 2513 1184 1978 
L 1184 0 
L 609 0 
L 609 3500 
L 1184 3500 
L 1184 2975 
Q 1338 3275 1600 3429 
Q 1863 3584 2222 3584 
Q 2756 3584 3020 3232 
Q 3284 2881 3284 2169 
z
" transform="scale(0.015625)"/>
       <path id="Menlo-Regular-75" d="M 609 1325 
L 609 3494 
L 1184 3494 
L 1184 1325 
Q 1184 853 1351 631 
Q 1519 409 1869 409 
Q 2275 409 2490 695 
Q 2706 981 2706 1516 
L 2706 3494 
L 3284 3494 
L 3284 0 
L 2706 0 
L 2706 525 
Q 2553 222 2289 65 
Q 2025 -91 1672 -91 
Q 1134 -91 871 261 
Q 609 613 609 1325 
z
" transform="scale(0.015625)"/>
       <path id="Menlo-Regular-72" d="M 3609 2778 
Q 3425 2922 3234 2987 
Q 3044 3053 2816 3053 
Q 2278 3053 1993 2715 
Q 1709 2378 1709 1741 
L 1709 0 
L 1131 0 
L 1131 3500 
L 1709 3500 
L 1709 2816 
Q 1853 3188 2151 3386 
Q 2450 3584 2859 3584 
Q 3072 3584 3256 3531 
Q 3441 3478 3609 3366 
L 3609 2778 
z
" transform="scale(0.015625)"/>
       <path id="Menlo-Regular-6f" d="M 1925 3097 
Q 1488 3097 1263 2756 
Q 1038 2416 1038 1747 
Q 1038 1081 1263 739 
Q 1488 397 1925 397 
Q 2366 397 2591 739 
Q 2816 1081 2816 1747 
Q 2816 2416 2591 2756 
Q 2366 3097 1925 3097 
z
M 1925 3584 
Q 2653 3584 3039 3112 
Q 3425 2641 3425 1747 
Q 3425 850 3040 379 
Q 2656 -91 1925 -91 
Q 1197 -91 812 379 
Q 428 850 428 1747 
Q 428 2641 812 3112 
Q 1197 3584 1925 3584 
z
" transform="scale(0.015625)"/>
       <path id="Menlo-Regular-5b" d="M 1759 5175 
L 3084 5175 
L 3084 4728 
L 2334 4728 
L 2334 -84 
L 3084 -84 
L 3084 -531 
L 1759 -531 
L 1759 5175 
z
" transform="scale(0.015625)"/>
       <path id="Menlo-Regular-5d" d="M 2250 5175 
L 2250 -531 
L 925 -531 
L 925 -84 
L 1675 -84 
L 1675 4728 
L 925 4728 
L 925 5175 
L 2250 5175 
z
" transform="scale(0.015625)"/>
      </defs>
      <use xlink:href="#Menlo-Regular-56"/>
      <use xlink:href="#Menlo-Regular-5f" transform="translate(60.205078 0)"/>
      <use xlink:href="#Menlo-Regular-45" transform="translate(120.410156 0)"/>
      <use xlink:href="#Menlo-Regular-20" transform="translate(180.615234 0)"/>
      <use xlink:href="#Menlo-Regular-28" transform="translate(240.820312 0)"/>
      <use xlink:href="#Menlo-Regular-6e" transform="translate(301.025391 0)"/>
      <use xlink:href="#Menlo-Regular-65" transform="translate(361.230469 0)"/>
      <use xlink:href="#Menlo-Regular-75" transform="translate(421.435547 0)"/>
      <use xlink:href="#Menlo-Regular-72" transform="translate(481.640625 0)"/>
      <use xlink:href="#Menlo-Regular-6f" transform="translate(541.845703 0)"/>
      <use xlink:href="#Menlo-Regular-6e" transform="translate(602.050781 0)"/>
      <use xlink:href="#Menlo-Regular-20" transform="translate(662.255859 0)"/>
      <use xlink:href="#Menlo-Regular-37" transform="translate(722.460938 0)"/>
      <use xlink:href="#Menlo-Regular-33" transform="translate(782.666016 0)"/>
      <use xlink:href="#Menlo-Regular-29" transform="translate(842.871094 0)"/>
      <use xlink:href="#Menlo-Regular-20" transform="translate(903.076172 0)"/>
      <use xlink:href="#Menlo-Regular-20" transform="translate(963.28125 0)"/>
      <use xlink:href="#Menlo-Regular-5b" transform="translate(1023.486328 0)"/>
      <use xlink:href="#Menlo-Regular-6d" transform="translate(1083.691406 0)"/>
      <use xlink:href="#Menlo-Regular-56" transform="translate(1143.896484 0)"/>
      <use xlink:href="#Menlo-Regular-5d" transform="translate(1204.101562 0)"/>
     </g>
    </g>
   </g>
   <g id="line2d_16">
    <path d="M 29.457656 73.777862 
L 29.753438 73.449606 
L 30.463313 72.067747 
L 31.528125 68.903688 
L 32.947875 63.706451 
L 33.598594 60.434921 
L 34.190156 58.73007 
L 35.018344 56.73829 
L 35.432438 55.146963 
L 35.905688 52.213346 
L 36.438094 47.72514 
L 37.44375 38.824192 
L 38.153625 34.671057 
L 38.212781 34.539275 
L 38.271938 34.858537 
L 38.39025 38.112993 
L 38.567719 52.173032 
L 39.100125 97.320561 
L 39.455063 110.190331 
L 39.81 116.242555 
L 40.164938 118.836543 
L 40.460719 119.709463 
L 40.697344 119.896705 
L 40.933969 119.746258 
L 41.288906 119.195316 
L 41.584688 118.298157 
L 42.767813 113.691388 
L 43.004438 113.573092 
L 43.418531 113.904276 
L 43.655156 114.008947 
L 43.832625 113.856333 
L 44.128406 113.212657 
L 44.897438 111.203085 
L 45.252375 111.034058 
L 45.489 110.858246 
L 45.725625 110.313526 
L 47.027063 106.395786 
L 47.263688 106.29258 
L 47.559469 106.187346 
L 47.796094 105.775561 
L 48.151032 104.455187 
L 49.275 98.815395 
L 49.807407 95.988672 
L 50.280657 94.469768 
L 51.759563 91.603209 
L 52.173657 90.95852 
L 52.706063 89.51208 
L 53.415938 86.728205 
L 54.539907 82.237986 
L 55.013157 81.195645 
L 55.486407 80.664551 
L 55.841344 80.565511 
L 56.137125 80.418189 
L 56.787844 79.995144 
L 57.616032 79.403015 
L 57.970969 78.801455 
L 58.562532 77.614467 
L 58.976625 77.266729 
L 59.568188 76.935601 
L 59.804813 76.465231 
L 60.15975 75.062905 
L 61.165407 69.574784 
L 62.05275 64.836135 
L 62.466844 63.69595 
L 62.940094 63.061832 
L 63.235875 62.549333 
L 63.590813 61.402771 
L 64.064063 58.980204 
L 65.365501 51.821014 
L 65.779594 50.960199 
L 66.607782 49.806135 
L 66.903563 48.992898 
L 67.376813 46.789722 
L 68.619094 40.31676 
L 68.974032 39.824502 
L 69.269813 39.742804 
L 69.565594 39.782809 
L 69.683907 41.799996 
L 69.920532 50.249521 
L 70.512094 72.33922 
L 71.103657 86.281652 
L 71.695219 95.303303 
L 72.286782 101.265552 
L 72.878344 105.245931 
L 73.292438 106.838989 
L 73.588219 107.268791 
L 73.884001 107.351953 
L 74.534719 107.212599 
L 74.889657 106.931188 
L 75.422063 105.853881 
L 76.368563 103.54626 
L 76.841813 100.990757 
L 79.089751 84.634823 
L 79.740469 77.406618 
L 80.627813 67.767233 
L 81.456001 61.024094 
L 81.870094 59.352364 
L 82.165876 58.823184 
L 82.402501 58.711588 
L 82.698282 58.824746 
L 83.289845 59.466606 
L 83.585626 59.691389 
L 83.822251 59.672147 
L 84.295501 59.254422 
L 85.182845 58.14657 
L 85.596938 57.0361 
L 86.36597 54.61211 
L 87.667407 49.474951 
L 88.25897 46.961958 
L 90.684376 35.6806 
L 91.749188 31.268195 
L 92.222438 30.369755 
L 93.109782 29.156754 
L 93.760501 27.082994 
L 94.707001 23.725571 
L 94.766157 23.833606 
L 94.88447 24.136061 
L 95.002782 25.062034 
L 96.30422 42.352599 
L 97.546501 53.288105 
L 98.315532 58.730098 
L 98.729626 60.463538 
L 99.025407 60.951207 
L 99.262032 60.936751 
L 99.676126 60.484216 
L 100.326845 59.887667 
L 100.56347 60.018083 
L 101.273345 60.886175 
L 101.864907 62.213996 
L 102.870564 65.289867 
L 103.817064 67.951786 
L 104.941032 70.639521 
L 106.24247 72.221543 
L 107.307282 73.39012 
L 107.543907 73.28528 
L 107.839689 72.870117 
L 108.13547 72.029741 
L 109.791845 65.22064 
L 110.97497 58.368227 
L 111.44822 56.018434 
L 111.862314 54.915917 
L 112.217251 54.457948 
L 112.572189 54.33298 
L 113.282064 54.257672 
L 113.518689 54.058339 
L 113.991939 53.193484 
L 114.583501 51.685827 
L 115.293376 49.012999 
L 115.530001 48.11567 
L 115.589157 48.224296 
L 115.648314 48.322083 
L 115.766626 49.676944 
L 116.062407 56.428149 
L 116.713126 69.180989 
L 117.363845 77.467089 
L 118.192032 85.499804 
L 119.02022 91.414785 
L 119.670939 94.660753 
L 119.96672 95.285426 
L 120.203345 95.298883 
L 120.43997 95.048552 
L 120.854064 94.522159 
L 121.149845 94.46349 
L 121.504783 94.615991 
L 121.800564 94.704193 
L 121.978033 94.562361 
L 122.155501 94.160993 
L 122.510439 92.521934 
L 123.102001 88.523931 
L 123.693564 83.378467 
L 126.11897 59.457541 
L 127.53872 48.949304 
L 128.071126 46.320858 
L 129.195095 42.409833 
L 129.90497 40.423739 
L 130.555689 39.115302 
L 131.088095 38.747139 
L 131.383876 38.519457 
L 131.857126 38.008055 
L 132.152908 38.041965 
L 132.389533 38.051297 
L 132.626158 37.816408 
L 133.336033 36.538375 
L 134.933251 32.978804 
L 135.643126 30.384183 
L 136.707939 26.210144 
L 137.240345 24.845458 
L 137.47697 24.522297 
L 137.95022 25.243321 
L 138.42347 26.561781 
L 139.310814 29.251219 
L 139.488283 29.300415 
L 139.665752 29.154347 
L 139.902377 28.663116 
L 140.257314 27.290477 
L 140.78972 24.252147 
L 141.558752 18.605795 
L 141.677064 73.793346 
L 142.268627 73.793346 
L 144.398252 41.705503 
L 146.172939 19.677683 
L 146.291252 18.734846 
L 146.409564 73.793346 
L 147.001127 73.793346 
L 148.302564 58.085606 
L 149.30822 48.987183 
L 149.958939 45.194876 
L 150.313877 43.909003 
L 150.432189 44.102733 
L 150.609658 45.748 
L 151.437845 58.275029 
L 152.14772 64.921972 
L 152.561814 67.313572 
L 152.798439 67.825086 
L 152.975908 67.860727 
L 153.212533 67.654075 
L 153.56747 66.949153 
L 154.336502 65.189842 
L 154.573127 65.273806 
L 155.046377 65.810489 
L 156.052033 67.083637 
L 156.406971 67.579752 
L 156.880221 68.543169 
L 157.885877 71.307041 
L 158.359127 72.314924 
L 158.714064 72.66224 
L 158.891533 72.602416 
L 159.128158 72.235985 
L 159.542252 71.026503 
L 160.252127 68.901239 
L 160.607064 68.477278 
L 160.962002 68.399324 
L 161.790189 68.492157 
L 162.085971 68.063002 
L 162.736689 66.514636 
L 163.091627 65.115365 
L 163.742346 61.090716 
L 164.393064 57.534551 
L 165.694502 51.766131 
L 166.286064 47.573948 
L 168.415689 30.442782 
L 170.072064 19.857309 
L 170.249533 18.634652 
L 170.367846 73.793346 
L 170.959408 73.793346 
L 171.255189 69.819766 
L 172.024221 65.752973 
L 172.320002 65.19094 
L 172.497471 65.221386 
L 172.734096 65.597699 
L 173.325658 67.29098 
L 174.627096 71.009612 
L 174.982033 71.289756 
L 175.277815 71.293951 
L 175.573596 70.994494 
L 175.869377 70.159804 
L 176.46094 68.422198 
L 176.756721 68.084144 
L 176.993346 68.07674 
L 177.289127 68.304 
L 177.762377 69.026714 
L 178.768033 70.688562 
L 179.418752 70.88774 
L 180.601877 71.65706 
L 181.19344 71.338009 
L 181.66669 70.544929 
L 182.021627 69.563016 
L 182.61319 66.829055 
L 183.323065 62.440003 
L 184.210408 57.348366 
L 184.624502 56.074204 
L 185.038596 55.496461 
L 185.511846 55.044446 
L 185.807627 54.413383 
L 186.221721 52.924686 
L 186.754127 50.011676 
L 187.34569 46.039166 
L 188.587971 34.422401 
L 188.706283 34.650196 
L 189.23869 37.862972 
L 189.593627 38.853077 
L 189.948565 39.2085 
L 190.244346 39.23913 
L 190.599284 39.056478 
L 190.895065 38.650394 
L 192.07819 36.475483 
L 192.610596 35.764523 
L 193.616252 34.566851 
L 194.148659 34.138174 
L 194.503596 34.025382 
L 194.740221 33.934506 
L 194.976846 33.618271 
L 195.331784 32.666143 
L 195.86419 30.391038 
L 196.692377 27.271573 
L 197.106471 26.391699 
L 197.461409 26.013795 
L 197.698034 26.000479 
L 198.052971 26.257736 
L 198.407909 26.82647 
L 198.822002 27.357071 
L 199.058627 27.348837 
L 199.709346 27.071198 
L 199.945971 27.294672 
L 200.300909 27.971638 
L 200.892471 29.693746 
L 202.48969 34.696689 
L 202.785471 34.933704 
L 202.96294 34.802908 
L 203.199565 34.139892 
L 204.323534 28.811747 
L 204.796784 25.470807 
L 205.447502 18.970129 
L 205.565815 73.793346 
L 206.157377 73.793346 
L 206.808096 64.174344 
L 207.458815 57.497601 
L 207.754596 55.63604 
L 207.872909 55.69958 
L 208.996878 63.296905 
L 209.825065 66.46185 
L 211.067346 69.991819 
L 211.303971 70.149135 
L 211.540596 69.998646 
L 212.309628 69.121038 
L 212.723721 68.308139 
L 213.551909 66.52539 
L 213.906846 66.364851 
L 214.380096 66.385796 
L 214.735034 66.48958 
L 215.030815 66.248821 
L 215.385753 65.510582 
L 215.74069 64.337022 
L 216.095628 62.283166 
L 217.752003 49.919083 
L 218.402721 43.233416 
L 219.112596 33.01909 
L 219.99994 21.230159 
L 220.236565 18.646433 
L 220.354878 73.793346 
L 220.94644 73.793346 
L 221.774628 60.93768 
L 222.247878 56.456048 
L 222.721128 53.817031 
L 223.135221 52.571022 
L 223.667628 51.047936 
L 224.909909 46.710529 
L 225.324003 44.108673 
L 226.862065 33.265057 
L 227.276159 31.875428 
L 227.512784 31.535249 
L 227.57194 31.726572 
L 227.690253 34.282118 
L 227.926878 48.416633 
L 228.459284 77.069916 
L 228.99169 93.350993 
L 229.524097 102.950246 
L 230.056503 108.807853 
L 230.588909 112.46234 
L 231.121315 114.758053 
L 231.653722 116.139968 
L 231.949503 116.391425 
L 232.126972 116.301 
L 232.422753 115.848957 
L 232.77769 114.904445 
L 233.25094 112.699693 
L 233.72419 109.378783 
L 235.676347 93.444599 
L 236.031284 92.537305 
L 236.327065 92.299333 
L 236.622847 92.370615 
L 237.03694 92.791746 
L 237.805972 93.730993 
L 238.042597 93.534039 
L 238.515847 92.600704 
L 239.048253 90.884789 
L 239.639815 88.910998 
L 240.231378 87.642762 
L 240.704628 87.235369 
L 241.118722 87.164763 
L 241.651128 87.144099 
L 241.946909 86.556588 
L 242.361003 85.074478 
L 243.011722 81.903395 
L 243.721597 77.530601 
L 245.082191 67.233675 
L 245.910378 61.01189 
L 246.383628 59.258912 
L 246.738566 58.591011 
L 247.093503 58.36537 
L 247.448441 58.446632 
L 247.862534 58.800479 
L 248.513253 59.683928 
L 250.347097 62.344609 
L 250.761191 62.588098 
L 251.056972 62.538832 
L 251.530222 62.14712 
L 252.654191 60.625498 
L 253.245753 58.989395 
L 253.659847 57.12454 
L 254.014784 55.4938 
L 254.133097 56.361034 
L 255.316222 73.023351 
L 255.730316 75.043311 
L 255.966941 75.532092 
L 256.144409 75.487415 
L 256.321878 75.132948 
L 257.150066 72.258282 
L 257.978253 68.407108 
L 258.510659 65.293625 
L 259.989566 56.038999 
L 260.462816 54.533847 
L 260.758597 54.168218 
L 260.995222 54.127298 
L 261.409316 54.35111 
L 261.82341 54.510846 
L 262.119191 54.264837 
L 262.710753 53.667753 
L 263.006535 53.612504 
L 263.24316 53.785402 
L 263.71641 54.559888 
L 264.18966 55.707716 
L 264.840378 57.2837 
L 265.13616 57.553695 
L 265.491097 57.44963 
L 266.023503 57.199116 
L 266.023503 57.199116 
" clip-path="url(#p9510970f97)" style="fill: none; stroke: #1a1a1a; stroke-width: 0.8; stroke-linejoin: miter"/>
   </g>
   <g id="line2d_17">
    <path d="M 29.457656 18.443539 
L 266.08266 18.443539 
" clip-path="url(#p9510970f97)" style="fill: none; stroke-dasharray: 1.85,0.8; stroke-dashoffset: 0; stroke: #bbbbbb; stroke-width: 0.5"/>
   </g>
   <g id="patch_3">
    <path d="M 29.457656 124.96125 
L 29.457656 13.54125 
" style="fill: none; stroke: #1a1a1a; stroke-width: 0.8; stroke-linejoin: miter; stroke-linecap: square"/>
   </g>
   <g id="patch_4">
    <path d="M 266.08266 124.96125 
L 266.08266 13.54125 
" style="fill: none; stroke: #1a1a1a; stroke-width: 0.8; stroke-linejoin: miter; stroke-linecap: square"/>
   </g>
   <g id="patch_5">
    <path d="M 29.457656 124.96125 
L 266.08266 124.96125 
" style="fill: none; stroke: #1a1a1a; stroke-width: 0.8; stroke-linejoin: miter; stroke-linecap: square"/>
   </g>
   <g id="patch_6">
    <path d="M 29.457656 13.54125 
L 266.08266 13.54125 
" style="fill: none; stroke: #1a1a1a; stroke-width: 0.8; stroke-linejoin: miter; stroke-linecap: square"/>
   </g>
   <g id="text_18">
    <!-- PING · E-neuron membrane voltage -->
    <g style="fill: #1a1a1a" transform="translate(29.457656 7.54125) scale(0.08 -0.08)">
     <defs>
      <path id="Menlo-Regular-50" d="M 1247 4147 
L 1247 2394 
L 1978 2394 
Q 2416 2394 2661 2625 
Q 2906 2856 2906 3272 
Q 2906 3688 2662 3917 
Q 2419 4147 1978 4147 
L 1247 4147 
z
M 616 4666 
L 1978 4666 
Q 2759 4666 3162 4311 
Q 3566 3956 3566 3272 
Q 3566 2581 3164 2228 
Q 2763 1875 1978 1875 
L 1247 1875 
L 1247 0 
L 616 0 
L 616 4666 
z
" transform="scale(0.015625)"/>
      <path id="Menlo-Regular-49" d="M 628 4666 
L 3219 4666 
L 3219 4134 
L 2241 4134 
L 2241 531 
L 3219 531 
L 3219 0 
L 628 0 
L 628 531 
L 1606 531 
L 1606 4134 
L 628 4134 
L 628 4666 
z
" transform="scale(0.015625)"/>
      <path id="Menlo-Regular-4e" d="M 59 4650 
L 922 4650 
L 2747 822 
L 2747 4650 
L 3419 4650 
L 3419 0 
L 2556 0 
L 731 3828 
L 731 0 
L 59 0 
L 59 4650 
z
" transform="scale(0.015625)"/>
      <path id="Menlo-Regular-47" d="M 3450 384 
Q 3197 150 2880 29 
Q 2563 -91 2194 -91 
Q 1306 -91 812 545 
Q 319 1181 319 2328 
Q 319 3472 819 4111 
Q 1319 4750 2209 4750 
Q 2503 4750 2772 4667 
Q 3041 4584 3291 4416 
L 3291 3769 
Q 3038 4009 2772 4123 
Q 2506 4238 2209 4238 
Q 1594 4238 1286 3761 
Q 978 3284 978 2328 
Q 978 1356 1276 889 
Q 1575 422 2194 422 
Q 2403 422 2561 470 
Q 2719 519 2847 622 
L 2847 1875 
L 2169 1875 
L 2169 2394 
L 3450 2394 
L 3450 384 
z
" transform="scale(0.015625)"/>
      <path id="Menlo-Regular-b7" d="M 1528 2700 
L 2316 2700 
L 2316 1747 
L 1528 1747 
L 1528 2700 
z
" transform="scale(0.015625)"/>
      <path id="Menlo-Regular-2d" d="M 319 2263 
L 3631 2263 
L 3631 1734 
L 319 1734 
L 319 2263 
z
" transform="scale(0.015625)"/>
      <path id="Menlo-Regular-62" d="M 2869 1747 
Q 2869 2416 2656 2756 
Q 2444 3097 2028 3097 
Q 1609 3097 1393 2755 
Q 1178 2413 1178 1747 
Q 1178 1084 1393 740 
Q 1609 397 2028 397 
Q 2444 397 2656 737 
Q 2869 1078 2869 1747 
z
M 1178 3053 
Q 1316 3309 1558 3446 
Q 1800 3584 2119 3584 
Q 2750 3584 3112 3098 
Q 3475 2613 3475 1759 
Q 3475 894 3111 401 
Q 2747 -91 2113 -91 
Q 1800 -91 1561 45 
Q 1322 181 1178 441 
L 1178 0 
L 603 0 
L 603 4863 
L 1178 4863 
L 1178 3053 
z
" transform="scale(0.015625)"/>
      <path id="Menlo-Regular-61" d="M 2194 1759 
L 2003 1759 
Q 1500 1759 1245 1582 
Q 991 1406 991 1056 
Q 991 741 1181 566 
Q 1372 391 1709 391 
Q 2184 391 2456 720 
Q 2728 1050 2731 1631 
L 2731 1759 
L 2194 1759 
z
M 3309 1997 
L 3309 0 
L 2731 0 
L 2731 519 
Q 2547 206 2267 57 
Q 1988 -91 1588 -91 
Q 1053 -91 734 211 
Q 416 513 416 1019 
Q 416 1603 808 1906 
Q 1200 2209 1959 2209 
L 2731 2209 
L 2731 2300 
Q 2728 2719 2518 2908 
Q 2309 3097 1850 3097 
Q 1556 3097 1256 3012 
Q 956 2928 672 2766 
L 672 3341 
Q 991 3463 1283 3523 
Q 1575 3584 1850 3584 
Q 2284 3584 2592 3456 
Q 2900 3328 3091 3072 
Q 3209 2916 3259 2686 
Q 3309 2456 3309 1997 
z
" transform="scale(0.015625)"/>
      <path id="Menlo-Regular-76" d="M 313 3500 
L 909 3500 
L 1925 563 
L 2944 3500 
L 3541 3500 
L 2297 0 
L 1556 0 
L 313 3500 
z
" transform="scale(0.015625)"/>
      <path id="Menlo-Regular-6c" d="M 2247 1266 
Q 2247 878 2389 681 
Q 2531 484 2809 484 
L 3481 484 
L 3481 0 
L 2753 0 
Q 2238 0 1955 329 
Q 1672 659 1672 1266 
L 1672 4431 
L 750 4431 
L 750 4881 
L 2247 4881 
L 2247 1266 
z
" transform="scale(0.015625)"/>
      <path id="Menlo-Regular-67" d="M 2681 1778 
Q 2681 2425 2470 2761 
Q 2259 3097 1856 3097 
Q 1434 3097 1212 2761 
Q 991 2425 991 1778 
Q 991 1131 1214 792 
Q 1438 453 1863 453 
Q 2259 453 2470 793 
Q 2681 1134 2681 1778 
z
M 3256 225 
Q 3256 -563 2884 -969 
Q 2513 -1375 1791 -1375 
Q 1553 -1375 1293 -1331 
Q 1034 -1288 775 -1203 
L 775 -634 
Q 1081 -778 1331 -847 
Q 1581 -916 1791 -916 
Q 2256 -916 2468 -662 
Q 2681 -409 2681 141 
L 2681 166 
L 2681 556 
Q 2544 263 2306 119 
Q 2069 -25 1728 -25 
Q 1116 -25 750 465 
Q 384 956 384 1778 
Q 384 2603 750 3093 
Q 1116 3584 1728 3584 
Q 2066 3584 2300 3450 
Q 2534 3316 2681 3034 
L 2681 3488 
L 3256 3488 
L 3256 225 
z
" transform="scale(0.015625)"/>
     </defs>
     <use xlink:href="#Menlo-Regular-50"/>
     <use xlink:href="#Menlo-Regular-49" transform="translate(60.205078 0)"/>
     <use xlink:href="#Menlo-Regular-4e" transform="translate(120.410156 0)"/>
     <use xlink:href="#Menlo-Regular-47" transform="translate(180.615234 0)"/>
     <use xlink:href="#Menlo-Regular-20" transform="translate(240.820312 0)"/>
     <use xlink:href="#Menlo-Regular-b7" transform="translate(301.025391 0)"/>
     <use xlink:href="#Menlo-Regular-20" transform="translate(361.230469 0)"/>
     <use xlink:href="#Menlo-Regular-45" transform="translate(421.435547 0)"/>
     <use xlink:href="#Menlo-Regular-2d" transform="translate(481.640625 0)"/>
     <use xlink:href="#Menlo-Regular-6e" transform="translate(541.845703 0)"/>
     <use xlink:href="#Menlo-Regular-65" transform="translate(602.050781 0)"/>
     <use xlink:href="#Menlo-Regular-75" transform="translate(662.255859 0)"/>
     <use xlink:href="#Menlo-Regular-72" transform="translate(722.460938 0)"/>
     <use xlink:href="#Menlo-Regular-6f" transform="translate(782.666016 0)"/>
     <use xlink:href="#Menlo-Regular-6e" transform="translate(842.871094 0)"/>
     <use xlink:href="#Menlo-Regular-20" transform="translate(903.076172 0)"/>
     <use xlink:href="#Menlo-Regular-6d" transform="translate(963.28125 0)"/>
     <use xlink:href="#Menlo-Regular-65" transform="translate(1023.486328 0)"/>
     <use xlink:href="#Menlo-Regular-6d" transform="translate(1083.691406 0)"/>
     <use xlink:href="#Menlo-Regular-62" transform="translate(1143.896484 0)"/>
     <use xlink:href="#Menlo-Regular-72" transform="translate(1204.101562 0)"/>
     <use xlink:href="#Menlo-Regular-61" transform="translate(1264.306641 0)"/>
     <use xlink:href="#Menlo-Regular-6e" transform="translate(1324.511719 0)"/>
     <use xlink:href="#Menlo-Regular-65" transform="translate(1384.716797 0)"/>
     <use xlink:href="#Menlo-Regular-20" transform="translate(1444.921875 0)"/>
     <use xlink:href="#Menlo-Regular-76" transform="translate(1505.126953 0)"/>
     <use xlink:href="#Menlo-Regular-6f" transform="translate(1565.332031 0)"/>
     <use xlink:href="#Menlo-Regular-6c" transform="translate(1625.537109 0)"/>
     <use xlink:href="#Menlo-Regular-74" transform="translate(1685.742188 0)"/>
     <use xlink:href="#Menlo-Regular-61" transform="translate(1745.947266 0)"/>
     <use xlink:href="#Menlo-Regular-67" transform="translate(1806.152344 0)"/>
     <use xlink:href="#Menlo-Regular-65" transform="translate(1866.357422 0)"/>
    </g>
   </g>
   <g id="legend_1">
    <g id="patch_7">
     <path d="M 223.325785 39.73 
L 262.58266 39.73 
L 262.58266 17.04125 
L 223.325785 17.04125 
z
" style="fill: #ffffff; stroke: #1a1a1a; stroke-width: 0.8; stroke-linejoin: miter"/>
    </g>
    <g id="line2d_18">
     <path d="M 226.125785 22.729844 
L 231.725785 22.729844 
L 237.325785 22.729844 
" style="fill: none; stroke: #1a1a1a; stroke-width: 0.8; stroke-linejoin: miter"/>
    </g>
    <g id="text_19">
     <!-- V_E -->
     <g style="fill: #1a1a1a" transform="translate(242.925785 25.179844) scale(0.07 -0.07)">
      <use xlink:href="#Menlo-Regular-56"/>
      <use xlink:href="#Menlo-Regular-5f" transform="translate(60.205078 0)"/>
      <use xlink:href="#Menlo-Regular-45" transform="translate(120.410156 0)"/>
     </g>
    </g>
    <g id="line2d_19">
     <path d="M 226.125785 33.024219 
L 231.725785 33.024219 
L 237.325785 33.024219 
" style="fill: none; stroke-dasharray: 1.85,0.8; stroke-dashoffset: 0; stroke: #bbbbbb; stroke-width: 0.5"/>
    </g>
    <g id="text_20">
     <!-- V_th -->
     <g style="fill: #1a1a1a" transform="translate(242.925785 35.474219) scale(0.07 -0.07)">
      <defs>
       <path id="Menlo-Regular-68" d="M 3284 2169 
L 3284 0 
L 2706 0 
L 2706 2169 
Q 2706 2641 2540 2862 
Q 2375 3084 2022 3084 
Q 1619 3084 1401 2798 
Q 1184 2513 1184 1978 
L 1184 0 
L 609 0 
L 609 4863 
L 1184 4863 
L 1184 2975 
Q 1338 3275 1600 3429 
Q 1863 3584 2222 3584 
Q 2756 3584 3020 3232 
Q 3284 2881 3284 2169 
z
" transform="scale(0.015625)"/>
      </defs>
      <use xlink:href="#Menlo-Regular-56"/>
      <use xlink:href="#Menlo-Regular-5f" transform="translate(60.205078 0)"/>
      <use xlink:href="#Menlo-Regular-74" transform="translate(120.410156 0)"/>
      <use xlink:href="#Menlo-Regular-68" transform="translate(180.615234 0)"/>
     </g>
    </g>
   </g>
  </g>
 </g>
 <defs>
  <clipPath id="p9510970f97">
   <rect x="29.457656" y="13.54125" width="236.625003" height="111.42"/>
  </clipPath>
 </defs>
</svg>
