<?xml version="1.0" encoding="utf-8" standalone="no"?>
<!DOCTYPE svg PUBLIC "-//W3C//DTD SVG 1.1//EN"
  "http://www.w3.org/Graphics/SVG/1.1/DTD/svg11.dtd">
<svg xmlns:xlink="http://www.w3.org/1999/xlink" width="274.133047pt" height="148.460625pt" viewBox="0 0 274.133047 148.460625" xmlns="http://www.w3.org/2000/svg" version="1.1">
 <metadata>
  <rdf:RDF xmlns:dc="http://purl.org/dc/elements/1.1/" xmlns:cc="http://creativecommons.org/ns#" xmlns:rdf="http://www.w3.org/1999/02/22-rdf-syntax-ns#">
   <cc:Work>
    <dc:type rdf:resource="http://purl.org/dc/dcmitype/StillImage"/>
    <dc:date>2026-07-02T15:46:18.260691</dc:date>
    <dc:format>image/svg+xml</dc:format>
    <dc:creator>
     <cc:Agent>
      <dc:title>Matplotlib v3.10.8, https://matplotlib.org/</dc:title>
     </cc:Agent>
    </dc:creator>
   </cc:Work>
  </rdf:RDF>
 </metadata>
 <defs>
  <style type="text/css">*{stroke-linejoin: round; stroke-linecap: butt}</style>
 </defs>
 <g id="figure_1">
  <g id="patch_1">
   <path d="M 0 148.460625 
L 274.133047 148.460625 
L 274.133047 0 
L 0 0 
z
" style="fill: #ffffff"/>
  </g>
  <g id="axes_1">
   <g id="patch_2">
    <path d="M 21.286719 124.96125 
L 266.371722 124.96125 
L 266.371722 13.90125 
L 21.286719 13.90125 
z
" style="fill: #ffffff"/>
   </g>
   <g id="matplotlib.axis_1">
    <g id="xtick_1">
     <g id="line2d_1">
      <defs>
       <path id="m125fb7f243" d="M 0 0 
L 0 -3 
" style="stroke: #1a1a1a; stroke-width: 0.8"/>
      </defs>
      <g>
       <use xlink:href="#m125fb7f243" x="21.286719" y="124.96125" style="fill: #1a1a1a; stroke: #1a1a1a; stroke-width: 0.8"/>
      </g>
     </g>
     <g id="text_1">
      <!-- 0 -->
      <g style="fill: #1a1a1a" transform="translate(19.179609 133.799844) scale(0.07 -0.07)">
       <defs>
        <path id="Menlo-Regular-30" d="M 1925 4734 
Q 2672 4734 3055 4125 
Q 3438 3516 3438 2322 
Q 3438 1128 3055 518 
Q 2672 -91 1925 -91 
Q 1178 -91 797 518 
Q 416 1128 416 2322 
Q 416 3516 797 4125 
Q 1178 4734 1925 4734 
z
M 1925 409 
Q 2369 409 2586 881 
Q 2803 1353 2803 2322 
Q 2803 2838 2741 3253 
L 1253 925 
Q 1488 409 1925 409 
z
M 1925 4234 
Q 1484 4234 1267 3762 
Q 1050 3291 1050 2322 
Q 1050 1881 1109 1497 
L 2566 3819 
Q 2328 4234 1925 4234 
z
" transform="scale(0.015625)"/>
       </defs>
       <use xlink:href="#Menlo-Regular-30"/>
      </g>
     </g>
    </g>
    <g id="xtick_2">
     <g id="line2d_2">
      <g>
       <use xlink:href="#m125fb7f243" x="51.922344" y="124.96125" style="fill: #1a1a1a; stroke: #1a1a1a; stroke-width: 0.8"/>
      </g>
     </g>
     <g id="text_2">
      <!-- 50 -->
      <g style="fill: #1a1a1a" transform="translate(47.708125 133.799844) scale(0.07 -0.07)">
       <defs>
        <path id="Menlo-Regular-35" d="M 647 4666 
L 3009 4666 
L 3009 4134 
L 1222 4134 
L 1222 2988 
Q 1356 3038 1492 3061 
Q 1628 3084 1766 3084 
Q 2491 3084 2916 2656 
Q 3341 2228 3341 1497 
Q 3341 759 2895 334 
Q 2450 -91 1678 -91 
Q 1306 -91 998 -41 
Q 691 9 447 109 
L 447 750 
Q 734 594 1025 517 
Q 1316 441 1619 441 
Q 2141 441 2423 716 
Q 2706 991 2706 1497 
Q 2706 1997 2414 2275 
Q 2122 2553 1600 2553 
Q 1347 2553 1106 2495 
Q 866 2438 647 2322 
L 647 4666 
z
" transform="scale(0.015625)"/>
       </defs>
       <use xlink:href="#Menlo-Regular-35"/>
       <use xlink:href="#Menlo-Regular-30" transform="translate(60.205078 0)"/>
      </g>
     </g>
    </g>
    <g id="xtick_3">
     <g id="line2d_3">
      <g>
       <use xlink:href="#m125fb7f243" x="82.557969" y="124.96125" style="fill: #1a1a1a; stroke: #1a1a1a; stroke-width: 0.8"/>
      </g>
     </g>
     <g id="text_3">
      <!-- 100 -->
      <g style="fill: #1a1a1a" transform="translate(76.236641 133.799844) scale(0.07 -0.07)">
       <defs>
        <path id="Menlo-Regular-31" d="M 844 528 
L 1825 528 
L 1825 4053 
L 650 3488 
L 650 4094 
L 1819 4650 
L 2450 4650 
L 2450 528 
L 3419 528 
L 3419 0 
L 844 0 
L 844 528 
z
" transform="scale(0.015625)"/>
       </defs>
       <use xlink:href="#Menlo-Regular-31"/>
       <use xlink:href="#Menlo-Regular-30" transform="translate(60.205078 0)"/>
       <use xlink:href="#Menlo-Regular-30" transform="translate(120.410156 0)"/>
      </g>
     </g>
    </g>
    <g id="xtick_4">
     <g id="line2d_4">
      <g>
       <use xlink:href="#m125fb7f243" x="113.193594" y="124.96125" style="fill: #1a1a1a; stroke: #1a1a1a; stroke-width: 0.8"/>
      </g>
     </g>
     <g id="text_4">
      <!-- 150 -->
      <g style="fill: #1a1a1a" transform="translate(106.872266 133.799844) scale(0.07 -0.07)">
       <use xlink:href="#Menlo-Regular-31"/>
       <use xlink:href="#Menlo-Regular-35" transform="translate(60.205078 0)"/>
       <use xlink:href="#Menlo-Regular-30" transform="translate(120.410156 0)"/>
      </g>
     </g>
    </g>
    <g id="xtick_5">
     <g id="line2d_5">
      <g>
       <use xlink:href="#m125fb7f243" x="143.829219" y="124.96125" style="fill: #1a1a1a; stroke: #1a1a1a; stroke-width: 0.8"/>
      </g>
     </g>
     <g id="text_5">
      <!-- 200 -->
      <g style="fill: #1a1a1a" transform="translate(137.50789 133.799844) scale(0.07 -0.07)">
       <defs>
        <path id="Menlo-Regular-32" d="M 1166 531 
L 3309 531 
L 3309 0 
L 475 0 
L 475 531 
Q 1059 1147 1496 1619 
Q 1934 2091 2100 2284 
Q 2413 2666 2522 2902 
Q 2631 3138 2631 3384 
Q 2631 3775 2401 3997 
Q 2172 4219 1772 4219 
Q 1488 4219 1175 4116 
Q 863 4013 513 3803 
L 513 4441 
Q 834 4594 1145 4672 
Q 1456 4750 1759 4750 
Q 2444 4750 2861 4386 
Q 3278 4022 3278 3431 
Q 3278 3131 3139 2831 
Q 3000 2531 2688 2169 
Q 2513 1966 2180 1606 
Q 1847 1247 1166 531 
z
" transform="scale(0.015625)"/>
       </defs>
       <use xlink:href="#Menlo-Regular-32"/>
       <use xlink:href="#Menlo-Regular-30" transform="translate(60.205078 0)"/>
       <use xlink:href="#Menlo-Regular-30" transform="translate(120.410156 0)"/>
      </g>
     </g>
    </g>
    <g id="xtick_6">
     <g id="line2d_6">
      <g>
       <use xlink:href="#m125fb7f243" x="174.464844" y="124.96125" style="fill: #1a1a1a; stroke: #1a1a1a; stroke-width: 0.8"/>
      </g>
     </g>
     <g id="text_6">
      <!-- 250 -->
      <g style="fill: #1a1a1a" transform="translate(168.143515 133.799844) scale(0.07 -0.07)">
       <use xlink:href="#Menlo-Regular-32"/>
       <use xlink:href="#Menlo-Regular-35" transform="translate(60.205078 0)"/>
       <use xlink:href="#Menlo-Regular-30" transform="translate(120.410156 0)"/>
      </g>
     </g>
    </g>
    <g id="xtick_7">
     <g id="line2d_7">
      <g>
       <use xlink:href="#m125fb7f243" x="205.100469" y="124.96125" style="fill: #1a1a1a; stroke: #1a1a1a; stroke-width: 0.8"/>
      </g>
     </g>
     <g id="text_7">
      <!-- 300 -->
      <g style="fill: #1a1a1a" transform="translate(198.77914 133.799844) scale(0.07 -0.07)">
       <defs>
        <path id="Menlo-Regular-33" d="M 2425 2497 
Q 2884 2375 3128 2064 
Q 3372 1753 3372 1288 
Q 3372 644 2939 276 
Q 2506 -91 1741 -91 
Q 1419 -91 1084 -31 
Q 750 28 428 141 
L 428 769 
Q 747 603 1056 522 
Q 1366 441 1672 441 
Q 2191 441 2469 675 
Q 2747 909 2747 1350 
Q 2747 1756 2469 1995 
Q 2191 2234 1716 2234 
L 1234 2234 
L 1234 2753 
L 1716 2753 
Q 2150 2753 2394 2943 
Q 2638 3134 2638 3475 
Q 2638 3834 2411 4026 
Q 2184 4219 1766 4219 
Q 1488 4219 1191 4156 
Q 894 4094 569 3969 
L 569 4550 
Q 947 4650 1242 4700 
Q 1538 4750 1766 4750 
Q 2447 4750 2855 4408 
Q 3263 4066 3263 3500 
Q 3263 3116 3048 2859 
Q 2834 2603 2425 2497 
z
" transform="scale(0.015625)"/>
       </defs>
       <use xlink:href="#Menlo-Regular-33"/>
       <use xlink:href="#Menlo-Regular-30" transform="translate(60.205078 0)"/>
       <use xlink:href="#Menlo-Regular-30" transform="translate(120.410156 0)"/>
      </g>
     </g>
    </g>
    <g id="xtick_8">
     <g id="line2d_8">
      <g>
       <use xlink:href="#m125fb7f243" x="235.736093" y="124.96125" style="fill: #1a1a1a; stroke: #1a1a1a; stroke-width: 0.8"/>
      </g>
     </g>
     <g id="text_8">
      <!-- 350 -->
      <g style="fill: #1a1a1a" transform="translate(229.414765 133.799844) scale(0.07 -0.07)">
       <use xlink:href="#Menlo-Regular-33"/>
       <use xlink:href="#Menlo-Regular-35" transform="translate(60.205078 0)"/>
       <use xlink:href="#Menlo-Regular-30" transform="translate(120.410156 0)"/>
      </g>
     </g>
    </g>
    <g id="xtick_9">
     <g id="line2d_9">
      <g>
       <use xlink:href="#m125fb7f243" x="266.371718" y="124.96125" style="fill: #1a1a1a; stroke: #1a1a1a; stroke-width: 0.8"/>
      </g>
     </g>
     <g id="text_9">
      <!-- 400 -->
      <g style="fill: #1a1a1a" transform="translate(260.05039 133.799844) scale(0.07 -0.07)">
       <defs>
        <path id="Menlo-Regular-34" d="M 2297 4091 
L 825 1625 
L 2297 1625 
L 2297 4091 
z
M 2194 4666 
L 2925 4666 
L 2925 1625 
L 3547 1625 
L 3547 1113 
L 2925 1113 
L 2925 0 
L 2297 0 
L 2297 1113 
L 319 1113 
L 319 1709 
L 2194 4666 
z
" transform="scale(0.015625)"/>
       </defs>
       <use xlink:href="#Menlo-Regular-34"/>
       <use xlink:href="#Menlo-Regular-30" transform="translate(60.205078 0)"/>
       <use xlink:href="#Menlo-Regular-30" transform="translate(120.410156 0)"/>
      </g>
     </g>
    </g>
    <g id="text_10">
     <!-- time (ms) -->
     <g style="fill: #1a1a1a" transform="translate(122.156095 145.356875) scale(0.08 -0.08)">
      <defs>
       <path id="Menlo-Regular-74" d="M 1919 4494 
L 1919 3500 
L 3225 3500 
L 3225 3053 
L 1919 3053 
L 1919 1153 
Q 1919 766 2066 612 
Q 2213 459 2578 459 
L 3225 459 
L 3225 0 
L 2522 0 
Q 1875 0 1609 259 
Q 1344 519 1344 1153 
L 1344 3053 
L 409 3053 
L 409 3500 
L 1344 3500 
L 1344 4494 
L 1919 4494 
z
" transform="scale(0.015625)"/>
       <path id="Menlo-Regular-69" d="M 988 3488 
L 2459 3488 
L 2459 447 
L 3600 447 
L 3600 0 
L 744 0 
L 744 447 
L 1884 447 
L 1884 3041 
L 988 3041 
L 988 3488 
z
M 1884 4847 
L 2459 4847 
L 2459 4122 
L 1884 4122 
L 1884 4847 
z
" transform="scale(0.015625)"/>
       <path id="Menlo-Regular-6d" d="M 2113 3144 
Q 2219 3369 2383 3476 
Q 2547 3584 2778 3584 
Q 3200 3584 3373 3257 
Q 3547 2931 3547 2028 
L 3547 0 
L 3022 0 
L 3022 2003 
Q 3022 2744 2939 2923 
Q 2856 3103 2638 3103 
Q 2388 3103 2295 2911 
Q 2203 2719 2203 2003 
L 2203 0 
L 1678 0 
L 1678 2003 
Q 1678 2753 1589 2928 
Q 1500 3103 1269 3103 
Q 1041 3103 952 2911 
Q 863 2719 863 2003 
L 863 0 
L 341 0 
L 341 3500 
L 863 3500 
L 863 3200 
Q 966 3388 1120 3486 
Q 1275 3584 1472 3584 
Q 1709 3584 1867 3475 
Q 2025 3366 2113 3144 
z
" transform="scale(0.015625)"/>
       <path id="Menlo-Regular-65" d="M 3500 2038 
L 3500 1756 
L 1009 1756 
L 1009 1738 
Q 984 1022 1282 709 
Q 1581 397 2125 397 
Q 2400 397 2700 484 
Q 3000 572 3341 750 
L 3341 178 
Q 3013 44 2708 -23 
Q 2403 -91 2119 -91 
Q 1303 -91 843 398 
Q 384 888 384 1747 
Q 384 2584 834 3084 
Q 1284 3584 2034 3584 
Q 2703 3584 3089 3131 
Q 3475 2678 3500 2038 
z
M 2925 2206 
Q 2888 2569 2661 2833 
Q 2434 3097 2009 3097 
Q 1594 3097 1325 2822 
Q 1056 2547 1031 2203 
L 2925 2206 
z
" transform="scale(0.015625)"/>
       <path id="Menlo-Regular-20" transform="scale(0.015625)"/>
       <path id="Menlo-Regular-28" d="M 2672 5169 
Q 2256 4456 2051 3748 
Q 1847 3041 1847 2322 
Q 1847 1606 2051 897 
Q 2256 188 2672 -531 
L 2172 -531 
Q 1700 213 1469 917 
Q 1238 1622 1238 2322 
Q 1238 3019 1469 3725 
Q 1700 4431 2172 5169 
L 2672 5169 
z
" transform="scale(0.015625)"/>
       <path id="Menlo-Regular-73" d="M 3041 3378 
L 3041 2816 
Q 2794 2959 2544 3031 
Q 2294 3103 2034 3103 
Q 1644 3103 1451 2976 
Q 1259 2850 1259 2591 
Q 1259 2356 1403 2240 
Q 1547 2125 2119 2016 
L 2350 1972 
Q 2778 1891 2998 1647 
Q 3219 1403 3219 1013 
Q 3219 494 2850 201 
Q 2481 -91 1825 -91 
Q 1566 -91 1281 -36 
Q 997 19 666 128 
L 666 722 
Q 988 556 1281 473 
Q 1575 391 1838 391 
Q 2219 391 2428 545 
Q 2638 700 2638 978 
Q 2638 1378 1872 1531 
L 1847 1538 
L 1631 1581 
Q 1134 1678 906 1908 
Q 678 2138 678 2534 
Q 678 3038 1018 3311 
Q 1359 3584 1991 3584 
Q 2272 3584 2531 3532 
Q 2791 3481 3041 3378 
z
" transform="scale(0.015625)"/>
       <path id="Menlo-Regular-29" d="M 1088 5169 
L 1588 5169 
Q 2059 4431 2290 3725 
Q 2522 3019 2522 2322 
Q 2522 1619 2290 912 
Q 2059 206 1588 -531 
L 1088 -531 
Q 1503 194 1708 903 
Q 1913 1613 1913 2322 
Q 1913 3034 1708 3743 
Q 1503 4453 1088 5169 
z
" transform="scale(0.015625)"/>
      </defs>
      <use xlink:href="#Menlo-Regular-74"/>
      <use xlink:href="#Menlo-Regular-69" transform="translate(60.205078 0)"/>
      <use xlink:href="#Menlo-Regular-6d" transform="translate(120.410156 0)"/>
      <use xlink:href="#Menlo-Regular-65" transform="translate(180.615234 0)"/>
      <use xlink:href="#Menlo-Regular-20" transform="translate(240.820312 0)"/>
      <use xlink:href="#Menlo-Regular-28" transform="translate(301.025391 0)"/>
      <use xlink:href="#Menlo-Regular-6d" transform="translate(361.230469 0)"/>
      <use xlink:href="#Menlo-Regular-73" transform="translate(421.435547 0)"/>
      <use xlink:href="#Menlo-Regular-29" transform="translate(481.640625 0)"/>
     </g>
    </g>
   </g>
   <g id="matplotlib.axis_2">
    <g id="ytick_1">
     <g id="line2d_10">
      <defs>
       <path id="m357937ba2f" d="M 0 0 
L 3 0 
" style="stroke: #1a1a1a; stroke-width: 0.8"/>
      </defs>
      <g>
       <use xlink:href="#m357937ba2f" x="21.286719" y="110.823024" style="fill: #1a1a1a; stroke: #1a1a1a; stroke-width: 0.8"/>
      </g>
     </g>
     <g id="text_11">
      <!-- 0 -->
      <g style="fill: #1a1a1a" transform="translate(13.5725 113.492321) scale(0.07 -0.07)">
       <use xlink:href="#Menlo-Regular-30"/>
      </g>
     </g>
    </g>
    <g id="ytick_2">
     <g id="line2d_11">
      <g>
       <use xlink:href="#m357937ba2f" x="21.286719" y="86.579505" style="fill: #1a1a1a; stroke: #1a1a1a; stroke-width: 0.8"/>
      </g>
     </g>
     <g id="text_12">
      <!-- 2 -->
      <g style="fill: #1a1a1a" transform="translate(13.5725 89.248801) scale(0.07 -0.07)">
       <use xlink:href="#Menlo-Regular-32"/>
      </g>
     </g>
    </g>
    <g id="ytick_3">
     <g id="line2d_12">
      <g>
       <use xlink:href="#m357937ba2f" x="21.286719" y="62.335985" style="fill: #1a1a1a; stroke: #1a1a1a; stroke-width: 0.8"/>
      </g>
     </g>
     <g id="text_13">
      <!-- 4 -->
      <g style="fill: #1a1a1a" transform="translate(13.5725 65.005282) scale(0.07 -0.07)">
       <use xlink:href="#Menlo-Regular-34"/>
      </g>
     </g>
    </g>
    <g id="ytick_4">
     <g id="line2d_13">
      <g>
       <use xlink:href="#m357937ba2f" x="21.286719" y="38.092465" style="fill: #1a1a1a; stroke: #1a1a1a; stroke-width: 0.8"/>
      </g>
     </g>
     <g id="text_14">
      <!-- 6 -->
      <g style="fill: #1a1a1a" transform="translate(13.5725 40.761762) scale(0.07 -0.07)">
       <defs>
        <path id="Menlo-Regular-36" d="M 3097 4563 
L 3097 3981 
Q 2900 4097 2678 4158 
Q 2456 4219 2216 4219 
Q 1616 4219 1306 3767 
Q 997 3316 997 2438 
Q 1147 2750 1412 2917 
Q 1678 3084 2022 3084 
Q 2697 3084 3067 2670 
Q 3438 2256 3438 1497 
Q 3438 741 3056 325 
Q 2675 -91 1984 -91 
Q 1172 -91 794 492 
Q 416 1075 416 2328 
Q 416 3509 870 4129 
Q 1325 4750 2188 4750 
Q 2419 4750 2650 4701 
Q 2881 4653 3097 4563 
z
M 1972 2591 
Q 1569 2591 1337 2300 
Q 1106 2009 1106 1497 
Q 1106 984 1337 693 
Q 1569 403 1972 403 
Q 2391 403 2603 679 
Q 2816 956 2816 1497 
Q 2816 2041 2603 2316 
Q 2391 2591 1972 2591 
z
" transform="scale(0.015625)"/>
       </defs>
       <use xlink:href="#Menlo-Regular-36"/>
      </g>
     </g>
    </g>
    <g id="text_15">
     <!-- I in  [+ depol. / − hyperpol.] -->
     <g style="fill: #1a1a1a" transform="translate(7.90875 141.675) rotate(-90) scale(0.08 -0.08)">
      <defs>
       <path id="Menlo-Regular-49" d="M 628 4666 
L 3219 4666 
L 3219 4134 
L 2241 4134 
L 2241 531 
L 3219 531 
L 3219 0 
L 628 0 
L 628 531 
L 1606 531 
L 1606 4134 
L 628 4134 
L 628 4666 
z
" transform="scale(0.015625)"/>
       <path id="Menlo-Regular-6e" d="M 3284 2169 
L 3284 0 
L 2706 0 
L 2706 2169 
Q 2706 2641 2540 2862 
Q 2375 3084 2022 3084 
Q 1619 3084 1401 2798 
Q 1184 2513 1184 1978 
L 1184 0 
L 609 0 
L 609 3500 
L 1184 3500 
L 1184 2975 
Q 1338 3275 1600 3429 
Q 1863 3584 2222 3584 
Q 2756 3584 3020 3232 
Q 3284 2881 3284 2169 
z
" transform="scale(0.015625)"/>
       <path id="Menlo-Regular-5b" d="M 1759 5175 
L 3084 5175 
L 3084 4728 
L 2334 4728 
L 2334 -84 
L 3084 -84 
L 3084 -531 
L 1759 -531 
L 1759 5175 
z
" transform="scale(0.015625)"/>
       <path id="Menlo-Regular-2b" d="M 2250 3681 
L 2250 2297 
L 3641 2297 
L 3641 1769 
L 2250 1769 
L 2250 384 
L 1725 384 
L 1725 1769 
L 338 1769 
L 338 2297 
L 1725 2297 
L 1725 3681 
L 2250 3681 
z
" transform="scale(0.015625)"/>
       <path id="Menlo-Regular-64" d="M 2681 3053 
L 2681 4863 
L 3256 4863 
L 3256 0 
L 2681 0 
L 2681 441 
Q 2538 181 2298 45 
Q 2059 -91 1747 -91 
Q 1113 -91 748 401 
Q 384 894 384 1759 
Q 384 2613 750 3098 
Q 1116 3584 1747 3584 
Q 2063 3584 2303 3448 
Q 2544 3313 2681 3053 
z
M 991 1747 
Q 991 1078 1203 737 
Q 1416 397 1831 397 
Q 2247 397 2464 740 
Q 2681 1084 2681 1747 
Q 2681 2413 2464 2755 
Q 2247 3097 1831 3097 
Q 1416 3097 1203 2756 
Q 991 2416 991 1747 
z
" transform="scale(0.015625)"/>
       <path id="Menlo-Regular-70" d="M 1172 441 
L 1172 -1331 
L 594 -1331 
L 594 3500 
L 1172 3500 
L 1172 3053 
Q 1316 3313 1555 3448 
Q 1794 3584 2106 3584 
Q 2741 3584 3102 3093 
Q 3463 2603 3463 1734 
Q 3463 881 3100 395 
Q 2738 -91 2106 -91 
Q 1788 -91 1548 45 
Q 1309 181 1172 441 
z
M 2859 1747 
Q 2859 2416 2648 2756 
Q 2438 3097 2022 3097 
Q 1603 3097 1387 2755 
Q 1172 2413 1172 1747 
Q 1172 1084 1387 740 
Q 1603 397 2022 397 
Q 2438 397 2648 737 
Q 2859 1078 2859 1747 
z
" transform="scale(0.015625)"/>
       <path id="Menlo-Regular-6f" d="M 1925 3097 
Q 1488 3097 1263 2756 
Q 1038 2416 1038 1747 
Q 1038 1081 1263 739 
Q 1488 397 1925 397 
Q 2366 397 2591 739 
Q 2816 1081 2816 1747 
Q 2816 2416 2591 2756 
Q 2366 3097 1925 3097 
z
M 1925 3584 
Q 2653 3584 3039 3112 
Q 3425 2641 3425 1747 
Q 3425 850 3040 379 
Q 2656 -91 1925 -91 
Q 1197 -91 812 379 
Q 428 850 428 1747 
Q 428 2641 812 3112 
Q 1197 3584 1925 3584 
z
" transform="scale(0.015625)"/>
       <path id="Menlo-Regular-6c" d="M 2247 1266 
Q 2247 878 2389 681 
Q 2531 484 2809 484 
L 3481 484 
L 3481 0 
L 2753 0 
Q 2238 0 1955 329 
Q 1672 659 1672 1266 
L 1672 4431 
L 750 4431 
L 750 4881 
L 2247 4881 
L 2247 1266 
z
" transform="scale(0.015625)"/>
       <path id="Menlo-Regular-2e" d="M 1216 1263 
L 2316 1263 
L 2316 0 
L 1216 0 
L 1216 1263 
z
" transform="scale(0.015625)"/>
       <path id="Menlo-Regular-2f" d="M 2778 4666 
L 3372 4666 
L 916 -594 
L 319 -594 
L 2778 4666 
z
" transform="scale(0.015625)"/>
       <path id="Menlo-Regular-2212" d="M 275 2272 
L 3578 2272 
L 3578 1741 
L 275 1741 
L 275 2272 
z
" transform="scale(0.015625)"/>
       <path id="Menlo-Regular-68" d="M 3284 2169 
L 3284 0 
L 2706 0 
L 2706 2169 
Q 2706 2641 2540 2862 
Q 2375 3084 2022 3084 
Q 1619 3084 1401 2798 
Q 1184 2513 1184 1978 
L 1184 0 
L 609 0 
L 609 4863 
L 1184 4863 
L 1184 2975 
Q 1338 3275 1600 3429 
Q 1863 3584 2222 3584 
Q 2756 3584 3020 3232 
Q 3284 2881 3284 2169 
z
" transform="scale(0.015625)"/>
       <path id="Menlo-Regular-79" d="M 2681 1125 
Q 2538 759 2316 163 
Q 2006 -663 1900 -844 
Q 1756 -1088 1540 -1209 
Q 1325 -1331 1038 -1331 
L 575 -1331 
L 575 -850 
L 916 -850 
Q 1169 -850 1312 -703 
Q 1456 -556 1678 56 
L 325 3500 
L 934 3500 
L 1972 763 
L 2994 3500 
L 3603 3500 
L 2681 1125 
z
" transform="scale(0.015625)"/>
       <path id="Menlo-Regular-72" d="M 3609 2778 
Q 3425 2922 3234 2987 
Q 3044 3053 2816 3053 
Q 2278 3053 1993 2715 
Q 1709 2378 1709 1741 
L 1709 0 
L 1131 0 
L 1131 3500 
L 1709 3500 
L 1709 2816 
Q 1853 3188 2151 3386 
Q 2450 3584 2859 3584 
Q 3072 3584 3256 3531 
Q 3441 3478 3609 3366 
L 3609 2778 
z
" transform="scale(0.015625)"/>
       <path id="Menlo-Regular-5d" d="M 2250 5175 
L 2250 -531 
L 925 -531 
L 925 -84 
L 1675 -84 
L 1675 4728 
L 925 4728 
L 925 5175 
L 2250 5175 
z
" transform="scale(0.015625)"/>
      </defs>
      <use xlink:href="#Menlo-Regular-49"/>
      <use xlink:href="#Menlo-Regular-20" transform="translate(60.205078 0)"/>
      <use xlink:href="#Menlo-Regular-69" transform="translate(120.410156 0)"/>
      <use xlink:href="#Menlo-Regular-6e" transform="translate(180.615234 0)"/>
      <use xlink:href="#Menlo-Regular-20" transform="translate(240.820312 0)"/>
      <use xlink:href="#Menlo-Regular-20" transform="translate(301.025391 0)"/>
      <use xlink:href="#Menlo-Regular-5b" transform="translate(361.230469 0)"/>
      <use xlink:href="#Menlo-Regular-2b" transform="translate(421.435547 0)"/>
      <use xlink:href="#Menlo-Regular-20" transform="translate(481.640625 0)"/>
      <use xlink:href="#Menlo-Regular-64" transform="translate(541.845703 0)"/>
      <use xlink:href="#Menlo-Regular-65" transform="translate(602.050781 0)"/>
      <use xlink:href="#Menlo-Regular-70" transform="translate(662.255859 0)"/>
      <use xlink:href="#Menlo-Regular-6f" transform="translate(722.460938 0)"/>
      <use xlink:href="#Menlo-Regular-6c" transform="translate(782.666016 0)"/>
      <use xlink:href="#Menlo-Regular-2e" transform="translate(842.871094 0)"/>
      <use xlink:href="#Menlo-Regular-20" transform="translate(903.076172 0)"/>
      <use xlink:href="#Menlo-Regular-2f" transform="translate(963.28125 0)"/>
      <use xlink:href="#Menlo-Regular-20" transform="translate(1023.486328 0)"/>
      <use xlink:href="#Menlo-Regular-2212" transform="translate(1083.691406 0)"/>
      <use xlink:href="#Menlo-Regular-20" transform="translate(1143.896484 0)"/>
      <use xlink:href="#Menlo-Regular-68" transform="translate(1204.101562 0)"/>
      <use xlink:href="#Menlo-Regular-79" transform="translate(1264.306641 0)"/>
      <use xlink:href="#Menlo-Regular-70" transform="translate(1324.511719 0)"/>
      <use xlink:href="#Menlo-Regular-65" transform="translate(1384.716797 0)"/>
      <use xlink:href="#Menlo-Regular-72" transform="translate(1444.921875 0)"/>
      <use xlink:href="#Menlo-Regular-70" transform="translate(1505.126953 0)"/>
      <use xlink:href="#Menlo-Regular-6f" transform="translate(1565.332031 0)"/>
      <use xlink:href="#Menlo-Regular-6c" transform="translate(1625.537109 0)"/>
      <use xlink:href="#Menlo-Regular-2e" transform="translate(1685.742188 0)"/>
      <use xlink:href="#Menlo-Regular-5d" transform="translate(1745.947266 0)"/>
     </g>
    </g>
   </g>
   <g id="line2d_14">
    <path d="M 21.286719 110.823024 
L 266.371722 110.823024 
" clip-path="url(#pbdba819e7d)" style="fill: none; stroke: #bbbbbb; stroke-width: 0.5; stroke-linejoin: miter"/>
   </g>
   <g id="line2d_15">
    <path d="M 21.286719 110.823024 
L 22.083245 110.823024 
L 22.144516 93.767219 
L 22.205788 94.632226 
L 22.757229 100.643336 
L 23.30867 104.385582 
L 23.860111 106.737177 
L 24.411553 108.223752 
L 25.024265 109.247888 
L 25.636978 109.867505 
L 26.372233 110.298124 
L 27.352573 110.586726 
L 27.965285 110.679513 
L 28.026556 91.223652 
L 28.087828 92.221861 
L 28.149099 93.166927 
L 28.21037 74.96305 
L 28.271641 76.857977 
L 28.823083 89.785751 
L 29.006896 92.835149 
L 29.068168 72.347252 
L 29.129439 74.391727 
L 29.497066 84.430603 
L 29.558338 75.62367 
L 29.619609 77.478835 
L 29.68088 79.228144 
L 29.742151 63.001607 
L 29.803423 65.599924 
L 30.293593 81.567876 
L 30.599949 88.358021 
L 30.66122 77.501138 
L 30.722491 79.246649 
L 30.783763 80.892944 
L 31.028848 26.564883 
L 31.15139 36.266796 
L 31.212661 18.949432 
L 31.273933 23.430158 
L 31.764103 52.241822 
L 31.825374 41.49519 
L 31.886645 44.876344 
L 32.376815 68.885547 
L 32.438086 71.13193 
L 32.499358 54.494254 
L 32.560629 57.610038 
L 33.050799 76.643575 
L 33.60224 89.63377 
L 34.153681 97.507885 
L 34.705123 102.384725 
L 35.256564 105.447267 
L 35.808005 107.387383 
L 36.420718 108.729324 
L 37.03343 109.545538 
L 37.707414 110.080651 
L 38.50394 110.43207 
L 39.606823 110.66219 
L 40.219535 110.724864 
L 40.280807 84.865377 
L 40.342078 86.202517 
L 40.893519 95.412816 
L 41.44496 101.083203 
L 41.567503 102.019182 
L 41.628774 86.720376 
L 41.690045 87.954339 
L 42.180215 95.716674 
L 42.241487 82.154816 
L 42.302758 83.638939 
L 42.854199 93.828893 
L 43.40564 100.078321 
L 43.957082 103.981915 
L 44.508523 106.448779 
L 45.059964 108.019081 
L 45.121235 85.88999 
L 45.182507 87.166515 
L 45.733948 95.968318 
L 46.285389 101.401547 
L 46.34666 84.752578 
L 46.407932 86.089999 
L 46.959373 95.298755 
L 47.510814 100.973979 
L 47.694628 102.346438 
L 47.755899 85.880794 
L 47.81717 87.154732 
L 47.939713 89.497874 
L 48.000984 84.47461 
L 48.062255 85.759634 
L 48.491154 93.161147 
L 48.552425 67.318612 
L 48.613697 69.440347 
L 49.226409 86.573375 
L 49.77785 95.673233 
L 50.329292 101.27369 
L 50.880733 104.769948 
L 51.003275 105.350238 
L 51.064547 87.560659 
L 51.125818 88.753265 
L 51.677259 96.991716 
L 52.2287 102.081787 
L 52.596328 104.365875 
L 52.657599 85.363694 
L 52.71887 86.674053 
L 53.270312 95.704862 
L 53.821753 101.268424 
L 54.311923 104.436645 
L 54.373194 78.223882 
L 54.434465 79.929999 
L 54.985907 91.59539 
L 55.108449 93.485221 
L 55.230992 61.709803 
L 55.292263 64.389431 
L 55.353534 66.905924 
L 55.414805 44.516029 
L 55.476077 48.295213 
L 55.843704 66.395784 
L 55.904975 55.938252 
L 55.966247 58.615013 
L 56.517688 77.533712 
L 57.1304 91.184088 
L 57.436757 95.683645 
L 57.498028 75.282057 
L 57.559299 77.15875 
L 58.11074 89.96596 
L 58.662182 97.737862 
L 59.213623 102.548638 
L 59.765064 105.564803 
L 60.316506 107.471286 
L 60.867947 108.682553 
L 60.990489 108.88525 
L 61.051761 96.710586 
L 61.113032 97.416864 
L 61.664473 102.344406 
L 62.215914 105.433322 
L 62.767356 107.38607 
L 63.012441 108.007084 
L 63.073712 89.020475 
L 63.134983 90.132083 
L 63.380068 94.014843 
L 63.441339 75.791906 
L 63.502611 77.637031 
L 63.625153 81.018156 
L 63.686424 64.998333 
L 63.747696 67.476724 
L 63.992781 76.006319 
L 64.054052 61.6448 
L 64.115323 64.327936 
L 64.605493 80.774992 
L 64.789307 85.195022 
L 64.850578 72.487087 
L 64.911849 74.521002 
L 65.218206 83.05999 
L 65.279477 76.57622 
L 65.340748 78.246454 
L 65.708376 86.689702 
L 65.830918 42.932488 
L 65.892189 46.243547 
L 66.566173 75.670804 
L 67.117614 89.070068 
L 67.669056 97.182559 
L 68.220497 102.19803 
L 68.771938 105.340903 
L 69.323379 107.327329 
L 69.384651 85.533629 
L 69.445922 86.834231 
L 69.997363 95.799328 
L 70.548804 101.324414 
L 70.916432 103.80188 
L 70.977703 78.285926 
L 71.038974 79.988245 
L 71.590416 91.627635 
L 72.080586 98.090462 
L 72.141857 78.803893 
L 72.203128 80.475167 
L 72.754569 91.90434 
L 73.306011 98.87574 
L 73.857452 103.217715 
L 74.408893 105.958175 
L 74.960334 107.702251 
L 75.144148 108.130448 
L 75.205419 90.64815 
L 75.266691 91.666296 
L 75.818132 98.72714 
L 76.369573 103.123232 
L 76.921015 105.897431 
L 77.472456 107.662948 
L 78.085168 108.889585 
L 78.697881 109.638962 
L 79.371865 110.132348 
L 80.229662 110.475282 
L 80.781103 110.599388 
L 80.842375 89.750603 
L 80.903646 90.819489 
L 81.455087 98.222793 
L 81.945257 102.409128 
L 82.006528 91.685955 
L 82.0678 92.650432 
L 82.312885 96.025428 
L 82.374156 77.116671 
L 82.435427 78.883415 
L 82.986868 90.940211 
L 83.53831 98.273687 
L 84.089751 102.834528 
L 84.641192 105.711484 
L 84.702463 105.957828 
L 84.763735 91.179028 
L 84.825006 92.167463 
L 85.00882 94.829597 
L 85.192633 68.563768 
L 85.744075 83.877331 
L 85.98916 88.887462 
L 86.050431 59.699644 
L 86.111702 62.49212 
L 86.601872 79.651797 
L 87.153313 91.46276 
L 87.704755 98.656953 
L 88.256196 103.121302 
L 88.807637 105.924989 
L 89.359078 107.699196 
L 89.726706 108.506165 
L 89.91052 68.046379 
L 89.971791 70.342445 
L 90.523232 85.880037 
L 90.584503 87.159779 
L 90.645775 67.344981 
L 90.707046 69.683126 
L 91.197216 84.103085 
L 91.258487 85.4779 
L 91.319758 70.432673 
L 91.38103 72.587759 
L 91.932471 87.182404 
L 91.993742 88.386001 
L 92.055013 66.924475 
L 92.116285 69.289001 
L 92.177556 71.511778 
L 92.238827 62.212851 
L 92.300098 64.583599 
L 92.36137 66.838719 
L 92.422641 50.601053 
L 92.483912 53.538115 
L 93.096625 76.554573 
L 93.648066 89.613943 
L 94.199507 97.533021 
L 94.750948 102.429783 
L 95.30239 105.496134 
L 95.853831 107.431831 
L 96.405272 108.660037 
L 97.017985 109.508922 
L 97.691969 110.062791 
L 98.365952 110.383016 
L 98.427224 93.068722 
L 98.488495 93.967137 
L 99.039936 100.208974 
L 99.591377 104.096915 
L 100.081547 106.323924 
L 100.142819 84.218253 
L 100.20409 85.592132 
L 100.326632 88.118065 
L 100.387904 64.767525 
L 100.449175 67.258782 
L 100.816802 79.415945 
L 100.878074 62.166107 
L 100.939345 64.815956 
L 101.429515 81.079908 
L 101.980956 92.272565 
L 102.532397 99.106867 
L 103.083839 103.365535 
L 103.63528 106.053769 
L 104.186721 107.76445 
L 104.799434 108.952629 
L 105.412146 109.678178 
L 106.147401 110.187563 
L 107.005199 110.50332 
L 107.06647 110.518634 
L 107.127741 92.436993 
L 107.189012 93.362997 
L 107.740454 99.796725 
L 107.985539 101.811768 
L 108.04681 81.990933 
L 108.108081 83.483272 
L 108.659522 93.72669 
L 108.965879 97.581409 
L 109.02715 81.091398 
L 109.088421 82.63245 
L 109.639862 93.196922 
L 109.823676 95.705615 
L 109.884947 81.322657 
L 109.946219 82.849221 
L 110.00749 84.290328 
L 110.068761 78.069111 
L 110.130032 79.666539 
L 110.436389 86.558326 
L 110.620202 21.003138 
L 111.294186 62.559259 
L 111.784356 79.690864 
L 112.029441 85.666352 
L 112.090712 69.242985 
L 112.151984 71.468459 
L 112.703425 86.543518 
L 113.254866 95.603826 
L 113.806308 101.187742 
L 113.990121 102.537048 
L 114.051393 76.401528 
L 114.112664 78.209733 
L 114.296478 83.040681 
L 114.357749 60.448694 
L 114.41902 63.207512 
L 114.90919 80.081221 
L 114.970461 72.889723 
L 115.031733 74.73975 
L 115.583174 87.815307 
L 116.195886 97.132986 
L 116.747328 102.19249 
L 117.298769 105.355183 
L 117.85021 107.348091 
L 118.401651 108.610318 
L 118.708008 109.100107 
L 118.769279 88.533552 
L 118.83055 89.675232 
L 119.014364 92.745465 
L 119.075635 66.996802 
L 119.136906 69.35438 
L 119.443263 79.237519 
L 119.504534 55.980331 
L 119.565805 59.00665 
L 119.933433 73.682685 
L 119.994704 54.103617 
L 120.055975 57.252 
L 120.546145 76.431937 
L 121.097586 89.47906 
L 121.465214 95.160641 
L 121.649028 56.923841 
L 121.77157 62.700195 
L 121.832841 51.546412 
L 121.894113 54.437367 
L 122.445554 74.869927 
L 123.058266 89.659584 
L 123.609708 97.56593 
L 124.161149 102.454154 
L 124.71259 105.514166 
L 125.264031 107.445023 
L 125.815473 108.669554 
L 126.428185 109.515438 
L 127.102169 110.067012 
L 127.776153 110.385709 
L 127.837424 90.693487 
L 127.898695 91.718452 
L 128.082509 94.477639 
L 128.14378 72.510043 
L 128.205051 74.545264 
L 128.756493 88.390347 
L 129.12412 94.408526 
L 129.185391 83.26455 
L 129.246663 84.689578 
L 129.798104 94.488072 
L 129.920646 96.084527 
L 129.981918 81.112964 
L 130.043189 82.656168 
L 130.59463 93.240643 
L 130.717173 94.961003 
L 130.778444 66.909355 
L 130.839715 69.273843 
L 131.329885 83.842243 
L 131.636241 90.060697 
L 131.697513 74.618021 
L 131.758784 76.527598 
L 132.003869 83.132287 
L 132.06514 76.656872 
L 132.126412 78.323176 
L 132.677853 90.100201 
L 133.229294 97.816008 
L 133.351837 60.064565 
L 133.413108 62.835744 
L 133.780735 76.334603 
L 133.842007 62.710744 
L 133.903278 65.324178 
L 134.393448 81.404374 
L 134.454719 82.933345 
L 134.51599 67.087856 
L 134.577262 69.440784 
L 135.067432 83.961053 
L 135.128703 63.209613 
L 135.189974 65.796554 
L 135.680144 81.685524 
L 136.231585 92.633664 
L 136.783027 99.326028 
L 137.334468 103.500115 
L 137.885909 106.137052 
L 137.94718 106.362952 
L 138.008452 89.130907 
L 138.069723 90.229768 
L 138.498622 96.448597 
L 138.559893 80.405551 
L 138.621164 81.983965 
L 138.804978 86.208881 
L 138.866249 80.440388 
L 138.92752 81.922167 
L 139.478962 92.395019 
L 140.091674 99.816107 
L 140.643115 103.8683 
L 141.194557 106.411267 
L 141.562184 107.561183 
L 141.623455 85.087428 
L 141.684727 86.416682 
L 141.929812 91.049303 
L 141.991083 75.955621 
L 142.052354 77.793666 
L 142.603795 90.343966 
L 143.155237 97.966967 
L 143.706678 102.689135 
L 144.258119 105.651635 
L 144.80956 107.52523 
L 145.115917 108.252371 
L 145.177188 89.645748 
L 145.238459 90.724037 
L 145.728629 97.527007 
L 145.851172 58.869852 
L 145.912443 61.721062 
L 146.402613 79.170704 
L 146.954054 91.124774 
L 147.505495 98.399745 
L 148.056937 102.922961 
L 148.24075 104.021078 
L 148.302022 88.302911 
L 148.363293 89.446959 
L 148.914734 97.358253 
L 149.466175 102.263757 
L 149.588718 103.076954 
L 149.772532 65.092514 
L 149.833803 67.568038 
L 149.895074 57.48754 
L 149.956345 60.088738 
L 150.507787 78.473406 
L 151.120499 91.723521 
L 151.671941 98.837552 
L 152.223382 103.249341 
L 152.774823 106.016156 
L 153.326264 107.763819 
L 153.510078 108.190504 
L 153.632621 58.06481 
L 153.693892 60.960522 
L 154.184062 78.703553 
L 154.735503 90.870294 
L 155.286944 98.269712 
L 155.838386 102.862036 
L 156.389827 105.749512 
L 156.573641 106.453761 
L 156.634912 85.650121 
L 156.696183 86.941981 
L 157.247624 95.847449 
L 157.799066 101.339701 
L 158.350507 104.781301 
L 158.901948 106.959779 
L 159.453389 108.347418 
L 159.637203 108.688063 
L 159.698474 72.53427 
L 159.759746 74.566318 
L 159.821017 76.480293 
L 159.882288 65.777861 
L 159.943559 68.210543 
L 160.433729 83.177797 
L 160.985171 93.523067 
L 161.291527 97.414769 
L 161.352798 94.24917 
L 161.414069 95.057486 
L 161.965511 100.770469 
L 162.026782 101.260738 
L 162.088053 84.798735 
L 162.149324 86.14526 
L 162.700766 95.421835 
L 163.252207 101.125879 
L 163.803648 104.68308 
L 164.355089 106.921671 
L 164.906531 108.338619 
L 165.457972 109.238785 
L 165.641786 55.630461 
L 166.131956 75.431354 
L 166.622126 87.729348 
L 166.683397 70.072954 
L 166.744668 72.249562 
L 167.296109 87.002361 
L 167.602466 92.465533 
L 167.663737 71.488435 
L 167.725008 73.581512 
L 168.276449 87.776587 
L 168.827891 96.331122 
L 169.379332 101.619466 
L 169.930773 104.942505 
L 170.482215 107.052164 
L 171.033656 108.399996 
L 171.646368 109.338884 
L 172.320352 109.956932 
L 172.871793 110.265576 
L 172.933065 98.593773 
L 172.994336 99.198128 
L 173.545777 103.429364 
L 173.913405 105.340061 
L 173.974676 84.887486 
L 174.035947 86.21867 
L 174.587388 95.386409 
L 174.64866 96.15484 
L 174.709931 79.624006 
L 174.771202 81.247343 
L 175.322643 92.355857 
L 175.506457 94.988632 
L 175.567728 64.588365 
L 175.629 66.843256 
L 176.180441 82.780273 
L 176.793153 94.206855 
L 177.344595 100.373759 
L 177.896036 104.212187 
L 178.447477 106.624698 
L 178.998918 108.150458 
L 179.611631 109.20224 
L 179.672902 109.281202 
L 179.734173 83.324808 
L 179.795445 84.749942 
L 180.346886 94.552458 
L 180.898327 100.569931 
L 181.449768 104.32212 
L 181.878667 106.249488 
L 181.939938 81.657011 
L 182.00121 83.17234 
L 182.246295 88.441941 
L 182.307566 70.592467 
L 182.368837 72.738724 
L 182.920278 87.299493 
L 183.165363 91.73287 
L 183.226635 65.594303 
L 183.287906 68.037426 
L 183.655533 79.953813 
L 183.716805 61.609402 
L 183.778076 64.296316 
L 184.268246 80.752256 
L 184.390788 83.782026 
L 184.45206 77.45601 
L 184.513331 79.083338 
L 185.064772 90.584902 
L 185.677485 98.753149 
L 186.228926 103.203477 
L 186.290197 87.465502 
L 186.351468 88.66561 
L 186.90291 96.954797 
L 187.454351 102.072264 
L 188.005792 105.273049 
L 188.557234 107.291797 
L 188.618505 107.46435 
L 188.679776 91.792689 
L 188.741047 92.758637 
L 189.231217 98.864782 
L 189.292489 81.250039 
L 189.35376 82.788565 
L 189.905201 93.346803 
L 190.456642 99.809837 
L 191.008084 103.835434 
L 191.069355 104.177916 
L 191.130626 90.060681 
L 191.191897 91.115497 
L 191.743339 98.42271 
L 192.172237 102.126061 
L 192.233509 81.450684 
L 192.29478 82.974863 
L 192.846221 93.432545 
L 193.397662 99.838221 
L 193.949104 103.835037 
L 194.316731 105.641116 
L 194.378002 84.931816 
L 194.439274 86.261217 
L 194.806901 92.850968 
L 194.868172 71.844177 
L 194.929444 73.916114 
L 195.480885 87.96828 
L 195.664699 91.265471 
L 195.787241 69.652931 
L 195.848512 71.660821 
L 195.971055 75.387596 
L 196.032326 56.204038 
L 196.093597 58.867841 
L 196.338682 68.28571 
L 196.399954 48.554427 
L 196.461225 51.5913 
L 196.951395 72.953316 
L 197.502836 87.450464 
L 197.993006 95.418975 
L 198.054277 74.651101 
L 198.115549 76.562434 
L 198.66699 89.588258 
L 199.218431 97.483327 
L 199.769872 102.372056 
L 200.321314 105.441125 
L 200.872755 107.384697 
L 201.362925 108.510527 
L 201.424196 85.400103 
L 201.485467 86.706144 
L 202.036909 95.70694 
L 202.58835 101.25513 
L 202.649621 86.903491 
L 202.710892 88.12581 
L 203.262334 96.563917 
L 203.813775 101.78015 
L 204.365216 105.054857 
L 204.426487 105.334583 
L 204.487759 85.372514 
L 204.54903 86.677006 
L 204.610301 87.910049 
L 204.671572 72.897914 
L 204.732844 74.908139 
L 204.794115 76.801439 
L 204.855386 56.963926 
L 204.916657 59.941836 
L 205.100471 67.813031 
L 205.161742 57.775008 
L 205.223014 60.362189 
L 205.774455 78.647766 
L 206.387168 91.82371 
L 206.938609 98.8994 
L 207.49005 103.28806 
L 208.041491 106.040613 
L 208.47039 107.458433 
L 208.531661 85.513199 
L 208.592933 86.817904 
L 208.899289 92.354331 
L 208.96056 73.473335 
L 209.021831 75.452851 
L 209.573273 88.930853 
L 210.063443 96.363869 
L 210.124714 74.252285 
L 210.185985 76.185765 
L 210.308528 79.726672 
L 210.369799 69.090954 
L 210.43107 71.325413 
L 210.982511 86.451851 
L 211.533953 95.537804 
L 211.962851 100.111595 
L 212.024123 86.263766 
L 212.085394 87.51917 
L 212.636835 96.179117 
L 213.188276 101.52907 
L 213.555904 103.934837 
L 213.617175 81.326082 
L 213.678446 82.853244 
L 214.229888 93.324432 
L 214.291159 89.203771 
L 214.35243 90.258154 
L 214.413701 91.261114 
L 214.474973 68.836173 
L 214.536244 70.883897 
L 215.148956 86.830874 
L 215.700398 95.839541 
L 216.251839 101.384574 
L 216.496924 103.122561 
L 216.558195 86.890691 
L 216.619466 88.120991 
L 217.170908 96.613896 
L 217.722349 101.854133 
L 218.27379 105.131668 
L 218.518875 106.167939 
L 218.580146 84.9698 
L 218.641418 86.302808 
L 219.192859 95.486224 
L 219.7443 101.139125 
L 220.295741 104.672218 
L 220.847183 106.901999 
L 221.398624 108.317896 
L 222.011336 109.297934 
L 222.68532 109.938671 
L 223.420575 110.334765 
L 224.400915 110.601853 
L 224.646 110.641585 
L 224.707272 97.459393 
L 224.768543 98.127069 
L 225.074899 100.984271 
L 225.197442 69.769371 
L 225.258713 71.963907 
L 225.810154 86.841134 
L 225.993968 90.327536 
L 226.055239 69.785489 
L 226.11651 71.978946 
L 226.667952 86.835177 
L 227.219393 95.766953 
L 227.280664 96.516134 
L 227.341935 74.977223 
L 227.403207 76.866528 
L 227.954648 89.725411 
L 228.322275 95.327433 
L 228.383547 91.669315 
L 228.444818 92.603452 
L 228.934988 98.610076 
L 229.05753 63.637988 
L 229.118802 66.193546 
L 229.608972 81.953906 
L 230.160413 92.860056 
L 230.711854 99.526114 
L 231.263295 103.670423 
L 231.753465 106.041317 
L 231.814737 91.188201 
L 231.876008 92.185218 
L 231.937279 93.129169 
L 231.99855 71.513266 
L 232.059822 73.605974 
L 232.611263 87.822015 
L 232.795077 91.160735 
L 232.856348 74.863572 
L 232.917619 76.761516 
L 233.46906 89.691034 
L 234.020502 97.528326 
L 234.571943 102.385931 
L 234.694485 103.190618 
L 234.755757 84.04472 
L 234.817028 85.422723 
L 235.368469 94.903637 
L 235.736097 99.090934 
L 235.797368 81.665247 
L 235.858639 83.173918 
L 236.41008 93.523212 
L 236.961522 99.867372 
L 237.512963 103.833501 
L 238.064404 106.343986 
L 238.615845 107.945374 
L 239.228558 109.060086 
L 239.84127 109.742184 
L 239.902542 109.793774 
L 239.963813 87.608116 
L 240.025084 88.7897 
L 240.576525 96.953687 
L 241.127967 102.009859 
L 241.679408 105.190441 
L 242.230849 107.210856 
L 242.843562 108.613178 
L 243.456274 109.469504 
L 244.130258 110.033274 
L 244.926784 110.405239 
L 246.029667 110.650165 
L 247.806533 110.781438 
L 249.093229 110.808237 
L 249.154501 91.972378 
L 249.215772 92.925257 
L 249.767213 99.540464 
L 250.318654 103.660091 
L 250.870096 106.255615 
L 251.421537 107.902939 
L 252.034249 109.043477 
L 252.401877 109.500256 
L 252.463148 96.282867 
L 252.524419 97.009221 
L 252.953318 101.147246 
L 253.014589 87.408929 
L 253.075861 88.605473 
L 253.627302 96.870299 
L 254.178743 101.981393 
L 254.668913 104.900861 
L 254.730184 76.166162 
L 254.791456 77.988242 
L 255.342897 90.413087 
L 255.894338 97.95904 
L 256.445779 102.645067 
L 256.629593 103.782119 
L 256.690864 78.519691 
L 256.752136 80.205632 
L 256.813407 81.795982 
L 256.874678 63.931011 
L 256.935949 66.477058 
L 257.058492 71.116433 
L 257.119763 61.794314 
L 257.181034 64.185468 
L 257.732476 81.085598 
L 258.283917 92.285246 
L 258.345188 67.837946 
L 258.406459 70.14567 
L 258.467731 72.318476 
L 258.529002 50.102322 
L 258.590273 53.490741 
L 259.080443 74.123357 
L 259.631884 88.132219 
L 260.183326 96.590796 
L 260.734767 101.815469 
L 261.286208 105.0902 
L 261.83765 107.161903 
L 262.144006 107.966567 
L 262.205277 93.464136 
L 262.266548 94.337236 
L 262.81799 100.40958 
L 263.369431 104.201863 
L 263.920872 106.596109 
L 264.349771 107.836427 
L 264.411042 87.430141 
L 264.472313 88.624841 
L 264.962483 96.145779 
L 265.023755 78.567281 
L 265.085026 80.252367 
L 265.636467 91.773976 
L 265.942823 96.088785 
L 266.004095 78.080981 
L 266.065366 79.792161 
L 266.310451 85.725283 
L 266.310451 85.725283 
" clip-path="url(#pbdba819e7d)" style="fill: none; stroke: #1a1a1a; stroke-width: 0.9; stroke-linejoin: miter"/>
   </g>
   <g id="line2d_16">
    <path d="M 21.286719 110.823024 
L 22.144516 110.908181 
L 22.757229 111.535887 
L 23.431213 111.903361 
L 24.28901 112.104266 
L 25.575706 112.14779 
L 28.087828 112.16593 
L 28.271641 112.581344 
L 28.823083 113.65848 
L 29.129439 114.241834 
L 30.477406 117.388521 
L 30.783763 117.924231 
L 30.967576 118.737861 
L 31.15139 119.807965 
L 31.273933 110.823024 
L 31.886645 110.823024 
L 32.376815 112.844182 
L 33.479698 115.897358 
L 33.969868 116.433021 
L 34.521309 116.719375 
L 35.195293 116.796289 
L 36.114361 116.643947 
L 37.707414 116.111358 
L 40.219535 115.186865 
L 40.709705 115.868631 
L 41.261147 116.263493 
L 41.690045 116.549019 
L 42.854199 117.900345 
L 43.40564 118.172461 
L 44.018353 118.214891 
L 44.87615 118.023165 
L 45.121235 118.048769 
L 45.611405 118.543823 
L 46.162847 118.769492 
L 46.34666 118.877086 
L 46.83683 119.374927 
L 47.327 119.578888 
L 47.81717 119.75963 
L 47.939713 119.88878 
L 48.062255 110.823024 
L 48.674968 110.823024 
L 49.226409 112.1575 
L 49.77785 112.926671 
L 50.390563 113.386305 
L 51.187089 113.887167 
L 51.73853 114.468784 
L 52.351243 114.779463 
L 52.657599 114.94636 
L 53.20904 115.634308 
L 53.760482 115.96887 
L 54.373194 116.225127 
L 54.863364 117.026809 
L 55.16972 117.423017 
L 55.843704 119.884598 
L 55.966247 110.823024 
L 56.578959 110.823024 
L 57.1304 111.900177 
L 57.62057 112.770476 
L 58.172012 113.769981 
L 58.723453 114.317833 
L 59.336166 114.609701 
L 60.071421 114.707082 
L 61.235574 114.812446 
L 61.848287 115.068112 
L 62.583542 115.130775 
L 63.073712 115.183088 
L 63.625153 116.085919 
L 64.421679 118.344199 
L 65.218206 119.839201 
L 65.340748 110.823024 
L 65.953461 110.823024 
L 66.443631 112.709168 
L 66.933801 113.849994 
L 67.485242 114.586652 
L 68.036683 114.967117 
L 68.710667 115.14628 
L 69.384651 115.255399 
L 69.874821 115.870323 
L 70.426262 116.219638 
L 70.977703 116.473311 
L 71.467873 117.263408 
L 71.958043 117.676826 
L 72.141857 117.864194 
L 72.632027 118.584178 
L 73.122197 118.936417 
L 73.673638 119.058133 
L 74.347622 118.97148 
L 75.266691 118.806987 
L 75.756861 119.093881 
L 76.308302 119.168163 
L 77.043557 119.027331 
L 78.207711 118.538064 
L 80.842375 117.282685 
L 81.332545 117.688319 
L 81.883986 117.866013 
L 82.0678 117.98848 
L 82.435427 118.417836 
L 82.925597 119.1138 
L 83.415767 119.444042 
L 83.967208 119.542808 
L 84.641192 119.430046 
L 84.763735 119.466603 
L 85.131362 119.900821 
L 85.253905 110.823024 
L 85.866617 110.823024 
L 86.050431 111.302195 
L 86.540601 112.859587 
L 87.092042 113.888802 
L 87.643483 114.451948 
L 88.256196 114.75111 
L 88.991451 114.849721 
L 89.849248 114.936742 
L 90.339418 116.172974 
L 90.89086 117.400183 
L 91.8712 119.275053 
L 92.055013 119.597144 
L 92.177556 119.913068 
L 92.300098 110.823024 
L 92.912811 110.823024 
L 93.464252 112.190919 
L 94.015693 112.978756 
L 94.628406 113.449289 
L 95.30239 113.679525 
L 96.221459 113.735675 
L 97.691969 113.56601 
L 98.427224 113.525247 
L 98.978665 114.01459 
L 99.591377 114.274529 
L 100.142819 114.465952 
L 100.449175 115.176685 
L 101.368244 117.619511 
L 101.858414 118.329412 
L 102.348584 118.678883 
L 102.900025 118.802662 
L 103.574009 118.722783 
L 104.61562 118.346972 
L 107.189012 117.261304 
L 107.740454 117.5772 
L 108.04681 117.746255 
L 108.53698 118.373096 
L 109.333506 119.18907 
L 110.00749 119.862184 
L 110.130032 110.823024 
L 110.742745 110.823024 
L 111.232915 113.298623 
L 111.723085 114.775516 
L 112.825967 117.012484 
L 113.316137 117.453057 
L 113.867579 117.65839 
L 113.990121 117.674954 
L 114.90919 119.848869 
L 115.031733 110.823024 
L 115.705716 110.926719 
L 116.257158 111.631895 
L 116.86987 112.075206 
L 117.605125 112.333028 
L 118.646736 112.435741 
L 118.769279 112.539565 
L 119.136906 113.298581 
L 120.913773 118.347279 
L 121.403943 118.831944 
L 121.526485 119.019674 
L 121.77157 119.795739 
L 121.894113 110.823024 
L 122.506825 110.823024 
L 123.058266 111.985066 
L 123.609708 112.657447 
L 124.22242 113.06039 
L 124.957675 113.267775 
L 125.999286 113.299379 
L 127.898695 113.264839 
L 128.205051 113.830702 
L 128.695221 114.838357 
L 129.736833 116.214022 
L 130.043189 116.598379 
L 130.533359 117.249521 
L 130.778444 117.589667 
L 131.268614 118.68249 
L 132.003869 119.846786 
L 132.126412 110.823024 
L 132.800395 110.916435 
L 133.351837 111.850396 
L 134.087092 114.233324 
L 135.557602 117.889853 
L 136.047772 118.621436 
L 136.537942 118.980319 
L 137.089383 119.105925 
L 137.763367 119.020992 
L 138.008452 119.036413 
L 138.804978 119.859315 
L 138.92752 110.823024 
L 139.601504 110.906101 
L 140.214217 111.518591 
L 140.8882 111.877283 
L 141.623455 112.170177 
L 142.910152 114.383356 
L 143.461593 114.768441 
L 144.135577 114.955009 
L 144.993374 114.945553 
L 145.177188 115.016024 
L 145.851172 115.9481 
L 146.341342 117.347885 
L 146.831512 118.130351 
L 147.321682 118.527255 
L 147.873123 118.685975 
L 148.363293 118.822409 
L 148.853463 119.177457 
L 149.404904 119.297387 
L 149.649989 119.384522 
L 149.833803 119.827095 
L 149.956345 110.823024 
L 150.569058 110.823024 
L 151.120499 111.870185 
L 151.671941 112.477649 
L 152.284653 112.842371 
L 153.081179 113.03812 
L 153.510078 113.067587 
L 153.693892 113.697924 
L 154.184062 115.123155 
L 154.674232 115.953152 
L 155.225673 116.447088 
L 155.777114 116.653805 
L 156.512369 116.670443 
L 156.634912 116.759671 
L 157.125082 117.312356 
L 157.676523 117.596603 
L 158.289236 117.657532 
L 159.147033 117.495895 
L 159.637203 117.334223 
L 160.495001 119.2678 
L 160.985171 119.755073 
L 161.291527 119.901963 
L 161.414069 110.823024 
L 162.026782 110.823024 
L 162.578223 111.75849 
L 163.190936 112.346064 
L 163.864919 112.671366 
L 164.722717 112.821447 
L 165.519243 112.968253 
L 165.703057 113.613176 
L 166.193227 115.110617 
L 167.296109 117.315452 
L 167.786279 118.114124 
L 168.276449 118.923763 
L 168.76662 119.326515 
L 169.318061 119.476876 
L 169.992045 119.401443 
L 170.972385 119.030585 
L 173.116878 118.113936 
L 173.729591 118.150397 
L 173.974676 118.220258 
L 174.464846 118.739526 
L 174.771202 119.074782 
L 175.261372 119.672678 
L 175.506457 119.836701 
L 175.629 110.823024 
L 176.241712 110.823024 
L 176.793153 111.732418 
L 177.405866 112.303961 
L 178.07985 112.620533 
L 178.937647 112.766675 
L 179.734173 112.90076 
L 180.285615 113.746902 
L 180.837056 114.205537 
L 181.449768 114.442129 
L 181.939938 114.628657 
L 183.655533 118.119908 
L 184.145703 119.437994 
L 184.390788 119.8491 
L 184.513331 110.823024 
L 185.187315 110.914253 
L 185.800027 111.586239 
L 186.41274 112.181844 
L 186.964181 112.840827 
L 187.576894 113.231731 
L 188.312149 113.42711 
L 188.679776 113.536573 
L 190.3341 115.469045 
L 190.946812 115.696294 
L 191.130626 115.7949 
L 191.682067 116.286993 
L 192.29478 116.711021 
L 192.78495 117.347975 
L 193.336391 117.689048 
L 193.949104 117.784955 
L 194.378002 117.847889 
L 195.72597 119.846033 
L 195.848512 110.823024 
L 196.461225 110.823024 
L 196.951395 112.643284 
L 197.502836 113.848096 
L 199.15716 116.234547 
L 199.708601 116.478876 
L 200.382585 116.531665 
L 201.485467 116.54783 
L 201.975637 117.076199 
L 202.527079 117.347526 
L 202.649621 117.449557 
L 203.139791 117.936693 
L 203.691232 118.166411 
L 204.365216 118.173573 
L 204.487759 118.254781 
L 204.794115 118.838586 
L 205.100471 119.835474 
L 205.223014 110.823024 
L 205.835726 110.823024 
L 206.387168 111.864622 
L 206.938609 112.468937 
L 207.551321 112.831801 
L 208.347848 113.026567 
L 208.531661 113.15436 
L 210.002171 115.571705 
L 210.124714 115.779076 
L 211.043783 117.716262 
L 211.533953 118.168459 
L 212.269208 118.708897 
L 212.759378 119.023651 
L 213.310819 119.118221 
L 213.617175 119.207192 
L 214.107345 119.797517 
L 214.229888 119.887046 
L 214.35243 110.823024 
L 214.965143 110.823024 
L 215.516584 111.781898 
L 216.129296 112.383847 
L 216.619466 112.811746 
L 217.170908 113.499992 
L 217.78362 113.89715 
L 218.641418 114.298666 
L 219.192859 114.983267 
L 219.7443 115.326563 
L 220.418284 115.472372 
L 221.337353 115.411043 
L 222.869134 115.042626 
L 224.707272 114.573682 
L 225.13617 114.922645 
L 225.62634 116.103914 
L 227.09685 118.45474 
L 227.341935 118.706136 
L 227.832105 119.510213 
L 228.322275 119.90151 
L 228.444818 110.823024 
L 229.05753 110.823024 
L 229.608972 112.417101 
L 230.160413 113.330527 
L 230.711854 113.835486 
L 231.324567 114.108827 
L 231.876008 114.344972 
L 231.99855 114.594372 
L 232.48872 115.664626 
L 233.836688 117.628252 
L 234.388129 117.861295 
L 234.755757 117.994771 
L 235.245927 118.548776 
L 236.042453 119.251824 
L 236.532623 119.659129 
L 237.084064 119.807468 
L 237.758048 119.723726 
L 238.738388 119.33521 
L 239.963813 118.789335 
L 240.453983 119.20252 
L 241.005424 119.361958 
L 241.679408 119.295239 
L 242.659748 118.93436 
L 244.742971 117.851973 
L 247.867804 116.307008 
L 249.154501 115.856805 
L 249.705942 116.281361 
L 250.318654 116.457235 
L 251.115181 116.424758 
L 252.340606 116.110223 
L 252.463148 116.136745 
L 254.301286 117.286808 
L 254.730184 117.435625 
L 255.220354 118.252999 
L 255.710524 118.669682 
L 256.261966 118.83977 
L 256.690864 118.960724 
L 256.997221 119.715412 
L 257.058492 119.8696 
L 257.181034 110.823024 
L 257.793747 110.823024 
L 258.529002 112.594543 
L 259.019172 114.389486 
L 259.509342 115.451023 
L 259.999512 116.055937 
L 260.550953 116.395508 
L 261.163666 116.514463 
L 262.021463 116.429089 
L 262.205277 116.46127 
L 262.756718 116.808712 
L 263.369431 116.925072 
L 264.165957 116.839023 
L 264.411042 116.883234 
L 264.901212 117.37618 
L 265.023755 117.545049 
L 265.513925 118.284726 
L 266.310451 119.242825 
L 266.310451 119.242825 
" clip-path="url(#pbdba819e7d)" style="fill: none; stroke-dasharray: 0.7,1.155; stroke-dashoffset: 0; stroke: #bbbbbb; stroke-width: 0.7"/>
   </g>
   <g id="patch_3">
    <path d="M 21.286719 124.96125 
L 21.286719 13.90125 
" style="fill: none; stroke: #1a1a1a; stroke-width: 0.8; stroke-linejoin: miter; stroke-linecap: square"/>
   </g>
   <g id="patch_4">
    <path d="M 266.371722 124.96125 
L 266.371722 13.90125 
" style="fill: none; stroke: #1a1a1a; stroke-width: 0.8; stroke-linejoin: miter; stroke-linecap: square"/>
   </g>
   <g id="patch_5">
    <path d="M 21.286719 124.96125 
L 266.371722 124.96125 
" style="fill: none; stroke: #1a1a1a; stroke-width: 0.8; stroke-linejoin: miter; stroke-linecap: square"/>
   </g>
   <g id="patch_6">
    <path d="M 21.286719 13.90125 
L 266.371722 13.90125 
" style="fill: none; stroke: #1a1a1a; stroke-width: 0.8; stroke-linejoin: miter; stroke-linecap: square"/>
   </g>
   <g id="text_16">
    <!-- COBA · E-neuron signed currents (cell 465) -->
    <g style="fill: #1a1a1a" transform="translate(21.286719 7.90125) scale(0.08 -0.08)">
     <defs>
      <path id="Menlo-Regular-43" d="M 3353 166 
Q 3113 38 2859 -26 
Q 2606 -91 2322 -91 
Q 1425 -91 929 543 
Q 434 1178 434 2328 
Q 434 3472 932 4111 
Q 1431 4750 2322 4750 
Q 2606 4750 2859 4686 
Q 3113 4622 3353 4494 
L 3353 3847 
Q 3122 4038 2856 4138 
Q 2591 4238 2322 4238 
Q 1706 4238 1400 3763 
Q 1094 3288 1094 2328 
Q 1094 1372 1400 897 
Q 1706 422 2322 422 
Q 2597 422 2861 522 
Q 3125 622 3353 813 
L 3353 166 
z
" transform="scale(0.015625)"/>
      <path id="Menlo-Regular-4f" d="M 2828 2328 
Q 2828 3356 2617 3797 
Q 2406 4238 1925 4238 
Q 1447 4238 1236 3797 
Q 1025 3356 1025 2328 
Q 1025 1303 1236 862 
Q 1447 422 1925 422 
Q 2406 422 2617 861 
Q 2828 1300 2828 2328 
z
M 3488 2328 
Q 3488 1109 3102 509 
Q 2716 -91 1925 -91 
Q 1134 -91 750 506 
Q 366 1103 366 2328 
Q 366 3550 752 4150 
Q 1138 4750 1925 4750 
Q 2716 4750 3102 4150 
Q 3488 3550 3488 2328 
z
" transform="scale(0.015625)"/>
      <path id="Menlo-Regular-42" d="M 1153 2353 
L 1153 519 
L 1900 519 
Q 2450 519 2684 711 
Q 2919 903 2919 1344 
Q 2919 1925 2672 2139 
Q 2425 2353 1900 2353 
L 1153 2353 
z
M 1153 4147 
L 1153 2866 
L 1888 2866 
Q 2344 2866 2548 3041 
Q 2753 3216 2753 3481 
Q 2753 3834 2551 3990 
Q 2350 4147 1888 4147 
L 1153 4147 
z
M 519 4666 
L 1900 4666 
Q 2616 4666 3003 4356 
Q 3391 4047 3391 3481 
Q 3391 3178 3186 2931 
Q 2981 2684 2572 2622 
Q 3031 2553 3292 2229 
Q 3553 1906 3553 1281 
Q 3553 647 3137 323 
Q 2722 0 1900 0 
L 519 0 
L 519 4666 
z
" transform="scale(0.015625)"/>
      <path id="Menlo-Regular-41" d="M 1925 4109 
L 1259 1722 
L 2591 1722 
L 1925 4109 
z
M 1544 4666 
L 2309 4666 
L 3738 0 
L 3084 0 
L 2741 1216 
L 1106 1216 
L 769 0 
L 116 0 
L 1544 4666 
z
" transform="scale(0.015625)"/>
      <path id="Menlo-Regular-b7" d="M 1528 2700 
L 2316 2700 
L 2316 1747 
L 1528 1747 
L 1528 2700 
z
" transform="scale(0.015625)"/>
      <path id="Menlo-Regular-45" d="M 616 4666 
L 3384 4666 
L 3384 4134 
L 1247 4134 
L 1247 2878 
L 3291 2878 
L 3291 2347 
L 1247 2347 
L 1247 531 
L 3444 531 
L 3444 0 
L 616 0 
L 616 4666 
z
" transform="scale(0.015625)"/>
      <path id="Menlo-Regular-2d" d="M 319 2263 
L 3631 2263 
L 3631 1734 
L 319 1734 
L 319 2263 
z
" transform="scale(0.015625)"/>
      <path id="Menlo-Regular-75" d="M 609 1325 
L 609 3494 
L 1184 3494 
L 1184 1325 
Q 1184 853 1351 631 
Q 1519 409 1869 409 
Q 2275 409 2490 695 
Q 2706 981 2706 1516 
L 2706 3494 
L 3284 3494 
L 3284 0 
L 2706 0 
L 2706 525 
Q 2553 222 2289 65 
Q 2025 -91 1672 -91 
Q 1134 -91 871 261 
Q 609 613 609 1325 
z
" transform="scale(0.015625)"/>
      <path id="Menlo-Regular-67" d="M 2681 1778 
Q 2681 2425 2470 2761 
Q 2259 3097 1856 3097 
Q 1434 3097 1212 2761 
Q 991 2425 991 1778 
Q 991 1131 1214 792 
Q 1438 453 1863 453 
Q 2259 453 2470 793 
Q 2681 1134 2681 1778 
z
M 3256 225 
Q 3256 -563 2884 -969 
Q 2513 -1375 1791 -1375 
Q 1553 -1375 1293 -1331 
Q 1034 -1288 775 -1203 
L 775 -634 
Q 1081 -778 1331 -847 
Q 1581 -916 1791 -916 
Q 2256 -916 2468 -662 
Q 2681 -409 2681 141 
L 2681 166 
L 2681 556 
Q 2544 263 2306 119 
Q 2069 -25 1728 -25 
Q 1116 -25 750 465 
Q 384 956 384 1778 
Q 384 2603 750 3093 
Q 1116 3584 1728 3584 
Q 2066 3584 2300 3450 
Q 2534 3316 2681 3034 
L 2681 3488 
L 3256 3488 
L 3256 225 
z
" transform="scale(0.015625)"/>
      <path id="Menlo-Regular-63" d="M 3316 178 
Q 3084 44 2839 -23 
Q 2594 -91 2338 -91 
Q 1525 -91 1067 396 
Q 609 884 609 1747 
Q 609 2609 1067 3096 
Q 1525 3584 2338 3584 
Q 2591 3584 2831 3518 
Q 3072 3453 3316 3316 
L 3316 2713 
Q 3088 2916 2858 3006 
Q 2628 3097 2338 3097 
Q 1797 3097 1506 2747 
Q 1216 2397 1216 1747 
Q 1216 1100 1508 748 
Q 1800 397 2338 397 
Q 2638 397 2875 489 
Q 3113 581 3316 775 
L 3316 178 
z
" transform="scale(0.015625)"/>
     </defs>
     <use xlink:href="#Menlo-Regular-43"/>
     <use xlink:href="#Menlo-Regular-4f" transform="translate(60.205078 0)"/>
     <use xlink:href="#Menlo-Regular-42" transform="translate(120.410156 0)"/>
     <use xlink:href="#Menlo-Regular-41" transform="translate(180.615234 0)"/>
     <use xlink:href="#Menlo-Regular-20" transform="translate(240.820312 0)"/>
     <use xlink:href="#Menlo-Regular-b7" transform="translate(301.025391 0)"/>
     <use xlink:href="#Menlo-Regular-20" transform="translate(361.230469 0)"/>
     <use xlink:href="#Menlo-Regular-45" transform="translate(421.435547 0)"/>
     <use xlink:href="#Menlo-Regular-2d" transform="translate(481.640625 0)"/>
     <use xlink:href="#Menlo-Regular-6e" transform="translate(541.845703 0)"/>
     <use xlink:href="#Menlo-Regular-65" transform="translate(602.050781 0)"/>
     <use xlink:href="#Menlo-Regular-75" transform="translate(662.255859 0)"/>
     <use xlink:href="#Menlo-Regular-72" transform="translate(722.460938 0)"/>
     <use xlink:href="#Menlo-Regular-6f" transform="translate(782.666016 0)"/>
     <use xlink:href="#Menlo-Regular-6e" transform="translate(842.871094 0)"/>
     <use xlink:href="#Menlo-Regular-20" transform="translate(903.076172 0)"/>
     <use xlink:href="#Menlo-Regular-73" transform="translate(963.28125 0)"/>
     <use xlink:href="#Menlo-Regular-69" transform="translate(1023.486328 0)"/>
     <use xlink:href="#Menlo-Regular-67" transform="translate(1083.691406 0)"/>
     <use xlink:href="#Menlo-Regular-6e" transform="translate(1143.896484 0)"/>
     <use xlink:href="#Menlo-Regular-65" transform="translate(1204.101562 0)"/>
     <use xlink:href="#Menlo-Regular-64" transform="translate(1264.306641 0)"/>
     <use xlink:href="#Menlo-Regular-20" transform="translate(1324.511719 0)"/>
     <use xlink:href="#Menlo-Regular-63" transform="translate(1384.716797 0)"/>
     <use xlink:href="#Menlo-Regular-75" transform="translate(1444.921875 0)"/>
     <use xlink:href="#Menlo-Regular-72" transform="translate(1505.126953 0)"/>
     <use xlink:href="#Menlo-Regular-72" transform="translate(1565.332031 0)"/>
     <use xlink:href="#Menlo-Regular-65" transform="translate(1625.537109 0)"/>
     <use xlink:href="#Menlo-Regular-6e" transform="translate(1685.742188 0)"/>
     <use xlink:href="#Menlo-Regular-74" transform="translate(1745.947266 0)"/>
     <use xlink:href="#Menlo-Regular-73" transform="translate(1806.152344 0)"/>
     <use xlink:href="#Menlo-Regular-20" transform="translate(1866.357422 0)"/>
     <use xlink:href="#Menlo-Regular-28" transform="translate(1926.5625 0)"/>
     <use xlink:href="#Menlo-Regular-63" transform="translate(1986.767578 0)"/>
     <use xlink:href="#Menlo-Regular-65" transform="translate(2046.972656 0)"/>
     <use xlink:href="#Menlo-Regular-6c" transform="translate(2107.177734 0)"/>
     <use xlink:href="#Menlo-Regular-6c" transform="translate(2167.382812 0)"/>
     <use xlink:href="#Menlo-Regular-20" transform="translate(2227.587891 0)"/>
     <use xlink:href="#Menlo-Regular-34" transform="translate(2287.792969 0)"/>
     <use xlink:href="#Menlo-Regular-36" transform="translate(2347.998047 0)"/>
     <use xlink:href="#Menlo-Regular-35" transform="translate(2408.203125 0)"/>
     <use xlink:href="#Menlo-Regular-29" transform="translate(2468.408203 0)"/>
    </g>
   </g>
   <g id="legend_1">
    <g id="patch_7">
     <path d="M 177.258441 40.494687 
L 262.871722 40.494687 
L 262.871722 17.40125 
L 177.258441 17.40125 
z
" style="fill: #ffffff; stroke: #1a1a1a; stroke-width: 0.8; stroke-linejoin: miter"/>
    </g>
    <g id="line2d_17">
     <path d="M 180.058441 23.404844 
L 185.658441 23.404844 
L 191.258441 23.404844 
" style="fill: none; stroke: #1a1a1a; stroke-width: 0.9; stroke-linejoin: miter"/>
    </g>
    <g id="text_17">
     <!-- I_E in (depol.) -->
     <g style="fill: #1a1a1a" transform="translate(196.858441 25.854844) scale(0.07 -0.07)">
      <defs>
       <path id="Menlo-Regular-5f" d="M 3825 -594 
L 3825 -1125 
L 0 -1125 
L 0 -594 
L 3825 -594 
z
" transform="scale(0.015625)"/>
      </defs>
      <use xlink:href="#Menlo-Regular-49"/>
      <use xlink:href="#Menlo-Regular-5f" transform="translate(60.205078 0)"/>
      <use xlink:href="#Menlo-Regular-45" transform="translate(120.410156 0)"/>
      <use xlink:href="#Menlo-Regular-20" transform="translate(180.615234 0)"/>
      <use xlink:href="#Menlo-Regular-69" transform="translate(240.820312 0)"/>
      <use xlink:href="#Menlo-Regular-6e" transform="translate(301.025391 0)"/>
      <use xlink:href="#Menlo-Regular-20" transform="translate(361.230469 0)"/>
      <use xlink:href="#Menlo-Regular-28" transform="translate(421.435547 0)"/>
      <use xlink:href="#Menlo-Regular-64" transform="translate(481.640625 0)"/>
      <use xlink:href="#Menlo-Regular-65" transform="translate(541.845703 0)"/>
      <use xlink:href="#Menlo-Regular-70" transform="translate(602.050781 0)"/>
      <use xlink:href="#Menlo-Regular-6f" transform="translate(662.255859 0)"/>
      <use xlink:href="#Menlo-Regular-6c" transform="translate(722.460938 0)"/>
      <use xlink:href="#Menlo-Regular-2e" transform="translate(782.666016 0)"/>
      <use xlink:href="#Menlo-Regular-29" transform="translate(842.871094 0)"/>
     </g>
    </g>
    <g id="line2d_18">
     <path d="M 180.058441 33.788906 
L 185.658441 33.788906 
L 191.258441 33.788906 
" style="fill: none; stroke-dasharray: 0.7,1.155; stroke-dashoffset: 0; stroke: #bbbbbb; stroke-width: 0.7"/>
    </g>
    <g id="text_18">
     <!-- I_L in (leak) -->
     <g style="fill: #1a1a1a" transform="translate(196.858441 36.238906) scale(0.07 -0.07)">
      <defs>
       <path id="Menlo-Regular-4c" d="M 672 4666 
L 1306 4666 
L 1306 531 
L 3559 531 
L 3559 0 
L 672 0 
L 672 4666 
z
" transform="scale(0.015625)"/>
       <path id="Menlo-Regular-61" d="M 2194 1759 
L 2003 1759 
Q 1500 1759 1245 1582 
Q 991 1406 991 1056 
Q 991 741 1181 566 
Q 1372 391 1709 391 
Q 2184 391 2456 720 
Q 2728 1050 2731 1631 
L 2731 1759 
L 2194 1759 
z
M 3309 1997 
L 3309 0 
L 2731 0 
L 2731 519 
Q 2547 206 2267 57 
Q 1988 -91 1588 -91 
Q 1053 -91 734 211 
Q 416 513 416 1019 
Q 416 1603 808 1906 
Q 1200 2209 1959 2209 
L 2731 2209 
L 2731 2300 
Q 2728 2719 2518 2908 
Q 2309 3097 1850 3097 
Q 1556 3097 1256 3012 
Q 956 2928 672 2766 
L 672 3341 
Q 991 3463 1283 3523 
Q 1575 3584 1850 3584 
Q 2284 3584 2592 3456 
Q 2900 3328 3091 3072 
Q 3209 2916 3259 2686 
Q 3309 2456 3309 1997 
z
" transform="scale(0.015625)"/>
       <path id="Menlo-Regular-6b" d="M 738 4863 
L 1331 4863 
L 1331 2047 
L 2841 3500 
L 3541 3500 
L 2163 2181 
L 3756 0 
L 3053 0 
L 1759 1806 
L 1331 1403 
L 1331 0 
L 738 0 
L 738 4863 
z
" transform="scale(0.015625)"/>
      </defs>
      <use xlink:href="#Menlo-Regular-49"/>
      <use xlink:href="#Menlo-Regular-5f" transform="translate(60.205078 0)"/>
      <use xlink:href="#Menlo-Regular-4c" transform="translate(120.410156 0)"/>
      <use xlink:href="#Menlo-Regular-20" transform="translate(180.615234 0)"/>
      <use xlink:href="#Menlo-Regular-69" transform="translate(240.820312 0)"/>
      <use xlink:href="#Menlo-Regular-6e" transform="translate(301.025391 0)"/>
      <use xlink:href="#Menlo-Regular-20" transform="translate(361.230469 0)"/>
      <use xlink:href="#Menlo-Regular-28" transform="translate(421.435547 0)"/>
      <use xlink:href="#Menlo-Regular-6c" transform="translate(481.640625 0)"/>
      <use xlink:href="#Menlo-Regular-65" transform="translate(541.845703 0)"/>
      <use xlink:href="#Menlo-Regular-61" transform="translate(602.050781 0)"/>
      <use xlink:href="#Menlo-Regular-6b" transform="translate(662.255859 0)"/>
      <use xlink:href="#Menlo-Regular-29" transform="translate(722.460938 0)"/>
     </g>
    </g>
   </g>
  </g>
 </g>
 <defs>
  <clipPath id="pbdba819e7d">
   <rect x="21.286719" y="13.90125" width="245.085003" height="111.06"/>
  </clipPath>
 </defs>
</svg>
