<?xml version="1.0" encoding="utf-8" standalone="no"?>
<!DOCTYPE svg PUBLIC "-//W3C//DTD SVG 1.1//EN"
  "http://www.w3.org/Graphics/SVG/1.1/DTD/svg11.dtd">
<svg xmlns:xlink="http://www.w3.org/1999/xlink" width="471.24pt" height="106.924453pt" viewBox="0 0 471.24 106.924453" xmlns="http://www.w3.org/2000/svg" version="1.1">
 <metadata>
  <rdf:RDF xmlns:dc="http://purl.org/dc/elements/1.1/" xmlns:cc="http://creativecommons.org/ns#" xmlns:rdf="http://www.w3.org/1999/02/22-rdf-syntax-ns#">
   <cc:Work>
    <dc:type rdf:resource="http://purl.org/dc/dcmitype/StillImage"/>
    <dc:date>2026-06-30T22:43:55.032678</dc:date>
    <dc:format>image/svg+xml</dc:format>
    <dc:creator>
     <cc:Agent>
      <dc:title>Matplotlib v3.10.8, https://matplotlib.org/</dc:title>
     </cc:Agent>
    </dc:creator>
   </cc:Work>
  </rdf:RDF>
 </metadata>
 <defs>
  <style type="text/css">*{stroke-linejoin: round; stroke-linecap: butt}</style>
 </defs>
 <g id="figure_1">
  <g id="patch_1">
   <path d="M 0 106.924453 
L 471.24 106.924453 
L 471.24 0 
L 0 0 
z
" style="fill: #ffffff"/>
  </g>
  <g id="axes_1">
   <g id="patch_2">
    <path d="M 29.715156 83.425078 
L 146.842656 83.425078 
L 146.842656 14.305078 
L 29.715156 14.305078 
z
" style="fill: #ffffff"/>
   </g>
   <g id="matplotlib.axis_1">
    <g id="xtick_1">
     <g id="line2d_1">
      <defs>
       <path id="mebd45fef80" d="M 0 0 
L 0 -3 
" style="stroke: #1a1a1a; stroke-width: 0.8"/>
      </defs>
      <g>
       <use xlink:href="#mebd45fef80" x="29.715156" y="83.425078" style="fill: #1a1a1a; stroke: #1a1a1a; stroke-width: 0.8"/>
      </g>
     </g>
     <g id="text_1">
      <!-- 0 -->
      <g style="fill: #1a1a1a" transform="translate(27.608047 92.263672) scale(0.07 -0.07)">
       <defs>
        <path id="Menlo-Regular-30" d="M 1925 4734 
Q 2672 4734 3055 4125 
Q 3438 3516 3438 2322 
Q 3438 1128 3055 518 
Q 2672 -91 1925 -91 
Q 1178 -91 797 518 
Q 416 1128 416 2322 
Q 416 3516 797 4125 
Q 1178 4734 1925 4734 
z
M 1925 409 
Q 2369 409 2586 881 
Q 2803 1353 2803 2322 
Q 2803 2838 2741 3253 
L 1253 925 
Q 1488 409 1925 409 
z
M 1925 4234 
Q 1484 4234 1267 3762 
Q 1050 3291 1050 2322 
Q 1050 1881 1109 1497 
L 2566 3819 
Q 2328 4234 1925 4234 
z
" transform="scale(0.015625)"/>
       </defs>
       <use xlink:href="#Menlo-Regular-30"/>
      </g>
     </g>
    </g>
    <g id="xtick_2">
     <g id="line2d_2">
      <g>
       <use xlink:href="#mebd45fef80" x="58.997031" y="83.425078" style="fill: #1a1a1a; stroke: #1a1a1a; stroke-width: 0.8"/>
      </g>
     </g>
     <g id="text_2">
      <!-- 100 -->
      <g style="fill: #1a1a1a" transform="translate(52.675703 92.263672) scale(0.07 -0.07)">
       <defs>
        <path id="Menlo-Regular-31" d="M 844 528 
L 1825 528 
L 1825 4053 
L 650 3488 
L 650 4094 
L 1819 4650 
L 2450 4650 
L 2450 528 
L 3419 528 
L 3419 0 
L 844 0 
L 844 528 
z
" transform="scale(0.015625)"/>
       </defs>
       <use xlink:href="#Menlo-Regular-31"/>
       <use xlink:href="#Menlo-Regular-30" transform="translate(60.205078 0)"/>
       <use xlink:href="#Menlo-Regular-30" transform="translate(120.410156 0)"/>
      </g>
     </g>
    </g>
    <g id="xtick_3">
     <g id="line2d_3">
      <g>
       <use xlink:href="#mebd45fef80" x="88.278906" y="83.425078" style="fill: #1a1a1a; stroke: #1a1a1a; stroke-width: 0.8"/>
      </g>
     </g>
     <g id="text_3">
      <!-- 200 -->
      <g style="fill: #1a1a1a" transform="translate(81.957578 92.263672) scale(0.07 -0.07)">
       <defs>
        <path id="Menlo-Regular-32" d="M 1166 531 
L 3309 531 
L 3309 0 
L 475 0 
L 475 531 
Q 1059 1147 1496 1619 
Q 1934 2091 2100 2284 
Q 2413 2666 2522 2902 
Q 2631 3138 2631 3384 
Q 2631 3775 2401 3997 
Q 2172 4219 1772 4219 
Q 1488 4219 1175 4116 
Q 863 4013 513 3803 
L 513 4441 
Q 834 4594 1145 4672 
Q 1456 4750 1759 4750 
Q 2444 4750 2861 4386 
Q 3278 4022 3278 3431 
Q 3278 3131 3139 2831 
Q 3000 2531 2688 2169 
Q 2513 1966 2180 1606 
Q 1847 1247 1166 531 
z
" transform="scale(0.015625)"/>
       </defs>
       <use xlink:href="#Menlo-Regular-32"/>
       <use xlink:href="#Menlo-Regular-30" transform="translate(60.205078 0)"/>
       <use xlink:href="#Menlo-Regular-30" transform="translate(120.410156 0)"/>
      </g>
     </g>
    </g>
    <g id="xtick_4">
     <g id="line2d_4">
      <g>
       <use xlink:href="#mebd45fef80" x="117.560781" y="83.425078" style="fill: #1a1a1a; stroke: #1a1a1a; stroke-width: 0.8"/>
      </g>
     </g>
     <g id="text_4">
      <!-- 300 -->
      <g style="fill: #1a1a1a" transform="translate(111.239453 92.263672) scale(0.07 -0.07)">
       <defs>
        <path id="Menlo-Regular-33" d="M 2425 2497 
Q 2884 2375 3128 2064 
Q 3372 1753 3372 1288 
Q 3372 644 2939 276 
Q 2506 -91 1741 -91 
Q 1419 -91 1084 -31 
Q 750 28 428 141 
L 428 769 
Q 747 603 1056 522 
Q 1366 441 1672 441 
Q 2191 441 2469 675 
Q 2747 909 2747 1350 
Q 2747 1756 2469 1995 
Q 2191 2234 1716 2234 
L 1234 2234 
L 1234 2753 
L 1716 2753 
Q 2150 2753 2394 2943 
Q 2638 3134 2638 3475 
Q 2638 3834 2411 4026 
Q 2184 4219 1766 4219 
Q 1488 4219 1191 4156 
Q 894 4094 569 3969 
L 569 4550 
Q 947 4650 1242 4700 
Q 1538 4750 1766 4750 
Q 2447 4750 2855 4408 
Q 3263 4066 3263 3500 
Q 3263 3116 3048 2859 
Q 2834 2603 2425 2497 
z
" transform="scale(0.015625)"/>
       </defs>
       <use xlink:href="#Menlo-Regular-33"/>
       <use xlink:href="#Menlo-Regular-30" transform="translate(60.205078 0)"/>
       <use xlink:href="#Menlo-Regular-30" transform="translate(120.410156 0)"/>
      </g>
     </g>
    </g>
    <g id="xtick_5">
     <g id="line2d_5">
      <g>
       <use xlink:href="#mebd45fef80" x="146.842656" y="83.425078" style="fill: #1a1a1a; stroke: #1a1a1a; stroke-width: 0.8"/>
      </g>
     </g>
     <g id="text_5">
      <!-- 400 -->
      <g style="fill: #1a1a1a" transform="translate(140.521328 92.263672) scale(0.07 -0.07)">
       <defs>
        <path id="Menlo-Regular-34" d="M 2297 4091 
L 825 1625 
L 2297 1625 
L 2297 4091 
z
M 2194 4666 
L 2925 4666 
L 2925 1625 
L 3547 1625 
L 3547 1113 
L 2925 1113 
L 2925 0 
L 2297 0 
L 2297 1113 
L 319 1113 
L 319 1709 
L 2194 4666 
z
" transform="scale(0.015625)"/>
       </defs>
       <use xlink:href="#Menlo-Regular-34"/>
       <use xlink:href="#Menlo-Regular-30" transform="translate(60.205078 0)"/>
       <use xlink:href="#Menlo-Regular-30" transform="translate(120.410156 0)"/>
      </g>
     </g>
    </g>
    <g id="text_6">
     <!-- time (ms) -->
     <g style="fill: #1a1a1a" transform="translate(66.605781 103.820703) scale(0.08 -0.08)">
      <defs>
       <path id="Menlo-Regular-74" d="M 1919 4494 
L 1919 3500 
L 3225 3500 
L 3225 3053 
L 1919 3053 
L 1919 1153 
Q 1919 766 2066 612 
Q 2213 459 2578 459 
L 3225 459 
L 3225 0 
L 2522 0 
Q 1875 0 1609 259 
Q 1344 519 1344 1153 
L 1344 3053 
L 409 3053 
L 409 3500 
L 1344 3500 
L 1344 4494 
L 1919 4494 
z
" transform="scale(0.015625)"/>
       <path id="Menlo-Regular-69" d="M 988 3488 
L 2459 3488 
L 2459 447 
L 3600 447 
L 3600 0 
L 744 0 
L 744 447 
L 1884 447 
L 1884 3041 
L 988 3041 
L 988 3488 
z
M 1884 4847 
L 2459 4847 
L 2459 4122 
L 1884 4122 
L 1884 4847 
z
" transform="scale(0.015625)"/>
       <path id="Menlo-Regular-6d" d="M 2113 3144 
Q 2219 3369 2383 3476 
Q 2547 3584 2778 3584 
Q 3200 3584 3373 3257 
Q 3547 2931 3547 2028 
L 3547 0 
L 3022 0 
L 3022 2003 
Q 3022 2744 2939 2923 
Q 2856 3103 2638 3103 
Q 2388 3103 2295 2911 
Q 2203 2719 2203 2003 
L 2203 0 
L 1678 0 
L 1678 2003 
Q 1678 2753 1589 2928 
Q 1500 3103 1269 3103 
Q 1041 3103 952 2911 
Q 863 2719 863 2003 
L 863 0 
L 341 0 
L 341 3500 
L 863 3500 
L 863 3200 
Q 966 3388 1120 3486 
Q 1275 3584 1472 3584 
Q 1709 3584 1867 3475 
Q 2025 3366 2113 3144 
z
" transform="scale(0.015625)"/>
       <path id="Menlo-Regular-65" d="M 3500 2038 
L 3500 1756 
L 1009 1756 
L 1009 1738 
Q 984 1022 1282 709 
Q 1581 397 2125 397 
Q 2400 397 2700 484 
Q 3000 572 3341 750 
L 3341 178 
Q 3013 44 2708 -23 
Q 2403 -91 2119 -91 
Q 1303 -91 843 398 
Q 384 888 384 1747 
Q 384 2584 834 3084 
Q 1284 3584 2034 3584 
Q 2703 3584 3089 3131 
Q 3475 2678 3500 2038 
z
M 2925 2206 
Q 2888 2569 2661 2833 
Q 2434 3097 2009 3097 
Q 1594 3097 1325 2822 
Q 1056 2547 1031 2203 
L 2925 2206 
z
" transform="scale(0.015625)"/>
       <path id="Menlo-Regular-20" transform="scale(0.015625)"/>
       <path id="Menlo-Regular-28" d="M 2672 5169 
Q 2256 4456 2051 3748 
Q 1847 3041 1847 2322 
Q 1847 1606 2051 897 
Q 2256 188 2672 -531 
L 2172 -531 
Q 1700 213 1469 917 
Q 1238 1622 1238 2322 
Q 1238 3019 1469 3725 
Q 1700 4431 2172 5169 
L 2672 5169 
z
" transform="scale(0.015625)"/>
       <path id="Menlo-Regular-73" d="M 3041 3378 
L 3041 2816 
Q 2794 2959 2544 3031 
Q 2294 3103 2034 3103 
Q 1644 3103 1451 2976 
Q 1259 2850 1259 2591 
Q 1259 2356 1403 2240 
Q 1547 2125 2119 2016 
L 2350 1972 
Q 2778 1891 2998 1647 
Q 3219 1403 3219 1013 
Q 3219 494 2850 201 
Q 2481 -91 1825 -91 
Q 1566 -91 1281 -36 
Q 997 19 666 128 
L 666 722 
Q 988 556 1281 473 
Q 1575 391 1838 391 
Q 2219 391 2428 545 
Q 2638 700 2638 978 
Q 2638 1378 1872 1531 
L 1847 1538 
L 1631 1581 
Q 1134 1678 906 1908 
Q 678 2138 678 2534 
Q 678 3038 1018 3311 
Q 1359 3584 1991 3584 
Q 2272 3584 2531 3532 
Q 2791 3481 3041 3378 
z
" transform="scale(0.015625)"/>
       <path id="Menlo-Regular-29" d="M 1088 5169 
L 1588 5169 
Q 2059 4431 2290 3725 
Q 2522 3019 2522 2322 
Q 2522 1619 2290 912 
Q 2059 206 1588 -531 
L 1088 -531 
Q 1503 194 1708 903 
Q 1913 1613 1913 2322 
Q 1913 3034 1708 3743 
Q 1503 4453 1088 5169 
z
" transform="scale(0.015625)"/>
      </defs>
      <use xlink:href="#Menlo-Regular-74"/>
      <use xlink:href="#Menlo-Regular-69" transform="translate(60.205078 0)"/>
      <use xlink:href="#Menlo-Regular-6d" transform="translate(120.410156 0)"/>
      <use xlink:href="#Menlo-Regular-65" transform="translate(180.615234 0)"/>
      <use xlink:href="#Menlo-Regular-20" transform="translate(240.820312 0)"/>
      <use xlink:href="#Menlo-Regular-28" transform="translate(301.025391 0)"/>
      <use xlink:href="#Menlo-Regular-6d" transform="translate(361.230469 0)"/>
      <use xlink:href="#Menlo-Regular-73" transform="translate(421.435547 0)"/>
      <use xlink:href="#Menlo-Regular-29" transform="translate(481.640625 0)"/>
     </g>
    </g>
   </g>
   <g id="matplotlib.axis_2">
    <g id="ytick_1">
     <g id="line2d_6">
      <defs>
       <path id="m03cacba9b2" d="M 0 0 
L 3 0 
" style="stroke: #1a1a1a; stroke-width: 0.8"/>
      </defs>
      <g>
       <use xlink:href="#m03cacba9b2" x="29.715156" y="69.871499" style="fill: #1a1a1a; stroke: #1a1a1a; stroke-width: 0.8"/>
      </g>
     </g>
     <g id="text_7">
      <!-- −10 -->
      <g style="fill: #1a1a1a" transform="translate(13.5725 72.540796) scale(0.07 -0.07)">
       <defs>
        <path id="Menlo-Regular-2212" d="M 275 2272 
L 3578 2272 
L 3578 1741 
L 275 1741 
L 275 2272 
z
" transform="scale(0.015625)"/>
       </defs>
       <use xlink:href="#Menlo-Regular-2212"/>
       <use xlink:href="#Menlo-Regular-31" transform="translate(60.205078 0)"/>
       <use xlink:href="#Menlo-Regular-30" transform="translate(120.410156 0)"/>
      </g>
     </g>
    </g>
    <g id="ytick_2">
     <g id="line2d_7">
      <g>
       <use xlink:href="#m03cacba9b2" x="29.715156" y="51.114662" style="fill: #1a1a1a; stroke: #1a1a1a; stroke-width: 0.8"/>
      </g>
     </g>
     <g id="text_8">
      <!-- −5 -->
      <g style="fill: #1a1a1a" transform="translate(17.786719 53.783959) scale(0.07 -0.07)">
       <defs>
        <path id="Menlo-Regular-35" d="M 647 4666 
L 3009 4666 
L 3009 4134 
L 1222 4134 
L 1222 2988 
Q 1356 3038 1492 3061 
Q 1628 3084 1766 3084 
Q 2491 3084 2916 2656 
Q 3341 2228 3341 1497 
Q 3341 759 2895 334 
Q 2450 -91 1678 -91 
Q 1306 -91 998 -41 
Q 691 9 447 109 
L 447 750 
Q 734 594 1025 517 
Q 1316 441 1619 441 
Q 2141 441 2423 716 
Q 2706 991 2706 1497 
Q 2706 1997 2414 2275 
Q 2122 2553 1600 2553 
Q 1347 2553 1106 2495 
Q 866 2438 647 2322 
L 647 4666 
z
" transform="scale(0.015625)"/>
       </defs>
       <use xlink:href="#Menlo-Regular-2212"/>
       <use xlink:href="#Menlo-Regular-35" transform="translate(60.205078 0)"/>
      </g>
     </g>
    </g>
    <g id="ytick_3">
     <g id="line2d_8">
      <g>
       <use xlink:href="#m03cacba9b2" x="29.715156" y="32.357825" style="fill: #1a1a1a; stroke: #1a1a1a; stroke-width: 0.8"/>
      </g>
     </g>
     <g id="text_9">
      <!-- 0 -->
      <g style="fill: #1a1a1a" transform="translate(22.000938 35.027122) scale(0.07 -0.07)">
       <use xlink:href="#Menlo-Regular-30"/>
      </g>
     </g>
    </g>
    <g id="text_10">
     <!-- I in  [+ depol. / − hyperpol.] -->
     <g style="fill: #1a1a1a" transform="translate(7.90875 121.108828) rotate(-90) scale(0.08 -0.08)">
      <defs>
       <path id="Menlo-Regular-49" d="M 628 4666 
L 3219 4666 
L 3219 4134 
L 2241 4134 
L 2241 531 
L 3219 531 
L 3219 0 
L 628 0 
L 628 531 
L 1606 531 
L 1606 4134 
L 628 4134 
L 628 4666 
z
" transform="scale(0.015625)"/>
       <path id="Menlo-Regular-6e" d="M 3284 2169 
L 3284 0 
L 2706 0 
L 2706 2169 
Q 2706 2641 2540 2862 
Q 2375 3084 2022 3084 
Q 1619 3084 1401 2798 
Q 1184 2513 1184 1978 
L 1184 0 
L 609 0 
L 609 3500 
L 1184 3500 
L 1184 2975 
Q 1338 3275 1600 3429 
Q 1863 3584 2222 3584 
Q 2756 3584 3020 3232 
Q 3284 2881 3284 2169 
z
" transform="scale(0.015625)"/>
       <path id="Menlo-Regular-5b" d="M 1759 5175 
L 3084 5175 
L 3084 4728 
L 2334 4728 
L 2334 -84 
L 3084 -84 
L 3084 -531 
L 1759 -531 
L 1759 5175 
z
" transform="scale(0.015625)"/>
       <path id="Menlo-Regular-2b" d="M 2250 3681 
L 2250 2297 
L 3641 2297 
L 3641 1769 
L 2250 1769 
L 2250 384 
L 1725 384 
L 1725 1769 
L 338 1769 
L 338 2297 
L 1725 2297 
L 1725 3681 
L 2250 3681 
z
" transform="scale(0.015625)"/>
       <path id="Menlo-Regular-64" d="M 2681 3053 
L 2681 4863 
L 3256 4863 
L 3256 0 
L 2681 0 
L 2681 441 
Q 2538 181 2298 45 
Q 2059 -91 1747 -91 
Q 1113 -91 748 401 
Q 384 894 384 1759 
Q 384 2613 750 3098 
Q 1116 3584 1747 3584 
Q 2063 3584 2303 3448 
Q 2544 3313 2681 3053 
z
M 991 1747 
Q 991 1078 1203 737 
Q 1416 397 1831 397 
Q 2247 397 2464 740 
Q 2681 1084 2681 1747 
Q 2681 2413 2464 2755 
Q 2247 3097 1831 3097 
Q 1416 3097 1203 2756 
Q 991 2416 991 1747 
z
" transform="scale(0.015625)"/>
       <path id="Menlo-Regular-70" d="M 1172 441 
L 1172 -1331 
L 594 -1331 
L 594 3500 
L 1172 3500 
L 1172 3053 
Q 1316 3313 1555 3448 
Q 1794 3584 2106 3584 
Q 2741 3584 3102 3093 
Q 3463 2603 3463 1734 
Q 3463 881 3100 395 
Q 2738 -91 2106 -91 
Q 1788 -91 1548 45 
Q 1309 181 1172 441 
z
M 2859 1747 
Q 2859 2416 2648 2756 
Q 2438 3097 2022 3097 
Q 1603 3097 1387 2755 
Q 1172 2413 1172 1747 
Q 1172 1084 1387 740 
Q 1603 397 2022 397 
Q 2438 397 2648 737 
Q 2859 1078 2859 1747 
z
" transform="scale(0.015625)"/>
       <path id="Menlo-Regular-6f" d="M 1925 3097 
Q 1488 3097 1263 2756 
Q 1038 2416 1038 1747 
Q 1038 1081 1263 739 
Q 1488 397 1925 397 
Q 2366 397 2591 739 
Q 2816 1081 2816 1747 
Q 2816 2416 2591 2756 
Q 2366 3097 1925 3097 
z
M 1925 3584 
Q 2653 3584 3039 3112 
Q 3425 2641 3425 1747 
Q 3425 850 3040 379 
Q 2656 -91 1925 -91 
Q 1197 -91 812 379 
Q 428 850 428 1747 
Q 428 2641 812 3112 
Q 1197 3584 1925 3584 
z
" transform="scale(0.015625)"/>
       <path id="Menlo-Regular-6c" d="M 2247 1266 
Q 2247 878 2389 681 
Q 2531 484 2809 484 
L 3481 484 
L 3481 0 
L 2753 0 
Q 2238 0 1955 329 
Q 1672 659 1672 1266 
L 1672 4431 
L 750 4431 
L 750 4881 
L 2247 4881 
L 2247 1266 
z
" transform="scale(0.015625)"/>
       <path id="Menlo-Regular-2e" d="M 1216 1263 
L 2316 1263 
L 2316 0 
L 1216 0 
L 1216 1263 
z
" transform="scale(0.015625)"/>
       <path id="Menlo-Regular-2f" d="M 2778 4666 
L 3372 4666 
L 916 -594 
L 319 -594 
L 2778 4666 
z
" transform="scale(0.015625)"/>
       <path id="Menlo-Regular-68" d="M 3284 2169 
L 3284 0 
L 2706 0 
L 2706 2169 
Q 2706 2641 2540 2862 
Q 2375 3084 2022 3084 
Q 1619 3084 1401 2798 
Q 1184 2513 1184 1978 
L 1184 0 
L 609 0 
L 609 4863 
L 1184 4863 
L 1184 2975 
Q 1338 3275 1600 3429 
Q 1863 3584 2222 3584 
Q 2756 3584 3020 3232 
Q 3284 2881 3284 2169 
z
" transform="scale(0.015625)"/>
       <path id="Menlo-Regular-79" d="M 2681 1125 
Q 2538 759 2316 163 
Q 2006 -663 1900 -844 
Q 1756 -1088 1540 -1209 
Q 1325 -1331 1038 -1331 
L 575 -1331 
L 575 -850 
L 916 -850 
Q 1169 -850 1312 -703 
Q 1456 -556 1678 56 
L 325 3500 
L 934 3500 
L 1972 763 
L 2994 3500 
L 3603 3500 
L 2681 1125 
z
" transform="scale(0.015625)"/>
       <path id="Menlo-Regular-72" d="M 3609 2778 
Q 3425 2922 3234 2987 
Q 3044 3053 2816 3053 
Q 2278 3053 1993 2715 
Q 1709 2378 1709 1741 
L 1709 0 
L 1131 0 
L 1131 3500 
L 1709 3500 
L 1709 2816 
Q 1853 3188 2151 3386 
Q 2450 3584 2859 3584 
Q 3072 3584 3256 3531 
Q 3441 3478 3609 3366 
L 3609 2778 
z
" transform="scale(0.015625)"/>
       <path id="Menlo-Regular-5d" d="M 2250 5175 
L 2250 -531 
L 925 -531 
L 925 -84 
L 1675 -84 
L 1675 4728 
L 925 4728 
L 925 5175 
L 2250 5175 
z
" transform="scale(0.015625)"/>
      </defs>
      <use xlink:href="#Menlo-Regular-49"/>
      <use xlink:href="#Menlo-Regular-20" transform="translate(60.205078 0)"/>
      <use xlink:href="#Menlo-Regular-69" transform="translate(120.410156 0)"/>
      <use xlink:href="#Menlo-Regular-6e" transform="translate(180.615234 0)"/>
      <use xlink:href="#Menlo-Regular-20" transform="translate(240.820312 0)"/>
      <use xlink:href="#Menlo-Regular-20" transform="translate(301.025391 0)"/>
      <use xlink:href="#Menlo-Regular-5b" transform="translate(361.230469 0)"/>
      <use xlink:href="#Menlo-Regular-2b" transform="translate(421.435547 0)"/>
      <use xlink:href="#Menlo-Regular-20" transform="translate(481.640625 0)"/>
      <use xlink:href="#Menlo-Regular-64" transform="translate(541.845703 0)"/>
      <use xlink:href="#Menlo-Regular-65" transform="translate(602.050781 0)"/>
      <use xlink:href="#Menlo-Regular-70" transform="translate(662.255859 0)"/>
      <use xlink:href="#Menlo-Regular-6f" transform="translate(722.460938 0)"/>
      <use xlink:href="#Menlo-Regular-6c" transform="translate(782.666016 0)"/>
      <use xlink:href="#Menlo-Regular-2e" transform="translate(842.871094 0)"/>
      <use xlink:href="#Menlo-Regular-20" transform="translate(903.076172 0)"/>
      <use xlink:href="#Menlo-Regular-2f" transform="translate(963.28125 0)"/>
      <use xlink:href="#Menlo-Regular-20" transform="translate(1023.486328 0)"/>
      <use xlink:href="#Menlo-Regular-2212" transform="translate(1083.691406 0)"/>
      <use xlink:href="#Menlo-Regular-20" transform="translate(1143.896484 0)"/>
      <use xlink:href="#Menlo-Regular-68" transform="translate(1204.101562 0)"/>
      <use xlink:href="#Menlo-Regular-79" transform="translate(1264.306641 0)"/>
      <use xlink:href="#Menlo-Regular-70" transform="translate(1324.511719 0)"/>
      <use xlink:href="#Menlo-Regular-65" transform="translate(1384.716797 0)"/>
      <use xlink:href="#Menlo-Regular-72" transform="translate(1444.921875 0)"/>
      <use xlink:href="#Menlo-Regular-70" transform="translate(1505.126953 0)"/>
      <use xlink:href="#Menlo-Regular-6f" transform="translate(1565.332031 0)"/>
      <use xlink:href="#Menlo-Regular-6c" transform="translate(1625.537109 0)"/>
      <use xlink:href="#Menlo-Regular-2e" transform="translate(1685.742188 0)"/>
      <use xlink:href="#Menlo-Regular-5d" transform="translate(1745.947266 0)"/>
     </g>
    </g>
   </g>
   <g id="line2d_9">
    <path d="M 29.715156 32.357825 
L 146.842656 32.357825 
" clip-path="url(#p4bd14adfbf)" style="fill: none; stroke: #bbbbbb; stroke-width: 0.5; stroke-linejoin: miter"/>
   </g>
   <g id="line2d_10">
    <path d="M 29.715156 32.009038 
L 29.788361 31.748333 
L 29.861566 31.803081 
L 30.007975 31.926177 
L 30.227589 31.456155 
L 30.300794 31.217235 
L 30.373998 31.345663 
L 30.593613 31.484358 
L 30.959636 31.861513 
L 31.032841 31.771233 
L 31.398864 30.028147 
L 31.472069 30.109226 
L 32.204116 31.650452 
L 32.643344 32.023863 
L 32.789753 32.014682 
L 33.009367 31.525255 
L 33.082572 31.623349 
L 33.302186 31.624766 
L 33.448595 31.259772 
L 33.5218 31.187004 
L 33.814619 31.515939 
L 34.180642 31.905639 
L 34.61987 32.046588 
L 35.059098 32.192422 
L 35.351917 31.152905 
L 35.571531 30.537881 
L 35.86435 30.895602 
L 35.937555 30.741253 
L 36.303578 28.774465 
L 36.376783 28.98806 
L 36.523192 28.555128 
L 36.669602 29.075221 
L 36.742806 29.004499 
L 37.182034 30.667421 
L 37.401648 29.795047 
L 37.767672 25.519487 
L 37.840877 25.329804 
L 37.914081 25.381995 
L 38.426514 28.795772 
L 38.646128 28.334852 
L 39.158561 30.031387 
L 39.231766 29.871639 
L 39.597789 26.54239 
L 40.037017 25.583918 
L 40.329836 22.636406 
L 40.54945 20.027732 
L 40.842269 19.323424 
L 40.915473 19.431616 
L 41.135088 21.009211 
L 41.940339 27.888814 
L 42.306363 29.842887 
L 42.525977 29.587555 
L 42.672386 29.828336 
L 42.745591 29.742465 
L 42.965205 28.888816 
L 43.184819 28.36697 
L 43.258023 28.363032 
L 43.404433 28.498824 
L 43.550842 28.390392 
L 43.99007 26.87228 
L 44.063275 26.472415 
L 44.13648 26.581341 
L 44.502503 28.887869 
L 44.722117 29.755378 
L 44.868527 29.59488 
L 45.088141 30.13548 
L 45.23455 30.475411 
L 45.527369 31.213896 
L 45.966597 30.482425 
L 46.039802 30.431276 
L 46.405825 31.24552 
L 46.552234 31.457637 
L 46.625439 31.302706 
L 47.137872 28.634926 
L 47.211077 28.46638 
L 47.503895 29.511968 
L 47.869919 30.77961 
L 48.309147 31.61149 
L 48.528761 31.046276 
L 49.041194 31.785153 
L 49.187603 30.947649 
L 49.700036 28.042031 
L 49.992855 28.437291 
L 50.505288 30.419339 
L 50.944516 31.408716 
L 51.16413 31.699471 
L 51.237334 31.490247 
L 51.822972 25.241045 
L 52.115791 25.320644 
L 52.188995 25.210099 
L 52.628223 22.553618 
L 52.701428 22.495176 
L 52.921042 22.903884 
L 53.067452 23.192134 
L 53.213861 23.296521 
L 53.36027 22.366765 
L 53.579884 20.832266 
L 53.653089 20.743128 
L 53.726294 20.81557 
L 53.799498 20.930391 
L 54.092317 20.230512 
L 54.311931 21.926641 
L 54.60475 24.277741 
L 54.677955 24.341729 
L 54.970773 25.714886 
L 55.410002 28.309031 
L 55.556411 28.732322 
L 55.995639 30.628043 
L 56.361663 31.368167 
L 56.800891 31.879164 
L 56.9473 31.883708 
L 57.166914 31.261637 
L 57.240119 31.253271 
L 57.606142 29.004738 
L 58.04537 27.657198 
L 58.264984 26.59948 
L 58.338189 26.586887 
L 58.557803 25.993259 
L 59.363055 20.650379 
L 59.509464 21.063907 
L 59.655873 20.794849 
L 59.729078 20.863265 
L 60.095102 22.171313 
L 60.168306 22.176638 
L 60.38792 21.377262 
L 60.461125 21.747094 
L 60.607534 18.355764 
L 60.680739 18.24603 
L 60.753944 18.374596 
L 61.266377 21.072896 
L 61.412786 21.367051 
L 61.852014 22.938066 
L 62.144833 22.53841 
L 62.437652 23.432602 
L 62.657266 24.492049 
L 62.87688 24.371008 
L 63.023289 23.891312 
L 63.169698 23.950697 
L 63.389313 23.343135 
L 63.682131 22.080281 
L 63.828541 21.935307 
L 63.901745 21.732815 
L 64.267769 22.665535 
L 64.340973 22.661022 
L 64.633792 23.532092 
L 64.780202 23.103125 
L 64.926611 23.875934 
L 65.658658 29.156922 
L 66.024681 30.435871 
L 66.3175 31.079415 
L 66.610319 30.701496 
L 66.976342 29.160597 
L 67.342366 26.800176 
L 67.56198 26.420545 
L 67.781594 25.693644 
L 67.928003 25.705907 
L 68.001208 25.924246 
L 68.074413 25.66089 
L 68.220822 26.020166 
L 68.440436 25.685212 
L 68.513641 25.840987 
L 68.952869 28.129216 
L 69.026073 28.176357 
L 69.538506 26.101769 
L 69.611711 26.221184 
L 70.124144 28.837024 
L 70.197348 28.790971 
L 70.343758 27.757408 
L 70.636577 26.123094 
L 70.709781 26.291559 
L 70.782986 26.193076 
L 71.368623 24.600777 
L 71.515033 23.931337 
L 71.661442 24.197684 
L 71.881056 24.00252 
L 72.027466 24.70401 
L 72.320284 26.431585 
L 72.393489 25.134181 
L 72.466694 25.267525 
L 72.539898 25.310116 
L 72.759512 24.310616 
L 72.832717 23.712751 
L 72.905922 23.722845 
L 73.052331 23.807954 
L 73.271945 22.98485 
L 73.34515 23.120882 
L 73.491559 22.574283 
L 73.711173 23.405597 
L 73.857583 23.093805 
L 74.003992 22.650833 
L 74.150402 22.401682 
L 74.223606 22.256164 
L 74.296811 22.296662 
L 74.44322 22.51154 
L 74.58963 22.888449 
L 74.882448 23.372228 
L 75.394881 27.3217 
L 75.468086 27.466148 
L 75.834109 29.619361 
L 76.053723 30.458525 
L 76.346542 29.488946 
L 76.78577 26.755833 
L 77.298203 28.903669 
L 77.517817 29.414374 
L 77.737431 30.17989 
L 77.957045 29.695623 
L 78.176659 28.499434 
L 78.835502 24.132411 
L 79.201525 22.696358 
L 79.494344 23.034145 
L 79.787163 22.30463 
L 79.860367 22.348314 
L 80.226391 23.060583 
L 80.299595 23.089432 
L 80.3728 22.85532 
L 80.592414 23.49593 
L 80.665619 21.38844 
L 80.738823 21.99824 
L 80.958438 24.318104 
L 81.251256 26.857268 
L 81.763689 28.640494 
L 81.836894 28.577822 
L 82.056508 27.862194 
L 82.202917 27.322499 
L 82.422531 28.440517 
L 82.642145 29.119673 
L 82.71535 29.281859 
L 82.934964 28.772967 
L 83.081373 28.840716 
L 83.300988 29.739033 
L 83.374192 29.574485 
L 83.81342 30.709048 
L 84.252648 31.573305 
L 84.545467 31.880828 
L 84.691877 31.329079 
L 84.838286 31.415762 
L 85.0579 30.843249 
L 85.423923 31.517682 
L 85.863152 31.961522 
L 86.448789 32.212324 
L 87.107631 32.256436 
L 87.327245 32.250589 
L 87.620064 31.013871 
L 87.839678 31.437782 
L 87.912883 31.346284 
L 87.986088 30.996177 
L 88.059292 31.157862 
L 88.132497 31.217906 
L 88.49852 30.021373 
L 88.571725 29.721085 
L 88.64493 29.789948 
L 88.718134 29.857061 
L 88.864544 30.183088 
L 89.010953 29.960465 
L 89.084158 29.692425 
L 89.669795 24.07548 
L 89.889409 23.292896 
L 90.035819 22.485125 
L 90.109023 22.544725 
L 90.328638 23.885496 
L 90.767866 28.371534 
L 91.133889 30.231739 
L 91.573117 31.34658 
L 91.646322 31.464724 
L 91.865936 30.548668 
L 92.231959 27.734053 
L 92.378369 27.604954 
L 93.18362 30.398975 
L 93.256825 30.447414 
L 93.403234 30.668914 
L 93.549644 30.502902 
L 94.135281 27.460152 
L 94.208486 27.564008 
L 94.354895 26.974485 
L 94.4281 27.275031 
L 94.501305 27.133624 
L 94.574509 27.102587 
L 94.720919 26.666977 
L 95.086942 26.374922 
L 95.233352 26.860316 
L 95.892194 29.710579 
L 96.624241 31.371156 
L 96.77065 31.065729 
L 96.843855 31.12176 
L 97.209878 30.906504 
L 98.01513 28.320429 
L 98.161539 28.640014 
L 98.527563 30.165427 
L 98.966791 31.31071 
L 99.406019 31.85879 
L 99.625633 30.309376 
L 99.991656 27.932234 
L 100.284475 28.051434 
L 100.430884 27.686809 
L 100.577294 28.457678 
L 100.650498 28.425345 
L 100.723703 28.334817 
L 100.870113 28.679481 
L 100.943317 28.548786 
L 101.236136 28.287074 
L 101.45575 28.248852 
L 101.602159 27.798776 
L 101.675364 27.824063 
L 101.748569 27.592212 
L 101.821773 27.633996 
L 101.894978 27.667888 
L 102.187797 28.771893 
L 102.407411 28.349359 
L 102.55382 28.330537 
L 102.70023 28.060697 
L 102.773434 28.230022 
L 103.066253 29.620939 
L 103.285867 29.671069 
L 103.359072 29.620767 
L 103.505481 28.752824 
L 103.578686 28.885258 
L 103.7983 29.736306 
L 103.944709 29.366168 
L 104.017914 29.12831 
L 104.164323 29.64342 
L 104.457142 30.639797 
L 104.676756 30.374795 
L 104.969575 31.155934 
L 105.262394 30.529683 
L 105.335598 30.562241 
L 105.774827 31.509944 
L 105.848031 31.60932 
L 105.921236 31.5089 
L 105.994441 31.593081 
L 106.433669 31.995548 
L 107.019306 32.223875 
L 107.23892 32.265587 
L 107.604944 30.419839 
L 108.703014 22.429178 
L 109.069038 19.606158 
L 109.288652 21.229901 
L 109.58147 20.564468 
L 109.654675 20.281156 
L 109.72788 20.484964 
L 109.874289 20.185321 
L 109.947494 20.403033 
L 110.093903 20.064031 
L 110.167108 20.115932 
L 110.240313 19.78166 
L 110.313517 19.859471 
L 110.459927 19.914517 
L 110.533131 19.885738 
L 110.82595 18.23042 
L 111.045564 18.11587 
L 111.191973 17.476619 
L 111.265178 17.778256 
L 111.557997 20.043991 
L 112.143634 21.437129 
L 112.363248 23.834398 
L 112.656067 25.673946 
L 113.095295 26.622715 
L 113.314909 27.634968 
L 113.534523 27.148812 
L 113.607728 27.193924 
L 113.754138 27.937709 
L 113.827342 27.833207 
L 114.046956 26.909563 
L 114.120161 26.837069 
L 114.26657 26.130725 
L 114.41298 25.513638 
L 114.852208 28.260661 
L 115.657459 30.67139 
L 115.803869 30.349202 
L 116.169892 27.936167 
L 116.316302 28.026624 
L 116.828734 30.53488 
L 117.048348 30.863984 
L 117.194758 30.347605 
L 117.341167 30.584429 
L 117.414372 30.793128 
L 117.487577 30.722005 
L 117.560781 30.767746 
L 117.926805 31.475013 
L 118.146419 31.734677 
L 118.219623 31.587164 
L 118.292828 31.661569 
L 118.439238 31.815328 
L 118.878466 28.812355 
L 118.95167 29.091168 
L 119.317694 30.622258 
L 119.756922 31.539994 
L 120.122945 31.919918 
L 120.269355 31.9615 
L 120.488969 32.017566 
L 120.635378 31.318825 
L 121.074606 29.021776 
L 121.221016 29.580024 
L 121.660244 31.055528 
L 122.099472 31.743629 
L 122.611905 32.101487 
L 123.051133 32.233655 
L 123.124338 32.082079 
L 123.417156 30.635778 
L 123.490361 30.681401 
L 123.78318 31.131135 
L 124.149203 31.61624 
L 125.027659 32.160578 
L 125.100864 31.968442 
L 125.174069 32.013922 
L 125.759706 32.230755 
L 126.052525 32.280676 
L 126.272139 31.282855 
L 126.345344 31.409861 
L 126.784572 31.911432 
L 127.297005 32.172217 
L 127.516619 32.121901 
L 127.882642 31.415369 
L 127.955847 31.527 
L 128.029052 31.563368 
L 128.395075 30.80095 
L 128.46828 30.946774 
L 128.834303 31.523483 
L 128.907508 31.399627 
L 129.493145 28.67003 
L 130.078783 20.948455 
L 130.371602 20.302675 
L 130.81083 21.146427 
L 131.103648 21.676219 
L 131.250058 22.169821 
L 131.542877 21.931899 
L 131.689286 22.42686 
L 132.128514 25.318521 
L 132.201719 23.572336 
L 132.274923 24.052354 
L 132.421333 24.960466 
L 132.640947 25.035625 
L 132.714152 25.046601 
L 133.226584 26.302435 
L 133.299789 26.283004 
L 133.958631 22.759848 
L 134.324655 23.883863 
L 134.690678 25.3949 
L 134.763883 25.441723 
L 135.056702 24.53166 
L 135.276316 23.731898 
L 135.715544 25.326635 
L 135.935158 25.427118 
L 136.374386 26.836063 
L 136.813614 27.828925 
L 137.179638 25.665288 
L 137.326047 24.97803 
L 137.69207 23.86689 
L 137.984889 24.813536 
L 138.058094 25.087207 
L 138.277708 26.342464 
L 138.497322 26.680804 
L 138.643731 27.162639 
L 138.716936 27.063054 
L 138.863345 26.227858 
L 139.229369 23.773741 
L 139.302573 23.740519 
L 139.815006 21.901795 
L 139.961416 18.433064 
L 140.107825 18.62812 
L 140.400644 17.446896 
L 141.059486 21.841794 
L 141.791533 27.018472 
L 141.864738 27.242796 
L 141.937942 27.185274 
L 142.157556 26.728938 
L 142.230761 26.999626 
L 142.669989 25.56149 
L 142.743194 25.63817 
L 143.036013 26.78398 
L 143.109217 26.73974 
L 143.62165 25.06009 
L 143.841264 23.675091 
L 144.280492 22.739136 
L 144.353697 22.740638 
L 145.085744 26.2731 
L 145.451767 29.075087 
L 145.744586 30.133143 
L 145.817791 29.913731 
L 145.9642 28.849526 
L 146.257019 25.998176 
L 146.623042 24.709933 
L 146.769452 25.235101 
L 146.769452 25.235101 
" clip-path="url(#p4bd14adfbf)" style="fill: none; stroke: #1a1a1a; stroke-width: 0.9; stroke-linejoin: miter"/>
   </g>
   <g id="line2d_11">
    <path d="M 29.715156 32.357825 
L 34.107438 32.357825 
L 34.180642 36.205227 
L 34.400256 80.28326 
L 34.76628 42.063367 
L 34.985894 37.337695 
L 35.205508 36.13595 
L 35.425122 36.049288 
L 35.791145 36.218825 
L 35.937555 36.178183 
L 36.083964 36.460964 
L 36.449988 37.256969 
L 36.596397 37.397012 
L 36.816011 37.334827 
L 37.401648 36.511669 
L 37.474853 36.635246 
L 38.133695 38.374514 
L 38.353309 38.030987 
L 38.719333 37.504631 
L 39.45138 36.644107 
L 39.963813 37.07465 
L 40.256631 37.36893 
L 41.135088 38.682927 
L 41.354702 38.538802 
L 41.79393 37.79521 
L 42.818795 35.813513 
L 43.477638 35.159341 
L 44.13648 34.763356 
L 44.868527 34.271068 
L 46.113006 33.551194 
L 47.137872 33.200656 
L 49.773241 32.705394 
L 50.066059 62.479666 
L 50.432083 47.455802 
L 50.798106 41.024787 
L 51.16413 37.968227 
L 51.383744 37.244679 
L 51.530153 37.233287 
L 51.749767 37.625034 
L 52.115791 38.083512 
L 52.408609 38.386657 
L 52.847838 38.919404 
L 53.140656 38.927292 
L 53.433475 38.918835 
L 53.872703 39.046291 
L 54.238727 38.979202 
L 54.531545 38.601535 
L 55.70282 36.418832 
L 56.581277 34.993934 
L 57.240119 34.298299 
L 57.825756 34.003681 
L 58.704213 33.800391 
L 60.461125 33.61853 
L 60.607534 32.954819 
L 61.6324 32.833302 
L 62.584061 32.816263 
L 62.657266 35.544325 
L 62.803675 53.198118 
L 62.87688 53.151241 
L 63.316108 46.925957 
L 63.755336 43.798848 
L 64.340973 41.448652 
L 65.21943 38.931119 
L 66.171091 36.39073 
L 66.756728 35.390224 
L 67.195956 34.993556 
L 68.001208 34.650565 
L 69.172483 34.088675 
L 70.856191 33.45017 
L 72.320284 33.13403 
L 72.466694 32.726433 
L 73.637969 32.649866 
L 73.784378 33.656661 
L 73.930788 41.824784 
L 74.003992 42.458863 
L 74.077197 42.152991 
L 74.662834 40.26381 
L 76.419747 35.918459 
L 76.93218 35.38634 
L 78.249864 34.236052 
L 78.908706 34.02571 
L 80.519209 33.659971 
L 80.592414 33.638104 
L 80.738823 32.964562 
L 82.056508 32.771671 
L 82.422531 32.744562 
L 82.642145 66.874544 
L 82.788555 60.91793 
L 83.081373 47.638198 
L 83.447397 40.985163 
L 83.886625 37.805257 
L 84.325853 36.214112 
L 84.691877 35.557184 
L 85.0579 35.333555 
L 85.497128 35.076462 
L 86.668403 34.298753 
L 87.473655 33.998015 
L 89.303772 34.065908 
L 90.255433 34.585681 
L 90.621456 34.511562 
L 91.499913 33.939658 
L 92.158755 33.625613 
L 95.452966 32.884664 
L 96.551036 32.707377 
L 96.77065 53.449264 
L 96.843855 52.541749 
L 97.283083 44.449607 
L 97.722311 40.57329 
L 98.161539 38.710972 
L 98.893586 36.554836 
L 99.479223 35.408612 
L 99.772042 35.164499 
L 101.236136 34.628559 
L 104.676756 33.270733 
L 106.360464 32.840527 
L 107.604944 32.653834 
L 107.678148 33.730785 
L 107.751353 41.077891 
L 107.897763 74.152177 
L 107.970967 74.012176 
L 108.263786 49.632781 
L 108.4834 44.724188 
L 108.703014 43.625419 
L 108.849423 43.904111 
L 109.142242 44.746204 
L 109.288652 44.569909 
L 109.58147 44.311554 
L 109.874289 44.346918 
L 110.240313 44.264847 
L 110.679541 44.219903 
L 111.045564 44.456691 
L 111.265178 44.531101 
L 111.484792 44.161919 
L 112.436453 41.537151 
L 113.1685 39.063012 
L 113.680933 37.845943 
L 114.120161 37.16255 
L 115.364641 35.743418 
L 116.023483 34.996889 
L 116.901939 34.409759 
L 117.8536 33.806702 
L 118.805261 33.397393 
L 120.415764 32.960641 
L 121.733448 32.764879 
L 122.758314 32.632915 
L 122.904723 36.269443 
L 123.051133 44.056817 
L 123.124338 43.179952 
L 123.563566 39.682384 
L 124.075998 37.381984 
L 124.588431 35.980035 
L 125.174069 34.993333 
L 125.906116 34.255554 
L 126.491753 33.928015 
L 127.882642 33.37622 
L 129.419941 33.09659 
L 130.005578 33.175018 
L 130.884034 33.275532 
L 132.055309 33.138278 
L 132.128514 33.122957 
L 132.274923 32.722227 
L 132.421333 32.702535 
L 132.494538 33.594099 
L 132.787356 42.892934 
L 132.860561 42.604319 
L 133.812222 39.330407 
L 135.935158 36.415086 
L 137.252842 35.042118 
L 139.302573 33.957846 
L 139.815006 33.806179 
L 139.961416 33.05028 
L 140.913077 32.915176 
L 141.718328 32.878405 
L 142.52358 32.787882 
L 142.596784 35.502482 
L 142.743194 45.952184 
L 143.255627 42.059835 
L 143.694855 40.166949 
L 144.207288 38.942522 
L 146.257019 35.397102 
L 146.769452 35.047123 
L 146.769452 35.047123 
" clip-path="url(#p4bd14adfbf)" style="fill: none; stroke: #c8102e; stroke-width: 0.9; stroke-linejoin: miter"/>
   </g>
   <g id="line2d_12">
    <path d="M 29.715156 32.362158 
L 31.618478 32.662191 
L 32.496934 32.743057 
L 34.180642 32.777478 
L 34.327052 31.99469 
L 34.61987 30.149133 
L 34.912689 29.766845 
L 35.278713 29.702536 
L 36.376783 29.855127 
L 37.182034 29.922368 
L 37.621263 30.041941 
L 38.2069 30.314694 
L 39.597789 30.519797 
L 40.329836 31.035155 
L 41.427906 32.223641 
L 41.940339 32.283815 
L 43.184819 32.16998 
L 43.99007 32.420978 
L 44.575708 32.632106 
L 46.47903 32.643237 
L 46.918258 32.694126 
L 47.869919 32.964702 
L 49.626831 33.096355 
L 49.773241 33.175259 
L 49.91965 32.851398 
L 50.358878 31.19748 
L 50.724902 30.606893 
L 51.16413 30.278902 
L 51.456948 30.253246 
L 51.969381 30.539624 
L 52.701428 31.057273 
L 54.677955 32.524997 
L 55.263592 32.591805 
L 56.068844 32.408054 
L 57.313323 32.093037 
L 57.825756 32.243597 
L 58.411394 32.602225 
L 58.923827 33.105916 
L 60.461125 35.164699 
L 60.607534 32.357825 
L 61.339581 32.357825 
L 62.144833 33.588793 
L 62.657266 34.154749 
L 62.803675 33.900203 
L 63.242903 33.078734 
L 63.608927 32.792494 
L 64.121359 32.720969 
L 65.658658 32.587646 
L 66.829933 32.188518 
L 67.269161 32.299001 
L 68.294027 32.950863 
L 68.952869 33.259729 
L 69.465302 33.478199 
L 70.050939 33.720556 
L 70.563372 33.895728 
L 71.588238 34.634931 
L 72.320284 35.148769 
L 72.466694 32.357825 
L 73.198741 32.357825 
L 73.857583 33.205578 
L 74.736039 33.210865 
L 75.175267 33.196637 
L 76.639361 32.772267 
L 77.444613 32.897684 
L 78.396273 32.987887 
L 78.835502 33.331661 
L 80.592414 35.160299 
L 80.738823 32.357825 
L 81.61728 32.454288 
L 82.495736 32.875695 
L 82.642145 32.261008 
L 82.934964 31.027834 
L 83.300988 30.422799 
L 83.740216 30.161774 
L 84.472262 30.001615 
L 85.131105 30.037358 
L 88.49852 30.518238 
L 89.450181 31.098084 
L 90.694661 32.464995 
L 91.207094 32.529691 
L 92.158755 32.594448 
L 92.964006 32.911602 
L 94.062077 33.133068 
L 95.818989 34.028638 
L 96.551036 33.996869 
L 96.697445 33.747941 
L 97.136673 32.425278 
L 97.575902 31.754338 
L 98.01513 31.496207 
L 99.698838 31.071831 
L 100.577294 31.474394 
L 104.017914 32.702941 
L 104.749961 32.795161 
L 106.653283 32.766775 
L 107.751353 32.672371 
L 108.336991 30.237321 
L 108.629809 30.130126 
L 109.288652 30.354134 
L 110.167108 30.645548 
L 111.191973 31.206758 
L 111.704406 31.411165 
L 112.509658 31.545078 
L 113.754138 31.4708 
L 114.26657 31.590825 
L 114.852208 31.782464 
L 119.09808 32.208804 
L 119.830127 32.283368 
L 121.001402 32.386901 
L 121.587039 32.563856 
L 122.611905 32.576947 
L 122.904723 32.502733 
L 123.197542 32.022434 
L 123.63677 31.559888 
L 124.368817 31.137652 
L 125.247273 30.909368 
L 126.345344 30.878203 
L 129.053917 31.315751 
L 129.56635 31.583971 
L 129.932373 32.080863 
L 131.250058 34.234164 
L 132.055309 35.088327 
L 132.128514 35.132589 
L 132.274923 32.357825 
L 133.226584 32.252339 
L 133.592608 32.221976 
L 134.983497 32.692841 
L 136.520795 33.243688 
L 137.179638 33.406926 
L 139.448983 34.737843 
L 139.815006 35.111108 
L 139.961416 32.357825 
L 140.693463 32.357825 
L 141.205895 33.244477 
L 141.645123 33.619173 
L 142.669989 34.118433 
L 143.255627 33.414297 
L 143.694855 33.22418 
L 144.207288 33.313189 
L 145.012539 33.514988 
L 145.524972 33.400521 
L 146.110609 33.279002 
L 146.623042 33.529323 
L 146.769452 33.613861 
L 146.769452 33.613861 
" clip-path="url(#p4bd14adfbf)" style="fill: none; stroke-dasharray: 0.7,1.155; stroke-dashoffset: 0; stroke: #bbbbbb; stroke-width: 0.7"/>
   </g>
   <g id="patch_3">
    <path d="M 29.715156 83.425078 
L 29.715156 14.305078 
" style="fill: none; stroke: #1a1a1a; stroke-width: 0.8; stroke-linejoin: miter; stroke-linecap: square"/>
   </g>
   <g id="patch_4">
    <path d="M 146.842656 83.425078 
L 146.842656 14.305078 
" style="fill: none; stroke: #1a1a1a; stroke-width: 0.8; stroke-linejoin: miter; stroke-linecap: square"/>
   </g>
   <g id="patch_5">
    <path d="M 29.715156 83.425078 
L 146.842656 83.425078 
" style="fill: none; stroke: #1a1a1a; stroke-width: 0.8; stroke-linejoin: miter; stroke-linecap: square"/>
   </g>
   <g id="patch_6">
    <path d="M 29.715156 14.305078 
L 146.842656 14.305078 
" style="fill: none; stroke: #1a1a1a; stroke-width: 0.8; stroke-linejoin: miter; stroke-linecap: square"/>
   </g>
   <g id="text_11">
    <!-- PING — recurrent loop active (ei-strength = 1.5) — E-neuron signed currents (cell 547) -->
    <g style="fill: #1a1a1a" transform="translate(29.715156 8.305078) scale(0.085 -0.085)">
     <defs>
      <path id="Menlo-Regular-50" d="M 1247 4147 
L 1247 2394 
L 1978 2394 
Q 2416 2394 2661 2625 
Q 2906 2856 2906 3272 
Q 2906 3688 2662 3917 
Q 2419 4147 1978 4147 
L 1247 4147 
z
M 616 4666 
L 1978 4666 
Q 2759 4666 3162 4311 
Q 3566 3956 3566 3272 
Q 3566 2581 3164 2228 
Q 2763 1875 1978 1875 
L 1247 1875 
L 1247 0 
L 616 0 
L 616 4666 
z
" transform="scale(0.015625)"/>
      <path id="Menlo-Regular-4e" d="M 59 4650 
L 922 4650 
L 2747 822 
L 2747 4650 
L 3419 4650 
L 3419 0 
L 2556 0 
L 731 3828 
L 731 0 
L 59 0 
L 59 4650 
z
" transform="scale(0.015625)"/>
      <path id="Menlo-Regular-47" d="M 3450 384 
Q 3197 150 2880 29 
Q 2563 -91 2194 -91 
Q 1306 -91 812 545 
Q 319 1181 319 2328 
Q 319 3472 819 4111 
Q 1319 4750 2209 4750 
Q 2503 4750 2772 4667 
Q 3041 4584 3291 4416 
L 3291 3769 
Q 3038 4009 2772 4123 
Q 2506 4238 2209 4238 
Q 1594 4238 1286 3761 
Q 978 3284 978 2328 
Q 978 1356 1276 889 
Q 1575 422 2194 422 
Q 2403 422 2561 470 
Q 2719 519 2847 622 
L 2847 1875 
L 2169 1875 
L 2169 2394 
L 3450 2394 
L 3450 384 
z
" transform="scale(0.015625)"/>
      <path id="Menlo-Regular-2014" d="M 0 2259 
L 3853 2259 
L 3853 1725 
L 0 1725 
L 0 2259 
z
" transform="scale(0.015625)"/>
      <path id="Menlo-Regular-63" d="M 3316 178 
Q 3084 44 2839 -23 
Q 2594 -91 2338 -91 
Q 1525 -91 1067 396 
Q 609 884 609 1747 
Q 609 2609 1067 3096 
Q 1525 3584 2338 3584 
Q 2591 3584 2831 3518 
Q 3072 3453 3316 3316 
L 3316 2713 
Q 3088 2916 2858 3006 
Q 2628 3097 2338 3097 
Q 1797 3097 1506 2747 
Q 1216 2397 1216 1747 
Q 1216 1100 1508 748 
Q 1800 397 2338 397 
Q 2638 397 2875 489 
Q 3113 581 3316 775 
L 3316 178 
z
" transform="scale(0.015625)"/>
      <path id="Menlo-Regular-75" d="M 609 1325 
L 609 3494 
L 1184 3494 
L 1184 1325 
Q 1184 853 1351 631 
Q 1519 409 1869 409 
Q 2275 409 2490 695 
Q 2706 981 2706 1516 
L 2706 3494 
L 3284 3494 
L 3284 0 
L 2706 0 
L 2706 525 
Q 2553 222 2289 65 
Q 2025 -91 1672 -91 
Q 1134 -91 871 261 
Q 609 613 609 1325 
z
" transform="scale(0.015625)"/>
      <path id="Menlo-Regular-61" d="M 2194 1759 
L 2003 1759 
Q 1500 1759 1245 1582 
Q 991 1406 991 1056 
Q 991 741 1181 566 
Q 1372 391 1709 391 
Q 2184 391 2456 720 
Q 2728 1050 2731 1631 
L 2731 1759 
L 2194 1759 
z
M 3309 1997 
L 3309 0 
L 2731 0 
L 2731 519 
Q 2547 206 2267 57 
Q 1988 -91 1588 -91 
Q 1053 -91 734 211 
Q 416 513 416 1019 
Q 416 1603 808 1906 
Q 1200 2209 1959 2209 
L 2731 2209 
L 2731 2300 
Q 2728 2719 2518 2908 
Q 2309 3097 1850 3097 
Q 1556 3097 1256 3012 
Q 956 2928 672 2766 
L 672 3341 
Q 991 3463 1283 3523 
Q 1575 3584 1850 3584 
Q 2284 3584 2592 3456 
Q 2900 3328 3091 3072 
Q 3209 2916 3259 2686 
Q 3309 2456 3309 1997 
z
" transform="scale(0.015625)"/>
      <path id="Menlo-Regular-76" d="M 313 3500 
L 909 3500 
L 1925 563 
L 2944 3500 
L 3541 3500 
L 2297 0 
L 1556 0 
L 313 3500 
z
" transform="scale(0.015625)"/>
      <path id="Menlo-Regular-2d" d="M 319 2263 
L 3631 2263 
L 3631 1734 
L 319 1734 
L 319 2263 
z
" transform="scale(0.015625)"/>
      <path id="Menlo-Regular-67" d="M 2681 1778 
Q 2681 2425 2470 2761 
Q 2259 3097 1856 3097 
Q 1434 3097 1212 2761 
Q 991 2425 991 1778 
Q 991 1131 1214 792 
Q 1438 453 1863 453 
Q 2259 453 2470 793 
Q 2681 1134 2681 1778 
z
M 3256 225 
Q 3256 -563 2884 -969 
Q 2513 -1375 1791 -1375 
Q 1553 -1375 1293 -1331 
Q 1034 -1288 775 -1203 
L 775 -634 
Q 1081 -778 1331 -847 
Q 1581 -916 1791 -916 
Q 2256 -916 2468 -662 
Q 2681 -409 2681 141 
L 2681 166 
L 2681 556 
Q 2544 263 2306 119 
Q 2069 -25 1728 -25 
Q 1116 -25 750 465 
Q 384 956 384 1778 
Q 384 2603 750 3093 
Q 1116 3584 1728 3584 
Q 2066 3584 2300 3450 
Q 2534 3316 2681 3034 
L 2681 3488 
L 3256 3488 
L 3256 225 
z
" transform="scale(0.015625)"/>
      <path id="Menlo-Regular-3d" d="M 275 1563 
L 3578 1563 
L 3578 1034 
L 275 1034 
L 275 1563 
z
M 275 3034 
L 3578 3034 
L 3578 2506 
L 275 2506 
L 275 3034 
z
" transform="scale(0.015625)"/>
      <path id="Menlo-Regular-45" d="M 616 4666 
L 3384 4666 
L 3384 4134 
L 1247 4134 
L 1247 2878 
L 3291 2878 
L 3291 2347 
L 1247 2347 
L 1247 531 
L 3444 531 
L 3444 0 
L 616 0 
L 616 4666 
z
" transform="scale(0.015625)"/>
      <path id="Menlo-Regular-37" d="M 434 4666 
L 3372 4666 
L 3372 4397 
L 1703 0 
L 1044 0 
L 2669 4134 
L 434 4134 
L 434 4666 
z
" transform="scale(0.015625)"/>
     </defs>
     <use xlink:href="#Menlo-Regular-50"/>
     <use xlink:href="#Menlo-Regular-49" transform="translate(60.205078 0)"/>
     <use xlink:href="#Menlo-Regular-4e" transform="translate(120.410156 0)"/>
     <use xlink:href="#Menlo-Regular-47" transform="translate(180.615234 0)"/>
     <use xlink:href="#Menlo-Regular-20" transform="translate(240.820312 0)"/>
     <use xlink:href="#Menlo-Regular-2014" transform="translate(301.025391 0)"/>
     <use xlink:href="#Menlo-Regular-20" transform="translate(361.230469 0)"/>
     <use xlink:href="#Menlo-Regular-72" transform="translate(421.435547 0)"/>
     <use xlink:href="#Menlo-Regular-65" transform="translate(481.640625 0)"/>
     <use xlink:href="#Menlo-Regular-63" transform="translate(541.845703 0)"/>
     <use xlink:href="#Menlo-Regular-75" transform="translate(602.050781 0)"/>
     <use xlink:href="#Menlo-Regular-72" transform="translate(662.255859 0)"/>
     <use xlink:href="#Menlo-Regular-72" transform="translate(722.460938 0)"/>
     <use xlink:href="#Menlo-Regular-65" transform="translate(782.666016 0)"/>
     <use xlink:href="#Menlo-Regular-6e" transform="translate(842.871094 0)"/>
     <use xlink:href="#Menlo-Regular-74" transform="translate(903.076172 0)"/>
     <use xlink:href="#Menlo-Regular-20" transform="translate(963.28125 0)"/>
     <use xlink:href="#Menlo-Regular-6c" transform="translate(1023.486328 0)"/>
     <use xlink:href="#Menlo-Regular-6f" transform="translate(1083.691406 0)"/>
     <use xlink:href="#Menlo-Regular-6f" transform="translate(1143.896484 0)"/>
     <use xlink:href="#Menlo-Regular-70" transform="translate(1204.101562 0)"/>
     <use xlink:href="#Menlo-Regular-20" transform="translate(1264.306641 0)"/>
     <use xlink:href="#Menlo-Regular-61" transform="translate(1324.511719 0)"/>
     <use xlink:href="#Menlo-Regular-63" transform="translate(1384.716797 0)"/>
     <use xlink:href="#Menlo-Regular-74" transform="translate(1444.921875 0)"/>
     <use xlink:href="#Menlo-Regular-69" transform="translate(1505.126953 0)"/>
     <use xlink:href="#Menlo-Regular-76" transform="translate(1565.332031 0)"/>
     <use xlink:href="#Menlo-Regular-65" transform="translate(1625.537109 0)"/>
     <use xlink:href="#Menlo-Regular-20" transform="translate(1685.742188 0)"/>
     <use xlink:href="#Menlo-Regular-28" transform="translate(1745.947266 0)"/>
     <use xlink:href="#Menlo-Regular-65" transform="translate(1806.152344 0)"/>
     <use xlink:href="#Menlo-Regular-69" transform="translate(1866.357422 0)"/>
     <use xlink:href="#Menlo-Regular-2d" transform="translate(1926.5625 0)"/>
     <use xlink:href="#Menlo-Regular-73" transform="translate(1986.767578 0)"/>
     <use xlink:href="#Menlo-Regular-74" transform="translate(2046.972656 0)"/>
     <use xlink:href="#Menlo-Regular-72" transform="translate(2107.177734 0)"/>
     <use xlink:href="#Menlo-Regular-65" transform="translate(2167.382812 0)"/>
     <use xlink:href="#Menlo-Regular-6e" transform="translate(2227.587891 0)"/>
     <use xlink:href="#Menlo-Regular-67" transform="translate(2287.792969 0)"/>
     <use xlink:href="#Menlo-Regular-74" transform="translate(2347.998047 0)"/>
     <use xlink:href="#Menlo-Regular-68" transform="translate(2408.203125 0)"/>
     <use xlink:href="#Menlo-Regular-20" transform="translate(2468.408203 0)"/>
     <use xlink:href="#Menlo-Regular-3d" transform="translate(2528.613281 0)"/>
     <use xlink:href="#Menlo-Regular-20" transform="translate(2588.818359 0)"/>
     <use xlink:href="#Menlo-Regular-31" transform="translate(2649.023438 0)"/>
     <use xlink:href="#Menlo-Regular-2e" transform="translate(2709.228516 0)"/>
     <use xlink:href="#Menlo-Regular-35" transform="translate(2769.433594 0)"/>
     <use xlink:href="#Menlo-Regular-29" transform="translate(2829.638672 0)"/>
     <use xlink:href="#Menlo-Regular-20" transform="translate(2889.84375 0)"/>
     <use xlink:href="#Menlo-Regular-2014" transform="translate(2950.048828 0)"/>
     <use xlink:href="#Menlo-Regular-20" transform="translate(3010.253906 0)"/>
     <use xlink:href="#Menlo-Regular-45" transform="translate(3070.458984 0)"/>
     <use xlink:href="#Menlo-Regular-2d" transform="translate(3130.664062 0)"/>
     <use xlink:href="#Menlo-Regular-6e" transform="translate(3190.869141 0)"/>
     <use xlink:href="#Menlo-Regular-65" transform="translate(3251.074219 0)"/>
     <use xlink:href="#Menlo-Regular-75" transform="translate(3311.279297 0)"/>
     <use xlink:href="#Menlo-Regular-72" transform="translate(3371.484375 0)"/>
     <use xlink:href="#Menlo-Regular-6f" transform="translate(3431.689453 0)"/>
     <use xlink:href="#Menlo-Regular-6e" transform="translate(3491.894531 0)"/>
     <use xlink:href="#Menlo-Regular-20" transform="translate(3552.099609 0)"/>
     <use xlink:href="#Menlo-Regular-73" transform="translate(3612.304688 0)"/>
     <use xlink:href="#Menlo-Regular-69" transform="translate(3672.509766 0)"/>
     <use xlink:href="#Menlo-Regular-67" transform="translate(3732.714844 0)"/>
     <use xlink:href="#Menlo-Regular-6e" transform="translate(3792.919922 0)"/>
     <use xlink:href="#Menlo-Regular-65" transform="translate(3853.125 0)"/>
     <use xlink:href="#Menlo-Regular-64" transform="translate(3913.330078 0)"/>
     <use xlink:href="#Menlo-Regular-20" transform="translate(3973.535156 0)"/>
     <use xlink:href="#Menlo-Regular-63" transform="translate(4033.740234 0)"/>
     <use xlink:href="#Menlo-Regular-75" transform="translate(4093.945312 0)"/>
     <use xlink:href="#Menlo-Regular-72" transform="translate(4154.150391 0)"/>
     <use xlink:href="#Menlo-Regular-72" transform="translate(4214.355469 0)"/>
     <use xlink:href="#Menlo-Regular-65" transform="translate(4274.560547 0)"/>
     <use xlink:href="#Menlo-Regular-6e" transform="translate(4334.765625 0)"/>
     <use xlink:href="#Menlo-Regular-74" transform="translate(4394.970703 0)"/>
     <use xlink:href="#Menlo-Regular-73" transform="translate(4455.175781 0)"/>
     <use xlink:href="#Menlo-Regular-20" transform="translate(4515.380859 0)"/>
     <use xlink:href="#Menlo-Regular-28" transform="translate(4575.585938 0)"/>
     <use xlink:href="#Menlo-Regular-63" transform="translate(4635.791016 0)"/>
     <use xlink:href="#Menlo-Regular-65" transform="translate(4695.996094 0)"/>
     <use xlink:href="#Menlo-Regular-6c" transform="translate(4756.201172 0)"/>
     <use xlink:href="#Menlo-Regular-6c" transform="translate(4816.40625 0)"/>
     <use xlink:href="#Menlo-Regular-20" transform="translate(4876.611328 0)"/>
     <use xlink:href="#Menlo-Regular-35" transform="translate(4936.816406 0)"/>
     <use xlink:href="#Menlo-Regular-34" transform="translate(4997.021484 0)"/>
     <use xlink:href="#Menlo-Regular-37" transform="translate(5057.226562 0)"/>
     <use xlink:href="#Menlo-Regular-29" transform="translate(5117.431641 0)"/>
    </g>
   </g>
   <g id="legend_1">
    <g id="patch_7">
     <path d="M 45.086719 51.507891 
L 143.342656 51.507891 
L 143.342656 17.805078 
L 45.086719 17.805078 
z
" style="fill: #ffffff; stroke: #1a1a1a; stroke-width: 0.8; stroke-linejoin: miter"/>
    </g>
    <g id="line2d_13">
     <path d="M 47.886719 23.808672 
L 53.486719 23.808672 
L 59.086719 23.808672 
" style="fill: none; stroke: #1a1a1a; stroke-width: 0.9; stroke-linejoin: miter"/>
    </g>
    <g id="text_12">
     <!-- I_E in (depol.) -->
     <g style="fill: #1a1a1a" transform="translate(64.686719 26.258672) scale(0.07 -0.07)">
      <defs>
       <path id="Menlo-Regular-5f" d="M 3825 -594 
L 3825 -1125 
L 0 -1125 
L 0 -594 
L 3825 -594 
z
" transform="scale(0.015625)"/>
      </defs>
      <use xlink:href="#Menlo-Regular-49"/>
      <use xlink:href="#Menlo-Regular-5f" transform="translate(60.205078 0)"/>
      <use xlink:href="#Menlo-Regular-45" transform="translate(120.410156 0)"/>
      <use xlink:href="#Menlo-Regular-20" transform="translate(180.615234 0)"/>
      <use xlink:href="#Menlo-Regular-69" transform="translate(240.820312 0)"/>
      <use xlink:href="#Menlo-Regular-6e" transform="translate(301.025391 0)"/>
      <use xlink:href="#Menlo-Regular-20" transform="translate(361.230469 0)"/>
      <use xlink:href="#Menlo-Regular-28" transform="translate(421.435547 0)"/>
      <use xlink:href="#Menlo-Regular-64" transform="translate(481.640625 0)"/>
      <use xlink:href="#Menlo-Regular-65" transform="translate(541.845703 0)"/>
      <use xlink:href="#Menlo-Regular-70" transform="translate(602.050781 0)"/>
      <use xlink:href="#Menlo-Regular-6f" transform="translate(662.255859 0)"/>
      <use xlink:href="#Menlo-Regular-6c" transform="translate(722.460938 0)"/>
      <use xlink:href="#Menlo-Regular-2e" transform="translate(782.666016 0)"/>
      <use xlink:href="#Menlo-Regular-29" transform="translate(842.871094 0)"/>
     </g>
    </g>
    <g id="line2d_14">
     <path d="M 47.886719 34.418047 
L 53.486719 34.418047 
L 59.086719 34.418047 
" style="fill: none; stroke: #c8102e; stroke-width: 0.9; stroke-linejoin: miter"/>
    </g>
    <g id="text_13">
     <!-- I_I in (hyperpol.) -->
     <g style="fill: #1a1a1a" transform="translate(64.686719 36.868047) scale(0.07 -0.07)">
      <use xlink:href="#Menlo-Regular-49"/>
      <use xlink:href="#Menlo-Regular-5f" transform="translate(60.205078 0)"/>
      <use xlink:href="#Menlo-Regular-49" transform="translate(120.410156 0)"/>
      <use xlink:href="#Menlo-Regular-20" transform="translate(180.615234 0)"/>
      <use xlink:href="#Menlo-Regular-69" transform="translate(240.820312 0)"/>
      <use xlink:href="#Menlo-Regular-6e" transform="translate(301.025391 0)"/>
      <use xlink:href="#Menlo-Regular-20" transform="translate(361.230469 0)"/>
      <use xlink:href="#Menlo-Regular-28" transform="translate(421.435547 0)"/>
      <use xlink:href="#Menlo-Regular-68" transform="translate(481.640625 0)"/>
      <use xlink:href="#Menlo-Regular-79" transform="translate(541.845703 0)"/>
      <use xlink:href="#Menlo-Regular-70" transform="translate(602.050781 0)"/>
      <use xlink:href="#Menlo-Regular-65" transform="translate(662.255859 0)"/>
      <use xlink:href="#Menlo-Regular-72" transform="translate(722.460938 0)"/>
      <use xlink:href="#Menlo-Regular-70" transform="translate(782.666016 0)"/>
      <use xlink:href="#Menlo-Regular-6f" transform="translate(842.871094 0)"/>
      <use xlink:href="#Menlo-Regular-6c" transform="translate(903.076172 0)"/>
      <use xlink:href="#Menlo-Regular-2e" transform="translate(963.28125 0)"/>
      <use xlink:href="#Menlo-Regular-29" transform="translate(1023.486328 0)"/>
     </g>
    </g>
    <g id="line2d_15">
     <path d="M 47.886719 44.802109 
L 53.486719 44.802109 
L 59.086719 44.802109 
" style="fill: none; stroke-dasharray: 0.7,1.155; stroke-dashoffset: 0; stroke: #bbbbbb; stroke-width: 0.7"/>
    </g>
    <g id="text_14">
     <!-- I_L in (leak) -->
     <g style="fill: #1a1a1a" transform="translate(64.686719 47.252109) scale(0.07 -0.07)">
      <defs>
       <path id="Menlo-Regular-4c" d="M 672 4666 
L 1306 4666 
L 1306 531 
L 3559 531 
L 3559 0 
L 672 0 
L 672 4666 
z
" transform="scale(0.015625)"/>
       <path id="Menlo-Regular-6b" d="M 738 4863 
L 1331 4863 
L 1331 2047 
L 2841 3500 
L 3541 3500 
L 2163 2181 
L 3756 0 
L 3053 0 
L 1759 1806 
L 1331 1403 
L 1331 0 
L 738 0 
L 738 4863 
z
" transform="scale(0.015625)"/>
      </defs>
      <use xlink:href="#Menlo-Regular-49"/>
      <use xlink:href="#Menlo-Regular-5f" transform="translate(60.205078 0)"/>
      <use xlink:href="#Menlo-Regular-4c" transform="translate(120.410156 0)"/>
      <use xlink:href="#Menlo-Regular-20" transform="translate(180.615234 0)"/>
      <use xlink:href="#Menlo-Regular-69" transform="translate(240.820312 0)"/>
      <use xlink:href="#Menlo-Regular-6e" transform="translate(301.025391 0)"/>
      <use xlink:href="#Menlo-Regular-20" transform="translate(361.230469 0)"/>
      <use xlink:href="#Menlo-Regular-28" transform="translate(421.435547 0)"/>
      <use xlink:href="#Menlo-Regular-6c" transform="translate(481.640625 0)"/>
      <use xlink:href="#Menlo-Regular-65" transform="translate(541.845703 0)"/>
      <use xlink:href="#Menlo-Regular-61" transform="translate(602.050781 0)"/>
      <use xlink:href="#Menlo-Regular-6b" transform="translate(662.255859 0)"/>
      <use xlink:href="#Menlo-Regular-29" transform="translate(722.460938 0)"/>
     </g>
    </g>
   </g>
  </g>
 </g>
 <defs>
  <clipPath id="p4bd14adfbf">
   <rect x="29.715156" y="14.305078" width="117.1275" height="69.12"/>
  </clipPath>
 </defs>
</svg>
