<?xml version="1.0" encoding="utf-8" standalone="no"?>
<!DOCTYPE svg PUBLIC "-//W3C//DTD SVG 1.1//EN"
  "http://www.w3.org/Graphics/SVG/1.1/DTD/svg11.dtd">
<svg xmlns:xlink="http://www.w3.org/1999/xlink" width="274.140703pt" height="148.460625pt" viewBox="0 0 274.140703 148.460625" xmlns="http://www.w3.org/2000/svg" version="1.1">
 <metadata>
  <rdf:RDF xmlns:dc="http://purl.org/dc/elements/1.1/" xmlns:cc="http://creativecommons.org/ns#" xmlns:rdf="http://www.w3.org/1999/02/22-rdf-syntax-ns#">
   <cc:Work>
    <dc:type rdf:resource="http://purl.org/dc/dcmitype/StillImage"/>
    <dc:date>2026-07-02T13:59:01.928666</dc:date>
    <dc:format>image/svg+xml</dc:format>
    <dc:creator>
     <cc:Agent>
      <dc:title>Matplotlib v3.10.8, https://matplotlib.org/</dc:title>
     </cc:Agent>
    </dc:creator>
   </cc:Work>
  </rdf:RDF>
 </metadata>
 <defs>
  <style type="text/css">*{stroke-linejoin: round; stroke-linecap: butt}</style>
 </defs>
 <g id="figure_1">
  <g id="patch_1">
   <path d="M 0 148.460625 
L 274.140703 148.460625 
L 274.140703 0 
L 0 0 
z
" style="fill: #ffffff"/>
  </g>
  <g id="axes_1">
   <g id="patch_2">
    <path d="M 33.984375 124.96125 
L 266.379378 124.96125 
L 266.379378 13.54125 
L 33.984375 13.54125 
z
" style="fill: #ffffff"/>
   </g>
   <g id="matplotlib.axis_1">
    <g id="xtick_1">
     <g id="line2d_1">
      <defs>
       <path id="m561ac33baa" d="M 0 0 
L 0 -3 
" style="stroke: #1a1a1a; stroke-width: 0.8"/>
      </defs>
      <g>
       <use xlink:href="#m561ac33baa" x="33.984375" y="124.96125" style="fill: #1a1a1a; stroke: #1a1a1a; stroke-width: 0.8"/>
      </g>
     </g>
     <g id="text_1">
      <!-- 0 -->
      <g style="fill: #1a1a1a" transform="translate(31.877266 133.799844) scale(0.07 -0.07)">
       <defs>
        <path id="Menlo-Regular-30" d="M 1925 4734 
Q 2672 4734 3055 4125 
Q 3438 3516 3438 2322 
Q 3438 1128 3055 518 
Q 2672 -91 1925 -91 
Q 1178 -91 797 518 
Q 416 1128 416 2322 
Q 416 3516 797 4125 
Q 1178 4734 1925 4734 
z
M 1925 409 
Q 2369 409 2586 881 
Q 2803 1353 2803 2322 
Q 2803 2838 2741 3253 
L 1253 925 
Q 1488 409 1925 409 
z
M 1925 4234 
Q 1484 4234 1267 3762 
Q 1050 3291 1050 2322 
Q 1050 1881 1109 1497 
L 2566 3819 
Q 2328 4234 1925 4234 
z
" transform="scale(0.015625)"/>
       </defs>
       <use xlink:href="#Menlo-Regular-30"/>
      </g>
     </g>
    </g>
    <g id="xtick_2">
     <g id="line2d_2">
      <g>
       <use xlink:href="#m561ac33baa" x="63.03375" y="124.96125" style="fill: #1a1a1a; stroke: #1a1a1a; stroke-width: 0.8"/>
      </g>
     </g>
     <g id="text_2">
      <!-- 50 -->
      <g style="fill: #1a1a1a" transform="translate(58.819531 133.799844) scale(0.07 -0.07)">
       <defs>
        <path id="Menlo-Regular-35" d="M 647 4666 
L 3009 4666 
L 3009 4134 
L 1222 4134 
L 1222 2988 
Q 1356 3038 1492 3061 
Q 1628 3084 1766 3084 
Q 2491 3084 2916 2656 
Q 3341 2228 3341 1497 
Q 3341 759 2895 334 
Q 2450 -91 1678 -91 
Q 1306 -91 998 -41 
Q 691 9 447 109 
L 447 750 
Q 734 594 1025 517 
Q 1316 441 1619 441 
Q 2141 441 2423 716 
Q 2706 991 2706 1497 
Q 2706 1997 2414 2275 
Q 2122 2553 1600 2553 
Q 1347 2553 1106 2495 
Q 866 2438 647 2322 
L 647 4666 
z
" transform="scale(0.015625)"/>
       </defs>
       <use xlink:href="#Menlo-Regular-35"/>
       <use xlink:href="#Menlo-Regular-30" transform="translate(60.205078 0)"/>
      </g>
     </g>
    </g>
    <g id="xtick_3">
     <g id="line2d_3">
      <g>
       <use xlink:href="#m561ac33baa" x="92.083125" y="124.96125" style="fill: #1a1a1a; stroke: #1a1a1a; stroke-width: 0.8"/>
      </g>
     </g>
     <g id="text_3">
      <!-- 100 -->
      <g style="fill: #1a1a1a" transform="translate(85.761797 133.799844) scale(0.07 -0.07)">
       <defs>
        <path id="Menlo-Regular-31" d="M 844 528 
L 1825 528 
L 1825 4053 
L 650 3488 
L 650 4094 
L 1819 4650 
L 2450 4650 
L 2450 528 
L 3419 528 
L 3419 0 
L 844 0 
L 844 528 
z
" transform="scale(0.015625)"/>
       </defs>
       <use xlink:href="#Menlo-Regular-31"/>
       <use xlink:href="#Menlo-Regular-30" transform="translate(60.205078 0)"/>
       <use xlink:href="#Menlo-Regular-30" transform="translate(120.410156 0)"/>
      </g>
     </g>
    </g>
    <g id="xtick_4">
     <g id="line2d_4">
      <g>
       <use xlink:href="#m561ac33baa" x="121.1325" y="124.96125" style="fill: #1a1a1a; stroke: #1a1a1a; stroke-width: 0.8"/>
      </g>
     </g>
     <g id="text_4">
      <!-- 150 -->
      <g style="fill: #1a1a1a" transform="translate(114.811172 133.799844) scale(0.07 -0.07)">
       <use xlink:href="#Menlo-Regular-31"/>
       <use xlink:href="#Menlo-Regular-35" transform="translate(60.205078 0)"/>
       <use xlink:href="#Menlo-Regular-30" transform="translate(120.410156 0)"/>
      </g>
     </g>
    </g>
    <g id="xtick_5">
     <g id="line2d_5">
      <g>
       <use xlink:href="#m561ac33baa" x="150.181875" y="124.96125" style="fill: #1a1a1a; stroke: #1a1a1a; stroke-width: 0.8"/>
      </g>
     </g>
     <g id="text_5">
      <!-- 200 -->
      <g style="fill: #1a1a1a" transform="translate(143.860547 133.799844) scale(0.07 -0.07)">
       <defs>
        <path id="Menlo-Regular-32" d="M 1166 531 
L 3309 531 
L 3309 0 
L 475 0 
L 475 531 
Q 1059 1147 1496 1619 
Q 1934 2091 2100 2284 
Q 2413 2666 2522 2902 
Q 2631 3138 2631 3384 
Q 2631 3775 2401 3997 
Q 2172 4219 1772 4219 
Q 1488 4219 1175 4116 
Q 863 4013 513 3803 
L 513 4441 
Q 834 4594 1145 4672 
Q 1456 4750 1759 4750 
Q 2444 4750 2861 4386 
Q 3278 4022 3278 3431 
Q 3278 3131 3139 2831 
Q 3000 2531 2688 2169 
Q 2513 1966 2180 1606 
Q 1847 1247 1166 531 
z
" transform="scale(0.015625)"/>
       </defs>
       <use xlink:href="#Menlo-Regular-32"/>
       <use xlink:href="#Menlo-Regular-30" transform="translate(60.205078 0)"/>
       <use xlink:href="#Menlo-Regular-30" transform="translate(120.410156 0)"/>
      </g>
     </g>
    </g>
    <g id="xtick_6">
     <g id="line2d_6">
      <g>
       <use xlink:href="#m561ac33baa" x="179.23125" y="124.96125" style="fill: #1a1a1a; stroke: #1a1a1a; stroke-width: 0.8"/>
      </g>
     </g>
     <g id="text_6">
      <!-- 250 -->
      <g style="fill: #1a1a1a" transform="translate(172.909922 133.799844) scale(0.07 -0.07)">
       <use xlink:href="#Menlo-Regular-32"/>
       <use xlink:href="#Menlo-Regular-35" transform="translate(60.205078 0)"/>
       <use xlink:href="#Menlo-Regular-30" transform="translate(120.410156 0)"/>
      </g>
     </g>
    </g>
    <g id="xtick_7">
     <g id="line2d_7">
      <g>
       <use xlink:href="#m561ac33baa" x="208.280625" y="124.96125" style="fill: #1a1a1a; stroke: #1a1a1a; stroke-width: 0.8"/>
      </g>
     </g>
     <g id="text_7">
      <!-- 300 -->
      <g style="fill: #1a1a1a" transform="translate(201.959297 133.799844) scale(0.07 -0.07)">
       <defs>
        <path id="Menlo-Regular-33" d="M 2425 2497 
Q 2884 2375 3128 2064 
Q 3372 1753 3372 1288 
Q 3372 644 2939 276 
Q 2506 -91 1741 -91 
Q 1419 -91 1084 -31 
Q 750 28 428 141 
L 428 769 
Q 747 603 1056 522 
Q 1366 441 1672 441 
Q 2191 441 2469 675 
Q 2747 909 2747 1350 
Q 2747 1756 2469 1995 
Q 2191 2234 1716 2234 
L 1234 2234 
L 1234 2753 
L 1716 2753 
Q 2150 2753 2394 2943 
Q 2638 3134 2638 3475 
Q 2638 3834 2411 4026 
Q 2184 4219 1766 4219 
Q 1488 4219 1191 4156 
Q 894 4094 569 3969 
L 569 4550 
Q 947 4650 1242 4700 
Q 1538 4750 1766 4750 
Q 2447 4750 2855 4408 
Q 3263 4066 3263 3500 
Q 3263 3116 3048 2859 
Q 2834 2603 2425 2497 
z
" transform="scale(0.015625)"/>
       </defs>
       <use xlink:href="#Menlo-Regular-33"/>
       <use xlink:href="#Menlo-Regular-30" transform="translate(60.205078 0)"/>
       <use xlink:href="#Menlo-Regular-30" transform="translate(120.410156 0)"/>
      </g>
     </g>
    </g>
    <g id="xtick_8">
     <g id="line2d_8">
      <g>
       <use xlink:href="#m561ac33baa" x="237.33" y="124.96125" style="fill: #1a1a1a; stroke: #1a1a1a; stroke-width: 0.8"/>
      </g>
     </g>
     <g id="text_8">
      <!-- 350 -->
      <g style="fill: #1a1a1a" transform="translate(231.008672 133.799844) scale(0.07 -0.07)">
       <use xlink:href="#Menlo-Regular-33"/>
       <use xlink:href="#Menlo-Regular-35" transform="translate(60.205078 0)"/>
       <use xlink:href="#Menlo-Regular-30" transform="translate(120.410156 0)"/>
      </g>
     </g>
    </g>
    <g id="xtick_9">
     <g id="line2d_9">
      <g>
       <use xlink:href="#m561ac33baa" x="266.379375" y="124.96125" style="fill: #1a1a1a; stroke: #1a1a1a; stroke-width: 0.8"/>
      </g>
     </g>
     <g id="text_9">
      <!-- 400 -->
      <g style="fill: #1a1a1a" transform="translate(260.058047 133.799844) scale(0.07 -0.07)">
       <defs>
        <path id="Menlo-Regular-34" d="M 2297 4091 
L 825 1625 
L 2297 1625 
L 2297 4091 
z
M 2194 4666 
L 2925 4666 
L 2925 1625 
L 3547 1625 
L 3547 1113 
L 2925 1113 
L 2925 0 
L 2297 0 
L 2297 1113 
L 319 1113 
L 319 1709 
L 2194 4666 
z
" transform="scale(0.015625)"/>
       </defs>
       <use xlink:href="#Menlo-Regular-34"/>
       <use xlink:href="#Menlo-Regular-30" transform="translate(60.205078 0)"/>
       <use xlink:href="#Menlo-Regular-30" transform="translate(120.410156 0)"/>
      </g>
     </g>
    </g>
    <g id="text_10">
     <!-- time (ms) -->
     <g style="fill: #1a1a1a" transform="translate(128.508752 145.356875) scale(0.08 -0.08)">
      <defs>
       <path id="Menlo-Regular-74" d="M 1919 4494 
L 1919 3500 
L 3225 3500 
L 3225 3053 
L 1919 3053 
L 1919 1153 
Q 1919 766 2066 612 
Q 2213 459 2578 459 
L 3225 459 
L 3225 0 
L 2522 0 
Q 1875 0 1609 259 
Q 1344 519 1344 1153 
L 1344 3053 
L 409 3053 
L 409 3500 
L 1344 3500 
L 1344 4494 
L 1919 4494 
z
" transform="scale(0.015625)"/>
       <path id="Menlo-Regular-69" d="M 988 3488 
L 2459 3488 
L 2459 447 
L 3600 447 
L 3600 0 
L 744 0 
L 744 447 
L 1884 447 
L 1884 3041 
L 988 3041 
L 988 3488 
z
M 1884 4847 
L 2459 4847 
L 2459 4122 
L 1884 4122 
L 1884 4847 
z
" transform="scale(0.015625)"/>
       <path id="Menlo-Regular-6d" d="M 2113 3144 
Q 2219 3369 2383 3476 
Q 2547 3584 2778 3584 
Q 3200 3584 3373 3257 
Q 3547 2931 3547 2028 
L 3547 0 
L 3022 0 
L 3022 2003 
Q 3022 2744 2939 2923 
Q 2856 3103 2638 3103 
Q 2388 3103 2295 2911 
Q 2203 2719 2203 2003 
L 2203 0 
L 1678 0 
L 1678 2003 
Q 1678 2753 1589 2928 
Q 1500 3103 1269 3103 
Q 1041 3103 952 2911 
Q 863 2719 863 2003 
L 863 0 
L 341 0 
L 341 3500 
L 863 3500 
L 863 3200 
Q 966 3388 1120 3486 
Q 1275 3584 1472 3584 
Q 1709 3584 1867 3475 
Q 2025 3366 2113 3144 
z
" transform="scale(0.015625)"/>
       <path id="Menlo-Regular-65" d="M 3500 2038 
L 3500 1756 
L 1009 1756 
L 1009 1738 
Q 984 1022 1282 709 
Q 1581 397 2125 397 
Q 2400 397 2700 484 
Q 3000 572 3341 750 
L 3341 178 
Q 3013 44 2708 -23 
Q 2403 -91 2119 -91 
Q 1303 -91 843 398 
Q 384 888 384 1747 
Q 384 2584 834 3084 
Q 1284 3584 2034 3584 
Q 2703 3584 3089 3131 
Q 3475 2678 3500 2038 
z
M 2925 2206 
Q 2888 2569 2661 2833 
Q 2434 3097 2009 3097 
Q 1594 3097 1325 2822 
Q 1056 2547 1031 2203 
L 2925 2206 
z
" transform="scale(0.015625)"/>
       <path id="Menlo-Regular-20" transform="scale(0.015625)"/>
       <path id="Menlo-Regular-28" d="M 2672 5169 
Q 2256 4456 2051 3748 
Q 1847 3041 1847 2322 
Q 1847 1606 2051 897 
Q 2256 188 2672 -531 
L 2172 -531 
Q 1700 213 1469 917 
Q 1238 1622 1238 2322 
Q 1238 3019 1469 3725 
Q 1700 4431 2172 5169 
L 2672 5169 
z
" transform="scale(0.015625)"/>
       <path id="Menlo-Regular-73" d="M 3041 3378 
L 3041 2816 
Q 2794 2959 2544 3031 
Q 2294 3103 2034 3103 
Q 1644 3103 1451 2976 
Q 1259 2850 1259 2591 
Q 1259 2356 1403 2240 
Q 1547 2125 2119 2016 
L 2350 1972 
Q 2778 1891 2998 1647 
Q 3219 1403 3219 1013 
Q 3219 494 2850 201 
Q 2481 -91 1825 -91 
Q 1566 -91 1281 -36 
Q 997 19 666 128 
L 666 722 
Q 988 556 1281 473 
Q 1575 391 1838 391 
Q 2219 391 2428 545 
Q 2638 700 2638 978 
Q 2638 1378 1872 1531 
L 1847 1538 
L 1631 1581 
Q 1134 1678 906 1908 
Q 678 2138 678 2534 
Q 678 3038 1018 3311 
Q 1359 3584 1991 3584 
Q 2272 3584 2531 3532 
Q 2791 3481 3041 3378 
z
" transform="scale(0.015625)"/>
       <path id="Menlo-Regular-29" d="M 1088 5169 
L 1588 5169 
Q 2059 4431 2290 3725 
Q 2522 3019 2522 2322 
Q 2522 1619 2290 912 
Q 2059 206 1588 -531 
L 1088 -531 
Q 1503 194 1708 903 
Q 1913 1613 1913 2322 
Q 1913 3034 1708 3743 
Q 1503 4453 1088 5169 
z
" transform="scale(0.015625)"/>
      </defs>
      <use xlink:href="#Menlo-Regular-74"/>
      <use xlink:href="#Menlo-Regular-69" transform="translate(60.205078 0)"/>
      <use xlink:href="#Menlo-Regular-6d" transform="translate(120.410156 0)"/>
      <use xlink:href="#Menlo-Regular-65" transform="translate(180.615234 0)"/>
      <use xlink:href="#Menlo-Regular-20" transform="translate(240.820312 0)"/>
      <use xlink:href="#Menlo-Regular-28" transform="translate(301.025391 0)"/>
      <use xlink:href="#Menlo-Regular-6d" transform="translate(361.230469 0)"/>
      <use xlink:href="#Menlo-Regular-73" transform="translate(421.435547 0)"/>
      <use xlink:href="#Menlo-Regular-29" transform="translate(481.640625 0)"/>
     </g>
    </g>
   </g>
   <g id="matplotlib.axis_2">
    <g id="ytick_1">
     <g id="line2d_10">
      <defs>
       <path id="m3b9b6c71fc" d="M 0 0 
L 3 0 
" style="stroke: #1a1a1a; stroke-width: 0.8"/>
      </defs>
      <g>
       <use xlink:href="#m3b9b6c71fc" x="33.984375" y="120.489953" style="fill: #1a1a1a; stroke: #1a1a1a; stroke-width: 0.8"/>
      </g>
     </g>
     <g id="text_11">
      <!-- 0.00 -->
      <g style="fill: #1a1a1a" transform="translate(13.6275 123.15925) scale(0.07 -0.07)">
       <defs>
        <path id="Menlo-Regular-2e" d="M 1216 1263 
L 2316 1263 
L 2316 0 
L 1216 0 
L 1216 1263 
z
" transform="scale(0.015625)"/>
       </defs>
       <use xlink:href="#Menlo-Regular-30"/>
       <use xlink:href="#Menlo-Regular-2e" transform="translate(60.205078 0)"/>
       <use xlink:href="#Menlo-Regular-30" transform="translate(120.410156 0)"/>
       <use xlink:href="#Menlo-Regular-30" transform="translate(180.615234 0)"/>
      </g>
     </g>
    </g>
    <g id="ytick_2">
     <g id="line2d_11">
      <g>
       <use xlink:href="#m3b9b6c71fc" x="33.984375" y="91.536192" style="fill: #1a1a1a; stroke: #1a1a1a; stroke-width: 0.8"/>
      </g>
     </g>
     <g id="text_12">
      <!-- 0.02 -->
      <g style="fill: #1a1a1a" transform="translate(13.6275 94.205489) scale(0.07 -0.07)">
       <use xlink:href="#Menlo-Regular-30"/>
       <use xlink:href="#Menlo-Regular-2e" transform="translate(60.205078 0)"/>
       <use xlink:href="#Menlo-Regular-30" transform="translate(120.410156 0)"/>
       <use xlink:href="#Menlo-Regular-32" transform="translate(180.615234 0)"/>
      </g>
     </g>
    </g>
    <g id="ytick_3">
     <g id="line2d_12">
      <g>
       <use xlink:href="#m3b9b6c71fc" x="33.984375" y="62.582431" style="fill: #1a1a1a; stroke: #1a1a1a; stroke-width: 0.8"/>
      </g>
     </g>
     <g id="text_13">
      <!-- 0.04 -->
      <g style="fill: #1a1a1a" transform="translate(13.6275 65.251728) scale(0.07 -0.07)">
       <use xlink:href="#Menlo-Regular-30"/>
       <use xlink:href="#Menlo-Regular-2e" transform="translate(60.205078 0)"/>
       <use xlink:href="#Menlo-Regular-30" transform="translate(120.410156 0)"/>
       <use xlink:href="#Menlo-Regular-34" transform="translate(180.615234 0)"/>
      </g>
     </g>
    </g>
    <g id="ytick_4">
     <g id="line2d_13">
      <g>
       <use xlink:href="#m3b9b6c71fc" x="33.984375" y="33.62867" style="fill: #1a1a1a; stroke: #1a1a1a; stroke-width: 0.8"/>
      </g>
     </g>
     <g id="text_14">
      <!-- 0.06 -->
      <g style="fill: #1a1a1a" transform="translate(13.6275 36.297967) scale(0.07 -0.07)">
       <defs>
        <path id="Menlo-Regular-36" d="M 3097 4563 
L 3097 3981 
Q 2900 4097 2678 4158 
Q 2456 4219 2216 4219 
Q 1616 4219 1306 3767 
Q 997 3316 997 2438 
Q 1147 2750 1412 2917 
Q 1678 3084 2022 3084 
Q 2697 3084 3067 2670 
Q 3438 2256 3438 1497 
Q 3438 741 3056 325 
Q 2675 -91 1984 -91 
Q 1172 -91 794 492 
Q 416 1075 416 2328 
Q 416 3509 870 4129 
Q 1325 4750 2188 4750 
Q 2419 4750 2650 4701 
Q 2881 4653 3097 4563 
z
M 1972 2591 
Q 1569 2591 1337 2300 
Q 1106 2009 1106 1497 
Q 1106 984 1337 693 
Q 1569 403 1972 403 
Q 2391 403 2603 679 
Q 2816 956 2816 1497 
Q 2816 2041 2603 2316 
Q 2391 2591 1972 2591 
z
" transform="scale(0.015625)"/>
       </defs>
       <use xlink:href="#Menlo-Regular-30"/>
       <use xlink:href="#Menlo-Regular-2e" transform="translate(60.205078 0)"/>
       <use xlink:href="#Menlo-Regular-30" transform="translate(120.410156 0)"/>
       <use xlink:href="#Menlo-Regular-36" transform="translate(180.615234 0)"/>
      </g>
     </g>
    </g>
    <g id="text_15">
     <!-- g  [µS] -->
     <g style="fill: #1a1a1a" transform="translate(7.90875 86.108125) rotate(-90) scale(0.08 -0.08)">
      <defs>
       <path id="Menlo-Regular-67" d="M 2681 1778 
Q 2681 2425 2470 2761 
Q 2259 3097 1856 3097 
Q 1434 3097 1212 2761 
Q 991 2425 991 1778 
Q 991 1131 1214 792 
Q 1438 453 1863 453 
Q 2259 453 2470 793 
Q 2681 1134 2681 1778 
z
M 3256 225 
Q 3256 -563 2884 -969 
Q 2513 -1375 1791 -1375 
Q 1553 -1375 1293 -1331 
Q 1034 -1288 775 -1203 
L 775 -634 
Q 1081 -778 1331 -847 
Q 1581 -916 1791 -916 
Q 2256 -916 2468 -662 
Q 2681 -409 2681 141 
L 2681 166 
L 2681 556 
Q 2544 263 2306 119 
Q 2069 -25 1728 -25 
Q 1116 -25 750 465 
Q 384 956 384 1778 
Q 384 2603 750 3093 
Q 1116 3584 1728 3584 
Q 2066 3584 2300 3450 
Q 2534 3316 2681 3034 
L 2681 3488 
L 3256 3488 
L 3256 225 
z
" transform="scale(0.015625)"/>
       <path id="Menlo-Regular-5b" d="M 1759 5175 
L 3084 5175 
L 3084 4728 
L 2334 4728 
L 2334 -84 
L 3084 -84 
L 3084 -531 
L 1759 -531 
L 1759 5175 
z
" transform="scale(0.015625)"/>
       <path id="Menlo-Regular-b5" d="M 609 -1338 
L 609 3500 
L 1184 3500 
L 1184 1325 
Q 1184 881 1371 645 
Q 1559 409 1906 409 
Q 2303 409 2504 675 
Q 2706 941 2706 1459 
L 2706 3500 
L 3284 3500 
L 3284 800 
Q 3284 616 3334 528 
Q 3384 441 3488 441 
Q 3516 441 3561 456 
Q 3606 472 3694 513 
L 3694 50 
Q 3575 -22 3469 -56 
Q 3363 -91 3256 -91 
Q 3063 -91 2945 32 
Q 2828 156 2791 403 
Q 2647 153 2439 31 
Q 2231 -91 1953 -91 
Q 1666 -91 1467 28 
Q 1269 147 1131 397 
L 1131 -1338 
L 609 -1338 
z
" transform="scale(0.015625)"/>
       <path id="Menlo-Regular-53" d="M 3163 4506 
L 3163 3866 
Q 2875 4050 2586 4144 
Q 2297 4238 2003 4238 
Q 1556 4238 1297 4030 
Q 1038 3822 1038 3469 
Q 1038 3159 1208 2996 
Q 1378 2834 1844 2725 
L 2175 2650 
Q 2831 2497 3131 2169 
Q 3431 1841 3431 1275 
Q 3431 609 3018 259 
Q 2606 -91 1819 -91 
Q 1491 -91 1159 -20 
Q 828 50 494 191 
L 494 863 
Q 853 634 1173 528 
Q 1494 422 1819 422 
Q 2297 422 2562 636 
Q 2828 850 2828 1234 
Q 2828 1584 2645 1768 
Q 2463 1953 2009 2053 
L 1672 2131 
Q 1022 2278 728 2575 
Q 434 2872 434 3372 
Q 434 3997 854 4373 
Q 1275 4750 1972 4750 
Q 2241 4750 2537 4689 
Q 2834 4628 3163 4506 
z
" transform="scale(0.015625)"/>
       <path id="Menlo-Regular-5d" d="M 2250 5175 
L 2250 -531 
L 925 -531 
L 925 -84 
L 1675 -84 
L 1675 4728 
L 925 4728 
L 925 5175 
L 2250 5175 
z
" transform="scale(0.015625)"/>
      </defs>
      <use xlink:href="#Menlo-Regular-67"/>
      <use xlink:href="#Menlo-Regular-20" transform="translate(60.205078 0)"/>
      <use xlink:href="#Menlo-Regular-20" transform="translate(120.410156 0)"/>
      <use xlink:href="#Menlo-Regular-5b" transform="translate(180.615234 0)"/>
      <use xlink:href="#Menlo-Regular-b5" transform="translate(240.820312 0)"/>
      <use xlink:href="#Menlo-Regular-53" transform="translate(301.025391 0)"/>
      <use xlink:href="#Menlo-Regular-5d" transform="translate(361.230469 0)"/>
     </g>
    </g>
   </g>
   <g id="line2d_14">
    <path d="M 33.984375 119.600762 
L 34.507264 112.083052 
L 34.68156 108.762155 
L 35.901634 69.844919 
L 36.192128 66.016225 
L 36.250226 66.203962 
L 36.308325 65.994663 
L 36.366424 66.370872 
L 36.424523 66.280625 
L 36.54072 66.380887 
L 36.715016 67.302253 
L 37.296004 79.490085 
L 37.760794 90.411476 
L 37.93509 91.916932 
L 37.993189 92.105786 
L 38.516078 98.350792 
L 38.86467 103.079679 
L 38.980868 103.917074 
L 39.32946 107.435233 
L 39.619954 105.309067 
L 39.79425 102.543121 
L 40.72383 86.915935 
L 40.781929 86.733086 
L 40.840028 86.909135 
L 40.898126 87.018252 
L 41.246719 92.535478 
L 41.537213 96.539894 
L 41.65341 97.192052 
L 41.827706 96.465089 
L 42.060101 92.83675 
L 42.234398 90.3063 
L 42.350595 90.162443 
L 42.58299 87.942469 
L 42.641089 88.264809 
L 42.699188 88.099784 
L 42.873484 86.58649 
L 43.105879 87.362233 
L 43.280175 88.788842 
L 43.338274 88.810449 
L 43.686866 94.650323 
L 43.861163 93.467115 
L 43.97736 92.272642 
L 44.035459 92.468 
L 44.209755 93.675306 
L 44.267854 93.385297 
L 44.500249 92.509637 
L 44.558348 92.756181 
L 44.616446 92.701975 
L 44.848841 91.592796 
L 45.023138 89.604976 
L 45.081236 89.616526 
L 45.197434 89.794052 
L 45.487928 88.021742 
L 45.546026 88.074472 
L 45.894619 89.830848 
L 46.068915 91.507272 
L 46.127014 91.486183 
L 46.359409 92.530557 
L 46.417508 92.50265 
L 46.475606 92.62723 
L 46.533705 92.332853 
L 46.591804 92.386133 
L 46.649903 92.647707 
L 46.940396 90.185455 
L 46.998495 90.293147 
L 47.056594 90.203581 
L 47.23089 88.933333 
L 47.753779 84.052213 
L 48.044273 80.237142 
L 48.102371 79.861963 
L 48.276668 81.80484 
L 48.509063 84.075406 
L 48.567161 84.147875 
L 49.031951 78.05949 
L 49.322445 73.597802 
L 49.55484 69.89083 
L 49.612939 70.003404 
L 49.845334 69.273427 
L 50.01963 70.009288 
L 50.135828 70.870738 
L 50.542519 79.604375 
L 50.891111 88.336124 
L 51.355901 98.36913 
L 51.472099 98.199853 
L 51.588297 98.467858 
L 51.704494 98.054666 
L 51.762593 98.346985 
L 51.820692 98.25875 
L 51.87879 98.179625 
L 51.936889 98.451579 
L 52.692173 108.561734 
L 53.040765 111.052066 
L 53.563654 114.472089 
L 54.144642 116.839933 
L 54.725629 118.276103 
L 55.306617 119.147185 
L 55.945703 119.715243 
L 56.003802 119.753026 
L 56.352394 117.593194 
L 56.52669 117.755471 
L 56.759085 116.68719 
L 56.817184 116.815266 
L 56.933382 116.509442 
L 57.281974 111.396044 
L 57.979159 102.753327 
L 58.211554 98.730929 
L 58.792542 83.836232 
L 58.85064 83.621831 
L 58.908739 83.907782 
L 58.966838 83.888095 
L 59.141134 83.692628 
L 59.199233 83.786915 
L 59.31543 83.466889 
L 59.373529 83.732222 
L 59.664023 86.4616 
L 59.838319 88.025937 
L 59.954517 88.780453 
L 60.24501 87.277721 
L 60.593603 82.833951 
L 61.000294 72.885935 
L 61.406985 69.670378 
L 61.63938 71.327233 
L 61.697479 71.20988 
L 62.336565 66.77423 
L 62.394664 66.976701 
L 62.743257 63.177605 
L 62.975652 59.160909 
L 63.266145 53.765995 
L 63.49854 55.380494 
L 63.789034 64.356355 
L 64.195725 75.635286 
L 64.776713 81.955543 
L 65.706293 102.661325 
L 65.996787 105.681083 
L 66.112984 105.254928 
L 66.345379 106.75227 
L 66.461577 106.307538 
L 66.577774 106.919696 
L 66.810169 107.837419 
L 66.984465 108.821263 
L 67.042564 108.374839 
L 67.100663 108.439574 
L 67.565453 110.868183 
L 67.623552 110.727219 
L 67.972144 105.576168 
L 68.378835 96.851143 
L 68.901724 92.556492 
L 69.017922 91.720085 
L 69.076021 92.234348 
L 69.134119 92.147404 
L 69.250317 91.250622 
L 69.482712 92.333238 
L 69.947502 90.617749 
L 70.237996 88.242161 
L 70.296094 88.472871 
L 70.412292 88.662884 
L 70.644687 87.577138 
L 70.760884 88.082459 
L 70.935181 86.220479 
L 71.051378 84.893296 
L 71.109477 85.052402 
L 71.283773 84.51281 
L 71.341872 84.263826 
L 71.632366 89.798215 
L 71.690464 89.585181 
L 71.864761 88.059045 
L 72.039057 86.550631 
L 72.097156 86.423948 
L 72.445748 87.745261 
L 72.503847 87.438261 
L 72.561946 87.539192 
L 72.620044 87.530453 
L 72.678143 87.734955 
L 72.736242 87.602059 
L 72.852439 86.99945 
L 73.026736 84.270017 
L 73.084834 84.350067 
L 73.201032 84.45405 
L 73.259131 84.759084 
L 73.317229 84.587156 
L 73.375328 84.32525 
L 73.433427 84.585943 
L 73.723921 90.566507 
L 74.246809 101.409917 
L 74.769698 108.323984 
L 75.292587 112.732587 
L 75.873574 115.784871 
L 76.454562 117.636176 
L 77.035549 118.759049 
L 78.197524 119.646084 
L 78.313722 118.974861 
L 78.371821 119.048753 
L 78.720413 119.422285 
L 78.778512 119.295298 
L 78.836611 119.353562 
L 79.533796 119.866288 
L 79.591894 119.896705 
L 79.940487 117.647893 
L 79.998586 117.621753 
L 80.114783 117.018614 
L 80.230981 116.007854 
L 80.289079 116.226448 
L 80.347178 116.340195 
L 80.463376 115.003332 
L 80.695771 112.061513 
L 80.753869 111.913371 
L 81.451054 115.755989 
L 82.032042 117.618658 
L 82.613029 118.748424 
L 82.729227 118.29879 
L 82.787326 118.405654 
L 82.961622 118.619783 
L 83.019721 118.574773 
L 83.135918 116.738687 
L 83.484511 111.655007 
L 83.833103 105.308207 
L 84.414091 92.567219 
L 84.472189 92.450049 
L 84.762683 90.134674 
L 84.820782 90.23735 
L 84.878881 90.638704 
L 84.936979 90.600904 
L 84.995078 90.562047 
L 85.053177 90.658958 
L 85.227473 93.129245 
L 85.459868 97.193123 
L 85.750362 101.090366 
L 85.808461 101.394713 
L 85.866559 101.236418 
L 86.040856 100.609622 
L 86.679942 107.645918 
L 86.970436 110.03551 
L 87.028535 109.997799 
L 87.377127 108.579767 
L 87.667621 110.701361 
L 87.72572 110.804971 
L 87.841917 109.963057 
L 87.900016 110.119267 
L 88.074312 110.995847 
L 88.481003 113.799568 
L 88.6553 112.772328 
L 89.003892 106.755392 
L 89.294386 99.676074 
L 89.701077 89.55309 
L 89.817275 87.639411 
L 90.04967 84.421767 
L 90.340163 79.990469 
L 90.630657 74.92752 
L 90.688756 75.04071 
L 91.095447 80.605893 
L 91.269743 79.946691 
L 91.385941 79.610437 
L 91.676435 77.133896 
L 91.792632 78.114545 
L 91.850731 77.862261 
L 91.966928 78.052617 
L 92.025027 78.358212 
L 92.37362 83.366111 
L 92.431718 83.092055 
L 92.954607 76.726922 
L 93.128903 75.823916 
L 93.187002 75.89102 
L 93.477496 78.116017 
L 93.651792 81.239005 
L 93.884187 84.691035 
L 94.000385 85.441994 
L 94.69757 92.064502 
L 95.336656 103.924995 
L 95.859545 109.927667 
L 96.382433 113.75514 
L 96.963421 116.405081 
L 97.428211 117.751781 
L 97.544408 116.967068 
L 97.893001 113.682439 
L 97.9511 113.607808 
L 98.41589 106.368044 
L 98.473988 106.31649 
L 99.113075 111.480589 
L 99.635963 114.62532 
L 100.449346 117.235767 
L 100.623642 116.591892 
L 100.856037 117.133723 
L 100.972235 116.987226 
L 101.146531 114.565918 
L 101.20463 114.567774 
L 101.320827 113.171299 
L 101.495123 109.756386 
L 101.553222 109.761586 
L 102.308506 113.938877 
L 102.366605 113.680209 
L 102.773296 102.094016 
L 103.238086 87.853618 
L 103.412382 84.918988 
L 103.877172 72.120983 
L 104.283864 61.107366 
L 104.400061 59.998262 
L 104.45816 60.357272 
L 104.92295 66.700296 
L 105.155345 70.34239 
L 105.271542 70.887068 
L 105.794431 76.38659 
L 106.026826 80.394528 
L 106.143024 79.559076 
L 106.31732 78.720463 
L 106.375419 79.105714 
L 106.607814 80.810721 
L 107.130702 76.282645 
L 107.304999 74.644638 
L 107.363097 74.759397 
L 107.595492 76.535757 
L 107.653591 76.712835 
L 107.71169 76.658155 
L 107.769789 76.554223 
L 108.002184 78.294838 
L 108.234579 84.206172 
L 108.757467 96.770121 
L 109.164159 102.952469 
L 109.512751 105.895642 
L 109.57085 106.056069 
L 109.803245 103.43351 
L 110.674726 87.843733 
L 110.849022 86.946358 
L 111.023319 89.046444 
L 111.255714 92.124699 
L 111.371911 90.582266 
L 111.720504 82.54991 
L 112.010997 77.719158 
L 112.185294 77.147732 
L 112.301491 78.296191 
L 112.650084 82.735053 
L 112.708182 82.719365 
L 113.056775 78.540721 
L 113.114874 78.580222 
L 113.231071 78.239626 
L 113.28917 78.530485 
L 113.695861 75.934763 
L 114.102552 70.519676 
L 114.393046 67.397058 
L 114.567342 65.860964 
L 114.625441 65.880703 
L 114.857836 66.276424 
L 114.915935 66.357595 
L 115.264527 65.238292 
L 115.322626 65.371301 
L 115.380725 65.102598 
L 115.438824 65.353062 
L 116.07791 68.899785 
L 116.426502 67.754278 
L 116.484601 67.670394 
L 116.5427 67.718802 
L 116.600799 67.730964 
L 117.00749 66.487961 
L 117.123687 65.62717 
L 117.414181 67.089918 
L 117.47228 66.691543 
L 117.588477 65.302141 
L 117.646576 65.47632 
L 117.762774 66.727051 
L 118.343761 75.889124 
L 118.459959 76.754273 
L 118.692354 80.765258 
L 118.86665 83.298951 
L 120.319119 107.875696 
L 120.842007 112.446745 
L 121.364896 115.361376 
L 121.422995 115.451582 
L 121.597291 114.735619 
L 121.65539 114.841916 
L 122.410674 109.568207 
L 122.817365 103.880248 
L 123.04976 102.434275 
L 123.224056 101.162949 
L 123.456451 99.060904 
L 123.572649 98.182921 
L 123.863143 96.870011 
L 123.97934 96.744167 
L 124.095538 97.977807 
L 124.44413 102.839544 
L 124.676525 102.947068 
L 124.967019 101.599285 
L 125.025118 101.951979 
L 125.489908 94.869966 
L 125.548006 95.209885 
L 126.070895 92.119425 
L 126.187093 92.240866 
L 126.245191 92.146048 
L 126.419488 89.115769 
L 126.76808 83.03573 
L 127.174771 71.069655 
L 127.581463 65.142905 
L 127.69766 65.428069 
L 127.871956 64.878236 
L 128.220549 63.188477 
L 128.975833 58.655968 
L 129.150129 57.334172 
L 129.208228 57.472132 
L 129.382524 56.792547 
L 129.614919 52.860139 
L 129.673018 53.057822 
L 129.847314 53.715419 
L 130.137808 51.795081 
L 130.312104 50.344893 
L 130.370203 50.362285 
L 130.428301 50.648403 
L 130.4864 50.436893 
L 130.544499 50.398252 
L 130.660696 50.559116 
L 130.834993 50.436521 
L 131.299783 54.467071 
L 131.764573 50.006322 
L 131.88077 50.351726 
L 131.996968 49.33384 
L 132.171264 48.109972 
L 132.34556 47.343262 
L 132.519856 45.423258 
L 132.577955 45.790509 
L 132.81035 47.6335 
L 134.320918 76.007413 
L 134.901905 84.691544 
L 135.018103 85.554649 
L 135.308596 88.29624 
L 135.366695 88.194926 
L 135.424794 88.370983 
L 135.657189 91.614926 
L 136.180078 101.652908 
L 136.52867 105.167772 
L 136.644868 105.55951 
L 136.702966 105.505513 
L 137.109658 109.1203 
L 137.225855 109.154881 
L 137.516349 111.162409 
L 137.574448 110.842045 
L 137.806843 109.07592 
L 138.329731 100.53867 
L 138.445929 99.616082 
L 138.504028 99.864542 
L 138.562126 99.998222 
L 139.026917 94.623506 
L 139.31741 92.988961 
L 139.375509 93.006977 
L 139.491707 92.468057 
L 139.724102 93.099958 
L 139.898398 92.136065 
L 140.24699 86.301458 
L 140.886077 74.25376 
L 141.060373 76.232117 
L 141.17657 77.633042 
L 141.234669 77.318961 
L 141.292768 77.414602 
L 141.699459 82.562726 
L 142.222348 95.45752 
L 142.745237 104.528566 
L 143.210027 109.635631 
L 143.268125 109.719791 
L 143.732915 113.041151 
L 144.313903 115.971091 
L 144.604397 116.970659 
L 144.662495 116.737436 
L 144.720594 116.920448 
L 145.243483 118.196207 
L 145.301582 118.308075 
L 145.475878 116.821356 
L 146.173063 104.824955 
L 146.405458 103.604343 
L 146.637853 98.844911 
L 146.812149 95.436692 
L 146.870248 95.480244 
L 147.160742 93.524422 
L 147.276939 91.922727 
L 147.741729 80.486922 
L 148.032223 76.389131 
L 148.264618 75.613215 
L 148.438914 72.115639 
L 149.019902 59.752047 
L 149.078 59.186914 
L 149.136099 59.270814 
L 149.833284 64.196332 
L 151.634345 95.915885 
L 151.750543 96.707502 
L 151.808642 96.534387 
L 151.86674 96.398412 
L 151.924839 96.487452 
L 151.982938 96.780494 
L 152.505827 105.063598 
L 153.028715 110.653672 
L 153.551604 114.218061 
L 154.132592 116.685857 
L 154.65548 118.006099 
L 155.236468 118.983419 
L 155.759357 119.529344 
L 155.933653 118.766071 
L 155.991752 118.66843 
L 156.166048 117.386235 
L 156.688937 118.47051 
L 156.805134 118.662685 
L 156.863233 118.491843 
L 156.921332 118.589292 
L 157.037529 118.734552 
L 157.153727 118.444861 
L 157.211826 118.544601 
L 157.386122 118.791737 
L 157.444221 118.717592 
L 157.618517 116.977595 
L 158.141406 107.298308 
L 158.431899 102.94994 
L 159.070986 90.125309 
L 159.710072 69.179232 
L 160.349158 52.450504 
L 160.407257 52.821752 
L 160.465356 52.889693 
L 160.523454 52.834959 
L 160.988244 44.583116 
L 161.162541 42.943756 
L 161.336837 41.995915 
L 161.627331 39.503918 
L 162.208318 30.153487 
L 162.266417 30.255945 
L 162.382614 31.719745 
L 162.731207 37.802198 
L 162.905503 41.003269 
L 163.370293 51.327141 
L 164.241774 67.6492 
L 164.532268 69.778622 
L 164.590367 69.730219 
L 164.648466 69.492013 
L 164.880861 72.012049 
L 164.997058 73.327092 
L 165.461848 85.269845 
L 165.868539 95.009082 
L 166.159033 99.120277 
L 166.681922 106.864042 
L 167.146712 111.027764 
L 167.553403 113.44033 
L 167.785798 114.315714 
L 168.134391 112.413646 
L 168.192489 112.665339 
L 168.424884 114.028857 
L 168.482983 113.898383 
L 168.657279 114.583427 
L 168.773477 115.016243 
L 168.831576 114.93351 
L 169.005872 112.440899 
L 169.296366 109.080178 
L 169.470662 107.025653 
L 170.051649 98.799611 
L 170.109748 98.433309 
L 170.574538 84.341117 
L 171.039328 70.74482 
L 171.620316 54.953401 
L 171.678414 55.103555 
L 172.201303 59.55739 
L 172.259402 59.421981 
L 172.491797 55.668375 
L 172.666093 53.474225 
L 172.724192 53.510246 
L 173.247081 56.922186 
L 173.363278 56.555706 
L 173.653772 55.40905 
L 173.711871 55.548498 
L 173.76997 55.463002 
L 173.944266 54.789156 
L 174.176661 53.820066 
L 174.467155 54.286911 
L 174.641451 52.755029 
L 175.280537 38.974142 
L 176.035821 19.243072 
L 176.210117 18.605795 
L 176.268216 18.704003 
L 176.384413 19.127013 
L 176.55871 22.684134 
L 177.0235 34.990306 
L 177.081598 35.230982 
L 177.95308 45.748324 
L 178.243573 48.514634 
L 178.475968 54.773181 
L 178.708363 60.182866 
L 178.824561 61.575791 
L 179.115055 65.390409 
L 179.463647 68.376869 
L 179.579845 68.308577 
L 179.637943 68.311305 
L 179.81224 69.030513 
L 180.102733 66.692061 
L 180.335128 64.510898 
L 180.625622 66.638416 
L 180.683721 66.571289 
L 180.799918 66.436673 
L 181.20661 68.04882 
L 181.322807 68.363623 
L 181.497103 71.449424 
L 182.775276 101.744122 
L 183.123868 105.542724 
L 183.181967 105.497389 
L 183.298165 104.747178 
L 183.356263 104.970806 
L 183.414362 105.025994 
L 183.646757 106.875734 
L 184.111547 111.362934 
L 184.343942 110.297958 
L 184.46014 109.76253 
L 184.808732 111.464528 
L 185.331621 114.657618 
L 185.447818 113.500711 
L 186.203102 97.107357 
L 186.377398 95.837766 
L 187.539373 81.686637 
L 187.71367 79.251041 
L 187.946065 75.089441 
L 188.062262 73.44321 
L 188.410855 68.394353 
L 188.468953 68.356084 
L 188.817546 72.864524 
L 189.10804 82.193302 
L 189.630928 95.861946 
L 190.270015 106.189678 
L 190.444311 107.168439 
L 190.50241 107.053868 
L 190.676706 106.11328 
L 191.025298 108.664906 
L 191.141496 109.429958 
L 191.199595 109.413658 
L 191.257694 109.456485 
L 191.373891 108.832058 
L 192.012977 104.883394 
L 192.419669 107.86237 
L 192.710162 110.447574 
L 192.82636 109.785692 
L 192.942557 107.74919 
L 193.000656 107.763844 
L 193.058755 107.759817 
L 193.29115 105.548976 
L 194.046434 95.776264 
L 194.104532 95.700548 
L 194.162631 95.299879 
L 194.22073 95.583144 
L 194.278829 95.771628 
L 194.395026 96.947539 
L 194.453125 96.934911 
L 194.569322 95.405933 
L 195.034112 89.082165 
L 195.092211 88.995615 
L 195.266507 85.721912 
L 195.6151 73.822137 
L 196.370384 51.765672 
L 196.777075 47.716316 
L 196.893272 47.504272 
L 197.241865 52.800913 
L 197.648556 59.763524 
L 197.997149 64.283904 
L 199.33342 98.999103 
L 199.856309 106.455799 
L 199.972506 106.692454 
L 200.379197 110.284711 
L 200.611592 111.330434 
L 200.669691 111.283306 
L 200.785889 111.540118 
L 201.250679 106.805906 
L 201.541172 108.982612 
L 202.412654 102.503956 
L 202.58695 103.536467 
L 202.935542 106.914381 
L 203.109839 108.015754 
L 203.167937 107.865539 
L 203.226036 108.000709 
L 203.284135 108.399468 
L 203.342234 108.246111 
L 203.400332 108.295901 
L 203.923221 103.375452 
L 204.039419 102.340737 
L 204.097517 102.403271 
L 204.155616 102.295526 
L 204.213715 102.356132 
L 204.504209 103.186665 
L 204.620406 102.912282 
L 204.794702 101.558316 
L 205.259492 107.48349 
L 205.549986 106.851294 
L 205.608085 107.059759 
L 205.666184 106.92125 
L 205.84048 105.898193 
L 205.898579 106.046022 
L 205.956677 106.211621 
L 206.247171 104.368209 
L 206.30527 104.384469 
L 206.421467 103.68711 
L 207.409146 75.697182 
L 207.815837 72.147323 
L 208.048232 71.29838 
L 208.280627 72.071853 
L 208.338726 71.948524 
L 208.513022 70.38705 
L 209.152109 56.467718 
L 209.210208 55.854921 
L 209.268306 55.915738 
L 209.384504 56.486588 
L 209.5588 58.881252 
L 209.616899 58.831479 
L 209.733096 58.463565 
L 209.849294 59.529541 
L 210.372183 71.055946 
L 210.720775 79.717985 
L 211.127466 86.557631 
L 211.185565 86.371574 
L 211.243664 86.152853 
L 211.534158 90.282498 
L 211.940849 99.041348 
L 211.998948 98.883515 
L 212.173244 99.23914 
L 212.579935 95.963082 
L 212.754231 94.922141 
L 212.81233 94.893574 
L 212.870429 94.526161 
L 212.928528 94.575348 
L 213.044725 94.567509 
L 213.509515 98.048867 
L 213.858108 102.67259 
L 213.916206 102.55379 
L 214.032404 101.0331 
L 214.264799 97.497458 
L 214.729589 92.429564 
L 214.787688 92.271647 
L 215.13628 97.74405 
L 215.659169 105.986523 
L 216.182058 111.202557 
L 216.472551 112.805358 
L 216.588749 113.250948 
L 216.646848 113.163347 
L 216.937341 111.302194 
L 217.053539 109.705173 
L 217.518329 101.524315 
L 217.692625 101.137278 
L 218.041218 98.448438 
L 218.215514 99.085837 
L 218.447909 97.883306 
L 218.506008 97.629089 
L 218.564106 97.720709 
L 219.203193 106.355645 
L 219.377489 106.832393 
L 219.667983 108.914377 
L 219.78418 108.574657 
L 219.900378 107.637563 
L 220.24897 103.759667 
L 220.307069 103.532695 
L 220.365168 103.776465 
L 220.481365 102.628783 
L 220.539464 101.728984 
L 220.597563 101.942606 
L 220.655661 102.276786 
L 220.71376 102.218896 
L 220.888056 100.224133 
L 221.120451 96.77635 
L 221.469044 87.533896 
L 221.991933 72.531589 
L 222.224328 68.770303 
L 222.282426 68.983906 
L 222.689118 74.159872 
L 222.921513 80.36749 
L 223.444401 94.906735 
L 223.96729 104.177369 
L 224.490179 110.058833 
L 225.013068 113.838775 
L 225.594055 116.455808 
L 226.000746 117.647139 
L 226.116944 116.657105 
L 226.29124 114.163762 
L 227.162722 98.288844 
L 227.22082 98.447112 
L 227.337018 97.468325 
L 227.627512 91.375973 
L 227.918005 87.168759 
L 227.976104 87.02642 
L 228.092302 85.488544 
L 228.324697 82.701085 
L 228.61519 79.810689 
L 228.963783 72.272447 
L 229.138079 70.477638 
L 229.54477 65.529221 
L 229.719067 64.263136 
L 229.777165 64.324239 
L 229.951462 65.402851 
L 230.125758 63.749452 
L 230.590548 56.079952 
L 230.93914 51.749951 
L 231.055338 52.603807 
L 231.520128 55.63387 
L 231.752523 61.621848 
L 232.7983 90.245974 
L 233.437387 101.465413 
L 233.495485 101.255201 
L 233.611683 100.51596 
L 234.947954 75.558085 
L 235.296547 71.137974 
L 235.58704 68.909455 
L 235.645139 68.506367 
L 235.703238 68.662814 
L 235.935633 70.613516 
L 236.51662 78.317127 
L 236.690917 77.283558 
L 236.807114 77.502549 
L 236.98141 79.92215 
L 237.504299 89.265127 
L 237.562398 89.518582 
L 238.027188 97.320089 
L 238.259583 99.205579 
L 238.317682 99.019123 
L 238.550077 97.185405 
L 238.666274 96.884645 
L 239.072965 93.900024 
L 239.131064 93.616174 
L 239.189163 93.729207 
L 239.30536 94.049121 
L 239.363459 94.04411 
L 239.653953 95.449221 
L 239.77015 94.504489 
L 239.828249 94.554504 
L 240.118743 96.516911 
L 240.176842 96.66072 
L 240.409237 98.625837 
L 240.467335 98.285447 
L 240.69973 97.148428 
L 240.815928 97.279989 
L 240.874027 97.767073 
L 240.932125 97.723581 
L 241.803607 88.922266 
L 241.977903 88.453432 
L 242.791285 94.034902 
L 242.849384 94.159829 
L 242.965582 93.607302 
L 243.081779 92.606119 
L 243.139878 92.683488 
L 243.256075 93.631126 
L 243.48847 91.911304 
L 243.604668 90.147701 
L 244.243754 78.171555 
L 244.418051 76.762408 
L 244.534248 77.384783 
L 244.824742 80.065306 
L 244.882841 79.910374 
L 245.463828 83.488223 
L 245.812421 86.792494 
L 245.870519 86.697468 
L 245.928618 86.628216 
L 246.044816 84.305337 
L 246.393408 69.16363 
L 246.858198 51.200755 
L 247.322988 36.688461 
L 247.671581 33.324207 
L 247.729679 33.153209 
L 247.903976 32.428463 
L 248.020173 34.751474 
L 248.717358 60.964299 
L 249.240247 82.534715 
L 249.705037 94.647766 
L 249.821234 95.031819 
L 250.344123 100.132133 
L 250.867012 107.363404 
L 251.215604 110.381974 
L 251.564197 108.818268 
L 251.622296 108.853338 
L 252.203283 113.000374 
L 252.261382 113.077207 
L 252.319481 113.010202 
L 252.377579 113.019055 
L 252.784271 108.118809 
L 253.655752 94.06115 
L 253.713851 94.642263 
L 253.771949 94.633127 
L 253.946246 94.19394 
L 254.004344 94.191859 
L 254.120542 93.430127 
L 254.236739 93.548925 
L 254.411036 94.986496 
L 254.469134 94.830084 
L 254.527233 94.53397 
L 254.585332 94.620475 
L 254.992023 96.978417 
L 255.979702 109.35014 
L 256.037801 109.494275 
L 256.560689 113.456294 
L 256.618788 113.383272 
L 257.025479 108.763471 
L 257.257874 106.729889 
L 257.315973 106.68934 
L 257.374072 106.96006 
L 257.664566 104.207429 
L 258.129356 107.884645 
L 258.187454 108.183674 
L 258.303652 107.879033 
L 258.419849 108.178684 
L 258.536047 107.536673 
L 258.942738 105.0841 
L 259.058936 104.598772 
L 259.291331 102.341655 
L 259.349429 102.473382 
L 259.639923 105.211967 
L 259.814219 106.561947 
L 259.872318 106.444414 
L 260.337108 98.796231 
L 260.685701 95.326531 
L 260.801898 95.912511 
L 261.034293 94.811324 
L 261.20859 92.148841 
L 261.266688 91.942028 
L 261.324787 92.205862 
L 262.080071 82.160709 
L 262.428663 76.537305 
L 262.486762 76.589404 
L 262.544861 76.410606 
L 262.60296 76.465272 
L 262.893453 78.550391 
L 262.951552 78.386434 
L 263.183947 79.860335 
L 263.300145 78.619325 
L 263.590638 75.154099 
L 263.764935 75.232244 
L 263.99733 78.810908 
L 264.229725 83.163934 
L 264.287823 83.139907 
L 264.404021 83.623169 
L 264.636416 85.543825 
L 264.810712 86.381642 
L 264.985008 83.807145 
L 265.333601 77.29112 
L 265.85649 70.092843 
L 265.914588 69.91073 
L 265.972687 70.092482 
L 266.263181 72.279604 
L 266.32128 73.357299 
L 266.32128 73.357299 
" clip-path="url(#p2c349e28e3)" style="fill: none; stroke: #1a1a1a; stroke-width: 0.9; stroke-linejoin: miter"/>
   </g>
   <g id="line2d_15">
    <path d="M 33.984375 48.10555 
L 266.379378 48.10555 
" clip-path="url(#p2c349e28e3)" style="fill: none; stroke-dasharray: 0.7,1.155; stroke-dashoffset: 0; stroke: #bbbbbb; stroke-width: 0.7"/>
   </g>
   <g id="patch_3">
    <path d="M 33.984375 124.96125 
L 33.984375 13.54125 
" style="fill: none; stroke: #1a1a1a; stroke-width: 0.8; stroke-linejoin: miter; stroke-linecap: square"/>
   </g>
   <g id="patch_4">
    <path d="M 266.379378 124.96125 
L 266.379378 13.54125 
" style="fill: none; stroke: #1a1a1a; stroke-width: 0.8; stroke-linejoin: miter; stroke-linecap: square"/>
   </g>
   <g id="patch_5">
    <path d="M 33.984375 124.96125 
L 266.379378 124.96125 
" style="fill: none; stroke: #1a1a1a; stroke-width: 0.8; stroke-linejoin: miter; stroke-linecap: square"/>
   </g>
   <g id="patch_6">
    <path d="M 33.984375 13.54125 
L 266.379378 13.54125 
" style="fill: none; stroke: #1a1a1a; stroke-width: 0.8; stroke-linejoin: miter; stroke-linecap: square"/>
   </g>
   <g id="text_16">
    <!-- COBA · E-neuron conductances (cell 157) -->
    <g style="fill: #1a1a1a" transform="translate(33.984375 7.54125) scale(0.08 -0.08)">
     <defs>
      <path id="Menlo-Regular-43" d="M 3353 166 
Q 3113 38 2859 -26 
Q 2606 -91 2322 -91 
Q 1425 -91 929 543 
Q 434 1178 434 2328 
Q 434 3472 932 4111 
Q 1431 4750 2322 4750 
Q 2606 4750 2859 4686 
Q 3113 4622 3353 4494 
L 3353 3847 
Q 3122 4038 2856 4138 
Q 2591 4238 2322 4238 
Q 1706 4238 1400 3763 
Q 1094 3288 1094 2328 
Q 1094 1372 1400 897 
Q 1706 422 2322 422 
Q 2597 422 2861 522 
Q 3125 622 3353 813 
L 3353 166 
z
" transform="scale(0.015625)"/>
      <path id="Menlo-Regular-4f" d="M 2828 2328 
Q 2828 3356 2617 3797 
Q 2406 4238 1925 4238 
Q 1447 4238 1236 3797 
Q 1025 3356 1025 2328 
Q 1025 1303 1236 862 
Q 1447 422 1925 422 
Q 2406 422 2617 861 
Q 2828 1300 2828 2328 
z
M 3488 2328 
Q 3488 1109 3102 509 
Q 2716 -91 1925 -91 
Q 1134 -91 750 506 
Q 366 1103 366 2328 
Q 366 3550 752 4150 
Q 1138 4750 1925 4750 
Q 2716 4750 3102 4150 
Q 3488 3550 3488 2328 
z
" transform="scale(0.015625)"/>
      <path id="Menlo-Regular-42" d="M 1153 2353 
L 1153 519 
L 1900 519 
Q 2450 519 2684 711 
Q 2919 903 2919 1344 
Q 2919 1925 2672 2139 
Q 2425 2353 1900 2353 
L 1153 2353 
z
M 1153 4147 
L 1153 2866 
L 1888 2866 
Q 2344 2866 2548 3041 
Q 2753 3216 2753 3481 
Q 2753 3834 2551 3990 
Q 2350 4147 1888 4147 
L 1153 4147 
z
M 519 4666 
L 1900 4666 
Q 2616 4666 3003 4356 
Q 3391 4047 3391 3481 
Q 3391 3178 3186 2931 
Q 2981 2684 2572 2622 
Q 3031 2553 3292 2229 
Q 3553 1906 3553 1281 
Q 3553 647 3137 323 
Q 2722 0 1900 0 
L 519 0 
L 519 4666 
z
" transform="scale(0.015625)"/>
      <path id="Menlo-Regular-41" d="M 1925 4109 
L 1259 1722 
L 2591 1722 
L 1925 4109 
z
M 1544 4666 
L 2309 4666 
L 3738 0 
L 3084 0 
L 2741 1216 
L 1106 1216 
L 769 0 
L 116 0 
L 1544 4666 
z
" transform="scale(0.015625)"/>
      <path id="Menlo-Regular-b7" d="M 1528 2700 
L 2316 2700 
L 2316 1747 
L 1528 1747 
L 1528 2700 
z
" transform="scale(0.015625)"/>
      <path id="Menlo-Regular-45" d="M 616 4666 
L 3384 4666 
L 3384 4134 
L 1247 4134 
L 1247 2878 
L 3291 2878 
L 3291 2347 
L 1247 2347 
L 1247 531 
L 3444 531 
L 3444 0 
L 616 0 
L 616 4666 
z
" transform="scale(0.015625)"/>
      <path id="Menlo-Regular-2d" d="M 319 2263 
L 3631 2263 
L 3631 1734 
L 319 1734 
L 319 2263 
z
" transform="scale(0.015625)"/>
      <path id="Menlo-Regular-6e" d="M 3284 2169 
L 3284 0 
L 2706 0 
L 2706 2169 
Q 2706 2641 2540 2862 
Q 2375 3084 2022 3084 
Q 1619 3084 1401 2798 
Q 1184 2513 1184 1978 
L 1184 0 
L 609 0 
L 609 3500 
L 1184 3500 
L 1184 2975 
Q 1338 3275 1600 3429 
Q 1863 3584 2222 3584 
Q 2756 3584 3020 3232 
Q 3284 2881 3284 2169 
z
" transform="scale(0.015625)"/>
      <path id="Menlo-Regular-75" d="M 609 1325 
L 609 3494 
L 1184 3494 
L 1184 1325 
Q 1184 853 1351 631 
Q 1519 409 1869 409 
Q 2275 409 2490 695 
Q 2706 981 2706 1516 
L 2706 3494 
L 3284 3494 
L 3284 0 
L 2706 0 
L 2706 525 
Q 2553 222 2289 65 
Q 2025 -91 1672 -91 
Q 1134 -91 871 261 
Q 609 613 609 1325 
z
" transform="scale(0.015625)"/>
      <path id="Menlo-Regular-72" d="M 3609 2778 
Q 3425 2922 3234 2987 
Q 3044 3053 2816 3053 
Q 2278 3053 1993 2715 
Q 1709 2378 1709 1741 
L 1709 0 
L 1131 0 
L 1131 3500 
L 1709 3500 
L 1709 2816 
Q 1853 3188 2151 3386 
Q 2450 3584 2859 3584 
Q 3072 3584 3256 3531 
Q 3441 3478 3609 3366 
L 3609 2778 
z
" transform="scale(0.015625)"/>
      <path id="Menlo-Regular-6f" d="M 1925 3097 
Q 1488 3097 1263 2756 
Q 1038 2416 1038 1747 
Q 1038 1081 1263 739 
Q 1488 397 1925 397 
Q 2366 397 2591 739 
Q 2816 1081 2816 1747 
Q 2816 2416 2591 2756 
Q 2366 3097 1925 3097 
z
M 1925 3584 
Q 2653 3584 3039 3112 
Q 3425 2641 3425 1747 
Q 3425 850 3040 379 
Q 2656 -91 1925 -91 
Q 1197 -91 812 379 
Q 428 850 428 1747 
Q 428 2641 812 3112 
Q 1197 3584 1925 3584 
z
" transform="scale(0.015625)"/>
      <path id="Menlo-Regular-63" d="M 3316 178 
Q 3084 44 2839 -23 
Q 2594 -91 2338 -91 
Q 1525 -91 1067 396 
Q 609 884 609 1747 
Q 609 2609 1067 3096 
Q 1525 3584 2338 3584 
Q 2591 3584 2831 3518 
Q 3072 3453 3316 3316 
L 3316 2713 
Q 3088 2916 2858 3006 
Q 2628 3097 2338 3097 
Q 1797 3097 1506 2747 
Q 1216 2397 1216 1747 
Q 1216 1100 1508 748 
Q 1800 397 2338 397 
Q 2638 397 2875 489 
Q 3113 581 3316 775 
L 3316 178 
z
" transform="scale(0.015625)"/>
      <path id="Menlo-Regular-64" d="M 2681 3053 
L 2681 4863 
L 3256 4863 
L 3256 0 
L 2681 0 
L 2681 441 
Q 2538 181 2298 45 
Q 2059 -91 1747 -91 
Q 1113 -91 748 401 
Q 384 894 384 1759 
Q 384 2613 750 3098 
Q 1116 3584 1747 3584 
Q 2063 3584 2303 3448 
Q 2544 3313 2681 3053 
z
M 991 1747 
Q 991 1078 1203 737 
Q 1416 397 1831 397 
Q 2247 397 2464 740 
Q 2681 1084 2681 1747 
Q 2681 2413 2464 2755 
Q 2247 3097 1831 3097 
Q 1416 3097 1203 2756 
Q 991 2416 991 1747 
z
" transform="scale(0.015625)"/>
      <path id="Menlo-Regular-61" d="M 2194 1759 
L 2003 1759 
Q 1500 1759 1245 1582 
Q 991 1406 991 1056 
Q 991 741 1181 566 
Q 1372 391 1709 391 
Q 2184 391 2456 720 
Q 2728 1050 2731 1631 
L 2731 1759 
L 2194 1759 
z
M 3309 1997 
L 3309 0 
L 2731 0 
L 2731 519 
Q 2547 206 2267 57 
Q 1988 -91 1588 -91 
Q 1053 -91 734 211 
Q 416 513 416 1019 
Q 416 1603 808 1906 
Q 1200 2209 1959 2209 
L 2731 2209 
L 2731 2300 
Q 2728 2719 2518 2908 
Q 2309 3097 1850 3097 
Q 1556 3097 1256 3012 
Q 956 2928 672 2766 
L 672 3341 
Q 991 3463 1283 3523 
Q 1575 3584 1850 3584 
Q 2284 3584 2592 3456 
Q 2900 3328 3091 3072 
Q 3209 2916 3259 2686 
Q 3309 2456 3309 1997 
z
" transform="scale(0.015625)"/>
      <path id="Menlo-Regular-6c" d="M 2247 1266 
Q 2247 878 2389 681 
Q 2531 484 2809 484 
L 3481 484 
L 3481 0 
L 2753 0 
Q 2238 0 1955 329 
Q 1672 659 1672 1266 
L 1672 4431 
L 750 4431 
L 750 4881 
L 2247 4881 
L 2247 1266 
z
" transform="scale(0.015625)"/>
      <path id="Menlo-Regular-37" d="M 434 4666 
L 3372 4666 
L 3372 4397 
L 1703 0 
L 1044 0 
L 2669 4134 
L 434 4134 
L 434 4666 
z
" transform="scale(0.015625)"/>
     </defs>
     <use xlink:href="#Menlo-Regular-43"/>
     <use xlink:href="#Menlo-Regular-4f" transform="translate(60.205078 0)"/>
     <use xlink:href="#Menlo-Regular-42" transform="translate(120.410156 0)"/>
     <use xlink:href="#Menlo-Regular-41" transform="translate(180.615234 0)"/>
     <use xlink:href="#Menlo-Regular-20" transform="translate(240.820312 0)"/>
     <use xlink:href="#Menlo-Regular-b7" transform="translate(301.025391 0)"/>
     <use xlink:href="#Menlo-Regular-20" transform="translate(361.230469 0)"/>
     <use xlink:href="#Menlo-Regular-45" transform="translate(421.435547 0)"/>
     <use xlink:href="#Menlo-Regular-2d" transform="translate(481.640625 0)"/>
     <use xlink:href="#Menlo-Regular-6e" transform="translate(541.845703 0)"/>
     <use xlink:href="#Menlo-Regular-65" transform="translate(602.050781 0)"/>
     <use xlink:href="#Menlo-Regular-75" transform="translate(662.255859 0)"/>
     <use xlink:href="#Menlo-Regular-72" transform="translate(722.460938 0)"/>
     <use xlink:href="#Menlo-Regular-6f" transform="translate(782.666016 0)"/>
     <use xlink:href="#Menlo-Regular-6e" transform="translate(842.871094 0)"/>
     <use xlink:href="#Menlo-Regular-20" transform="translate(903.076172 0)"/>
     <use xlink:href="#Menlo-Regular-63" transform="translate(963.28125 0)"/>
     <use xlink:href="#Menlo-Regular-6f" transform="translate(1023.486328 0)"/>
     <use xlink:href="#Menlo-Regular-6e" transform="translate(1083.691406 0)"/>
     <use xlink:href="#Menlo-Regular-64" transform="translate(1143.896484 0)"/>
     <use xlink:href="#Menlo-Regular-75" transform="translate(1204.101562 0)"/>
     <use xlink:href="#Menlo-Regular-63" transform="translate(1264.306641 0)"/>
     <use xlink:href="#Menlo-Regular-74" transform="translate(1324.511719 0)"/>
     <use xlink:href="#Menlo-Regular-61" transform="translate(1384.716797 0)"/>
     <use xlink:href="#Menlo-Regular-6e" transform="translate(1444.921875 0)"/>
     <use xlink:href="#Menlo-Regular-63" transform="translate(1505.126953 0)"/>
     <use xlink:href="#Menlo-Regular-65" transform="translate(1565.332031 0)"/>
     <use xlink:href="#Menlo-Regular-73" transform="translate(1625.537109 0)"/>
     <use xlink:href="#Menlo-Regular-20" transform="translate(1685.742188 0)"/>
     <use xlink:href="#Menlo-Regular-28" transform="translate(1745.947266 0)"/>
     <use xlink:href="#Menlo-Regular-63" transform="translate(1806.152344 0)"/>
     <use xlink:href="#Menlo-Regular-65" transform="translate(1866.357422 0)"/>
     <use xlink:href="#Menlo-Regular-6c" transform="translate(1926.5625 0)"/>
     <use xlink:href="#Menlo-Regular-6c" transform="translate(1986.767578 0)"/>
     <use xlink:href="#Menlo-Regular-20" transform="translate(2046.972656 0)"/>
     <use xlink:href="#Menlo-Regular-31" transform="translate(2107.177734 0)"/>
     <use xlink:href="#Menlo-Regular-35" transform="translate(2167.382812 0)"/>
     <use xlink:href="#Menlo-Regular-37" transform="translate(2227.587891 0)"/>
     <use xlink:href="#Menlo-Regular-29" transform="translate(2287.792969 0)"/>
    </g>
   </g>
   <g id="legend_1">
    <g id="patch_7">
     <path d="M 198.337191 40.45625 
L 262.879378 40.45625 
L 262.879378 17.04125 
L 198.337191 17.04125 
z
" style="fill: #ffffff; stroke: #1a1a1a; stroke-width: 0.8; stroke-linejoin: miter"/>
    </g>
    <g id="line2d_16">
     <path d="M 201.137191 23.044844 
L 206.737191 23.044844 
L 212.337191 23.044844 
" style="fill: none; stroke: #1a1a1a; stroke-width: 0.9; stroke-linejoin: miter"/>
    </g>
    <g id="text_17">
     <!-- g_E (exc) -->
     <g style="fill: #1a1a1a" transform="translate(217.937191 25.494844) scale(0.07 -0.07)">
      <defs>
       <path id="Menlo-Regular-5f" d="M 3825 -594 
L 3825 -1125 
L 0 -1125 
L 0 -594 
L 3825 -594 
z
" transform="scale(0.015625)"/>
       <path id="Menlo-Regular-78" d="M 3494 3500 
L 2241 1825 
L 3616 0 
L 2950 0 
L 1925 1403 
L 903 0 
L 238 0 
L 1613 1825 
L 359 3500 
L 997 3500 
L 1925 2234 
L 2847 3500 
L 3494 3500 
z
" transform="scale(0.015625)"/>
      </defs>
      <use xlink:href="#Menlo-Regular-67"/>
      <use xlink:href="#Menlo-Regular-5f" transform="translate(60.205078 0)"/>
      <use xlink:href="#Menlo-Regular-45" transform="translate(120.410156 0)"/>
      <use xlink:href="#Menlo-Regular-20" transform="translate(180.615234 0)"/>
      <use xlink:href="#Menlo-Regular-28" transform="translate(240.820312 0)"/>
      <use xlink:href="#Menlo-Regular-65" transform="translate(301.025391 0)"/>
      <use xlink:href="#Menlo-Regular-78" transform="translate(361.230469 0)"/>
      <use xlink:href="#Menlo-Regular-63" transform="translate(421.435547 0)"/>
      <use xlink:href="#Menlo-Regular-29" transform="translate(481.640625 0)"/>
     </g>
    </g>
    <g id="line2d_17">
     <path d="M 201.137191 33.702344 
L 206.737191 33.702344 
L 212.337191 33.702344 
" style="fill: none; stroke-dasharray: 0.7,1.155; stroke-dashoffset: 0; stroke: #bbbbbb; stroke-width: 0.7"/>
    </g>
    <g id="text_18">
     <!-- g_L (leak) -->
     <g style="fill: #1a1a1a" transform="translate(217.937191 36.152344) scale(0.07 -0.07)">
      <defs>
       <path id="Menlo-Regular-4c" d="M 672 4666 
L 1306 4666 
L 1306 531 
L 3559 531 
L 3559 0 
L 672 0 
L 672 4666 
z
" transform="scale(0.015625)"/>
       <path id="Menlo-Regular-6b" d="M 738 4863 
L 1331 4863 
L 1331 2047 
L 2841 3500 
L 3541 3500 
L 2163 2181 
L 3756 0 
L 3053 0 
L 1759 1806 
L 1331 1403 
L 1331 0 
L 738 0 
L 738 4863 
z
" transform="scale(0.015625)"/>
      </defs>
      <use xlink:href="#Menlo-Regular-67"/>
      <use xlink:href="#Menlo-Regular-5f" transform="translate(60.205078 0)"/>
      <use xlink:href="#Menlo-Regular-4c" transform="translate(120.410156 0)"/>
      <use xlink:href="#Menlo-Regular-20" transform="translate(180.615234 0)"/>
      <use xlink:href="#Menlo-Regular-28" transform="translate(240.820312 0)"/>
      <use xlink:href="#Menlo-Regular-6c" transform="translate(301.025391 0)"/>
      <use xlink:href="#Menlo-Regular-65" transform="translate(361.230469 0)"/>
      <use xlink:href="#Menlo-Regular-61" transform="translate(421.435547 0)"/>
      <use xlink:href="#Menlo-Regular-6b" transform="translate(481.640625 0)"/>
      <use xlink:href="#Menlo-Regular-29" transform="translate(541.845703 0)"/>
     </g>
    </g>
   </g>
  </g>
 </g>
 <defs>
  <clipPath id="p2c349e28e3">
   <rect x="33.984375" y="13.54125" width="232.395003" height="111.42"/>
  </clipPath>
 </defs>
</svg>
