<?xml version="1.0" encoding="utf-8" standalone="no"?>
<!DOCTYPE svg PUBLIC "-//W3C//DTD SVG 1.1//EN"
  "http://www.w3.org/Graphics/SVG/1.1/DTD/svg11.dtd">
<svg xmlns:xlink="http://www.w3.org/1999/xlink" width="424.336563pt" height="106.924453pt" viewBox="0 0 424.336563 106.924453" xmlns="http://www.w3.org/2000/svg" version="1.1">
 <metadata>
  <rdf:RDF xmlns:dc="http://purl.org/dc/elements/1.1/" xmlns:cc="http://creativecommons.org/ns#" xmlns:rdf="http://www.w3.org/1999/02/22-rdf-syntax-ns#">
   <cc:Work>
    <dc:type rdf:resource="http://purl.org/dc/dcmitype/StillImage"/>
    <dc:date>2026-06-30T22:43:53.233557</dc:date>
    <dc:format>image/svg+xml</dc:format>
    <dc:creator>
     <cc:Agent>
      <dc:title>Matplotlib v3.10.8, https://matplotlib.org/</dc:title>
     </cc:Agent>
    </dc:creator>
   </cc:Work>
  </rdf:RDF>
 </metadata>
 <defs>
  <style type="text/css">*{stroke-linejoin: round; stroke-linecap: butt}</style>
 </defs>
 <g id="figure_1">
  <g id="patch_1">
   <path d="M -0 106.924453 
L 424.336563 106.924453 
L 424.336563 0 
L -0 0 
z
" style="fill: #ffffff"/>
  </g>
  <g id="axes_1">
   <g id="patch_2">
    <path d="M 33.984375 83.425078 
L 172.531875 83.425078 
L 172.531875 14.305078 
L 33.984375 14.305078 
z
" style="fill: #ffffff"/>
   </g>
   <g id="matplotlib.axis_1">
    <g id="xtick_1">
     <g id="line2d_1">
      <defs>
       <path id="mbfb4841146" d="M 0 0 
L 0 -3 
" style="stroke: #1a1a1a; stroke-width: 0.8"/>
      </defs>
      <g>
       <use xlink:href="#mbfb4841146" x="33.984375" y="83.425078" style="fill: #1a1a1a; stroke: #1a1a1a; stroke-width: 0.8"/>
      </g>
     </g>
     <g id="text_1">
      <!-- 0 -->
      <g style="fill: #1a1a1a" transform="translate(31.877266 92.263672) scale(0.07 -0.07)">
       <defs>
        <path id="Menlo-Regular-30" d="M 1925 4734 
Q 2672 4734 3055 4125 
Q 3438 3516 3438 2322 
Q 3438 1128 3055 518 
Q 2672 -91 1925 -91 
Q 1178 -91 797 518 
Q 416 1128 416 2322 
Q 416 3516 797 4125 
Q 1178 4734 1925 4734 
z
M 1925 409 
Q 2369 409 2586 881 
Q 2803 1353 2803 2322 
Q 2803 2838 2741 3253 
L 1253 925 
Q 1488 409 1925 409 
z
M 1925 4234 
Q 1484 4234 1267 3762 
Q 1050 3291 1050 2322 
Q 1050 1881 1109 1497 
L 2566 3819 
Q 2328 4234 1925 4234 
z
" transform="scale(0.015625)"/>
       </defs>
       <use xlink:href="#Menlo-Regular-30"/>
      </g>
     </g>
    </g>
    <g id="xtick_2">
     <g id="line2d_2">
      <g>
       <use xlink:href="#mbfb4841146" x="68.62125" y="83.425078" style="fill: #1a1a1a; stroke: #1a1a1a; stroke-width: 0.8"/>
      </g>
     </g>
     <g id="text_2">
      <!-- 100 -->
      <g style="fill: #1a1a1a" transform="translate(62.299922 92.263672) scale(0.07 -0.07)">
       <defs>
        <path id="Menlo-Regular-31" d="M 844 528 
L 1825 528 
L 1825 4053 
L 650 3488 
L 650 4094 
L 1819 4650 
L 2450 4650 
L 2450 528 
L 3419 528 
L 3419 0 
L 844 0 
L 844 528 
z
" transform="scale(0.015625)"/>
       </defs>
       <use xlink:href="#Menlo-Regular-31"/>
       <use xlink:href="#Menlo-Regular-30" transform="translate(60.205078 0)"/>
       <use xlink:href="#Menlo-Regular-30" transform="translate(120.410156 0)"/>
      </g>
     </g>
    </g>
    <g id="xtick_3">
     <g id="line2d_3">
      <g>
       <use xlink:href="#mbfb4841146" x="103.258125" y="83.425078" style="fill: #1a1a1a; stroke: #1a1a1a; stroke-width: 0.8"/>
      </g>
     </g>
     <g id="text_3">
      <!-- 200 -->
      <g style="fill: #1a1a1a" transform="translate(96.936797 92.263672) scale(0.07 -0.07)">
       <defs>
        <path id="Menlo-Regular-32" d="M 1166 531 
L 3309 531 
L 3309 0 
L 475 0 
L 475 531 
Q 1059 1147 1496 1619 
Q 1934 2091 2100 2284 
Q 2413 2666 2522 2902 
Q 2631 3138 2631 3384 
Q 2631 3775 2401 3997 
Q 2172 4219 1772 4219 
Q 1488 4219 1175 4116 
Q 863 4013 513 3803 
L 513 4441 
Q 834 4594 1145 4672 
Q 1456 4750 1759 4750 
Q 2444 4750 2861 4386 
Q 3278 4022 3278 3431 
Q 3278 3131 3139 2831 
Q 3000 2531 2688 2169 
Q 2513 1966 2180 1606 
Q 1847 1247 1166 531 
z
" transform="scale(0.015625)"/>
       </defs>
       <use xlink:href="#Menlo-Regular-32"/>
       <use xlink:href="#Menlo-Regular-30" transform="translate(60.205078 0)"/>
       <use xlink:href="#Menlo-Regular-30" transform="translate(120.410156 0)"/>
      </g>
     </g>
    </g>
    <g id="xtick_4">
     <g id="line2d_4">
      <g>
       <use xlink:href="#mbfb4841146" x="137.895" y="83.425078" style="fill: #1a1a1a; stroke: #1a1a1a; stroke-width: 0.8"/>
      </g>
     </g>
     <g id="text_4">
      <!-- 300 -->
      <g style="fill: #1a1a1a" transform="translate(131.573672 92.263672) scale(0.07 -0.07)">
       <defs>
        <path id="Menlo-Regular-33" d="M 2425 2497 
Q 2884 2375 3128 2064 
Q 3372 1753 3372 1288 
Q 3372 644 2939 276 
Q 2506 -91 1741 -91 
Q 1419 -91 1084 -31 
Q 750 28 428 141 
L 428 769 
Q 747 603 1056 522 
Q 1366 441 1672 441 
Q 2191 441 2469 675 
Q 2747 909 2747 1350 
Q 2747 1756 2469 1995 
Q 2191 2234 1716 2234 
L 1234 2234 
L 1234 2753 
L 1716 2753 
Q 2150 2753 2394 2943 
Q 2638 3134 2638 3475 
Q 2638 3834 2411 4026 
Q 2184 4219 1766 4219 
Q 1488 4219 1191 4156 
Q 894 4094 569 3969 
L 569 4550 
Q 947 4650 1242 4700 
Q 1538 4750 1766 4750 
Q 2447 4750 2855 4408 
Q 3263 4066 3263 3500 
Q 3263 3116 3048 2859 
Q 2834 2603 2425 2497 
z
" transform="scale(0.015625)"/>
       </defs>
       <use xlink:href="#Menlo-Regular-33"/>
       <use xlink:href="#Menlo-Regular-30" transform="translate(60.205078 0)"/>
       <use xlink:href="#Menlo-Regular-30" transform="translate(120.410156 0)"/>
      </g>
     </g>
    </g>
    <g id="xtick_5">
     <g id="line2d_5">
      <g>
       <use xlink:href="#mbfb4841146" x="172.531875" y="83.425078" style="fill: #1a1a1a; stroke: #1a1a1a; stroke-width: 0.8"/>
      </g>
     </g>
     <g id="text_5">
      <!-- 400 -->
      <g style="fill: #1a1a1a" transform="translate(166.210547 92.263672) scale(0.07 -0.07)">
       <defs>
        <path id="Menlo-Regular-34" d="M 2297 4091 
L 825 1625 
L 2297 1625 
L 2297 4091 
z
M 2194 4666 
L 2925 4666 
L 2925 1625 
L 3547 1625 
L 3547 1113 
L 2925 1113 
L 2925 0 
L 2297 0 
L 2297 1113 
L 319 1113 
L 319 1709 
L 2194 4666 
z
" transform="scale(0.015625)"/>
       </defs>
       <use xlink:href="#Menlo-Regular-34"/>
       <use xlink:href="#Menlo-Regular-30" transform="translate(60.205078 0)"/>
       <use xlink:href="#Menlo-Regular-30" transform="translate(120.410156 0)"/>
      </g>
     </g>
    </g>
    <g id="text_6">
     <!-- time (ms) -->
     <g style="fill: #1a1a1a" transform="translate(81.585 103.820703) scale(0.08 -0.08)">
      <defs>
       <path id="Menlo-Regular-74" d="M 1919 4494 
L 1919 3500 
L 3225 3500 
L 3225 3053 
L 1919 3053 
L 1919 1153 
Q 1919 766 2066 612 
Q 2213 459 2578 459 
L 3225 459 
L 3225 0 
L 2522 0 
Q 1875 0 1609 259 
Q 1344 519 1344 1153 
L 1344 3053 
L 409 3053 
L 409 3500 
L 1344 3500 
L 1344 4494 
L 1919 4494 
z
" transform="scale(0.015625)"/>
       <path id="Menlo-Regular-69" d="M 988 3488 
L 2459 3488 
L 2459 447 
L 3600 447 
L 3600 0 
L 744 0 
L 744 447 
L 1884 447 
L 1884 3041 
L 988 3041 
L 988 3488 
z
M 1884 4847 
L 2459 4847 
L 2459 4122 
L 1884 4122 
L 1884 4847 
z
" transform="scale(0.015625)"/>
       <path id="Menlo-Regular-6d" d="M 2113 3144 
Q 2219 3369 2383 3476 
Q 2547 3584 2778 3584 
Q 3200 3584 3373 3257 
Q 3547 2931 3547 2028 
L 3547 0 
L 3022 0 
L 3022 2003 
Q 3022 2744 2939 2923 
Q 2856 3103 2638 3103 
Q 2388 3103 2295 2911 
Q 2203 2719 2203 2003 
L 2203 0 
L 1678 0 
L 1678 2003 
Q 1678 2753 1589 2928 
Q 1500 3103 1269 3103 
Q 1041 3103 952 2911 
Q 863 2719 863 2003 
L 863 0 
L 341 0 
L 341 3500 
L 863 3500 
L 863 3200 
Q 966 3388 1120 3486 
Q 1275 3584 1472 3584 
Q 1709 3584 1867 3475 
Q 2025 3366 2113 3144 
z
" transform="scale(0.015625)"/>
       <path id="Menlo-Regular-65" d="M 3500 2038 
L 3500 1756 
L 1009 1756 
L 1009 1738 
Q 984 1022 1282 709 
Q 1581 397 2125 397 
Q 2400 397 2700 484 
Q 3000 572 3341 750 
L 3341 178 
Q 3013 44 2708 -23 
Q 2403 -91 2119 -91 
Q 1303 -91 843 398 
Q 384 888 384 1747 
Q 384 2584 834 3084 
Q 1284 3584 2034 3584 
Q 2703 3584 3089 3131 
Q 3475 2678 3500 2038 
z
M 2925 2206 
Q 2888 2569 2661 2833 
Q 2434 3097 2009 3097 
Q 1594 3097 1325 2822 
Q 1056 2547 1031 2203 
L 2925 2206 
z
" transform="scale(0.015625)"/>
       <path id="Menlo-Regular-20" transform="scale(0.015625)"/>
       <path id="Menlo-Regular-28" d="M 2672 5169 
Q 2256 4456 2051 3748 
Q 1847 3041 1847 2322 
Q 1847 1606 2051 897 
Q 2256 188 2672 -531 
L 2172 -531 
Q 1700 213 1469 917 
Q 1238 1622 1238 2322 
Q 1238 3019 1469 3725 
Q 1700 4431 2172 5169 
L 2672 5169 
z
" transform="scale(0.015625)"/>
       <path id="Menlo-Regular-73" d="M 3041 3378 
L 3041 2816 
Q 2794 2959 2544 3031 
Q 2294 3103 2034 3103 
Q 1644 3103 1451 2976 
Q 1259 2850 1259 2591 
Q 1259 2356 1403 2240 
Q 1547 2125 2119 2016 
L 2350 1972 
Q 2778 1891 2998 1647 
Q 3219 1403 3219 1013 
Q 3219 494 2850 201 
Q 2481 -91 1825 -91 
Q 1566 -91 1281 -36 
Q 997 19 666 128 
L 666 722 
Q 988 556 1281 473 
Q 1575 391 1838 391 
Q 2219 391 2428 545 
Q 2638 700 2638 978 
Q 2638 1378 1872 1531 
L 1847 1538 
L 1631 1581 
Q 1134 1678 906 1908 
Q 678 2138 678 2534 
Q 678 3038 1018 3311 
Q 1359 3584 1991 3584 
Q 2272 3584 2531 3532 
Q 2791 3481 3041 3378 
z
" transform="scale(0.015625)"/>
       <path id="Menlo-Regular-29" d="M 1088 5169 
L 1588 5169 
Q 2059 4431 2290 3725 
Q 2522 3019 2522 2322 
Q 2522 1619 2290 912 
Q 2059 206 1588 -531 
L 1088 -531 
Q 1503 194 1708 903 
Q 1913 1613 1913 2322 
Q 1913 3034 1708 3743 
Q 1503 4453 1088 5169 
z
" transform="scale(0.015625)"/>
      </defs>
      <use xlink:href="#Menlo-Regular-74"/>
      <use xlink:href="#Menlo-Regular-69" transform="translate(60.205078 0)"/>
      <use xlink:href="#Menlo-Regular-6d" transform="translate(120.410156 0)"/>
      <use xlink:href="#Menlo-Regular-65" transform="translate(180.615234 0)"/>
      <use xlink:href="#Menlo-Regular-20" transform="translate(240.820312 0)"/>
      <use xlink:href="#Menlo-Regular-28" transform="translate(301.025391 0)"/>
      <use xlink:href="#Menlo-Regular-6d" transform="translate(361.230469 0)"/>
      <use xlink:href="#Menlo-Regular-73" transform="translate(421.435547 0)"/>
      <use xlink:href="#Menlo-Regular-29" transform="translate(481.640625 0)"/>
     </g>
    </g>
   </g>
   <g id="matplotlib.axis_2">
    <g id="ytick_1">
     <g id="line2d_6">
      <defs>
       <path id="m1d1447ffed" d="M 0 0 
L 3 0 
" style="stroke: #1a1a1a; stroke-width: 0.8"/>
      </defs>
      <g>
       <use xlink:href="#m1d1447ffed" x="33.984375" y="81.171184" style="fill: #1a1a1a; stroke: #1a1a1a; stroke-width: 0.8"/>
      </g>
     </g>
     <g id="text_7">
      <!-- 0.00 -->
      <g style="fill: #1a1a1a" transform="translate(13.6275 83.840481) scale(0.07 -0.07)">
       <defs>
        <path id="Menlo-Regular-2e" d="M 1216 1263 
L 2316 1263 
L 2316 0 
L 1216 0 
L 1216 1263 
z
" transform="scale(0.015625)"/>
       </defs>
       <use xlink:href="#Menlo-Regular-30"/>
       <use xlink:href="#Menlo-Regular-2e" transform="translate(60.205078 0)"/>
       <use xlink:href="#Menlo-Regular-30" transform="translate(120.410156 0)"/>
       <use xlink:href="#Menlo-Regular-30" transform="translate(180.615234 0)"/>
      </g>
     </g>
    </g>
    <g id="ytick_2">
     <g id="line2d_7">
      <g>
       <use xlink:href="#m1d1447ffed" x="33.984375" y="59.521874" style="fill: #1a1a1a; stroke: #1a1a1a; stroke-width: 0.8"/>
      </g>
     </g>
     <g id="text_8">
      <!-- 0.02 -->
      <g style="fill: #1a1a1a" transform="translate(13.6275 62.191171) scale(0.07 -0.07)">
       <use xlink:href="#Menlo-Regular-30"/>
       <use xlink:href="#Menlo-Regular-2e" transform="translate(60.205078 0)"/>
       <use xlink:href="#Menlo-Regular-30" transform="translate(120.410156 0)"/>
       <use xlink:href="#Menlo-Regular-32" transform="translate(180.615234 0)"/>
      </g>
     </g>
    </g>
    <g id="ytick_3">
     <g id="line2d_8">
      <g>
       <use xlink:href="#m1d1447ffed" x="33.984375" y="37.872564" style="fill: #1a1a1a; stroke: #1a1a1a; stroke-width: 0.8"/>
      </g>
     </g>
     <g id="text_9">
      <!-- 0.04 -->
      <g style="fill: #1a1a1a" transform="translate(13.6275 40.541861) scale(0.07 -0.07)">
       <use xlink:href="#Menlo-Regular-30"/>
       <use xlink:href="#Menlo-Regular-2e" transform="translate(60.205078 0)"/>
       <use xlink:href="#Menlo-Regular-30" transform="translate(120.410156 0)"/>
       <use xlink:href="#Menlo-Regular-34" transform="translate(180.615234 0)"/>
      </g>
     </g>
    </g>
    <g id="ytick_4">
     <g id="line2d_9">
      <g>
       <use xlink:href="#m1d1447ffed" x="33.984375" y="16.223253" style="fill: #1a1a1a; stroke: #1a1a1a; stroke-width: 0.8"/>
      </g>
     </g>
     <g id="text_10">
      <!-- 0.06 -->
      <g style="fill: #1a1a1a" transform="translate(13.6275 18.89255) scale(0.07 -0.07)">
       <defs>
        <path id="Menlo-Regular-36" d="M 3097 4563 
L 3097 3981 
Q 2900 4097 2678 4158 
Q 2456 4219 2216 4219 
Q 1616 4219 1306 3767 
Q 997 3316 997 2438 
Q 1147 2750 1412 2917 
Q 1678 3084 2022 3084 
Q 2697 3084 3067 2670 
Q 3438 2256 3438 1497 
Q 3438 741 3056 325 
Q 2675 -91 1984 -91 
Q 1172 -91 794 492 
Q 416 1075 416 2328 
Q 416 3509 870 4129 
Q 1325 4750 2188 4750 
Q 2419 4750 2650 4701 
Q 2881 4653 3097 4563 
z
M 1972 2591 
Q 1569 2591 1337 2300 
Q 1106 2009 1106 1497 
Q 1106 984 1337 693 
Q 1569 403 1972 403 
Q 2391 403 2603 679 
Q 2816 956 2816 1497 
Q 2816 2041 2603 2316 
Q 2391 2591 1972 2591 
z
" transform="scale(0.015625)"/>
       </defs>
       <use xlink:href="#Menlo-Regular-30"/>
       <use xlink:href="#Menlo-Regular-2e" transform="translate(60.205078 0)"/>
       <use xlink:href="#Menlo-Regular-30" transform="translate(120.410156 0)"/>
       <use xlink:href="#Menlo-Regular-36" transform="translate(180.615234 0)"/>
      </g>
     </g>
    </g>
    <g id="text_11">
     <!-- g  [µS] -->
     <g style="fill: #1a1a1a" transform="translate(7.90875 65.721953) rotate(-90) scale(0.08 -0.08)">
      <defs>
       <path id="Menlo-Regular-67" d="M 2681 1778 
Q 2681 2425 2470 2761 
Q 2259 3097 1856 3097 
Q 1434 3097 1212 2761 
Q 991 2425 991 1778 
Q 991 1131 1214 792 
Q 1438 453 1863 453 
Q 2259 453 2470 793 
Q 2681 1134 2681 1778 
z
M 3256 225 
Q 3256 -563 2884 -969 
Q 2513 -1375 1791 -1375 
Q 1553 -1375 1293 -1331 
Q 1034 -1288 775 -1203 
L 775 -634 
Q 1081 -778 1331 -847 
Q 1581 -916 1791 -916 
Q 2256 -916 2468 -662 
Q 2681 -409 2681 141 
L 2681 166 
L 2681 556 
Q 2544 263 2306 119 
Q 2069 -25 1728 -25 
Q 1116 -25 750 465 
Q 384 956 384 1778 
Q 384 2603 750 3093 
Q 1116 3584 1728 3584 
Q 2066 3584 2300 3450 
Q 2534 3316 2681 3034 
L 2681 3488 
L 3256 3488 
L 3256 225 
z
" transform="scale(0.015625)"/>
       <path id="Menlo-Regular-5b" d="M 1759 5175 
L 3084 5175 
L 3084 4728 
L 2334 4728 
L 2334 -84 
L 3084 -84 
L 3084 -531 
L 1759 -531 
L 1759 5175 
z
" transform="scale(0.015625)"/>
       <path id="Menlo-Regular-b5" d="M 609 -1338 
L 609 3500 
L 1184 3500 
L 1184 1325 
Q 1184 881 1371 645 
Q 1559 409 1906 409 
Q 2303 409 2504 675 
Q 2706 941 2706 1459 
L 2706 3500 
L 3284 3500 
L 3284 800 
Q 3284 616 3334 528 
Q 3384 441 3488 441 
Q 3516 441 3561 456 
Q 3606 472 3694 513 
L 3694 50 
Q 3575 -22 3469 -56 
Q 3363 -91 3256 -91 
Q 3063 -91 2945 32 
Q 2828 156 2791 403 
Q 2647 153 2439 31 
Q 2231 -91 1953 -91 
Q 1666 -91 1467 28 
Q 1269 147 1131 397 
L 1131 -1338 
L 609 -1338 
z
" transform="scale(0.015625)"/>
       <path id="Menlo-Regular-53" d="M 3163 4506 
L 3163 3866 
Q 2875 4050 2586 4144 
Q 2297 4238 2003 4238 
Q 1556 4238 1297 4030 
Q 1038 3822 1038 3469 
Q 1038 3159 1208 2996 
Q 1378 2834 1844 2725 
L 2175 2650 
Q 2831 2497 3131 2169 
Q 3431 1841 3431 1275 
Q 3431 609 3018 259 
Q 2606 -91 1819 -91 
Q 1491 -91 1159 -20 
Q 828 50 494 191 
L 494 863 
Q 853 634 1173 528 
Q 1494 422 1819 422 
Q 2297 422 2562 636 
Q 2828 850 2828 1234 
Q 2828 1584 2645 1768 
Q 2463 1953 2009 2053 
L 1672 2131 
Q 1022 2278 728 2575 
Q 434 2872 434 3372 
Q 434 3997 854 4373 
Q 1275 4750 1972 4750 
Q 2241 4750 2537 4689 
Q 2834 4628 3163 4506 
z
" transform="scale(0.015625)"/>
       <path id="Menlo-Regular-5d" d="M 2250 5175 
L 2250 -531 
L 925 -531 
L 925 -84 
L 1675 -84 
L 1675 4728 
L 925 4728 
L 925 5175 
L 2250 5175 
z
" transform="scale(0.015625)"/>
      </defs>
      <use xlink:href="#Menlo-Regular-67"/>
      <use xlink:href="#Menlo-Regular-20" transform="translate(60.205078 0)"/>
      <use xlink:href="#Menlo-Regular-20" transform="translate(120.410156 0)"/>
      <use xlink:href="#Menlo-Regular-5b" transform="translate(180.615234 0)"/>
      <use xlink:href="#Menlo-Regular-b5" transform="translate(240.820312 0)"/>
      <use xlink:href="#Menlo-Regular-53" transform="translate(301.025391 0)"/>
      <use xlink:href="#Menlo-Regular-5d" transform="translate(361.230469 0)"/>
     </g>
    </g>
   </g>
   <g id="line2d_10">
    <path d="M 33.984375 79.630585 
L 34.417336 73.772324 
L 34.503928 74.641713 
L 34.850297 77.21086 
L 35.023481 74.336147 
L 35.456442 65.540093 
L 35.543034 65.026929 
L 35.629627 65.092393 
L 35.889403 68.625299 
L 36.062588 65.578488 
L 36.408956 58.249008 
L 36.928509 65.085877 
L 37.015102 64.32266 
L 37.101694 64.134335 
L 37.707839 52.317514 
L 37.881023 51.694914 
L 38.054208 52.289365 
L 38.1408 52.533194 
L 38.227392 52.465916 
L 39.179906 42.946145 
L 39.266498 42.832034 
L 39.353091 41.910249 
L 39.439683 42.23726 
L 40.738566 20.578575 
L 40.825158 20.318729 
L 40.91175 19.492837 
L 41.084934 17.446896 
L 41.258119 18.134994 
L 41.950856 30.946668 
L 42.124041 30.720647 
L 42.210633 31.178085 
L 42.297225 31.081789 
L 42.470409 29.640107 
L 42.816778 39.56648 
L 43.422923 62.580321 
L 43.596108 65.150984 
L 43.6827 64.744465 
L 43.769292 64.940887 
L 43.942477 65.515599 
L 44.202253 63.286978 
L 44.288845 63.343346 
L 44.46203 60.95641 
L 44.635214 61.898567 
L 44.721806 60.965678 
L 44.808398 60.995438 
L 44.981583 62.18112 
L 45.241359 59.647116 
L 45.327952 60.322299 
L 45.414544 60.253928 
L 45.501136 60.424575 
L 45.760913 62.069988 
L 46.020689 61.029019 
L 46.107281 61.227551 
L 46.193873 61.373449 
L 46.45365 64.936076 
L 46.713427 69.213309 
L 47.059795 67.37321 
L 47.146388 67.68021 
L 47.23298 67.408929 
L 47.406164 66.534701 
L 47.839125 72.925371 
L 48.098902 75.234192 
L 48.185494 75.394443 
L 48.272086 76.073227 
L 48.531863 69.550029 
L 49.830745 26.168738 
L 50.00393 29.040575 
L 50.696667 46.515797 
L 50.783259 46.652439 
L 50.869852 47.364195 
L 50.956444 47.234715 
L 51.389405 50.014286 
L 51.562589 52.620153 
L 51.822366 54.952262 
L 52.341919 62.707506 
L 52.77488 71.288289 
L 53.207841 75.881252 
L 53.554209 72.904501 
L 53.727394 70.567703 
L 53.813986 70.924682 
L 53.98717 68.586148 
L 54.073763 67.676103 
L 54.160355 68.432716 
L 54.333539 68.078612 
L 54.7665 61.850699 
L 55.372645 68.080628 
L 55.805606 62.610333 
L 56.931305 76.155112 
L 57.104489 76.778088 
L 57.191081 76.61267 
L 57.277673 76.137793 
L 57.624042 65.974767 
L 57.883819 60.983837 
L 58.143595 55.137976 
L 58.230187 54.943674 
L 58.663148 49.897138 
L 58.749741 50.379098 
L 59.269294 58.21019 
L 59.355886 58.064399 
L 59.615662 53.625501 
L 59.702255 54.480695 
L 59.788847 54.348125 
L 59.875439 54.17675 
L 60.135216 49.034774 
L 60.481584 43.256639 
L 60.654769 45.014139 
L 60.827953 47.188507 
L 60.914545 47.276052 
L 61.001137 47.002504 
L 61.520691 57.269337 
L 61.693875 56.342913 
L 61.780467 54.907743 
L 61.953652 56.345353 
L 62.040244 55.856156 
L 62.30002 58.172308 
L 62.386612 57.435793 
L 62.473205 58.495265 
L 62.559797 58.449438 
L 62.906166 61.319314 
L 62.992758 61.24581 
L 63.252534 59.478392 
L 63.772087 48.546342 
L 63.945272 49.684649 
L 64.205048 55.318836 
L 64.378233 56.255228 
L 64.551417 54.666591 
L 64.897786 51.228437 
L 64.984378 51.719152 
L 65.07097 53.251531 
L 65.157562 53.174726 
L 65.244155 54.183419 
L 65.417339 57.218925 
L 65.590523 54.466783 
L 66.023484 47.87856 
L 66.110077 47.441316 
L 66.283261 47.626134 
L 66.456445 51.365094 
L 66.716222 55.917265 
L 66.802814 56.171792 
L 67.062591 60.870084 
L 67.149183 60.837739 
L 67.235775 60.912121 
L 67.408959 59.657814 
L 67.668736 57.424621 
L 67.928512 58.968955 
L 68.274881 57.22108 
L 68.448066 56.977834 
L 68.794434 53.347372 
L 68.881027 53.667526 
L 69.920133 74.419189 
L 70.266502 77.075892 
L 70.353094 77.007487 
L 70.439686 76.6952 
L 70.61287 72.324666 
L 70.872647 65.4476 
L 71.045831 63.842545 
L 71.219016 64.305548 
L 71.3922 67.851251 
L 71.478792 67.558062 
L 71.565384 68.36889 
L 71.825161 65.281669 
L 71.911753 64.201557 
L 71.998345 64.69355 
L 72.17153 61.746074 
L 72.517898 53.436643 
L 72.864267 47.654514 
L 72.950859 46.551949 
L 73.037452 46.730854 
L 73.124044 47.103917 
L 73.38382 40.542123 
L 73.470412 40.985895 
L 73.816781 49.32561 
L 74.16315 55.891717 
L 74.336334 58.286277 
L 74.596111 64.973449 
L 74.682703 65.113024 
L 74.94248 60.891642 
L 75.029072 60.433286 
L 75.288848 61.416727 
L 75.375441 61.733932 
L 75.548625 56.991365 
L 75.721809 54.10975 
L 75.981586 51.403371 
L 76.414547 60.340857 
L 76.501139 59.415306 
L 76.674323 57.784446 
L 76.760916 58.090019 
L 76.847508 58.481599 
L 77.193877 65.891956 
L 77.367061 68.044083 
L 77.453653 67.696942 
L 77.71343 70.710235 
L 77.800022 69.99261 
L 77.973206 66.773364 
L 78.059798 67.032139 
L 78.665944 74.550335 
L 78.752536 74.10217 
L 79.185497 77.387414 
L 79.618458 79.145878 
L 79.70505 78.980575 
L 79.791642 78.288374 
L 79.878234 78.627113 
L 80.138011 74.328157 
L 80.311195 70.571603 
L 80.397787 70.654507 
L 80.48438 70.147461 
L 80.570972 70.259861 
L 80.744156 70.006575 
L 80.917341 69.882521 
L 81.003933 69.420633 
L 81.090525 69.481475 
L 81.177117 69.166786 
L 81.350302 69.81966 
L 81.69667 71.880446 
L 81.783262 71.512862 
L 81.956447 69.906903 
L 82.129631 68.790143 
L 82.302816 70.344649 
L 82.389408 70.035817 
L 82.476 70.151739 
L 82.649184 70.844319 
L 82.735777 70.187132 
L 82.822369 70.465616 
L 83.082145 72.465452 
L 83.25533 71.009468 
L 83.515106 68.604901 
L 83.688291 69.290223 
L 83.861475 67.211218 
L 84.121252 69.077627 
L 84.207844 69.156499 
L 84.46762 71.623115 
L 84.554212 71.611304 
L 84.987173 76.051129 
L 85.420134 78.430617 
L 85.593319 79.036828 
L 85.679911 78.551946 
L 85.853095 72.696374 
L 86.286056 57.439077 
L 86.545833 56.031211 
L 86.632425 55.896304 
L 86.719017 56.310584 
L 86.805609 56.12759 
L 86.978794 53.332294 
L 87.23857 53.784682 
L 87.498347 49.499727 
L 87.584939 49.420545 
L 87.671531 49.161854 
L 87.931308 43.428763 
L 88.537453 53.203452 
L 88.79723 59.20708 
L 88.883822 60.157804 
L 89.143598 58.866491 
L 89.230191 58.877094 
L 89.316783 58.646405 
L 89.403375 57.725223 
L 89.922928 41.087341 
L 90.269297 35.740377 
L 90.442481 34.719296 
L 90.702258 37.642656 
L 91.048627 35.843936 
L 91.135219 36.212256 
L 91.394995 32.064824 
L 91.481587 32.215784 
L 91.56818 32.668856 
L 91.741364 34.371517 
L 91.827956 33.76653 
L 91.914548 34.139185 
L 92.087733 33.529685 
L 92.174325 32.809598 
L 92.434102 28.80446 
L 92.520694 29.012896 
L 92.607286 28.461169 
L 92.78047 30.743317 
L 93.906169 56.686827 
L 94.858683 69.589859 
L 95.464828 60.990732 
L 95.55142 60.86814 
L 95.638012 61.35654 
L 95.724605 61.309501 
L 95.811197 61.25056 
L 95.897789 62.128383 
L 95.984381 61.839321 
L 96.244158 63.489353 
L 96.33075 65.567023 
L 96.417342 65.421575 
L 96.503934 65.284594 
L 96.763711 62.871616 
L 96.850303 62.967066 
L 96.936895 62.610952 
L 97.023487 63.2863 
L 97.11008 63.244213 
L 97.283264 61.817406 
L 97.369856 62.474 
L 97.456448 61.932373 
L 97.802817 57.498702 
L 97.889409 57.609212 
L 98.235778 52.836442 
L 98.495555 49.429671 
L 98.582147 49.349158 
L 98.755331 47.578776 
L 98.841923 47.58132 
L 99.188292 43.260313 
L 99.361477 39.200297 
L 99.448069 39.449409 
L 99.707845 41.673924 
L 99.88103 43.307513 
L 99.967622 42.905655 
L 100.400583 52.645531 
L 100.833544 65.902502 
L 101.266505 72.998448 
L 101.526281 74.872675 
L 101.959242 77.617956 
L 102.392203 79.269278 
L 102.65198 79.864025 
L 102.738572 79.707244 
L 103.084941 80.28326 
L 103.344717 77.441131 
L 103.517902 74.314538 
L 104.124047 54.573648 
L 104.383823 52.282605 
L 104.470416 51.58811 
L 104.730192 54.611066 
L 105.42293 70.880735 
L 105.596114 72.436228 
L 105.682706 72.249431 
L 105.769298 71.447468 
L 105.855891 69.404502 
L 105.942483 69.425967 
L 106.029075 69.790442 
L 106.63522 76.08583 
L 106.894997 77.676075 
L 107.241366 76.979937 
L 107.587734 70.324351 
L 108.020695 75.365293 
L 108.280472 76.992156 
L 108.367064 76.656811 
L 108.453656 77.187264 
L 108.540248 76.986427 
L 108.713433 75.077036 
L 108.800025 75.760367 
L 109.146394 73.115771 
L 109.319578 68.892173 
L 109.40617 69.446308 
L 109.492762 69.198531 
L 109.579355 69.652679 
L 109.839131 72.580145 
L 110.012316 71.222392 
L 110.1855 69.359383 
L 110.272092 70.036504 
L 110.618461 73.353062 
L 110.705053 73.040835 
L 110.791645 72.972448 
L 111.138014 68.015466 
L 111.657567 50.720764 
L 112.090528 34.726902 
L 112.263712 33.532088 
L 112.350305 34.295666 
L 112.436897 34.267043 
L 112.523489 34.717312 
L 112.696673 37.80892 
L 112.783266 37.792564 
L 113.043042 41.173705 
L 113.216227 43.8459 
L 113.302819 44.11219 
L 113.389411 43.902142 
L 113.822372 48.839597 
L 114.168741 58.208419 
L 114.255333 59.516475 
L 114.341925 58.804568 
L 114.515109 54.468164 
L 114.601702 54.613937 
L 114.688294 54.214687 
L 115.034662 58.312958 
L 115.207847 56.731979 
L 115.294439 58.096017 
L 115.381031 58.006573 
L 115.467623 57.379529 
L 115.554216 57.813404 
L 115.900584 54.051476 
L 115.987177 54.310235 
L 116.160361 54.65077 
L 116.333545 54.192597 
L 116.420137 53.515793 
L 116.679914 48.245554 
L 116.853098 49.35239 
L 116.939691 48.223714 
L 117.026283 48.342936 
L 117.112875 47.962077 
L 117.199467 48.190266 
L 117.286059 49.085069 
L 117.372652 49.019084 
L 117.459244 47.770691 
L 117.71902 49.477827 
L 117.892205 48.8983 
L 118.065389 49.677603 
L 118.151981 48.117953 
L 118.238573 48.917031 
L 118.325166 48.334408 
L 118.49835 50.070463 
L 118.844719 58.283855 
L 119.017903 56.812503 
L 119.27768 54.090069 
L 119.364272 53.696392 
L 119.450864 54.148169 
L 119.710641 58.673511 
L 119.797233 58.654599 
L 119.970417 59.023091 
L 120.143602 54.71153 
L 120.230194 54.738866 
L 120.316786 54.520873 
L 120.663155 62.059873 
L 121.009523 69.534264 
L 121.096116 69.862336 
L 121.182708 70.704185 
L 121.355892 68.379564 
L 121.788853 60.30806 
L 121.962037 60.700213 
L 122.04863 61.773898 
L 122.135222 60.644576 
L 122.308406 64.123322 
L 122.741367 72.046121 
L 123.001144 74.822686 
L 123.087736 74.919398 
L 123.174328 74.639057 
L 123.434105 75.954562 
L 123.520697 76.002405 
L 123.780473 71.842952 
L 124.126842 73.957641 
L 124.386619 75.575532 
L 124.559803 74.657486 
L 124.906172 76.805186 
L 124.992764 75.884235 
L 125.252541 69.994955 
L 125.598909 67.494063 
L 125.685502 67.28616 
L 125.858686 69.096886 
L 126.551423 59.179526 
L 126.984384 48.245485 
L 127.244161 47.010936 
L 127.417345 43.826306 
L 127.677122 37.075429 
L 127.936898 39.293097 
L 128.110083 43.010645 
L 128.196675 42.010606 
L 128.456452 35.738196 
L 128.543044 35.669296 
L 128.629636 36.791746 
L 128.716228 36.635886 
L 128.80282 35.550176 
L 129.062597 30.413257 
L 129.149189 31.196151 
L 129.495558 41.501196 
L 129.668742 41.550719 
L 129.841927 39.922167 
L 130.015111 39.893395 
L 130.36148 35.09919 
L 130.448072 34.992671 
L 130.794441 38.782982 
L 130.881033 38.88025 
L 131.054217 39.736938 
L 131.227402 41.774575 
L 131.313994 41.351211 
L 131.400586 41.573729 
L 131.487178 40.630644 
L 131.57377 40.955341 
L 131.746955 39.116336 
L 131.833547 39.824996 
L 132.179916 49.741945 
L 132.439692 56.551395 
L 132.612877 59.180838 
L 132.699469 59.547263 
L 132.786061 61.451131 
L 132.872653 60.49936 
L 133.651983 68.771734 
L 134.084944 74.534238 
L 134.431312 76.720233 
L 134.864273 78.662188 
L 134.950866 78.506436 
L 135.037458 77.690504 
L 135.730195 53.180981 
L 135.816787 52.967851 
L 135.90338 53.322517 
L 136.076564 52.615725 
L 136.163156 52.351744 
L 136.336341 50.649834 
L 136.422933 51.081013 
L 136.596117 54.379036 
L 136.942486 61.783481 
L 137.029078 62.133867 
L 137.721816 51.998521 
L 137.808408 52.294958 
L 138.068184 56.496122 
L 138.327961 55.449283 
L 138.414553 55.394419 
L 138.587737 57.019387 
L 138.760922 58.760192 
L 138.847514 58.622023 
L 139.107291 60.609566 
L 139.193883 61.920439 
L 139.280475 61.35281 
L 139.626844 64.427502 
L 140.059805 72.105322 
L 140.146397 72.561718 
L 140.406173 70.560451 
L 140.66595 72.709393 
L 140.752542 72.939114 
L 140.925727 68.620365 
L 141.098911 62.876457 
L 141.358687 56.992395 
L 141.44528 57.30522 
L 141.705056 61.707839 
L 142.138017 70.753207 
L 142.570978 75.594843 
L 143.003939 78.089291 
L 143.4369 79.521566 
L 143.610084 79.711517 
L 144.043045 74.496923 
L 144.21623 75.495231 
L 144.389414 73.800601 
L 144.649191 76.105462 
L 144.735783 75.555722 
L 145.082152 69.960801 
L 145.168744 70.526799 
L 145.255336 70.632561 
L 145.42852 72.026116 
L 145.861481 67.75201 
L 146.467627 74.728301 
L 146.900587 72.176684 
L 147.939694 78.874836 
L 148.112878 79.382786 
L 148.19947 79.118008 
L 148.286062 77.995931 
L 148.372655 78.369033 
L 148.719023 74.067154 
L 149.151984 67.859211 
L 149.498353 65.360381 
L 149.671537 66.854504 
L 149.75813 66.737719 
L 150.191091 64.488349 
L 150.364275 62.425888 
L 150.624052 65.67837 
L 150.710644 65.570624 
L 150.797236 65.263882 
L 150.883828 64.543917 
L 151.057012 61.811408 
L 151.143605 61.68555 
L 151.230197 60.935158 
L 151.316789 61.182461 
L 151.576566 66.3489 
L 151.74975 69.107501 
L 151.922934 68.959053 
L 152.096119 66.210618 
L 152.182711 66.966441 
L 152.269303 66.014882 
L 152.615672 71.099279 
L 152.788856 70.802399 
L 152.962041 72.414226 
L 153.048633 71.408547 
L 153.568186 54.04625 
L 153.654778 54.367067 
L 153.74137 54.165245 
L 154.001147 48.256572 
L 154.087739 48.526429 
L 154.174331 47.795267 
L 154.260923 48.02127 
L 154.347516 47.616792 
L 154.5207 48.173221 
L 154.607292 47.256466 
L 154.780477 48.184185 
L 154.867069 48.764742 
L 155.386622 61.17588 
L 155.559806 60.2566 
L 155.732991 59.80822 
L 155.906175 57.076592 
L 155.992767 56.881046 
L 156.51232 50.491083 
L 156.945281 42.257911 
L 157.29165 50.263067 
L 157.551427 51.085854 
L 157.724611 50.167723 
L 158.244164 39.55531 
L 158.330756 40.047577 
L 159.196678 65.357874 
L 159.629639 72.70693 
L 159.976008 76.037355 
L 160.0626 75.879608 
L 160.149192 75.275121 
L 160.322377 76.227958 
L 160.755337 78.525266 
L 160.84193 78.83617 
L 161.101706 76.768585 
L 161.188298 76.578096 
L 161.621259 68.252771 
L 161.707852 67.797414 
L 162.05422 58.164526 
L 162.573773 44.689072 
L 162.660366 44.361625 
L 163.093327 39.246893 
L 163.353103 35.396651 
L 163.439695 33.176454 
L 163.526287 33.704849 
L 163.872656 35.619636 
L 163.959248 37.343876 
L 164.305617 49.793138 
L 164.911762 64.151957 
L 165.084947 65.245434 
L 165.258131 66.867189 
L 165.344723 66.766357 
L 165.517908 65.829204 
L 165.6045 65.568975 
L 165.691092 66.063892 
L 165.950869 68.763339 
L 166.124053 70.243253 
L 166.210645 69.480369 
L 167.509528 41.681804 
L 167.59612 41.73146 
L 167.682712 42.257632 
L 167.769305 42.199685 
L 167.855897 42.261713 
L 167.942489 42.1821 
L 168.029081 41.401033 
L 168.37545 33.778369 
L 168.548634 30.40162 
L 168.981595 35.889781 
L 169.241372 43.35204 
L 170.020702 65.279829 
L 170.453662 72.250474 
L 170.886623 76.396272 
L 170.973216 75.610843 
L 171.319584 77.568395 
L 171.665953 72.650026 
L 172.098914 63.025978 
L 172.185506 62.513488 
L 172.445283 65.912798 
L 172.445283 65.912798 
" clip-path="url(#p7c25b28550)" style="fill: none; stroke: #1a1a1a; stroke-width: 0.9; stroke-linejoin: miter"/>
   </g>
   <g id="line2d_11">
    <path d="M 33.984375 27.047909 
L 172.531875 27.047909 
" clip-path="url(#p7c25b28550)" style="fill: none; stroke-dasharray: 0.7,1.155; stroke-dashoffset: 0; stroke: #bbbbbb; stroke-width: 0.7"/>
   </g>
   <g id="patch_3">
    <path d="M 33.984375 83.425078 
L 33.984375 14.305078 
" style="fill: none; stroke: #1a1a1a; stroke-width: 0.8; stroke-linejoin: miter; stroke-linecap: square"/>
   </g>
   <g id="patch_4">
    <path d="M 172.531875 83.425078 
L 172.531875 14.305078 
" style="fill: none; stroke: #1a1a1a; stroke-width: 0.8; stroke-linejoin: miter; stroke-linecap: square"/>
   </g>
   <g id="patch_5">
    <path d="M 33.984375 83.425078 
L 172.531875 83.425078 
" style="fill: none; stroke: #1a1a1a; stroke-width: 0.8; stroke-linejoin: miter; stroke-linecap: square"/>
   </g>
   <g id="patch_6">
    <path d="M 33.984375 14.305078 
L 172.531875 14.305078 
" style="fill: none; stroke: #1a1a1a; stroke-width: 0.8; stroke-linejoin: miter; stroke-linecap: square"/>
   </g>
   <g id="text_12">
    <!-- COBA — no recurrent loop (ei-strength = 0) — E-neuron conductances (cell 57) -->
    <g style="fill: #1a1a1a" transform="translate(33.984375 8.305078) scale(0.085 -0.085)">
     <defs>
      <path id="Menlo-Regular-43" d="M 3353 166 
Q 3113 38 2859 -26 
Q 2606 -91 2322 -91 
Q 1425 -91 929 543 
Q 434 1178 434 2328 
Q 434 3472 932 4111 
Q 1431 4750 2322 4750 
Q 2606 4750 2859 4686 
Q 3113 4622 3353 4494 
L 3353 3847 
Q 3122 4038 2856 4138 
Q 2591 4238 2322 4238 
Q 1706 4238 1400 3763 
Q 1094 3288 1094 2328 
Q 1094 1372 1400 897 
Q 1706 422 2322 422 
Q 2597 422 2861 522 
Q 3125 622 3353 813 
L 3353 166 
z
" transform="scale(0.015625)"/>
      <path id="Menlo-Regular-4f" d="M 2828 2328 
Q 2828 3356 2617 3797 
Q 2406 4238 1925 4238 
Q 1447 4238 1236 3797 
Q 1025 3356 1025 2328 
Q 1025 1303 1236 862 
Q 1447 422 1925 422 
Q 2406 422 2617 861 
Q 2828 1300 2828 2328 
z
M 3488 2328 
Q 3488 1109 3102 509 
Q 2716 -91 1925 -91 
Q 1134 -91 750 506 
Q 366 1103 366 2328 
Q 366 3550 752 4150 
Q 1138 4750 1925 4750 
Q 2716 4750 3102 4150 
Q 3488 3550 3488 2328 
z
" transform="scale(0.015625)"/>
      <path id="Menlo-Regular-42" d="M 1153 2353 
L 1153 519 
L 1900 519 
Q 2450 519 2684 711 
Q 2919 903 2919 1344 
Q 2919 1925 2672 2139 
Q 2425 2353 1900 2353 
L 1153 2353 
z
M 1153 4147 
L 1153 2866 
L 1888 2866 
Q 2344 2866 2548 3041 
Q 2753 3216 2753 3481 
Q 2753 3834 2551 3990 
Q 2350 4147 1888 4147 
L 1153 4147 
z
M 519 4666 
L 1900 4666 
Q 2616 4666 3003 4356 
Q 3391 4047 3391 3481 
Q 3391 3178 3186 2931 
Q 2981 2684 2572 2622 
Q 3031 2553 3292 2229 
Q 3553 1906 3553 1281 
Q 3553 647 3137 323 
Q 2722 0 1900 0 
L 519 0 
L 519 4666 
z
" transform="scale(0.015625)"/>
      <path id="Menlo-Regular-41" d="M 1925 4109 
L 1259 1722 
L 2591 1722 
L 1925 4109 
z
M 1544 4666 
L 2309 4666 
L 3738 0 
L 3084 0 
L 2741 1216 
L 1106 1216 
L 769 0 
L 116 0 
L 1544 4666 
z
" transform="scale(0.015625)"/>
      <path id="Menlo-Regular-2014" d="M 0 2259 
L 3853 2259 
L 3853 1725 
L 0 1725 
L 0 2259 
z
" transform="scale(0.015625)"/>
      <path id="Menlo-Regular-6e" d="M 3284 2169 
L 3284 0 
L 2706 0 
L 2706 2169 
Q 2706 2641 2540 2862 
Q 2375 3084 2022 3084 
Q 1619 3084 1401 2798 
Q 1184 2513 1184 1978 
L 1184 0 
L 609 0 
L 609 3500 
L 1184 3500 
L 1184 2975 
Q 1338 3275 1600 3429 
Q 1863 3584 2222 3584 
Q 2756 3584 3020 3232 
Q 3284 2881 3284 2169 
z
" transform="scale(0.015625)"/>
      <path id="Menlo-Regular-6f" d="M 1925 3097 
Q 1488 3097 1263 2756 
Q 1038 2416 1038 1747 
Q 1038 1081 1263 739 
Q 1488 397 1925 397 
Q 2366 397 2591 739 
Q 2816 1081 2816 1747 
Q 2816 2416 2591 2756 
Q 2366 3097 1925 3097 
z
M 1925 3584 
Q 2653 3584 3039 3112 
Q 3425 2641 3425 1747 
Q 3425 850 3040 379 
Q 2656 -91 1925 -91 
Q 1197 -91 812 379 
Q 428 850 428 1747 
Q 428 2641 812 3112 
Q 1197 3584 1925 3584 
z
" transform="scale(0.015625)"/>
      <path id="Menlo-Regular-72" d="M 3609 2778 
Q 3425 2922 3234 2987 
Q 3044 3053 2816 3053 
Q 2278 3053 1993 2715 
Q 1709 2378 1709 1741 
L 1709 0 
L 1131 0 
L 1131 3500 
L 1709 3500 
L 1709 2816 
Q 1853 3188 2151 3386 
Q 2450 3584 2859 3584 
Q 3072 3584 3256 3531 
Q 3441 3478 3609 3366 
L 3609 2778 
z
" transform="scale(0.015625)"/>
      <path id="Menlo-Regular-63" d="M 3316 178 
Q 3084 44 2839 -23 
Q 2594 -91 2338 -91 
Q 1525 -91 1067 396 
Q 609 884 609 1747 
Q 609 2609 1067 3096 
Q 1525 3584 2338 3584 
Q 2591 3584 2831 3518 
Q 3072 3453 3316 3316 
L 3316 2713 
Q 3088 2916 2858 3006 
Q 2628 3097 2338 3097 
Q 1797 3097 1506 2747 
Q 1216 2397 1216 1747 
Q 1216 1100 1508 748 
Q 1800 397 2338 397 
Q 2638 397 2875 489 
Q 3113 581 3316 775 
L 3316 178 
z
" transform="scale(0.015625)"/>
      <path id="Menlo-Regular-75" d="M 609 1325 
L 609 3494 
L 1184 3494 
L 1184 1325 
Q 1184 853 1351 631 
Q 1519 409 1869 409 
Q 2275 409 2490 695 
Q 2706 981 2706 1516 
L 2706 3494 
L 3284 3494 
L 3284 0 
L 2706 0 
L 2706 525 
Q 2553 222 2289 65 
Q 2025 -91 1672 -91 
Q 1134 -91 871 261 
Q 609 613 609 1325 
z
" transform="scale(0.015625)"/>
      <path id="Menlo-Regular-6c" d="M 2247 1266 
Q 2247 878 2389 681 
Q 2531 484 2809 484 
L 3481 484 
L 3481 0 
L 2753 0 
Q 2238 0 1955 329 
Q 1672 659 1672 1266 
L 1672 4431 
L 750 4431 
L 750 4881 
L 2247 4881 
L 2247 1266 
z
" transform="scale(0.015625)"/>
      <path id="Menlo-Regular-70" d="M 1172 441 
L 1172 -1331 
L 594 -1331 
L 594 3500 
L 1172 3500 
L 1172 3053 
Q 1316 3313 1555 3448 
Q 1794 3584 2106 3584 
Q 2741 3584 3102 3093 
Q 3463 2603 3463 1734 
Q 3463 881 3100 395 
Q 2738 -91 2106 -91 
Q 1788 -91 1548 45 
Q 1309 181 1172 441 
z
M 2859 1747 
Q 2859 2416 2648 2756 
Q 2438 3097 2022 3097 
Q 1603 3097 1387 2755 
Q 1172 2413 1172 1747 
Q 1172 1084 1387 740 
Q 1603 397 2022 397 
Q 2438 397 2648 737 
Q 2859 1078 2859 1747 
z
" transform="scale(0.015625)"/>
      <path id="Menlo-Regular-2d" d="M 319 2263 
L 3631 2263 
L 3631 1734 
L 319 1734 
L 319 2263 
z
" transform="scale(0.015625)"/>
      <path id="Menlo-Regular-68" d="M 3284 2169 
L 3284 0 
L 2706 0 
L 2706 2169 
Q 2706 2641 2540 2862 
Q 2375 3084 2022 3084 
Q 1619 3084 1401 2798 
Q 1184 2513 1184 1978 
L 1184 0 
L 609 0 
L 609 4863 
L 1184 4863 
L 1184 2975 
Q 1338 3275 1600 3429 
Q 1863 3584 2222 3584 
Q 2756 3584 3020 3232 
Q 3284 2881 3284 2169 
z
" transform="scale(0.015625)"/>
      <path id="Menlo-Regular-3d" d="M 275 1563 
L 3578 1563 
L 3578 1034 
L 275 1034 
L 275 1563 
z
M 275 3034 
L 3578 3034 
L 3578 2506 
L 275 2506 
L 275 3034 
z
" transform="scale(0.015625)"/>
      <path id="Menlo-Regular-45" d="M 616 4666 
L 3384 4666 
L 3384 4134 
L 1247 4134 
L 1247 2878 
L 3291 2878 
L 3291 2347 
L 1247 2347 
L 1247 531 
L 3444 531 
L 3444 0 
L 616 0 
L 616 4666 
z
" transform="scale(0.015625)"/>
      <path id="Menlo-Regular-64" d="M 2681 3053 
L 2681 4863 
L 3256 4863 
L 3256 0 
L 2681 0 
L 2681 441 
Q 2538 181 2298 45 
Q 2059 -91 1747 -91 
Q 1113 -91 748 401 
Q 384 894 384 1759 
Q 384 2613 750 3098 
Q 1116 3584 1747 3584 
Q 2063 3584 2303 3448 
Q 2544 3313 2681 3053 
z
M 991 1747 
Q 991 1078 1203 737 
Q 1416 397 1831 397 
Q 2247 397 2464 740 
Q 2681 1084 2681 1747 
Q 2681 2413 2464 2755 
Q 2247 3097 1831 3097 
Q 1416 3097 1203 2756 
Q 991 2416 991 1747 
z
" transform="scale(0.015625)"/>
      <path id="Menlo-Regular-61" d="M 2194 1759 
L 2003 1759 
Q 1500 1759 1245 1582 
Q 991 1406 991 1056 
Q 991 741 1181 566 
Q 1372 391 1709 391 
Q 2184 391 2456 720 
Q 2728 1050 2731 1631 
L 2731 1759 
L 2194 1759 
z
M 3309 1997 
L 3309 0 
L 2731 0 
L 2731 519 
Q 2547 206 2267 57 
Q 1988 -91 1588 -91 
Q 1053 -91 734 211 
Q 416 513 416 1019 
Q 416 1603 808 1906 
Q 1200 2209 1959 2209 
L 2731 2209 
L 2731 2300 
Q 2728 2719 2518 2908 
Q 2309 3097 1850 3097 
Q 1556 3097 1256 3012 
Q 956 2928 672 2766 
L 672 3341 
Q 991 3463 1283 3523 
Q 1575 3584 1850 3584 
Q 2284 3584 2592 3456 
Q 2900 3328 3091 3072 
Q 3209 2916 3259 2686 
Q 3309 2456 3309 1997 
z
" transform="scale(0.015625)"/>
      <path id="Menlo-Regular-35" d="M 647 4666 
L 3009 4666 
L 3009 4134 
L 1222 4134 
L 1222 2988 
Q 1356 3038 1492 3061 
Q 1628 3084 1766 3084 
Q 2491 3084 2916 2656 
Q 3341 2228 3341 1497 
Q 3341 759 2895 334 
Q 2450 -91 1678 -91 
Q 1306 -91 998 -41 
Q 691 9 447 109 
L 447 750 
Q 734 594 1025 517 
Q 1316 441 1619 441 
Q 2141 441 2423 716 
Q 2706 991 2706 1497 
Q 2706 1997 2414 2275 
Q 2122 2553 1600 2553 
Q 1347 2553 1106 2495 
Q 866 2438 647 2322 
L 647 4666 
z
" transform="scale(0.015625)"/>
      <path id="Menlo-Regular-37" d="M 434 4666 
L 3372 4666 
L 3372 4397 
L 1703 0 
L 1044 0 
L 2669 4134 
L 434 4134 
L 434 4666 
z
" transform="scale(0.015625)"/>
     </defs>
     <use xlink:href="#Menlo-Regular-43"/>
     <use xlink:href="#Menlo-Regular-4f" transform="translate(60.205078 0)"/>
     <use xlink:href="#Menlo-Regular-42" transform="translate(120.410156 0)"/>
     <use xlink:href="#Menlo-Regular-41" transform="translate(180.615234 0)"/>
     <use xlink:href="#Menlo-Regular-20" transform="translate(240.820312 0)"/>
     <use xlink:href="#Menlo-Regular-2014" transform="translate(301.025391 0)"/>
     <use xlink:href="#Menlo-Regular-20" transform="translate(361.230469 0)"/>
     <use xlink:href="#Menlo-Regular-6e" transform="translate(421.435547 0)"/>
     <use xlink:href="#Menlo-Regular-6f" transform="translate(481.640625 0)"/>
     <use xlink:href="#Menlo-Regular-20" transform="translate(541.845703 0)"/>
     <use xlink:href="#Menlo-Regular-72" transform="translate(602.050781 0)"/>
     <use xlink:href="#Menlo-Regular-65" transform="translate(662.255859 0)"/>
     <use xlink:href="#Menlo-Regular-63" transform="translate(722.460938 0)"/>
     <use xlink:href="#Menlo-Regular-75" transform="translate(782.666016 0)"/>
     <use xlink:href="#Menlo-Regular-72" transform="translate(842.871094 0)"/>
     <use xlink:href="#Menlo-Regular-72" transform="translate(903.076172 0)"/>
     <use xlink:href="#Menlo-Regular-65" transform="translate(963.28125 0)"/>
     <use xlink:href="#Menlo-Regular-6e" transform="translate(1023.486328 0)"/>
     <use xlink:href="#Menlo-Regular-74" transform="translate(1083.691406 0)"/>
     <use xlink:href="#Menlo-Regular-20" transform="translate(1143.896484 0)"/>
     <use xlink:href="#Menlo-Regular-6c" transform="translate(1204.101562 0)"/>
     <use xlink:href="#Menlo-Regular-6f" transform="translate(1264.306641 0)"/>
     <use xlink:href="#Menlo-Regular-6f" transform="translate(1324.511719 0)"/>
     <use xlink:href="#Menlo-Regular-70" transform="translate(1384.716797 0)"/>
     <use xlink:href="#Menlo-Regular-20" transform="translate(1444.921875 0)"/>
     <use xlink:href="#Menlo-Regular-28" transform="translate(1505.126953 0)"/>
     <use xlink:href="#Menlo-Regular-65" transform="translate(1565.332031 0)"/>
     <use xlink:href="#Menlo-Regular-69" transform="translate(1625.537109 0)"/>
     <use xlink:href="#Menlo-Regular-2d" transform="translate(1685.742188 0)"/>
     <use xlink:href="#Menlo-Regular-73" transform="translate(1745.947266 0)"/>
     <use xlink:href="#Menlo-Regular-74" transform="translate(1806.152344 0)"/>
     <use xlink:href="#Menlo-Regular-72" transform="translate(1866.357422 0)"/>
     <use xlink:href="#Menlo-Regular-65" transform="translate(1926.5625 0)"/>
     <use xlink:href="#Menlo-Regular-6e" transform="translate(1986.767578 0)"/>
     <use xlink:href="#Menlo-Regular-67" transform="translate(2046.972656 0)"/>
     <use xlink:href="#Menlo-Regular-74" transform="translate(2107.177734 0)"/>
     <use xlink:href="#Menlo-Regular-68" transform="translate(2167.382812 0)"/>
     <use xlink:href="#Menlo-Regular-20" transform="translate(2227.587891 0)"/>
     <use xlink:href="#Menlo-Regular-3d" transform="translate(2287.792969 0)"/>
     <use xlink:href="#Menlo-Regular-20" transform="translate(2347.998047 0)"/>
     <use xlink:href="#Menlo-Regular-30" transform="translate(2408.203125 0)"/>
     <use xlink:href="#Menlo-Regular-29" transform="translate(2468.408203 0)"/>
     <use xlink:href="#Menlo-Regular-20" transform="translate(2528.613281 0)"/>
     <use xlink:href="#Menlo-Regular-2014" transform="translate(2588.818359 0)"/>
     <use xlink:href="#Menlo-Regular-20" transform="translate(2649.023438 0)"/>
     <use xlink:href="#Menlo-Regular-45" transform="translate(2709.228516 0)"/>
     <use xlink:href="#Menlo-Regular-2d" transform="translate(2769.433594 0)"/>
     <use xlink:href="#Menlo-Regular-6e" transform="translate(2829.638672 0)"/>
     <use xlink:href="#Menlo-Regular-65" transform="translate(2889.84375 0)"/>
     <use xlink:href="#Menlo-Regular-75" transform="translate(2950.048828 0)"/>
     <use xlink:href="#Menlo-Regular-72" transform="translate(3010.253906 0)"/>
     <use xlink:href="#Menlo-Regular-6f" transform="translate(3070.458984 0)"/>
     <use xlink:href="#Menlo-Regular-6e" transform="translate(3130.664062 0)"/>
     <use xlink:href="#Menlo-Regular-20" transform="translate(3190.869141 0)"/>
     <use xlink:href="#Menlo-Regular-63" transform="translate(3251.074219 0)"/>
     <use xlink:href="#Menlo-Regular-6f" transform="translate(3311.279297 0)"/>
     <use xlink:href="#Menlo-Regular-6e" transform="translate(3371.484375 0)"/>
     <use xlink:href="#Menlo-Regular-64" transform="translate(3431.689453 0)"/>
     <use xlink:href="#Menlo-Regular-75" transform="translate(3491.894531 0)"/>
     <use xlink:href="#Menlo-Regular-63" transform="translate(3552.099609 0)"/>
     <use xlink:href="#Menlo-Regular-74" transform="translate(3612.304688 0)"/>
     <use xlink:href="#Menlo-Regular-61" transform="translate(3672.509766 0)"/>
     <use xlink:href="#Menlo-Regular-6e" transform="translate(3732.714844 0)"/>
     <use xlink:href="#Menlo-Regular-63" transform="translate(3792.919922 0)"/>
     <use xlink:href="#Menlo-Regular-65" transform="translate(3853.125 0)"/>
     <use xlink:href="#Menlo-Regular-73" transform="translate(3913.330078 0)"/>
     <use xlink:href="#Menlo-Regular-20" transform="translate(3973.535156 0)"/>
     <use xlink:href="#Menlo-Regular-28" transform="translate(4033.740234 0)"/>
     <use xlink:href="#Menlo-Regular-63" transform="translate(4093.945312 0)"/>
     <use xlink:href="#Menlo-Regular-65" transform="translate(4154.150391 0)"/>
     <use xlink:href="#Menlo-Regular-6c" transform="translate(4214.355469 0)"/>
     <use xlink:href="#Menlo-Regular-6c" transform="translate(4274.560547 0)"/>
     <use xlink:href="#Menlo-Regular-20" transform="translate(4334.765625 0)"/>
     <use xlink:href="#Menlo-Regular-35" transform="translate(4394.970703 0)"/>
     <use xlink:href="#Menlo-Regular-37" transform="translate(4455.175781 0)"/>
     <use xlink:href="#Menlo-Regular-29" transform="translate(4515.380859 0)"/>
    </g>
   </g>
   <g id="legend_1">
    <g id="patch_7">
     <path d="M 104.489687 41.220078 
L 169.031875 41.220078 
L 169.031875 17.805078 
L 104.489687 17.805078 
z
" style="fill: #ffffff; stroke: #1a1a1a; stroke-width: 0.8; stroke-linejoin: miter"/>
    </g>
    <g id="line2d_12">
     <path d="M 107.289687 23.808672 
L 112.889687 23.808672 
L 118.489687 23.808672 
" style="fill: none; stroke: #1a1a1a; stroke-width: 0.9; stroke-linejoin: miter"/>
    </g>
    <g id="text_13">
     <!-- g_E (exc) -->
     <g style="fill: #1a1a1a" transform="translate(124.089687 26.258672) scale(0.07 -0.07)">
      <defs>
       <path id="Menlo-Regular-5f" d="M 3825 -594 
L 3825 -1125 
L 0 -1125 
L 0 -594 
L 3825 -594 
z
" transform="scale(0.015625)"/>
       <path id="Menlo-Regular-78" d="M 3494 3500 
L 2241 1825 
L 3616 0 
L 2950 0 
L 1925 1403 
L 903 0 
L 238 0 
L 1613 1825 
L 359 3500 
L 997 3500 
L 1925 2234 
L 2847 3500 
L 3494 3500 
z
" transform="scale(0.015625)"/>
      </defs>
      <use xlink:href="#Menlo-Regular-67"/>
      <use xlink:href="#Menlo-Regular-5f" transform="translate(60.205078 0)"/>
      <use xlink:href="#Menlo-Regular-45" transform="translate(120.410156 0)"/>
      <use xlink:href="#Menlo-Regular-20" transform="translate(180.615234 0)"/>
      <use xlink:href="#Menlo-Regular-28" transform="translate(240.820312 0)"/>
      <use xlink:href="#Menlo-Regular-65" transform="translate(301.025391 0)"/>
      <use xlink:href="#Menlo-Regular-78" transform="translate(361.230469 0)"/>
      <use xlink:href="#Menlo-Regular-63" transform="translate(421.435547 0)"/>
      <use xlink:href="#Menlo-Regular-29" transform="translate(481.640625 0)"/>
     </g>
    </g>
    <g id="line2d_13">
     <path d="M 107.289687 34.466172 
L 112.889687 34.466172 
L 118.489687 34.466172 
" style="fill: none; stroke-dasharray: 0.7,1.155; stroke-dashoffset: 0; stroke: #bbbbbb; stroke-width: 0.7"/>
    </g>
    <g id="text_14">
     <!-- g_L (leak) -->
     <g style="fill: #1a1a1a" transform="translate(124.089687 36.916172) scale(0.07 -0.07)">
      <defs>
       <path id="Menlo-Regular-4c" d="M 672 4666 
L 1306 4666 
L 1306 531 
L 3559 531 
L 3559 0 
L 672 0 
L 672 4666 
z
" transform="scale(0.015625)"/>
       <path id="Menlo-Regular-6b" d="M 738 4863 
L 1331 4863 
L 1331 2047 
L 2841 3500 
L 3541 3500 
L 2163 2181 
L 3756 0 
L 3053 0 
L 1759 1806 
L 1331 1403 
L 1331 0 
L 738 0 
L 738 4863 
z
" transform="scale(0.015625)"/>
      </defs>
      <use xlink:href="#Menlo-Regular-67"/>
      <use xlink:href="#Menlo-Regular-5f" transform="translate(60.205078 0)"/>
      <use xlink:href="#Menlo-Regular-4c" transform="translate(120.410156 0)"/>
      <use xlink:href="#Menlo-Regular-20" transform="translate(180.615234 0)"/>
      <use xlink:href="#Menlo-Regular-28" transform="translate(240.820312 0)"/>
      <use xlink:href="#Menlo-Regular-6c" transform="translate(301.025391 0)"/>
      <use xlink:href="#Menlo-Regular-65" transform="translate(361.230469 0)"/>
      <use xlink:href="#Menlo-Regular-61" transform="translate(421.435547 0)"/>
      <use xlink:href="#Menlo-Regular-6b" transform="translate(481.640625 0)"/>
      <use xlink:href="#Menlo-Regular-29" transform="translate(541.845703 0)"/>
     </g>
    </g>
   </g>
  </g>
 </g>
 <defs>
  <clipPath id="p7c25b28550">
   <rect x="33.984375" y="14.305078" width="138.5475" height="69.12"/>
  </clipPath>
 </defs>
</svg>
