<?xml version="1.0" encoding="utf-8" standalone="no"?>
<!DOCTYPE svg PUBLIC "-//W3C//DTD SVG 1.1//EN"
  "http://www.w3.org/Graphics/SVG/1.1/DTD/svg11.dtd">
<svg xmlns:xlink="http://www.w3.org/1999/xlink" width="274.101484pt" height="148.460625pt" viewBox="0 0 274.101484 148.460625" xmlns="http://www.w3.org/2000/svg" version="1.1">
 <metadata>
  <rdf:RDF xmlns:dc="http://purl.org/dc/elements/1.1/" xmlns:cc="http://creativecommons.org/ns#" xmlns:rdf="http://www.w3.org/1999/02/22-rdf-syntax-ns#">
   <cc:Work>
    <dc:type rdf:resource="http://purl.org/dc/dcmitype/StillImage"/>
    <dc:date>2026-07-02T14:14:00.293565</dc:date>
    <dc:format>image/svg+xml</dc:format>
    <dc:creator>
     <cc:Agent>
      <dc:title>Matplotlib v3.10.8, https://matplotlib.org/</dc:title>
     </cc:Agent>
    </dc:creator>
   </cc:Work>
  </rdf:RDF>
 </metadata>
 <defs>
  <style type="text/css">*{stroke-linejoin: round; stroke-linecap: butt}</style>
 </defs>
 <g id="figure_1">
  <g id="patch_1">
   <path d="M 0 148.460625 
L 274.101484 148.460625 
L 274.101484 0 
L 0 0 
z
" style="fill: #ffffff"/>
  </g>
  <g id="axes_1">
   <g id="patch_2">
    <path d="M 29.715156 124.96125 
L 266.34016 124.96125 
L 266.34016 13.90125 
L 29.715156 13.90125 
z
" style="fill: #ffffff"/>
   </g>
   <g id="matplotlib.axis_1">
    <g id="xtick_1">
     <g id="line2d_1">
      <defs>
       <path id="m622cbcfd73" d="M 0 0 
L 0 -3 
" style="stroke: #1a1a1a; stroke-width: 0.8"/>
      </defs>
      <g>
       <use xlink:href="#m622cbcfd73" x="29.715156" y="124.96125" style="fill: #1a1a1a; stroke: #1a1a1a; stroke-width: 0.8"/>
      </g>
     </g>
     <g id="text_1">
      <!-- 0 -->
      <g style="fill: #1a1a1a" transform="translate(27.608047 133.799844) scale(0.07 -0.07)">
       <defs>
        <path id="Menlo-Regular-30" d="M 1925 4734 
Q 2672 4734 3055 4125 
Q 3438 3516 3438 2322 
Q 3438 1128 3055 518 
Q 2672 -91 1925 -91 
Q 1178 -91 797 518 
Q 416 1128 416 2322 
Q 416 3516 797 4125 
Q 1178 4734 1925 4734 
z
M 1925 409 
Q 2369 409 2586 881 
Q 2803 1353 2803 2322 
Q 2803 2838 2741 3253 
L 1253 925 
Q 1488 409 1925 409 
z
M 1925 4234 
Q 1484 4234 1267 3762 
Q 1050 3291 1050 2322 
Q 1050 1881 1109 1497 
L 2566 3819 
Q 2328 4234 1925 4234 
z
" transform="scale(0.015625)"/>
       </defs>
       <use xlink:href="#Menlo-Regular-30"/>
      </g>
     </g>
    </g>
    <g id="xtick_2">
     <g id="line2d_2">
      <g>
       <use xlink:href="#m622cbcfd73" x="59.293281" y="124.96125" style="fill: #1a1a1a; stroke: #1a1a1a; stroke-width: 0.8"/>
      </g>
     </g>
     <g id="text_2">
      <!-- 50 -->
      <g style="fill: #1a1a1a" transform="translate(55.079062 133.799844) scale(0.07 -0.07)">
       <defs>
        <path id="Menlo-Regular-35" d="M 647 4666 
L 3009 4666 
L 3009 4134 
L 1222 4134 
L 1222 2988 
Q 1356 3038 1492 3061 
Q 1628 3084 1766 3084 
Q 2491 3084 2916 2656 
Q 3341 2228 3341 1497 
Q 3341 759 2895 334 
Q 2450 -91 1678 -91 
Q 1306 -91 998 -41 
Q 691 9 447 109 
L 447 750 
Q 734 594 1025 517 
Q 1316 441 1619 441 
Q 2141 441 2423 716 
Q 2706 991 2706 1497 
Q 2706 1997 2414 2275 
Q 2122 2553 1600 2553 
Q 1347 2553 1106 2495 
Q 866 2438 647 2322 
L 647 4666 
z
" transform="scale(0.015625)"/>
       </defs>
       <use xlink:href="#Menlo-Regular-35"/>
       <use xlink:href="#Menlo-Regular-30" transform="translate(60.205078 0)"/>
      </g>
     </g>
    </g>
    <g id="xtick_3">
     <g id="line2d_3">
      <g>
       <use xlink:href="#m622cbcfd73" x="88.871406" y="124.96125" style="fill: #1a1a1a; stroke: #1a1a1a; stroke-width: 0.8"/>
      </g>
     </g>
     <g id="text_3">
      <!-- 100 -->
      <g style="fill: #1a1a1a" transform="translate(82.550078 133.799844) scale(0.07 -0.07)">
       <defs>
        <path id="Menlo-Regular-31" d="M 844 528 
L 1825 528 
L 1825 4053 
L 650 3488 
L 650 4094 
L 1819 4650 
L 2450 4650 
L 2450 528 
L 3419 528 
L 3419 0 
L 844 0 
L 844 528 
z
" transform="scale(0.015625)"/>
       </defs>
       <use xlink:href="#Menlo-Regular-31"/>
       <use xlink:href="#Menlo-Regular-30" transform="translate(60.205078 0)"/>
       <use xlink:href="#Menlo-Regular-30" transform="translate(120.410156 0)"/>
      </g>
     </g>
    </g>
    <g id="xtick_4">
     <g id="line2d_4">
      <g>
       <use xlink:href="#m622cbcfd73" x="118.449531" y="124.96125" style="fill: #1a1a1a; stroke: #1a1a1a; stroke-width: 0.8"/>
      </g>
     </g>
     <g id="text_4">
      <!-- 150 -->
      <g style="fill: #1a1a1a" transform="translate(112.128203 133.799844) scale(0.07 -0.07)">
       <use xlink:href="#Menlo-Regular-31"/>
       <use xlink:href="#Menlo-Regular-35" transform="translate(60.205078 0)"/>
       <use xlink:href="#Menlo-Regular-30" transform="translate(120.410156 0)"/>
      </g>
     </g>
    </g>
    <g id="xtick_5">
     <g id="line2d_5">
      <g>
       <use xlink:href="#m622cbcfd73" x="148.027656" y="124.96125" style="fill: #1a1a1a; stroke: #1a1a1a; stroke-width: 0.8"/>
      </g>
     </g>
     <g id="text_5">
      <!-- 200 -->
      <g style="fill: #1a1a1a" transform="translate(141.706328 133.799844) scale(0.07 -0.07)">
       <defs>
        <path id="Menlo-Regular-32" d="M 1166 531 
L 3309 531 
L 3309 0 
L 475 0 
L 475 531 
Q 1059 1147 1496 1619 
Q 1934 2091 2100 2284 
Q 2413 2666 2522 2902 
Q 2631 3138 2631 3384 
Q 2631 3775 2401 3997 
Q 2172 4219 1772 4219 
Q 1488 4219 1175 4116 
Q 863 4013 513 3803 
L 513 4441 
Q 834 4594 1145 4672 
Q 1456 4750 1759 4750 
Q 2444 4750 2861 4386 
Q 3278 4022 3278 3431 
Q 3278 3131 3139 2831 
Q 3000 2531 2688 2169 
Q 2513 1966 2180 1606 
Q 1847 1247 1166 531 
z
" transform="scale(0.015625)"/>
       </defs>
       <use xlink:href="#Menlo-Regular-32"/>
       <use xlink:href="#Menlo-Regular-30" transform="translate(60.205078 0)"/>
       <use xlink:href="#Menlo-Regular-30" transform="translate(120.410156 0)"/>
      </g>
     </g>
    </g>
    <g id="xtick_6">
     <g id="line2d_6">
      <g>
       <use xlink:href="#m622cbcfd73" x="177.605781" y="124.96125" style="fill: #1a1a1a; stroke: #1a1a1a; stroke-width: 0.8"/>
      </g>
     </g>
     <g id="text_6">
      <!-- 250 -->
      <g style="fill: #1a1a1a" transform="translate(171.284453 133.799844) scale(0.07 -0.07)">
       <use xlink:href="#Menlo-Regular-32"/>
       <use xlink:href="#Menlo-Regular-35" transform="translate(60.205078 0)"/>
       <use xlink:href="#Menlo-Regular-30" transform="translate(120.410156 0)"/>
      </g>
     </g>
    </g>
    <g id="xtick_7">
     <g id="line2d_7">
      <g>
       <use xlink:href="#m622cbcfd73" x="207.183906" y="124.96125" style="fill: #1a1a1a; stroke: #1a1a1a; stroke-width: 0.8"/>
      </g>
     </g>
     <g id="text_7">
      <!-- 300 -->
      <g style="fill: #1a1a1a" transform="translate(200.862578 133.799844) scale(0.07 -0.07)">
       <defs>
        <path id="Menlo-Regular-33" d="M 2425 2497 
Q 2884 2375 3128 2064 
Q 3372 1753 3372 1288 
Q 3372 644 2939 276 
Q 2506 -91 1741 -91 
Q 1419 -91 1084 -31 
Q 750 28 428 141 
L 428 769 
Q 747 603 1056 522 
Q 1366 441 1672 441 
Q 2191 441 2469 675 
Q 2747 909 2747 1350 
Q 2747 1756 2469 1995 
Q 2191 2234 1716 2234 
L 1234 2234 
L 1234 2753 
L 1716 2753 
Q 2150 2753 2394 2943 
Q 2638 3134 2638 3475 
Q 2638 3834 2411 4026 
Q 2184 4219 1766 4219 
Q 1488 4219 1191 4156 
Q 894 4094 569 3969 
L 569 4550 
Q 947 4650 1242 4700 
Q 1538 4750 1766 4750 
Q 2447 4750 2855 4408 
Q 3263 4066 3263 3500 
Q 3263 3116 3048 2859 
Q 2834 2603 2425 2497 
z
" transform="scale(0.015625)"/>
       </defs>
       <use xlink:href="#Menlo-Regular-33"/>
       <use xlink:href="#Menlo-Regular-30" transform="translate(60.205078 0)"/>
       <use xlink:href="#Menlo-Regular-30" transform="translate(120.410156 0)"/>
      </g>
     </g>
    </g>
    <g id="xtick_8">
     <g id="line2d_8">
      <g>
       <use xlink:href="#m622cbcfd73" x="236.762031" y="124.96125" style="fill: #1a1a1a; stroke: #1a1a1a; stroke-width: 0.8"/>
      </g>
     </g>
     <g id="text_8">
      <!-- 350 -->
      <g style="fill: #1a1a1a" transform="translate(230.440703 133.799844) scale(0.07 -0.07)">
       <use xlink:href="#Menlo-Regular-33"/>
       <use xlink:href="#Menlo-Regular-35" transform="translate(60.205078 0)"/>
       <use xlink:href="#Menlo-Regular-30" transform="translate(120.410156 0)"/>
      </g>
     </g>
    </g>
    <g id="xtick_9">
     <g id="line2d_9">
      <g>
       <use xlink:href="#m622cbcfd73" x="266.340156" y="124.96125" style="fill: #1a1a1a; stroke: #1a1a1a; stroke-width: 0.8"/>
      </g>
     </g>
     <g id="text_9">
      <!-- 400 -->
      <g style="fill: #1a1a1a" transform="translate(260.018828 133.799844) scale(0.07 -0.07)">
       <defs>
        <path id="Menlo-Regular-34" d="M 2297 4091 
L 825 1625 
L 2297 1625 
L 2297 4091 
z
M 2194 4666 
L 2925 4666 
L 2925 1625 
L 3547 1625 
L 3547 1113 
L 2925 1113 
L 2925 0 
L 2297 0 
L 2297 1113 
L 319 1113 
L 319 1709 
L 2194 4666 
z
" transform="scale(0.015625)"/>
       </defs>
       <use xlink:href="#Menlo-Regular-34"/>
       <use xlink:href="#Menlo-Regular-30" transform="translate(60.205078 0)"/>
       <use xlink:href="#Menlo-Regular-30" transform="translate(120.410156 0)"/>
      </g>
     </g>
    </g>
    <g id="text_10">
     <!-- time (ms) -->
     <g style="fill: #1a1a1a" transform="translate(126.354533 145.356875) scale(0.08 -0.08)">
      <defs>
       <path id="Menlo-Regular-74" d="M 1919 4494 
L 1919 3500 
L 3225 3500 
L 3225 3053 
L 1919 3053 
L 1919 1153 
Q 1919 766 2066 612 
Q 2213 459 2578 459 
L 3225 459 
L 3225 0 
L 2522 0 
Q 1875 0 1609 259 
Q 1344 519 1344 1153 
L 1344 3053 
L 409 3053 
L 409 3500 
L 1344 3500 
L 1344 4494 
L 1919 4494 
z
" transform="scale(0.015625)"/>
       <path id="Menlo-Regular-69" d="M 988 3488 
L 2459 3488 
L 2459 447 
L 3600 447 
L 3600 0 
L 744 0 
L 744 447 
L 1884 447 
L 1884 3041 
L 988 3041 
L 988 3488 
z
M 1884 4847 
L 2459 4847 
L 2459 4122 
L 1884 4122 
L 1884 4847 
z
" transform="scale(0.015625)"/>
       <path id="Menlo-Regular-6d" d="M 2113 3144 
Q 2219 3369 2383 3476 
Q 2547 3584 2778 3584 
Q 3200 3584 3373 3257 
Q 3547 2931 3547 2028 
L 3547 0 
L 3022 0 
L 3022 2003 
Q 3022 2744 2939 2923 
Q 2856 3103 2638 3103 
Q 2388 3103 2295 2911 
Q 2203 2719 2203 2003 
L 2203 0 
L 1678 0 
L 1678 2003 
Q 1678 2753 1589 2928 
Q 1500 3103 1269 3103 
Q 1041 3103 952 2911 
Q 863 2719 863 2003 
L 863 0 
L 341 0 
L 341 3500 
L 863 3500 
L 863 3200 
Q 966 3388 1120 3486 
Q 1275 3584 1472 3584 
Q 1709 3584 1867 3475 
Q 2025 3366 2113 3144 
z
" transform="scale(0.015625)"/>
       <path id="Menlo-Regular-65" d="M 3500 2038 
L 3500 1756 
L 1009 1756 
L 1009 1738 
Q 984 1022 1282 709 
Q 1581 397 2125 397 
Q 2400 397 2700 484 
Q 3000 572 3341 750 
L 3341 178 
Q 3013 44 2708 -23 
Q 2403 -91 2119 -91 
Q 1303 -91 843 398 
Q 384 888 384 1747 
Q 384 2584 834 3084 
Q 1284 3584 2034 3584 
Q 2703 3584 3089 3131 
Q 3475 2678 3500 2038 
z
M 2925 2206 
Q 2888 2569 2661 2833 
Q 2434 3097 2009 3097 
Q 1594 3097 1325 2822 
Q 1056 2547 1031 2203 
L 2925 2206 
z
" transform="scale(0.015625)"/>
       <path id="Menlo-Regular-20" transform="scale(0.015625)"/>
       <path id="Menlo-Regular-28" d="M 2672 5169 
Q 2256 4456 2051 3748 
Q 1847 3041 1847 2322 
Q 1847 1606 2051 897 
Q 2256 188 2672 -531 
L 2172 -531 
Q 1700 213 1469 917 
Q 1238 1622 1238 2322 
Q 1238 3019 1469 3725 
Q 1700 4431 2172 5169 
L 2672 5169 
z
" transform="scale(0.015625)"/>
       <path id="Menlo-Regular-73" d="M 3041 3378 
L 3041 2816 
Q 2794 2959 2544 3031 
Q 2294 3103 2034 3103 
Q 1644 3103 1451 2976 
Q 1259 2850 1259 2591 
Q 1259 2356 1403 2240 
Q 1547 2125 2119 2016 
L 2350 1972 
Q 2778 1891 2998 1647 
Q 3219 1403 3219 1013 
Q 3219 494 2850 201 
Q 2481 -91 1825 -91 
Q 1566 -91 1281 -36 
Q 997 19 666 128 
L 666 722 
Q 988 556 1281 473 
Q 1575 391 1838 391 
Q 2219 391 2428 545 
Q 2638 700 2638 978 
Q 2638 1378 1872 1531 
L 1847 1538 
L 1631 1581 
Q 1134 1678 906 1908 
Q 678 2138 678 2534 
Q 678 3038 1018 3311 
Q 1359 3584 1991 3584 
Q 2272 3584 2531 3532 
Q 2791 3481 3041 3378 
z
" transform="scale(0.015625)"/>
       <path id="Menlo-Regular-29" d="M 1088 5169 
L 1588 5169 
Q 2059 4431 2290 3725 
Q 2522 3019 2522 2322 
Q 2522 1619 2290 912 
Q 2059 206 1588 -531 
L 1088 -531 
Q 1503 194 1708 903 
Q 1913 1613 1913 2322 
Q 1913 3034 1708 3743 
Q 1503 4453 1088 5169 
z
" transform="scale(0.015625)"/>
      </defs>
      <use xlink:href="#Menlo-Regular-74"/>
      <use xlink:href="#Menlo-Regular-69" transform="translate(60.205078 0)"/>
      <use xlink:href="#Menlo-Regular-6d" transform="translate(120.410156 0)"/>
      <use xlink:href="#Menlo-Regular-65" transform="translate(180.615234 0)"/>
      <use xlink:href="#Menlo-Regular-20" transform="translate(240.820312 0)"/>
      <use xlink:href="#Menlo-Regular-28" transform="translate(301.025391 0)"/>
      <use xlink:href="#Menlo-Regular-6d" transform="translate(361.230469 0)"/>
      <use xlink:href="#Menlo-Regular-73" transform="translate(421.435547 0)"/>
      <use xlink:href="#Menlo-Regular-29" transform="translate(481.640625 0)"/>
     </g>
    </g>
   </g>
   <g id="matplotlib.axis_2">
    <g id="ytick_1">
     <g id="line2d_10">
      <defs>
       <path id="m1b516c9397" d="M 0 0 
L 3 0 
" style="stroke: #1a1a1a; stroke-width: 0.8"/>
      </defs>
      <g>
       <use xlink:href="#m1b516c9397" x="29.715156" y="112.197314" style="fill: #1a1a1a; stroke: #1a1a1a; stroke-width: 0.8"/>
      </g>
     </g>
     <g id="text_11">
      <!-- −15 -->
      <g style="fill: #1a1a1a" transform="translate(13.5725 114.866611) scale(0.07 -0.07)">
       <defs>
        <path id="Menlo-Regular-2212" d="M 275 2272 
L 3578 2272 
L 3578 1741 
L 275 1741 
L 275 2272 
z
" transform="scale(0.015625)"/>
       </defs>
       <use xlink:href="#Menlo-Regular-2212"/>
       <use xlink:href="#Menlo-Regular-31" transform="translate(60.205078 0)"/>
       <use xlink:href="#Menlo-Regular-35" transform="translate(120.410156 0)"/>
      </g>
     </g>
    </g>
    <g id="ytick_2">
     <g id="line2d_11">
      <g>
       <use xlink:href="#m1b516c9397" x="29.715156" y="87.022614" style="fill: #1a1a1a; stroke: #1a1a1a; stroke-width: 0.8"/>
      </g>
     </g>
     <g id="text_12">
      <!-- −10 -->
      <g style="fill: #1a1a1a" transform="translate(13.5725 89.691911) scale(0.07 -0.07)">
       <use xlink:href="#Menlo-Regular-2212"/>
       <use xlink:href="#Menlo-Regular-31" transform="translate(60.205078 0)"/>
       <use xlink:href="#Menlo-Regular-30" transform="translate(120.410156 0)"/>
      </g>
     </g>
    </g>
    <g id="ytick_3">
     <g id="line2d_12">
      <g>
       <use xlink:href="#m1b516c9397" x="29.715156" y="61.847913" style="fill: #1a1a1a; stroke: #1a1a1a; stroke-width: 0.8"/>
      </g>
     </g>
     <g id="text_13">
      <!-- −5 -->
      <g style="fill: #1a1a1a" transform="translate(17.786719 64.51721) scale(0.07 -0.07)">
       <use xlink:href="#Menlo-Regular-2212"/>
       <use xlink:href="#Menlo-Regular-35" transform="translate(60.205078 0)"/>
      </g>
     </g>
    </g>
    <g id="ytick_4">
     <g id="line2d_13">
      <g>
       <use xlink:href="#m1b516c9397" x="29.715156" y="36.673213" style="fill: #1a1a1a; stroke: #1a1a1a; stroke-width: 0.8"/>
      </g>
     </g>
     <g id="text_14">
      <!-- 0 -->
      <g style="fill: #1a1a1a" transform="translate(22.000938 39.34251) scale(0.07 -0.07)">
       <use xlink:href="#Menlo-Regular-30"/>
      </g>
     </g>
    </g>
    <g id="text_15">
     <!-- I in  [+ depol. / − hyperpol.] -->
     <g style="fill: #1a1a1a" transform="translate(7.90875 141.675) rotate(-90) scale(0.08 -0.08)">
      <defs>
       <path id="Menlo-Regular-49" d="M 628 4666 
L 3219 4666 
L 3219 4134 
L 2241 4134 
L 2241 531 
L 3219 531 
L 3219 0 
L 628 0 
L 628 531 
L 1606 531 
L 1606 4134 
L 628 4134 
L 628 4666 
z
" transform="scale(0.015625)"/>
       <path id="Menlo-Regular-6e" d="M 3284 2169 
L 3284 0 
L 2706 0 
L 2706 2169 
Q 2706 2641 2540 2862 
Q 2375 3084 2022 3084 
Q 1619 3084 1401 2798 
Q 1184 2513 1184 1978 
L 1184 0 
L 609 0 
L 609 3500 
L 1184 3500 
L 1184 2975 
Q 1338 3275 1600 3429 
Q 1863 3584 2222 3584 
Q 2756 3584 3020 3232 
Q 3284 2881 3284 2169 
z
" transform="scale(0.015625)"/>
       <path id="Menlo-Regular-5b" d="M 1759 5175 
L 3084 5175 
L 3084 4728 
L 2334 4728 
L 2334 -84 
L 3084 -84 
L 3084 -531 
L 1759 -531 
L 1759 5175 
z
" transform="scale(0.015625)"/>
       <path id="Menlo-Regular-2b" d="M 2250 3681 
L 2250 2297 
L 3641 2297 
L 3641 1769 
L 2250 1769 
L 2250 384 
L 1725 384 
L 1725 1769 
L 338 1769 
L 338 2297 
L 1725 2297 
L 1725 3681 
L 2250 3681 
z
" transform="scale(0.015625)"/>
       <path id="Menlo-Regular-64" d="M 2681 3053 
L 2681 4863 
L 3256 4863 
L 3256 0 
L 2681 0 
L 2681 441 
Q 2538 181 2298 45 
Q 2059 -91 1747 -91 
Q 1113 -91 748 401 
Q 384 894 384 1759 
Q 384 2613 750 3098 
Q 1116 3584 1747 3584 
Q 2063 3584 2303 3448 
Q 2544 3313 2681 3053 
z
M 991 1747 
Q 991 1078 1203 737 
Q 1416 397 1831 397 
Q 2247 397 2464 740 
Q 2681 1084 2681 1747 
Q 2681 2413 2464 2755 
Q 2247 3097 1831 3097 
Q 1416 3097 1203 2756 
Q 991 2416 991 1747 
z
" transform="scale(0.015625)"/>
       <path id="Menlo-Regular-70" d="M 1172 441 
L 1172 -1331 
L 594 -1331 
L 594 3500 
L 1172 3500 
L 1172 3053 
Q 1316 3313 1555 3448 
Q 1794 3584 2106 3584 
Q 2741 3584 3102 3093 
Q 3463 2603 3463 1734 
Q 3463 881 3100 395 
Q 2738 -91 2106 -91 
Q 1788 -91 1548 45 
Q 1309 181 1172 441 
z
M 2859 1747 
Q 2859 2416 2648 2756 
Q 2438 3097 2022 3097 
Q 1603 3097 1387 2755 
Q 1172 2413 1172 1747 
Q 1172 1084 1387 740 
Q 1603 397 2022 397 
Q 2438 397 2648 737 
Q 2859 1078 2859 1747 
z
" transform="scale(0.015625)"/>
       <path id="Menlo-Regular-6f" d="M 1925 3097 
Q 1488 3097 1263 2756 
Q 1038 2416 1038 1747 
Q 1038 1081 1263 739 
Q 1488 397 1925 397 
Q 2366 397 2591 739 
Q 2816 1081 2816 1747 
Q 2816 2416 2591 2756 
Q 2366 3097 1925 3097 
z
M 1925 3584 
Q 2653 3584 3039 3112 
Q 3425 2641 3425 1747 
Q 3425 850 3040 379 
Q 2656 -91 1925 -91 
Q 1197 -91 812 379 
Q 428 850 428 1747 
Q 428 2641 812 3112 
Q 1197 3584 1925 3584 
z
" transform="scale(0.015625)"/>
       <path id="Menlo-Regular-6c" d="M 2247 1266 
Q 2247 878 2389 681 
Q 2531 484 2809 484 
L 3481 484 
L 3481 0 
L 2753 0 
Q 2238 0 1955 329 
Q 1672 659 1672 1266 
L 1672 4431 
L 750 4431 
L 750 4881 
L 2247 4881 
L 2247 1266 
z
" transform="scale(0.015625)"/>
       <path id="Menlo-Regular-2e" d="M 1216 1263 
L 2316 1263 
L 2316 0 
L 1216 0 
L 1216 1263 
z
" transform="scale(0.015625)"/>
       <path id="Menlo-Regular-2f" d="M 2778 4666 
L 3372 4666 
L 916 -594 
L 319 -594 
L 2778 4666 
z
" transform="scale(0.015625)"/>
       <path id="Menlo-Regular-68" d="M 3284 2169 
L 3284 0 
L 2706 0 
L 2706 2169 
Q 2706 2641 2540 2862 
Q 2375 3084 2022 3084 
Q 1619 3084 1401 2798 
Q 1184 2513 1184 1978 
L 1184 0 
L 609 0 
L 609 4863 
L 1184 4863 
L 1184 2975 
Q 1338 3275 1600 3429 
Q 1863 3584 2222 3584 
Q 2756 3584 3020 3232 
Q 3284 2881 3284 2169 
z
" transform="scale(0.015625)"/>
       <path id="Menlo-Regular-79" d="M 2681 1125 
Q 2538 759 2316 163 
Q 2006 -663 1900 -844 
Q 1756 -1088 1540 -1209 
Q 1325 -1331 1038 -1331 
L 575 -1331 
L 575 -850 
L 916 -850 
Q 1169 -850 1312 -703 
Q 1456 -556 1678 56 
L 325 3500 
L 934 3500 
L 1972 763 
L 2994 3500 
L 3603 3500 
L 2681 1125 
z
" transform="scale(0.015625)"/>
       <path id="Menlo-Regular-72" d="M 3609 2778 
Q 3425 2922 3234 2987 
Q 3044 3053 2816 3053 
Q 2278 3053 1993 2715 
Q 1709 2378 1709 1741 
L 1709 0 
L 1131 0 
L 1131 3500 
L 1709 3500 
L 1709 2816 
Q 1853 3188 2151 3386 
Q 2450 3584 2859 3584 
Q 3072 3584 3256 3531 
Q 3441 3478 3609 3366 
L 3609 2778 
z
" transform="scale(0.015625)"/>
       <path id="Menlo-Regular-5d" d="M 2250 5175 
L 2250 -531 
L 925 -531 
L 925 -84 
L 1675 -84 
L 1675 4728 
L 925 4728 
L 925 5175 
L 2250 5175 
z
" transform="scale(0.015625)"/>
      </defs>
      <use xlink:href="#Menlo-Regular-49"/>
      <use xlink:href="#Menlo-Regular-20" transform="translate(60.205078 0)"/>
      <use xlink:href="#Menlo-Regular-69" transform="translate(120.410156 0)"/>
      <use xlink:href="#Menlo-Regular-6e" transform="translate(180.615234 0)"/>
      <use xlink:href="#Menlo-Regular-20" transform="translate(240.820312 0)"/>
      <use xlink:href="#Menlo-Regular-20" transform="translate(301.025391 0)"/>
      <use xlink:href="#Menlo-Regular-5b" transform="translate(361.230469 0)"/>
      <use xlink:href="#Menlo-Regular-2b" transform="translate(421.435547 0)"/>
      <use xlink:href="#Menlo-Regular-20" transform="translate(481.640625 0)"/>
      <use xlink:href="#Menlo-Regular-64" transform="translate(541.845703 0)"/>
      <use xlink:href="#Menlo-Regular-65" transform="translate(602.050781 0)"/>
      <use xlink:href="#Menlo-Regular-70" transform="translate(662.255859 0)"/>
      <use xlink:href="#Menlo-Regular-6f" transform="translate(722.460938 0)"/>
      <use xlink:href="#Menlo-Regular-6c" transform="translate(782.666016 0)"/>
      <use xlink:href="#Menlo-Regular-2e" transform="translate(842.871094 0)"/>
      <use xlink:href="#Menlo-Regular-20" transform="translate(903.076172 0)"/>
      <use xlink:href="#Menlo-Regular-2f" transform="translate(963.28125 0)"/>
      <use xlink:href="#Menlo-Regular-20" transform="translate(1023.486328 0)"/>
      <use xlink:href="#Menlo-Regular-2212" transform="translate(1083.691406 0)"/>
      <use xlink:href="#Menlo-Regular-20" transform="translate(1143.896484 0)"/>
      <use xlink:href="#Menlo-Regular-68" transform="translate(1204.101562 0)"/>
      <use xlink:href="#Menlo-Regular-79" transform="translate(1264.306641 0)"/>
      <use xlink:href="#Menlo-Regular-70" transform="translate(1324.511719 0)"/>
      <use xlink:href="#Menlo-Regular-65" transform="translate(1384.716797 0)"/>
      <use xlink:href="#Menlo-Regular-72" transform="translate(1444.921875 0)"/>
      <use xlink:href="#Menlo-Regular-70" transform="translate(1505.126953 0)"/>
      <use xlink:href="#Menlo-Regular-6f" transform="translate(1565.332031 0)"/>
      <use xlink:href="#Menlo-Regular-6c" transform="translate(1625.537109 0)"/>
      <use xlink:href="#Menlo-Regular-2e" transform="translate(1685.742188 0)"/>
      <use xlink:href="#Menlo-Regular-5d" transform="translate(1745.947266 0)"/>
     </g>
    </g>
   </g>
   <g id="line2d_14">
    <path d="M 29.715156 36.673213 
L 266.34016 36.673213 
" clip-path="url(#p4788a8aa08)" style="fill: none; stroke: #bbbbbb; stroke-width: 0.5; stroke-linejoin: miter"/>
   </g>
   <g id="line2d_15">
    <path d="M 29.715156 36.461502 
L 30.010938 35.389912 
L 30.12925 35.288266 
L 30.306719 35.321839 
L 30.779969 34.374091 
L 30.839125 34.47879 
L 31.016594 34.530513 
L 31.312375 34.208259 
L 31.608156 33.44221 
L 31.903938 33.540359 
L 32.02225 33.533039 
L 32.318031 34.139821 
L 32.377188 34.088288 
L 32.554656 33.797091 
L 32.909594 32.550399 
L 33.382844 31.156719 
L 33.737781 32.375606 
L 34.033563 33.22 
L 34.151875 33.284886 
L 34.270188 33.434518 
L 34.565969 33.98158 
L 34.743438 33.828883 
L 34.920906 33.820035 
L 35.157531 33.263819 
L 35.216688 33.26171 
L 35.689938 31.5805 
L 36.163188 29.680471 
L 36.873063 26.948266 
L 37.168844 27.223495 
L 37.228 27.228743 
L 38.706906 30.624639 
L 38.884375 30.49567 
L 39.239313 30.779286 
L 39.298469 30.663101 
L 39.475938 30.526587 
L 39.890031 31.261572 
L 39.949188 31.166177 
L 40.363281 30.285799 
L 40.777375 29.696651 
L 41.664719 27.326854 
L 42.019656 25.139303 
L 42.256281 24.797922 
L 42.43375 24.529997 
L 42.729531 23.897766 
L 43.084469 26.307173 
L 43.498563 29.011239 
L 43.616875 29.223683 
L 43.794344 29.550029 
L 43.912656 29.282837 
L 44.622531 27.034544 
L 44.918313 27.512502 
L 45.509875 29.998656 
L 45.628188 30.024305 
L 46.338063 27.688168 
L 46.456375 27.643007 
L 47.047938 28.565471 
L 47.521188 31.058987 
L 47.6395 31.221787 
L 47.816969 30.822163 
L 48.053594 29.777362 
L 48.467688 27.970866 
L 48.645157 27.969687 
L 48.763469 27.791218 
L 48.881782 28.005048 
L 48.940938 27.928641 
L 49.000094 28.000427 
L 49.05925 27.934775 
L 49.591657 26.02486 
L 49.650813 26.079987 
L 50.183219 28.177519 
L 50.774782 30.049663 
L 51.070563 29.805841 
L 51.484657 30.586917 
L 51.780438 30.744467 
L 52.076219 31.44872 
L 52.194532 31.401365 
L 52.312844 31.343895 
L 52.608625 30.860718 
L 52.904407 30.414176 
L 53.200188 29.921317 
L 53.3185 29.928351 
L 53.673438 29.49436 
L 54.146688 29.474919 
L 54.619938 30.458975 
L 54.73825 30.536919 
L 55.388969 32.419337 
L 55.625594 32.752262 
L 56.098844 33.779072 
L 56.217157 33.640261 
L 56.453782 33.32955 
L 56.572094 33.41153 
L 56.749563 33.680931 
L 57.045344 33.931277 
L 57.163657 33.897616 
L 57.281969 34.106327 
L 57.341125 34.079503 
L 57.518594 33.836977 
L 57.636907 33.823949 
L 57.814375 33.922813 
L 58.287625 32.790024 
L 58.346782 32.777036 
L 58.9975 34.120081 
L 59.352438 34.720855 
L 59.529907 34.618368 
L 59.648219 34.71896 
L 59.884844 34.072654 
L 60.653875 30.628318 
L 60.772188 30.513355 
L 61.008813 30.71466 
L 61.127125 30.719693 
L 61.600375 30.00012 
L 61.659532 30.042661 
L 61.777844 30.302579 
L 61.837 30.236171 
L 61.896157 30.258143 
L 62.251094 31.303048 
L 62.7835 33.270923 
L 63.079282 33.877698 
L 63.434219 33.225621 
L 64.617344 29.394063 
L 64.6765 29.444396 
L 64.853969 29.124656 
L 65.14975 29.858734 
L 66.214563 33.394554 
L 66.273719 33.412849 
L 66.510344 33.151334 
L 66.806126 33.072852 
L 67.042751 32.179486 
L 67.456844 30.308636 
L 67.752626 29.424449 
L 67.989251 28.744332 
L 68.107563 28.612756 
L 68.166719 28.678627 
L 68.344188 29.241443 
L 68.876594 31.979723 
L 69.409001 33.662957 
L 69.704782 33.992002 
L 69.941407 34.017223 
L 70.059719 33.872649 
L 71.538626 35.604501 
L 72.307657 36.093966 
L 73.076688 36.340341 
L 73.195001 36.194831 
L 73.431626 35.528425 
L 73.845719 34.153365 
L 74.082344 33.778797 
L 74.200657 33.775677 
L 74.318969 33.544239 
L 74.378126 33.639709 
L 74.673907 34.249058 
L 74.851376 33.947388 
L 74.969688 34.058709 
L 75.383782 32.902706 
L 75.620407 33.019655 
L 75.797876 32.981392 
L 76.034501 33.256004 
L 76.093657 33.141973 
L 76.389438 32.961601 
L 77.040157 29.703715 
L 77.335938 28.389292 
L 77.513407 28.290513 
L 77.986657 29.099179 
L 78.045813 28.993931 
L 78.459907 28.422072 
L 78.696532 28.472609 
L 79.702188 24.088515 
L 79.997969 22.987539 
L 80.175438 22.717799 
L 80.234594 22.808256 
L 80.412063 23.257426 
L 80.767001 24.747825 
L 80.826157 24.815963 
L 80.944469 24.582943 
L 81.003626 24.654337 
L 81.181094 24.874374 
L 81.299407 24.977588 
L 81.417719 25.324676 
L 82.009282 29.027046 
L 82.541688 31.698233 
L 82.955782 33.006918 
L 83.251563 33.511543 
L 83.606501 33.819332 
L 84.25722 32.456367 
L 84.316376 32.547231 
L 84.375532 32.658664 
L 84.434688 32.565177 
L 84.612157 32.447738 
L 85.144563 32.609216 
L 85.795282 31.137404 
L 85.854438 31.216408 
L 85.972751 31.387475 
L 86.209376 31.13341 
L 86.327688 31.247803 
L 86.446001 31.152448 
L 86.919251 29.956584 
L 87.037563 30.065108 
L 87.215032 30.292148 
L 87.333345 30.304564 
L 87.688282 30.959775 
L 87.865751 30.953007 
L 88.398157 29.804763 
L 88.575626 29.593474 
L 88.930563 29.889598 
L 89.167188 29.942101 
L 89.581282 29.258969 
L 89.817907 29.45755 
L 90.113688 29.308149 
L 90.468626 29.733763 
L 90.705251 29.632198 
L 90.941876 29.414266 
L 91.119345 29.393497 
L 91.296813 29.312362 
L 91.533438 29.511638 
L 91.710907 29.654282 
L 92.479938 31.871985 
L 92.77572 32.306851 
L 92.953188 32.235315 
L 93.071501 31.956735 
L 93.426438 30.76904 
L 93.663063 30.485416 
L 94.018001 29.996901 
L 94.254626 30.012554 
L 94.372938 29.954712 
L 94.491251 29.732605 
L 94.550407 29.786423 
L 95.023657 30.439529 
L 95.082813 30.310362 
L 96.029313 26.600447 
L 96.147626 26.717601 
L 97.804001 32.051779 
L 97.98147 32.01153 
L 98.45472 32.616318 
L 98.868813 31.382425 
L 99.637845 28.675636 
L 99.756157 28.598029 
L 100.051938 28.891292 
L 100.288563 29.155747 
L 100.584345 30.219119 
L 100.939282 31.523651 
L 101.057595 31.586122 
L 102.71397 35.116703 
L 103.246376 35.673435 
L 103.483001 35.658851 
L 103.66047 35.598832 
L 104.370345 36.078867 
L 105.021064 36.313824 
L 105.316845 35.451823 
L 105.435157 35.506597 
L 106.085876 35.995012 
L 106.263345 36.045064 
L 106.381657 36.010906 
L 107.209845 36.342927 
L 107.328157 36.35987 
L 107.623939 35.499693 
L 107.91972 34.487269 
L 108.097189 34.150109 
L 108.629595 32.296542 
L 108.747907 32.199676 
L 109.043689 32.342411 
L 109.221157 32.480344 
L 109.33947 32.33312 
L 109.398626 32.374542 
L 109.516939 32.277326 
L 110.108501 30.956218 
L 110.28597 30.875186 
L 110.700064 30.235087 
L 110.818376 30.289314 
L 111.23247 29.927782 
L 111.291626 29.936946 
L 111.469095 30.646514 
L 112.001501 32.805429 
L 113.007157 34.911067 
L 113.243782 34.662883 
L 113.539564 34.579732 
L 114.249439 33.138979 
L 114.722689 32.44148 
L 115.373407 31.363709 
L 115.550876 31.186393 
L 115.787501 31.050905 
L 115.905814 31.014757 
L 116.142439 30.83132 
L 116.497376 31.039162 
L 116.674845 31.318313 
L 117.088939 31.321008 
L 117.325564 31.301486 
L 117.917126 33.325876 
L 118.508689 34.598611 
L 119.100251 35.393348 
L 119.573501 35.753358 
L 119.869283 35.463846 
L 120.046751 34.58235 
L 120.460845 32.723167 
L 120.638314 32.119922 
L 120.756626 31.758436 
L 120.815783 31.841578 
L 121.703126 34.370581 
L 121.880595 34.560599 
L 122.235533 33.413765 
L 123.004564 28.970244 
L 123.359501 28.193181 
L 123.53697 27.764447 
L 124.01022 25.409865 
L 124.365158 24.208605 
L 124.424314 24.213474 
L 124.542626 24.348913 
L 124.720095 24.217253 
L 124.95672 24.12873 
L 125.134189 24.078968 
L 125.252501 24.23885 
L 125.725751 25.609726 
L 125.844064 25.642632 
L 126.021533 25.435176 
L 126.080689 25.545084 
L 126.37647 25.782534 
L 126.553939 25.862989 
L 126.790564 26.482581 
L 126.84972 26.403681 
L 127.382126 25.757155 
L 127.441283 25.705041 
L 127.500439 25.77413 
L 127.79622 26.779856 
L 128.565251 29.164759 
L 128.74272 29.212632 
L 128.920189 29.464092 
L 128.979345 29.34539 
L 129.275126 29.180441 
L 129.570908 29.588487 
L 129.748376 29.696518 
L 130.103314 30.320058 
L 130.221626 30.349847 
L 130.339939 30.427653 
L 130.458251 30.300008 
L 130.63572 30.752907 
L 130.931501 31.635646 
L 130.990658 31.644986 
L 131.227283 32.100931 
L 131.286439 32.057302 
L 131.463908 32.091878 
L 131.818845 31.406996 
L 132.05547 32.184394 
L 132.410408 33.022798 
L 132.469564 33.058855 
L 132.765345 32.169642 
L 133.00197 31.543639 
L 133.47522 31.357241 
L 133.593533 31.191475 
L 133.771001 31.46576 
L 134.007626 31.802516 
L 134.42172 31.263078 
L 134.658345 30.977773 
L 134.835814 30.807117 
L 134.89497 30.813184 
L 135.072439 30.651121 
L 135.131595 30.638136 
L 135.427376 30.213506 
L 135.604845 30.020773 
L 135.959783 29.399027 
L 136.078095 29.332386 
L 136.373876 29.416084 
L 136.492189 29.492836 
L 137.202064 30.501305 
L 137.379533 30.819293 
L 137.852783 31.940329 
L 137.971095 32.074329 
L 138.326033 33.147773 
L 138.858439 34.405869 
L 139.213377 34.587671 
L 139.450002 33.609952 
L 140.396502 28.853517 
L 141.402158 25.790131 
L 141.579627 25.758581 
L 141.638783 25.66892 
L 141.697939 25.707982 
L 141.816252 25.728592 
L 141.875408 22.447668 
L 141.934564 22.512032 
L 142.348658 23.244113 
L 142.407814 23.19843 
L 142.526127 23.08052 
L 142.703595 23.408655 
L 142.94022 23.235879 
L 143.058533 23.093851 
L 143.295158 22.719672 
L 143.531783 22.607861 
L 143.945877 22.752764 
L 144.241658 22.545553 
L 144.35997 22.619591 
L 144.774064 23.304176 
L 145.247314 22.246428 
L 145.424783 21.949975 
L 145.602252 22.138373 
L 146.134658 24.170844 
L 146.548752 26.12388 
L 146.607908 23.200302 
L 146.667064 23.481282 
L 147.140314 25.940055 
L 147.258627 25.933133 
L 147.791033 25.795323 
L 147.968502 25.989358 
L 148.205127 26.33541 
L 148.382595 26.669766 
L 148.678377 27.311572 
L 148.796689 27.261532 
L 148.974158 27.0283 
L 149.033314 27.132194 
L 149.802345 29.83855 
L 150.03897 30.131934 
L 150.216439 30.499127 
L 150.571377 31.642875 
L 150.808002 31.782754 
L 151.103783 32.018934 
L 151.45872 31.529108 
L 151.754502 31.067397 
L 151.991127 31.350684 
L 152.050283 31.27857 
L 152.109439 31.226941 
L 152.227752 31.352785 
L 152.346064 31.223764 
L 152.464377 31.221966 
L 152.760158 30.232892 
L 153.233408 27.222691 
L 153.647502 26.422918 
L 154.120752 25.789238 
L 154.239064 26.117444 
L 154.712314 29.211876 
L 155.008096 30.356283 
L 155.244721 30.841335 
L 155.658814 31.760871 
L 155.777127 31.79745 
L 156.013752 31.492467 
L 156.191221 31.796767 
L 156.250377 31.719725 
L 157.610971 34.825398 
L 158.084221 35.423503 
L 158.380002 35.229899 
L 158.557471 34.742301 
L 158.616627 34.771127 
L 158.675783 34.818812 
L 158.734939 34.727988 
L 158.853252 34.529806 
L 159.740596 31.363035 
L 160.095533 31.245894 
L 160.568783 32.757012 
L 161.101189 34.180448 
L 161.337814 34.561057 
L 161.515283 34.463792 
L 161.811064 34.836252 
L 161.870221 34.813704 
L 162.106846 33.867371 
L 162.402627 33.051007 
L 162.520939 33.094038 
L 163.171658 31.785224 
L 163.704064 29.408122 
L 163.940689 29.454764 
L 164.059002 29.368124 
L 164.295627 29.773695 
L 164.709721 31.016615 
L 164.887189 31.384146 
L 165.005502 31.346328 
L 165.597064 30.389812 
L 165.715377 30.207056 
L 166.306939 28.339614 
L 166.602721 27.083153 
L 166.957658 26.31486 
L 167.075971 26.425801 
L 167.253439 26.61729 
L 167.490064 26.296746 
L 167.549221 26.357415 
L 168.022471 27.004717 
L 168.259096 27.333227 
L 168.732346 28.08756 
L 168.909814 27.704162 
L 169.028127 27.751603 
L 169.146439 27.6735 
L 169.383064 28.00905 
L 169.974627 27.048616 
L 170.092939 27.151456 
L 170.388721 26.858793 
L 170.507033 26.69134 
L 170.566189 23.689486 
L 170.625346 23.715434 
L 170.861971 23.560033 
L 170.980283 23.50417 
L 171.098596 23.125577 
L 171.512689 20.995104 
L 171.749314 20.95378 
L 171.867627 21.066537 
L 172.340877 23.974091 
L 173.169065 29.992552 
L 173.40569 30.73794 
L 173.583158 31.1267 
L 174.056408 32.652599 
L 174.115565 32.499103 
L 174.233877 32.284309 
L 174.293033 32.332847 
L 174.470502 32.465384 
L 174.588815 32.469807 
L 174.766283 32.218023 
L 174.82544 32.21572 
L 175.180377 31.686877 
L 175.29869 31.647777 
L 175.417002 31.628311 
L 175.653627 31.091438 
L 175.712783 31.066342 
L 175.890252 30.233717 
L 176.186033 29.166698 
L 176.304346 29.206947 
L 176.777596 30.846154 
L 177.310002 32.96114 
L 177.901565 34.41488 
L 178.374815 35.123217 
L 178.552283 35.257445 
L 178.61144 35.140285 
L 179.203002 33.994462 
L 179.262158 34.064902 
L 179.735408 34.847671 
L 180.149502 35.276097 
L 180.267815 35.216154 
L 180.445283 35.073392 
L 180.622752 35.093173 
L 180.741065 34.782505 
L 180.859377 34.413958 
L 180.918533 34.474736 
L 181.036846 34.569671 
L 181.155158 34.590542 
L 181.273471 34.40893 
L 181.687565 33.675921 
L 182.042502 33.186231 
L 182.279127 32.135748 
L 182.515752 31.27036 
L 182.989002 30.37194 
L 183.34394 29.556562 
L 183.403096 29.570303 
L 183.580565 29.367968 
L 183.935502 29.549714 
L 184.172127 29.986266 
L 185.059471 33.142224 
L 185.414408 34.007299 
L 185.473565 33.935202 
L 186.18344 31.896636 
L 186.893315 29.487984 
L 187.070783 29.663244 
L 187.189096 29.583872 
L 187.366565 28.731742 
L 187.60319 27.260117 
L 187.839815 26.195823 
L 188.372221 25.540703 
L 188.54969 25.750713 
L 188.963783 27.070428 
L 189.141252 26.995355 
L 189.49619 26.14139 
L 189.851127 25.043819 
L 189.96944 24.879369 
L 190.028596 24.934024 
L 190.087752 24.868121 
L 190.44269 24.763945 
L 190.797627 24.860173 
L 191.152565 24.454773 
L 191.38919 24.193436 
L 191.625815 24.736423 
L 192.33569 26.508153 
L 192.394846 26.482646 
L 192.572315 26.47715 
L 192.80894 26.537736 
L 193.163877 27.084154 
L 193.459659 27.067163 
L 193.932909 28.3435 
L 194.287846 28.353969 
L 194.524471 28.863846 
L 194.761096 29.396062 
L 194.820252 29.45999 
L 194.879409 29.395899 
L 195.352659 28.019616 
L 196.003377 26.358927 
L 196.12169 26.518356 
L 196.476627 27.066452 
L 196.890721 27.789971 
L 197.06819 28.320975 
L 197.304815 29.048315 
L 197.423127 29.194656 
L 198.01469 31.126092 
L 198.665409 32.739958 
L 199.079502 31.918654 
L 199.43444 30.986439 
L 199.552752 30.92934 
L 199.848534 31.474904 
L 200.499252 33.653626 
L 201.090815 34.826033 
L 201.623221 35.437905 
L 201.919002 35.627999 
L 202.155627 35.303113 
L 202.451409 35.12411 
L 203.042971 33.337953 
L 203.812002 29.029125 
L 204.344409 29.315882 
L 204.403565 29.311488 
L 204.64019 28.215319 
L 205.58669 23.886765 
L 205.705002 24.047753 
L 205.764159 20.369378 
L 205.823315 20.389933 
L 205.882471 20.496129 
L 205.941627 20.432234 
L 206.05994 20.548454 
L 206.355721 21.669599 
L 206.710659 23.877312 
L 207.243065 26.461113 
L 207.420534 26.924371 
L 208.189565 31.126123 
L 208.42619 31.783046 
L 208.544503 31.703329 
L 208.958596 30.652711 
L 209.017753 30.685595 
L 209.313534 30.971791 
L 209.431846 31.038592 
L 209.491003 31.104518 
L 209.668471 31.532366 
L 209.905096 31.552653 
L 210.023409 31.50576 
L 210.733284 32.859806 
L 210.79244 32.825826 
L 210.851596 32.706225 
L 210.910753 32.74283 
L 211.088221 32.735342 
L 211.443159 31.992856 
L 211.798096 30.858444 
L 211.975565 30.822674 
L 212.093878 30.938423 
L 212.21219 31.188883 
L 212.507971 30.980084 
L 212.744596 30.757531 
L 212.981221 30.464224 
L 213.217846 30.350348 
L 213.336159 30.411909 
L 213.572784 30.904946 
L 214.164346 32.786217 
L 214.341815 32.866128 
L 214.815065 33.719517 
L 214.874221 33.574925 
L 215.99819 30.273328 
L 216.47144 27.734487 
L 216.648909 27.497888 
L 217.063003 27.804281 
L 217.358784 27.190158 
L 217.536253 27.15657 
L 217.89119 26.597135 
L 218.423596 24.384911 
L 219.251784 19.707047 
L 219.31094 19.734163 
L 219.488409 19.949287 
L 219.665878 20.553347 
L 220.020815 21.440799 
L 220.375753 22.274814 
L 220.494065 22.834778 
L 220.553221 18.949432 
L 220.612378 19.256857 
L 220.967315 20.595769 
L 221.795503 23.28886 
L 222.15044 25.980322 
L 222.564534 28.970758 
L 223.274409 32.377921 
L 223.392721 32.650908 
L 223.451878 32.629059 
L 224.04344 31.817334 
L 224.457534 31.908278 
L 224.635003 31.79254 
L 225.167409 30.544394 
L 225.699815 27.850228 
L 225.877284 27.79072 
L 226.40969 27.80142 
L 226.646315 28.115914 
L 226.764628 28.198698 
L 227.060409 29.122397 
L 227.533659 31.474172 
L 228.77594 34.243577 
L 229.426659 35.133929 
L 230.077378 35.742831 
L 230.846409 36.17697 
L 231.674597 36.423979 
L 231.911222 36.213532 
L 232.266159 35.042951 
L 232.56194 34.002845 
L 232.739409 33.726598 
L 233.567597 30.087517 
L 233.98169 27.596115 
L 234.277472 26.411331 
L 234.573253 25.758123 
L 234.691565 25.482746 
L 234.750722 25.590871 
L 234.809878 25.534585 
L 235.046503 25.457714 
L 235.342284 25.072827 
L 235.519753 25.734294 
L 236.407097 31.277568 
L 236.939503 33.232592 
L 237.531065 34.58056 
L 237.76769 34.944575 
L 237.826847 34.899893 
L 238.477565 32.518924 
L 238.536722 32.568005 
L 238.655034 32.636592 
L 239.128284 31.68545 
L 239.305753 30.995752 
L 239.364909 31.012148 
L 239.897315 32.216094 
L 240.13394 32.482554 
L 240.370565 33.099871 
L 240.784659 34.059197 
L 241.08044 34.550403 
L 241.672003 35.385436 
L 241.849472 34.805999 
L 242.145253 33.458664 
L 242.795972 31.67131 
L 242.914284 31.365585 
L 243.210066 30.883324 
L 243.328378 30.813657 
L 243.683316 29.98321 
L 244.038253 29.286803 
L 244.274878 28.794832 
L 244.393191 28.658557 
L 244.629816 29.159569 
L 244.688972 29.10937 
L 245.043909 28.235277 
L 245.103066 28.198433 
L 245.398847 27.502464 
L 245.576316 27.437038 
L 245.812941 27.923009 
L 245.990409 28.731796 
L 246.522816 31.488361 
L 247.173534 33.57215 
L 247.765097 34.791901 
L 248.356659 35.529066 
L 249.066534 36.04231 
L 249.835566 36.338454 
L 249.894722 36.290469 
L 250.013034 35.970019 
L 250.072191 35.99447 
L 250.782066 35.800388 
L 250.900378 35.623027 
L 251.137003 35.197134 
L 251.551097 34.630601 
L 251.669409 34.606631 
L 251.965191 34.230332 
L 252.201816 34.436864 
L 252.438441 34.087596 
L 252.615909 34.39178 
L 252.675066 34.3471 
L 252.793378 34.001086 
L 253.089159 33.199898 
L 253.266628 33.030667 
L 253.444097 32.681868 
L 253.621566 32.018241 
L 253.917347 30.926348 
L 253.976503 30.916461 
L 254.449753 29.678066 
L 254.745534 29.729062 
L 256.283597 24.405792 
L 256.756847 22.089845 
L 256.875159 22.211425 
L 257.230097 22.806111 
L 257.585034 22.281796 
L 257.703347 22.162271 
L 257.762503 22.244091 
L 257.939972 22.337421 
L 258.294909 22.427754 
L 258.590691 21.725059 
L 258.886472 21.338421 
L 259.004784 21.263171 
L 259.241409 21.066301 
L 259.418878 20.98698 
L 259.655503 21.793944 
L 260.010441 22.904013 
L 260.306222 24.12586 
L 261.252722 28.474903 
L 261.725972 29.553509 
L 261.844285 29.663303 
L 261.962597 29.491301 
L 262.495003 28.734079 
L 262.672472 29.079471 
L 263.559816 31.823714 
L 263.796441 32.413306 
L 263.97391 32.710808 
L 264.683785 34.3169 
L 264.92041 33.866314 
L 265.097878 33.544023 
L 265.275347 33.185813 
L 265.630285 32.370537 
L 266.044378 32.413004 
L 266.162691 32.674456 
L 266.221847 32.644661 
L 266.281003 32.592612 
L 266.281003 32.592612 
" clip-path="url(#p4788a8aa08)" style="fill: none; stroke: #1a1a1a; stroke-width: 0.9; stroke-linejoin: miter"/>
   </g>
   <g id="line2d_16">
    <path d="M 29.715156 36.673213 
L 38.411125 36.673213 
L 38.470281 38.623358 
L 38.64775 67.953211 
L 38.884375 119.913068 
L 38.943531 119.812713 
L 39.298469 92.540931 
L 39.653406 67.159095 
L 40.008344 55.605973 
L 40.363281 50.472161 
L 40.718219 48.166633 
L 41.014 47.351627 
L 41.368938 47.065667 
L 41.664719 47.10409 
L 41.901344 47.494907 
L 42.492906 48.55947 
L 42.907 48.951405 
L 43.084469 48.800266 
L 43.38025 48.119992 
L 43.971813 46.696015 
L 44.267594 46.444497 
L 44.681688 46.427519 
L 45.036625 46.298011 
L 45.450719 45.734375 
L 45.864813 45.248307 
L 46.21975 45.193291 
L 46.988781 45.007491 
L 47.343719 44.67508 
L 48.11275 43.823116 
L 48.586 43.762449 
L 50.242375 43.563015 
L 50.95225 43.000996 
L 53.200188 41.403256 
L 56.039688 40.002546 
L 57.400282 39.291519 
L 58.760875 38.788329 
L 60.594719 38.275741 
L 69.054063 37.203382 
L 69.823094 37.133221 
L 70.118876 67.965333 
L 70.178032 73.050513 
L 70.237188 72.848472 
L 70.296344 72.915897 
L 70.828751 61.203161 
L 71.361157 53.935921 
L 71.952719 48.869146 
L 72.544282 45.663777 
L 73.135844 43.569637 
L 73.609094 42.530791 
L 74.141501 41.879454 
L 75.147157 41.06657 
L 76.448594 40.537926 
L 76.981001 40.511929 
L 78.637376 40.65855 
L 79.524719 40.694832 
L 80.885313 40.804962 
L 81.772657 40.572728 
L 82.778313 39.994875 
L 84.375532 39.109408 
L 85.972751 38.548663 
L 88.161532 38.055967 
L 91.296813 37.57908 
L 94.964501 37.177386 
L 95.14197 42.723941 
L 95.260282 48.837851 
L 95.496907 56.985395 
L 96.08847 53.307763 
L 96.916657 49.632583 
L 97.863157 46.46536 
L 98.691345 44.434413 
L 99.342063 43.381328 
L 100.288563 42.364433 
L 102.950595 39.891906 
L 104.192876 39.082106 
L 105.55347 38.453664 
L 107.44647 37.871603 
L 108.86622 37.643733 
L 114.308595 37.123431 
L 115.728345 37.039882 
L 115.96497 46.749792 
L 116.201595 60.931666 
L 116.260751 61.566304 
L 116.852314 55.260244 
L 117.443876 51.106005 
L 118.212907 47.30464 
L 118.922783 44.821977 
L 119.691814 42.922581 
L 120.283376 42.006212 
L 120.993251 41.437747 
L 122.59047 40.321996 
L 123.477814 40.264268 
L 124.424314 40.364782 
L 125.42997 40.373842 
L 126.84972 40.036648 
L 129.156814 39.225407 
L 132.351251 38.162362 
L 134.185095 37.757518 
L 136.78797 37.400125 
L 137.73447 37.295256 
L 137.793627 39.104714 
L 137.852783 39.076118 
L 139.804939 38.265166 
L 141.283845 37.959649 
L 141.816252 37.880851 
L 141.934564 37.264629 
L 143.236002 37.22922 
L 146.075502 37.1942 
L 146.548752 37.169108 
L 146.667064 36.916351 
L 150.393908 36.858026 
L 150.51222 36.854895 
L 150.867158 50.139131 
L 151.044627 54.251493 
L 151.695345 50.3963 
L 152.40522 47.556826 
L 152.996783 45.982103 
L 153.647502 44.967015 
L 156.427846 41.603115 
L 158.025064 40.103893 
L 159.030721 39.430942 
L 159.977221 39.073809 
L 163.822377 38.001807 
L 170.033783 37.336632 
L 170.507033 37.298223 
L 170.625346 36.979379 
L 171.276064 36.949378 
L 171.335221 37.989659 
L 171.571846 47.272326 
L 172.340877 46.443865 
L 172.991596 45.317041 
L 174.35219 42.917619 
L 175.180377 41.891998 
L 176.008565 41.19539 
L 177.842408 39.978105 
L 179.203002 39.148773 
L 181.155158 38.363481 
L 182.574908 38.042122 
L 187.484877 37.407538 
L 188.786315 37.333907 
L 188.845471 38.95927 
L 189.02294 49.651844 
L 189.732815 47.606211 
L 190.561002 45.968487 
L 191.507502 44.575521 
L 193.163877 42.617714 
L 194.70194 41.190366 
L 195.707596 40.483877 
L 198.48794 39.067367 
L 199.90769 38.49704 
L 202.451409 37.726193 
L 204.048627 37.476159 
L 205.705002 37.335685 
L 205.823315 36.998718 
L 207.893784 36.96399 
L 208.130409 42.435654 
L 208.248721 48.164008 
L 208.307878 47.953009 
L 209.017753 45.861218 
L 209.905096 44.019958 
L 210.969909 42.368341 
L 211.73894 41.537501 
L 212.981221 40.638954 
L 215.702409 39.167588 
L 216.708065 38.921532 
L 219.251784 38.566582 
L 220.494065 38.429848 
L 220.612378 37.533805 
L 221.618034 37.47533 
L 222.919471 37.430073 
L 227.35619 37.09727 
L 227.711128 37.073358 
L 227.82944 40.759123 
L 228.006909 71.20867 
L 228.184378 94.955774 
L 228.598472 75.917251 
L 229.071722 62.00127 
L 229.544972 53.857899 
L 230.077378 48.438613 
L 230.609784 45.199403 
L 231.14219 43.184547 
L 231.733753 41.770279 
L 232.207003 41.123694 
L 232.621097 40.929535 
L 233.094347 40.945409 
L 233.626753 41.258753 
L 234.218315 41.896127 
L 234.987347 42.638408 
L 235.578909 42.936408 
L 235.933847 42.860238 
L 236.407097 42.500202 
L 238.71419 40.415615 
L 240.13394 39.889485 
L 243.091753 38.764888 
L 245.635472 38.47839 
L 246.877753 38.234933 
L 250.367972 37.445436 
L 252.852534 37.167205 
L 254.153972 37.087989 
L 254.272284 41.156784 
L 254.568066 59.377193 
L 254.627222 58.739523 
L 255.159628 54.20052 
L 255.692034 51.322169 
L 256.224441 49.497515 
L 256.697691 48.577274 
L 257.939972 46.952297 
L 258.945628 46.004488 
L 260.306222 44.823103 
L 261.548503 43.262183 
L 262.55416 42.145344 
L 265.038722 39.96034 
L 266.103535 39.361956 
L 266.281003 39.276001 
L 266.281003 39.276001 
" clip-path="url(#p4788a8aa08)" style="fill: none; stroke: #c8102e; stroke-width: 0.9; stroke-linejoin: miter"/>
   </g>
   <g id="line2d_17">
    <path d="M 29.715156 36.674269 
L 31.016594 36.841939 
L 33.027906 37.295411 
L 34.506813 37.70947 
L 35.80825 37.988319 
L 36.75475 38.491388 
L 37.937875 39.16373 
L 38.529438 39.329515 
L 38.64775 39.107482 
L 38.825219 38.148245 
L 39.357625 35.068084 
L 39.712563 34.190052 
L 40.126656 33.736037 
L 40.599906 33.557807 
L 41.309781 33.548371 
L 42.256281 33.758196 
L 43.261938 33.959265 
L 44.563375 34.021622 
L 45.569031 34.134112 
L 46.338063 34.266616 
L 47.521188 34.455974 
L 48.349375 34.563119 
L 51.366344 35.379416 
L 53.732594 35.808522 
L 55.329813 36.174077 
L 60.8905 36.761729 
L 62.901813 37.381398 
L 64.084938 37.594319 
L 66.155407 38.240735 
L 67.456844 38.451588 
L 69.349844 38.994802 
L 69.882251 38.948657 
L 70.178032 38.279475 
L 70.828751 36.65681 
L 71.479469 35.676366 
L 72.189344 35.02295 
L 73.017532 34.573039 
L 73.727407 34.397735 
L 75.028844 34.40236 
L 76.507751 34.612054 
L 77.276782 34.905568 
L 80.057126 36.476322 
L 81.121938 37.231976 
L 81.950126 37.619657 
L 82.719157 37.701623 
L 85.558657 37.758574 
L 87.215032 38.158412 
L 92.953188 39.665108 
L 93.958845 39.845407 
L 95.201126 40.03982 
L 95.556063 39.663312 
L 96.206782 39.067943 
L 97.626532 38.17398 
L 98.809657 37.623611 
L 99.519532 37.550346 
L 101.530845 37.553797 
L 103.246376 37.22767 
L 105.435157 36.869975 
L 108.274657 36.765502 
L 110.167657 37.300967 
L 112.356439 37.984864 
L 115.314251 38.296985 
L 115.96497 38.380549 
L 116.319907 37.857942 
L 117.029782 36.926408 
L 117.85797 36.249859 
L 118.981939 35.600246 
L 120.046751 35.226298 
L 120.756626 35.230272 
L 121.821439 35.249755 
L 122.531314 35.314199 
L 123.418658 35.6982 
L 124.246845 36.236837 
L 125.90322 37.383686 
L 127.855376 38.392822 
L 128.801876 38.662506 
L 131.049814 39.053542 
L 134.362564 39.309356 
L 135.959783 39.652216 
L 137.557002 40.019429 
L 138.20772 39.985507 
L 140.278189 39.778848 
L 141.224689 40.136755 
L 141.816252 40.438348 
L 141.934564 36.673213 
L 142.585283 36.737348 
L 145.069845 39.237155 
L 146.430439 40.36522 
L 146.548752 40.429544 
L 146.667064 36.673213 
L 147.376939 36.778691 
L 148.796689 37.905605 
L 149.802345 38.470037 
L 150.630533 38.709482 
L 150.867158 38.586589 
L 151.813658 37.643757 
L 152.641845 37.172641 
L 153.174252 37.077173 
L 154.120752 37.198541 
L 154.830627 37.254453 
L 157.315189 37.000676 
L 159.208189 36.758564 
L 160.273002 36.96988 
L 161.219502 37.041217 
L 162.757564 37.124814 
L 163.644908 37.385711 
L 165.064658 37.889619 
L 166.306939 38.332557 
L 170.507033 40.43638 
L 170.625346 36.673213 
L 171.276064 36.746018 
L 171.631002 36.993389 
L 172.518346 37.256767 
L 173.228221 37.189861 
L 175.417002 36.841069 
L 176.24519 36.949522 
L 177.19169 37.064333 
L 178.493127 36.93343 
L 179.735408 36.868429 
L 181.687565 36.863852 
L 182.693221 37.088362 
L 183.935502 37.603996 
L 184.882002 37.88209 
L 186.952471 38.272438 
L 187.898971 38.756072 
L 188.963783 39.34373 
L 189.732815 39.072919 
L 190.679315 39.034449 
L 192.158221 39.207018 
L 196.062534 39.616197 
L 197.363971 39.90716 
L 198.369627 39.9116 
L 202.037315 39.465901 
L 203.161284 39.327938 
L 203.812002 39.494741 
L 205.231752 40.080925 
L 205.705002 40.413492 
L 205.823315 36.673213 
L 206.474034 36.743564 
L 207.243065 37.470889 
L 207.95294 37.893759 
L 208.189565 37.877998 
L 209.076909 37.444746 
L 210.733284 37.026931 
L 211.73894 36.928376 
L 215.939034 37.301494 
L 216.708065 37.635424 
L 218.601065 38.709838 
L 219.488409 39.575909 
L 220.494065 40.435576 
L 220.612378 36.673213 
L 221.263096 36.74535 
L 222.15044 37.642855 
L 222.801159 37.981326 
L 223.747659 38.186727 
L 225.522347 38.668833 
L 227.474503 39.523366 
L 227.888597 39.490235 
L 228.066065 38.949237 
L 228.77594 36.293998 
L 229.308347 35.248368 
L 229.899909 34.577891 
L 230.609784 34.131727 
L 231.497128 33.852547 
L 232.384472 33.773156 
L 233.330972 33.955055 
L 234.159159 34.350709 
L 235.993003 35.346926 
L 236.762034 35.409747 
L 239.069128 35.446411 
L 240.962128 35.75614 
L 242.618503 35.903565 
L 243.919941 36.390845 
L 245.812941 37.389334 
L 246.522816 37.64215 
L 247.469316 37.72588 
L 249.125691 37.596931 
L 251.432784 37.446485 
L 253.444097 37.669823 
L 254.449753 37.799894 
L 255.337097 36.858464 
L 255.928659 36.602227 
L 256.520222 36.57131 
L 257.880816 36.924126 
L 259.241409 37.474614 
L 260.365378 37.915177 
L 261.252722 38.014917 
L 264.742941 37.84782 
L 265.689441 37.786437 
L 266.281003 37.805344 
L 266.281003 37.805344 
" clip-path="url(#p4788a8aa08)" style="fill: none; stroke-dasharray: 0.7,1.155; stroke-dashoffset: 0; stroke: #bbbbbb; stroke-width: 0.7"/>
   </g>
   <g id="patch_3">
    <path d="M 29.715156 124.96125 
L 29.715156 13.90125 
" style="fill: none; stroke: #1a1a1a; stroke-width: 0.8; stroke-linejoin: miter; stroke-linecap: square"/>
   </g>
   <g id="patch_4">
    <path d="M 266.34016 124.96125 
L 266.34016 13.90125 
" style="fill: none; stroke: #1a1a1a; stroke-width: 0.8; stroke-linejoin: miter; stroke-linecap: square"/>
   </g>
   <g id="patch_5">
    <path d="M 29.715156 124.96125 
L 266.34016 124.96125 
" style="fill: none; stroke: #1a1a1a; stroke-width: 0.8; stroke-linejoin: miter; stroke-linecap: square"/>
   </g>
   <g id="patch_6">
    <path d="M 29.715156 13.90125 
L 266.34016 13.90125 
" style="fill: none; stroke: #1a1a1a; stroke-width: 0.8; stroke-linejoin: miter; stroke-linecap: square"/>
   </g>
   <g id="text_16">
    <!-- PING · E-neuron signed currents (cell 73) -->
    <g style="fill: #1a1a1a" transform="translate(29.715156 7.90125) scale(0.08 -0.08)">
     <defs>
      <path id="Menlo-Regular-50" d="M 1247 4147 
L 1247 2394 
L 1978 2394 
Q 2416 2394 2661 2625 
Q 2906 2856 2906 3272 
Q 2906 3688 2662 3917 
Q 2419 4147 1978 4147 
L 1247 4147 
z
M 616 4666 
L 1978 4666 
Q 2759 4666 3162 4311 
Q 3566 3956 3566 3272 
Q 3566 2581 3164 2228 
Q 2763 1875 1978 1875 
L 1247 1875 
L 1247 0 
L 616 0 
L 616 4666 
z
" transform="scale(0.015625)"/>
      <path id="Menlo-Regular-4e" d="M 59 4650 
L 922 4650 
L 2747 822 
L 2747 4650 
L 3419 4650 
L 3419 0 
L 2556 0 
L 731 3828 
L 731 0 
L 59 0 
L 59 4650 
z
" transform="scale(0.015625)"/>
      <path id="Menlo-Regular-47" d="M 3450 384 
Q 3197 150 2880 29 
Q 2563 -91 2194 -91 
Q 1306 -91 812 545 
Q 319 1181 319 2328 
Q 319 3472 819 4111 
Q 1319 4750 2209 4750 
Q 2503 4750 2772 4667 
Q 3041 4584 3291 4416 
L 3291 3769 
Q 3038 4009 2772 4123 
Q 2506 4238 2209 4238 
Q 1594 4238 1286 3761 
Q 978 3284 978 2328 
Q 978 1356 1276 889 
Q 1575 422 2194 422 
Q 2403 422 2561 470 
Q 2719 519 2847 622 
L 2847 1875 
L 2169 1875 
L 2169 2394 
L 3450 2394 
L 3450 384 
z
" transform="scale(0.015625)"/>
      <path id="Menlo-Regular-b7" d="M 1528 2700 
L 2316 2700 
L 2316 1747 
L 1528 1747 
L 1528 2700 
z
" transform="scale(0.015625)"/>
      <path id="Menlo-Regular-45" d="M 616 4666 
L 3384 4666 
L 3384 4134 
L 1247 4134 
L 1247 2878 
L 3291 2878 
L 3291 2347 
L 1247 2347 
L 1247 531 
L 3444 531 
L 3444 0 
L 616 0 
L 616 4666 
z
" transform="scale(0.015625)"/>
      <path id="Menlo-Regular-2d" d="M 319 2263 
L 3631 2263 
L 3631 1734 
L 319 1734 
L 319 2263 
z
" transform="scale(0.015625)"/>
      <path id="Menlo-Regular-75" d="M 609 1325 
L 609 3494 
L 1184 3494 
L 1184 1325 
Q 1184 853 1351 631 
Q 1519 409 1869 409 
Q 2275 409 2490 695 
Q 2706 981 2706 1516 
L 2706 3494 
L 3284 3494 
L 3284 0 
L 2706 0 
L 2706 525 
Q 2553 222 2289 65 
Q 2025 -91 1672 -91 
Q 1134 -91 871 261 
Q 609 613 609 1325 
z
" transform="scale(0.015625)"/>
      <path id="Menlo-Regular-67" d="M 2681 1778 
Q 2681 2425 2470 2761 
Q 2259 3097 1856 3097 
Q 1434 3097 1212 2761 
Q 991 2425 991 1778 
Q 991 1131 1214 792 
Q 1438 453 1863 453 
Q 2259 453 2470 793 
Q 2681 1134 2681 1778 
z
M 3256 225 
Q 3256 -563 2884 -969 
Q 2513 -1375 1791 -1375 
Q 1553 -1375 1293 -1331 
Q 1034 -1288 775 -1203 
L 775 -634 
Q 1081 -778 1331 -847 
Q 1581 -916 1791 -916 
Q 2256 -916 2468 -662 
Q 2681 -409 2681 141 
L 2681 166 
L 2681 556 
Q 2544 263 2306 119 
Q 2069 -25 1728 -25 
Q 1116 -25 750 465 
Q 384 956 384 1778 
Q 384 2603 750 3093 
Q 1116 3584 1728 3584 
Q 2066 3584 2300 3450 
Q 2534 3316 2681 3034 
L 2681 3488 
L 3256 3488 
L 3256 225 
z
" transform="scale(0.015625)"/>
      <path id="Menlo-Regular-63" d="M 3316 178 
Q 3084 44 2839 -23 
Q 2594 -91 2338 -91 
Q 1525 -91 1067 396 
Q 609 884 609 1747 
Q 609 2609 1067 3096 
Q 1525 3584 2338 3584 
Q 2591 3584 2831 3518 
Q 3072 3453 3316 3316 
L 3316 2713 
Q 3088 2916 2858 3006 
Q 2628 3097 2338 3097 
Q 1797 3097 1506 2747 
Q 1216 2397 1216 1747 
Q 1216 1100 1508 748 
Q 1800 397 2338 397 
Q 2638 397 2875 489 
Q 3113 581 3316 775 
L 3316 178 
z
" transform="scale(0.015625)"/>
      <path id="Menlo-Regular-37" d="M 434 4666 
L 3372 4666 
L 3372 4397 
L 1703 0 
L 1044 0 
L 2669 4134 
L 434 4134 
L 434 4666 
z
" transform="scale(0.015625)"/>
     </defs>
     <use xlink:href="#Menlo-Regular-50"/>
     <use xlink:href="#Menlo-Regular-49" transform="translate(60.205078 0)"/>
     <use xlink:href="#Menlo-Regular-4e" transform="translate(120.410156 0)"/>
     <use xlink:href="#Menlo-Regular-47" transform="translate(180.615234 0)"/>
     <use xlink:href="#Menlo-Regular-20" transform="translate(240.820312 0)"/>
     <use xlink:href="#Menlo-Regular-b7" transform="translate(301.025391 0)"/>
     <use xlink:href="#Menlo-Regular-20" transform="translate(361.230469 0)"/>
     <use xlink:href="#Menlo-Regular-45" transform="translate(421.435547 0)"/>
     <use xlink:href="#Menlo-Regular-2d" transform="translate(481.640625 0)"/>
     <use xlink:href="#Menlo-Regular-6e" transform="translate(541.845703 0)"/>
     <use xlink:href="#Menlo-Regular-65" transform="translate(602.050781 0)"/>
     <use xlink:href="#Menlo-Regular-75" transform="translate(662.255859 0)"/>
     <use xlink:href="#Menlo-Regular-72" transform="translate(722.460938 0)"/>
     <use xlink:href="#Menlo-Regular-6f" transform="translate(782.666016 0)"/>
     <use xlink:href="#Menlo-Regular-6e" transform="translate(842.871094 0)"/>
     <use xlink:href="#Menlo-Regular-20" transform="translate(903.076172 0)"/>
     <use xlink:href="#Menlo-Regular-73" transform="translate(963.28125 0)"/>
     <use xlink:href="#Menlo-Regular-69" transform="translate(1023.486328 0)"/>
     <use xlink:href="#Menlo-Regular-67" transform="translate(1083.691406 0)"/>
     <use xlink:href="#Menlo-Regular-6e" transform="translate(1143.896484 0)"/>
     <use xlink:href="#Menlo-Regular-65" transform="translate(1204.101562 0)"/>
     <use xlink:href="#Menlo-Regular-64" transform="translate(1264.306641 0)"/>
     <use xlink:href="#Menlo-Regular-20" transform="translate(1324.511719 0)"/>
     <use xlink:href="#Menlo-Regular-63" transform="translate(1384.716797 0)"/>
     <use xlink:href="#Menlo-Regular-75" transform="translate(1444.921875 0)"/>
     <use xlink:href="#Menlo-Regular-72" transform="translate(1505.126953 0)"/>
     <use xlink:href="#Menlo-Regular-72" transform="translate(1565.332031 0)"/>
     <use xlink:href="#Menlo-Regular-65" transform="translate(1625.537109 0)"/>
     <use xlink:href="#Menlo-Regular-6e" transform="translate(1685.742188 0)"/>
     <use xlink:href="#Menlo-Regular-74" transform="translate(1745.947266 0)"/>
     <use xlink:href="#Menlo-Regular-73" transform="translate(1806.152344 0)"/>
     <use xlink:href="#Menlo-Regular-20" transform="translate(1866.357422 0)"/>
     <use xlink:href="#Menlo-Regular-28" transform="translate(1926.5625 0)"/>
     <use xlink:href="#Menlo-Regular-63" transform="translate(1986.767578 0)"/>
     <use xlink:href="#Menlo-Regular-65" transform="translate(2046.972656 0)"/>
     <use xlink:href="#Menlo-Regular-6c" transform="translate(2107.177734 0)"/>
     <use xlink:href="#Menlo-Regular-6c" transform="translate(2167.382812 0)"/>
     <use xlink:href="#Menlo-Regular-20" transform="translate(2227.587891 0)"/>
     <use xlink:href="#Menlo-Regular-37" transform="translate(2287.792969 0)"/>
     <use xlink:href="#Menlo-Regular-33" transform="translate(2347.998047 0)"/>
     <use xlink:href="#Menlo-Regular-29" transform="translate(2408.203125 0)"/>
    </g>
   </g>
   <g id="legend_1">
    <g id="patch_7">
     <path d="M 164.584222 51.104062 
L 262.84016 51.104062 
L 262.84016 17.40125 
L 164.584222 17.40125 
z
" style="fill: #ffffff; stroke: #1a1a1a; stroke-width: 0.8; stroke-linejoin: miter"/>
    </g>
    <g id="line2d_18">
     <path d="M 167.384222 23.404844 
L 172.984222 23.404844 
L 178.584222 23.404844 
" style="fill: none; stroke: #1a1a1a; stroke-width: 0.9; stroke-linejoin: miter"/>
    </g>
    <g id="text_17">
     <!-- I_E in (depol.) -->
     <g style="fill: #1a1a1a" transform="translate(184.184222 25.854844) scale(0.07 -0.07)">
      <defs>
       <path id="Menlo-Regular-5f" d="M 3825 -594 
L 3825 -1125 
L 0 -1125 
L 0 -594 
L 3825 -594 
z
" transform="scale(0.015625)"/>
      </defs>
      <use xlink:href="#Menlo-Regular-49"/>
      <use xlink:href="#Menlo-Regular-5f" transform="translate(60.205078 0)"/>
      <use xlink:href="#Menlo-Regular-45" transform="translate(120.410156 0)"/>
      <use xlink:href="#Menlo-Regular-20" transform="translate(180.615234 0)"/>
      <use xlink:href="#Menlo-Regular-69" transform="translate(240.820312 0)"/>
      <use xlink:href="#Menlo-Regular-6e" transform="translate(301.025391 0)"/>
      <use xlink:href="#Menlo-Regular-20" transform="translate(361.230469 0)"/>
      <use xlink:href="#Menlo-Regular-28" transform="translate(421.435547 0)"/>
      <use xlink:href="#Menlo-Regular-64" transform="translate(481.640625 0)"/>
      <use xlink:href="#Menlo-Regular-65" transform="translate(541.845703 0)"/>
      <use xlink:href="#Menlo-Regular-70" transform="translate(602.050781 0)"/>
      <use xlink:href="#Menlo-Regular-6f" transform="translate(662.255859 0)"/>
      <use xlink:href="#Menlo-Regular-6c" transform="translate(722.460938 0)"/>
      <use xlink:href="#Menlo-Regular-2e" transform="translate(782.666016 0)"/>
      <use xlink:href="#Menlo-Regular-29" transform="translate(842.871094 0)"/>
     </g>
    </g>
    <g id="line2d_19">
     <path d="M 167.384222 34.014219 
L 172.984222 34.014219 
L 178.584222 34.014219 
" style="fill: none; stroke: #c8102e; stroke-width: 0.9; stroke-linejoin: miter"/>
    </g>
    <g id="text_18">
     <!-- I_I in (hyperpol.) -->
     <g style="fill: #1a1a1a" transform="translate(184.184222 36.464219) scale(0.07 -0.07)">
      <use xlink:href="#Menlo-Regular-49"/>
      <use xlink:href="#Menlo-Regular-5f" transform="translate(60.205078 0)"/>
      <use xlink:href="#Menlo-Regular-49" transform="translate(120.410156 0)"/>
      <use xlink:href="#Menlo-Regular-20" transform="translate(180.615234 0)"/>
      <use xlink:href="#Menlo-Regular-69" transform="translate(240.820312 0)"/>
      <use xlink:href="#Menlo-Regular-6e" transform="translate(301.025391 0)"/>
      <use xlink:href="#Menlo-Regular-20" transform="translate(361.230469 0)"/>
      <use xlink:href="#Menlo-Regular-28" transform="translate(421.435547 0)"/>
      <use xlink:href="#Menlo-Regular-68" transform="translate(481.640625 0)"/>
      <use xlink:href="#Menlo-Regular-79" transform="translate(541.845703 0)"/>
      <use xlink:href="#Menlo-Regular-70" transform="translate(602.050781 0)"/>
      <use xlink:href="#Menlo-Regular-65" transform="translate(662.255859 0)"/>
      <use xlink:href="#Menlo-Regular-72" transform="translate(722.460938 0)"/>
      <use xlink:href="#Menlo-Regular-70" transform="translate(782.666016 0)"/>
      <use xlink:href="#Menlo-Regular-6f" transform="translate(842.871094 0)"/>
      <use xlink:href="#Menlo-Regular-6c" transform="translate(903.076172 0)"/>
      <use xlink:href="#Menlo-Regular-2e" transform="translate(963.28125 0)"/>
      <use xlink:href="#Menlo-Regular-29" transform="translate(1023.486328 0)"/>
     </g>
    </g>
    <g id="line2d_20">
     <path d="M 167.384222 44.398281 
L 172.984222 44.398281 
L 178.584222 44.398281 
" style="fill: none; stroke-dasharray: 0.7,1.155; stroke-dashoffset: 0; stroke: #bbbbbb; stroke-width: 0.7"/>
    </g>
    <g id="text_19">
     <!-- I_L in (leak) -->
     <g style="fill: #1a1a1a" transform="translate(184.184222 46.848281) scale(0.07 -0.07)">
      <defs>
       <path id="Menlo-Regular-4c" d="M 672 4666 
L 1306 4666 
L 1306 531 
L 3559 531 
L 3559 0 
L 672 0 
L 672 4666 
z
" transform="scale(0.015625)"/>
       <path id="Menlo-Regular-61" d="M 2194 1759 
L 2003 1759 
Q 1500 1759 1245 1582 
Q 991 1406 991 1056 
Q 991 741 1181 566 
Q 1372 391 1709 391 
Q 2184 391 2456 720 
Q 2728 1050 2731 1631 
L 2731 1759 
L 2194 1759 
z
M 3309 1997 
L 3309 0 
L 2731 0 
L 2731 519 
Q 2547 206 2267 57 
Q 1988 -91 1588 -91 
Q 1053 -91 734 211 
Q 416 513 416 1019 
Q 416 1603 808 1906 
Q 1200 2209 1959 2209 
L 2731 2209 
L 2731 2300 
Q 2728 2719 2518 2908 
Q 2309 3097 1850 3097 
Q 1556 3097 1256 3012 
Q 956 2928 672 2766 
L 672 3341 
Q 991 3463 1283 3523 
Q 1575 3584 1850 3584 
Q 2284 3584 2592 3456 
Q 2900 3328 3091 3072 
Q 3209 2916 3259 2686 
Q 3309 2456 3309 1997 
z
" transform="scale(0.015625)"/>
       <path id="Menlo-Regular-6b" d="M 738 4863 
L 1331 4863 
L 1331 2047 
L 2841 3500 
L 3541 3500 
L 2163 2181 
L 3756 0 
L 3053 0 
L 1759 1806 
L 1331 1403 
L 1331 0 
L 738 0 
L 738 4863 
z
" transform="scale(0.015625)"/>
      </defs>
      <use xlink:href="#Menlo-Regular-49"/>
      <use xlink:href="#Menlo-Regular-5f" transform="translate(60.205078 0)"/>
      <use xlink:href="#Menlo-Regular-4c" transform="translate(120.410156 0)"/>
      <use xlink:href="#Menlo-Regular-20" transform="translate(180.615234 0)"/>
      <use xlink:href="#Menlo-Regular-69" transform="translate(240.820312 0)"/>
      <use xlink:href="#Menlo-Regular-6e" transform="translate(301.025391 0)"/>
      <use xlink:href="#Menlo-Regular-20" transform="translate(361.230469 0)"/>
      <use xlink:href="#Menlo-Regular-28" transform="translate(421.435547 0)"/>
      <use xlink:href="#Menlo-Regular-6c" transform="translate(481.640625 0)"/>
      <use xlink:href="#Menlo-Regular-65" transform="translate(541.845703 0)"/>
      <use xlink:href="#Menlo-Regular-61" transform="translate(602.050781 0)"/>
      <use xlink:href="#Menlo-Regular-6b" transform="translate(662.255859 0)"/>
      <use xlink:href="#Menlo-Regular-29" transform="translate(722.460938 0)"/>
     </g>
    </g>
   </g>
  </g>
 </g>
 <defs>
  <clipPath id="p4788a8aa08">
   <rect x="29.715156" y="13.90125" width="236.625003" height="111.06"/>
  </clipPath>
 </defs>
</svg>
