<?xml version="1.0" encoding="utf-8" standalone="no"?>
<!DOCTYPE svg PUBLIC "-//W3C//DTD SVG 1.1//EN"
  "http://www.w3.org/Graphics/SVG/1.1/DTD/svg11.dtd">
<svg xmlns:xlink="http://www.w3.org/1999/xlink" width="471.24pt" height="106.924453pt" viewBox="0 0 471.24 106.924453" xmlns="http://www.w3.org/2000/svg" version="1.1">
 <metadata>
  <rdf:RDF xmlns:dc="http://purl.org/dc/elements/1.1/" xmlns:cc="http://creativecommons.org/ns#" xmlns:rdf="http://www.w3.org/1999/02/22-rdf-syntax-ns#">
   <cc:Work>
    <dc:type rdf:resource="http://purl.org/dc/dcmitype/StillImage"/>
    <dc:date>2026-06-29T14:02:15.875249</dc:date>
    <dc:format>image/svg+xml</dc:format>
    <dc:creator>
     <cc:Agent>
      <dc:title>Matplotlib v3.10.8, https://matplotlib.org/</dc:title>
     </cc:Agent>
    </dc:creator>
   </cc:Work>
  </rdf:RDF>
 </metadata>
 <defs>
  <style type="text/css">*{stroke-linejoin: round; stroke-linecap: butt}</style>
 </defs>
 <g id="figure_1">
  <g id="patch_1">
   <path d="M 0 106.924453 
L 471.24 106.924453 
L 471.24 0 
L 0 0 
z
" style="fill: #ffffff"/>
  </g>
  <g id="axes_1">
   <g id="patch_2">
    <path d="M 29.715156 83.425078 
L 146.842656 83.425078 
L 146.842656 14.305078 
L 29.715156 14.305078 
z
" style="fill: #ffffff"/>
   </g>
   <g id="matplotlib.axis_1">
    <g id="xtick_1">
     <g id="line2d_1">
      <defs>
       <path id="md1c0b6d271" d="M 0 0 
L 0 -3 
" style="stroke: #1a1a1a; stroke-width: 0.8"/>
      </defs>
      <g>
       <use xlink:href="#md1c0b6d271" x="29.715156" y="83.425078" style="fill: #1a1a1a; stroke: #1a1a1a; stroke-width: 0.8"/>
      </g>
     </g>
     <g id="text_1">
      <!-- 0 -->
      <g style="fill: #1a1a1a" transform="translate(27.608047 92.263672) scale(0.07 -0.07)">
       <defs>
        <path id="Menlo-Regular-30" d="M 1925 4734 
Q 2672 4734 3055 4125 
Q 3438 3516 3438 2322 
Q 3438 1128 3055 518 
Q 2672 -91 1925 -91 
Q 1178 -91 797 518 
Q 416 1128 416 2322 
Q 416 3516 797 4125 
Q 1178 4734 1925 4734 
z
M 1925 409 
Q 2369 409 2586 881 
Q 2803 1353 2803 2322 
Q 2803 2838 2741 3253 
L 1253 925 
Q 1488 409 1925 409 
z
M 1925 4234 
Q 1484 4234 1267 3762 
Q 1050 3291 1050 2322 
Q 1050 1881 1109 1497 
L 2566 3819 
Q 2328 4234 1925 4234 
z
" transform="scale(0.015625)"/>
       </defs>
       <use xlink:href="#Menlo-Regular-30"/>
      </g>
     </g>
    </g>
    <g id="xtick_2">
     <g id="line2d_2">
      <g>
       <use xlink:href="#md1c0b6d271" x="58.997031" y="83.425078" style="fill: #1a1a1a; stroke: #1a1a1a; stroke-width: 0.8"/>
      </g>
     </g>
     <g id="text_2">
      <!-- 100 -->
      <g style="fill: #1a1a1a" transform="translate(52.675703 92.263672) scale(0.07 -0.07)">
       <defs>
        <path id="Menlo-Regular-31" d="M 844 528 
L 1825 528 
L 1825 4053 
L 650 3488 
L 650 4094 
L 1819 4650 
L 2450 4650 
L 2450 528 
L 3419 528 
L 3419 0 
L 844 0 
L 844 528 
z
" transform="scale(0.015625)"/>
       </defs>
       <use xlink:href="#Menlo-Regular-31"/>
       <use xlink:href="#Menlo-Regular-30" transform="translate(60.205078 0)"/>
       <use xlink:href="#Menlo-Regular-30" transform="translate(120.410156 0)"/>
      </g>
     </g>
    </g>
    <g id="xtick_3">
     <g id="line2d_3">
      <g>
       <use xlink:href="#md1c0b6d271" x="88.278906" y="83.425078" style="fill: #1a1a1a; stroke: #1a1a1a; stroke-width: 0.8"/>
      </g>
     </g>
     <g id="text_3">
      <!-- 200 -->
      <g style="fill: #1a1a1a" transform="translate(81.957578 92.263672) scale(0.07 -0.07)">
       <defs>
        <path id="Menlo-Regular-32" d="M 1166 531 
L 3309 531 
L 3309 0 
L 475 0 
L 475 531 
Q 1059 1147 1496 1619 
Q 1934 2091 2100 2284 
Q 2413 2666 2522 2902 
Q 2631 3138 2631 3384 
Q 2631 3775 2401 3997 
Q 2172 4219 1772 4219 
Q 1488 4219 1175 4116 
Q 863 4013 513 3803 
L 513 4441 
Q 834 4594 1145 4672 
Q 1456 4750 1759 4750 
Q 2444 4750 2861 4386 
Q 3278 4022 3278 3431 
Q 3278 3131 3139 2831 
Q 3000 2531 2688 2169 
Q 2513 1966 2180 1606 
Q 1847 1247 1166 531 
z
" transform="scale(0.015625)"/>
       </defs>
       <use xlink:href="#Menlo-Regular-32"/>
       <use xlink:href="#Menlo-Regular-30" transform="translate(60.205078 0)"/>
       <use xlink:href="#Menlo-Regular-30" transform="translate(120.410156 0)"/>
      </g>
     </g>
    </g>
    <g id="xtick_4">
     <g id="line2d_4">
      <g>
       <use xlink:href="#md1c0b6d271" x="117.560781" y="83.425078" style="fill: #1a1a1a; stroke: #1a1a1a; stroke-width: 0.8"/>
      </g>
     </g>
     <g id="text_4">
      <!-- 300 -->
      <g style="fill: #1a1a1a" transform="translate(111.239453 92.263672) scale(0.07 -0.07)">
       <defs>
        <path id="Menlo-Regular-33" d="M 2425 2497 
Q 2884 2375 3128 2064 
Q 3372 1753 3372 1288 
Q 3372 644 2939 276 
Q 2506 -91 1741 -91 
Q 1419 -91 1084 -31 
Q 750 28 428 141 
L 428 769 
Q 747 603 1056 522 
Q 1366 441 1672 441 
Q 2191 441 2469 675 
Q 2747 909 2747 1350 
Q 2747 1756 2469 1995 
Q 2191 2234 1716 2234 
L 1234 2234 
L 1234 2753 
L 1716 2753 
Q 2150 2753 2394 2943 
Q 2638 3134 2638 3475 
Q 2638 3834 2411 4026 
Q 2184 4219 1766 4219 
Q 1488 4219 1191 4156 
Q 894 4094 569 3969 
L 569 4550 
Q 947 4650 1242 4700 
Q 1538 4750 1766 4750 
Q 2447 4750 2855 4408 
Q 3263 4066 3263 3500 
Q 3263 3116 3048 2859 
Q 2834 2603 2425 2497 
z
" transform="scale(0.015625)"/>
       </defs>
       <use xlink:href="#Menlo-Regular-33"/>
       <use xlink:href="#Menlo-Regular-30" transform="translate(60.205078 0)"/>
       <use xlink:href="#Menlo-Regular-30" transform="translate(120.410156 0)"/>
      </g>
     </g>
    </g>
    <g id="xtick_5">
     <g id="line2d_5">
      <g>
       <use xlink:href="#md1c0b6d271" x="146.842656" y="83.425078" style="fill: #1a1a1a; stroke: #1a1a1a; stroke-width: 0.8"/>
      </g>
     </g>
     <g id="text_5">
      <!-- 400 -->
      <g style="fill: #1a1a1a" transform="translate(140.521328 92.263672) scale(0.07 -0.07)">
       <defs>
        <path id="Menlo-Regular-34" d="M 2297 4091 
L 825 1625 
L 2297 1625 
L 2297 4091 
z
M 2194 4666 
L 2925 4666 
L 2925 1625 
L 3547 1625 
L 3547 1113 
L 2925 1113 
L 2925 0 
L 2297 0 
L 2297 1113 
L 319 1113 
L 319 1709 
L 2194 4666 
z
" transform="scale(0.015625)"/>
       </defs>
       <use xlink:href="#Menlo-Regular-34"/>
       <use xlink:href="#Menlo-Regular-30" transform="translate(60.205078 0)"/>
       <use xlink:href="#Menlo-Regular-30" transform="translate(120.410156 0)"/>
      </g>
     </g>
    </g>
    <g id="text_6">
     <!-- time (ms) -->
     <g style="fill: #1a1a1a" transform="translate(66.605781 103.820703) scale(0.08 -0.08)">
      <defs>
       <path id="Menlo-Regular-74" d="M 1919 4494 
L 1919 3500 
L 3225 3500 
L 3225 3053 
L 1919 3053 
L 1919 1153 
Q 1919 766 2066 612 
Q 2213 459 2578 459 
L 3225 459 
L 3225 0 
L 2522 0 
Q 1875 0 1609 259 
Q 1344 519 1344 1153 
L 1344 3053 
L 409 3053 
L 409 3500 
L 1344 3500 
L 1344 4494 
L 1919 4494 
z
" transform="scale(0.015625)"/>
       <path id="Menlo-Regular-69" d="M 988 3488 
L 2459 3488 
L 2459 447 
L 3600 447 
L 3600 0 
L 744 0 
L 744 447 
L 1884 447 
L 1884 3041 
L 988 3041 
L 988 3488 
z
M 1884 4847 
L 2459 4847 
L 2459 4122 
L 1884 4122 
L 1884 4847 
z
" transform="scale(0.015625)"/>
       <path id="Menlo-Regular-6d" d="M 2113 3144 
Q 2219 3369 2383 3476 
Q 2547 3584 2778 3584 
Q 3200 3584 3373 3257 
Q 3547 2931 3547 2028 
L 3547 0 
L 3022 0 
L 3022 2003 
Q 3022 2744 2939 2923 
Q 2856 3103 2638 3103 
Q 2388 3103 2295 2911 
Q 2203 2719 2203 2003 
L 2203 0 
L 1678 0 
L 1678 2003 
Q 1678 2753 1589 2928 
Q 1500 3103 1269 3103 
Q 1041 3103 952 2911 
Q 863 2719 863 2003 
L 863 0 
L 341 0 
L 341 3500 
L 863 3500 
L 863 3200 
Q 966 3388 1120 3486 
Q 1275 3584 1472 3584 
Q 1709 3584 1867 3475 
Q 2025 3366 2113 3144 
z
" transform="scale(0.015625)"/>
       <path id="Menlo-Regular-65" d="M 3500 2038 
L 3500 1756 
L 1009 1756 
L 1009 1738 
Q 984 1022 1282 709 
Q 1581 397 2125 397 
Q 2400 397 2700 484 
Q 3000 572 3341 750 
L 3341 178 
Q 3013 44 2708 -23 
Q 2403 -91 2119 -91 
Q 1303 -91 843 398 
Q 384 888 384 1747 
Q 384 2584 834 3084 
Q 1284 3584 2034 3584 
Q 2703 3584 3089 3131 
Q 3475 2678 3500 2038 
z
M 2925 2206 
Q 2888 2569 2661 2833 
Q 2434 3097 2009 3097 
Q 1594 3097 1325 2822 
Q 1056 2547 1031 2203 
L 2925 2206 
z
" transform="scale(0.015625)"/>
       <path id="Menlo-Regular-20" transform="scale(0.015625)"/>
       <path id="Menlo-Regular-28" d="M 2672 5169 
Q 2256 4456 2051 3748 
Q 1847 3041 1847 2322 
Q 1847 1606 2051 897 
Q 2256 188 2672 -531 
L 2172 -531 
Q 1700 213 1469 917 
Q 1238 1622 1238 2322 
Q 1238 3019 1469 3725 
Q 1700 4431 2172 5169 
L 2672 5169 
z
" transform="scale(0.015625)"/>
       <path id="Menlo-Regular-73" d="M 3041 3378 
L 3041 2816 
Q 2794 2959 2544 3031 
Q 2294 3103 2034 3103 
Q 1644 3103 1451 2976 
Q 1259 2850 1259 2591 
Q 1259 2356 1403 2240 
Q 1547 2125 2119 2016 
L 2350 1972 
Q 2778 1891 2998 1647 
Q 3219 1403 3219 1013 
Q 3219 494 2850 201 
Q 2481 -91 1825 -91 
Q 1566 -91 1281 -36 
Q 997 19 666 128 
L 666 722 
Q 988 556 1281 473 
Q 1575 391 1838 391 
Q 2219 391 2428 545 
Q 2638 700 2638 978 
Q 2638 1378 1872 1531 
L 1847 1538 
L 1631 1581 
Q 1134 1678 906 1908 
Q 678 2138 678 2534 
Q 678 3038 1018 3311 
Q 1359 3584 1991 3584 
Q 2272 3584 2531 3532 
Q 2791 3481 3041 3378 
z
" transform="scale(0.015625)"/>
       <path id="Menlo-Regular-29" d="M 1088 5169 
L 1588 5169 
Q 2059 4431 2290 3725 
Q 2522 3019 2522 2322 
Q 2522 1619 2290 912 
Q 2059 206 1588 -531 
L 1088 -531 
Q 1503 194 1708 903 
Q 1913 1613 1913 2322 
Q 1913 3034 1708 3743 
Q 1503 4453 1088 5169 
z
" transform="scale(0.015625)"/>
      </defs>
      <use xlink:href="#Menlo-Regular-74"/>
      <use xlink:href="#Menlo-Regular-69" transform="translate(60.205078 0)"/>
      <use xlink:href="#Menlo-Regular-6d" transform="translate(120.410156 0)"/>
      <use xlink:href="#Menlo-Regular-65" transform="translate(180.615234 0)"/>
      <use xlink:href="#Menlo-Regular-20" transform="translate(240.820312 0)"/>
      <use xlink:href="#Menlo-Regular-28" transform="translate(301.025391 0)"/>
      <use xlink:href="#Menlo-Regular-6d" transform="translate(361.230469 0)"/>
      <use xlink:href="#Menlo-Regular-73" transform="translate(421.435547 0)"/>
      <use xlink:href="#Menlo-Regular-29" transform="translate(481.640625 0)"/>
     </g>
    </g>
   </g>
   <g id="matplotlib.axis_2">
    <g id="ytick_1">
     <g id="line2d_6">
      <defs>
       <path id="mcb6d7126fd" d="M 0 0 
L 3 0 
" style="stroke: #1a1a1a; stroke-width: 0.8"/>
      </defs>
      <g>
       <use xlink:href="#mcb6d7126fd" x="29.715156" y="79.650345" style="fill: #1a1a1a; stroke: #1a1a1a; stroke-width: 0.8"/>
      </g>
     </g>
     <g id="text_7">
      <!-- −40 -->
      <g style="fill: #1a1a1a" transform="translate(13.5725 82.319642) scale(0.07 -0.07)">
       <defs>
        <path id="Menlo-Regular-2212" d="M 275 2272 
L 3578 2272 
L 3578 1741 
L 275 1741 
L 275 2272 
z
" transform="scale(0.015625)"/>
       </defs>
       <use xlink:href="#Menlo-Regular-2212"/>
       <use xlink:href="#Menlo-Regular-34" transform="translate(60.205078 0)"/>
       <use xlink:href="#Menlo-Regular-30" transform="translate(120.410156 0)"/>
      </g>
     </g>
    </g>
    <g id="ytick_2">
     <g id="line2d_7">
      <g>
       <use xlink:href="#mcb6d7126fd" x="29.715156" y="56.22481" style="fill: #1a1a1a; stroke: #1a1a1a; stroke-width: 0.8"/>
      </g>
     </g>
     <g id="text_8">
      <!-- −20 -->
      <g style="fill: #1a1a1a" transform="translate(13.5725 58.894107) scale(0.07 -0.07)">
       <use xlink:href="#Menlo-Regular-2212"/>
       <use xlink:href="#Menlo-Regular-32" transform="translate(60.205078 0)"/>
       <use xlink:href="#Menlo-Regular-30" transform="translate(120.410156 0)"/>
      </g>
     </g>
    </g>
    <g id="ytick_3">
     <g id="line2d_8">
      <g>
       <use xlink:href="#mcb6d7126fd" x="29.715156" y="32.799275" style="fill: #1a1a1a; stroke: #1a1a1a; stroke-width: 0.8"/>
      </g>
     </g>
     <g id="text_9">
      <!-- 0 -->
      <g style="fill: #1a1a1a" transform="translate(22.000938 35.468572) scale(0.07 -0.07)">
       <use xlink:href="#Menlo-Regular-30"/>
      </g>
     </g>
    </g>
    <g id="text_10">
     <!-- I in  [+ depol. / − hyperpol.] -->
     <g style="fill: #1a1a1a" transform="translate(7.90875 121.108828) rotate(-90) scale(0.08 -0.08)">
      <defs>
       <path id="Menlo-Regular-49" d="M 628 4666 
L 3219 4666 
L 3219 4134 
L 2241 4134 
L 2241 531 
L 3219 531 
L 3219 0 
L 628 0 
L 628 531 
L 1606 531 
L 1606 4134 
L 628 4134 
L 628 4666 
z
" transform="scale(0.015625)"/>
       <path id="Menlo-Regular-6e" d="M 3284 2169 
L 3284 0 
L 2706 0 
L 2706 2169 
Q 2706 2641 2540 2862 
Q 2375 3084 2022 3084 
Q 1619 3084 1401 2798 
Q 1184 2513 1184 1978 
L 1184 0 
L 609 0 
L 609 3500 
L 1184 3500 
L 1184 2975 
Q 1338 3275 1600 3429 
Q 1863 3584 2222 3584 
Q 2756 3584 3020 3232 
Q 3284 2881 3284 2169 
z
" transform="scale(0.015625)"/>
       <path id="Menlo-Regular-5b" d="M 1759 5175 
L 3084 5175 
L 3084 4728 
L 2334 4728 
L 2334 -84 
L 3084 -84 
L 3084 -531 
L 1759 -531 
L 1759 5175 
z
" transform="scale(0.015625)"/>
       <path id="Menlo-Regular-2b" d="M 2250 3681 
L 2250 2297 
L 3641 2297 
L 3641 1769 
L 2250 1769 
L 2250 384 
L 1725 384 
L 1725 1769 
L 338 1769 
L 338 2297 
L 1725 2297 
L 1725 3681 
L 2250 3681 
z
" transform="scale(0.015625)"/>
       <path id="Menlo-Regular-64" d="M 2681 3053 
L 2681 4863 
L 3256 4863 
L 3256 0 
L 2681 0 
L 2681 441 
Q 2538 181 2298 45 
Q 2059 -91 1747 -91 
Q 1113 -91 748 401 
Q 384 894 384 1759 
Q 384 2613 750 3098 
Q 1116 3584 1747 3584 
Q 2063 3584 2303 3448 
Q 2544 3313 2681 3053 
z
M 991 1747 
Q 991 1078 1203 737 
Q 1416 397 1831 397 
Q 2247 397 2464 740 
Q 2681 1084 2681 1747 
Q 2681 2413 2464 2755 
Q 2247 3097 1831 3097 
Q 1416 3097 1203 2756 
Q 991 2416 991 1747 
z
" transform="scale(0.015625)"/>
       <path id="Menlo-Regular-70" d="M 1172 441 
L 1172 -1331 
L 594 -1331 
L 594 3500 
L 1172 3500 
L 1172 3053 
Q 1316 3313 1555 3448 
Q 1794 3584 2106 3584 
Q 2741 3584 3102 3093 
Q 3463 2603 3463 1734 
Q 3463 881 3100 395 
Q 2738 -91 2106 -91 
Q 1788 -91 1548 45 
Q 1309 181 1172 441 
z
M 2859 1747 
Q 2859 2416 2648 2756 
Q 2438 3097 2022 3097 
Q 1603 3097 1387 2755 
Q 1172 2413 1172 1747 
Q 1172 1084 1387 740 
Q 1603 397 2022 397 
Q 2438 397 2648 737 
Q 2859 1078 2859 1747 
z
" transform="scale(0.015625)"/>
       <path id="Menlo-Regular-6f" d="M 1925 3097 
Q 1488 3097 1263 2756 
Q 1038 2416 1038 1747 
Q 1038 1081 1263 739 
Q 1488 397 1925 397 
Q 2366 397 2591 739 
Q 2816 1081 2816 1747 
Q 2816 2416 2591 2756 
Q 2366 3097 1925 3097 
z
M 1925 3584 
Q 2653 3584 3039 3112 
Q 3425 2641 3425 1747 
Q 3425 850 3040 379 
Q 2656 -91 1925 -91 
Q 1197 -91 812 379 
Q 428 850 428 1747 
Q 428 2641 812 3112 
Q 1197 3584 1925 3584 
z
" transform="scale(0.015625)"/>
       <path id="Menlo-Regular-6c" d="M 2247 1266 
Q 2247 878 2389 681 
Q 2531 484 2809 484 
L 3481 484 
L 3481 0 
L 2753 0 
Q 2238 0 1955 329 
Q 1672 659 1672 1266 
L 1672 4431 
L 750 4431 
L 750 4881 
L 2247 4881 
L 2247 1266 
z
" transform="scale(0.015625)"/>
       <path id="Menlo-Regular-2e" d="M 1216 1263 
L 2316 1263 
L 2316 0 
L 1216 0 
L 1216 1263 
z
" transform="scale(0.015625)"/>
       <path id="Menlo-Regular-2f" d="M 2778 4666 
L 3372 4666 
L 916 -594 
L 319 -594 
L 2778 4666 
z
" transform="scale(0.015625)"/>
       <path id="Menlo-Regular-68" d="M 3284 2169 
L 3284 0 
L 2706 0 
L 2706 2169 
Q 2706 2641 2540 2862 
Q 2375 3084 2022 3084 
Q 1619 3084 1401 2798 
Q 1184 2513 1184 1978 
L 1184 0 
L 609 0 
L 609 4863 
L 1184 4863 
L 1184 2975 
Q 1338 3275 1600 3429 
Q 1863 3584 2222 3584 
Q 2756 3584 3020 3232 
Q 3284 2881 3284 2169 
z
" transform="scale(0.015625)"/>
       <path id="Menlo-Regular-79" d="M 2681 1125 
Q 2538 759 2316 163 
Q 2006 -663 1900 -844 
Q 1756 -1088 1540 -1209 
Q 1325 -1331 1038 -1331 
L 575 -1331 
L 575 -850 
L 916 -850 
Q 1169 -850 1312 -703 
Q 1456 -556 1678 56 
L 325 3500 
L 934 3500 
L 1972 763 
L 2994 3500 
L 3603 3500 
L 2681 1125 
z
" transform="scale(0.015625)"/>
       <path id="Menlo-Regular-72" d="M 3609 2778 
Q 3425 2922 3234 2987 
Q 3044 3053 2816 3053 
Q 2278 3053 1993 2715 
Q 1709 2378 1709 1741 
L 1709 0 
L 1131 0 
L 1131 3500 
L 1709 3500 
L 1709 2816 
Q 1853 3188 2151 3386 
Q 2450 3584 2859 3584 
Q 3072 3584 3256 3531 
Q 3441 3478 3609 3366 
L 3609 2778 
z
" transform="scale(0.015625)"/>
       <path id="Menlo-Regular-5d" d="M 2250 5175 
L 2250 -531 
L 925 -531 
L 925 -84 
L 1675 -84 
L 1675 4728 
L 925 4728 
L 925 5175 
L 2250 5175 
z
" transform="scale(0.015625)"/>
      </defs>
      <use xlink:href="#Menlo-Regular-49"/>
      <use xlink:href="#Menlo-Regular-20" transform="translate(60.205078 0)"/>
      <use xlink:href="#Menlo-Regular-69" transform="translate(120.410156 0)"/>
      <use xlink:href="#Menlo-Regular-6e" transform="translate(180.615234 0)"/>
      <use xlink:href="#Menlo-Regular-20" transform="translate(240.820312 0)"/>
      <use xlink:href="#Menlo-Regular-20" transform="translate(301.025391 0)"/>
      <use xlink:href="#Menlo-Regular-5b" transform="translate(361.230469 0)"/>
      <use xlink:href="#Menlo-Regular-2b" transform="translate(421.435547 0)"/>
      <use xlink:href="#Menlo-Regular-20" transform="translate(481.640625 0)"/>
      <use xlink:href="#Menlo-Regular-64" transform="translate(541.845703 0)"/>
      <use xlink:href="#Menlo-Regular-65" transform="translate(602.050781 0)"/>
      <use xlink:href="#Menlo-Regular-70" transform="translate(662.255859 0)"/>
      <use xlink:href="#Menlo-Regular-6f" transform="translate(722.460938 0)"/>
      <use xlink:href="#Menlo-Regular-6c" transform="translate(782.666016 0)"/>
      <use xlink:href="#Menlo-Regular-2e" transform="translate(842.871094 0)"/>
      <use xlink:href="#Menlo-Regular-20" transform="translate(903.076172 0)"/>
      <use xlink:href="#Menlo-Regular-2f" transform="translate(963.28125 0)"/>
      <use xlink:href="#Menlo-Regular-20" transform="translate(1023.486328 0)"/>
      <use xlink:href="#Menlo-Regular-2212" transform="translate(1083.691406 0)"/>
      <use xlink:href="#Menlo-Regular-20" transform="translate(1143.896484 0)"/>
      <use xlink:href="#Menlo-Regular-68" transform="translate(1204.101562 0)"/>
      <use xlink:href="#Menlo-Regular-79" transform="translate(1264.306641 0)"/>
      <use xlink:href="#Menlo-Regular-70" transform="translate(1324.511719 0)"/>
      <use xlink:href="#Menlo-Regular-65" transform="translate(1384.716797 0)"/>
      <use xlink:href="#Menlo-Regular-72" transform="translate(1444.921875 0)"/>
      <use xlink:href="#Menlo-Regular-70" transform="translate(1505.126953 0)"/>
      <use xlink:href="#Menlo-Regular-6f" transform="translate(1565.332031 0)"/>
      <use xlink:href="#Menlo-Regular-6c" transform="translate(1625.537109 0)"/>
      <use xlink:href="#Menlo-Regular-2e" transform="translate(1685.742188 0)"/>
      <use xlink:href="#Menlo-Regular-5d" transform="translate(1745.947266 0)"/>
     </g>
    </g>
   </g>
   <g id="line2d_9">
    <path d="M 29.715156 32.799275 
L 146.842656 32.799275 
" clip-path="url(#p55cf3fa900)" style="fill: none; stroke: #bbbbbb; stroke-width: 0.5; stroke-linejoin: miter"/>
   </g>
   <g id="line2d_10">
    <path d="M 29.715156 32.799275 
L 29.861566 29.797848 
L 30.007975 30.461761 
L 30.08118 28.012238 
L 30.154384 28.57473 
L 30.593613 30.803741 
L 31.032841 31.874856 
L 31.106045 25.231729 
L 31.17925 26.267682 
L 31.252455 24.698261 
L 31.325659 25.620854 
L 31.398864 23.055797 
L 31.472069 23.491731 
L 32.350525 30.44213 
L 32.789753 31.679938 
L 32.862958 28.241822 
L 32.936163 28.792388 
L 33.302186 30.654504 
L 33.375391 25.7418 
L 33.448595 26.608256 
L 33.668209 28.557922 
L 33.741414 25.855537 
L 33.814619 26.690815 
L 34.180642 29.513859 
L 34.253847 22.789056 
L 34.327052 24.047372 
L 34.473461 26.030941 
L 34.546666 23.806547 
L 34.61987 24.894312 
L 34.985894 28.535926 
L 35.132303 23.004231 
L 35.205508 24.21884 
L 35.278713 22.146841 
L 35.571531 26.407046 
L 35.644736 24.271933 
L 35.717941 25.292801 
L 35.791145 26.175922 
L 35.86435 23.851542 
L 35.937555 24.933226 
L 36.010759 23.338082 
L 36.376783 27.738213 
L 36.816011 30.337642 
L 37.255239 31.603324 
L 37.401648 31.860664 
L 37.474853 28.921668 
L 37.548058 29.389515 
L 37.914081 30.980725 
L 38.133695 31.544856 
L 38.2069 27.668745 
L 38.280105 28.306714 
L 38.646128 30.433528 
L 39.085356 31.677063 
L 39.524584 32.263378 
L 40.037017 32.573197 
L 40.329836 32.661418 
L 40.403041 28.95581 
L 40.476245 29.435111 
L 40.842269 31.040606 
L 40.915473 27.674312 
L 40.988678 28.32671 
L 41.061883 28.888552 
L 41.135088 25.234228 
L 41.208292 26.239498 
L 41.501111 28.992337 
L 41.574316 26.736246 
L 41.64752 27.517117 
L 41.79393 28.76165 
L 41.867134 25.626892 
L 41.940339 26.572165 
L 42.013544 25.791528 
L 42.159953 27.494475 
L 42.306363 24.200663 
L 42.379567 25.372624 
L 42.525977 21.926967 
L 42.599181 23.204498 
L 42.965205 27.663561 
L 43.331228 21.858967 
L 43.697252 27.555724 
L 44.063275 30.111548 
L 44.209684 30.445413 
L 44.282889 30.438961 
L 44.429298 30.756439 
L 44.648913 25.597175 
L 45.014936 28.920725 
L 45.161345 29.768945 
L 45.23455 26.825742 
L 45.307755 27.53913 
L 45.454164 28.701067 
L 45.600573 22.83772 
L 45.820188 25.984842 
L 45.893392 23.95272 
L 45.966597 25.001492 
L 46.259416 28.030962 
L 46.33262 24.665573 
L 46.405825 25.640979 
L 46.47903 26.484512 
L 46.625439 21.425295 
L 46.698644 22.818574 
L 46.771848 19.464609 
L 46.845053 21.109126 
L 46.918258 22.504075 
L 46.991463 17.446896 
L 47.064667 19.357311 
L 47.211077 22.347438 
L 47.284281 19.998124 
L 47.650305 25.855231 
L 48.016328 28.970756 
L 48.089533 26.020164 
L 48.162738 26.824987 
L 48.528761 29.568641 
L 48.967989 31.242054 
L 49.407217 32.052112 
L 49.846445 32.44281 
L 50.139264 32.582175 
L 50.212469 29.381341 
L 50.285673 29.80172 
L 50.651697 31.218703 
L 50.798106 31.570206 
L 50.944516 25.919505 
L 51.01772 26.806146 
L 51.383744 29.690945 
L 51.603358 30.670198 
L 51.676563 27.27491 
L 51.749767 27.96503 
L 52.042586 29.915217 
L 52.115791 26.559581 
L 52.188995 27.348034 
L 52.2622 28.025558 
L 52.335405 25.743073 
L 52.408609 26.646014 
L 52.774633 29.589567 
L 52.847838 29.968644 
L 52.921042 28.015755 
L 52.994247 28.601314 
L 53.36027 30.567768 
L 53.653089 31.434556 
L 53.726294 28.383996 
L 53.799498 28.927289 
L 53.945908 29.807424 
L 54.092317 25.780834 
L 54.165522 26.694897 
L 54.238727 27.473956 
L 54.311931 23.172054 
L 54.385136 24.498149 
L 54.751159 28.614529 
L 54.824364 28.01234 
L 55.190388 30.237013 
L 55.263592 26.368242 
L 55.336797 27.123908 
L 55.776025 30.156125 
L 55.84923 27.619949 
L 55.922434 28.285908 
L 56.288458 30.472398 
L 56.654481 31.567956 
L 56.727686 31.713194 
L 56.800891 28.099076 
L 56.874095 28.698449 
L 57.240119 30.674347 
L 57.313323 28.059721 
L 57.386528 28.664915 
L 57.459733 29.185363 
L 57.532938 27.405043 
L 57.606142 27.920122 
L 57.898961 29.148607 
L 57.972166 26.885677 
L 58.04537 27.48751 
L 58.118575 28.044257 
L 58.19178 22.612324 
L 58.264984 23.815551 
L 58.411394 25.769765 
L 58.631008 20.660559 
L 58.997031 26.314037 
L 59.216645 28.274232 
L 59.28985 24.115335 
L 59.363055 25.16699 
L 59.509464 19.283898 
L 59.582669 21.028256 
L 59.948692 26.542617 
L 60.168306 28.432528 
L 60.241511 24.476948 
L 60.314716 25.484698 
L 60.461125 27.108685 
L 60.53433 24.845688 
L 60.607534 25.807756 
L 60.680739 23.955144 
L 61.046763 28.0965 
L 61.485991 30.514547 
L 61.559195 27.811683 
L 61.6324 28.406286 
L 61.998423 30.432646 
L 62.218038 31.156374 
L 62.291242 27.773314 
L 62.364447 28.387484 
L 62.73047 30.452964 
L 63.023289 31.365645 
L 63.242903 27.098499 
L 63.608927 29.827634 
L 63.682131 27.246891 
L 63.755336 27.940955 
L 63.901745 29.057335 
L 64.121359 24.838689 
L 64.194564 25.882522 
L 64.340973 23.58822 
L 64.414178 24.8264 
L 64.487383 23.171357 
L 64.780202 27.289537 
L 64.853406 26.478734 
L 65.07302 28.455235 
L 65.146225 27.065764 
L 65.21943 27.739469 
L 65.512248 29.730348 
L 65.585453 25.921112 
L 65.658658 26.729317 
L 66.024681 29.713363 
L 66.097886 30.090596 
L 66.171091 27.899764 
L 66.244295 28.52193 
L 66.610319 30.576034 
L 66.903138 31.457688 
L 66.976342 27.796356 
L 67.049547 28.388792 
L 67.41557 29.878796 
L 67.708389 30.912773 
L 67.781594 25.023613 
L 67.854798 25.964345 
L 68.074413 28.100866 
L 68.147617 24.789185 
L 68.220822 25.760695 
L 68.294027 23.600222 
L 68.66005 27.895564 
L 69.099278 30.432601 
L 69.172483 27.249921 
L 69.245688 27.918717 
L 69.611711 30.183069 
L 69.75812 30.752838 
L 69.831325 27.662133 
L 69.90453 28.286162 
L 70.050939 29.29925 
L 70.124144 26.720936 
L 70.197348 27.467912 
L 70.270553 28.113039 
L 70.343758 25.0356 
L 70.416963 26.010433 
L 70.782986 29.209485 
L 71.222214 31.077156 
L 71.515033 31.74053 
L 71.588238 28.710597 
L 71.661442 29.206627 
L 72.027466 30.88748 
L 72.24708 31.480975 
L 72.320284 28.018458 
L 72.393489 28.610403 
L 72.759512 30.590863 
L 72.832717 28.318423 
L 72.905922 28.869896 
L 73.125536 30.126828 
L 73.271945 25.256165 
L 73.34515 26.238776 
L 73.711173 29.410657 
L 74.003992 23.900076 
L 74.077197 22.764755 
L 74.44322 27.797085 
L 74.809244 30.143643 
L 74.882448 27.784011 
L 74.955653 28.400863 
L 75.028858 27.050318 
L 75.102063 27.771378 
L 75.175267 27.038454 
L 75.321677 22.366859 
L 75.468086 24.674502 
L 75.614495 20.671158 
L 75.6877 22.09625 
L 75.760905 17.691563 
L 75.834109 19.466766 
L 75.907314 21.033377 
L 76.053723 19.16628 
L 76.419747 26.357418 
L 76.492952 26.102388 
L 76.566156 26.27439 
L 76.78577 27.949406 
L 76.93218 21.684063 
L 77.005384 23.00895 
L 77.151794 25.153062 
L 77.224998 21.001747 
L 77.298203 22.411777 
L 77.591022 26.444411 
L 77.664227 22.363668 
L 77.737431 23.613509 
L 77.810636 21.569148 
L 77.883841 22.907593 
L 77.957045 20.150922 
L 78.176659 24.10058 
L 78.249864 22.334225 
L 78.615888 27.127455 
L 78.908706 29.310432 
L 78.981911 27.503981 
L 79.055116 28.128859 
L 79.494344 30.572045 
L 79.933572 31.736247 
L 80.079981 31.969294 
L 80.226391 25.723193 
L 80.299595 26.613885 
L 80.3728 27.374751 
L 80.446005 24.916965 
L 80.519209 25.89831 
L 80.812028 28.645641 
L 80.885233 25.918511 
L 80.958438 26.754426 
L 81.324461 29.559123 
L 81.47087 24.674546 
L 81.836894 28.522126 
L 81.910098 29.019297 
L 82.056508 23.187286 
L 82.129713 24.412841 
L 82.202917 22.741376 
L 82.568941 27.546323 
L 82.934964 29.940503 
L 83.008169 30.264028 
L 83.081373 27.470487 
L 83.154578 28.10887 
L 83.227783 28.664199 
L 83.300988 25.765281 
L 83.374192 26.638143 
L 83.520602 28.038539 
L 83.593806 25.969357 
L 83.667011 26.813558 
L 83.81342 28.169979 
L 84.106239 22.732494 
L 84.399058 26.944492 
L 84.472262 25.14222 
L 84.618672 26.920546 
L 84.838286 22.805316 
L 85.131105 26.9817 
L 85.204309 21.967782 
L 85.277514 23.240516 
L 85.716742 28.284037 
L 86.082766 30.390738 
L 86.15597 27.969416 
L 86.229175 28.576485 
L 86.448789 29.948625 
L 86.521994 27.105436 
L 86.595198 27.833164 
L 86.668403 28.458022 
L 86.741608 26.550547 
L 86.814813 27.357703 
L 86.888017 28.048292 
L 86.961222 26.522378 
L 87.327245 29.581658 
L 87.693269 31.086005 
L 87.986088 31.751493 
L 88.059292 27.044118 
L 88.132497 27.786207 
L 88.278906 28.967406 
L 88.352111 27.133795 
L 88.425316 27.863335 
L 88.49852 28.487523 
L 88.571725 27.857067 
L 88.791339 29.402548 
L 89.010953 26.227365 
L 89.376977 29.281585 
L 89.523386 29.655765 
L 90.035819 31.413748 
L 90.255433 24.220443 
L 90.621456 28.228291 
L 91.060684 30.614152 
L 91.133889 30.867775 
L 91.207094 27.861114 
L 91.280298 28.455681 
L 91.426708 29.422191 
L 91.499913 26.60876 
L 91.573117 27.357726 
L 91.939141 29.88158 
L 92.158755 30.782375 
L 92.231959 27.43564 
L 92.305164 28.086257 
L 92.671188 30.279538 
L 93.110416 31.596785 
L 93.549644 32.226432 
L 93.769258 32.404418 
L 93.915667 25.683459 
L 93.988872 26.598204 
L 94.281691 29.126817 
L 94.4281 23.411213 
L 94.794123 27.953852 
L 94.867328 28.525896 
L 94.940533 27.063576 
L 95.013738 27.753627 
L 95.160147 28.875787 
L 95.233352 26.817173 
L 95.306556 27.543069 
L 95.67258 29.985109 
L 95.892194 30.84789 
L 95.965398 28.227715 
L 96.038603 28.77902 
L 96.404627 30.648953 
L 96.477831 30.898071 
L 96.697445 21.371409 
L 96.990264 26.300065 
L 97.136673 23.245683 
L 97.502697 27.914911 
L 97.86872 30.164757 
L 98.307948 31.513997 
L 98.673972 32.090331 
L 98.893586 25.204487 
L 98.966791 26.20447 
L 99.1132 27.77885 
L 99.186405 26.071143 
L 99.259609 26.940303 
L 99.625633 29.752542 
L 99.772042 21.907655 
L 99.918452 24.316873 
L 99.991656 22.851074 
L 100.35768 27.474387 
L 100.430884 24.699015 
L 100.504089 25.650821 
L 100.577294 24.257087 
L 100.870113 27.849079 
L 100.943317 25.555575 
L 101.016522 26.007897 
L 101.382545 28.673071 
L 101.528955 21.081398 
L 101.821773 25.681037 
L 101.894978 19.51727 
L 101.968183 21.147636 
L 102.114592 23.726585 
L 102.187797 21.729972 
L 102.261002 23.038603 
L 102.334206 21.157816 
L 102.70023 26.502311 
L 103.139458 29.749067 
L 103.578686 31.333556 
L 103.725095 31.653206 
L 103.7983 25.037854 
L 103.871505 26.022668 
L 104.017914 27.581192 
L 104.091119 22.083176 
L 104.164323 23.461913 
L 104.237528 24.625321 
L 104.310733 22.523008 
L 104.457142 24.898842 
L 104.676756 20.326279 
L 104.89637 24.386654 
L 104.969575 20.274722 
L 105.04278 21.851868 
L 105.115984 23.186215 
L 105.189189 21.748486 
L 105.408803 25.246028 
L 105.482008 24.318359 
L 105.701622 26.933334 
L 105.921236 21.771295 
L 106.067645 19.248855 
L 106.433669 25.750959 
L 106.506873 23.648635 
L 106.799692 27.23188 
L 106.872897 25.74235 
L 107.23892 28.954587 
L 107.312125 29.383646 
L 107.38533 27.137835 
L 107.458534 27.804007 
L 107.751353 29.73108 
L 107.824558 27.601905 
L 107.897763 28.220053 
L 108.263786 30.321454 
L 108.336991 30.603006 
L 108.410195 28.386232 
L 108.4834 28.91338 
L 108.849423 30.706956 
L 109.142242 31.511118 
L 109.288652 26.376963 
L 109.361856 27.195758 
L 109.58147 29.02413 
L 109.654675 26.554748 
L 109.72788 27.348409 
L 110.093903 29.946398 
L 110.167108 30.281933 
L 110.240313 25.525649 
L 110.313517 26.47734 
L 110.679541 29.532411 
L 111.045564 31.044298 
L 111.484792 31.95015 
L 111.92402 32.386232 
L 111.997225 32.432993 
L 112.143634 27.638073 
L 112.216839 28.297366 
L 112.509658 30.087316 
L 112.582863 30.152855 
L 112.656067 27.288405 
L 112.729272 27.527455 
L 112.802477 27.920742 
L 113.022091 23.253285 
L 113.241705 26.188018 
L 113.314909 24.099512 
L 113.388114 25.1239 
L 113.607728 27.492435 
L 113.680933 24.12631 
L 113.754138 25.163632 
L 114.046956 28.140356 
L 114.120161 26.472702 
L 114.193366 27.218763 
L 114.632594 30.134164 
L 114.779003 30.715156 
L 114.852208 27.698683 
L 114.925413 28.313272 
L 115.291436 30.395981 
L 115.51105 31.139728 
L 115.584255 28.138936 
L 115.657459 28.703214 
L 116.023483 30.611469 
L 116.462711 31.756949 
L 116.535916 31.878115 
L 116.60912 29.100839 
L 116.682325 29.549538 
L 117.048348 31.070231 
L 117.487577 31.978191 
L 117.926805 32.408988 
L 118.000009 29.228078 
L 118.073214 29.6669 
L 118.146419 30.047938 
L 118.219623 28.223386 
L 118.292828 28.790785 
L 118.585647 30.403765 
L 118.805261 26.245983 
L 118.878466 27.077299 
L 118.95167 19.929425 
L 119.024875 21.729158 
L 119.317694 26.442931 
L 119.390898 24.925744 
L 119.610513 27.496305 
L 119.683717 25.055321 
L 119.756922 26.027986 
L 119.830127 26.860679 
L 119.903331 24.573602 
L 119.976536 25.617091 
L 120.342559 29.006911 
L 120.562173 30.167941 
L 120.635378 25.836679 
L 120.708583 26.711385 
L 121.074606 29.580177 
L 121.147811 29.952881 
L 121.221016 26.804648 
L 121.29422 27.549295 
L 121.513834 29.22619 
L 121.587039 26.898339 
L 121.660244 27.633241 
L 122.026267 30.061209 
L 122.465495 31.477729 
L 122.831519 32.073071 
L 122.904723 29.85292 
L 122.977928 30.204815 
L 123.051133 30.51218 
L 123.124338 28.341149 
L 123.197542 28.89463 
L 123.343952 29.787763 
L 123.490361 25.817602 
L 123.563566 26.739853 
L 123.63677 25.892436 
L 123.78318 27.420223 
L 123.856384 25.085767 
L 123.929589 25.992128 
L 124.368817 29.583807 
L 124.734841 30.931723 
L 125.320478 32.026454 
L 125.466888 26.104579 
L 125.832911 29.223478 
L 126.052525 30.331137 
L 126.12573 26.476518 
L 126.198934 27.24006 
L 126.564958 29.815444 
L 127.004186 31.377656 
L 127.370209 32.034884 
L 127.443414 27.957435 
L 127.516619 28.55155 
L 127.663028 29.508848 
L 127.736233 25.844392 
L 127.809438 26.702374 
L 128.175461 29.547438 
L 128.614689 31.24416 
L 129.053917 32.057059 
L 129.493145 32.446476 
L 129.56635 32.487711 
L 129.639555 28.894408 
L 129.712759 29.37626 
L 130.005578 30.749637 
L 130.151988 25.233745 
L 130.225192 26.20355 
L 130.591216 29.352159 
L 130.737625 30.114488 
L 130.81083 26.740081 
L 130.884034 27.489614 
L 130.957239 28.136319 
L 131.030444 21.412976 
L 131.103648 22.944598 
L 131.250058 25.315115 
L 131.323262 22.25873 
L 131.396467 23.636821 
L 131.469672 24.800031 
L 131.542877 23.300613 
L 131.9089 27.840268 
L 132.128514 29.362602 
L 132.348128 22.56603 
L 132.714152 27.555128 
L 132.787356 25.122966 
L 132.860561 26.081927 
L 133.15338 28.756538 
L 133.226584 26.988087 
L 133.299789 27.690024 
L 133.446198 28.825583 
L 133.519403 26.559347 
L 133.592608 27.326573 
L 133.958631 29.872582 
L 134.397859 31.374658 
L 134.837087 32.100804 
L 134.983497 32.248746 
L 135.056702 24.817425 
L 135.129906 25.883709 
L 135.422725 28.778789 
L 135.49593 26.589271 
L 135.569134 27.38752 
L 135.642339 28.06961 
L 135.715544 27.405856 
L 135.788748 25.073088 
L 135.861953 25.98094 
L 136.008363 27.489151 
L 136.081567 25.365617 
L 136.154772 26.239095 
L 136.594 29.725811 
L 136.667205 30.105604 
L 136.813614 24.361656 
L 136.886819 25.520179 
L 137.252842 29.164748 
L 137.472456 30.34623 
L 137.618866 28.937977 
L 137.765275 29.282929 
L 138.350912 31.428341 
L 138.790141 32.149878 
L 139.156164 32.45135 
L 139.302573 22.781877 
L 139.375778 24.050003 
L 139.741802 28.130148 
L 140.107825 30.270003 
L 140.254234 21.326113 
L 140.327439 22.773975 
L 140.473848 19.394889 
L 140.839872 25.653783 
L 141.2791 29.323497 
L 141.718328 31.118043 
L 141.791533 31.311055 
L 141.864738 27.474618 
L 141.937942 28.124467 
L 142.303966 30.30814 
L 142.450375 30.853682 
L 142.52358 27.138975 
L 142.596784 27.83538 
L 142.962808 30.162935 
L 143.182422 30.97971 
L 143.255627 28.109963 
L 143.328831 28.680456 
L 143.402036 29.1758 
L 143.548445 24.317748 
L 143.914469 28.41232 
L 144.280492 30.439754 
L 144.71972 31.663187 
L 144.792925 31.793293 
L 145.085744 23.884106 
L 145.232153 26.054114 
L 145.378563 20.61275 
L 145.524972 23.708507 
L 145.671381 18.461233 
L 145.744586 20.526042 
L 145.9642 24.801179 
L 146.110609 19.821572 
L 146.403428 24.9279 
L 146.476633 22.937974 
L 146.623042 25.119287 
L 146.769452 21.706804 
L 146.769452 21.706804 
" clip-path="url(#p55cf3fa900)" style="fill: none; stroke: #1a1a1a; stroke-width: 0.9; stroke-linejoin: miter"/>
   </g>
   <g id="line2d_11">
    <path d="M 29.715156 32.799275 
L 31.252455 32.799275 
L 31.472069 60.491491 
L 31.545273 54.276291 
L 31.764888 41.950185 
L 32.057706 38.032932 
L 32.42373 36.001825 
L 32.789753 34.926624 
L 33.009367 36.609188 
L 33.155777 36.408496 
L 33.302186 35.994694 
L 33.5218 38.08176 
L 33.595005 38.030372 
L 33.668209 37.840953 
L 33.814619 38.585078 
L 33.961028 38.321547 
L 34.180642 37.398018 
L 34.400256 39.493512 
L 34.473461 39.469159 
L 34.61987 39.98467 
L 34.76628 39.628223 
L 34.985894 38.566412 
L 35.059098 38.700141 
L 35.351917 40.246735 
L 35.425122 40.230207 
L 35.791145 39.634039 
L 36.010759 39.903369 
L 36.083964 39.893734 
L 36.303578 39.296829 
L 37.328444 35.568292 
L 37.401648 35.397145 
L 37.474853 35.452291 
L 37.694467 35.404659 
L 38.133695 34.933516 
L 38.2069 35.061501 
L 38.426514 35.183732 
L 38.719333 35.029501 
L 40.329836 33.741832 
L 40.622655 33.865574 
L 41.061883 33.970688 
L 41.354702 34.177338 
L 42.379567 34.377069 
L 42.525977 33.553583 
L 43.331228 33.437772 
L 43.697252 33.566605 
L 44.063275 33.533938 
L 44.13648 36.597197 
L 44.282889 63.520666 
L 44.502503 41.21545 
L 44.575708 39.636327 
L 44.648913 40.048812 
L 44.795322 39.439405 
L 45.161345 37.034348 
L 45.307755 38.190193 
L 45.454164 37.833786 
L 45.673778 40.917438 
L 45.746983 40.848551 
L 45.820188 40.502567 
L 45.893392 40.932418 
L 45.966597 40.8678 
L 46.259416 39.044885 
L 46.33262 39.631766 
L 46.405825 39.753667 
L 46.47903 39.604899 
L 47.064667 44.311252 
L 47.137872 44.197943 
L 47.211077 43.812678 
L 47.284281 44.002001 
L 47.430691 43.424955 
L 48.162738 38.771973 
L 48.455556 37.79578 
L 49.114398 35.535214 
L 49.626831 34.542047 
L 50.139264 34.000136 
L 50.432083 34.432872 
L 50.724902 34.420039 
L 50.798106 34.387484 
L 51.310539 35.220931 
L 51.749767 35.196815 
L 51.969381 35.180502 
L 52.115791 35.222074 
L 52.555019 35.413117 
L 53.213861 35.049167 
L 53.945908 34.57311 
L 54.311931 34.695007 
L 54.60475 34.734779 
L 54.751159 34.677521 
L 54.897569 33.691998 
L 55.776025 33.477922 
L 56.215253 33.509101 
L 57.459733 33.382687 
L 57.532938 34.723565 
L 57.752552 51.734495 
L 57.825756 50.880866 
L 58.04537 43.468166 
L 58.118575 42.085954 
L 58.19178 42.139791 
L 58.338189 41.570857 
L 58.411394 41.117677 
L 58.484598 41.300692 
L 58.557803 41.219826 
L 58.704213 41.870652 
L 58.850622 41.481398 
L 59.216645 39.293706 
L 59.28985 39.489328 
L 59.363055 39.498759 
L 59.655873 40.976379 
L 59.729078 40.893219 
L 59.948692 40.089879 
L 60.168306 38.997535 
L 60.241511 39.067272 
L 60.38792 38.89822 
L 60.461125 38.717827 
L 60.53433 38.758226 
L 60.607534 38.703561 
L 60.753944 38.799297 
L 60.973558 38.387688 
L 61.705605 36.593011 
L 62.364447 35.69328 
L 62.657266 35.479023 
L 63.169698 35.045163 
L 63.389313 35.123291 
L 63.97495 35.06357 
L 64.267769 35.220313 
L 64.633792 35.428801 
L 64.780202 35.378988 
L 64.926611 34.019582 
L 65.731863 33.754112 
L 66.244295 33.788259 
L 66.829933 33.670807 
L 66.976342 33.65434 
L 67.049547 36.476144 
L 67.269161 50.483797 
L 67.708389 38.336056 
L 67.854798 38.975103 
L 68.001208 38.732888 
L 68.074413 38.468096 
L 68.367231 39.667611 
L 68.440436 39.625309 
L 68.66005 38.87029 
L 69.099278 36.871799 
L 69.245688 37.083154 
L 69.392097 36.944462 
L 69.75812 36.099437 
L 69.831325 36.262425 
L 69.977734 36.333733 
L 70.050939 36.286196 
L 70.416963 37.031867 
L 70.563372 37.076253 
L 70.782986 36.78511 
L 71.515033 35.269428 
L 71.588238 35.312833 
L 71.807852 35.268611 
L 72.393489 34.96597 
L 72.686308 34.906191 
L 72.832717 34.894706 
L 74.003992 35.143937 
L 74.223606 35.320625 
L 74.516425 35.223436 
L 75.102063 34.879367 
L 75.248472 33.78523 
L 75.980519 33.546102 
L 76.273338 33.844723 
L 76.346542 33.870221 
L 76.419747 37.004347 
L 76.492952 72.994521 
L 76.566156 61.049633 
L 76.78577 41.235972 
L 76.858975 41.123479 
L 77.005384 42.770045 
L 77.151794 41.655921 
L 77.298203 43.222941 
L 77.517817 41.391999 
L 77.591022 40.643719 
L 77.810636 42.738708 
L 77.883841 42.755865 
L 78.03025 43.772965 
L 78.615888 40.163829 
L 78.908706 37.930933 
L 78.981911 38.028751 
L 79.055116 37.941692 
L 79.347934 36.917727 
L 79.933572 35.066936 
L 80.079981 34.772081 
L 80.665619 37.811821 
L 80.812028 37.55699 
L 80.958438 37.846625 
L 81.104847 37.69821 
L 81.324461 37.13634 
L 81.397666 37.240242 
L 81.61728 37.759628 
L 81.763689 37.613454 
L 81.910098 37.29751 
L 81.983303 37.421469 
L 82.276122 38.343884 
L 82.422531 38.317085 
L 82.71535 37.683254 
L 83.154578 36.754476 
L 83.227783 36.663779 
L 83.300988 36.736228 
L 83.447397 36.719753 
L 83.593806 36.696468 
L 84.033034 36.648205 
L 84.252648 36.867826 
L 84.765081 36.753988 
L 84.984695 36.796301 
L 85.131105 36.663152 
L 85.277514 34.632562 
L 86.082766 34.169973 
L 86.375584 34.201152 
L 86.668403 34.231409 
L 87.107631 34.296194 
L 87.620064 34.101224 
L 88.205702 33.907201 
L 88.49852 33.87774 
L 88.64493 33.31013 
L 88.791339 33.282524 
L 88.864544 34.705017 
L 89.084158 80.28326 
L 89.157363 80.17826 
L 89.376977 76.658175 
L 89.596591 42.506914 
L 89.816205 36.856127 
L 90.035819 35.397229 
L 90.401842 39.545057 
L 90.548252 38.998788 
L 91.133889 35.982748 
L 91.353503 36.889954 
L 91.426708 36.803622 
L 91.573117 37.681287 
L 91.646322 37.709537 
L 91.792731 37.402831 
L 92.158755 36.125274 
L 92.378369 36.838497 
L 92.524778 36.675875 
L 93.769258 34.219655 
L 93.842463 34.390793 
L 94.062077 35.704455 
L 94.4281 36.739852 
L 94.647714 37.255185 
L 94.794123 37.176813 
L 95.013738 37.041565 
L 95.306556 36.857799 
L 95.599375 36.463342 
L 96.038603 35.867922 
L 96.404627 35.479879 
L 96.477831 35.381736 
L 97.136673 36.380063 
L 97.356288 36.385554 
L 97.722311 35.973121 
L 98.747177 34.641995 
L 99.332814 34.694939 
L 99.625633 34.552643 
L 99.772042 33.648467 
L 100.577294 33.495607 
L 100.796908 33.576251 
L 101.016522 54.765417 
L 101.089727 52.240552 
L 101.382545 40.030833 
L 101.602159 42.766953 
L 101.748569 41.96179 
L 101.821773 41.330262 
L 101.968183 43.283809 
L 102.041388 43.167698 
L 102.114592 42.737944 
L 102.187797 43.003716 
L 102.261002 42.813387 
L 102.334206 43.180264 
L 102.407411 43.05844 
L 102.70023 40.862023 
L 103.212663 37.213253 
L 103.651891 35.474446 
L 103.725095 35.275494 
L 103.944709 37.067431 
L 104.017914 37.196523 
L 104.237528 38.883023 
L 104.457142 39.598376 
L 104.749961 40.72738 
L 104.823166 40.730428 
L 104.89637 40.597267 
L 105.04278 41.026985 
L 105.335598 40.795735 
L 105.774827 39.584959 
L 105.921236 39.774574 
L 106.14085 40.333533 
L 106.214055 40.305295 
L 106.580078 39.572287 
L 107.824558 36.65967 
L 108.263786 35.983745 
L 108.556605 35.669576 
L 109.288652 34.960637 
L 109.72788 34.913345 
L 110.093903 34.734167 
L 110.313517 34.709702 
L 110.679541 34.573891 
L 112.216839 33.737236 
L 112.436453 33.698643 
L 112.509658 38.386565 
L 112.656067 63.700372 
L 112.948886 43.352867 
L 113.095295 42.399396 
L 113.241705 40.900004 
L 113.314909 41.235042 
L 113.461319 40.612263 
L 113.607728 39.495196 
L 113.754138 40.393953 
L 113.900547 39.797063 
L 114.046956 38.843461 
L 114.120161 39.00221 
L 114.26657 38.627183 
L 114.779003 36.224709 
L 114.998617 36.930415 
L 115.145027 36.696283 
L 115.51105 35.678384 
L 115.730664 36.307667 
L 115.877073 36.193873 
L 116.535916 34.883201 
L 116.60912 35.121436 
L 116.828734 35.334323 
L 117.048348 35.181664 
L 117.926805 34.172394 
L 118.292828 34.877334 
L 118.512442 34.99661 
L 118.658852 35.071343 
L 118.732056 35.119241 
L 118.95167 35.952685 
L 119.171284 36.650983 
L 119.464103 36.806756 
L 119.830127 36.718263 
L 120.049741 36.725803 
L 120.342559 36.3671 
L 120.635378 36.015842 
L 120.928197 35.825879 
L 121.44063 35.423188 
L 122.904723 34.260765 
L 123.417156 34.114486 
L 123.563566 34.128855 
L 123.709975 33.435013 
L 124.588431 33.278705 
L 124.661636 36.413387 
L 124.734841 55.978519 
L 124.808045 49.268098 
L 125.027659 36.670469 
L 125.247273 34.829838 
L 125.320478 34.613141 
L 125.613297 38.442977 
L 125.832911 37.509879 
L 126.052525 36.441224 
L 126.198934 38.015964 
L 126.272139 38.056344 
L 126.491753 37.302629 
L 127.077391 35.177216 
L 127.370209 34.588989 
L 127.589823 36.136534 
L 127.663028 36.205712 
L 127.882642 37.605241 
L 128.029052 37.486817 
L 128.46828 36.130109 
L 128.980713 34.855153 
L 129.493145 34.158231 
L 129.56635 34.09108 
L 129.785964 34.780834 
L 130.078783 35.163068 
L 130.298397 36.106102 
L 130.518011 36.209069 
L 130.737625 35.969664 
L 130.81083 36.116538 
L 130.957239 36.20578 
L 131.176853 37.12103 
L 131.250058 37.201077 
L 131.469672 37.626098 
L 131.616081 37.778428 
L 131.762491 37.677693 
L 132.274923 36.85869 
L 132.348128 36.986837 
L 132.494538 37.04765 
L 132.933766 36.745065 
L 134.983497 34.421781 
L 135.276316 34.483124 
L 135.642339 34.417026 
L 135.788748 33.572242 
L 136.740409 33.40655 
L 137.106433 33.512502 
L 137.472456 33.479 
L 137.545661 39.607187 
L 137.618866 66.060123 
L 137.69207 59.741334 
L 137.911684 39.87119 
L 138.131298 36.253425 
L 138.424117 35.027814 
L 138.790141 34.372327 
L 139.156164 34.025439 
L 139.522188 39.705815 
L 139.741802 38.724623 
L 140.107825 36.736435 
L 140.473848 42.351186 
L 140.547053 42.703044 
L 140.620258 42.654825 
L 140.839872 41.408752 
L 141.571919 36.739344 
L 141.791533 35.900049 
L 142.011147 36.432502 
L 142.157556 36.341289 
L 142.450375 35.810412 
L 142.669989 36.291694 
L 142.816398 36.235139 
L 143.182422 35.656624 
L 143.255627 35.775151 
L 143.475241 36.039955 
L 143.694855 36.693523 
L 143.841264 36.71226 
L 144.060878 36.45691 
L 144.86613 35.155805 
L 145.890995 37.133766 
L 145.9642 37.105438 
L 146.110609 34.847197 
L 146.769452 34.394198 
L 146.769452 34.394198 
" clip-path="url(#p55cf3fa900)" style="fill: none; stroke: #c8102e; stroke-width: 0.9; stroke-linejoin: miter"/>
   </g>
   <g id="line2d_12">
    <path d="M 29.715156 33.655679 
L 29.788361 33.677662 
L 29.93477 32.799275 
L 31.032841 32.872789 
L 31.325659 33.131846 
L 31.691683 32.139055 
L 32.130911 32.026869 
L 33.009367 32.040712 
L 34.180642 32.146524 
L 34.473461 32.286646 
L 34.76628 32.339388 
L 35.132303 32.377221 
L 35.86435 32.569012 
L 36.449988 32.605273 
L 37.621263 32.400258 
L 39.670994 32.454668 
L 40.476245 32.47296 
L 41.208292 32.85139 
L 42.379567 33.658998 
L 42.525977 32.799275 
L 43.258023 32.799275 
L 43.624047 33.264036 
L 44.063275 33.454019 
L 44.13648 33.42789 
L 44.502503 32.08313 
L 44.868527 32.054985 
L 45.527369 32.094456 
L 45.820188 32.162795 
L 46.186211 32.165102 
L 46.47903 32.195316 
L 47.357486 32.541454 
L 47.869919 32.404383 
L 48.309147 32.369513 
L 50.358878 32.199597 
L 51.16413 32.489336 
L 53.287066 33.090105 
L 54.019113 33.174578 
L 54.751159 33.66917 
L 54.897569 32.799275 
L 55.84923 32.908519 
L 56.361663 33.102708 
L 57.240119 33.325348 
L 57.532938 33.474418 
L 57.679347 33.215016 
L 58.04537 32.484946 
L 58.264984 32.445806 
L 58.631008 32.510916 
L 58.923827 32.533943 
L 59.363055 32.504864 
L 59.875488 32.727345 
L 60.461125 32.703486 
L 61.046763 32.809389 
L 62.291242 32.687955 
L 62.803675 32.729055 
L 63.242903 32.794836 
L 64.414178 33.42014 
L 64.780202 33.677508 
L 64.926611 32.799275 
L 65.805067 32.898855 
L 66.610319 33.196218 
L 67.122752 33.164222 
L 67.56198 32.302737 
L 67.781594 32.236333 
L 68.733255 32.351822 
L 69.392097 32.321045 
L 70.124144 32.390494 
L 70.929395 32.559016 
L 71.954261 32.522287 
L 72.539898 32.612288 
L 73.198741 32.768775 
L 73.564764 32.992176 
L 73.930788 33.144275 
L 74.44322 33.541326 
L 75.102063 33.673964 
L 75.248472 32.799275 
L 75.980519 32.799275 
L 76.346542 33.368213 
L 76.419747 33.389568 
L 76.639361 32.230063 
L 76.858975 32.084311 
L 77.224998 32.152502 
L 78.469478 32.234564 
L 79.640753 32.093188 
L 80.153186 32.087467 
L 80.592414 32.327475 
L 82.056508 32.619993 
L 82.568941 32.822216 
L 83.447397 32.858888 
L 83.95983 33.019867 
L 85.0579 33.658263 
L 85.131105 33.67222 
L 85.277514 32.799275 
L 86.229175 32.890349 
L 86.961222 33.278478 
L 87.40045 33.429371 
L 88.352111 33.606775 
L 88.49852 33.675107 
L 88.64493 32.799275 
L 89.376977 32.799275 
L 89.596591 32.13215 
L 89.889409 32.003277 
L 90.182228 32.031419 
L 90.475047 32.119846 
L 91.573117 32.145813 
L 92.744392 32.161691 
L 93.842463 32.094342 
L 94.208486 32.314521 
L 94.4281 32.457381 
L 94.794123 32.60569 
L 96.551036 32.749368 
L 97.356288 33.404207 
L 97.795516 33.420054 
L 98.893586 33.330704 
L 99.479223 33.620183 
L 99.625633 33.636593 
L 99.772042 32.799275 
L 100.577294 32.898578 
L 100.870113 33.063802 
L 101.382545 32.12393 
L 101.675364 32.224861 
L 102.041388 32.294749 
L 104.017914 32.25654 
L 104.383938 32.515392 
L 104.749961 32.719929 
L 106.872897 33.274812 
L 108.190581 33.151936 
L 109.142242 33.071722 
L 109.72788 33.329756 
L 110.82595 33.622494 
L 111.704406 33.489114 
L 112.143634 33.4921 
L 112.509658 33.54917 
L 112.875681 32.219754 
L 113.095295 32.157124 
L 113.680933 32.150249 
L 114.339775 32.137521 
L 115.51105 32.098057 
L 115.950278 32.158793 
L 117.926805 32.132222 
L 119.024875 32.737551 
L 119.390898 32.99198 
L 120.269355 33.298073 
L 120.928197 33.376195 
L 121.587039 33.49216 
L 122.026267 33.547275 
L 123.343952 33.50412 
L 123.563566 33.658736 
L 123.709975 32.799275 
L 124.661636 32.823369 
L 124.88125 32.090054 
L 125.174069 31.968599 
L 125.540092 32.050993 
L 126.857777 32.036478 
L 127.516619 32.073894 
L 128.395075 32.165833 
L 129.639555 32.099273 
L 131.323262 32.891175 
L 131.762491 33.124003 
L 132.421333 33.265103 
L 132.933766 33.438593 
L 134.178245 33.492709 
L 135.056702 33.353433 
L 135.569134 33.631224 
L 135.642339 33.659995 
L 135.788748 32.799275 
L 136.667205 32.856373 
L 137.472456 33.384204 
L 137.545661 33.338226 
L 137.83848 32.118011 
L 138.131298 31.992564 
L 139.156164 31.958392 
L 139.668597 32.15664 
L 140.18103 32.165272 
L 140.547053 32.435291 
L 140.913077 32.401851 
L 141.864738 32.213197 
L 142.303966 32.255209 
L 142.669989 32.326828 
L 143.694855 32.588742 
L 144.134083 32.636997 
L 145.012539 32.656115 
L 145.9642 33.668129 
L 146.110609 32.799275 
L 146.769452 32.799275 
L 146.769452 32.799275 
" clip-path="url(#p55cf3fa900)" style="fill: none; stroke-dasharray: 0.7,1.155; stroke-dashoffset: 0; stroke: #bbbbbb; stroke-width: 0.7"/>
   </g>
   <g id="patch_3">
    <path d="M 29.715156 83.425078 
L 29.715156 14.305078 
" style="fill: none; stroke: #1a1a1a; stroke-width: 0.8; stroke-linejoin: miter; stroke-linecap: square"/>
   </g>
   <g id="patch_4">
    <path d="M 146.842656 83.425078 
L 146.842656 14.305078 
" style="fill: none; stroke: #1a1a1a; stroke-width: 0.8; stroke-linejoin: miter; stroke-linecap: square"/>
   </g>
   <g id="patch_5">
    <path d="M 29.715156 83.425078 
L 146.842656 83.425078 
" style="fill: none; stroke: #1a1a1a; stroke-width: 0.8; stroke-linejoin: miter; stroke-linecap: square"/>
   </g>
   <g id="patch_6">
    <path d="M 29.715156 14.305078 
L 146.842656 14.305078 
" style="fill: none; stroke: #1a1a1a; stroke-width: 0.8; stroke-linejoin: miter; stroke-linecap: square"/>
   </g>
   <g id="text_11">
    <!-- PING — recurrent loop active (ei-strength = 1.5) — E-neuron signed currents (cell 334) -->
    <g style="fill: #1a1a1a" transform="translate(29.715156 8.305078) scale(0.085 -0.085)">
     <defs>
      <path id="Menlo-Regular-50" d="M 1247 4147 
L 1247 2394 
L 1978 2394 
Q 2416 2394 2661 2625 
Q 2906 2856 2906 3272 
Q 2906 3688 2662 3917 
Q 2419 4147 1978 4147 
L 1247 4147 
z
M 616 4666 
L 1978 4666 
Q 2759 4666 3162 4311 
Q 3566 3956 3566 3272 
Q 3566 2581 3164 2228 
Q 2763 1875 1978 1875 
L 1247 1875 
L 1247 0 
L 616 0 
L 616 4666 
z
" transform="scale(0.015625)"/>
      <path id="Menlo-Regular-4e" d="M 59 4650 
L 922 4650 
L 2747 822 
L 2747 4650 
L 3419 4650 
L 3419 0 
L 2556 0 
L 731 3828 
L 731 0 
L 59 0 
L 59 4650 
z
" transform="scale(0.015625)"/>
      <path id="Menlo-Regular-47" d="M 3450 384 
Q 3197 150 2880 29 
Q 2563 -91 2194 -91 
Q 1306 -91 812 545 
Q 319 1181 319 2328 
Q 319 3472 819 4111 
Q 1319 4750 2209 4750 
Q 2503 4750 2772 4667 
Q 3041 4584 3291 4416 
L 3291 3769 
Q 3038 4009 2772 4123 
Q 2506 4238 2209 4238 
Q 1594 4238 1286 3761 
Q 978 3284 978 2328 
Q 978 1356 1276 889 
Q 1575 422 2194 422 
Q 2403 422 2561 470 
Q 2719 519 2847 622 
L 2847 1875 
L 2169 1875 
L 2169 2394 
L 3450 2394 
L 3450 384 
z
" transform="scale(0.015625)"/>
      <path id="Menlo-Regular-2014" d="M 0 2259 
L 3853 2259 
L 3853 1725 
L 0 1725 
L 0 2259 
z
" transform="scale(0.015625)"/>
      <path id="Menlo-Regular-63" d="M 3316 178 
Q 3084 44 2839 -23 
Q 2594 -91 2338 -91 
Q 1525 -91 1067 396 
Q 609 884 609 1747 
Q 609 2609 1067 3096 
Q 1525 3584 2338 3584 
Q 2591 3584 2831 3518 
Q 3072 3453 3316 3316 
L 3316 2713 
Q 3088 2916 2858 3006 
Q 2628 3097 2338 3097 
Q 1797 3097 1506 2747 
Q 1216 2397 1216 1747 
Q 1216 1100 1508 748 
Q 1800 397 2338 397 
Q 2638 397 2875 489 
Q 3113 581 3316 775 
L 3316 178 
z
" transform="scale(0.015625)"/>
      <path id="Menlo-Regular-75" d="M 609 1325 
L 609 3494 
L 1184 3494 
L 1184 1325 
Q 1184 853 1351 631 
Q 1519 409 1869 409 
Q 2275 409 2490 695 
Q 2706 981 2706 1516 
L 2706 3494 
L 3284 3494 
L 3284 0 
L 2706 0 
L 2706 525 
Q 2553 222 2289 65 
Q 2025 -91 1672 -91 
Q 1134 -91 871 261 
Q 609 613 609 1325 
z
" transform="scale(0.015625)"/>
      <path id="Menlo-Regular-61" d="M 2194 1759 
L 2003 1759 
Q 1500 1759 1245 1582 
Q 991 1406 991 1056 
Q 991 741 1181 566 
Q 1372 391 1709 391 
Q 2184 391 2456 720 
Q 2728 1050 2731 1631 
L 2731 1759 
L 2194 1759 
z
M 3309 1997 
L 3309 0 
L 2731 0 
L 2731 519 
Q 2547 206 2267 57 
Q 1988 -91 1588 -91 
Q 1053 -91 734 211 
Q 416 513 416 1019 
Q 416 1603 808 1906 
Q 1200 2209 1959 2209 
L 2731 2209 
L 2731 2300 
Q 2728 2719 2518 2908 
Q 2309 3097 1850 3097 
Q 1556 3097 1256 3012 
Q 956 2928 672 2766 
L 672 3341 
Q 991 3463 1283 3523 
Q 1575 3584 1850 3584 
Q 2284 3584 2592 3456 
Q 2900 3328 3091 3072 
Q 3209 2916 3259 2686 
Q 3309 2456 3309 1997 
z
" transform="scale(0.015625)"/>
      <path id="Menlo-Regular-76" d="M 313 3500 
L 909 3500 
L 1925 563 
L 2944 3500 
L 3541 3500 
L 2297 0 
L 1556 0 
L 313 3500 
z
" transform="scale(0.015625)"/>
      <path id="Menlo-Regular-2d" d="M 319 2263 
L 3631 2263 
L 3631 1734 
L 319 1734 
L 319 2263 
z
" transform="scale(0.015625)"/>
      <path id="Menlo-Regular-67" d="M 2681 1778 
Q 2681 2425 2470 2761 
Q 2259 3097 1856 3097 
Q 1434 3097 1212 2761 
Q 991 2425 991 1778 
Q 991 1131 1214 792 
Q 1438 453 1863 453 
Q 2259 453 2470 793 
Q 2681 1134 2681 1778 
z
M 3256 225 
Q 3256 -563 2884 -969 
Q 2513 -1375 1791 -1375 
Q 1553 -1375 1293 -1331 
Q 1034 -1288 775 -1203 
L 775 -634 
Q 1081 -778 1331 -847 
Q 1581 -916 1791 -916 
Q 2256 -916 2468 -662 
Q 2681 -409 2681 141 
L 2681 166 
L 2681 556 
Q 2544 263 2306 119 
Q 2069 -25 1728 -25 
Q 1116 -25 750 465 
Q 384 956 384 1778 
Q 384 2603 750 3093 
Q 1116 3584 1728 3584 
Q 2066 3584 2300 3450 
Q 2534 3316 2681 3034 
L 2681 3488 
L 3256 3488 
L 3256 225 
z
" transform="scale(0.015625)"/>
      <path id="Menlo-Regular-3d" d="M 275 1563 
L 3578 1563 
L 3578 1034 
L 275 1034 
L 275 1563 
z
M 275 3034 
L 3578 3034 
L 3578 2506 
L 275 2506 
L 275 3034 
z
" transform="scale(0.015625)"/>
      <path id="Menlo-Regular-35" d="M 647 4666 
L 3009 4666 
L 3009 4134 
L 1222 4134 
L 1222 2988 
Q 1356 3038 1492 3061 
Q 1628 3084 1766 3084 
Q 2491 3084 2916 2656 
Q 3341 2228 3341 1497 
Q 3341 759 2895 334 
Q 2450 -91 1678 -91 
Q 1306 -91 998 -41 
Q 691 9 447 109 
L 447 750 
Q 734 594 1025 517 
Q 1316 441 1619 441 
Q 2141 441 2423 716 
Q 2706 991 2706 1497 
Q 2706 1997 2414 2275 
Q 2122 2553 1600 2553 
Q 1347 2553 1106 2495 
Q 866 2438 647 2322 
L 647 4666 
z
" transform="scale(0.015625)"/>
      <path id="Menlo-Regular-45" d="M 616 4666 
L 3384 4666 
L 3384 4134 
L 1247 4134 
L 1247 2878 
L 3291 2878 
L 3291 2347 
L 1247 2347 
L 1247 531 
L 3444 531 
L 3444 0 
L 616 0 
L 616 4666 
z
" transform="scale(0.015625)"/>
     </defs>
     <use xlink:href="#Menlo-Regular-50"/>
     <use xlink:href="#Menlo-Regular-49" transform="translate(60.205078 0)"/>
     <use xlink:href="#Menlo-Regular-4e" transform="translate(120.410156 0)"/>
     <use xlink:href="#Menlo-Regular-47" transform="translate(180.615234 0)"/>
     <use xlink:href="#Menlo-Regular-20" transform="translate(240.820312 0)"/>
     <use xlink:href="#Menlo-Regular-2014" transform="translate(301.025391 0)"/>
     <use xlink:href="#Menlo-Regular-20" transform="translate(361.230469 0)"/>
     <use xlink:href="#Menlo-Regular-72" transform="translate(421.435547 0)"/>
     <use xlink:href="#Menlo-Regular-65" transform="translate(481.640625 0)"/>
     <use xlink:href="#Menlo-Regular-63" transform="translate(541.845703 0)"/>
     <use xlink:href="#Menlo-Regular-75" transform="translate(602.050781 0)"/>
     <use xlink:href="#Menlo-Regular-72" transform="translate(662.255859 0)"/>
     <use xlink:href="#Menlo-Regular-72" transform="translate(722.460938 0)"/>
     <use xlink:href="#Menlo-Regular-65" transform="translate(782.666016 0)"/>
     <use xlink:href="#Menlo-Regular-6e" transform="translate(842.871094 0)"/>
     <use xlink:href="#Menlo-Regular-74" transform="translate(903.076172 0)"/>
     <use xlink:href="#Menlo-Regular-20" transform="translate(963.28125 0)"/>
     <use xlink:href="#Menlo-Regular-6c" transform="translate(1023.486328 0)"/>
     <use xlink:href="#Menlo-Regular-6f" transform="translate(1083.691406 0)"/>
     <use xlink:href="#Menlo-Regular-6f" transform="translate(1143.896484 0)"/>
     <use xlink:href="#Menlo-Regular-70" transform="translate(1204.101562 0)"/>
     <use xlink:href="#Menlo-Regular-20" transform="translate(1264.306641 0)"/>
     <use xlink:href="#Menlo-Regular-61" transform="translate(1324.511719 0)"/>
     <use xlink:href="#Menlo-Regular-63" transform="translate(1384.716797 0)"/>
     <use xlink:href="#Menlo-Regular-74" transform="translate(1444.921875 0)"/>
     <use xlink:href="#Menlo-Regular-69" transform="translate(1505.126953 0)"/>
     <use xlink:href="#Menlo-Regular-76" transform="translate(1565.332031 0)"/>
     <use xlink:href="#Menlo-Regular-65" transform="translate(1625.537109 0)"/>
     <use xlink:href="#Menlo-Regular-20" transform="translate(1685.742188 0)"/>
     <use xlink:href="#Menlo-Regular-28" transform="translate(1745.947266 0)"/>
     <use xlink:href="#Menlo-Regular-65" transform="translate(1806.152344 0)"/>
     <use xlink:href="#Menlo-Regular-69" transform="translate(1866.357422 0)"/>
     <use xlink:href="#Menlo-Regular-2d" transform="translate(1926.5625 0)"/>
     <use xlink:href="#Menlo-Regular-73" transform="translate(1986.767578 0)"/>
     <use xlink:href="#Menlo-Regular-74" transform="translate(2046.972656 0)"/>
     <use xlink:href="#Menlo-Regular-72" transform="translate(2107.177734 0)"/>
     <use xlink:href="#Menlo-Regular-65" transform="translate(2167.382812 0)"/>
     <use xlink:href="#Menlo-Regular-6e" transform="translate(2227.587891 0)"/>
     <use xlink:href="#Menlo-Regular-67" transform="translate(2287.792969 0)"/>
     <use xlink:href="#Menlo-Regular-74" transform="translate(2347.998047 0)"/>
     <use xlink:href="#Menlo-Regular-68" transform="translate(2408.203125 0)"/>
     <use xlink:href="#Menlo-Regular-20" transform="translate(2468.408203 0)"/>
     <use xlink:href="#Menlo-Regular-3d" transform="translate(2528.613281 0)"/>
     <use xlink:href="#Menlo-Regular-20" transform="translate(2588.818359 0)"/>
     <use xlink:href="#Menlo-Regular-31" transform="translate(2649.023438 0)"/>
     <use xlink:href="#Menlo-Regular-2e" transform="translate(2709.228516 0)"/>
     <use xlink:href="#Menlo-Regular-35" transform="translate(2769.433594 0)"/>
     <use xlink:href="#Menlo-Regular-29" transform="translate(2829.638672 0)"/>
     <use xlink:href="#Menlo-Regular-20" transform="translate(2889.84375 0)"/>
     <use xlink:href="#Menlo-Regular-2014" transform="translate(2950.048828 0)"/>
     <use xlink:href="#Menlo-Regular-20" transform="translate(3010.253906 0)"/>
     <use xlink:href="#Menlo-Regular-45" transform="translate(3070.458984 0)"/>
     <use xlink:href="#Menlo-Regular-2d" transform="translate(3130.664062 0)"/>
     <use xlink:href="#Menlo-Regular-6e" transform="translate(3190.869141 0)"/>
     <use xlink:href="#Menlo-Regular-65" transform="translate(3251.074219 0)"/>
     <use xlink:href="#Menlo-Regular-75" transform="translate(3311.279297 0)"/>
     <use xlink:href="#Menlo-Regular-72" transform="translate(3371.484375 0)"/>
     <use xlink:href="#Menlo-Regular-6f" transform="translate(3431.689453 0)"/>
     <use xlink:href="#Menlo-Regular-6e" transform="translate(3491.894531 0)"/>
     <use xlink:href="#Menlo-Regular-20" transform="translate(3552.099609 0)"/>
     <use xlink:href="#Menlo-Regular-73" transform="translate(3612.304688 0)"/>
     <use xlink:href="#Menlo-Regular-69" transform="translate(3672.509766 0)"/>
     <use xlink:href="#Menlo-Regular-67" transform="translate(3732.714844 0)"/>
     <use xlink:href="#Menlo-Regular-6e" transform="translate(3792.919922 0)"/>
     <use xlink:href="#Menlo-Regular-65" transform="translate(3853.125 0)"/>
     <use xlink:href="#Menlo-Regular-64" transform="translate(3913.330078 0)"/>
     <use xlink:href="#Menlo-Regular-20" transform="translate(3973.535156 0)"/>
     <use xlink:href="#Menlo-Regular-63" transform="translate(4033.740234 0)"/>
     <use xlink:href="#Menlo-Regular-75" transform="translate(4093.945312 0)"/>
     <use xlink:href="#Menlo-Regular-72" transform="translate(4154.150391 0)"/>
     <use xlink:href="#Menlo-Regular-72" transform="translate(4214.355469 0)"/>
     <use xlink:href="#Menlo-Regular-65" transform="translate(4274.560547 0)"/>
     <use xlink:href="#Menlo-Regular-6e" transform="translate(4334.765625 0)"/>
     <use xlink:href="#Menlo-Regular-74" transform="translate(4394.970703 0)"/>
     <use xlink:href="#Menlo-Regular-73" transform="translate(4455.175781 0)"/>
     <use xlink:href="#Menlo-Regular-20" transform="translate(4515.380859 0)"/>
     <use xlink:href="#Menlo-Regular-28" transform="translate(4575.585938 0)"/>
     <use xlink:href="#Menlo-Regular-63" transform="translate(4635.791016 0)"/>
     <use xlink:href="#Menlo-Regular-65" transform="translate(4695.996094 0)"/>
     <use xlink:href="#Menlo-Regular-6c" transform="translate(4756.201172 0)"/>
     <use xlink:href="#Menlo-Regular-6c" transform="translate(4816.40625 0)"/>
     <use xlink:href="#Menlo-Regular-20" transform="translate(4876.611328 0)"/>
     <use xlink:href="#Menlo-Regular-33" transform="translate(4936.816406 0)"/>
     <use xlink:href="#Menlo-Regular-33" transform="translate(4997.021484 0)"/>
     <use xlink:href="#Menlo-Regular-34" transform="translate(5057.226562 0)"/>
     <use xlink:href="#Menlo-Regular-29" transform="translate(5117.431641 0)"/>
    </g>
   </g>
   <g id="legend_1">
    <g id="patch_7">
     <path d="M 45.086719 51.507891 
L 143.342656 51.507891 
L 143.342656 17.805078 
L 45.086719 17.805078 
z
" style="fill: #ffffff; stroke: #1a1a1a; stroke-width: 0.8; stroke-linejoin: miter"/>
    </g>
    <g id="line2d_13">
     <path d="M 47.886719 23.808672 
L 53.486719 23.808672 
L 59.086719 23.808672 
" style="fill: none; stroke: #1a1a1a; stroke-width: 0.9; stroke-linejoin: miter"/>
    </g>
    <g id="text_12">
     <!-- I_E in (depol.) -->
     <g style="fill: #1a1a1a" transform="translate(64.686719 26.258672) scale(0.07 -0.07)">
      <defs>
       <path id="Menlo-Regular-5f" d="M 3825 -594 
L 3825 -1125 
L 0 -1125 
L 0 -594 
L 3825 -594 
z
" transform="scale(0.015625)"/>
      </defs>
      <use xlink:href="#Menlo-Regular-49"/>
      <use xlink:href="#Menlo-Regular-5f" transform="translate(60.205078 0)"/>
      <use xlink:href="#Menlo-Regular-45" transform="translate(120.410156 0)"/>
      <use xlink:href="#Menlo-Regular-20" transform="translate(180.615234 0)"/>
      <use xlink:href="#Menlo-Regular-69" transform="translate(240.820312 0)"/>
      <use xlink:href="#Menlo-Regular-6e" transform="translate(301.025391 0)"/>
      <use xlink:href="#Menlo-Regular-20" transform="translate(361.230469 0)"/>
      <use xlink:href="#Menlo-Regular-28" transform="translate(421.435547 0)"/>
      <use xlink:href="#Menlo-Regular-64" transform="translate(481.640625 0)"/>
      <use xlink:href="#Menlo-Regular-65" transform="translate(541.845703 0)"/>
      <use xlink:href="#Menlo-Regular-70" transform="translate(602.050781 0)"/>
      <use xlink:href="#Menlo-Regular-6f" transform="translate(662.255859 0)"/>
      <use xlink:href="#Menlo-Regular-6c" transform="translate(722.460938 0)"/>
      <use xlink:href="#Menlo-Regular-2e" transform="translate(782.666016 0)"/>
      <use xlink:href="#Menlo-Regular-29" transform="translate(842.871094 0)"/>
     </g>
    </g>
    <g id="line2d_14">
     <path d="M 47.886719 34.418047 
L 53.486719 34.418047 
L 59.086719 34.418047 
" style="fill: none; stroke: #c8102e; stroke-width: 0.9; stroke-linejoin: miter"/>
    </g>
    <g id="text_13">
     <!-- I_I in (hyperpol.) -->
     <g style="fill: #1a1a1a" transform="translate(64.686719 36.868047) scale(0.07 -0.07)">
      <use xlink:href="#Menlo-Regular-49"/>
      <use xlink:href="#Menlo-Regular-5f" transform="translate(60.205078 0)"/>
      <use xlink:href="#Menlo-Regular-49" transform="translate(120.410156 0)"/>
      <use xlink:href="#Menlo-Regular-20" transform="translate(180.615234 0)"/>
      <use xlink:href="#Menlo-Regular-69" transform="translate(240.820312 0)"/>
      <use xlink:href="#Menlo-Regular-6e" transform="translate(301.025391 0)"/>
      <use xlink:href="#Menlo-Regular-20" transform="translate(361.230469 0)"/>
      <use xlink:href="#Menlo-Regular-28" transform="translate(421.435547 0)"/>
      <use xlink:href="#Menlo-Regular-68" transform="translate(481.640625 0)"/>
      <use xlink:href="#Menlo-Regular-79" transform="translate(541.845703 0)"/>
      <use xlink:href="#Menlo-Regular-70" transform="translate(602.050781 0)"/>
      <use xlink:href="#Menlo-Regular-65" transform="translate(662.255859 0)"/>
      <use xlink:href="#Menlo-Regular-72" transform="translate(722.460938 0)"/>
      <use xlink:href="#Menlo-Regular-70" transform="translate(782.666016 0)"/>
      <use xlink:href="#Menlo-Regular-6f" transform="translate(842.871094 0)"/>
      <use xlink:href="#Menlo-Regular-6c" transform="translate(903.076172 0)"/>
      <use xlink:href="#Menlo-Regular-2e" transform="translate(963.28125 0)"/>
      <use xlink:href="#Menlo-Regular-29" transform="translate(1023.486328 0)"/>
     </g>
    </g>
    <g id="line2d_15">
     <path d="M 47.886719 44.802109 
L 53.486719 44.802109 
L 59.086719 44.802109 
" style="fill: none; stroke-dasharray: 0.7,1.155; stroke-dashoffset: 0; stroke: #bbbbbb; stroke-width: 0.7"/>
    </g>
    <g id="text_14">
     <!-- I_L in (leak) -->
     <g style="fill: #1a1a1a" transform="translate(64.686719 47.252109) scale(0.07 -0.07)">
      <defs>
       <path id="Menlo-Regular-4c" d="M 672 4666 
L 1306 4666 
L 1306 531 
L 3559 531 
L 3559 0 
L 672 0 
L 672 4666 
z
" transform="scale(0.015625)"/>
       <path id="Menlo-Regular-6b" d="M 738 4863 
L 1331 4863 
L 1331 2047 
L 2841 3500 
L 3541 3500 
L 2163 2181 
L 3756 0 
L 3053 0 
L 1759 1806 
L 1331 1403 
L 1331 0 
L 738 0 
L 738 4863 
z
" transform="scale(0.015625)"/>
      </defs>
      <use xlink:href="#Menlo-Regular-49"/>
      <use xlink:href="#Menlo-Regular-5f" transform="translate(60.205078 0)"/>
      <use xlink:href="#Menlo-Regular-4c" transform="translate(120.410156 0)"/>
      <use xlink:href="#Menlo-Regular-20" transform="translate(180.615234 0)"/>
      <use xlink:href="#Menlo-Regular-69" transform="translate(240.820312 0)"/>
      <use xlink:href="#Menlo-Regular-6e" transform="translate(301.025391 0)"/>
      <use xlink:href="#Menlo-Regular-20" transform="translate(361.230469 0)"/>
      <use xlink:href="#Menlo-Regular-28" transform="translate(421.435547 0)"/>
      <use xlink:href="#Menlo-Regular-6c" transform="translate(481.640625 0)"/>
      <use xlink:href="#Menlo-Regular-65" transform="translate(541.845703 0)"/>
      <use xlink:href="#Menlo-Regular-61" transform="translate(602.050781 0)"/>
      <use xlink:href="#Menlo-Regular-6b" transform="translate(662.255859 0)"/>
      <use xlink:href="#Menlo-Regular-29" transform="translate(722.460938 0)"/>
     </g>
    </g>
   </g>
  </g>
 </g>
 <defs>
  <clipPath id="p55cf3fa900">
   <rect x="29.715156" y="14.305078" width="117.1275" height="69.12"/>
  </clipPath>
 </defs>
</svg>
