<?xml version="1.0" encoding="utf-8" standalone="no"?>
<!DOCTYPE svg PUBLIC "-//W3C//DTD SVG 1.1//EN"
  "http://www.w3.org/Graphics/SVG/1.1/DTD/svg11.dtd">
<svg xmlns:xlink="http://www.w3.org/1999/xlink" width="426.990703pt" height="106.924453pt" viewBox="0 0 426.990703 106.924453" xmlns="http://www.w3.org/2000/svg" version="1.1">
 <metadata>
  <rdf:RDF xmlns:dc="http://purl.org/dc/elements/1.1/" xmlns:cc="http://creativecommons.org/ns#" xmlns:rdf="http://www.w3.org/1999/02/22-rdf-syntax-ns#">
   <cc:Work>
    <dc:type rdf:resource="http://purl.org/dc/dcmitype/StillImage"/>
    <dc:date>2026-06-30T22:43:53.290910</dc:date>
    <dc:format>image/svg+xml</dc:format>
    <dc:creator>
     <cc:Agent>
      <dc:title>Matplotlib v3.10.8, https://matplotlib.org/</dc:title>
     </cc:Agent>
    </dc:creator>
   </cc:Work>
  </rdf:RDF>
 </metadata>
 <defs>
  <style type="text/css">*{stroke-linejoin: round; stroke-linecap: butt}</style>
 </defs>
 <g id="figure_1">
  <g id="patch_1">
   <path d="M 0 106.924453 
L 426.990703 106.924453 
L 426.990703 0 
L 0 0 
z
" style="fill: #ffffff"/>
  </g>
  <g id="axes_1">
   <g id="patch_2">
    <path d="M 21.286719 83.425078 
L 164.829219 83.425078 
L 164.829219 14.305078 
L 21.286719 14.305078 
z
" style="fill: #ffffff"/>
   </g>
   <g id="matplotlib.axis_1">
    <g id="xtick_1">
     <g id="line2d_1">
      <defs>
       <path id="m19ef54f840" d="M 0 0 
L 0 -3 
" style="stroke: #1a1a1a; stroke-width: 0.8"/>
      </defs>
      <g>
       <use xlink:href="#m19ef54f840" x="21.286719" y="83.425078" style="fill: #1a1a1a; stroke: #1a1a1a; stroke-width: 0.8"/>
      </g>
     </g>
     <g id="text_1">
      <!-- 0 -->
      <g style="fill: #1a1a1a" transform="translate(19.179609 92.263672) scale(0.07 -0.07)">
       <defs>
        <path id="Menlo-Regular-30" d="M 1925 4734 
Q 2672 4734 3055 4125 
Q 3438 3516 3438 2322 
Q 3438 1128 3055 518 
Q 2672 -91 1925 -91 
Q 1178 -91 797 518 
Q 416 1128 416 2322 
Q 416 3516 797 4125 
Q 1178 4734 1925 4734 
z
M 1925 409 
Q 2369 409 2586 881 
Q 2803 1353 2803 2322 
Q 2803 2838 2741 3253 
L 1253 925 
Q 1488 409 1925 409 
z
M 1925 4234 
Q 1484 4234 1267 3762 
Q 1050 3291 1050 2322 
Q 1050 1881 1109 1497 
L 2566 3819 
Q 2328 4234 1925 4234 
z
" transform="scale(0.015625)"/>
       </defs>
       <use xlink:href="#Menlo-Regular-30"/>
      </g>
     </g>
    </g>
    <g id="xtick_2">
     <g id="line2d_2">
      <g>
       <use xlink:href="#m19ef54f840" x="57.172344" y="83.425078" style="fill: #1a1a1a; stroke: #1a1a1a; stroke-width: 0.8"/>
      </g>
     </g>
     <g id="text_2">
      <!-- 100 -->
      <g style="fill: #1a1a1a" transform="translate(50.851016 92.263672) scale(0.07 -0.07)">
       <defs>
        <path id="Menlo-Regular-31" d="M 844 528 
L 1825 528 
L 1825 4053 
L 650 3488 
L 650 4094 
L 1819 4650 
L 2450 4650 
L 2450 528 
L 3419 528 
L 3419 0 
L 844 0 
L 844 528 
z
" transform="scale(0.015625)"/>
       </defs>
       <use xlink:href="#Menlo-Regular-31"/>
       <use xlink:href="#Menlo-Regular-30" transform="translate(60.205078 0)"/>
       <use xlink:href="#Menlo-Regular-30" transform="translate(120.410156 0)"/>
      </g>
     </g>
    </g>
    <g id="xtick_3">
     <g id="line2d_3">
      <g>
       <use xlink:href="#m19ef54f840" x="93.057969" y="83.425078" style="fill: #1a1a1a; stroke: #1a1a1a; stroke-width: 0.8"/>
      </g>
     </g>
     <g id="text_3">
      <!-- 200 -->
      <g style="fill: #1a1a1a" transform="translate(86.736641 92.263672) scale(0.07 -0.07)">
       <defs>
        <path id="Menlo-Regular-32" d="M 1166 531 
L 3309 531 
L 3309 0 
L 475 0 
L 475 531 
Q 1059 1147 1496 1619 
Q 1934 2091 2100 2284 
Q 2413 2666 2522 2902 
Q 2631 3138 2631 3384 
Q 2631 3775 2401 3997 
Q 2172 4219 1772 4219 
Q 1488 4219 1175 4116 
Q 863 4013 513 3803 
L 513 4441 
Q 834 4594 1145 4672 
Q 1456 4750 1759 4750 
Q 2444 4750 2861 4386 
Q 3278 4022 3278 3431 
Q 3278 3131 3139 2831 
Q 3000 2531 2688 2169 
Q 2513 1966 2180 1606 
Q 1847 1247 1166 531 
z
" transform="scale(0.015625)"/>
       </defs>
       <use xlink:href="#Menlo-Regular-32"/>
       <use xlink:href="#Menlo-Regular-30" transform="translate(60.205078 0)"/>
       <use xlink:href="#Menlo-Regular-30" transform="translate(120.410156 0)"/>
      </g>
     </g>
    </g>
    <g id="xtick_4">
     <g id="line2d_4">
      <g>
       <use xlink:href="#m19ef54f840" x="128.943594" y="83.425078" style="fill: #1a1a1a; stroke: #1a1a1a; stroke-width: 0.8"/>
      </g>
     </g>
     <g id="text_4">
      <!-- 300 -->
      <g style="fill: #1a1a1a" transform="translate(122.622266 92.263672) scale(0.07 -0.07)">
       <defs>
        <path id="Menlo-Regular-33" d="M 2425 2497 
Q 2884 2375 3128 2064 
Q 3372 1753 3372 1288 
Q 3372 644 2939 276 
Q 2506 -91 1741 -91 
Q 1419 -91 1084 -31 
Q 750 28 428 141 
L 428 769 
Q 747 603 1056 522 
Q 1366 441 1672 441 
Q 2191 441 2469 675 
Q 2747 909 2747 1350 
Q 2747 1756 2469 1995 
Q 2191 2234 1716 2234 
L 1234 2234 
L 1234 2753 
L 1716 2753 
Q 2150 2753 2394 2943 
Q 2638 3134 2638 3475 
Q 2638 3834 2411 4026 
Q 2184 4219 1766 4219 
Q 1488 4219 1191 4156 
Q 894 4094 569 3969 
L 569 4550 
Q 947 4650 1242 4700 
Q 1538 4750 1766 4750 
Q 2447 4750 2855 4408 
Q 3263 4066 3263 3500 
Q 3263 3116 3048 2859 
Q 2834 2603 2425 2497 
z
" transform="scale(0.015625)"/>
       </defs>
       <use xlink:href="#Menlo-Regular-33"/>
       <use xlink:href="#Menlo-Regular-30" transform="translate(60.205078 0)"/>
       <use xlink:href="#Menlo-Regular-30" transform="translate(120.410156 0)"/>
      </g>
     </g>
    </g>
    <g id="xtick_5">
     <g id="line2d_5">
      <g>
       <use xlink:href="#m19ef54f840" x="164.829219" y="83.425078" style="fill: #1a1a1a; stroke: #1a1a1a; stroke-width: 0.8"/>
      </g>
     </g>
     <g id="text_5">
      <!-- 400 -->
      <g style="fill: #1a1a1a" transform="translate(158.507891 92.263672) scale(0.07 -0.07)">
       <defs>
        <path id="Menlo-Regular-34" d="M 2297 4091 
L 825 1625 
L 2297 1625 
L 2297 4091 
z
M 2194 4666 
L 2925 4666 
L 2925 1625 
L 3547 1625 
L 3547 1113 
L 2925 1113 
L 2925 0 
L 2297 0 
L 2297 1113 
L 319 1113 
L 319 1709 
L 2194 4666 
z
" transform="scale(0.015625)"/>
       </defs>
       <use xlink:href="#Menlo-Regular-34"/>
       <use xlink:href="#Menlo-Regular-30" transform="translate(60.205078 0)"/>
       <use xlink:href="#Menlo-Regular-30" transform="translate(120.410156 0)"/>
      </g>
     </g>
    </g>
    <g id="text_6">
     <!-- time (ms) -->
     <g style="fill: #1a1a1a" transform="translate(71.384844 103.820703) scale(0.08 -0.08)">
      <defs>
       <path id="Menlo-Regular-74" d="M 1919 4494 
L 1919 3500 
L 3225 3500 
L 3225 3053 
L 1919 3053 
L 1919 1153 
Q 1919 766 2066 612 
Q 2213 459 2578 459 
L 3225 459 
L 3225 0 
L 2522 0 
Q 1875 0 1609 259 
Q 1344 519 1344 1153 
L 1344 3053 
L 409 3053 
L 409 3500 
L 1344 3500 
L 1344 4494 
L 1919 4494 
z
" transform="scale(0.015625)"/>
       <path id="Menlo-Regular-69" d="M 988 3488 
L 2459 3488 
L 2459 447 
L 3600 447 
L 3600 0 
L 744 0 
L 744 447 
L 1884 447 
L 1884 3041 
L 988 3041 
L 988 3488 
z
M 1884 4847 
L 2459 4847 
L 2459 4122 
L 1884 4122 
L 1884 4847 
z
" transform="scale(0.015625)"/>
       <path id="Menlo-Regular-6d" d="M 2113 3144 
Q 2219 3369 2383 3476 
Q 2547 3584 2778 3584 
Q 3200 3584 3373 3257 
Q 3547 2931 3547 2028 
L 3547 0 
L 3022 0 
L 3022 2003 
Q 3022 2744 2939 2923 
Q 2856 3103 2638 3103 
Q 2388 3103 2295 2911 
Q 2203 2719 2203 2003 
L 2203 0 
L 1678 0 
L 1678 2003 
Q 1678 2753 1589 2928 
Q 1500 3103 1269 3103 
Q 1041 3103 952 2911 
Q 863 2719 863 2003 
L 863 0 
L 341 0 
L 341 3500 
L 863 3500 
L 863 3200 
Q 966 3388 1120 3486 
Q 1275 3584 1472 3584 
Q 1709 3584 1867 3475 
Q 2025 3366 2113 3144 
z
" transform="scale(0.015625)"/>
       <path id="Menlo-Regular-65" d="M 3500 2038 
L 3500 1756 
L 1009 1756 
L 1009 1738 
Q 984 1022 1282 709 
Q 1581 397 2125 397 
Q 2400 397 2700 484 
Q 3000 572 3341 750 
L 3341 178 
Q 3013 44 2708 -23 
Q 2403 -91 2119 -91 
Q 1303 -91 843 398 
Q 384 888 384 1747 
Q 384 2584 834 3084 
Q 1284 3584 2034 3584 
Q 2703 3584 3089 3131 
Q 3475 2678 3500 2038 
z
M 2925 2206 
Q 2888 2569 2661 2833 
Q 2434 3097 2009 3097 
Q 1594 3097 1325 2822 
Q 1056 2547 1031 2203 
L 2925 2206 
z
" transform="scale(0.015625)"/>
       <path id="Menlo-Regular-20" transform="scale(0.015625)"/>
       <path id="Menlo-Regular-28" d="M 2672 5169 
Q 2256 4456 2051 3748 
Q 1847 3041 1847 2322 
Q 1847 1606 2051 897 
Q 2256 188 2672 -531 
L 2172 -531 
Q 1700 213 1469 917 
Q 1238 1622 1238 2322 
Q 1238 3019 1469 3725 
Q 1700 4431 2172 5169 
L 2672 5169 
z
" transform="scale(0.015625)"/>
       <path id="Menlo-Regular-73" d="M 3041 3378 
L 3041 2816 
Q 2794 2959 2544 3031 
Q 2294 3103 2034 3103 
Q 1644 3103 1451 2976 
Q 1259 2850 1259 2591 
Q 1259 2356 1403 2240 
Q 1547 2125 2119 2016 
L 2350 1972 
Q 2778 1891 2998 1647 
Q 3219 1403 3219 1013 
Q 3219 494 2850 201 
Q 2481 -91 1825 -91 
Q 1566 -91 1281 -36 
Q 997 19 666 128 
L 666 722 
Q 988 556 1281 473 
Q 1575 391 1838 391 
Q 2219 391 2428 545 
Q 2638 700 2638 978 
Q 2638 1378 1872 1531 
L 1847 1538 
L 1631 1581 
Q 1134 1678 906 1908 
Q 678 2138 678 2534 
Q 678 3038 1018 3311 
Q 1359 3584 1991 3584 
Q 2272 3584 2531 3532 
Q 2791 3481 3041 3378 
z
" transform="scale(0.015625)"/>
       <path id="Menlo-Regular-29" d="M 1088 5169 
L 1588 5169 
Q 2059 4431 2290 3725 
Q 2522 3019 2522 2322 
Q 2522 1619 2290 912 
Q 2059 206 1588 -531 
L 1088 -531 
Q 1503 194 1708 903 
Q 1913 1613 1913 2322 
Q 1913 3034 1708 3743 
Q 1503 4453 1088 5169 
z
" transform="scale(0.015625)"/>
      </defs>
      <use xlink:href="#Menlo-Regular-74"/>
      <use xlink:href="#Menlo-Regular-69" transform="translate(60.205078 0)"/>
      <use xlink:href="#Menlo-Regular-6d" transform="translate(120.410156 0)"/>
      <use xlink:href="#Menlo-Regular-65" transform="translate(180.615234 0)"/>
      <use xlink:href="#Menlo-Regular-20" transform="translate(240.820312 0)"/>
      <use xlink:href="#Menlo-Regular-28" transform="translate(301.025391 0)"/>
      <use xlink:href="#Menlo-Regular-6d" transform="translate(361.230469 0)"/>
      <use xlink:href="#Menlo-Regular-73" transform="translate(421.435547 0)"/>
      <use xlink:href="#Menlo-Regular-29" transform="translate(481.640625 0)"/>
     </g>
    </g>
   </g>
   <g id="matplotlib.axis_2">
    <g id="ytick_1">
     <g id="line2d_6">
      <defs>
       <path id="m43a91f4a4e" d="M 0 0 
L 3 0 
" style="stroke: #1a1a1a; stroke-width: 0.8"/>
      </defs>
      <g>
       <use xlink:href="#m43a91f4a4e" x="21.286719" y="69.854318" style="fill: #1a1a1a; stroke: #1a1a1a; stroke-width: 0.8"/>
      </g>
     </g>
     <g id="text_7">
      <!-- 0 -->
      <g style="fill: #1a1a1a" transform="translate(13.5725 72.523615) scale(0.07 -0.07)">
       <use xlink:href="#Menlo-Regular-30"/>
      </g>
     </g>
    </g>
    <g id="ytick_2">
     <g id="line2d_7">
      <g>
       <use xlink:href="#m43a91f4a4e" x="21.286719" y="42.008398" style="fill: #1a1a1a; stroke: #1a1a1a; stroke-width: 0.8"/>
      </g>
     </g>
     <g id="text_8">
      <!-- 2 -->
      <g style="fill: #1a1a1a" transform="translate(13.5725 44.677695) scale(0.07 -0.07)">
       <use xlink:href="#Menlo-Regular-32"/>
      </g>
     </g>
    </g>
    <g id="text_9">
     <!-- I in  [+ depol. / − hyperpol.] -->
     <g style="fill: #1a1a1a" transform="translate(7.90875 121.108828) rotate(-90) scale(0.08 -0.08)">
      <defs>
       <path id="Menlo-Regular-49" d="M 628 4666 
L 3219 4666 
L 3219 4134 
L 2241 4134 
L 2241 531 
L 3219 531 
L 3219 0 
L 628 0 
L 628 531 
L 1606 531 
L 1606 4134 
L 628 4134 
L 628 4666 
z
" transform="scale(0.015625)"/>
       <path id="Menlo-Regular-6e" d="M 3284 2169 
L 3284 0 
L 2706 0 
L 2706 2169 
Q 2706 2641 2540 2862 
Q 2375 3084 2022 3084 
Q 1619 3084 1401 2798 
Q 1184 2513 1184 1978 
L 1184 0 
L 609 0 
L 609 3500 
L 1184 3500 
L 1184 2975 
Q 1338 3275 1600 3429 
Q 1863 3584 2222 3584 
Q 2756 3584 3020 3232 
Q 3284 2881 3284 2169 
z
" transform="scale(0.015625)"/>
       <path id="Menlo-Regular-5b" d="M 1759 5175 
L 3084 5175 
L 3084 4728 
L 2334 4728 
L 2334 -84 
L 3084 -84 
L 3084 -531 
L 1759 -531 
L 1759 5175 
z
" transform="scale(0.015625)"/>
       <path id="Menlo-Regular-2b" d="M 2250 3681 
L 2250 2297 
L 3641 2297 
L 3641 1769 
L 2250 1769 
L 2250 384 
L 1725 384 
L 1725 1769 
L 338 1769 
L 338 2297 
L 1725 2297 
L 1725 3681 
L 2250 3681 
z
" transform="scale(0.015625)"/>
       <path id="Menlo-Regular-64" d="M 2681 3053 
L 2681 4863 
L 3256 4863 
L 3256 0 
L 2681 0 
L 2681 441 
Q 2538 181 2298 45 
Q 2059 -91 1747 -91 
Q 1113 -91 748 401 
Q 384 894 384 1759 
Q 384 2613 750 3098 
Q 1116 3584 1747 3584 
Q 2063 3584 2303 3448 
Q 2544 3313 2681 3053 
z
M 991 1747 
Q 991 1078 1203 737 
Q 1416 397 1831 397 
Q 2247 397 2464 740 
Q 2681 1084 2681 1747 
Q 2681 2413 2464 2755 
Q 2247 3097 1831 3097 
Q 1416 3097 1203 2756 
Q 991 2416 991 1747 
z
" transform="scale(0.015625)"/>
       <path id="Menlo-Regular-70" d="M 1172 441 
L 1172 -1331 
L 594 -1331 
L 594 3500 
L 1172 3500 
L 1172 3053 
Q 1316 3313 1555 3448 
Q 1794 3584 2106 3584 
Q 2741 3584 3102 3093 
Q 3463 2603 3463 1734 
Q 3463 881 3100 395 
Q 2738 -91 2106 -91 
Q 1788 -91 1548 45 
Q 1309 181 1172 441 
z
M 2859 1747 
Q 2859 2416 2648 2756 
Q 2438 3097 2022 3097 
Q 1603 3097 1387 2755 
Q 1172 2413 1172 1747 
Q 1172 1084 1387 740 
Q 1603 397 2022 397 
Q 2438 397 2648 737 
Q 2859 1078 2859 1747 
z
" transform="scale(0.015625)"/>
       <path id="Menlo-Regular-6f" d="M 1925 3097 
Q 1488 3097 1263 2756 
Q 1038 2416 1038 1747 
Q 1038 1081 1263 739 
Q 1488 397 1925 397 
Q 2366 397 2591 739 
Q 2816 1081 2816 1747 
Q 2816 2416 2591 2756 
Q 2366 3097 1925 3097 
z
M 1925 3584 
Q 2653 3584 3039 3112 
Q 3425 2641 3425 1747 
Q 3425 850 3040 379 
Q 2656 -91 1925 -91 
Q 1197 -91 812 379 
Q 428 850 428 1747 
Q 428 2641 812 3112 
Q 1197 3584 1925 3584 
z
" transform="scale(0.015625)"/>
       <path id="Menlo-Regular-6c" d="M 2247 1266 
Q 2247 878 2389 681 
Q 2531 484 2809 484 
L 3481 484 
L 3481 0 
L 2753 0 
Q 2238 0 1955 329 
Q 1672 659 1672 1266 
L 1672 4431 
L 750 4431 
L 750 4881 
L 2247 4881 
L 2247 1266 
z
" transform="scale(0.015625)"/>
       <path id="Menlo-Regular-2e" d="M 1216 1263 
L 2316 1263 
L 2316 0 
L 1216 0 
L 1216 1263 
z
" transform="scale(0.015625)"/>
       <path id="Menlo-Regular-2f" d="M 2778 4666 
L 3372 4666 
L 916 -594 
L 319 -594 
L 2778 4666 
z
" transform="scale(0.015625)"/>
       <path id="Menlo-Regular-2212" d="M 275 2272 
L 3578 2272 
L 3578 1741 
L 275 1741 
L 275 2272 
z
" transform="scale(0.015625)"/>
       <path id="Menlo-Regular-68" d="M 3284 2169 
L 3284 0 
L 2706 0 
L 2706 2169 
Q 2706 2641 2540 2862 
Q 2375 3084 2022 3084 
Q 1619 3084 1401 2798 
Q 1184 2513 1184 1978 
L 1184 0 
L 609 0 
L 609 4863 
L 1184 4863 
L 1184 2975 
Q 1338 3275 1600 3429 
Q 1863 3584 2222 3584 
Q 2756 3584 3020 3232 
Q 3284 2881 3284 2169 
z
" transform="scale(0.015625)"/>
       <path id="Menlo-Regular-79" d="M 2681 1125 
Q 2538 759 2316 163 
Q 2006 -663 1900 -844 
Q 1756 -1088 1540 -1209 
Q 1325 -1331 1038 -1331 
L 575 -1331 
L 575 -850 
L 916 -850 
Q 1169 -850 1312 -703 
Q 1456 -556 1678 56 
L 325 3500 
L 934 3500 
L 1972 763 
L 2994 3500 
L 3603 3500 
L 2681 1125 
z
" transform="scale(0.015625)"/>
       <path id="Menlo-Regular-72" d="M 3609 2778 
Q 3425 2922 3234 2987 
Q 3044 3053 2816 3053 
Q 2278 3053 1993 2715 
Q 1709 2378 1709 1741 
L 1709 0 
L 1131 0 
L 1131 3500 
L 1709 3500 
L 1709 2816 
Q 1853 3188 2151 3386 
Q 2450 3584 2859 3584 
Q 3072 3584 3256 3531 
Q 3441 3478 3609 3366 
L 3609 2778 
z
" transform="scale(0.015625)"/>
       <path id="Menlo-Regular-5d" d="M 2250 5175 
L 2250 -531 
L 925 -531 
L 925 -84 
L 1675 -84 
L 1675 4728 
L 925 4728 
L 925 5175 
L 2250 5175 
z
" transform="scale(0.015625)"/>
      </defs>
      <use xlink:href="#Menlo-Regular-49"/>
      <use xlink:href="#Menlo-Regular-20" transform="translate(60.205078 0)"/>
      <use xlink:href="#Menlo-Regular-69" transform="translate(120.410156 0)"/>
      <use xlink:href="#Menlo-Regular-6e" transform="translate(180.615234 0)"/>
      <use xlink:href="#Menlo-Regular-20" transform="translate(240.820312 0)"/>
      <use xlink:href="#Menlo-Regular-20" transform="translate(301.025391 0)"/>
      <use xlink:href="#Menlo-Regular-5b" transform="translate(361.230469 0)"/>
      <use xlink:href="#Menlo-Regular-2b" transform="translate(421.435547 0)"/>
      <use xlink:href="#Menlo-Regular-20" transform="translate(481.640625 0)"/>
      <use xlink:href="#Menlo-Regular-64" transform="translate(541.845703 0)"/>
      <use xlink:href="#Menlo-Regular-65" transform="translate(602.050781 0)"/>
      <use xlink:href="#Menlo-Regular-70" transform="translate(662.255859 0)"/>
      <use xlink:href="#Menlo-Regular-6f" transform="translate(722.460938 0)"/>
      <use xlink:href="#Menlo-Regular-6c" transform="translate(782.666016 0)"/>
      <use xlink:href="#Menlo-Regular-2e" transform="translate(842.871094 0)"/>
      <use xlink:href="#Menlo-Regular-20" transform="translate(903.076172 0)"/>
      <use xlink:href="#Menlo-Regular-2f" transform="translate(963.28125 0)"/>
      <use xlink:href="#Menlo-Regular-20" transform="translate(1023.486328 0)"/>
      <use xlink:href="#Menlo-Regular-2212" transform="translate(1083.691406 0)"/>
      <use xlink:href="#Menlo-Regular-20" transform="translate(1143.896484 0)"/>
      <use xlink:href="#Menlo-Regular-68" transform="translate(1204.101562 0)"/>
      <use xlink:href="#Menlo-Regular-79" transform="translate(1264.306641 0)"/>
      <use xlink:href="#Menlo-Regular-70" transform="translate(1324.511719 0)"/>
      <use xlink:href="#Menlo-Regular-65" transform="translate(1384.716797 0)"/>
      <use xlink:href="#Menlo-Regular-72" transform="translate(1444.921875 0)"/>
      <use xlink:href="#Menlo-Regular-70" transform="translate(1505.126953 0)"/>
      <use xlink:href="#Menlo-Regular-6f" transform="translate(1565.332031 0)"/>
      <use xlink:href="#Menlo-Regular-6c" transform="translate(1625.537109 0)"/>
      <use xlink:href="#Menlo-Regular-2e" transform="translate(1685.742188 0)"/>
      <use xlink:href="#Menlo-Regular-5d" transform="translate(1745.947266 0)"/>
     </g>
    </g>
   </g>
   <g id="line2d_8">
    <path d="M 21.286719 69.854318 
L 164.829219 69.854318 
" clip-path="url(#pda11342869)" style="fill: none; stroke: #bbbbbb; stroke-width: 0.5; stroke-linejoin: miter"/>
   </g>
   <g id="line2d_9">
    <path d="M 21.286719 68.566759 
L 21.735289 63.705983 
L 22.183859 66.581052 
L 22.363288 64.218846 
L 22.722144 58.844095 
L 22.901572 56.759551 
L 22.991286 56.855717 
L 23.260428 59.789618 
L 23.439856 57.415287 
L 23.798713 51.870425 
L 24.336997 57.487784 
L 24.606139 55.437686 
L 24.875281 51.119672 
L 25.144423 48.45568 
L 25.323852 48.215868 
L 25.50328 48.857472 
L 25.682708 49.180199 
L 26.579848 43.784952 
L 26.759277 44.017268 
L 26.848991 43.55469 
L 26.938705 43.925745 
L 27.387275 39.169472 
L 27.566703 28.874886 
L 27.746131 26.622763 
L 28.194702 19.419687 
L 28.37413 18.978786 
L 28.553558 17.446896 
L 28.8227 20.078281 
L 29.450698 32.193744 
L 29.630127 33.802248 
L 29.899269 35.05522 
L 29.988983 35.005902 
L 30.078697 34.700396 
L 30.527267 44.942129 
L 30.975838 56.690875 
L 31.24498 59.457033 
L 31.334694 59.195222 
L 31.424408 59.324173 
L 31.603836 59.697195 
L 31.872978 58.26594 
L 31.962692 58.308069 
L 32.14212 56.785233 
L 32.321548 57.4146 
L 32.411263 56.825073 
L 32.500977 56.856557 
L 32.680405 57.636896 
L 32.859833 52.443268 
L 32.949547 51.859177 
L 33.039261 52.423664 
L 33.128975 52.366502 
L 33.218689 52.50917 
L 33.487831 53.884814 
L 33.756973 53.014515 
L 33.846688 53.256644 
L 33.936402 53.451823 
L 34.205544 56.559668 
L 34.474686 60.140657 
L 34.654114 59.340634 
L 34.743828 59.262055 
L 34.833542 58.762012 
L 34.923256 59.036965 
L 35.01297 58.848403 
L 35.192398 58.21355 
L 35.551255 62.479108 
L 35.910111 65.184244 
L 35.999825 65.312773 
L 36.089539 65.847949 
L 36.358681 60.75657 
L 37.345536 36.652324 
L 37.704392 31.128061 
L 37.973534 35.765047 
L 38.332391 43.302228 
L 38.780961 47.875312 
L 38.870675 47.884243 
L 38.960389 48.261082 
L 39.050103 41.885769 
L 39.139817 42.338319 
L 39.408959 44.504148 
L 39.678102 47.861108 
L 39.767816 47.934057 
L 40.3061 54.620987 
L 40.75467 61.810379 
L 41.203241 65.574662 
L 41.562097 63.195957 
L 41.741525 61.34573 
L 41.831239 61.647222 
L 41.920953 61.084974 
L 42.100381 59.118345 
L 42.190095 59.743452 
L 42.369523 59.510605 
L 42.818094 54.822704 
L 43.446092 59.84779 
L 43.894663 55.8516 
L 44.163805 57.817617 
L 44.253519 58.308383 
L 44.702089 63.703922 
L 45.150659 66.558691 
L 45.240373 66.581987 
L 45.330088 66.457161 
L 45.419802 66.101923 
L 45.778658 58.580754 
L 46.0478 54.995312 
L 46.316942 50.912689 
L 46.406656 50.850616 
L 46.855227 47.717481 
L 47.034655 49.062185 
L 47.303797 51.861293 
L 47.483225 54.022334 
L 47.572939 53.964134 
L 47.842081 51.095953 
L 47.931795 51.738084 
L 48.021509 51.707589 
L 48.111223 51.651125 
L 48.290652 50.087738 
L 48.649508 45.041924 
L 48.739222 45.090306 
L 48.91865 46.468848 
L 49.008364 47.467675 
L 49.098078 41.443191 
L 49.187792 41.516383 
L 49.277506 41.287683 
L 49.815791 49.871243 
L 49.995219 49.096707 
L 50.084933 47.896837 
L 50.264361 49.336003 
L 50.354075 49.049901 
L 50.623217 51.242749 
L 50.712931 50.7432 
L 50.892359 51.730587 
L 51.34093 54.277539 
L 51.610072 53.094898 
L 52.148356 45.466914 
L 52.327784 46.588577 
L 52.596927 51.007664 
L 52.776355 51.830849 
L 52.866069 51.551854 
L 53.224925 48.660151 
L 53.314639 48.751138 
L 53.404353 49.188964 
L 53.583781 50.366926 
L 53.852923 53.342765 
L 53.942637 52.69787 
L 54.21178 50.503674 
L 54.570636 47.328862 
L 54.750064 47.654146 
L 54.929492 50.279096 
L 55.198634 53.39793 
L 55.288348 53.599889 
L 55.647205 56.703277 
L 55.736919 56.764646 
L 55.916347 55.986966 
L 56.006061 55.603445 
L 56.185489 50.001066 
L 56.454631 51.292203 
L 56.544345 50.851965 
L 56.634059 50.974081 
L 56.813488 49.830898 
L 56.992916 49.627532 
L 57.351772 47.017865 
L 57.441486 47.417471 
L 58.338627 62.994737 
L 58.787197 66.194794 
L 58.876911 66.62542 
L 58.966625 66.572162 
L 59.056339 66.326961 
L 59.235767 62.89604 
L 59.504909 57.57849 
L 59.684337 56.406236 
L 59.863766 56.841014 
L 60.043194 59.622063 
L 60.132908 59.418004 
L 60.222622 60.057389 
L 60.491764 57.776353 
L 60.581478 56.989503 
L 60.671192 57.393717 
L 60.85062 55.250875 
L 61.119763 50.781733 
L 61.478619 45.636361 
L 61.568333 45.633984 
L 61.658047 44.98664 
L 61.837475 45.664256 
L 62.106617 41.566819 
L 62.196331 42.063181 
L 63.452328 59.209488 
L 63.72147 56.458643 
L 63.811184 56.175819 
L 64.080327 56.873257 
L 64.170041 57.095447 
L 64.349469 54.038368 
L 64.528897 52.247951 
L 64.798039 50.661918 
L 64.887753 46.330304 
L 65.246609 52.439179 
L 65.515752 50.301899 
L 65.69518 50.88475 
L 65.964322 55.436707 
L 66.233464 59.024754 
L 66.323178 58.770844 
L 66.59232 61.308462 
L 66.682034 60.742962 
L 66.861462 58.185013 
L 66.951177 58.427395 
L 67.579175 64.567506 
L 67.668889 64.215498 
L 68.117459 66.843877 
L 68.56603 68.242733 
L 68.655744 68.110977 
L 68.745458 67.560184 
L 68.835172 67.829662 
L 69.104314 64.41765 
L 69.283742 61.459794 
L 69.373456 61.53978 
L 69.46317 61.154714 
L 69.552884 61.258609 
L 69.732313 61.09051 
L 69.911741 61.024275 
L 70.001455 60.67989 
L 70.091169 60.743832 
L 70.180883 60.515876 
L 70.360311 61.053987 
L 70.719167 62.68945 
L 70.808881 62.414694 
L 70.988309 61.203298 
L 71.167737 60.376918 
L 71.347166 61.589425 
L 71.43688 61.365325 
L 71.526594 61.464841 
L 71.706022 62.010678 
L 71.795736 61.522098 
L 71.88545 61.742989 
L 72.154592 63.274784 
L 72.33402 62.188254 
L 72.603162 60.413704 
L 72.782591 60.952005 
L 72.962019 59.428208 
L 73.231161 60.860602 
L 73.320875 60.930095 
L 73.500303 62.581638 
L 73.679731 62.773066 
L 74.128302 66.060446 
L 74.576872 67.815932 
L 74.7563 68.263609 
L 74.846014 67.900454 
L 75.025442 63.532477 
L 75.474012 52.392699 
L 75.563727 51.88613 
L 75.653441 51.948538 
L 75.832869 51.547402 
L 75.922583 51.915514 
L 76.012297 51.851531 
L 76.191725 50.009838 
L 76.460867 50.571583 
L 76.730009 47.863396 
L 76.909437 47.838504 
L 77.17858 44.325428 
L 77.806578 51.50709 
L 78.07572 55.52869 
L 78.165434 56.166853 
L 78.434577 55.389232 
L 78.524291 55.418098 
L 78.614005 55.291318 
L 78.703719 54.722049 
L 78.793433 52.691442 
L 78.972861 43.887466 
L 79.600859 31.872013 
L 79.780287 31.018342 
L 80.04943 34.186001 
L 80.139144 34.134615 
L 80.228858 33.902496 
L 80.498 34.770467 
L 80.767142 32.656512 
L 80.94657 33.828638 
L 81.125998 35.723513 
L 81.215712 35.59388 
L 81.395141 36.242831 
L 81.484855 36.317742 
L 81.574569 36.107698 
L 81.753997 34.331331 
L 81.843711 34.309582 
L 82.112853 35.58521 
L 82.292281 38.46798 
L 82.381995 40.776946 
L 82.471709 33.993185 
L 83.099708 46.964783 
L 83.279136 48.280121 
L 84.355705 60.516651 
L 84.893989 54.817962 
L 85.073417 53.91509 
L 85.252845 54.37717 
L 85.342559 54.388028 
L 85.432273 55.119963 
L 85.521987 54.947596 
L 85.79113 56.345692 
L 85.880844 57.961672 
L 85.970558 57.879698 
L 86.060272 57.804593 
L 86.329414 56.087203 
L 86.419128 56.197218 
L 86.508842 55.969497 
L 86.68827 56.513565 
L 86.867698 55.532783 
L 86.957412 56.055635 
L 87.047127 55.695088 
L 87.405983 52.673153 
L 87.495697 52.813405 
L 87.854553 49.684626 
L 88.123695 47.585246 
L 88.213409 47.63826 
L 88.392837 46.641931 
L 88.482552 46.761652 
L 88.841408 44.351447 
L 89.020836 41.973507 
L 89.11055 42.314525 
L 89.469406 45.03933 
L 89.648834 37.862524 
L 90.097405 46.005521 
L 90.545975 57.088977 
L 90.994545 63.102304 
L 91.263687 64.67327 
L 91.622544 66.553845 
L 92.071114 68.091105 
L 92.42997 68.785265 
L 92.519684 68.657115 
L 92.878541 69.128093 
L 93.147683 66.806909 
L 93.327111 64.264544 
L 93.955109 48.757651 
L 94.134537 47.511087 
L 94.313966 46.927811 
L 94.583108 49.592965 
L 95.211106 61.12368 
L 95.480248 63.32772 
L 95.569962 63.191947 
L 95.659677 62.598489 
L 95.749391 61.084595 
L 95.839105 61.110937 
L 95.928819 61.391424 
L 96.556817 66.076109 
L 96.825959 67.25265 
L 97.184816 66.726912 
L 97.543672 61.779849 
L 97.992242 65.536619 
L 98.261384 66.742006 
L 98.351098 66.490624 
L 98.440812 66.884083 
L 98.530527 66.732641 
L 98.709955 65.306149 
L 98.799669 65.815115 
L 99.158525 63.842403 
L 99.337953 60.708748 
L 99.427667 61.131675 
L 99.517381 60.958104 
L 99.607095 61.304863 
L 99.876237 63.488776 
L 100.055666 62.491315 
L 100.235094 61.12915 
L 100.324808 61.63687 
L 100.683664 64.093312 
L 100.773378 63.864401 
L 100.863092 63.815269 
L 101.221948 60.194838 
L 101.760233 47.958473 
L 102.208803 37.609161 
L 102.298517 37.067709 
L 102.388231 37.325527 
L 103.105944 42.796007 
L 103.195658 36.414532 
L 103.375086 38.648613 
L 103.4648 38.871245 
L 103.554514 38.695634 
L 104.003084 42.82358 
L 104.361941 50.860388 
L 104.451655 52.028782 
L 104.541369 51.533464 
L 104.720797 48.225248 
L 104.810511 48.465468 
L 104.900225 48.267586 
L 105.259081 51.902525 
L 105.438509 50.840284 
L 105.617937 51.987997 
L 105.707652 51.58521 
L 105.797366 51.994543 
L 106.156222 49.497395 
L 106.245936 49.787135 
L 106.425364 50.222862 
L 106.515078 50.15848 
L 106.604792 50.063422 
L 106.694506 49.660204 
L 106.963648 46.189101 
L 107.143077 47.225667 
L 107.232791 46.548584 
L 107.322505 46.754942 
L 107.412219 46.609968 
L 107.501933 46.888216 
L 107.681361 47.680911 
L 107.771075 46.935358 
L 108.040217 48.404701 
L 108.129931 48.313614 
L 108.219645 48.204222 
L 108.399073 48.901045 
L 108.488787 47.959743 
L 108.578502 48.577316 
L 108.668216 48.28394 
L 108.847644 49.580591 
L 109.2065 55.070818 
L 109.385928 54.177551 
L 109.565356 47.755651 
L 109.744784 46.884091 
L 109.834498 47.261798 
L 110.103641 51.045198 
L 110.193355 51.029387 
L 110.372783 51.337463 
L 110.552211 47.866728 
L 110.731639 47.971499 
L 111.090495 54.464312 
L 111.449352 60.584275 
L 111.539066 60.863438 
L 111.62878 61.547374 
L 111.808208 59.744955 
L 112.256778 53.643197 
L 112.52592 54.945253 
L 112.615634 54.134238 
L 112.795062 56.876767 
L 113.243633 62.958458 
L 113.512775 65.061304 
L 113.602489 65.134796 
L 113.692203 64.923974 
L 113.871631 65.708164 
L 114.051059 65.951533 
L 114.320202 62.822656 
L 114.679058 64.428125 
L 114.9482 65.64464 
L 115.127628 64.954694 
L 115.486484 66.56762 
L 115.576198 65.873695 
L 115.845341 61.461152 
L 116.114483 60.206868 
L 116.293911 59.50587 
L 116.473339 60.878211 
L 117.191052 53.812396 
L 117.639622 46.398481 
L 117.729336 46.258234 
L 117.81905 46.392104 
L 117.998478 45.142755 
L 118.357334 39.948281 
L 118.447048 40.608289 
L 118.805905 44.780446 
L 118.895619 44.266909 
L 119.075047 41.755844 
L 119.254475 31.812587 
L 119.344189 32.751007 
L 119.433903 32.620701 
L 119.523617 31.712996 
L 119.792759 27.41829 
L 119.882473 28.072824 
L 120.24133 36.988927 
L 120.420758 37.610681 
L 120.600186 36.885472 
L 120.779614 37.441151 
L 121.13847 34.989006 
L 121.228184 35.231574 
L 121.587041 39.118929 
L 121.766469 39.997453 
L 121.945897 41.58086 
L 122.035611 42.310211 
L 122.125325 42.200085 
L 122.215039 42.534091 
L 122.304753 42.069227 
L 122.394467 42.470066 
L 122.573895 41.596661 
L 122.663609 42.251317 
L 123.022466 49.280806 
L 123.291608 53.859922 
L 123.471036 55.612713 
L 123.56075 55.868865 
L 123.650464 57.111539 
L 123.740178 56.511107 
L 124.637319 62.788427 
L 125.085889 66.037048 
L 125.803602 68.18623 
L 125.893316 68.078097 
L 125.98303 67.528755 
L 126.700742 51.304478 
L 126.790456 51.223304 
L 126.88017 51.514304 
L 126.969884 51.109035 
L 127.059598 51.167888 
L 127.149312 51.054655 
L 127.328741 50.078482 
L 127.508169 51.192328 
L 127.597883 47.454813 
L 127.956739 53.64528 
L 128.046453 53.93822 
L 128.764166 45.781909 
L 128.85388 46.180029 
L 129.123022 49.958214 
L 129.212736 49.693892 
L 129.30245 49.888436 
L 129.392164 49.439918 
L 129.481878 49.503516 
L 129.75102 51.73699 
L 129.840734 52.48498 
L 129.930448 52.451059 
L 130.199591 54.164319 
L 130.289305 55.211957 
L 130.379019 54.830093 
L 130.737875 57.306946 
L 131.186445 63.101592 
L 131.276159 63.444456 
L 131.545302 61.972479 
L 131.814444 63.578552 
L 131.904158 63.750808 
L 132.083586 60.566436 
L 132.263014 56.373656 
L 132.532156 52.223508 
L 132.62187 52.515084 
L 132.891012 55.838849 
L 133.339583 62.392567 
L 133.788153 65.852283 
L 134.236723 67.630267 
L 134.685294 68.655303 
L 134.864722 68.790139 
L 135.313292 64.973259 
L 135.49272 65.699625 
L 135.672148 64.457623 
L 135.941291 66.140411 
L 136.031005 65.735501 
L 136.389861 61.641882 
L 136.479575 62.06188 
L 136.569289 62.144348 
L 136.748717 63.168649 
L 137.197287 60.089087 
L 137.825286 65.171764 
L 138.273856 63.318611 
L 139.350425 68.171627 
L 139.529853 68.540417 
L 139.619567 68.344016 
L 139.709281 67.516365 
L 139.798995 67.788937 
L 140.157852 64.610052 
L 140.606422 60.06913 
L 140.965278 58.309178 
L 141.144706 59.432462 
L 141.23442 59.362847 
L 141.682991 57.830482 
L 141.862419 56.404153 
L 142.131561 58.795801 
L 142.221275 58.735042 
L 142.310989 58.533412 
L 142.400703 58.04046 
L 142.580131 56.157628 
L 142.669845 56.099051 
L 142.759559 55.602892 
L 142.849273 55.808845 
L 143.297844 61.42236 
L 143.477272 61.324681 
L 143.6567 59.42162 
L 143.746414 59.956498 
L 143.836128 59.303957 
L 144.194984 62.846461 
L 144.374412 62.637787 
L 144.553841 63.754215 
L 144.643555 63.051987 
L 145.181839 51.204514 
L 145.271553 51.488828 
L 145.361267 51.414423 
L 145.630409 47.670177 
L 145.720123 47.950822 
L 145.809837 47.562944 
L 145.899552 47.812719 
L 145.989266 47.643877 
L 146.168694 48.19831 
L 146.258408 47.693799 
L 146.617264 50.503183 
L 146.706978 46.831834 
L 146.97612 53.088344 
L 147.065834 53.137298 
L 147.245262 52.368736 
L 147.424691 51.993869 
L 147.604119 49.710098 
L 147.693833 49.546613 
L 148.232117 45.131228 
L 148.590973 39.811057 
L 148.680687 39.676843 
L 149.039544 46.492551 
L 149.308686 47.491286 
L 149.3984 47.408422 
L 149.488114 47.058659 
L 150.026398 40.423387 
L 150.116112 40.979216 
L 150.833825 56.039733 
L 151.282395 62.474154 
L 151.730966 65.882183 
L 151.82068 66.343283 
L 151.910394 66.229796 
L 152.000108 65.81015 
L 152.179536 66.453549 
L 152.628106 68.017317 
L 152.71782 68.229928 
L 152.807534 67.393464 
L 152.897248 67.428341 
L 153.166391 65.113601 
L 153.525247 60.806383 
L 153.614961 60.49366 
L 153.973817 53.866579 
L 154.422387 45.14974 
L 154.512102 45.194488 
L 154.601816 45.109572 
L 154.960672 42.678024 
L 155.050386 42.518202 
L 155.229814 41.264911 
L 155.409242 29.728454 
L 155.678384 31.01566 
L 155.768098 30.903385 
L 155.947527 33.212613 
L 156.306383 43.620786 
L 156.934381 56.092846 
L 157.293237 58.428275 
L 157.382952 58.379055 
L 157.56238 57.702274 
L 157.652094 57.53182 
L 157.741808 57.955336 
L 158.01095 60.14657 
L 158.190378 61.334351 
L 158.280092 60.755813 
L 158.997805 49.357604 
L 159.087519 49.49466 
L 159.446375 44.139132 
L 159.625803 41.271318 
L 159.715517 41.509764 
L 159.894945 42.227473 
L 160.074373 42.580423 
L 160.164087 42.21969 
L 160.43323 39.056981 
L 160.702372 36.207953 
L 160.971514 39.271148 
L 161.061228 30.902864 
L 161.150942 31.996922 
L 161.420084 38.235725 
L 162.227511 56.670681 
L 162.586367 61.556136 
L 163.034937 65.442515 
L 163.124652 65.963955 
L 163.214366 65.328334 
L 163.573222 66.92923 
L 163.932078 62.96798 
L 164.380648 55.406027 
L 164.470362 55.052233 
L 164.739505 57.857681 
L 164.739505 57.857681 
" clip-path="url(#pda11342869)" style="fill: none; stroke: #1a1a1a; stroke-width: 0.9; stroke-linejoin: miter"/>
   </g>
   <g id="line2d_10">
    <path d="M 21.286719 69.870315 
L 21.645575 70.054406 
L 22.183859 70.370263 
L 22.542716 70.668061 
L 23.619284 72.255145 
L 24.247283 73.383477 
L 24.785567 74.18446 
L 26.131278 77.102257 
L 27.387275 80.251103 
L 27.566703 69.854318 
L 28.463844 69.854318 
L 29.181556 74.421987 
L 29.988983 77.842193 
L 30.527267 79.477723 
L 30.886123 79.898361 
L 31.334694 79.984012 
L 32.231834 80.142705 
L 32.680405 80.28326 
L 32.859833 69.854318 
L 33.756973 69.854318 
L 34.384972 71.032161 
L 35.730683 72.471857 
L 36.448395 72.840342 
L 36.807252 73.614772 
L 37.43525 75.813771 
L 38.242677 78.838229 
L 38.780961 79.916664 
L 38.960389 80.207095 
L 39.139817 69.854318 
L 40.036958 69.854318 
L 40.575242 70.864378 
L 41.023813 71.238594 
L 41.741525 71.673609 
L 42.459238 72.453464 
L 44.163805 74.573688 
L 44.522661 74.813461 
L 44.971231 74.846032 
L 45.59923 74.81377 
L 45.958086 75.147102 
L 46.406656 75.887764 
L 47.572939 77.884186 
L 48.380366 79.024482 
L 49.008364 80.249799 
L 49.187792 69.854318 
L 50.084933 69.854318 
L 50.892359 71.933151 
L 53.494067 77.280237 
L 55.019206 79.663264 
L 55.557491 80.062036 
L 56.006061 80.264921 
L 56.185489 69.854318 
L 57.08263 69.854318 
L 57.800342 71.740137 
L 58.248912 72.225237 
L 58.697483 72.40897 
L 59.325481 72.617442 
L 61.209477 75.102552 
L 62.106617 77.421255 
L 62.644902 78.608178 
L 63.093472 79.109416 
L 63.900898 79.451725 
L 64.528897 79.890942 
L 64.798039 80.208678 
L 64.977467 69.854318 
L 65.874608 69.854318 
L 66.412892 70.69651 
L 67.668889 71.930825 
L 68.207173 72.048234 
L 69.194028 72.164387 
L 70.988309 73.537008 
L 71.975164 74.134389 
L 72.872305 74.611007 
L 73.500303 74.964764 
L 74.038588 75.016532 
L 74.666586 74.808328 
L 75.025442 74.730323 
L 75.294584 74.983786 
L 76.640295 77.342904 
L 77.896292 79.680931 
L 78.793433 80.257498 
L 78.972861 69.854318 
L 79.870002 69.854318 
L 81.036284 75.27348 
L 82.292281 79.905342 
L 82.381995 80.142912 
L 82.561423 69.854318 
L 83.458564 69.854318 
L 83.996848 71.002533 
L 86.957412 75.160497 
L 87.585411 76.103921 
L 88.213409 77.318608 
L 89.469406 80.17442 
L 89.648834 69.854318 
L 90.545975 69.854318 
L 90.994545 70.389277 
L 91.53283 70.70752 
L 92.250542 70.835624 
L 93.327111 70.980786 
L 93.596253 71.355098 
L 94.044823 72.419298 
L 94.762536 74.149436 
L 95.121392 74.529817 
L 95.928819 74.857043 
L 96.377389 74.920381 
L 97.633386 74.841022 
L 98.081956 74.839027 
L 99.158525 74.710661 
L 101.401377 75.539578 
L 101.760233 76.185764 
L 102.298517 77.841109 
L 103.01623 79.949879 
L 103.105944 80.161607 
L 103.285372 69.854318 
L 104.182512 69.854318 
L 105.438509 72.995296 
L 108.937358 79.932084 
L 109.385928 80.271265 
L 109.565356 69.854318 
L 110.462497 69.854318 
L 111.090495 71.519407 
L 111.539066 72.07428 
L 111.987636 72.572956 
L 112.974491 74.068559 
L 113.423061 74.23663 
L 115.845341 74.458241 
L 116.832195 75.183728 
L 117.191052 75.623452 
L 117.639622 76.547224 
L 119.075047 80.177985 
L 119.254475 69.854318 
L 120.151616 69.854318 
L 121.497327 75.546931 
L 122.304753 78.009708 
L 123.022466 79.674959 
L 123.471036 80.052088 
L 124.00932 80.241087 
L 124.547605 80.195628 
L 125.085889 79.829876 
L 126.252172 78.856755 
L 126.521314 79.010925 
L 127.508169 80.255177 
L 127.687597 69.854318 
L 128.584737 69.854318 
L 129.392164 72.148552 
L 130.109877 73.655944 
L 130.737875 74.545063 
L 131.096731 74.767233 
L 132.1733 75.120377 
L 132.62187 75.781994 
L 133.070441 76.261875 
L 133.429297 76.340043 
L 133.967581 76.185899 
L 135.672148 75.475214 
L 136.479575 75.481896 
L 137.825286 75.768262 
L 139.170997 75.540263 
L 140.068137 75.150241 
L 140.426994 75.224609 
L 140.965278 75.582811 
L 142.759559 76.987076 
L 143.118416 77.239617 
L 144.374412 77.434889 
L 144.822983 77.456134 
L 145.092125 77.757458 
L 145.989266 79.278469 
L 146.617264 80.271506 
L 146.796692 69.854318 
L 147.693833 69.854318 
L 148.590973 72.791121 
L 149.129258 74.42826 
L 150.744111 78.212463 
L 151.102967 78.367339 
L 151.551537 78.251295 
L 152.538392 77.600807 
L 153.166391 77.185481 
L 153.525247 77.196504 
L 153.884103 77.387401 
L 154.242959 77.927015 
L 155.1401 80.036646 
L 155.229814 80.266466 
L 155.409242 69.854318 
L 156.306383 69.854318 
L 156.754953 71.024389 
L 157.472666 72.110949 
L 158.100664 72.83784 
L 158.45952 73.194909 
L 158.908091 74.027422 
L 159.625803 75.928708 
L 160.971514 80.05851 
L 161.150942 69.854318 
L 162.048083 69.854318 
L 162.496653 70.579306 
L 162.945223 70.931055 
L 164.111506 71.57049 
L 164.739505 72.550468 
L 164.739505 72.550468 
" clip-path="url(#pda11342869)" style="fill: none; stroke-dasharray: 0.7,1.155; stroke-dashoffset: 0; stroke: #bbbbbb; stroke-width: 0.7"/>
   </g>
   <g id="patch_3">
    <path d="M 21.286719 83.425078 
L 21.286719 14.305078 
" style="fill: none; stroke: #1a1a1a; stroke-width: 0.8; stroke-linejoin: miter; stroke-linecap: square"/>
   </g>
   <g id="patch_4">
    <path d="M 164.829219 83.425078 
L 164.829219 14.305078 
" style="fill: none; stroke: #1a1a1a; stroke-width: 0.8; stroke-linejoin: miter; stroke-linecap: square"/>
   </g>
   <g id="patch_5">
    <path d="M 21.286719 83.425078 
L 164.829219 83.425078 
" style="fill: none; stroke: #1a1a1a; stroke-width: 0.8; stroke-linejoin: miter; stroke-linecap: square"/>
   </g>
   <g id="patch_6">
    <path d="M 21.286719 14.305078 
L 164.829219 14.305078 
" style="fill: none; stroke: #1a1a1a; stroke-width: 0.8; stroke-linejoin: miter; stroke-linecap: square"/>
   </g>
   <g id="text_10">
    <!-- COBA — no recurrent loop (ei-strength = 0) — E-neuron signed currents (cell 57) -->
    <g style="fill: #1a1a1a" transform="translate(21.286719 8.305078) scale(0.085 -0.085)">
     <defs>
      <path id="Menlo-Regular-43" d="M 3353 166 
Q 3113 38 2859 -26 
Q 2606 -91 2322 -91 
Q 1425 -91 929 543 
Q 434 1178 434 2328 
Q 434 3472 932 4111 
Q 1431 4750 2322 4750 
Q 2606 4750 2859 4686 
Q 3113 4622 3353 4494 
L 3353 3847 
Q 3122 4038 2856 4138 
Q 2591 4238 2322 4238 
Q 1706 4238 1400 3763 
Q 1094 3288 1094 2328 
Q 1094 1372 1400 897 
Q 1706 422 2322 422 
Q 2597 422 2861 522 
Q 3125 622 3353 813 
L 3353 166 
z
" transform="scale(0.015625)"/>
      <path id="Menlo-Regular-4f" d="M 2828 2328 
Q 2828 3356 2617 3797 
Q 2406 4238 1925 4238 
Q 1447 4238 1236 3797 
Q 1025 3356 1025 2328 
Q 1025 1303 1236 862 
Q 1447 422 1925 422 
Q 2406 422 2617 861 
Q 2828 1300 2828 2328 
z
M 3488 2328 
Q 3488 1109 3102 509 
Q 2716 -91 1925 -91 
Q 1134 -91 750 506 
Q 366 1103 366 2328 
Q 366 3550 752 4150 
Q 1138 4750 1925 4750 
Q 2716 4750 3102 4150 
Q 3488 3550 3488 2328 
z
" transform="scale(0.015625)"/>
      <path id="Menlo-Regular-42" d="M 1153 2353 
L 1153 519 
L 1900 519 
Q 2450 519 2684 711 
Q 2919 903 2919 1344 
Q 2919 1925 2672 2139 
Q 2425 2353 1900 2353 
L 1153 2353 
z
M 1153 4147 
L 1153 2866 
L 1888 2866 
Q 2344 2866 2548 3041 
Q 2753 3216 2753 3481 
Q 2753 3834 2551 3990 
Q 2350 4147 1888 4147 
L 1153 4147 
z
M 519 4666 
L 1900 4666 
Q 2616 4666 3003 4356 
Q 3391 4047 3391 3481 
Q 3391 3178 3186 2931 
Q 2981 2684 2572 2622 
Q 3031 2553 3292 2229 
Q 3553 1906 3553 1281 
Q 3553 647 3137 323 
Q 2722 0 1900 0 
L 519 0 
L 519 4666 
z
" transform="scale(0.015625)"/>
      <path id="Menlo-Regular-41" d="M 1925 4109 
L 1259 1722 
L 2591 1722 
L 1925 4109 
z
M 1544 4666 
L 2309 4666 
L 3738 0 
L 3084 0 
L 2741 1216 
L 1106 1216 
L 769 0 
L 116 0 
L 1544 4666 
z
" transform="scale(0.015625)"/>
      <path id="Menlo-Regular-2014" d="M 0 2259 
L 3853 2259 
L 3853 1725 
L 0 1725 
L 0 2259 
z
" transform="scale(0.015625)"/>
      <path id="Menlo-Regular-63" d="M 3316 178 
Q 3084 44 2839 -23 
Q 2594 -91 2338 -91 
Q 1525 -91 1067 396 
Q 609 884 609 1747 
Q 609 2609 1067 3096 
Q 1525 3584 2338 3584 
Q 2591 3584 2831 3518 
Q 3072 3453 3316 3316 
L 3316 2713 
Q 3088 2916 2858 3006 
Q 2628 3097 2338 3097 
Q 1797 3097 1506 2747 
Q 1216 2397 1216 1747 
Q 1216 1100 1508 748 
Q 1800 397 2338 397 
Q 2638 397 2875 489 
Q 3113 581 3316 775 
L 3316 178 
z
" transform="scale(0.015625)"/>
      <path id="Menlo-Regular-75" d="M 609 1325 
L 609 3494 
L 1184 3494 
L 1184 1325 
Q 1184 853 1351 631 
Q 1519 409 1869 409 
Q 2275 409 2490 695 
Q 2706 981 2706 1516 
L 2706 3494 
L 3284 3494 
L 3284 0 
L 2706 0 
L 2706 525 
Q 2553 222 2289 65 
Q 2025 -91 1672 -91 
Q 1134 -91 871 261 
Q 609 613 609 1325 
z
" transform="scale(0.015625)"/>
      <path id="Menlo-Regular-2d" d="M 319 2263 
L 3631 2263 
L 3631 1734 
L 319 1734 
L 319 2263 
z
" transform="scale(0.015625)"/>
      <path id="Menlo-Regular-67" d="M 2681 1778 
Q 2681 2425 2470 2761 
Q 2259 3097 1856 3097 
Q 1434 3097 1212 2761 
Q 991 2425 991 1778 
Q 991 1131 1214 792 
Q 1438 453 1863 453 
Q 2259 453 2470 793 
Q 2681 1134 2681 1778 
z
M 3256 225 
Q 3256 -563 2884 -969 
Q 2513 -1375 1791 -1375 
Q 1553 -1375 1293 -1331 
Q 1034 -1288 775 -1203 
L 775 -634 
Q 1081 -778 1331 -847 
Q 1581 -916 1791 -916 
Q 2256 -916 2468 -662 
Q 2681 -409 2681 141 
L 2681 166 
L 2681 556 
Q 2544 263 2306 119 
Q 2069 -25 1728 -25 
Q 1116 -25 750 465 
Q 384 956 384 1778 
Q 384 2603 750 3093 
Q 1116 3584 1728 3584 
Q 2066 3584 2300 3450 
Q 2534 3316 2681 3034 
L 2681 3488 
L 3256 3488 
L 3256 225 
z
" transform="scale(0.015625)"/>
      <path id="Menlo-Regular-3d" d="M 275 1563 
L 3578 1563 
L 3578 1034 
L 275 1034 
L 275 1563 
z
M 275 3034 
L 3578 3034 
L 3578 2506 
L 275 2506 
L 275 3034 
z
" transform="scale(0.015625)"/>
      <path id="Menlo-Regular-45" d="M 616 4666 
L 3384 4666 
L 3384 4134 
L 1247 4134 
L 1247 2878 
L 3291 2878 
L 3291 2347 
L 1247 2347 
L 1247 531 
L 3444 531 
L 3444 0 
L 616 0 
L 616 4666 
z
" transform="scale(0.015625)"/>
      <path id="Menlo-Regular-35" d="M 647 4666 
L 3009 4666 
L 3009 4134 
L 1222 4134 
L 1222 2988 
Q 1356 3038 1492 3061 
Q 1628 3084 1766 3084 
Q 2491 3084 2916 2656 
Q 3341 2228 3341 1497 
Q 3341 759 2895 334 
Q 2450 -91 1678 -91 
Q 1306 -91 998 -41 
Q 691 9 447 109 
L 447 750 
Q 734 594 1025 517 
Q 1316 441 1619 441 
Q 2141 441 2423 716 
Q 2706 991 2706 1497 
Q 2706 1997 2414 2275 
Q 2122 2553 1600 2553 
Q 1347 2553 1106 2495 
Q 866 2438 647 2322 
L 647 4666 
z
" transform="scale(0.015625)"/>
      <path id="Menlo-Regular-37" d="M 434 4666 
L 3372 4666 
L 3372 4397 
L 1703 0 
L 1044 0 
L 2669 4134 
L 434 4134 
L 434 4666 
z
" transform="scale(0.015625)"/>
     </defs>
     <use xlink:href="#Menlo-Regular-43"/>
     <use xlink:href="#Menlo-Regular-4f" transform="translate(60.205078 0)"/>
     <use xlink:href="#Menlo-Regular-42" transform="translate(120.410156 0)"/>
     <use xlink:href="#Menlo-Regular-41" transform="translate(180.615234 0)"/>
     <use xlink:href="#Menlo-Regular-20" transform="translate(240.820312 0)"/>
     <use xlink:href="#Menlo-Regular-2014" transform="translate(301.025391 0)"/>
     <use xlink:href="#Menlo-Regular-20" transform="translate(361.230469 0)"/>
     <use xlink:href="#Menlo-Regular-6e" transform="translate(421.435547 0)"/>
     <use xlink:href="#Menlo-Regular-6f" transform="translate(481.640625 0)"/>
     <use xlink:href="#Menlo-Regular-20" transform="translate(541.845703 0)"/>
     <use xlink:href="#Menlo-Regular-72" transform="translate(602.050781 0)"/>
     <use xlink:href="#Menlo-Regular-65" transform="translate(662.255859 0)"/>
     <use xlink:href="#Menlo-Regular-63" transform="translate(722.460938 0)"/>
     <use xlink:href="#Menlo-Regular-75" transform="translate(782.666016 0)"/>
     <use xlink:href="#Menlo-Regular-72" transform="translate(842.871094 0)"/>
     <use xlink:href="#Menlo-Regular-72" transform="translate(903.076172 0)"/>
     <use xlink:href="#Menlo-Regular-65" transform="translate(963.28125 0)"/>
     <use xlink:href="#Menlo-Regular-6e" transform="translate(1023.486328 0)"/>
     <use xlink:href="#Menlo-Regular-74" transform="translate(1083.691406 0)"/>
     <use xlink:href="#Menlo-Regular-20" transform="translate(1143.896484 0)"/>
     <use xlink:href="#Menlo-Regular-6c" transform="translate(1204.101562 0)"/>
     <use xlink:href="#Menlo-Regular-6f" transform="translate(1264.306641 0)"/>
     <use xlink:href="#Menlo-Regular-6f" transform="translate(1324.511719 0)"/>
     <use xlink:href="#Menlo-Regular-70" transform="translate(1384.716797 0)"/>
     <use xlink:href="#Menlo-Regular-20" transform="translate(1444.921875 0)"/>
     <use xlink:href="#Menlo-Regular-28" transform="translate(1505.126953 0)"/>
     <use xlink:href="#Menlo-Regular-65" transform="translate(1565.332031 0)"/>
     <use xlink:href="#Menlo-Regular-69" transform="translate(1625.537109 0)"/>
     <use xlink:href="#Menlo-Regular-2d" transform="translate(1685.742188 0)"/>
     <use xlink:href="#Menlo-Regular-73" transform="translate(1745.947266 0)"/>
     <use xlink:href="#Menlo-Regular-74" transform="translate(1806.152344 0)"/>
     <use xlink:href="#Menlo-Regular-72" transform="translate(1866.357422 0)"/>
     <use xlink:href="#Menlo-Regular-65" transform="translate(1926.5625 0)"/>
     <use xlink:href="#Menlo-Regular-6e" transform="translate(1986.767578 0)"/>
     <use xlink:href="#Menlo-Regular-67" transform="translate(2046.972656 0)"/>
     <use xlink:href="#Menlo-Regular-74" transform="translate(2107.177734 0)"/>
     <use xlink:href="#Menlo-Regular-68" transform="translate(2167.382812 0)"/>
     <use xlink:href="#Menlo-Regular-20" transform="translate(2227.587891 0)"/>
     <use xlink:href="#Menlo-Regular-3d" transform="translate(2287.792969 0)"/>
     <use xlink:href="#Menlo-Regular-20" transform="translate(2347.998047 0)"/>
     <use xlink:href="#Menlo-Regular-30" transform="translate(2408.203125 0)"/>
     <use xlink:href="#Menlo-Regular-29" transform="translate(2468.408203 0)"/>
     <use xlink:href="#Menlo-Regular-20" transform="translate(2528.613281 0)"/>
     <use xlink:href="#Menlo-Regular-2014" transform="translate(2588.818359 0)"/>
     <use xlink:href="#Menlo-Regular-20" transform="translate(2649.023438 0)"/>
     <use xlink:href="#Menlo-Regular-45" transform="translate(2709.228516 0)"/>
     <use xlink:href="#Menlo-Regular-2d" transform="translate(2769.433594 0)"/>
     <use xlink:href="#Menlo-Regular-6e" transform="translate(2829.638672 0)"/>
     <use xlink:href="#Menlo-Regular-65" transform="translate(2889.84375 0)"/>
     <use xlink:href="#Menlo-Regular-75" transform="translate(2950.048828 0)"/>
     <use xlink:href="#Menlo-Regular-72" transform="translate(3010.253906 0)"/>
     <use xlink:href="#Menlo-Regular-6f" transform="translate(3070.458984 0)"/>
     <use xlink:href="#Menlo-Regular-6e" transform="translate(3130.664062 0)"/>
     <use xlink:href="#Menlo-Regular-20" transform="translate(3190.869141 0)"/>
     <use xlink:href="#Menlo-Regular-73" transform="translate(3251.074219 0)"/>
     <use xlink:href="#Menlo-Regular-69" transform="translate(3311.279297 0)"/>
     <use xlink:href="#Menlo-Regular-67" transform="translate(3371.484375 0)"/>
     <use xlink:href="#Menlo-Regular-6e" transform="translate(3431.689453 0)"/>
     <use xlink:href="#Menlo-Regular-65" transform="translate(3491.894531 0)"/>
     <use xlink:href="#Menlo-Regular-64" transform="translate(3552.099609 0)"/>
     <use xlink:href="#Menlo-Regular-20" transform="translate(3612.304688 0)"/>
     <use xlink:href="#Menlo-Regular-63" transform="translate(3672.509766 0)"/>
     <use xlink:href="#Menlo-Regular-75" transform="translate(3732.714844 0)"/>
     <use xlink:href="#Menlo-Regular-72" transform="translate(3792.919922 0)"/>
     <use xlink:href="#Menlo-Regular-72" transform="translate(3853.125 0)"/>
     <use xlink:href="#Menlo-Regular-65" transform="translate(3913.330078 0)"/>
     <use xlink:href="#Menlo-Regular-6e" transform="translate(3973.535156 0)"/>
     <use xlink:href="#Menlo-Regular-74" transform="translate(4033.740234 0)"/>
     <use xlink:href="#Menlo-Regular-73" transform="translate(4093.945312 0)"/>
     <use xlink:href="#Menlo-Regular-20" transform="translate(4154.150391 0)"/>
     <use xlink:href="#Menlo-Regular-28" transform="translate(4214.355469 0)"/>
     <use xlink:href="#Menlo-Regular-63" transform="translate(4274.560547 0)"/>
     <use xlink:href="#Menlo-Regular-65" transform="translate(4334.765625 0)"/>
     <use xlink:href="#Menlo-Regular-6c" transform="translate(4394.970703 0)"/>
     <use xlink:href="#Menlo-Regular-6c" transform="translate(4455.175781 0)"/>
     <use xlink:href="#Menlo-Regular-20" transform="translate(4515.380859 0)"/>
     <use xlink:href="#Menlo-Regular-35" transform="translate(4575.585938 0)"/>
     <use xlink:href="#Menlo-Regular-37" transform="translate(4635.791016 0)"/>
     <use xlink:href="#Menlo-Regular-29" transform="translate(4695.996094 0)"/>
    </g>
   </g>
   <g id="legend_1">
    <g id="patch_7">
     <path d="M 75.715937 40.898516 
L 161.329219 40.898516 
L 161.329219 17.805078 
L 75.715937 17.805078 
z
" style="fill: #ffffff; stroke: #1a1a1a; stroke-width: 0.8; stroke-linejoin: miter"/>
    </g>
    <g id="line2d_11">
     <path d="M 78.515937 23.808672 
L 84.115937 23.808672 
L 89.715937 23.808672 
" style="fill: none; stroke: #1a1a1a; stroke-width: 0.9; stroke-linejoin: miter"/>
    </g>
    <g id="text_11">
     <!-- I_E in (depol.) -->
     <g style="fill: #1a1a1a" transform="translate(95.315937 26.258672) scale(0.07 -0.07)">
      <defs>
       <path id="Menlo-Regular-5f" d="M 3825 -594 
L 3825 -1125 
L 0 -1125 
L 0 -594 
L 3825 -594 
z
" transform="scale(0.015625)"/>
      </defs>
      <use xlink:href="#Menlo-Regular-49"/>
      <use xlink:href="#Menlo-Regular-5f" transform="translate(60.205078 0)"/>
      <use xlink:href="#Menlo-Regular-45" transform="translate(120.410156 0)"/>
      <use xlink:href="#Menlo-Regular-20" transform="translate(180.615234 0)"/>
      <use xlink:href="#Menlo-Regular-69" transform="translate(240.820312 0)"/>
      <use xlink:href="#Menlo-Regular-6e" transform="translate(301.025391 0)"/>
      <use xlink:href="#Menlo-Regular-20" transform="translate(361.230469 0)"/>
      <use xlink:href="#Menlo-Regular-28" transform="translate(421.435547 0)"/>
      <use xlink:href="#Menlo-Regular-64" transform="translate(481.640625 0)"/>
      <use xlink:href="#Menlo-Regular-65" transform="translate(541.845703 0)"/>
      <use xlink:href="#Menlo-Regular-70" transform="translate(602.050781 0)"/>
      <use xlink:href="#Menlo-Regular-6f" transform="translate(662.255859 0)"/>
      <use xlink:href="#Menlo-Regular-6c" transform="translate(722.460938 0)"/>
      <use xlink:href="#Menlo-Regular-2e" transform="translate(782.666016 0)"/>
      <use xlink:href="#Menlo-Regular-29" transform="translate(842.871094 0)"/>
     </g>
    </g>
    <g id="line2d_12">
     <path d="M 78.515937 34.192734 
L 84.115937 34.192734 
L 89.715937 34.192734 
" style="fill: none; stroke-dasharray: 0.7,1.155; stroke-dashoffset: 0; stroke: #bbbbbb; stroke-width: 0.7"/>
    </g>
    <g id="text_12">
     <!-- I_L in (leak) -->
     <g style="fill: #1a1a1a" transform="translate(95.315937 36.642734) scale(0.07 -0.07)">
      <defs>
       <path id="Menlo-Regular-4c" d="M 672 4666 
L 1306 4666 
L 1306 531 
L 3559 531 
L 3559 0 
L 672 0 
L 672 4666 
z
" transform="scale(0.015625)"/>
       <path id="Menlo-Regular-61" d="M 2194 1759 
L 2003 1759 
Q 1500 1759 1245 1582 
Q 991 1406 991 1056 
Q 991 741 1181 566 
Q 1372 391 1709 391 
Q 2184 391 2456 720 
Q 2728 1050 2731 1631 
L 2731 1759 
L 2194 1759 
z
M 3309 1997 
L 3309 0 
L 2731 0 
L 2731 519 
Q 2547 206 2267 57 
Q 1988 -91 1588 -91 
Q 1053 -91 734 211 
Q 416 513 416 1019 
Q 416 1603 808 1906 
Q 1200 2209 1959 2209 
L 2731 2209 
L 2731 2300 
Q 2728 2719 2518 2908 
Q 2309 3097 1850 3097 
Q 1556 3097 1256 3012 
Q 956 2928 672 2766 
L 672 3341 
Q 991 3463 1283 3523 
Q 1575 3584 1850 3584 
Q 2284 3584 2592 3456 
Q 2900 3328 3091 3072 
Q 3209 2916 3259 2686 
Q 3309 2456 3309 1997 
z
" transform="scale(0.015625)"/>
       <path id="Menlo-Regular-6b" d="M 738 4863 
L 1331 4863 
L 1331 2047 
L 2841 3500 
L 3541 3500 
L 2163 2181 
L 3756 0 
L 3053 0 
L 1759 1806 
L 1331 1403 
L 1331 0 
L 738 0 
L 738 4863 
z
" transform="scale(0.015625)"/>
      </defs>
      <use xlink:href="#Menlo-Regular-49"/>
      <use xlink:href="#Menlo-Regular-5f" transform="translate(60.205078 0)"/>
      <use xlink:href="#Menlo-Regular-4c" transform="translate(120.410156 0)"/>
      <use xlink:href="#Menlo-Regular-20" transform="translate(180.615234 0)"/>
      <use xlink:href="#Menlo-Regular-69" transform="translate(240.820312 0)"/>
      <use xlink:href="#Menlo-Regular-6e" transform="translate(301.025391 0)"/>
      <use xlink:href="#Menlo-Regular-20" transform="translate(361.230469 0)"/>
      <use xlink:href="#Menlo-Regular-28" transform="translate(421.435547 0)"/>
      <use xlink:href="#Menlo-Regular-6c" transform="translate(481.640625 0)"/>
      <use xlink:href="#Menlo-Regular-65" transform="translate(541.845703 0)"/>
      <use xlink:href="#Menlo-Regular-61" transform="translate(602.050781 0)"/>
      <use xlink:href="#Menlo-Regular-6b" transform="translate(662.255859 0)"/>
      <use xlink:href="#Menlo-Regular-29" transform="translate(722.460938 0)"/>
     </g>
    </g>
   </g>
  </g>
 </g>
 <defs>
  <clipPath id="pda11342869">
   <rect x="21.286719" y="14.305078" width="143.5425" height="69.12"/>
  </clipPath>
 </defs>
</svg>
