<?xml version="1.0" encoding="utf-8" standalone="no"?>
<!DOCTYPE svg PUBLIC "-//W3C//DTD SVG 1.1//EN"
  "http://www.w3.org/Graphics/SVG/1.1/DTD/svg11.dtd">
<svg xmlns:xlink="http://www.w3.org/1999/xlink" width="389.10625pt" height="106.924453pt" viewBox="0 0 389.10625 106.924453" xmlns="http://www.w3.org/2000/svg" version="1.1">
 <metadata>
  <rdf:RDF xmlns:dc="http://purl.org/dc/elements/1.1/" xmlns:cc="http://creativecommons.org/ns#" xmlns:rdf="http://www.w3.org/1999/02/22-rdf-syntax-ns#">
   <cc:Work>
    <dc:type rdf:resource="http://purl.org/dc/dcmitype/StillImage"/>
    <dc:date>2026-06-29T14:02:13.655575</dc:date>
    <dc:format>image/svg+xml</dc:format>
    <dc:creator>
     <cc:Agent>
      <dc:title>Matplotlib v3.10.8, https://matplotlib.org/</dc:title>
     </cc:Agent>
    </dc:creator>
   </cc:Work>
  </rdf:RDF>
 </metadata>
 <defs>
  <style type="text/css">*{stroke-linejoin: round; stroke-linecap: butt}</style>
 </defs>
 <g id="figure_1">
  <g id="patch_1">
   <path d="M 0 106.924453 
L 389.10625 106.924453 
L 389.10625 0 
L 0 0 
z
" style="fill: #ffffff"/>
  </g>
  <g id="axes_1">
   <g id="patch_2">
    <path d="M 29.457656 83.425078 
L 187.692656 83.425078 
L 187.692656 14.305078 
L 29.457656 14.305078 
z
" style="fill: #ffffff"/>
   </g>
   <g id="matplotlib.axis_1">
    <g id="xtick_1">
     <g id="line2d_1">
      <defs>
       <path id="m1562c84063" d="M 0 0 
L 0 -3 
" style="stroke: #1a1a1a; stroke-width: 0.8"/>
      </defs>
      <g>
       <use xlink:href="#m1562c84063" x="29.457656" y="83.425078" style="fill: #1a1a1a; stroke: #1a1a1a; stroke-width: 0.8"/>
      </g>
     </g>
     <g id="text_1">
      <!-- 0 -->
      <g style="fill: #1a1a1a" transform="translate(27.350547 92.263672) scale(0.07 -0.07)">
       <defs>
        <path id="Menlo-Regular-30" d="M 1925 4734 
Q 2672 4734 3055 4125 
Q 3438 3516 3438 2322 
Q 3438 1128 3055 518 
Q 2672 -91 1925 -91 
Q 1178 -91 797 518 
Q 416 1128 416 2322 
Q 416 3516 797 4125 
Q 1178 4734 1925 4734 
z
M 1925 409 
Q 2369 409 2586 881 
Q 2803 1353 2803 2322 
Q 2803 2838 2741 3253 
L 1253 925 
Q 1488 409 1925 409 
z
M 1925 4234 
Q 1484 4234 1267 3762 
Q 1050 3291 1050 2322 
Q 1050 1881 1109 1497 
L 2566 3819 
Q 2328 4234 1925 4234 
z
" transform="scale(0.015625)"/>
       </defs>
       <use xlink:href="#Menlo-Regular-30"/>
      </g>
     </g>
    </g>
    <g id="xtick_2">
     <g id="line2d_2">
      <g>
       <use xlink:href="#m1562c84063" x="69.016406" y="83.425078" style="fill: #1a1a1a; stroke: #1a1a1a; stroke-width: 0.8"/>
      </g>
     </g>
     <g id="text_2">
      <!-- 100 -->
      <g style="fill: #1a1a1a" transform="translate(62.695078 92.263672) scale(0.07 -0.07)">
       <defs>
        <path id="Menlo-Regular-31" d="M 844 528 
L 1825 528 
L 1825 4053 
L 650 3488 
L 650 4094 
L 1819 4650 
L 2450 4650 
L 2450 528 
L 3419 528 
L 3419 0 
L 844 0 
L 844 528 
z
" transform="scale(0.015625)"/>
       </defs>
       <use xlink:href="#Menlo-Regular-31"/>
       <use xlink:href="#Menlo-Regular-30" transform="translate(60.205078 0)"/>
       <use xlink:href="#Menlo-Regular-30" transform="translate(120.410156 0)"/>
      </g>
     </g>
    </g>
    <g id="xtick_3">
     <g id="line2d_3">
      <g>
       <use xlink:href="#m1562c84063" x="108.575156" y="83.425078" style="fill: #1a1a1a; stroke: #1a1a1a; stroke-width: 0.8"/>
      </g>
     </g>
     <g id="text_3">
      <!-- 200 -->
      <g style="fill: #1a1a1a" transform="translate(102.253828 92.263672) scale(0.07 -0.07)">
       <defs>
        <path id="Menlo-Regular-32" d="M 1166 531 
L 3309 531 
L 3309 0 
L 475 0 
L 475 531 
Q 1059 1147 1496 1619 
Q 1934 2091 2100 2284 
Q 2413 2666 2522 2902 
Q 2631 3138 2631 3384 
Q 2631 3775 2401 3997 
Q 2172 4219 1772 4219 
Q 1488 4219 1175 4116 
Q 863 4013 513 3803 
L 513 4441 
Q 834 4594 1145 4672 
Q 1456 4750 1759 4750 
Q 2444 4750 2861 4386 
Q 3278 4022 3278 3431 
Q 3278 3131 3139 2831 
Q 3000 2531 2688 2169 
Q 2513 1966 2180 1606 
Q 1847 1247 1166 531 
z
" transform="scale(0.015625)"/>
       </defs>
       <use xlink:href="#Menlo-Regular-32"/>
       <use xlink:href="#Menlo-Regular-30" transform="translate(60.205078 0)"/>
       <use xlink:href="#Menlo-Regular-30" transform="translate(120.410156 0)"/>
      </g>
     </g>
    </g>
    <g id="xtick_4">
     <g id="line2d_4">
      <g>
       <use xlink:href="#m1562c84063" x="148.133906" y="83.425078" style="fill: #1a1a1a; stroke: #1a1a1a; stroke-width: 0.8"/>
      </g>
     </g>
     <g id="text_4">
      <!-- 300 -->
      <g style="fill: #1a1a1a" transform="translate(141.812578 92.263672) scale(0.07 -0.07)">
       <defs>
        <path id="Menlo-Regular-33" d="M 2425 2497 
Q 2884 2375 3128 2064 
Q 3372 1753 3372 1288 
Q 3372 644 2939 276 
Q 2506 -91 1741 -91 
Q 1419 -91 1084 -31 
Q 750 28 428 141 
L 428 769 
Q 747 603 1056 522 
Q 1366 441 1672 441 
Q 2191 441 2469 675 
Q 2747 909 2747 1350 
Q 2747 1756 2469 1995 
Q 2191 2234 1716 2234 
L 1234 2234 
L 1234 2753 
L 1716 2753 
Q 2150 2753 2394 2943 
Q 2638 3134 2638 3475 
Q 2638 3834 2411 4026 
Q 2184 4219 1766 4219 
Q 1488 4219 1191 4156 
Q 894 4094 569 3969 
L 569 4550 
Q 947 4650 1242 4700 
Q 1538 4750 1766 4750 
Q 2447 4750 2855 4408 
Q 3263 4066 3263 3500 
Q 3263 3116 3048 2859 
Q 2834 2603 2425 2497 
z
" transform="scale(0.015625)"/>
       </defs>
       <use xlink:href="#Menlo-Regular-33"/>
       <use xlink:href="#Menlo-Regular-30" transform="translate(60.205078 0)"/>
       <use xlink:href="#Menlo-Regular-30" transform="translate(120.410156 0)"/>
      </g>
     </g>
    </g>
    <g id="xtick_5">
     <g id="line2d_5">
      <g>
       <use xlink:href="#m1562c84063" x="187.692656" y="83.425078" style="fill: #1a1a1a; stroke: #1a1a1a; stroke-width: 0.8"/>
      </g>
     </g>
     <g id="text_5">
      <!-- 400 -->
      <g style="fill: #1a1a1a" transform="translate(181.371328 92.263672) scale(0.07 -0.07)">
       <defs>
        <path id="Menlo-Regular-34" d="M 2297 4091 
L 825 1625 
L 2297 1625 
L 2297 4091 
z
M 2194 4666 
L 2925 4666 
L 2925 1625 
L 3547 1625 
L 3547 1113 
L 2925 1113 
L 2925 0 
L 2297 0 
L 2297 1113 
L 319 1113 
L 319 1709 
L 2194 4666 
z
" transform="scale(0.015625)"/>
       </defs>
       <use xlink:href="#Menlo-Regular-34"/>
       <use xlink:href="#Menlo-Regular-30" transform="translate(60.205078 0)"/>
       <use xlink:href="#Menlo-Regular-30" transform="translate(120.410156 0)"/>
      </g>
     </g>
    </g>
    <g id="text_6">
     <!-- time (ms) -->
     <g style="fill: #1a1a1a" transform="translate(86.902031 103.820703) scale(0.08 -0.08)">
      <defs>
       <path id="Menlo-Regular-74" d="M 1919 4494 
L 1919 3500 
L 3225 3500 
L 3225 3053 
L 1919 3053 
L 1919 1153 
Q 1919 766 2066 612 
Q 2213 459 2578 459 
L 3225 459 
L 3225 0 
L 2522 0 
Q 1875 0 1609 259 
Q 1344 519 1344 1153 
L 1344 3053 
L 409 3053 
L 409 3500 
L 1344 3500 
L 1344 4494 
L 1919 4494 
z
" transform="scale(0.015625)"/>
       <path id="Menlo-Regular-69" d="M 988 3488 
L 2459 3488 
L 2459 447 
L 3600 447 
L 3600 0 
L 744 0 
L 744 447 
L 1884 447 
L 1884 3041 
L 988 3041 
L 988 3488 
z
M 1884 4847 
L 2459 4847 
L 2459 4122 
L 1884 4122 
L 1884 4847 
z
" transform="scale(0.015625)"/>
       <path id="Menlo-Regular-6d" d="M 2113 3144 
Q 2219 3369 2383 3476 
Q 2547 3584 2778 3584 
Q 3200 3584 3373 3257 
Q 3547 2931 3547 2028 
L 3547 0 
L 3022 0 
L 3022 2003 
Q 3022 2744 2939 2923 
Q 2856 3103 2638 3103 
Q 2388 3103 2295 2911 
Q 2203 2719 2203 2003 
L 2203 0 
L 1678 0 
L 1678 2003 
Q 1678 2753 1589 2928 
Q 1500 3103 1269 3103 
Q 1041 3103 952 2911 
Q 863 2719 863 2003 
L 863 0 
L 341 0 
L 341 3500 
L 863 3500 
L 863 3200 
Q 966 3388 1120 3486 
Q 1275 3584 1472 3584 
Q 1709 3584 1867 3475 
Q 2025 3366 2113 3144 
z
" transform="scale(0.015625)"/>
       <path id="Menlo-Regular-65" d="M 3500 2038 
L 3500 1756 
L 1009 1756 
L 1009 1738 
Q 984 1022 1282 709 
Q 1581 397 2125 397 
Q 2400 397 2700 484 
Q 3000 572 3341 750 
L 3341 178 
Q 3013 44 2708 -23 
Q 2403 -91 2119 -91 
Q 1303 -91 843 398 
Q 384 888 384 1747 
Q 384 2584 834 3084 
Q 1284 3584 2034 3584 
Q 2703 3584 3089 3131 
Q 3475 2678 3500 2038 
z
M 2925 2206 
Q 2888 2569 2661 2833 
Q 2434 3097 2009 3097 
Q 1594 3097 1325 2822 
Q 1056 2547 1031 2203 
L 2925 2206 
z
" transform="scale(0.015625)"/>
       <path id="Menlo-Regular-20" transform="scale(0.015625)"/>
       <path id="Menlo-Regular-28" d="M 2672 5169 
Q 2256 4456 2051 3748 
Q 1847 3041 1847 2322 
Q 1847 1606 2051 897 
Q 2256 188 2672 -531 
L 2172 -531 
Q 1700 213 1469 917 
Q 1238 1622 1238 2322 
Q 1238 3019 1469 3725 
Q 1700 4431 2172 5169 
L 2672 5169 
z
" transform="scale(0.015625)"/>
       <path id="Menlo-Regular-73" d="M 3041 3378 
L 3041 2816 
Q 2794 2959 2544 3031 
Q 2294 3103 2034 3103 
Q 1644 3103 1451 2976 
Q 1259 2850 1259 2591 
Q 1259 2356 1403 2240 
Q 1547 2125 2119 2016 
L 2350 1972 
Q 2778 1891 2998 1647 
Q 3219 1403 3219 1013 
Q 3219 494 2850 201 
Q 2481 -91 1825 -91 
Q 1566 -91 1281 -36 
Q 997 19 666 128 
L 666 722 
Q 988 556 1281 473 
Q 1575 391 1838 391 
Q 2219 391 2428 545 
Q 2638 700 2638 978 
Q 2638 1378 1872 1531 
L 1847 1538 
L 1631 1581 
Q 1134 1678 906 1908 
Q 678 2138 678 2534 
Q 678 3038 1018 3311 
Q 1359 3584 1991 3584 
Q 2272 3584 2531 3532 
Q 2791 3481 3041 3378 
z
" transform="scale(0.015625)"/>
       <path id="Menlo-Regular-29" d="M 1088 5169 
L 1588 5169 
Q 2059 4431 2290 3725 
Q 2522 3019 2522 2322 
Q 2522 1619 2290 912 
Q 2059 206 1588 -531 
L 1088 -531 
Q 1503 194 1708 903 
Q 1913 1613 1913 2322 
Q 1913 3034 1708 3743 
Q 1503 4453 1088 5169 
z
" transform="scale(0.015625)"/>
      </defs>
      <use xlink:href="#Menlo-Regular-74"/>
      <use xlink:href="#Menlo-Regular-69" transform="translate(60.205078 0)"/>
      <use xlink:href="#Menlo-Regular-6d" transform="translate(120.410156 0)"/>
      <use xlink:href="#Menlo-Regular-65" transform="translate(180.615234 0)"/>
      <use xlink:href="#Menlo-Regular-20" transform="translate(240.820312 0)"/>
      <use xlink:href="#Menlo-Regular-28" transform="translate(301.025391 0)"/>
      <use xlink:href="#Menlo-Regular-6d" transform="translate(361.230469 0)"/>
      <use xlink:href="#Menlo-Regular-73" transform="translate(421.435547 0)"/>
      <use xlink:href="#Menlo-Regular-29" transform="translate(481.640625 0)"/>
     </g>
    </g>
   </g>
   <g id="matplotlib.axis_2">
    <g id="ytick_1">
     <g id="line2d_6">
      <defs>
       <path id="m2f8407af82" d="M 0 0 
L 3 0 
" style="stroke: #1a1a1a; stroke-width: 0.8"/>
      </defs>
      <g>
       <use xlink:href="#m2f8407af82" x="29.457656" y="80.28326" style="fill: #1a1a1a; stroke: #1a1a1a; stroke-width: 0.8"/>
      </g>
     </g>
     <g id="text_7">
      <!-- −65 -->
      <g style="fill: #1a1a1a" transform="translate(13.315 82.952557) scale(0.07 -0.07)">
       <defs>
        <path id="Menlo-Regular-2212" d="M 275 2272 
L 3578 2272 
L 3578 1741 
L 275 1741 
L 275 2272 
z
" transform="scale(0.015625)"/>
        <path id="Menlo-Regular-36" d="M 3097 4563 
L 3097 3981 
Q 2900 4097 2678 4158 
Q 2456 4219 2216 4219 
Q 1616 4219 1306 3767 
Q 997 3316 997 2438 
Q 1147 2750 1412 2917 
Q 1678 3084 2022 3084 
Q 2697 3084 3067 2670 
Q 3438 2256 3438 1497 
Q 3438 741 3056 325 
Q 2675 -91 1984 -91 
Q 1172 -91 794 492 
Q 416 1075 416 2328 
Q 416 3509 870 4129 
Q 1325 4750 2188 4750 
Q 2419 4750 2650 4701 
Q 2881 4653 3097 4563 
z
M 1972 2591 
Q 1569 2591 1337 2300 
Q 1106 2009 1106 1497 
Q 1106 984 1337 693 
Q 1569 403 1972 403 
Q 2391 403 2603 679 
Q 2816 956 2816 1497 
Q 2816 2041 2603 2316 
Q 2391 2591 1972 2591 
z
" transform="scale(0.015625)"/>
        <path id="Menlo-Regular-35" d="M 647 4666 
L 3009 4666 
L 3009 4134 
L 1222 4134 
L 1222 2988 
Q 1356 3038 1492 3061 
Q 1628 3084 1766 3084 
Q 2491 3084 2916 2656 
Q 3341 2228 3341 1497 
Q 3341 759 2895 334 
Q 2450 -91 1678 -91 
Q 1306 -91 998 -41 
Q 691 9 447 109 
L 447 750 
Q 734 594 1025 517 
Q 1316 441 1619 441 
Q 2141 441 2423 716 
Q 2706 991 2706 1497 
Q 2706 1997 2414 2275 
Q 2122 2553 1600 2553 
Q 1347 2553 1106 2495 
Q 866 2438 647 2322 
L 647 4666 
z
" transform="scale(0.015625)"/>
       </defs>
       <use xlink:href="#Menlo-Regular-2212"/>
       <use xlink:href="#Menlo-Regular-36" transform="translate(60.205078 0)"/>
       <use xlink:href="#Menlo-Regular-35" transform="translate(120.410156 0)"/>
      </g>
     </g>
    </g>
    <g id="ytick_2">
     <g id="line2d_7">
      <g>
       <use xlink:href="#m2f8407af82" x="29.457656" y="59.336133" style="fill: #1a1a1a; stroke: #1a1a1a; stroke-width: 0.8"/>
      </g>
     </g>
     <g id="text_8">
      <!-- −60 -->
      <g style="fill: #1a1a1a" transform="translate(13.315 62.00543) scale(0.07 -0.07)">
       <use xlink:href="#Menlo-Regular-2212"/>
       <use xlink:href="#Menlo-Regular-36" transform="translate(60.205078 0)"/>
       <use xlink:href="#Menlo-Regular-30" transform="translate(120.410156 0)"/>
      </g>
     </g>
    </g>
    <g id="ytick_3">
     <g id="line2d_8">
      <g>
       <use xlink:href="#m2f8407af82" x="29.457656" y="38.389005" style="fill: #1a1a1a; stroke: #1a1a1a; stroke-width: 0.8"/>
      </g>
     </g>
     <g id="text_9">
      <!-- −55 -->
      <g style="fill: #1a1a1a" transform="translate(13.315 41.058302) scale(0.07 -0.07)">
       <use xlink:href="#Menlo-Regular-2212"/>
       <use xlink:href="#Menlo-Regular-35" transform="translate(60.205078 0)"/>
       <use xlink:href="#Menlo-Regular-35" transform="translate(120.410156 0)"/>
      </g>
     </g>
    </g>
    <g id="ytick_4">
     <g id="line2d_9">
      <g>
       <use xlink:href="#m2f8407af82" x="29.457656" y="17.441878" style="fill: #1a1a1a; stroke: #1a1a1a; stroke-width: 0.8"/>
      </g>
     </g>
     <g id="text_10">
      <!-- −50 -->
      <g style="fill: #1a1a1a" transform="translate(13.315 20.111175) scale(0.07 -0.07)">
       <use xlink:href="#Menlo-Regular-2212"/>
       <use xlink:href="#Menlo-Regular-35" transform="translate(60.205078 0)"/>
       <use xlink:href="#Menlo-Regular-30" transform="translate(120.410156 0)"/>
      </g>
     </g>
    </g>
    <g id="text_11">
     <!-- V_E (neuron 334)  [mV] -->
     <g style="fill: #1a1a1a" transform="translate(7.65125 101.843828) rotate(-90) scale(0.08 -0.08)">
      <defs>
       <path id="Menlo-Regular-56" d="M 1925 531 
L 3022 4666 
L 3675 4666 
L 2309 0 
L 1544 0 
L 178 4666 
L 831 4666 
L 1925 531 
z
" transform="scale(0.015625)"/>
       <path id="Menlo-Regular-5f" d="M 3825 -594 
L 3825 -1125 
L 0 -1125 
L 0 -594 
L 3825 -594 
z
" transform="scale(0.015625)"/>
       <path id="Menlo-Regular-45" d="M 616 4666 
L 3384 4666 
L 3384 4134 
L 1247 4134 
L 1247 2878 
L 3291 2878 
L 3291 2347 
L 1247 2347 
L 1247 531 
L 3444 531 
L 3444 0 
L 616 0 
L 616 4666 
z
" transform="scale(0.015625)"/>
       <path id="Menlo-Regular-6e" d="M 3284 2169 
L 3284 0 
L 2706 0 
L 2706 2169 
Q 2706 2641 2540 2862 
Q 2375 3084 2022 3084 
Q 1619 3084 1401 2798 
Q 1184 2513 1184 1978 
L 1184 0 
L 609 0 
L 609 3500 
L 1184 3500 
L 1184 2975 
Q 1338 3275 1600 3429 
Q 1863 3584 2222 3584 
Q 2756 3584 3020 3232 
Q 3284 2881 3284 2169 
z
" transform="scale(0.015625)"/>
       <path id="Menlo-Regular-75" d="M 609 1325 
L 609 3494 
L 1184 3494 
L 1184 1325 
Q 1184 853 1351 631 
Q 1519 409 1869 409 
Q 2275 409 2490 695 
Q 2706 981 2706 1516 
L 2706 3494 
L 3284 3494 
L 3284 0 
L 2706 0 
L 2706 525 
Q 2553 222 2289 65 
Q 2025 -91 1672 -91 
Q 1134 -91 871 261 
Q 609 613 609 1325 
z
" transform="scale(0.015625)"/>
       <path id="Menlo-Regular-72" d="M 3609 2778 
Q 3425 2922 3234 2987 
Q 3044 3053 2816 3053 
Q 2278 3053 1993 2715 
Q 1709 2378 1709 1741 
L 1709 0 
L 1131 0 
L 1131 3500 
L 1709 3500 
L 1709 2816 
Q 1853 3188 2151 3386 
Q 2450 3584 2859 3584 
Q 3072 3584 3256 3531 
Q 3441 3478 3609 3366 
L 3609 2778 
z
" transform="scale(0.015625)"/>
       <path id="Menlo-Regular-6f" d="M 1925 3097 
Q 1488 3097 1263 2756 
Q 1038 2416 1038 1747 
Q 1038 1081 1263 739 
Q 1488 397 1925 397 
Q 2366 397 2591 739 
Q 2816 1081 2816 1747 
Q 2816 2416 2591 2756 
Q 2366 3097 1925 3097 
z
M 1925 3584 
Q 2653 3584 3039 3112 
Q 3425 2641 3425 1747 
Q 3425 850 3040 379 
Q 2656 -91 1925 -91 
Q 1197 -91 812 379 
Q 428 850 428 1747 
Q 428 2641 812 3112 
Q 1197 3584 1925 3584 
z
" transform="scale(0.015625)"/>
       <path id="Menlo-Regular-5b" d="M 1759 5175 
L 3084 5175 
L 3084 4728 
L 2334 4728 
L 2334 -84 
L 3084 -84 
L 3084 -531 
L 1759 -531 
L 1759 5175 
z
" transform="scale(0.015625)"/>
       <path id="Menlo-Regular-5d" d="M 2250 5175 
L 2250 -531 
L 925 -531 
L 925 -84 
L 1675 -84 
L 1675 4728 
L 925 4728 
L 925 5175 
L 2250 5175 
z
" transform="scale(0.015625)"/>
      </defs>
      <use xlink:href="#Menlo-Regular-56"/>
      <use xlink:href="#Menlo-Regular-5f" transform="translate(60.205078 0)"/>
      <use xlink:href="#Menlo-Regular-45" transform="translate(120.410156 0)"/>
      <use xlink:href="#Menlo-Regular-20" transform="translate(180.615234 0)"/>
      <use xlink:href="#Menlo-Regular-28" transform="translate(240.820312 0)"/>
      <use xlink:href="#Menlo-Regular-6e" transform="translate(301.025391 0)"/>
      <use xlink:href="#Menlo-Regular-65" transform="translate(361.230469 0)"/>
      <use xlink:href="#Menlo-Regular-75" transform="translate(421.435547 0)"/>
      <use xlink:href="#Menlo-Regular-72" transform="translate(481.640625 0)"/>
      <use xlink:href="#Menlo-Regular-6f" transform="translate(541.845703 0)"/>
      <use xlink:href="#Menlo-Regular-6e" transform="translate(602.050781 0)"/>
      <use xlink:href="#Menlo-Regular-20" transform="translate(662.255859 0)"/>
      <use xlink:href="#Menlo-Regular-33" transform="translate(722.460938 0)"/>
      <use xlink:href="#Menlo-Regular-33" transform="translate(782.666016 0)"/>
      <use xlink:href="#Menlo-Regular-34" transform="translate(842.871094 0)"/>
      <use xlink:href="#Menlo-Regular-29" transform="translate(903.076172 0)"/>
      <use xlink:href="#Menlo-Regular-20" transform="translate(963.28125 0)"/>
      <use xlink:href="#Menlo-Regular-20" transform="translate(1023.486328 0)"/>
      <use xlink:href="#Menlo-Regular-5b" transform="translate(1083.691406 0)"/>
      <use xlink:href="#Menlo-Regular-6d" transform="translate(1143.896484 0)"/>
      <use xlink:href="#Menlo-Regular-56" transform="translate(1204.101562 0)"/>
      <use xlink:href="#Menlo-Regular-5d" transform="translate(1264.306641 0)"/>
     </g>
    </g>
   </g>
   <g id="line2d_10">
    <path d="M 29.457656 19.019449 
L 29.556553 17.446896 
L 29.754347 80.28326 
L 30.743316 80.28326 
L 31.138903 75.791147 
L 31.2378 75.024312 
L 32.028975 26.656476 
L 32.325666 17.611009 
L 32.523459 80.28326 
L 33.512428 80.28326 
L 33.611325 79.465556 
L 34.006913 68.742939 
L 34.303603 64.091955 
L 34.699191 49.089281 
L 34.896984 42.490309 
L 35.292572 31.50101 
L 35.490366 28.40118 
L 35.688159 18.280885 
L 35.885953 80.28326 
L 36.874922 80.28326 
L 37.270509 53.237011 
L 37.962788 18.29546 
L 38.160581 80.28326 
L 39.14955 80.28326 
L 39.545138 75.147976 
L 39.841828 72.87782 
L 40.237416 63.524679 
L 40.633003 58.610594 
L 40.830797 57.188154 
L 41.226384 46.117558 
L 41.621972 40.635525 
L 42.017559 38.304943 
L 42.31425 37.791989 
L 42.512044 37.834595 
L 42.808734 38.295275 
L 43.303219 39.725881 
L 43.797703 41.58295 
L 44.193291 34.823094 
L 44.489981 32.380434 
L 44.885569 20.298024 
L 45.083363 80.28326 
L 46.072331 80.28326 
L 46.962403 20.511136 
L 47.160197 80.28326 
L 48.149166 80.28326 
L 48.544753 60.983734 
L 48.940341 50.86956 
L 49.533722 40.54416 
L 49.929309 27.87202 
L 50.423794 19.190434 
L 50.621588 80.28326 
L 51.610556 80.28326 
L 52.105041 57.585164 
L 52.599525 22.390995 
L 52.797319 80.28326 
L 53.786288 80.28326 
L 54.478566 53.508039 
L 54.874153 44.025769 
L 55.269741 39.440597 
L 55.566431 37.898856 
L 55.863122 37.37537 
L 56.060916 37.415819 
L 56.357606 37.878288 
L 56.852091 39.320369 
L 57.049884 40.03691 
L 57.445472 34.831388 
L 57.742163 33.075769 
L 57.939956 32.57114 
L 58.13775 26.632376 
L 58.434441 18.604221 
L 58.632234 80.28326 
L 59.621203 80.28326 
L 60.313481 47.795492 
L 61.005759 30.034894 
L 61.401347 24.249742 
L 61.698037 22.38187 
L 61.796934 22.0772 
L 61.895831 19.482766 
L 62.093625 80.28326 
L 63.082594 80.28326 
L 63.478181 62.953265 
L 64.961634 23.067583 
L 65.357222 17.535193 
L 65.555016 80.28326 
L 66.543984 80.28326 
L 66.642881 78.101001 
L 67.335159 48.822008 
L 67.829644 34.158668 
L 68.126334 18.451311 
L 68.324128 80.28326 
L 69.313097 80.28326 
L 70.203169 18.741389 
L 70.400962 80.28326 
L 71.389931 80.28326 
L 71.785519 61.013939 
L 72.181106 50.914532 
L 72.477797 44.528864 
L 72.873384 35.581123 
L 73.268972 31.457813 
L 73.367869 30.91021 
L 73.763456 21.911298 
L 74.159044 18.041612 
L 74.257941 17.584656 
L 74.455734 80.28326 
L 75.444703 80.28326 
L 75.840291 62.197888 
L 76.433672 21.11608 
L 76.631466 80.28326 
L 77.620434 80.28326 
L 77.917125 68.71895 
L 78.312713 52.87206 
L 79.202784 31.593671 
L 79.598372 28.077078 
L 79.697269 27.64534 
L 79.993959 19.08355 
L 80.191753 80.28326 
L 81.180722 80.28326 
L 81.477412 65.415469 
L 81.873 44.436651 
L 82.268587 33.854446 
L 83.257556 17.705731 
L 83.45535 80.28326 
L 84.444319 80.28326 
L 84.839906 64.483962 
L 85.235494 56.106837 
L 85.631081 51.875397 
L 85.927772 50.324563 
L 86.323359 42.17212 
L 86.718947 38.345504 
L 86.916741 37.434325 
L 87.312328 28.734057 
L 88.004606 18.290698 
L 88.2024 80.28326 
L 89.191369 80.28326 
L 89.78475 36.352241 
L 90.180337 23.742317 
L 90.378131 20.217478 
L 90.575925 80.28326 
L 91.564894 80.28326 
L 92.059378 27.548269 
L 92.158275 19.366006 
L 92.356069 80.28326 
L 93.345037 80.28326 
L 94.235109 28.671505 
L 94.432903 17.66664 
L 94.630697 80.28326 
L 95.619666 80.28326 
L 96.311944 59.482986 
L 96.707531 53.204697 
L 97.103119 50.184406 
L 97.399809 49.201678 
L 97.498706 49.041768 
L 97.6965 42.381236 
L 98.487675 17.651858 
L 98.685469 80.28326 
L 99.674437 80.28326 
L 100.168922 57.175353 
L 100.762303 24.357841 
L 100.960097 18.850718 
L 101.157891 80.28326 
L 102.146859 80.28326 
L 102.641344 54.956625 
L 102.938034 35.908342 
L 103.234725 19.176818 
L 103.432519 80.28326 
L 104.421487 80.28326 
L 104.817075 53.822266 
L 105.212662 40.290184 
L 106.201631 19.440063 
L 106.399425 80.28326 
L 107.388394 80.28326 
L 107.783981 71.698265 
L 108.179569 67.0379 
L 108.674053 43.854129 
L 109.069641 30.09345 
L 109.465228 21.055478 
L 109.663022 80.28326 
L 110.651991 80.28326 
L 110.948681 76.883507 
L 111.245372 64.605644 
L 111.640959 48.425574 
L 112.036547 40.202446 
L 112.728825 29.99502 
L 112.827722 28.561442 
L 113.223309 18.9413 
L 113.322206 17.513235 
L 113.52 80.28326 
L 114.508969 80.28326 
L 114.904556 74.78026 
L 115.300144 71.763421 
L 115.695731 70.203462 
L 115.992422 69.619262 
L 116.091319 67.885984 
L 116.486906 52.040436 
L 116.783597 42.825631 
L 117.179184 23.904864 
L 117.376978 18.499814 
L 117.574772 80.28326 
L 118.563741 80.28326 
L 119.058225 67.731013 
L 119.453812 58.919178 
L 119.651606 56.259859 
L 120.244987 17.936342 
L 120.442781 80.28326 
L 121.43175 80.28326 
L 121.827337 71.296093 
L 122.222925 66.423751 
L 122.618512 63.923894 
L 122.717409 61.262865 
L 123.508584 20.596429 
L 123.706378 80.28326 
L 124.695347 80.28326 
L 125.882109 21.080249 
L 125.981006 18.293015 
L 126.1788 80.28326 
L 127.167769 80.28326 
L 127.958944 28.780962 
L 128.354531 18.473781 
L 128.552325 80.28326 
L 129.541294 80.28326 
L 130.629159 17.792446 
L 130.826953 80.28326 
L 131.815922 80.28326 
L 132.607097 20.281739 
L 132.804891 80.28326 
L 133.793859 80.28326 
L 134.189447 62.588314 
L 134.486137 50.627889 
L 135.178416 29.891684 
L 135.574003 23.098747 
L 135.6729 22.127654 
L 135.771797 19.486729 
L 135.969591 80.28326 
L 136.958559 80.28326 
L 137.551941 52.248067 
L 137.947528 39.398758 
L 138.145322 35.659847 
L 138.442012 20.696632 
L 138.639806 80.28326 
L 139.628775 80.28326 
L 140.024362 76.373477 
L 140.41995 74.219233 
L 140.617744 73.562334 
L 140.914434 60.711891 
L 141.310022 48.698584 
L 141.507816 42.889892 
L 142.0023 23.752386 
L 142.101197 19.42047 
L 142.298991 80.28326 
L 143.287959 80.28326 
L 144.079134 55.502581 
L 144.474722 48.622433 
L 144.870309 40.525078 
L 145.265897 36.761812 
L 145.364794 36.257312 
L 145.760381 28.88898 
L 146.155969 25.757922 
L 146.452659 25.050858 
L 146.650453 25.087854 
L 146.74935 25.220724 
L 147.144937 20.661089 
L 147.441628 19.384464 
L 147.639422 19.194429 
L 147.837216 19.383713 
L 148.133906 20.179746 
L 148.628391 22.356555 
L 148.925081 18.910536 
L 149.122875 80.28326 
L 150.111844 80.28326 
L 150.606328 47.44446 
L 151.199709 19.961216 
L 151.397503 80.28326 
L 152.386472 80.28326 
L 152.782059 62.663186 
L 153.07875 51.821268 
L 153.672131 28.469533 
L 154.067719 18.06341 
L 154.265512 80.28326 
L 155.254481 80.28326 
L 156.045656 52.666348 
L 156.441244 31.812743 
L 156.737934 19.625096 
L 156.935728 80.28326 
L 157.924697 80.28326 
L 158.320284 76.404385 
L 158.616975 74.683349 
L 160.001531 36.227331 
L 160.397119 30.631239 
L 160.693809 28.759627 
L 160.9905 28.127898 
L 161.188294 28.179518 
L 161.386088 28.502454 
L 161.880572 18.262203 
L 162.078366 80.28326 
L 163.067334 80.28326 
L 163.462922 76.897027 
L 163.858509 75.028179 
L 164.254097 74.057326 
L 164.352994 73.90822 
L 164.748581 64.991291 
L 165.045272 58.922934 
L 165.440859 42.6087 
L 165.836447 34.445502 
L 165.935344 33.202133 
L 166.232034 24.33764 
L 166.429828 80.28326 
L 167.418797 80.28326 
L 168.605559 19.745516 
L 168.803353 80.28326 
L 169.792322 80.28326 
L 170.187909 63.41607 
L 170.583497 54.504367 
L 170.979084 50.014124 
L 171.374672 48.050091 
L 171.671362 47.574421 
L 172.06695 26.316552 
L 172.264744 20.206962 
L 172.462537 80.28326 
L 173.451506 80.28326 
L 173.847094 67.458115 
L 174.044887 61.18983 
L 174.440475 39.021341 
L 174.836062 27.974829 
L 175.330547 18.763651 
L 175.528341 80.28326 
L 176.517309 80.28326 
L 176.912897 78.297924 
L 177.308484 77.197413 
L 177.407381 74.01651 
L 177.802969 51.346732 
L 178.198556 39.751595 
L 178.693041 28.681685 
L 178.791937 22.222807 
L 178.989731 80.28326 
L 179.9787 80.28326 
L 180.374287 70.332815 
L 180.769875 64.95495 
L 180.868772 64.074007 
L 181.264359 52.50957 
L 181.659947 46.629809 
L 181.758844 45.728347 
L 182.154431 35.028487 
L 182.550019 29.976274 
L 182.747812 28.742047 
L 183.1434 19.490037 
L 183.341194 80.28326 
L 184.330162 80.28326 
L 184.72575 75.215961 
L 184.923544 73.610311 
L 185.121337 65.205794 
L 185.516925 43.013876 
L 185.813616 18.937544 
L 186.011409 80.28326 
L 187.000378 80.28326 
L 187.593759 37.631472 
L 187.593759 37.631472 
" clip-path="url(#p98e3a44331)" style="fill: none; stroke: #1a1a1a; stroke-width: 0.8; stroke-linejoin: miter"/>
   </g>
   <g id="line2d_11">
    <path d="M 29.457656 17.441878 
L 187.692656 17.441878 
" clip-path="url(#p98e3a44331)" style="fill: none; stroke-dasharray: 1.85,0.8; stroke-dashoffset: 0; stroke: #bbbbbb; stroke-width: 0.5"/>
   </g>
   <g id="patch_3">
    <path d="M 29.457656 83.425078 
L 29.457656 14.305078 
" style="fill: none; stroke: #1a1a1a; stroke-width: 0.8; stroke-linejoin: miter; stroke-linecap: square"/>
   </g>
   <g id="patch_4">
    <path d="M 187.692656 83.425078 
L 187.692656 14.305078 
" style="fill: none; stroke: #1a1a1a; stroke-width: 0.8; stroke-linejoin: miter; stroke-linecap: square"/>
   </g>
   <g id="patch_5">
    <path d="M 29.457656 83.425078 
L 187.692656 83.425078 
" style="fill: none; stroke: #1a1a1a; stroke-width: 0.8; stroke-linejoin: miter; stroke-linecap: square"/>
   </g>
   <g id="patch_6">
    <path d="M 29.457656 14.305078 
L 187.692656 14.305078 
" style="fill: none; stroke: #1a1a1a; stroke-width: 0.8; stroke-linejoin: miter; stroke-linecap: square"/>
   </g>
   <g id="text_12">
    <!-- COBA — no recurrent loop (ei-strength = 0) — E-neuron membrane voltage -->
    <g style="fill: #1a1a1a" transform="translate(29.457656 8.305078) scale(0.085 -0.085)">
     <defs>
      <path id="Menlo-Regular-43" d="M 3353 166 
Q 3113 38 2859 -26 
Q 2606 -91 2322 -91 
Q 1425 -91 929 543 
Q 434 1178 434 2328 
Q 434 3472 932 4111 
Q 1431 4750 2322 4750 
Q 2606 4750 2859 4686 
Q 3113 4622 3353 4494 
L 3353 3847 
Q 3122 4038 2856 4138 
Q 2591 4238 2322 4238 
Q 1706 4238 1400 3763 
Q 1094 3288 1094 2328 
Q 1094 1372 1400 897 
Q 1706 422 2322 422 
Q 2597 422 2861 522 
Q 3125 622 3353 813 
L 3353 166 
z
" transform="scale(0.015625)"/>
      <path id="Menlo-Regular-4f" d="M 2828 2328 
Q 2828 3356 2617 3797 
Q 2406 4238 1925 4238 
Q 1447 4238 1236 3797 
Q 1025 3356 1025 2328 
Q 1025 1303 1236 862 
Q 1447 422 1925 422 
Q 2406 422 2617 861 
Q 2828 1300 2828 2328 
z
M 3488 2328 
Q 3488 1109 3102 509 
Q 2716 -91 1925 -91 
Q 1134 -91 750 506 
Q 366 1103 366 2328 
Q 366 3550 752 4150 
Q 1138 4750 1925 4750 
Q 2716 4750 3102 4150 
Q 3488 3550 3488 2328 
z
" transform="scale(0.015625)"/>
      <path id="Menlo-Regular-42" d="M 1153 2353 
L 1153 519 
L 1900 519 
Q 2450 519 2684 711 
Q 2919 903 2919 1344 
Q 2919 1925 2672 2139 
Q 2425 2353 1900 2353 
L 1153 2353 
z
M 1153 4147 
L 1153 2866 
L 1888 2866 
Q 2344 2866 2548 3041 
Q 2753 3216 2753 3481 
Q 2753 3834 2551 3990 
Q 2350 4147 1888 4147 
L 1153 4147 
z
M 519 4666 
L 1900 4666 
Q 2616 4666 3003 4356 
Q 3391 4047 3391 3481 
Q 3391 3178 3186 2931 
Q 2981 2684 2572 2622 
Q 3031 2553 3292 2229 
Q 3553 1906 3553 1281 
Q 3553 647 3137 323 
Q 2722 0 1900 0 
L 519 0 
L 519 4666 
z
" transform="scale(0.015625)"/>
      <path id="Menlo-Regular-41" d="M 1925 4109 
L 1259 1722 
L 2591 1722 
L 1925 4109 
z
M 1544 4666 
L 2309 4666 
L 3738 0 
L 3084 0 
L 2741 1216 
L 1106 1216 
L 769 0 
L 116 0 
L 1544 4666 
z
" transform="scale(0.015625)"/>
      <path id="Menlo-Regular-2014" d="M 0 2259 
L 3853 2259 
L 3853 1725 
L 0 1725 
L 0 2259 
z
" transform="scale(0.015625)"/>
      <path id="Menlo-Regular-63" d="M 3316 178 
Q 3084 44 2839 -23 
Q 2594 -91 2338 -91 
Q 1525 -91 1067 396 
Q 609 884 609 1747 
Q 609 2609 1067 3096 
Q 1525 3584 2338 3584 
Q 2591 3584 2831 3518 
Q 3072 3453 3316 3316 
L 3316 2713 
Q 3088 2916 2858 3006 
Q 2628 3097 2338 3097 
Q 1797 3097 1506 2747 
Q 1216 2397 1216 1747 
Q 1216 1100 1508 748 
Q 1800 397 2338 397 
Q 2638 397 2875 489 
Q 3113 581 3316 775 
L 3316 178 
z
" transform="scale(0.015625)"/>
      <path id="Menlo-Regular-6c" d="M 2247 1266 
Q 2247 878 2389 681 
Q 2531 484 2809 484 
L 3481 484 
L 3481 0 
L 2753 0 
Q 2238 0 1955 329 
Q 1672 659 1672 1266 
L 1672 4431 
L 750 4431 
L 750 4881 
L 2247 4881 
L 2247 1266 
z
" transform="scale(0.015625)"/>
      <path id="Menlo-Regular-70" d="M 1172 441 
L 1172 -1331 
L 594 -1331 
L 594 3500 
L 1172 3500 
L 1172 3053 
Q 1316 3313 1555 3448 
Q 1794 3584 2106 3584 
Q 2741 3584 3102 3093 
Q 3463 2603 3463 1734 
Q 3463 881 3100 395 
Q 2738 -91 2106 -91 
Q 1788 -91 1548 45 
Q 1309 181 1172 441 
z
M 2859 1747 
Q 2859 2416 2648 2756 
Q 2438 3097 2022 3097 
Q 1603 3097 1387 2755 
Q 1172 2413 1172 1747 
Q 1172 1084 1387 740 
Q 1603 397 2022 397 
Q 2438 397 2648 737 
Q 2859 1078 2859 1747 
z
" transform="scale(0.015625)"/>
      <path id="Menlo-Regular-2d" d="M 319 2263 
L 3631 2263 
L 3631 1734 
L 319 1734 
L 319 2263 
z
" transform="scale(0.015625)"/>
      <path id="Menlo-Regular-67" d="M 2681 1778 
Q 2681 2425 2470 2761 
Q 2259 3097 1856 3097 
Q 1434 3097 1212 2761 
Q 991 2425 991 1778 
Q 991 1131 1214 792 
Q 1438 453 1863 453 
Q 2259 453 2470 793 
Q 2681 1134 2681 1778 
z
M 3256 225 
Q 3256 -563 2884 -969 
Q 2513 -1375 1791 -1375 
Q 1553 -1375 1293 -1331 
Q 1034 -1288 775 -1203 
L 775 -634 
Q 1081 -778 1331 -847 
Q 1581 -916 1791 -916 
Q 2256 -916 2468 -662 
Q 2681 -409 2681 141 
L 2681 166 
L 2681 556 
Q 2544 263 2306 119 
Q 2069 -25 1728 -25 
Q 1116 -25 750 465 
Q 384 956 384 1778 
Q 384 2603 750 3093 
Q 1116 3584 1728 3584 
Q 2066 3584 2300 3450 
Q 2534 3316 2681 3034 
L 2681 3488 
L 3256 3488 
L 3256 225 
z
" transform="scale(0.015625)"/>
      <path id="Menlo-Regular-68" d="M 3284 2169 
L 3284 0 
L 2706 0 
L 2706 2169 
Q 2706 2641 2540 2862 
Q 2375 3084 2022 3084 
Q 1619 3084 1401 2798 
Q 1184 2513 1184 1978 
L 1184 0 
L 609 0 
L 609 4863 
L 1184 4863 
L 1184 2975 
Q 1338 3275 1600 3429 
Q 1863 3584 2222 3584 
Q 2756 3584 3020 3232 
Q 3284 2881 3284 2169 
z
" transform="scale(0.015625)"/>
      <path id="Menlo-Regular-3d" d="M 275 1563 
L 3578 1563 
L 3578 1034 
L 275 1034 
L 275 1563 
z
M 275 3034 
L 3578 3034 
L 3578 2506 
L 275 2506 
L 275 3034 
z
" transform="scale(0.015625)"/>
      <path id="Menlo-Regular-62" d="M 2869 1747 
Q 2869 2416 2656 2756 
Q 2444 3097 2028 3097 
Q 1609 3097 1393 2755 
Q 1178 2413 1178 1747 
Q 1178 1084 1393 740 
Q 1609 397 2028 397 
Q 2444 397 2656 737 
Q 2869 1078 2869 1747 
z
M 1178 3053 
Q 1316 3309 1558 3446 
Q 1800 3584 2119 3584 
Q 2750 3584 3112 3098 
Q 3475 2613 3475 1759 
Q 3475 894 3111 401 
Q 2747 -91 2113 -91 
Q 1800 -91 1561 45 
Q 1322 181 1178 441 
L 1178 0 
L 603 0 
L 603 4863 
L 1178 4863 
L 1178 3053 
z
" transform="scale(0.015625)"/>
      <path id="Menlo-Regular-61" d="M 2194 1759 
L 2003 1759 
Q 1500 1759 1245 1582 
Q 991 1406 991 1056 
Q 991 741 1181 566 
Q 1372 391 1709 391 
Q 2184 391 2456 720 
Q 2728 1050 2731 1631 
L 2731 1759 
L 2194 1759 
z
M 3309 1997 
L 3309 0 
L 2731 0 
L 2731 519 
Q 2547 206 2267 57 
Q 1988 -91 1588 -91 
Q 1053 -91 734 211 
Q 416 513 416 1019 
Q 416 1603 808 1906 
Q 1200 2209 1959 2209 
L 2731 2209 
L 2731 2300 
Q 2728 2719 2518 2908 
Q 2309 3097 1850 3097 
Q 1556 3097 1256 3012 
Q 956 2928 672 2766 
L 672 3341 
Q 991 3463 1283 3523 
Q 1575 3584 1850 3584 
Q 2284 3584 2592 3456 
Q 2900 3328 3091 3072 
Q 3209 2916 3259 2686 
Q 3309 2456 3309 1997 
z
" transform="scale(0.015625)"/>
      <path id="Menlo-Regular-76" d="M 313 3500 
L 909 3500 
L 1925 563 
L 2944 3500 
L 3541 3500 
L 2297 0 
L 1556 0 
L 313 3500 
z
" transform="scale(0.015625)"/>
     </defs>
     <use xlink:href="#Menlo-Regular-43"/>
     <use xlink:href="#Menlo-Regular-4f" transform="translate(60.205078 0)"/>
     <use xlink:href="#Menlo-Regular-42" transform="translate(120.410156 0)"/>
     <use xlink:href="#Menlo-Regular-41" transform="translate(180.615234 0)"/>
     <use xlink:href="#Menlo-Regular-20" transform="translate(240.820312 0)"/>
     <use xlink:href="#Menlo-Regular-2014" transform="translate(301.025391 0)"/>
     <use xlink:href="#Menlo-Regular-20" transform="translate(361.230469 0)"/>
     <use xlink:href="#Menlo-Regular-6e" transform="translate(421.435547 0)"/>
     <use xlink:href="#Menlo-Regular-6f" transform="translate(481.640625 0)"/>
     <use xlink:href="#Menlo-Regular-20" transform="translate(541.845703 0)"/>
     <use xlink:href="#Menlo-Regular-72" transform="translate(602.050781 0)"/>
     <use xlink:href="#Menlo-Regular-65" transform="translate(662.255859 0)"/>
     <use xlink:href="#Menlo-Regular-63" transform="translate(722.460938 0)"/>
     <use xlink:href="#Menlo-Regular-75" transform="translate(782.666016 0)"/>
     <use xlink:href="#Menlo-Regular-72" transform="translate(842.871094 0)"/>
     <use xlink:href="#Menlo-Regular-72" transform="translate(903.076172 0)"/>
     <use xlink:href="#Menlo-Regular-65" transform="translate(963.28125 0)"/>
     <use xlink:href="#Menlo-Regular-6e" transform="translate(1023.486328 0)"/>
     <use xlink:href="#Menlo-Regular-74" transform="translate(1083.691406 0)"/>
     <use xlink:href="#Menlo-Regular-20" transform="translate(1143.896484 0)"/>
     <use xlink:href="#Menlo-Regular-6c" transform="translate(1204.101562 0)"/>
     <use xlink:href="#Menlo-Regular-6f" transform="translate(1264.306641 0)"/>
     <use xlink:href="#Menlo-Regular-6f" transform="translate(1324.511719 0)"/>
     <use xlink:href="#Menlo-Regular-70" transform="translate(1384.716797 0)"/>
     <use xlink:href="#Menlo-Regular-20" transform="translate(1444.921875 0)"/>
     <use xlink:href="#Menlo-Regular-28" transform="translate(1505.126953 0)"/>
     <use xlink:href="#Menlo-Regular-65" transform="translate(1565.332031 0)"/>
     <use xlink:href="#Menlo-Regular-69" transform="translate(1625.537109 0)"/>
     <use xlink:href="#Menlo-Regular-2d" transform="translate(1685.742188 0)"/>
     <use xlink:href="#Menlo-Regular-73" transform="translate(1745.947266 0)"/>
     <use xlink:href="#Menlo-Regular-74" transform="translate(1806.152344 0)"/>
     <use xlink:href="#Menlo-Regular-72" transform="translate(1866.357422 0)"/>
     <use xlink:href="#Menlo-Regular-65" transform="translate(1926.5625 0)"/>
     <use xlink:href="#Menlo-Regular-6e" transform="translate(1986.767578 0)"/>
     <use xlink:href="#Menlo-Regular-67" transform="translate(2046.972656 0)"/>
     <use xlink:href="#Menlo-Regular-74" transform="translate(2107.177734 0)"/>
     <use xlink:href="#Menlo-Regular-68" transform="translate(2167.382812 0)"/>
     <use xlink:href="#Menlo-Regular-20" transform="translate(2227.587891 0)"/>
     <use xlink:href="#Menlo-Regular-3d" transform="translate(2287.792969 0)"/>
     <use xlink:href="#Menlo-Regular-20" transform="translate(2347.998047 0)"/>
     <use xlink:href="#Menlo-Regular-30" transform="translate(2408.203125 0)"/>
     <use xlink:href="#Menlo-Regular-29" transform="translate(2468.408203 0)"/>
     <use xlink:href="#Menlo-Regular-20" transform="translate(2528.613281 0)"/>
     <use xlink:href="#Menlo-Regular-2014" transform="translate(2588.818359 0)"/>
     <use xlink:href="#Menlo-Regular-20" transform="translate(2649.023438 0)"/>
     <use xlink:href="#Menlo-Regular-45" transform="translate(2709.228516 0)"/>
     <use xlink:href="#Menlo-Regular-2d" transform="translate(2769.433594 0)"/>
     <use xlink:href="#Menlo-Regular-6e" transform="translate(2829.638672 0)"/>
     <use xlink:href="#Menlo-Regular-65" transform="translate(2889.84375 0)"/>
     <use xlink:href="#Menlo-Regular-75" transform="translate(2950.048828 0)"/>
     <use xlink:href="#Menlo-Regular-72" transform="translate(3010.253906 0)"/>
     <use xlink:href="#Menlo-Regular-6f" transform="translate(3070.458984 0)"/>
     <use xlink:href="#Menlo-Regular-6e" transform="translate(3130.664062 0)"/>
     <use xlink:href="#Menlo-Regular-20" transform="translate(3190.869141 0)"/>
     <use xlink:href="#Menlo-Regular-6d" transform="translate(3251.074219 0)"/>
     <use xlink:href="#Menlo-Regular-65" transform="translate(3311.279297 0)"/>
     <use xlink:href="#Menlo-Regular-6d" transform="translate(3371.484375 0)"/>
     <use xlink:href="#Menlo-Regular-62" transform="translate(3431.689453 0)"/>
     <use xlink:href="#Menlo-Regular-72" transform="translate(3491.894531 0)"/>
     <use xlink:href="#Menlo-Regular-61" transform="translate(3552.099609 0)"/>
     <use xlink:href="#Menlo-Regular-6e" transform="translate(3612.304688 0)"/>
     <use xlink:href="#Menlo-Regular-65" transform="translate(3672.509766 0)"/>
     <use xlink:href="#Menlo-Regular-20" transform="translate(3732.714844 0)"/>
     <use xlink:href="#Menlo-Regular-76" transform="translate(3792.919922 0)"/>
     <use xlink:href="#Menlo-Regular-6f" transform="translate(3853.125 0)"/>
     <use xlink:href="#Menlo-Regular-6c" transform="translate(3913.330078 0)"/>
     <use xlink:href="#Menlo-Regular-74" transform="translate(3973.535156 0)"/>
     <use xlink:href="#Menlo-Regular-61" transform="translate(4033.740234 0)"/>
     <use xlink:href="#Menlo-Regular-67" transform="translate(4093.945312 0)"/>
     <use xlink:href="#Menlo-Regular-65" transform="translate(4154.150391 0)"/>
    </g>
   </g>
   <g id="legend_1">
    <g id="patch_7">
     <path d="M 144.935781 40.493828 
L 184.192656 40.493828 
L 184.192656 17.805078 
L 144.935781 17.805078 
z
" style="fill: #ffffff; stroke: #1a1a1a; stroke-width: 0.8; stroke-linejoin: miter"/>
    </g>
    <g id="line2d_12">
     <path d="M 147.735781 23.493672 
L 153.335781 23.493672 
L 158.935781 23.493672 
" style="fill: none; stroke: #1a1a1a; stroke-width: 0.8; stroke-linejoin: miter"/>
    </g>
    <g id="text_13">
     <!-- V_E -->
     <g style="fill: #1a1a1a" transform="translate(164.535781 25.943672) scale(0.07 -0.07)">
      <use xlink:href="#Menlo-Regular-56"/>
      <use xlink:href="#Menlo-Regular-5f" transform="translate(60.205078 0)"/>
      <use xlink:href="#Menlo-Regular-45" transform="translate(120.410156 0)"/>
     </g>
    </g>
    <g id="line2d_13">
     <path d="M 147.735781 33.788047 
L 153.335781 33.788047 
L 158.935781 33.788047 
" style="fill: none; stroke-dasharray: 1.85,0.8; stroke-dashoffset: 0; stroke: #bbbbbb; stroke-width: 0.5"/>
    </g>
    <g id="text_14">
     <!-- V_th -->
     <g style="fill: #1a1a1a" transform="translate(164.535781 36.238047) scale(0.07 -0.07)">
      <use xlink:href="#Menlo-Regular-56"/>
      <use xlink:href="#Menlo-Regular-5f" transform="translate(60.205078 0)"/>
      <use xlink:href="#Menlo-Regular-74" transform="translate(120.410156 0)"/>
      <use xlink:href="#Menlo-Regular-68" transform="translate(180.615234 0)"/>
     </g>
    </g>
   </g>
  </g>
 </g>
 <defs>
  <clipPath id="p98e3a44331">
   <rect x="29.457656" y="14.305078" width="158.235" height="69.12"/>
  </clipPath>
 </defs>
</svg>
