<?xml version="1.0" encoding="utf-8" standalone="no"?>
<!DOCTYPE svg PUBLIC "-//W3C//DTD SVG 1.1//EN"
  "http://www.w3.org/Graphics/SVG/1.1/DTD/svg11.dtd">
<svg xmlns:xlink="http://www.w3.org/1999/xlink" width="273.843984pt" height="148.460625pt" viewBox="0 0 273.843984 148.460625" xmlns="http://www.w3.org/2000/svg" version="1.1">
 <metadata>
  <rdf:RDF xmlns:dc="http://purl.org/dc/elements/1.1/" xmlns:cc="http://creativecommons.org/ns#" xmlns:rdf="http://www.w3.org/1999/02/22-rdf-syntax-ns#">
   <cc:Work>
    <dc:type rdf:resource="http://purl.org/dc/dcmitype/StillImage"/>
    <dc:date>2026-07-03T07:43:12.434605</dc:date>
    <dc:format>image/svg+xml</dc:format>
    <dc:creator>
     <cc:Agent>
      <dc:title>Matplotlib v3.10.8, https://matplotlib.org/</dc:title>
     </cc:Agent>
    </dc:creator>
   </cc:Work>
  </rdf:RDF>
 </metadata>
 <defs>
  <style type="text/css">*{stroke-linejoin: round; stroke-linecap: butt}</style>
 </defs>
 <g id="figure_1">
  <g id="patch_1">
   <path d="M 0 148.460625 
L 273.843984 148.460625 
L 273.843984 0 
L 0 0 
z
" style="fill: #ffffff"/>
  </g>
  <g id="axes_1">
   <g id="patch_2">
    <path d="M 29.457656 124.96125 
L 266.08266 124.96125 
L 266.08266 13.54125 
L 29.457656 13.54125 
z
" style="fill: #ffffff"/>
   </g>
   <g id="matplotlib.axis_1">
    <g id="xtick_1">
     <g id="line2d_1">
      <defs>
       <path id="m3d57fdf120" d="M 0 0 
L 0 -3 
" style="stroke: #1a1a1a; stroke-width: 0.8"/>
      </defs>
      <g>
       <use xlink:href="#m3d57fdf120" x="29.457656" y="124.96125" style="fill: #1a1a1a; stroke: #1a1a1a; stroke-width: 0.8"/>
      </g>
     </g>
     <g id="text_1">
      <!-- 0 -->
      <g style="fill: #1a1a1a" transform="translate(27.350547 133.799844) scale(0.07 -0.07)">
       <defs>
        <path id="Menlo-Regular-30" d="M 1925 4734 
Q 2672 4734 3055 4125 
Q 3438 3516 3438 2322 
Q 3438 1128 3055 518 
Q 2672 -91 1925 -91 
Q 1178 -91 797 518 
Q 416 1128 416 2322 
Q 416 3516 797 4125 
Q 1178 4734 1925 4734 
z
M 1925 409 
Q 2369 409 2586 881 
Q 2803 1353 2803 2322 
Q 2803 2838 2741 3253 
L 1253 925 
Q 1488 409 1925 409 
z
M 1925 4234 
Q 1484 4234 1267 3762 
Q 1050 3291 1050 2322 
Q 1050 1881 1109 1497 
L 2566 3819 
Q 2328 4234 1925 4234 
z
" transform="scale(0.015625)"/>
       </defs>
       <use xlink:href="#Menlo-Regular-30"/>
      </g>
     </g>
    </g>
    <g id="xtick_2">
     <g id="line2d_2">
      <g>
       <use xlink:href="#m3d57fdf120" x="59.035781" y="124.96125" style="fill: #1a1a1a; stroke: #1a1a1a; stroke-width: 0.8"/>
      </g>
     </g>
     <g id="text_2">
      <!-- 50 -->
      <g style="fill: #1a1a1a" transform="translate(54.821562 133.799844) scale(0.07 -0.07)">
       <defs>
        <path id="Menlo-Regular-35" d="M 647 4666 
L 3009 4666 
L 3009 4134 
L 1222 4134 
L 1222 2988 
Q 1356 3038 1492 3061 
Q 1628 3084 1766 3084 
Q 2491 3084 2916 2656 
Q 3341 2228 3341 1497 
Q 3341 759 2895 334 
Q 2450 -91 1678 -91 
Q 1306 -91 998 -41 
Q 691 9 447 109 
L 447 750 
Q 734 594 1025 517 
Q 1316 441 1619 441 
Q 2141 441 2423 716 
Q 2706 991 2706 1497 
Q 2706 1997 2414 2275 
Q 2122 2553 1600 2553 
Q 1347 2553 1106 2495 
Q 866 2438 647 2322 
L 647 4666 
z
" transform="scale(0.015625)"/>
       </defs>
       <use xlink:href="#Menlo-Regular-35"/>
       <use xlink:href="#Menlo-Regular-30" transform="translate(60.205078 0)"/>
      </g>
     </g>
    </g>
    <g id="xtick_3">
     <g id="line2d_3">
      <g>
       <use xlink:href="#m3d57fdf120" x="88.613906" y="124.96125" style="fill: #1a1a1a; stroke: #1a1a1a; stroke-width: 0.8"/>
      </g>
     </g>
     <g id="text_3">
      <!-- 100 -->
      <g style="fill: #1a1a1a" transform="translate(82.292578 133.799844) scale(0.07 -0.07)">
       <defs>
        <path id="Menlo-Regular-31" d="M 844 528 
L 1825 528 
L 1825 4053 
L 650 3488 
L 650 4094 
L 1819 4650 
L 2450 4650 
L 2450 528 
L 3419 528 
L 3419 0 
L 844 0 
L 844 528 
z
" transform="scale(0.015625)"/>
       </defs>
       <use xlink:href="#Menlo-Regular-31"/>
       <use xlink:href="#Menlo-Regular-30" transform="translate(60.205078 0)"/>
       <use xlink:href="#Menlo-Regular-30" transform="translate(120.410156 0)"/>
      </g>
     </g>
    </g>
    <g id="xtick_4">
     <g id="line2d_4">
      <g>
       <use xlink:href="#m3d57fdf120" x="118.192031" y="124.96125" style="fill: #1a1a1a; stroke: #1a1a1a; stroke-width: 0.8"/>
      </g>
     </g>
     <g id="text_4">
      <!-- 150 -->
      <g style="fill: #1a1a1a" transform="translate(111.870703 133.799844) scale(0.07 -0.07)">
       <use xlink:href="#Menlo-Regular-31"/>
       <use xlink:href="#Menlo-Regular-35" transform="translate(60.205078 0)"/>
       <use xlink:href="#Menlo-Regular-30" transform="translate(120.410156 0)"/>
      </g>
     </g>
    </g>
    <g id="xtick_5">
     <g id="line2d_5">
      <g>
       <use xlink:href="#m3d57fdf120" x="147.770156" y="124.96125" style="fill: #1a1a1a; stroke: #1a1a1a; stroke-width: 0.8"/>
      </g>
     </g>
     <g id="text_5">
      <!-- 200 -->
      <g style="fill: #1a1a1a" transform="translate(141.448828 133.799844) scale(0.07 -0.07)">
       <defs>
        <path id="Menlo-Regular-32" d="M 1166 531 
L 3309 531 
L 3309 0 
L 475 0 
L 475 531 
Q 1059 1147 1496 1619 
Q 1934 2091 2100 2284 
Q 2413 2666 2522 2902 
Q 2631 3138 2631 3384 
Q 2631 3775 2401 3997 
Q 2172 4219 1772 4219 
Q 1488 4219 1175 4116 
Q 863 4013 513 3803 
L 513 4441 
Q 834 4594 1145 4672 
Q 1456 4750 1759 4750 
Q 2444 4750 2861 4386 
Q 3278 4022 3278 3431 
Q 3278 3131 3139 2831 
Q 3000 2531 2688 2169 
Q 2513 1966 2180 1606 
Q 1847 1247 1166 531 
z
" transform="scale(0.015625)"/>
       </defs>
       <use xlink:href="#Menlo-Regular-32"/>
       <use xlink:href="#Menlo-Regular-30" transform="translate(60.205078 0)"/>
       <use xlink:href="#Menlo-Regular-30" transform="translate(120.410156 0)"/>
      </g>
     </g>
    </g>
    <g id="xtick_6">
     <g id="line2d_6">
      <g>
       <use xlink:href="#m3d57fdf120" x="177.348281" y="124.96125" style="fill: #1a1a1a; stroke: #1a1a1a; stroke-width: 0.8"/>
      </g>
     </g>
     <g id="text_6">
      <!-- 250 -->
      <g style="fill: #1a1a1a" transform="translate(171.026953 133.799844) scale(0.07 -0.07)">
       <use xlink:href="#Menlo-Regular-32"/>
       <use xlink:href="#Menlo-Regular-35" transform="translate(60.205078 0)"/>
       <use xlink:href="#Menlo-Regular-30" transform="translate(120.410156 0)"/>
      </g>
     </g>
    </g>
    <g id="xtick_7">
     <g id="line2d_7">
      <g>
       <use xlink:href="#m3d57fdf120" x="206.926406" y="124.96125" style="fill: #1a1a1a; stroke: #1a1a1a; stroke-width: 0.8"/>
      </g>
     </g>
     <g id="text_7">
      <!-- 300 -->
      <g style="fill: #1a1a1a" transform="translate(200.605078 133.799844) scale(0.07 -0.07)">
       <defs>
        <path id="Menlo-Regular-33" d="M 2425 2497 
Q 2884 2375 3128 2064 
Q 3372 1753 3372 1288 
Q 3372 644 2939 276 
Q 2506 -91 1741 -91 
Q 1419 -91 1084 -31 
Q 750 28 428 141 
L 428 769 
Q 747 603 1056 522 
Q 1366 441 1672 441 
Q 2191 441 2469 675 
Q 2747 909 2747 1350 
Q 2747 1756 2469 1995 
Q 2191 2234 1716 2234 
L 1234 2234 
L 1234 2753 
L 1716 2753 
Q 2150 2753 2394 2943 
Q 2638 3134 2638 3475 
Q 2638 3834 2411 4026 
Q 2184 4219 1766 4219 
Q 1488 4219 1191 4156 
Q 894 4094 569 3969 
L 569 4550 
Q 947 4650 1242 4700 
Q 1538 4750 1766 4750 
Q 2447 4750 2855 4408 
Q 3263 4066 3263 3500 
Q 3263 3116 3048 2859 
Q 2834 2603 2425 2497 
z
" transform="scale(0.015625)"/>
       </defs>
       <use xlink:href="#Menlo-Regular-33"/>
       <use xlink:href="#Menlo-Regular-30" transform="translate(60.205078 0)"/>
       <use xlink:href="#Menlo-Regular-30" transform="translate(120.410156 0)"/>
      </g>
     </g>
    </g>
    <g id="xtick_8">
     <g id="line2d_8">
      <g>
       <use xlink:href="#m3d57fdf120" x="236.504531" y="124.96125" style="fill: #1a1a1a; stroke: #1a1a1a; stroke-width: 0.8"/>
      </g>
     </g>
     <g id="text_8">
      <!-- 350 -->
      <g style="fill: #1a1a1a" transform="translate(230.183203 133.799844) scale(0.07 -0.07)">
       <use xlink:href="#Menlo-Regular-33"/>
       <use xlink:href="#Menlo-Regular-35" transform="translate(60.205078 0)"/>
       <use xlink:href="#Menlo-Regular-30" transform="translate(120.410156 0)"/>
      </g>
     </g>
    </g>
    <g id="xtick_9">
     <g id="line2d_9">
      <g>
       <use xlink:href="#m3d57fdf120" x="266.082656" y="124.96125" style="fill: #1a1a1a; stroke: #1a1a1a; stroke-width: 0.8"/>
      </g>
     </g>
     <g id="text_9">
      <!-- 400 -->
      <g style="fill: #1a1a1a" transform="translate(259.761328 133.799844) scale(0.07 -0.07)">
       <defs>
        <path id="Menlo-Regular-34" d="M 2297 4091 
L 825 1625 
L 2297 1625 
L 2297 4091 
z
M 2194 4666 
L 2925 4666 
L 2925 1625 
L 3547 1625 
L 3547 1113 
L 2925 1113 
L 2925 0 
L 2297 0 
L 2297 1113 
L 319 1113 
L 319 1709 
L 2194 4666 
z
" transform="scale(0.015625)"/>
       </defs>
       <use xlink:href="#Menlo-Regular-34"/>
       <use xlink:href="#Menlo-Regular-30" transform="translate(60.205078 0)"/>
       <use xlink:href="#Menlo-Regular-30" transform="translate(120.410156 0)"/>
      </g>
     </g>
    </g>
    <g id="text_10">
     <!-- time (ms) -->
     <g style="fill: #1a1a1a" transform="translate(126.097033 145.356875) scale(0.08 -0.08)">
      <defs>
       <path id="Menlo-Regular-74" d="M 1919 4494 
L 1919 3500 
L 3225 3500 
L 3225 3053 
L 1919 3053 
L 1919 1153 
Q 1919 766 2066 612 
Q 2213 459 2578 459 
L 3225 459 
L 3225 0 
L 2522 0 
Q 1875 0 1609 259 
Q 1344 519 1344 1153 
L 1344 3053 
L 409 3053 
L 409 3500 
L 1344 3500 
L 1344 4494 
L 1919 4494 
z
" transform="scale(0.015625)"/>
       <path id="Menlo-Regular-69" d="M 988 3488 
L 2459 3488 
L 2459 447 
L 3600 447 
L 3600 0 
L 744 0 
L 744 447 
L 1884 447 
L 1884 3041 
L 988 3041 
L 988 3488 
z
M 1884 4847 
L 2459 4847 
L 2459 4122 
L 1884 4122 
L 1884 4847 
z
" transform="scale(0.015625)"/>
       <path id="Menlo-Regular-6d" d="M 2113 3144 
Q 2219 3369 2383 3476 
Q 2547 3584 2778 3584 
Q 3200 3584 3373 3257 
Q 3547 2931 3547 2028 
L 3547 0 
L 3022 0 
L 3022 2003 
Q 3022 2744 2939 2923 
Q 2856 3103 2638 3103 
Q 2388 3103 2295 2911 
Q 2203 2719 2203 2003 
L 2203 0 
L 1678 0 
L 1678 2003 
Q 1678 2753 1589 2928 
Q 1500 3103 1269 3103 
Q 1041 3103 952 2911 
Q 863 2719 863 2003 
L 863 0 
L 341 0 
L 341 3500 
L 863 3500 
L 863 3200 
Q 966 3388 1120 3486 
Q 1275 3584 1472 3584 
Q 1709 3584 1867 3475 
Q 2025 3366 2113 3144 
z
" transform="scale(0.015625)"/>
       <path id="Menlo-Regular-65" d="M 3500 2038 
L 3500 1756 
L 1009 1756 
L 1009 1738 
Q 984 1022 1282 709 
Q 1581 397 2125 397 
Q 2400 397 2700 484 
Q 3000 572 3341 750 
L 3341 178 
Q 3013 44 2708 -23 
Q 2403 -91 2119 -91 
Q 1303 -91 843 398 
Q 384 888 384 1747 
Q 384 2584 834 3084 
Q 1284 3584 2034 3584 
Q 2703 3584 3089 3131 
Q 3475 2678 3500 2038 
z
M 2925 2206 
Q 2888 2569 2661 2833 
Q 2434 3097 2009 3097 
Q 1594 3097 1325 2822 
Q 1056 2547 1031 2203 
L 2925 2206 
z
" transform="scale(0.015625)"/>
       <path id="Menlo-Regular-20" transform="scale(0.015625)"/>
       <path id="Menlo-Regular-28" d="M 2672 5169 
Q 2256 4456 2051 3748 
Q 1847 3041 1847 2322 
Q 1847 1606 2051 897 
Q 2256 188 2672 -531 
L 2172 -531 
Q 1700 213 1469 917 
Q 1238 1622 1238 2322 
Q 1238 3019 1469 3725 
Q 1700 4431 2172 5169 
L 2672 5169 
z
" transform="scale(0.015625)"/>
       <path id="Menlo-Regular-73" d="M 3041 3378 
L 3041 2816 
Q 2794 2959 2544 3031 
Q 2294 3103 2034 3103 
Q 1644 3103 1451 2976 
Q 1259 2850 1259 2591 
Q 1259 2356 1403 2240 
Q 1547 2125 2119 2016 
L 2350 1972 
Q 2778 1891 2998 1647 
Q 3219 1403 3219 1013 
Q 3219 494 2850 201 
Q 2481 -91 1825 -91 
Q 1566 -91 1281 -36 
Q 997 19 666 128 
L 666 722 
Q 988 556 1281 473 
Q 1575 391 1838 391 
Q 2219 391 2428 545 
Q 2638 700 2638 978 
Q 2638 1378 1872 1531 
L 1847 1538 
L 1631 1581 
Q 1134 1678 906 1908 
Q 678 2138 678 2534 
Q 678 3038 1018 3311 
Q 1359 3584 1991 3584 
Q 2272 3584 2531 3532 
Q 2791 3481 3041 3378 
z
" transform="scale(0.015625)"/>
       <path id="Menlo-Regular-29" d="M 1088 5169 
L 1588 5169 
Q 2059 4431 2290 3725 
Q 2522 3019 2522 2322 
Q 2522 1619 2290 912 
Q 2059 206 1588 -531 
L 1088 -531 
Q 1503 194 1708 903 
Q 1913 1613 1913 2322 
Q 1913 3034 1708 3743 
Q 1503 4453 1088 5169 
z
" transform="scale(0.015625)"/>
      </defs>
      <use xlink:href="#Menlo-Regular-74"/>
      <use xlink:href="#Menlo-Regular-69" transform="translate(60.205078 0)"/>
      <use xlink:href="#Menlo-Regular-6d" transform="translate(120.410156 0)"/>
      <use xlink:href="#Menlo-Regular-65" transform="translate(180.615234 0)"/>
      <use xlink:href="#Menlo-Regular-20" transform="translate(240.820312 0)"/>
      <use xlink:href="#Menlo-Regular-28" transform="translate(301.025391 0)"/>
      <use xlink:href="#Menlo-Regular-6d" transform="translate(361.230469 0)"/>
      <use xlink:href="#Menlo-Regular-73" transform="translate(421.435547 0)"/>
      <use xlink:href="#Menlo-Regular-29" transform="translate(481.640625 0)"/>
     </g>
    </g>
   </g>
   <g id="matplotlib.axis_2">
    <g id="ytick_1">
     <g id="line2d_10">
      <defs>
       <path id="ma3db6d4be8" d="M 0 0 
L 3 0 
" style="stroke: #1a1a1a; stroke-width: 0.8"/>
      </defs>
      <g>
       <use xlink:href="#ma3db6d4be8" x="29.457656" y="108.649332" style="fill: #1a1a1a; stroke: #1a1a1a; stroke-width: 0.8"/>
      </g>
     </g>
     <g id="text_11">
      <!-- −75 -->
      <g style="fill: #1a1a1a" transform="translate(13.315 111.318628) scale(0.07 -0.07)">
       <defs>
        <path id="Menlo-Regular-2212" d="M 275 2272 
L 3578 2272 
L 3578 1741 
L 275 1741 
L 275 2272 
z
" transform="scale(0.015625)"/>
        <path id="Menlo-Regular-37" d="M 434 4666 
L 3372 4666 
L 3372 4397 
L 1703 0 
L 1044 0 
L 2669 4134 
L 434 4134 
L 434 4666 
z
" transform="scale(0.015625)"/>
       </defs>
       <use xlink:href="#Menlo-Regular-2212"/>
       <use xlink:href="#Menlo-Regular-37" transform="translate(60.205078 0)"/>
       <use xlink:href="#Menlo-Regular-35" transform="translate(120.410156 0)"/>
      </g>
     </g>
    </g>
    <g id="ytick_2">
     <g id="line2d_11">
      <g>
       <use xlink:href="#ma3db6d4be8" x="29.457656" y="90.635811" style="fill: #1a1a1a; stroke: #1a1a1a; stroke-width: 0.8"/>
      </g>
     </g>
     <g id="text_12">
      <!-- −70 -->
      <g style="fill: #1a1a1a" transform="translate(13.315 93.305108) scale(0.07 -0.07)">
       <use xlink:href="#Menlo-Regular-2212"/>
       <use xlink:href="#Menlo-Regular-37" transform="translate(60.205078 0)"/>
       <use xlink:href="#Menlo-Regular-30" transform="translate(120.410156 0)"/>
      </g>
     </g>
    </g>
    <g id="ytick_3">
     <g id="line2d_12">
      <g>
       <use xlink:href="#ma3db6d4be8" x="29.457656" y="72.622291" style="fill: #1a1a1a; stroke: #1a1a1a; stroke-width: 0.8"/>
      </g>
     </g>
     <g id="text_13">
      <!-- −65 -->
      <g style="fill: #1a1a1a" transform="translate(13.315 75.291588) scale(0.07 -0.07)">
       <defs>
        <path id="Menlo-Regular-36" d="M 3097 4563 
L 3097 3981 
Q 2900 4097 2678 4158 
Q 2456 4219 2216 4219 
Q 1616 4219 1306 3767 
Q 997 3316 997 2438 
Q 1147 2750 1412 2917 
Q 1678 3084 2022 3084 
Q 2697 3084 3067 2670 
Q 3438 2256 3438 1497 
Q 3438 741 3056 325 
Q 2675 -91 1984 -91 
Q 1172 -91 794 492 
Q 416 1075 416 2328 
Q 416 3509 870 4129 
Q 1325 4750 2188 4750 
Q 2419 4750 2650 4701 
Q 2881 4653 3097 4563 
z
M 1972 2591 
Q 1569 2591 1337 2300 
Q 1106 2009 1106 1497 
Q 1106 984 1337 693 
Q 1569 403 1972 403 
Q 2391 403 2603 679 
Q 2816 956 2816 1497 
Q 2816 2041 2603 2316 
Q 2391 2591 1972 2591 
z
" transform="scale(0.015625)"/>
       </defs>
       <use xlink:href="#Menlo-Regular-2212"/>
       <use xlink:href="#Menlo-Regular-36" transform="translate(60.205078 0)"/>
       <use xlink:href="#Menlo-Regular-35" transform="translate(120.410156 0)"/>
      </g>
     </g>
    </g>
    <g id="ytick_4">
     <g id="line2d_13">
      <g>
       <use xlink:href="#ma3db6d4be8" x="29.457656" y="54.608771" style="fill: #1a1a1a; stroke: #1a1a1a; stroke-width: 0.8"/>
      </g>
     </g>
     <g id="text_14">
      <!-- −60 -->
      <g style="fill: #1a1a1a" transform="translate(13.315 57.278068) scale(0.07 -0.07)">
       <use xlink:href="#Menlo-Regular-2212"/>
       <use xlink:href="#Menlo-Regular-36" transform="translate(60.205078 0)"/>
       <use xlink:href="#Menlo-Regular-30" transform="translate(120.410156 0)"/>
      </g>
     </g>
    </g>
    <g id="ytick_5">
     <g id="line2d_14">
      <g>
       <use xlink:href="#ma3db6d4be8" x="29.457656" y="36.595251" style="fill: #1a1a1a; stroke: #1a1a1a; stroke-width: 0.8"/>
      </g>
     </g>
     <g id="text_15">
      <!-- −55 -->
      <g style="fill: #1a1a1a" transform="translate(13.315 39.264548) scale(0.07 -0.07)">
       <use xlink:href="#Menlo-Regular-2212"/>
       <use xlink:href="#Menlo-Regular-35" transform="translate(60.205078 0)"/>
       <use xlink:href="#Menlo-Regular-35" transform="translate(120.410156 0)"/>
      </g>
     </g>
    </g>
    <g id="ytick_6">
     <g id="line2d_15">
      <g>
       <use xlink:href="#ma3db6d4be8" x="29.457656" y="18.581731" style="fill: #1a1a1a; stroke: #1a1a1a; stroke-width: 0.8"/>
      </g>
     </g>
     <g id="text_16">
      <!-- −50 -->
      <g style="fill: #1a1a1a" transform="translate(13.315 21.251028) scale(0.07 -0.07)">
       <use xlink:href="#Menlo-Regular-2212"/>
       <use xlink:href="#Menlo-Regular-35" transform="translate(60.205078 0)"/>
       <use xlink:href="#Menlo-Regular-30" transform="translate(120.410156 0)"/>
      </g>
     </g>
    </g>
    <g id="text_17">
     <!-- V_E (neuron 278)  [mV] -->
     <g style="fill: #1a1a1a" transform="translate(7.65125 122.23) rotate(-90) scale(0.08 -0.08)">
      <defs>
       <path id="Menlo-Regular-56" d="M 1925 531 
L 3022 4666 
L 3675 4666 
L 2309 0 
L 1544 0 
L 178 4666 
L 831 4666 
L 1925 531 
z
" transform="scale(0.015625)"/>
       <path id="Menlo-Regular-5f" d="M 3825 -594 
L 3825 -1125 
L 0 -1125 
L 0 -594 
L 3825 -594 
z
" transform="scale(0.015625)"/>
       <path id="Menlo-Regular-45" d="M 616 4666 
L 3384 4666 
L 3384 4134 
L 1247 4134 
L 1247 2878 
L 3291 2878 
L 3291 2347 
L 1247 2347 
L 1247 531 
L 3444 531 
L 3444 0 
L 616 0 
L 616 4666 
z
" transform="scale(0.015625)"/>
       <path id="Menlo-Regular-6e" d="M 3284 2169 
L 3284 0 
L 2706 0 
L 2706 2169 
Q 2706 2641 2540 2862 
Q 2375 3084 2022 3084 
Q 1619 3084 1401 2798 
Q 1184 2513 1184 1978 
L 1184 0 
L 609 0 
L 609 3500 
L 1184 3500 
L 1184 2975 
Q 1338 3275 1600 3429 
Q 1863 3584 2222 3584 
Q 2756 3584 3020 3232 
Q 3284 2881 3284 2169 
z
" transform="scale(0.015625)"/>
       <path id="Menlo-Regular-75" d="M 609 1325 
L 609 3494 
L 1184 3494 
L 1184 1325 
Q 1184 853 1351 631 
Q 1519 409 1869 409 
Q 2275 409 2490 695 
Q 2706 981 2706 1516 
L 2706 3494 
L 3284 3494 
L 3284 0 
L 2706 0 
L 2706 525 
Q 2553 222 2289 65 
Q 2025 -91 1672 -91 
Q 1134 -91 871 261 
Q 609 613 609 1325 
z
" transform="scale(0.015625)"/>
       <path id="Menlo-Regular-72" d="M 3609 2778 
Q 3425 2922 3234 2987 
Q 3044 3053 2816 3053 
Q 2278 3053 1993 2715 
Q 1709 2378 1709 1741 
L 1709 0 
L 1131 0 
L 1131 3500 
L 1709 3500 
L 1709 2816 
Q 1853 3188 2151 3386 
Q 2450 3584 2859 3584 
Q 3072 3584 3256 3531 
Q 3441 3478 3609 3366 
L 3609 2778 
z
" transform="scale(0.015625)"/>
       <path id="Menlo-Regular-6f" d="M 1925 3097 
Q 1488 3097 1263 2756 
Q 1038 2416 1038 1747 
Q 1038 1081 1263 739 
Q 1488 397 1925 397 
Q 2366 397 2591 739 
Q 2816 1081 2816 1747 
Q 2816 2416 2591 2756 
Q 2366 3097 1925 3097 
z
M 1925 3584 
Q 2653 3584 3039 3112 
Q 3425 2641 3425 1747 
Q 3425 850 3040 379 
Q 2656 -91 1925 -91 
Q 1197 -91 812 379 
Q 428 850 428 1747 
Q 428 2641 812 3112 
Q 1197 3584 1925 3584 
z
" transform="scale(0.015625)"/>
       <path id="Menlo-Regular-38" d="M 1925 2216 
Q 1503 2216 1273 1980 
Q 1044 1744 1044 1313 
Q 1044 881 1276 642 
Q 1509 403 1925 403 
Q 2350 403 2579 639 
Q 2809 875 2809 1313 
Q 2809 1741 2576 1978 
Q 2344 2216 1925 2216 
z
M 1375 2478 
Q 972 2581 745 2862 
Q 519 3144 519 3541 
Q 519 4097 897 4423 
Q 1275 4750 1925 4750 
Q 2578 4750 2956 4423 
Q 3334 4097 3334 3541 
Q 3334 3144 3107 2862 
Q 2881 2581 2478 2478 
Q 2947 2375 3195 2062 
Q 3444 1750 3444 1253 
Q 3444 622 3041 265 
Q 2638 -91 1925 -91 
Q 1213 -91 811 264 
Q 409 619 409 1247 
Q 409 1747 657 2061 
Q 906 2375 1375 2478 
z
M 1147 3481 
Q 1147 3106 1347 2909 
Q 1547 2713 1925 2713 
Q 2306 2713 2506 2909 
Q 2706 3106 2706 3481 
Q 2706 3863 2507 4063 
Q 2309 4263 1925 4263 
Q 1547 4263 1347 4061 
Q 1147 3859 1147 3481 
z
" transform="scale(0.015625)"/>
       <path id="Menlo-Regular-5b" d="M 1759 5175 
L 3084 5175 
L 3084 4728 
L 2334 4728 
L 2334 -84 
L 3084 -84 
L 3084 -531 
L 1759 -531 
L 1759 5175 
z
" transform="scale(0.015625)"/>
       <path id="Menlo-Regular-5d" d="M 2250 5175 
L 2250 -531 
L 925 -531 
L 925 -84 
L 1675 -84 
L 1675 4728 
L 925 4728 
L 925 5175 
L 2250 5175 
z
" transform="scale(0.015625)"/>
      </defs>
      <use xlink:href="#Menlo-Regular-56"/>
      <use xlink:href="#Menlo-Regular-5f" transform="translate(60.205078 0)"/>
      <use xlink:href="#Menlo-Regular-45" transform="translate(120.410156 0)"/>
      <use xlink:href="#Menlo-Regular-20" transform="translate(180.615234 0)"/>
      <use xlink:href="#Menlo-Regular-28" transform="translate(240.820312 0)"/>
      <use xlink:href="#Menlo-Regular-6e" transform="translate(301.025391 0)"/>
      <use xlink:href="#Menlo-Regular-65" transform="translate(361.230469 0)"/>
      <use xlink:href="#Menlo-Regular-75" transform="translate(421.435547 0)"/>
      <use xlink:href="#Menlo-Regular-72" transform="translate(481.640625 0)"/>
      <use xlink:href="#Menlo-Regular-6f" transform="translate(541.845703 0)"/>
      <use xlink:href="#Menlo-Regular-6e" transform="translate(602.050781 0)"/>
      <use xlink:href="#Menlo-Regular-20" transform="translate(662.255859 0)"/>
      <use xlink:href="#Menlo-Regular-32" transform="translate(722.460938 0)"/>
      <use xlink:href="#Menlo-Regular-37" transform="translate(782.666016 0)"/>
      <use xlink:href="#Menlo-Regular-38" transform="translate(842.871094 0)"/>
      <use xlink:href="#Menlo-Regular-29" transform="translate(903.076172 0)"/>
      <use xlink:href="#Menlo-Regular-20" transform="translate(963.28125 0)"/>
      <use xlink:href="#Menlo-Regular-20" transform="translate(1023.486328 0)"/>
      <use xlink:href="#Menlo-Regular-5b" transform="translate(1083.691406 0)"/>
      <use xlink:href="#Menlo-Regular-6d" transform="translate(1143.896484 0)"/>
      <use xlink:href="#Menlo-Regular-56" transform="translate(1204.101562 0)"/>
      <use xlink:href="#Menlo-Regular-5d" transform="translate(1264.306641 0)"/>
     </g>
    </g>
   </g>
   <g id="line2d_16">
    <path d="M 29.457656 70.878771 
L 30.463313 40.079708 
L 31.114031 19.028798 
L 31.232344 72.622291 
L 31.823906 72.622291 
L 32.119688 106.746142 
L 32.356313 117.270924 
L 32.592938 119.339417 
L 32.71125 119.896705 
L 32.888719 118.003768 
L 33.066188 113.365594 
L 33.125344 114.615568 
L 33.243656 116.400428 
L 33.302813 116.387152 
L 33.361969 116.569332 
L 33.421125 116.205879 
L 33.480281 116.248868 
L 33.539438 116.455676 
L 33.776063 115.080611 
L 33.894375 115.393627 
L 34.071844 116.379209 
L 34.190156 115.317654 
L 34.249313 115.384776 
L 34.545094 116.871243 
L 34.663406 117.514124 
L 34.781719 116.877758 
L 34.900031 117.136818 
L 35.195813 113.468283 
L 35.314125 112.92735 
L 35.432438 113.350696 
L 35.491594 113.689522 
L 35.55075 113.546263 
L 35.669063 113.865765 
L 36.556406 117.904926 
L 36.852188 115.829809 
L 36.911344 115.856251 
L 37.147969 111.877065 
L 37.384594 107.345182 
L 37.44375 107.273607 
L 37.562063 107.712923 
L 37.857844 110.00598 
L 37.917 109.46425 
L 38.035313 109.263324 
L 38.212781 107.232927 
L 38.271938 107.22174 
L 38.449406 108.030886 
L 38.922656 111.746367 
L 38.981813 111.34457 
L 39.869156 97.788665 
L 39.928313 97.804223 
L 39.987469 98.011058 
L 40.224094 96.498067 
L 40.28325 96.524838 
L 40.401563 97.08897 
L 40.519875 96.468134 
L 40.579031 96.525416 
L 40.638188 96.752096 
L 40.7565 96.336006 
L 40.815656 96.450982 
L 40.993125 94.742754 
L 41.170594 92.720329 
L 41.22975 92.655268 
L 41.762156 86.473456 
L 41.939625 84.072844 
L 41.998781 83.951217 
L 42.057938 84.058386 
L 42.17625 84.779658 
L 42.412875 82.38765 
L 42.472031 82.314261 
L 42.590344 82.755721 
L 42.826969 85.073791 
L 43.063594 87.204815 
L 43.12275 87.073348 
L 43.181906 87.119058 
L 43.359375 88.027815 
L 43.714313 91.659654 
L 44.010094 94.014308 
L 44.187563 93.324289 
L 44.305875 93.494842 
L 44.5425 94.741517 
L 45.01575 98.801184 
L 45.074906 98.759487 
L 45.548156 89.774084 
L 45.903094 84.291361 
L 46.139719 82.714821 
L 46.258031 82.728564 
L 46.731281 74.393573 
L 46.967906 72.006512 
L 47.086219 71.785631 
L 47.145375 71.852561 
L 47.677782 66.127848 
L 47.85525 63.496171 
L 48.151032 57.135381 
L 48.565125 50.507642 
L 48.920063 47.346741 
L 50.044032 29.612731 
L 50.339813 19.958129 
L 50.458125 72.622291 
L 51.049688 72.622291 
L 51.108844 72.404186 
L 51.463782 98.309204 
L 51.522938 99.819392 
L 51.582094 99.679678 
L 51.700407 99.038254 
L 51.759563 99.207763 
L 51.996188 96.729695 
L 52.055344 96.933837 
L 52.173657 96.35882 
L 52.58775 97.422134 
L 52.824375 96.283617 
L 52.942688 96.683188 
L 53.120157 98.275066 
L 53.238469 98.167978 
L 53.297625 98.417858 
L 53.356782 98.187081 
L 53.415938 98.207366 
L 53.593407 99.206636 
L 53.770875 100.90409 
L 54.362438 94.02129 
L 54.48075 94.466241 
L 54.539907 94.194647 
L 54.717375 93.300485 
L 54.835688 93.75283 
L 54.894844 93.471286 
L 54.954 93.421783 
L 55.072313 93.831469 
L 55.131469 93.543356 
L 55.308938 91.91264 
L 55.368094 91.883696 
L 55.486407 92.311523 
L 55.782188 94.949013 
L 55.9005 96.285926 
L 56.137125 91.001024 
L 56.728688 75.780732 
L 57.675188 62.724517 
L 57.734344 62.874648 
L 58.030125 64.960168 
L 58.325907 69.046002 
L 58.385063 68.561718 
L 58.562532 63.991738 
L 58.976625 50.575712 
L 59.272407 45.304635 
L 59.745657 36.25031 
L 59.982282 31.312273 
L 60.15975 28.71982 
L 60.337219 25.459294 
L 60.573844 21.818535 
L 60.633 21.693266 
L 60.692157 21.797302 
L 60.869625 22.573492 
L 61.10625 21.284845 
L 61.165407 21.403875 
L 61.342875 22.752291 
L 61.875282 27.939576 
L 62.05275 29.136418 
L 62.407688 32.929356 
L 62.526 32.908274 
L 62.585157 33.101943 
L 62.762625 32.552475 
L 62.880938 32.891754 
L 63.117563 34.756256 
L 63.354188 37.360666 
L 63.413344 37.268202 
L 63.4725 37.296568 
L 63.827438 32.782386 
L 63.886594 32.226871 
L 64.300688 22.152798 
L 64.596469 19.201963 
L 64.714782 72.622291 
L 65.306344 72.622291 
L 65.424657 65.346051 
L 65.483813 67.820546 
L 65.838751 99.533065 
L 66.607782 108.212599 
L 66.666938 108.105814 
L 67.376813 99.043972 
L 67.435969 99.026738 
L 67.672594 97.001261 
L 67.731751 97.103373 
L 67.909219 98.282982 
L 67.968376 98.848103 
L 68.027532 98.708719 
L 68.145844 99.012362 
L 68.323313 96.91237 
L 68.382469 96.837277 
L 68.796563 91.850163 
L 69.033188 88.473178 
L 69.092344 88.343606 
L 69.506438 84.007866 
L 69.565594 83.998933 
L 69.624751 84.204504 
L 69.802219 83.333459 
L 69.861376 83.396897 
L 69.920532 83.653044 
L 70.038844 83.377657 
L 70.452938 85.0609 
L 70.571251 86.322225 
L 70.630407 85.806442 
L 70.748719 85.506153 
L 70.807876 85.635971 
L 71.044501 82.83862 
L 71.103657 82.793185 
L 71.221969 83.19457 
L 71.458594 84.054016 
L 71.576907 84.601491 
L 71.636063 84.309173 
L 71.813532 82.883011 
L 71.872688 82.82441 
L 71.931844 82.919953 
L 72.050157 83.476443 
L 72.286782 80.322318 
L 72.405094 80.113641 
L 72.523407 80.482784 
L 72.641719 81.262272 
L 72.700876 81.003047 
L 72.760032 80.910693 
L 72.819188 80.960608 
L 72.878344 81.131602 
L 73.055813 80.507687 
L 73.174126 80.784558 
L 73.233282 80.403431 
L 73.469907 76.165625 
L 73.884001 73.860968 
L 73.943157 73.883892 
L 74.534719 69.129643 
L 74.653032 69.483531 
L 74.712188 69.803363 
L 74.771344 69.614999 
L 75.362907 53.841679 
L 75.599532 51.809922 
L 75.658688 51.751967 
L 75.717844 51.832118 
L 76.191094 53.605392 
L 76.250251 53.309473 
L 76.486876 52.796122 
L 77.492532 35.634517 
L 77.847469 29.417728 
L 78.379876 18.750828 
L 78.498188 72.622291 
L 79.089751 72.622291 
L 79.326376 56.026797 
L 79.385532 56.791924 
L 79.681313 89.437457 
L 80.036251 98.035109 
L 80.391188 103.372483 
L 80.805282 101.247973 
L 80.982751 99.011922 
L 81.219376 95.128279 
L 81.278532 95.086857 
L 81.456001 93.713139 
L 81.515157 93.725893 
L 81.633469 94.368691 
L 81.692626 94.147535 
L 81.870094 93.04335 
L 82.047563 92.706613 
L 82.165876 93.07867 
L 82.402501 95.313401 
L 82.579969 96.813941 
L 82.994063 88.685098 
L 83.171532 87.803058 
L 83.289845 88.3615 
L 83.349001 88.845344 
L 83.408157 88.660443 
L 83.703938 82.975338 
L 83.940563 82.239388 
L 84.058876 82.619003 
L 84.177188 82.126336 
L 84.295501 82.516341 
L 84.532126 84.79068 
L 84.650438 84.49817 
L 84.709595 84.438744 
L 84.827907 84.827457 
L 85.301157 75.339052 
L 85.478626 74.539196 
L 85.596938 75.027548 
L 85.656095 74.742569 
L 85.715251 74.681686 
L 85.833563 75.088541 
L 85.89272 75.498364 
L 86.425126 67.292834 
L 86.720907 62.191348 
L 86.780063 62.007574 
L 86.83922 62.035033 
L 86.957532 62.598546 
L 87.253313 65.931333 
L 87.78572 72.835724 
L 88.140657 69.285959 
L 88.199813 69.180411 
L 88.613907 63.243818 
L 89.087157 54.68752 
L 89.264626 53.63259 
L 89.323782 53.620496 
L 89.442095 53.986712 
L 89.560407 54.430178 
L 89.856188 48.467542 
L 90.802688 29.391355 
L 91.275938 25.70068 
L 91.512563 23.285652 
L 91.630876 23.159599 
L 91.749188 23.559032 
L 92.104126 25.824122 
L 92.163282 25.542097 
L 92.399907 23.858016 
L 92.459063 23.80839 
L 93.050626 19.540403 
L 93.109782 19.567038 
L 93.346407 20.218687 
L 93.405563 23.581406 
L 93.819657 97.583561 
L 94.115438 105.678816 
L 94.233751 106.615279 
L 94.470376 104.058352 
L 94.588688 104.255952 
L 94.943626 106.037624 
L 95.061938 105.656937 
L 95.180251 105.990595 
L 95.35772 104.440579 
L 95.594345 99.096278 
L 95.890126 96.170923 
L 96.008438 95.489726 
L 96.067595 95.553522 
L 96.185907 95.11624 
L 96.30422 95.554374 
L 96.363376 95.976484 
L 96.481688 95.440718 
L 96.540845 95.525788 
L 96.600001 95.774706 
L 96.718313 95.399103 
L 96.77747 95.52675 
L 96.895782 94.99016 
L 96.954938 95.056457 
L 97.369032 96.404613 
L 97.605657 94.567831 
L 97.960595 90.723796 
L 98.019751 90.760957 
L 98.19722 91.691868 
L 98.611313 94.662824 
L 99.262032 87.238981 
L 99.498657 83.602716 
L 99.557813 83.37554 
L 100.800095 69.380402 
L 100.918407 69.776647 
L 101.03672 70.661765 
L 101.155032 70.619739 
L 101.332501 71.573106 
L 101.569126 73.429184 
L 101.805751 70.732955 
L 101.924064 70.117396 
L 102.101532 69.035062 
L 102.633939 64.540547 
L 103.284657 48.132469 
L 103.521282 44.255093 
L 103.698751 43.746305 
L 103.817064 44.171671 
L 104.053689 45.363168 
L 104.172001 45.173552 
L 104.231157 45.288295 
L 104.34947 45.157597 
L 104.408626 45.291194 
L 104.586095 43.952591 
L 105.000189 37.932893 
L 105.414282 31.304 
L 105.650907 29.015313 
L 105.76922 28.875201 
L 105.887532 29.226574 
L 106.124157 31.022525 
L 106.301626 31.986887 
L 106.360782 32.294831 
L 106.419939 32.094427 
L 106.538251 32.05405 
L 106.71572 32.724334 
L 107.011501 35.212518 
L 107.18897 36.204119 
L 107.366439 35.503943 
L 107.425595 37.218905 
L 108.017157 112.15171 
L 108.372095 115.255068 
L 108.490407 114.730654 
L 108.727032 110.694846 
L 108.845345 110.529652 
L 108.963657 110.865427 
L 109.200282 109.183008 
L 109.791845 106.299652 
L 110.205939 101.456842 
L 110.442564 100.683676 
L 110.50172 100.71633 
L 110.560876 100.894332 
L 110.679189 100.501688 
L 110.797501 100.79189 
L 111.093282 102.929676 
L 111.270751 104.568913 
L 111.329907 104.193421 
L 111.389064 104.004506 
L 111.803157 99.39709 
L 111.92147 99.689463 
L 112.098939 98.383087 
L 112.158095 98.330973 
L 112.217251 98.412608 
L 112.39472 99.224722 
L 112.690501 101.567063 
L 112.749657 101.300334 
L 113.104595 97.726106 
L 113.34122 93.696098 
L 113.81447 90.834264 
L 114.879282 62.728695 
L 115.056751 61.45599 
L 115.115907 61.490911 
L 115.23422 60.919605 
L 115.293376 60.950967 
L 115.411689 61.498552 
L 115.648314 63.934663 
L 115.70747 63.263773 
L 115.825782 61.808586 
L 116.003251 60.328097 
L 116.062407 60.254584 
L 116.121564 60.344424 
L 116.535657 62.003863 
L 116.594814 61.832499 
L 117.60047 52.789649 
L 117.718782 52.987318 
L 117.896251 54.085704 
L 118.132876 55.948282 
L 118.961064 48.69792 
L 119.375158 35.136875 
L 119.848408 29.118524 
L 120.025876 27.736904 
L 120.203345 24.690059 
L 120.380814 19.785569 
L 120.499126 72.622291 
L 121.090689 72.622291 
L 121.504783 54.259267 
L 121.563939 55.070118 
L 122.096345 108.562282 
L 122.392126 113.366309 
L 122.451283 113.354242 
L 122.747064 110.775051 
L 122.865376 110.519262 
L 122.924533 110.618956 
L 123.338626 102.168769 
L 123.516095 101.599607 
L 124.048501 92.08344 
L 124.166814 91.764707 
L 124.580908 85.07566 
L 124.817533 85.851795 
L 125.231626 89.461178 
L 125.290783 89.454526 
L 125.349939 89.647811 
L 125.468251 89.265255 
L 125.527408 89.410658 
L 125.64572 88.876074 
L 125.704876 88.960842 
L 125.882345 90.098864 
L 126.237283 93.507183 
L 126.296439 93.202276 
L 126.355595 93.101511 
L 126.414751 93.166242 
L 126.533064 93.67103 
L 126.769689 92.019534 
L 126.947158 86.637358 
L 127.242939 81.56061 
L 127.361251 81.173161 
L 127.479564 81.527049 
L 128.071126 85.292088 
L 128.130283 85.170955 
L 128.544376 73.51714 
L 128.899314 69.732998 
L 129.017626 70.051181 
L 129.076783 70.412408 
L 129.135939 70.305129 
L 129.195095 70.368375 
L 129.372564 69.438563 
L 129.490876 69.701829 
L 129.727501 70.518204 
L 129.845814 69.093636 
L 130.259908 57.721474 
L 130.614845 51.233738 
L 130.910626 49.952168 
L 130.969783 49.912258 
L 131.088095 50.295226 
L 131.32472 52.405224 
L 131.916283 58.392529 
L 131.975439 58.691155 
L 132.74447 46.911012 
L 132.862783 46.971207 
L 132.921939 47.170168 
L 133.099408 46.550225 
L 133.21772 46.763437 
L 133.395189 47.771104 
L 133.454345 47.645065 
L 133.631814 44.905477 
L 133.986751 39.125984 
L 134.519158 19.274238 
L 134.63747 72.622291 
L 135.229033 72.622291 
L 135.524814 57.84842 
L 135.938908 104.021273 
L 136.116376 107.988777 
L 136.234689 107.725814 
L 136.412158 108.503324 
L 136.53047 109.340066 
L 136.589627 109.231302 
L 136.707939 109.479092 
L 137.00372 108.169336 
L 137.062877 108.258639 
L 137.240345 109.090242 
L 137.417814 108.365479 
L 137.536127 108.672145 
L 137.891064 110.858225 
L 138.364314 114.069742 
L 138.42347 113.929121 
L 138.541783 113.930386 
L 138.660095 114.179056 
L 138.837564 111.519247 
L 139.192502 105.281774 
L 140.079845 82.340868 
L 140.198158 81.809637 
L 140.31647 82.199258 
L 140.493939 83.394066 
L 140.78972 81.073413 
L 140.967189 79.463779 
L 141.026345 79.456385 
L 141.26297 79.930884 
L 141.440439 79.114866 
L 141.499595 79.256916 
L 141.617908 78.863392 
L 141.73622 79.210244 
L 141.972845 81.260348 
L 142.268627 83.598538 
L 142.386939 84.209177 
L 142.68272 81.651398 
L 143.096814 78.088714 
L 143.15597 78.217103 
L 143.865845 67.925462 
L 144.043314 65.490891 
L 144.516564 57.57379 
L 144.634877 57.182314 
L 144.694033 57.239513 
L 144.871502 58.175482 
L 144.930658 58.687843 
L 144.989814 58.521096 
L 145.167283 57.319348 
L 145.226439 57.267563 
L 145.285595 57.354819 
L 145.463064 58.286472 
L 145.699689 59.324924 
L 145.877158 60.122484 
L 146.054627 60.639628 
L 146.232095 61.480549 
L 146.587033 64.788777 
L 146.823658 66.640058 
L 146.882814 66.554836 
L 147.88847 51.815983 
L 149.189908 19.568 
L 149.30822 72.622291 
L 149.899783 72.622291 
L 150.136408 95.058244 
L 150.373033 101.7004 
L 150.550502 103.435344 
L 150.72797 105.009191 
L 150.787127 104.754556 
L 150.846283 104.745678 
L 151.142064 102.663772 
L 151.260377 103.039759 
L 151.319533 103.408408 
L 151.378689 103.08327 
L 151.437845 103.012933 
L 151.556158 103.384852 
L 151.67447 102.690956 
L 151.733627 102.703765 
L 151.792783 102.876792 
L 151.851939 102.782679 
L 152.502658 96.116665 
L 152.62097 96.446447 
L 152.680127 96.231008 
L 152.916752 95.223465 
L 152.975908 95.04167 
L 153.035064 95.074983 
L 153.09422 95.275442 
L 153.330845 93.274401 
L 153.390002 93.291167 
L 153.449158 93.47791 
L 153.626627 92.705706 
L 153.744939 93.149365 
L 153.981564 95.167365 
L 154.099877 94.851793 
L 154.395658 89.009631 
L 154.513971 88.444317 
L 154.573127 88.473837 
L 154.750596 89.388311 
L 154.809752 89.884827 
L 155.283002 80.533964 
L 155.460471 79.202493 
L 155.519627 79.225664 
L 155.637939 79.748016 
L 155.933721 82.060506 
L 155.992877 81.821017 
L 156.052033 81.767308 
L 156.347814 78.616509 
L 156.702752 75.52607 
L 156.761908 75.389572 
L 157.294314 65.258328 
L 157.412627 65.046352 
L 157.530939 65.493296 
L 157.767564 66.719645 
L 157.885877 66.345362 
L 157.945033 66.408251 
L 158.122502 67.339849 
L 158.359127 68.521395 
L 158.536596 69.502249 
L 158.714064 71.151436 
L 158.832377 68.563807 
L 159.364783 52.482942 
L 159.660564 46.889669 
L 160.133814 41.15436 
L 160.311283 40.551651 
L 160.429596 40.142666 
L 160.488752 40.174001 
L 160.607064 40.619776 
L 160.843689 42.662913 
L 160.902846 42.072614 
L 161.080314 40.387364 
L 161.494408 33.938287 
L 161.849346 30.255708 
L 161.967658 29.971223 
L 162.026814 30.026347 
L 162.145127 30.463821 
L 162.973314 19.991016 
L 163.150783 19.49112 
L 163.209939 19.568646 
L 163.446564 18.605795 
L 163.564877 72.622291 
L 164.156439 72.622291 
L 164.393064 97.064727 
L 164.688846 105.991062 
L 165.102939 111.264502 
L 165.398721 113.676301 
L 165.635346 109.890427 
L 165.753658 109.701595 
L 165.871971 110.004056 
L 165.990283 110.570579 
L 166.049439 110.288513 
L 166.108596 110.180574 
L 166.522689 104.65019 
L 166.759314 101.996264 
L 166.818471 101.979689 
L 166.936783 102.35793 
L 166.995939 102.132926 
L 167.055096 102.096149 
L 167.173408 102.428103 
L 167.350877 103.142256 
L 167.587502 100.08689 
L 167.646658 99.97098 
L 168.001596 96.987078 
L 168.119908 97.375187 
L 168.297377 96.678213 
L 168.415689 97.004697 
L 168.593158 98.148903 
L 168.770627 96.779528 
L 168.829783 96.70864 
L 168.888939 96.774305 
L 168.948096 96.951236 
L 169.480502 89.765618 
L 169.894596 82.185377 
L 170.072064 81.176322 
L 170.190377 81.438131 
L 170.249533 81.761756 
L 170.308689 81.538126 
L 170.367846 81.496374 
L 170.486158 81.846277 
L 170.663627 81.135147 
L 170.781939 81.451077 
L 170.900252 82.188263 
L 171.077721 80.129968 
L 171.255189 79.326924 
L 171.314346 79.380385 
L 171.491814 77.644313 
L 172.320002 64.948418 
L 172.438315 65.196181 
L 172.497471 64.999158 
L 172.734096 60.657687 
L 173.089033 54.545016 
L 174.508783 32.92559 
L 174.627096 32.620174 
L 175.51444 18.899667 
L 175.632752 72.622291 
L 176.224315 72.622291 
L 176.756721 48.825059 
L 177.466596 23.457511 
L 177.762377 19.405459 
L 177.821533 19.097129 
L 177.939846 72.622291 
L 178.531408 72.622291 
L 178.768033 97.736441 
L 179.063815 106.802957 
L 179.418752 111.459189 
L 179.477908 112.011364 
L 179.537065 111.728171 
L 179.596221 111.627873 
L 179.951158 105.885184 
L 180.069471 105.701877 
L 180.24694 106.428069 
L 180.306096 106.027344 
L 180.483565 104.373567 
L 180.542721 104.318649 
L 180.601877 104.417655 
L 180.897658 101.819691 
L 180.956815 101.875241 
L 181.134283 102.726359 
L 181.252596 103.621373 
L 181.548377 97.357183 
L 181.725846 95.621304 
L 181.785002 95.563582 
L 181.903315 95.929537 
L 182.199096 98.360384 
L 182.317408 99.594553 
L 182.376565 99.063542 
L 182.494877 98.639591 
L 182.554033 98.668397 
L 182.61319 98.817181 
L 182.672346 98.426543 
L 182.908971 95.063576 
L 183.027283 94.831783 
L 183.145596 95.155463 
L 183.500533 92.929941 
L 183.55969 92.842039 
L 183.737158 91.510925 
L 183.796315 91.446827 
L 183.855471 91.521013 
L 183.973783 91.99323 
L 184.092096 90.541203 
L 184.447033 79.490633 
L 184.742815 70.014844 
L 184.861127 68.338501 
L 185.097752 64.429199 
L 185.216065 64.226569 
L 185.275221 64.415373 
L 185.393533 63.402786 
L 185.630158 60.712 
L 185.689315 60.680349 
L 185.807627 61.138494 
L 186.103408 63.515096 
L 186.221721 61.477113 
L 186.517502 54.291578 
L 187.049908 43.610893 
L 187.227377 43.225272 
L 187.404846 41.996187 
L 187.464002 42.014892 
L 187.582315 42.5344 
L 187.937252 45.66611 
L 187.996408 45.52843 
L 188.410502 39.504403 
L 188.647127 38.304249 
L 188.706283 38.110785 
L 189.002065 33.897484 
L 189.179533 31.351716 
L 189.534471 19.380501 
L 189.652784 72.622291 
L 190.244346 72.622291 
L 190.776752 37.933621 
L 191.190846 23.910735 
L 191.427471 19.174284 
L 191.545784 72.622291 
L 192.137346 72.622291 
L 192.373971 99.582871 
L 192.669752 109.158958 
L 193.02469 113.489585 
L 193.438784 116.050416 
L 193.557096 117.000265 
L 193.616252 116.594043 
L 194.089502 112.876418 
L 194.207815 113.12058 
L 194.326127 113.72979 
L 194.385284 113.560748 
L 194.503596 113.775802 
L 194.681065 114.662267 
L 194.740221 114.326933 
L 195.39094 106.950284 
L 195.450096 106.898527 
L 195.568409 107.352713 
L 195.627565 107.73942 
L 195.686721 107.536872 
L 195.745877 107.576893 
L 195.86419 106.961086 
L 195.923346 107.039752 
L 196.159971 105.430366 
L 196.219127 105.57335 
L 196.278284 105.429156 
L 196.33744 105.507933 
L 196.514909 102.877204 
L 196.574065 102.7948 
L 196.751534 100.561471 
L 196.81069 100.558502 
L 196.929002 99.822635 
L 196.988159 99.892039 
L 197.047315 99.684736 
L 197.106471 99.736987 
L 197.224784 100.351914 
L 197.28394 100.151593 
L 197.343096 100.195599 
L 197.520565 98.482258 
L 197.638877 97.65346 
L 197.698034 97.671546 
L 197.75719 97.882009 
L 198.171284 95.822944 
L 198.23044 95.83765 
L 198.348752 96.384877 
L 198.407909 96.085083 
L 198.467065 96.037119 
L 198.526221 96.182302 
L 198.70369 93.950457 
L 198.762846 93.852166 
L 198.999471 92.793553 
L 199.058627 92.573029 
L 199.65019 81.127891 
L 199.768502 79.82737 
L 199.945971 77.664131 
L 200.005127 77.635188 
L 200.360065 78.830216 
L 200.419221 78.603178 
L 200.478377 78.625607 
L 200.715002 73.668618 
L 200.951627 72.053542 
L 201.010784 72.083914 
L 201.129096 71.487101 
L 201.188252 71.572089 
L 201.365721 72.859142 
L 201.720659 76.639079 
L 201.779815 76.400304 
L 201.838971 76.370234 
L 201.898127 76.51429 
L 202.01644 75.361728 
L 202.312221 73.653748 
L 202.371377 73.565269 
L 202.608002 68.793264 
L 202.96294 62.818026 
L 203.022096 62.74351 
L 203.258721 63.406126 
L 203.377034 62.936025 
L 203.43619 62.991245 
L 203.554502 63.548148 
L 203.613659 63.302117 
L 204.027752 57.592467 
L 204.264377 55.012314 
L 204.323534 54.936671 
L 204.38269 55.02963 
L 204.974252 46.483777 
L 205.033409 46.489906 
L 205.151721 46.954207 
L 205.388346 49.199163 
L 205.743284 54.435002 
L 205.80244 54.308798 
L 206.098221 50.832394 
L 206.512315 38.989362 
L 206.808096 26.897825 
L 206.985565 18.654309 
L 207.103877 72.622291 
L 207.69544 72.622291 
L 208.582784 37.744157 
L 209.174346 27.185801 
L 209.470128 19.748613 
L 209.58844 72.622291 
L 210.180003 72.622291 
L 210.416628 100.065231 
L 210.594096 105.321547 
L 210.889878 108.555053 
L 211.00819 109.174103 
L 211.067346 109.120807 
L 211.363128 104.169975 
L 211.422284 104.015858 
L 211.48144 104.069182 
L 211.540596 104.273763 
L 211.95469 100.374728 
L 212.013846 100.179602 
L 212.073003 100.210139 
L 212.132159 100.409251 
L 212.250471 99.849187 
L 212.309628 99.912956 
L 212.42794 100.468869 
L 212.487096 100.29903 
L 212.546253 100.331217 
L 212.90119 93.927204 
L 213.137815 91.527307 
L 213.196971 91.371156 
L 213.256128 91.444353 
L 213.433596 89.770126 
L 213.492753 89.792857 
L 213.551909 89.581459 
L 213.611065 89.607461 
L 213.729378 90.178025 
L 213.788534 89.98015 
L 213.84769 90.00563 
L 213.906846 90.207875 
L 214.143471 88.551184 
L 214.202628 88.623199 
L 214.380096 89.694346 
L 214.557565 87.918446 
L 214.616721 87.847339 
L 214.735034 88.214255 
L 214.79419 88.588786 
L 214.853346 88.409546 
L 214.912503 88.420816 
L 215.26744 85.697156 
L 215.326596 85.761529 
L 215.385753 85.972048 
L 215.563221 81.361526 
L 215.799846 75.452654 
L 215.918159 73.988808 
L 216.154784 70.297075 
L 216.923815 64.534486 
L 217.219596 59.191752 
L 217.515378 58.156406 
L 217.574534 58.295996 
L 217.752003 59.592546 
L 217.929471 60.621212 
L 218.047784 60.254103 
L 218.166096 60.581563 
L 218.225253 60.946528 
L 218.461878 59.356355 
L 218.58019 59.655572 
L 218.639346 59.997201 
L 218.757659 58.725444 
L 219.467534 51.783824 
L 219.52669 51.894278 
L 219.645003 51.705268 
L 219.763315 52.081365 
L 219.881628 52.889837 
L 219.940784 52.756899 
L 219.99994 52.768746 
L 220.118253 53.159136 
L 220.354878 55.031939 
L 220.591503 56.485615 
L 220.709815 57.415248 
L 220.94644 53.522259 
L 221.242221 49.454141 
L 221.538003 47.662079 
L 221.774628 43.517617 
L 222.957753 22.72879 
L 223.31269 20.900516 
L 223.431003 18.684901 
L 223.549315 72.622291 
L 224.140878 72.622291 
L 224.377503 94.139922 
L 224.554971 98.004462 
L 224.969065 96.203742 
L 225.087378 95.238775 
L 225.146534 95.293665 
L 225.264847 94.751797 
L 225.383159 95.296606 
L 225.619784 92.296983 
L 225.67894 92.380624 
L 226.15219 95.323021 
L 226.270503 96.058338 
L 226.447972 95.181191 
L 226.566284 95.706237 
L 226.62544 95.474664 
L 226.684597 95.481783 
L 227.394472 89.998456 
L 227.512784 90.415947 
L 227.808565 93.288199 
L 227.986034 95.503634 
L 228.04519 95.491348 
L 228.459284 89.144314 
L 228.695909 85.78602 
L 228.755065 85.676294 
L 228.814222 85.756719 
L 228.873378 85.991728 
L 228.932534 85.815128 
L 228.99169 85.833929 
L 229.110003 86.321483 
L 229.405784 89.092585 
L 229.46494 89.789888 
L 229.583253 86.813023 
L 229.819878 82.468872 
L 230.115659 80.250991 
L 230.352284 75.927647 
L 230.766378 66.035961 
L 231.062159 62.933964 
L 231.121315 62.744802 
L 231.298784 61.345412 
L 231.35794 61.344037 
L 231.476253 61.843755 
L 231.772034 63.7781 
L 231.949503 62.742658 
L 232.126972 58.084447 
L 232.363597 53.041892 
L 232.541065 50.87214 
L 232.896003 47.572446 
L 232.955159 47.593886 
L 233.132628 46.198 
L 233.191784 46.151012 
L 233.310097 44.448034 
L 234.138284 30.554678 
L 234.434065 23.835203 
L 234.789003 19.693627 
L 234.907315 19.540637 
L 235.025628 20.028425 
L 235.084784 20.466285 
L 235.14394 20.425907 
L 235.262253 19.964217 
L 235.321409 19.992803 
L 235.380565 20.168002 
L 235.439722 19.346157 
L 235.558034 72.622291 
L 236.149597 72.622291 
L 236.682003 31.749198 
L 236.977784 18.856005 
L 237.096097 72.622291 
L 237.687659 72.622291 
L 237.924284 100.143017 
L 238.160909 108.0689 
L 238.279222 108.81425 
L 238.338378 108.450247 
L 238.397534 108.336343 
L 238.515847 107.847662 
L 238.575003 107.910001 
L 238.752472 108.732396 
L 238.811628 109.123115 
L 239.284878 106.198007 
L 239.344034 106.185446 
L 240.053909 96.529346 
L 240.113065 96.572995 
L 240.231378 97.142184 
L 240.408847 95.587358 
L 240.645472 93.374781 
L 240.763784 93.112038 
L 241.059565 94.108092 
L 241.177878 95.032984 
L 241.237034 94.698859 
L 241.29619 94.593173 
L 241.355347 94.668898 
L 241.532815 95.641177 
L 241.828597 98.490065 
L 241.946909 98.33155 
L 242.065222 98.678924 
L 242.361003 100.720865 
L 242.420159 101.232058 
L 242.479315 100.996554 
L 242.538472 100.902193 
L 243.603284 86.666081 
L 243.899066 78.833817 
L 245.082191 63.710662 
L 245.200503 63.274988 
L 245.259659 63.342852 
L 245.437128 64.382926 
L 245.792066 68.713856 
L 245.969534 70.691753 
L 246.147003 69.71843 
L 246.206159 69.70859 
L 246.265316 69.822796 
L 246.442784 68.744709 
L 246.501941 68.698092 
L 246.620253 67.183905 
L 246.916034 60.243906 
L 247.330128 56.769316 
L 247.389284 56.775693 
L 247.507597 57.144589 
L 247.744222 58.941048 
L 248.217472 62.910696 
L 248.513253 65.098934 
L 248.572409 65.671669 
L 248.631566 65.431863 
L 248.749878 64.584374 
L 249.223128 54.737243 
L 249.518909 51.98497 
L 249.637222 51.803161 
L 249.696378 51.858779 
L 249.933003 51.040343 
L 250.051316 51.220049 
L 250.287941 52.40521 
L 250.347097 52.161653 
L 250.524566 49.28536 
L 250.997816 36.298013 
L 251.471066 20.085157 
L 251.589378 72.622291 
L 252.180941 72.622291 
L 252.417566 96.644404 
L 252.713347 101.379853 
L 252.772503 101.467342 
L 253.009128 99.990907 
L 253.068284 100.092909 
L 253.304909 98.711276 
L 253.423222 99.151911 
L 253.482378 99.579792 
L 253.659847 98.106161 
L 253.778159 98.480637 
L 254.073941 101.159164 
L 254.133097 101.80625 
L 254.192253 101.693253 
L 254.251409 101.766092 
L 254.369722 100.338803 
L 254.606347 97.366721 
L 254.665503 97.376314 
L 254.783816 97.869338 
L 255.434534 102.030979 
L 255.552847 100.641567 
L 255.789472 98.177928 
L 255.848628 98.138513 
L 256.085253 95.393579 
L 256.795128 72.981897 
L 257.623316 65.544256 
L 257.800784 65.032527 
L 258.037409 61.677517 
L 258.096566 61.6602 
L 258.214878 62.253124 
L 258.451503 65.076876 
L 259.102222 74.790862 
L 259.989566 63.419622 
L 260.167034 62.066821 
L 260.226191 62.016768 
L 260.285347 62.12277 
L 260.403659 61.978507 
L 260.462816 62.133269 
L 260.581128 61.862597 
L 260.699441 62.183185 
L 261.113535 64.321397 
L 261.35016 62.90858 
L 261.586785 60.594743 
L 261.705097 60.449834 
L 262.178347 52.967954 
L 262.414972 50.66294 
L 262.592441 49.947427 
L 262.76991 49.243732 
L 262.888222 49.430709 
L 263.006535 47.900813 
L 263.657253 32.937602 
L 264.307972 22.220044 
L 264.544597 20.774971 
L 264.603753 20.787148 
L 264.722066 21.156194 
L 264.899535 22.403159 
L 264.958691 22.378558 
L 265.077003 21.286728 
L 265.254472 18.898664 
L 265.372785 72.622291 
L 265.964347 72.622291 
L 266.023503 83.312487 
L 266.023503 83.312487 
" clip-path="url(#pbdaa95d232)" style="fill: none; stroke: #1a1a1a; stroke-width: 0.8; stroke-linejoin: miter"/>
   </g>
   <g id="line2d_17">
    <path d="M 29.457656 18.581731 
L 266.08266 18.581731 
" clip-path="url(#pbdaa95d232)" style="fill: none; stroke-dasharray: 1.85,0.8; stroke-dashoffset: 0; stroke: #bbbbbb; stroke-width: 0.5"/>
   </g>
   <g id="patch_3">
    <path d="M 29.457656 124.96125 
L 29.457656 13.54125 
" style="fill: none; stroke: #1a1a1a; stroke-width: 0.8; stroke-linejoin: miter; stroke-linecap: square"/>
   </g>
   <g id="patch_4">
    <path d="M 266.08266 124.96125 
L 266.08266 13.54125 
" style="fill: none; stroke: #1a1a1a; stroke-width: 0.8; stroke-linejoin: miter; stroke-linecap: square"/>
   </g>
   <g id="patch_5">
    <path d="M 29.457656 124.96125 
L 266.08266 124.96125 
" style="fill: none; stroke: #1a1a1a; stroke-width: 0.8; stroke-linejoin: miter; stroke-linecap: square"/>
   </g>
   <g id="patch_6">
    <path d="M 29.457656 13.54125 
L 266.08266 13.54125 
" style="fill: none; stroke: #1a1a1a; stroke-width: 0.8; stroke-linejoin: miter; stroke-linecap: square"/>
   </g>
   <g id="text_18">
    <!-- PING · E-neuron membrane voltage -->
    <g style="fill: #1a1a1a" transform="translate(29.457656 7.54125) scale(0.08 -0.08)">
     <defs>
      <path id="Menlo-Regular-50" d="M 1247 4147 
L 1247 2394 
L 1978 2394 
Q 2416 2394 2661 2625 
Q 2906 2856 2906 3272 
Q 2906 3688 2662 3917 
Q 2419 4147 1978 4147 
L 1247 4147 
z
M 616 4666 
L 1978 4666 
Q 2759 4666 3162 4311 
Q 3566 3956 3566 3272 
Q 3566 2581 3164 2228 
Q 2763 1875 1978 1875 
L 1247 1875 
L 1247 0 
L 616 0 
L 616 4666 
z
" transform="scale(0.015625)"/>
      <path id="Menlo-Regular-49" d="M 628 4666 
L 3219 4666 
L 3219 4134 
L 2241 4134 
L 2241 531 
L 3219 531 
L 3219 0 
L 628 0 
L 628 531 
L 1606 531 
L 1606 4134 
L 628 4134 
L 628 4666 
z
" transform="scale(0.015625)"/>
      <path id="Menlo-Regular-4e" d="M 59 4650 
L 922 4650 
L 2747 822 
L 2747 4650 
L 3419 4650 
L 3419 0 
L 2556 0 
L 731 3828 
L 731 0 
L 59 0 
L 59 4650 
z
" transform="scale(0.015625)"/>
      <path id="Menlo-Regular-47" d="M 3450 384 
Q 3197 150 2880 29 
Q 2563 -91 2194 -91 
Q 1306 -91 812 545 
Q 319 1181 319 2328 
Q 319 3472 819 4111 
Q 1319 4750 2209 4750 
Q 2503 4750 2772 4667 
Q 3041 4584 3291 4416 
L 3291 3769 
Q 3038 4009 2772 4123 
Q 2506 4238 2209 4238 
Q 1594 4238 1286 3761 
Q 978 3284 978 2328 
Q 978 1356 1276 889 
Q 1575 422 2194 422 
Q 2403 422 2561 470 
Q 2719 519 2847 622 
L 2847 1875 
L 2169 1875 
L 2169 2394 
L 3450 2394 
L 3450 384 
z
" transform="scale(0.015625)"/>
      <path id="Menlo-Regular-b7" d="M 1528 2700 
L 2316 2700 
L 2316 1747 
L 1528 1747 
L 1528 2700 
z
" transform="scale(0.015625)"/>
      <path id="Menlo-Regular-2d" d="M 319 2263 
L 3631 2263 
L 3631 1734 
L 319 1734 
L 319 2263 
z
" transform="scale(0.015625)"/>
      <path id="Menlo-Regular-62" d="M 2869 1747 
Q 2869 2416 2656 2756 
Q 2444 3097 2028 3097 
Q 1609 3097 1393 2755 
Q 1178 2413 1178 1747 
Q 1178 1084 1393 740 
Q 1609 397 2028 397 
Q 2444 397 2656 737 
Q 2869 1078 2869 1747 
z
M 1178 3053 
Q 1316 3309 1558 3446 
Q 1800 3584 2119 3584 
Q 2750 3584 3112 3098 
Q 3475 2613 3475 1759 
Q 3475 894 3111 401 
Q 2747 -91 2113 -91 
Q 1800 -91 1561 45 
Q 1322 181 1178 441 
L 1178 0 
L 603 0 
L 603 4863 
L 1178 4863 
L 1178 3053 
z
" transform="scale(0.015625)"/>
      <path id="Menlo-Regular-61" d="M 2194 1759 
L 2003 1759 
Q 1500 1759 1245 1582 
Q 991 1406 991 1056 
Q 991 741 1181 566 
Q 1372 391 1709 391 
Q 2184 391 2456 720 
Q 2728 1050 2731 1631 
L 2731 1759 
L 2194 1759 
z
M 3309 1997 
L 3309 0 
L 2731 0 
L 2731 519 
Q 2547 206 2267 57 
Q 1988 -91 1588 -91 
Q 1053 -91 734 211 
Q 416 513 416 1019 
Q 416 1603 808 1906 
Q 1200 2209 1959 2209 
L 2731 2209 
L 2731 2300 
Q 2728 2719 2518 2908 
Q 2309 3097 1850 3097 
Q 1556 3097 1256 3012 
Q 956 2928 672 2766 
L 672 3341 
Q 991 3463 1283 3523 
Q 1575 3584 1850 3584 
Q 2284 3584 2592 3456 
Q 2900 3328 3091 3072 
Q 3209 2916 3259 2686 
Q 3309 2456 3309 1997 
z
" transform="scale(0.015625)"/>
      <path id="Menlo-Regular-76" d="M 313 3500 
L 909 3500 
L 1925 563 
L 2944 3500 
L 3541 3500 
L 2297 0 
L 1556 0 
L 313 3500 
z
" transform="scale(0.015625)"/>
      <path id="Menlo-Regular-6c" d="M 2247 1266 
Q 2247 878 2389 681 
Q 2531 484 2809 484 
L 3481 484 
L 3481 0 
L 2753 0 
Q 2238 0 1955 329 
Q 1672 659 1672 1266 
L 1672 4431 
L 750 4431 
L 750 4881 
L 2247 4881 
L 2247 1266 
z
" transform="scale(0.015625)"/>
      <path id="Menlo-Regular-67" d="M 2681 1778 
Q 2681 2425 2470 2761 
Q 2259 3097 1856 3097 
Q 1434 3097 1212 2761 
Q 991 2425 991 1778 
Q 991 1131 1214 792 
Q 1438 453 1863 453 
Q 2259 453 2470 793 
Q 2681 1134 2681 1778 
z
M 3256 225 
Q 3256 -563 2884 -969 
Q 2513 -1375 1791 -1375 
Q 1553 -1375 1293 -1331 
Q 1034 -1288 775 -1203 
L 775 -634 
Q 1081 -778 1331 -847 
Q 1581 -916 1791 -916 
Q 2256 -916 2468 -662 
Q 2681 -409 2681 141 
L 2681 166 
L 2681 556 
Q 2544 263 2306 119 
Q 2069 -25 1728 -25 
Q 1116 -25 750 465 
Q 384 956 384 1778 
Q 384 2603 750 3093 
Q 1116 3584 1728 3584 
Q 2066 3584 2300 3450 
Q 2534 3316 2681 3034 
L 2681 3488 
L 3256 3488 
L 3256 225 
z
" transform="scale(0.015625)"/>
     </defs>
     <use xlink:href="#Menlo-Regular-50"/>
     <use xlink:href="#Menlo-Regular-49" transform="translate(60.205078 0)"/>
     <use xlink:href="#Menlo-Regular-4e" transform="translate(120.410156 0)"/>
     <use xlink:href="#Menlo-Regular-47" transform="translate(180.615234 0)"/>
     <use xlink:href="#Menlo-Regular-20" transform="translate(240.820312 0)"/>
     <use xlink:href="#Menlo-Regular-b7" transform="translate(301.025391 0)"/>
     <use xlink:href="#Menlo-Regular-20" transform="translate(361.230469 0)"/>
     <use xlink:href="#Menlo-Regular-45" transform="translate(421.435547 0)"/>
     <use xlink:href="#Menlo-Regular-2d" transform="translate(481.640625 0)"/>
     <use xlink:href="#Menlo-Regular-6e" transform="translate(541.845703 0)"/>
     <use xlink:href="#Menlo-Regular-65" transform="translate(602.050781 0)"/>
     <use xlink:href="#Menlo-Regular-75" transform="translate(662.255859 0)"/>
     <use xlink:href="#Menlo-Regular-72" transform="translate(722.460938 0)"/>
     <use xlink:href="#Menlo-Regular-6f" transform="translate(782.666016 0)"/>
     <use xlink:href="#Menlo-Regular-6e" transform="translate(842.871094 0)"/>
     <use xlink:href="#Menlo-Regular-20" transform="translate(903.076172 0)"/>
     <use xlink:href="#Menlo-Regular-6d" transform="translate(963.28125 0)"/>
     <use xlink:href="#Menlo-Regular-65" transform="translate(1023.486328 0)"/>
     <use xlink:href="#Menlo-Regular-6d" transform="translate(1083.691406 0)"/>
     <use xlink:href="#Menlo-Regular-62" transform="translate(1143.896484 0)"/>
     <use xlink:href="#Menlo-Regular-72" transform="translate(1204.101562 0)"/>
     <use xlink:href="#Menlo-Regular-61" transform="translate(1264.306641 0)"/>
     <use xlink:href="#Menlo-Regular-6e" transform="translate(1324.511719 0)"/>
     <use xlink:href="#Menlo-Regular-65" transform="translate(1384.716797 0)"/>
     <use xlink:href="#Menlo-Regular-20" transform="translate(1444.921875 0)"/>
     <use xlink:href="#Menlo-Regular-76" transform="translate(1505.126953 0)"/>
     <use xlink:href="#Menlo-Regular-6f" transform="translate(1565.332031 0)"/>
     <use xlink:href="#Menlo-Regular-6c" transform="translate(1625.537109 0)"/>
     <use xlink:href="#Menlo-Regular-74" transform="translate(1685.742188 0)"/>
     <use xlink:href="#Menlo-Regular-61" transform="translate(1745.947266 0)"/>
     <use xlink:href="#Menlo-Regular-67" transform="translate(1806.152344 0)"/>
     <use xlink:href="#Menlo-Regular-65" transform="translate(1866.357422 0)"/>
    </g>
   </g>
   <g id="legend_1">
    <g id="patch_7">
     <path d="M 223.325785 39.73 
L 262.58266 39.73 
L 262.58266 17.04125 
L 223.325785 17.04125 
z
" style="fill: #ffffff; stroke: #1a1a1a; stroke-width: 0.8; stroke-linejoin: miter"/>
    </g>
    <g id="line2d_18">
     <path d="M 226.125785 22.729844 
L 231.725785 22.729844 
L 237.325785 22.729844 
" style="fill: none; stroke: #1a1a1a; stroke-width: 0.8; stroke-linejoin: miter"/>
    </g>
    <g id="text_19">
     <!-- V_E -->
     <g style="fill: #1a1a1a" transform="translate(242.925785 25.179844) scale(0.07 -0.07)">
      <use xlink:href="#Menlo-Regular-56"/>
      <use xlink:href="#Menlo-Regular-5f" transform="translate(60.205078 0)"/>
      <use xlink:href="#Menlo-Regular-45" transform="translate(120.410156 0)"/>
     </g>
    </g>
    <g id="line2d_19">
     <path d="M 226.125785 33.024219 
L 231.725785 33.024219 
L 237.325785 33.024219 
" style="fill: none; stroke-dasharray: 1.85,0.8; stroke-dashoffset: 0; stroke: #bbbbbb; stroke-width: 0.5"/>
    </g>
    <g id="text_20">
     <!-- V_th -->
     <g style="fill: #1a1a1a" transform="translate(242.925785 35.474219) scale(0.07 -0.07)">
      <defs>
       <path id="Menlo-Regular-68" d="M 3284 2169 
L 3284 0 
L 2706 0 
L 2706 2169 
Q 2706 2641 2540 2862 
Q 2375 3084 2022 3084 
Q 1619 3084 1401 2798 
Q 1184 2513 1184 1978 
L 1184 0 
L 609 0 
L 609 4863 
L 1184 4863 
L 1184 2975 
Q 1338 3275 1600 3429 
Q 1863 3584 2222 3584 
Q 2756 3584 3020 3232 
Q 3284 2881 3284 2169 
z
" transform="scale(0.015625)"/>
      </defs>
      <use xlink:href="#Menlo-Regular-56"/>
      <use xlink:href="#Menlo-Regular-5f" transform="translate(60.205078 0)"/>
      <use xlink:href="#Menlo-Regular-74" transform="translate(120.410156 0)"/>
      <use xlink:href="#Menlo-Regular-68" transform="translate(180.615234 0)"/>
     </g>
    </g>
   </g>
  </g>
 </g>
 <defs>
  <clipPath id="pbdaa95d232">
   <rect x="29.457656" y="13.54125" width="236.625003" height="111.42"/>
  </clipPath>
 </defs>
</svg>
