<?xml version="1.0" encoding="utf-8" standalone="no"?>
<!DOCTYPE svg PUBLIC "-//W3C//DTD SVG 1.1//EN"
  "http://www.w3.org/Graphics/SVG/1.1/DTD/svg11.dtd">
<svg xmlns:xlink="http://www.w3.org/1999/xlink" width="455.943203pt" height="106.924453pt" viewBox="0 0 455.943203 106.924453" xmlns="http://www.w3.org/2000/svg" version="1.1">
 <metadata>
  <rdf:RDF xmlns:dc="http://purl.org/dc/elements/1.1/" xmlns:cc="http://creativecommons.org/ns#" xmlns:rdf="http://www.w3.org/1999/02/22-rdf-syntax-ns#">
   <cc:Work>
    <dc:type rdf:resource="http://purl.org/dc/dcmitype/StillImage"/>
    <dc:date>2026-06-30T22:43:54.954104</dc:date>
    <dc:format>image/svg+xml</dc:format>
    <dc:creator>
     <cc:Agent>
      <dc:title>Matplotlib v3.10.8, https://matplotlib.org/</dc:title>
     </cc:Agent>
    </dc:creator>
   </cc:Work>
  </rdf:RDF>
 </metadata>
 <defs>
  <style type="text/css">*{stroke-linejoin: round; stroke-linecap: butt}</style>
 </defs>
 <g id="figure_1">
  <g id="patch_1">
   <path d="M 0 106.924453 
L 455.943203 106.924453 
L 455.943203 0 
L 0 0 
z
" style="fill: #ffffff"/>
  </g>
  <g id="axes_1">
   <g id="patch_2">
    <path d="M 29.770156 83.425078 
L 154.592656 83.425078 
L 154.592656 14.305078 
L 29.770156 14.305078 
z
" style="fill: #ffffff"/>
   </g>
   <g id="matplotlib.axis_1">
    <g id="xtick_1">
     <g id="line2d_1">
      <defs>
       <path id="mecb819853f" d="M 0 0 
L 0 -3 
" style="stroke: #1a1a1a; stroke-width: 0.8"/>
      </defs>
      <g>
       <use xlink:href="#mecb819853f" x="29.770156" y="83.425078" style="fill: #1a1a1a; stroke: #1a1a1a; stroke-width: 0.8"/>
      </g>
     </g>
     <g id="text_1">
      <!-- 0 -->
      <g style="fill: #1a1a1a" transform="translate(27.663047 92.263672) scale(0.07 -0.07)">
       <defs>
        <path id="Menlo-Regular-30" d="M 1925 4734 
Q 2672 4734 3055 4125 
Q 3438 3516 3438 2322 
Q 3438 1128 3055 518 
Q 2672 -91 1925 -91 
Q 1178 -91 797 518 
Q 416 1128 416 2322 
Q 416 3516 797 4125 
Q 1178 4734 1925 4734 
z
M 1925 409 
Q 2369 409 2586 881 
Q 2803 1353 2803 2322 
Q 2803 2838 2741 3253 
L 1253 925 
Q 1488 409 1925 409 
z
M 1925 4234 
Q 1484 4234 1267 3762 
Q 1050 3291 1050 2322 
Q 1050 1881 1109 1497 
L 2566 3819 
Q 2328 4234 1925 4234 
z
" transform="scale(0.015625)"/>
       </defs>
       <use xlink:href="#Menlo-Regular-30"/>
      </g>
     </g>
    </g>
    <g id="xtick_2">
     <g id="line2d_2">
      <g>
       <use xlink:href="#mecb819853f" x="60.975781" y="83.425078" style="fill: #1a1a1a; stroke: #1a1a1a; stroke-width: 0.8"/>
      </g>
     </g>
     <g id="text_2">
      <!-- 100 -->
      <g style="fill: #1a1a1a" transform="translate(54.654453 92.263672) scale(0.07 -0.07)">
       <defs>
        <path id="Menlo-Regular-31" d="M 844 528 
L 1825 528 
L 1825 4053 
L 650 3488 
L 650 4094 
L 1819 4650 
L 2450 4650 
L 2450 528 
L 3419 528 
L 3419 0 
L 844 0 
L 844 528 
z
" transform="scale(0.015625)"/>
       </defs>
       <use xlink:href="#Menlo-Regular-31"/>
       <use xlink:href="#Menlo-Regular-30" transform="translate(60.205078 0)"/>
       <use xlink:href="#Menlo-Regular-30" transform="translate(120.410156 0)"/>
      </g>
     </g>
    </g>
    <g id="xtick_3">
     <g id="line2d_3">
      <g>
       <use xlink:href="#mecb819853f" x="92.181406" y="83.425078" style="fill: #1a1a1a; stroke: #1a1a1a; stroke-width: 0.8"/>
      </g>
     </g>
     <g id="text_3">
      <!-- 200 -->
      <g style="fill: #1a1a1a" transform="translate(85.860078 92.263672) scale(0.07 -0.07)">
       <defs>
        <path id="Menlo-Regular-32" d="M 1166 531 
L 3309 531 
L 3309 0 
L 475 0 
L 475 531 
Q 1059 1147 1496 1619 
Q 1934 2091 2100 2284 
Q 2413 2666 2522 2902 
Q 2631 3138 2631 3384 
Q 2631 3775 2401 3997 
Q 2172 4219 1772 4219 
Q 1488 4219 1175 4116 
Q 863 4013 513 3803 
L 513 4441 
Q 834 4594 1145 4672 
Q 1456 4750 1759 4750 
Q 2444 4750 2861 4386 
Q 3278 4022 3278 3431 
Q 3278 3131 3139 2831 
Q 3000 2531 2688 2169 
Q 2513 1966 2180 1606 
Q 1847 1247 1166 531 
z
" transform="scale(0.015625)"/>
       </defs>
       <use xlink:href="#Menlo-Regular-32"/>
       <use xlink:href="#Menlo-Regular-30" transform="translate(60.205078 0)"/>
       <use xlink:href="#Menlo-Regular-30" transform="translate(120.410156 0)"/>
      </g>
     </g>
    </g>
    <g id="xtick_4">
     <g id="line2d_4">
      <g>
       <use xlink:href="#mecb819853f" x="123.387031" y="83.425078" style="fill: #1a1a1a; stroke: #1a1a1a; stroke-width: 0.8"/>
      </g>
     </g>
     <g id="text_4">
      <!-- 300 -->
      <g style="fill: #1a1a1a" transform="translate(117.065703 92.263672) scale(0.07 -0.07)">
       <defs>
        <path id="Menlo-Regular-33" d="M 2425 2497 
Q 2884 2375 3128 2064 
Q 3372 1753 3372 1288 
Q 3372 644 2939 276 
Q 2506 -91 1741 -91 
Q 1419 -91 1084 -31 
Q 750 28 428 141 
L 428 769 
Q 747 603 1056 522 
Q 1366 441 1672 441 
Q 2191 441 2469 675 
Q 2747 909 2747 1350 
Q 2747 1756 2469 1995 
Q 2191 2234 1716 2234 
L 1234 2234 
L 1234 2753 
L 1716 2753 
Q 2150 2753 2394 2943 
Q 2638 3134 2638 3475 
Q 2638 3834 2411 4026 
Q 2184 4219 1766 4219 
Q 1488 4219 1191 4156 
Q 894 4094 569 3969 
L 569 4550 
Q 947 4650 1242 4700 
Q 1538 4750 1766 4750 
Q 2447 4750 2855 4408 
Q 3263 4066 3263 3500 
Q 3263 3116 3048 2859 
Q 2834 2603 2425 2497 
z
" transform="scale(0.015625)"/>
       </defs>
       <use xlink:href="#Menlo-Regular-33"/>
       <use xlink:href="#Menlo-Regular-30" transform="translate(60.205078 0)"/>
       <use xlink:href="#Menlo-Regular-30" transform="translate(120.410156 0)"/>
      </g>
     </g>
    </g>
    <g id="xtick_5">
     <g id="line2d_5">
      <g>
       <use xlink:href="#mecb819853f" x="154.592656" y="83.425078" style="fill: #1a1a1a; stroke: #1a1a1a; stroke-width: 0.8"/>
      </g>
     </g>
     <g id="text_5">
      <!-- 400 -->
      <g style="fill: #1a1a1a" transform="translate(148.271328 92.263672) scale(0.07 -0.07)">
       <defs>
        <path id="Menlo-Regular-34" d="M 2297 4091 
L 825 1625 
L 2297 1625 
L 2297 4091 
z
M 2194 4666 
L 2925 4666 
L 2925 1625 
L 3547 1625 
L 3547 1113 
L 2925 1113 
L 2925 0 
L 2297 0 
L 2297 1113 
L 319 1113 
L 319 1709 
L 2194 4666 
z
" transform="scale(0.015625)"/>
       </defs>
       <use xlink:href="#Menlo-Regular-34"/>
       <use xlink:href="#Menlo-Regular-30" transform="translate(60.205078 0)"/>
       <use xlink:href="#Menlo-Regular-30" transform="translate(120.410156 0)"/>
      </g>
     </g>
    </g>
    <g id="text_6">
     <!-- time (ms) -->
     <g style="fill: #1a1a1a" transform="translate(70.508281 103.820703) scale(0.08 -0.08)">
      <defs>
       <path id="Menlo-Regular-74" d="M 1919 4494 
L 1919 3500 
L 3225 3500 
L 3225 3053 
L 1919 3053 
L 1919 1153 
Q 1919 766 2066 612 
Q 2213 459 2578 459 
L 3225 459 
L 3225 0 
L 2522 0 
Q 1875 0 1609 259 
Q 1344 519 1344 1153 
L 1344 3053 
L 409 3053 
L 409 3500 
L 1344 3500 
L 1344 4494 
L 1919 4494 
z
" transform="scale(0.015625)"/>
       <path id="Menlo-Regular-69" d="M 988 3488 
L 2459 3488 
L 2459 447 
L 3600 447 
L 3600 0 
L 744 0 
L 744 447 
L 1884 447 
L 1884 3041 
L 988 3041 
L 988 3488 
z
M 1884 4847 
L 2459 4847 
L 2459 4122 
L 1884 4122 
L 1884 4847 
z
" transform="scale(0.015625)"/>
       <path id="Menlo-Regular-6d" d="M 2113 3144 
Q 2219 3369 2383 3476 
Q 2547 3584 2778 3584 
Q 3200 3584 3373 3257 
Q 3547 2931 3547 2028 
L 3547 0 
L 3022 0 
L 3022 2003 
Q 3022 2744 2939 2923 
Q 2856 3103 2638 3103 
Q 2388 3103 2295 2911 
Q 2203 2719 2203 2003 
L 2203 0 
L 1678 0 
L 1678 2003 
Q 1678 2753 1589 2928 
Q 1500 3103 1269 3103 
Q 1041 3103 952 2911 
Q 863 2719 863 2003 
L 863 0 
L 341 0 
L 341 3500 
L 863 3500 
L 863 3200 
Q 966 3388 1120 3486 
Q 1275 3584 1472 3584 
Q 1709 3584 1867 3475 
Q 2025 3366 2113 3144 
z
" transform="scale(0.015625)"/>
       <path id="Menlo-Regular-65" d="M 3500 2038 
L 3500 1756 
L 1009 1756 
L 1009 1738 
Q 984 1022 1282 709 
Q 1581 397 2125 397 
Q 2400 397 2700 484 
Q 3000 572 3341 750 
L 3341 178 
Q 3013 44 2708 -23 
Q 2403 -91 2119 -91 
Q 1303 -91 843 398 
Q 384 888 384 1747 
Q 384 2584 834 3084 
Q 1284 3584 2034 3584 
Q 2703 3584 3089 3131 
Q 3475 2678 3500 2038 
z
M 2925 2206 
Q 2888 2569 2661 2833 
Q 2434 3097 2009 3097 
Q 1594 3097 1325 2822 
Q 1056 2547 1031 2203 
L 2925 2206 
z
" transform="scale(0.015625)"/>
       <path id="Menlo-Regular-20" transform="scale(0.015625)"/>
       <path id="Menlo-Regular-28" d="M 2672 5169 
Q 2256 4456 2051 3748 
Q 1847 3041 1847 2322 
Q 1847 1606 2051 897 
Q 2256 188 2672 -531 
L 2172 -531 
Q 1700 213 1469 917 
Q 1238 1622 1238 2322 
Q 1238 3019 1469 3725 
Q 1700 4431 2172 5169 
L 2672 5169 
z
" transform="scale(0.015625)"/>
       <path id="Menlo-Regular-73" d="M 3041 3378 
L 3041 2816 
Q 2794 2959 2544 3031 
Q 2294 3103 2034 3103 
Q 1644 3103 1451 2976 
Q 1259 2850 1259 2591 
Q 1259 2356 1403 2240 
Q 1547 2125 2119 2016 
L 2350 1972 
Q 2778 1891 2998 1647 
Q 3219 1403 3219 1013 
Q 3219 494 2850 201 
Q 2481 -91 1825 -91 
Q 1566 -91 1281 -36 
Q 997 19 666 128 
L 666 722 
Q 988 556 1281 473 
Q 1575 391 1838 391 
Q 2219 391 2428 545 
Q 2638 700 2638 978 
Q 2638 1378 1872 1531 
L 1847 1538 
L 1631 1581 
Q 1134 1678 906 1908 
Q 678 2138 678 2534 
Q 678 3038 1018 3311 
Q 1359 3584 1991 3584 
Q 2272 3584 2531 3532 
Q 2791 3481 3041 3378 
z
" transform="scale(0.015625)"/>
       <path id="Menlo-Regular-29" d="M 1088 5169 
L 1588 5169 
Q 2059 4431 2290 3725 
Q 2522 3019 2522 2322 
Q 2522 1619 2290 912 
Q 2059 206 1588 -531 
L 1088 -531 
Q 1503 194 1708 903 
Q 1913 1613 1913 2322 
Q 1913 3034 1708 3743 
Q 1503 4453 1088 5169 
z
" transform="scale(0.015625)"/>
      </defs>
      <use xlink:href="#Menlo-Regular-74"/>
      <use xlink:href="#Menlo-Regular-69" transform="translate(60.205078 0)"/>
      <use xlink:href="#Menlo-Regular-6d" transform="translate(120.410156 0)"/>
      <use xlink:href="#Menlo-Regular-65" transform="translate(180.615234 0)"/>
      <use xlink:href="#Menlo-Regular-20" transform="translate(240.820312 0)"/>
      <use xlink:href="#Menlo-Regular-28" transform="translate(301.025391 0)"/>
      <use xlink:href="#Menlo-Regular-6d" transform="translate(361.230469 0)"/>
      <use xlink:href="#Menlo-Regular-73" transform="translate(421.435547 0)"/>
      <use xlink:href="#Menlo-Regular-29" transform="translate(481.640625 0)"/>
     </g>
    </g>
   </g>
   <g id="matplotlib.axis_2">
    <g id="ytick_1">
     <g id="line2d_6">
      <defs>
       <path id="ma28915ceb9" d="M 0 0 
L 3 0 
" style="stroke: #1a1a1a; stroke-width: 0.8"/>
      </defs>
      <g>
       <use xlink:href="#ma28915ceb9" x="29.770156" y="80.28326" style="fill: #1a1a1a; stroke: #1a1a1a; stroke-width: 0.8"/>
      </g>
     </g>
     <g id="text_7">
      <!-- 0.0 -->
      <g style="fill: #1a1a1a" transform="translate(13.6275 82.952557) scale(0.07 -0.07)">
       <defs>
        <path id="Menlo-Regular-2e" d="M 1216 1263 
L 2316 1263 
L 2316 0 
L 1216 0 
L 1216 1263 
z
" transform="scale(0.015625)"/>
       </defs>
       <use xlink:href="#Menlo-Regular-30"/>
       <use xlink:href="#Menlo-Regular-2e" transform="translate(60.205078 0)"/>
       <use xlink:href="#Menlo-Regular-30" transform="translate(120.410156 0)"/>
      </g>
     </g>
    </g>
    <g id="ytick_2">
     <g id="line2d_7">
      <g>
       <use xlink:href="#ma28915ceb9" x="29.770156" y="59.96286" style="fill: #1a1a1a; stroke: #1a1a1a; stroke-width: 0.8"/>
      </g>
     </g>
     <g id="text_8">
      <!-- 0.5 -->
      <g style="fill: #1a1a1a" transform="translate(13.6275 62.632157) scale(0.07 -0.07)">
       <defs>
        <path id="Menlo-Regular-35" d="M 647 4666 
L 3009 4666 
L 3009 4134 
L 1222 4134 
L 1222 2988 
Q 1356 3038 1492 3061 
Q 1628 3084 1766 3084 
Q 2491 3084 2916 2656 
Q 3341 2228 3341 1497 
Q 3341 759 2895 334 
Q 2450 -91 1678 -91 
Q 1306 -91 998 -41 
Q 691 9 447 109 
L 447 750 
Q 734 594 1025 517 
Q 1316 441 1619 441 
Q 2141 441 2423 716 
Q 2706 991 2706 1497 
Q 2706 1997 2414 2275 
Q 2122 2553 1600 2553 
Q 1347 2553 1106 2495 
Q 866 2438 647 2322 
L 647 4666 
z
" transform="scale(0.015625)"/>
       </defs>
       <use xlink:href="#Menlo-Regular-30"/>
       <use xlink:href="#Menlo-Regular-2e" transform="translate(60.205078 0)"/>
       <use xlink:href="#Menlo-Regular-35" transform="translate(120.410156 0)"/>
      </g>
     </g>
    </g>
    <g id="ytick_3">
     <g id="line2d_8">
      <g>
       <use xlink:href="#ma28915ceb9" x="29.770156" y="39.642461" style="fill: #1a1a1a; stroke: #1a1a1a; stroke-width: 0.8"/>
      </g>
     </g>
     <g id="text_9">
      <!-- 1.0 -->
      <g style="fill: #1a1a1a" transform="translate(13.6275 42.311758) scale(0.07 -0.07)">
       <use xlink:href="#Menlo-Regular-31"/>
       <use xlink:href="#Menlo-Regular-2e" transform="translate(60.205078 0)"/>
       <use xlink:href="#Menlo-Regular-30" transform="translate(120.410156 0)"/>
      </g>
     </g>
    </g>
    <g id="ytick_4">
     <g id="line2d_9">
      <g>
       <use xlink:href="#ma28915ceb9" x="29.770156" y="19.322061" style="fill: #1a1a1a; stroke: #1a1a1a; stroke-width: 0.8"/>
      </g>
     </g>
     <g id="text_10">
      <!-- 1.5 -->
      <g style="fill: #1a1a1a" transform="translate(13.6275 21.991358) scale(0.07 -0.07)">
       <use xlink:href="#Menlo-Regular-31"/>
       <use xlink:href="#Menlo-Regular-2e" transform="translate(60.205078 0)"/>
       <use xlink:href="#Menlo-Regular-35" transform="translate(120.410156 0)"/>
      </g>
     </g>
    </g>
    <g id="text_11">
     <!-- g  [µS] -->
     <g style="fill: #1a1a1a" transform="translate(7.90875 65.721953) rotate(-90) scale(0.08 -0.08)">
      <defs>
       <path id="Menlo-Regular-67" d="M 2681 1778 
Q 2681 2425 2470 2761 
Q 2259 3097 1856 3097 
Q 1434 3097 1212 2761 
Q 991 2425 991 1778 
Q 991 1131 1214 792 
Q 1438 453 1863 453 
Q 2259 453 2470 793 
Q 2681 1134 2681 1778 
z
M 3256 225 
Q 3256 -563 2884 -969 
Q 2513 -1375 1791 -1375 
Q 1553 -1375 1293 -1331 
Q 1034 -1288 775 -1203 
L 775 -634 
Q 1081 -778 1331 -847 
Q 1581 -916 1791 -916 
Q 2256 -916 2468 -662 
Q 2681 -409 2681 141 
L 2681 166 
L 2681 556 
Q 2544 263 2306 119 
Q 2069 -25 1728 -25 
Q 1116 -25 750 465 
Q 384 956 384 1778 
Q 384 2603 750 3093 
Q 1116 3584 1728 3584 
Q 2066 3584 2300 3450 
Q 2534 3316 2681 3034 
L 2681 3488 
L 3256 3488 
L 3256 225 
z
" transform="scale(0.015625)"/>
       <path id="Menlo-Regular-5b" d="M 1759 5175 
L 3084 5175 
L 3084 4728 
L 2334 4728 
L 2334 -84 
L 3084 -84 
L 3084 -531 
L 1759 -531 
L 1759 5175 
z
" transform="scale(0.015625)"/>
       <path id="Menlo-Regular-b5" d="M 609 -1338 
L 609 3500 
L 1184 3500 
L 1184 1325 
Q 1184 881 1371 645 
Q 1559 409 1906 409 
Q 2303 409 2504 675 
Q 2706 941 2706 1459 
L 2706 3500 
L 3284 3500 
L 3284 800 
Q 3284 616 3334 528 
Q 3384 441 3488 441 
Q 3516 441 3561 456 
Q 3606 472 3694 513 
L 3694 50 
Q 3575 -22 3469 -56 
Q 3363 -91 3256 -91 
Q 3063 -91 2945 32 
Q 2828 156 2791 403 
Q 2647 153 2439 31 
Q 2231 -91 1953 -91 
Q 1666 -91 1467 28 
Q 1269 147 1131 397 
L 1131 -1338 
L 609 -1338 
z
" transform="scale(0.015625)"/>
       <path id="Menlo-Regular-53" d="M 3163 4506 
L 3163 3866 
Q 2875 4050 2586 4144 
Q 2297 4238 2003 4238 
Q 1556 4238 1297 4030 
Q 1038 3822 1038 3469 
Q 1038 3159 1208 2996 
Q 1378 2834 1844 2725 
L 2175 2650 
Q 2831 2497 3131 2169 
Q 3431 1841 3431 1275 
Q 3431 609 3018 259 
Q 2606 -91 1819 -91 
Q 1491 -91 1159 -20 
Q 828 50 494 191 
L 494 863 
Q 853 634 1173 528 
Q 1494 422 1819 422 
Q 2297 422 2562 636 
Q 2828 850 2828 1234 
Q 2828 1584 2645 1768 
Q 2463 1953 2009 2053 
L 1672 2131 
Q 1022 2278 728 2575 
Q 434 2872 434 3372 
Q 434 3997 854 4373 
Q 1275 4750 1972 4750 
Q 2241 4750 2537 4689 
Q 2834 4628 3163 4506 
z
" transform="scale(0.015625)"/>
       <path id="Menlo-Regular-5d" d="M 2250 5175 
L 2250 -531 
L 925 -531 
L 925 -84 
L 1675 -84 
L 1675 4728 
L 925 4728 
L 925 5175 
L 2250 5175 
z
" transform="scale(0.015625)"/>
      </defs>
      <use xlink:href="#Menlo-Regular-67"/>
      <use xlink:href="#Menlo-Regular-20" transform="translate(60.205078 0)"/>
      <use xlink:href="#Menlo-Regular-20" transform="translate(120.410156 0)"/>
      <use xlink:href="#Menlo-Regular-5b" transform="translate(180.615234 0)"/>
      <use xlink:href="#Menlo-Regular-b5" transform="translate(240.820312 0)"/>
      <use xlink:href="#Menlo-Regular-53" transform="translate(301.025391 0)"/>
      <use xlink:href="#Menlo-Regular-5d" transform="translate(361.230469 0)"/>
     </g>
    </g>
   </g>
   <g id="line2d_10">
    <path d="M 29.770156 80.225107 
L 30.004198 80.20154 
L 30.316255 80.132281 
L 30.550297 80.115242 
L 31.330438 80.071924 
L 31.642494 79.900229 
L 32.734691 80.209461 
L 33.202775 80.175349 
L 33.436817 80.16104 
L 33.670859 80.100689 
L 34.216958 80.154573 
L 35.309155 80.255375 
L 35.543197 80.204612 
L 35.855253 80.087299 
L 36.245323 80.065756 
L 36.401352 80.061245 
L 36.791422 79.788239 
L 36.94745 79.795749 
L 37.103478 79.813189 
L 37.571563 79.994486 
L 37.805605 80.012428 
L 37.961633 79.92678 
L 38.351703 79.319119 
L 38.507731 79.29355 
L 39.05383 79.774483 
L 39.287872 79.707655 
L 39.83397 79.949929 
L 39.989998 79.811727 
L 40.536097 79.360059 
L 40.770139 79.283464 
L 41.082195 78.82156 
L 41.316238 78.388992 
L 41.784322 78.270851 
L 42.954533 79.692243 
L 43.266589 79.853081 
L 44.904884 79.403412 
L 45.216941 79.365638 
L 45.763039 79.839216 
L 46.153109 79.903429 
L 47.011264 79.967563 
L 47.32332 80.027042 
L 47.791405 80.103299 
L 48.337503 79.640318 
L 48.571545 79.652638 
L 49.03963 79.96958 
L 49.585728 80.152499 
L 49.81977 80.05341 
L 50.443883 80.139542 
L 50.989981 79.560378 
L 51.146009 79.52654 
L 52.706291 80.159982 
L 53.330403 79.257383 
L 53.720473 79.237559 
L 54.266572 78.797894 
L 54.890684 78.828323 
L 55.280755 78.433845 
L 55.592811 78.362581 
L 55.826853 78.342598 
L 56.372952 78.928637 
L 56.763022 79.249499 
L 57.075078 79.532915 
L 57.855219 80.027266 
L 58.557345 80.194201 
L 58.947416 80.141521 
L 59.259472 79.915598 
L 59.493514 79.733168 
L 60.039613 79.42299 
L 60.273655 79.3061 
L 60.663725 79.016894 
L 61.209823 78.162684 
L 61.365852 78.077845 
L 61.52188 78.113359 
L 61.755922 78.007097 
L 62.145992 78.173169 
L 62.30202 78.080551 
L 62.458048 77.926609 
L 62.614077 77.956835 
L 62.926133 78.025535 
L 63.784288 78.523582 
L 64.252372 78.476174 
L 64.564428 78.485495 
L 64.954498 78.747545 
L 65.188541 78.751131 
L 65.890667 78.538596 
L 66.280738 78.494507 
L 66.51478 78.588501 
L 67.060878 78.724681 
L 67.216906 78.737498 
L 67.606977 79.295845 
L 67.997047 79.701718 
L 68.855202 80.05684 
L 69.557328 79.656661 
L 69.869384 79.358518 
L 71.039595 79.104339 
L 71.273638 79.28587 
L 71.585694 79.522173 
L 71.741722 79.471398 
L 72.131792 79.17543 
L 72.28782 79.148033 
L 72.911933 79.612634 
L 73.145975 79.30073 
L 73.380017 79.089153 
L 73.536045 79.093059 
L 74.706256 78.526409 
L 74.862284 78.65503 
L 75.252355 79.07929 
L 75.486397 79.071423 
L 75.642425 78.942026 
L 75.798453 78.844062 
L 76.032495 78.810863 
L 76.188523 78.706375 
L 76.344552 78.652254 
L 76.50058 78.63112 
L 76.734622 78.6626 
L 77.28072 78.486766 
L 77.904833 78.669947 
L 78.606959 79.516493 
L 79.153058 79.953147 
L 79.621142 79.65156 
L 79.933198 79.312909 
L 80.557311 79.70368 
L 80.713339 79.769971 
L 81.025395 79.885447 
L 81.415466 79.609888 
L 82.351634 78.522526 
L 82.975747 78.410512 
L 83.209789 78.267732 
L 83.677873 78.331976 
L 83.833902 78.289033 
L 84.145958 78.556621 
L 84.458014 79.100726 
L 84.77007 79.404228 
L 84.926098 79.463144 
L 85.238155 79.654493 
L 85.550211 79.511793 
L 85.706239 79.411506 
L 86.48638 79.744537 
L 86.798436 79.880856 
L 88.124675 80.207799 
L 88.514745 80.151672 
L 88.826802 80.096226 
L 90.153041 80.260056 
L 91.323252 80.197591 
L 91.635308 80.1345 
L 92.025378 80.119696 
L 92.727505 79.961297 
L 93.039561 79.890204 
L 93.663673 79.006334 
L 93.97573 78.779995 
L 94.131758 78.69889 
L 94.3658 78.88601 
L 94.911898 79.690624 
L 95.457997 80.036213 
L 95.848067 80.090497 
L 96.082109 79.848254 
L 96.316152 79.539535 
L 96.550194 79.467291 
L 97.642391 79.98757 
L 97.876433 79.882291 
L 98.734588 79.361003 
L 99.514728 79.182258 
L 99.826784 79.519426 
L 100.138841 79.729759 
L 100.294869 79.771657 
L 101.153023 80.072863 
L 101.543094 80.051651 
L 101.777136 80.002909 
L 102.557277 79.654761 
L 103.025361 79.901375 
L 103.649473 80.142772 
L 104.117558 80.150503 
L 104.663656 79.609668 
L 106.223938 79.627197 
L 106.535994 79.513429 
L 106.84805 79.625529 
L 107.004078 79.695247 
L 107.550177 79.566581 
L 107.862233 79.778273 
L 108.174289 79.829648 
L 108.330317 79.769563 
L 108.486345 79.69285 
L 108.720388 79.835741 
L 109.110458 79.816255 
L 109.500528 79.971768 
L 109.73457 79.980868 
L 110.046627 80.04175 
L 110.358683 79.971992 
L 110.904781 80.153504 
L 111.216838 80.180064 
L 112.387048 80.267434 
L 112.855133 79.865582 
L 113.245203 79.534467 
L 114.025344 78.769825 
L 114.3374 78.465227 
L 114.649456 78.669921 
L 115.897681 78.440455 
L 116.209738 78.169203 
L 116.755836 78.171923 
L 117.145906 78.437527 
L 117.613991 78.57771 
L 118.394131 79.319274 
L 118.628173 79.390927 
L 118.862216 79.549916 
L 119.174272 79.481036 
L 119.408314 79.580138 
L 119.72037 79.421141 
L 120.110441 79.289694 
L 120.656539 79.693027 
L 120.968595 79.839977 
L 121.358666 80.01529 
L 121.592708 79.870867 
L 121.82675 79.584049 
L 122.138806 79.65884 
L 122.684905 80.022963 
L 122.918947 79.958381 
L 123.465045 80.055654 
L 124.167172 80.170474 
L 124.401214 80.119378 
L 124.791284 79.703163 
L 125.805467 80.163703 
L 126.585608 80.191771 
L 127.131706 79.7243 
L 128.848016 80.244866 
L 129.394114 80.166066 
L 130.018227 80.092943 
L 130.876381 80.226533 
L 132.436663 80.27182 
L 132.748719 80.142362 
L 133.762902 80.255515 
L 134.230986 80.203527 
L 134.465028 80.158257 
L 134.777084 80.130216 
L 135.011127 80.068867 
L 135.479211 80.136616 
L 136.181338 79.529112 
L 136.727436 78.383577 
L 137.117506 78.190465 
L 137.351548 78.21154 
L 138.209703 78.16871 
L 138.443745 78.217168 
L 139.145872 79.002517 
L 139.379914 79.048452 
L 139.926013 79.241344 
L 140.160055 79.281609 
L 140.862181 78.68302 
L 141.40828 78.962362 
L 141.720336 79.105092 
L 142.500477 78.880272 
L 143.748702 79.457728 
L 143.90473 79.467373 
L 144.2948 79.06279 
L 144.996927 78.770363 
L 145.308983 79.022697 
L 145.543025 79.127729 
L 145.777067 79.218076 
L 145.933095 79.240356 
L 146.167138 78.949036 
L 146.479194 78.539437 
L 146.635222 78.457476 
L 147.18132 77.973742 
L 147.883447 77.953922 
L 148.507559 78.516684 
L 149.053658 79.254758 
L 149.443728 79.263493 
L 149.599756 79.206823 
L 149.755784 79.190659 
L 150.301883 79.065041 
L 150.613939 79.245766 
L 151.160038 78.972865 
L 151.472094 78.690511 
L 151.706136 78.598794 
L 151.940178 78.535196 
L 152.720319 79.16282 
L 153.110389 79.683532 
L 153.500459 79.842367 
L 153.656488 79.652022 
L 153.968544 79.131371 
L 154.436628 78.905745 
L 154.514642 78.959761 
L 154.514642 78.959761 
" clip-path="url(#p70e2bf0950)" style="fill: none; stroke: #1a1a1a; stroke-width: 0.9; stroke-linejoin: miter"/>
   </g>
   <g id="line2d_11">
    <path d="M 29.770156 80.28326 
L 34.451 80.28326 
L 34.529014 77.865183 
L 34.685042 47.647105 
L 34.84107 17.537261 
L 34.919084 17.446896 
L 35.777239 33.990844 
L 36.635394 46.179002 
L 37.493548 55.158185 
L 38.351703 61.773271 
L 39.209858 66.646696 
L 40.068013 70.237013 
L 40.926167 72.882051 
L 41.784322 74.830687 
L 42.642477 76.266274 
L 43.578645 77.404965 
L 44.592828 78.277372 
L 45.685025 78.92365 
L 47.011264 79.435388 
L 48.649559 79.810117 
L 50.833953 80.065886 
L 51.146009 80.088745 
L 51.458066 56.741974 
L 52.31622 62.94007 
L 53.174375 67.506292 
L 54.03253 70.870291 
L 54.890684 73.348596 
L 55.748839 75.174397 
L 56.606994 76.519491 
L 57.543163 77.586402 
L 58.557345 78.403816 
L 59.727556 79.044254 
L 61.053795 79.510598 
L 62.770105 79.8639 
L 64.79847 80.079589 
L 64.876484 78.878821 
L 65.110527 70.153546 
L 65.968681 72.82056 
L 66.826836 74.785387 
L 67.684991 76.232901 
L 68.621159 77.381052 
L 69.635342 78.260707 
L 70.727539 78.912355 
L 72.053778 79.428343 
L 73.692073 79.806187 
L 75.876467 80.06408 
L 76.578594 80.112563 
L 76.656608 79.540128 
L 76.734622 79.560487 
L 76.89065 75.016732 
L 76.968664 74.639782 
L 77.046678 74.794388 
L 77.904833 76.239532 
L 78.841002 77.385803 
L 79.855184 78.264018 
L 80.947381 78.914599 
L 82.27362 79.429743 
L 83.911916 79.806968 
L 85.940281 80.051938 
L 86.096309 69.008593 
L 86.252338 50.459288 
L 86.330352 50.715568 
L 87.188506 58.500336 
L 88.046661 64.235481 
L 88.904816 68.460641 
L 89.76297 71.573373 
L 90.621125 73.866566 
L 91.47928 75.555993 
L 92.415448 76.896026 
L 93.351617 77.856202 
L 94.3658 78.59184 
L 95.536011 79.168207 
L 96.940264 79.606947 
L 98.734588 79.926249 
L 100.996995 80.123733 
L 101.309052 69.117351 
L 101.387066 69.423247 
L 102.24522 72.282538 
L 103.103375 74.389018 
L 103.96153 75.94089 
L 104.897698 77.171817 
L 105.833867 78.053814 
L 106.926064 78.772121 
L 108.174289 79.314347 
L 109.656556 79.711685 
L 111.684922 80.005662 
L 112.777119 80.095102 
L 112.855133 79.412809 
L 112.933147 74.618581 
L 113.245203 31.146179 
L 114.103358 44.083292 
L 114.961513 53.614242 
L 115.819667 60.635827 
L 116.677822 65.808726 
L 117.535977 69.619671 
L 118.394131 72.427248 
L 119.252286 74.495627 
L 120.110441 76.019431 
L 121.046609 77.228094 
L 122.060792 78.154111 
L 123.152989 78.840103 
L 124.401214 79.357936 
L 125.961495 79.752353 
L 128.067875 80.032477 
L 128.92603 80.098505 
L 129.082058 77.596512 
L 129.238086 71.567718 
L 129.394114 72.03871 
L 130.252269 74.209387 
L 131.110423 75.808554 
L 132.046592 77.076994 
L 132.982761 77.985871 
L 134.074958 78.726068 
L 135.323183 79.284819 
L 136.80545 79.694266 
L 138.755802 79.989145 
L 139.223886 80.034297 
L 139.3019 79.390374 
L 139.613956 72.674386 
L 139.69197 72.882835 
L 140.550125 74.831266 
L 141.40828 76.2667 
L 142.344448 77.40527 
L 143.358631 78.277585 
L 144.450828 78.923795 
L 145.777067 79.435478 
L 147.415363 79.810168 
L 149.599756 80.065909 
L 149.989827 80.094094 
L 150.067841 78.906692 
L 150.223869 74.095556 
L 151.082023 75.724693 
L 152.018192 77.016905 
L 152.954361 77.942815 
L 154.046558 78.696884 
L 154.514642 78.940422 
L 154.514642 78.940422 
" clip-path="url(#p70e2bf0950)" style="fill: none; stroke: #c8102e; stroke-width: 0.9; stroke-linejoin: miter"/>
   </g>
   <g id="line2d_12">
    <path d="M 29.770156 78.25122 
L 154.592656 78.25122 
" clip-path="url(#p70e2bf0950)" style="fill: none; stroke-dasharray: 0.7,1.155; stroke-dashoffset: 0; stroke: #bbbbbb; stroke-width: 0.7"/>
   </g>
   <g id="patch_3">
    <path d="M 29.770156 83.425078 
L 29.770156 14.305078 
" style="fill: none; stroke: #1a1a1a; stroke-width: 0.8; stroke-linejoin: miter; stroke-linecap: square"/>
   </g>
   <g id="patch_4">
    <path d="M 154.592656 83.425078 
L 154.592656 14.305078 
" style="fill: none; stroke: #1a1a1a; stroke-width: 0.8; stroke-linejoin: miter; stroke-linecap: square"/>
   </g>
   <g id="patch_5">
    <path d="M 29.770156 83.425078 
L 154.592656 83.425078 
" style="fill: none; stroke: #1a1a1a; stroke-width: 0.8; stroke-linejoin: miter; stroke-linecap: square"/>
   </g>
   <g id="patch_6">
    <path d="M 29.770156 14.305078 
L 154.592656 14.305078 
" style="fill: none; stroke: #1a1a1a; stroke-width: 0.8; stroke-linejoin: miter; stroke-linecap: square"/>
   </g>
   <g id="text_12">
    <!-- PING — recurrent loop active (ei-strength = 1.5) — E-neuron conductances (cell 547) -->
    <g style="fill: #1a1a1a" transform="translate(29.770156 8.305078) scale(0.085 -0.085)">
     <defs>
      <path id="Menlo-Regular-50" d="M 1247 4147 
L 1247 2394 
L 1978 2394 
Q 2416 2394 2661 2625 
Q 2906 2856 2906 3272 
Q 2906 3688 2662 3917 
Q 2419 4147 1978 4147 
L 1247 4147 
z
M 616 4666 
L 1978 4666 
Q 2759 4666 3162 4311 
Q 3566 3956 3566 3272 
Q 3566 2581 3164 2228 
Q 2763 1875 1978 1875 
L 1247 1875 
L 1247 0 
L 616 0 
L 616 4666 
z
" transform="scale(0.015625)"/>
      <path id="Menlo-Regular-49" d="M 628 4666 
L 3219 4666 
L 3219 4134 
L 2241 4134 
L 2241 531 
L 3219 531 
L 3219 0 
L 628 0 
L 628 531 
L 1606 531 
L 1606 4134 
L 628 4134 
L 628 4666 
z
" transform="scale(0.015625)"/>
      <path id="Menlo-Regular-4e" d="M 59 4650 
L 922 4650 
L 2747 822 
L 2747 4650 
L 3419 4650 
L 3419 0 
L 2556 0 
L 731 3828 
L 731 0 
L 59 0 
L 59 4650 
z
" transform="scale(0.015625)"/>
      <path id="Menlo-Regular-47" d="M 3450 384 
Q 3197 150 2880 29 
Q 2563 -91 2194 -91 
Q 1306 -91 812 545 
Q 319 1181 319 2328 
Q 319 3472 819 4111 
Q 1319 4750 2209 4750 
Q 2503 4750 2772 4667 
Q 3041 4584 3291 4416 
L 3291 3769 
Q 3038 4009 2772 4123 
Q 2506 4238 2209 4238 
Q 1594 4238 1286 3761 
Q 978 3284 978 2328 
Q 978 1356 1276 889 
Q 1575 422 2194 422 
Q 2403 422 2561 470 
Q 2719 519 2847 622 
L 2847 1875 
L 2169 1875 
L 2169 2394 
L 3450 2394 
L 3450 384 
z
" transform="scale(0.015625)"/>
      <path id="Menlo-Regular-2014" d="M 0 2259 
L 3853 2259 
L 3853 1725 
L 0 1725 
L 0 2259 
z
" transform="scale(0.015625)"/>
      <path id="Menlo-Regular-72" d="M 3609 2778 
Q 3425 2922 3234 2987 
Q 3044 3053 2816 3053 
Q 2278 3053 1993 2715 
Q 1709 2378 1709 1741 
L 1709 0 
L 1131 0 
L 1131 3500 
L 1709 3500 
L 1709 2816 
Q 1853 3188 2151 3386 
Q 2450 3584 2859 3584 
Q 3072 3584 3256 3531 
Q 3441 3478 3609 3366 
L 3609 2778 
z
" transform="scale(0.015625)"/>
      <path id="Menlo-Regular-63" d="M 3316 178 
Q 3084 44 2839 -23 
Q 2594 -91 2338 -91 
Q 1525 -91 1067 396 
Q 609 884 609 1747 
Q 609 2609 1067 3096 
Q 1525 3584 2338 3584 
Q 2591 3584 2831 3518 
Q 3072 3453 3316 3316 
L 3316 2713 
Q 3088 2916 2858 3006 
Q 2628 3097 2338 3097 
Q 1797 3097 1506 2747 
Q 1216 2397 1216 1747 
Q 1216 1100 1508 748 
Q 1800 397 2338 397 
Q 2638 397 2875 489 
Q 3113 581 3316 775 
L 3316 178 
z
" transform="scale(0.015625)"/>
      <path id="Menlo-Regular-75" d="M 609 1325 
L 609 3494 
L 1184 3494 
L 1184 1325 
Q 1184 853 1351 631 
Q 1519 409 1869 409 
Q 2275 409 2490 695 
Q 2706 981 2706 1516 
L 2706 3494 
L 3284 3494 
L 3284 0 
L 2706 0 
L 2706 525 
Q 2553 222 2289 65 
Q 2025 -91 1672 -91 
Q 1134 -91 871 261 
Q 609 613 609 1325 
z
" transform="scale(0.015625)"/>
      <path id="Menlo-Regular-6e" d="M 3284 2169 
L 3284 0 
L 2706 0 
L 2706 2169 
Q 2706 2641 2540 2862 
Q 2375 3084 2022 3084 
Q 1619 3084 1401 2798 
Q 1184 2513 1184 1978 
L 1184 0 
L 609 0 
L 609 3500 
L 1184 3500 
L 1184 2975 
Q 1338 3275 1600 3429 
Q 1863 3584 2222 3584 
Q 2756 3584 3020 3232 
Q 3284 2881 3284 2169 
z
" transform="scale(0.015625)"/>
      <path id="Menlo-Regular-6c" d="M 2247 1266 
Q 2247 878 2389 681 
Q 2531 484 2809 484 
L 3481 484 
L 3481 0 
L 2753 0 
Q 2238 0 1955 329 
Q 1672 659 1672 1266 
L 1672 4431 
L 750 4431 
L 750 4881 
L 2247 4881 
L 2247 1266 
z
" transform="scale(0.015625)"/>
      <path id="Menlo-Regular-6f" d="M 1925 3097 
Q 1488 3097 1263 2756 
Q 1038 2416 1038 1747 
Q 1038 1081 1263 739 
Q 1488 397 1925 397 
Q 2366 397 2591 739 
Q 2816 1081 2816 1747 
Q 2816 2416 2591 2756 
Q 2366 3097 1925 3097 
z
M 1925 3584 
Q 2653 3584 3039 3112 
Q 3425 2641 3425 1747 
Q 3425 850 3040 379 
Q 2656 -91 1925 -91 
Q 1197 -91 812 379 
Q 428 850 428 1747 
Q 428 2641 812 3112 
Q 1197 3584 1925 3584 
z
" transform="scale(0.015625)"/>
      <path id="Menlo-Regular-70" d="M 1172 441 
L 1172 -1331 
L 594 -1331 
L 594 3500 
L 1172 3500 
L 1172 3053 
Q 1316 3313 1555 3448 
Q 1794 3584 2106 3584 
Q 2741 3584 3102 3093 
Q 3463 2603 3463 1734 
Q 3463 881 3100 395 
Q 2738 -91 2106 -91 
Q 1788 -91 1548 45 
Q 1309 181 1172 441 
z
M 2859 1747 
Q 2859 2416 2648 2756 
Q 2438 3097 2022 3097 
Q 1603 3097 1387 2755 
Q 1172 2413 1172 1747 
Q 1172 1084 1387 740 
Q 1603 397 2022 397 
Q 2438 397 2648 737 
Q 2859 1078 2859 1747 
z
" transform="scale(0.015625)"/>
      <path id="Menlo-Regular-61" d="M 2194 1759 
L 2003 1759 
Q 1500 1759 1245 1582 
Q 991 1406 991 1056 
Q 991 741 1181 566 
Q 1372 391 1709 391 
Q 2184 391 2456 720 
Q 2728 1050 2731 1631 
L 2731 1759 
L 2194 1759 
z
M 3309 1997 
L 3309 0 
L 2731 0 
L 2731 519 
Q 2547 206 2267 57 
Q 1988 -91 1588 -91 
Q 1053 -91 734 211 
Q 416 513 416 1019 
Q 416 1603 808 1906 
Q 1200 2209 1959 2209 
L 2731 2209 
L 2731 2300 
Q 2728 2719 2518 2908 
Q 2309 3097 1850 3097 
Q 1556 3097 1256 3012 
Q 956 2928 672 2766 
L 672 3341 
Q 991 3463 1283 3523 
Q 1575 3584 1850 3584 
Q 2284 3584 2592 3456 
Q 2900 3328 3091 3072 
Q 3209 2916 3259 2686 
Q 3309 2456 3309 1997 
z
" transform="scale(0.015625)"/>
      <path id="Menlo-Regular-76" d="M 313 3500 
L 909 3500 
L 1925 563 
L 2944 3500 
L 3541 3500 
L 2297 0 
L 1556 0 
L 313 3500 
z
" transform="scale(0.015625)"/>
      <path id="Menlo-Regular-2d" d="M 319 2263 
L 3631 2263 
L 3631 1734 
L 319 1734 
L 319 2263 
z
" transform="scale(0.015625)"/>
      <path id="Menlo-Regular-68" d="M 3284 2169 
L 3284 0 
L 2706 0 
L 2706 2169 
Q 2706 2641 2540 2862 
Q 2375 3084 2022 3084 
Q 1619 3084 1401 2798 
Q 1184 2513 1184 1978 
L 1184 0 
L 609 0 
L 609 4863 
L 1184 4863 
L 1184 2975 
Q 1338 3275 1600 3429 
Q 1863 3584 2222 3584 
Q 2756 3584 3020 3232 
Q 3284 2881 3284 2169 
z
" transform="scale(0.015625)"/>
      <path id="Menlo-Regular-3d" d="M 275 1563 
L 3578 1563 
L 3578 1034 
L 275 1034 
L 275 1563 
z
M 275 3034 
L 3578 3034 
L 3578 2506 
L 275 2506 
L 275 3034 
z
" transform="scale(0.015625)"/>
      <path id="Menlo-Regular-45" d="M 616 4666 
L 3384 4666 
L 3384 4134 
L 1247 4134 
L 1247 2878 
L 3291 2878 
L 3291 2347 
L 1247 2347 
L 1247 531 
L 3444 531 
L 3444 0 
L 616 0 
L 616 4666 
z
" transform="scale(0.015625)"/>
      <path id="Menlo-Regular-64" d="M 2681 3053 
L 2681 4863 
L 3256 4863 
L 3256 0 
L 2681 0 
L 2681 441 
Q 2538 181 2298 45 
Q 2059 -91 1747 -91 
Q 1113 -91 748 401 
Q 384 894 384 1759 
Q 384 2613 750 3098 
Q 1116 3584 1747 3584 
Q 2063 3584 2303 3448 
Q 2544 3313 2681 3053 
z
M 991 1747 
Q 991 1078 1203 737 
Q 1416 397 1831 397 
Q 2247 397 2464 740 
Q 2681 1084 2681 1747 
Q 2681 2413 2464 2755 
Q 2247 3097 1831 3097 
Q 1416 3097 1203 2756 
Q 991 2416 991 1747 
z
" transform="scale(0.015625)"/>
      <path id="Menlo-Regular-37" d="M 434 4666 
L 3372 4666 
L 3372 4397 
L 1703 0 
L 1044 0 
L 2669 4134 
L 434 4134 
L 434 4666 
z
" transform="scale(0.015625)"/>
     </defs>
     <use xlink:href="#Menlo-Regular-50"/>
     <use xlink:href="#Menlo-Regular-49" transform="translate(60.205078 0)"/>
     <use xlink:href="#Menlo-Regular-4e" transform="translate(120.410156 0)"/>
     <use xlink:href="#Menlo-Regular-47" transform="translate(180.615234 0)"/>
     <use xlink:href="#Menlo-Regular-20" transform="translate(240.820312 0)"/>
     <use xlink:href="#Menlo-Regular-2014" transform="translate(301.025391 0)"/>
     <use xlink:href="#Menlo-Regular-20" transform="translate(361.230469 0)"/>
     <use xlink:href="#Menlo-Regular-72" transform="translate(421.435547 0)"/>
     <use xlink:href="#Menlo-Regular-65" transform="translate(481.640625 0)"/>
     <use xlink:href="#Menlo-Regular-63" transform="translate(541.845703 0)"/>
     <use xlink:href="#Menlo-Regular-75" transform="translate(602.050781 0)"/>
     <use xlink:href="#Menlo-Regular-72" transform="translate(662.255859 0)"/>
     <use xlink:href="#Menlo-Regular-72" transform="translate(722.460938 0)"/>
     <use xlink:href="#Menlo-Regular-65" transform="translate(782.666016 0)"/>
     <use xlink:href="#Menlo-Regular-6e" transform="translate(842.871094 0)"/>
     <use xlink:href="#Menlo-Regular-74" transform="translate(903.076172 0)"/>
     <use xlink:href="#Menlo-Regular-20" transform="translate(963.28125 0)"/>
     <use xlink:href="#Menlo-Regular-6c" transform="translate(1023.486328 0)"/>
     <use xlink:href="#Menlo-Regular-6f" transform="translate(1083.691406 0)"/>
     <use xlink:href="#Menlo-Regular-6f" transform="translate(1143.896484 0)"/>
     <use xlink:href="#Menlo-Regular-70" transform="translate(1204.101562 0)"/>
     <use xlink:href="#Menlo-Regular-20" transform="translate(1264.306641 0)"/>
     <use xlink:href="#Menlo-Regular-61" transform="translate(1324.511719 0)"/>
     <use xlink:href="#Menlo-Regular-63" transform="translate(1384.716797 0)"/>
     <use xlink:href="#Menlo-Regular-74" transform="translate(1444.921875 0)"/>
     <use xlink:href="#Menlo-Regular-69" transform="translate(1505.126953 0)"/>
     <use xlink:href="#Menlo-Regular-76" transform="translate(1565.332031 0)"/>
     <use xlink:href="#Menlo-Regular-65" transform="translate(1625.537109 0)"/>
     <use xlink:href="#Menlo-Regular-20" transform="translate(1685.742188 0)"/>
     <use xlink:href="#Menlo-Regular-28" transform="translate(1745.947266 0)"/>
     <use xlink:href="#Menlo-Regular-65" transform="translate(1806.152344 0)"/>
     <use xlink:href="#Menlo-Regular-69" transform="translate(1866.357422 0)"/>
     <use xlink:href="#Menlo-Regular-2d" transform="translate(1926.5625 0)"/>
     <use xlink:href="#Menlo-Regular-73" transform="translate(1986.767578 0)"/>
     <use xlink:href="#Menlo-Regular-74" transform="translate(2046.972656 0)"/>
     <use xlink:href="#Menlo-Regular-72" transform="translate(2107.177734 0)"/>
     <use xlink:href="#Menlo-Regular-65" transform="translate(2167.382812 0)"/>
     <use xlink:href="#Menlo-Regular-6e" transform="translate(2227.587891 0)"/>
     <use xlink:href="#Menlo-Regular-67" transform="translate(2287.792969 0)"/>
     <use xlink:href="#Menlo-Regular-74" transform="translate(2347.998047 0)"/>
     <use xlink:href="#Menlo-Regular-68" transform="translate(2408.203125 0)"/>
     <use xlink:href="#Menlo-Regular-20" transform="translate(2468.408203 0)"/>
     <use xlink:href="#Menlo-Regular-3d" transform="translate(2528.613281 0)"/>
     <use xlink:href="#Menlo-Regular-20" transform="translate(2588.818359 0)"/>
     <use xlink:href="#Menlo-Regular-31" transform="translate(2649.023438 0)"/>
     <use xlink:href="#Menlo-Regular-2e" transform="translate(2709.228516 0)"/>
     <use xlink:href="#Menlo-Regular-35" transform="translate(2769.433594 0)"/>
     <use xlink:href="#Menlo-Regular-29" transform="translate(2829.638672 0)"/>
     <use xlink:href="#Menlo-Regular-20" transform="translate(2889.84375 0)"/>
     <use xlink:href="#Menlo-Regular-2014" transform="translate(2950.048828 0)"/>
     <use xlink:href="#Menlo-Regular-20" transform="translate(3010.253906 0)"/>
     <use xlink:href="#Menlo-Regular-45" transform="translate(3070.458984 0)"/>
     <use xlink:href="#Menlo-Regular-2d" transform="translate(3130.664062 0)"/>
     <use xlink:href="#Menlo-Regular-6e" transform="translate(3190.869141 0)"/>
     <use xlink:href="#Menlo-Regular-65" transform="translate(3251.074219 0)"/>
     <use xlink:href="#Menlo-Regular-75" transform="translate(3311.279297 0)"/>
     <use xlink:href="#Menlo-Regular-72" transform="translate(3371.484375 0)"/>
     <use xlink:href="#Menlo-Regular-6f" transform="translate(3431.689453 0)"/>
     <use xlink:href="#Menlo-Regular-6e" transform="translate(3491.894531 0)"/>
     <use xlink:href="#Menlo-Regular-20" transform="translate(3552.099609 0)"/>
     <use xlink:href="#Menlo-Regular-63" transform="translate(3612.304688 0)"/>
     <use xlink:href="#Menlo-Regular-6f" transform="translate(3672.509766 0)"/>
     <use xlink:href="#Menlo-Regular-6e" transform="translate(3732.714844 0)"/>
     <use xlink:href="#Menlo-Regular-64" transform="translate(3792.919922 0)"/>
     <use xlink:href="#Menlo-Regular-75" transform="translate(3853.125 0)"/>
     <use xlink:href="#Menlo-Regular-63" transform="translate(3913.330078 0)"/>
     <use xlink:href="#Menlo-Regular-74" transform="translate(3973.535156 0)"/>
     <use xlink:href="#Menlo-Regular-61" transform="translate(4033.740234 0)"/>
     <use xlink:href="#Menlo-Regular-6e" transform="translate(4093.945312 0)"/>
     <use xlink:href="#Menlo-Regular-63" transform="translate(4154.150391 0)"/>
     <use xlink:href="#Menlo-Regular-65" transform="translate(4214.355469 0)"/>
     <use xlink:href="#Menlo-Regular-73" transform="translate(4274.560547 0)"/>
     <use xlink:href="#Menlo-Regular-20" transform="translate(4334.765625 0)"/>
     <use xlink:href="#Menlo-Regular-28" transform="translate(4394.970703 0)"/>
     <use xlink:href="#Menlo-Regular-63" transform="translate(4455.175781 0)"/>
     <use xlink:href="#Menlo-Regular-65" transform="translate(4515.380859 0)"/>
     <use xlink:href="#Menlo-Regular-6c" transform="translate(4575.585938 0)"/>
     <use xlink:href="#Menlo-Regular-6c" transform="translate(4635.791016 0)"/>
     <use xlink:href="#Menlo-Regular-20" transform="translate(4695.996094 0)"/>
     <use xlink:href="#Menlo-Regular-35" transform="translate(4756.201172 0)"/>
     <use xlink:href="#Menlo-Regular-34" transform="translate(4816.40625 0)"/>
     <use xlink:href="#Menlo-Regular-37" transform="translate(4876.611328 0)"/>
     <use xlink:href="#Menlo-Regular-29" transform="translate(4936.816406 0)"/>
    </g>
   </g>
   <g id="legend_1">
    <g id="patch_7">
     <path d="M 86.550469 51.877578 
L 151.092656 51.877578 
L 151.092656 17.805078 
L 86.550469 17.805078 
z
" style="fill: #ffffff; stroke: #1a1a1a; stroke-width: 0.8; stroke-linejoin: miter"/>
    </g>
    <g id="line2d_13">
     <path d="M 89.350469 23.808672 
L 94.950469 23.808672 
L 100.550469 23.808672 
" style="fill: none; stroke: #1a1a1a; stroke-width: 0.9; stroke-linejoin: miter"/>
    </g>
    <g id="text_13">
     <!-- g_E (exc) -->
     <g style="fill: #1a1a1a" transform="translate(106.150469 26.258672) scale(0.07 -0.07)">
      <defs>
       <path id="Menlo-Regular-5f" d="M 3825 -594 
L 3825 -1125 
L 0 -1125 
L 0 -594 
L 3825 -594 
z
" transform="scale(0.015625)"/>
       <path id="Menlo-Regular-78" d="M 3494 3500 
L 2241 1825 
L 3616 0 
L 2950 0 
L 1925 1403 
L 903 0 
L 238 0 
L 1613 1825 
L 359 3500 
L 997 3500 
L 1925 2234 
L 2847 3500 
L 3494 3500 
z
" transform="scale(0.015625)"/>
      </defs>
      <use xlink:href="#Menlo-Regular-67"/>
      <use xlink:href="#Menlo-Regular-5f" transform="translate(60.205078 0)"/>
      <use xlink:href="#Menlo-Regular-45" transform="translate(120.410156 0)"/>
      <use xlink:href="#Menlo-Regular-20" transform="translate(180.615234 0)"/>
      <use xlink:href="#Menlo-Regular-28" transform="translate(240.820312 0)"/>
      <use xlink:href="#Menlo-Regular-65" transform="translate(301.025391 0)"/>
      <use xlink:href="#Menlo-Regular-78" transform="translate(361.230469 0)"/>
      <use xlink:href="#Menlo-Regular-63" transform="translate(421.435547 0)"/>
      <use xlink:href="#Menlo-Regular-29" transform="translate(481.640625 0)"/>
     </g>
    </g>
    <g id="line2d_14">
     <path d="M 89.350469 34.466172 
L 94.950469 34.466172 
L 100.550469 34.466172 
" style="fill: none; stroke: #c8102e; stroke-width: 0.9; stroke-linejoin: miter"/>
    </g>
    <g id="text_14">
     <!-- g_I (inh) -->
     <g style="fill: #1a1a1a" transform="translate(106.150469 36.916172) scale(0.07 -0.07)">
      <use xlink:href="#Menlo-Regular-67"/>
      <use xlink:href="#Menlo-Regular-5f" transform="translate(60.205078 0)"/>
      <use xlink:href="#Menlo-Regular-49" transform="translate(120.410156 0)"/>
      <use xlink:href="#Menlo-Regular-20" transform="translate(180.615234 0)"/>
      <use xlink:href="#Menlo-Regular-28" transform="translate(240.820312 0)"/>
      <use xlink:href="#Menlo-Regular-69" transform="translate(301.025391 0)"/>
      <use xlink:href="#Menlo-Regular-6e" transform="translate(361.230469 0)"/>
      <use xlink:href="#Menlo-Regular-68" transform="translate(421.435547 0)"/>
      <use xlink:href="#Menlo-Regular-29" transform="translate(481.640625 0)"/>
     </g>
    </g>
    <g id="line2d_15">
     <path d="M 89.350469 45.123672 
L 94.950469 45.123672 
L 100.550469 45.123672 
" style="fill: none; stroke-dasharray: 0.7,1.155; stroke-dashoffset: 0; stroke: #bbbbbb; stroke-width: 0.7"/>
    </g>
    <g id="text_15">
     <!-- g_L (leak) -->
     <g style="fill: #1a1a1a" transform="translate(106.150469 47.573672) scale(0.07 -0.07)">
      <defs>
       <path id="Menlo-Regular-4c" d="M 672 4666 
L 1306 4666 
L 1306 531 
L 3559 531 
L 3559 0 
L 672 0 
L 672 4666 
z
" transform="scale(0.015625)"/>
       <path id="Menlo-Regular-6b" d="M 738 4863 
L 1331 4863 
L 1331 2047 
L 2841 3500 
L 3541 3500 
L 2163 2181 
L 3756 0 
L 3053 0 
L 1759 1806 
L 1331 1403 
L 1331 0 
L 738 0 
L 738 4863 
z
" transform="scale(0.015625)"/>
      </defs>
      <use xlink:href="#Menlo-Regular-67"/>
      <use xlink:href="#Menlo-Regular-5f" transform="translate(60.205078 0)"/>
      <use xlink:href="#Menlo-Regular-4c" transform="translate(120.410156 0)"/>
      <use xlink:href="#Menlo-Regular-20" transform="translate(180.615234 0)"/>
      <use xlink:href="#Menlo-Regular-28" transform="translate(240.820312 0)"/>
      <use xlink:href="#Menlo-Regular-6c" transform="translate(301.025391 0)"/>
      <use xlink:href="#Menlo-Regular-65" transform="translate(361.230469 0)"/>
      <use xlink:href="#Menlo-Regular-61" transform="translate(421.435547 0)"/>
      <use xlink:href="#Menlo-Regular-6b" transform="translate(481.640625 0)"/>
      <use xlink:href="#Menlo-Regular-29" transform="translate(541.845703 0)"/>
     </g>
    </g>
   </g>
  </g>
 </g>
 <defs>
  <clipPath id="p70e2bf0950">
   <rect x="29.770156" y="14.305078" width="124.8225" height="69.12"/>
  </clipPath>
 </defs>
</svg>
