<?xml version="1.0" encoding="utf-8" standalone="no"?>
<!DOCTYPE svg PUBLIC "-//W3C//DTD SVG 1.1//EN"
  "http://www.w3.org/Graphics/SVG/1.1/DTD/svg11.dtd">
<svg xmlns:xlink="http://www.w3.org/1999/xlink" width="447.514766pt" height="106.924453pt" viewBox="0 0 447.514766 106.924453" xmlns="http://www.w3.org/2000/svg" version="1.1">
 <metadata>
  <rdf:RDF xmlns:dc="http://purl.org/dc/elements/1.1/" xmlns:cc="http://creativecommons.org/ns#" xmlns:rdf="http://www.w3.org/1999/02/22-rdf-syntax-ns#">
   <cc:Work>
    <dc:type rdf:resource="http://purl.org/dc/dcmitype/StillImage"/>
    <dc:date>2026-06-29T14:02:15.826386</dc:date>
    <dc:format>image/svg+xml</dc:format>
    <dc:creator>
     <cc:Agent>
      <dc:title>Matplotlib v3.10.8, https://matplotlib.org/</dc:title>
     </cc:Agent>
    </dc:creator>
   </cc:Work>
  </rdf:RDF>
 </metadata>
 <defs>
  <style type="text/css">*{stroke-linejoin: round; stroke-linecap: butt}</style>
 </defs>
 <g id="figure_1">
  <g id="patch_1">
   <path d="M 0 106.924453 
L 447.514766 106.924453 
L 447.514766 0 
L 0 0 
z
" style="fill: #ffffff"/>
  </g>
  <g id="axes_1">
   <g id="patch_2">
    <path d="M 21.341719 83.425078 
L 154.624219 83.425078 
L 154.624219 14.305078 
L 21.341719 14.305078 
z
" style="fill: #ffffff"/>
   </g>
   <g id="matplotlib.axis_1">
    <g id="xtick_1">
     <g id="line2d_1">
      <defs>
       <path id="mb1be82396b" d="M 0 0 
L 0 -3 
" style="stroke: #1a1a1a; stroke-width: 0.8"/>
      </defs>
      <g>
       <use xlink:href="#mb1be82396b" x="21.341719" y="83.425078" style="fill: #1a1a1a; stroke: #1a1a1a; stroke-width: 0.8"/>
      </g>
     </g>
     <g id="text_1">
      <!-- 0 -->
      <g style="fill: #1a1a1a" transform="translate(19.234609 92.263672) scale(0.07 -0.07)">
       <defs>
        <path id="Menlo-Regular-30" d="M 1925 4734 
Q 2672 4734 3055 4125 
Q 3438 3516 3438 2322 
Q 3438 1128 3055 518 
Q 2672 -91 1925 -91 
Q 1178 -91 797 518 
Q 416 1128 416 2322 
Q 416 3516 797 4125 
Q 1178 4734 1925 4734 
z
M 1925 409 
Q 2369 409 2586 881 
Q 2803 1353 2803 2322 
Q 2803 2838 2741 3253 
L 1253 925 
Q 1488 409 1925 409 
z
M 1925 4234 
Q 1484 4234 1267 3762 
Q 1050 3291 1050 2322 
Q 1050 1881 1109 1497 
L 2566 3819 
Q 2328 4234 1925 4234 
z
" transform="scale(0.015625)"/>
       </defs>
       <use xlink:href="#Menlo-Regular-30"/>
      </g>
     </g>
    </g>
    <g id="xtick_2">
     <g id="line2d_2">
      <g>
       <use xlink:href="#mb1be82396b" x="54.662344" y="83.425078" style="fill: #1a1a1a; stroke: #1a1a1a; stroke-width: 0.8"/>
      </g>
     </g>
     <g id="text_2">
      <!-- 100 -->
      <g style="fill: #1a1a1a" transform="translate(48.341016 92.263672) scale(0.07 -0.07)">
       <defs>
        <path id="Menlo-Regular-31" d="M 844 528 
L 1825 528 
L 1825 4053 
L 650 3488 
L 650 4094 
L 1819 4650 
L 2450 4650 
L 2450 528 
L 3419 528 
L 3419 0 
L 844 0 
L 844 528 
z
" transform="scale(0.015625)"/>
       </defs>
       <use xlink:href="#Menlo-Regular-31"/>
       <use xlink:href="#Menlo-Regular-30" transform="translate(60.205078 0)"/>
       <use xlink:href="#Menlo-Regular-30" transform="translate(120.410156 0)"/>
      </g>
     </g>
    </g>
    <g id="xtick_3">
     <g id="line2d_3">
      <g>
       <use xlink:href="#mb1be82396b" x="87.982969" y="83.425078" style="fill: #1a1a1a; stroke: #1a1a1a; stroke-width: 0.8"/>
      </g>
     </g>
     <g id="text_3">
      <!-- 200 -->
      <g style="fill: #1a1a1a" transform="translate(81.661641 92.263672) scale(0.07 -0.07)">
       <defs>
        <path id="Menlo-Regular-32" d="M 1166 531 
L 3309 531 
L 3309 0 
L 475 0 
L 475 531 
Q 1059 1147 1496 1619 
Q 1934 2091 2100 2284 
Q 2413 2666 2522 2902 
Q 2631 3138 2631 3384 
Q 2631 3775 2401 3997 
Q 2172 4219 1772 4219 
Q 1488 4219 1175 4116 
Q 863 4013 513 3803 
L 513 4441 
Q 834 4594 1145 4672 
Q 1456 4750 1759 4750 
Q 2444 4750 2861 4386 
Q 3278 4022 3278 3431 
Q 3278 3131 3139 2831 
Q 3000 2531 2688 2169 
Q 2513 1966 2180 1606 
Q 1847 1247 1166 531 
z
" transform="scale(0.015625)"/>
       </defs>
       <use xlink:href="#Menlo-Regular-32"/>
       <use xlink:href="#Menlo-Regular-30" transform="translate(60.205078 0)"/>
       <use xlink:href="#Menlo-Regular-30" transform="translate(120.410156 0)"/>
      </g>
     </g>
    </g>
    <g id="xtick_4">
     <g id="line2d_4">
      <g>
       <use xlink:href="#mb1be82396b" x="121.303594" y="83.425078" style="fill: #1a1a1a; stroke: #1a1a1a; stroke-width: 0.8"/>
      </g>
     </g>
     <g id="text_4">
      <!-- 300 -->
      <g style="fill: #1a1a1a" transform="translate(114.982266 92.263672) scale(0.07 -0.07)">
       <defs>
        <path id="Menlo-Regular-33" d="M 2425 2497 
Q 2884 2375 3128 2064 
Q 3372 1753 3372 1288 
Q 3372 644 2939 276 
Q 2506 -91 1741 -91 
Q 1419 -91 1084 -31 
Q 750 28 428 141 
L 428 769 
Q 747 603 1056 522 
Q 1366 441 1672 441 
Q 2191 441 2469 675 
Q 2747 909 2747 1350 
Q 2747 1756 2469 1995 
Q 2191 2234 1716 2234 
L 1234 2234 
L 1234 2753 
L 1716 2753 
Q 2150 2753 2394 2943 
Q 2638 3134 2638 3475 
Q 2638 3834 2411 4026 
Q 2184 4219 1766 4219 
Q 1488 4219 1191 4156 
Q 894 4094 569 3969 
L 569 4550 
Q 947 4650 1242 4700 
Q 1538 4750 1766 4750 
Q 2447 4750 2855 4408 
Q 3263 4066 3263 3500 
Q 3263 3116 3048 2859 
Q 2834 2603 2425 2497 
z
" transform="scale(0.015625)"/>
       </defs>
       <use xlink:href="#Menlo-Regular-33"/>
       <use xlink:href="#Menlo-Regular-30" transform="translate(60.205078 0)"/>
       <use xlink:href="#Menlo-Regular-30" transform="translate(120.410156 0)"/>
      </g>
     </g>
    </g>
    <g id="xtick_5">
     <g id="line2d_5">
      <g>
       <use xlink:href="#mb1be82396b" x="154.624219" y="83.425078" style="fill: #1a1a1a; stroke: #1a1a1a; stroke-width: 0.8"/>
      </g>
     </g>
     <g id="text_5">
      <!-- 400 -->
      <g style="fill: #1a1a1a" transform="translate(148.302891 92.263672) scale(0.07 -0.07)">
       <defs>
        <path id="Menlo-Regular-34" d="M 2297 4091 
L 825 1625 
L 2297 1625 
L 2297 4091 
z
M 2194 4666 
L 2925 4666 
L 2925 1625 
L 3547 1625 
L 3547 1113 
L 2925 1113 
L 2925 0 
L 2297 0 
L 2297 1113 
L 319 1113 
L 319 1709 
L 2194 4666 
z
" transform="scale(0.015625)"/>
       </defs>
       <use xlink:href="#Menlo-Regular-34"/>
       <use xlink:href="#Menlo-Regular-30" transform="translate(60.205078 0)"/>
       <use xlink:href="#Menlo-Regular-30" transform="translate(120.410156 0)"/>
      </g>
     </g>
    </g>
    <g id="text_6">
     <!-- time (ms) -->
     <g style="fill: #1a1a1a" transform="translate(66.309844 103.820703) scale(0.08 -0.08)">
      <defs>
       <path id="Menlo-Regular-74" d="M 1919 4494 
L 1919 3500 
L 3225 3500 
L 3225 3053 
L 1919 3053 
L 1919 1153 
Q 1919 766 2066 612 
Q 2213 459 2578 459 
L 3225 459 
L 3225 0 
L 2522 0 
Q 1875 0 1609 259 
Q 1344 519 1344 1153 
L 1344 3053 
L 409 3053 
L 409 3500 
L 1344 3500 
L 1344 4494 
L 1919 4494 
z
" transform="scale(0.015625)"/>
       <path id="Menlo-Regular-69" d="M 988 3488 
L 2459 3488 
L 2459 447 
L 3600 447 
L 3600 0 
L 744 0 
L 744 447 
L 1884 447 
L 1884 3041 
L 988 3041 
L 988 3488 
z
M 1884 4847 
L 2459 4847 
L 2459 4122 
L 1884 4122 
L 1884 4847 
z
" transform="scale(0.015625)"/>
       <path id="Menlo-Regular-6d" d="M 2113 3144 
Q 2219 3369 2383 3476 
Q 2547 3584 2778 3584 
Q 3200 3584 3373 3257 
Q 3547 2931 3547 2028 
L 3547 0 
L 3022 0 
L 3022 2003 
Q 3022 2744 2939 2923 
Q 2856 3103 2638 3103 
Q 2388 3103 2295 2911 
Q 2203 2719 2203 2003 
L 2203 0 
L 1678 0 
L 1678 2003 
Q 1678 2753 1589 2928 
Q 1500 3103 1269 3103 
Q 1041 3103 952 2911 
Q 863 2719 863 2003 
L 863 0 
L 341 0 
L 341 3500 
L 863 3500 
L 863 3200 
Q 966 3388 1120 3486 
Q 1275 3584 1472 3584 
Q 1709 3584 1867 3475 
Q 2025 3366 2113 3144 
z
" transform="scale(0.015625)"/>
       <path id="Menlo-Regular-65" d="M 3500 2038 
L 3500 1756 
L 1009 1756 
L 1009 1738 
Q 984 1022 1282 709 
Q 1581 397 2125 397 
Q 2400 397 2700 484 
Q 3000 572 3341 750 
L 3341 178 
Q 3013 44 2708 -23 
Q 2403 -91 2119 -91 
Q 1303 -91 843 398 
Q 384 888 384 1747 
Q 384 2584 834 3084 
Q 1284 3584 2034 3584 
Q 2703 3584 3089 3131 
Q 3475 2678 3500 2038 
z
M 2925 2206 
Q 2888 2569 2661 2833 
Q 2434 3097 2009 3097 
Q 1594 3097 1325 2822 
Q 1056 2547 1031 2203 
L 2925 2206 
z
" transform="scale(0.015625)"/>
       <path id="Menlo-Regular-20" transform="scale(0.015625)"/>
       <path id="Menlo-Regular-28" d="M 2672 5169 
Q 2256 4456 2051 3748 
Q 1847 3041 1847 2322 
Q 1847 1606 2051 897 
Q 2256 188 2672 -531 
L 2172 -531 
Q 1700 213 1469 917 
Q 1238 1622 1238 2322 
Q 1238 3019 1469 3725 
Q 1700 4431 2172 5169 
L 2672 5169 
z
" transform="scale(0.015625)"/>
       <path id="Menlo-Regular-73" d="M 3041 3378 
L 3041 2816 
Q 2794 2959 2544 3031 
Q 2294 3103 2034 3103 
Q 1644 3103 1451 2976 
Q 1259 2850 1259 2591 
Q 1259 2356 1403 2240 
Q 1547 2125 2119 2016 
L 2350 1972 
Q 2778 1891 2998 1647 
Q 3219 1403 3219 1013 
Q 3219 494 2850 201 
Q 2481 -91 1825 -91 
Q 1566 -91 1281 -36 
Q 997 19 666 128 
L 666 722 
Q 988 556 1281 473 
Q 1575 391 1838 391 
Q 2219 391 2428 545 
Q 2638 700 2638 978 
Q 2638 1378 1872 1531 
L 1847 1538 
L 1631 1581 
Q 1134 1678 906 1908 
Q 678 2138 678 2534 
Q 678 3038 1018 3311 
Q 1359 3584 1991 3584 
Q 2272 3584 2531 3532 
Q 2791 3481 3041 3378 
z
" transform="scale(0.015625)"/>
       <path id="Menlo-Regular-29" d="M 1088 5169 
L 1588 5169 
Q 2059 4431 2290 3725 
Q 2522 3019 2522 2322 
Q 2522 1619 2290 912 
Q 2059 206 1588 -531 
L 1088 -531 
Q 1503 194 1708 903 
Q 1913 1613 1913 2322 
Q 1913 3034 1708 3743 
Q 1503 4453 1088 5169 
z
" transform="scale(0.015625)"/>
      </defs>
      <use xlink:href="#Menlo-Regular-74"/>
      <use xlink:href="#Menlo-Regular-69" transform="translate(60.205078 0)"/>
      <use xlink:href="#Menlo-Regular-6d" transform="translate(120.410156 0)"/>
      <use xlink:href="#Menlo-Regular-65" transform="translate(180.615234 0)"/>
      <use xlink:href="#Menlo-Regular-20" transform="translate(240.820312 0)"/>
      <use xlink:href="#Menlo-Regular-28" transform="translate(301.025391 0)"/>
      <use xlink:href="#Menlo-Regular-6d" transform="translate(361.230469 0)"/>
      <use xlink:href="#Menlo-Regular-73" transform="translate(421.435547 0)"/>
      <use xlink:href="#Menlo-Regular-29" transform="translate(481.640625 0)"/>
     </g>
    </g>
   </g>
   <g id="matplotlib.axis_2">
    <g id="ytick_1">
     <g id="line2d_6">
      <defs>
       <path id="mebe2f640ba" d="M 0 0 
L 3 0 
" style="stroke: #1a1a1a; stroke-width: 0.8"/>
      </defs>
      <g>
       <use xlink:href="#mebe2f640ba" x="21.341719" y="80.28326" style="fill: #1a1a1a; stroke: #1a1a1a; stroke-width: 0.8"/>
      </g>
     </g>
     <g id="text_7">
      <!-- 0 -->
      <g style="fill: #1a1a1a" transform="translate(13.6275 82.952557) scale(0.07 -0.07)">
       <use xlink:href="#Menlo-Regular-30"/>
      </g>
     </g>
    </g>
    <g id="ytick_2">
     <g id="line2d_7">
      <g>
       <use xlink:href="#mebe2f640ba" x="21.341719" y="57.951861" style="fill: #1a1a1a; stroke: #1a1a1a; stroke-width: 0.8"/>
      </g>
     </g>
     <g id="text_8">
      <!-- 1 -->
      <g style="fill: #1a1a1a" transform="translate(13.6275 60.621158) scale(0.07 -0.07)">
       <use xlink:href="#Menlo-Regular-31"/>
      </g>
     </g>
    </g>
    <g id="ytick_3">
     <g id="line2d_8">
      <g>
       <use xlink:href="#mebe2f640ba" x="21.341719" y="35.620462" style="fill: #1a1a1a; stroke: #1a1a1a; stroke-width: 0.8"/>
      </g>
     </g>
     <g id="text_9">
      <!-- 2 -->
      <g style="fill: #1a1a1a" transform="translate(13.6275 38.289759) scale(0.07 -0.07)">
       <use xlink:href="#Menlo-Regular-32"/>
      </g>
     </g>
    </g>
    <g id="text_10">
     <!-- g  [µS] -->
     <g style="fill: #1a1a1a" transform="translate(7.90875 65.721953) rotate(-90) scale(0.08 -0.08)">
      <defs>
       <path id="Menlo-Regular-67" d="M 2681 1778 
Q 2681 2425 2470 2761 
Q 2259 3097 1856 3097 
Q 1434 3097 1212 2761 
Q 991 2425 991 1778 
Q 991 1131 1214 792 
Q 1438 453 1863 453 
Q 2259 453 2470 793 
Q 2681 1134 2681 1778 
z
M 3256 225 
Q 3256 -563 2884 -969 
Q 2513 -1375 1791 -1375 
Q 1553 -1375 1293 -1331 
Q 1034 -1288 775 -1203 
L 775 -634 
Q 1081 -778 1331 -847 
Q 1581 -916 1791 -916 
Q 2256 -916 2468 -662 
Q 2681 -409 2681 141 
L 2681 166 
L 2681 556 
Q 2544 263 2306 119 
Q 2069 -25 1728 -25 
Q 1116 -25 750 465 
Q 384 956 384 1778 
Q 384 2603 750 3093 
Q 1116 3584 1728 3584 
Q 2066 3584 2300 3450 
Q 2534 3316 2681 3034 
L 2681 3488 
L 3256 3488 
L 3256 225 
z
" transform="scale(0.015625)"/>
       <path id="Menlo-Regular-5b" d="M 1759 5175 
L 3084 5175 
L 3084 4728 
L 2334 4728 
L 2334 -84 
L 3084 -84 
L 3084 -531 
L 1759 -531 
L 1759 5175 
z
" transform="scale(0.015625)"/>
       <path id="Menlo-Regular-b5" d="M 609 -1338 
L 609 3500 
L 1184 3500 
L 1184 1325 
Q 1184 881 1371 645 
Q 1559 409 1906 409 
Q 2303 409 2504 675 
Q 2706 941 2706 1459 
L 2706 3500 
L 3284 3500 
L 3284 800 
Q 3284 616 3334 528 
Q 3384 441 3488 441 
Q 3516 441 3561 456 
Q 3606 472 3694 513 
L 3694 50 
Q 3575 -22 3469 -56 
Q 3363 -91 3256 -91 
Q 3063 -91 2945 32 
Q 2828 156 2791 403 
Q 2647 153 2439 31 
Q 2231 -91 1953 -91 
Q 1666 -91 1467 28 
Q 1269 147 1131 397 
L 1131 -1338 
L 609 -1338 
z
" transform="scale(0.015625)"/>
       <path id="Menlo-Regular-53" d="M 3163 4506 
L 3163 3866 
Q 2875 4050 2586 4144 
Q 2297 4238 2003 4238 
Q 1556 4238 1297 4030 
Q 1038 3822 1038 3469 
Q 1038 3159 1208 2996 
Q 1378 2834 1844 2725 
L 2175 2650 
Q 2831 2497 3131 2169 
Q 3431 1841 3431 1275 
Q 3431 609 3018 259 
Q 2606 -91 1819 -91 
Q 1491 -91 1159 -20 
Q 828 50 494 191 
L 494 863 
Q 853 634 1173 528 
Q 1494 422 1819 422 
Q 2297 422 2562 636 
Q 2828 850 2828 1234 
Q 2828 1584 2645 1768 
Q 2463 1953 2009 2053 
L 1672 2131 
Q 1022 2278 728 2575 
Q 434 2872 434 3372 
Q 434 3997 854 4373 
Q 1275 4750 1972 4750 
Q 2241 4750 2537 4689 
Q 2834 4628 3163 4506 
z
" transform="scale(0.015625)"/>
       <path id="Menlo-Regular-5d" d="M 2250 5175 
L 2250 -531 
L 925 -531 
L 925 -84 
L 1675 -84 
L 1675 4728 
L 925 4728 
L 925 5175 
L 2250 5175 
z
" transform="scale(0.015625)"/>
      </defs>
      <use xlink:href="#Menlo-Regular-67"/>
      <use xlink:href="#Menlo-Regular-20" transform="translate(60.205078 0)"/>
      <use xlink:href="#Menlo-Regular-20" transform="translate(120.410156 0)"/>
      <use xlink:href="#Menlo-Regular-5b" transform="translate(180.615234 0)"/>
      <use xlink:href="#Menlo-Regular-b5" transform="translate(240.820312 0)"/>
      <use xlink:href="#Menlo-Regular-53" transform="translate(301.025391 0)"/>
      <use xlink:href="#Menlo-Regular-5d" transform="translate(361.230469 0)"/>
     </g>
    </g>
   </g>
   <g id="line2d_9">
    <path d="M 21.341719 80.28326 
L 21.42502 79.285657 
L 21.508322 79.402879 
L 21.674925 79.597618 
L 21.758227 78.879122 
L 21.841528 79.044113 
L 22.341338 79.697928 
L 22.841147 80.006769 
L 22.924448 77.961172 
L 23.00775 78.234025 
L 23.091052 77.66892 
L 23.174353 77.976113 
L 23.257655 77.37707 
L 23.674163 78.727689 
L 24.09067 79.450623 
L 24.59048 79.88995 
L 24.840384 80.012942 
L 24.923686 79.174566 
L 25.006988 79.304841 
L 25.423495 79.75955 
L 25.506797 78.540951 
L 25.590098 78.745678 
L 25.840003 79.226496 
L 25.923305 78.541771 
L 26.006606 78.746401 
L 26.423114 79.460639 
L 26.506416 77.737503 
L 26.589717 78.036637 
L 26.75632 78.533588 
L 26.839622 77.940119 
L 27.25613 79.029067 
L 27.339431 79.176438 
L 27.506034 77.696923 
L 27.589336 78.000826 
L 27.672638 77.414036 
L 28.005844 78.542988 
L 28.089145 77.948414 
L 28.255748 78.46488 
L 28.33905 77.808406 
L 28.422352 78.099209 
L 28.505653 77.633536 
L 28.922161 78.864965 
L 29.338669 79.524101 
L 29.838478 79.924659 
L 30.088383 80.036797 
L 30.171684 79.259861 
L 30.254986 79.380114 
L 30.754795 79.856644 
L 30.921398 79.951011 
L 31.0047 78.910644 
L 31.088002 79.071931 
L 31.587811 79.711069 
L 32.170922 80.044735 
L 33.003937 80.214921 
L 33.420445 80.246681 
L 33.503747 79.253376 
L 33.587048 79.374391 
L 34.003556 79.796777 
L 34.086858 78.846493 
L 34.170159 79.015317 
L 34.253461 79.164305 
L 34.336762 78.072683 
L 34.420064 78.332432 
L 34.75327 79.100023 
L 34.836572 78.368918 
L 34.919873 78.593859 
L 35.086477 78.967553 
L 35.169778 77.89905 
L 35.25308 78.179202 
L 35.336381 77.869152 
L 35.502984 78.403151 
L 35.669587 77.094686 
L 35.836191 77.799996 
L 35.919492 77.094185 
L 36.336 78.576271 
L 36.419302 78.776848 
L 36.835809 76.959986 
L 37.252317 78.50444 
L 37.668825 79.331126 
L 38.085333 79.77362 
L 38.335238 78.511619 
L 38.751745 79.334969 
L 38.918348 79.54473 
L 39.00165 78.81916 
L 39.084952 78.991197 
L 39.251555 79.277 
L 39.418158 77.791609 
L 39.668063 78.570775 
L 39.751364 78.049692 
L 40.167872 79.087717 
L 40.251173 78.230595 
L 40.334475 78.471789 
L 40.417777 78.684643 
L 40.58438 77.345525 
L 40.667681 77.690718 
L 40.750983 76.772247 
L 40.917586 77.54888 
L 41.000888 76.140426 
L 41.250792 77.435934 
L 41.334094 76.772901 
L 41.750602 78.4043 
L 42.167109 79.277525 
L 42.250411 78.495754 
L 42.333713 78.705792 
L 42.75022 79.438902 
L 43.25003 79.884414 
L 43.916442 80.136533 
L 44.582855 80.229282 
L 44.666156 79.426726 
L 44.749458 79.527371 
L 45.249267 79.926203 
L 45.332569 79.968159 
L 45.499172 78.47433 
L 45.91568 79.31501 
L 46.248886 79.695986 
L 46.332188 78.742804 
L 46.415489 78.923812 
L 46.748695 79.458713 
L 46.831997 78.476193 
L 46.915298 78.688529 
L 46.9986 78.875915 
L 47.081902 78.171142 
L 47.498409 79.152725 
L 47.665013 79.402798 
L 47.748314 78.78395 
L 47.831616 78.960124 
L 48.331425 79.658255 
L 48.58133 79.853701 
L 48.664631 78.881986 
L 48.747933 79.04664 
L 48.914536 79.32018 
L 49.081139 77.957903 
L 49.247742 78.47227 
L 49.331044 76.914979 
L 49.414345 77.310763 
L 49.830853 78.692197 
L 50.247361 79.431625 
L 50.330663 79.531695 
L 50.413964 78.396903 
L 50.497266 78.618556 
L 50.913773 79.392208 
L 50.997075 79.49691 
L 51.080377 78.719168 
L 51.163678 78.902954 
L 51.580186 79.544435 
L 52.079995 79.934264 
L 52.163297 78.752169 
L 52.246598 78.932077 
L 52.663106 79.560024 
L 52.746408 78.647404 
L 52.829709 78.839622 
L 52.913011 79.009254 
L 52.996313 78.359892 
L 53.41282 79.253755 
L 53.496122 78.65242 
L 53.579423 78.844049 
L 53.662725 79.013161 
L 53.746027 77.550991 
L 53.829328 77.872041 
L 53.995931 78.405401 
L 54.079233 77.603866 
L 54.162534 77.918703 
L 54.245836 76.973443 
L 54.662344 78.511643 
L 54.912248 79.065646 
L 54.99555 77.928584 
L 55.078852 78.205265 
L 55.245455 76.482702 
L 55.661963 78.248968 
L 55.995169 79.049399 
L 56.07847 77.914246 
L 56.161772 78.192612 
L 56.328375 78.655062 
L 56.411677 77.991398 
L 56.494978 78.260699 
L 56.57828 77.699294 
L 56.994788 78.900163 
L 57.411295 79.542941 
L 57.494597 79.629931 
L 57.577898 78.851717 
L 57.6612 79.019927 
L 58.161009 79.686504 
L 58.327613 79.818506 
L 58.410914 78.850927 
L 58.494216 79.019231 
L 58.994025 79.686175 
L 59.24393 79.87289 
L 59.327231 79.066127 
L 59.410533 79.209144 
L 59.493834 78.613051 
L 59.577136 78.809305 
L 59.910342 79.389261 
L 59.993644 78.594361 
L 60.076945 78.792812 
L 60.243548 79.122498 
L 60.32685 78.261288 
L 60.410152 78.498876 
L 60.493453 77.701099 
L 60.576755 78.004511 
L 60.909961 76.819631 
L 61.326469 78.429313 
L 61.576373 79.009062 
L 61.659675 78.601501 
L 62.076183 79.38308 
L 62.159484 78.265751 
L 62.242786 78.502814 
L 62.659294 79.330256 
L 62.742595 79.442237 
L 62.825897 78.741998 
L 62.909198 78.923101 
L 63.325706 79.55522 
L 63.658912 79.841681 
L 63.742214 78.613432 
L 63.825516 78.809642 
L 64.242023 79.494489 
L 64.57523 79.804846 
L 64.658531 78.29633 
L 64.741833 78.529801 
L 64.991737 79.078126 
L 65.075039 78.212285 
L 65.158341 78.455631 
L 65.241642 77.871322 
L 65.65815 78.992243 
L 66.157959 79.673427 
L 66.241261 78.845136 
L 66.324562 79.01412 
L 66.824372 79.683761 
L 66.907673 79.754204 
L 66.990975 78.94623 
L 67.074277 79.103335 
L 67.24088 79.364333 
L 67.324181 78.673249 
L 67.407483 78.86243 
L 67.490784 79.029382 
L 67.574086 78.179114 
L 67.657387 78.426357 
L 68.073895 79.289332 
L 68.573705 79.813762 
L 68.906911 79.998495 
L 68.990212 79.176973 
L 69.073514 79.306965 
L 69.573323 79.822091 
L 69.739927 79.924101 
L 69.823228 78.968701 
L 69.90653 79.123165 
L 70.323037 79.662306 
L 70.406339 79.012965 
L 70.489641 79.162229 
L 70.739545 79.512787 
L 70.906148 78.04818 
L 70.98945 78.310809 
L 71.405958 79.227483 
L 71.489259 78.539191 
L 71.572561 78.744125 
L 71.822466 76.878343 
L 72.238973 78.460739 
L 72.655481 79.307735 
L 72.738783 78.424759 
L 72.822084 78.643139 
L 72.905386 78.113553 
L 73.071989 78.593491 
L 73.238592 77.223214 
L 73.405195 77.900094 
L 73.571798 76.72583 
L 73.6551 77.143839 
L 73.738402 75.851852 
L 73.905005 76.832076 
L 74.071608 76.105275 
L 74.488116 78.046946 
L 74.904623 79.086247 
L 75.071227 77.517099 
L 75.154528 77.842131 
L 75.321131 78.382107 
L 75.404433 77.325362 
L 75.487734 77.672924 
L 75.820941 78.700012 
L 75.904242 77.662945 
L 75.987544 77.970841 
L 76.070845 77.436661 
L 76.154147 77.771145 
L 76.237448 77.044137 
L 76.487353 78.057046 
L 76.570655 77.596328 
L 76.987162 78.845049 
L 77.320369 79.410941 
L 77.40367 78.956158 
L 77.486972 79.112097 
L 77.986781 79.730042 
L 78.569892 80.052644 
L 78.653194 80.079742 
L 78.819797 78.510231 
L 78.9864 78.902424 
L 79.069702 78.252327 
L 79.486209 79.19618 
L 79.569511 78.468933 
L 79.652812 78.682122 
L 80.06932 79.426233 
L 80.235923 78.095707 
L 80.652431 79.112347 
L 80.735733 79.249933 
L 80.902336 77.590675 
L 80.985637 77.907062 
L 81.068939 77.387212 
L 81.485447 78.733117 
L 81.901955 79.453528 
L 81.985256 79.551024 
L 82.068558 78.737116 
L 82.151859 78.918793 
L 82.235161 79.079122 
L 82.318462 78.213164 
L 82.401764 78.456407 
L 82.568367 78.860505 
L 82.651669 78.221787 
L 82.901573 78.866432 
L 82.984875 78.177931 
L 83.068177 78.425314 
L 83.23478 77.034641 
L 83.567986 78.312873 
L 83.651287 77.67426 
L 83.817891 78.251369 
L 84.067795 76.632706 
L 84.401002 78.069087 
L 84.484303 77.106157 
L 84.900811 78.582679 
L 85.317319 79.373005 
L 85.483922 79.574352 
L 85.567223 78.845302 
L 85.650525 79.014267 
L 85.90043 79.411094 
L 85.983731 78.515974 
L 86.067033 78.723635 
L 86.150334 78.906896 
L 86.233636 78.269562 
L 86.400239 78.71499 
L 86.483541 78.176962 
L 86.900048 79.15584 
L 87.399858 79.750704 
L 87.649762 79.91724 
L 87.733064 78.240341 
L 87.816366 78.48039 
L 87.982969 78.879184 
L 88.06627 78.174027 
L 88.482778 79.154269 
L 88.56608 79.286929 
L 88.649381 78.846718 
L 88.732683 79.015516 
L 88.815984 78.355581 
L 88.899286 78.58209 
L 89.315794 79.372689 
L 89.815603 79.853137 
L 89.982206 79.94828 
L 90.232111 78.164068 
L 90.648619 79.148938 
L 91.148428 79.747444 
L 91.23173 79.810404 
L 91.315031 79.066905 
L 91.398333 79.20983 
L 91.564936 79.447272 
L 91.648237 78.739607 
L 91.731539 78.920991 
L 92.148047 79.55409 
L 92.397952 79.782109 
L 92.481253 78.941048 
L 92.564555 79.098762 
L 93.064364 79.723743 
L 93.647475 80.050019 
L 94.230586 80.18603 
L 94.397189 78.492634 
L 94.480491 78.703038 
L 94.813697 79.324807 
L 94.9803 77.756487 
L 95.396808 78.930776 
L 95.480109 79.089697 
L 95.563411 78.672661 
L 95.813316 79.176313 
L 95.896617 78.584077 
L 95.979919 78.783737 
L 96.396427 79.480623 
L 96.646331 79.731616 
L 96.729633 78.984087 
L 96.812934 79.136744 
L 97.312744 79.741684 
L 97.562648 76.813884 
L 97.895855 78.178977 
L 98.062458 77.072565 
L 98.478966 78.564699 
L 98.895473 79.36338 
L 99.395283 79.84874 
L 99.811791 80.050678 
L 100.061695 77.694087 
L 100.3116 78.503749 
L 100.394902 77.857865 
L 100.811409 78.98504 
L 100.894711 79.137584 
L 101.061314 77.08852 
L 101.227917 77.795194 
L 101.311219 77.365244 
L 101.727727 78.721359 
L 101.811028 77.907284 
L 101.89433 78.186469 
L 101.977631 77.710543 
L 102.310837 78.722828 
L 102.394139 78.107123 
L 102.810647 79.118458 
L 102.893948 79.255326 
L 103.060552 77.306447 
L 103.393758 78.477732 
L 103.477059 76.868636 
L 103.560361 77.269865 
L 103.726964 77.936426 
L 103.810266 77.40629 
L 103.893567 77.744343 
L 103.976869 77.236778 
L 104.393377 78.652595 
L 104.809884 79.410428 
L 105.309694 79.870963 
L 105.559598 79.999893 
L 105.6429 78.33418 
L 105.726202 78.563203 
L 105.892805 78.943678 
L 105.976106 77.479836 
L 106.059408 77.809247 
L 106.142709 78.099951 
L 106.226011 77.501514 
L 106.392614 78.116834 
L 106.475916 77.373793 
L 106.559217 77.715664 
L 106.642519 76.737229 
L 106.892423 77.846111 
L 106.975725 76.597829 
L 107.142328 77.413044 
L 107.22563 76.951242 
L 107.475534 77.9932 
L 107.558836 77.705006 
L 107.808741 78.511254 
L 108.058645 76.851952 
L 108.225248 75.896456 
L 108.641756 77.935173 
L 108.725058 77.213478 
L 109.058264 78.421343 
L 109.141566 77.917819 
L 109.558073 79.017131 
L 109.641375 79.165905 
L 109.724677 78.427058 
L 109.807978 78.645167 
L 110.141184 79.289707 
L 110.224486 78.594103 
L 110.307787 78.792584 
L 110.724295 79.485359 
L 110.807597 79.579115 
L 110.890898 78.862792 
L 110.9742 79.029702 
L 111.474009 79.691121 
L 111.723914 79.876289 
L 111.890517 78.214188 
L 111.973819 78.457311 
L 112.223723 79.028305 
L 112.307025 78.178163 
L 112.390327 78.425518 
L 112.806834 79.288883 
L 112.890136 79.405725 
L 112.973437 77.698886 
L 113.056739 78.002558 
L 113.473247 79.062488 
L 113.973056 79.706608 
L 114.556167 80.042876 
L 114.972675 80.154592 
L 115.139278 78.432532 
L 115.555786 79.292637 
L 115.639087 79.409038 
L 115.722389 78.656779 
L 115.805691 78.847896 
L 115.888992 79.016555 
L 116.138897 77.882749 
L 116.388802 78.633414 
L 116.472103 78.104971 
L 116.805309 78.962061 
L 116.888611 78.109858 
L 116.971912 78.36524 
L 117.305119 79.119922 
L 117.38842 78.699335 
L 117.804928 79.435446 
L 118.138134 79.769035 
L 118.221436 79.017109 
L 118.304737 79.165885 
L 118.804547 79.75545 
L 118.97115 79.872201 
L 119.054452 79.12144 
L 119.137753 79.257958 
L 119.637562 79.798941 
L 120.137372 80.054484 
L 120.220673 79.359061 
L 120.303975 79.467657 
L 120.803784 79.897997 
L 121.470197 80.141529 
L 121.720102 80.18585 
L 121.803403 79.384947 
L 121.886705 79.490501 
L 121.970006 79.583653 
L 122.053308 79.108576 
L 122.136609 79.246605 
L 122.469816 79.654497 
L 122.71972 78.517157 
L 122.803022 78.72468 
L 122.886323 76.662526 
L 122.969625 77.087974 
L 123.302831 78.345221 
L 123.386133 77.850641 
L 123.636037 78.611347 
L 123.719339 77.8102 
L 123.885942 78.357239 
L 123.969244 77.576104 
L 124.385752 78.834224 
L 124.718958 79.404375 
L 124.802259 77.928175 
L 124.885561 78.204905 
L 125.302069 79.170797 
L 125.38537 79.301515 
L 125.468672 78.19377 
L 125.551973 78.439292 
L 125.801878 79.01592 
L 125.88518 78.167234 
L 125.968481 78.415873 
L 126.384989 79.28372 
L 126.884798 79.811111 
L 127.301306 80.030537 
L 127.384608 79.254336 
L 127.467909 79.375238 
L 127.551211 79.481933 
L 127.634512 78.705952 
L 127.717814 78.891291 
L 127.884417 79.199193 
L 128.05102 77.681927 
L 128.384227 78.705471 
L 128.467528 78.020727 
L 128.884036 79.072213 
L 129.383845 79.711202 
L 129.966956 80.044791 
L 130.133559 80.09754 
L 130.300162 78.64842 
L 130.71667 79.408193 
L 130.966575 79.681836 
L 131.049877 78.730316 
L 131.133178 78.912792 
L 131.549686 79.549701 
L 132.049495 79.936751 
L 132.466003 80.097787 
L 132.549305 79.097392 
L 132.632606 79.236735 
L 132.799209 79.468226 
L 132.882511 78.541806 
L 132.965812 78.746432 
L 133.38232 79.460655 
L 133.88213 79.894689 
L 134.548542 80.140313 
L 134.96505 80.206746 
L 135.048352 79.315788 
L 135.131653 79.429469 
L 135.464859 79.76541 
L 135.631462 78.322124 
L 136.04797 79.233539 
L 136.297875 79.561798 
L 136.381177 78.639124 
L 136.464478 78.832315 
L 136.54778 79.002806 
L 136.631081 77.076253 
L 136.714383 77.453086 
L 136.880986 78.079119 
L 136.964288 77.115009 
L 137.130891 77.815824 
L 137.214192 77.306694 
L 137.6307 78.690019 
L 137.880605 79.188243 
L 138.130509 76.91798 
L 138.547017 78.481956 
L 138.630319 77.614207 
L 139.046827 78.854619 
L 139.130128 78.216593 
L 139.380033 78.862862 
L 139.463334 78.03216 
L 139.546636 78.296671 
L 139.963144 79.219916 
L 140.462953 79.780972 
L 141.046064 80.073875 
L 141.129366 80.098478 
L 141.212667 77.543116 
L 141.295969 77.865091 
L 141.629175 78.816567 
L 141.712477 77.98146 
L 141.795778 78.251928 
L 141.962381 78.701257 
L 142.045683 78.017008 
L 142.295588 78.725689 
L 142.378889 78.102813 
L 142.795397 79.116151 
L 143.045302 79.481118 
L 143.211905 77.664565 
L 143.295206 77.97227 
L 143.711714 79.046276 
L 143.961619 79.433094 
L 144.04492 78.975708 
L 144.128222 79.129349 
L 144.628031 79.738191 
L 145.211142 80.056042 
L 145.877555 80.199671 
L 146.044158 77.807725 
L 146.127459 78.098608 
L 146.543967 79.1139 
L 146.960475 79.657347 
L 147.127078 77.34846 
L 147.21038 77.693308 
L 147.376983 76.721828 
L 147.793491 78.376963 
L 148.209998 79.262893 
L 148.709808 79.801273 
L 148.876411 79.907888 
L 148.959712 78.929806 
L 149.043014 79.088841 
L 149.542823 79.719057 
L 149.626125 79.785352 
L 149.709427 78.821669 
L 149.792728 78.99341 
L 150.292538 79.673978 
L 150.459141 79.808751 
L 150.542442 79.052158 
L 150.625744 79.196816 
L 150.709045 79.324477 
L 150.875648 77.976143 
L 151.292156 79.048349 
L 151.791966 79.69993 
L 152.291775 80.007714 
L 152.624981 77.710605 
L 152.791584 78.279675 
L 152.958188 76.455723 
L 153.124791 77.302371 
L 153.291394 75.271408 
L 153.374695 75.860316 
L 153.6246 77.243418 
L 153.791203 76.476628 
L 154.124409 77.974421 
L 154.207711 77.390734 
L 154.374314 78.030559 
L 154.457616 77.737975 
L 154.540917 77.029606 
L 154.540917 77.029606 
" clip-path="url(#p0a84fb8d64)" style="fill: none; stroke: #1a1a1a; stroke-width: 0.9; stroke-linejoin: miter"/>
   </g>
   <g id="line2d_10">
    <path d="M 21.341719 80.28326 
L 23.091052 80.28326 
L 23.174353 72.986909 
L 23.424258 21.869327 
L 23.507559 20.136533 
L 24.340575 34.72422 
L 25.173591 45.773886 
L 26.006606 54.143619 
L 26.839622 60.483397 
L 27.672638 65.285558 
L 28.505653 68.923027 
L 29.338669 71.678282 
L 30.254986 73.943854 
L 31.171303 75.612932 
L 32.08762 76.842565 
L 33.087239 77.817895 
L 34.170159 78.565144 
L 35.419683 79.150608 
L 36.919111 79.596272 
L 37.668825 79.748233 
L 37.752127 77.469431 
L 38.002031 20.727558 
L 38.085333 20.756735 
L 38.835047 33.35613 
L 39.668063 44.737607 
L 40.501078 53.358672 
L 41.334094 59.88883 
L 42.167109 64.835196 
L 43.000125 68.581892 
L 43.833141 71.419885 
L 44.749458 73.753489 
L 45.665775 75.472688 
L 46.582092 76.739245 
L 47.581711 77.743863 
L 48.664631 78.513551 
L 49.914155 79.116597 
L 51.413583 79.575643 
L 52.913011 79.854069 
L 52.996313 78.900277 
L 53.329519 57.331398 
L 54.162534 62.89803 
L 54.99555 67.114557 
L 55.828566 70.30843 
L 56.744883 72.934665 
L 57.6612 74.869449 
L 58.577517 76.294831 
L 59.577136 77.425427 
L 60.660056 78.291632 
L 61.826278 78.933316 
L 63.242405 79.441415 
L 63.742214 79.570654 
L 63.825516 77.226894 
L 64.158722 55.111871 
L 64.991737 61.216815 
L 65.824753 65.841098 
L 66.657769 69.343829 
L 67.490784 71.997024 
L 68.407102 74.178676 
L 69.323419 75.785929 
L 70.239736 76.970014 
L 71.239355 77.909216 
L 72.322275 78.628786 
L 73.571798 79.192564 
L 74.404814 79.457096 
L 74.488116 77.086491 
L 74.654719 17.446896 
L 74.904623 21.832489 
L 75.737639 36.008848 
L 76.570655 46.746941 
L 77.40367 54.880672 
L 78.236686 61.04169 
L 79.069702 65.708445 
L 79.902717 69.243348 
L 80.735733 71.920914 
L 81.65205 74.122605 
L 82.568367 75.74462 
L 83.484684 76.939582 
L 84.484303 77.887411 
L 85.567223 78.613589 
L 86.816747 79.182546 
L 88.316175 79.615643 
L 88.56608 79.669023 
L 88.649381 77.860952 
L 88.899286 19.928393 
L 88.982587 20.06185 
L 90.898523 48.298142 
L 91.731539 56.055656 
L 92.564555 61.9317 
L 93.39757 66.382595 
L 94.230586 69.753993 
L 95.063602 72.30771 
L 95.979919 74.407561 
L 96.896236 75.954552 
L 97.812553 77.094241 
L 98.812172 77.998229 
L 99.895092 78.690818 
L 101.144616 79.233458 
L 102.227536 79.551652 
L 102.394139 58.115777 
L 102.644044 37.381368 
L 103.143853 43.707868 
L 103.976869 52.578682 
L 104.809884 59.298013 
L 105.6429 64.387671 
L 106.475916 68.242908 
L 107.308931 71.163115 
L 108.225248 73.564324 
L 109.141566 75.333327 
L 110.057883 76.636577 
L 111.057502 77.670298 
L 112.140422 78.462283 
L 113.389945 79.082798 
L 114.806072 79.534634 
L 115.472484 79.683808 
L 115.555786 76.452027 
L 115.805691 33.289529 
L 115.888992 30.600122 
L 115.972294 30.979733 
L 116.805309 42.937568 
L 117.638325 51.995209 
L 118.471341 58.856052 
L 119.304356 64.052903 
L 120.137372 67.989333 
L 120.970387 70.971041 
L 121.886705 73.42282 
L 122.803022 75.229079 
L 123.719339 76.559775 
L 124.718958 77.615267 
L 125.801878 78.423932 
L 126.9681 79.02299 
L 128.384227 79.497337 
L 129.300544 79.70426 
L 129.383845 75.81215 
L 129.550448 18.414217 
L 129.63375 18.64869 
L 130.466766 33.597232 
L 131.299781 44.92023 
L 132.132797 53.497009 
L 132.965812 59.993612 
L 133.798828 64.914564 
L 134.631844 68.642012 
L 135.464859 71.465421 
L 136.381177 73.787037 
L 137.297494 75.497402 
L 138.213811 76.757453 
L 139.21343 77.756909 
L 140.29635 78.522643 
L 141.545873 79.12259 
L 143.045302 79.579278 
L 143.961619 79.764627 
L 144.04492 74.920299 
L 144.211523 25.541979 
L 144.294825 20.213356 
L 144.378127 20.887408 
L 144.628031 25.013103 
L 145.461047 38.418058 
L 146.294062 48.571841 
L 147.127078 56.262968 
L 147.960094 62.088732 
L 148.793109 66.501545 
L 149.626125 69.844094 
L 150.459141 72.375957 
L 151.375458 74.457841 
L 152.291775 75.991593 
L 153.208092 77.12153 
L 154.207711 78.017782 
L 154.540917 78.256021 
L 154.540917 78.256021 
" clip-path="url(#p0a84fb8d64)" style="fill: none; stroke: #c8102e; stroke-width: 0.9; stroke-linejoin: miter"/>
   </g>
   <g id="line2d_11">
    <path d="M 21.341719 79.16669 
L 154.624219 79.16669 
" clip-path="url(#p0a84fb8d64)" style="fill: none; stroke-dasharray: 0.7,1.155; stroke-dashoffset: 0; stroke: #bbbbbb; stroke-width: 0.7"/>
   </g>
   <g id="patch_3">
    <path d="M 21.341719 83.425078 
L 21.341719 14.305078 
" style="fill: none; stroke: #1a1a1a; stroke-width: 0.8; stroke-linejoin: miter; stroke-linecap: square"/>
   </g>
   <g id="patch_4">
    <path d="M 154.624219 83.425078 
L 154.624219 14.305078 
" style="fill: none; stroke: #1a1a1a; stroke-width: 0.8; stroke-linejoin: miter; stroke-linecap: square"/>
   </g>
   <g id="patch_5">
    <path d="M 21.341719 83.425078 
L 154.624219 83.425078 
" style="fill: none; stroke: #1a1a1a; stroke-width: 0.8; stroke-linejoin: miter; stroke-linecap: square"/>
   </g>
   <g id="patch_6">
    <path d="M 21.341719 14.305078 
L 154.624219 14.305078 
" style="fill: none; stroke: #1a1a1a; stroke-width: 0.8; stroke-linejoin: miter; stroke-linecap: square"/>
   </g>
   <g id="text_11">
    <!-- PING — recurrent loop active (ei-strength = 1.5) — E-neuron conductances (cell 334) -->
    <g style="fill: #1a1a1a" transform="translate(21.341719 8.305078) scale(0.085 -0.085)">
     <defs>
      <path id="Menlo-Regular-50" d="M 1247 4147 
L 1247 2394 
L 1978 2394 
Q 2416 2394 2661 2625 
Q 2906 2856 2906 3272 
Q 2906 3688 2662 3917 
Q 2419 4147 1978 4147 
L 1247 4147 
z
M 616 4666 
L 1978 4666 
Q 2759 4666 3162 4311 
Q 3566 3956 3566 3272 
Q 3566 2581 3164 2228 
Q 2763 1875 1978 1875 
L 1247 1875 
L 1247 0 
L 616 0 
L 616 4666 
z
" transform="scale(0.015625)"/>
      <path id="Menlo-Regular-49" d="M 628 4666 
L 3219 4666 
L 3219 4134 
L 2241 4134 
L 2241 531 
L 3219 531 
L 3219 0 
L 628 0 
L 628 531 
L 1606 531 
L 1606 4134 
L 628 4134 
L 628 4666 
z
" transform="scale(0.015625)"/>
      <path id="Menlo-Regular-4e" d="M 59 4650 
L 922 4650 
L 2747 822 
L 2747 4650 
L 3419 4650 
L 3419 0 
L 2556 0 
L 731 3828 
L 731 0 
L 59 0 
L 59 4650 
z
" transform="scale(0.015625)"/>
      <path id="Menlo-Regular-47" d="M 3450 384 
Q 3197 150 2880 29 
Q 2563 -91 2194 -91 
Q 1306 -91 812 545 
Q 319 1181 319 2328 
Q 319 3472 819 4111 
Q 1319 4750 2209 4750 
Q 2503 4750 2772 4667 
Q 3041 4584 3291 4416 
L 3291 3769 
Q 3038 4009 2772 4123 
Q 2506 4238 2209 4238 
Q 1594 4238 1286 3761 
Q 978 3284 978 2328 
Q 978 1356 1276 889 
Q 1575 422 2194 422 
Q 2403 422 2561 470 
Q 2719 519 2847 622 
L 2847 1875 
L 2169 1875 
L 2169 2394 
L 3450 2394 
L 3450 384 
z
" transform="scale(0.015625)"/>
      <path id="Menlo-Regular-2014" d="M 0 2259 
L 3853 2259 
L 3853 1725 
L 0 1725 
L 0 2259 
z
" transform="scale(0.015625)"/>
      <path id="Menlo-Regular-72" d="M 3609 2778 
Q 3425 2922 3234 2987 
Q 3044 3053 2816 3053 
Q 2278 3053 1993 2715 
Q 1709 2378 1709 1741 
L 1709 0 
L 1131 0 
L 1131 3500 
L 1709 3500 
L 1709 2816 
Q 1853 3188 2151 3386 
Q 2450 3584 2859 3584 
Q 3072 3584 3256 3531 
Q 3441 3478 3609 3366 
L 3609 2778 
z
" transform="scale(0.015625)"/>
      <path id="Menlo-Regular-63" d="M 3316 178 
Q 3084 44 2839 -23 
Q 2594 -91 2338 -91 
Q 1525 -91 1067 396 
Q 609 884 609 1747 
Q 609 2609 1067 3096 
Q 1525 3584 2338 3584 
Q 2591 3584 2831 3518 
Q 3072 3453 3316 3316 
L 3316 2713 
Q 3088 2916 2858 3006 
Q 2628 3097 2338 3097 
Q 1797 3097 1506 2747 
Q 1216 2397 1216 1747 
Q 1216 1100 1508 748 
Q 1800 397 2338 397 
Q 2638 397 2875 489 
Q 3113 581 3316 775 
L 3316 178 
z
" transform="scale(0.015625)"/>
      <path id="Menlo-Regular-75" d="M 609 1325 
L 609 3494 
L 1184 3494 
L 1184 1325 
Q 1184 853 1351 631 
Q 1519 409 1869 409 
Q 2275 409 2490 695 
Q 2706 981 2706 1516 
L 2706 3494 
L 3284 3494 
L 3284 0 
L 2706 0 
L 2706 525 
Q 2553 222 2289 65 
Q 2025 -91 1672 -91 
Q 1134 -91 871 261 
Q 609 613 609 1325 
z
" transform="scale(0.015625)"/>
      <path id="Menlo-Regular-6e" d="M 3284 2169 
L 3284 0 
L 2706 0 
L 2706 2169 
Q 2706 2641 2540 2862 
Q 2375 3084 2022 3084 
Q 1619 3084 1401 2798 
Q 1184 2513 1184 1978 
L 1184 0 
L 609 0 
L 609 3500 
L 1184 3500 
L 1184 2975 
Q 1338 3275 1600 3429 
Q 1863 3584 2222 3584 
Q 2756 3584 3020 3232 
Q 3284 2881 3284 2169 
z
" transform="scale(0.015625)"/>
      <path id="Menlo-Regular-6c" d="M 2247 1266 
Q 2247 878 2389 681 
Q 2531 484 2809 484 
L 3481 484 
L 3481 0 
L 2753 0 
Q 2238 0 1955 329 
Q 1672 659 1672 1266 
L 1672 4431 
L 750 4431 
L 750 4881 
L 2247 4881 
L 2247 1266 
z
" transform="scale(0.015625)"/>
      <path id="Menlo-Regular-6f" d="M 1925 3097 
Q 1488 3097 1263 2756 
Q 1038 2416 1038 1747 
Q 1038 1081 1263 739 
Q 1488 397 1925 397 
Q 2366 397 2591 739 
Q 2816 1081 2816 1747 
Q 2816 2416 2591 2756 
Q 2366 3097 1925 3097 
z
M 1925 3584 
Q 2653 3584 3039 3112 
Q 3425 2641 3425 1747 
Q 3425 850 3040 379 
Q 2656 -91 1925 -91 
Q 1197 -91 812 379 
Q 428 850 428 1747 
Q 428 2641 812 3112 
Q 1197 3584 1925 3584 
z
" transform="scale(0.015625)"/>
      <path id="Menlo-Regular-70" d="M 1172 441 
L 1172 -1331 
L 594 -1331 
L 594 3500 
L 1172 3500 
L 1172 3053 
Q 1316 3313 1555 3448 
Q 1794 3584 2106 3584 
Q 2741 3584 3102 3093 
Q 3463 2603 3463 1734 
Q 3463 881 3100 395 
Q 2738 -91 2106 -91 
Q 1788 -91 1548 45 
Q 1309 181 1172 441 
z
M 2859 1747 
Q 2859 2416 2648 2756 
Q 2438 3097 2022 3097 
Q 1603 3097 1387 2755 
Q 1172 2413 1172 1747 
Q 1172 1084 1387 740 
Q 1603 397 2022 397 
Q 2438 397 2648 737 
Q 2859 1078 2859 1747 
z
" transform="scale(0.015625)"/>
      <path id="Menlo-Regular-61" d="M 2194 1759 
L 2003 1759 
Q 1500 1759 1245 1582 
Q 991 1406 991 1056 
Q 991 741 1181 566 
Q 1372 391 1709 391 
Q 2184 391 2456 720 
Q 2728 1050 2731 1631 
L 2731 1759 
L 2194 1759 
z
M 3309 1997 
L 3309 0 
L 2731 0 
L 2731 519 
Q 2547 206 2267 57 
Q 1988 -91 1588 -91 
Q 1053 -91 734 211 
Q 416 513 416 1019 
Q 416 1603 808 1906 
Q 1200 2209 1959 2209 
L 2731 2209 
L 2731 2300 
Q 2728 2719 2518 2908 
Q 2309 3097 1850 3097 
Q 1556 3097 1256 3012 
Q 956 2928 672 2766 
L 672 3341 
Q 991 3463 1283 3523 
Q 1575 3584 1850 3584 
Q 2284 3584 2592 3456 
Q 2900 3328 3091 3072 
Q 3209 2916 3259 2686 
Q 3309 2456 3309 1997 
z
" transform="scale(0.015625)"/>
      <path id="Menlo-Regular-76" d="M 313 3500 
L 909 3500 
L 1925 563 
L 2944 3500 
L 3541 3500 
L 2297 0 
L 1556 0 
L 313 3500 
z
" transform="scale(0.015625)"/>
      <path id="Menlo-Regular-2d" d="M 319 2263 
L 3631 2263 
L 3631 1734 
L 319 1734 
L 319 2263 
z
" transform="scale(0.015625)"/>
      <path id="Menlo-Regular-68" d="M 3284 2169 
L 3284 0 
L 2706 0 
L 2706 2169 
Q 2706 2641 2540 2862 
Q 2375 3084 2022 3084 
Q 1619 3084 1401 2798 
Q 1184 2513 1184 1978 
L 1184 0 
L 609 0 
L 609 4863 
L 1184 4863 
L 1184 2975 
Q 1338 3275 1600 3429 
Q 1863 3584 2222 3584 
Q 2756 3584 3020 3232 
Q 3284 2881 3284 2169 
z
" transform="scale(0.015625)"/>
      <path id="Menlo-Regular-3d" d="M 275 1563 
L 3578 1563 
L 3578 1034 
L 275 1034 
L 275 1563 
z
M 275 3034 
L 3578 3034 
L 3578 2506 
L 275 2506 
L 275 3034 
z
" transform="scale(0.015625)"/>
      <path id="Menlo-Regular-2e" d="M 1216 1263 
L 2316 1263 
L 2316 0 
L 1216 0 
L 1216 1263 
z
" transform="scale(0.015625)"/>
      <path id="Menlo-Regular-35" d="M 647 4666 
L 3009 4666 
L 3009 4134 
L 1222 4134 
L 1222 2988 
Q 1356 3038 1492 3061 
Q 1628 3084 1766 3084 
Q 2491 3084 2916 2656 
Q 3341 2228 3341 1497 
Q 3341 759 2895 334 
Q 2450 -91 1678 -91 
Q 1306 -91 998 -41 
Q 691 9 447 109 
L 447 750 
Q 734 594 1025 517 
Q 1316 441 1619 441 
Q 2141 441 2423 716 
Q 2706 991 2706 1497 
Q 2706 1997 2414 2275 
Q 2122 2553 1600 2553 
Q 1347 2553 1106 2495 
Q 866 2438 647 2322 
L 647 4666 
z
" transform="scale(0.015625)"/>
      <path id="Menlo-Regular-45" d="M 616 4666 
L 3384 4666 
L 3384 4134 
L 1247 4134 
L 1247 2878 
L 3291 2878 
L 3291 2347 
L 1247 2347 
L 1247 531 
L 3444 531 
L 3444 0 
L 616 0 
L 616 4666 
z
" transform="scale(0.015625)"/>
      <path id="Menlo-Regular-64" d="M 2681 3053 
L 2681 4863 
L 3256 4863 
L 3256 0 
L 2681 0 
L 2681 441 
Q 2538 181 2298 45 
Q 2059 -91 1747 -91 
Q 1113 -91 748 401 
Q 384 894 384 1759 
Q 384 2613 750 3098 
Q 1116 3584 1747 3584 
Q 2063 3584 2303 3448 
Q 2544 3313 2681 3053 
z
M 991 1747 
Q 991 1078 1203 737 
Q 1416 397 1831 397 
Q 2247 397 2464 740 
Q 2681 1084 2681 1747 
Q 2681 2413 2464 2755 
Q 2247 3097 1831 3097 
Q 1416 3097 1203 2756 
Q 991 2416 991 1747 
z
" transform="scale(0.015625)"/>
     </defs>
     <use xlink:href="#Menlo-Regular-50"/>
     <use xlink:href="#Menlo-Regular-49" transform="translate(60.205078 0)"/>
     <use xlink:href="#Menlo-Regular-4e" transform="translate(120.410156 0)"/>
     <use xlink:href="#Menlo-Regular-47" transform="translate(180.615234 0)"/>
     <use xlink:href="#Menlo-Regular-20" transform="translate(240.820312 0)"/>
     <use xlink:href="#Menlo-Regular-2014" transform="translate(301.025391 0)"/>
     <use xlink:href="#Menlo-Regular-20" transform="translate(361.230469 0)"/>
     <use xlink:href="#Menlo-Regular-72" transform="translate(421.435547 0)"/>
     <use xlink:href="#Menlo-Regular-65" transform="translate(481.640625 0)"/>
     <use xlink:href="#Menlo-Regular-63" transform="translate(541.845703 0)"/>
     <use xlink:href="#Menlo-Regular-75" transform="translate(602.050781 0)"/>
     <use xlink:href="#Menlo-Regular-72" transform="translate(662.255859 0)"/>
     <use xlink:href="#Menlo-Regular-72" transform="translate(722.460938 0)"/>
     <use xlink:href="#Menlo-Regular-65" transform="translate(782.666016 0)"/>
     <use xlink:href="#Menlo-Regular-6e" transform="translate(842.871094 0)"/>
     <use xlink:href="#Menlo-Regular-74" transform="translate(903.076172 0)"/>
     <use xlink:href="#Menlo-Regular-20" transform="translate(963.28125 0)"/>
     <use xlink:href="#Menlo-Regular-6c" transform="translate(1023.486328 0)"/>
     <use xlink:href="#Menlo-Regular-6f" transform="translate(1083.691406 0)"/>
     <use xlink:href="#Menlo-Regular-6f" transform="translate(1143.896484 0)"/>
     <use xlink:href="#Menlo-Regular-70" transform="translate(1204.101562 0)"/>
     <use xlink:href="#Menlo-Regular-20" transform="translate(1264.306641 0)"/>
     <use xlink:href="#Menlo-Regular-61" transform="translate(1324.511719 0)"/>
     <use xlink:href="#Menlo-Regular-63" transform="translate(1384.716797 0)"/>
     <use xlink:href="#Menlo-Regular-74" transform="translate(1444.921875 0)"/>
     <use xlink:href="#Menlo-Regular-69" transform="translate(1505.126953 0)"/>
     <use xlink:href="#Menlo-Regular-76" transform="translate(1565.332031 0)"/>
     <use xlink:href="#Menlo-Regular-65" transform="translate(1625.537109 0)"/>
     <use xlink:href="#Menlo-Regular-20" transform="translate(1685.742188 0)"/>
     <use xlink:href="#Menlo-Regular-28" transform="translate(1745.947266 0)"/>
     <use xlink:href="#Menlo-Regular-65" transform="translate(1806.152344 0)"/>
     <use xlink:href="#Menlo-Regular-69" transform="translate(1866.357422 0)"/>
     <use xlink:href="#Menlo-Regular-2d" transform="translate(1926.5625 0)"/>
     <use xlink:href="#Menlo-Regular-73" transform="translate(1986.767578 0)"/>
     <use xlink:href="#Menlo-Regular-74" transform="translate(2046.972656 0)"/>
     <use xlink:href="#Menlo-Regular-72" transform="translate(2107.177734 0)"/>
     <use xlink:href="#Menlo-Regular-65" transform="translate(2167.382812 0)"/>
     <use xlink:href="#Menlo-Regular-6e" transform="translate(2227.587891 0)"/>
     <use xlink:href="#Menlo-Regular-67" transform="translate(2287.792969 0)"/>
     <use xlink:href="#Menlo-Regular-74" transform="translate(2347.998047 0)"/>
     <use xlink:href="#Menlo-Regular-68" transform="translate(2408.203125 0)"/>
     <use xlink:href="#Menlo-Regular-20" transform="translate(2468.408203 0)"/>
     <use xlink:href="#Menlo-Regular-3d" transform="translate(2528.613281 0)"/>
     <use xlink:href="#Menlo-Regular-20" transform="translate(2588.818359 0)"/>
     <use xlink:href="#Menlo-Regular-31" transform="translate(2649.023438 0)"/>
     <use xlink:href="#Menlo-Regular-2e" transform="translate(2709.228516 0)"/>
     <use xlink:href="#Menlo-Regular-35" transform="translate(2769.433594 0)"/>
     <use xlink:href="#Menlo-Regular-29" transform="translate(2829.638672 0)"/>
     <use xlink:href="#Menlo-Regular-20" transform="translate(2889.84375 0)"/>
     <use xlink:href="#Menlo-Regular-2014" transform="translate(2950.048828 0)"/>
     <use xlink:href="#Menlo-Regular-20" transform="translate(3010.253906 0)"/>
     <use xlink:href="#Menlo-Regular-45" transform="translate(3070.458984 0)"/>
     <use xlink:href="#Menlo-Regular-2d" transform="translate(3130.664062 0)"/>
     <use xlink:href="#Menlo-Regular-6e" transform="translate(3190.869141 0)"/>
     <use xlink:href="#Menlo-Regular-65" transform="translate(3251.074219 0)"/>
     <use xlink:href="#Menlo-Regular-75" transform="translate(3311.279297 0)"/>
     <use xlink:href="#Menlo-Regular-72" transform="translate(3371.484375 0)"/>
     <use xlink:href="#Menlo-Regular-6f" transform="translate(3431.689453 0)"/>
     <use xlink:href="#Menlo-Regular-6e" transform="translate(3491.894531 0)"/>
     <use xlink:href="#Menlo-Regular-20" transform="translate(3552.099609 0)"/>
     <use xlink:href="#Menlo-Regular-63" transform="translate(3612.304688 0)"/>
     <use xlink:href="#Menlo-Regular-6f" transform="translate(3672.509766 0)"/>
     <use xlink:href="#Menlo-Regular-6e" transform="translate(3732.714844 0)"/>
     <use xlink:href="#Menlo-Regular-64" transform="translate(3792.919922 0)"/>
     <use xlink:href="#Menlo-Regular-75" transform="translate(3853.125 0)"/>
     <use xlink:href="#Menlo-Regular-63" transform="translate(3913.330078 0)"/>
     <use xlink:href="#Menlo-Regular-74" transform="translate(3973.535156 0)"/>
     <use xlink:href="#Menlo-Regular-61" transform="translate(4033.740234 0)"/>
     <use xlink:href="#Menlo-Regular-6e" transform="translate(4093.945312 0)"/>
     <use xlink:href="#Menlo-Regular-63" transform="translate(4154.150391 0)"/>
     <use xlink:href="#Menlo-Regular-65" transform="translate(4214.355469 0)"/>
     <use xlink:href="#Menlo-Regular-73" transform="translate(4274.560547 0)"/>
     <use xlink:href="#Menlo-Regular-20" transform="translate(4334.765625 0)"/>
     <use xlink:href="#Menlo-Regular-28" transform="translate(4394.970703 0)"/>
     <use xlink:href="#Menlo-Regular-63" transform="translate(4455.175781 0)"/>
     <use xlink:href="#Menlo-Regular-65" transform="translate(4515.380859 0)"/>
     <use xlink:href="#Menlo-Regular-6c" transform="translate(4575.585938 0)"/>
     <use xlink:href="#Menlo-Regular-6c" transform="translate(4635.791016 0)"/>
     <use xlink:href="#Menlo-Regular-20" transform="translate(4695.996094 0)"/>
     <use xlink:href="#Menlo-Regular-33" transform="translate(4756.201172 0)"/>
     <use xlink:href="#Menlo-Regular-33" transform="translate(4816.40625 0)"/>
     <use xlink:href="#Menlo-Regular-34" transform="translate(4876.611328 0)"/>
     <use xlink:href="#Menlo-Regular-29" transform="translate(4936.816406 0)"/>
    </g>
   </g>
   <g id="legend_1">
    <g id="patch_7">
     <path d="M 86.582031 51.877578 
L 151.124219 51.877578 
L 151.124219 17.805078 
L 86.582031 17.805078 
z
" style="fill: #ffffff; stroke: #1a1a1a; stroke-width: 0.8; stroke-linejoin: miter"/>
    </g>
    <g id="line2d_12">
     <path d="M 89.382031 23.808672 
L 94.982031 23.808672 
L 100.582031 23.808672 
" style="fill: none; stroke: #1a1a1a; stroke-width: 0.9; stroke-linejoin: miter"/>
    </g>
    <g id="text_12">
     <!-- g_E (exc) -->
     <g style="fill: #1a1a1a" transform="translate(106.182031 26.258672) scale(0.07 -0.07)">
      <defs>
       <path id="Menlo-Regular-5f" d="M 3825 -594 
L 3825 -1125 
L 0 -1125 
L 0 -594 
L 3825 -594 
z
" transform="scale(0.015625)"/>
       <path id="Menlo-Regular-78" d="M 3494 3500 
L 2241 1825 
L 3616 0 
L 2950 0 
L 1925 1403 
L 903 0 
L 238 0 
L 1613 1825 
L 359 3500 
L 997 3500 
L 1925 2234 
L 2847 3500 
L 3494 3500 
z
" transform="scale(0.015625)"/>
      </defs>
      <use xlink:href="#Menlo-Regular-67"/>
      <use xlink:href="#Menlo-Regular-5f" transform="translate(60.205078 0)"/>
      <use xlink:href="#Menlo-Regular-45" transform="translate(120.410156 0)"/>
      <use xlink:href="#Menlo-Regular-20" transform="translate(180.615234 0)"/>
      <use xlink:href="#Menlo-Regular-28" transform="translate(240.820312 0)"/>
      <use xlink:href="#Menlo-Regular-65" transform="translate(301.025391 0)"/>
      <use xlink:href="#Menlo-Regular-78" transform="translate(361.230469 0)"/>
      <use xlink:href="#Menlo-Regular-63" transform="translate(421.435547 0)"/>
      <use xlink:href="#Menlo-Regular-29" transform="translate(481.640625 0)"/>
     </g>
    </g>
    <g id="line2d_13">
     <path d="M 89.382031 34.466172 
L 94.982031 34.466172 
L 100.582031 34.466172 
" style="fill: none; stroke: #c8102e; stroke-width: 0.9; stroke-linejoin: miter"/>
    </g>
    <g id="text_13">
     <!-- g_I (inh) -->
     <g style="fill: #1a1a1a" transform="translate(106.182031 36.916172) scale(0.07 -0.07)">
      <use xlink:href="#Menlo-Regular-67"/>
      <use xlink:href="#Menlo-Regular-5f" transform="translate(60.205078 0)"/>
      <use xlink:href="#Menlo-Regular-49" transform="translate(120.410156 0)"/>
      <use xlink:href="#Menlo-Regular-20" transform="translate(180.615234 0)"/>
      <use xlink:href="#Menlo-Regular-28" transform="translate(240.820312 0)"/>
      <use xlink:href="#Menlo-Regular-69" transform="translate(301.025391 0)"/>
      <use xlink:href="#Menlo-Regular-6e" transform="translate(361.230469 0)"/>
      <use xlink:href="#Menlo-Regular-68" transform="translate(421.435547 0)"/>
      <use xlink:href="#Menlo-Regular-29" transform="translate(481.640625 0)"/>
     </g>
    </g>
    <g id="line2d_14">
     <path d="M 89.382031 45.123672 
L 94.982031 45.123672 
L 100.582031 45.123672 
" style="fill: none; stroke-dasharray: 0.7,1.155; stroke-dashoffset: 0; stroke: #bbbbbb; stroke-width: 0.7"/>
    </g>
    <g id="text_14">
     <!-- g_L (leak) -->
     <g style="fill: #1a1a1a" transform="translate(106.182031 47.573672) scale(0.07 -0.07)">
      <defs>
       <path id="Menlo-Regular-4c" d="M 672 4666 
L 1306 4666 
L 1306 531 
L 3559 531 
L 3559 0 
L 672 0 
L 672 4666 
z
" transform="scale(0.015625)"/>
       <path id="Menlo-Regular-6b" d="M 738 4863 
L 1331 4863 
L 1331 2047 
L 2841 3500 
L 3541 3500 
L 2163 2181 
L 3756 0 
L 3053 0 
L 1759 1806 
L 1331 1403 
L 1331 0 
L 738 0 
L 738 4863 
z
" transform="scale(0.015625)"/>
      </defs>
      <use xlink:href="#Menlo-Regular-67"/>
      <use xlink:href="#Menlo-Regular-5f" transform="translate(60.205078 0)"/>
      <use xlink:href="#Menlo-Regular-4c" transform="translate(120.410156 0)"/>
      <use xlink:href="#Menlo-Regular-20" transform="translate(180.615234 0)"/>
      <use xlink:href="#Menlo-Regular-28" transform="translate(240.820312 0)"/>
      <use xlink:href="#Menlo-Regular-6c" transform="translate(301.025391 0)"/>
      <use xlink:href="#Menlo-Regular-65" transform="translate(361.230469 0)"/>
      <use xlink:href="#Menlo-Regular-61" transform="translate(421.435547 0)"/>
      <use xlink:href="#Menlo-Regular-6b" transform="translate(481.640625 0)"/>
      <use xlink:href="#Menlo-Regular-29" transform="translate(541.845703 0)"/>
     </g>
    </g>
   </g>
  </g>
 </g>
 <defs>
  <clipPath id="p0a84fb8d64">
   <rect x="21.341719" y="14.305078" width="133.2825" height="69.12"/>
  </clipPath>
 </defs>
</svg>
