<?xml version="1.0" encoding="utf-8" standalone="no"?>
<!DOCTYPE svg PUBLIC "-//W3C//DTD SVG 1.1//EN"
  "http://www.w3.org/Graphics/SVG/1.1/DTD/svg11.dtd">
<svg xmlns:xlink="http://www.w3.org/1999/xlink" width="419.809844pt" height="106.924453pt" viewBox="0 0 419.809844 106.924453" xmlns="http://www.w3.org/2000/svg" version="1.1">
 <metadata>
  <rdf:RDF xmlns:dc="http://purl.org/dc/elements/1.1/" xmlns:cc="http://creativecommons.org/ns#" xmlns:rdf="http://www.w3.org/1999/02/22-rdf-syntax-ns#">
   <cc:Work>
    <dc:type rdf:resource="http://purl.org/dc/dcmitype/StillImage"/>
    <dc:date>2026-06-29T14:02:15.779331</dc:date>
    <dc:format>image/svg+xml</dc:format>
    <dc:creator>
     <cc:Agent>
      <dc:title>Matplotlib v3.10.8, https://matplotlib.org/</dc:title>
     </cc:Agent>
    </dc:creator>
   </cc:Work>
  </rdf:RDF>
 </metadata>
 <defs>
  <style type="text/css">*{stroke-linejoin: round; stroke-linecap: butt}</style>
 </defs>
 <g id="figure_1">
  <g id="patch_1">
   <path d="M 0 106.924453 
L 419.809844 106.924453 
L 419.809844 0 
L 0 0 
z
" style="fill: #ffffff"/>
  </g>
  <g id="axes_1">
   <g id="patch_2">
    <path d="M 29.457656 83.425078 
L 172.302656 83.425078 
L 172.302656 14.305078 
L 29.457656 14.305078 
z
" style="fill: #ffffff"/>
   </g>
   <g id="matplotlib.axis_1">
    <g id="xtick_1">
     <g id="line2d_1">
      <defs>
       <path id="m8a054b932f" d="M 0 0 
L 0 -3 
" style="stroke: #1a1a1a; stroke-width: 0.8"/>
      </defs>
      <g>
       <use xlink:href="#m8a054b932f" x="29.457656" y="83.425078" style="fill: #1a1a1a; stroke: #1a1a1a; stroke-width: 0.8"/>
      </g>
     </g>
     <g id="text_1">
      <!-- 0 -->
      <g style="fill: #1a1a1a" transform="translate(27.350547 92.263672) scale(0.07 -0.07)">
       <defs>
        <path id="Menlo-Regular-30" d="M 1925 4734 
Q 2672 4734 3055 4125 
Q 3438 3516 3438 2322 
Q 3438 1128 3055 518 
Q 2672 -91 1925 -91 
Q 1178 -91 797 518 
Q 416 1128 416 2322 
Q 416 3516 797 4125 
Q 1178 4734 1925 4734 
z
M 1925 409 
Q 2369 409 2586 881 
Q 2803 1353 2803 2322 
Q 2803 2838 2741 3253 
L 1253 925 
Q 1488 409 1925 409 
z
M 1925 4234 
Q 1484 4234 1267 3762 
Q 1050 3291 1050 2322 
Q 1050 1881 1109 1497 
L 2566 3819 
Q 2328 4234 1925 4234 
z
" transform="scale(0.015625)"/>
       </defs>
       <use xlink:href="#Menlo-Regular-30"/>
      </g>
     </g>
    </g>
    <g id="xtick_2">
     <g id="line2d_2">
      <g>
       <use xlink:href="#m8a054b932f" x="65.168906" y="83.425078" style="fill: #1a1a1a; stroke: #1a1a1a; stroke-width: 0.8"/>
      </g>
     </g>
     <g id="text_2">
      <!-- 100 -->
      <g style="fill: #1a1a1a" transform="translate(58.847578 92.263672) scale(0.07 -0.07)">
       <defs>
        <path id="Menlo-Regular-31" d="M 844 528 
L 1825 528 
L 1825 4053 
L 650 3488 
L 650 4094 
L 1819 4650 
L 2450 4650 
L 2450 528 
L 3419 528 
L 3419 0 
L 844 0 
L 844 528 
z
" transform="scale(0.015625)"/>
       </defs>
       <use xlink:href="#Menlo-Regular-31"/>
       <use xlink:href="#Menlo-Regular-30" transform="translate(60.205078 0)"/>
       <use xlink:href="#Menlo-Regular-30" transform="translate(120.410156 0)"/>
      </g>
     </g>
    </g>
    <g id="xtick_3">
     <g id="line2d_3">
      <g>
       <use xlink:href="#m8a054b932f" x="100.880156" y="83.425078" style="fill: #1a1a1a; stroke: #1a1a1a; stroke-width: 0.8"/>
      </g>
     </g>
     <g id="text_3">
      <!-- 200 -->
      <g style="fill: #1a1a1a" transform="translate(94.558828 92.263672) scale(0.07 -0.07)">
       <defs>
        <path id="Menlo-Regular-32" d="M 1166 531 
L 3309 531 
L 3309 0 
L 475 0 
L 475 531 
Q 1059 1147 1496 1619 
Q 1934 2091 2100 2284 
Q 2413 2666 2522 2902 
Q 2631 3138 2631 3384 
Q 2631 3775 2401 3997 
Q 2172 4219 1772 4219 
Q 1488 4219 1175 4116 
Q 863 4013 513 3803 
L 513 4441 
Q 834 4594 1145 4672 
Q 1456 4750 1759 4750 
Q 2444 4750 2861 4386 
Q 3278 4022 3278 3431 
Q 3278 3131 3139 2831 
Q 3000 2531 2688 2169 
Q 2513 1966 2180 1606 
Q 1847 1247 1166 531 
z
" transform="scale(0.015625)"/>
       </defs>
       <use xlink:href="#Menlo-Regular-32"/>
       <use xlink:href="#Menlo-Regular-30" transform="translate(60.205078 0)"/>
       <use xlink:href="#Menlo-Regular-30" transform="translate(120.410156 0)"/>
      </g>
     </g>
    </g>
    <g id="xtick_4">
     <g id="line2d_4">
      <g>
       <use xlink:href="#m8a054b932f" x="136.591406" y="83.425078" style="fill: #1a1a1a; stroke: #1a1a1a; stroke-width: 0.8"/>
      </g>
     </g>
     <g id="text_4">
      <!-- 300 -->
      <g style="fill: #1a1a1a" transform="translate(130.270078 92.263672) scale(0.07 -0.07)">
       <defs>
        <path id="Menlo-Regular-33" d="M 2425 2497 
Q 2884 2375 3128 2064 
Q 3372 1753 3372 1288 
Q 3372 644 2939 276 
Q 2506 -91 1741 -91 
Q 1419 -91 1084 -31 
Q 750 28 428 141 
L 428 769 
Q 747 603 1056 522 
Q 1366 441 1672 441 
Q 2191 441 2469 675 
Q 2747 909 2747 1350 
Q 2747 1756 2469 1995 
Q 2191 2234 1716 2234 
L 1234 2234 
L 1234 2753 
L 1716 2753 
Q 2150 2753 2394 2943 
Q 2638 3134 2638 3475 
Q 2638 3834 2411 4026 
Q 2184 4219 1766 4219 
Q 1488 4219 1191 4156 
Q 894 4094 569 3969 
L 569 4550 
Q 947 4650 1242 4700 
Q 1538 4750 1766 4750 
Q 2447 4750 2855 4408 
Q 3263 4066 3263 3500 
Q 3263 3116 3048 2859 
Q 2834 2603 2425 2497 
z
" transform="scale(0.015625)"/>
       </defs>
       <use xlink:href="#Menlo-Regular-33"/>
       <use xlink:href="#Menlo-Regular-30" transform="translate(60.205078 0)"/>
       <use xlink:href="#Menlo-Regular-30" transform="translate(120.410156 0)"/>
      </g>
     </g>
    </g>
    <g id="xtick_5">
     <g id="line2d_5">
      <g>
       <use xlink:href="#m8a054b932f" x="172.302656" y="83.425078" style="fill: #1a1a1a; stroke: #1a1a1a; stroke-width: 0.8"/>
      </g>
     </g>
     <g id="text_5">
      <!-- 400 -->
      <g style="fill: #1a1a1a" transform="translate(165.981328 92.263672) scale(0.07 -0.07)">
       <defs>
        <path id="Menlo-Regular-34" d="M 2297 4091 
L 825 1625 
L 2297 1625 
L 2297 4091 
z
M 2194 4666 
L 2925 4666 
L 2925 1625 
L 3547 1625 
L 3547 1113 
L 2925 1113 
L 2925 0 
L 2297 0 
L 2297 1113 
L 319 1113 
L 319 1709 
L 2194 4666 
z
" transform="scale(0.015625)"/>
       </defs>
       <use xlink:href="#Menlo-Regular-34"/>
       <use xlink:href="#Menlo-Regular-30" transform="translate(60.205078 0)"/>
       <use xlink:href="#Menlo-Regular-30" transform="translate(120.410156 0)"/>
      </g>
     </g>
    </g>
    <g id="text_6">
     <!-- time (ms) -->
     <g style="fill: #1a1a1a" transform="translate(79.207031 103.820703) scale(0.08 -0.08)">
      <defs>
       <path id="Menlo-Regular-74" d="M 1919 4494 
L 1919 3500 
L 3225 3500 
L 3225 3053 
L 1919 3053 
L 1919 1153 
Q 1919 766 2066 612 
Q 2213 459 2578 459 
L 3225 459 
L 3225 0 
L 2522 0 
Q 1875 0 1609 259 
Q 1344 519 1344 1153 
L 1344 3053 
L 409 3053 
L 409 3500 
L 1344 3500 
L 1344 4494 
L 1919 4494 
z
" transform="scale(0.015625)"/>
       <path id="Menlo-Regular-69" d="M 988 3488 
L 2459 3488 
L 2459 447 
L 3600 447 
L 3600 0 
L 744 0 
L 744 447 
L 1884 447 
L 1884 3041 
L 988 3041 
L 988 3488 
z
M 1884 4847 
L 2459 4847 
L 2459 4122 
L 1884 4122 
L 1884 4847 
z
" transform="scale(0.015625)"/>
       <path id="Menlo-Regular-6d" d="M 2113 3144 
Q 2219 3369 2383 3476 
Q 2547 3584 2778 3584 
Q 3200 3584 3373 3257 
Q 3547 2931 3547 2028 
L 3547 0 
L 3022 0 
L 3022 2003 
Q 3022 2744 2939 2923 
Q 2856 3103 2638 3103 
Q 2388 3103 2295 2911 
Q 2203 2719 2203 2003 
L 2203 0 
L 1678 0 
L 1678 2003 
Q 1678 2753 1589 2928 
Q 1500 3103 1269 3103 
Q 1041 3103 952 2911 
Q 863 2719 863 2003 
L 863 0 
L 341 0 
L 341 3500 
L 863 3500 
L 863 3200 
Q 966 3388 1120 3486 
Q 1275 3584 1472 3584 
Q 1709 3584 1867 3475 
Q 2025 3366 2113 3144 
z
" transform="scale(0.015625)"/>
       <path id="Menlo-Regular-65" d="M 3500 2038 
L 3500 1756 
L 1009 1756 
L 1009 1738 
Q 984 1022 1282 709 
Q 1581 397 2125 397 
Q 2400 397 2700 484 
Q 3000 572 3341 750 
L 3341 178 
Q 3013 44 2708 -23 
Q 2403 -91 2119 -91 
Q 1303 -91 843 398 
Q 384 888 384 1747 
Q 384 2584 834 3084 
Q 1284 3584 2034 3584 
Q 2703 3584 3089 3131 
Q 3475 2678 3500 2038 
z
M 2925 2206 
Q 2888 2569 2661 2833 
Q 2434 3097 2009 3097 
Q 1594 3097 1325 2822 
Q 1056 2547 1031 2203 
L 2925 2206 
z
" transform="scale(0.015625)"/>
       <path id="Menlo-Regular-20" transform="scale(0.015625)"/>
       <path id="Menlo-Regular-28" d="M 2672 5169 
Q 2256 4456 2051 3748 
Q 1847 3041 1847 2322 
Q 1847 1606 2051 897 
Q 2256 188 2672 -531 
L 2172 -531 
Q 1700 213 1469 917 
Q 1238 1622 1238 2322 
Q 1238 3019 1469 3725 
Q 1700 4431 2172 5169 
L 2672 5169 
z
" transform="scale(0.015625)"/>
       <path id="Menlo-Regular-73" d="M 3041 3378 
L 3041 2816 
Q 2794 2959 2544 3031 
Q 2294 3103 2034 3103 
Q 1644 3103 1451 2976 
Q 1259 2850 1259 2591 
Q 1259 2356 1403 2240 
Q 1547 2125 2119 2016 
L 2350 1972 
Q 2778 1891 2998 1647 
Q 3219 1403 3219 1013 
Q 3219 494 2850 201 
Q 2481 -91 1825 -91 
Q 1566 -91 1281 -36 
Q 997 19 666 128 
L 666 722 
Q 988 556 1281 473 
Q 1575 391 1838 391 
Q 2219 391 2428 545 
Q 2638 700 2638 978 
Q 2638 1378 1872 1531 
L 1847 1538 
L 1631 1581 
Q 1134 1678 906 1908 
Q 678 2138 678 2534 
Q 678 3038 1018 3311 
Q 1359 3584 1991 3584 
Q 2272 3584 2531 3532 
Q 2791 3481 3041 3378 
z
" transform="scale(0.015625)"/>
       <path id="Menlo-Regular-29" d="M 1088 5169 
L 1588 5169 
Q 2059 4431 2290 3725 
Q 2522 3019 2522 2322 
Q 2522 1619 2290 912 
Q 2059 206 1588 -531 
L 1088 -531 
Q 1503 194 1708 903 
Q 1913 1613 1913 2322 
Q 1913 3034 1708 3743 
Q 1503 4453 1088 5169 
z
" transform="scale(0.015625)"/>
      </defs>
      <use xlink:href="#Menlo-Regular-74"/>
      <use xlink:href="#Menlo-Regular-69" transform="translate(60.205078 0)"/>
      <use xlink:href="#Menlo-Regular-6d" transform="translate(120.410156 0)"/>
      <use xlink:href="#Menlo-Regular-65" transform="translate(180.615234 0)"/>
      <use xlink:href="#Menlo-Regular-20" transform="translate(240.820312 0)"/>
      <use xlink:href="#Menlo-Regular-28" transform="translate(301.025391 0)"/>
      <use xlink:href="#Menlo-Regular-6d" transform="translate(361.230469 0)"/>
      <use xlink:href="#Menlo-Regular-73" transform="translate(421.435547 0)"/>
      <use xlink:href="#Menlo-Regular-29" transform="translate(481.640625 0)"/>
     </g>
    </g>
   </g>
   <g id="matplotlib.axis_2">
    <g id="ytick_1">
     <g id="line2d_6">
      <defs>
       <path id="mae8dba7355" d="M 0 0 
L 3 0 
" style="stroke: #1a1a1a; stroke-width: 0.8"/>
      </defs>
      <g>
       <use xlink:href="#mae8dba7355" x="29.457656" y="81.656565" style="fill: #1a1a1a; stroke: #1a1a1a; stroke-width: 0.8"/>
      </g>
     </g>
     <g id="text_7">
      <!-- −80 -->
      <g style="fill: #1a1a1a" transform="translate(13.315 84.325862) scale(0.07 -0.07)">
       <defs>
        <path id="Menlo-Regular-2212" d="M 275 2272 
L 3578 2272 
L 3578 1741 
L 275 1741 
L 275 2272 
z
" transform="scale(0.015625)"/>
        <path id="Menlo-Regular-38" d="M 1925 2216 
Q 1503 2216 1273 1980 
Q 1044 1744 1044 1313 
Q 1044 881 1276 642 
Q 1509 403 1925 403 
Q 2350 403 2579 639 
Q 2809 875 2809 1313 
Q 2809 1741 2576 1978 
Q 2344 2216 1925 2216 
z
M 1375 2478 
Q 972 2581 745 2862 
Q 519 3144 519 3541 
Q 519 4097 897 4423 
Q 1275 4750 1925 4750 
Q 2578 4750 2956 4423 
Q 3334 4097 3334 3541 
Q 3334 3144 3107 2862 
Q 2881 2581 2478 2478 
Q 2947 2375 3195 2062 
Q 3444 1750 3444 1253 
Q 3444 622 3041 265 
Q 2638 -91 1925 -91 
Q 1213 -91 811 264 
Q 409 619 409 1247 
Q 409 1747 657 2061 
Q 906 2375 1375 2478 
z
M 1147 3481 
Q 1147 3106 1347 2909 
Q 1547 2713 1925 2713 
Q 2306 2713 2506 2909 
Q 2706 3106 2706 3481 
Q 2706 3863 2507 4063 
Q 2309 4263 1925 4263 
Q 1547 4263 1347 4061 
Q 1147 3859 1147 3481 
z
" transform="scale(0.015625)"/>
       </defs>
       <use xlink:href="#Menlo-Regular-2212"/>
       <use xlink:href="#Menlo-Regular-38" transform="translate(60.205078 0)"/>
       <use xlink:href="#Menlo-Regular-30" transform="translate(120.410156 0)"/>
      </g>
     </g>
    </g>
    <g id="ytick_2">
     <g id="line2d_7">
      <g>
       <use xlink:href="#mae8dba7355" x="29.457656" y="60.252488" style="fill: #1a1a1a; stroke: #1a1a1a; stroke-width: 0.8"/>
      </g>
     </g>
     <g id="text_8">
      <!-- −70 -->
      <g style="fill: #1a1a1a" transform="translate(13.315 62.921785) scale(0.07 -0.07)">
       <defs>
        <path id="Menlo-Regular-37" d="M 434 4666 
L 3372 4666 
L 3372 4397 
L 1703 0 
L 1044 0 
L 2669 4134 
L 434 4134 
L 434 4666 
z
" transform="scale(0.015625)"/>
       </defs>
       <use xlink:href="#Menlo-Regular-2212"/>
       <use xlink:href="#Menlo-Regular-37" transform="translate(60.205078 0)"/>
       <use xlink:href="#Menlo-Regular-30" transform="translate(120.410156 0)"/>
      </g>
     </g>
    </g>
    <g id="ytick_3">
     <g id="line2d_8">
      <g>
       <use xlink:href="#mae8dba7355" x="29.457656" y="38.84841" style="fill: #1a1a1a; stroke: #1a1a1a; stroke-width: 0.8"/>
      </g>
     </g>
     <g id="text_9">
      <!-- −60 -->
      <g style="fill: #1a1a1a" transform="translate(13.315 41.517707) scale(0.07 -0.07)">
       <defs>
        <path id="Menlo-Regular-36" d="M 3097 4563 
L 3097 3981 
Q 2900 4097 2678 4158 
Q 2456 4219 2216 4219 
Q 1616 4219 1306 3767 
Q 997 3316 997 2438 
Q 1147 2750 1412 2917 
Q 1678 3084 2022 3084 
Q 2697 3084 3067 2670 
Q 3438 2256 3438 1497 
Q 3438 741 3056 325 
Q 2675 -91 1984 -91 
Q 1172 -91 794 492 
Q 416 1075 416 2328 
Q 416 3509 870 4129 
Q 1325 4750 2188 4750 
Q 2419 4750 2650 4701 
Q 2881 4653 3097 4563 
z
M 1972 2591 
Q 1569 2591 1337 2300 
Q 1106 2009 1106 1497 
Q 1106 984 1337 693 
Q 1569 403 1972 403 
Q 2391 403 2603 679 
Q 2816 956 2816 1497 
Q 2816 2041 2603 2316 
Q 2391 2591 1972 2591 
z
" transform="scale(0.015625)"/>
       </defs>
       <use xlink:href="#Menlo-Regular-2212"/>
       <use xlink:href="#Menlo-Regular-36" transform="translate(60.205078 0)"/>
       <use xlink:href="#Menlo-Regular-30" transform="translate(120.410156 0)"/>
      </g>
     </g>
    </g>
    <g id="ytick_4">
     <g id="line2d_9">
      <g>
       <use xlink:href="#mae8dba7355" x="29.457656" y="17.444332" style="fill: #1a1a1a; stroke: #1a1a1a; stroke-width: 0.8"/>
      </g>
     </g>
     <g id="text_10">
      <!-- −50 -->
      <g style="fill: #1a1a1a" transform="translate(13.315 20.113629) scale(0.07 -0.07)">
       <defs>
        <path id="Menlo-Regular-35" d="M 647 4666 
L 3009 4666 
L 3009 4134 
L 1222 4134 
L 1222 2988 
Q 1356 3038 1492 3061 
Q 1628 3084 1766 3084 
Q 2491 3084 2916 2656 
Q 3341 2228 3341 1497 
Q 3341 759 2895 334 
Q 2450 -91 1678 -91 
Q 1306 -91 998 -41 
Q 691 9 447 109 
L 447 750 
Q 734 594 1025 517 
Q 1316 441 1619 441 
Q 2141 441 2423 716 
Q 2706 991 2706 1497 
Q 2706 1997 2414 2275 
Q 2122 2553 1600 2553 
Q 1347 2553 1106 2495 
Q 866 2438 647 2322 
L 647 4666 
z
" transform="scale(0.015625)"/>
       </defs>
       <use xlink:href="#Menlo-Regular-2212"/>
       <use xlink:href="#Menlo-Regular-35" transform="translate(60.205078 0)"/>
       <use xlink:href="#Menlo-Regular-30" transform="translate(120.410156 0)"/>
      </g>
     </g>
    </g>
    <g id="text_11">
     <!-- V_E (neuron 334)  [mV] -->
     <g style="fill: #1a1a1a" transform="translate(7.65125 101.843828) rotate(-90) scale(0.08 -0.08)">
      <defs>
       <path id="Menlo-Regular-56" d="M 1925 531 
L 3022 4666 
L 3675 4666 
L 2309 0 
L 1544 0 
L 178 4666 
L 831 4666 
L 1925 531 
z
" transform="scale(0.015625)"/>
       <path id="Menlo-Regular-5f" d="M 3825 -594 
L 3825 -1125 
L 0 -1125 
L 0 -594 
L 3825 -594 
z
" transform="scale(0.015625)"/>
       <path id="Menlo-Regular-45" d="M 616 4666 
L 3384 4666 
L 3384 4134 
L 1247 4134 
L 1247 2878 
L 3291 2878 
L 3291 2347 
L 1247 2347 
L 1247 531 
L 3444 531 
L 3444 0 
L 616 0 
L 616 4666 
z
" transform="scale(0.015625)"/>
       <path id="Menlo-Regular-6e" d="M 3284 2169 
L 3284 0 
L 2706 0 
L 2706 2169 
Q 2706 2641 2540 2862 
Q 2375 3084 2022 3084 
Q 1619 3084 1401 2798 
Q 1184 2513 1184 1978 
L 1184 0 
L 609 0 
L 609 3500 
L 1184 3500 
L 1184 2975 
Q 1338 3275 1600 3429 
Q 1863 3584 2222 3584 
Q 2756 3584 3020 3232 
Q 3284 2881 3284 2169 
z
" transform="scale(0.015625)"/>
       <path id="Menlo-Regular-75" d="M 609 1325 
L 609 3494 
L 1184 3494 
L 1184 1325 
Q 1184 853 1351 631 
Q 1519 409 1869 409 
Q 2275 409 2490 695 
Q 2706 981 2706 1516 
L 2706 3494 
L 3284 3494 
L 3284 0 
L 2706 0 
L 2706 525 
Q 2553 222 2289 65 
Q 2025 -91 1672 -91 
Q 1134 -91 871 261 
Q 609 613 609 1325 
z
" transform="scale(0.015625)"/>
       <path id="Menlo-Regular-72" d="M 3609 2778 
Q 3425 2922 3234 2987 
Q 3044 3053 2816 3053 
Q 2278 3053 1993 2715 
Q 1709 2378 1709 1741 
L 1709 0 
L 1131 0 
L 1131 3500 
L 1709 3500 
L 1709 2816 
Q 1853 3188 2151 3386 
Q 2450 3584 2859 3584 
Q 3072 3584 3256 3531 
Q 3441 3478 3609 3366 
L 3609 2778 
z
" transform="scale(0.015625)"/>
       <path id="Menlo-Regular-6f" d="M 1925 3097 
Q 1488 3097 1263 2756 
Q 1038 2416 1038 1747 
Q 1038 1081 1263 739 
Q 1488 397 1925 397 
Q 2366 397 2591 739 
Q 2816 1081 2816 1747 
Q 2816 2416 2591 2756 
Q 2366 3097 1925 3097 
z
M 1925 3584 
Q 2653 3584 3039 3112 
Q 3425 2641 3425 1747 
Q 3425 850 3040 379 
Q 2656 -91 1925 -91 
Q 1197 -91 812 379 
Q 428 850 428 1747 
Q 428 2641 812 3112 
Q 1197 3584 1925 3584 
z
" transform="scale(0.015625)"/>
       <path id="Menlo-Regular-5b" d="M 1759 5175 
L 3084 5175 
L 3084 4728 
L 2334 4728 
L 2334 -84 
L 3084 -84 
L 3084 -531 
L 1759 -531 
L 1759 5175 
z
" transform="scale(0.015625)"/>
       <path id="Menlo-Regular-5d" d="M 2250 5175 
L 2250 -531 
L 925 -531 
L 925 -84 
L 1675 -84 
L 1675 4728 
L 925 4728 
L 925 5175 
L 2250 5175 
z
" transform="scale(0.015625)"/>
      </defs>
      <use xlink:href="#Menlo-Regular-56"/>
      <use xlink:href="#Menlo-Regular-5f" transform="translate(60.205078 0)"/>
      <use xlink:href="#Menlo-Regular-45" transform="translate(120.410156 0)"/>
      <use xlink:href="#Menlo-Regular-20" transform="translate(180.615234 0)"/>
      <use xlink:href="#Menlo-Regular-28" transform="translate(240.820312 0)"/>
      <use xlink:href="#Menlo-Regular-6e" transform="translate(301.025391 0)"/>
      <use xlink:href="#Menlo-Regular-65" transform="translate(361.230469 0)"/>
      <use xlink:href="#Menlo-Regular-75" transform="translate(421.435547 0)"/>
      <use xlink:href="#Menlo-Regular-72" transform="translate(481.640625 0)"/>
      <use xlink:href="#Menlo-Regular-6f" transform="translate(541.845703 0)"/>
      <use xlink:href="#Menlo-Regular-6e" transform="translate(602.050781 0)"/>
      <use xlink:href="#Menlo-Regular-20" transform="translate(662.255859 0)"/>
      <use xlink:href="#Menlo-Regular-33" transform="translate(722.460938 0)"/>
      <use xlink:href="#Menlo-Regular-33" transform="translate(782.666016 0)"/>
      <use xlink:href="#Menlo-Regular-34" transform="translate(842.871094 0)"/>
      <use xlink:href="#Menlo-Regular-29" transform="translate(903.076172 0)"/>
      <use xlink:href="#Menlo-Regular-20" transform="translate(963.28125 0)"/>
      <use xlink:href="#Menlo-Regular-20" transform="translate(1023.486328 0)"/>
      <use xlink:href="#Menlo-Regular-5b" transform="translate(1083.691406 0)"/>
      <use xlink:href="#Menlo-Regular-6d" transform="translate(1143.896484 0)"/>
      <use xlink:href="#Menlo-Regular-56" transform="translate(1204.101562 0)"/>
      <use xlink:href="#Menlo-Regular-5d" transform="translate(1264.306641 0)"/>
     </g>
    </g>
   </g>
   <g id="line2d_10">
    <path d="M 29.457656 18.250325 
L 29.546934 17.446896 
L 29.725491 49.550449 
L 30.618272 49.550449 
L 31.064663 46.863614 
L 31.332497 36.877263 
L 31.421775 37.395545 
L 31.778888 71.235403 
L 32.046722 75.988384 
L 32.403834 77.780538 
L 32.850225 78.879418 
L 33.207338 79.40544 
L 33.385894 77.546464 
L 33.56445 77.211388 
L 33.743006 77.391835 
L 33.832284 77.549468 
L 34.100119 74.276901 
L 34.189397 74.142848 
L 34.278675 74.210944 
L 34.457231 72.623879 
L 34.546509 72.469005 
L 34.725066 72.75883 
L 34.903622 73.407376 
L 35.171456 68.604948 
L 35.260734 68.286137 
L 35.439291 66.429887 
L 35.528569 66.247579 
L 35.617847 66.358525 
L 35.885681 67.614418 
L 35.974959 66.884107 
L 36.332072 60.821246 
L 36.510628 60.153789 
L 36.599906 60.319261 
L 36.778463 59.09193 
L 36.867741 59.067516 
L 37.224853 55.4537 
L 37.314131 55.201892 
L 37.403409 55.269808 
L 37.581966 56.046284 
L 38.028356 59.590355 
L 38.831859 65.83701 
L 39.099694 64.133838 
L 39.27825 63.841711 
L 39.456806 63.940148 
L 39.724641 64.498912 
L 40.081753 60.234623 
L 40.349588 59.323408 
L 40.528144 59.292854 
L 40.795978 59.728213 
L 41.420925 61.587826 
L 42.313706 64.033294 
L 42.402984 64.221057 
L 42.760097 59.614066 
L 43.027931 57.950315 
L 44.099269 36.697714 
L 44.188547 35.657207 
L 44.902772 18.12905 
L 45.081328 49.550449 
L 45.974109 49.550449 
L 46.331222 34.807597 
L 46.688334 27.983594 
L 46.956169 25.620673 
L 47.045447 26.575628 
L 47.402559 74.001087 
L 47.581116 76.761578 
L 47.759672 76.307424 
L 48.027506 77.043124 
L 48.295341 77.869929 
L 48.473897 76.561111 
L 48.563175 76.511435 
L 48.652453 76.626137 
L 49.009566 72.668639 
L 49.098844 72.812686 
L 49.2774 71.86419 
L 49.455956 72.315013 
L 49.634512 73.185778 
L 49.813069 71.685638 
L 49.902347 71.62409 
L 50.70585 60.080712 
L 50.795128 60.222767 
L 50.973684 58.973358 
L 51.062963 59.180226 
L 51.330797 61.240111 
L 51.777188 65.770041 
L 51.955744 64.9773 
L 52.045022 65.025082 
L 52.223578 65.617714 
L 52.848525 69.249444 
L 53.473472 72.262936 
L 54.009141 73.881747 
L 54.366253 74.557189 
L 54.723366 70.863928 
L 54.9912 69.844216 
L 55.169756 69.600409 
L 55.437591 63.628473 
L 55.794703 59.328045 
L 56.062538 58.422285 
L 56.151816 58.370192 
L 56.508928 53.93643 
L 56.687484 53.162616 
L 57.223153 43.915532 
L 57.490988 41.949749 
L 57.669544 41.621483 
L 57.937378 39.402373 
L 58.115934 38.942928 
L 58.294491 39.006125 
L 58.562325 39.725528 
L 58.651603 40.074068 
L 58.919438 37.60848 
L 59.008716 37.197968 
L 59.365828 30.424294 
L 59.722941 20.628841 
L 59.990775 17.757265 
L 60.169331 49.550449 
L 61.062112 49.550449 
L 61.329947 45.557752 
L 61.687059 40.340067 
L 62.044172 38.085472 
L 62.312006 37.486038 
L 62.401284 37.42133 
L 62.758397 32.160705 
L 63.115509 28.658726 
L 63.383344 24.87511 
L 63.472622 27.730372 
L 64.008291 61.038615 
L 64.097569 63.204269 
L 64.276125 62.469124 
L 64.454681 63.185799 
L 64.901072 58.804815 
L 64.99035 58.881828 
L 65.168906 59.809618 
L 65.436741 62.082217 
L 65.704575 58.529459 
L 65.972409 52.540801 
L 66.150966 51.943172 
L 66.329522 52.646603 
L 66.597356 54.849784 
L 66.775913 53.201938 
L 66.865191 52.987019 
L 66.954469 53.051343 
L 67.400859 48.817705 
L 67.490138 48.709159 
L 67.668694 49.180803 
L 68.025806 51.613436 
L 68.204363 53.134299 
L 68.382919 52.328184 
L 68.472197 52.254307 
L 68.650753 52.552477 
L 69.007866 54.171223 
L 69.097144 54.682336 
L 69.364978 52.341004 
L 69.543534 51.87421 
L 69.722091 51.943172 
L 69.989925 52.653495 
L 70.079203 52.989289 
L 71.329097 38.713214 
L 72.1326 18.415846 
L 72.221878 17.452522 
L 72.400434 49.550449 
L 73.293216 49.550449 
L 73.650328 43.456593 
L 73.918162 40.150623 
L 74.275275 36.007755 
L 74.543109 34.747649 
L 74.810944 34.407275 
L 74.9895 32.562873 
L 75.168056 42.978173 
L 75.525169 65.033541 
L 75.793003 71.342691 
L 75.971559 69.495064 
L 76.060837 69.264909 
L 76.150116 69.304525 
L 76.239394 69.523348 
L 76.596506 65.228374 
L 76.775062 64.847476 
L 76.953619 65.428956 
L 77.489287 68.796613 
L 77.757122 67.091155 
L 77.8464 67.028905 
L 78.024956 67.31277 
L 78.292791 68.275685 
L 78.560625 66.080295 
L 78.649903 65.856949 
L 79.185572 58.693396 
L 79.364128 57.817192 
L 79.453406 57.731884 
L 79.631963 58.023702 
L 79.989075 59.615895 
L 80.435466 62.14899 
L 80.7033 60.146685 
L 80.881856 59.714724 
L 81.060412 59.719623 
L 81.328247 60.213132 
L 81.685359 56.384495 
L 82.042472 54.373062 
L 82.310306 52.29995 
L 82.399584 51.972239 
L 82.578141 48.148174 
L 82.935253 42.500251 
L 83.203087 39.972993 
L 83.381644 36.941285 
L 83.828034 24.438968 
L 84.095869 21.863014 
L 84.274425 21.372771 
L 84.363703 21.379139 
L 84.452981 21.51583 
L 84.810094 17.582044 
L 84.98865 49.550449 
L 85.881431 49.550449 
L 86.238544 31.430966 
L 86.4171 27.976253 
L 86.684934 70.354153 
L 86.863491 75.766296 
L 86.952769 75.681135 
L 87.131325 74.090281 
L 87.220603 74.221673 
L 87.309881 74.551784 
L 87.488438 72.81703 
L 87.577716 72.933953 
L 87.84555 74.222505 
L 88.113384 71.418527 
L 88.202663 71.11198 
L 88.381219 69.370891 
L 88.470497 69.483845 
L 88.559775 69.879652 
L 88.649053 69.365518 
L 88.738331 69.382975 
L 88.916888 70.189645 
L 89.452556 73.638511 
L 89.631113 73.162687 
L 89.809669 73.46347 
L 90.881006 76.849107 
L 91.238119 70.738301 
L 91.505953 66.793933 
L 91.684509 66.27859 
L 91.773787 66.350377 
L 92.041622 64.138558 
L 92.1309 64.043893 
L 92.309456 64.374526 
L 92.398734 64.708867 
L 92.577291 61.990442 
L 92.845125 59.57925 
L 92.934403 59.432705 
L 93.023681 59.491395 
L 93.112959 59.704926 
L 93.380794 54.452181 
L 93.648628 49.540618 
L 93.827184 48.698708 
L 93.916462 48.711968 
L 94.095019 49.304666 
L 94.452131 51.717442 
L 95.077078 46.975581 
L 95.344912 44.092599 
L 95.434191 43.76096 
L 95.791303 36.881501 
L 96.059137 32.337437 
L 96.148416 31.682448 
L 97.041197 17.645804 
L 97.219753 49.550449 
L 98.112534 49.550449 
L 98.201812 49.072878 
L 98.558925 44.415386 
L 98.648203 43.806154 
L 99.362428 30.427103 
L 99.719541 26.890577 
L 99.987375 26.194657 
L 100.165931 26.282161 
L 100.433766 26.93248 
L 100.523044 27.244522 
L 100.969434 20.037702 
L 101.147991 17.540296 
L 101.326547 49.550449 
L 102.219328 49.550449 
L 102.487162 73.932697 
L 102.754997 78.148225 
L 103.022831 79.214624 
L 103.469222 74.371141 
L 103.5585 74.382393 
L 103.826334 75.207924 
L 104.362003 77.117556 
L 104.629838 75.317188 
L 104.719116 75.276183 
L 104.98695 73.152808 
L 105.076228 73.112734 
L 105.254784 73.442584 
L 105.611897 74.660166 
L 105.879731 72.421468 
L 106.058288 72.286941 
L 106.236844 72.607891 
L 107.576016 76.151537 
L 107.665294 75.31451 
L 107.933128 69.073603 
L 108.290241 64.874323 
L 108.558075 58.535158 
L 108.825909 56.625624 
L 108.915188 56.533604 
L 109.183022 55.080364 
L 109.2723 55.067251 
L 109.540134 53.120109 
L 109.718691 53.036254 
L 109.897247 53.505415 
L 110.165081 54.780659 
L 110.432916 53.223445 
L 110.611472 53.10097 
L 110.790028 53.415421 
L 110.879306 53.683037 
L 111.950644 27.441209 
L 112.218478 26.267595 
L 112.307756 26.319304 
L 112.486312 26.862024 
L 112.843425 29.037721 
L 113.55765 34.814929 
L 113.646928 34.434089 
L 114.361153 20.988395 
L 114.628987 19.160274 
L 114.718266 18.94791 
L 114.896822 49.550449 
L 115.789603 49.550449 
L 116.146716 38.31726 
L 116.235994 39.882443 
L 116.771662 72.816654 
L 116.860941 74.233136 
L 117.128775 70.535204 
L 117.218053 70.544284 
L 117.396609 71.310994 
L 117.575166 68.215558 
L 117.664444 67.990008 
L 117.753722 68.187471 
L 118.110834 66.119209 
L 118.200112 66.302938 
L 118.467947 68.010633 
L 119.27145 73.585619 
L 119.717841 75.473532 
L 119.985675 70.072951 
L 120.074953 69.386453 
L 120.432066 61.178612 
L 121.681959 44.868013 
L 121.771237 45.022274 
L 121.949794 44.68083 
L 122.12835 45.514592 
L 122.306906 43.451482 
L 122.842575 32.880573 
L 122.931853 32.73264 
L 123.021131 32.920566 
L 123.199687 31.689878 
L 123.288966 31.677647 
L 123.467522 32.447754 
L 123.5568 32.170389 
L 123.646078 32.207899 
L 123.824634 32.971099 
L 124.092469 35.171601 
L 124.181747 34.891019 
L 124.271025 34.867716 
L 124.449581 35.395559 
L 124.628137 36.445432 
L 124.806694 35.78463 
L 124.895972 35.786206 
L 125.074528 36.254281 
L 125.342362 37.7086 
L 125.610197 36.828771 
L 125.788753 37.053652 
L 126.056587 38.092804 
L 126.324422 39.592953 
L 126.4137 38.936184 
L 126.770813 33.756564 
L 126.860091 33.184361 
L 127.217203 28.450346 
L 127.485038 27.504487 
L 127.574316 27.489888 
L 127.931428 21.188985 
L 128.199263 19.630685 
L 128.377819 19.463196 
L 128.556375 19.754695 
L 128.913488 21.194333 
L 129.716991 26.032288 
L 129.806269 26.594554 
L 129.895547 25.872833 
L 130.252659 21.047861 
L 130.341938 20.43057 
L 130.431216 22.143058 
L 130.877606 70.730936 
L 131.056162 72.705888 
L 131.323997 73.952538 
L 131.502553 73.362534 
L 131.681109 73.930639 
L 131.770387 74.339739 
L 131.948944 72.883542 
L 132.038222 72.8872 
L 132.306056 73.854084 
L 132.484612 73.345682 
L 132.663169 73.73641 
L 133.198837 75.818781 
L 133.466672 74.004238 
L 133.55595 73.948243 
L 133.734506 74.188931 
L 134.091619 75.178758 
L 134.359453 73.076922 
L 134.538009 72.880962 
L 134.716566 73.107525 
L 135.341512 74.739138 
L 135.609347 72.549855 
L 135.877181 72.032634 
L 136.055737 72.126385 
L 136.41285 72.728505 
L 137.037797 73.930084 
L 137.573466 67.336138 
L 138.019856 63.936866 
L 138.287691 55.477967 
L 138.644803 45.358901 
L 139.894697 31.320216 
L 140.073253 31.722432 
L 140.251809 32.603037 
L 140.519644 29.194693 
L 140.6982 28.465011 
L 140.787478 28.409048 
L 140.966034 28.741453 
L 141.233869 26.008193 
L 141.412425 25.478324 
L 141.680259 22.697274 
L 141.858816 22.124572 
L 141.948094 22.10051 
L 142.12665 22.4365 
L 142.483762 24.104292 
L 143.019431 27.688323 
L 143.108709 27.280978 
L 143.287266 26.897558 
L 143.5551 24.249924 
L 143.644378 23.789572 
L 143.912212 18.138628 
L 144.090769 49.550449 
L 144.98355 49.550449 
L 145.162106 47.865649 
L 145.251384 48.669836 
L 145.519219 75.471245 
L 145.787053 79.566666 
L 146.054887 80.237781 
L 146.412 76.723349 
L 146.590556 76.956232 
L 146.947669 77.895746 
L 147.126225 75.961864 
L 147.304781 75.782953 
L 147.572616 76.41788 
L 148.286841 78.201003 
L 148.554675 78.609515 
L 148.822509 75.480994 
L 148.911787 75.175427 
L 149.179622 71.71802 
L 149.358178 71.409138 
L 149.536734 71.744818 
L 151.054462 76.347057 
L 151.233019 76.595926 
L 151.500853 73.219206 
L 151.857966 70.408859 
L 152.1258 64.554157 
L 152.393634 62.489079 
L 152.572191 62.22032 
L 152.661469 62.286064 
L 153.018581 55.313001 
L 153.464972 44.154906 
L 153.911362 37.682194 
L 154.089919 37.442208 
L 154.268475 38.012321 
L 154.357753 38.500622 
L 154.536309 37.210795 
L 154.804144 31.099597 
L 155.339812 26.184467 
L 155.518369 25.784537 
L 155.607647 25.903542 
L 155.875481 24.565958 
L 155.964759 24.589988 
L 156.232594 22.431633 
L 156.41115 22.268007 
L 156.589706 22.743708 
L 156.946819 24.822029 
L 157.8396 32.007416 
L 158.196712 24.074996 
L 158.643103 18.092601 
L 158.821659 49.550449 
L 159.714441 49.550449 
L 159.982275 45.462197 
L 160.339387 34.48552 
L 160.6965 29.432638 
L 160.875056 28.172271 
L 160.964334 29.852695 
L 161.232169 70.102296 
L 161.500003 77.929566 
L 161.767837 79.308505 
L 162.12495 79.862125 
L 162.660619 80.204451 
L 162.928453 80.28326 
L 163.374844 72.768693 
L 163.464122 72.810171 
L 163.731956 73.752136 
L 164.089069 75.329093 
L 164.624737 62.853435 
L 164.714016 62.417929 
L 164.803294 62.464747 
L 164.98185 63.38981 
L 166.142466 72.216314 
L 166.4103 69.634 
L 166.588856 69.266248 
L 166.767413 69.435133 
L 166.945969 69.885449 
L 167.213803 66.817562 
L 167.392359 66.223868 
L 167.570916 66.253278 
L 167.83875 66.910104 
L 168.285141 60.446799 
L 168.552975 56.320498 
L 168.820809 55.271327 
L 168.910088 55.31207 
L 169.088644 55.750449 
L 169.535034 57.904754 
L 169.802869 59.411198 
L 169.892147 58.617559 
L 170.427816 44.405735 
L 171.052763 21.045926 
L 171.231319 17.795322 
L 171.409875 49.550449 
L 172.213378 49.550449 
L 172.213378 49.550449 
" clip-path="url(#paf3e5350f1)" style="fill: none; stroke: #1a1a1a; stroke-width: 0.8; stroke-linejoin: miter"/>
   </g>
   <g id="line2d_11">
    <path d="M 29.457656 17.444332 
L 172.302656 17.444332 
" clip-path="url(#paf3e5350f1)" style="fill: none; stroke-dasharray: 1.85,0.8; stroke-dashoffset: 0; stroke: #bbbbbb; stroke-width: 0.5"/>
   </g>
   <g id="patch_3">
    <path d="M 29.457656 83.425078 
L 29.457656 14.305078 
" style="fill: none; stroke: #1a1a1a; stroke-width: 0.8; stroke-linejoin: miter; stroke-linecap: square"/>
   </g>
   <g id="patch_4">
    <path d="M 172.302656 83.425078 
L 172.302656 14.305078 
" style="fill: none; stroke: #1a1a1a; stroke-width: 0.8; stroke-linejoin: miter; stroke-linecap: square"/>
   </g>
   <g id="patch_5">
    <path d="M 29.457656 83.425078 
L 172.302656 83.425078 
" style="fill: none; stroke: #1a1a1a; stroke-width: 0.8; stroke-linejoin: miter; stroke-linecap: square"/>
   </g>
   <g id="patch_6">
    <path d="M 29.457656 14.305078 
L 172.302656 14.305078 
" style="fill: none; stroke: #1a1a1a; stroke-width: 0.8; stroke-linejoin: miter; stroke-linecap: square"/>
   </g>
   <g id="text_12">
    <!-- PING — recurrent loop active (ei-strength = 1.5) — E-neuron membrane voltage -->
    <g style="fill: #1a1a1a" transform="translate(29.457656 8.305078) scale(0.085 -0.085)">
     <defs>
      <path id="Menlo-Regular-50" d="M 1247 4147 
L 1247 2394 
L 1978 2394 
Q 2416 2394 2661 2625 
Q 2906 2856 2906 3272 
Q 2906 3688 2662 3917 
Q 2419 4147 1978 4147 
L 1247 4147 
z
M 616 4666 
L 1978 4666 
Q 2759 4666 3162 4311 
Q 3566 3956 3566 3272 
Q 3566 2581 3164 2228 
Q 2763 1875 1978 1875 
L 1247 1875 
L 1247 0 
L 616 0 
L 616 4666 
z
" transform="scale(0.015625)"/>
      <path id="Menlo-Regular-49" d="M 628 4666 
L 3219 4666 
L 3219 4134 
L 2241 4134 
L 2241 531 
L 3219 531 
L 3219 0 
L 628 0 
L 628 531 
L 1606 531 
L 1606 4134 
L 628 4134 
L 628 4666 
z
" transform="scale(0.015625)"/>
      <path id="Menlo-Regular-4e" d="M 59 4650 
L 922 4650 
L 2747 822 
L 2747 4650 
L 3419 4650 
L 3419 0 
L 2556 0 
L 731 3828 
L 731 0 
L 59 0 
L 59 4650 
z
" transform="scale(0.015625)"/>
      <path id="Menlo-Regular-47" d="M 3450 384 
Q 3197 150 2880 29 
Q 2563 -91 2194 -91 
Q 1306 -91 812 545 
Q 319 1181 319 2328 
Q 319 3472 819 4111 
Q 1319 4750 2209 4750 
Q 2503 4750 2772 4667 
Q 3041 4584 3291 4416 
L 3291 3769 
Q 3038 4009 2772 4123 
Q 2506 4238 2209 4238 
Q 1594 4238 1286 3761 
Q 978 3284 978 2328 
Q 978 1356 1276 889 
Q 1575 422 2194 422 
Q 2403 422 2561 470 
Q 2719 519 2847 622 
L 2847 1875 
L 2169 1875 
L 2169 2394 
L 3450 2394 
L 3450 384 
z
" transform="scale(0.015625)"/>
      <path id="Menlo-Regular-2014" d="M 0 2259 
L 3853 2259 
L 3853 1725 
L 0 1725 
L 0 2259 
z
" transform="scale(0.015625)"/>
      <path id="Menlo-Regular-63" d="M 3316 178 
Q 3084 44 2839 -23 
Q 2594 -91 2338 -91 
Q 1525 -91 1067 396 
Q 609 884 609 1747 
Q 609 2609 1067 3096 
Q 1525 3584 2338 3584 
Q 2591 3584 2831 3518 
Q 3072 3453 3316 3316 
L 3316 2713 
Q 3088 2916 2858 3006 
Q 2628 3097 2338 3097 
Q 1797 3097 1506 2747 
Q 1216 2397 1216 1747 
Q 1216 1100 1508 748 
Q 1800 397 2338 397 
Q 2638 397 2875 489 
Q 3113 581 3316 775 
L 3316 178 
z
" transform="scale(0.015625)"/>
      <path id="Menlo-Regular-6c" d="M 2247 1266 
Q 2247 878 2389 681 
Q 2531 484 2809 484 
L 3481 484 
L 3481 0 
L 2753 0 
Q 2238 0 1955 329 
Q 1672 659 1672 1266 
L 1672 4431 
L 750 4431 
L 750 4881 
L 2247 4881 
L 2247 1266 
z
" transform="scale(0.015625)"/>
      <path id="Menlo-Regular-70" d="M 1172 441 
L 1172 -1331 
L 594 -1331 
L 594 3500 
L 1172 3500 
L 1172 3053 
Q 1316 3313 1555 3448 
Q 1794 3584 2106 3584 
Q 2741 3584 3102 3093 
Q 3463 2603 3463 1734 
Q 3463 881 3100 395 
Q 2738 -91 2106 -91 
Q 1788 -91 1548 45 
Q 1309 181 1172 441 
z
M 2859 1747 
Q 2859 2416 2648 2756 
Q 2438 3097 2022 3097 
Q 1603 3097 1387 2755 
Q 1172 2413 1172 1747 
Q 1172 1084 1387 740 
Q 1603 397 2022 397 
Q 2438 397 2648 737 
Q 2859 1078 2859 1747 
z
" transform="scale(0.015625)"/>
      <path id="Menlo-Regular-61" d="M 2194 1759 
L 2003 1759 
Q 1500 1759 1245 1582 
Q 991 1406 991 1056 
Q 991 741 1181 566 
Q 1372 391 1709 391 
Q 2184 391 2456 720 
Q 2728 1050 2731 1631 
L 2731 1759 
L 2194 1759 
z
M 3309 1997 
L 3309 0 
L 2731 0 
L 2731 519 
Q 2547 206 2267 57 
Q 1988 -91 1588 -91 
Q 1053 -91 734 211 
Q 416 513 416 1019 
Q 416 1603 808 1906 
Q 1200 2209 1959 2209 
L 2731 2209 
L 2731 2300 
Q 2728 2719 2518 2908 
Q 2309 3097 1850 3097 
Q 1556 3097 1256 3012 
Q 956 2928 672 2766 
L 672 3341 
Q 991 3463 1283 3523 
Q 1575 3584 1850 3584 
Q 2284 3584 2592 3456 
Q 2900 3328 3091 3072 
Q 3209 2916 3259 2686 
Q 3309 2456 3309 1997 
z
" transform="scale(0.015625)"/>
      <path id="Menlo-Regular-76" d="M 313 3500 
L 909 3500 
L 1925 563 
L 2944 3500 
L 3541 3500 
L 2297 0 
L 1556 0 
L 313 3500 
z
" transform="scale(0.015625)"/>
      <path id="Menlo-Regular-2d" d="M 319 2263 
L 3631 2263 
L 3631 1734 
L 319 1734 
L 319 2263 
z
" transform="scale(0.015625)"/>
      <path id="Menlo-Regular-67" d="M 2681 1778 
Q 2681 2425 2470 2761 
Q 2259 3097 1856 3097 
Q 1434 3097 1212 2761 
Q 991 2425 991 1778 
Q 991 1131 1214 792 
Q 1438 453 1863 453 
Q 2259 453 2470 793 
Q 2681 1134 2681 1778 
z
M 3256 225 
Q 3256 -563 2884 -969 
Q 2513 -1375 1791 -1375 
Q 1553 -1375 1293 -1331 
Q 1034 -1288 775 -1203 
L 775 -634 
Q 1081 -778 1331 -847 
Q 1581 -916 1791 -916 
Q 2256 -916 2468 -662 
Q 2681 -409 2681 141 
L 2681 166 
L 2681 556 
Q 2544 263 2306 119 
Q 2069 -25 1728 -25 
Q 1116 -25 750 465 
Q 384 956 384 1778 
Q 384 2603 750 3093 
Q 1116 3584 1728 3584 
Q 2066 3584 2300 3450 
Q 2534 3316 2681 3034 
L 2681 3488 
L 3256 3488 
L 3256 225 
z
" transform="scale(0.015625)"/>
      <path id="Menlo-Regular-68" d="M 3284 2169 
L 3284 0 
L 2706 0 
L 2706 2169 
Q 2706 2641 2540 2862 
Q 2375 3084 2022 3084 
Q 1619 3084 1401 2798 
Q 1184 2513 1184 1978 
L 1184 0 
L 609 0 
L 609 4863 
L 1184 4863 
L 1184 2975 
Q 1338 3275 1600 3429 
Q 1863 3584 2222 3584 
Q 2756 3584 3020 3232 
Q 3284 2881 3284 2169 
z
" transform="scale(0.015625)"/>
      <path id="Menlo-Regular-3d" d="M 275 1563 
L 3578 1563 
L 3578 1034 
L 275 1034 
L 275 1563 
z
M 275 3034 
L 3578 3034 
L 3578 2506 
L 275 2506 
L 275 3034 
z
" transform="scale(0.015625)"/>
      <path id="Menlo-Regular-2e" d="M 1216 1263 
L 2316 1263 
L 2316 0 
L 1216 0 
L 1216 1263 
z
" transform="scale(0.015625)"/>
      <path id="Menlo-Regular-62" d="M 2869 1747 
Q 2869 2416 2656 2756 
Q 2444 3097 2028 3097 
Q 1609 3097 1393 2755 
Q 1178 2413 1178 1747 
Q 1178 1084 1393 740 
Q 1609 397 2028 397 
Q 2444 397 2656 737 
Q 2869 1078 2869 1747 
z
M 1178 3053 
Q 1316 3309 1558 3446 
Q 1800 3584 2119 3584 
Q 2750 3584 3112 3098 
Q 3475 2613 3475 1759 
Q 3475 894 3111 401 
Q 2747 -91 2113 -91 
Q 1800 -91 1561 45 
Q 1322 181 1178 441 
L 1178 0 
L 603 0 
L 603 4863 
L 1178 4863 
L 1178 3053 
z
" transform="scale(0.015625)"/>
     </defs>
     <use xlink:href="#Menlo-Regular-50"/>
     <use xlink:href="#Menlo-Regular-49" transform="translate(60.205078 0)"/>
     <use xlink:href="#Menlo-Regular-4e" transform="translate(120.410156 0)"/>
     <use xlink:href="#Menlo-Regular-47" transform="translate(180.615234 0)"/>
     <use xlink:href="#Menlo-Regular-20" transform="translate(240.820312 0)"/>
     <use xlink:href="#Menlo-Regular-2014" transform="translate(301.025391 0)"/>
     <use xlink:href="#Menlo-Regular-20" transform="translate(361.230469 0)"/>
     <use xlink:href="#Menlo-Regular-72" transform="translate(421.435547 0)"/>
     <use xlink:href="#Menlo-Regular-65" transform="translate(481.640625 0)"/>
     <use xlink:href="#Menlo-Regular-63" transform="translate(541.845703 0)"/>
     <use xlink:href="#Menlo-Regular-75" transform="translate(602.050781 0)"/>
     <use xlink:href="#Menlo-Regular-72" transform="translate(662.255859 0)"/>
     <use xlink:href="#Menlo-Regular-72" transform="translate(722.460938 0)"/>
     <use xlink:href="#Menlo-Regular-65" transform="translate(782.666016 0)"/>
     <use xlink:href="#Menlo-Regular-6e" transform="translate(842.871094 0)"/>
     <use xlink:href="#Menlo-Regular-74" transform="translate(903.076172 0)"/>
     <use xlink:href="#Menlo-Regular-20" transform="translate(963.28125 0)"/>
     <use xlink:href="#Menlo-Regular-6c" transform="translate(1023.486328 0)"/>
     <use xlink:href="#Menlo-Regular-6f" transform="translate(1083.691406 0)"/>
     <use xlink:href="#Menlo-Regular-6f" transform="translate(1143.896484 0)"/>
     <use xlink:href="#Menlo-Regular-70" transform="translate(1204.101562 0)"/>
     <use xlink:href="#Menlo-Regular-20" transform="translate(1264.306641 0)"/>
     <use xlink:href="#Menlo-Regular-61" transform="translate(1324.511719 0)"/>
     <use xlink:href="#Menlo-Regular-63" transform="translate(1384.716797 0)"/>
     <use xlink:href="#Menlo-Regular-74" transform="translate(1444.921875 0)"/>
     <use xlink:href="#Menlo-Regular-69" transform="translate(1505.126953 0)"/>
     <use xlink:href="#Menlo-Regular-76" transform="translate(1565.332031 0)"/>
     <use xlink:href="#Menlo-Regular-65" transform="translate(1625.537109 0)"/>
     <use xlink:href="#Menlo-Regular-20" transform="translate(1685.742188 0)"/>
     <use xlink:href="#Menlo-Regular-28" transform="translate(1745.947266 0)"/>
     <use xlink:href="#Menlo-Regular-65" transform="translate(1806.152344 0)"/>
     <use xlink:href="#Menlo-Regular-69" transform="translate(1866.357422 0)"/>
     <use xlink:href="#Menlo-Regular-2d" transform="translate(1926.5625 0)"/>
     <use xlink:href="#Menlo-Regular-73" transform="translate(1986.767578 0)"/>
     <use xlink:href="#Menlo-Regular-74" transform="translate(2046.972656 0)"/>
     <use xlink:href="#Menlo-Regular-72" transform="translate(2107.177734 0)"/>
     <use xlink:href="#Menlo-Regular-65" transform="translate(2167.382812 0)"/>
     <use xlink:href="#Menlo-Regular-6e" transform="translate(2227.587891 0)"/>
     <use xlink:href="#Menlo-Regular-67" transform="translate(2287.792969 0)"/>
     <use xlink:href="#Menlo-Regular-74" transform="translate(2347.998047 0)"/>
     <use xlink:href="#Menlo-Regular-68" transform="translate(2408.203125 0)"/>
     <use xlink:href="#Menlo-Regular-20" transform="translate(2468.408203 0)"/>
     <use xlink:href="#Menlo-Regular-3d" transform="translate(2528.613281 0)"/>
     <use xlink:href="#Menlo-Regular-20" transform="translate(2588.818359 0)"/>
     <use xlink:href="#Menlo-Regular-31" transform="translate(2649.023438 0)"/>
     <use xlink:href="#Menlo-Regular-2e" transform="translate(2709.228516 0)"/>
     <use xlink:href="#Menlo-Regular-35" transform="translate(2769.433594 0)"/>
     <use xlink:href="#Menlo-Regular-29" transform="translate(2829.638672 0)"/>
     <use xlink:href="#Menlo-Regular-20" transform="translate(2889.84375 0)"/>
     <use xlink:href="#Menlo-Regular-2014" transform="translate(2950.048828 0)"/>
     <use xlink:href="#Menlo-Regular-20" transform="translate(3010.253906 0)"/>
     <use xlink:href="#Menlo-Regular-45" transform="translate(3070.458984 0)"/>
     <use xlink:href="#Menlo-Regular-2d" transform="translate(3130.664062 0)"/>
     <use xlink:href="#Menlo-Regular-6e" transform="translate(3190.869141 0)"/>
     <use xlink:href="#Menlo-Regular-65" transform="translate(3251.074219 0)"/>
     <use xlink:href="#Menlo-Regular-75" transform="translate(3311.279297 0)"/>
     <use xlink:href="#Menlo-Regular-72" transform="translate(3371.484375 0)"/>
     <use xlink:href="#Menlo-Regular-6f" transform="translate(3431.689453 0)"/>
     <use xlink:href="#Menlo-Regular-6e" transform="translate(3491.894531 0)"/>
     <use xlink:href="#Menlo-Regular-20" transform="translate(3552.099609 0)"/>
     <use xlink:href="#Menlo-Regular-6d" transform="translate(3612.304688 0)"/>
     <use xlink:href="#Menlo-Regular-65" transform="translate(3672.509766 0)"/>
     <use xlink:href="#Menlo-Regular-6d" transform="translate(3732.714844 0)"/>
     <use xlink:href="#Menlo-Regular-62" transform="translate(3792.919922 0)"/>
     <use xlink:href="#Menlo-Regular-72" transform="translate(3853.125 0)"/>
     <use xlink:href="#Menlo-Regular-61" transform="translate(3913.330078 0)"/>
     <use xlink:href="#Menlo-Regular-6e" transform="translate(3973.535156 0)"/>
     <use xlink:href="#Menlo-Regular-65" transform="translate(4033.740234 0)"/>
     <use xlink:href="#Menlo-Regular-20" transform="translate(4093.945312 0)"/>
     <use xlink:href="#Menlo-Regular-76" transform="translate(4154.150391 0)"/>
     <use xlink:href="#Menlo-Regular-6f" transform="translate(4214.355469 0)"/>
     <use xlink:href="#Menlo-Regular-6c" transform="translate(4274.560547 0)"/>
     <use xlink:href="#Menlo-Regular-74" transform="translate(4334.765625 0)"/>
     <use xlink:href="#Menlo-Regular-61" transform="translate(4394.970703 0)"/>
     <use xlink:href="#Menlo-Regular-67" transform="translate(4455.175781 0)"/>
     <use xlink:href="#Menlo-Regular-65" transform="translate(4515.380859 0)"/>
    </g>
   </g>
   <g id="legend_1">
    <g id="patch_7">
     <path d="M 129.545781 40.493828 
L 168.802656 40.493828 
L 168.802656 17.805078 
L 129.545781 17.805078 
z
" style="fill: #ffffff; stroke: #1a1a1a; stroke-width: 0.8; stroke-linejoin: miter"/>
    </g>
    <g id="line2d_12">
     <path d="M 132.345781 23.493672 
L 137.945781 23.493672 
L 143.545781 23.493672 
" style="fill: none; stroke: #1a1a1a; stroke-width: 0.8; stroke-linejoin: miter"/>
    </g>
    <g id="text_13">
     <!-- V_E -->
     <g style="fill: #1a1a1a" transform="translate(149.145781 25.943672) scale(0.07 -0.07)">
      <use xlink:href="#Menlo-Regular-56"/>
      <use xlink:href="#Menlo-Regular-5f" transform="translate(60.205078 0)"/>
      <use xlink:href="#Menlo-Regular-45" transform="translate(120.410156 0)"/>
     </g>
    </g>
    <g id="line2d_13">
     <path d="M 132.345781 33.788047 
L 137.945781 33.788047 
L 143.545781 33.788047 
" style="fill: none; stroke-dasharray: 1.85,0.8; stroke-dashoffset: 0; stroke: #bbbbbb; stroke-width: 0.5"/>
    </g>
    <g id="text_14">
     <!-- V_th -->
     <g style="fill: #1a1a1a" transform="translate(149.145781 36.238047) scale(0.07 -0.07)">
      <use xlink:href="#Menlo-Regular-56"/>
      <use xlink:href="#Menlo-Regular-5f" transform="translate(60.205078 0)"/>
      <use xlink:href="#Menlo-Regular-74" transform="translate(120.410156 0)"/>
      <use xlink:href="#Menlo-Regular-68" transform="translate(180.615234 0)"/>
     </g>
    </g>
   </g>
  </g>
 </g>
 <defs>
  <clipPath id="paf3e5350f1">
   <rect x="29.457656" y="14.305078" width="142.845" height="69.12"/>
  </clipPath>
 </defs>
</svg>
