<?xml version="1.0" encoding="utf-8" standalone="no"?>
<!DOCTYPE svg PUBLIC "-//W3C//DTD SVG 1.1//EN"
  "http://www.w3.org/Graphics/SVG/1.1/DTD/svg11.dtd">
<svg xmlns:xlink="http://www.w3.org/1999/xlink" width="425.239609pt" height="106.924453pt" viewBox="0 0 425.239609 106.924453" xmlns="http://www.w3.org/2000/svg" version="1.1">
 <metadata>
  <rdf:RDF xmlns:dc="http://purl.org/dc/elements/1.1/" xmlns:cc="http://creativecommons.org/ns#" xmlns:rdf="http://www.w3.org/1999/02/22-rdf-syntax-ns#">
   <cc:Work>
    <dc:type rdf:resource="http://purl.org/dc/dcmitype/StillImage"/>
    <dc:date>2026-06-29T14:02:13.704010</dc:date>
    <dc:format>image/svg+xml</dc:format>
    <dc:creator>
     <cc:Agent>
      <dc:title>Matplotlib v3.10.8, https://matplotlib.org/</dc:title>
     </cc:Agent>
    </dc:creator>
   </cc:Work>
  </rdf:RDF>
 </metadata>
 <defs>
  <style type="text/css">*{stroke-linejoin: round; stroke-linecap: butt}</style>
 </defs>
 <g id="figure_1">
  <g id="patch_1">
   <path d="M 0 106.924453 
L 425.239609 106.924453 
L 425.239609 0 
L 0 0 
z
" style="fill: #ffffff"/>
  </g>
  <g id="axes_1">
   <g id="patch_2">
    <path d="M 29.770156 83.425078 
L 165.752656 83.425078 
L 165.752656 14.305078 
L 29.770156 14.305078 
z
" style="fill: #ffffff"/>
   </g>
   <g id="matplotlib.axis_1">
    <g id="xtick_1">
     <g id="line2d_1">
      <defs>
       <path id="m74bd5dcd23" d="M 0 0 
L 0 -3 
" style="stroke: #1a1a1a; stroke-width: 0.8"/>
      </defs>
      <g>
       <use xlink:href="#m74bd5dcd23" x="29.770156" y="83.425078" style="fill: #1a1a1a; stroke: #1a1a1a; stroke-width: 0.8"/>
      </g>
     </g>
     <g id="text_1">
      <!-- 0 -->
      <g style="fill: #1a1a1a" transform="translate(27.663047 92.263672) scale(0.07 -0.07)">
       <defs>
        <path id="Menlo-Regular-30" d="M 1925 4734 
Q 2672 4734 3055 4125 
Q 3438 3516 3438 2322 
Q 3438 1128 3055 518 
Q 2672 -91 1925 -91 
Q 1178 -91 797 518 
Q 416 1128 416 2322 
Q 416 3516 797 4125 
Q 1178 4734 1925 4734 
z
M 1925 409 
Q 2369 409 2586 881 
Q 2803 1353 2803 2322 
Q 2803 2838 2741 3253 
L 1253 925 
Q 1488 409 1925 409 
z
M 1925 4234 
Q 1484 4234 1267 3762 
Q 1050 3291 1050 2322 
Q 1050 1881 1109 1497 
L 2566 3819 
Q 2328 4234 1925 4234 
z
" transform="scale(0.015625)"/>
       </defs>
       <use xlink:href="#Menlo-Regular-30"/>
      </g>
     </g>
    </g>
    <g id="xtick_2">
     <g id="line2d_2">
      <g>
       <use xlink:href="#m74bd5dcd23" x="63.765781" y="83.425078" style="fill: #1a1a1a; stroke: #1a1a1a; stroke-width: 0.8"/>
      </g>
     </g>
     <g id="text_2">
      <!-- 100 -->
      <g style="fill: #1a1a1a" transform="translate(57.444453 92.263672) scale(0.07 -0.07)">
       <defs>
        <path id="Menlo-Regular-31" d="M 844 528 
L 1825 528 
L 1825 4053 
L 650 3488 
L 650 4094 
L 1819 4650 
L 2450 4650 
L 2450 528 
L 3419 528 
L 3419 0 
L 844 0 
L 844 528 
z
" transform="scale(0.015625)"/>
       </defs>
       <use xlink:href="#Menlo-Regular-31"/>
       <use xlink:href="#Menlo-Regular-30" transform="translate(60.205078 0)"/>
       <use xlink:href="#Menlo-Regular-30" transform="translate(120.410156 0)"/>
      </g>
     </g>
    </g>
    <g id="xtick_3">
     <g id="line2d_3">
      <g>
       <use xlink:href="#m74bd5dcd23" x="97.761406" y="83.425078" style="fill: #1a1a1a; stroke: #1a1a1a; stroke-width: 0.8"/>
      </g>
     </g>
     <g id="text_3">
      <!-- 200 -->
      <g style="fill: #1a1a1a" transform="translate(91.440078 92.263672) scale(0.07 -0.07)">
       <defs>
        <path id="Menlo-Regular-32" d="M 1166 531 
L 3309 531 
L 3309 0 
L 475 0 
L 475 531 
Q 1059 1147 1496 1619 
Q 1934 2091 2100 2284 
Q 2413 2666 2522 2902 
Q 2631 3138 2631 3384 
Q 2631 3775 2401 3997 
Q 2172 4219 1772 4219 
Q 1488 4219 1175 4116 
Q 863 4013 513 3803 
L 513 4441 
Q 834 4594 1145 4672 
Q 1456 4750 1759 4750 
Q 2444 4750 2861 4386 
Q 3278 4022 3278 3431 
Q 3278 3131 3139 2831 
Q 3000 2531 2688 2169 
Q 2513 1966 2180 1606 
Q 1847 1247 1166 531 
z
" transform="scale(0.015625)"/>
       </defs>
       <use xlink:href="#Menlo-Regular-32"/>
       <use xlink:href="#Menlo-Regular-30" transform="translate(60.205078 0)"/>
       <use xlink:href="#Menlo-Regular-30" transform="translate(120.410156 0)"/>
      </g>
     </g>
    </g>
    <g id="xtick_4">
     <g id="line2d_4">
      <g>
       <use xlink:href="#m74bd5dcd23" x="131.757031" y="83.425078" style="fill: #1a1a1a; stroke: #1a1a1a; stroke-width: 0.8"/>
      </g>
     </g>
     <g id="text_4">
      <!-- 300 -->
      <g style="fill: #1a1a1a" transform="translate(125.435703 92.263672) scale(0.07 -0.07)">
       <defs>
        <path id="Menlo-Regular-33" d="M 2425 2497 
Q 2884 2375 3128 2064 
Q 3372 1753 3372 1288 
Q 3372 644 2939 276 
Q 2506 -91 1741 -91 
Q 1419 -91 1084 -31 
Q 750 28 428 141 
L 428 769 
Q 747 603 1056 522 
Q 1366 441 1672 441 
Q 2191 441 2469 675 
Q 2747 909 2747 1350 
Q 2747 1756 2469 1995 
Q 2191 2234 1716 2234 
L 1234 2234 
L 1234 2753 
L 1716 2753 
Q 2150 2753 2394 2943 
Q 2638 3134 2638 3475 
Q 2638 3834 2411 4026 
Q 2184 4219 1766 4219 
Q 1488 4219 1191 4156 
Q 894 4094 569 3969 
L 569 4550 
Q 947 4650 1242 4700 
Q 1538 4750 1766 4750 
Q 2447 4750 2855 4408 
Q 3263 4066 3263 3500 
Q 3263 3116 3048 2859 
Q 2834 2603 2425 2497 
z
" transform="scale(0.015625)"/>
       </defs>
       <use xlink:href="#Menlo-Regular-33"/>
       <use xlink:href="#Menlo-Regular-30" transform="translate(60.205078 0)"/>
       <use xlink:href="#Menlo-Regular-30" transform="translate(120.410156 0)"/>
      </g>
     </g>
    </g>
    <g id="xtick_5">
     <g id="line2d_5">
      <g>
       <use xlink:href="#m74bd5dcd23" x="165.752656" y="83.425078" style="fill: #1a1a1a; stroke: #1a1a1a; stroke-width: 0.8"/>
      </g>
     </g>
     <g id="text_5">
      <!-- 400 -->
      <g style="fill: #1a1a1a" transform="translate(159.431328 92.263672) scale(0.07 -0.07)">
       <defs>
        <path id="Menlo-Regular-34" d="M 2297 4091 
L 825 1625 
L 2297 1625 
L 2297 4091 
z
M 2194 4666 
L 2925 4666 
L 2925 1625 
L 3547 1625 
L 3547 1113 
L 2925 1113 
L 2925 0 
L 2297 0 
L 2297 1113 
L 319 1113 
L 319 1709 
L 2194 4666 
z
" transform="scale(0.015625)"/>
       </defs>
       <use xlink:href="#Menlo-Regular-34"/>
       <use xlink:href="#Menlo-Regular-30" transform="translate(60.205078 0)"/>
       <use xlink:href="#Menlo-Regular-30" transform="translate(120.410156 0)"/>
      </g>
     </g>
    </g>
    <g id="text_6">
     <!-- time (ms) -->
     <g style="fill: #1a1a1a" transform="translate(76.088281 103.820703) scale(0.08 -0.08)">
      <defs>
       <path id="Menlo-Regular-74" d="M 1919 4494 
L 1919 3500 
L 3225 3500 
L 3225 3053 
L 1919 3053 
L 1919 1153 
Q 1919 766 2066 612 
Q 2213 459 2578 459 
L 3225 459 
L 3225 0 
L 2522 0 
Q 1875 0 1609 259 
Q 1344 519 1344 1153 
L 1344 3053 
L 409 3053 
L 409 3500 
L 1344 3500 
L 1344 4494 
L 1919 4494 
z
" transform="scale(0.015625)"/>
       <path id="Menlo-Regular-69" d="M 988 3488 
L 2459 3488 
L 2459 447 
L 3600 447 
L 3600 0 
L 744 0 
L 744 447 
L 1884 447 
L 1884 3041 
L 988 3041 
L 988 3488 
z
M 1884 4847 
L 2459 4847 
L 2459 4122 
L 1884 4122 
L 1884 4847 
z
" transform="scale(0.015625)"/>
       <path id="Menlo-Regular-6d" d="M 2113 3144 
Q 2219 3369 2383 3476 
Q 2547 3584 2778 3584 
Q 3200 3584 3373 3257 
Q 3547 2931 3547 2028 
L 3547 0 
L 3022 0 
L 3022 2003 
Q 3022 2744 2939 2923 
Q 2856 3103 2638 3103 
Q 2388 3103 2295 2911 
Q 2203 2719 2203 2003 
L 2203 0 
L 1678 0 
L 1678 2003 
Q 1678 2753 1589 2928 
Q 1500 3103 1269 3103 
Q 1041 3103 952 2911 
Q 863 2719 863 2003 
L 863 0 
L 341 0 
L 341 3500 
L 863 3500 
L 863 3200 
Q 966 3388 1120 3486 
Q 1275 3584 1472 3584 
Q 1709 3584 1867 3475 
Q 2025 3366 2113 3144 
z
" transform="scale(0.015625)"/>
       <path id="Menlo-Regular-65" d="M 3500 2038 
L 3500 1756 
L 1009 1756 
L 1009 1738 
Q 984 1022 1282 709 
Q 1581 397 2125 397 
Q 2400 397 2700 484 
Q 3000 572 3341 750 
L 3341 178 
Q 3013 44 2708 -23 
Q 2403 -91 2119 -91 
Q 1303 -91 843 398 
Q 384 888 384 1747 
Q 384 2584 834 3084 
Q 1284 3584 2034 3584 
Q 2703 3584 3089 3131 
Q 3475 2678 3500 2038 
z
M 2925 2206 
Q 2888 2569 2661 2833 
Q 2434 3097 2009 3097 
Q 1594 3097 1325 2822 
Q 1056 2547 1031 2203 
L 2925 2206 
z
" transform="scale(0.015625)"/>
       <path id="Menlo-Regular-20" transform="scale(0.015625)"/>
       <path id="Menlo-Regular-28" d="M 2672 5169 
Q 2256 4456 2051 3748 
Q 1847 3041 1847 2322 
Q 1847 1606 2051 897 
Q 2256 188 2672 -531 
L 2172 -531 
Q 1700 213 1469 917 
Q 1238 1622 1238 2322 
Q 1238 3019 1469 3725 
Q 1700 4431 2172 5169 
L 2672 5169 
z
" transform="scale(0.015625)"/>
       <path id="Menlo-Regular-73" d="M 3041 3378 
L 3041 2816 
Q 2794 2959 2544 3031 
Q 2294 3103 2034 3103 
Q 1644 3103 1451 2976 
Q 1259 2850 1259 2591 
Q 1259 2356 1403 2240 
Q 1547 2125 2119 2016 
L 2350 1972 
Q 2778 1891 2998 1647 
Q 3219 1403 3219 1013 
Q 3219 494 2850 201 
Q 2481 -91 1825 -91 
Q 1566 -91 1281 -36 
Q 997 19 666 128 
L 666 722 
Q 988 556 1281 473 
Q 1575 391 1838 391 
Q 2219 391 2428 545 
Q 2638 700 2638 978 
Q 2638 1378 1872 1531 
L 1847 1538 
L 1631 1581 
Q 1134 1678 906 1908 
Q 678 2138 678 2534 
Q 678 3038 1018 3311 
Q 1359 3584 1991 3584 
Q 2272 3584 2531 3532 
Q 2791 3481 3041 3378 
z
" transform="scale(0.015625)"/>
       <path id="Menlo-Regular-29" d="M 1088 5169 
L 1588 5169 
Q 2059 4431 2290 3725 
Q 2522 3019 2522 2322 
Q 2522 1619 2290 912 
Q 2059 206 1588 -531 
L 1088 -531 
Q 1503 194 1708 903 
Q 1913 1613 1913 2322 
Q 1913 3034 1708 3743 
Q 1503 4453 1088 5169 
z
" transform="scale(0.015625)"/>
      </defs>
      <use xlink:href="#Menlo-Regular-74"/>
      <use xlink:href="#Menlo-Regular-69" transform="translate(60.205078 0)"/>
      <use xlink:href="#Menlo-Regular-6d" transform="translate(120.410156 0)"/>
      <use xlink:href="#Menlo-Regular-65" transform="translate(180.615234 0)"/>
      <use xlink:href="#Menlo-Regular-20" transform="translate(240.820312 0)"/>
      <use xlink:href="#Menlo-Regular-28" transform="translate(301.025391 0)"/>
      <use xlink:href="#Menlo-Regular-6d" transform="translate(361.230469 0)"/>
      <use xlink:href="#Menlo-Regular-73" transform="translate(421.435547 0)"/>
      <use xlink:href="#Menlo-Regular-29" transform="translate(481.640625 0)"/>
     </g>
    </g>
   </g>
   <g id="matplotlib.axis_2">
    <g id="ytick_1">
     <g id="line2d_6">
      <defs>
       <path id="mb7f890f00e" d="M 0 0 
L 3 0 
" style="stroke: #1a1a1a; stroke-width: 0.8"/>
      </defs>
      <g>
       <use xlink:href="#mb7f890f00e" x="29.770156" y="80.28326" style="fill: #1a1a1a; stroke: #1a1a1a; stroke-width: 0.8"/>
      </g>
     </g>
     <g id="text_7">
      <!-- 0.0 -->
      <g style="fill: #1a1a1a" transform="translate(13.6275 82.952557) scale(0.07 -0.07)">
       <defs>
        <path id="Menlo-Regular-2e" d="M 1216 1263 
L 2316 1263 
L 2316 0 
L 1216 0 
L 1216 1263 
z
" transform="scale(0.015625)"/>
       </defs>
       <use xlink:href="#Menlo-Regular-30"/>
       <use xlink:href="#Menlo-Regular-2e" transform="translate(60.205078 0)"/>
       <use xlink:href="#Menlo-Regular-30" transform="translate(120.410156 0)"/>
      </g>
     </g>
    </g>
    <g id="ytick_2">
     <g id="line2d_7">
      <g>
       <use xlink:href="#mb7f890f00e" x="29.770156" y="52.285151" style="fill: #1a1a1a; stroke: #1a1a1a; stroke-width: 0.8"/>
      </g>
     </g>
     <g id="text_8">
      <!-- 0.1 -->
      <g style="fill: #1a1a1a" transform="translate(13.6275 54.954448) scale(0.07 -0.07)">
       <use xlink:href="#Menlo-Regular-30"/>
       <use xlink:href="#Menlo-Regular-2e" transform="translate(60.205078 0)"/>
       <use xlink:href="#Menlo-Regular-31" transform="translate(120.410156 0)"/>
      </g>
     </g>
    </g>
    <g id="ytick_3">
     <g id="line2d_8">
      <g>
       <use xlink:href="#mb7f890f00e" x="29.770156" y="24.287042" style="fill: #1a1a1a; stroke: #1a1a1a; stroke-width: 0.8"/>
      </g>
     </g>
     <g id="text_9">
      <!-- 0.2 -->
      <g style="fill: #1a1a1a" transform="translate(13.6275 26.956338) scale(0.07 -0.07)">
       <use xlink:href="#Menlo-Regular-30"/>
       <use xlink:href="#Menlo-Regular-2e" transform="translate(60.205078 0)"/>
       <use xlink:href="#Menlo-Regular-32" transform="translate(120.410156 0)"/>
      </g>
     </g>
    </g>
    <g id="text_10">
     <!-- g  [µS] -->
     <g style="fill: #1a1a1a" transform="translate(7.90875 65.721953) rotate(-90) scale(0.08 -0.08)">
      <defs>
       <path id="Menlo-Regular-67" d="M 2681 1778 
Q 2681 2425 2470 2761 
Q 2259 3097 1856 3097 
Q 1434 3097 1212 2761 
Q 991 2425 991 1778 
Q 991 1131 1214 792 
Q 1438 453 1863 453 
Q 2259 453 2470 793 
Q 2681 1134 2681 1778 
z
M 3256 225 
Q 3256 -563 2884 -969 
Q 2513 -1375 1791 -1375 
Q 1553 -1375 1293 -1331 
Q 1034 -1288 775 -1203 
L 775 -634 
Q 1081 -778 1331 -847 
Q 1581 -916 1791 -916 
Q 2256 -916 2468 -662 
Q 2681 -409 2681 141 
L 2681 166 
L 2681 556 
Q 2544 263 2306 119 
Q 2069 -25 1728 -25 
Q 1116 -25 750 465 
Q 384 956 384 1778 
Q 384 2603 750 3093 
Q 1116 3584 1728 3584 
Q 2066 3584 2300 3450 
Q 2534 3316 2681 3034 
L 2681 3488 
L 3256 3488 
L 3256 225 
z
" transform="scale(0.015625)"/>
       <path id="Menlo-Regular-5b" d="M 1759 5175 
L 3084 5175 
L 3084 4728 
L 2334 4728 
L 2334 -84 
L 3084 -84 
L 3084 -531 
L 1759 -531 
L 1759 5175 
z
" transform="scale(0.015625)"/>
       <path id="Menlo-Regular-b5" d="M 609 -1338 
L 609 3500 
L 1184 3500 
L 1184 1325 
Q 1184 881 1371 645 
Q 1559 409 1906 409 
Q 2303 409 2504 675 
Q 2706 941 2706 1459 
L 2706 3500 
L 3284 3500 
L 3284 800 
Q 3284 616 3334 528 
Q 3384 441 3488 441 
Q 3516 441 3561 456 
Q 3606 472 3694 513 
L 3694 50 
Q 3575 -22 3469 -56 
Q 3363 -91 3256 -91 
Q 3063 -91 2945 32 
Q 2828 156 2791 403 
Q 2647 153 2439 31 
Q 2231 -91 1953 -91 
Q 1666 -91 1467 28 
Q 1269 147 1131 397 
L 1131 -1338 
L 609 -1338 
z
" transform="scale(0.015625)"/>
       <path id="Menlo-Regular-53" d="M 3163 4506 
L 3163 3866 
Q 2875 4050 2586 4144 
Q 2297 4238 2003 4238 
Q 1556 4238 1297 4030 
Q 1038 3822 1038 3469 
Q 1038 3159 1208 2996 
Q 1378 2834 1844 2725 
L 2175 2650 
Q 2831 2497 3131 2169 
Q 3431 1841 3431 1275 
Q 3431 609 3018 259 
Q 2606 -91 1819 -91 
Q 1491 -91 1159 -20 
Q 828 50 494 191 
L 494 863 
Q 853 634 1173 528 
Q 1494 422 1819 422 
Q 2297 422 2562 636 
Q 2828 850 2828 1234 
Q 2828 1584 2645 1768 
Q 2463 1953 2009 2053 
L 1672 2131 
Q 1022 2278 728 2575 
Q 434 2872 434 3372 
Q 434 3997 854 4373 
Q 1275 4750 1972 4750 
Q 2241 4750 2537 4689 
Q 2834 4628 3163 4506 
z
" transform="scale(0.015625)"/>
       <path id="Menlo-Regular-5d" d="M 2250 5175 
L 2250 -531 
L 925 -531 
L 925 -84 
L 1675 -84 
L 1675 4728 
L 925 4728 
L 925 5175 
L 2250 5175 
z
" transform="scale(0.015625)"/>
      </defs>
      <use xlink:href="#Menlo-Regular-67"/>
      <use xlink:href="#Menlo-Regular-20" transform="translate(60.205078 0)"/>
      <use xlink:href="#Menlo-Regular-20" transform="translate(120.410156 0)"/>
      <use xlink:href="#Menlo-Regular-5b" transform="translate(180.615234 0)"/>
      <use xlink:href="#Menlo-Regular-b5" transform="translate(240.820312 0)"/>
      <use xlink:href="#Menlo-Regular-53" transform="translate(301.025391 0)"/>
      <use xlink:href="#Menlo-Regular-5d" transform="translate(361.230469 0)"/>
     </g>
    </g>
   </g>
   <g id="line2d_9">
    <path d="M 29.770156 80.28326 
L 29.855145 67.775762 
L 29.940134 69.245432 
L 30.110113 71.686991 
L 30.195102 62.678806 
L 30.280091 64.747384 
L 30.705036 71.967506 
L 31.129981 75.832158 
L 31.299959 76.816738 
L 31.384948 51.169961 
L 31.469938 54.590863 
L 31.554927 47.505835 
L 31.639916 51.357284 
L 31.724905 43.846752 
L 32.14985 60.780205 
L 32.574795 69.844027 
L 32.999741 74.695542 
L 33.339697 76.894138 
L 33.424686 66.382947 
L 33.509675 68.016277 
L 33.93462 73.717217 
L 34.019609 58.438975 
L 34.104598 61.005745 
L 34.359566 67.034031 
L 34.444555 58.449248 
L 34.529544 61.014813 
L 34.954489 69.969605 
L 35.039478 48.365693 
L 35.124467 52.116105 
L 35.294445 58.346658 
L 35.379434 50.906004 
L 35.80438 64.558748 
L 35.889369 66.406427 
L 36.059347 47.856925 
L 36.144336 51.667121 
L 36.229325 44.310216 
L 36.569281 58.464508 
L 36.65427 51.010005 
L 36.824248 57.485225 
L 36.909238 49.254643 
L 36.994227 52.900602 
L 37.079216 47.062211 
L 37.504161 62.501314 
L 37.929106 70.765271 
L 38.354052 75.188648 
L 38.694008 77.193222 
L 38.778997 67.452347 
L 38.863986 68.960019 
L 39.288931 74.222366 
L 39.543898 76.117673 
L 39.628887 63.074016 
L 39.713877 65.096155 
L 40.138822 72.15419 
L 40.563767 75.932082 
L 40.988712 77.954243 
L 41.413658 79.036627 
L 41.923592 79.694392 
L 42.09357 79.824649 
L 42.178559 67.371039 
L 42.263548 68.888265 
L 42.688494 74.183959 
L 42.773483 62.269716 
L 42.858472 64.386363 
L 42.943461 66.254298 
L 43.02845 52.568029 
L 43.113439 55.824656 
L 43.453395 65.448368 
L 43.538384 56.282091 
L 43.793352 63.787515 
L 43.878341 50.391101 
L 43.96333 53.903523 
L 44.048319 50.016258 
L 44.218297 56.711296 
L 44.388275 40.306348 
L 44.558253 49.149211 
L 44.643242 40.300061 
L 45.068188 58.8818 
L 45.153177 61.396538 
L 45.578122 38.617542 
L 46.003067 57.98121 
L 46.428012 68.345834 
L 46.852958 73.893617 
L 47.107925 58.071213 
L 47.53287 68.394009 
L 47.702848 71.023902 
L 47.787837 61.927035 
L 47.872827 64.083948 
L 48.042805 67.667223 
L 48.212783 49.044059 
L 48.46775 58.812892 
L 48.552739 52.279789 
L 48.977684 65.294082 
L 49.062673 54.54786 
L 49.147662 57.571849 
L 49.232652 60.240511 
L 49.40263 43.451251 
L 49.487619 47.779127 
L 49.572608 36.263747 
L 49.742586 46.000828 
L 49.827575 28.342254 
L 50.082542 44.584766 
L 50.167531 36.271949 
L 50.592477 56.725704 
L 51.017422 67.673811 
L 51.102411 57.872313 
L 51.1874 60.50567 
L 51.612345 69.69708 
L 52.037291 74.616887 
L 52.462236 77.250269 
L 52.887181 78.659817 
L 53.312127 79.414294 
L 53.482105 79.606508 
L 53.567094 69.544421 
L 53.652083 70.806268 
L 54.077028 75.210592 
L 54.247006 76.332662 
L 54.416984 57.603705 
L 54.84193 68.14377 
L 55.181886 72.920288 
L 55.266875 60.969713 
L 55.351864 63.239115 
L 55.69182 69.945464 
L 55.776809 57.627062 
L 55.861798 60.289236 
L 55.946787 62.638595 
L 56.031777 53.802475 
L 56.456722 66.109118 
L 56.6267 69.244427 
L 56.711689 61.485587 
L 56.796678 63.694372 
L 57.221623 71.403869 
L 57.56158 74.897637 
L 57.646569 62.714716 
L 57.731558 64.779075 
L 57.901536 68.208588 
L 58.071514 51.128975 
L 58.241492 57.57788 
L 58.326481 38.053261 
L 58.41147 43.015419 
L 58.836416 60.335223 
L 59.261361 69.605845 
L 59.34635 70.860475 
L 59.431339 56.632966 
L 59.516328 59.41195 
L 59.941273 69.111653 
L 60.026262 70.424351 
L 60.111252 60.673379 
L 60.196241 62.977601 
L 60.621186 71.020209 
L 61.046131 75.325106 
L 61.13112 75.907705 
L 61.216109 61.087131 
L 61.301098 63.342736 
L 61.726044 71.215652 
L 61.811033 59.773626 
L 61.896022 62.183571 
L 61.981011 64.310342 
L 62.066 56.168935 
L 62.490945 67.375793 
L 62.575934 59.836522 
L 62.745912 64.359324 
L 62.830902 46.027292 
L 62.915891 50.052475 
L 63.085869 56.739501 
L 63.170858 46.690219 
L 63.255847 50.637506 
L 63.340836 38.78626 
L 63.765781 58.071516 
L 64.020748 65.017366 
L 64.105737 50.761382 
L 64.190727 54.230295 
L 64.360705 32.63356 
L 64.78565 54.778213 
L 65.125606 64.813669 
L 65.210595 50.581619 
L 65.295584 54.071655 
L 65.465562 59.869641 
L 65.550552 51.548916 
L 65.635541 54.92529 
L 65.72053 47.886655 
L 66.145475 62.942607 
L 66.57042 71.001477 
L 66.655409 72.092116 
L 66.740398 62.335211 
L 66.825387 64.444162 
L 67.250333 71.805202 
L 67.5053 74.456382 
L 67.590289 62.32531 
L 67.675278 64.435426 
L 68.100223 71.800527 
L 68.44018 75.138222 
L 68.525169 65.02339 
L 68.610158 66.816471 
L 68.695147 59.342923 
L 69.120092 69.074706 
L 69.205081 59.1086 
L 69.29007 61.596688 
L 69.460048 65.730143 
L 69.545037 54.932681 
L 69.630027 57.911453 
L 69.715016 47.90928 
L 69.800005 51.713324 
L 70.139961 36.857829 
L 70.564906 57.039302 
L 70.819873 64.307937 
L 70.904862 59.198122 
L 71.329808 68.9972 
L 71.414797 54.988632 
L 71.499786 57.960829 
L 71.924731 68.334925 
L 72.00972 69.738892 
L 72.094709 60.959613 
L 72.179698 63.230202 
L 72.604644 71.155415 
L 72.9446 74.746942 
L 73.029589 59.347704 
L 73.114578 61.807697 
L 73.539523 70.394005 
L 73.87948 74.285124 
L 73.964469 55.372026 
L 74.049458 58.299174 
L 74.304425 65.173834 
L 74.389414 54.318308 
L 74.474403 57.369271 
L 74.559392 50.043463 
L 74.984337 64.097065 
L 75.409283 71.619415 
L 75.494272 72.637443 
L 75.579261 62.252704 
L 75.66425 64.37135 
L 76.089195 71.766229 
L 76.259173 73.65019 
L 76.344162 63.520173 
L 76.429152 65.489888 
L 76.59913 68.76217 
L 76.684119 60.097658 
L 76.769108 62.46953 
L 76.854097 64.562698 
L 76.939086 53.902416 
L 77.024075 57.002246 
L 77.44902 67.821833 
L 77.873966 73.613139 
L 78.298911 76.713002 
L 78.3839 66.413129 
L 78.468889 68.042912 
L 78.893834 73.731474 
L 79.148802 75.780287 
L 79.233791 63.801903 
L 79.31878 65.738513 
L 79.743725 72.498019 
L 79.828714 64.356871 
L 79.913703 66.228272 
L 80.16867 70.623417 
L 80.338648 52.260831 
L 80.423637 55.553554 
L 80.848583 67.046404 
L 80.933572 58.416905 
L 81.018561 60.98627 
L 81.273528 37.593932 
L 81.698473 57.433308 
L 82.123419 68.052562 
L 82.208408 56.98221 
L 82.293397 59.720155 
L 82.378386 53.080446 
L 82.548364 59.097688 
L 82.718342 41.917775 
L 82.88832 50.404191 
L 83.058298 35.681788 
L 83.143287 40.922601 
L 83.228277 24.72425 
L 83.398255 37.013859 
L 83.568233 27.901549 
L 83.993178 52.245351 
L 84.418123 65.275649 
L 84.588102 45.602369 
L 84.673091 49.677481 
L 84.843069 56.447456 
L 84.928058 43.198463 
L 85.353003 60.433199 
L 85.437992 47.430928 
L 85.522981 51.29118 
L 85.60797 44.593874 
L 85.692959 48.787486 
L 85.777948 39.67259 
L 86.032916 52.371981 
L 86.117905 46.595706 
L 86.54285 62.251611 
L 86.882806 69.346512 
L 86.967795 63.644648 
L 87.392741 71.377253 
L 87.817686 75.516218 
L 88.242631 77.731646 
L 88.412609 58.05382 
L 88.582587 62.970956 
L 88.667577 54.820336 
L 89.092522 66.65394 
L 89.177511 57.536038 
L 89.2625 60.208908 
L 89.687445 69.538233 
L 89.857423 52.856701 
L 90.282369 65.602881 
L 90.367358 67.327871 
L 90.537336 46.524835 
L 90.622325 50.491555 
L 90.707314 43.9739 
L 91.132259 60.848261 
L 91.557205 69.880454 
L 91.642194 71.102816 
L 91.727183 60.898401 
L 91.812172 63.176182 
L 91.897161 65.186316 
L 91.98215 54.329324 
L 92.067139 57.378992 
L 92.237117 62.445398 
L 92.322106 54.437439 
L 92.577073 62.519705 
L 92.662062 53.887588 
L 92.747052 56.989163 
L 92.91703 39.553528 
L 93.256986 55.579431 
L 93.341975 47.572784 
L 93.511953 54.808317 
L 93.76692 34.514242 
L 94.106877 52.522948 
L 94.191866 40.450158 
L 94.616811 58.962137 
L 95.041756 68.870886 
L 95.211734 71.395294 
L 95.296723 62.254788 
L 95.381712 64.373189 
L 95.63668 69.34844 
L 95.721669 58.125817 
L 95.806658 60.729385 
L 95.891647 63.027026 
L 95.976636 55.036413 
L 96.146614 60.620997 
L 96.231603 53.875435 
L 96.656548 66.148171 
L 97.081494 72.717292 
L 97.42145 75.694269 
L 97.506439 54.670053 
L 97.591428 57.679684 
L 97.761406 62.679577 
L 97.846395 53.838642 
L 98.271341 66.128477 
L 98.35633 67.791708 
L 98.441319 62.272538 
L 98.526308 64.388854 
L 98.611297 56.114888 
L 99.036242 67.346863 
L 99.461187 73.358906 
L 99.801144 76.083427 
L 100.056111 53.713777 
L 100.481056 66.061641 
L 100.906002 72.670977 
L 101.07598 74.354808 
L 101.160969 65.033144 
L 101.245958 66.82508 
L 101.415936 69.802019 
L 101.500925 60.929635 
L 101.585914 63.203746 
L 102.010859 71.141255 
L 102.265827 74.000058 
L 102.350816 63.455208 
L 102.435805 65.432557 
L 102.86075 72.334252 
L 103.285695 76.028463 
L 103.710641 78.005831 
L 104.135586 79.06424 
L 104.305564 57.833196 
L 104.390553 60.471148 
L 104.730509 68.266607 
L 104.900487 48.603708 
L 105.325433 63.326418 
L 105.410422 65.3189 
L 105.495411 60.090293 
L 105.750378 66.404851 
L 105.835367 58.97967 
L 106.260312 68.880271 
L 106.600269 73.366997 
L 106.685258 63.994809 
L 106.770247 65.908753 
L 107.195192 72.589141 
L 107.280181 73.493224 
L 107.535148 36.785778 
L 107.875105 53.900705 
L 108.045083 40.028999 
L 108.470028 58.736709 
L 108.894973 68.750222 
L 109.319919 74.11007 
L 109.744864 76.97899 
L 109.829853 77.367252 
L 110.08482 47.821366 
L 110.339787 57.972551 
L 110.424777 49.87474 
L 110.849722 64.006753 
L 110.934711 65.919293 
L 111.104689 40.22904 
L 111.274667 49.089002 
L 111.359656 43.698486 
L 111.784602 60.700844 
L 111.869591 50.49434 
L 111.95458 53.99463 
L 112.039569 48.027689 
L 112.379525 60.719268 
L 112.464514 52.999823 
L 112.889459 65.67949 
L 112.974448 67.395479 
L 113.144427 42.961307 
L 113.484383 57.646353 
L 113.569372 37.472237 
L 113.654361 42.502666 
L 113.824339 50.859705 
L 113.909328 44.2131 
L 113.994317 48.451455 
L 114.079306 42.087827 
L 114.504252 59.838718 
L 114.929197 69.340086 
L 115.354142 74.425801 
L 115.694098 76.730532 
L 115.779087 55.846567 
L 115.864077 58.717955 
L 116.034055 63.488184 
L 116.119044 45.13518 
L 116.204033 49.265188 
L 116.289022 52.909908 
L 116.374011 45.406971 
L 116.543989 53.12158 
L 116.628978 43.805666 
L 116.713967 48.091896 
L 116.798956 35.824706 
L 117.053923 49.727375 
L 117.138912 34.076978 
L 117.308891 44.297771 
L 117.39388 38.507905 
L 117.648847 51.571508 
L 117.733836 47.958262 
L 117.988803 58.066637 
L 118.24377 37.263055 
L 118.413748 25.283475 
L 118.838694 50.843999 
L 118.923683 41.795705 
L 119.263639 56.939378 
L 119.348628 50.626419 
L 119.773573 64.409097 
L 119.858562 66.27436 
L 119.943552 57.011026 
L 120.028541 59.745586 
L 120.368497 67.826531 
L 120.453486 59.105365 
L 120.538475 61.593832 
L 120.96342 70.279531 
L 121.048409 71.455 
L 121.133398 62.474073 
L 121.218387 64.566707 
L 121.643333 71.870796 
L 121.983289 75.180843 
L 122.153267 54.342166 
L 122.238256 57.390325 
L 122.493223 64.549193 
L 122.578212 53.890496 
L 122.663202 56.991728 
L 123.088147 67.816201 
L 123.173136 69.281119 
L 123.258125 47.881536 
L 123.343114 51.688838 
L 123.768059 64.97777 
L 124.193005 72.090822 
L 124.61795 75.898164 
L 125.042895 77.936087 
L 125.297862 78.670074 
L 125.467841 57.079658 
L 125.892786 67.863268 
L 125.977775 69.322656 
L 126.062764 59.891171 
L 126.147753 62.287305 
L 126.232742 64.401886 
L 126.317731 56.12639 
L 126.40272 58.964898 
L 126.487709 50.186727 
L 126.742677 59.598235 
L 126.827666 52.972853 
L 127.167622 63.718662 
L 127.252611 53.034124 
L 127.3376 56.235982 
L 127.677556 65.697848 
L 127.762545 60.424713 
L 128.187491 69.653747 
L 128.527447 73.836135 
L 128.612436 64.408822 
L 128.697425 66.274117 
L 129.12237 72.784707 
L 129.377337 75.129585 
L 129.462327 65.716883 
L 129.547316 67.428478 
L 129.972261 73.402591 
L 130.397206 76.600304 
L 130.567184 77.414971 
L 130.652173 68.696067 
L 130.737162 70.057597 
L 131.162108 74.809858 
L 131.587053 77.353559 
L 132.011998 78.715104 
L 132.181977 79.061979 
L 132.266966 69.020613 
L 132.351955 70.344009 
L 132.436944 71.511902 
L 132.521933 65.555596 
L 132.606922 67.286142 
L 132.946878 72.400109 
L 133.201845 58.140655 
L 133.286834 60.742479 
L 133.371823 34.888119 
L 133.456812 40.22219 
L 133.796769 55.984993 
L 133.881758 49.784177 
L 134.136725 59.321569 
L 134.221714 49.277134 
L 134.391692 56.135665 
L 134.476681 46.342152 
L 134.901627 62.115895 
L 135.241583 69.264196 
L 135.326572 50.756255 
L 135.411561 54.22577 
L 135.836506 66.335692 
L 135.921495 67.974575 
L 136.006484 54.086169 
L 136.091473 57.164409 
L 136.346441 64.393922 
L 136.43143 53.75347 
L 136.516419 56.870802 
L 136.941364 67.751474 
L 137.366309 73.575478 
L 137.791255 76.692843 
L 137.876244 77.114728 
L 137.961233 67.383077 
L 138.046222 68.898888 
L 138.131211 70.236587 
L 138.2162 60.507678 
L 138.301189 62.831371 
L 138.471167 66.691716 
L 138.641145 47.668907 
L 138.981102 60.501654 
L 139.066091 51.916632 
L 139.491036 65.099698 
L 139.915981 72.156085 
L 140.340927 75.933097 
L 140.765872 77.954786 
L 140.93585 59.786374 
L 141.360795 69.312067 
L 141.615762 72.742876 
L 141.700752 60.813147 
L 141.785741 63.100945 
L 142.210686 71.08623 
L 142.635631 75.360445 
L 143.060577 77.648267 
L 143.145566 77.957887 
L 143.230555 65.415378 
L 143.315544 67.1624 
L 143.485522 70.064725 
L 143.570511 58.449689 
L 143.6555 61.015201 
L 144.080445 69.969811 
L 144.505391 74.762868 
L 144.930336 77.328408 
L 145.355281 78.701642 
L 145.695237 79.32396 
L 145.780227 68.153534 
L 145.865216 69.578815 
L 146.205172 73.790686 
L 146.37515 55.69541 
L 146.800095 67.122333 
L 147.055062 71.237896 
L 147.140052 59.669824 
L 147.225041 62.091966 
L 147.31003 64.2295 
L 147.395019 40.075242 
L 147.480008 44.79981 
L 147.649986 52.648721 
L 147.734975 40.561151 
L 147.904953 49.34765 
L 147.989942 42.964407 
L 148.414887 60.307919 
L 148.669855 66.554422 
L 148.924822 38.090885 
L 149.349767 57.699311 
L 149.434756 46.819869 
L 149.859702 62.371599 
L 149.944691 54.372311 
L 150.199658 62.474943 
L 150.284647 52.059977 
L 150.709592 65.176426 
L 151.134537 72.197155 
L 151.559483 75.95508 
L 151.984428 77.966552 
L 152.069417 45.92856 
L 152.154406 49.965344 
L 152.494362 61.894514 
L 152.579352 51.424318 
L 152.834319 60.448819 
L 152.919308 51.870005 
L 153.174275 60.755137 
L 153.259264 52.945787 
L 153.684209 65.650566 
L 153.939177 70.226366 
L 154.109155 47.451231 
L 154.194144 51.309097 
L 154.619089 64.774507 
L 154.874056 69.624261 
L 154.959045 63.88976 
L 155.383991 71.508452 
L 155.808936 75.586444 
L 156.233881 77.769236 
L 156.658827 78.9376 
L 156.828805 79.235259 
L 156.998783 49.246109 
L 157.083772 52.893071 
L 157.508717 65.622349 
L 157.933662 72.43584 
L 158.103641 43.488048 
L 158.18863 47.8116 
L 158.358608 35.631624 
L 158.783553 56.382965 
L 159.208498 67.490355 
L 159.633444 73.435712 
L 159.888411 75.577014 
L 159.9734 63.314264 
L 160.058389 65.308173 
L 160.483334 72.267674 
L 160.653312 74.040715 
L 160.738302 61.958486 
L 160.823291 64.111703 
L 161.248236 71.627249 
L 161.503203 74.334077 
L 161.588192 64.848254 
L 161.673181 66.661915 
L 161.75817 68.262465 
L 161.928148 51.357665 
L 162.353094 64.800504 
L 162.778039 71.995938 
L 163.202984 75.847377 
L 163.372962 76.828591 
L 163.712919 48.028469 
L 163.882897 55.163203 
L 164.052875 32.295307 
L 164.222853 42.910204 
L 164.392831 17.446896 
L 164.47782 24.830366 
L 164.732787 42.17108 
L 164.902766 32.557412 
L 165.242722 51.336071 
L 165.327711 44.018065 
L 165.497689 52.039899 
L 165.582678 48.371615 
L 165.667667 39.490405 
L 165.667667 39.490405 
" clip-path="url(#p2c318214d6)" style="fill: none; stroke: #1a1a1a; stroke-width: 0.9; stroke-linejoin: miter"/>
   </g>
   <g id="line2d_10">
    <path d="M 29.770156 66.284205 
L 165.752656 66.284205 
" clip-path="url(#p2c318214d6)" style="fill: none; stroke-dasharray: 0.7,1.155; stroke-dashoffset: 0; stroke: #bbbbbb; stroke-width: 0.7"/>
   </g>
   <g id="patch_3">
    <path d="M 29.770156 83.425078 
L 29.770156 14.305078 
" style="fill: none; stroke: #1a1a1a; stroke-width: 0.8; stroke-linejoin: miter; stroke-linecap: square"/>
   </g>
   <g id="patch_4">
    <path d="M 165.752656 83.425078 
L 165.752656 14.305078 
" style="fill: none; stroke: #1a1a1a; stroke-width: 0.8; stroke-linejoin: miter; stroke-linecap: square"/>
   </g>
   <g id="patch_5">
    <path d="M 29.770156 83.425078 
L 165.752656 83.425078 
" style="fill: none; stroke: #1a1a1a; stroke-width: 0.8; stroke-linejoin: miter; stroke-linecap: square"/>
   </g>
   <g id="patch_6">
    <path d="M 29.770156 14.305078 
L 165.752656 14.305078 
" style="fill: none; stroke: #1a1a1a; stroke-width: 0.8; stroke-linejoin: miter; stroke-linecap: square"/>
   </g>
   <g id="text_11">
    <!-- COBA — no recurrent loop (ei-strength = 0) — E-neuron conductances (cell 334) -->
    <g style="fill: #1a1a1a" transform="translate(29.770156 8.305078) scale(0.085 -0.085)">
     <defs>
      <path id="Menlo-Regular-43" d="M 3353 166 
Q 3113 38 2859 -26 
Q 2606 -91 2322 -91 
Q 1425 -91 929 543 
Q 434 1178 434 2328 
Q 434 3472 932 4111 
Q 1431 4750 2322 4750 
Q 2606 4750 2859 4686 
Q 3113 4622 3353 4494 
L 3353 3847 
Q 3122 4038 2856 4138 
Q 2591 4238 2322 4238 
Q 1706 4238 1400 3763 
Q 1094 3288 1094 2328 
Q 1094 1372 1400 897 
Q 1706 422 2322 422 
Q 2597 422 2861 522 
Q 3125 622 3353 813 
L 3353 166 
z
" transform="scale(0.015625)"/>
      <path id="Menlo-Regular-4f" d="M 2828 2328 
Q 2828 3356 2617 3797 
Q 2406 4238 1925 4238 
Q 1447 4238 1236 3797 
Q 1025 3356 1025 2328 
Q 1025 1303 1236 862 
Q 1447 422 1925 422 
Q 2406 422 2617 861 
Q 2828 1300 2828 2328 
z
M 3488 2328 
Q 3488 1109 3102 509 
Q 2716 -91 1925 -91 
Q 1134 -91 750 506 
Q 366 1103 366 2328 
Q 366 3550 752 4150 
Q 1138 4750 1925 4750 
Q 2716 4750 3102 4150 
Q 3488 3550 3488 2328 
z
" transform="scale(0.015625)"/>
      <path id="Menlo-Regular-42" d="M 1153 2353 
L 1153 519 
L 1900 519 
Q 2450 519 2684 711 
Q 2919 903 2919 1344 
Q 2919 1925 2672 2139 
Q 2425 2353 1900 2353 
L 1153 2353 
z
M 1153 4147 
L 1153 2866 
L 1888 2866 
Q 2344 2866 2548 3041 
Q 2753 3216 2753 3481 
Q 2753 3834 2551 3990 
Q 2350 4147 1888 4147 
L 1153 4147 
z
M 519 4666 
L 1900 4666 
Q 2616 4666 3003 4356 
Q 3391 4047 3391 3481 
Q 3391 3178 3186 2931 
Q 2981 2684 2572 2622 
Q 3031 2553 3292 2229 
Q 3553 1906 3553 1281 
Q 3553 647 3137 323 
Q 2722 0 1900 0 
L 519 0 
L 519 4666 
z
" transform="scale(0.015625)"/>
      <path id="Menlo-Regular-41" d="M 1925 4109 
L 1259 1722 
L 2591 1722 
L 1925 4109 
z
M 1544 4666 
L 2309 4666 
L 3738 0 
L 3084 0 
L 2741 1216 
L 1106 1216 
L 769 0 
L 116 0 
L 1544 4666 
z
" transform="scale(0.015625)"/>
      <path id="Menlo-Regular-2014" d="M 0 2259 
L 3853 2259 
L 3853 1725 
L 0 1725 
L 0 2259 
z
" transform="scale(0.015625)"/>
      <path id="Menlo-Regular-6e" d="M 3284 2169 
L 3284 0 
L 2706 0 
L 2706 2169 
Q 2706 2641 2540 2862 
Q 2375 3084 2022 3084 
Q 1619 3084 1401 2798 
Q 1184 2513 1184 1978 
L 1184 0 
L 609 0 
L 609 3500 
L 1184 3500 
L 1184 2975 
Q 1338 3275 1600 3429 
Q 1863 3584 2222 3584 
Q 2756 3584 3020 3232 
Q 3284 2881 3284 2169 
z
" transform="scale(0.015625)"/>
      <path id="Menlo-Regular-6f" d="M 1925 3097 
Q 1488 3097 1263 2756 
Q 1038 2416 1038 1747 
Q 1038 1081 1263 739 
Q 1488 397 1925 397 
Q 2366 397 2591 739 
Q 2816 1081 2816 1747 
Q 2816 2416 2591 2756 
Q 2366 3097 1925 3097 
z
M 1925 3584 
Q 2653 3584 3039 3112 
Q 3425 2641 3425 1747 
Q 3425 850 3040 379 
Q 2656 -91 1925 -91 
Q 1197 -91 812 379 
Q 428 850 428 1747 
Q 428 2641 812 3112 
Q 1197 3584 1925 3584 
z
" transform="scale(0.015625)"/>
      <path id="Menlo-Regular-72" d="M 3609 2778 
Q 3425 2922 3234 2987 
Q 3044 3053 2816 3053 
Q 2278 3053 1993 2715 
Q 1709 2378 1709 1741 
L 1709 0 
L 1131 0 
L 1131 3500 
L 1709 3500 
L 1709 2816 
Q 1853 3188 2151 3386 
Q 2450 3584 2859 3584 
Q 3072 3584 3256 3531 
Q 3441 3478 3609 3366 
L 3609 2778 
z
" transform="scale(0.015625)"/>
      <path id="Menlo-Regular-63" d="M 3316 178 
Q 3084 44 2839 -23 
Q 2594 -91 2338 -91 
Q 1525 -91 1067 396 
Q 609 884 609 1747 
Q 609 2609 1067 3096 
Q 1525 3584 2338 3584 
Q 2591 3584 2831 3518 
Q 3072 3453 3316 3316 
L 3316 2713 
Q 3088 2916 2858 3006 
Q 2628 3097 2338 3097 
Q 1797 3097 1506 2747 
Q 1216 2397 1216 1747 
Q 1216 1100 1508 748 
Q 1800 397 2338 397 
Q 2638 397 2875 489 
Q 3113 581 3316 775 
L 3316 178 
z
" transform="scale(0.015625)"/>
      <path id="Menlo-Regular-75" d="M 609 1325 
L 609 3494 
L 1184 3494 
L 1184 1325 
Q 1184 853 1351 631 
Q 1519 409 1869 409 
Q 2275 409 2490 695 
Q 2706 981 2706 1516 
L 2706 3494 
L 3284 3494 
L 3284 0 
L 2706 0 
L 2706 525 
Q 2553 222 2289 65 
Q 2025 -91 1672 -91 
Q 1134 -91 871 261 
Q 609 613 609 1325 
z
" transform="scale(0.015625)"/>
      <path id="Menlo-Regular-6c" d="M 2247 1266 
Q 2247 878 2389 681 
Q 2531 484 2809 484 
L 3481 484 
L 3481 0 
L 2753 0 
Q 2238 0 1955 329 
Q 1672 659 1672 1266 
L 1672 4431 
L 750 4431 
L 750 4881 
L 2247 4881 
L 2247 1266 
z
" transform="scale(0.015625)"/>
      <path id="Menlo-Regular-70" d="M 1172 441 
L 1172 -1331 
L 594 -1331 
L 594 3500 
L 1172 3500 
L 1172 3053 
Q 1316 3313 1555 3448 
Q 1794 3584 2106 3584 
Q 2741 3584 3102 3093 
Q 3463 2603 3463 1734 
Q 3463 881 3100 395 
Q 2738 -91 2106 -91 
Q 1788 -91 1548 45 
Q 1309 181 1172 441 
z
M 2859 1747 
Q 2859 2416 2648 2756 
Q 2438 3097 2022 3097 
Q 1603 3097 1387 2755 
Q 1172 2413 1172 1747 
Q 1172 1084 1387 740 
Q 1603 397 2022 397 
Q 2438 397 2648 737 
Q 2859 1078 2859 1747 
z
" transform="scale(0.015625)"/>
      <path id="Menlo-Regular-2d" d="M 319 2263 
L 3631 2263 
L 3631 1734 
L 319 1734 
L 319 2263 
z
" transform="scale(0.015625)"/>
      <path id="Menlo-Regular-68" d="M 3284 2169 
L 3284 0 
L 2706 0 
L 2706 2169 
Q 2706 2641 2540 2862 
Q 2375 3084 2022 3084 
Q 1619 3084 1401 2798 
Q 1184 2513 1184 1978 
L 1184 0 
L 609 0 
L 609 4863 
L 1184 4863 
L 1184 2975 
Q 1338 3275 1600 3429 
Q 1863 3584 2222 3584 
Q 2756 3584 3020 3232 
Q 3284 2881 3284 2169 
z
" transform="scale(0.015625)"/>
      <path id="Menlo-Regular-3d" d="M 275 1563 
L 3578 1563 
L 3578 1034 
L 275 1034 
L 275 1563 
z
M 275 3034 
L 3578 3034 
L 3578 2506 
L 275 2506 
L 275 3034 
z
" transform="scale(0.015625)"/>
      <path id="Menlo-Regular-45" d="M 616 4666 
L 3384 4666 
L 3384 4134 
L 1247 4134 
L 1247 2878 
L 3291 2878 
L 3291 2347 
L 1247 2347 
L 1247 531 
L 3444 531 
L 3444 0 
L 616 0 
L 616 4666 
z
" transform="scale(0.015625)"/>
      <path id="Menlo-Regular-64" d="M 2681 3053 
L 2681 4863 
L 3256 4863 
L 3256 0 
L 2681 0 
L 2681 441 
Q 2538 181 2298 45 
Q 2059 -91 1747 -91 
Q 1113 -91 748 401 
Q 384 894 384 1759 
Q 384 2613 750 3098 
Q 1116 3584 1747 3584 
Q 2063 3584 2303 3448 
Q 2544 3313 2681 3053 
z
M 991 1747 
Q 991 1078 1203 737 
Q 1416 397 1831 397 
Q 2247 397 2464 740 
Q 2681 1084 2681 1747 
Q 2681 2413 2464 2755 
Q 2247 3097 1831 3097 
Q 1416 3097 1203 2756 
Q 991 2416 991 1747 
z
" transform="scale(0.015625)"/>
      <path id="Menlo-Regular-61" d="M 2194 1759 
L 2003 1759 
Q 1500 1759 1245 1582 
Q 991 1406 991 1056 
Q 991 741 1181 566 
Q 1372 391 1709 391 
Q 2184 391 2456 720 
Q 2728 1050 2731 1631 
L 2731 1759 
L 2194 1759 
z
M 3309 1997 
L 3309 0 
L 2731 0 
L 2731 519 
Q 2547 206 2267 57 
Q 1988 -91 1588 -91 
Q 1053 -91 734 211 
Q 416 513 416 1019 
Q 416 1603 808 1906 
Q 1200 2209 1959 2209 
L 2731 2209 
L 2731 2300 
Q 2728 2719 2518 2908 
Q 2309 3097 1850 3097 
Q 1556 3097 1256 3012 
Q 956 2928 672 2766 
L 672 3341 
Q 991 3463 1283 3523 
Q 1575 3584 1850 3584 
Q 2284 3584 2592 3456 
Q 2900 3328 3091 3072 
Q 3209 2916 3259 2686 
Q 3309 2456 3309 1997 
z
" transform="scale(0.015625)"/>
     </defs>
     <use xlink:href="#Menlo-Regular-43"/>
     <use xlink:href="#Menlo-Regular-4f" transform="translate(60.205078 0)"/>
     <use xlink:href="#Menlo-Regular-42" transform="translate(120.410156 0)"/>
     <use xlink:href="#Menlo-Regular-41" transform="translate(180.615234 0)"/>
     <use xlink:href="#Menlo-Regular-20" transform="translate(240.820312 0)"/>
     <use xlink:href="#Menlo-Regular-2014" transform="translate(301.025391 0)"/>
     <use xlink:href="#Menlo-Regular-20" transform="translate(361.230469 0)"/>
     <use xlink:href="#Menlo-Regular-6e" transform="translate(421.435547 0)"/>
     <use xlink:href="#Menlo-Regular-6f" transform="translate(481.640625 0)"/>
     <use xlink:href="#Menlo-Regular-20" transform="translate(541.845703 0)"/>
     <use xlink:href="#Menlo-Regular-72" transform="translate(602.050781 0)"/>
     <use xlink:href="#Menlo-Regular-65" transform="translate(662.255859 0)"/>
     <use xlink:href="#Menlo-Regular-63" transform="translate(722.460938 0)"/>
     <use xlink:href="#Menlo-Regular-75" transform="translate(782.666016 0)"/>
     <use xlink:href="#Menlo-Regular-72" transform="translate(842.871094 0)"/>
     <use xlink:href="#Menlo-Regular-72" transform="translate(903.076172 0)"/>
     <use xlink:href="#Menlo-Regular-65" transform="translate(963.28125 0)"/>
     <use xlink:href="#Menlo-Regular-6e" transform="translate(1023.486328 0)"/>
     <use xlink:href="#Menlo-Regular-74" transform="translate(1083.691406 0)"/>
     <use xlink:href="#Menlo-Regular-20" transform="translate(1143.896484 0)"/>
     <use xlink:href="#Menlo-Regular-6c" transform="translate(1204.101562 0)"/>
     <use xlink:href="#Menlo-Regular-6f" transform="translate(1264.306641 0)"/>
     <use xlink:href="#Menlo-Regular-6f" transform="translate(1324.511719 0)"/>
     <use xlink:href="#Menlo-Regular-70" transform="translate(1384.716797 0)"/>
     <use xlink:href="#Menlo-Regular-20" transform="translate(1444.921875 0)"/>
     <use xlink:href="#Menlo-Regular-28" transform="translate(1505.126953 0)"/>
     <use xlink:href="#Menlo-Regular-65" transform="translate(1565.332031 0)"/>
     <use xlink:href="#Menlo-Regular-69" transform="translate(1625.537109 0)"/>
     <use xlink:href="#Menlo-Regular-2d" transform="translate(1685.742188 0)"/>
     <use xlink:href="#Menlo-Regular-73" transform="translate(1745.947266 0)"/>
     <use xlink:href="#Menlo-Regular-74" transform="translate(1806.152344 0)"/>
     <use xlink:href="#Menlo-Regular-72" transform="translate(1866.357422 0)"/>
     <use xlink:href="#Menlo-Regular-65" transform="translate(1926.5625 0)"/>
     <use xlink:href="#Menlo-Regular-6e" transform="translate(1986.767578 0)"/>
     <use xlink:href="#Menlo-Regular-67" transform="translate(2046.972656 0)"/>
     <use xlink:href="#Menlo-Regular-74" transform="translate(2107.177734 0)"/>
     <use xlink:href="#Menlo-Regular-68" transform="translate(2167.382812 0)"/>
     <use xlink:href="#Menlo-Regular-20" transform="translate(2227.587891 0)"/>
     <use xlink:href="#Menlo-Regular-3d" transform="translate(2287.792969 0)"/>
     <use xlink:href="#Menlo-Regular-20" transform="translate(2347.998047 0)"/>
     <use xlink:href="#Menlo-Regular-30" transform="translate(2408.203125 0)"/>
     <use xlink:href="#Menlo-Regular-29" transform="translate(2468.408203 0)"/>
     <use xlink:href="#Menlo-Regular-20" transform="translate(2528.613281 0)"/>
     <use xlink:href="#Menlo-Regular-2014" transform="translate(2588.818359 0)"/>
     <use xlink:href="#Menlo-Regular-20" transform="translate(2649.023438 0)"/>
     <use xlink:href="#Menlo-Regular-45" transform="translate(2709.228516 0)"/>
     <use xlink:href="#Menlo-Regular-2d" transform="translate(2769.433594 0)"/>
     <use xlink:href="#Menlo-Regular-6e" transform="translate(2829.638672 0)"/>
     <use xlink:href="#Menlo-Regular-65" transform="translate(2889.84375 0)"/>
     <use xlink:href="#Menlo-Regular-75" transform="translate(2950.048828 0)"/>
     <use xlink:href="#Menlo-Regular-72" transform="translate(3010.253906 0)"/>
     <use xlink:href="#Menlo-Regular-6f" transform="translate(3070.458984 0)"/>
     <use xlink:href="#Menlo-Regular-6e" transform="translate(3130.664062 0)"/>
     <use xlink:href="#Menlo-Regular-20" transform="translate(3190.869141 0)"/>
     <use xlink:href="#Menlo-Regular-63" transform="translate(3251.074219 0)"/>
     <use xlink:href="#Menlo-Regular-6f" transform="translate(3311.279297 0)"/>
     <use xlink:href="#Menlo-Regular-6e" transform="translate(3371.484375 0)"/>
     <use xlink:href="#Menlo-Regular-64" transform="translate(3431.689453 0)"/>
     <use xlink:href="#Menlo-Regular-75" transform="translate(3491.894531 0)"/>
     <use xlink:href="#Menlo-Regular-63" transform="translate(3552.099609 0)"/>
     <use xlink:href="#Menlo-Regular-74" transform="translate(3612.304688 0)"/>
     <use xlink:href="#Menlo-Regular-61" transform="translate(3672.509766 0)"/>
     <use xlink:href="#Menlo-Regular-6e" transform="translate(3732.714844 0)"/>
     <use xlink:href="#Menlo-Regular-63" transform="translate(3792.919922 0)"/>
     <use xlink:href="#Menlo-Regular-65" transform="translate(3853.125 0)"/>
     <use xlink:href="#Menlo-Regular-73" transform="translate(3913.330078 0)"/>
     <use xlink:href="#Menlo-Regular-20" transform="translate(3973.535156 0)"/>
     <use xlink:href="#Menlo-Regular-28" transform="translate(4033.740234 0)"/>
     <use xlink:href="#Menlo-Regular-63" transform="translate(4093.945312 0)"/>
     <use xlink:href="#Menlo-Regular-65" transform="translate(4154.150391 0)"/>
     <use xlink:href="#Menlo-Regular-6c" transform="translate(4214.355469 0)"/>
     <use xlink:href="#Menlo-Regular-6c" transform="translate(4274.560547 0)"/>
     <use xlink:href="#Menlo-Regular-20" transform="translate(4334.765625 0)"/>
     <use xlink:href="#Menlo-Regular-33" transform="translate(4394.970703 0)"/>
     <use xlink:href="#Menlo-Regular-33" transform="translate(4455.175781 0)"/>
     <use xlink:href="#Menlo-Regular-34" transform="translate(4515.380859 0)"/>
     <use xlink:href="#Menlo-Regular-29" transform="translate(4575.585938 0)"/>
    </g>
   </g>
   <g id="legend_1">
    <g id="patch_7">
     <path d="M 97.710469 41.220078 
L 162.252656 41.220078 
L 162.252656 17.805078 
L 97.710469 17.805078 
z
" style="fill: #ffffff; stroke: #1a1a1a; stroke-width: 0.8; stroke-linejoin: miter"/>
    </g>
    <g id="line2d_11">
     <path d="M 100.510469 23.808672 
L 106.110469 23.808672 
L 111.710469 23.808672 
" style="fill: none; stroke: #1a1a1a; stroke-width: 0.9; stroke-linejoin: miter"/>
    </g>
    <g id="text_12">
     <!-- g_E (exc) -->
     <g style="fill: #1a1a1a" transform="translate(117.310469 26.258672) scale(0.07 -0.07)">
      <defs>
       <path id="Menlo-Regular-5f" d="M 3825 -594 
L 3825 -1125 
L 0 -1125 
L 0 -594 
L 3825 -594 
z
" transform="scale(0.015625)"/>
       <path id="Menlo-Regular-78" d="M 3494 3500 
L 2241 1825 
L 3616 0 
L 2950 0 
L 1925 1403 
L 903 0 
L 238 0 
L 1613 1825 
L 359 3500 
L 997 3500 
L 1925 2234 
L 2847 3500 
L 3494 3500 
z
" transform="scale(0.015625)"/>
      </defs>
      <use xlink:href="#Menlo-Regular-67"/>
      <use xlink:href="#Menlo-Regular-5f" transform="translate(60.205078 0)"/>
      <use xlink:href="#Menlo-Regular-45" transform="translate(120.410156 0)"/>
      <use xlink:href="#Menlo-Regular-20" transform="translate(180.615234 0)"/>
      <use xlink:href="#Menlo-Regular-28" transform="translate(240.820312 0)"/>
      <use xlink:href="#Menlo-Regular-65" transform="translate(301.025391 0)"/>
      <use xlink:href="#Menlo-Regular-78" transform="translate(361.230469 0)"/>
      <use xlink:href="#Menlo-Regular-63" transform="translate(421.435547 0)"/>
      <use xlink:href="#Menlo-Regular-29" transform="translate(481.640625 0)"/>
     </g>
    </g>
    <g id="line2d_12">
     <path d="M 100.510469 34.466172 
L 106.110469 34.466172 
L 111.710469 34.466172 
" style="fill: none; stroke-dasharray: 0.7,1.155; stroke-dashoffset: 0; stroke: #bbbbbb; stroke-width: 0.7"/>
    </g>
    <g id="text_13">
     <!-- g_L (leak) -->
     <g style="fill: #1a1a1a" transform="translate(117.310469 36.916172) scale(0.07 -0.07)">
      <defs>
       <path id="Menlo-Regular-4c" d="M 672 4666 
L 1306 4666 
L 1306 531 
L 3559 531 
L 3559 0 
L 672 0 
L 672 4666 
z
" transform="scale(0.015625)"/>
       <path id="Menlo-Regular-6b" d="M 738 4863 
L 1331 4863 
L 1331 2047 
L 2841 3500 
L 3541 3500 
L 2163 2181 
L 3756 0 
L 3053 0 
L 1759 1806 
L 1331 1403 
L 1331 0 
L 738 0 
L 738 4863 
z
" transform="scale(0.015625)"/>
      </defs>
      <use xlink:href="#Menlo-Regular-67"/>
      <use xlink:href="#Menlo-Regular-5f" transform="translate(60.205078 0)"/>
      <use xlink:href="#Menlo-Regular-4c" transform="translate(120.410156 0)"/>
      <use xlink:href="#Menlo-Regular-20" transform="translate(180.615234 0)"/>
      <use xlink:href="#Menlo-Regular-28" transform="translate(240.820312 0)"/>
      <use xlink:href="#Menlo-Regular-6c" transform="translate(301.025391 0)"/>
      <use xlink:href="#Menlo-Regular-65" transform="translate(361.230469 0)"/>
      <use xlink:href="#Menlo-Regular-61" transform="translate(421.435547 0)"/>
      <use xlink:href="#Menlo-Regular-6b" transform="translate(481.640625 0)"/>
      <use xlink:href="#Menlo-Regular-29" transform="translate(541.845703 0)"/>
     </g>
    </g>
   </g>
  </g>
 </g>
 <defs>
  <clipPath id="p2c318214d6">
   <rect x="29.770156" y="14.305078" width="135.9825" height="69.12"/>
  </clipPath>
 </defs>
</svg>
