<?xml version="1.0" encoding="utf-8" standalone="no"?>
<!DOCTYPE svg PUBLIC "-//W3C//DTD SVG 1.1//EN"
  "http://www.w3.org/Graphics/SVG/1.1/DTD/svg11.dtd">
<svg xmlns:xlink="http://www.w3.org/1999/xlink" width="274.156484pt" height="148.460625pt" viewBox="0 0 274.156484 148.460625" xmlns="http://www.w3.org/2000/svg" version="1.1">
 <metadata>
  <rdf:RDF xmlns:dc="http://purl.org/dc/elements/1.1/" xmlns:cc="http://creativecommons.org/ns#" xmlns:rdf="http://www.w3.org/1999/02/22-rdf-syntax-ns#">
   <cc:Work>
    <dc:type rdf:resource="http://purl.org/dc/dcmitype/StillImage"/>
    <dc:date>2026-07-06T14:54:27.244641</dc:date>
    <dc:format>image/svg+xml</dc:format>
    <dc:creator>
     <cc:Agent>
      <dc:title>Matplotlib v3.10.8, https://matplotlib.org/</dc:title>
     </cc:Agent>
    </dc:creator>
   </cc:Work>
  </rdf:RDF>
 </metadata>
 <defs>
  <style type="text/css">*{stroke-linejoin: round; stroke-linecap: butt}</style>
 </defs>
 <g id="figure_1">
  <g id="patch_1">
   <path d="M 0 148.460625 
L 274.156484 148.460625 
L 274.156484 0 
L 0 0 
z
" style="fill: #ffffff"/>
  </g>
  <g id="axes_1">
   <g id="patch_2">
    <path d="M 29.770156 124.96125 
L 266.39516 124.96125 
L 266.39516 13.54125 
L 29.770156 13.54125 
z
" style="fill: #ffffff"/>
   </g>
   <g id="matplotlib.axis_1">
    <g id="xtick_1">
     <g id="line2d_1">
      <defs>
       <path id="m34676ea1f0" d="M 0 0 
L 0 -3 
" style="stroke: #1a1a1a; stroke-width: 0.8"/>
      </defs>
      <g>
       <use xlink:href="#m34676ea1f0" x="29.770156" y="124.96125" style="fill: #1a1a1a; stroke: #1a1a1a; stroke-width: 0.8"/>
      </g>
     </g>
     <g id="text_1">
      <!-- 0 -->
      <g style="fill: #1a1a1a" transform="translate(27.663047 133.799844) scale(0.07 -0.07)">
       <defs>
        <path id="Menlo-Regular-30" d="M 1925 4734 
Q 2672 4734 3055 4125 
Q 3438 3516 3438 2322 
Q 3438 1128 3055 518 
Q 2672 -91 1925 -91 
Q 1178 -91 797 518 
Q 416 1128 416 2322 
Q 416 3516 797 4125 
Q 1178 4734 1925 4734 
z
M 1925 409 
Q 2369 409 2586 881 
Q 2803 1353 2803 2322 
Q 2803 2838 2741 3253 
L 1253 925 
Q 1488 409 1925 409 
z
M 1925 4234 
Q 1484 4234 1267 3762 
Q 1050 3291 1050 2322 
Q 1050 1881 1109 1497 
L 2566 3819 
Q 2328 4234 1925 4234 
z
" transform="scale(0.015625)"/>
       </defs>
       <use xlink:href="#Menlo-Regular-30"/>
      </g>
     </g>
    </g>
    <g id="xtick_2">
     <g id="line2d_2">
      <g>
       <use xlink:href="#m34676ea1f0" x="59.348281" y="124.96125" style="fill: #1a1a1a; stroke: #1a1a1a; stroke-width: 0.8"/>
      </g>
     </g>
     <g id="text_2">
      <!-- 50 -->
      <g style="fill: #1a1a1a" transform="translate(55.134062 133.799844) scale(0.07 -0.07)">
       <defs>
        <path id="Menlo-Regular-35" d="M 647 4666 
L 3009 4666 
L 3009 4134 
L 1222 4134 
L 1222 2988 
Q 1356 3038 1492 3061 
Q 1628 3084 1766 3084 
Q 2491 3084 2916 2656 
Q 3341 2228 3341 1497 
Q 3341 759 2895 334 
Q 2450 -91 1678 -91 
Q 1306 -91 998 -41 
Q 691 9 447 109 
L 447 750 
Q 734 594 1025 517 
Q 1316 441 1619 441 
Q 2141 441 2423 716 
Q 2706 991 2706 1497 
Q 2706 1997 2414 2275 
Q 2122 2553 1600 2553 
Q 1347 2553 1106 2495 
Q 866 2438 647 2322 
L 647 4666 
z
" transform="scale(0.015625)"/>
       </defs>
       <use xlink:href="#Menlo-Regular-35"/>
       <use xlink:href="#Menlo-Regular-30" transform="translate(60.205078 0)"/>
      </g>
     </g>
    </g>
    <g id="xtick_3">
     <g id="line2d_3">
      <g>
       <use xlink:href="#m34676ea1f0" x="88.926406" y="124.96125" style="fill: #1a1a1a; stroke: #1a1a1a; stroke-width: 0.8"/>
      </g>
     </g>
     <g id="text_3">
      <!-- 100 -->
      <g style="fill: #1a1a1a" transform="translate(82.605078 133.799844) scale(0.07 -0.07)">
       <defs>
        <path id="Menlo-Regular-31" d="M 844 528 
L 1825 528 
L 1825 4053 
L 650 3488 
L 650 4094 
L 1819 4650 
L 2450 4650 
L 2450 528 
L 3419 528 
L 3419 0 
L 844 0 
L 844 528 
z
" transform="scale(0.015625)"/>
       </defs>
       <use xlink:href="#Menlo-Regular-31"/>
       <use xlink:href="#Menlo-Regular-30" transform="translate(60.205078 0)"/>
       <use xlink:href="#Menlo-Regular-30" transform="translate(120.410156 0)"/>
      </g>
     </g>
    </g>
    <g id="xtick_4">
     <g id="line2d_4">
      <g>
       <use xlink:href="#m34676ea1f0" x="118.504531" y="124.96125" style="fill: #1a1a1a; stroke: #1a1a1a; stroke-width: 0.8"/>
      </g>
     </g>
     <g id="text_4">
      <!-- 150 -->
      <g style="fill: #1a1a1a" transform="translate(112.183203 133.799844) scale(0.07 -0.07)">
       <use xlink:href="#Menlo-Regular-31"/>
       <use xlink:href="#Menlo-Regular-35" transform="translate(60.205078 0)"/>
       <use xlink:href="#Menlo-Regular-30" transform="translate(120.410156 0)"/>
      </g>
     </g>
    </g>
    <g id="xtick_5">
     <g id="line2d_5">
      <g>
       <use xlink:href="#m34676ea1f0" x="148.082656" y="124.96125" style="fill: #1a1a1a; stroke: #1a1a1a; stroke-width: 0.8"/>
      </g>
     </g>
     <g id="text_5">
      <!-- 200 -->
      <g style="fill: #1a1a1a" transform="translate(141.761328 133.799844) scale(0.07 -0.07)">
       <defs>
        <path id="Menlo-Regular-32" d="M 1166 531 
L 3309 531 
L 3309 0 
L 475 0 
L 475 531 
Q 1059 1147 1496 1619 
Q 1934 2091 2100 2284 
Q 2413 2666 2522 2902 
Q 2631 3138 2631 3384 
Q 2631 3775 2401 3997 
Q 2172 4219 1772 4219 
Q 1488 4219 1175 4116 
Q 863 4013 513 3803 
L 513 4441 
Q 834 4594 1145 4672 
Q 1456 4750 1759 4750 
Q 2444 4750 2861 4386 
Q 3278 4022 3278 3431 
Q 3278 3131 3139 2831 
Q 3000 2531 2688 2169 
Q 2513 1966 2180 1606 
Q 1847 1247 1166 531 
z
" transform="scale(0.015625)"/>
       </defs>
       <use xlink:href="#Menlo-Regular-32"/>
       <use xlink:href="#Menlo-Regular-30" transform="translate(60.205078 0)"/>
       <use xlink:href="#Menlo-Regular-30" transform="translate(120.410156 0)"/>
      </g>
     </g>
    </g>
    <g id="xtick_6">
     <g id="line2d_6">
      <g>
       <use xlink:href="#m34676ea1f0" x="177.660781" y="124.96125" style="fill: #1a1a1a; stroke: #1a1a1a; stroke-width: 0.8"/>
      </g>
     </g>
     <g id="text_6">
      <!-- 250 -->
      <g style="fill: #1a1a1a" transform="translate(171.339453 133.799844) scale(0.07 -0.07)">
       <use xlink:href="#Menlo-Regular-32"/>
       <use xlink:href="#Menlo-Regular-35" transform="translate(60.205078 0)"/>
       <use xlink:href="#Menlo-Regular-30" transform="translate(120.410156 0)"/>
      </g>
     </g>
    </g>
    <g id="xtick_7">
     <g id="line2d_7">
      <g>
       <use xlink:href="#m34676ea1f0" x="207.238906" y="124.96125" style="fill: #1a1a1a; stroke: #1a1a1a; stroke-width: 0.8"/>
      </g>
     </g>
     <g id="text_7">
      <!-- 300 -->
      <g style="fill: #1a1a1a" transform="translate(200.917578 133.799844) scale(0.07 -0.07)">
       <defs>
        <path id="Menlo-Regular-33" d="M 2425 2497 
Q 2884 2375 3128 2064 
Q 3372 1753 3372 1288 
Q 3372 644 2939 276 
Q 2506 -91 1741 -91 
Q 1419 -91 1084 -31 
Q 750 28 428 141 
L 428 769 
Q 747 603 1056 522 
Q 1366 441 1672 441 
Q 2191 441 2469 675 
Q 2747 909 2747 1350 
Q 2747 1756 2469 1995 
Q 2191 2234 1716 2234 
L 1234 2234 
L 1234 2753 
L 1716 2753 
Q 2150 2753 2394 2943 
Q 2638 3134 2638 3475 
Q 2638 3834 2411 4026 
Q 2184 4219 1766 4219 
Q 1488 4219 1191 4156 
Q 894 4094 569 3969 
L 569 4550 
Q 947 4650 1242 4700 
Q 1538 4750 1766 4750 
Q 2447 4750 2855 4408 
Q 3263 4066 3263 3500 
Q 3263 3116 3048 2859 
Q 2834 2603 2425 2497 
z
" transform="scale(0.015625)"/>
       </defs>
       <use xlink:href="#Menlo-Regular-33"/>
       <use xlink:href="#Menlo-Regular-30" transform="translate(60.205078 0)"/>
       <use xlink:href="#Menlo-Regular-30" transform="translate(120.410156 0)"/>
      </g>
     </g>
    </g>
    <g id="xtick_8">
     <g id="line2d_8">
      <g>
       <use xlink:href="#m34676ea1f0" x="236.817031" y="124.96125" style="fill: #1a1a1a; stroke: #1a1a1a; stroke-width: 0.8"/>
      </g>
     </g>
     <g id="text_8">
      <!-- 350 -->
      <g style="fill: #1a1a1a" transform="translate(230.495703 133.799844) scale(0.07 -0.07)">
       <use xlink:href="#Menlo-Regular-33"/>
       <use xlink:href="#Menlo-Regular-35" transform="translate(60.205078 0)"/>
       <use xlink:href="#Menlo-Regular-30" transform="translate(120.410156 0)"/>
      </g>
     </g>
    </g>
    <g id="xtick_9">
     <g id="line2d_9">
      <g>
       <use xlink:href="#m34676ea1f0" x="266.395156" y="124.96125" style="fill: #1a1a1a; stroke: #1a1a1a; stroke-width: 0.8"/>
      </g>
     </g>
     <g id="text_9">
      <!-- 400 -->
      <g style="fill: #1a1a1a" transform="translate(260.073828 133.799844) scale(0.07 -0.07)">
       <defs>
        <path id="Menlo-Regular-34" d="M 2297 4091 
L 825 1625 
L 2297 1625 
L 2297 4091 
z
M 2194 4666 
L 2925 4666 
L 2925 1625 
L 3547 1625 
L 3547 1113 
L 2925 1113 
L 2925 0 
L 2297 0 
L 2297 1113 
L 319 1113 
L 319 1709 
L 2194 4666 
z
" transform="scale(0.015625)"/>
       </defs>
       <use xlink:href="#Menlo-Regular-34"/>
       <use xlink:href="#Menlo-Regular-30" transform="translate(60.205078 0)"/>
       <use xlink:href="#Menlo-Regular-30" transform="translate(120.410156 0)"/>
      </g>
     </g>
    </g>
    <g id="text_10">
     <!-- time (ms) -->
     <g style="fill: #1a1a1a" transform="translate(126.409533 145.356875) scale(0.08 -0.08)">
      <defs>
       <path id="Menlo-Regular-74" d="M 1919 4494 
L 1919 3500 
L 3225 3500 
L 3225 3053 
L 1919 3053 
L 1919 1153 
Q 1919 766 2066 612 
Q 2213 459 2578 459 
L 3225 459 
L 3225 0 
L 2522 0 
Q 1875 0 1609 259 
Q 1344 519 1344 1153 
L 1344 3053 
L 409 3053 
L 409 3500 
L 1344 3500 
L 1344 4494 
L 1919 4494 
z
" transform="scale(0.015625)"/>
       <path id="Menlo-Regular-69" d="M 988 3488 
L 2459 3488 
L 2459 447 
L 3600 447 
L 3600 0 
L 744 0 
L 744 447 
L 1884 447 
L 1884 3041 
L 988 3041 
L 988 3488 
z
M 1884 4847 
L 2459 4847 
L 2459 4122 
L 1884 4122 
L 1884 4847 
z
" transform="scale(0.015625)"/>
       <path id="Menlo-Regular-6d" d="M 2113 3144 
Q 2219 3369 2383 3476 
Q 2547 3584 2778 3584 
Q 3200 3584 3373 3257 
Q 3547 2931 3547 2028 
L 3547 0 
L 3022 0 
L 3022 2003 
Q 3022 2744 2939 2923 
Q 2856 3103 2638 3103 
Q 2388 3103 2295 2911 
Q 2203 2719 2203 2003 
L 2203 0 
L 1678 0 
L 1678 2003 
Q 1678 2753 1589 2928 
Q 1500 3103 1269 3103 
Q 1041 3103 952 2911 
Q 863 2719 863 2003 
L 863 0 
L 341 0 
L 341 3500 
L 863 3500 
L 863 3200 
Q 966 3388 1120 3486 
Q 1275 3584 1472 3584 
Q 1709 3584 1867 3475 
Q 2025 3366 2113 3144 
z
" transform="scale(0.015625)"/>
       <path id="Menlo-Regular-65" d="M 3500 2038 
L 3500 1756 
L 1009 1756 
L 1009 1738 
Q 984 1022 1282 709 
Q 1581 397 2125 397 
Q 2400 397 2700 484 
Q 3000 572 3341 750 
L 3341 178 
Q 3013 44 2708 -23 
Q 2403 -91 2119 -91 
Q 1303 -91 843 398 
Q 384 888 384 1747 
Q 384 2584 834 3084 
Q 1284 3584 2034 3584 
Q 2703 3584 3089 3131 
Q 3475 2678 3500 2038 
z
M 2925 2206 
Q 2888 2569 2661 2833 
Q 2434 3097 2009 3097 
Q 1594 3097 1325 2822 
Q 1056 2547 1031 2203 
L 2925 2206 
z
" transform="scale(0.015625)"/>
       <path id="Menlo-Regular-20" transform="scale(0.015625)"/>
       <path id="Menlo-Regular-28" d="M 2672 5169 
Q 2256 4456 2051 3748 
Q 1847 3041 1847 2322 
Q 1847 1606 2051 897 
Q 2256 188 2672 -531 
L 2172 -531 
Q 1700 213 1469 917 
Q 1238 1622 1238 2322 
Q 1238 3019 1469 3725 
Q 1700 4431 2172 5169 
L 2672 5169 
z
" transform="scale(0.015625)"/>
       <path id="Menlo-Regular-73" d="M 3041 3378 
L 3041 2816 
Q 2794 2959 2544 3031 
Q 2294 3103 2034 3103 
Q 1644 3103 1451 2976 
Q 1259 2850 1259 2591 
Q 1259 2356 1403 2240 
Q 1547 2125 2119 2016 
L 2350 1972 
Q 2778 1891 2998 1647 
Q 3219 1403 3219 1013 
Q 3219 494 2850 201 
Q 2481 -91 1825 -91 
Q 1566 -91 1281 -36 
Q 997 19 666 128 
L 666 722 
Q 988 556 1281 473 
Q 1575 391 1838 391 
Q 2219 391 2428 545 
Q 2638 700 2638 978 
Q 2638 1378 1872 1531 
L 1847 1538 
L 1631 1581 
Q 1134 1678 906 1908 
Q 678 2138 678 2534 
Q 678 3038 1018 3311 
Q 1359 3584 1991 3584 
Q 2272 3584 2531 3532 
Q 2791 3481 3041 3378 
z
" transform="scale(0.015625)"/>
       <path id="Menlo-Regular-29" d="M 1088 5169 
L 1588 5169 
Q 2059 4431 2290 3725 
Q 2522 3019 2522 2322 
Q 2522 1619 2290 912 
Q 2059 206 1588 -531 
L 1088 -531 
Q 1503 194 1708 903 
Q 1913 1613 1913 2322 
Q 1913 3034 1708 3743 
Q 1503 4453 1088 5169 
z
" transform="scale(0.015625)"/>
      </defs>
      <use xlink:href="#Menlo-Regular-74"/>
      <use xlink:href="#Menlo-Regular-69" transform="translate(60.205078 0)"/>
      <use xlink:href="#Menlo-Regular-6d" transform="translate(120.410156 0)"/>
      <use xlink:href="#Menlo-Regular-65" transform="translate(180.615234 0)"/>
      <use xlink:href="#Menlo-Regular-20" transform="translate(240.820312 0)"/>
      <use xlink:href="#Menlo-Regular-28" transform="translate(301.025391 0)"/>
      <use xlink:href="#Menlo-Regular-6d" transform="translate(361.230469 0)"/>
      <use xlink:href="#Menlo-Regular-73" transform="translate(421.435547 0)"/>
      <use xlink:href="#Menlo-Regular-29" transform="translate(481.640625 0)"/>
     </g>
    </g>
   </g>
   <g id="matplotlib.axis_2">
    <g id="ytick_1">
     <g id="line2d_10">
      <defs>
       <path id="mb1679cd09e" d="M 0 0 
L 3 0 
" style="stroke: #1a1a1a; stroke-width: 0.8"/>
      </defs>
      <g>
       <use xlink:href="#mb1679cd09e" x="29.770156" y="119.896705" style="fill: #1a1a1a; stroke: #1a1a1a; stroke-width: 0.8"/>
      </g>
     </g>
     <g id="text_11">
      <!-- 0.0 -->
      <g style="fill: #1a1a1a" transform="translate(13.6275 122.566001) scale(0.07 -0.07)">
       <defs>
        <path id="Menlo-Regular-2e" d="M 1216 1263 
L 2316 1263 
L 2316 0 
L 1216 0 
L 1216 1263 
z
" transform="scale(0.015625)"/>
       </defs>
       <use xlink:href="#Menlo-Regular-30"/>
       <use xlink:href="#Menlo-Regular-2e" transform="translate(60.205078 0)"/>
       <use xlink:href="#Menlo-Regular-30" transform="translate(120.410156 0)"/>
      </g>
     </g>
    </g>
    <g id="ytick_2">
     <g id="line2d_11">
      <g>
       <use xlink:href="#mb1679cd09e" x="29.770156" y="93.270767" style="fill: #1a1a1a; stroke: #1a1a1a; stroke-width: 0.8"/>
      </g>
     </g>
     <g id="text_12">
      <!-- 0.1 -->
      <g style="fill: #1a1a1a" transform="translate(13.6275 95.940063) scale(0.07 -0.07)">
       <use xlink:href="#Menlo-Regular-30"/>
       <use xlink:href="#Menlo-Regular-2e" transform="translate(60.205078 0)"/>
       <use xlink:href="#Menlo-Regular-31" transform="translate(120.410156 0)"/>
      </g>
     </g>
    </g>
    <g id="ytick_3">
     <g id="line2d_12">
      <g>
       <use xlink:href="#mb1679cd09e" x="29.770156" y="66.644828" style="fill: #1a1a1a; stroke: #1a1a1a; stroke-width: 0.8"/>
      </g>
     </g>
     <g id="text_13">
      <!-- 0.2 -->
      <g style="fill: #1a1a1a" transform="translate(13.6275 69.314125) scale(0.07 -0.07)">
       <use xlink:href="#Menlo-Regular-30"/>
       <use xlink:href="#Menlo-Regular-2e" transform="translate(60.205078 0)"/>
       <use xlink:href="#Menlo-Regular-32" transform="translate(120.410156 0)"/>
      </g>
     </g>
    </g>
    <g id="ytick_4">
     <g id="line2d_13">
      <g>
       <use xlink:href="#mb1679cd09e" x="29.770156" y="40.01889" style="fill: #1a1a1a; stroke: #1a1a1a; stroke-width: 0.8"/>
      </g>
     </g>
     <g id="text_14">
      <!-- 0.3 -->
      <g style="fill: #1a1a1a" transform="translate(13.6275 42.688187) scale(0.07 -0.07)">
       <use xlink:href="#Menlo-Regular-30"/>
       <use xlink:href="#Menlo-Regular-2e" transform="translate(60.205078 0)"/>
       <use xlink:href="#Menlo-Regular-33" transform="translate(120.410156 0)"/>
      </g>
     </g>
    </g>
    <g id="text_15">
     <!-- g  [µS] -->
     <g style="fill: #1a1a1a" transform="translate(7.90875 86.108125) rotate(-90) scale(0.08 -0.08)">
      <defs>
       <path id="Menlo-Regular-67" d="M 2681 1778 
Q 2681 2425 2470 2761 
Q 2259 3097 1856 3097 
Q 1434 3097 1212 2761 
Q 991 2425 991 1778 
Q 991 1131 1214 792 
Q 1438 453 1863 453 
Q 2259 453 2470 793 
Q 2681 1134 2681 1778 
z
M 3256 225 
Q 3256 -563 2884 -969 
Q 2513 -1375 1791 -1375 
Q 1553 -1375 1293 -1331 
Q 1034 -1288 775 -1203 
L 775 -634 
Q 1081 -778 1331 -847 
Q 1581 -916 1791 -916 
Q 2256 -916 2468 -662 
Q 2681 -409 2681 141 
L 2681 166 
L 2681 556 
Q 2544 263 2306 119 
Q 2069 -25 1728 -25 
Q 1116 -25 750 465 
Q 384 956 384 1778 
Q 384 2603 750 3093 
Q 1116 3584 1728 3584 
Q 2066 3584 2300 3450 
Q 2534 3316 2681 3034 
L 2681 3488 
L 3256 3488 
L 3256 225 
z
" transform="scale(0.015625)"/>
       <path id="Menlo-Regular-5b" d="M 1759 5175 
L 3084 5175 
L 3084 4728 
L 2334 4728 
L 2334 -84 
L 3084 -84 
L 3084 -531 
L 1759 -531 
L 1759 5175 
z
" transform="scale(0.015625)"/>
       <path id="Menlo-Regular-b5" d="M 609 -1338 
L 609 3500 
L 1184 3500 
L 1184 1325 
Q 1184 881 1371 645 
Q 1559 409 1906 409 
Q 2303 409 2504 675 
Q 2706 941 2706 1459 
L 2706 3500 
L 3284 3500 
L 3284 800 
Q 3284 616 3334 528 
Q 3384 441 3488 441 
Q 3516 441 3561 456 
Q 3606 472 3694 513 
L 3694 50 
Q 3575 -22 3469 -56 
Q 3363 -91 3256 -91 
Q 3063 -91 2945 32 
Q 2828 156 2791 403 
Q 2647 153 2439 31 
Q 2231 -91 1953 -91 
Q 1666 -91 1467 28 
Q 1269 147 1131 397 
L 1131 -1338 
L 609 -1338 
z
" transform="scale(0.015625)"/>
       <path id="Menlo-Regular-53" d="M 3163 4506 
L 3163 3866 
Q 2875 4050 2586 4144 
Q 2297 4238 2003 4238 
Q 1556 4238 1297 4030 
Q 1038 3822 1038 3469 
Q 1038 3159 1208 2996 
Q 1378 2834 1844 2725 
L 2175 2650 
Q 2831 2497 3131 2169 
Q 3431 1841 3431 1275 
Q 3431 609 3018 259 
Q 2606 -91 1819 -91 
Q 1491 -91 1159 -20 
Q 828 50 494 191 
L 494 863 
Q 853 634 1173 528 
Q 1494 422 1819 422 
Q 2297 422 2562 636 
Q 2828 850 2828 1234 
Q 2828 1584 2645 1768 
Q 2463 1953 2009 2053 
L 1672 2131 
Q 1022 2278 728 2575 
Q 434 2872 434 3372 
Q 434 3997 854 4373 
Q 1275 4750 1972 4750 
Q 2241 4750 2537 4689 
Q 2834 4628 3163 4506 
z
" transform="scale(0.015625)"/>
       <path id="Menlo-Regular-5d" d="M 2250 5175 
L 2250 -531 
L 925 -531 
L 925 -84 
L 1675 -84 
L 1675 4728 
L 925 4728 
L 925 5175 
L 2250 5175 
z
" transform="scale(0.015625)"/>
      </defs>
      <use xlink:href="#Menlo-Regular-67"/>
      <use xlink:href="#Menlo-Regular-20" transform="translate(60.205078 0)"/>
      <use xlink:href="#Menlo-Regular-20" transform="translate(120.410156 0)"/>
      <use xlink:href="#Menlo-Regular-5b" transform="translate(180.615234 0)"/>
      <use xlink:href="#Menlo-Regular-b5" transform="translate(240.820312 0)"/>
      <use xlink:href="#Menlo-Regular-53" transform="translate(301.025391 0)"/>
      <use xlink:href="#Menlo-Regular-5d" transform="translate(361.230469 0)"/>
     </g>
    </g>
   </g>
   <g id="line2d_14">
    <path d="M 29.770156 119.896705 
L 30.953281 119.896705 
L 31.071594 118.648711 
L 31.249063 114.665716 
L 31.544844 65.650105 
L 31.781469 18.605795 
L 31.840625 23.545806 
L 32.373031 58.460639 
L 32.905438 80.723331 
L 33.437844 94.918652 
L 33.97025 103.969993 
L 34.502656 109.741383 
L 35.035063 113.421383 
L 35.567469 115.767857 
L 36.159031 117.392431 
L 36.750594 118.377786 
L 37.401313 119.020364 
L 38.170344 119.439215 
L 39.176 119.701166 
L 40.714063 119.843414 
L 44.38175 119.894304 
L 48.641 119.896639 
L 48.700157 119.338221 
L 48.759313 119.365459 
L 49.528344 119.61937 
L 49.705813 118.200737 
L 49.764969 118.28345 
L 49.824125 118.362129 
L 49.883282 117.413269 
L 49.942438 117.534387 
L 50.119907 116.685207 
L 50.179063 116.841833 
L 50.415688 110.491237 
L 50.652313 102.836089 
L 50.711469 103.668145 
L 51.184719 89.455686 
L 51.243875 89.40449 
L 51.303032 89.515102 
L 51.362188 87.900649 
L 51.894594 99.495114 
L 52.427 106.888071 
L 52.959407 111.602031 
L 53.491813 114.607786 
L 54.024219 116.52434 
L 54.615782 117.851262 
L 55.207344 118.65608 
L 55.858063 119.180926 
L 56.68625 119.541259 
L 57.810219 119.759239 
L 59.762375 119.870304 
L 63.134282 119.895177 
L 63.193438 119.281393 
L 63.252594 119.311402 
L 63.31175 119.339948 
L 63.370907 118.854492 
L 63.430063 118.905322 
L 63.489219 118.953672 
L 63.548375 117.969005 
L 63.607532 118.06302 
L 63.725844 118.237518 
L 63.962469 116.208282 
L 64.021625 115.820824 
L 64.199094 113.657981 
L 64.25825 113.962247 
L 64.554032 108.964821 
L 64.613188 108.128478 
L 64.672344 108.702421 
L 64.849813 107.089883 
L 65.441376 98.507414 
L 65.618844 93.363822 
L 65.678001 94.14955 
L 65.737157 93.043426 
L 66.269563 102.774294 
L 66.801969 108.978972 
L 67.334376 112.935249 
L 67.866782 115.457883 
L 68.458344 117.204423 
L 69.049907 118.263753 
L 69.700626 118.954573 
L 70.410501 119.379652 
L 71.357001 119.664378 
L 72.776751 119.826729 
L 75.793719 119.891241 
L 77.036001 119.894793 
L 77.095157 119.331394 
L 77.154313 119.358964 
L 77.213469 119.38519 
L 77.390938 118.657343 
L 77.509251 118.775284 
L 77.568407 118.373251 
L 77.627563 118.44755 
L 77.686719 118.518226 
L 77.864188 117.307184 
L 77.923344 117.433476 
L 77.982501 117.553609 
L 78.337438 115.65514 
L 78.988157 105.991572 
L 79.698032 81.407341 
L 80.230438 95.354796 
L 80.762844 104.248086 
L 81.295251 109.918702 
L 81.827657 113.534448 
L 82.360063 115.839949 
L 82.951626 117.436158 
L 83.543188 118.404307 
L 84.193907 119.035666 
L 84.962938 119.447203 
L 85.968595 119.704581 
L 87.565813 119.846898 
L 90.701095 119.893186 
L 90.760251 119.334936 
L 90.819407 119.362334 
L 90.996876 119.436768 
L 91.056032 119.021018 
L 91.115188 119.063726 
L 91.351813 119.214719 
L 91.41097 118.229833 
L 91.470126 118.311127 
L 91.588438 118.462014 
L 91.647595 118.074951 
L 91.706751 118.163799 
L 91.825063 118.328706 
L 92.002532 116.156463 
L 92.298313 112.560276 
L 92.35747 112.918078 
L 92.475782 106.639822 
L 92.653251 107.634913 
L 93.008188 105.988241 
L 93.244813 102.694326 
L 93.422282 93.486094 
L 93.481438 94.328553 
L 93.540595 94.57631 
L 93.599751 95.309226 
L 93.718063 93.142534 
L 94.25047 102.837488 
L 94.782876 109.019265 
L 95.315282 112.96094 
L 95.847688 115.474265 
L 96.439251 117.214358 
L 97.030813 118.269779 
L 97.681532 118.95805 
L 98.391407 119.38156 
L 99.337907 119.665235 
L 100.757657 119.826987 
L 103.774626 119.891261 
L 105.60847 119.895549 
L 105.667626 119.381624 
L 105.726782 119.406744 
L 105.785939 119.43064 
L 106.08172 115.981424 
L 106.140876 116.172375 
L 106.200032 115.407887 
L 106.259189 115.626809 
L 106.318345 115.43002 
L 106.55497 111.352311 
L 106.969064 101.728037 
L 107.087376 97.856091 
L 107.146532 98.426176 
L 107.205689 98.966411 
L 107.264845 98.466147 
L 107.383157 99.117697 
L 107.738095 94.030685 
L 108.270501 103.403797 
L 108.802907 109.380359 
L 109.335314 113.191185 
L 109.86772 115.621075 
L 110.459282 117.303403 
L 111.050845 118.323787 
L 111.701564 118.98921 
L 112.411439 119.398661 
L 113.357939 119.672919 
L 114.777689 119.829302 
L 117.853814 119.891698 
L 118.563689 119.893957 
L 118.622845 119.425487 
L 118.682001 119.448469 
L 119.391876 119.650708 
L 119.451033 119.16318 
L 119.569345 116.87711 
L 119.628501 117.024378 
L 119.746814 117.297715 
L 119.983439 115.52462 
L 120.042595 115.737849 
L 120.101751 115.940678 
L 120.220064 113.86858 
L 120.27922 114.162575 
L 120.338376 114.442231 
L 120.397533 114.255879 
L 120.515845 113.871861 
L 120.575001 114.165696 
L 120.989095 108.32578 
L 121.166564 102.089027 
L 121.284876 99.73275 
L 121.344033 100.233146 
L 121.462345 100.155753 
L 121.758126 93.989355 
L 121.817283 94.74176 
L 121.876439 94.075549 
L 122.408845 103.432404 
L 122.941251 109.398601 
L 123.473658 113.202816 
L 124.006064 115.628491 
L 124.597626 117.307901 
L 125.189189 118.326516 
L 125.839908 118.990784 
L 126.549783 119.399525 
L 127.496283 119.673307 
L 128.916033 119.829418 
L 131.992158 119.891707 
L 133.53022 119.895343 
L 133.589376 119.392668 
L 133.648533 119.41725 
L 133.944314 119.523305 
L 134.00347 119.049758 
L 134.062626 119.091064 
L 134.180939 119.167731 
L 134.654189 114.493663 
L 134.713345 114.757173 
L 135.482376 95.240077 
L 135.541533 94.374563 
L 135.837314 83.883706 
L 136.36972 96.933797 
L 136.902127 105.254906 
L 137.434533 110.560678 
L 137.966939 113.943789 
L 138.499345 116.100957 
L 139.090908 117.594466 
L 139.68247 118.500326 
L 140.333189 119.091064 
L 141.10222 119.476123 
L 142.107877 119.716942 
L 143.764252 119.852376 
L 147.077002 119.894009 
L 147.25447 118.971085 
L 147.491095 119.138872 
L 147.846033 116.080723 
L 147.964345 116.443861 
L 148.023502 116.612258 
L 148.260127 115.411004 
L 148.319283 115.629774 
L 148.437595 114.517418 
L 148.496752 114.779769 
L 148.615064 112.89449 
L 148.733377 113.560838 
L 149.206627 107.335799 
L 149.502408 97.643211 
L 149.916502 85.909581 
L 150.448908 98.225552 
L 150.981314 106.078565 
L 151.51372 111.085867 
L 152.046127 114.278665 
L 152.578533 116.314484 
L 153.170095 117.723977 
L 153.761658 118.578878 
L 154.412377 119.136385 
L 155.181408 119.499783 
L 156.246221 119.735328 
L 158.020908 119.860697 
L 160.505471 119.892295 
L 160.564627 119.390013 
L 160.623783 119.414725 
L 161.156189 119.589381 
L 161.392814 118.313982 
L 161.747752 118.724195 
L 162.043533 117.176529 
L 162.102689 117.309193 
L 162.280158 116.647076 
L 162.339314 116.805562 
L 162.398471 116.448025 
L 162.457627 116.616219 
L 162.516783 116.77621 
L 162.753408 115.520164 
L 162.930877 116.129781 
L 163.463283 103.444354 
L 163.581596 101.725857 
L 164.054846 78.914308 
L 164.114002 79.372964 
L 164.646408 94.057617 
L 165.178814 103.420971 
L 165.711221 109.391311 
L 166.243627 113.198167 
L 166.776033 115.625528 
L 167.367596 117.306104 
L 167.959158 118.325425 
L 168.609877 118.990155 
L 169.319752 119.39918 
L 170.266252 119.673152 
L 171.686002 119.829372 
L 174.348033 119.889608 
L 174.40719 119.421839 
L 174.466346 119.444998 
L 174.643815 119.507917 
L 174.702971 119.023477 
L 174.762127 119.066065 
L 175.235377 119.33991 
L 175.294533 118.919143 
L 175.35369 118.966819 
L 175.531158 119.096345 
L 175.590315 118.664375 
L 175.649471 118.724476 
L 175.708627 118.781646 
L 175.82694 117.4469 
L 175.886096 117.566378 
L 176.063565 116.45743 
L 176.122721 116.625165 
L 176.181877 116.78472 
L 176.241033 116.551523 
L 176.359346 115.419037 
L 176.595971 116.2307 
L 176.655127 115.940889 
L 176.714283 116.133817 
L 176.77344 116.317335 
L 176.832596 116.061524 
L 177.010065 114.737821 
L 177.069221 114.510977 
L 177.128377 114.773642 
L 177.601627 105.709677 
L 177.660783 105.923218 
L 177.897408 98.574357 
L 177.956565 98.611488 
L 178.134033 93.407653 
L 178.311502 87.316158 
L 178.843908 99.122426 
L 179.376315 106.650437 
L 179.908721 111.450511 
L 180.441127 114.511173 
L 180.973533 116.462737 
L 181.565096 117.813897 
L 182.156658 118.633418 
L 182.807377 119.167851 
L 183.576408 119.51621 
L 184.641221 119.742007 
L 186.415908 119.862187 
L 189.906127 119.894898 
L 190.02444 118.957893 
L 190.083596 119.00368 
L 190.49769 119.267401 
L 190.675159 117.698232 
L 190.911784 115.309814 
L 191.148409 112.720432 
L 191.207565 113.070422 
L 191.385034 111.670257 
L 191.621659 104.630927 
L 191.858284 98.370229 
L 191.91744 97.446215 
L 192.272377 71.720747 
L 192.804784 89.178348 
L 193.33719 100.309812 
L 193.869596 107.407548 
L 194.402002 111.933265 
L 194.934409 114.81899 
L 195.466815 116.65901 
L 196.058377 117.932943 
L 196.64994 118.705622 
L 197.300659 119.20951 
L 198.128846 119.555454 
L 199.252815 119.764729 
L 201.264127 119.872595 
L 207.06144 119.896525 
L 207.238909 118.96182 
L 207.357221 119.050786 
L 207.416377 118.119279 
L 207.475534 118.205965 
L 207.653003 118.441472 
L 207.889628 116.025175 
L 207.948784 116.213992 
L 208.244565 117.028605 
L 208.48119 115.28718 
L 208.540346 115.511989 
L 208.599503 115.725834 
L 208.658659 115.464673 
L 208.717815 115.680825 
L 208.776971 115.886436 
L 209.546003 104.075408 
L 209.723471 94.430954 
L 209.782628 94.671211 
L 210.078409 87.066032 
L 210.610815 98.962939 
L 211.143221 106.548742 
L 211.675628 111.385664 
L 212.208034 114.469825 
L 212.74044 116.436373 
L 213.332003 117.797907 
L 213.923565 118.623719 
L 214.574284 119.162256 
L 215.343315 119.513288 
L 216.408128 119.740819 
L 218.182815 119.861922 
L 221.318096 119.894247 
L 221.377253 119.335946 
L 221.436409 119.363294 
L 221.673034 119.459985 
L 222.20544 115.068911 
L 222.264596 115.304366 
L 222.382909 114.31165 
L 222.442065 114.584036 
L 222.619534 113.084678 
L 222.67869 112.451198 
L 222.797003 109.752012 
L 222.915315 109.696243 
L 223.15194 106.239982 
L 223.566034 100.129535 
L 223.920971 90.506411 
L 223.980128 91.939792 
L 224.512534 102.070587 
L 225.04494 108.530267 
L 225.577347 112.649143 
L 226.109753 115.275454 
L 226.701315 117.093773 
L 227.292878 118.19664 
L 227.88444 118.865563 
L 228.594315 119.330802 
L 229.481659 119.629391 
L 230.783097 119.807724 
L 233.326815 119.88634 
L 234.628253 119.893254 
L 234.746565 118.773495 
L 234.805722 118.828275 
L 235.042347 119.021948 
L 235.278972 117.755705 
L 235.338128 117.860123 
L 235.633909 116.060645 
L 235.693065 116.247731 
L 235.811378 115.626055 
L 235.988847 113.434293 
L 236.107159 113.084918 
L 236.166315 113.417132 
L 236.639565 107.329142 
L 236.698722 107.366923 
L 236.757878 107.512512 
L 236.817034 106.603674 
L 237.053659 100.388102 
L 237.171972 98.87036 
L 237.34944 100.425683 
L 237.467753 96.304411 
L 237.526909 97.455019 
L 238.059315 105.587249 
L 238.591722 110.772591 
L 239.124128 114.078912 
L 239.656534 116.187115 
L 240.248097 117.646724 
L 240.839659 118.532022 
L 241.490378 119.109351 
L 242.259409 119.48567 
L 243.324222 119.72959 
L 245.039753 119.857504 
L 249.003222 119.895329 
L 249.062378 119.399456 
L 249.121534 119.423707 
L 249.180691 119.446775 
L 249.239847 118.966745 
L 249.299003 119.0121 
L 249.594784 119.207774 
L 249.772253 118.016306 
L 249.831409 118.108014 
L 250.008878 118.357164 
L 250.127191 117.582233 
L 250.186347 117.695111 
L 250.304659 117.90462 
L 250.482128 117.202557 
L 250.541284 117.333952 
L 250.718753 113.663914 
L 250.837066 114.257042 
L 251.310316 102.675188 
L 251.428628 101.743604 
L 251.842722 89.492132 
L 251.961034 82.592448 
L 252.020191 82.968939 
L 252.552597 96.350514 
L 253.085003 104.882987 
L 253.617409 110.323535 
L 254.149816 113.79258 
L 254.682222 116.004542 
L 255.273784 117.535988 
L 255.865347 118.464857 
L 256.516066 119.0706 
L 257.285097 119.46544 
L 258.290753 119.712376 
L 259.887972 119.848919 
L 262.964097 119.893155 
L 263.023253 119.398949 
L 263.08241 119.423225 
L 263.259878 119.489177 
L 263.319035 119.040449 
L 263.378191 119.082209 
L 263.673972 119.262374 
L 263.733128 118.785779 
L 263.792285 118.839959 
L 264.147222 119.113848 
L 264.265535 118.259222 
L 264.324691 118.339083 
L 264.383847 118.415049 
L 264.738785 116.220449 
L 264.857097 116.570291 
L 264.97541 115.975236 
L 265.803597 93.91167 
L 265.862753 94.25137 
L 266.099378 90.091484 
L 266.158535 86.681751 
L 266.217691 88.301661 
L 266.336003 91.308327 
L 266.336003 91.308327 
" clip-path="url(#p7a70bef0f4)" style="fill: none; stroke: #1a1a1a; stroke-width: 0.9; stroke-linejoin: miter"/>
   </g>
   <g id="line2d_15">
    <path d="M 29.770156 93.270767 
L 266.39516 93.270767 
" clip-path="url(#p7a70bef0f4)" style="fill: none; stroke-dasharray: 0.7,1.155; stroke-dashoffset: 0; stroke: #bbbbbb; stroke-width: 0.7"/>
   </g>
   <g id="patch_3">
    <path d="M 29.770156 124.96125 
L 29.770156 13.54125 
" style="fill: none; stroke: #1a1a1a; stroke-width: 0.8; stroke-linejoin: miter; stroke-linecap: square"/>
   </g>
   <g id="patch_4">
    <path d="M 266.39516 124.96125 
L 266.39516 13.54125 
" style="fill: none; stroke: #1a1a1a; stroke-width: 0.8; stroke-linejoin: miter; stroke-linecap: square"/>
   </g>
   <g id="patch_5">
    <path d="M 29.770156 124.96125 
L 266.39516 124.96125 
" style="fill: none; stroke: #1a1a1a; stroke-width: 0.8; stroke-linejoin: miter; stroke-linecap: square"/>
   </g>
   <g id="patch_6">
    <path d="M 29.770156 13.54125 
L 266.39516 13.54125 
" style="fill: none; stroke: #1a1a1a; stroke-width: 0.8; stroke-linejoin: miter; stroke-linecap: square"/>
   </g>
   <g id="text_16">
    <!-- PING · I-neuron conductances (cell 1) -->
    <g style="fill: #1a1a1a" transform="translate(29.770156 7.54125) scale(0.08 -0.08)">
     <defs>
      <path id="Menlo-Regular-50" d="M 1247 4147 
L 1247 2394 
L 1978 2394 
Q 2416 2394 2661 2625 
Q 2906 2856 2906 3272 
Q 2906 3688 2662 3917 
Q 2419 4147 1978 4147 
L 1247 4147 
z
M 616 4666 
L 1978 4666 
Q 2759 4666 3162 4311 
Q 3566 3956 3566 3272 
Q 3566 2581 3164 2228 
Q 2763 1875 1978 1875 
L 1247 1875 
L 1247 0 
L 616 0 
L 616 4666 
z
" transform="scale(0.015625)"/>
      <path id="Menlo-Regular-49" d="M 628 4666 
L 3219 4666 
L 3219 4134 
L 2241 4134 
L 2241 531 
L 3219 531 
L 3219 0 
L 628 0 
L 628 531 
L 1606 531 
L 1606 4134 
L 628 4134 
L 628 4666 
z
" transform="scale(0.015625)"/>
      <path id="Menlo-Regular-4e" d="M 59 4650 
L 922 4650 
L 2747 822 
L 2747 4650 
L 3419 4650 
L 3419 0 
L 2556 0 
L 731 3828 
L 731 0 
L 59 0 
L 59 4650 
z
" transform="scale(0.015625)"/>
      <path id="Menlo-Regular-47" d="M 3450 384 
Q 3197 150 2880 29 
Q 2563 -91 2194 -91 
Q 1306 -91 812 545 
Q 319 1181 319 2328 
Q 319 3472 819 4111 
Q 1319 4750 2209 4750 
Q 2503 4750 2772 4667 
Q 3041 4584 3291 4416 
L 3291 3769 
Q 3038 4009 2772 4123 
Q 2506 4238 2209 4238 
Q 1594 4238 1286 3761 
Q 978 3284 978 2328 
Q 978 1356 1276 889 
Q 1575 422 2194 422 
Q 2403 422 2561 470 
Q 2719 519 2847 622 
L 2847 1875 
L 2169 1875 
L 2169 2394 
L 3450 2394 
L 3450 384 
z
" transform="scale(0.015625)"/>
      <path id="Menlo-Regular-b7" d="M 1528 2700 
L 2316 2700 
L 2316 1747 
L 1528 1747 
L 1528 2700 
z
" transform="scale(0.015625)"/>
      <path id="Menlo-Regular-2d" d="M 319 2263 
L 3631 2263 
L 3631 1734 
L 319 1734 
L 319 2263 
z
" transform="scale(0.015625)"/>
      <path id="Menlo-Regular-6e" d="M 3284 2169 
L 3284 0 
L 2706 0 
L 2706 2169 
Q 2706 2641 2540 2862 
Q 2375 3084 2022 3084 
Q 1619 3084 1401 2798 
Q 1184 2513 1184 1978 
L 1184 0 
L 609 0 
L 609 3500 
L 1184 3500 
L 1184 2975 
Q 1338 3275 1600 3429 
Q 1863 3584 2222 3584 
Q 2756 3584 3020 3232 
Q 3284 2881 3284 2169 
z
" transform="scale(0.015625)"/>
      <path id="Menlo-Regular-75" d="M 609 1325 
L 609 3494 
L 1184 3494 
L 1184 1325 
Q 1184 853 1351 631 
Q 1519 409 1869 409 
Q 2275 409 2490 695 
Q 2706 981 2706 1516 
L 2706 3494 
L 3284 3494 
L 3284 0 
L 2706 0 
L 2706 525 
Q 2553 222 2289 65 
Q 2025 -91 1672 -91 
Q 1134 -91 871 261 
Q 609 613 609 1325 
z
" transform="scale(0.015625)"/>
      <path id="Menlo-Regular-72" d="M 3609 2778 
Q 3425 2922 3234 2987 
Q 3044 3053 2816 3053 
Q 2278 3053 1993 2715 
Q 1709 2378 1709 1741 
L 1709 0 
L 1131 0 
L 1131 3500 
L 1709 3500 
L 1709 2816 
Q 1853 3188 2151 3386 
Q 2450 3584 2859 3584 
Q 3072 3584 3256 3531 
Q 3441 3478 3609 3366 
L 3609 2778 
z
" transform="scale(0.015625)"/>
      <path id="Menlo-Regular-6f" d="M 1925 3097 
Q 1488 3097 1263 2756 
Q 1038 2416 1038 1747 
Q 1038 1081 1263 739 
Q 1488 397 1925 397 
Q 2366 397 2591 739 
Q 2816 1081 2816 1747 
Q 2816 2416 2591 2756 
Q 2366 3097 1925 3097 
z
M 1925 3584 
Q 2653 3584 3039 3112 
Q 3425 2641 3425 1747 
Q 3425 850 3040 379 
Q 2656 -91 1925 -91 
Q 1197 -91 812 379 
Q 428 850 428 1747 
Q 428 2641 812 3112 
Q 1197 3584 1925 3584 
z
" transform="scale(0.015625)"/>
      <path id="Menlo-Regular-63" d="M 3316 178 
Q 3084 44 2839 -23 
Q 2594 -91 2338 -91 
Q 1525 -91 1067 396 
Q 609 884 609 1747 
Q 609 2609 1067 3096 
Q 1525 3584 2338 3584 
Q 2591 3584 2831 3518 
Q 3072 3453 3316 3316 
L 3316 2713 
Q 3088 2916 2858 3006 
Q 2628 3097 2338 3097 
Q 1797 3097 1506 2747 
Q 1216 2397 1216 1747 
Q 1216 1100 1508 748 
Q 1800 397 2338 397 
Q 2638 397 2875 489 
Q 3113 581 3316 775 
L 3316 178 
z
" transform="scale(0.015625)"/>
      <path id="Menlo-Regular-64" d="M 2681 3053 
L 2681 4863 
L 3256 4863 
L 3256 0 
L 2681 0 
L 2681 441 
Q 2538 181 2298 45 
Q 2059 -91 1747 -91 
Q 1113 -91 748 401 
Q 384 894 384 1759 
Q 384 2613 750 3098 
Q 1116 3584 1747 3584 
Q 2063 3584 2303 3448 
Q 2544 3313 2681 3053 
z
M 991 1747 
Q 991 1078 1203 737 
Q 1416 397 1831 397 
Q 2247 397 2464 740 
Q 2681 1084 2681 1747 
Q 2681 2413 2464 2755 
Q 2247 3097 1831 3097 
Q 1416 3097 1203 2756 
Q 991 2416 991 1747 
z
" transform="scale(0.015625)"/>
      <path id="Menlo-Regular-61" d="M 2194 1759 
L 2003 1759 
Q 1500 1759 1245 1582 
Q 991 1406 991 1056 
Q 991 741 1181 566 
Q 1372 391 1709 391 
Q 2184 391 2456 720 
Q 2728 1050 2731 1631 
L 2731 1759 
L 2194 1759 
z
M 3309 1997 
L 3309 0 
L 2731 0 
L 2731 519 
Q 2547 206 2267 57 
Q 1988 -91 1588 -91 
Q 1053 -91 734 211 
Q 416 513 416 1019 
Q 416 1603 808 1906 
Q 1200 2209 1959 2209 
L 2731 2209 
L 2731 2300 
Q 2728 2719 2518 2908 
Q 2309 3097 1850 3097 
Q 1556 3097 1256 3012 
Q 956 2928 672 2766 
L 672 3341 
Q 991 3463 1283 3523 
Q 1575 3584 1850 3584 
Q 2284 3584 2592 3456 
Q 2900 3328 3091 3072 
Q 3209 2916 3259 2686 
Q 3309 2456 3309 1997 
z
" transform="scale(0.015625)"/>
      <path id="Menlo-Regular-6c" d="M 2247 1266 
Q 2247 878 2389 681 
Q 2531 484 2809 484 
L 3481 484 
L 3481 0 
L 2753 0 
Q 2238 0 1955 329 
Q 1672 659 1672 1266 
L 1672 4431 
L 750 4431 
L 750 4881 
L 2247 4881 
L 2247 1266 
z
" transform="scale(0.015625)"/>
     </defs>
     <use xlink:href="#Menlo-Regular-50"/>
     <use xlink:href="#Menlo-Regular-49" transform="translate(60.205078 0)"/>
     <use xlink:href="#Menlo-Regular-4e" transform="translate(120.410156 0)"/>
     <use xlink:href="#Menlo-Regular-47" transform="translate(180.615234 0)"/>
     <use xlink:href="#Menlo-Regular-20" transform="translate(240.820312 0)"/>
     <use xlink:href="#Menlo-Regular-b7" transform="translate(301.025391 0)"/>
     <use xlink:href="#Menlo-Regular-20" transform="translate(361.230469 0)"/>
     <use xlink:href="#Menlo-Regular-49" transform="translate(421.435547 0)"/>
     <use xlink:href="#Menlo-Regular-2d" transform="translate(481.640625 0)"/>
     <use xlink:href="#Menlo-Regular-6e" transform="translate(541.845703 0)"/>
     <use xlink:href="#Menlo-Regular-65" transform="translate(602.050781 0)"/>
     <use xlink:href="#Menlo-Regular-75" transform="translate(662.255859 0)"/>
     <use xlink:href="#Menlo-Regular-72" transform="translate(722.460938 0)"/>
     <use xlink:href="#Menlo-Regular-6f" transform="translate(782.666016 0)"/>
     <use xlink:href="#Menlo-Regular-6e" transform="translate(842.871094 0)"/>
     <use xlink:href="#Menlo-Regular-20" transform="translate(903.076172 0)"/>
     <use xlink:href="#Menlo-Regular-63" transform="translate(963.28125 0)"/>
     <use xlink:href="#Menlo-Regular-6f" transform="translate(1023.486328 0)"/>
     <use xlink:href="#Menlo-Regular-6e" transform="translate(1083.691406 0)"/>
     <use xlink:href="#Menlo-Regular-64" transform="translate(1143.896484 0)"/>
     <use xlink:href="#Menlo-Regular-75" transform="translate(1204.101562 0)"/>
     <use xlink:href="#Menlo-Regular-63" transform="translate(1264.306641 0)"/>
     <use xlink:href="#Menlo-Regular-74" transform="translate(1324.511719 0)"/>
     <use xlink:href="#Menlo-Regular-61" transform="translate(1384.716797 0)"/>
     <use xlink:href="#Menlo-Regular-6e" transform="translate(1444.921875 0)"/>
     <use xlink:href="#Menlo-Regular-63" transform="translate(1505.126953 0)"/>
     <use xlink:href="#Menlo-Regular-65" transform="translate(1565.332031 0)"/>
     <use xlink:href="#Menlo-Regular-73" transform="translate(1625.537109 0)"/>
     <use xlink:href="#Menlo-Regular-20" transform="translate(1685.742188 0)"/>
     <use xlink:href="#Menlo-Regular-28" transform="translate(1745.947266 0)"/>
     <use xlink:href="#Menlo-Regular-63" transform="translate(1806.152344 0)"/>
     <use xlink:href="#Menlo-Regular-65" transform="translate(1866.357422 0)"/>
     <use xlink:href="#Menlo-Regular-6c" transform="translate(1926.5625 0)"/>
     <use xlink:href="#Menlo-Regular-6c" transform="translate(1986.767578 0)"/>
     <use xlink:href="#Menlo-Regular-20" transform="translate(2046.972656 0)"/>
     <use xlink:href="#Menlo-Regular-31" transform="translate(2107.177734 0)"/>
     <use xlink:href="#Menlo-Regular-29" transform="translate(2167.382812 0)"/>
    </g>
   </g>
   <g id="legend_1">
    <g id="patch_7">
     <path d="M 198.352972 40.45625 
L 262.89516 40.45625 
L 262.89516 17.04125 
L 198.352972 17.04125 
z
" style="fill: #ffffff; stroke: #1a1a1a; stroke-width: 0.8; stroke-linejoin: miter"/>
    </g>
    <g id="line2d_16">
     <path d="M 201.152972 23.044844 
L 206.752972 23.044844 
L 212.352972 23.044844 
" style="fill: none; stroke: #1a1a1a; stroke-width: 0.9; stroke-linejoin: miter"/>
    </g>
    <g id="text_17">
     <!-- g_E (exc) -->
     <g style="fill: #1a1a1a" transform="translate(217.952972 25.494844) scale(0.07 -0.07)">
      <defs>
       <path id="Menlo-Regular-5f" d="M 3825 -594 
L 3825 -1125 
L 0 -1125 
L 0 -594 
L 3825 -594 
z
" transform="scale(0.015625)"/>
       <path id="Menlo-Regular-45" d="M 616 4666 
L 3384 4666 
L 3384 4134 
L 1247 4134 
L 1247 2878 
L 3291 2878 
L 3291 2347 
L 1247 2347 
L 1247 531 
L 3444 531 
L 3444 0 
L 616 0 
L 616 4666 
z
" transform="scale(0.015625)"/>
       <path id="Menlo-Regular-78" d="M 3494 3500 
L 2241 1825 
L 3616 0 
L 2950 0 
L 1925 1403 
L 903 0 
L 238 0 
L 1613 1825 
L 359 3500 
L 997 3500 
L 1925 2234 
L 2847 3500 
L 3494 3500 
z
" transform="scale(0.015625)"/>
      </defs>
      <use xlink:href="#Menlo-Regular-67"/>
      <use xlink:href="#Menlo-Regular-5f" transform="translate(60.205078 0)"/>
      <use xlink:href="#Menlo-Regular-45" transform="translate(120.410156 0)"/>
      <use xlink:href="#Menlo-Regular-20" transform="translate(180.615234 0)"/>
      <use xlink:href="#Menlo-Regular-28" transform="translate(240.820312 0)"/>
      <use xlink:href="#Menlo-Regular-65" transform="translate(301.025391 0)"/>
      <use xlink:href="#Menlo-Regular-78" transform="translate(361.230469 0)"/>
      <use xlink:href="#Menlo-Regular-63" transform="translate(421.435547 0)"/>
      <use xlink:href="#Menlo-Regular-29" transform="translate(481.640625 0)"/>
     </g>
    </g>
    <g id="line2d_17">
     <path d="M 201.152972 33.702344 
L 206.752972 33.702344 
L 212.352972 33.702344 
" style="fill: none; stroke-dasharray: 0.7,1.155; stroke-dashoffset: 0; stroke: #bbbbbb; stroke-width: 0.7"/>
    </g>
    <g id="text_18">
     <!-- g_L (leak) -->
     <g style="fill: #1a1a1a" transform="translate(217.952972 36.152344) scale(0.07 -0.07)">
      <defs>
       <path id="Menlo-Regular-4c" d="M 672 4666 
L 1306 4666 
L 1306 531 
L 3559 531 
L 3559 0 
L 672 0 
L 672 4666 
z
" transform="scale(0.015625)"/>
       <path id="Menlo-Regular-6b" d="M 738 4863 
L 1331 4863 
L 1331 2047 
L 2841 3500 
L 3541 3500 
L 2163 2181 
L 3756 0 
L 3053 0 
L 1759 1806 
L 1331 1403 
L 1331 0 
L 738 0 
L 738 4863 
z
" transform="scale(0.015625)"/>
      </defs>
      <use xlink:href="#Menlo-Regular-67"/>
      <use xlink:href="#Menlo-Regular-5f" transform="translate(60.205078 0)"/>
      <use xlink:href="#Menlo-Regular-4c" transform="translate(120.410156 0)"/>
      <use xlink:href="#Menlo-Regular-20" transform="translate(180.615234 0)"/>
      <use xlink:href="#Menlo-Regular-28" transform="translate(240.820312 0)"/>
      <use xlink:href="#Menlo-Regular-6c" transform="translate(301.025391 0)"/>
      <use xlink:href="#Menlo-Regular-65" transform="translate(361.230469 0)"/>
      <use xlink:href="#Menlo-Regular-61" transform="translate(421.435547 0)"/>
      <use xlink:href="#Menlo-Regular-6b" transform="translate(481.640625 0)"/>
      <use xlink:href="#Menlo-Regular-29" transform="translate(541.845703 0)"/>
     </g>
    </g>
   </g>
  </g>
 </g>
 <defs>
  <clipPath id="p7a70bef0f4">
   <rect x="29.770156" y="13.54125" width="236.625003" height="111.42"/>
  </clipPath>
 </defs>
</svg>
