<?xml version="1.0" encoding="utf-8" standalone="no"?>
<!DOCTYPE svg PUBLIC "-//W3C//DTD SVG 1.1//EN"
  "http://www.w3.org/Graphics/SVG/1.1/DTD/svg11.dtd">
<svg xmlns:xlink="http://www.w3.org/1999/xlink" width="273.812422pt" height="148.460625pt" viewBox="0 0 273.812422 148.460625" xmlns="http://www.w3.org/2000/svg" version="1.1">
 <metadata>
  <rdf:RDF xmlns:dc="http://purl.org/dc/elements/1.1/" xmlns:cc="http://creativecommons.org/ns#" xmlns:rdf="http://www.w3.org/1999/02/22-rdf-syntax-ns#">
   <cc:Work>
    <dc:type rdf:resource="http://purl.org/dc/dcmitype/StillImage"/>
    <dc:date>2026-07-06T14:54:27.136158</dc:date>
    <dc:format>image/svg+xml</dc:format>
    <dc:creator>
     <cc:Agent>
      <dc:title>Matplotlib v3.10.8, https://matplotlib.org/</dc:title>
     </cc:Agent>
    </dc:creator>
   </cc:Work>
  </rdf:RDF>
 </metadata>
 <defs>
  <style type="text/css">*{stroke-linejoin: round; stroke-linecap: butt}</style>
 </defs>
 <g id="figure_1">
  <g id="patch_1">
   <path d="M 0 148.460625 
L 273.812422 148.460625 
L 273.812422 0 
L 0 0 
z
" style="fill: #ffffff"/>
  </g>
  <g id="axes_1">
   <g id="patch_2">
    <path d="M 37.886094 124.96125 
L 266.051097 124.96125 
L 266.051097 13.54125 
L 37.886094 13.54125 
z
" style="fill: #ffffff"/>
   </g>
   <g id="matplotlib.axis_1">
    <g id="xtick_1">
     <g id="line2d_1">
      <defs>
       <path id="m0d5042ff58" d="M 0 0 
L 0 -3 
" style="stroke: #1a1a1a; stroke-width: 0.8"/>
      </defs>
      <g>
       <use xlink:href="#m0d5042ff58" x="37.886094" y="124.96125" style="fill: #1a1a1a; stroke: #1a1a1a; stroke-width: 0.8"/>
      </g>
     </g>
     <g id="text_1">
      <!-- 0 -->
      <g style="fill: #1a1a1a" transform="translate(35.778984 133.799844) scale(0.07 -0.07)">
       <defs>
        <path id="Menlo-Regular-30" d="M 1925 4734 
Q 2672 4734 3055 4125 
Q 3438 3516 3438 2322 
Q 3438 1128 3055 518 
Q 2672 -91 1925 -91 
Q 1178 -91 797 518 
Q 416 1128 416 2322 
Q 416 3516 797 4125 
Q 1178 4734 1925 4734 
z
M 1925 409 
Q 2369 409 2586 881 
Q 2803 1353 2803 2322 
Q 2803 2838 2741 3253 
L 1253 925 
Q 1488 409 1925 409 
z
M 1925 4234 
Q 1484 4234 1267 3762 
Q 1050 3291 1050 2322 
Q 1050 1881 1109 1497 
L 2566 3819 
Q 2328 4234 1925 4234 
z
" transform="scale(0.015625)"/>
       </defs>
       <use xlink:href="#Menlo-Regular-30"/>
      </g>
     </g>
    </g>
    <g id="xtick_2">
     <g id="line2d_2">
      <g>
       <use xlink:href="#m0d5042ff58" x="66.406719" y="124.96125" style="fill: #1a1a1a; stroke: #1a1a1a; stroke-width: 0.8"/>
      </g>
     </g>
     <g id="text_2">
      <!-- 50 -->
      <g style="fill: #1a1a1a" transform="translate(62.1925 133.799844) scale(0.07 -0.07)">
       <defs>
        <path id="Menlo-Regular-35" d="M 647 4666 
L 3009 4666 
L 3009 4134 
L 1222 4134 
L 1222 2988 
Q 1356 3038 1492 3061 
Q 1628 3084 1766 3084 
Q 2491 3084 2916 2656 
Q 3341 2228 3341 1497 
Q 3341 759 2895 334 
Q 2450 -91 1678 -91 
Q 1306 -91 998 -41 
Q 691 9 447 109 
L 447 750 
Q 734 594 1025 517 
Q 1316 441 1619 441 
Q 2141 441 2423 716 
Q 2706 991 2706 1497 
Q 2706 1997 2414 2275 
Q 2122 2553 1600 2553 
Q 1347 2553 1106 2495 
Q 866 2438 647 2322 
L 647 4666 
z
" transform="scale(0.015625)"/>
       </defs>
       <use xlink:href="#Menlo-Regular-35"/>
       <use xlink:href="#Menlo-Regular-30" transform="translate(60.205078 0)"/>
      </g>
     </g>
    </g>
    <g id="xtick_3">
     <g id="line2d_3">
      <g>
       <use xlink:href="#m0d5042ff58" x="94.927344" y="124.96125" style="fill: #1a1a1a; stroke: #1a1a1a; stroke-width: 0.8"/>
      </g>
     </g>
     <g id="text_3">
      <!-- 100 -->
      <g style="fill: #1a1a1a" transform="translate(88.606016 133.799844) scale(0.07 -0.07)">
       <defs>
        <path id="Menlo-Regular-31" d="M 844 528 
L 1825 528 
L 1825 4053 
L 650 3488 
L 650 4094 
L 1819 4650 
L 2450 4650 
L 2450 528 
L 3419 528 
L 3419 0 
L 844 0 
L 844 528 
z
" transform="scale(0.015625)"/>
       </defs>
       <use xlink:href="#Menlo-Regular-31"/>
       <use xlink:href="#Menlo-Regular-30" transform="translate(60.205078 0)"/>
       <use xlink:href="#Menlo-Regular-30" transform="translate(120.410156 0)"/>
      </g>
     </g>
    </g>
    <g id="xtick_4">
     <g id="line2d_4">
      <g>
       <use xlink:href="#m0d5042ff58" x="123.447969" y="124.96125" style="fill: #1a1a1a; stroke: #1a1a1a; stroke-width: 0.8"/>
      </g>
     </g>
     <g id="text_4">
      <!-- 150 -->
      <g style="fill: #1a1a1a" transform="translate(117.126641 133.799844) scale(0.07 -0.07)">
       <use xlink:href="#Menlo-Regular-31"/>
       <use xlink:href="#Menlo-Regular-35" transform="translate(60.205078 0)"/>
       <use xlink:href="#Menlo-Regular-30" transform="translate(120.410156 0)"/>
      </g>
     </g>
    </g>
    <g id="xtick_5">
     <g id="line2d_5">
      <g>
       <use xlink:href="#m0d5042ff58" x="151.968594" y="124.96125" style="fill: #1a1a1a; stroke: #1a1a1a; stroke-width: 0.8"/>
      </g>
     </g>
     <g id="text_5">
      <!-- 200 -->
      <g style="fill: #1a1a1a" transform="translate(145.647266 133.799844) scale(0.07 -0.07)">
       <defs>
        <path id="Menlo-Regular-32" d="M 1166 531 
L 3309 531 
L 3309 0 
L 475 0 
L 475 531 
Q 1059 1147 1496 1619 
Q 1934 2091 2100 2284 
Q 2413 2666 2522 2902 
Q 2631 3138 2631 3384 
Q 2631 3775 2401 3997 
Q 2172 4219 1772 4219 
Q 1488 4219 1175 4116 
Q 863 4013 513 3803 
L 513 4441 
Q 834 4594 1145 4672 
Q 1456 4750 1759 4750 
Q 2444 4750 2861 4386 
Q 3278 4022 3278 3431 
Q 3278 3131 3139 2831 
Q 3000 2531 2688 2169 
Q 2513 1966 2180 1606 
Q 1847 1247 1166 531 
z
" transform="scale(0.015625)"/>
       </defs>
       <use xlink:href="#Menlo-Regular-32"/>
       <use xlink:href="#Menlo-Regular-30" transform="translate(60.205078 0)"/>
       <use xlink:href="#Menlo-Regular-30" transform="translate(120.410156 0)"/>
      </g>
     </g>
    </g>
    <g id="xtick_6">
     <g id="line2d_6">
      <g>
       <use xlink:href="#m0d5042ff58" x="180.489219" y="124.96125" style="fill: #1a1a1a; stroke: #1a1a1a; stroke-width: 0.8"/>
      </g>
     </g>
     <g id="text_6">
      <!-- 250 -->
      <g style="fill: #1a1a1a" transform="translate(174.167891 133.799844) scale(0.07 -0.07)">
       <use xlink:href="#Menlo-Regular-32"/>
       <use xlink:href="#Menlo-Regular-35" transform="translate(60.205078 0)"/>
       <use xlink:href="#Menlo-Regular-30" transform="translate(120.410156 0)"/>
      </g>
     </g>
    </g>
    <g id="xtick_7">
     <g id="line2d_7">
      <g>
       <use xlink:href="#m0d5042ff58" x="209.009844" y="124.96125" style="fill: #1a1a1a; stroke: #1a1a1a; stroke-width: 0.8"/>
      </g>
     </g>
     <g id="text_7">
      <!-- 300 -->
      <g style="fill: #1a1a1a" transform="translate(202.688516 133.799844) scale(0.07 -0.07)">
       <defs>
        <path id="Menlo-Regular-33" d="M 2425 2497 
Q 2884 2375 3128 2064 
Q 3372 1753 3372 1288 
Q 3372 644 2939 276 
Q 2506 -91 1741 -91 
Q 1419 -91 1084 -31 
Q 750 28 428 141 
L 428 769 
Q 747 603 1056 522 
Q 1366 441 1672 441 
Q 2191 441 2469 675 
Q 2747 909 2747 1350 
Q 2747 1756 2469 1995 
Q 2191 2234 1716 2234 
L 1234 2234 
L 1234 2753 
L 1716 2753 
Q 2150 2753 2394 2943 
Q 2638 3134 2638 3475 
Q 2638 3834 2411 4026 
Q 2184 4219 1766 4219 
Q 1488 4219 1191 4156 
Q 894 4094 569 3969 
L 569 4550 
Q 947 4650 1242 4700 
Q 1538 4750 1766 4750 
Q 2447 4750 2855 4408 
Q 3263 4066 3263 3500 
Q 3263 3116 3048 2859 
Q 2834 2603 2425 2497 
z
" transform="scale(0.015625)"/>
       </defs>
       <use xlink:href="#Menlo-Regular-33"/>
       <use xlink:href="#Menlo-Regular-30" transform="translate(60.205078 0)"/>
       <use xlink:href="#Menlo-Regular-30" transform="translate(120.410156 0)"/>
      </g>
     </g>
    </g>
    <g id="xtick_8">
     <g id="line2d_8">
      <g>
       <use xlink:href="#m0d5042ff58" x="237.530469" y="124.96125" style="fill: #1a1a1a; stroke: #1a1a1a; stroke-width: 0.8"/>
      </g>
     </g>
     <g id="text_8">
      <!-- 350 -->
      <g style="fill: #1a1a1a" transform="translate(231.209141 133.799844) scale(0.07 -0.07)">
       <use xlink:href="#Menlo-Regular-33"/>
       <use xlink:href="#Menlo-Regular-35" transform="translate(60.205078 0)"/>
       <use xlink:href="#Menlo-Regular-30" transform="translate(120.410156 0)"/>
      </g>
     </g>
    </g>
    <g id="xtick_9">
     <g id="line2d_9">
      <g>
       <use xlink:href="#m0d5042ff58" x="266.051094" y="124.96125" style="fill: #1a1a1a; stroke: #1a1a1a; stroke-width: 0.8"/>
      </g>
     </g>
     <g id="text_9">
      <!-- 400 -->
      <g style="fill: #1a1a1a" transform="translate(259.729766 133.799844) scale(0.07 -0.07)">
       <defs>
        <path id="Menlo-Regular-34" d="M 2297 4091 
L 825 1625 
L 2297 1625 
L 2297 4091 
z
M 2194 4666 
L 2925 4666 
L 2925 1625 
L 3547 1625 
L 3547 1113 
L 2925 1113 
L 2925 0 
L 2297 0 
L 2297 1113 
L 319 1113 
L 319 1709 
L 2194 4666 
z
" transform="scale(0.015625)"/>
       </defs>
       <use xlink:href="#Menlo-Regular-34"/>
       <use xlink:href="#Menlo-Regular-30" transform="translate(60.205078 0)"/>
       <use xlink:href="#Menlo-Regular-30" transform="translate(120.410156 0)"/>
      </g>
     </g>
    </g>
    <g id="text_10">
     <!-- time (ms) -->
     <g style="fill: #1a1a1a" transform="translate(130.29547 145.356875) scale(0.08 -0.08)">
      <defs>
       <path id="Menlo-Regular-74" d="M 1919 4494 
L 1919 3500 
L 3225 3500 
L 3225 3053 
L 1919 3053 
L 1919 1153 
Q 1919 766 2066 612 
Q 2213 459 2578 459 
L 3225 459 
L 3225 0 
L 2522 0 
Q 1875 0 1609 259 
Q 1344 519 1344 1153 
L 1344 3053 
L 409 3053 
L 409 3500 
L 1344 3500 
L 1344 4494 
L 1919 4494 
z
" transform="scale(0.015625)"/>
       <path id="Menlo-Regular-69" d="M 988 3488 
L 2459 3488 
L 2459 447 
L 3600 447 
L 3600 0 
L 744 0 
L 744 447 
L 1884 447 
L 1884 3041 
L 988 3041 
L 988 3488 
z
M 1884 4847 
L 2459 4847 
L 2459 4122 
L 1884 4122 
L 1884 4847 
z
" transform="scale(0.015625)"/>
       <path id="Menlo-Regular-6d" d="M 2113 3144 
Q 2219 3369 2383 3476 
Q 2547 3584 2778 3584 
Q 3200 3584 3373 3257 
Q 3547 2931 3547 2028 
L 3547 0 
L 3022 0 
L 3022 2003 
Q 3022 2744 2939 2923 
Q 2856 3103 2638 3103 
Q 2388 3103 2295 2911 
Q 2203 2719 2203 2003 
L 2203 0 
L 1678 0 
L 1678 2003 
Q 1678 2753 1589 2928 
Q 1500 3103 1269 3103 
Q 1041 3103 952 2911 
Q 863 2719 863 2003 
L 863 0 
L 341 0 
L 341 3500 
L 863 3500 
L 863 3200 
Q 966 3388 1120 3486 
Q 1275 3584 1472 3584 
Q 1709 3584 1867 3475 
Q 2025 3366 2113 3144 
z
" transform="scale(0.015625)"/>
       <path id="Menlo-Regular-65" d="M 3500 2038 
L 3500 1756 
L 1009 1756 
L 1009 1738 
Q 984 1022 1282 709 
Q 1581 397 2125 397 
Q 2400 397 2700 484 
Q 3000 572 3341 750 
L 3341 178 
Q 3013 44 2708 -23 
Q 2403 -91 2119 -91 
Q 1303 -91 843 398 
Q 384 888 384 1747 
Q 384 2584 834 3084 
Q 1284 3584 2034 3584 
Q 2703 3584 3089 3131 
Q 3475 2678 3500 2038 
z
M 2925 2206 
Q 2888 2569 2661 2833 
Q 2434 3097 2009 3097 
Q 1594 3097 1325 2822 
Q 1056 2547 1031 2203 
L 2925 2206 
z
" transform="scale(0.015625)"/>
       <path id="Menlo-Regular-20" transform="scale(0.015625)"/>
       <path id="Menlo-Regular-28" d="M 2672 5169 
Q 2256 4456 2051 3748 
Q 1847 3041 1847 2322 
Q 1847 1606 2051 897 
Q 2256 188 2672 -531 
L 2172 -531 
Q 1700 213 1469 917 
Q 1238 1622 1238 2322 
Q 1238 3019 1469 3725 
Q 1700 4431 2172 5169 
L 2672 5169 
z
" transform="scale(0.015625)"/>
       <path id="Menlo-Regular-73" d="M 3041 3378 
L 3041 2816 
Q 2794 2959 2544 3031 
Q 2294 3103 2034 3103 
Q 1644 3103 1451 2976 
Q 1259 2850 1259 2591 
Q 1259 2356 1403 2240 
Q 1547 2125 2119 2016 
L 2350 1972 
Q 2778 1891 2998 1647 
Q 3219 1403 3219 1013 
Q 3219 494 2850 201 
Q 2481 -91 1825 -91 
Q 1566 -91 1281 -36 
Q 997 19 666 128 
L 666 722 
Q 988 556 1281 473 
Q 1575 391 1838 391 
Q 2219 391 2428 545 
Q 2638 700 2638 978 
Q 2638 1378 1872 1531 
L 1847 1538 
L 1631 1581 
Q 1134 1678 906 1908 
Q 678 2138 678 2534 
Q 678 3038 1018 3311 
Q 1359 3584 1991 3584 
Q 2272 3584 2531 3532 
Q 2791 3481 3041 3378 
z
" transform="scale(0.015625)"/>
       <path id="Menlo-Regular-29" d="M 1088 5169 
L 1588 5169 
Q 2059 4431 2290 3725 
Q 2522 3019 2522 2322 
Q 2522 1619 2290 912 
Q 2059 206 1588 -531 
L 1088 -531 
Q 1503 194 1708 903 
Q 1913 1613 1913 2322 
Q 1913 3034 1708 3743 
Q 1503 4453 1088 5169 
z
" transform="scale(0.015625)"/>
      </defs>
      <use xlink:href="#Menlo-Regular-74"/>
      <use xlink:href="#Menlo-Regular-69" transform="translate(60.205078 0)"/>
      <use xlink:href="#Menlo-Regular-6d" transform="translate(120.410156 0)"/>
      <use xlink:href="#Menlo-Regular-65" transform="translate(180.615234 0)"/>
      <use xlink:href="#Menlo-Regular-20" transform="translate(240.820312 0)"/>
      <use xlink:href="#Menlo-Regular-28" transform="translate(301.025391 0)"/>
      <use xlink:href="#Menlo-Regular-6d" transform="translate(361.230469 0)"/>
      <use xlink:href="#Menlo-Regular-73" transform="translate(421.435547 0)"/>
      <use xlink:href="#Menlo-Regular-29" transform="translate(481.640625 0)"/>
     </g>
    </g>
   </g>
   <g id="matplotlib.axis_2">
    <g id="ytick_1">
     <g id="line2d_10">
      <defs>
       <path id="m47abf45b47" d="M 0 0 
L 3 0 
" style="stroke: #1a1a1a; stroke-width: 0.8"/>
      </defs>
      <g>
       <use xlink:href="#m47abf45b47" x="37.886094" y="119.896705" style="fill: #1a1a1a; stroke: #1a1a1a; stroke-width: 0.8"/>
      </g>
     </g>
     <g id="text_11">
      <!-- −65.0 -->
      <g style="fill: #1a1a1a" transform="translate(13.315 122.566001) scale(0.07 -0.07)">
       <defs>
        <path id="Menlo-Regular-2212" d="M 275 2272 
L 3578 2272 
L 3578 1741 
L 275 1741 
L 275 2272 
z
" transform="scale(0.015625)"/>
        <path id="Menlo-Regular-36" d="M 3097 4563 
L 3097 3981 
Q 2900 4097 2678 4158 
Q 2456 4219 2216 4219 
Q 1616 4219 1306 3767 
Q 997 3316 997 2438 
Q 1147 2750 1412 2917 
Q 1678 3084 2022 3084 
Q 2697 3084 3067 2670 
Q 3438 2256 3438 1497 
Q 3438 741 3056 325 
Q 2675 -91 1984 -91 
Q 1172 -91 794 492 
Q 416 1075 416 2328 
Q 416 3509 870 4129 
Q 1325 4750 2188 4750 
Q 2419 4750 2650 4701 
Q 2881 4653 3097 4563 
z
M 1972 2591 
Q 1569 2591 1337 2300 
Q 1106 2009 1106 1497 
Q 1106 984 1337 693 
Q 1569 403 1972 403 
Q 2391 403 2603 679 
Q 2816 956 2816 1497 
Q 2816 2041 2603 2316 
Q 2391 2591 1972 2591 
z
" transform="scale(0.015625)"/>
        <path id="Menlo-Regular-2e" d="M 1216 1263 
L 2316 1263 
L 2316 0 
L 1216 0 
L 1216 1263 
z
" transform="scale(0.015625)"/>
       </defs>
       <use xlink:href="#Menlo-Regular-2212"/>
       <use xlink:href="#Menlo-Regular-36" transform="translate(60.205078 0)"/>
       <use xlink:href="#Menlo-Regular-35" transform="translate(120.410156 0)"/>
       <use xlink:href="#Menlo-Regular-2e" transform="translate(180.615234 0)"/>
       <use xlink:href="#Menlo-Regular-30" transform="translate(240.820312 0)"/>
      </g>
     </g>
    </g>
    <g id="ytick_2">
     <g id="line2d_11">
      <g>
       <use xlink:href="#m47abf45b47" x="37.886094" y="103.005836" style="fill: #1a1a1a; stroke: #1a1a1a; stroke-width: 0.8"/>
      </g>
     </g>
     <g id="text_12">
      <!-- −62.5 -->
      <g style="fill: #1a1a1a" transform="translate(13.315 105.675132) scale(0.07 -0.07)">
       <use xlink:href="#Menlo-Regular-2212"/>
       <use xlink:href="#Menlo-Regular-36" transform="translate(60.205078 0)"/>
       <use xlink:href="#Menlo-Regular-32" transform="translate(120.410156 0)"/>
       <use xlink:href="#Menlo-Regular-2e" transform="translate(180.615234 0)"/>
       <use xlink:href="#Menlo-Regular-35" transform="translate(240.820312 0)"/>
      </g>
     </g>
    </g>
    <g id="ytick_3">
     <g id="line2d_12">
      <g>
       <use xlink:href="#m47abf45b47" x="37.886094" y="86.114967" style="fill: #1a1a1a; stroke: #1a1a1a; stroke-width: 0.8"/>
      </g>
     </g>
     <g id="text_13">
      <!-- −60.0 -->
      <g style="fill: #1a1a1a" transform="translate(13.315 88.784264) scale(0.07 -0.07)">
       <use xlink:href="#Menlo-Regular-2212"/>
       <use xlink:href="#Menlo-Regular-36" transform="translate(60.205078 0)"/>
       <use xlink:href="#Menlo-Regular-30" transform="translate(120.410156 0)"/>
       <use xlink:href="#Menlo-Regular-2e" transform="translate(180.615234 0)"/>
       <use xlink:href="#Menlo-Regular-30" transform="translate(240.820312 0)"/>
      </g>
     </g>
    </g>
    <g id="ytick_4">
     <g id="line2d_13">
      <g>
       <use xlink:href="#m47abf45b47" x="37.886094" y="69.224098" style="fill: #1a1a1a; stroke: #1a1a1a; stroke-width: 0.8"/>
      </g>
     </g>
     <g id="text_14">
      <!-- −57.5 -->
      <g style="fill: #1a1a1a" transform="translate(13.315 71.893395) scale(0.07 -0.07)">
       <defs>
        <path id="Menlo-Regular-37" d="M 434 4666 
L 3372 4666 
L 3372 4397 
L 1703 0 
L 1044 0 
L 2669 4134 
L 434 4134 
L 434 4666 
z
" transform="scale(0.015625)"/>
       </defs>
       <use xlink:href="#Menlo-Regular-2212"/>
       <use xlink:href="#Menlo-Regular-35" transform="translate(60.205078 0)"/>
       <use xlink:href="#Menlo-Regular-37" transform="translate(120.410156 0)"/>
       <use xlink:href="#Menlo-Regular-2e" transform="translate(180.615234 0)"/>
       <use xlink:href="#Menlo-Regular-35" transform="translate(240.820312 0)"/>
      </g>
     </g>
    </g>
    <g id="ytick_5">
     <g id="line2d_14">
      <g>
       <use xlink:href="#m47abf45b47" x="37.886094" y="52.333229" style="fill: #1a1a1a; stroke: #1a1a1a; stroke-width: 0.8"/>
      </g>
     </g>
     <g id="text_15">
      <!-- −55.0 -->
      <g style="fill: #1a1a1a" transform="translate(13.315 55.002526) scale(0.07 -0.07)">
       <use xlink:href="#Menlo-Regular-2212"/>
       <use xlink:href="#Menlo-Regular-35" transform="translate(60.205078 0)"/>
       <use xlink:href="#Menlo-Regular-35" transform="translate(120.410156 0)"/>
       <use xlink:href="#Menlo-Regular-2e" transform="translate(180.615234 0)"/>
       <use xlink:href="#Menlo-Regular-30" transform="translate(240.820312 0)"/>
      </g>
     </g>
    </g>
    <g id="ytick_6">
     <g id="line2d_15">
      <g>
       <use xlink:href="#m47abf45b47" x="37.886094" y="35.44236" style="fill: #1a1a1a; stroke: #1a1a1a; stroke-width: 0.8"/>
      </g>
     </g>
     <g id="text_16">
      <!-- −52.5 -->
      <g style="fill: #1a1a1a" transform="translate(13.315 38.111657) scale(0.07 -0.07)">
       <use xlink:href="#Menlo-Regular-2212"/>
       <use xlink:href="#Menlo-Regular-35" transform="translate(60.205078 0)"/>
       <use xlink:href="#Menlo-Regular-32" transform="translate(120.410156 0)"/>
       <use xlink:href="#Menlo-Regular-2e" transform="translate(180.615234 0)"/>
       <use xlink:href="#Menlo-Regular-35" transform="translate(240.820312 0)"/>
      </g>
     </g>
    </g>
    <g id="ytick_7">
     <g id="line2d_16">
      <g>
       <use xlink:href="#m47abf45b47" x="37.886094" y="18.551491" style="fill: #1a1a1a; stroke: #1a1a1a; stroke-width: 0.8"/>
      </g>
     </g>
     <g id="text_17">
      <!-- −50.0 -->
      <g style="fill: #1a1a1a" transform="translate(13.315 21.220788) scale(0.07 -0.07)">
       <use xlink:href="#Menlo-Regular-2212"/>
       <use xlink:href="#Menlo-Regular-35" transform="translate(60.205078 0)"/>
       <use xlink:href="#Menlo-Regular-30" transform="translate(120.410156 0)"/>
       <use xlink:href="#Menlo-Regular-2e" transform="translate(180.615234 0)"/>
       <use xlink:href="#Menlo-Regular-30" transform="translate(240.820312 0)"/>
      </g>
     </g>
    </g>
    <g id="text_18">
     <!-- V_I (neuron 1)  [mV] -->
     <g style="fill: #1a1a1a" transform="translate(7.65125 117.41375) rotate(-90) scale(0.08 -0.08)">
      <defs>
       <path id="Menlo-Regular-56" d="M 1925 531 
L 3022 4666 
L 3675 4666 
L 2309 0 
L 1544 0 
L 178 4666 
L 831 4666 
L 1925 531 
z
" transform="scale(0.015625)"/>
       <path id="Menlo-Regular-5f" d="M 3825 -594 
L 3825 -1125 
L 0 -1125 
L 0 -594 
L 3825 -594 
z
" transform="scale(0.015625)"/>
       <path id="Menlo-Regular-49" d="M 628 4666 
L 3219 4666 
L 3219 4134 
L 2241 4134 
L 2241 531 
L 3219 531 
L 3219 0 
L 628 0 
L 628 531 
L 1606 531 
L 1606 4134 
L 628 4134 
L 628 4666 
z
" transform="scale(0.015625)"/>
       <path id="Menlo-Regular-6e" d="M 3284 2169 
L 3284 0 
L 2706 0 
L 2706 2169 
Q 2706 2641 2540 2862 
Q 2375 3084 2022 3084 
Q 1619 3084 1401 2798 
Q 1184 2513 1184 1978 
L 1184 0 
L 609 0 
L 609 3500 
L 1184 3500 
L 1184 2975 
Q 1338 3275 1600 3429 
Q 1863 3584 2222 3584 
Q 2756 3584 3020 3232 
Q 3284 2881 3284 2169 
z
" transform="scale(0.015625)"/>
       <path id="Menlo-Regular-75" d="M 609 1325 
L 609 3494 
L 1184 3494 
L 1184 1325 
Q 1184 853 1351 631 
Q 1519 409 1869 409 
Q 2275 409 2490 695 
Q 2706 981 2706 1516 
L 2706 3494 
L 3284 3494 
L 3284 0 
L 2706 0 
L 2706 525 
Q 2553 222 2289 65 
Q 2025 -91 1672 -91 
Q 1134 -91 871 261 
Q 609 613 609 1325 
z
" transform="scale(0.015625)"/>
       <path id="Menlo-Regular-72" d="M 3609 2778 
Q 3425 2922 3234 2987 
Q 3044 3053 2816 3053 
Q 2278 3053 1993 2715 
Q 1709 2378 1709 1741 
L 1709 0 
L 1131 0 
L 1131 3500 
L 1709 3500 
L 1709 2816 
Q 1853 3188 2151 3386 
Q 2450 3584 2859 3584 
Q 3072 3584 3256 3531 
Q 3441 3478 3609 3366 
L 3609 2778 
z
" transform="scale(0.015625)"/>
       <path id="Menlo-Regular-6f" d="M 1925 3097 
Q 1488 3097 1263 2756 
Q 1038 2416 1038 1747 
Q 1038 1081 1263 739 
Q 1488 397 1925 397 
Q 2366 397 2591 739 
Q 2816 1081 2816 1747 
Q 2816 2416 2591 2756 
Q 2366 3097 1925 3097 
z
M 1925 3584 
Q 2653 3584 3039 3112 
Q 3425 2641 3425 1747 
Q 3425 850 3040 379 
Q 2656 -91 1925 -91 
Q 1197 -91 812 379 
Q 428 850 428 1747 
Q 428 2641 812 3112 
Q 1197 3584 1925 3584 
z
" transform="scale(0.015625)"/>
       <path id="Menlo-Regular-5b" d="M 1759 5175 
L 3084 5175 
L 3084 4728 
L 2334 4728 
L 2334 -84 
L 3084 -84 
L 3084 -531 
L 1759 -531 
L 1759 5175 
z
" transform="scale(0.015625)"/>
       <path id="Menlo-Regular-5d" d="M 2250 5175 
L 2250 -531 
L 925 -531 
L 925 -84 
L 1675 -84 
L 1675 4728 
L 925 4728 
L 925 5175 
L 2250 5175 
z
" transform="scale(0.015625)"/>
      </defs>
      <use xlink:href="#Menlo-Regular-56"/>
      <use xlink:href="#Menlo-Regular-5f" transform="translate(60.205078 0)"/>
      <use xlink:href="#Menlo-Regular-49" transform="translate(120.410156 0)"/>
      <use xlink:href="#Menlo-Regular-20" transform="translate(180.615234 0)"/>
      <use xlink:href="#Menlo-Regular-28" transform="translate(240.820312 0)"/>
      <use xlink:href="#Menlo-Regular-6e" transform="translate(301.025391 0)"/>
      <use xlink:href="#Menlo-Regular-65" transform="translate(361.230469 0)"/>
      <use xlink:href="#Menlo-Regular-75" transform="translate(421.435547 0)"/>
      <use xlink:href="#Menlo-Regular-72" transform="translate(481.640625 0)"/>
      <use xlink:href="#Menlo-Regular-6f" transform="translate(541.845703 0)"/>
      <use xlink:href="#Menlo-Regular-6e" transform="translate(602.050781 0)"/>
      <use xlink:href="#Menlo-Regular-20" transform="translate(662.255859 0)"/>
      <use xlink:href="#Menlo-Regular-31" transform="translate(722.460938 0)"/>
      <use xlink:href="#Menlo-Regular-29" transform="translate(782.666016 0)"/>
      <use xlink:href="#Menlo-Regular-20" transform="translate(842.871094 0)"/>
      <use xlink:href="#Menlo-Regular-20" transform="translate(903.076172 0)"/>
      <use xlink:href="#Menlo-Regular-5b" transform="translate(963.28125 0)"/>
      <use xlink:href="#Menlo-Regular-6d" transform="translate(1023.486328 0)"/>
      <use xlink:href="#Menlo-Regular-56" transform="translate(1083.691406 0)"/>
      <use xlink:href="#Menlo-Regular-5d" transform="translate(1143.896484 0)"/>
     </g>
    </g>
   </g>
   <g id="line2d_17">
    <path d="M 37.886094 119.896705 
L 39.026919 119.896705 
L 39.141001 119.362061 
L 39.312125 115.61775 
L 39.426208 105.396913 
L 39.654373 50.710715 
L 39.711414 31.908334 
L 39.825496 119.896705 
L 40.053661 119.896705 
L 40.338868 21.384557 
L 40.45295 119.896705 
L 40.681115 119.896705 
L 41.080404 43.390367 
L 41.308569 19.196136 
L 41.422651 119.896705 
L 41.650816 119.896705 
L 42.050105 85.298516 
L 42.449394 66.946552 
L 42.791641 59.095891 
L 43.076848 56.159113 
L 43.305013 55.459029 
L 43.419095 55.529468 
L 43.590219 56.055916 
L 43.875425 57.806653 
L 44.388796 62.708732 
L 47.469024 95.600359 
L 48.381684 101.901702 
L 49.294344 106.66927 
L 50.149963 110.027057 
L 51.005581 112.551563 
L 51.8612 114.439389 
L 52.77386 115.926051 
L 53.68652 117.009927 
L 54.713263 117.881017 
L 55.854088 118.544889 
L 56.082253 118.648756 
L 56.538583 117.692974 
L 57.051954 116.944205 
L 57.451243 112.682286 
L 57.679408 107.958894 
L 57.850532 99.75823 
L 58.306862 62.085427 
L 58.649109 24.386181 
L 58.763192 119.896705 
L 58.991357 119.896705 
L 59.390645 78.128557 
L 59.789934 56.354217 
L 60.132182 47.177746 
L 60.417388 43.812562 
L 60.645553 43.063483 
L 60.759635 43.182144 
L 60.930759 43.852253 
L 61.215965 45.987941 
L 61.729337 51.867787 
L 64.752523 90.442195 
L 65.665183 98.062055 
L 66.577843 103.837699 
L 67.433462 107.910054 
L 68.28908 110.973998 
L 69.144699 113.266234 
L 70.000318 114.975064 
L 70.057359 115.072023 
L 70.1144 114.968827 
L 70.285524 114.56171 
L 70.456648 113.646135 
L 70.798895 110.180563 
L 71.084102 103.683316 
L 71.369308 93.620367 
L 72.053803 55.330111 
L 72.510133 19.442401 
L 72.624216 119.896705 
L 72.852381 119.896705 
L 73.251669 84.54918 
L 73.650958 65.833424 
L 73.993206 57.839488 
L 74.278412 54.85521 
L 74.506577 54.148554 
L 74.620659 54.223529 
L 74.791783 54.764513 
L 75.076989 56.555173 
L 75.590361 61.560088 
L 78.670588 95.111076 
L 79.583248 101.538838 
L 80.495908 106.402231 
L 81.351527 109.827673 
L 82.207146 112.403082 
L 83.062764 114.328976 
L 83.462053 115.051611 
L 83.519094 114.964961 
L 83.747259 114.490678 
L 84.203589 111.837871 
L 84.716961 104.695515 
L 84.945126 97.675686 
L 85.401456 75.064999 
L 85.857786 29.108567 
L 85.914827 21.249633 
L 86.028909 119.896705 
L 86.257074 119.896705 
L 86.656363 67.791688 
L 87.055652 41.315942 
L 87.397899 30.403965 
L 87.683106 26.52272 
L 87.911271 25.755471 
L 88.025353 25.961375 
L 88.253518 27.287959 
L 88.595766 30.957218 
L 89.223219 40.597817 
L 91.447828 76.765916 
L 92.41753 88.26898 
L 93.33019 96.53431 
L 94.185808 102.413923 
L 95.041427 106.861204 
L 95.897046 110.199739 
L 96.638582 112.402232 
L 97.037871 112.084858 
L 97.323077 111.396759 
L 97.836448 107.799022 
L 98.064613 102.363278 
L 98.34982 91.18532 
L 99.433603 21.501568 
L 99.547686 119.896705 
L 99.775851 119.896705 
L 100.17514 82.950223 
L 100.574428 63.462913 
L 100.916676 55.166913 
L 101.201882 52.083381 
L 101.430047 51.363865 
L 101.54413 51.448917 
L 101.715253 52.021267 
L 102.00046 53.897418 
L 102.513831 59.121355 
L 105.594058 94.071866 
L 106.506719 100.767981 
L 107.419379 105.834984 
L 108.274997 109.404087 
L 109.130616 112.087667 
L 109.986235 114.094592 
L 110.898895 115.675224 
L 111.012977 115.839968 
L 111.070019 115.753627 
L 111.184101 115.610018 
L 111.355225 113.727218 
L 111.697472 107.10899 
L 111.925637 99.49565 
L 112.324926 77.214477 
L 113.009421 20.879578 
L 113.123504 119.896705 
L 113.351669 119.896705 
L 113.750957 85.794191 
L 114.150246 67.683749 
L 114.492494 59.928475 
L 114.7777 57.023527 
L 115.005865 56.32798 
L 115.119947 56.395481 
L 115.291071 56.912392 
L 115.576277 58.636737 
L 116.089649 63.470645 
L 119.169876 95.924872 
L 120.082536 102.1424 
L 120.995196 106.846436 
L 121.850815 110.1593 
L 122.706434 112.649966 
L 123.505011 114.404595 
L 123.847259 114.259387 
L 124.246548 114.356038 
L 124.303589 114.386399 
L 124.36063 114.258975 
L 124.931043 105.735653 
L 125.216249 99.074642 
L 125.672579 87.046031 
L 126.071868 63.248943 
L 126.64228 20.045963 
L 126.756363 119.896705 
L 126.984528 119.896705 
L 127.383816 85.850841 
L 127.783105 67.768003 
L 128.125353 60.023682 
L 128.410559 57.122394 
L 128.638724 56.427362 
L 128.752806 56.494528 
L 128.92393 57.010357 
L 129.209136 58.731661 
L 129.722508 63.557811 
L 132.802735 95.961986 
L 133.715395 102.169952 
L 134.628055 106.866668 
L 135.483674 110.174429 
L 136.339293 112.661281 
L 137.194911 114.520884 
L 137.936448 115.744864 
L 138.563901 114.723927 
L 138.677984 113.839796 
L 139.020231 108.458615 
L 139.248396 100.330606 
L 139.476561 85.26764 
L 139.932891 41.498418 
L 140.104015 20.789294 
L 140.218098 119.896705 
L 140.446263 119.896705 
L 140.845552 73.188488 
L 141.24484 49.132943 
L 141.587088 39.101361 
L 141.872294 35.474834 
L 142.100459 34.709544 
L 142.214542 34.867355 
L 142.442707 36.02355 
L 142.784954 39.304301 
L 143.412408 48.010279 
L 145.637017 80.813245 
L 146.606718 91.244599 
L 147.519378 98.736365 
L 148.374997 104.063835 
L 149.230615 108.092478 
L 150.086234 111.116241 
L 150.941853 113.37505 
L 151.055935 113.478195 
L 151.112977 113.460978 
L 151.569307 111.841918 
L 151.854513 107.615412 
L 152.253802 100.737336 
L 152.710132 88.431121 
L 153.10942 71.562572 
L 153.622792 23.791098 
L 153.736874 119.896705 
L 153.965039 119.896705 
L 154.364328 73.53478 
L 154.763617 49.637097 
L 155.105864 39.663917 
L 155.39107 36.054814 
L 155.619235 35.290194 
L 155.733318 35.445118 
L 155.904442 36.212598 
L 156.246689 39.204558 
L 156.817102 46.769701 
L 159.383958 83.759688 
L 160.353659 93.493897 
L 161.266319 100.43486 
L 162.121938 105.351062 
L 162.977557 109.060012 
L 163.833176 111.839624 
L 164.004299 112.143441 
L 164.346547 112.240246 
L 164.574712 112.415918 
L 164.631753 112.307489 
L 165.316248 108.965733 
L 165.715537 104.453142 
L 166.342991 95.182185 
L 166.571156 85.82865 
L 167.027486 52.604391 
L 167.255651 25.864673 
L 167.369733 119.896705 
L 167.597898 119.896705 
L 167.997187 62.623808 
L 168.396476 33.901135 
L 168.738723 22.198146 
L 168.966888 18.605795 
L 169.080971 119.896705 
L 169.309136 119.896705 
L 169.765466 104.995621 
L 170.164754 98.119607 
L 170.564043 94.821486 
L 170.849249 93.910267 
L 171.077414 93.783796 
L 171.248538 93.953746 
L 171.533744 94.613108 
L 172.047116 96.56163 
L 173.416106 103.164729 
L 174.556931 108.013921 
L 175.526632 111.205933 
L 176.439292 113.488401 
L 177.294911 115.106663 
L 177.6942 114.54707 
L 178.093488 113.798352 
L 178.207571 113.54701 
L 178.60686 112.254189 
L 178.949107 108.364387 
L 179.861767 94.089005 
L 180.146973 86.308705 
L 180.43218 72.517683 
L 180.717386 51.888173 
L 181.059633 20.079674 
L 181.173716 119.896705 
L 181.401881 119.896705 
L 181.80117 77.40569 
L 182.200458 55.293641 
L 182.542706 45.989075 
L 182.827912 42.583968 
L 183.056077 41.831668 
L 183.17016 41.955741 
L 183.341283 42.640902 
L 183.62649 44.815689 
L 184.139861 50.793318 
L 187.163047 89.975258 
L 188.075707 97.715222 
L 188.988367 103.582232 
L 189.843986 107.719201 
L 190.699605 110.83178 
L 191.555223 113.160512 
L 192.29676 114.693566 
L 192.410842 114.442276 
L 192.810131 113.519484 
L 192.867172 113.443246 
L 193.095337 111.334645 
L 193.323502 106.874735 
L 193.779832 90.967561 
L 194.236162 56.024885 
L 194.464327 26.591819 
L 194.57841 119.896705 
L 194.806575 119.896705 
L 195.205864 55.734083 
L 195.605152 24.123627 
L 195.719235 18.762833 
L 195.833317 119.896705 
L 196.061482 119.896705 
L 196.517812 95.0694 
L 196.917101 83.862653 
L 197.259349 79.075163 
L 197.544555 77.340895 
L 197.77272 76.997387 
L 197.943844 77.197389 
L 198.172009 77.929921 
L 198.571297 80.107131 
L 199.369875 86.12208 
L 201.024071 98.627782 
L 201.993772 104.263243 
L 202.906432 108.336191 
L 203.819092 111.407636 
L 204.731752 113.689692 
L 205.644412 115.370222 
L 206.557072 116.601109 
L 207.526774 117.546993 
L 208.610557 118.288031 
L 208.838722 118.411485 
L 209.066887 117.631427 
L 209.18097 116.874101 
L 209.580259 112.794735 
L 210.036589 105.921145 
L 210.321795 101.126541 
L 210.778125 91.340553 
L 211.177414 71.962034 
L 211.46262 47.180168 
L 211.690785 22.529026 
L 211.804868 119.896705 
L 212.033033 119.896705 
L 212.432321 77.096744 
L 212.83161 54.840776 
L 213.173858 45.481777 
L 213.459064 42.059763 
L 213.687229 41.306174 
L 213.801311 41.432592 
L 213.972435 42.124222 
L 214.314683 44.876025 
L 214.885095 51.888947 
L 217.451951 86.298267 
L 218.421653 95.352676 
L 219.334313 101.807114 
L 220.189931 106.377772 
L 221.04555 109.825405 
L 221.901169 112.408933 
L 222.585664 113.995416 
L 222.984953 113.574639 
L 223.099035 112.523032 
L 223.384241 108.237247 
L 223.897613 94.963626 
L 224.639149 56.54641 
L 224.981396 29.54437 
L 225.038438 23.775531 
L 225.15252 119.896705 
L 225.380685 119.896705 
L 225.779974 81.368198 
L 226.179263 61.123924 
L 226.52151 52.534004 
L 226.806717 49.35511 
L 227.034882 48.624382 
L 227.148964 48.719976 
L 227.320088 49.323873 
L 227.605294 51.284895 
L 228.118665 56.724736 
L 231.141852 92.551672 
L 232.054512 99.628383 
L 232.967172 104.991085 
L 233.82279 108.771608 
L 234.678409 111.615653 
L 235.419945 113.494278 
L 235.476987 113.430927 
L 236.10444 110.45054 
L 236.389647 106.507644 
L 236.674853 100.600583 
L 237.302307 79.618157 
L 237.815678 48.231312 
L 238.214967 20.689009 
L 238.329049 119.896705 
L 238.557214 119.896705 
L 239.013544 88.713263 
L 239.412833 74.83925 
L 239.75508 68.981879 
L 240.040287 66.896423 
L 240.268452 66.514332 
L 240.382534 66.651885 
L 240.610699 67.44068 
L 241.009988 70.007635 
L 241.694483 76.242973 
L 243.576844 93.934983 
L 244.546546 100.827646 
L 245.459206 105.800525 
L 246.371866 109.547594 
L 247.227484 112.180271 
L 248.083103 114.156654 
L 248.995763 115.71708 
L 249.280969 116.112445 
L 249.338011 116.026413 
L 249.509134 115.661101 
L 250.022506 113.601289 
L 250.764042 107.21381 
L 251.163331 95.21484 
L 251.505578 73.734988 
L 252.018949 28.208585 
L 252.075991 21.230329 
L 252.190073 119.896705 
L 252.418238 119.896705 
L 252.817527 69.773561 
L 253.216816 44.177874 
L 253.559063 33.582704 
L 253.844269 29.791331 
L 254.072434 29.022922 
L 254.186517 29.210527 
L 254.414682 30.473837 
L 254.756929 34.000388 
L 255.384383 43.299593 
L 257.608992 78.241676 
L 258.578693 89.354247 
L 259.491353 97.337565 
L 260.346972 103.015836 
L 261.202591 107.310383 
L 262.05821 110.534097 
L 262.742705 112.515687 
L 263.084952 112.393804 
L 263.940571 110.648299 
L 264.282818 108.342274 
L 264.739148 101.11252 
L 264.967313 91.62785 
L 265.366602 59.045375 
L 265.765891 19.376756 
L 265.879973 119.896705 
L 265.994056 119.896705 
L 265.994056 119.896705 
" clip-path="url(#p9708bdcf32)" style="fill: none; stroke: #c8102e; stroke-width: 0.8; stroke-linejoin: miter"/>
   </g>
   <g id="line2d_18">
    <path d="M 37.886094 18.551491 
L 266.051097 18.551491 
" clip-path="url(#p9708bdcf32)" style="fill: none; stroke-dasharray: 1.85,0.8; stroke-dashoffset: 0; stroke: #bbbbbb; stroke-width: 0.5"/>
   </g>
   <g id="patch_3">
    <path d="M 37.886094 124.96125 
L 37.886094 13.54125 
" style="fill: none; stroke: #1a1a1a; stroke-width: 0.8; stroke-linejoin: miter; stroke-linecap: square"/>
   </g>
   <g id="patch_4">
    <path d="M 266.051097 124.96125 
L 266.051097 13.54125 
" style="fill: none; stroke: #1a1a1a; stroke-width: 0.8; stroke-linejoin: miter; stroke-linecap: square"/>
   </g>
   <g id="patch_5">
    <path d="M 37.886094 124.96125 
L 266.051097 124.96125 
" style="fill: none; stroke: #1a1a1a; stroke-width: 0.8; stroke-linejoin: miter; stroke-linecap: square"/>
   </g>
   <g id="patch_6">
    <path d="M 37.886094 13.54125 
L 266.051097 13.54125 
" style="fill: none; stroke: #1a1a1a; stroke-width: 0.8; stroke-linejoin: miter; stroke-linecap: square"/>
   </g>
   <g id="text_19">
    <!-- PING · I-neuron membrane voltage -->
    <g style="fill: #1a1a1a" transform="translate(37.886094 7.54125) scale(0.08 -0.08)">
     <defs>
      <path id="Menlo-Regular-50" d="M 1247 4147 
L 1247 2394 
L 1978 2394 
Q 2416 2394 2661 2625 
Q 2906 2856 2906 3272 
Q 2906 3688 2662 3917 
Q 2419 4147 1978 4147 
L 1247 4147 
z
M 616 4666 
L 1978 4666 
Q 2759 4666 3162 4311 
Q 3566 3956 3566 3272 
Q 3566 2581 3164 2228 
Q 2763 1875 1978 1875 
L 1247 1875 
L 1247 0 
L 616 0 
L 616 4666 
z
" transform="scale(0.015625)"/>
      <path id="Menlo-Regular-4e" d="M 59 4650 
L 922 4650 
L 2747 822 
L 2747 4650 
L 3419 4650 
L 3419 0 
L 2556 0 
L 731 3828 
L 731 0 
L 59 0 
L 59 4650 
z
" transform="scale(0.015625)"/>
      <path id="Menlo-Regular-47" d="M 3450 384 
Q 3197 150 2880 29 
Q 2563 -91 2194 -91 
Q 1306 -91 812 545 
Q 319 1181 319 2328 
Q 319 3472 819 4111 
Q 1319 4750 2209 4750 
Q 2503 4750 2772 4667 
Q 3041 4584 3291 4416 
L 3291 3769 
Q 3038 4009 2772 4123 
Q 2506 4238 2209 4238 
Q 1594 4238 1286 3761 
Q 978 3284 978 2328 
Q 978 1356 1276 889 
Q 1575 422 2194 422 
Q 2403 422 2561 470 
Q 2719 519 2847 622 
L 2847 1875 
L 2169 1875 
L 2169 2394 
L 3450 2394 
L 3450 384 
z
" transform="scale(0.015625)"/>
      <path id="Menlo-Regular-b7" d="M 1528 2700 
L 2316 2700 
L 2316 1747 
L 1528 1747 
L 1528 2700 
z
" transform="scale(0.015625)"/>
      <path id="Menlo-Regular-2d" d="M 319 2263 
L 3631 2263 
L 3631 1734 
L 319 1734 
L 319 2263 
z
" transform="scale(0.015625)"/>
      <path id="Menlo-Regular-62" d="M 2869 1747 
Q 2869 2416 2656 2756 
Q 2444 3097 2028 3097 
Q 1609 3097 1393 2755 
Q 1178 2413 1178 1747 
Q 1178 1084 1393 740 
Q 1609 397 2028 397 
Q 2444 397 2656 737 
Q 2869 1078 2869 1747 
z
M 1178 3053 
Q 1316 3309 1558 3446 
Q 1800 3584 2119 3584 
Q 2750 3584 3112 3098 
Q 3475 2613 3475 1759 
Q 3475 894 3111 401 
Q 2747 -91 2113 -91 
Q 1800 -91 1561 45 
Q 1322 181 1178 441 
L 1178 0 
L 603 0 
L 603 4863 
L 1178 4863 
L 1178 3053 
z
" transform="scale(0.015625)"/>
      <path id="Menlo-Regular-61" d="M 2194 1759 
L 2003 1759 
Q 1500 1759 1245 1582 
Q 991 1406 991 1056 
Q 991 741 1181 566 
Q 1372 391 1709 391 
Q 2184 391 2456 720 
Q 2728 1050 2731 1631 
L 2731 1759 
L 2194 1759 
z
M 3309 1997 
L 3309 0 
L 2731 0 
L 2731 519 
Q 2547 206 2267 57 
Q 1988 -91 1588 -91 
Q 1053 -91 734 211 
Q 416 513 416 1019 
Q 416 1603 808 1906 
Q 1200 2209 1959 2209 
L 2731 2209 
L 2731 2300 
Q 2728 2719 2518 2908 
Q 2309 3097 1850 3097 
Q 1556 3097 1256 3012 
Q 956 2928 672 2766 
L 672 3341 
Q 991 3463 1283 3523 
Q 1575 3584 1850 3584 
Q 2284 3584 2592 3456 
Q 2900 3328 3091 3072 
Q 3209 2916 3259 2686 
Q 3309 2456 3309 1997 
z
" transform="scale(0.015625)"/>
      <path id="Menlo-Regular-76" d="M 313 3500 
L 909 3500 
L 1925 563 
L 2944 3500 
L 3541 3500 
L 2297 0 
L 1556 0 
L 313 3500 
z
" transform="scale(0.015625)"/>
      <path id="Menlo-Regular-6c" d="M 2247 1266 
Q 2247 878 2389 681 
Q 2531 484 2809 484 
L 3481 484 
L 3481 0 
L 2753 0 
Q 2238 0 1955 329 
Q 1672 659 1672 1266 
L 1672 4431 
L 750 4431 
L 750 4881 
L 2247 4881 
L 2247 1266 
z
" transform="scale(0.015625)"/>
      <path id="Menlo-Regular-67" d="M 2681 1778 
Q 2681 2425 2470 2761 
Q 2259 3097 1856 3097 
Q 1434 3097 1212 2761 
Q 991 2425 991 1778 
Q 991 1131 1214 792 
Q 1438 453 1863 453 
Q 2259 453 2470 793 
Q 2681 1134 2681 1778 
z
M 3256 225 
Q 3256 -563 2884 -969 
Q 2513 -1375 1791 -1375 
Q 1553 -1375 1293 -1331 
Q 1034 -1288 775 -1203 
L 775 -634 
Q 1081 -778 1331 -847 
Q 1581 -916 1791 -916 
Q 2256 -916 2468 -662 
Q 2681 -409 2681 141 
L 2681 166 
L 2681 556 
Q 2544 263 2306 119 
Q 2069 -25 1728 -25 
Q 1116 -25 750 465 
Q 384 956 384 1778 
Q 384 2603 750 3093 
Q 1116 3584 1728 3584 
Q 2066 3584 2300 3450 
Q 2534 3316 2681 3034 
L 2681 3488 
L 3256 3488 
L 3256 225 
z
" transform="scale(0.015625)"/>
     </defs>
     <use xlink:href="#Menlo-Regular-50"/>
     <use xlink:href="#Menlo-Regular-49" transform="translate(60.205078 0)"/>
     <use xlink:href="#Menlo-Regular-4e" transform="translate(120.410156 0)"/>
     <use xlink:href="#Menlo-Regular-47" transform="translate(180.615234 0)"/>
     <use xlink:href="#Menlo-Regular-20" transform="translate(240.820312 0)"/>
     <use xlink:href="#Menlo-Regular-b7" transform="translate(301.025391 0)"/>
     <use xlink:href="#Menlo-Regular-20" transform="translate(361.230469 0)"/>
     <use xlink:href="#Menlo-Regular-49" transform="translate(421.435547 0)"/>
     <use xlink:href="#Menlo-Regular-2d" transform="translate(481.640625 0)"/>
     <use xlink:href="#Menlo-Regular-6e" transform="translate(541.845703 0)"/>
     <use xlink:href="#Menlo-Regular-65" transform="translate(602.050781 0)"/>
     <use xlink:href="#Menlo-Regular-75" transform="translate(662.255859 0)"/>
     <use xlink:href="#Menlo-Regular-72" transform="translate(722.460938 0)"/>
     <use xlink:href="#Menlo-Regular-6f" transform="translate(782.666016 0)"/>
     <use xlink:href="#Menlo-Regular-6e" transform="translate(842.871094 0)"/>
     <use xlink:href="#Menlo-Regular-20" transform="translate(903.076172 0)"/>
     <use xlink:href="#Menlo-Regular-6d" transform="translate(963.28125 0)"/>
     <use xlink:href="#Menlo-Regular-65" transform="translate(1023.486328 0)"/>
     <use xlink:href="#Menlo-Regular-6d" transform="translate(1083.691406 0)"/>
     <use xlink:href="#Menlo-Regular-62" transform="translate(1143.896484 0)"/>
     <use xlink:href="#Menlo-Regular-72" transform="translate(1204.101562 0)"/>
     <use xlink:href="#Menlo-Regular-61" transform="translate(1264.306641 0)"/>
     <use xlink:href="#Menlo-Regular-6e" transform="translate(1324.511719 0)"/>
     <use xlink:href="#Menlo-Regular-65" transform="translate(1384.716797 0)"/>
     <use xlink:href="#Menlo-Regular-20" transform="translate(1444.921875 0)"/>
     <use xlink:href="#Menlo-Regular-76" transform="translate(1505.126953 0)"/>
     <use xlink:href="#Menlo-Regular-6f" transform="translate(1565.332031 0)"/>
     <use xlink:href="#Menlo-Regular-6c" transform="translate(1625.537109 0)"/>
     <use xlink:href="#Menlo-Regular-74" transform="translate(1685.742188 0)"/>
     <use xlink:href="#Menlo-Regular-61" transform="translate(1745.947266 0)"/>
     <use xlink:href="#Menlo-Regular-67" transform="translate(1806.152344 0)"/>
     <use xlink:href="#Menlo-Regular-65" transform="translate(1866.357422 0)"/>
    </g>
   </g>
   <g id="legend_1">
    <g id="patch_7">
     <path d="M 223.294222 39.73 
L 262.551097 39.73 
L 262.551097 17.04125 
L 223.294222 17.04125 
z
" style="fill: #ffffff; stroke: #1a1a1a; stroke-width: 0.8; stroke-linejoin: miter"/>
    </g>
    <g id="line2d_19">
     <path d="M 226.094222 22.729844 
L 231.694222 22.729844 
L 237.294222 22.729844 
" style="fill: none; stroke: #c8102e; stroke-width: 0.8; stroke-linejoin: miter"/>
    </g>
    <g id="text_20">
     <!-- V_I -->
     <g style="fill: #1a1a1a" transform="translate(242.894222 25.179844) scale(0.07 -0.07)">
      <use xlink:href="#Menlo-Regular-56"/>
      <use xlink:href="#Menlo-Regular-5f" transform="translate(60.205078 0)"/>
      <use xlink:href="#Menlo-Regular-49" transform="translate(120.410156 0)"/>
     </g>
    </g>
    <g id="line2d_20">
     <path d="M 226.094222 33.024219 
L 231.694222 33.024219 
L 237.294222 33.024219 
" style="fill: none; stroke-dasharray: 1.85,0.8; stroke-dashoffset: 0; stroke: #bbbbbb; stroke-width: 0.5"/>
    </g>
    <g id="text_21">
     <!-- V_th -->
     <g style="fill: #1a1a1a" transform="translate(242.894222 35.474219) scale(0.07 -0.07)">
      <defs>
       <path id="Menlo-Regular-68" d="M 3284 2169 
L 3284 0 
L 2706 0 
L 2706 2169 
Q 2706 2641 2540 2862 
Q 2375 3084 2022 3084 
Q 1619 3084 1401 2798 
Q 1184 2513 1184 1978 
L 1184 0 
L 609 0 
L 609 4863 
L 1184 4863 
L 1184 2975 
Q 1338 3275 1600 3429 
Q 1863 3584 2222 3584 
Q 2756 3584 3020 3232 
Q 3284 2881 3284 2169 
z
" transform="scale(0.015625)"/>
      </defs>
      <use xlink:href="#Menlo-Regular-56"/>
      <use xlink:href="#Menlo-Regular-5f" transform="translate(60.205078 0)"/>
      <use xlink:href="#Menlo-Regular-74" transform="translate(120.410156 0)"/>
      <use xlink:href="#Menlo-Regular-68" transform="translate(180.615234 0)"/>
     </g>
    </g>
   </g>
  </g>
 </g>
 <defs>
  <clipPath id="p9708bdcf32">
   <rect x="37.886094" y="13.54125" width="228.165003" height="111.42"/>
  </clipPath>
 </defs>
</svg>
