<?xml version="1.0" encoding="UTF-8" standalone="no"?>
<!DOCTYPE svg PUBLIC "-//W3C//DTD SVG 1.1//EN"
 "http://www.w3.org/Graphics/SVG/1.1/DTD/svg11.dtd">
<!-- Generated by graphviz version 2.43.0 (0)
 -->
<!-- Title: snnlang Pages: 1 -->
<svg width="1949pt" height="311pt"
 viewBox="0.00 0.00 1949.40 311.40" xmlns="http://www.w3.org/2000/svg" xmlns:xlink="http://www.w3.org/1999/xlink">
<g id="graph0" class="graph" transform="scale(1 1) rotate(0) translate(25.2 286.2)">
<title>snnlang</title>
<polygon fill="#ffffff" stroke="transparent" points="-25.2,25.2 -25.2,-286.2 1924.2,-286.2 1924.2,25.2 -25.2,25.2"/>
<!-- events&#45;&gt;encoder_E -->
<g id="e_n_encoder_input" class="edge edge excitatory feedforward">
<title>events&#45;&gt;encoder_E</title>
<path fill="none" stroke="#243044" stroke-width="1.7" d="M121.2,-104C160.93,-104 213.37,-104 255.43,-104"/>
<polygon fill="#243044" stroke="#243044" stroke-width="1.7" points="255.69,-106.52 262.89,-104 255.69,-101.48 255.69,-106.52"/>
<text text-anchor="middle" x="192" y="-106.8" font-family="Helvetica,sans-Serif" font-size="9.00" fill="#667085">encoder_input</text>
</g>
<!-- association_E&#45;&gt;association_I -->
<g id="e_n_association_E_to_I" class="edge edge excitatory recurrent">
<title>association_E&#45;&gt;association_I</title>
<path fill="none" stroke="#243044" stroke-width="2.2" d="M690.17,-180.03C735.47,-188.51 794.45,-199.54 840.57,-208.17"/>
<polygon fill="#243044" stroke="#243044" stroke-width="2.2" points="840.31,-210.68 847.85,-209.53 841.24,-205.73 840.31,-210.68"/>
<text text-anchor="middle" x="769" y="-203.8" font-family="Helvetica,sans-Serif" font-size="9.00" fill="#667085">association_E_to_I</text>
</g>
<!-- association_E&#45;&gt;decision_E -->
<g id="e_n_decision_input" class="edge edge excitatory feedforward">
<title>association_E&#45;&gt;decision_E</title>
<path fill="none" stroke="#243044" stroke-width="1.7" d="M690.26,-147.28C702.78,-144 715.74,-140.77 728,-138 765.62,-129.51 807.87,-121.67 842.63,-115.66"/>
<polygon fill="#243044" stroke="#243044" stroke-width="1.7" points="843.26,-118.11 849.93,-114.41 842.41,-113.15 843.26,-118.11"/>
<text text-anchor="middle" x="769" y="-140.8" font-family="Helvetica,sans-Serif" font-size="9.00" fill="#667085">decision_input</text>
</g>
<!-- association_I&#45;&gt;association_E -->
<g id="e_n_association_I_to_E" class="edge edge inhibitory recurrent">
<title>association_I&#45;&gt;association_E</title>
<path fill="none" stroke="#c44a55" stroke-width="2.2" d="M852.08,-182.95C838.66,-176.36 824.23,-170.52 810,-167 772.56,-157.75 729.67,-156.97 694.18,-158.84"/>
<polygon fill="#c44a55" stroke="#c44a55" stroke-width="2.2" points="691.25,-162.61 690.84,-155.43 692.28,-155.34 692.68,-162.53 691.25,-162.61"/>
<polyline fill="none" stroke="#c44a55" stroke-width="2.2" points="690.33,-159.06 693.92,-158.86 "/>
<text text-anchor="middle" x="769" y="-169.8" font-family="Helvetica,sans-Serif" font-size="9.00" fill="#667085">association_I_to_E</text>
</g>
<!-- decision_E&#45;&gt;decision_I -->
<g id="e_n_decision_E_to_I" class="edge edge excitatory recurrent">
<title>decision_E&#45;&gt;decision_I</title>
<path fill="none" stroke="#243044" stroke-width="2.2" d="M981.27,-113.96C1038.92,-122.83 1123.13,-135.79 1182.8,-144.97"/>
<polygon fill="#243044" stroke="#243044" stroke-width="2.2" points="1182.45,-147.46 1189.95,-146.07 1183.22,-142.48 1182.45,-147.46"/>
<text text-anchor="middle" x="1055.5" y="-132.8" font-family="Helvetica,sans-Serif" font-size="9.00" fill="#667085">decision_E_to_I</text>
</g>
<!-- decision_E&#45;&gt;gesture_readout_projection -->
<g id="edge11" class="edge">
<title>decision_E&#45;&gt;gesture_readout_projection</title>
<path fill="none" stroke="#8794a6" stroke-width="1.7" d="M981.27,-91.35C1020.74,-83.64 1072.66,-73.51 1120.63,-64.14"/>
<polygon fill="#8794a6" stroke="#8794a6" stroke-width="1.7" points="1127.99,-62.7 1121.54,-67.26 1124.52,-63.74 1120.99,-64.43 1120.92,-64.08 1120.85,-63.74 1124.39,-63.05 1120.3,-60.9 1127.99,-62.7 1127.99,-62.7"/>
</g>
<!-- decision_I&#45;&gt;decision_E -->
<g id="e_n_decision_I_to_E" class="edge edge inhibitory recurrent">
<title>decision_I&#45;&gt;decision_E</title>
<path fill="none" stroke="#c44a55" stroke-width="2.2" d="M1189.96,-130.56C1160.06,-120.09 1123.75,-109.21 1090,-104 1055.67,-98.7 1017.07,-98.18 985,-99.2"/>
<polygon fill="#c44a55" stroke="#c44a55" stroke-width="2.2" points="981.97,-102.91 981.72,-95.71 983.16,-95.66 983.41,-102.86 981.97,-102.91"/>
<polyline fill="none" stroke="#c44a55" stroke-width="2.2" points="981.13,-99.33 984.72,-99.21 "/>
<text text-anchor="middle" x="1055.5" y="-106.8" font-family="Helvetica,sans-Serif" font-size="9.00" fill="#667085">decision_I_to_E</text>
</g>
<!-- encoder_E&#45;&gt;association_E -->
<g id="e_n_association_input" class="edge edge excitatory feedforward">
<title>encoder_E&#45;&gt;association_E</title>
<path fill="none" stroke="#243044" stroke-width="1.7" d="M394.36,-118.14C437.96,-127.64 495.62,-140.21 541.55,-150.22"/>
<polygon fill="#243044" stroke="#243044" stroke-width="1.7" points="541.24,-152.74 548.81,-151.81 542.31,-147.81 541.24,-152.74"/>
<text text-anchor="middle" x="471.5" y="-144.8" font-family="Helvetica,sans-Serif" font-size="9.00" fill="#667085">association_input</text>
</g>
<!-- encoder_E&#45;&gt;encoder_I -->
<g id="e_n_encoder_E_to_I" class="edge edge excitatory recurrent">
<title>encoder_E&#45;&gt;encoder_I</title>
<path fill="none" stroke="#243044" stroke-width="2.2" d="M394.36,-91.66C439.63,-83.04 500.07,-71.54 546.78,-62.65"/>
<polygon fill="#243044" stroke="#243044" stroke-width="2.2" points="547.26,-65.12 553.86,-61.3 546.32,-60.17 547.26,-65.12"/>
<text text-anchor="middle" x="471.5" y="-85.8" font-family="Helvetica,sans-Serif" font-size="9.00" fill="#667085">encoder_E_to_I</text>
</g>
<!-- encoder_I&#45;&gt;encoder_E -->
<g id="e_n_encoder_I_to_E" class="edge edge inhibitory recurrent">
<title>encoder_I&#45;&gt;encoder_E</title>
<path fill="none" stroke="#c44a55" stroke-width="2.2" d="M553.67,-41.31C517.36,-38.9 471.57,-39.06 432,-49 419.2,-52.22 406.25,-57.38 394.07,-63.28"/>
<polygon fill="#c44a55" stroke="#c44a55" stroke-width="2.2" points="392.89,-67.87 389.71,-61.41 391,-60.78 394.19,-67.23 392.89,-67.87"/>
<polyline fill="none" stroke="#c44a55" stroke-width="2.2" points="390.66,-64.96 393.89,-63.37 "/>
<text text-anchor="middle" x="471.5" y="-51.8" font-family="Helvetica,sans-Serif" font-size="9.00" fill="#667085">encoder_I_to_E</text>
</g>
<!-- gesture_readout_count&#45;&gt;out:gesture_logits -->
<g id="edge12" class="edge">
<title>gesture_readout_count&#45;&gt;out:gesture_logits</title>
<path fill="none" stroke="#c49a28" stroke-width="2" d="M1676.08,-38C1699.35,-38 1723.56,-38 1745.54,-38"/>
<polygon fill="#c49a28" stroke="#c49a28" stroke-width="2" points="1745.7,-40.52 1752.9,-38 1745.7,-35.48 1745.7,-40.52"/>
</g>
<!-- gesture_readout_projection&#45;&gt;gesture_readout_count -->
<g id="edge10" class="edge">
<title>gesture_readout_projection&#45;&gt;gesture_readout_count</title>
<path fill="none" stroke="#8794a6" stroke-width="1.7" d="M1383.24,-38C1406.09,-38 1429.79,-38 1452.27,-38"/>
<polygon fill="#8794a6" stroke="#8794a6" stroke-width="1.7" points="1459.53,-38 1452.33,-41.24 1455.93,-38.35 1452.33,-38.35 1452.33,-38 1452.33,-37.65 1455.93,-37.65 1452.33,-34.76 1459.53,-38 1459.53,-38"/>
</g>
<!-- events -->
<g id="n_events" class="node node input">
<title>events</title>
<path fill="#f5f7fa" stroke="#cbd5e1" d="M109,-142C109,-142 12,-142 12,-142 6,-142 0,-136 0,-130 0,-130 0,-78 0,-78 0,-72 6,-66 12,-66 12,-66 109,-66 109,-66 115,-66 121,-72 121,-78 121,-78 121,-130 121,-130 121,-136 115,-142 109,-142"/>
<text text-anchor="start" x="12.5" y="-122" font-family="Helvetica,sans-Serif" font-weight="bold" font-size="15.00" fill="#243044">events</text>
<text text-anchor="start" x="12.5" y="-103" font-family="Helvetica,sans-Serif" font-size="10.00" fill="#667085">time × batch × 700</text>
<polygon fill="#f5f7fa" stroke="transparent" points="12.5,-75 12.5,-93 109.5,-93 109.5,-75 12.5,-75"/>
<text text-anchor="start" x="16.5" y="-81.8" font-family="Helvetica,sans-Serif" font-size="9.00" fill="#243044">SPIKES</text>
</g>
<!-- association_E -->
<g id="n_association_E" class="node node population spiking">
<title>association_E</title>
<path fill="#ffffff" stroke="#b8c4d1" stroke-width="1.4" d="M678,-206C678,-206 561,-206 561,-206 555,-206 549,-200 549,-194 549,-194 549,-140 549,-140 549,-134 555,-128 561,-128 561,-128 678,-128 678,-128 684,-128 690,-134 690,-140 690,-140 690,-194 690,-194 690,-200 684,-206 678,-206"/>
<text text-anchor="start" x="562.5" y="-185" font-family="Helvetica,sans-Serif" font-weight="bold" font-size="15.00" fill="#243044">association_E</text>
<text text-anchor="start" x="562.5" y="-166" font-family="Helvetica,sans-Serif" font-size="10.00" fill="#667085">256 units · coba_lif</text>
<polygon fill="#f5f7fa" stroke="transparent" points="562.5,-138 562.5,-156 677.5,-156 677.5,-138 562.5,-138"/>
<text text-anchor="start" x="566.5" y="-144.8" font-family="Helvetica,sans-Serif" font-size="9.00" fill="#243044">SPIKING POPULATION</text>
</g>
<!-- association_I -->
<g id="n_association_I" class="node node population spiking">
<title>association_I</title>
<path fill="#ffffff" stroke="#b8c4d1" stroke-width="1.4" d="M971,-261C971,-261 860,-261 860,-261 854,-261 848,-255 848,-249 848,-249 848,-195 848,-195 848,-189 854,-183 860,-183 860,-183 971,-183 971,-183 977,-183 983,-189 983,-195 983,-195 983,-249 983,-249 983,-255 977,-261 971,-261"/>
<text text-anchor="start" x="861.5" y="-240" font-family="Helvetica,sans-Serif" font-weight="bold" font-size="15.00" fill="#243044">association_I</text>
<text text-anchor="start" x="861.5" y="-221" font-family="Helvetica,sans-Serif" font-size="10.00" fill="#667085">64 units · coba_lif</text>
<polygon fill="#f5f7fa" stroke="transparent" points="861.5,-193 861.5,-211 970.5,-211 970.5,-193 861.5,-193"/>
<text text-anchor="start" x="865.5" y="-199.8" font-family="Helvetica,sans-Serif" font-size="9.00" fill="#243044">SPIKING POPULATION</text>
</g>
<!-- decision_E -->
<g id="n_decision_E" class="node node population spiking">
<title>decision_E</title>
<path fill="#ffffff" stroke="#b8c4d1" stroke-width="1.4" d="M969,-143C969,-143 862,-143 862,-143 856,-143 850,-137 850,-131 850,-131 850,-77 850,-77 850,-71 856,-65 862,-65 862,-65 969,-65 969,-65 975,-65 981,-71 981,-77 981,-77 981,-131 981,-131 981,-137 975,-143 969,-143"/>
<text text-anchor="start" x="863.5" y="-122" font-family="Helvetica,sans-Serif" font-weight="bold" font-size="15.00" fill="#243044">decision_E</text>
<text text-anchor="start" x="863.5" y="-103" font-family="Helvetica,sans-Serif" font-size="10.00" fill="#667085">128 units · coba_lif</text>
<polygon fill="#f5f7fa" stroke="transparent" points="863.5,-75 863.5,-93 968.5,-93 968.5,-75 863.5,-75"/>
<text text-anchor="start" x="867.5" y="-81.8" font-family="Helvetica,sans-Serif" font-size="9.00" fill="#243044">SPIKING POPULATION</text>
</g>
<!-- decision_I -->
<g id="n_decision_I" class="node node population spiking">
<title>decision_I</title>
<path fill="#ffffff" stroke="#b8c4d1" stroke-width="1.4" d="M1309,-195C1309,-195 1202,-195 1202,-195 1196,-195 1190,-189 1190,-183 1190,-183 1190,-129 1190,-129 1190,-123 1196,-117 1202,-117 1202,-117 1309,-117 1309,-117 1315,-117 1321,-123 1321,-129 1321,-129 1321,-183 1321,-183 1321,-189 1315,-195 1309,-195"/>
<text text-anchor="start" x="1203.5" y="-174" font-family="Helvetica,sans-Serif" font-weight="bold" font-size="15.00" fill="#243044">decision_I</text>
<text text-anchor="start" x="1203.5" y="-155" font-family="Helvetica,sans-Serif" font-size="10.00" fill="#667085">32 units · coba_lif</text>
<polygon fill="#f5f7fa" stroke="transparent" points="1203.5,-127 1203.5,-145 1308.5,-145 1308.5,-127 1203.5,-127"/>
<text text-anchor="start" x="1207.5" y="-133.8" font-family="Helvetica,sans-Serif" font-size="9.00" fill="#243044">SPIKING POPULATION</text>
</g>
<!-- encoder_E -->
<g id="n_encoder_E" class="node node population spiking">
<title>encoder_E</title>
<path fill="#ffffff" stroke="#b8c4d1" stroke-width="1.4" d="M382,-143C382,-143 275,-143 275,-143 269,-143 263,-137 263,-131 263,-131 263,-77 263,-77 263,-71 269,-65 275,-65 275,-65 382,-65 382,-65 388,-65 394,-71 394,-77 394,-77 394,-131 394,-131 394,-137 388,-143 382,-143"/>
<text text-anchor="start" x="276.5" y="-122" font-family="Helvetica,sans-Serif" font-weight="bold" font-size="15.00" fill="#243044">encoder_E</text>
<text text-anchor="start" x="276.5" y="-103" font-family="Helvetica,sans-Serif" font-size="10.00" fill="#667085">384 units · coba_lif</text>
<polygon fill="#f5f7fa" stroke="transparent" points="276.5,-75 276.5,-93 381.5,-93 381.5,-75 276.5,-75"/>
<text text-anchor="start" x="280.5" y="-81.8" font-family="Helvetica,sans-Serif" font-size="9.00" fill="#243044">SPIKING POPULATION</text>
</g>
<!-- encoder_I -->
<g id="n_encoder_I" class="node node population spiking">
<title>encoder_I</title>
<path fill="#ffffff" stroke="#b8c4d1" stroke-width="1.4" d="M673,-88C673,-88 566,-88 566,-88 560,-88 554,-82 554,-76 554,-76 554,-22 554,-22 554,-16 560,-10 566,-10 566,-10 673,-10 673,-10 679,-10 685,-16 685,-22 685,-22 685,-76 685,-76 685,-82 679,-88 673,-88"/>
<text text-anchor="start" x="567.5" y="-67" font-family="Helvetica,sans-Serif" font-weight="bold" font-size="15.00" fill="#243044">encoder_I</text>
<text text-anchor="start" x="567.5" y="-48" font-family="Helvetica,sans-Serif" font-size="10.00" fill="#667085">96 units · coba_lif</text>
<polygon fill="#f5f7fa" stroke="transparent" points="567.5,-20 567.5,-38 672.5,-38 672.5,-20 567.5,-20"/>
<text text-anchor="start" x="571.5" y="-26.8" font-family="Helvetica,sans-Serif" font-size="9.00" fill="#243044">SPIKING POPULATION</text>
</g>
<!-- gesture_readout_count -->
<g id="n_gesture_readout_count" class="node node operation">
<title>gesture_readout_count</title>
<path fill="#ffffff" stroke="#cbd5e1" d="M1664,-74C1664,-74 1472,-74 1472,-74 1466,-74 1460,-68 1460,-62 1460,-62 1460,-14 1460,-14 1460,-8 1466,-2 1472,-2 1472,-2 1664,-2 1664,-2 1670,-2 1676,-8 1676,-14 1676,-14 1676,-62 1676,-62 1676,-68 1670,-74 1664,-74"/>
<text text-anchor="start" x="1470" y="-56" font-family="Helvetica,sans-Serif" font-weight="bold" font-size="15.00" fill="#243044">gesture_readout_count</text>
<text text-anchor="start" x="1470" y="-37" font-family="Helvetica,sans-Serif" font-size="10.00" fill="#667085">reduce sum</text>
<polygon fill="#f5f7fa" stroke="transparent" points="1470,-9 1470,-27 1666,-27 1666,-9 1470,-9"/>
<text text-anchor="start" x="1474" y="-15.8" font-family="Helvetica,sans-Serif" font-size="9.00" fill="#243044">OPERATION</text>
</g>
<!-- gesture_readout_projection -->
<g id="n_gesture_readout_projection" class="node node operation">
<title>gesture_readout_projection</title>
<path fill="#ffffff" stroke="#cbd5e1" d="M1371,-74C1371,-74 1140,-74 1140,-74 1134,-74 1128,-68 1128,-62 1128,-62 1128,-14 1128,-14 1128,-8 1134,-2 1140,-2 1140,-2 1371,-2 1371,-2 1377,-2 1383,-8 1383,-14 1383,-14 1383,-62 1383,-62 1383,-68 1377,-74 1371,-74"/>
<text text-anchor="start" x="1138.5" y="-56" font-family="Helvetica,sans-Serif" font-weight="bold" font-size="15.00" fill="#243044">gesture_readout_projection</text>
<text text-anchor="start" x="1138.5" y="-37" font-family="Helvetica,sans-Serif" font-size="10.00" fill="#667085">linear</text>
<polygon fill="#f5f7fa" stroke="transparent" points="1138.5,-9 1138.5,-27 1373.5,-27 1373.5,-9 1138.5,-9"/>
<text text-anchor="start" x="1142.5" y="-15.8" font-family="Helvetica,sans-Serif" font-size="9.00" fill="#243044">OPERATION</text>
</g>
<!-- out:gesture_logits -->
<g id="n_out_gesture_logits" class="node node output">
<title>out:gesture_logits</title>
<path fill="#ffffff" stroke="#d8b85b" stroke-width="1.5" d="M1887,-76C1887,-76 1765,-76 1765,-76 1759,-76 1753,-70 1753,-64 1753,-64 1753,-12 1753,-12 1753,-6 1759,0 1765,0 1765,0 1887,0 1887,0 1893,0 1899,-6 1899,-12 1899,-12 1899,-64 1899,-64 1899,-70 1893,-76 1887,-76"/>
<text text-anchor="start" x="1765" y="-56" font-family="Helvetica,sans-Serif" font-weight="bold" font-size="15.00" fill="#243044">gesture_logits</text>
<text text-anchor="start" x="1765" y="-37" font-family="Helvetica,sans-Serif" font-size="10.00" fill="#667085">named graph interface</text>
<polygon fill="#fff4d6" stroke="transparent" points="1765,-9 1765,-27 1887,-27 1887,-9 1765,-9"/>
<text text-anchor="start" x="1769" y="-15.8" font-family="Helvetica,sans-Serif" font-size="9.00" fill="#243044">OUTPUT</text>
</g>
</g>
</svg>
