<?xml version="1.0" encoding="utf-8" standalone="no"?>
<!DOCTYPE svg PUBLIC "-//W3C//DTD SVG 1.1//EN"
  "http://www.w3.org/Graphics/SVG/1.1/DTD/svg11.dtd">
<svg xmlns:xlink="http://www.w3.org/1999/xlink" width="395.957437pt" height="219.906pt" viewBox="0 0 395.957437 219.906" xmlns="http://www.w3.org/2000/svg" version="1.1">
 <metadata>
  <rdf:RDF xmlns:dc="http://purl.org/dc/elements/1.1/" xmlns:cc="http://creativecommons.org/ns#" xmlns:rdf="http://www.w3.org/1999/02/22-rdf-syntax-ns#">
   <cc:Work>
    <dc:type rdf:resource="http://purl.org/dc/dcmitype/StillImage"/>
    <dc:date>2026-07-07T12:04:29.457366</dc:date>
    <dc:format>image/svg+xml</dc:format>
    <dc:creator>
     <cc:Agent>
      <dc:title>Matplotlib v3.10.8, https://matplotlib.org/</dc:title>
     </cc:Agent>
    </dc:creator>
   </cc:Work>
  </rdf:RDF>
 </metadata>
 <defs>
  <style type="text/css">*{stroke-linejoin: round; stroke-linecap: butt}</style>
 </defs>
 <g id="figure_1">
  <g id="patch_1">
   <path d="M 0 219.906 
L 395.957437 219.906 
L 395.957437 0 
L 0 0 
z
" style="fill: #ffffff"/>
  </g>
  <g id="axes_1">
   <g id="patch_2">
    <path d="M 25.133438 189.06 
L 387.893438 189.06 
L 387.893438 1.44 
L 25.133438 1.44 
z
" style="fill: #ffffff"/>
   </g>
   <g id="matplotlib.axis_1">
    <g id="xtick_1">
     <g id="line2d_1">
      <path d="M 25.133438 189.06 
L 25.133438 1.44 
" clip-path="url(#pfe8ec648fe)" style="fill: none; stroke: #1a1a1a; stroke-opacity: 0.15; stroke-width: 0.4; stroke-linejoin: miter"/>
     </g>
     <g id="line2d_2">
      <defs>
       <path id="mf4e987f18e" d="M 0 0 
L 0 -3 
" style="stroke: #1a1a1a; stroke-width: 0.8"/>
      </defs>
      <g>
       <use xlink:href="#mf4e987f18e" x="25.133438" y="189.06" style="fill: #1a1a1a; stroke: #1a1a1a; stroke-width: 0.8"/>
      </g>
     </g>
     <g id="text_1">
      <!-- 0 -->
      <g style="fill: #1a1a1a" transform="translate(23.026328 197.898594) scale(0.07 -0.07)">
       <defs>
        <path id="Menlo-Regular-30" d="M 1925 4734 
Q 2672 4734 3055 4125 
Q 3438 3516 3438 2322 
Q 3438 1128 3055 518 
Q 2672 -91 1925 -91 
Q 1178 -91 797 518 
Q 416 1128 416 2322 
Q 416 3516 797 4125 
Q 1178 4734 1925 4734 
z
M 1925 409 
Q 2369 409 2586 881 
Q 2803 1353 2803 2322 
Q 2803 2838 2741 3253 
L 1253 925 
Q 1488 409 1925 409 
z
M 1925 4234 
Q 1484 4234 1267 3762 
Q 1050 3291 1050 2322 
Q 1050 1881 1109 1497 
L 2566 3819 
Q 2328 4234 1925 4234 
z
" transform="scale(0.015625)"/>
       </defs>
       <use xlink:href="#Menlo-Regular-30"/>
      </g>
     </g>
    </g>
    <g id="xtick_2">
     <g id="line2d_3">
      <path d="M 92.657657 189.06 
L 92.657657 1.44 
" clip-path="url(#pfe8ec648fe)" style="fill: none; stroke: #1a1a1a; stroke-opacity: 0.15; stroke-width: 0.4; stroke-linejoin: miter"/>
     </g>
     <g id="line2d_4">
      <g>
       <use xlink:href="#mf4e987f18e" x="92.657657" y="189.06" style="fill: #1a1a1a; stroke: #1a1a1a; stroke-width: 0.8"/>
      </g>
     </g>
     <g id="text_2">
      <!-- 10 -->
      <g style="fill: #1a1a1a" transform="translate(88.443438 197.898594) scale(0.07 -0.07)">
       <defs>
        <path id="Menlo-Regular-31" d="M 844 528 
L 1825 528 
L 1825 4053 
L 650 3488 
L 650 4094 
L 1819 4650 
L 2450 4650 
L 2450 528 
L 3419 528 
L 3419 0 
L 844 0 
L 844 528 
z
" transform="scale(0.015625)"/>
       </defs>
       <use xlink:href="#Menlo-Regular-31"/>
       <use xlink:href="#Menlo-Regular-30" transform="translate(60.205078 0)"/>
      </g>
     </g>
    </g>
    <g id="xtick_3">
     <g id="line2d_5">
      <path d="M 160.181876 189.06 
L 160.181876 1.44 
" clip-path="url(#pfe8ec648fe)" style="fill: none; stroke: #1a1a1a; stroke-opacity: 0.15; stroke-width: 0.4; stroke-linejoin: miter"/>
     </g>
     <g id="line2d_6">
      <g>
       <use xlink:href="#mf4e987f18e" x="160.181876" y="189.06" style="fill: #1a1a1a; stroke: #1a1a1a; stroke-width: 0.8"/>
      </g>
     </g>
     <g id="text_3">
      <!-- 20 -->
      <g style="fill: #1a1a1a" transform="translate(155.967657 197.898594) scale(0.07 -0.07)">
       <defs>
        <path id="Menlo-Regular-32" d="M 1166 531 
L 3309 531 
L 3309 0 
L 475 0 
L 475 531 
Q 1059 1147 1496 1619 
Q 1934 2091 2100 2284 
Q 2413 2666 2522 2902 
Q 2631 3138 2631 3384 
Q 2631 3775 2401 3997 
Q 2172 4219 1772 4219 
Q 1488 4219 1175 4116 
Q 863 4013 513 3803 
L 513 4441 
Q 834 4594 1145 4672 
Q 1456 4750 1759 4750 
Q 2444 4750 2861 4386 
Q 3278 4022 3278 3431 
Q 3278 3131 3139 2831 
Q 3000 2531 2688 2169 
Q 2513 1966 2180 1606 
Q 1847 1247 1166 531 
z
" transform="scale(0.015625)"/>
       </defs>
       <use xlink:href="#Menlo-Regular-32"/>
       <use xlink:href="#Menlo-Regular-30" transform="translate(60.205078 0)"/>
      </g>
     </g>
    </g>
    <g id="xtick_4">
     <g id="line2d_7">
      <path d="M 227.706095 189.06 
L 227.706095 1.44 
" clip-path="url(#pfe8ec648fe)" style="fill: none; stroke: #1a1a1a; stroke-opacity: 0.15; stroke-width: 0.4; stroke-linejoin: miter"/>
     </g>
     <g id="line2d_8">
      <g>
       <use xlink:href="#mf4e987f18e" x="227.706095" y="189.06" style="fill: #1a1a1a; stroke: #1a1a1a; stroke-width: 0.8"/>
      </g>
     </g>
     <g id="text_4">
      <!-- 30 -->
      <g style="fill: #1a1a1a" transform="translate(223.491877 197.898594) scale(0.07 -0.07)">
       <defs>
        <path id="Menlo-Regular-33" d="M 2425 2497 
Q 2884 2375 3128 2064 
Q 3372 1753 3372 1288 
Q 3372 644 2939 276 
Q 2506 -91 1741 -91 
Q 1419 -91 1084 -31 
Q 750 28 428 141 
L 428 769 
Q 747 603 1056 522 
Q 1366 441 1672 441 
Q 2191 441 2469 675 
Q 2747 909 2747 1350 
Q 2747 1756 2469 1995 
Q 2191 2234 1716 2234 
L 1234 2234 
L 1234 2753 
L 1716 2753 
Q 2150 2753 2394 2943 
Q 2638 3134 2638 3475 
Q 2638 3834 2411 4026 
Q 2184 4219 1766 4219 
Q 1488 4219 1191 4156 
Q 894 4094 569 3969 
L 569 4550 
Q 947 4650 1242 4700 
Q 1538 4750 1766 4750 
Q 2447 4750 2855 4408 
Q 3263 4066 3263 3500 
Q 3263 3116 3048 2859 
Q 2834 2603 2425 2497 
z
" transform="scale(0.015625)"/>
       </defs>
       <use xlink:href="#Menlo-Regular-33"/>
       <use xlink:href="#Menlo-Regular-30" transform="translate(60.205078 0)"/>
      </g>
     </g>
    </g>
    <g id="xtick_5">
     <g id="line2d_9">
      <path d="M 295.230315 189.06 
L 295.230315 1.44 
" clip-path="url(#pfe8ec648fe)" style="fill: none; stroke: #1a1a1a; stroke-opacity: 0.15; stroke-width: 0.4; stroke-linejoin: miter"/>
     </g>
     <g id="line2d_10">
      <g>
       <use xlink:href="#mf4e987f18e" x="295.230315" y="189.06" style="fill: #1a1a1a; stroke: #1a1a1a; stroke-width: 0.8"/>
      </g>
     </g>
     <g id="text_5">
      <!-- 40 -->
      <g style="fill: #1a1a1a" transform="translate(291.016096 197.898594) scale(0.07 -0.07)">
       <defs>
        <path id="Menlo-Regular-34" d="M 2297 4091 
L 825 1625 
L 2297 1625 
L 2297 4091 
z
M 2194 4666 
L 2925 4666 
L 2925 1625 
L 3547 1625 
L 3547 1113 
L 2925 1113 
L 2925 0 
L 2297 0 
L 2297 1113 
L 319 1113 
L 319 1709 
L 2194 4666 
z
" transform="scale(0.015625)"/>
       </defs>
       <use xlink:href="#Menlo-Regular-34"/>
       <use xlink:href="#Menlo-Regular-30" transform="translate(60.205078 0)"/>
      </g>
     </g>
    </g>
    <g id="xtick_6">
     <g id="line2d_11">
      <path d="M 362.754534 189.06 
L 362.754534 1.44 
" clip-path="url(#pfe8ec648fe)" style="fill: none; stroke: #1a1a1a; stroke-opacity: 0.15; stroke-width: 0.4; stroke-linejoin: miter"/>
     </g>
     <g id="line2d_12">
      <g>
       <use xlink:href="#mf4e987f18e" x="362.754534" y="189.06" style="fill: #1a1a1a; stroke: #1a1a1a; stroke-width: 0.8"/>
      </g>
     </g>
     <g id="text_6">
      <!-- 50 -->
      <g style="fill: #1a1a1a" transform="translate(358.540315 197.898594) scale(0.07 -0.07)">
       <defs>
        <path id="Menlo-Regular-35" d="M 647 4666 
L 3009 4666 
L 3009 4134 
L 1222 4134 
L 1222 2988 
Q 1356 3038 1492 3061 
Q 1628 3084 1766 3084 
Q 2491 3084 2916 2656 
Q 3341 2228 3341 1497 
Q 3341 759 2895 334 
Q 2450 -91 1678 -91 
Q 1306 -91 998 -41 
Q 691 9 447 109 
L 447 750 
Q 734 594 1025 517 
Q 1316 441 1619 441 
Q 2141 441 2423 716 
Q 2706 991 2706 1497 
Q 2706 1997 2414 2275 
Q 2122 2553 1600 2553 
Q 1347 2553 1106 2495 
Q 866 2438 647 2322 
L 647 4666 
z
" transform="scale(0.015625)"/>
       </defs>
       <use xlink:href="#Menlo-Regular-35"/>
       <use xlink:href="#Menlo-Regular-30" transform="translate(60.205078 0)"/>
      </g>
     </g>
    </g>
    <g id="text_7">
     <!-- Measured f_γ (Hz) -->
     <g style="fill: #1a1a1a" transform="translate(165.575312 209.815625) scale(0.08 -0.08)">
      <defs>
       <path id="Menlo-Regular-4d" d="M 113 4650 
L 956 4650 
L 1763 2281 
L 2575 4650 
L 3422 4650 
L 3422 0 
L 2838 0 
L 2838 4109 
L 2006 1659 
L 1528 1659 
L 694 4109 
L 694 0 
L 113 0 
L 113 4650 
z
" transform="scale(0.015625)"/>
       <path id="Menlo-Regular-65" d="M 3500 2038 
L 3500 1756 
L 1009 1756 
L 1009 1738 
Q 984 1022 1282 709 
Q 1581 397 2125 397 
Q 2400 397 2700 484 
Q 3000 572 3341 750 
L 3341 178 
Q 3013 44 2708 -23 
Q 2403 -91 2119 -91 
Q 1303 -91 843 398 
Q 384 888 384 1747 
Q 384 2584 834 3084 
Q 1284 3584 2034 3584 
Q 2703 3584 3089 3131 
Q 3475 2678 3500 2038 
z
M 2925 2206 
Q 2888 2569 2661 2833 
Q 2434 3097 2009 3097 
Q 1594 3097 1325 2822 
Q 1056 2547 1031 2203 
L 2925 2206 
z
" transform="scale(0.015625)"/>
       <path id="Menlo-Regular-61" d="M 2194 1759 
L 2003 1759 
Q 1500 1759 1245 1582 
Q 991 1406 991 1056 
Q 991 741 1181 566 
Q 1372 391 1709 391 
Q 2184 391 2456 720 
Q 2728 1050 2731 1631 
L 2731 1759 
L 2194 1759 
z
M 3309 1997 
L 3309 0 
L 2731 0 
L 2731 519 
Q 2547 206 2267 57 
Q 1988 -91 1588 -91 
Q 1053 -91 734 211 
Q 416 513 416 1019 
Q 416 1603 808 1906 
Q 1200 2209 1959 2209 
L 2731 2209 
L 2731 2300 
Q 2728 2719 2518 2908 
Q 2309 3097 1850 3097 
Q 1556 3097 1256 3012 
Q 956 2928 672 2766 
L 672 3341 
Q 991 3463 1283 3523 
Q 1575 3584 1850 3584 
Q 2284 3584 2592 3456 
Q 2900 3328 3091 3072 
Q 3209 2916 3259 2686 
Q 3309 2456 3309 1997 
z
" transform="scale(0.015625)"/>
       <path id="Menlo-Regular-73" d="M 3041 3378 
L 3041 2816 
Q 2794 2959 2544 3031 
Q 2294 3103 2034 3103 
Q 1644 3103 1451 2976 
Q 1259 2850 1259 2591 
Q 1259 2356 1403 2240 
Q 1547 2125 2119 2016 
L 2350 1972 
Q 2778 1891 2998 1647 
Q 3219 1403 3219 1013 
Q 3219 494 2850 201 
Q 2481 -91 1825 -91 
Q 1566 -91 1281 -36 
Q 997 19 666 128 
L 666 722 
Q 988 556 1281 473 
Q 1575 391 1838 391 
Q 2219 391 2428 545 
Q 2638 700 2638 978 
Q 2638 1378 1872 1531 
L 1847 1538 
L 1631 1581 
Q 1134 1678 906 1908 
Q 678 2138 678 2534 
Q 678 3038 1018 3311 
Q 1359 3584 1991 3584 
Q 2272 3584 2531 3532 
Q 2791 3481 3041 3378 
z
" transform="scale(0.015625)"/>
       <path id="Menlo-Regular-75" d="M 609 1325 
L 609 3494 
L 1184 3494 
L 1184 1325 
Q 1184 853 1351 631 
Q 1519 409 1869 409 
Q 2275 409 2490 695 
Q 2706 981 2706 1516 
L 2706 3494 
L 3284 3494 
L 3284 0 
L 2706 0 
L 2706 525 
Q 2553 222 2289 65 
Q 2025 -91 1672 -91 
Q 1134 -91 871 261 
Q 609 613 609 1325 
z
" transform="scale(0.015625)"/>
       <path id="Menlo-Regular-72" d="M 3609 2778 
Q 3425 2922 3234 2987 
Q 3044 3053 2816 3053 
Q 2278 3053 1993 2715 
Q 1709 2378 1709 1741 
L 1709 0 
L 1131 0 
L 1131 3500 
L 1709 3500 
L 1709 2816 
Q 1853 3188 2151 3386 
Q 2450 3584 2859 3584 
Q 3072 3584 3256 3531 
Q 3441 3478 3609 3366 
L 3609 2778 
z
" transform="scale(0.015625)"/>
       <path id="Menlo-Regular-64" d="M 2681 3053 
L 2681 4863 
L 3256 4863 
L 3256 0 
L 2681 0 
L 2681 441 
Q 2538 181 2298 45 
Q 2059 -91 1747 -91 
Q 1113 -91 748 401 
Q 384 894 384 1759 
Q 384 2613 750 3098 
Q 1116 3584 1747 3584 
Q 2063 3584 2303 3448 
Q 2544 3313 2681 3053 
z
M 991 1747 
Q 991 1078 1203 737 
Q 1416 397 1831 397 
Q 2247 397 2464 740 
Q 2681 1084 2681 1747 
Q 2681 2413 2464 2755 
Q 2247 3097 1831 3097 
Q 1416 3097 1203 2756 
Q 991 2416 991 1747 
z
" transform="scale(0.015625)"/>
       <path id="Menlo-Regular-20" transform="scale(0.015625)"/>
       <path id="Menlo-Regular-66" d="M 3322 4863 
L 3322 4384 
L 2669 4384 
Q 2359 4384 2239 4257 
Q 2119 4131 2119 3809 
L 2119 3500 
L 3322 3500 
L 3322 3053 
L 2119 3053 
L 2119 0 
L 1544 0 
L 1544 3053 
L 609 3053 
L 609 3500 
L 1544 3500 
L 1544 3744 
Q 1544 4319 1808 4591 
Q 2072 4863 2631 4863 
L 3322 4863 
z
" transform="scale(0.015625)"/>
       <path id="Menlo-Regular-5f" d="M 3825 -594 
L 3825 -1125 
L 0 -1125 
L 0 -594 
L 3825 -594 
z
" transform="scale(0.015625)"/>
       <path id="Menlo-Regular-3b3" d="M 688 2613 
Q 547 3006 253 3006 
L 100 3006 
L 100 3500 
L 319 3500 
Q 925 3500 1128 2950 
L 1925 809 
L 2944 3500 
L 3541 3500 
L 2225 0 
L 2225 -1331 
L 1631 -1331 
L 1631 0 
L 688 2613 
z
" transform="scale(0.015625)"/>
       <path id="Menlo-Regular-28" d="M 2672 5169 
Q 2256 4456 2051 3748 
Q 1847 3041 1847 2322 
Q 1847 1606 2051 897 
Q 2256 188 2672 -531 
L 2172 -531 
Q 1700 213 1469 917 
Q 1238 1622 1238 2322 
Q 1238 3019 1469 3725 
Q 1700 4431 2172 5169 
L 2672 5169 
z
" transform="scale(0.015625)"/>
       <path id="Menlo-Regular-48" d="M 428 4666 
L 1063 4666 
L 1063 2878 
L 2791 2878 
L 2791 4666 
L 3425 4666 
L 3425 0 
L 2791 0 
L 2791 2347 
L 1063 2347 
L 1063 0 
L 428 0 
L 428 4666 
z
" transform="scale(0.015625)"/>
       <path id="Menlo-Regular-7a" d="M 709 3506 
L 3250 3506 
L 3250 2981 
L 1241 469 
L 3250 469 
L 3250 0 
L 634 0 
L 634 531 
L 2644 3047 
L 709 3047 
L 709 3506 
z
" transform="scale(0.015625)"/>
       <path id="Menlo-Regular-29" d="M 1088 5169 
L 1588 5169 
Q 2059 4431 2290 3725 
Q 2522 3019 2522 2322 
Q 2522 1619 2290 912 
Q 2059 206 1588 -531 
L 1088 -531 
Q 1503 194 1708 903 
Q 1913 1613 1913 2322 
Q 1913 3034 1708 3743 
Q 1503 4453 1088 5169 
z
" transform="scale(0.015625)"/>
      </defs>
      <use xlink:href="#Menlo-Regular-4d"/>
      <use xlink:href="#Menlo-Regular-65" transform="translate(60.205078 0)"/>
      <use xlink:href="#Menlo-Regular-61" transform="translate(120.410156 0)"/>
      <use xlink:href="#Menlo-Regular-73" transform="translate(180.615234 0)"/>
      <use xlink:href="#Menlo-Regular-75" transform="translate(240.820312 0)"/>
      <use xlink:href="#Menlo-Regular-72" transform="translate(301.025391 0)"/>
      <use xlink:href="#Menlo-Regular-65" transform="translate(361.230469 0)"/>
      <use xlink:href="#Menlo-Regular-64" transform="translate(421.435547 0)"/>
      <use xlink:href="#Menlo-Regular-20" transform="translate(481.640625 0)"/>
      <use xlink:href="#Menlo-Regular-66" transform="translate(541.845703 0)"/>
      <use xlink:href="#Menlo-Regular-5f" transform="translate(602.050781 0)"/>
      <use xlink:href="#Menlo-Regular-3b3" transform="translate(662.255859 0)"/>
      <use xlink:href="#Menlo-Regular-20" transform="translate(722.460938 0)"/>
      <use xlink:href="#Menlo-Regular-28" transform="translate(782.666016 0)"/>
      <use xlink:href="#Menlo-Regular-48" transform="translate(842.871094 0)"/>
      <use xlink:href="#Menlo-Regular-7a" transform="translate(903.076172 0)"/>
      <use xlink:href="#Menlo-Regular-29" transform="translate(963.28125 0)"/>
     </g>
    </g>
   </g>
   <g id="matplotlib.axis_2">
    <g id="ytick_1">
     <g id="line2d_13">
      <path d="M 25.133438 189.06 
L 387.893438 189.06 
" clip-path="url(#pfe8ec648fe)" style="fill: none; stroke: #1a1a1a; stroke-opacity: 0.15; stroke-width: 0.4; stroke-linejoin: miter"/>
     </g>
     <g id="line2d_14">
      <defs>
       <path id="mbea21a95e7" d="M 0 0 
L 3 0 
" style="stroke: #1a1a1a; stroke-width: 0.8"/>
      </defs>
      <g>
       <use xlink:href="#mbea21a95e7" x="25.133438" y="189.06" style="fill: #1a1a1a; stroke: #1a1a1a; stroke-width: 0.8"/>
      </g>
     </g>
     <g id="text_8">
      <!-- 0 -->
      <g style="fill: #1a1a1a" transform="translate(17.419219 191.729297) scale(0.07 -0.07)">
       <use xlink:href="#Menlo-Regular-30"/>
      </g>
     </g>
    </g>
    <g id="ytick_2">
     <g id="line2d_15">
      <path d="M 25.133438 154.136376 
L 387.893438 154.136376 
" clip-path="url(#pfe8ec648fe)" style="fill: none; stroke: #1a1a1a; stroke-opacity: 0.15; stroke-width: 0.4; stroke-linejoin: miter"/>
     </g>
     <g id="line2d_16">
      <g>
       <use xlink:href="#mbea21a95e7" x="25.133438" y="154.136376" style="fill: #1a1a1a; stroke: #1a1a1a; stroke-width: 0.8"/>
      </g>
     </g>
     <g id="text_9">
      <!-- 10 -->
      <g style="fill: #1a1a1a" transform="translate(13.205 156.805672) scale(0.07 -0.07)">
       <use xlink:href="#Menlo-Regular-31"/>
       <use xlink:href="#Menlo-Regular-30" transform="translate(60.205078 0)"/>
      </g>
     </g>
    </g>
    <g id="ytick_3">
     <g id="line2d_17">
      <path d="M 25.133438 119.212751 
L 387.893438 119.212751 
" clip-path="url(#pfe8ec648fe)" style="fill: none; stroke: #1a1a1a; stroke-opacity: 0.15; stroke-width: 0.4; stroke-linejoin: miter"/>
     </g>
     <g id="line2d_18">
      <g>
       <use xlink:href="#mbea21a95e7" x="25.133438" y="119.212751" style="fill: #1a1a1a; stroke: #1a1a1a; stroke-width: 0.8"/>
      </g>
     </g>
     <g id="text_10">
      <!-- 20 -->
      <g style="fill: #1a1a1a" transform="translate(13.205 121.882048) scale(0.07 -0.07)">
       <use xlink:href="#Menlo-Regular-32"/>
       <use xlink:href="#Menlo-Regular-30" transform="translate(60.205078 0)"/>
      </g>
     </g>
    </g>
    <g id="ytick_4">
     <g id="line2d_19">
      <path d="M 25.133438 84.289127 
L 387.893438 84.289127 
" clip-path="url(#pfe8ec648fe)" style="fill: none; stroke: #1a1a1a; stroke-opacity: 0.15; stroke-width: 0.4; stroke-linejoin: miter"/>
     </g>
     <g id="line2d_20">
      <g>
       <use xlink:href="#mbea21a95e7" x="25.133438" y="84.289127" style="fill: #1a1a1a; stroke: #1a1a1a; stroke-width: 0.8"/>
      </g>
     </g>
     <g id="text_11">
      <!-- 30 -->
      <g style="fill: #1a1a1a" transform="translate(13.205 86.958423) scale(0.07 -0.07)">
       <use xlink:href="#Menlo-Regular-33"/>
       <use xlink:href="#Menlo-Regular-30" transform="translate(60.205078 0)"/>
      </g>
     </g>
    </g>
    <g id="ytick_5">
     <g id="line2d_21">
      <path d="M 25.133438 49.365502 
L 387.893438 49.365502 
" clip-path="url(#pfe8ec648fe)" style="fill: none; stroke: #1a1a1a; stroke-opacity: 0.15; stroke-width: 0.4; stroke-linejoin: miter"/>
     </g>
     <g id="line2d_22">
      <g>
       <use xlink:href="#mbea21a95e7" x="25.133438" y="49.365502" style="fill: #1a1a1a; stroke: #1a1a1a; stroke-width: 0.8"/>
      </g>
     </g>
     <g id="text_12">
      <!-- 40 -->
      <g style="fill: #1a1a1a" transform="translate(13.205 52.034799) scale(0.07 -0.07)">
       <use xlink:href="#Menlo-Regular-34"/>
       <use xlink:href="#Menlo-Regular-30" transform="translate(60.205078 0)"/>
      </g>
     </g>
    </g>
    <g id="ytick_6">
     <g id="line2d_23">
      <path d="M 25.133438 14.441878 
L 387.893438 14.441878 
" clip-path="url(#pfe8ec648fe)" style="fill: none; stroke: #1a1a1a; stroke-opacity: 0.15; stroke-width: 0.4; stroke-linejoin: miter"/>
     </g>
     <g id="line2d_24">
      <g>
       <use xlink:href="#mbea21a95e7" x="25.133438" y="14.441878" style="fill: #1a1a1a; stroke: #1a1a1a; stroke-width: 0.8"/>
      </g>
     </g>
     <g id="text_13">
      <!-- 50 -->
      <g style="fill: #1a1a1a" transform="translate(13.205 17.111174) scale(0.07 -0.07)">
       <use xlink:href="#Menlo-Regular-35"/>
       <use xlink:href="#Menlo-Regular-30" transform="translate(60.205078 0)"/>
      </g>
     </g>
    </g>
    <g id="text_14">
     <!-- Per-cell E rate (Hz) -->
     <g style="fill: #1a1a1a" transform="translate(7.54125 143.4125) rotate(-90) scale(0.08 -0.08)">
      <defs>
       <path id="Menlo-Regular-50" d="M 1247 4147 
L 1247 2394 
L 1978 2394 
Q 2416 2394 2661 2625 
Q 2906 2856 2906 3272 
Q 2906 3688 2662 3917 
Q 2419 4147 1978 4147 
L 1247 4147 
z
M 616 4666 
L 1978 4666 
Q 2759 4666 3162 4311 
Q 3566 3956 3566 3272 
Q 3566 2581 3164 2228 
Q 2763 1875 1978 1875 
L 1247 1875 
L 1247 0 
L 616 0 
L 616 4666 
z
" transform="scale(0.015625)"/>
       <path id="Menlo-Regular-2d" d="M 319 2263 
L 3631 2263 
L 3631 1734 
L 319 1734 
L 319 2263 
z
" transform="scale(0.015625)"/>
       <path id="Menlo-Regular-63" d="M 3316 178 
Q 3084 44 2839 -23 
Q 2594 -91 2338 -91 
Q 1525 -91 1067 396 
Q 609 884 609 1747 
Q 609 2609 1067 3096 
Q 1525 3584 2338 3584 
Q 2591 3584 2831 3518 
Q 3072 3453 3316 3316 
L 3316 2713 
Q 3088 2916 2858 3006 
Q 2628 3097 2338 3097 
Q 1797 3097 1506 2747 
Q 1216 2397 1216 1747 
Q 1216 1100 1508 748 
Q 1800 397 2338 397 
Q 2638 397 2875 489 
Q 3113 581 3316 775 
L 3316 178 
z
" transform="scale(0.015625)"/>
       <path id="Menlo-Regular-6c" d="M 2247 1266 
Q 2247 878 2389 681 
Q 2531 484 2809 484 
L 3481 484 
L 3481 0 
L 2753 0 
Q 2238 0 1955 329 
Q 1672 659 1672 1266 
L 1672 4431 
L 750 4431 
L 750 4881 
L 2247 4881 
L 2247 1266 
z
" transform="scale(0.015625)"/>
       <path id="Menlo-Regular-45" d="M 616 4666 
L 3384 4666 
L 3384 4134 
L 1247 4134 
L 1247 2878 
L 3291 2878 
L 3291 2347 
L 1247 2347 
L 1247 531 
L 3444 531 
L 3444 0 
L 616 0 
L 616 4666 
z
" transform="scale(0.015625)"/>
       <path id="Menlo-Regular-74" d="M 1919 4494 
L 1919 3500 
L 3225 3500 
L 3225 3053 
L 1919 3053 
L 1919 1153 
Q 1919 766 2066 612 
Q 2213 459 2578 459 
L 3225 459 
L 3225 0 
L 2522 0 
Q 1875 0 1609 259 
Q 1344 519 1344 1153 
L 1344 3053 
L 409 3053 
L 409 3500 
L 1344 3500 
L 1344 4494 
L 1919 4494 
z
" transform="scale(0.015625)"/>
      </defs>
      <use xlink:href="#Menlo-Regular-50"/>
      <use xlink:href="#Menlo-Regular-65" transform="translate(60.205078 0)"/>
      <use xlink:href="#Menlo-Regular-72" transform="translate(120.410156 0)"/>
      <use xlink:href="#Menlo-Regular-2d" transform="translate(180.615234 0)"/>
      <use xlink:href="#Menlo-Regular-63" transform="translate(240.820312 0)"/>
      <use xlink:href="#Menlo-Regular-65" transform="translate(301.025391 0)"/>
      <use xlink:href="#Menlo-Regular-6c" transform="translate(361.230469 0)"/>
      <use xlink:href="#Menlo-Regular-6c" transform="translate(421.435547 0)"/>
      <use xlink:href="#Menlo-Regular-20" transform="translate(481.640625 0)"/>
      <use xlink:href="#Menlo-Regular-45" transform="translate(541.845703 0)"/>
      <use xlink:href="#Menlo-Regular-20" transform="translate(602.050781 0)"/>
      <use xlink:href="#Menlo-Regular-72" transform="translate(662.255859 0)"/>
      <use xlink:href="#Menlo-Regular-61" transform="translate(722.460938 0)"/>
      <use xlink:href="#Menlo-Regular-74" transform="translate(782.666016 0)"/>
      <use xlink:href="#Menlo-Regular-65" transform="translate(842.871094 0)"/>
      <use xlink:href="#Menlo-Regular-20" transform="translate(903.076172 0)"/>
      <use xlink:href="#Menlo-Regular-28" transform="translate(963.28125 0)"/>
      <use xlink:href="#Menlo-Regular-48" transform="translate(1023.486328 0)"/>
      <use xlink:href="#Menlo-Regular-7a" transform="translate(1083.691406 0)"/>
      <use xlink:href="#Menlo-Regular-29" transform="translate(1143.896484 0)"/>
     </g>
    </g>
   </g>
   <g id="PathCollection_1">
    <defs>
     <path id="ma37d68f3fb" d="M 0 -3.872983 
L -3.872983 3.872983 
L 3.872983 3.872983 
z
" style="stroke: #222222; stroke-width: 0.5"/>
    </defs>
    <g clip-path="url(#pfe8ec648fe)">
     <use xlink:href="#ma37d68f3fb" x="370.619152" y="39.225176" style="fill: #440154; stroke: #222222; stroke-width: 0.5"/>
     <use xlink:href="#ma37d68f3fb" x="368.095956" y="39.811397" style="fill: #440154; stroke: #222222; stroke-width: 0.5"/>
     <use xlink:href="#ma37d68f3fb" x="367.303559" y="8.754319" style="fill: #440154; stroke: #222222; stroke-width: 0.5"/>
    </g>
   </g>
   <g id="PathCollection_2">
    <defs>
     <path id="m126fb45297" d="M 0 3.162278 
C 0.838646 3.162278 1.643056 2.82908 2.236068 2.236068 
C 2.82908 1.643056 3.162278 0.838646 3.162278 0 
C 3.162278 -0.838646 2.82908 -1.643056 2.236068 -2.236068 
C 1.643056 -2.82908 0.838646 -3.162278 0 -3.162278 
C -0.838646 -3.162278 -1.643056 -2.82908 -2.236068 -2.236068 
C -2.82908 -1.643056 -3.162278 -0.838646 -3.162278 0 
C -3.162278 0.838646 -2.82908 1.643056 -2.236068 2.236068 
C -1.643056 2.82908 -0.838646 3.162278 0 3.162278 
z
" style="stroke: #222222; stroke-width: 0.5"/>
    </defs>
    <g clip-path="url(#pfe8ec648fe)">
     <use xlink:href="#m126fb45297" x="370.619152" y="161.457863" style="fill: #440154; stroke: #222222; stroke-width: 0.5"/>
     <use xlink:href="#m126fb45297" x="368.095956" y="162.0815" style="fill: #440154; stroke: #222222; stroke-width: 0.5"/>
     <use xlink:href="#m126fb45297" x="367.303559" y="162.518044" style="fill: #440154; stroke: #222222; stroke-width: 0.5"/>
    </g>
   </g>
   <g id="PathCollection_3">
    <defs>
     <path id="m8e9c38fb3b" d="M 0 -3.872983 
L -3.872983 3.872983 
L 3.872983 3.872983 
z
" style="stroke: #222222; stroke-width: 0.5"/>
    </defs>
    <g clip-path="url(#pfe8ec648fe)">
     <use xlink:href="#m8e9c38fb3b" x="348.723247" y="37.553839" style="fill: #414487; stroke: #222222; stroke-width: 0.5"/>
     <use xlink:href="#m8e9c38fb3b" x="321.818158" y="41.00878" style="fill: #414487; stroke: #222222; stroke-width: 0.5"/>
     <use xlink:href="#m8e9c38fb3b" x="320.290718" y="43.640521" style="fill: #414487; stroke: #222222; stroke-width: 0.5"/>
    </g>
   </g>
   <g id="PathCollection_4">
    <defs>
     <path id="m9065fc679f" d="M 0 3.162278 
C 0.838646 3.162278 1.643056 2.82908 2.236068 2.236068 
C 2.82908 1.643056 3.162278 0.838646 3.162278 0 
C 3.162278 -0.838646 2.82908 -1.643056 2.236068 -2.236068 
C 1.643056 -2.82908 0.838646 -3.162278 0 -3.162278 
C -0.838646 -3.162278 -1.643056 -2.82908 -2.236068 -2.236068 
C -2.82908 -1.643056 -3.162278 -0.838646 -3.162278 0 
C -3.162278 0.838646 -2.82908 1.643056 -2.236068 2.236068 
C -1.643056 2.82908 -0.838646 3.162278 0 3.162278 
z
" style="stroke: #222222; stroke-width: 0.5"/>
    </defs>
    <g clip-path="url(#pfe8ec648fe)">
     <use xlink:href="#m9065fc679f" x="348.723247" y="161.389263" style="fill: #414487; stroke: #222222; stroke-width: 0.5"/>
     <use xlink:href="#m9065fc679f" x="321.818158" y="163.921226" style="fill: #414487; stroke: #222222; stroke-width: 0.5"/>
     <use xlink:href="#m9065fc679f" x="320.290718" y="164.083372" style="fill: #414487; stroke: #222222; stroke-width: 0.5"/>
    </g>
   </g>
   <g id="PathCollection_5">
    <defs>
     <path id="m6f86ae8cdb" d="M 0 -3.872983 
L -3.872983 3.872983 
L 3.872983 3.872983 
z
" style="stroke: #222222; stroke-width: 0.5"/>
    </defs>
    <g clip-path="url(#pfe8ec648fe)">
     <use xlink:href="#m6f86ae8cdb" x="288.74471" y="49.203356" style="fill: #2a788e; stroke: #222222; stroke-width: 0.5"/>
     <use xlink:href="#m6f86ae8cdb" x="287.573905" y="40.759319" style="fill: #2a788e; stroke: #222222; stroke-width: 0.5"/>
     <use xlink:href="#m6f86ae8cdb" x="259.322945" y="66.490553" style="fill: #2a788e; stroke: #222222; stroke-width: 0.5"/>
    </g>
   </g>
   <g id="PathCollection_6">
    <defs>
     <path id="m8e6f254523" d="M 0 3.162278 
C 0.838646 3.162278 1.643056 2.82908 2.236068 2.236068 
C 2.82908 1.643056 3.162278 0.838646 3.162278 0 
C 3.162278 -0.838646 2.82908 -1.643056 2.236068 -2.236068 
C 1.643056 -2.82908 0.838646 -3.162278 0 -3.162278 
C -0.838646 -3.162278 -1.643056 -2.82908 -2.236068 -2.236068 
C -2.82908 -1.643056 -3.162278 -0.838646 -3.162278 0 
C -3.162278 0.838646 -2.82908 1.643056 -2.236068 2.236068 
C -1.643056 2.82908 -0.838646 3.162278 0 3.162278 
z
" style="stroke: #222222; stroke-width: 0.5"/>
    </defs>
    <g clip-path="url(#pfe8ec648fe)">
     <use xlink:href="#m8e6f254523" x="288.74471" y="163.702953" style="fill: #2a788e; stroke: #222222; stroke-width: 0.5"/>
     <use xlink:href="#m8e6f254523" x="287.573905" y="164.682063" style="fill: #2a788e; stroke: #222222; stroke-width: 0.5"/>
     <use xlink:href="#m8e6f254523" x="259.322945" y="165.898153" style="fill: #2a788e; stroke: #222222; stroke-width: 0.5"/>
    </g>
   </g>
   <g id="PathCollection_7">
    <defs>
     <path id="m6d74b5ef5a" d="M 0 -3.872983 
L -3.872983 3.872983 
L 3.872983 3.872983 
z
" style="stroke: #222222; stroke-width: 0.5"/>
    </defs>
    <g clip-path="url(#pfe8ec648fe)">
     <use xlink:href="#m6d74b5ef5a" x="251.187999" y="74.547923" style="fill: #22a884; stroke: #222222; stroke-width: 0.5"/>
     <use xlink:href="#m6d74b5ef5a" x="249.414365" y="58.957029" style="fill: #22a884; stroke: #222222; stroke-width: 0.5"/>
     <use xlink:href="#m6d74b5ef5a" x="249.35421" y="59.56819" style="fill: #22a884; stroke: #222222; stroke-width: 0.5"/>
    </g>
   </g>
   <g id="PathCollection_8">
    <defs>
     <path id="m35c920e07e" d="M 0 3.162278 
C 0.838646 3.162278 1.643056 2.82908 2.236068 2.236068 
C 2.82908 1.643056 3.162278 0.838646 3.162278 0 
C 3.162278 -0.838646 2.82908 -1.643056 2.236068 -2.236068 
C 1.643056 -2.82908 0.838646 -3.162278 0 -3.162278 
C -0.838646 -3.162278 -1.643056 -2.82908 -2.236068 -2.236068 
C -2.82908 -1.643056 -3.162278 -0.838646 -3.162278 0 
C -3.162278 0.838646 -2.82908 1.643056 -2.236068 2.236068 
C -1.643056 2.82908 -0.838646 3.162278 0 3.162278 
z
" style="stroke: #222222; stroke-width: 0.5"/>
    </defs>
    <g clip-path="url(#pfe8ec648fe)">
     <use xlink:href="#m35c920e07e" x="251.187999" y="166.103952" style="fill: #22a884; stroke: #222222; stroke-width: 0.5"/>
     <use xlink:href="#m35c920e07e" x="249.414365" y="165.717299" style="fill: #22a884; stroke: #222222; stroke-width: 0.5"/>
     <use xlink:href="#m35c920e07e" x="249.35421" y="166.484371" style="fill: #22a884; stroke: #222222; stroke-width: 0.5"/>
    </g>
   </g>
   <g id="PathCollection_9">
    <defs>
     <path id="maa86e0886b" d="M 0 -3.872983 
L -3.872983 3.872983 
L 3.872983 3.872983 
z
" style="stroke: #222222; stroke-width: 0.5"/>
    </defs>
    <g clip-path="url(#pfe8ec648fe)">
     <use xlink:href="#maa86e0886b" x="186.236339" y="109.608754" style="fill: #7ad151; stroke: #222222; stroke-width: 0.5"/>
     <use xlink:href="#maa86e0886b" x="185.795468" y="104.931486" style="fill: #7ad151; stroke: #222222; stroke-width: 0.5"/>
     <use xlink:href="#maa86e0886b" x="186.22145" y="103.734104" style="fill: #7ad151; stroke: #222222; stroke-width: 0.5"/>
    </g>
   </g>
   <g id="PathCollection_10">
    <defs>
     <path id="mfc342b1488" d="M 0 3.162278 
C 0.838646 3.162278 1.643056 2.82908 2.236068 2.236068 
C 2.82908 1.643056 3.162278 0.838646 3.162278 0 
C 3.162278 -0.838646 2.82908 -1.643056 2.236068 -2.236068 
C 1.643056 -2.82908 0.838646 -3.162278 0 -3.162278 
C -0.838646 -3.162278 -1.643056 -2.82908 -2.236068 -2.236068 
C -2.82908 -1.643056 -3.162278 -0.838646 -3.162278 0 
C -3.162278 0.838646 -2.82908 1.643056 -2.236068 2.236068 
C -1.643056 2.82908 -0.838646 3.162278 0 3.162278 
z
" style="stroke: #222222; stroke-width: 0.5"/>
    </defs>
    <g clip-path="url(#pfe8ec648fe)">
     <use xlink:href="#mfc342b1488" x="186.236339" y="170.66897" style="fill: #7ad151; stroke: #222222; stroke-width: 0.5"/>
     <use xlink:href="#mfc342b1488" x="185.795468" y="169.714807" style="fill: #7ad151; stroke: #222222; stroke-width: 0.5"/>
     <use xlink:href="#mfc342b1488" x="186.22145" y="169.646207" style="fill: #7ad151; stroke: #222222; stroke-width: 0.5"/>
    </g>
   </g>
   <g id="PathCollection_11">
    <defs>
     <path id="m96fe962bff" d="M 0 -3.872983 
L -3.872983 3.872983 
L 3.872983 3.872983 
z
" style="stroke: #222222; stroke-width: 0.5"/>
    </defs>
    <g clip-path="url(#pfe8ec648fe)">
     <use xlink:href="#m96fe962bff" x="161.965939" y="117.291954" style="fill: #fde725; stroke: #222222; stroke-width: 0.5"/>
     <use xlink:href="#m96fe962bff" x="163.348685" y="108.099557" style="fill: #fde725; stroke: #222222; stroke-width: 0.5"/>
     <use xlink:href="#m96fe962bff" x="162.46351" y="122.692644" style="fill: #fde725; stroke: #222222; stroke-width: 0.5"/>
    </g>
   </g>
   <g id="PathCollection_12">
    <defs>
     <path id="m93863ec733" d="M 0 3.162278 
C 0.838646 3.162278 1.643056 2.82908 2.236068 2.236068 
C 2.82908 1.643056 3.162278 0.838646 3.162278 0 
C 3.162278 -0.838646 2.82908 -1.643056 2.236068 -2.236068 
C 1.643056 -2.82908 0.838646 -3.162278 0 -3.162278 
C -0.838646 -3.162278 -1.643056 -2.82908 -2.236068 -2.236068 
C -2.82908 -1.643056 -3.162278 -0.838646 -3.162278 0 
C -3.162278 0.838646 -2.82908 1.643056 -2.236068 2.236068 
C -1.643056 2.82908 -0.838646 3.162278 0 3.162278 
z
" style="stroke: #222222; stroke-width: 0.5"/>
    </defs>
    <g clip-path="url(#pfe8ec648fe)">
     <use xlink:href="#m93863ec733" x="161.965939" y="173.288242" style="fill: #fde725; stroke: #222222; stroke-width: 0.5"/>
     <use xlink:href="#m93863ec733" x="163.348685" y="171.910006" style="fill: #fde725; stroke: #222222; stroke-width: 0.5"/>
     <use xlink:href="#m93863ec733" x="162.46351" y="172.602243" style="fill: #fde725; stroke: #222222; stroke-width: 0.5"/>
    </g>
   </g>
   <g id="line2d_25">
    <path d="M 25.133438 189.06 
L 28.79768 187.164848 
L 32.461922 185.269697 
L 36.126165 183.374545 
L 39.790407 181.479394 
L 43.45465 179.584242 
L 47.118892 177.689091 
L 50.783134 175.793939 
L 54.447377 173.898788 
L 58.111619 172.003636 
L 61.775862 170.108485 
L 65.440104 168.213333 
L 69.104347 166.318182 
L 72.768589 164.42303 
L 76.432831 162.527879 
L 80.097074 160.632727 
L 83.761316 158.737576 
L 87.425559 156.842424 
L 91.089801 154.947273 
L 94.754044 153.052121 
L 98.418286 151.15697 
L 102.082528 149.261818 
L 105.746771 147.366667 
L 109.411013 145.471515 
L 113.075256 143.576364 
L 116.739498 141.681212 
L 120.403741 139.786061 
L 124.067983 137.890909 
L 127.732225 135.995758 
L 131.396468 134.100606 
L 135.06071 132.205455 
L 138.724953 130.310303 
L 142.389195 128.415152 
L 146.053438 126.52 
L 149.71768 124.624848 
L 153.381922 122.729697 
L 157.046165 120.834545 
L 160.710407 118.939394 
L 164.37465 117.044242 
L 168.038892 115.149091 
L 171.703134 113.253939 
L 175.367377 111.358788 
L 179.031619 109.463636 
L 182.695862 107.568485 
L 186.360104 105.673333 
L 190.024347 103.778182 
L 193.688589 101.88303 
L 197.352831 99.987879 
L 201.017074 98.092727 
L 204.681316 96.197576 
L 208.345559 94.302424 
L 212.009801 92.407273 
L 215.674044 90.512121 
L 219.338286 88.61697 
L 223.002528 86.721818 
L 226.666771 84.826667 
L 230.331013 82.931515 
L 233.995256 81.036364 
L 237.659498 79.141212 
L 241.323741 77.246061 
L 244.987983 75.350909 
L 248.652225 73.455758 
L 252.316468 71.560606 
L 255.98071 69.665455 
L 259.644953 67.770303 
L 263.309195 65.875152 
L 266.973437 63.98 
L 270.63768 62.084848 
L 274.301922 60.189697 
L 277.966165 58.294545 
L 281.630407 56.399394 
L 285.29465 54.504242 
L 288.958892 52.609091 
L 292.623134 50.713939 
L 296.287377 48.818788 
L 299.951619 46.923636 
L 303.615862 45.028485 
L 307.280104 43.133333 
L 310.944347 41.238182 
L 314.608589 39.34303 
L 318.272831 37.447879 
L 321.937074 35.552727 
L 325.601316 33.657576 
L 329.265559 31.762424 
L 332.929801 29.867273 
L 336.594044 27.972121 
L 340.258286 26.07697 
L 343.922528 24.181818 
L 347.586771 22.286667 
L 351.251013 20.391515 
L 354.915256 18.496364 
L 358.579498 16.601212 
L 362.243741 14.706061 
L 365.907983 12.810909 
L 369.572225 10.915758 
L 373.236468 9.020606 
L 376.90071 7.125455 
L 380.564953 5.230303 
L 384.229195 3.335152 
L 387.893437 1.44 
" clip-path="url(#pfe8ec648fe)" style="fill: none; stroke-dasharray: 3.7,1.6; stroke-dashoffset: 0; stroke: #6a6a6a"/>
   </g>
   <g id="line2d_26">
    <path d="M 25.133438 189.06 
L 28.79768 188.68097 
L 32.461922 188.301939 
L 36.126165 187.922909 
L 39.790407 187.543879 
L 43.45465 187.164848 
L 47.118892 186.785818 
L 50.783134 186.406788 
L 54.447377 186.027758 
L 58.111619 185.648727 
L 61.775862 185.269697 
L 65.440104 184.890667 
L 69.104347 184.511636 
L 72.768589 184.132606 
L 76.432831 183.753576 
L 80.097074 183.374545 
L 83.761316 182.995515 
L 87.425559 182.616485 
L 91.089801 182.237455 
L 94.754044 181.858424 
L 98.418286 181.479394 
L 102.082528 181.100364 
L 105.746771 180.721333 
L 109.411013 180.342303 
L 113.075256 179.963273 
L 116.739498 179.584242 
L 120.403741 179.205212 
L 124.067983 178.826182 
L 127.732225 178.447152 
L 131.396468 178.068121 
L 135.06071 177.689091 
L 138.724953 177.310061 
L 142.389195 176.93103 
L 146.053438 176.552 
L 149.71768 176.17297 
L 153.381922 175.793939 
L 157.046165 175.414909 
L 160.710407 175.035879 
L 164.37465 174.656848 
L 168.038892 174.277818 
L 171.703134 173.898788 
L 175.367377 173.519758 
L 179.031619 173.140727 
L 182.695862 172.761697 
L 186.360104 172.382667 
L 190.024347 172.003636 
L 193.688589 171.624606 
L 197.352831 171.245576 
L 201.017074 170.866545 
L 204.681316 170.487515 
L 208.345559 170.108485 
L 212.009801 169.729455 
L 215.674044 169.350424 
L 219.338286 168.971394 
L 223.002528 168.592364 
L 226.666771 168.213333 
L 230.331013 167.834303 
L 233.995256 167.455273 
L 237.659498 167.076242 
L 241.323741 166.697212 
L 244.987983 166.318182 
L 248.652225 165.939152 
L 252.316468 165.560121 
L 255.98071 165.181091 
L 259.644953 164.802061 
L 263.309195 164.42303 
L 266.973437 164.044 
L 270.63768 163.66497 
L 274.301922 163.285939 
L 277.966165 162.906909 
L 281.630407 162.527879 
L 285.29465 162.148848 
L 288.958892 161.769818 
L 292.623134 161.390788 
L 296.287377 161.011758 
L 299.951619 160.632727 
L 303.615862 160.253697 
L 307.280104 159.874667 
L 310.944347 159.495636 
L 314.608589 159.116606 
L 318.272831 158.737576 
L 321.937074 158.358545 
L 325.601316 157.979515 
L 329.265559 157.600485 
L 332.929801 157.221455 
L 336.594044 156.842424 
L 340.258286 156.463394 
L 343.922528 156.084364 
L 347.586771 155.705333 
L 351.251013 155.326303 
L 354.915256 154.947273 
L 358.579498 154.568242 
L 362.243741 154.189212 
L 365.907983 153.810182 
L 369.572225 153.431152 
L 373.236468 153.052121 
L 376.90071 152.673091 
L 380.564953 152.294061 
L 384.229195 151.91503 
L 387.893437 151.536 
" clip-path="url(#pfe8ec648fe)" style="fill: none; stroke-dasharray: 1,1.65; stroke-dashoffset: 0; stroke: #666666"/>
   </g>
   <g id="patch_3">
    <path d="M 25.133438 189.06 
L 25.133438 1.44 
" style="fill: none; stroke: #1a1a1a; stroke-width: 0.8; stroke-linejoin: miter; stroke-linecap: square"/>
   </g>
   <g id="patch_4">
    <path d="M 25.133438 189.06 
L 387.893437 189.06 
" style="fill: none; stroke: #1a1a1a; stroke-width: 0.8; stroke-linejoin: miter; stroke-linecap: square"/>
   </g>
   <g id="legend_1">
    <g id="PathCollection_13">
     <g>
      <use xlink:href="#ma37d68f3fb" x="37.033438" y="11.241094" style="fill: #440154; stroke: #222222; stroke-width: 0.5"/>
     </g>
    </g>
    <g id="text_15">
     <!-- τ_GABA = 4.5 ms — max cell -->
     <g style="fill: #1a1a1a" transform="translate(48.233438 13.078594) scale(0.07 -0.07)">
      <defs>
       <path id="Menlo-Regular-3c4" d="M 2319 638 
Q 2431 488 2769 488 
L 3047 488 
L 3047 0 
L 2700 0 
Q 2138 0 1881 300 
Q 1625 606 1625 1269 
L 1625 2925 
L 500 2925 
L 500 3494 
L 3356 3494 
L 3356 2925 
L 2213 2925 
L 2213 1234 
Q 2213 781 2319 638 
z
" transform="scale(0.015625)"/>
       <path id="Menlo-Regular-47" d="M 3450 384 
Q 3197 150 2880 29 
Q 2563 -91 2194 -91 
Q 1306 -91 812 545 
Q 319 1181 319 2328 
Q 319 3472 819 4111 
Q 1319 4750 2209 4750 
Q 2503 4750 2772 4667 
Q 3041 4584 3291 4416 
L 3291 3769 
Q 3038 4009 2772 4123 
Q 2506 4238 2209 4238 
Q 1594 4238 1286 3761 
Q 978 3284 978 2328 
Q 978 1356 1276 889 
Q 1575 422 2194 422 
Q 2403 422 2561 470 
Q 2719 519 2847 622 
L 2847 1875 
L 2169 1875 
L 2169 2394 
L 3450 2394 
L 3450 384 
z
" transform="scale(0.015625)"/>
       <path id="Menlo-Regular-41" d="M 1925 4109 
L 1259 1722 
L 2591 1722 
L 1925 4109 
z
M 1544 4666 
L 2309 4666 
L 3738 0 
L 3084 0 
L 2741 1216 
L 1106 1216 
L 769 0 
L 116 0 
L 1544 4666 
z
" transform="scale(0.015625)"/>
       <path id="Menlo-Regular-42" d="M 1153 2353 
L 1153 519 
L 1900 519 
Q 2450 519 2684 711 
Q 2919 903 2919 1344 
Q 2919 1925 2672 2139 
Q 2425 2353 1900 2353 
L 1153 2353 
z
M 1153 4147 
L 1153 2866 
L 1888 2866 
Q 2344 2866 2548 3041 
Q 2753 3216 2753 3481 
Q 2753 3834 2551 3990 
Q 2350 4147 1888 4147 
L 1153 4147 
z
M 519 4666 
L 1900 4666 
Q 2616 4666 3003 4356 
Q 3391 4047 3391 3481 
Q 3391 3178 3186 2931 
Q 2981 2684 2572 2622 
Q 3031 2553 3292 2229 
Q 3553 1906 3553 1281 
Q 3553 647 3137 323 
Q 2722 0 1900 0 
L 519 0 
L 519 4666 
z
" transform="scale(0.015625)"/>
       <path id="Menlo-Regular-3d" d="M 275 1563 
L 3578 1563 
L 3578 1034 
L 275 1034 
L 275 1563 
z
M 275 3034 
L 3578 3034 
L 3578 2506 
L 275 2506 
L 275 3034 
z
" transform="scale(0.015625)"/>
       <path id="Menlo-Regular-2e" d="M 1216 1263 
L 2316 1263 
L 2316 0 
L 1216 0 
L 1216 1263 
z
" transform="scale(0.015625)"/>
       <path id="Menlo-Regular-6d" d="M 2113 3144 
Q 2219 3369 2383 3476 
Q 2547 3584 2778 3584 
Q 3200 3584 3373 3257 
Q 3547 2931 3547 2028 
L 3547 0 
L 3022 0 
L 3022 2003 
Q 3022 2744 2939 2923 
Q 2856 3103 2638 3103 
Q 2388 3103 2295 2911 
Q 2203 2719 2203 2003 
L 2203 0 
L 1678 0 
L 1678 2003 
Q 1678 2753 1589 2928 
Q 1500 3103 1269 3103 
Q 1041 3103 952 2911 
Q 863 2719 863 2003 
L 863 0 
L 341 0 
L 341 3500 
L 863 3500 
L 863 3200 
Q 966 3388 1120 3486 
Q 1275 3584 1472 3584 
Q 1709 3584 1867 3475 
Q 2025 3366 2113 3144 
z
" transform="scale(0.015625)"/>
       <path id="Menlo-Regular-2014" d="M 0 2259 
L 3853 2259 
L 3853 1725 
L 0 1725 
L 0 2259 
z
" transform="scale(0.015625)"/>
       <path id="Menlo-Regular-78" d="M 3494 3500 
L 2241 1825 
L 3616 0 
L 2950 0 
L 1925 1403 
L 903 0 
L 238 0 
L 1613 1825 
L 359 3500 
L 997 3500 
L 1925 2234 
L 2847 3500 
L 3494 3500 
z
" transform="scale(0.015625)"/>
      </defs>
      <use xlink:href="#Menlo-Regular-3c4"/>
      <use xlink:href="#Menlo-Regular-5f" transform="translate(60.205078 0)"/>
      <use xlink:href="#Menlo-Regular-47" transform="translate(120.410156 0)"/>
      <use xlink:href="#Menlo-Regular-41" transform="translate(180.615234 0)"/>
      <use xlink:href="#Menlo-Regular-42" transform="translate(240.820312 0)"/>
      <use xlink:href="#Menlo-Regular-41" transform="translate(301.025391 0)"/>
      <use xlink:href="#Menlo-Regular-20" transform="translate(361.230469 0)"/>
      <use xlink:href="#Menlo-Regular-3d" transform="translate(421.435547 0)"/>
      <use xlink:href="#Menlo-Regular-20" transform="translate(481.640625 0)"/>
      <use xlink:href="#Menlo-Regular-34" transform="translate(541.845703 0)"/>
      <use xlink:href="#Menlo-Regular-2e" transform="translate(602.050781 0)"/>
      <use xlink:href="#Menlo-Regular-35" transform="translate(662.255859 0)"/>
      <use xlink:href="#Menlo-Regular-20" transform="translate(722.460938 0)"/>
      <use xlink:href="#Menlo-Regular-6d" transform="translate(782.666016 0)"/>
      <use xlink:href="#Menlo-Regular-73" transform="translate(842.871094 0)"/>
      <use xlink:href="#Menlo-Regular-20" transform="translate(903.076172 0)"/>
      <use xlink:href="#Menlo-Regular-2014" transform="translate(963.28125 0)"/>
      <use xlink:href="#Menlo-Regular-20" transform="translate(1023.486328 0)"/>
      <use xlink:href="#Menlo-Regular-6d" transform="translate(1083.691406 0)"/>
      <use xlink:href="#Menlo-Regular-61" transform="translate(1143.896484 0)"/>
      <use xlink:href="#Menlo-Regular-78" transform="translate(1204.101562 0)"/>
      <use xlink:href="#Menlo-Regular-20" transform="translate(1264.306641 0)"/>
      <use xlink:href="#Menlo-Regular-63" transform="translate(1324.511719 0)"/>
      <use xlink:href="#Menlo-Regular-65" transform="translate(1384.716797 0)"/>
      <use xlink:href="#Menlo-Regular-6c" transform="translate(1444.921875 0)"/>
      <use xlink:href="#Menlo-Regular-6c" transform="translate(1505.126953 0)"/>
     </g>
    </g>
    <g id="PathCollection_14">
     <g>
      <use xlink:href="#m126fb45297" x="37.033438" y="21.535469" style="fill: #440154; stroke: #222222; stroke-width: 0.5"/>
     </g>
    </g>
    <g id="text_16">
     <!-- τ_GABA = 4.5 ms — median cell -->
     <g style="fill: #1a1a1a" transform="translate(48.233438 23.372969) scale(0.07 -0.07)">
      <defs>
       <path id="Menlo-Regular-69" d="M 988 3488 
L 2459 3488 
L 2459 447 
L 3600 447 
L 3600 0 
L 744 0 
L 744 447 
L 1884 447 
L 1884 3041 
L 988 3041 
L 988 3488 
z
M 1884 4847 
L 2459 4847 
L 2459 4122 
L 1884 4122 
L 1884 4847 
z
" transform="scale(0.015625)"/>
       <path id="Menlo-Regular-6e" d="M 3284 2169 
L 3284 0 
L 2706 0 
L 2706 2169 
Q 2706 2641 2540 2862 
Q 2375 3084 2022 3084 
Q 1619 3084 1401 2798 
Q 1184 2513 1184 1978 
L 1184 0 
L 609 0 
L 609 3500 
L 1184 3500 
L 1184 2975 
Q 1338 3275 1600 3429 
Q 1863 3584 2222 3584 
Q 2756 3584 3020 3232 
Q 3284 2881 3284 2169 
z
" transform="scale(0.015625)"/>
      </defs>
      <use xlink:href="#Menlo-Regular-3c4"/>
      <use xlink:href="#Menlo-Regular-5f" transform="translate(60.205078 0)"/>
      <use xlink:href="#Menlo-Regular-47" transform="translate(120.410156 0)"/>
      <use xlink:href="#Menlo-Regular-41" transform="translate(180.615234 0)"/>
      <use xlink:href="#Menlo-Regular-42" transform="translate(240.820312 0)"/>
      <use xlink:href="#Menlo-Regular-41" transform="translate(301.025391 0)"/>
      <use xlink:href="#Menlo-Regular-20" transform="translate(361.230469 0)"/>
      <use xlink:href="#Menlo-Regular-3d" transform="translate(421.435547 0)"/>
      <use xlink:href="#Menlo-Regular-20" transform="translate(481.640625 0)"/>
      <use xlink:href="#Menlo-Regular-34" transform="translate(541.845703 0)"/>
      <use xlink:href="#Menlo-Regular-2e" transform="translate(602.050781 0)"/>
      <use xlink:href="#Menlo-Regular-35" transform="translate(662.255859 0)"/>
      <use xlink:href="#Menlo-Regular-20" transform="translate(722.460938 0)"/>
      <use xlink:href="#Menlo-Regular-6d" transform="translate(782.666016 0)"/>
      <use xlink:href="#Menlo-Regular-73" transform="translate(842.871094 0)"/>
      <use xlink:href="#Menlo-Regular-20" transform="translate(903.076172 0)"/>
      <use xlink:href="#Menlo-Regular-2014" transform="translate(963.28125 0)"/>
      <use xlink:href="#Menlo-Regular-20" transform="translate(1023.486328 0)"/>
      <use xlink:href="#Menlo-Regular-6d" transform="translate(1083.691406 0)"/>
      <use xlink:href="#Menlo-Regular-65" transform="translate(1143.896484 0)"/>
      <use xlink:href="#Menlo-Regular-64" transform="translate(1204.101562 0)"/>
      <use xlink:href="#Menlo-Regular-69" transform="translate(1264.306641 0)"/>
      <use xlink:href="#Menlo-Regular-61" transform="translate(1324.511719 0)"/>
      <use xlink:href="#Menlo-Regular-6e" transform="translate(1384.716797 0)"/>
      <use xlink:href="#Menlo-Regular-20" transform="translate(1444.921875 0)"/>
      <use xlink:href="#Menlo-Regular-63" transform="translate(1505.126953 0)"/>
      <use xlink:href="#Menlo-Regular-65" transform="translate(1565.332031 0)"/>
      <use xlink:href="#Menlo-Regular-6c" transform="translate(1625.537109 0)"/>
      <use xlink:href="#Menlo-Regular-6c" transform="translate(1685.742188 0)"/>
     </g>
    </g>
    <g id="line2d_27">
     <path d="M 31.433438 31.532344 
L 37.033438 31.532344 
L 42.633438 31.532344 
" style="fill: none; stroke-dasharray: 3.7,1.6; stroke-dashoffset: 0; stroke: #6a6a6a"/>
    </g>
    <g id="text_17">
     <!-- y = f_γ (1 spike / cycle ceiling) -->
     <g style="fill: #1a1a1a" transform="translate(48.233438 33.982344) scale(0.07 -0.07)">
      <defs>
       <path id="Menlo-Regular-79" d="M 2681 1125 
Q 2538 759 2316 163 
Q 2006 -663 1900 -844 
Q 1756 -1088 1540 -1209 
Q 1325 -1331 1038 -1331 
L 575 -1331 
L 575 -850 
L 916 -850 
Q 1169 -850 1312 -703 
Q 1456 -556 1678 56 
L 325 3500 
L 934 3500 
L 1972 763 
L 2994 3500 
L 3603 3500 
L 2681 1125 
z
" transform="scale(0.015625)"/>
       <path id="Menlo-Regular-70" d="M 1172 441 
L 1172 -1331 
L 594 -1331 
L 594 3500 
L 1172 3500 
L 1172 3053 
Q 1316 3313 1555 3448 
Q 1794 3584 2106 3584 
Q 2741 3584 3102 3093 
Q 3463 2603 3463 1734 
Q 3463 881 3100 395 
Q 2738 -91 2106 -91 
Q 1788 -91 1548 45 
Q 1309 181 1172 441 
z
M 2859 1747 
Q 2859 2416 2648 2756 
Q 2438 3097 2022 3097 
Q 1603 3097 1387 2755 
Q 1172 2413 1172 1747 
Q 1172 1084 1387 740 
Q 1603 397 2022 397 
Q 2438 397 2648 737 
Q 2859 1078 2859 1747 
z
" transform="scale(0.015625)"/>
       <path id="Menlo-Regular-6b" d="M 738 4863 
L 1331 4863 
L 1331 2047 
L 2841 3500 
L 3541 3500 
L 2163 2181 
L 3756 0 
L 3053 0 
L 1759 1806 
L 1331 1403 
L 1331 0 
L 738 0 
L 738 4863 
z
" transform="scale(0.015625)"/>
       <path id="Menlo-Regular-2f" d="M 2778 4666 
L 3372 4666 
L 916 -594 
L 319 -594 
L 2778 4666 
z
" transform="scale(0.015625)"/>
       <path id="Menlo-Regular-67" d="M 2681 1778 
Q 2681 2425 2470 2761 
Q 2259 3097 1856 3097 
Q 1434 3097 1212 2761 
Q 991 2425 991 1778 
Q 991 1131 1214 792 
Q 1438 453 1863 453 
Q 2259 453 2470 793 
Q 2681 1134 2681 1778 
z
M 3256 225 
Q 3256 -563 2884 -969 
Q 2513 -1375 1791 -1375 
Q 1553 -1375 1293 -1331 
Q 1034 -1288 775 -1203 
L 775 -634 
Q 1081 -778 1331 -847 
Q 1581 -916 1791 -916 
Q 2256 -916 2468 -662 
Q 2681 -409 2681 141 
L 2681 166 
L 2681 556 
Q 2544 263 2306 119 
Q 2069 -25 1728 -25 
Q 1116 -25 750 465 
Q 384 956 384 1778 
Q 384 2603 750 3093 
Q 1116 3584 1728 3584 
Q 2066 3584 2300 3450 
Q 2534 3316 2681 3034 
L 2681 3488 
L 3256 3488 
L 3256 225 
z
" transform="scale(0.015625)"/>
      </defs>
      <use xlink:href="#Menlo-Regular-79"/>
      <use xlink:href="#Menlo-Regular-20" transform="translate(60.205078 0)"/>
      <use xlink:href="#Menlo-Regular-3d" transform="translate(120.410156 0)"/>
      <use xlink:href="#Menlo-Regular-20" transform="translate(180.615234 0)"/>
      <use xlink:href="#Menlo-Regular-66" transform="translate(240.820312 0)"/>
      <use xlink:href="#Menlo-Regular-5f" transform="translate(301.025391 0)"/>
      <use xlink:href="#Menlo-Regular-3b3" transform="translate(361.230469 0)"/>
      <use xlink:href="#Menlo-Regular-20" transform="translate(421.435547 0)"/>
      <use xlink:href="#Menlo-Regular-28" transform="translate(481.640625 0)"/>
      <use xlink:href="#Menlo-Regular-31" transform="translate(541.845703 0)"/>
      <use xlink:href="#Menlo-Regular-20" transform="translate(602.050781 0)"/>
      <use xlink:href="#Menlo-Regular-73" transform="translate(662.255859 0)"/>
      <use xlink:href="#Menlo-Regular-70" transform="translate(722.460938 0)"/>
      <use xlink:href="#Menlo-Regular-69" transform="translate(782.666016 0)"/>
      <use xlink:href="#Menlo-Regular-6b" transform="translate(842.871094 0)"/>
      <use xlink:href="#Menlo-Regular-65" transform="translate(903.076172 0)"/>
      <use xlink:href="#Menlo-Regular-20" transform="translate(963.28125 0)"/>
      <use xlink:href="#Menlo-Regular-2f" transform="translate(1023.486328 0)"/>
      <use xlink:href="#Menlo-Regular-20" transform="translate(1083.691406 0)"/>
      <use xlink:href="#Menlo-Regular-63" transform="translate(1143.896484 0)"/>
      <use xlink:href="#Menlo-Regular-79" transform="translate(1204.101562 0)"/>
      <use xlink:href="#Menlo-Regular-63" transform="translate(1264.306641 0)"/>
      <use xlink:href="#Menlo-Regular-6c" transform="translate(1324.511719 0)"/>
      <use xlink:href="#Menlo-Regular-65" transform="translate(1384.716797 0)"/>
      <use xlink:href="#Menlo-Regular-20" transform="translate(1444.921875 0)"/>
      <use xlink:href="#Menlo-Regular-63" transform="translate(1505.126953 0)"/>
      <use xlink:href="#Menlo-Regular-65" transform="translate(1565.332031 0)"/>
      <use xlink:href="#Menlo-Regular-69" transform="translate(1625.537109 0)"/>
      <use xlink:href="#Menlo-Regular-6c" transform="translate(1685.742188 0)"/>
      <use xlink:href="#Menlo-Regular-69" transform="translate(1745.947266 0)"/>
      <use xlink:href="#Menlo-Regular-6e" transform="translate(1806.152344 0)"/>
      <use xlink:href="#Menlo-Regular-67" transform="translate(1866.357422 0)"/>
      <use xlink:href="#Menlo-Regular-29" transform="translate(1926.5625 0)"/>
     </g>
    </g>
    <g id="line2d_28">
     <path d="M 31.433438 42.189844 
L 37.033438 42.189844 
L 42.633438 42.189844 
" style="fill: none; stroke-dasharray: 1,1.65; stroke-dashoffset: 0; stroke: #666666"/>
    </g>
    <g id="text_18">
     <!-- y = 0.20 · f_γ (exp041 slope p) -->
     <g style="fill: #1a1a1a" transform="translate(48.233438 44.639844) scale(0.07 -0.07)">
      <defs>
       <path id="Menlo-Regular-b7" d="M 1528 2700 
L 2316 2700 
L 2316 1747 
L 1528 1747 
L 1528 2700 
z
" transform="scale(0.015625)"/>
       <path id="Menlo-Regular-6f" d="M 1925 3097 
Q 1488 3097 1263 2756 
Q 1038 2416 1038 1747 
Q 1038 1081 1263 739 
Q 1488 397 1925 397 
Q 2366 397 2591 739 
Q 2816 1081 2816 1747 
Q 2816 2416 2591 2756 
Q 2366 3097 1925 3097 
z
M 1925 3584 
Q 2653 3584 3039 3112 
Q 3425 2641 3425 1747 
Q 3425 850 3040 379 
Q 2656 -91 1925 -91 
Q 1197 -91 812 379 
Q 428 850 428 1747 
Q 428 2641 812 3112 
Q 1197 3584 1925 3584 
z
" transform="scale(0.015625)"/>
      </defs>
      <use xlink:href="#Menlo-Regular-79"/>
      <use xlink:href="#Menlo-Regular-20" transform="translate(60.205078 0)"/>
      <use xlink:href="#Menlo-Regular-3d" transform="translate(120.410156 0)"/>
      <use xlink:href="#Menlo-Regular-20" transform="translate(180.615234 0)"/>
      <use xlink:href="#Menlo-Regular-30" transform="translate(240.820312 0)"/>
      <use xlink:href="#Menlo-Regular-2e" transform="translate(301.025391 0)"/>
      <use xlink:href="#Menlo-Regular-32" transform="translate(361.230469 0)"/>
      <use xlink:href="#Menlo-Regular-30" transform="translate(421.435547 0)"/>
      <use xlink:href="#Menlo-Regular-20" transform="translate(481.640625 0)"/>
      <use xlink:href="#Menlo-Regular-b7" transform="translate(541.845703 0)"/>
      <use xlink:href="#Menlo-Regular-20" transform="translate(602.050781 0)"/>
      <use xlink:href="#Menlo-Regular-66" transform="translate(662.255859 0)"/>
      <use xlink:href="#Menlo-Regular-5f" transform="translate(722.460938 0)"/>
      <use xlink:href="#Menlo-Regular-3b3" transform="translate(782.666016 0)"/>
      <use xlink:href="#Menlo-Regular-20" transform="translate(842.871094 0)"/>
      <use xlink:href="#Menlo-Regular-28" transform="translate(903.076172 0)"/>
      <use xlink:href="#Menlo-Regular-65" transform="translate(963.28125 0)"/>
      <use xlink:href="#Menlo-Regular-78" transform="translate(1023.486328 0)"/>
      <use xlink:href="#Menlo-Regular-70" transform="translate(1083.691406 0)"/>
      <use xlink:href="#Menlo-Regular-30" transform="translate(1143.896484 0)"/>
      <use xlink:href="#Menlo-Regular-34" transform="translate(1204.101562 0)"/>
      <use xlink:href="#Menlo-Regular-31" transform="translate(1264.306641 0)"/>
      <use xlink:href="#Menlo-Regular-20" transform="translate(1324.511719 0)"/>
      <use xlink:href="#Menlo-Regular-73" transform="translate(1384.716797 0)"/>
      <use xlink:href="#Menlo-Regular-6c" transform="translate(1444.921875 0)"/>
      <use xlink:href="#Menlo-Regular-6f" transform="translate(1505.126953 0)"/>
      <use xlink:href="#Menlo-Regular-70" transform="translate(1565.332031 0)"/>
      <use xlink:href="#Menlo-Regular-65" transform="translate(1625.537109 0)"/>
      <use xlink:href="#Menlo-Regular-20" transform="translate(1685.742188 0)"/>
      <use xlink:href="#Menlo-Regular-70" transform="translate(1745.947266 0)"/>
      <use xlink:href="#Menlo-Regular-29" transform="translate(1806.152344 0)"/>
     </g>
    </g>
   </g>
  </g>
  <g id="text_19">
   <!-- replot -->
   <g style="fill: #888888" transform="translate(371.038219 217.114203) scale(0.065 -0.065)">
    <use xlink:href="#Menlo-Regular-72"/>
    <use xlink:href="#Menlo-Regular-65" transform="translate(60.205078 0)"/>
    <use xlink:href="#Menlo-Regular-70" transform="translate(120.410156 0)"/>
    <use xlink:href="#Menlo-Regular-6c" transform="translate(180.615234 0)"/>
    <use xlink:href="#Menlo-Regular-6f" transform="translate(240.820312 0)"/>
    <use xlink:href="#Menlo-Regular-74" transform="translate(301.025391 0)"/>
   </g>
  </g>
 </g>
 <defs>
  <clipPath id="pfe8ec648fe">
   <rect x="25.133438" y="1.44" width="362.76" height="187.62"/>
  </clipPath>
 </defs>
</svg>
