<?xml version="1.0" encoding="utf-8" standalone="no"?>
<!DOCTYPE svg PUBLIC "-//W3C//DTD SVG 1.1//EN"
  "http://www.w3.org/Graphics/SVG/1.1/DTD/svg11.dtd">
<svg xmlns:xlink="http://www.w3.org/1999/xlink" width="454.001094pt" height="279.441875pt" viewBox="0 0 454.001094 279.441875" xmlns="http://www.w3.org/2000/svg" version="1.1">
 <metadata>
  <rdf:RDF xmlns:dc="http://purl.org/dc/elements/1.1/" xmlns:cc="http://creativecommons.org/ns#" xmlns:rdf="http://www.w3.org/1999/02/22-rdf-syntax-ns#">
   <cc:Work>
    <dc:type rdf:resource="http://purl.org/dc/dcmitype/StillImage"/>
    <dc:date>2026-08-22T20:36:29.922195</dc:date>
    <dc:format>image/svg+xml</dc:format>
    <dc:creator>
     <cc:Agent>
      <dc:title>Matplotlib v3.10.8, https://matplotlib.org/</dc:title>
     </cc:Agent>
    </dc:creator>
   </cc:Work>
  </rdf:RDF>
 </metadata>
 <defs>
  <style type="text/css">*{stroke-linejoin: round; stroke-linecap: butt}</style>
 </defs>
 <g id="figure_1">
  <g id="patch_1">
   <path d="M 0 279.441875 
L 454.001094 279.441875 
L 454.001094 0 
L 0 0 
z
" style="fill: #ffffff"/>
  </g>
  <g id="axes_1">
   <g id="patch_2">
    <path d="M 40.661094 120.760909 
L 446.801094 120.760909 
L 446.801094 7.2 
L 40.661094 7.2 
z
" style="fill: #ffffff"/>
   </g>
   <g id="matplotlib.axis_1">
    <g id="xtick_1">
     <g id="line2d_1">
      <defs>
       <path id="mdbdbbf681e" d="M 0 0 
L 0 -4 
" style="stroke: #1a1a1a"/>
      </defs>
      <g>
       <use xlink:href="#mdbdbbf681e" x="59.122003" y="120.760909" style="fill: #1a1a1a; stroke: #1a1a1a"/>
      </g>
     </g>
    </g>
    <g id="xtick_2">
     <g id="line2d_2">
      <g>
       <use xlink:href="#mdbdbbf681e" x="105.297363" y="120.760909" style="fill: #1a1a1a; stroke: #1a1a1a"/>
      </g>
     </g>
    </g>
    <g id="xtick_3">
     <g id="line2d_3">
      <g>
       <use xlink:href="#mdbdbbf681e" x="151.472724" y="120.760909" style="fill: #1a1a1a; stroke: #1a1a1a"/>
      </g>
     </g>
    </g>
    <g id="xtick_4">
     <g id="line2d_4">
      <g>
       <use xlink:href="#mdbdbbf681e" x="197.648084" y="120.760909" style="fill: #1a1a1a; stroke: #1a1a1a"/>
      </g>
     </g>
    </g>
    <g id="xtick_5">
     <g id="line2d_5">
      <g>
       <use xlink:href="#mdbdbbf681e" x="243.823444" y="120.760909" style="fill: #1a1a1a; stroke: #1a1a1a"/>
      </g>
     </g>
    </g>
    <g id="xtick_6">
     <g id="line2d_6">
      <g>
       <use xlink:href="#mdbdbbf681e" x="289.998805" y="120.760909" style="fill: #1a1a1a; stroke: #1a1a1a"/>
      </g>
     </g>
    </g>
    <g id="xtick_7">
     <g id="line2d_7">
      <g>
       <use xlink:href="#mdbdbbf681e" x="336.174165" y="120.760909" style="fill: #1a1a1a; stroke: #1a1a1a"/>
      </g>
     </g>
    </g>
    <g id="xtick_8">
     <g id="line2d_8">
      <g>
       <use xlink:href="#mdbdbbf681e" x="382.349526" y="120.760909" style="fill: #1a1a1a; stroke: #1a1a1a"/>
      </g>
     </g>
    </g>
    <g id="xtick_9">
     <g id="line2d_9">
      <g>
       <use xlink:href="#mdbdbbf681e" x="428.524886" y="120.760909" style="fill: #1a1a1a; stroke: #1a1a1a"/>
      </g>
     </g>
    </g>
   </g>
   <g id="matplotlib.axis_2">
    <g id="ytick_1">
     <g id="line2d_10">
      <defs>
       <path id="ma7a863de0f" d="M 0 0 
L 4 0 
" style="stroke: #1a1a1a"/>
      </defs>
      <g>
       <use xlink:href="#ma7a863de0f" x="40.661094" y="115.59905" style="fill: #1a1a1a; stroke: #1a1a1a"/>
      </g>
     </g>
     <g id="text_1">
      <!-- 0.0 -->
      <g style="fill: #1a1a1a" transform="translate(20.90625 119.031003) scale(0.09 -0.09)">
       <defs>
        <path id="Menlo-Regular-30" d="M 1925 4734 
Q 2672 4734 3055 4125 
Q 3438 3516 3438 2322 
Q 3438 1128 3055 518 
Q 2672 -91 1925 -91 
Q 1178 -91 797 518 
Q 416 1128 416 2322 
Q 416 3516 797 4125 
Q 1178 4734 1925 4734 
z
M 1925 409 
Q 2369 409 2586 881 
Q 2803 1353 2803 2322 
Q 2803 2838 2741 3253 
L 1253 925 
Q 1488 409 1925 409 
z
M 1925 4234 
Q 1484 4234 1267 3762 
Q 1050 3291 1050 2322 
Q 1050 1881 1109 1497 
L 2566 3819 
Q 2328 4234 1925 4234 
z
" transform="scale(0.015625)"/>
        <path id="Menlo-Regular-2e" d="M 1216 1263 
L 2316 1263 
L 2316 0 
L 1216 0 
L 1216 1263 
z
" transform="scale(0.015625)"/>
       </defs>
       <use xlink:href="#Menlo-Regular-30"/>
       <use xlink:href="#Menlo-Regular-2e" transform="translate(60.205078 0)"/>
       <use xlink:href="#Menlo-Regular-30" transform="translate(120.410156 0)"/>
      </g>
     </g>
    </g>
    <g id="ytick_2">
     <g id="line2d_11">
      <g>
       <use xlink:href="#ma7a863de0f" x="40.661094" y="94.951612" style="fill: #1a1a1a; stroke: #1a1a1a"/>
      </g>
     </g>
     <g id="text_2">
      <!-- 0.2 -->
      <g style="fill: #1a1a1a" transform="translate(20.90625 98.383565) scale(0.09 -0.09)">
       <defs>
        <path id="Menlo-Regular-32" d="M 1166 531 
L 3309 531 
L 3309 0 
L 475 0 
L 475 531 
Q 1059 1147 1496 1619 
Q 1934 2091 2100 2284 
Q 2413 2666 2522 2902 
Q 2631 3138 2631 3384 
Q 2631 3775 2401 3997 
Q 2172 4219 1772 4219 
Q 1488 4219 1175 4116 
Q 863 4013 513 3803 
L 513 4441 
Q 834 4594 1145 4672 
Q 1456 4750 1759 4750 
Q 2444 4750 2861 4386 
Q 3278 4022 3278 3431 
Q 3278 3131 3139 2831 
Q 3000 2531 2688 2169 
Q 2513 1966 2180 1606 
Q 1847 1247 1166 531 
z
" transform="scale(0.015625)"/>
       </defs>
       <use xlink:href="#Menlo-Regular-30"/>
       <use xlink:href="#Menlo-Regular-2e" transform="translate(60.205078 0)"/>
       <use xlink:href="#Menlo-Regular-32" transform="translate(120.410156 0)"/>
      </g>
     </g>
    </g>
    <g id="ytick_3">
     <g id="line2d_12">
      <g>
       <use xlink:href="#ma7a863de0f" x="40.661094" y="74.304174" style="fill: #1a1a1a; stroke: #1a1a1a"/>
      </g>
     </g>
     <g id="text_3">
      <!-- 0.4 -->
      <g style="fill: #1a1a1a" transform="translate(20.90625 77.736127) scale(0.09 -0.09)">
       <defs>
        <path id="Menlo-Regular-34" d="M 2297 4091 
L 825 1625 
L 2297 1625 
L 2297 4091 
z
M 2194 4666 
L 2925 4666 
L 2925 1625 
L 3547 1625 
L 3547 1113 
L 2925 1113 
L 2925 0 
L 2297 0 
L 2297 1113 
L 319 1113 
L 319 1709 
L 2194 4666 
z
" transform="scale(0.015625)"/>
       </defs>
       <use xlink:href="#Menlo-Regular-30"/>
       <use xlink:href="#Menlo-Regular-2e" transform="translate(60.205078 0)"/>
       <use xlink:href="#Menlo-Regular-34" transform="translate(120.410156 0)"/>
      </g>
     </g>
    </g>
    <g id="ytick_4">
     <g id="line2d_13">
      <g>
       <use xlink:href="#ma7a863de0f" x="40.661094" y="53.656736" style="fill: #1a1a1a; stroke: #1a1a1a"/>
      </g>
     </g>
     <g id="text_4">
      <!-- 0.6 -->
      <g style="fill: #1a1a1a" transform="translate(20.90625 57.088689) scale(0.09 -0.09)">
       <defs>
        <path id="Menlo-Regular-36" d="M 3097 4563 
L 3097 3981 
Q 2900 4097 2678 4158 
Q 2456 4219 2216 4219 
Q 1616 4219 1306 3767 
Q 997 3316 997 2438 
Q 1147 2750 1412 2917 
Q 1678 3084 2022 3084 
Q 2697 3084 3067 2670 
Q 3438 2256 3438 1497 
Q 3438 741 3056 325 
Q 2675 -91 1984 -91 
Q 1172 -91 794 492 
Q 416 1075 416 2328 
Q 416 3509 870 4129 
Q 1325 4750 2188 4750 
Q 2419 4750 2650 4701 
Q 2881 4653 3097 4563 
z
M 1972 2591 
Q 1569 2591 1337 2300 
Q 1106 2009 1106 1497 
Q 1106 984 1337 693 
Q 1569 403 1972 403 
Q 2391 403 2603 679 
Q 2816 956 2816 1497 
Q 2816 2041 2603 2316 
Q 2391 2591 1972 2591 
z
" transform="scale(0.015625)"/>
       </defs>
       <use xlink:href="#Menlo-Regular-30"/>
       <use xlink:href="#Menlo-Regular-2e" transform="translate(60.205078 0)"/>
       <use xlink:href="#Menlo-Regular-36" transform="translate(120.410156 0)"/>
      </g>
     </g>
    </g>
    <g id="ytick_5">
     <g id="line2d_14">
      <g>
       <use xlink:href="#ma7a863de0f" x="40.661094" y="33.009298" style="fill: #1a1a1a; stroke: #1a1a1a"/>
      </g>
     </g>
     <g id="text_5">
      <!-- 0.8 -->
      <g style="fill: #1a1a1a" transform="translate(20.90625 36.441251) scale(0.09 -0.09)">
       <defs>
        <path id="Menlo-Regular-38" d="M 1925 2216 
Q 1503 2216 1273 1980 
Q 1044 1744 1044 1313 
Q 1044 881 1276 642 
Q 1509 403 1925 403 
Q 2350 403 2579 639 
Q 2809 875 2809 1313 
Q 2809 1741 2576 1978 
Q 2344 2216 1925 2216 
z
M 1375 2478 
Q 972 2581 745 2862 
Q 519 3144 519 3541 
Q 519 4097 897 4423 
Q 1275 4750 1925 4750 
Q 2578 4750 2956 4423 
Q 3334 4097 3334 3541 
Q 3334 3144 3107 2862 
Q 2881 2581 2478 2478 
Q 2947 2375 3195 2062 
Q 3444 1750 3444 1253 
Q 3444 622 3041 265 
Q 2638 -91 1925 -91 
Q 1213 -91 811 264 
Q 409 619 409 1247 
Q 409 1747 657 2061 
Q 906 2375 1375 2478 
z
M 1147 3481 
Q 1147 3106 1347 2909 
Q 1547 2713 1925 2713 
Q 2306 2713 2506 2909 
Q 2706 3106 2706 3481 
Q 2706 3863 2507 4063 
Q 2309 4263 1925 4263 
Q 1547 4263 1347 4061 
Q 1147 3859 1147 3481 
z
" transform="scale(0.015625)"/>
       </defs>
       <use xlink:href="#Menlo-Regular-30"/>
       <use xlink:href="#Menlo-Regular-2e" transform="translate(60.205078 0)"/>
       <use xlink:href="#Menlo-Regular-38" transform="translate(120.410156 0)"/>
      </g>
     </g>
    </g>
    <g id="ytick_6">
     <g id="line2d_15">
      <g>
       <use xlink:href="#ma7a863de0f" x="40.661094" y="12.36186" style="fill: #1a1a1a; stroke: #1a1a1a"/>
      </g>
     </g>
     <g id="text_6">
      <!-- 1.0 -->
      <g style="fill: #1a1a1a" transform="translate(20.90625 15.793813) scale(0.09 -0.09)">
       <defs>
        <path id="Menlo-Regular-31" d="M 844 528 
L 1825 528 
L 1825 4053 
L 650 3488 
L 650 4094 
L 1819 4650 
L 2450 4650 
L 2450 528 
L 3419 528 
L 3419 0 
L 844 0 
L 844 528 
z
" transform="scale(0.015625)"/>
       </defs>
       <use xlink:href="#Menlo-Regular-31"/>
       <use xlink:href="#Menlo-Regular-2e" transform="translate(60.205078 0)"/>
       <use xlink:href="#Menlo-Regular-30" transform="translate(120.410156 0)"/>
      </g>
     </g>
    </g>
    <g id="text_7">
     <!-- softmax class share -->
     <g style="fill: #1a1a1a" transform="translate(14.826563 121.173423) rotate(-90) scale(0.1 -0.1)">
      <defs>
       <path id="Menlo-Regular-73" d="M 3041 3378 
L 3041 2816 
Q 2794 2959 2544 3031 
Q 2294 3103 2034 3103 
Q 1644 3103 1451 2976 
Q 1259 2850 1259 2591 
Q 1259 2356 1403 2240 
Q 1547 2125 2119 2016 
L 2350 1972 
Q 2778 1891 2998 1647 
Q 3219 1403 3219 1013 
Q 3219 494 2850 201 
Q 2481 -91 1825 -91 
Q 1566 -91 1281 -36 
Q 997 19 666 128 
L 666 722 
Q 988 556 1281 473 
Q 1575 391 1838 391 
Q 2219 391 2428 545 
Q 2638 700 2638 978 
Q 2638 1378 1872 1531 
L 1847 1538 
L 1631 1581 
Q 1134 1678 906 1908 
Q 678 2138 678 2534 
Q 678 3038 1018 3311 
Q 1359 3584 1991 3584 
Q 2272 3584 2531 3532 
Q 2791 3481 3041 3378 
z
" transform="scale(0.015625)"/>
       <path id="Menlo-Regular-6f" d="M 1925 3097 
Q 1488 3097 1263 2756 
Q 1038 2416 1038 1747 
Q 1038 1081 1263 739 
Q 1488 397 1925 397 
Q 2366 397 2591 739 
Q 2816 1081 2816 1747 
Q 2816 2416 2591 2756 
Q 2366 3097 1925 3097 
z
M 1925 3584 
Q 2653 3584 3039 3112 
Q 3425 2641 3425 1747 
Q 3425 850 3040 379 
Q 2656 -91 1925 -91 
Q 1197 -91 812 379 
Q 428 850 428 1747 
Q 428 2641 812 3112 
Q 1197 3584 1925 3584 
z
" transform="scale(0.015625)"/>
       <path id="Menlo-Regular-66" d="M 3322 4863 
L 3322 4384 
L 2669 4384 
Q 2359 4384 2239 4257 
Q 2119 4131 2119 3809 
L 2119 3500 
L 3322 3500 
L 3322 3053 
L 2119 3053 
L 2119 0 
L 1544 0 
L 1544 3053 
L 609 3053 
L 609 3500 
L 1544 3500 
L 1544 3744 
Q 1544 4319 1808 4591 
Q 2072 4863 2631 4863 
L 3322 4863 
z
" transform="scale(0.015625)"/>
       <path id="Menlo-Regular-74" d="M 1919 4494 
L 1919 3500 
L 3225 3500 
L 3225 3053 
L 1919 3053 
L 1919 1153 
Q 1919 766 2066 612 
Q 2213 459 2578 459 
L 3225 459 
L 3225 0 
L 2522 0 
Q 1875 0 1609 259 
Q 1344 519 1344 1153 
L 1344 3053 
L 409 3053 
L 409 3500 
L 1344 3500 
L 1344 4494 
L 1919 4494 
z
" transform="scale(0.015625)"/>
       <path id="Menlo-Regular-6d" d="M 2113 3144 
Q 2219 3369 2383 3476 
Q 2547 3584 2778 3584 
Q 3200 3584 3373 3257 
Q 3547 2931 3547 2028 
L 3547 0 
L 3022 0 
L 3022 2003 
Q 3022 2744 2939 2923 
Q 2856 3103 2638 3103 
Q 2388 3103 2295 2911 
Q 2203 2719 2203 2003 
L 2203 0 
L 1678 0 
L 1678 2003 
Q 1678 2753 1589 2928 
Q 1500 3103 1269 3103 
Q 1041 3103 952 2911 
Q 863 2719 863 2003 
L 863 0 
L 341 0 
L 341 3500 
L 863 3500 
L 863 3200 
Q 966 3388 1120 3486 
Q 1275 3584 1472 3584 
Q 1709 3584 1867 3475 
Q 2025 3366 2113 3144 
z
" transform="scale(0.015625)"/>
       <path id="Menlo-Regular-61" d="M 2194 1759 
L 2003 1759 
Q 1500 1759 1245 1582 
Q 991 1406 991 1056 
Q 991 741 1181 566 
Q 1372 391 1709 391 
Q 2184 391 2456 720 
Q 2728 1050 2731 1631 
L 2731 1759 
L 2194 1759 
z
M 3309 1997 
L 3309 0 
L 2731 0 
L 2731 519 
Q 2547 206 2267 57 
Q 1988 -91 1588 -91 
Q 1053 -91 734 211 
Q 416 513 416 1019 
Q 416 1603 808 1906 
Q 1200 2209 1959 2209 
L 2731 2209 
L 2731 2300 
Q 2728 2719 2518 2908 
Q 2309 3097 1850 3097 
Q 1556 3097 1256 3012 
Q 956 2928 672 2766 
L 672 3341 
Q 991 3463 1283 3523 
Q 1575 3584 1850 3584 
Q 2284 3584 2592 3456 
Q 2900 3328 3091 3072 
Q 3209 2916 3259 2686 
Q 3309 2456 3309 1997 
z
" transform="scale(0.015625)"/>
       <path id="Menlo-Regular-78" d="M 3494 3500 
L 2241 1825 
L 3616 0 
L 2950 0 
L 1925 1403 
L 903 0 
L 238 0 
L 1613 1825 
L 359 3500 
L 997 3500 
L 1925 2234 
L 2847 3500 
L 3494 3500 
z
" transform="scale(0.015625)"/>
       <path id="Menlo-Regular-20" transform="scale(0.015625)"/>
       <path id="Menlo-Regular-63" d="M 3316 178 
Q 3084 44 2839 -23 
Q 2594 -91 2338 -91 
Q 1525 -91 1067 396 
Q 609 884 609 1747 
Q 609 2609 1067 3096 
Q 1525 3584 2338 3584 
Q 2591 3584 2831 3518 
Q 3072 3453 3316 3316 
L 3316 2713 
Q 3088 2916 2858 3006 
Q 2628 3097 2338 3097 
Q 1797 3097 1506 2747 
Q 1216 2397 1216 1747 
Q 1216 1100 1508 748 
Q 1800 397 2338 397 
Q 2638 397 2875 489 
Q 3113 581 3316 775 
L 3316 178 
z
" transform="scale(0.015625)"/>
       <path id="Menlo-Regular-6c" d="M 2247 1266 
Q 2247 878 2389 681 
Q 2531 484 2809 484 
L 3481 484 
L 3481 0 
L 2753 0 
Q 2238 0 1955 329 
Q 1672 659 1672 1266 
L 1672 4431 
L 750 4431 
L 750 4881 
L 2247 4881 
L 2247 1266 
z
" transform="scale(0.015625)"/>
       <path id="Menlo-Regular-68" d="M 3284 2169 
L 3284 0 
L 2706 0 
L 2706 2169 
Q 2706 2641 2540 2862 
Q 2375 3084 2022 3084 
Q 1619 3084 1401 2798 
Q 1184 2513 1184 1978 
L 1184 0 
L 609 0 
L 609 4863 
L 1184 4863 
L 1184 2975 
Q 1338 3275 1600 3429 
Q 1863 3584 2222 3584 
Q 2756 3584 3020 3232 
Q 3284 2881 3284 2169 
z
" transform="scale(0.015625)"/>
       <path id="Menlo-Regular-72" d="M 3609 2778 
Q 3425 2922 3234 2987 
Q 3044 3053 2816 3053 
Q 2278 3053 1993 2715 
Q 1709 2378 1709 1741 
L 1709 0 
L 1131 0 
L 1131 3500 
L 1709 3500 
L 1709 2816 
Q 1853 3188 2151 3386 
Q 2450 3584 2859 3584 
Q 3072 3584 3256 3531 
Q 3441 3478 3609 3366 
L 3609 2778 
z
" transform="scale(0.015625)"/>
       <path id="Menlo-Regular-65" d="M 3500 2038 
L 3500 1756 
L 1009 1756 
L 1009 1738 
Q 984 1022 1282 709 
Q 1581 397 2125 397 
Q 2400 397 2700 484 
Q 3000 572 3341 750 
L 3341 178 
Q 3013 44 2708 -23 
Q 2403 -91 2119 -91 
Q 1303 -91 843 398 
Q 384 888 384 1747 
Q 384 2584 834 3084 
Q 1284 3584 2034 3584 
Q 2703 3584 3089 3131 
Q 3475 2678 3500 2038 
z
M 2925 2206 
Q 2888 2569 2661 2833 
Q 2434 3097 2009 3097 
Q 1594 3097 1325 2822 
Q 1056 2547 1031 2203 
L 2925 2206 
z
" transform="scale(0.015625)"/>
      </defs>
      <use xlink:href="#Menlo-Regular-73"/>
      <use xlink:href="#Menlo-Regular-6f" transform="translate(60.205078 0)"/>
      <use xlink:href="#Menlo-Regular-66" transform="translate(120.410156 0)"/>
      <use xlink:href="#Menlo-Regular-74" transform="translate(180.615234 0)"/>
      <use xlink:href="#Menlo-Regular-6d" transform="translate(240.820312 0)"/>
      <use xlink:href="#Menlo-Regular-61" transform="translate(301.025391 0)"/>
      <use xlink:href="#Menlo-Regular-78" transform="translate(361.230469 0)"/>
      <use xlink:href="#Menlo-Regular-20" transform="translate(421.435547 0)"/>
      <use xlink:href="#Menlo-Regular-63" transform="translate(481.640625 0)"/>
      <use xlink:href="#Menlo-Regular-6c" transform="translate(541.845703 0)"/>
      <use xlink:href="#Menlo-Regular-61" transform="translate(602.050781 0)"/>
      <use xlink:href="#Menlo-Regular-73" transform="translate(662.255859 0)"/>
      <use xlink:href="#Menlo-Regular-73" transform="translate(722.460938 0)"/>
      <use xlink:href="#Menlo-Regular-20" transform="translate(782.666016 0)"/>
      <use xlink:href="#Menlo-Regular-73" transform="translate(842.871094 0)"/>
      <use xlink:href="#Menlo-Regular-68" transform="translate(903.076172 0)"/>
      <use xlink:href="#Menlo-Regular-61" transform="translate(963.28125 0)"/>
      <use xlink:href="#Menlo-Regular-72" transform="translate(1023.486328 0)"/>
      <use xlink:href="#Menlo-Regular-65" transform="translate(1083.691406 0)"/>
     </g>
    </g>
   </g>
   <g id="line2d_16">
    <path d="M 59.122003 105.27533 
L 65.21715 105.27533 
L 65.401852 100.504562 
L 428.340185 100.504562 
L 428.340185 100.504562 
" clip-path="url(#p209986daf7)" style="fill: none; stroke: #6a6a6a; stroke-opacity: 0.45; stroke-width: 0.6; stroke-linejoin: miter"/>
   </g>
   <g id="line2d_17">
    <path d="M 59.122003 105.27533 
L 65.21715 105.27533 
L 65.401852 110.046098 
L 428.340185 110.046098 
L 428.340185 110.046098 
" clip-path="url(#p209986daf7)" style="fill: none; stroke: #6a6a6a; stroke-opacity: 0.45; stroke-width: 0.6; stroke-linejoin: miter"/>
   </g>
   <g id="line2d_18">
    <path d="M 59.122003 105.27533 
L 65.21715 105.27533 
L 65.401852 110.046098 
L 428.340185 110.046098 
L 428.340185 110.046098 
" clip-path="url(#p209986daf7)" style="fill: none; stroke: #6a6a6a; stroke-opacity: 0.45; stroke-width: 0.6; stroke-linejoin: miter"/>
   </g>
   <g id="line2d_19">
    <path d="M 59.122003 105.27533 
L 65.21715 105.27533 
L 65.401852 100.504562 
L 428.340185 100.504562 
L 428.340185 100.504562 
" clip-path="url(#p209986daf7)" style="fill: none; stroke: #6a6a6a; stroke-opacity: 0.45; stroke-width: 0.6; stroke-linejoin: miter"/>
   </g>
   <g id="line2d_20">
    <path d="M 59.122003 105.27533 
L 65.21715 105.27533 
L 65.401852 100.504562 
L 428.340185 100.504562 
L 428.340185 100.504562 
" clip-path="url(#p209986daf7)" style="fill: none; stroke: #6a6a6a; stroke-opacity: 0.45; stroke-width: 0.6; stroke-linejoin: miter"/>
   </g>
   <g id="line2d_21">
    <path d="M 59.122003 105.27533 
L 65.21715 105.27533 
L 65.401852 110.046098 
L 428.340185 110.046098 
L 428.340185 110.046098 
" clip-path="url(#p209986daf7)" style="fill: none; stroke: #6a6a6a; stroke-opacity: 0.45; stroke-width: 0.6; stroke-linejoin: miter"/>
   </g>
   <g id="line2d_22">
    <path d="M 59.122003 105.27533 
L 65.21715 105.27533 
L 65.401852 110.046098 
L 428.340185 110.046098 
L 428.340185 110.046098 
" clip-path="url(#p209986daf7)" style="fill: none; stroke: #6a6a6a; stroke-opacity: 0.45; stroke-width: 0.6; stroke-linejoin: miter"/>
   </g>
   <g id="line2d_23">
    <path d="M 59.122003 105.27533 
L 65.21715 105.27533 
L 65.401852 100.504562 
L 428.340185 100.504562 
L 428.340185 100.504562 
" clip-path="url(#p209986daf7)" style="fill: none; stroke: #6a6a6a; stroke-opacity: 0.45; stroke-width: 0.6; stroke-linejoin: miter"/>
   </g>
   <g id="line2d_24">
    <path d="M 59.122003 105.27533 
L 65.21715 105.27533 
L 65.401852 100.504562 
L 428.340185 100.504562 
L 428.340185 100.504562 
" clip-path="url(#p209986daf7)" style="fill: none; stroke: #6a6a6a; stroke-opacity: 0.45; stroke-width: 0.6; stroke-linejoin: miter"/>
   </g>
   <g id="line2d_25">
    <path d="M 59.122003 105.27533 
L 65.21715 105.27533 
L 65.401852 110.046098 
L 428.340185 110.046098 
L 428.340185 110.046098 
" clip-path="url(#p209986daf7)" style="fill: none; stroke: #6a6a6a; stroke-opacity: 0.45; stroke-width: 0.6; stroke-linejoin: miter"/>
   </g>
   <g id="line2d_26">
    <path d="M 59.122003 105.27533 
L 65.21715 105.27533 
L 65.401852 100.504562 
L 428.340185 100.504562 
L 428.340185 100.504562 
" clip-path="url(#p209986daf7)" style="fill: none; stroke: #c8102e; stroke-width: 1.8; stroke-linejoin: miter"/>
   </g>
   <g id="line2d_27">
    <path d="M 40.661094 63.980455 
L 446.801094 63.980455 
" clip-path="url(#p209986daf7)" style="fill: none; stroke-dasharray: 2.22,0.96; stroke-dashoffset: 0; stroke: #a0a0a0; stroke-width: 0.6"/>
   </g>
   <g id="patch_3">
    <path d="M 40.661094 120.760909 
L 40.661094 7.2 
" style="fill: none; stroke: #1a1a1a; stroke-width: 1.4; stroke-linejoin: miter; stroke-linecap: square"/>
   </g>
   <g id="patch_4">
    <path d="M 40.661094 120.760909 
L 446.801094 120.760909 
" style="fill: none; stroke: #1a1a1a; stroke-width: 1.4; stroke-linejoin: miter; stroke-linecap: square"/>
   </g>
   <g id="text_8">
    <!-- COBA -->
    <g transform="translate(44.722494 23.157154) scale(0.105 -0.105)">
     <defs>
      <path id="Menlo-Regular-43" d="M 3353 166 
Q 3113 38 2859 -26 
Q 2606 -91 2322 -91 
Q 1425 -91 929 543 
Q 434 1178 434 2328 
Q 434 3472 932 4111 
Q 1431 4750 2322 4750 
Q 2606 4750 2859 4686 
Q 3113 4622 3353 4494 
L 3353 3847 
Q 3122 4038 2856 4138 
Q 2591 4238 2322 4238 
Q 1706 4238 1400 3763 
Q 1094 3288 1094 2328 
Q 1094 1372 1400 897 
Q 1706 422 2322 422 
Q 2597 422 2861 522 
Q 3125 622 3353 813 
L 3353 166 
z
" transform="scale(0.015625)"/>
      <path id="Menlo-Regular-4f" d="M 2828 2328 
Q 2828 3356 2617 3797 
Q 2406 4238 1925 4238 
Q 1447 4238 1236 3797 
Q 1025 3356 1025 2328 
Q 1025 1303 1236 862 
Q 1447 422 1925 422 
Q 2406 422 2617 861 
Q 2828 1300 2828 2328 
z
M 3488 2328 
Q 3488 1109 3102 509 
Q 2716 -91 1925 -91 
Q 1134 -91 750 506 
Q 366 1103 366 2328 
Q 366 3550 752 4150 
Q 1138 4750 1925 4750 
Q 2716 4750 3102 4150 
Q 3488 3550 3488 2328 
z
" transform="scale(0.015625)"/>
      <path id="Menlo-Regular-42" d="M 1153 2353 
L 1153 519 
L 1900 519 
Q 2450 519 2684 711 
Q 2919 903 2919 1344 
Q 2919 1925 2672 2139 
Q 2425 2353 1900 2353 
L 1153 2353 
z
M 1153 4147 
L 1153 2866 
L 1888 2866 
Q 2344 2866 2548 3041 
Q 2753 3216 2753 3481 
Q 2753 3834 2551 3990 
Q 2350 4147 1888 4147 
L 1153 4147 
z
M 519 4666 
L 1900 4666 
Q 2616 4666 3003 4356 
Q 3391 4047 3391 3481 
Q 3391 3178 3186 2931 
Q 2981 2684 2572 2622 
Q 3031 2553 3292 2229 
Q 3553 1906 3553 1281 
Q 3553 647 3137 323 
Q 2722 0 1900 0 
L 519 0 
L 519 4666 
z
" transform="scale(0.015625)"/>
      <path id="Menlo-Regular-41" d="M 1925 4109 
L 1259 1722 
L 2591 1722 
L 1925 4109 
z
M 1544 4666 
L 2309 4666 
L 3738 0 
L 3084 0 
L 2741 1216 
L 1106 1216 
L 769 0 
L 116 0 
L 1544 4666 
z
" transform="scale(0.015625)"/>
     </defs>
     <use xlink:href="#Menlo-Regular-43"/>
     <use xlink:href="#Menlo-Regular-4f" transform="translate(60.205078 0)"/>
     <use xlink:href="#Menlo-Regular-42" transform="translate(120.410156 0)"/>
     <use xlink:href="#Menlo-Regular-41" transform="translate(180.615234 0)"/>
    </g>
   </g>
  </g>
  <g id="axes_2">
   <g id="patch_5">
    <path d="M 40.661094 246.3 
L 446.801094 246.3 
L 446.801094 132.739091 
L 40.661094 132.739091 
z
" style="fill: #ffffff"/>
   </g>
   <g id="matplotlib.axis_3">
    <g id="xtick_10">
     <g id="line2d_28">
      <g>
       <use xlink:href="#mdbdbbf681e" x="59.122003" y="246.3" style="fill: #1a1a1a; stroke: #1a1a1a"/>
      </g>
     </g>
     <g id="text_9">
      <!-- 0 -->
      <g style="fill: #1a1a1a" transform="translate(56.412862 256.663906) scale(0.09 -0.09)">
       <use xlink:href="#Menlo-Regular-30"/>
      </g>
     </g>
    </g>
    <g id="xtick_11">
     <g id="line2d_29">
      <g>
       <use xlink:href="#mdbdbbf681e" x="105.297363" y="246.3" style="fill: #1a1a1a; stroke: #1a1a1a"/>
      </g>
     </g>
     <g id="text_10">
      <!-- 25 -->
      <g style="fill: #1a1a1a" transform="translate(99.879082 256.663906) scale(0.09 -0.09)">
       <defs>
        <path id="Menlo-Regular-35" d="M 647 4666 
L 3009 4666 
L 3009 4134 
L 1222 4134 
L 1222 2988 
Q 1356 3038 1492 3061 
Q 1628 3084 1766 3084 
Q 2491 3084 2916 2656 
Q 3341 2228 3341 1497 
Q 3341 759 2895 334 
Q 2450 -91 1678 -91 
Q 1306 -91 998 -41 
Q 691 9 447 109 
L 447 750 
Q 734 594 1025 517 
Q 1316 441 1619 441 
Q 2141 441 2423 716 
Q 2706 991 2706 1497 
Q 2706 1997 2414 2275 
Q 2122 2553 1600 2553 
Q 1347 2553 1106 2495 
Q 866 2438 647 2322 
L 647 4666 
z
" transform="scale(0.015625)"/>
       </defs>
       <use xlink:href="#Menlo-Regular-32"/>
       <use xlink:href="#Menlo-Regular-35" transform="translate(60.205078 0)"/>
      </g>
     </g>
    </g>
    <g id="xtick_12">
     <g id="line2d_30">
      <g>
       <use xlink:href="#mdbdbbf681e" x="151.472724" y="246.3" style="fill: #1a1a1a; stroke: #1a1a1a"/>
      </g>
     </g>
     <g id="text_11">
      <!-- 50 -->
      <g style="fill: #1a1a1a" transform="translate(146.054442 256.663906) scale(0.09 -0.09)">
       <use xlink:href="#Menlo-Regular-35"/>
       <use xlink:href="#Menlo-Regular-30" transform="translate(60.205078 0)"/>
      </g>
     </g>
    </g>
    <g id="xtick_13">
     <g id="line2d_31">
      <g>
       <use xlink:href="#mdbdbbf681e" x="197.648084" y="246.3" style="fill: #1a1a1a; stroke: #1a1a1a"/>
      </g>
     </g>
     <g id="text_12">
      <!-- 75 -->
      <g style="fill: #1a1a1a" transform="translate(192.229803 256.663906) scale(0.09 -0.09)">
       <defs>
        <path id="Menlo-Regular-37" d="M 434 4666 
L 3372 4666 
L 3372 4397 
L 1703 0 
L 1044 0 
L 2669 4134 
L 434 4134 
L 434 4666 
z
" transform="scale(0.015625)"/>
       </defs>
       <use xlink:href="#Menlo-Regular-37"/>
       <use xlink:href="#Menlo-Regular-35" transform="translate(60.205078 0)"/>
      </g>
     </g>
    </g>
    <g id="xtick_14">
     <g id="line2d_32">
      <g>
       <use xlink:href="#mdbdbbf681e" x="243.823444" y="246.3" style="fill: #1a1a1a; stroke: #1a1a1a"/>
      </g>
     </g>
     <g id="text_13">
      <!-- 100 -->
      <g style="fill: #1a1a1a" transform="translate(235.696023 256.663906) scale(0.09 -0.09)">
       <use xlink:href="#Menlo-Regular-31"/>
       <use xlink:href="#Menlo-Regular-30" transform="translate(60.205078 0)"/>
       <use xlink:href="#Menlo-Regular-30" transform="translate(120.410156 0)"/>
      </g>
     </g>
    </g>
    <g id="xtick_15">
     <g id="line2d_33">
      <g>
       <use xlink:href="#mdbdbbf681e" x="289.998805" y="246.3" style="fill: #1a1a1a; stroke: #1a1a1a"/>
      </g>
     </g>
     <g id="text_14">
      <!-- 125 -->
      <g style="fill: #1a1a1a" transform="translate(281.871383 256.663906) scale(0.09 -0.09)">
       <use xlink:href="#Menlo-Regular-31"/>
       <use xlink:href="#Menlo-Regular-32" transform="translate(60.205078 0)"/>
       <use xlink:href="#Menlo-Regular-35" transform="translate(120.410156 0)"/>
      </g>
     </g>
    </g>
    <g id="xtick_16">
     <g id="line2d_34">
      <g>
       <use xlink:href="#mdbdbbf681e" x="336.174165" y="246.3" style="fill: #1a1a1a; stroke: #1a1a1a"/>
      </g>
     </g>
     <g id="text_15">
      <!-- 150 -->
      <g style="fill: #1a1a1a" transform="translate(328.046743 256.663906) scale(0.09 -0.09)">
       <use xlink:href="#Menlo-Regular-31"/>
       <use xlink:href="#Menlo-Regular-35" transform="translate(60.205078 0)"/>
       <use xlink:href="#Menlo-Regular-30" transform="translate(120.410156 0)"/>
      </g>
     </g>
    </g>
    <g id="xtick_17">
     <g id="line2d_35">
      <g>
       <use xlink:href="#mdbdbbf681e" x="382.349526" y="246.3" style="fill: #1a1a1a; stroke: #1a1a1a"/>
      </g>
     </g>
     <g id="text_16">
      <!-- 175 -->
      <g style="fill: #1a1a1a" transform="translate(374.222104 256.663906) scale(0.09 -0.09)">
       <use xlink:href="#Menlo-Regular-31"/>
       <use xlink:href="#Menlo-Regular-37" transform="translate(60.205078 0)"/>
       <use xlink:href="#Menlo-Regular-35" transform="translate(120.410156 0)"/>
      </g>
     </g>
    </g>
    <g id="xtick_18">
     <g id="line2d_36">
      <g>
       <use xlink:href="#mdbdbbf681e" x="428.524886" y="246.3" style="fill: #1a1a1a; stroke: #1a1a1a"/>
      </g>
     </g>
     <g id="text_17">
      <!-- 200 -->
      <g style="fill: #1a1a1a" transform="translate(420.397464 256.663906) scale(0.09 -0.09)">
       <use xlink:href="#Menlo-Regular-32"/>
       <use xlink:href="#Menlo-Regular-30" transform="translate(60.205078 0)"/>
       <use xlink:href="#Menlo-Regular-30" transform="translate(120.410156 0)"/>
      </g>
     </g>
    </g>
    <g id="text_18">
     <!-- time (ms) -->
     <g style="fill: #1a1a1a" transform="translate(216.639687 270.162187) scale(0.1 -0.1)">
      <defs>
       <path id="Menlo-Regular-69" d="M 988 3488 
L 2459 3488 
L 2459 447 
L 3600 447 
L 3600 0 
L 744 0 
L 744 447 
L 1884 447 
L 1884 3041 
L 988 3041 
L 988 3488 
z
M 1884 4847 
L 2459 4847 
L 2459 4122 
L 1884 4122 
L 1884 4847 
z
" transform="scale(0.015625)"/>
       <path id="Menlo-Regular-28" d="M 2672 5169 
Q 2256 4456 2051 3748 
Q 1847 3041 1847 2322 
Q 1847 1606 2051 897 
Q 2256 188 2672 -531 
L 2172 -531 
Q 1700 213 1469 917 
Q 1238 1622 1238 2322 
Q 1238 3019 1469 3725 
Q 1700 4431 2172 5169 
L 2672 5169 
z
" transform="scale(0.015625)"/>
       <path id="Menlo-Regular-29" d="M 1088 5169 
L 1588 5169 
Q 2059 4431 2290 3725 
Q 2522 3019 2522 2322 
Q 2522 1619 2290 912 
Q 2059 206 1588 -531 
L 1088 -531 
Q 1503 194 1708 903 
Q 1913 1613 1913 2322 
Q 1913 3034 1708 3743 
Q 1503 4453 1088 5169 
z
" transform="scale(0.015625)"/>
      </defs>
      <use xlink:href="#Menlo-Regular-74"/>
      <use xlink:href="#Menlo-Regular-69" transform="translate(60.205078 0)"/>
      <use xlink:href="#Menlo-Regular-6d" transform="translate(120.410156 0)"/>
      <use xlink:href="#Menlo-Regular-65" transform="translate(180.615234 0)"/>
      <use xlink:href="#Menlo-Regular-20" transform="translate(240.820312 0)"/>
      <use xlink:href="#Menlo-Regular-28" transform="translate(301.025391 0)"/>
      <use xlink:href="#Menlo-Regular-6d" transform="translate(361.230469 0)"/>
      <use xlink:href="#Menlo-Regular-73" transform="translate(421.435547 0)"/>
      <use xlink:href="#Menlo-Regular-29" transform="translate(481.640625 0)"/>
     </g>
    </g>
   </g>
   <g id="matplotlib.axis_4">
    <g id="ytick_7">
     <g id="line2d_37">
      <g>
       <use xlink:href="#ma7a863de0f" x="40.661094" y="241.13814" style="fill: #1a1a1a; stroke: #1a1a1a"/>
      </g>
     </g>
     <g id="text_19">
      <!-- 0.0 -->
      <g style="fill: #1a1a1a" transform="translate(20.90625 244.570094) scale(0.09 -0.09)">
       <use xlink:href="#Menlo-Regular-30"/>
       <use xlink:href="#Menlo-Regular-2e" transform="translate(60.205078 0)"/>
       <use xlink:href="#Menlo-Regular-30" transform="translate(120.410156 0)"/>
      </g>
     </g>
    </g>
    <g id="ytick_8">
     <g id="line2d_38">
      <g>
       <use xlink:href="#ma7a863de0f" x="40.661094" y="220.490702" style="fill: #1a1a1a; stroke: #1a1a1a"/>
      </g>
     </g>
     <g id="text_20">
      <!-- 0.2 -->
      <g style="fill: #1a1a1a" transform="translate(20.90625 223.922656) scale(0.09 -0.09)">
       <use xlink:href="#Menlo-Regular-30"/>
       <use xlink:href="#Menlo-Regular-2e" transform="translate(60.205078 0)"/>
       <use xlink:href="#Menlo-Regular-32" transform="translate(120.410156 0)"/>
      </g>
     </g>
    </g>
    <g id="ytick_9">
     <g id="line2d_39">
      <g>
       <use xlink:href="#ma7a863de0f" x="40.661094" y="199.843264" style="fill: #1a1a1a; stroke: #1a1a1a"/>
      </g>
     </g>
     <g id="text_21">
      <!-- 0.4 -->
      <g style="fill: #1a1a1a" transform="translate(20.90625 203.275218) scale(0.09 -0.09)">
       <use xlink:href="#Menlo-Regular-30"/>
       <use xlink:href="#Menlo-Regular-2e" transform="translate(60.205078 0)"/>
       <use xlink:href="#Menlo-Regular-34" transform="translate(120.410156 0)"/>
      </g>
     </g>
    </g>
    <g id="ytick_10">
     <g id="line2d_40">
      <g>
       <use xlink:href="#ma7a863de0f" x="40.661094" y="179.195826" style="fill: #1a1a1a; stroke: #1a1a1a"/>
      </g>
     </g>
     <g id="text_22">
      <!-- 0.6 -->
      <g style="fill: #1a1a1a" transform="translate(20.90625 182.62778) scale(0.09 -0.09)">
       <use xlink:href="#Menlo-Regular-30"/>
       <use xlink:href="#Menlo-Regular-2e" transform="translate(60.205078 0)"/>
       <use xlink:href="#Menlo-Regular-36" transform="translate(120.410156 0)"/>
      </g>
     </g>
    </g>
    <g id="ytick_11">
     <g id="line2d_41">
      <g>
       <use xlink:href="#ma7a863de0f" x="40.661094" y="158.548388" style="fill: #1a1a1a; stroke: #1a1a1a"/>
      </g>
     </g>
     <g id="text_23">
      <!-- 0.8 -->
      <g style="fill: #1a1a1a" transform="translate(20.90625 161.980342) scale(0.09 -0.09)">
       <use xlink:href="#Menlo-Regular-30"/>
       <use xlink:href="#Menlo-Regular-2e" transform="translate(60.205078 0)"/>
       <use xlink:href="#Menlo-Regular-38" transform="translate(120.410156 0)"/>
      </g>
     </g>
    </g>
    <g id="ytick_12">
     <g id="line2d_42">
      <g>
       <use xlink:href="#ma7a863de0f" x="40.661094" y="137.90095" style="fill: #1a1a1a; stroke: #1a1a1a"/>
      </g>
     </g>
     <g id="text_24">
      <!-- 1.0 -->
      <g style="fill: #1a1a1a" transform="translate(20.90625 141.332904) scale(0.09 -0.09)">
       <use xlink:href="#Menlo-Regular-31"/>
       <use xlink:href="#Menlo-Regular-2e" transform="translate(60.205078 0)"/>
       <use xlink:href="#Menlo-Regular-30" transform="translate(120.410156 0)"/>
      </g>
     </g>
    </g>
    <g id="text_25">
     <!-- softmax class share -->
     <g style="fill: #1a1a1a" transform="translate(14.826563 246.712514) rotate(-90) scale(0.1 -0.1)">
      <use xlink:href="#Menlo-Regular-73"/>
      <use xlink:href="#Menlo-Regular-6f" transform="translate(60.205078 0)"/>
      <use xlink:href="#Menlo-Regular-66" transform="translate(120.410156 0)"/>
      <use xlink:href="#Menlo-Regular-74" transform="translate(180.615234 0)"/>
      <use xlink:href="#Menlo-Regular-6d" transform="translate(240.820312 0)"/>
      <use xlink:href="#Menlo-Regular-61" transform="translate(301.025391 0)"/>
      <use xlink:href="#Menlo-Regular-78" transform="translate(361.230469 0)"/>
      <use xlink:href="#Menlo-Regular-20" transform="translate(421.435547 0)"/>
      <use xlink:href="#Menlo-Regular-63" transform="translate(481.640625 0)"/>
      <use xlink:href="#Menlo-Regular-6c" transform="translate(541.845703 0)"/>
      <use xlink:href="#Menlo-Regular-61" transform="translate(602.050781 0)"/>
      <use xlink:href="#Menlo-Regular-73" transform="translate(662.255859 0)"/>
      <use xlink:href="#Menlo-Regular-73" transform="translate(722.460938 0)"/>
      <use xlink:href="#Menlo-Regular-20" transform="translate(782.666016 0)"/>
      <use xlink:href="#Menlo-Regular-73" transform="translate(842.871094 0)"/>
      <use xlink:href="#Menlo-Regular-68" transform="translate(903.076172 0)"/>
      <use xlink:href="#Menlo-Regular-61" transform="translate(963.28125 0)"/>
      <use xlink:href="#Menlo-Regular-72" transform="translate(1023.486328 0)"/>
      <use xlink:href="#Menlo-Regular-65" transform="translate(1083.691406 0)"/>
     </g>
    </g>
   </g>
   <g id="line2d_43">
    <path d="M 59.122003 230.814421 
L 64.847748 230.814421 
L 65.032449 226.043652 
L 65.21715 233.35164 
L 75.191028 233.35164 
L 75.560431 233.160237 
L 75.929834 233.133608 
L 76.299237 232.554248 
L 76.66864 224.004706 
L 76.853341 222.13178 
L 77.222744 236.60999 
L 79.993266 236.60999 
L 80.177967 239.353951 
L 82.209683 239.304829 
L 82.394384 236.304866 
L 82.763787 236.304866 
L 82.948489 239.296193 
L 84.795503 239.295972 
L 84.980205 240.452567 
L 89.043636 240.450891 
L 89.228338 240.884246 
L 89.413039 240.884246 
L 89.782442 241.103703 
L 90.890651 241.137508 
L 428.340185 241.13814 
L 428.340185 241.13814 
" clip-path="url(#pf8f1edcbec)" style="fill: none; stroke: #6a6a6a; stroke-opacity: 0.45; stroke-width: 0.6; stroke-linejoin: miter"/>
   </g>
   <g id="line2d_44">
    <path d="M 59.122003 230.814421 
L 64.847748 230.814421 
L 65.21715 238.273647 
L 75.191028 238.273647 
L 75.37573 240.06554 
L 75.560431 240.740944 
L 75.929834 241.084206 
L 76.853341 241.137278 
L 128.569745 241.13814 
L 428.340185 241.13814 
L 428.340185 241.13814 
" clip-path="url(#pf8f1edcbec)" style="fill: none; stroke: #6a6a6a; stroke-opacity: 0.45; stroke-width: 0.6; stroke-linejoin: miter"/>
   </g>
   <g id="line2d_45">
    <path d="M 59.122003 230.814421 
L 64.847748 230.814421 
L 65.21715 219.972238 
L 75.191028 219.972238 
L 75.560431 219.451953 
L 75.929834 219.379566 
L 76.299237 217.804704 
L 76.66864 194.564636 
L 76.853341 189.473493 
L 77.222744 150.187802 
L 79.993266 150.187802 
L 80.177967 143.724679 
L 81.470877 143.724679 
L 81.655579 142.935331 
L 82.024982 142.724632 
L 82.209683 141.042737 
L 82.394384 144.059228 
L 82.763787 144.059228 
L 82.948489 140.571238 
L 84.795503 140.559171 
L 84.980205 139.390065 
L 85.71901 139.390065 
L 86.088413 139.174541 
L 89.043636 139.141288 
L 89.228338 138.709854 
L 89.413039 138.709854 
L 89.967144 138.297477 
L 90.890651 138.204 
L 91.260054 137.95323 
L 111.946615 137.999805 
L 112.131317 138.169215 
L 112.316018 138.626918 
L 113.424227 138.604784 
L 113.608928 138.161 
L 127.461536 138.160889 
L 127.646238 138.604483 
L 127.830939 139.7912 
L 128.015641 142.882442 
L 128.200342 150.280141 
L 128.569745 189.543125 
L 128.939148 228.833308 
L 129.123849 236.242239 
L 134.29549 236.242105 
L 134.480191 228.832458 
L 134.664892 213.374306 
L 137.804817 213.373392 
L 137.989518 228.831968 
L 140.390637 228.831966 
L 140.575339 213.373383 
L 140.944741 213.373383 
L 141.129443 189.519545 
L 149.256306 189.519545 
L 149.625709 228.831966 
L 149.995112 239.281295 
L 150.179814 240.447189 
L 150.549216 241.044086 
L 158.860781 241.044086 
L 159.045483 240.882874 
L 159.230184 240.447189 
L 171.420479 240.447189 
L 171.605181 239.281295 
L 172.159285 239.281295 
L 172.343987 236.242027 
L 172.713389 236.242027 
L 172.898091 228.831966 
L 173.082792 228.831966 
L 173.267494 213.373383 
L 174.560404 213.373383 
L 174.929807 165.665705 
L 175.114508 165.665705 
L 175.29921 189.519545 
L 177.515627 189.519545 
L 177.88503 228.831966 
L 178.254433 228.831966 
L 178.623836 239.281295 
L 178.808537 240.447189 
L 178.993238 240.882874 
L 187.674206 240.882874 
L 188.043609 241.10352 
L 189.151818 241.138055 
L 428.340185 241.13814 
L 428.340185 241.13814 
" clip-path="url(#pf8f1edcbec)" style="fill: none; stroke: #6a6a6a; stroke-opacity: 0.45; stroke-width: 0.6; stroke-linejoin: miter"/>
   </g>
   <g id="line2d_46">
    <path d="M 59.122003 230.814421 
L 64.847748 230.814421 
L 65.21715 219.972238 
L 75.191028 219.972238 
L 75.560431 219.451953 
L 75.929834 219.379566 
L 76.299237 217.804704 
L 76.66864 234.835102 
L 76.853341 238.565909 
L 77.222744 240.525322 
L 81.470877 240.481774 
L 81.84028 241.048451 
L 82.394384 241.12616 
L 428.340185 241.13814 
L 428.340185 241.13814 
" clip-path="url(#pf8f1edcbec)" style="fill: none; stroke: #6a6a6a; stroke-opacity: 0.45; stroke-width: 0.6; stroke-linejoin: miter"/>
   </g>
   <g id="line2d_47">
    <path d="M 59.122003 230.814421 
L 64.847748 230.814421 
L 65.21715 219.972238 
L 75.191028 219.972238 
L 75.560431 219.451953 
L 75.929834 219.379566 
L 76.299237 217.804704 
L 76.66864 234.835102 
L 76.853341 238.565909 
L 77.222744 240.525322 
L 82.024982 240.475035 
L 82.209683 240.890029 
L 84.795503 240.88883 
L 90.890651 240.882992 
L 91.260054 241.103526 
L 111.946615 241.044091 
L 112.131317 240.882906 
L 112.316018 240.447425 
L 113.424227 240.447276 
L 113.608928 240.882886 
L 127.461536 240.882885 
L 127.646238 240.447274 
L 127.830939 239.281906 
L 128.015641 236.246277 
L 128.200342 228.841847 
L 128.569745 189.543125 
L 128.939148 150.217037 
L 129.123849 142.801328 
L 134.29549 142.798627 
L 134.480191 150.210767 
L 134.664892 165.668216 
L 137.804817 165.66573 
L 137.989518 150.207136 
L 140.390637 150.20713 
L 140.575339 165.665705 
L 140.944741 165.665705 
L 141.129443 189.519545 
L 149.256306 189.519545 
L 149.625709 150.20713 
L 149.995112 139.757799 
L 150.179814 138.591899 
L 150.549216 137.994999 
L 158.860781 137.994999 
L 159.045483 138.156213 
L 159.230184 138.591899 
L 171.420479 138.591899 
L 171.605181 139.757799 
L 172.159285 139.757799 
L 172.343987 142.797064 
L 172.713389 142.797064 
L 172.898091 150.20713 
L 173.082792 150.20713 
L 173.267494 165.665705 
L 174.560404 165.665705 
L 174.929807 213.373383 
L 175.114508 213.373383 
L 175.29921 189.519545 
L 177.515627 189.519545 
L 177.88503 150.20713 
L 178.254433 150.20713 
L 178.623836 139.757799 
L 178.808537 138.591899 
L 178.993238 138.156213 
L 187.674206 138.156213 
L 188.043609 137.93557 
L 189.151818 137.901037 
L 428.340185 137.90095 
L 428.340185 137.90095 
" clip-path="url(#pf8f1edcbec)" style="fill: none; stroke: #6a6a6a; stroke-opacity: 0.45; stroke-width: 0.6; stroke-linejoin: miter"/>
   </g>
   <g id="line2d_48">
    <path d="M 59.122003 230.814421 
L 64.847748 230.814421 
L 65.032449 235.585189 
L 65.21715 233.35164 
L 75.191028 233.35164 
L 75.560431 233.160237 
L 75.929834 233.133608 
L 76.114535 238.040599 
L 76.299237 239.976437 
L 76.66864 240.824331 
L 77.038043 241.069286 
L 77.592147 241.10763 
L 428.340185 241.13814 
L 428.340185 241.13814 
" clip-path="url(#pf8f1edcbec)" style="fill: none; stroke: #6a6a6a; stroke-opacity: 0.45; stroke-width: 0.6; stroke-linejoin: miter"/>
   </g>
   <g id="line2d_49">
    <path d="M 59.122003 230.814421 
L 64.847748 230.814421 
L 65.21715 238.273647 
L 75.929834 238.193438 
L 76.299237 237.980303 
L 76.66864 240.285117 
L 76.853341 240.790027 
L 77.222744 241.055205 
L 428.340185 241.13814 
L 428.340185 241.13814 
" clip-path="url(#pf8f1edcbec)" style="fill: none; stroke: #6a6a6a; stroke-opacity: 0.45; stroke-width: 0.6; stroke-linejoin: miter"/>
   </g>
   <g id="line2d_50">
    <path d="M 59.122003 230.814421 
L 64.847748 230.814421 
L 65.032449 226.043652 
L 65.21715 233.35164 
L 75.191028 233.35164 
L 75.560431 233.160237 
L 75.929834 233.133608 
L 76.299237 232.554248 
L 76.66864 224.004706 
L 76.853341 222.13178 
L 77.222744 236.60999 
L 79.993266 236.60999 
L 80.177967 239.353951 
L 82.024982 239.335634 
L 82.209683 240.463703 
L 82.763787 240.484028 
L 82.948489 240.88886 
L 85.71901 240.885932 
L 86.088413 241.103936 
L 428.340185 241.13814 
L 428.340185 241.13814 
" clip-path="url(#pf8f1edcbec)" style="fill: none; stroke: #6a6a6a; stroke-opacity: 0.45; stroke-width: 0.6; stroke-linejoin: miter"/>
   </g>
   <g id="line2d_51">
    <path d="M 59.122003 230.814421 
L 64.847748 230.814421 
L 65.032449 235.585189 
L 65.21715 233.35164 
L 75.191028 233.35164 
L 75.560431 233.160237 
L 75.929834 233.133608 
L 76.299237 232.554248 
L 76.66864 238.819382 
L 76.853341 240.19187 
L 77.222744 240.912697 
L 89.782442 240.883678 
L 89.967144 241.044362 
L 428.340185 241.13814 
L 428.340185 241.13814 
" clip-path="url(#pf8f1edcbec)" style="fill: none; stroke: #6a6a6a; stroke-opacity: 0.45; stroke-width: 0.6; stroke-linejoin: miter"/>
   </g>
   <g id="line2d_52">
    <path d="M 59.122003 230.814421 
L 64.847748 230.814421 
L 65.21715 238.273647 
L 75.929834 238.193438 
L 76.299237 237.980303 
L 76.66864 234.835102 
L 76.853341 234.146092 
L 77.222744 239.472327 
L 79.993266 239.472327 
L 80.177967 240.481774 
L 81.470877 240.481774 
L 81.655579 240.89472 
L 82.024982 240.894198 
L 82.209683 241.046865 
L 95.692888 241.138136 
L 428.340185 241.13814 
L 428.340185 241.13814 
" clip-path="url(#pf8f1edcbec)" style="fill: none; stroke: #6a6a6a; stroke-opacity: 0.45; stroke-width: 0.6; stroke-linejoin: miter"/>
   </g>
   <g id="line2d_53">
    <path d="M 59.122003 230.814421 
L 64.847748 230.814421 
L 65.21715 219.972238 
L 75.191028 219.972238 
L 75.560431 219.451953 
L 75.929834 219.379566 
L 76.299237 217.804704 
L 76.66864 234.835102 
L 76.853341 238.565909 
L 77.222744 240.525322 
L 82.024982 240.475035 
L 82.209683 240.890029 
L 84.795503 240.88883 
L 90.890651 240.882992 
L 91.260054 241.103526 
L 111.946615 241.044091 
L 112.131317 240.882906 
L 112.316018 240.447425 
L 113.424227 240.447276 
L 113.608928 240.882886 
L 127.461536 240.882885 
L 127.646238 240.447274 
L 127.830939 239.281906 
L 128.015641 236.246277 
L 128.200342 228.841847 
L 128.569745 189.543125 
L 128.939148 150.217037 
L 129.123849 142.801328 
L 134.29549 142.798627 
L 134.480191 150.210767 
L 134.664892 165.668216 
L 137.804817 165.66573 
L 137.989518 150.207136 
L 140.390637 150.20713 
L 140.575339 165.665705 
L 140.944741 165.665705 
L 141.129443 189.519545 
L 149.256306 189.519545 
L 149.625709 150.20713 
L 149.995112 139.757799 
L 150.179814 138.591899 
L 150.549216 137.994999 
L 158.860781 137.994999 
L 159.045483 138.156213 
L 159.230184 138.591899 
L 171.420479 138.591899 
L 171.605181 139.757799 
L 172.159285 139.757799 
L 172.343987 142.797064 
L 172.713389 142.797064 
L 172.898091 150.20713 
L 173.082792 150.20713 
L 173.267494 165.665705 
L 174.560404 165.665705 
L 174.929807 213.373383 
L 175.114508 213.373383 
L 175.29921 189.519545 
L 177.515627 189.519545 
L 177.88503 150.20713 
L 178.254433 150.20713 
L 178.623836 139.757799 
L 178.808537 138.591899 
L 178.993238 138.156213 
L 187.674206 138.156213 
L 188.043609 137.93557 
L 189.151818 137.901037 
L 428.340185 137.90095 
L 428.340185 137.90095 
" clip-path="url(#pf8f1edcbec)" style="fill: none; stroke: #c8102e; stroke-width: 1.8; stroke-linejoin: miter"/>
   </g>
   <g id="line2d_54">
    <path d="M 40.661094 189.519545 
L 446.801094 189.519545 
" clip-path="url(#pf8f1edcbec)" style="fill: none; stroke-dasharray: 2.22,0.96; stroke-dashoffset: 0; stroke: #a0a0a0; stroke-width: 0.6"/>
   </g>
   <g id="patch_6">
    <path d="M 40.661094 246.3 
L 40.661094 132.739091 
" style="fill: none; stroke: #1a1a1a; stroke-width: 1.4; stroke-linejoin: miter; stroke-linecap: square"/>
   </g>
   <g id="patch_7">
    <path d="M 40.661094 246.3 
L 446.801094 246.3 
" style="fill: none; stroke: #1a1a1a; stroke-width: 1.4; stroke-linejoin: miter; stroke-linecap: square"/>
   </g>
   <g id="text_26">
    <!-- PING -->
    <g transform="translate(44.722494 148.696245) scale(0.105 -0.105)">
     <defs>
      <path id="Menlo-Regular-50" d="M 1247 4147 
L 1247 2394 
L 1978 2394 
Q 2416 2394 2661 2625 
Q 2906 2856 2906 3272 
Q 2906 3688 2662 3917 
Q 2419 4147 1978 4147 
L 1247 4147 
z
M 616 4666 
L 1978 4666 
Q 2759 4666 3162 4311 
Q 3566 3956 3566 3272 
Q 3566 2581 3164 2228 
Q 2763 1875 1978 1875 
L 1247 1875 
L 1247 0 
L 616 0 
L 616 4666 
z
" transform="scale(0.015625)"/>
      <path id="Menlo-Regular-49" d="M 628 4666 
L 3219 4666 
L 3219 4134 
L 2241 4134 
L 2241 531 
L 3219 531 
L 3219 0 
L 628 0 
L 628 531 
L 1606 531 
L 1606 4134 
L 628 4134 
L 628 4666 
z
" transform="scale(0.015625)"/>
      <path id="Menlo-Regular-4e" d="M 59 4650 
L 922 4650 
L 2747 822 
L 2747 4650 
L 3419 4650 
L 3419 0 
L 2556 0 
L 731 3828 
L 731 0 
L 59 0 
L 59 4650 
z
" transform="scale(0.015625)"/>
      <path id="Menlo-Regular-47" d="M 3450 384 
Q 3197 150 2880 29 
Q 2563 -91 2194 -91 
Q 1306 -91 812 545 
Q 319 1181 319 2328 
Q 319 3472 819 4111 
Q 1319 4750 2209 4750 
Q 2503 4750 2772 4667 
Q 3041 4584 3291 4416 
L 3291 3769 
Q 3038 4009 2772 4123 
Q 2506 4238 2209 4238 
Q 1594 4238 1286 3761 
Q 978 3284 978 2328 
Q 978 1356 1276 889 
Q 1575 422 2194 422 
Q 2403 422 2561 470 
Q 2719 519 2847 622 
L 2847 1875 
L 2169 1875 
L 2169 2394 
L 3450 2394 
L 3450 384 
z
" transform="scale(0.015625)"/>
     </defs>
     <use xlink:href="#Menlo-Regular-50"/>
     <use xlink:href="#Menlo-Regular-49" transform="translate(60.205078 0)"/>
     <use xlink:href="#Menlo-Regular-4e" transform="translate(120.410156 0)"/>
     <use xlink:href="#Menlo-Regular-47" transform="translate(180.615234 0)"/>
    </g>
   </g>
  </g>
 </g>
 <defs>
  <clipPath id="p209986daf7">
   <rect x="40.661094" y="7.2" width="406.14" height="113.560909"/>
  </clipPath>
  <clipPath id="pf8f1edcbec">
   <rect x="40.661094" y="132.739091" width="406.14" height="113.560909"/>
  </clipPath>
 </defs>
</svg>
