<?xml version="1.0" encoding="UTF-8" standalone="no"?>
<!DOCTYPE svg PUBLIC "-//W3C//DTD SVG 1.1//EN"
 "http://www.w3.org/Graphics/SVG/1.1/DTD/svg11.dtd">
<!-- Generated by graphviz version 2.43.0 (0)
 -->
<!-- Title: snnlang Pages: 1 -->
<svg width="1297pt" height="246pt"
 viewBox="0.00 0.00 1297.40 246.40" xmlns="http://www.w3.org/2000/svg" xmlns:xlink="http://www.w3.org/1999/xlink">
<g id="graph0" class="graph" transform="scale(1 1) rotate(0) translate(25.2 221.2)">
<title>snnlang</title>
<polygon fill="#ffffff" stroke="transparent" points="-25.2,25.2 -25.2,-221.2 1272.2,-221.2 1272.2,25.2 -25.2,25.2"/>
<!-- image&#45;&gt;sensory_ping_E -->
<g id="e_n_sensory_ping_input" class="edge edge excitatory feedforward">
<title>image&#45;&gt;sensory_ping_E</title>
<path fill="none" stroke="#243044" stroke-width="1.7" d="M121.23,-94C166.01,-94 227.9,-94 277.71,-94"/>
<polygon fill="#243044" stroke="#243044" stroke-width="1.7" points="277.77,-96.52 284.97,-94 277.77,-91.48 277.77,-96.52"/>
<text text-anchor="middle" x="203" y="-96.8" font-family="Helvetica,sans-Serif" font-size="9.00" fill="#667085">sensory_ping_input</text>
</g>
<!-- classifier_integrator&#45;&gt;classifier_mean -->
<g id="edge5" class="edge">
<title>classifier_integrator&#45;&gt;classifier_mean</title>
<path fill="none" stroke="#8794a6" stroke-width="1.7" d="M806.25,-157C829.16,-157 853.32,-157 875.45,-157"/>
<polygon fill="#8794a6" stroke="#8794a6" stroke-width="1.7" points="882.87,-157 875.67,-160.24 879.27,-157.35 875.67,-157.35 875.67,-157 875.67,-156.65 879.27,-156.65 875.67,-153.76 882.87,-157 882.87,-157"/>
</g>
<!-- sensory_ping_E&#45;&gt;classifier_integrator -->
<g id="e_n_classifier_projection" class="edge edge excitatory feedforward">
<title>sensory_ping_E&#45;&gt;classifier_integrator</title>
<path fill="none" stroke="#243044" stroke-width="1.7" d="M441.18,-108.22C488.31,-116.9 549.22,-128.12 600.74,-137.61"/>
<polygon fill="#243044" stroke="#243044" stroke-width="1.7" points="600.41,-140.11 607.94,-138.94 601.32,-135.15 600.41,-140.11"/>
<text text-anchor="middle" x="524.5" y="-134.8" font-family="Helvetica,sans-Serif" font-size="9.00" fill="#667085">classifier_projection</text>
</g>
<!-- sensory_ping_E&#45;&gt;sensory_ping_I -->
<g id="e_n_sensory_ping_E_to_I" class="edge edge excitatory recurrent">
<title>sensory_ping_E&#45;&gt;sensory_ping_I</title>
<path fill="none" stroke="#243044" stroke-width="2.2" d="M441.18,-81.59C495.76,-72.81 568.82,-61.06 624.37,-52.13"/>
<polygon fill="#243044" stroke="#243044" stroke-width="2.2" points="625.04,-54.57 631.74,-50.94 624.24,-49.6 625.04,-54.57"/>
<text text-anchor="middle" x="524.5" y="-77.8" font-family="Helvetica,sans-Serif" font-size="9.00" fill="#667085">sensory_ping_E_to_I</text>
</g>
<!-- sensory_ping_I&#45;&gt;sensory_ping_E -->
<g id="e_n_sensory_ping_I_to_E" class="edge edge inhibitory recurrent">
<title>sensory_ping_I&#45;&gt;sensory_ping_E</title>
<path fill="none" stroke="#c44a55" stroke-width="2.2" d="M631.77,-32.39C586.99,-30.27 529.11,-30.85 479,-42 466.78,-44.72 454.29,-48.81 442.25,-53.54"/>
<polygon fill="#c44a55" stroke="#c44a55" stroke-width="2.2" points="440.87,-57.96 438.21,-51.27 439.55,-50.74 442.21,-57.43 440.87,-57.96"/>
<polyline fill="none" stroke="#c44a55" stroke-width="2.2" points="438.87,-54.88 442.22,-53.55 "/>
<text text-anchor="middle" x="524.5" y="-44.8" font-family="Helvetica,sans-Serif" font-size="9.00" fill="#667085">sensory_ping_I_to_E</text>
</g>
<!-- classifier_mean&#45;&gt;out:class_logits -->
<g id="edge6" class="edge">
<title>classifier_mean&#45;&gt;out:class_logits</title>
<path fill="none" stroke="#c49a28" stroke-width="2" d="M1034.08,-157C1056.41,-157 1080.89,-157 1103.23,-157"/>
<polygon fill="#c49a28" stroke="#c49a28" stroke-width="2" points="1103.51,-159.52 1110.71,-157 1103.51,-154.48 1103.51,-159.52"/>
</g>
<!-- image -->
<g id="n_image" class="node node input">
<title>image</title>
<path fill="#f5f7fa" stroke="#cbd5e1" d="M109,-132C109,-132 12,-132 12,-132 6,-132 0,-126 0,-120 0,-120 0,-68 0,-68 0,-62 6,-56 12,-56 12,-56 109,-56 109,-56 115,-56 121,-62 121,-68 121,-68 121,-120 121,-120 121,-126 115,-132 109,-132"/>
<text text-anchor="start" x="12.5" y="-112" font-family="Helvetica,sans-Serif" font-weight="bold" font-size="15.00" fill="#243044">image</text>
<text text-anchor="start" x="12.5" y="-93" font-family="Helvetica,sans-Serif" font-size="10.00" fill="#667085">time × batch × 784</text>
<polygon fill="#f5f7fa" stroke="transparent" points="12.5,-65 12.5,-83 109.5,-83 109.5,-65 12.5,-65"/>
<text text-anchor="start" x="16.5" y="-71.8" font-family="Helvetica,sans-Serif" font-size="9.00" fill="#243044">SPIKES</text>
</g>
<!-- classifier_integrator -->
<g id="n_classifier_integrator" class="node node population analogue">
<title>classifier_integrator</title>
<path fill="#ffffff" stroke="#b8c4d1" stroke-width="1.4" d="M794,-196C794,-196 620,-196 620,-196 614,-196 608,-190 608,-184 608,-184 608,-130 608,-130 608,-124 614,-118 620,-118 620,-118 794,-118 794,-118 800,-118 806,-124 806,-130 806,-130 806,-184 806,-184 806,-190 800,-196 794,-196"/>
<text text-anchor="start" x="621" y="-175" font-family="Helvetica,sans-Serif" font-weight="bold" font-size="15.00" fill="#243044">classifier_integrator</text>
<text text-anchor="start" x="621" y="-156" font-family="Helvetica,sans-Serif" font-size="10.00" fill="#667085">10 units · leaky_integrator</text>
<polygon fill="#f5f7fa" stroke="transparent" points="621,-128 621,-146 793,-146 793,-128 621,-128"/>
<text text-anchor="start" x="625" y="-134.8" font-family="Helvetica,sans-Serif" font-size="9.00" fill="#243044">ANALOGUE POPULATION</text>
</g>
<!-- sensory_ping_E -->
<g id="n_sensory_ping_E" class="node node population spiking">
<title>sensory_ping_E</title>
<path fill="#ffffff" stroke="#b8c4d1" stroke-width="1.4" d="M429,-133C429,-133 297,-133 297,-133 291,-133 285,-127 285,-121 285,-121 285,-67 285,-67 285,-61 291,-55 297,-55 297,-55 429,-55 429,-55 435,-55 441,-61 441,-67 441,-67 441,-121 441,-121 441,-127 435,-133 429,-133"/>
<text text-anchor="start" x="298" y="-112" font-family="Helvetica,sans-Serif" font-weight="bold" font-size="15.00" fill="#243044">sensory_ping_E</text>
<text text-anchor="start" x="298" y="-93" font-family="Helvetica,sans-Serif" font-size="10.00" fill="#667085">256 units · coba_lif</text>
<polygon fill="#f5f7fa" stroke="transparent" points="298,-65 298,-83 428,-83 428,-65 298,-65"/>
<text text-anchor="start" x="302" y="-71.8" font-family="Helvetica,sans-Serif" font-size="9.00" fill="#243044">SPIKING POPULATION</text>
</g>
<!-- sensory_ping_I -->
<g id="n_sensory_ping_I" class="node node population spiking">
<title>sensory_ping_I</title>
<path fill="#ffffff" stroke="#b8c4d1" stroke-width="1.4" d="M770,-78C770,-78 644,-78 644,-78 638,-78 632,-72 632,-66 632,-66 632,-12 632,-12 632,-6 638,0 644,0 644,0 770,0 770,0 776,0 782,-6 782,-12 782,-12 782,-66 782,-66 782,-72 776,-78 770,-78"/>
<text text-anchor="start" x="645" y="-57" font-family="Helvetica,sans-Serif" font-weight="bold" font-size="15.00" fill="#243044">sensory_ping_I</text>
<text text-anchor="start" x="645" y="-38" font-family="Helvetica,sans-Serif" font-size="10.00" fill="#667085">64 units · coba_lif</text>
<polygon fill="#f5f7fa" stroke="transparent" points="645,-10 645,-28 769,-28 769,-10 645,-10"/>
<text text-anchor="start" x="649" y="-16.8" font-family="Helvetica,sans-Serif" font-size="9.00" fill="#243044">SPIKING POPULATION</text>
</g>
<!-- classifier_mean -->
<g id="n_classifier_mean" class="node node operation">
<title>classifier_mean</title>
<path fill="#ffffff" stroke="#cbd5e1" d="M1022,-193C1022,-193 895,-193 895,-193 889,-193 883,-187 883,-181 883,-181 883,-133 883,-133 883,-127 889,-121 895,-121 895,-121 1022,-121 1022,-121 1028,-121 1034,-127 1034,-133 1034,-133 1034,-181 1034,-181 1034,-187 1028,-193 1022,-193"/>
<text text-anchor="start" x="893.5" y="-175" font-family="Helvetica,sans-Serif" font-weight="bold" font-size="15.00" fill="#243044">classifier_mean</text>
<text text-anchor="start" x="893.5" y="-156" font-family="Helvetica,sans-Serif" font-size="10.00" fill="#667085">reduce mean</text>
<polygon fill="#f5f7fa" stroke="transparent" points="893.5,-128 893.5,-146 1024.5,-146 1024.5,-128 893.5,-128"/>
<text text-anchor="start" x="897.5" y="-134.8" font-family="Helvetica,sans-Serif" font-size="9.00" fill="#243044">OPERATION</text>
</g>
<!-- out:class_logits -->
<g id="n_out_class_logits" class="node node output">
<title>out:class_logits</title>
<path fill="#ffffff" stroke="#d8b85b" stroke-width="1.5" d="M1235,-195C1235,-195 1123,-195 1123,-195 1117,-195 1111,-189 1111,-183 1111,-183 1111,-131 1111,-131 1111,-125 1117,-119 1123,-119 1123,-119 1235,-119 1235,-119 1241,-119 1247,-125 1247,-131 1247,-131 1247,-183 1247,-183 1247,-189 1241,-195 1235,-195"/>
<text text-anchor="start" x="1123" y="-175" font-family="Helvetica,sans-Serif" font-weight="bold" font-size="15.00" fill="#243044">class_logits</text>
<text text-anchor="start" x="1123" y="-156" font-family="Helvetica,sans-Serif" font-size="10.00" fill="#667085">named graph interface</text>
<polygon fill="#fff4d6" stroke="transparent" points="1123,-128 1123,-146 1235,-146 1235,-128 1123,-128"/>
<text text-anchor="start" x="1127" y="-134.8" font-family="Helvetica,sans-Serif" font-size="9.00" fill="#243044">OUTPUT</text>
</g>
</g>
</svg>
